ISO-10303-21;
HEADER;
/* Generated by software containing ST-Developer
 * from STEP Tools, Inc. (www.steptools.com) 
 */

FILE_DESCRIPTION(
/* description */ (''),
/* implementation_level */ '2;1');

FILE_NAME(
/* name */ 'PRINT_V008B_P211_UpperArmCheek_Left_A_J2SixBoltHoles.step',

/* time_stamp */ '2026-08-12T23:08:04+02:00',
/* author */ (''),
/* organization */ (''),
/* preprocessor_version */ 'ST-DEVELOPER v20.1',
/* originating_system */ 'Autodesk Translation Framework v15.8.0.0',
/* authorisation */ '');

FILE_SCHEMA (('AUTOMOTIVE_DESIGN { 1 0 10303 214 3 1 1 }'));
ENDSEC;

DATA;
#10=MECHANICAL_DESIGN_GEOMETRIC_PRESENTATION_REPRESENTATION('',(#13),#798);
#11=SHAPE_REPRESENTATION_RELATIONSHIP('SRR','None',#805,#12);
#12=ADVANCED_BREP_SHAPE_REPRESENTATION('',(#14),#797);
#13=STYLED_ITEM('',(#814),#14);
#14=MANIFOLD_SOLID_BREP(
'PRINT_V008B_P211_UpperArmCheek_Left_A_J2SixBoltHoles',#466);
#15=FACE_BOUND('',#73,.T.);
#16=FACE_BOUND('',#74,.T.);
#17=FACE_BOUND('',#75,.T.);
#18=FACE_BOUND('',#76,.T.);
#19=FACE_BOUND('',#77,.T.);
#20=FACE_BOUND('',#78,.T.);
#21=FACE_BOUND('',#79,.T.);
#22=FACE_BOUND('',#84,.T.);
#23=FACE_BOUND('',#85,.T.);
#24=FACE_BOUND('',#86,.T.);
#25=FACE_BOUND('',#87,.T.);
#26=FACE_BOUND('',#88,.T.);
#27=FACE_BOUND('',#89,.T.);
#28=FACE_BOUND('',#90,.T.);
#29=PLANE('',#495);
#30=PLANE('',#496);
#31=PLANE('',#497);
#32=PLANE('',#498);
#33=PLANE('',#502);
#34=PLANE('',#516);
#35=PLANE('',#524);
#36=PLANE('',#525);
#37=PLANE('',#526);
#38=PLANE('',#528);
#39=FACE_OUTER_BOUND('',#62,.T.);
#40=FACE_OUTER_BOUND('',#63,.T.);
#41=FACE_OUTER_BOUND('',#64,.T.);
#42=FACE_OUTER_BOUND('',#65,.T.);
#43=FACE_OUTER_BOUND('',#66,.T.);
#44=FACE_OUTER_BOUND('',#67,.T.);
#45=FACE_OUTER_BOUND('',#68,.T.);
#46=FACE_OUTER_BOUND('',#69,.T.);
#47=FACE_OUTER_BOUND('',#70,.T.);
#48=FACE_OUTER_BOUND('',#71,.T.);
#49=FACE_OUTER_BOUND('',#72,.T.);
#50=FACE_OUTER_BOUND('',#80,.T.);
#51=FACE_OUTER_BOUND('',#81,.T.);
#52=FACE_OUTER_BOUND('',#82,.T.);
#53=FACE_OUTER_BOUND('',#83,.T.);
#54=FACE_OUTER_BOUND('',#91,.T.);
#55=FACE_OUTER_BOUND('',#92,.T.);
#56=FACE_OUTER_BOUND('',#93,.T.);
#57=FACE_OUTER_BOUND('',#94,.T.);
#58=FACE_OUTER_BOUND('',#95,.T.);
#59=FACE_OUTER_BOUND('',#96,.T.);
#60=FACE_OUTER_BOUND('',#97,.T.);
#61=FACE_OUTER_BOUND('',#98,.T.);
#62=EDGE_LOOP('',(#304,#305,#306,#307));
#63=EDGE_LOOP('',(#308,#309,#310,#311));
#64=EDGE_LOOP('',(#312,#313,#314,#315));
#65=EDGE_LOOP('',(#316,#317,#318,#319));
#66=EDGE_LOOP('',(#320,#321,#322,#323));
#67=EDGE_LOOP('',(#324,#325,#326,#327));
#68=EDGE_LOOP('',(#328,#329,#330,#331));
#69=EDGE_LOOP('',(#332,#333,#334,#335));
#70=EDGE_LOOP('',(#336,#337,#338,#339));
#71=EDGE_LOOP('',(#340,#341,#342,#343));
#72=EDGE_LOOP('',(#344,#345,#346,#347,#348,#349,#350,#351,#352,#353,#354,
#355,#356,#357));
#73=EDGE_LOOP('',(#358));
#74=EDGE_LOOP('',(#359));
#75=EDGE_LOOP('',(#360));
#76=EDGE_LOOP('',(#361));
#77=EDGE_LOOP('',(#362));
#78=EDGE_LOOP('',(#363));
#79=EDGE_LOOP('',(#364));
#80=EDGE_LOOP('',(#365,#366,#367,#368));
#81=EDGE_LOOP('',(#369,#370,#371,#372));
#82=EDGE_LOOP('',(#373,#374,#375,#376));
#83=EDGE_LOOP('',(#377,#378,#379,#380,#381,#382,#383,#384,#385,#386,#387,
#388,#389,#390));
#84=EDGE_LOOP('',(#391));
#85=EDGE_LOOP('',(#392));
#86=EDGE_LOOP('',(#393));
#87=EDGE_LOOP('',(#394));
#88=EDGE_LOOP('',(#395));
#89=EDGE_LOOP('',(#396));
#90=EDGE_LOOP('',(#397));
#91=EDGE_LOOP('',(#398,#399,#400,#401));
#92=EDGE_LOOP('',(#402,#403,#404,#405));
#93=EDGE_LOOP('',(#406,#407,#408,#409));
#94=EDGE_LOOP('',(#410,#411,#412,#413));
#95=EDGE_LOOP('',(#414,#415,#416,#417));
#96=EDGE_LOOP('',(#418,#419,#420,#421));
#97=EDGE_LOOP('',(#422,#423,#424,#425));
#98=EDGE_LOOP('',(#426,#427,#428,#429));
#99=LINE('',#671,#136);
#100=LINE('',#677,#137);
#101=LINE('',#683,#138);
#102=LINE('',#689,#139);
#103=LINE('',#695,#140);
#104=LINE('',#700,#141);
#105=LINE('',#702,#142);
#106=LINE('',#704,#143);
#107=LINE('',#705,#144);
#108=LINE('',#709,#145);
#109=LINE('',#711,#146);
#110=LINE('',#713,#147);
#111=LINE('',#714,#148);
#112=LINE('',#718,#149);
#113=LINE('',#720,#150);
#114=LINE('',#722,#151);
#115=LINE('',#723,#152);
#116=LINE('',#727,#153);
#117=LINE('',#729,#154);
#118=LINE('',#731,#155);
#119=LINE('',#732,#156);
#120=LINE('',#738,#157);
#121=LINE('',#741,#158);
#122=LINE('',#744,#159);
#123=LINE('',#751,#160);
#124=LINE('',#760,#161);
#125=LINE('',#764,#162);
#126=LINE('',#768,#163);
#127=LINE('',#775,#164);
#128=LINE('',#777,#165);
#129=LINE('',#780,#166);
#130=LINE('',#782,#167);
#131=LINE('',#783,#168);
#132=LINE('',#785,#169);
#133=LINE('',#787,#170);
#134=LINE('',#791,#171);
#135=LINE('',#793,#172);
#136=VECTOR('',#535,2.7);
#137=VECTOR('',#542,2.7);
#138=VECTOR('',#549,2.7);
#139=VECTOR('',#556,2.7);
#140=VECTOR('',#563,2.7);
#141=VECTOR('',#568,10.);
#142=VECTOR('',#569,10.);
#143=VECTOR('',#570,10.);
#144=VECTOR('',#571,10.);
#145=VECTOR('',#574,10.);
#146=VECTOR('',#575,10.);
#147=VECTOR('',#576,10.);
#148=VECTOR('',#577,10.);
#149=VECTOR('',#580,10.);
#150=VECTOR('',#581,10.);
#151=VECTOR('',#582,10.);
#152=VECTOR('',#583,10.);
#153=VECTOR('',#586,10.);
#154=VECTOR('',#587,10.);
#155=VECTOR('',#588,10.);
#156=VECTOR('',#589,10.);
#157=VECTOR('',#598,10.);
#158=VECTOR('',#601,10.);
#159=VECTOR('',#604,10.);
#160=VECTOR('',#611,10.);
#161=VECTOR('',#622,2.2);
#162=VECTOR('',#627,2.2);
#163=VECTOR('',#632,10.);
#164=VECTOR('',#639,10.);
#165=VECTOR('',#640,10.);
#166=VECTOR('',#643,10.);
#167=VECTOR('',#646,10.);
#168=VECTOR('',#647,10.);
#169=VECTOR('',#650,10.);
#170=VECTOR('',#653,10.);
#171=VECTOR('',#660,10.);
#172=VECTOR('',#663,10.);
#173=CIRCLE('',#481,2.7);
#174=CIRCLE('',#482,2.7);
#175=CIRCLE('',#484,2.7);
#176=CIRCLE('',#485,2.7);
#177=CIRCLE('',#487,2.7);
#178=CIRCLE('',#488,2.7);
#179=CIRCLE('',#490,2.7);
#180=CIRCLE('',#491,2.7);
#181=CIRCLE('',#493,2.7);
#182=CIRCLE('',#494,2.7);
#183=CIRCLE('',#500,2.2);
#184=CIRCLE('',#501,2.2);
#185=CIRCLE('',#503,52.);
#186=CIRCLE('',#504,2.2);
#187=CIRCLE('',#505,25.);
#188=CIRCLE('',#506,23.7);
#189=CIRCLE('',#507,25.);
#190=CIRCLE('',#508,2.2);
#191=CIRCLE('',#509,2.2);
#192=CIRCLE('',#511,2.2);
#193=CIRCLE('',#513,2.2);
#194=CIRCLE('',#515,2.2);
#195=CIRCLE('',#517,25.);
#196=CIRCLE('',#518,23.7);
#197=CIRCLE('',#519,25.);
#198=CIRCLE('',#520,52.);
#199=VERTEX_POINT('',#668);
#200=VERTEX_POINT('',#670);
#201=VERTEX_POINT('',#674);
#202=VERTEX_POINT('',#676);
#203=VERTEX_POINT('',#680);
#204=VERTEX_POINT('',#682);
#205=VERTEX_POINT('',#686);
#206=VERTEX_POINT('',#688);
#207=VERTEX_POINT('',#692);
#208=VERTEX_POINT('',#694);
#209=VERTEX_POINT('',#698);
#210=VERTEX_POINT('',#699);
#211=VERTEX_POINT('',#701);
#212=VERTEX_POINT('',#703);
#213=VERTEX_POINT('',#707);
#214=VERTEX_POINT('',#708);
#215=VERTEX_POINT('',#710);
#216=VERTEX_POINT('',#712);
#217=VERTEX_POINT('',#716);
#218=VERTEX_POINT('',#717);
#219=VERTEX_POINT('',#719);
#220=VERTEX_POINT('',#721);
#221=VERTEX_POINT('',#725);
#222=VERTEX_POINT('',#726);
#223=VERTEX_POINT('',#728);
#224=VERTEX_POINT('',#730);
#225=VERTEX_POINT('',#737);
#226=VERTEX_POINT('',#739);
#227=VERTEX_POINT('',#743);
#228=VERTEX_POINT('',#745);
#229=VERTEX_POINT('',#747);
#230=VERTEX_POINT('',#749);
#231=VERTEX_POINT('',#752);
#232=VERTEX_POINT('',#754);
#233=VERTEX_POINT('',#759);
#234=VERTEX_POINT('',#763);
#235=VERTEX_POINT('',#767);
#236=VERTEX_POINT('',#769);
#237=VERTEX_POINT('',#771);
#238=VERTEX_POINT('',#773);
#239=VERTEX_POINT('',#776);
#240=VERTEX_POINT('',#778);
#241=EDGE_CURVE('',#199,#199,#173,.T.);
#242=EDGE_CURVE('',#199,#200,#99,.T.);
#243=EDGE_CURVE('',#200,#200,#174,.T.);
#244=EDGE_CURVE('',#201,#201,#175,.T.);
#245=EDGE_CURVE('',#201,#202,#100,.T.);
#246=EDGE_CURVE('',#202,#202,#176,.T.);
#247=EDGE_CURVE('',#203,#203,#177,.T.);
#248=EDGE_CURVE('',#203,#204,#101,.T.);
#249=EDGE_CURVE('',#204,#204,#178,.T.);
#250=EDGE_CURVE('',#205,#205,#179,.T.);
#251=EDGE_CURVE('',#205,#206,#102,.T.);
#252=EDGE_CURVE('',#206,#206,#180,.T.);
#253=EDGE_CURVE('',#207,#207,#181,.T.);
#254=EDGE_CURVE('',#207,#208,#103,.T.);
#255=EDGE_CURVE('',#208,#208,#182,.T.);
#256=EDGE_CURVE('',#209,#210,#104,.T.);
#257=EDGE_CURVE('',#210,#211,#105,.T.);
#258=EDGE_CURVE('',#211,#212,#106,.T.);
#259=EDGE_CURVE('',#212,#209,#107,.T.);
#260=EDGE_CURVE('',#213,#214,#108,.T.);
#261=EDGE_CURVE('',#214,#215,#109,.T.);
#262=EDGE_CURVE('',#215,#216,#110,.T.);
#263=EDGE_CURVE('',#216,#213,#111,.T.);
#264=EDGE_CURVE('',#217,#218,#112,.T.);
#265=EDGE_CURVE('',#218,#219,#113,.T.);
#266=EDGE_CURVE('',#219,#220,#114,.T.);
#267=EDGE_CURVE('',#220,#217,#115,.T.);
#268=EDGE_CURVE('',#221,#222,#116,.T.);
#269=EDGE_CURVE('',#222,#223,#117,.T.);
#270=EDGE_CURVE('',#223,#224,#118,.T.);
#271=EDGE_CURVE('',#224,#221,#119,.T.);
#272=EDGE_CURVE('',#218,#221,#183,.T.);
#273=EDGE_CURVE('',#222,#217,#184,.T.);
#274=EDGE_CURVE('',#225,#220,#120,.T.);
#275=EDGE_CURVE('',#225,#226,#185,.T.);
#276=EDGE_CURVE('',#215,#226,#121,.T.);
#277=EDGE_CURVE('',#214,#209,#186,.T.);
#278=EDGE_CURVE('',#212,#227,#122,.T.);
#279=EDGE_CURVE('',#227,#228,#187,.T.);
#280=EDGE_CURVE('',#228,#229,#188,.T.);
#281=EDGE_CURVE('',#229,#230,#189,.T.);
#282=EDGE_CURVE('',#230,#223,#123,.T.);
#283=EDGE_CURVE('',#231,#231,#190,.T.);
#284=EDGE_CURVE('',#232,#232,#191,.T.);
#285=EDGE_CURVE('',#210,#213,#192,.T.);
#286=EDGE_CURVE('',#232,#233,#124,.T.);
#287=EDGE_CURVE('',#233,#233,#193,.T.);
#288=EDGE_CURVE('',#231,#234,#125,.T.);
#289=EDGE_CURVE('',#234,#234,#194,.T.);
#290=EDGE_CURVE('',#224,#235,#126,.T.);
#291=EDGE_CURVE('',#235,#236,#195,.T.);
#292=EDGE_CURVE('',#236,#237,#196,.T.);
#293=EDGE_CURVE('',#237,#238,#197,.T.);
#294=EDGE_CURVE('',#238,#211,#127,.T.);
#295=EDGE_CURVE('',#239,#216,#128,.T.);
#296=EDGE_CURVE('',#239,#240,#198,.T.);
#297=EDGE_CURVE('',#219,#240,#129,.T.);
#298=EDGE_CURVE('',#229,#236,#130,.T.);
#299=EDGE_CURVE('',#237,#228,#131,.T.);
#300=EDGE_CURVE('',#235,#230,#132,.T.);
#301=EDGE_CURVE('',#227,#238,#133,.T.);
#302=EDGE_CURVE('',#226,#239,#134,.T.);
#303=EDGE_CURVE('',#240,#225,#135,.T.);
#304=ORIENTED_EDGE('',*,*,#241,.F.);
#305=ORIENTED_EDGE('',*,*,#242,.T.);
#306=ORIENTED_EDGE('',*,*,#243,.F.);
#307=ORIENTED_EDGE('',*,*,#242,.F.);
#308=ORIENTED_EDGE('',*,*,#244,.F.);
#309=ORIENTED_EDGE('',*,*,#245,.T.);
#310=ORIENTED_EDGE('',*,*,#246,.F.);
#311=ORIENTED_EDGE('',*,*,#245,.F.);
#312=ORIENTED_EDGE('',*,*,#247,.F.);
#313=ORIENTED_EDGE('',*,*,#248,.T.);
#314=ORIENTED_EDGE('',*,*,#249,.F.);
#315=ORIENTED_EDGE('',*,*,#248,.F.);
#316=ORIENTED_EDGE('',*,*,#250,.F.);
#317=ORIENTED_EDGE('',*,*,#251,.T.);
#318=ORIENTED_EDGE('',*,*,#252,.F.);
#319=ORIENTED_EDGE('',*,*,#251,.F.);
#320=ORIENTED_EDGE('',*,*,#253,.F.);
#321=ORIENTED_EDGE('',*,*,#254,.T.);
#322=ORIENTED_EDGE('',*,*,#255,.F.);
#323=ORIENTED_EDGE('',*,*,#254,.F.);
#324=ORIENTED_EDGE('',*,*,#256,.T.);
#325=ORIENTED_EDGE('',*,*,#257,.T.);
#326=ORIENTED_EDGE('',*,*,#258,.T.);
#327=ORIENTED_EDGE('',*,*,#259,.T.);
#328=ORIENTED_EDGE('',*,*,#260,.T.);
#329=ORIENTED_EDGE('',*,*,#261,.T.);
#330=ORIENTED_EDGE('',*,*,#262,.T.);
#331=ORIENTED_EDGE('',*,*,#263,.T.);
#332=ORIENTED_EDGE('',*,*,#264,.T.);
#333=ORIENTED_EDGE('',*,*,#265,.T.);
#334=ORIENTED_EDGE('',*,*,#266,.T.);
#335=ORIENTED_EDGE('',*,*,#267,.T.);
#336=ORIENTED_EDGE('',*,*,#268,.T.);
#337=ORIENTED_EDGE('',*,*,#269,.T.);
#338=ORIENTED_EDGE('',*,*,#270,.T.);
#339=ORIENTED_EDGE('',*,*,#271,.T.);
#340=ORIENTED_EDGE('',*,*,#268,.F.);
#341=ORIENTED_EDGE('',*,*,#272,.F.);
#342=ORIENTED_EDGE('',*,*,#264,.F.);
#343=ORIENTED_EDGE('',*,*,#273,.F.);
#344=ORIENTED_EDGE('',*,*,#269,.F.);
#345=ORIENTED_EDGE('',*,*,#273,.T.);
#346=ORIENTED_EDGE('',*,*,#267,.F.);
#347=ORIENTED_EDGE('',*,*,#274,.F.);
#348=ORIENTED_EDGE('',*,*,#275,.T.);
#349=ORIENTED_EDGE('',*,*,#276,.F.);
#350=ORIENTED_EDGE('',*,*,#261,.F.);
#351=ORIENTED_EDGE('',*,*,#277,.T.);
#352=ORIENTED_EDGE('',*,*,#259,.F.);
#353=ORIENTED_EDGE('',*,*,#278,.T.);
#354=ORIENTED_EDGE('',*,*,#279,.T.);
#355=ORIENTED_EDGE('',*,*,#280,.T.);
#356=ORIENTED_EDGE('',*,*,#281,.T.);
#357=ORIENTED_EDGE('',*,*,#282,.T.);
#358=ORIENTED_EDGE('',*,*,#241,.T.);
#359=ORIENTED_EDGE('',*,*,#244,.T.);
#360=ORIENTED_EDGE('',*,*,#247,.T.);
#361=ORIENTED_EDGE('',*,*,#250,.T.);
#362=ORIENTED_EDGE('',*,*,#253,.T.);
#363=ORIENTED_EDGE('',*,*,#283,.T.);
#364=ORIENTED_EDGE('',*,*,#284,.T.);
#365=ORIENTED_EDGE('',*,*,#260,.F.);
#366=ORIENTED_EDGE('',*,*,#285,.F.);
#367=ORIENTED_EDGE('',*,*,#256,.F.);
#368=ORIENTED_EDGE('',*,*,#277,.F.);
#369=ORIENTED_EDGE('',*,*,#284,.F.);
#370=ORIENTED_EDGE('',*,*,#286,.T.);
#371=ORIENTED_EDGE('',*,*,#287,.F.);
#372=ORIENTED_EDGE('',*,*,#286,.F.);
#373=ORIENTED_EDGE('',*,*,#283,.F.);
#374=ORIENTED_EDGE('',*,*,#288,.T.);
#375=ORIENTED_EDGE('',*,*,#289,.F.);
#376=ORIENTED_EDGE('',*,*,#288,.F.);
#377=ORIENTED_EDGE('',*,*,#271,.F.);
#378=ORIENTED_EDGE('',*,*,#290,.T.);
#379=ORIENTED_EDGE('',*,*,#291,.T.);
#380=ORIENTED_EDGE('',*,*,#292,.T.);
#381=ORIENTED_EDGE('',*,*,#293,.T.);
#382=ORIENTED_EDGE('',*,*,#294,.T.);
#383=ORIENTED_EDGE('',*,*,#257,.F.);
#384=ORIENTED_EDGE('',*,*,#285,.T.);
#385=ORIENTED_EDGE('',*,*,#263,.F.);
#386=ORIENTED_EDGE('',*,*,#295,.F.);
#387=ORIENTED_EDGE('',*,*,#296,.T.);
#388=ORIENTED_EDGE('',*,*,#297,.F.);
#389=ORIENTED_EDGE('',*,*,#265,.F.);
#390=ORIENTED_EDGE('',*,*,#272,.T.);
#391=ORIENTED_EDGE('',*,*,#243,.T.);
#392=ORIENTED_EDGE('',*,*,#246,.T.);
#393=ORIENTED_EDGE('',*,*,#249,.T.);
#394=ORIENTED_EDGE('',*,*,#252,.T.);
#395=ORIENTED_EDGE('',*,*,#255,.T.);
#396=ORIENTED_EDGE('',*,*,#287,.T.);
#397=ORIENTED_EDGE('',*,*,#289,.T.);
#398=ORIENTED_EDGE('',*,*,#298,.F.);
#399=ORIENTED_EDGE('',*,*,#280,.F.);
#400=ORIENTED_EDGE('',*,*,#299,.F.);
#401=ORIENTED_EDGE('',*,*,#292,.F.);
#402=ORIENTED_EDGE('',*,*,#298,.T.);
#403=ORIENTED_EDGE('',*,*,#291,.F.);
#404=ORIENTED_EDGE('',*,*,#300,.T.);
#405=ORIENTED_EDGE('',*,*,#281,.F.);
#406=ORIENTED_EDGE('',*,*,#299,.T.);
#407=ORIENTED_EDGE('',*,*,#279,.F.);
#408=ORIENTED_EDGE('',*,*,#301,.T.);
#409=ORIENTED_EDGE('',*,*,#293,.F.);
#410=ORIENTED_EDGE('',*,*,#258,.F.);
#411=ORIENTED_EDGE('',*,*,#294,.F.);
#412=ORIENTED_EDGE('',*,*,#301,.F.);
#413=ORIENTED_EDGE('',*,*,#278,.F.);
#414=ORIENTED_EDGE('',*,*,#270,.F.);
#415=ORIENTED_EDGE('',*,*,#282,.F.);
#416=ORIENTED_EDGE('',*,*,#300,.F.);
#417=ORIENTED_EDGE('',*,*,#290,.F.);
#418=ORIENTED_EDGE('',*,*,#262,.F.);
#419=ORIENTED_EDGE('',*,*,#276,.T.);
#420=ORIENTED_EDGE('',*,*,#302,.T.);
#421=ORIENTED_EDGE('',*,*,#295,.T.);
#422=ORIENTED_EDGE('',*,*,#296,.F.);
#423=ORIENTED_EDGE('',*,*,#302,.F.);
#424=ORIENTED_EDGE('',*,*,#275,.F.);
#425=ORIENTED_EDGE('',*,*,#303,.F.);
#426=ORIENTED_EDGE('',*,*,#266,.F.);
#427=ORIENTED_EDGE('',*,*,#297,.T.);
#428=ORIENTED_EDGE('',*,*,#303,.T.);
#429=ORIENTED_EDGE('',*,*,#274,.T.);
#430=CYLINDRICAL_SURFACE('',#480,2.7);
#431=CYLINDRICAL_SURFACE('',#483,2.7);
#432=CYLINDRICAL_SURFACE('',#486,2.7);
#433=CYLINDRICAL_SURFACE('',#489,2.7);
#434=CYLINDRICAL_SURFACE('',#492,2.7);
#435=CYLINDRICAL_SURFACE('',#499,2.2);
#436=CYLINDRICAL_SURFACE('',#510,2.2);
#437=CYLINDRICAL_SURFACE('',#512,2.2);
#438=CYLINDRICAL_SURFACE('',#514,2.2);
#439=CYLINDRICAL_SURFACE('',#521,23.7);
#440=CYLINDRICAL_SURFACE('',#522,25.);
#441=CYLINDRICAL_SURFACE('',#523,25.);
#442=CYLINDRICAL_SURFACE('',#527,52.);
#443=ADVANCED_FACE('',(#39),#430,.F.);
#444=ADVANCED_FACE('',(#40),#431,.F.);
#445=ADVANCED_FACE('',(#41),#432,.F.);
#446=ADVANCED_FACE('',(#42),#433,.F.);
#447=ADVANCED_FACE('',(#43),#434,.F.);
#448=ADVANCED_FACE('',(#44),#29,.F.);
#449=ADVANCED_FACE('',(#45),#30,.F.);
#450=ADVANCED_FACE('',(#46),#31,.F.);
#451=ADVANCED_FACE('',(#47),#32,.F.);
#452=ADVANCED_FACE('',(#48),#435,.F.);
#453=ADVANCED_FACE('',(#49,#15,#16,#17,#18,#19,#20,#21),#33,.F.);
#454=ADVANCED_FACE('',(#50),#436,.F.);
#455=ADVANCED_FACE('',(#51),#437,.F.);
#456=ADVANCED_FACE('',(#52),#438,.F.);
#457=ADVANCED_FACE('',(#53,#22,#23,#24,#25,#26,#27,#28),#34,.F.);
#458=ADVANCED_FACE('',(#54),#439,.F.);
#459=ADVANCED_FACE('',(#55),#440,.F.);
#460=ADVANCED_FACE('',(#56),#441,.F.);
#461=ADVANCED_FACE('',(#57),#35,.T.);
#462=ADVANCED_FACE('',(#58),#36,.F.);
#463=ADVANCED_FACE('',(#59),#37,.F.);
#464=ADVANCED_FACE('',(#60),#442,.T.);
#465=ADVANCED_FACE('',(#61),#38,.T.);
#466=CLOSED_SHELL('',(#443,#444,#445,#446,#447,#448,#449,#450,#451,#452,
#453,#454,#455,#456,#457,#458,#459,#460,#461,#462,#463,#464,#465));
#467=DERIVED_UNIT_ELEMENT(#469,1.);
#468=DERIVED_UNIT_ELEMENT(#800,-3.);
#469=(
MASS_UNIT()
NAMED_UNIT(*)
SI_UNIT(.KILO.,.GRAM.)
);
#470=DERIVED_UNIT((#467,#468));
#471=MEASURE_REPRESENTATION_ITEM('density measure',
POSITIVE_RATIO_MEASURE(7850.),#470);
#472=PROPERTY_DEFINITION_REPRESENTATION(#477,#474);
#473=PROPERTY_DEFINITION_REPRESENTATION(#478,#475);
#474=REPRESENTATION('material name',(#476),#797);
#475=REPRESENTATION('density',(#471),#797);
#476=DESCRIPTIVE_REPRESENTATION_ITEM('Steel','Steel');
#477=PROPERTY_DEFINITION('material property','material name',#807);
#478=PROPERTY_DEFINITION('material property','density of part',#807);
#479=AXIS2_PLACEMENT_3D('',#666,#529,#530);
#480=AXIS2_PLACEMENT_3D('',#667,#531,#532);
#481=AXIS2_PLACEMENT_3D('',#669,#533,#534);
#482=AXIS2_PLACEMENT_3D('',#672,#536,#537);
#483=AXIS2_PLACEMENT_3D('',#673,#538,#539);
#484=AXIS2_PLACEMENT_3D('',#675,#540,#541);
#485=AXIS2_PLACEMENT_3D('',#678,#543,#544);
#486=AXIS2_PLACEMENT_3D('',#679,#545,#546);
#487=AXIS2_PLACEMENT_3D('',#681,#547,#548);
#488=AXIS2_PLACEMENT_3D('',#684,#550,#551);
#489=AXIS2_PLACEMENT_3D('',#685,#552,#553);
#490=AXIS2_PLACEMENT_3D('',#687,#554,#555);
#491=AXIS2_PLACEMENT_3D('',#690,#557,#558);
#492=AXIS2_PLACEMENT_3D('',#691,#559,#560);
#493=AXIS2_PLACEMENT_3D('',#693,#561,#562);
#494=AXIS2_PLACEMENT_3D('',#696,#564,#565);
#495=AXIS2_PLACEMENT_3D('',#697,#566,#567);
#496=AXIS2_PLACEMENT_3D('',#706,#572,#573);
#497=AXIS2_PLACEMENT_3D('',#715,#578,#579);
#498=AXIS2_PLACEMENT_3D('',#724,#584,#585);
#499=AXIS2_PLACEMENT_3D('',#733,#590,#591);
#500=AXIS2_PLACEMENT_3D('',#734,#592,#593);
#501=AXIS2_PLACEMENT_3D('',#735,#594,#595);
#502=AXIS2_PLACEMENT_3D('',#736,#596,#597);
#503=AXIS2_PLACEMENT_3D('',#740,#599,#600);
#504=AXIS2_PLACEMENT_3D('',#742,#602,#603);
#505=AXIS2_PLACEMENT_3D('',#746,#605,#606);
#506=AXIS2_PLACEMENT_3D('',#748,#607,#608);
#507=AXIS2_PLACEMENT_3D('',#750,#609,#610);
#508=AXIS2_PLACEMENT_3D('',#753,#612,#613);
#509=AXIS2_PLACEMENT_3D('',#755,#614,#615);
#510=AXIS2_PLACEMENT_3D('',#756,#616,#617);
#511=AXIS2_PLACEMENT_3D('',#757,#618,#619);
#512=AXIS2_PLACEMENT_3D('',#758,#620,#621);
#513=AXIS2_PLACEMENT_3D('',#761,#623,#624);
#514=AXIS2_PLACEMENT_3D('',#762,#625,#626);
#515=AXIS2_PLACEMENT_3D('',#765,#628,#629);
#516=AXIS2_PLACEMENT_3D('',#766,#630,#631);
#517=AXIS2_PLACEMENT_3D('',#770,#633,#634);
#518=AXIS2_PLACEMENT_3D('',#772,#635,#636);
#519=AXIS2_PLACEMENT_3D('',#774,#637,#638);
#520=AXIS2_PLACEMENT_3D('',#779,#641,#642);
#521=AXIS2_PLACEMENT_3D('',#781,#644,#645);
#522=AXIS2_PLACEMENT_3D('',#784,#648,#649);
#523=AXIS2_PLACEMENT_3D('',#786,#651,#652);
#524=AXIS2_PLACEMENT_3D('',#788,#654,#655);
#525=AXIS2_PLACEMENT_3D('',#789,#656,#657);
#526=AXIS2_PLACEMENT_3D('',#790,#658,#659);
#527=AXIS2_PLACEMENT_3D('',#792,#661,#662);
#528=AXIS2_PLACEMENT_3D('',#794,#664,#665);
#529=DIRECTION('axis',(0.,0.,1.));
#530=DIRECTION('refdir',(1.,0.,0.));
#531=DIRECTION('center_axis',(0.,1.,0.));
#532=DIRECTION('ref_axis',(1.,0.,0.));
#533=DIRECTION('center_axis',(0.,1.,0.));
#534=DIRECTION('ref_axis',(1.,0.,0.));
#535=DIRECTION('',(0.,1.,0.));
#536=DIRECTION('center_axis',(0.,-1.,0.));
#537=DIRECTION('ref_axis',(1.,0.,0.));
#538=DIRECTION('center_axis',(0.,1.,0.));
#539=DIRECTION('ref_axis',(1.,0.,0.));
#540=DIRECTION('center_axis',(0.,1.,0.));
#541=DIRECTION('ref_axis',(1.,0.,0.));
#542=DIRECTION('',(0.,1.,0.));
#543=DIRECTION('center_axis',(0.,-1.,0.));
#544=DIRECTION('ref_axis',(1.,0.,0.));
#545=DIRECTION('center_axis',(0.,1.,0.));
#546=DIRECTION('ref_axis',(1.,0.,0.));
#547=DIRECTION('center_axis',(0.,1.,0.));
#548=DIRECTION('ref_axis',(1.,0.,0.));
#549=DIRECTION('',(0.,1.,0.));
#550=DIRECTION('center_axis',(0.,-1.,0.));
#551=DIRECTION('ref_axis',(1.,0.,0.));
#552=DIRECTION('center_axis',(0.,1.,0.));
#553=DIRECTION('ref_axis',(1.,0.,0.));
#554=DIRECTION('center_axis',(0.,1.,0.));
#555=DIRECTION('ref_axis',(1.,0.,0.));
#556=DIRECTION('',(0.,1.,0.));
#557=DIRECTION('center_axis',(0.,-1.,0.));
#558=DIRECTION('ref_axis',(1.,0.,0.));
#559=DIRECTION('center_axis',(0.,1.,0.));
#560=DIRECTION('ref_axis',(1.,0.,0.));
#561=DIRECTION('center_axis',(0.,1.,0.));
#562=DIRECTION('ref_axis',(1.,0.,0.));
#563=DIRECTION('',(0.,1.,0.));
#564=DIRECTION('center_axis',(0.,-1.,0.));
#565=DIRECTION('ref_axis',(1.,0.,0.));
#566=DIRECTION('center_axis',(-1.,0.,0.));
#567=DIRECTION('ref_axis',(0.,0.,1.));
#568=DIRECTION('',(0.,1.,0.));
#569=DIRECTION('',(0.,0.,1.));
#570=DIRECTION('',(0.,-1.,0.));
#571=DIRECTION('',(0.,0.,-1.));
#572=DIRECTION('center_axis',(-1.,0.,0.));
#573=DIRECTION('ref_axis',(0.,0.,1.));
#574=DIRECTION('',(0.,-1.,0.));
#575=DIRECTION('',(0.,0.,-1.));
#576=DIRECTION('',(0.,1.,0.));
#577=DIRECTION('',(0.,0.,1.));
#578=DIRECTION('center_axis',(-1.,0.,0.));
#579=DIRECTION('ref_axis',(0.,0.,1.));
#580=DIRECTION('',(0.,1.,0.));
#581=DIRECTION('',(0.,0.,1.));
#582=DIRECTION('',(0.,-1.,0.));
#583=DIRECTION('',(0.,0.,-1.));
#584=DIRECTION('center_axis',(-1.,0.,0.));
#585=DIRECTION('ref_axis',(0.,0.,1.));
#586=DIRECTION('',(0.,-1.,0.));
#587=DIRECTION('',(0.,0.,-1.));
#588=DIRECTION('',(0.,1.,0.));
#589=DIRECTION('',(0.,0.,1.));
#590=DIRECTION('center_axis',(0.,1.,0.));
#591=DIRECTION('ref_axis',(-1.,0.,-1.22464679914735E-16));
#592=DIRECTION('center_axis',(0.,-1.,0.));
#593=DIRECTION('ref_axis',(1.,0.,0.));
#594=DIRECTION('center_axis',(0.,1.,0.));
#595=DIRECTION('ref_axis',(1.,0.,0.));
#596=DIRECTION('center_axis',(0.,1.,0.));
#597=DIRECTION('ref_axis',(0.,0.,1.));
#598=DIRECTION('',(1.,0.,0.));
#599=DIRECTION('center_axis',(0.,-1.,0.));
#600=DIRECTION('ref_axis',(1.,0.,0.));
#601=DIRECTION('',(-1.,0.,0.));
#602=DIRECTION('center_axis',(0.,1.,0.));
#603=DIRECTION('ref_axis',(1.,0.,0.));
#604=DIRECTION('',(-1.,0.,0.));
#605=DIRECTION('center_axis',(0.,1.,0.));
#606=DIRECTION('ref_axis',(1.,0.,0.));
#607=DIRECTION('center_axis',(0.,1.,0.));
#608=DIRECTION('ref_axis',(1.,0.,0.));
#609=DIRECTION('center_axis',(0.,1.,0.));
#610=DIRECTION('ref_axis',(1.,0.,0.));
#611=DIRECTION('',(1.,0.,0.));
#612=DIRECTION('center_axis',(0.,1.,0.));
#613=DIRECTION('ref_axis',(1.,0.,0.));
#614=DIRECTION('center_axis',(0.,1.,0.));
#615=DIRECTION('ref_axis',(1.,0.,0.));
#616=DIRECTION('center_axis',(0.,1.,0.));
#617=DIRECTION('ref_axis',(-1.,0.,-1.22464679914735E-16));
#618=DIRECTION('center_axis',(0.,-1.,0.));
#619=DIRECTION('ref_axis',(1.,0.,0.));
#620=DIRECTION('center_axis',(0.,1.,0.));
#621=DIRECTION('ref_axis',(1.,0.,0.));
#622=DIRECTION('',(0.,1.,0.));
#623=DIRECTION('center_axis',(0.,-1.,0.));
#624=DIRECTION('ref_axis',(1.,0.,0.));
#625=DIRECTION('center_axis',(0.,1.,0.));
#626=DIRECTION('ref_axis',(1.,0.,0.));
#627=DIRECTION('',(0.,1.,0.));
#628=DIRECTION('center_axis',(0.,-1.,0.));
#629=DIRECTION('ref_axis',(1.,0.,0.));
#630=DIRECTION('center_axis',(0.,-1.,0.));
#631=DIRECTION('ref_axis',(0.,0.,-1.));
#632=DIRECTION('',(-1.,0.,0.));
#633=DIRECTION('center_axis',(0.,-1.,0.));
#634=DIRECTION('ref_axis',(1.,0.,0.));
#635=DIRECTION('center_axis',(0.,-1.,0.));
#636=DIRECTION('ref_axis',(1.,0.,0.));
#637=DIRECTION('center_axis',(0.,-1.,0.));
#638=DIRECTION('ref_axis',(1.,0.,0.));
#639=DIRECTION('',(1.,0.,0.));
#640=DIRECTION('',(1.,0.,0.));
#641=DIRECTION('center_axis',(0.,1.,0.));
#642=DIRECTION('ref_axis',(1.,0.,0.));
#643=DIRECTION('',(-1.,0.,0.));
#644=DIRECTION('center_axis',(0.,1.,0.));
#645=DIRECTION('ref_axis',(-1.,0.,1.22464679914735E-16));
#646=DIRECTION('',(0.,1.,0.));
#647=DIRECTION('',(0.,-1.,0.));
#648=DIRECTION('center_axis',(0.,1.,0.));
#649=DIRECTION('ref_axis',(1.,0.,0.));
#650=DIRECTION('',(0.,-1.,0.));
#651=DIRECTION('center_axis',(0.,1.,0.));
#652=DIRECTION('ref_axis',(1.,0.,0.));
#653=DIRECTION('',(0.,1.,0.));
#654=DIRECTION('center_axis',(0.,0.,1.));
#655=DIRECTION('ref_axis',(1.,0.,0.));
#656=DIRECTION('center_axis',(0.,0.,1.));
#657=DIRECTION('ref_axis',(1.,0.,0.));
#658=DIRECTION('center_axis',(0.,0.,1.));
#659=DIRECTION('ref_axis',(1.,0.,0.));
#660=DIRECTION('',(0.,1.,0.));
#661=DIRECTION('center_axis',(0.,1.,0.));
#662=DIRECTION('ref_axis',(-1.,0.,-1.22464679914735E-16));
#663=DIRECTION('',(0.,-1.,0.));
#664=DIRECTION('center_axis',(0.,0.,1.));
#665=DIRECTION('ref_axis',(1.,0.,0.));
#666=CARTESIAN_POINT('',(0.,0.,0.));
#667=CARTESIAN_POINT('Origin',(21.,-50.5,203.626933041054));
#668=CARTESIAN_POINT('',(18.3,-60.,203.626933041054));
#669=CARTESIAN_POINT('Origin',(21.,-60.,203.626933041054));
#670=CARTESIAN_POINT('',(18.3,-44.,203.626933041054));
#671=CARTESIAN_POINT('',(18.3,-50.5,203.626933041054));
#672=CARTESIAN_POINT('Origin',(21.,-44.,203.626933041054));
#673=CARTESIAN_POINT('Origin',(-21.,-50.5,203.626933041054));
#674=CARTESIAN_POINT('',(-23.7,-60.,203.626933041054));
#675=CARTESIAN_POINT('Origin',(-21.,-60.,203.626933041054));
#676=CARTESIAN_POINT('',(-23.7,-44.,203.626933041054));
#677=CARTESIAN_POINT('',(-23.7,-50.5,203.626933041054));
#678=CARTESIAN_POINT('Origin',(-21.,-44.,203.626933041054));
#679=CARTESIAN_POINT('Origin',(-42.,-50.5,240.));
#680=CARTESIAN_POINT('',(-44.7,-60.,240.));
#681=CARTESIAN_POINT('Origin',(-42.,-60.,240.));
#682=CARTESIAN_POINT('',(-44.7,-44.,240.));
#683=CARTESIAN_POINT('',(-44.7,-50.5,240.));
#684=CARTESIAN_POINT('Origin',(-42.,-44.,240.));
#685=CARTESIAN_POINT('Origin',(-21.,-50.5,276.373066958946));
#686=CARTESIAN_POINT('',(-23.7,-60.,276.373066958946));
#687=CARTESIAN_POINT('Origin',(-21.,-60.,276.373066958946));
#688=CARTESIAN_POINT('',(-23.7,-44.,276.373066958946));
#689=CARTESIAN_POINT('',(-23.7,-50.5,276.373066958946));
#690=CARTESIAN_POINT('Origin',(-21.,-44.,276.373066958946));
#691=CARTESIAN_POINT('Origin',(21.,-50.5,276.373066958946));
#692=CARTESIAN_POINT('',(18.3,-60.,276.373066958946));
#693=CARTESIAN_POINT('Origin',(21.,-60.,276.373066958946));
#694=CARTESIAN_POINT('',(18.3,-44.,276.373066958946));
#695=CARTESIAN_POINT('',(18.3,-50.5,276.373066958946));
#696=CARTESIAN_POINT('Origin',(21.,-44.,276.373066958946));
#697=CARTESIAN_POINT('Origin',(135.,-52.,240.));
#698=CARTESIAN_POINT('',(135.,-60.,204.2));
#699=CARTESIAN_POINT('',(135.,-44.,204.2));
#700=CARTESIAN_POINT('',(135.,-52.,204.2));
#701=CARTESIAN_POINT('',(135.,-44.,215.));
#702=CARTESIAN_POINT('',(135.,-44.,240.));
#703=CARTESIAN_POINT('',(135.,-60.,215.));
#704=CARTESIAN_POINT('',(135.,-52.,215.));
#705=CARTESIAN_POINT('',(135.,-60.,240.));
#706=CARTESIAN_POINT('Origin',(135.,-52.,240.));
#707=CARTESIAN_POINT('',(135.,-44.,199.8));
#708=CARTESIAN_POINT('',(135.,-60.,199.8));
#709=CARTESIAN_POINT('',(135.,-52.,199.8));
#710=CARTESIAN_POINT('',(135.,-60.,192.));
#711=CARTESIAN_POINT('',(135.,-60.,240.));
#712=CARTESIAN_POINT('',(135.,-44.,192.));
#713=CARTESIAN_POINT('',(135.,-52.,192.));
#714=CARTESIAN_POINT('',(135.,-44.,240.));
#715=CARTESIAN_POINT('Origin',(135.,-52.,240.));
#716=CARTESIAN_POINT('',(135.,-60.,280.2));
#717=CARTESIAN_POINT('',(135.,-44.,280.2));
#718=CARTESIAN_POINT('',(135.,-52.,280.2));
#719=CARTESIAN_POINT('',(135.,-44.,288.));
#720=CARTESIAN_POINT('',(135.,-44.,240.));
#721=CARTESIAN_POINT('',(135.,-60.,288.));
#722=CARTESIAN_POINT('',(135.,-52.,288.));
#723=CARTESIAN_POINT('',(135.,-60.,240.));
#724=CARTESIAN_POINT('Origin',(135.,-52.,240.));
#725=CARTESIAN_POINT('',(135.,-44.,275.8));
#726=CARTESIAN_POINT('',(135.,-60.,275.8));
#727=CARTESIAN_POINT('',(135.,-52.,275.8));
#728=CARTESIAN_POINT('',(135.,-60.,265.));
#729=CARTESIAN_POINT('',(135.,-60.,240.));
#730=CARTESIAN_POINT('',(135.,-44.,265.));
#731=CARTESIAN_POINT('',(135.,-52.,265.));
#732=CARTESIAN_POINT('',(135.,-44.,240.));
#733=CARTESIAN_POINT('Origin',(135.,-52.,278.));
#734=CARTESIAN_POINT('Origin',(135.,-44.,278.));
#735=CARTESIAN_POINT('Origin',(135.,-60.,278.));
#736=CARTESIAN_POINT('Origin',(135.,-60.,240.));
#737=CARTESIAN_POINT('',(20.,-60.,288.));
#738=CARTESIAN_POINT('',(135.,-60.,288.));
#739=CARTESIAN_POINT('',(20.,-60.,192.));
#740=CARTESIAN_POINT('Origin',(0.,-60.,240.));
#741=CARTESIAN_POINT('',(135.,-60.,192.));
#742=CARTESIAN_POINT('Origin',(135.,-60.,202.));
#743=CARTESIAN_POINT('',(47.,-60.,215.));
#744=CARTESIAN_POINT('',(135.,-60.,215.));
#745=CARTESIAN_POINT('',(22.8264893617021,-60.,233.624940516348));
#746=CARTESIAN_POINT('Origin',(47.,-60.,240.));
#747=CARTESIAN_POINT('',(22.8264893617021,-60.,246.375059483652));
#748=CARTESIAN_POINT('Origin',(0.,-60.,240.));
#749=CARTESIAN_POINT('',(47.,-60.,265.));
#750=CARTESIAN_POINT('Origin',(47.,-60.,240.));
#751=CARTESIAN_POINT('',(135.,-60.,265.));
#752=CARTESIAN_POINT('',(52.8,-60.,202.));
#753=CARTESIAN_POINT('Origin',(55.,-60.,202.));
#754=CARTESIAN_POINT('',(52.8,-60.,278.));
#755=CARTESIAN_POINT('Origin',(55.,-60.,278.));
#756=CARTESIAN_POINT('Origin',(135.,-52.,202.));
#757=CARTESIAN_POINT('Origin',(135.,-44.,202.));
#758=CARTESIAN_POINT('Origin',(55.,-52.,278.));
#759=CARTESIAN_POINT('',(52.8,-44.,278.));
#760=CARTESIAN_POINT('',(52.8,-52.,278.));
#761=CARTESIAN_POINT('Origin',(55.,-44.,278.));
#762=CARTESIAN_POINT('Origin',(55.,-52.,202.));
#763=CARTESIAN_POINT('',(52.8,-44.,202.));
#764=CARTESIAN_POINT('',(52.8,-52.,202.));
#765=CARTESIAN_POINT('Origin',(55.,-44.,202.));
#766=CARTESIAN_POINT('Origin',(135.,-44.,240.));
#767=CARTESIAN_POINT('',(47.,-44.,265.));
#768=CARTESIAN_POINT('',(135.,-44.,265.));
#769=CARTESIAN_POINT('',(22.8264893617021,-44.,246.375059483652));
#770=CARTESIAN_POINT('Origin',(47.,-44.,240.));
#771=CARTESIAN_POINT('',(22.8264893617021,-44.,233.624940516348));
#772=CARTESIAN_POINT('Origin',(0.,-44.,240.));
#773=CARTESIAN_POINT('',(47.,-44.,215.));
#774=CARTESIAN_POINT('Origin',(47.,-44.,240.));
#775=CARTESIAN_POINT('',(135.,-44.,215.));
#776=CARTESIAN_POINT('',(20.,-44.,192.));
#777=CARTESIAN_POINT('',(135.,-44.,192.));
#778=CARTESIAN_POINT('',(20.,-44.,288.));
#779=CARTESIAN_POINT('Origin',(0.,-44.,240.));
#780=CARTESIAN_POINT('',(135.,-44.,288.));
#781=CARTESIAN_POINT('Origin',(0.,-52.,240.));
#782=CARTESIAN_POINT('',(22.8264893617021,-52.,246.375059483652));
#783=CARTESIAN_POINT('',(22.8264893617021,-52.,233.624940516348));
#784=CARTESIAN_POINT('Origin',(47.,-52.,240.));
#785=CARTESIAN_POINT('',(47.,-52.,265.));
#786=CARTESIAN_POINT('Origin',(47.,-52.,240.));
#787=CARTESIAN_POINT('',(47.,-52.,215.));
#788=CARTESIAN_POINT('Origin',(135.,-52.,215.));
#789=CARTESIAN_POINT('Origin',(135.,-52.,265.));
#790=CARTESIAN_POINT('Origin',(135.,-52.,192.));
#791=CARTESIAN_POINT('',(20.,-52.,192.));
#792=CARTESIAN_POINT('Origin',(0.,-52.,240.));
#793=CARTESIAN_POINT('',(20.,-52.,288.));
#794=CARTESIAN_POINT('Origin',(135.,-52.,288.));
#795=UNCERTAINTY_MEASURE_WITH_UNIT(LENGTH_MEASURE(0.01),#799,
'DISTANCE_ACCURACY_VALUE',
'Maximum model space distance between geometric entities at asserted c
onnectivities');
#796=UNCERTAINTY_MEASURE_WITH_UNIT(LENGTH_MEASURE(0.01),#799,
'DISTANCE_ACCURACY_VALUE',
'Maximum model space distance between geometric entities at asserted c
onnectivities');
#797=(
GEOMETRIC_REPRESENTATION_CONTEXT(3)
GLOBAL_UNCERTAINTY_ASSIGNED_CONTEXT((#795))
GLOBAL_UNIT_ASSIGNED_CONTEXT((#799,#801,#802))
REPRESENTATION_CONTEXT('','3D')
);
#798=(
GEOMETRIC_REPRESENTATION_CONTEXT(3)
GLOBAL_UNCERTAINTY_ASSIGNED_CONTEXT((#796))
GLOBAL_UNIT_ASSIGNED_CONTEXT((#799,#801,#802))
REPRESENTATION_CONTEXT('','3D')
);
#799=(
LENGTH_UNIT()
NAMED_UNIT(*)
SI_UNIT(.MILLI.,.METRE.)
);
#800=(
LENGTH_UNIT()
NAMED_UNIT(*)
SI_UNIT($,.METRE.)
);
#801=(
NAMED_UNIT(*)
PLANE_ANGLE_UNIT()
SI_UNIT($,.RADIAN.)
);
#802=(
NAMED_UNIT(*)
SI_UNIT($,.STERADIAN.)
SOLID_ANGLE_UNIT()
);
#803=SHAPE_DEFINITION_REPRESENTATION(#804,#805);
#804=PRODUCT_DEFINITION_SHAPE('',$,#807);
#805=SHAPE_REPRESENTATION('',(#479),#797);
#806=PRODUCT_DEFINITION_CONTEXT('part definition',#811,'design');
#807=PRODUCT_DEFINITION('2026-08-12-23-08-04-570',
'EXPORT_TMP_PRINT_V008B_P211_UpperArmCheek_Left_A_J2',#808,#806);
#808=PRODUCT_DEFINITION_FORMATION('',$,#813);
#809=PRODUCT_RELATED_PRODUCT_CATEGORY(
'EXPORT_TMP_PRINT_V008B_P211_UpperArmCheek_Left_A_J2',
'EXPORT_TMP_PRINT_V008B_P211_UpperArmCheek_Left_A_J2',(#813));
#810=APPLICATION_PROTOCOL_DEFINITION('international standard',
'automotive_design',2009,#811);
#811=APPLICATION_CONTEXT(
'Core Data for Automotive Mechanical Design Process');
#812=PRODUCT_CONTEXT('part definition',#811,'mechanical');
#813=PRODUCT('2026-08-12-23-08-04-570',
'EXPORT_TMP_PRINT_V008B_P211_UpperArmCheek_Left_A_J2',$,(#812));
#814=PRESENTATION_STYLE_ASSIGNMENT((#815));
#815=SURFACE_STYLE_USAGE(.BOTH.,#816);
#816=SURFACE_SIDE_STYLE('',(#817));
#817=SURFACE_STYLE_FILL_AREA(#818);
#818=FILL_AREA_STYLE('Steel - Satin',(#819));
#819=FILL_AREA_STYLE_COLOUR('Steel - Satin',#820);
#820=COLOUR_RGB('Steel - Satin',0.627450980392157,0.627450980392157,0.627450980392157);
ENDSEC;
END-ISO-10303-21;
