ISO-10303-21;
HEADER;
/* Generated by software containing ST-Developer
 * from STEP Tools, Inc. (www.steptools.com) 
 */

FILE_DESCRIPTION(
/* description */ (''),
/* implementation_level */ '2;1');

FILE_NAME(
/* name */ 
'PRINT_V010J_P212_UpperArmCheek_Left_B_6807InnerShoulder.step',
/* time_stamp */ '2026-08-12T23:08:10+02:00',
/* author */ (''),
/* organization */ (''),
/* preprocessor_version */ 'ST-DEVELOPER v20.1',
/* originating_system */ 'Autodesk Translation Framework v15.8.0.0',
/* authorisation */ '');

FILE_SCHEMA (('AUTOMOTIVE_DESIGN { 1 0 10303 214 3 1 1 }'));
ENDSEC;

DATA;
#10=MECHANICAL_DESIGN_GEOMETRIC_PRESENTATION_REPRESENTATION('',(#13),#782);
#11=SHAPE_REPRESENTATION_RELATIONSHIP('SRR','None',#789,#12);
#12=ADVANCED_BREP_SHAPE_REPRESENTATION('',(#14),#781);
#13=STYLED_ITEM('',(#798),#14);
#14=MANIFOLD_SOLID_BREP(
'PRINT_V010J_P212_UpperArmCheek_Left_B_6807InnerShoulder',#450);
#15=FACE_BOUND('',#58,.T.);
#16=FACE_BOUND('',#61,.T.);
#17=FACE_BOUND('',#71,.T.);
#18=FACE_BOUND('',#72,.T.);
#19=FACE_BOUND('',#78,.T.);
#20=FACE_BOUND('',#79,.T.);
#21=PLANE('',#467);
#22=PLANE('',#474);
#23=PLANE('',#485);
#24=PLANE('',#486);
#25=PLANE('',#487);
#26=PLANE('',#488);
#27=PLANE('',#492);
#28=PLANE('',#506);
#29=PLANE('',#508);
#30=PLANE('',#509);
#31=PLANE('',#511);
#32=PLANE('',#512);
#33=FACE_OUTER_BOUND('',#56,.T.);
#34=FACE_OUTER_BOUND('',#57,.T.);
#35=FACE_OUTER_BOUND('',#59,.T.);
#36=FACE_OUTER_BOUND('',#60,.T.);
#37=FACE_OUTER_BOUND('',#62,.T.);
#38=FACE_OUTER_BOUND('',#63,.T.);
#39=FACE_OUTER_BOUND('',#64,.T.);
#40=FACE_OUTER_BOUND('',#65,.T.);
#41=FACE_OUTER_BOUND('',#66,.T.);
#42=FACE_OUTER_BOUND('',#67,.T.);
#43=FACE_OUTER_BOUND('',#68,.T.);
#44=FACE_OUTER_BOUND('',#69,.T.);
#45=FACE_OUTER_BOUND('',#70,.T.);
#46=FACE_OUTER_BOUND('',#73,.T.);
#47=FACE_OUTER_BOUND('',#74,.T.);
#48=FACE_OUTER_BOUND('',#75,.T.);
#49=FACE_OUTER_BOUND('',#76,.T.);
#50=FACE_OUTER_BOUND('',#77,.T.);
#51=FACE_OUTER_BOUND('',#80,.T.);
#52=FACE_OUTER_BOUND('',#81,.T.);
#53=FACE_OUTER_BOUND('',#82,.T.);
#54=FACE_OUTER_BOUND('',#83,.T.);
#55=FACE_OUTER_BOUND('',#84,.T.);
#56=EDGE_LOOP('',(#290,#291,#292,#293));
#57=EDGE_LOOP('',(#294,#295,#296,#297));
#58=EDGE_LOOP('',(#298));
#59=EDGE_LOOP('',(#299,#300,#301,#302));
#60=EDGE_LOOP('',(#303,#304,#305,#306));
#61=EDGE_LOOP('',(#307));
#62=EDGE_LOOP('',(#308,#309,#310,#311,#312,#313,#314,#315));
#63=EDGE_LOOP('',(#316,#317,#318,#319));
#64=EDGE_LOOP('',(#320,#321,#322,#323));
#65=EDGE_LOOP('',(#324,#325,#326,#327));
#66=EDGE_LOOP('',(#328,#329,#330,#331));
#67=EDGE_LOOP('',(#332,#333,#334,#335));
#68=EDGE_LOOP('',(#336,#337,#338,#339));
#69=EDGE_LOOP('',(#340,#341,#342,#343));
#70=EDGE_LOOP('',(#344,#345,#346,#347,#348,#349,#350,#351,#352,#353,#354,
#355,#356,#357));
#71=EDGE_LOOP('',(#358));
#72=EDGE_LOOP('',(#359));
#73=EDGE_LOOP('',(#360,#361,#362,#363));
#74=EDGE_LOOP('',(#364,#365,#366,#367));
#75=EDGE_LOOP('',(#368,#369,#370,#371));
#76=EDGE_LOOP('',(#372,#373,#374,#375,#376,#377,#378,#379));
#77=EDGE_LOOP('',(#380,#381,#382,#383,#384,#385,#386,#387,#388,#389,#390,
#391,#392,#393));
#78=EDGE_LOOP('',(#394));
#79=EDGE_LOOP('',(#395));
#80=EDGE_LOOP('',(#396,#397,#398,#399));
#81=EDGE_LOOP('',(#400,#401,#402,#403));
#82=EDGE_LOOP('',(#404,#405,#406,#407));
#83=EDGE_LOOP('',(#408,#409,#410,#411));
#84=EDGE_LOOP('',(#412,#413,#414,#415));
#85=CIRCLE('',#465,25.);
#86=CIRCLE('',#466,25.);
#87=CIRCLE('',#468,25.);
#88=CIRCLE('',#469,23.7);
#89=CIRCLE('',#470,25.);
#90=CIRCLE('',#471,21.5);
#91=CIRCLE('',#473,21.5);
#92=CIRCLE('',#475,25.);
#93=CIRCLE('',#476,25.);
#94=CIRCLE('',#477,23.7);
#95=CIRCLE('',#479,25.);
#96=CIRCLE('',#480,25.);
#97=CIRCLE('',#482,23.7);
#98=CIRCLE('',#484,23.7);
#99=CIRCLE('',#490,2.2);
#100=CIRCLE('',#491,2.2);
#101=CIRCLE('',#493,52.);
#102=CIRCLE('',#494,2.2);
#103=CIRCLE('',#495,25.);
#104=CIRCLE('',#496,2.2);
#105=CIRCLE('',#497,2.2);
#106=CIRCLE('',#499,2.2);
#107=CIRCLE('',#501,2.2);
#108=CIRCLE('',#503,2.2);
#109=CIRCLE('',#505,25.);
#110=CIRCLE('',#507,52.);
#111=LINE('',#654,#148);
#112=LINE('',#658,#149);
#113=LINE('',#671,#150);
#114=LINE('',#680,#151);
#115=LINE('',#684,#152);
#116=LINE('',#687,#153);
#117=LINE('',#690,#154);
#118=LINE('',#695,#155);
#119=LINE('',#699,#156);
#120=LINE('',#701,#157);
#121=LINE('',#703,#158);
#122=LINE('',#704,#159);
#123=LINE('',#708,#160);
#124=LINE('',#710,#161);
#125=LINE('',#712,#162);
#126=LINE('',#713,#163);
#127=LINE('',#717,#164);
#128=LINE('',#719,#165);
#129=LINE('',#721,#166);
#130=LINE('',#722,#167);
#131=LINE('',#726,#168);
#132=LINE('',#728,#169);
#133=LINE('',#730,#170);
#134=LINE('',#731,#171);
#135=LINE('',#737,#172);
#136=LINE('',#740,#173);
#137=LINE('',#742,#174);
#138=LINE('',#745,#175);
#139=LINE('',#755,#176);
#140=LINE('',#759,#177);
#141=LINE('',#763,#178);
#142=LINE('',#765,#179);
#143=LINE('',#766,#180);
#144=LINE('',#768,#181);
#145=LINE('',#771,#182);
#146=LINE('',#775,#183);
#147=LINE('',#776,#184);
#148=VECTOR('',#517,10.);
#149=VECTOR('',#520,10.);
#150=VECTOR('',#537,21.5);
#151=VECTOR('',#548,10.);
#152=VECTOR('',#551,10.);
#153=VECTOR('',#554,10.);
#154=VECTOR('',#557,10.);
#155=VECTOR('',#564,10.);
#156=VECTOR('',#567,10.);
#157=VECTOR('',#568,10.);
#158=VECTOR('',#569,10.);
#159=VECTOR('',#570,10.);
#160=VECTOR('',#573,10.);
#161=VECTOR('',#574,10.);
#162=VECTOR('',#575,10.);
#163=VECTOR('',#576,10.);
#164=VECTOR('',#579,10.);
#165=VECTOR('',#580,10.);
#166=VECTOR('',#581,10.);
#167=VECTOR('',#582,10.);
#168=VECTOR('',#585,10.);
#169=VECTOR('',#586,10.);
#170=VECTOR('',#587,10.);
#171=VECTOR('',#588,10.);
#172=VECTOR('',#597,10.);
#173=VECTOR('',#600,10.);
#174=VECTOR('',#603,10.);
#175=VECTOR('',#606,10.);
#176=VECTOR('',#619,2.2);
#177=VECTOR('',#624,2.2);
#178=VECTOR('',#629,10.);
#179=VECTOR('',#632,10.);
#180=VECTOR('',#633,10.);
#181=VECTOR('',#634,10.);
#182=VECTOR('',#637,10.);
#183=VECTOR('',#644,10.);
#184=VECTOR('',#645,10.);
#185=VERTEX_POINT('',#652);
#186=VERTEX_POINT('',#653);
#187=VERTEX_POINT('',#655);
#188=VERTEX_POINT('',#657);
#189=VERTEX_POINT('',#661);
#190=VERTEX_POINT('',#663);
#191=VERTEX_POINT('',#666);
#192=VERTEX_POINT('',#669);
#193=VERTEX_POINT('',#673);
#194=VERTEX_POINT('',#675);
#195=VERTEX_POINT('',#679);
#196=VERTEX_POINT('',#681);
#197=VERTEX_POINT('',#683);
#198=VERTEX_POINT('',#685);
#199=VERTEX_POINT('',#689);
#200=VERTEX_POINT('',#693);
#201=VERTEX_POINT('',#697);
#202=VERTEX_POINT('',#698);
#203=VERTEX_POINT('',#700);
#204=VERTEX_POINT('',#702);
#205=VERTEX_POINT('',#706);
#206=VERTEX_POINT('',#707);
#207=VERTEX_POINT('',#709);
#208=VERTEX_POINT('',#711);
#209=VERTEX_POINT('',#715);
#210=VERTEX_POINT('',#716);
#211=VERTEX_POINT('',#718);
#212=VERTEX_POINT('',#720);
#213=VERTEX_POINT('',#724);
#214=VERTEX_POINT('',#725);
#215=VERTEX_POINT('',#727);
#216=VERTEX_POINT('',#729);
#217=VERTEX_POINT('',#736);
#218=VERTEX_POINT('',#738);
#219=VERTEX_POINT('',#743);
#220=VERTEX_POINT('',#746);
#221=VERTEX_POINT('',#748);
#222=VERTEX_POINT('',#753);
#223=VERTEX_POINT('',#757);
#224=VERTEX_POINT('',#761);
#225=VERTEX_POINT('',#767);
#226=VERTEX_POINT('',#769);
#227=EDGE_CURVE('',#185,#186,#111,.T.);
#228=EDGE_CURVE('',#187,#185,#85,.T.);
#229=EDGE_CURVE('',#188,#187,#112,.T.);
#230=EDGE_CURVE('',#186,#188,#86,.T.);
#231=EDGE_CURVE('',#189,#185,#87,.T.);
#232=EDGE_CURVE('',#190,#189,#88,.T.);
#233=EDGE_CURVE('',#187,#190,#89,.T.);
#234=EDGE_CURVE('',#191,#191,#90,.T.);
#235=EDGE_CURVE('',#192,#192,#91,.T.);
#236=EDGE_CURVE('',#192,#191,#113,.T.);
#237=EDGE_CURVE('',#186,#193,#92,.T.);
#238=EDGE_CURVE('',#194,#188,#93,.T.);
#239=EDGE_CURVE('',#193,#194,#94,.T.);
#240=EDGE_CURVE('',#190,#195,#114,.T.);
#241=EDGE_CURVE('',#196,#195,#95,.T.);
#242=EDGE_CURVE('',#196,#197,#115,.T.);
#243=EDGE_CURVE('',#198,#197,#96,.T.);
#244=EDGE_CURVE('',#198,#194,#116,.T.);
#245=EDGE_CURVE('',#199,#189,#117,.T.);
#246=EDGE_CURVE('',#195,#199,#97,.T.);
#247=EDGE_CURVE('',#200,#198,#98,.T.);
#248=EDGE_CURVE('',#193,#200,#118,.T.);
#249=EDGE_CURVE('',#201,#202,#119,.T.);
#250=EDGE_CURVE('',#202,#203,#120,.T.);
#251=EDGE_CURVE('',#203,#204,#121,.T.);
#252=EDGE_CURVE('',#204,#201,#122,.T.);
#253=EDGE_CURVE('',#205,#206,#123,.T.);
#254=EDGE_CURVE('',#206,#207,#124,.T.);
#255=EDGE_CURVE('',#207,#208,#125,.T.);
#256=EDGE_CURVE('',#208,#205,#126,.T.);
#257=EDGE_CURVE('',#209,#210,#127,.T.);
#258=EDGE_CURVE('',#210,#211,#128,.T.);
#259=EDGE_CURVE('',#211,#212,#129,.T.);
#260=EDGE_CURVE('',#212,#209,#130,.T.);
#261=EDGE_CURVE('',#213,#214,#131,.T.);
#262=EDGE_CURVE('',#214,#215,#132,.T.);
#263=EDGE_CURVE('',#215,#216,#133,.T.);
#264=EDGE_CURVE('',#216,#213,#134,.T.);
#265=EDGE_CURVE('',#210,#213,#99,.T.);
#266=EDGE_CURVE('',#214,#209,#100,.T.);
#267=EDGE_CURVE('',#217,#212,#135,.T.);
#268=EDGE_CURVE('',#217,#218,#101,.T.);
#269=EDGE_CURVE('',#207,#218,#136,.T.);
#270=EDGE_CURVE('',#206,#201,#102,.T.);
#271=EDGE_CURVE('',#204,#196,#137,.T.);
#272=EDGE_CURVE('',#199,#219,#103,.T.);
#273=EDGE_CURVE('',#219,#215,#138,.T.);
#274=EDGE_CURVE('',#220,#220,#104,.T.);
#275=EDGE_CURVE('',#221,#221,#105,.T.);
#276=EDGE_CURVE('',#202,#205,#106,.T.);
#277=EDGE_CURVE('',#222,#222,#107,.T.);
#278=EDGE_CURVE('',#222,#221,#139,.T.);
#279=EDGE_CURVE('',#223,#223,#108,.T.);
#280=EDGE_CURVE('',#223,#220,#140,.T.);
#281=EDGE_CURVE('',#224,#200,#109,.T.);
#282=EDGE_CURVE('',#224,#219,#141,.T.);
#283=EDGE_CURVE('',#216,#224,#142,.T.);
#284=EDGE_CURVE('',#197,#203,#143,.T.);
#285=EDGE_CURVE('',#225,#208,#144,.T.);
#286=EDGE_CURVE('',#225,#226,#110,.T.);
#287=EDGE_CURVE('',#211,#226,#145,.T.);
#288=EDGE_CURVE('',#226,#217,#146,.T.);
#289=EDGE_CURVE('',#218,#225,#147,.T.);
#290=ORIENTED_EDGE('',*,*,#227,.F.);
#291=ORIENTED_EDGE('',*,*,#228,.F.);
#292=ORIENTED_EDGE('',*,*,#229,.F.);
#293=ORIENTED_EDGE('',*,*,#230,.F.);
#294=ORIENTED_EDGE('',*,*,#231,.F.);
#295=ORIENTED_EDGE('',*,*,#232,.F.);
#296=ORIENTED_EDGE('',*,*,#233,.F.);
#297=ORIENTED_EDGE('',*,*,#228,.T.);
#298=ORIENTED_EDGE('',*,*,#234,.T.);
#299=ORIENTED_EDGE('',*,*,#235,.F.);
#300=ORIENTED_EDGE('',*,*,#236,.T.);
#301=ORIENTED_EDGE('',*,*,#234,.F.);
#302=ORIENTED_EDGE('',*,*,#236,.F.);
#303=ORIENTED_EDGE('',*,*,#237,.F.);
#304=ORIENTED_EDGE('',*,*,#230,.T.);
#305=ORIENTED_EDGE('',*,*,#238,.F.);
#306=ORIENTED_EDGE('',*,*,#239,.F.);
#307=ORIENTED_EDGE('',*,*,#235,.T.);
#308=ORIENTED_EDGE('',*,*,#238,.T.);
#309=ORIENTED_EDGE('',*,*,#229,.T.);
#310=ORIENTED_EDGE('',*,*,#233,.T.);
#311=ORIENTED_EDGE('',*,*,#240,.T.);
#312=ORIENTED_EDGE('',*,*,#241,.F.);
#313=ORIENTED_EDGE('',*,*,#242,.T.);
#314=ORIENTED_EDGE('',*,*,#243,.F.);
#315=ORIENTED_EDGE('',*,*,#244,.T.);
#316=ORIENTED_EDGE('',*,*,#232,.T.);
#317=ORIENTED_EDGE('',*,*,#245,.F.);
#318=ORIENTED_EDGE('',*,*,#246,.F.);
#319=ORIENTED_EDGE('',*,*,#240,.F.);
#320=ORIENTED_EDGE('',*,*,#239,.T.);
#321=ORIENTED_EDGE('',*,*,#244,.F.);
#322=ORIENTED_EDGE('',*,*,#247,.F.);
#323=ORIENTED_EDGE('',*,*,#248,.F.);
#324=ORIENTED_EDGE('',*,*,#249,.T.);
#325=ORIENTED_EDGE('',*,*,#250,.T.);
#326=ORIENTED_EDGE('',*,*,#251,.T.);
#327=ORIENTED_EDGE('',*,*,#252,.T.);
#328=ORIENTED_EDGE('',*,*,#253,.T.);
#329=ORIENTED_EDGE('',*,*,#254,.T.);
#330=ORIENTED_EDGE('',*,*,#255,.T.);
#331=ORIENTED_EDGE('',*,*,#256,.T.);
#332=ORIENTED_EDGE('',*,*,#257,.T.);
#333=ORIENTED_EDGE('',*,*,#258,.T.);
#334=ORIENTED_EDGE('',*,*,#259,.T.);
#335=ORIENTED_EDGE('',*,*,#260,.T.);
#336=ORIENTED_EDGE('',*,*,#261,.T.);
#337=ORIENTED_EDGE('',*,*,#262,.T.);
#338=ORIENTED_EDGE('',*,*,#263,.T.);
#339=ORIENTED_EDGE('',*,*,#264,.T.);
#340=ORIENTED_EDGE('',*,*,#261,.F.);
#341=ORIENTED_EDGE('',*,*,#265,.F.);
#342=ORIENTED_EDGE('',*,*,#257,.F.);
#343=ORIENTED_EDGE('',*,*,#266,.F.);
#344=ORIENTED_EDGE('',*,*,#262,.F.);
#345=ORIENTED_EDGE('',*,*,#266,.T.);
#346=ORIENTED_EDGE('',*,*,#260,.F.);
#347=ORIENTED_EDGE('',*,*,#267,.F.);
#348=ORIENTED_EDGE('',*,*,#268,.T.);
#349=ORIENTED_EDGE('',*,*,#269,.F.);
#350=ORIENTED_EDGE('',*,*,#254,.F.);
#351=ORIENTED_EDGE('',*,*,#270,.T.);
#352=ORIENTED_EDGE('',*,*,#252,.F.);
#353=ORIENTED_EDGE('',*,*,#271,.T.);
#354=ORIENTED_EDGE('',*,*,#241,.T.);
#355=ORIENTED_EDGE('',*,*,#246,.T.);
#356=ORIENTED_EDGE('',*,*,#272,.T.);
#357=ORIENTED_EDGE('',*,*,#273,.T.);
#358=ORIENTED_EDGE('',*,*,#274,.T.);
#359=ORIENTED_EDGE('',*,*,#275,.T.);
#360=ORIENTED_EDGE('',*,*,#253,.F.);
#361=ORIENTED_EDGE('',*,*,#276,.F.);
#362=ORIENTED_EDGE('',*,*,#249,.F.);
#363=ORIENTED_EDGE('',*,*,#270,.F.);
#364=ORIENTED_EDGE('',*,*,#277,.F.);
#365=ORIENTED_EDGE('',*,*,#278,.T.);
#366=ORIENTED_EDGE('',*,*,#275,.F.);
#367=ORIENTED_EDGE('',*,*,#278,.F.);
#368=ORIENTED_EDGE('',*,*,#279,.F.);
#369=ORIENTED_EDGE('',*,*,#280,.T.);
#370=ORIENTED_EDGE('',*,*,#274,.F.);
#371=ORIENTED_EDGE('',*,*,#280,.F.);
#372=ORIENTED_EDGE('',*,*,#237,.T.);
#373=ORIENTED_EDGE('',*,*,#248,.T.);
#374=ORIENTED_EDGE('',*,*,#281,.F.);
#375=ORIENTED_EDGE('',*,*,#282,.T.);
#376=ORIENTED_EDGE('',*,*,#272,.F.);
#377=ORIENTED_EDGE('',*,*,#245,.T.);
#378=ORIENTED_EDGE('',*,*,#231,.T.);
#379=ORIENTED_EDGE('',*,*,#227,.T.);
#380=ORIENTED_EDGE('',*,*,#264,.F.);
#381=ORIENTED_EDGE('',*,*,#283,.T.);
#382=ORIENTED_EDGE('',*,*,#281,.T.);
#383=ORIENTED_EDGE('',*,*,#247,.T.);
#384=ORIENTED_EDGE('',*,*,#243,.T.);
#385=ORIENTED_EDGE('',*,*,#284,.T.);
#386=ORIENTED_EDGE('',*,*,#250,.F.);
#387=ORIENTED_EDGE('',*,*,#276,.T.);
#388=ORIENTED_EDGE('',*,*,#256,.F.);
#389=ORIENTED_EDGE('',*,*,#285,.F.);
#390=ORIENTED_EDGE('',*,*,#286,.T.);
#391=ORIENTED_EDGE('',*,*,#287,.F.);
#392=ORIENTED_EDGE('',*,*,#258,.F.);
#393=ORIENTED_EDGE('',*,*,#265,.T.);
#394=ORIENTED_EDGE('',*,*,#277,.T.);
#395=ORIENTED_EDGE('',*,*,#279,.T.);
#396=ORIENTED_EDGE('',*,*,#251,.F.);
#397=ORIENTED_EDGE('',*,*,#284,.F.);
#398=ORIENTED_EDGE('',*,*,#242,.F.);
#399=ORIENTED_EDGE('',*,*,#271,.F.);
#400=ORIENTED_EDGE('',*,*,#263,.F.);
#401=ORIENTED_EDGE('',*,*,#273,.F.);
#402=ORIENTED_EDGE('',*,*,#282,.F.);
#403=ORIENTED_EDGE('',*,*,#283,.F.);
#404=ORIENTED_EDGE('',*,*,#268,.F.);
#405=ORIENTED_EDGE('',*,*,#288,.F.);
#406=ORIENTED_EDGE('',*,*,#286,.F.);
#407=ORIENTED_EDGE('',*,*,#289,.F.);
#408=ORIENTED_EDGE('',*,*,#255,.F.);
#409=ORIENTED_EDGE('',*,*,#269,.T.);
#410=ORIENTED_EDGE('',*,*,#289,.T.);
#411=ORIENTED_EDGE('',*,*,#285,.T.);
#412=ORIENTED_EDGE('',*,*,#259,.F.);
#413=ORIENTED_EDGE('',*,*,#287,.T.);
#414=ORIENTED_EDGE('',*,*,#288,.T.);
#415=ORIENTED_EDGE('',*,*,#267,.T.);
#416=CYLINDRICAL_SURFACE('',#464,25.);
#417=CYLINDRICAL_SURFACE('',#472,21.5);
#418=CYLINDRICAL_SURFACE('',#478,25.);
#419=CYLINDRICAL_SURFACE('',#481,23.7);
#420=CYLINDRICAL_SURFACE('',#483,23.7);
#421=CYLINDRICAL_SURFACE('',#489,2.2);
#422=CYLINDRICAL_SURFACE('',#498,2.2);
#423=CYLINDRICAL_SURFACE('',#500,2.2);
#424=CYLINDRICAL_SURFACE('',#502,2.2);
#425=CYLINDRICAL_SURFACE('',#504,25.);
#426=CYLINDRICAL_SURFACE('',#510,52.);
#427=ADVANCED_FACE('',(#33),#416,.T.);
#428=ADVANCED_FACE('',(#34,#15),#21,.T.);
#429=ADVANCED_FACE('',(#35),#417,.F.);
#430=ADVANCED_FACE('',(#36,#16),#22,.T.);
#431=ADVANCED_FACE('',(#37),#418,.F.);
#432=ADVANCED_FACE('',(#38),#419,.F.);
#433=ADVANCED_FACE('',(#39),#420,.F.);
#434=ADVANCED_FACE('',(#40),#23,.F.);
#435=ADVANCED_FACE('',(#41),#24,.F.);
#436=ADVANCED_FACE('',(#42),#25,.F.);
#437=ADVANCED_FACE('',(#43),#26,.F.);
#438=ADVANCED_FACE('',(#44),#421,.F.);
#439=ADVANCED_FACE('',(#45,#17,#18),#27,.F.);
#440=ADVANCED_FACE('',(#46),#422,.F.);
#441=ADVANCED_FACE('',(#47),#423,.F.);
#442=ADVANCED_FACE('',(#48),#424,.F.);
#443=ADVANCED_FACE('',(#49),#425,.F.);
#444=ADVANCED_FACE('',(#50,#19,#20),#28,.F.);
#445=ADVANCED_FACE('',(#51),#29,.T.);
#446=ADVANCED_FACE('',(#52),#30,.F.);
#447=ADVANCED_FACE('',(#53),#426,.T.);
#448=ADVANCED_FACE('',(#54),#31,.F.);
#449=ADVANCED_FACE('',(#55),#32,.T.);
#450=CLOSED_SHELL('',(#427,#428,#429,#430,#431,#432,#433,#434,#435,#436,
#437,#438,#439,#440,#441,#442,#443,#444,#445,#446,#447,#448,#449));
#451=DERIVED_UNIT_ELEMENT(#453,1.);
#452=DERIVED_UNIT_ELEMENT(#784,-3.);
#453=(
MASS_UNIT()
NAMED_UNIT(*)
SI_UNIT(.KILO.,.GRAM.)
);
#454=DERIVED_UNIT((#451,#452));
#455=MEASURE_REPRESENTATION_ITEM('density measure',
POSITIVE_RATIO_MEASURE(7850.),#454);
#456=PROPERTY_DEFINITION_REPRESENTATION(#461,#458);
#457=PROPERTY_DEFINITION_REPRESENTATION(#462,#459);
#458=REPRESENTATION('material name',(#460),#781);
#459=REPRESENTATION('density',(#455),#781);
#460=DESCRIPTIVE_REPRESENTATION_ITEM('Steel','Steel');
#461=PROPERTY_DEFINITION('material property','material name',#791);
#462=PROPERTY_DEFINITION('material property','density of part',#791);
#463=AXIS2_PLACEMENT_3D('',#650,#513,#514);
#464=AXIS2_PLACEMENT_3D('',#651,#515,#516);
#465=AXIS2_PLACEMENT_3D('',#656,#518,#519);
#466=AXIS2_PLACEMENT_3D('',#659,#521,#522);
#467=AXIS2_PLACEMENT_3D('',#660,#523,#524);
#468=AXIS2_PLACEMENT_3D('',#662,#525,#526);
#469=AXIS2_PLACEMENT_3D('',#664,#527,#528);
#470=AXIS2_PLACEMENT_3D('',#665,#529,#530);
#471=AXIS2_PLACEMENT_3D('',#667,#531,#532);
#472=AXIS2_PLACEMENT_3D('',#668,#533,#534);
#473=AXIS2_PLACEMENT_3D('',#670,#535,#536);
#474=AXIS2_PLACEMENT_3D('',#672,#538,#539);
#475=AXIS2_PLACEMENT_3D('',#674,#540,#541);
#476=AXIS2_PLACEMENT_3D('',#676,#542,#543);
#477=AXIS2_PLACEMENT_3D('',#677,#544,#545);
#478=AXIS2_PLACEMENT_3D('',#678,#546,#547);
#479=AXIS2_PLACEMENT_3D('',#682,#549,#550);
#480=AXIS2_PLACEMENT_3D('',#686,#552,#553);
#481=AXIS2_PLACEMENT_3D('',#688,#555,#556);
#482=AXIS2_PLACEMENT_3D('',#691,#558,#559);
#483=AXIS2_PLACEMENT_3D('',#692,#560,#561);
#484=AXIS2_PLACEMENT_3D('',#694,#562,#563);
#485=AXIS2_PLACEMENT_3D('',#696,#565,#566);
#486=AXIS2_PLACEMENT_3D('',#705,#571,#572);
#487=AXIS2_PLACEMENT_3D('',#714,#577,#578);
#488=AXIS2_PLACEMENT_3D('',#723,#583,#584);
#489=AXIS2_PLACEMENT_3D('',#732,#589,#590);
#490=AXIS2_PLACEMENT_3D('',#733,#591,#592);
#491=AXIS2_PLACEMENT_3D('',#734,#593,#594);
#492=AXIS2_PLACEMENT_3D('',#735,#595,#596);
#493=AXIS2_PLACEMENT_3D('',#739,#598,#599);
#494=AXIS2_PLACEMENT_3D('',#741,#601,#602);
#495=AXIS2_PLACEMENT_3D('',#744,#604,#605);
#496=AXIS2_PLACEMENT_3D('',#747,#607,#608);
#497=AXIS2_PLACEMENT_3D('',#749,#609,#610);
#498=AXIS2_PLACEMENT_3D('',#750,#611,#612);
#499=AXIS2_PLACEMENT_3D('',#751,#613,#614);
#500=AXIS2_PLACEMENT_3D('',#752,#615,#616);
#501=AXIS2_PLACEMENT_3D('',#754,#617,#618);
#502=AXIS2_PLACEMENT_3D('',#756,#620,#621);
#503=AXIS2_PLACEMENT_3D('',#758,#622,#623);
#504=AXIS2_PLACEMENT_3D('',#760,#625,#626);
#505=AXIS2_PLACEMENT_3D('',#762,#627,#628);
#506=AXIS2_PLACEMENT_3D('',#764,#630,#631);
#507=AXIS2_PLACEMENT_3D('',#770,#635,#636);
#508=AXIS2_PLACEMENT_3D('',#772,#638,#639);
#509=AXIS2_PLACEMENT_3D('',#773,#640,#641);
#510=AXIS2_PLACEMENT_3D('',#774,#642,#643);
#511=AXIS2_PLACEMENT_3D('',#777,#646,#647);
#512=AXIS2_PLACEMENT_3D('',#778,#648,#649);
#513=DIRECTION('axis',(0.,0.,1.));
#514=DIRECTION('refdir',(1.,0.,0.));
#515=DIRECTION('center_axis',(0.,1.,0.));
#516=DIRECTION('ref_axis',(-1.,0.,1.22464679914735E-16));
#517=DIRECTION('',(0.,-1.,0.));
#518=DIRECTION('center_axis',(0.,1.,0.));
#519=DIRECTION('ref_axis',(1.,0.,0.));
#520=DIRECTION('',(0.,1.,0.));
#521=DIRECTION('center_axis',(0.,-1.,0.));
#522=DIRECTION('ref_axis',(1.,0.,0.));
#523=DIRECTION('center_axis',(0.,1.,0.));
#524=DIRECTION('ref_axis',(1.,0.,0.));
#525=DIRECTION('center_axis',(0.,-1.,0.));
#526=DIRECTION('ref_axis',(1.,0.,0.));
#527=DIRECTION('center_axis',(0.,-1.,0.));
#528=DIRECTION('ref_axis',(1.,0.,0.));
#529=DIRECTION('center_axis',(0.,-1.,0.));
#530=DIRECTION('ref_axis',(1.,0.,0.));
#531=DIRECTION('center_axis',(0.,-1.,0.));
#532=DIRECTION('ref_axis',(1.,0.,0.));
#533=DIRECTION('center_axis',(0.,1.,0.));
#534=DIRECTION('ref_axis',(1.,0.,0.));
#535=DIRECTION('center_axis',(0.,1.,0.));
#536=DIRECTION('ref_axis',(1.,0.,0.));
#537=DIRECTION('',(0.,1.,0.));
#538=DIRECTION('center_axis',(0.,-1.,0.));
#539=DIRECTION('ref_axis',(-1.,0.,0.));
#540=DIRECTION('center_axis',(0.,1.,0.));
#541=DIRECTION('ref_axis',(1.,0.,0.));
#542=DIRECTION('center_axis',(0.,1.,0.));
#543=DIRECTION('ref_axis',(1.,0.,0.));
#544=DIRECTION('center_axis',(0.,1.,0.));
#545=DIRECTION('ref_axis',(1.,0.,0.));
#546=DIRECTION('center_axis',(0.,1.,0.));
#547=DIRECTION('ref_axis',(1.,0.,0.));
#548=DIRECTION('',(0.,1.,0.));
#549=DIRECTION('center_axis',(0.,-1.,0.));
#550=DIRECTION('ref_axis',(1.,0.,0.));
#551=DIRECTION('',(0.,-1.,0.));
#552=DIRECTION('center_axis',(0.,1.,0.));
#553=DIRECTION('ref_axis',(1.,0.,0.));
#554=DIRECTION('',(0.,1.,0.));
#555=DIRECTION('center_axis',(0.,1.,0.));
#556=DIRECTION('ref_axis',(1.,0.,0.));
#557=DIRECTION('',(0.,-1.,0.));
#558=DIRECTION('center_axis',(0.,-1.,0.));
#559=DIRECTION('ref_axis',(1.,0.,0.));
#560=DIRECTION('center_axis',(0.,1.,0.));
#561=DIRECTION('ref_axis',(1.,0.,0.));
#562=DIRECTION('center_axis',(0.,1.,0.));
#563=DIRECTION('ref_axis',(1.,0.,0.));
#564=DIRECTION('',(0.,-1.,0.));
#565=DIRECTION('center_axis',(1.,0.,0.));
#566=DIRECTION('ref_axis',(0.,0.,-1.));
#567=DIRECTION('',(0.,-1.,0.));
#568=DIRECTION('',(0.,0.,1.));
#569=DIRECTION('',(0.,1.,0.));
#570=DIRECTION('',(0.,0.,-1.));
#571=DIRECTION('center_axis',(1.,0.,0.));
#572=DIRECTION('ref_axis',(0.,0.,-1.));
#573=DIRECTION('',(0.,1.,0.));
#574=DIRECTION('',(0.,0.,-1.));
#575=DIRECTION('',(0.,-1.,0.));
#576=DIRECTION('',(0.,0.,1.));
#577=DIRECTION('center_axis',(1.,0.,0.));
#578=DIRECTION('ref_axis',(0.,0.,-1.));
#579=DIRECTION('',(0.,-1.,0.));
#580=DIRECTION('',(0.,0.,1.));
#581=DIRECTION('',(0.,1.,0.));
#582=DIRECTION('',(0.,0.,-1.));
#583=DIRECTION('center_axis',(1.,0.,0.));
#584=DIRECTION('ref_axis',(0.,0.,-1.));
#585=DIRECTION('',(0.,1.,0.));
#586=DIRECTION('',(0.,0.,-1.));
#587=DIRECTION('',(0.,-1.,0.));
#588=DIRECTION('',(0.,0.,1.));
#589=DIRECTION('center_axis',(0.,1.,0.));
#590=DIRECTION('ref_axis',(1.,0.,0.));
#591=DIRECTION('center_axis',(0.,1.,0.));
#592=DIRECTION('ref_axis',(1.,0.,0.));
#593=DIRECTION('center_axis',(0.,-1.,0.));
#594=DIRECTION('ref_axis',(1.,0.,0.));
#595=DIRECTION('center_axis',(0.,-1.,0.));
#596=DIRECTION('ref_axis',(0.,0.,-1.));
#597=DIRECTION('',(-1.,0.,0.));
#598=DIRECTION('center_axis',(0.,1.,0.));
#599=DIRECTION('ref_axis',(1.,0.,0.));
#600=DIRECTION('',(1.,0.,0.));
#601=DIRECTION('center_axis',(0.,-1.,0.));
#602=DIRECTION('ref_axis',(1.,0.,0.));
#603=DIRECTION('',(1.,0.,0.));
#604=DIRECTION('center_axis',(0.,-1.,0.));
#605=DIRECTION('ref_axis',(1.,0.,0.));
#606=DIRECTION('',(-1.,0.,0.));
#607=DIRECTION('center_axis',(0.,-1.,0.));
#608=DIRECTION('ref_axis',(1.,0.,0.));
#609=DIRECTION('center_axis',(0.,-1.,0.));
#610=DIRECTION('ref_axis',(1.,0.,0.));
#611=DIRECTION('center_axis',(0.,1.,0.));
#612=DIRECTION('ref_axis',(1.,0.,0.));
#613=DIRECTION('center_axis',(0.,1.,0.));
#614=DIRECTION('ref_axis',(1.,0.,0.));
#615=DIRECTION('center_axis',(0.,1.,0.));
#616=DIRECTION('ref_axis',(1.,0.,0.));
#617=DIRECTION('center_axis',(0.,1.,0.));
#618=DIRECTION('ref_axis',(1.,0.,0.));
#619=DIRECTION('',(0.,1.,0.));
#620=DIRECTION('center_axis',(0.,1.,0.));
#621=DIRECTION('ref_axis',(1.,0.,0.));
#622=DIRECTION('center_axis',(0.,1.,0.));
#623=DIRECTION('ref_axis',(1.,0.,0.));
#624=DIRECTION('',(0.,1.,0.));
#625=DIRECTION('center_axis',(0.,1.,0.));
#626=DIRECTION('ref_axis',(1.,0.,0.));
#627=DIRECTION('center_axis',(0.,1.,0.));
#628=DIRECTION('ref_axis',(1.,0.,0.));
#629=DIRECTION('',(0.,1.,0.));
#630=DIRECTION('center_axis',(0.,1.,0.));
#631=DIRECTION('ref_axis',(0.,0.,1.));
#632=DIRECTION('',(1.,0.,0.));
#633=DIRECTION('',(-1.,0.,0.));
#634=DIRECTION('',(-1.,0.,0.));
#635=DIRECTION('center_axis',(0.,-1.,0.));
#636=DIRECTION('ref_axis',(1.,0.,0.));
#637=DIRECTION('',(1.,0.,0.));
#638=DIRECTION('center_axis',(0.,0.,1.));
#639=DIRECTION('ref_axis',(1.,0.,0.));
#640=DIRECTION('center_axis',(0.,0.,1.));
#641=DIRECTION('ref_axis',(1.,0.,0.));
#642=DIRECTION('center_axis',(0.,1.,0.));
#643=DIRECTION('ref_axis',(1.,0.,0.));
#644=DIRECTION('',(0.,1.,0.));
#645=DIRECTION('',(0.,-1.,0.));
#646=DIRECTION('center_axis',(0.,0.,1.));
#647=DIRECTION('ref_axis',(1.,0.,0.));
#648=DIRECTION('center_axis',(0.,0.,1.));
#649=DIRECTION('ref_axis',(1.,0.,0.));
#650=CARTESIAN_POINT('',(0.,0.,0.));
#651=CARTESIAN_POINT('Origin',(270.,-51.25,240.));
#652=CARTESIAN_POINT('',(246.5,-49.5,248.529361054616));
#653=CARTESIAN_POINT('',(246.5,-53.,248.529361054616));
#654=CARTESIAN_POINT('',(246.5,-51.25,248.529361054616));
#655=CARTESIAN_POINT('',(246.5,-49.5,231.470638945384));
#656=CARTESIAN_POINT('Origin',(270.,-49.5,240.));
#657=CARTESIAN_POINT('',(246.5,-53.,231.470638945384));
#658=CARTESIAN_POINT('',(246.5,-51.25,231.470638945384));
#659=CARTESIAN_POINT('Origin',(270.,-53.,240.));
#660=CARTESIAN_POINT('Origin',(270.,-49.5,240.));
#661=CARTESIAN_POINT('',(247.173510638298,-49.5,246.375059483652));
#662=CARTESIAN_POINT('Origin',(223.,-49.5,240.));
#663=CARTESIAN_POINT('',(247.173510638298,-49.5,233.624940516348));
#664=CARTESIAN_POINT('Origin',(270.,-49.5,240.));
#665=CARTESIAN_POINT('Origin',(223.,-49.5,240.));
#666=CARTESIAN_POINT('',(248.5,-49.5,240.));
#667=CARTESIAN_POINT('Origin',(270.,-49.5,240.));
#668=CARTESIAN_POINT('Origin',(270.,-51.25,240.));
#669=CARTESIAN_POINT('',(248.5,-53.,240.));
#670=CARTESIAN_POINT('Origin',(270.,-53.,240.));
#671=CARTESIAN_POINT('',(248.5,-51.25,240.));
#672=CARTESIAN_POINT('Origin',(270.,-53.,240.));
#673=CARTESIAN_POINT('',(247.173510638298,-53.,246.375059483652));
#674=CARTESIAN_POINT('Origin',(223.,-53.,240.));
#675=CARTESIAN_POINT('',(247.173510638298,-53.,233.624940516348));
#676=CARTESIAN_POINT('Origin',(223.,-53.,240.));
#677=CARTESIAN_POINT('Origin',(270.,-53.,240.));
#678=CARTESIAN_POINT('Origin',(223.,-52.,240.));
#679=CARTESIAN_POINT('',(247.173510638298,-44.,233.624940516348));
#680=CARTESIAN_POINT('',(247.173510638298,-52.,233.624940516348));
#681=CARTESIAN_POINT('',(223.,-44.,215.));
#682=CARTESIAN_POINT('Origin',(223.,-44.,240.));
#683=CARTESIAN_POINT('',(223.,-60.,215.));
#684=CARTESIAN_POINT('',(223.,-52.,215.));
#685=CARTESIAN_POINT('',(247.173510638298,-60.,233.624940516348));
#686=CARTESIAN_POINT('Origin',(223.,-60.,240.));
#687=CARTESIAN_POINT('',(247.173510638298,-52.,233.624940516348));
#688=CARTESIAN_POINT('Origin',(270.,-52.,240.));
#689=CARTESIAN_POINT('',(247.173510638298,-44.,246.375059483652));
#690=CARTESIAN_POINT('',(247.173510638298,-52.,246.375059483652));
#691=CARTESIAN_POINT('Origin',(270.,-44.,240.));
#692=CARTESIAN_POINT('Origin',(270.,-52.,240.));
#693=CARTESIAN_POINT('',(247.173510638298,-60.,246.375059483652));
#694=CARTESIAN_POINT('Origin',(270.,-60.,240.));
#695=CARTESIAN_POINT('',(247.173510638298,-52.,246.375059483652));
#696=CARTESIAN_POINT('Origin',(135.,-52.,240.));
#697=CARTESIAN_POINT('',(135.,-44.,204.2));
#698=CARTESIAN_POINT('',(135.,-60.,204.2));
#699=CARTESIAN_POINT('',(135.,-52.,204.2));
#700=CARTESIAN_POINT('',(135.,-60.,215.));
#701=CARTESIAN_POINT('',(135.,-60.,240.));
#702=CARTESIAN_POINT('',(135.,-44.,215.));
#703=CARTESIAN_POINT('',(135.,-52.,215.));
#704=CARTESIAN_POINT('',(135.,-44.,240.));
#705=CARTESIAN_POINT('Origin',(135.,-52.,240.));
#706=CARTESIAN_POINT('',(135.,-60.,199.8));
#707=CARTESIAN_POINT('',(135.,-44.,199.8));
#708=CARTESIAN_POINT('',(135.,-52.,199.8));
#709=CARTESIAN_POINT('',(135.,-44.,192.));
#710=CARTESIAN_POINT('',(135.,-44.,240.));
#711=CARTESIAN_POINT('',(135.,-60.,192.));
#712=CARTESIAN_POINT('',(135.,-52.,192.));
#713=CARTESIAN_POINT('',(135.,-60.,240.));
#714=CARTESIAN_POINT('Origin',(135.,-52.,240.));
#715=CARTESIAN_POINT('',(135.,-44.,280.2));
#716=CARTESIAN_POINT('',(135.,-60.,280.2));
#717=CARTESIAN_POINT('',(135.,-52.,280.2));
#718=CARTESIAN_POINT('',(135.,-60.,288.));
#719=CARTESIAN_POINT('',(135.,-60.,240.));
#720=CARTESIAN_POINT('',(135.,-44.,288.));
#721=CARTESIAN_POINT('',(135.,-52.,288.));
#722=CARTESIAN_POINT('',(135.,-44.,240.));
#723=CARTESIAN_POINT('Origin',(135.,-52.,240.));
#724=CARTESIAN_POINT('',(135.,-60.,275.8));
#725=CARTESIAN_POINT('',(135.,-44.,275.8));
#726=CARTESIAN_POINT('',(135.,-52.,275.8));
#727=CARTESIAN_POINT('',(135.,-44.,265.));
#728=CARTESIAN_POINT('',(135.,-44.,240.));
#729=CARTESIAN_POINT('',(135.,-60.,265.));
#730=CARTESIAN_POINT('',(135.,-52.,265.));
#731=CARTESIAN_POINT('',(135.,-60.,240.));
#732=CARTESIAN_POINT('Origin',(135.,-52.,278.));
#733=CARTESIAN_POINT('Origin',(135.,-60.,278.));
#734=CARTESIAN_POINT('Origin',(135.,-44.,278.));
#735=CARTESIAN_POINT('Origin',(135.,-44.,240.));
#736=CARTESIAN_POINT('',(250.,-44.,288.));
#737=CARTESIAN_POINT('',(135.,-44.,288.));
#738=CARTESIAN_POINT('',(250.,-44.,192.));
#739=CARTESIAN_POINT('Origin',(270.,-44.,240.));
#740=CARTESIAN_POINT('',(135.,-44.,192.));
#741=CARTESIAN_POINT('Origin',(135.,-44.,202.));
#742=CARTESIAN_POINT('',(135.,-44.,215.));
#743=CARTESIAN_POINT('',(223.,-44.,265.));
#744=CARTESIAN_POINT('Origin',(223.,-44.,240.));
#745=CARTESIAN_POINT('',(135.,-44.,265.));
#746=CARTESIAN_POINT('',(212.8,-44.,202.));
#747=CARTESIAN_POINT('Origin',(215.,-44.,202.));
#748=CARTESIAN_POINT('',(212.8,-44.,278.));
#749=CARTESIAN_POINT('Origin',(215.,-44.,278.));
#750=CARTESIAN_POINT('Origin',(135.,-52.,202.));
#751=CARTESIAN_POINT('Origin',(135.,-60.,202.));
#752=CARTESIAN_POINT('Origin',(215.,-52.,278.));
#753=CARTESIAN_POINT('',(212.8,-60.,278.));
#754=CARTESIAN_POINT('Origin',(215.,-60.,278.));
#755=CARTESIAN_POINT('',(212.8,-52.,278.));
#756=CARTESIAN_POINT('Origin',(215.,-52.,202.));
#757=CARTESIAN_POINT('',(212.8,-60.,202.));
#758=CARTESIAN_POINT('Origin',(215.,-60.,202.));
#759=CARTESIAN_POINT('',(212.8,-52.,202.));
#760=CARTESIAN_POINT('Origin',(223.,-52.,240.));
#761=CARTESIAN_POINT('',(223.,-60.,265.));
#762=CARTESIAN_POINT('Origin',(223.,-60.,240.));
#763=CARTESIAN_POINT('',(223.,-52.,265.));
#764=CARTESIAN_POINT('Origin',(135.,-60.,240.));
#765=CARTESIAN_POINT('',(135.,-60.,265.));
#766=CARTESIAN_POINT('',(135.,-60.,215.));
#767=CARTESIAN_POINT('',(250.,-60.,192.));
#768=CARTESIAN_POINT('',(135.,-60.,192.));
#769=CARTESIAN_POINT('',(250.,-60.,288.));
#770=CARTESIAN_POINT('Origin',(270.,-60.,240.));
#771=CARTESIAN_POINT('',(135.,-60.,288.));
#772=CARTESIAN_POINT('Origin',(135.,-52.,215.));
#773=CARTESIAN_POINT('Origin',(135.,-52.,265.));
#774=CARTESIAN_POINT('Origin',(270.,-52.,240.));
#775=CARTESIAN_POINT('',(250.,-52.,288.));
#776=CARTESIAN_POINT('',(250.,-52.,192.));
#777=CARTESIAN_POINT('Origin',(135.,-52.,192.));
#778=CARTESIAN_POINT('Origin',(135.,-52.,288.));
#779=UNCERTAINTY_MEASURE_WITH_UNIT(LENGTH_MEASURE(0.01),#783,
'DISTANCE_ACCURACY_VALUE',
'Maximum model space distance between geometric entities at asserted c
onnectivities');
#780=UNCERTAINTY_MEASURE_WITH_UNIT(LENGTH_MEASURE(0.01),#783,
'DISTANCE_ACCURACY_VALUE',
'Maximum model space distance between geometric entities at asserted c
onnectivities');
#781=(
GEOMETRIC_REPRESENTATION_CONTEXT(3)
GLOBAL_UNCERTAINTY_ASSIGNED_CONTEXT((#779))
GLOBAL_UNIT_ASSIGNED_CONTEXT((#783,#785,#786))
REPRESENTATION_CONTEXT('','3D')
);
#782=(
GEOMETRIC_REPRESENTATION_CONTEXT(3)
GLOBAL_UNCERTAINTY_ASSIGNED_CONTEXT((#780))
GLOBAL_UNIT_ASSIGNED_CONTEXT((#783,#785,#786))
REPRESENTATION_CONTEXT('','3D')
);
#783=(
LENGTH_UNIT()
NAMED_UNIT(*)
SI_UNIT(.MILLI.,.METRE.)
);
#784=(
LENGTH_UNIT()
NAMED_UNIT(*)
SI_UNIT($,.METRE.)
);
#785=(
NAMED_UNIT(*)
PLANE_ANGLE_UNIT()
SI_UNIT($,.RADIAN.)
);
#786=(
NAMED_UNIT(*)
SI_UNIT($,.STERADIAN.)
SOLID_ANGLE_UNIT()
);
#787=SHAPE_DEFINITION_REPRESENTATION(#788,#789);
#788=PRODUCT_DEFINITION_SHAPE('',$,#791);
#789=SHAPE_REPRESENTATION('',(#463),#781);
#790=PRODUCT_DEFINITION_CONTEXT('part definition',#795,'design');
#791=PRODUCT_DEFINITION('2026-08-12-23-08-10-526',
'EXPORT_TMP_PRINT_V010J_P212_UpperArmCheek_Left_B_68',#792,#790);
#792=PRODUCT_DEFINITION_FORMATION('',$,#797);
#793=PRODUCT_RELATED_PRODUCT_CATEGORY(
'EXPORT_TMP_PRINT_V010J_P212_UpperArmCheek_Left_B_68',
'EXPORT_TMP_PRINT_V010J_P212_UpperArmCheek_Left_B_68',(#797));
#794=APPLICATION_PROTOCOL_DEFINITION('international standard',
'automotive_design',2009,#795);
#795=APPLICATION_CONTEXT(
'Core Data for Automotive Mechanical Design Process');
#796=PRODUCT_CONTEXT('part definition',#795,'mechanical');
#797=PRODUCT('2026-08-12-23-08-10-526',
'EXPORT_TMP_PRINT_V010J_P212_UpperArmCheek_Left_B_68',$,(#796));
#798=PRESENTATION_STYLE_ASSIGNMENT((#799));
#799=SURFACE_STYLE_USAGE(.BOTH.,#800);
#800=SURFACE_SIDE_STYLE('',(#801));
#801=SURFACE_STYLE_FILL_AREA(#802);
#802=FILL_AREA_STYLE('Steel - Satin',(#803));
#803=FILL_AREA_STYLE_COLOUR('Steel - Satin',#804);
#804=COLOUR_RGB('Steel - Satin',0.627450980392157,0.627450980392157,0.627450980392157);
ENDSEC;
END-ISO-10303-21;
