ISO-10303-21;
HEADER;
/* Generated by software containing ST-Developer
 * from STEP Tools, Inc. (www.steptools.com) 
 */

FILE_DESCRIPTION(
/* description */ (''),
/* implementation_level */ '2;1');

FILE_NAME(
/* name */ 'PRINT_P204_UpperArmRib_A.step',
/* time_stamp */ '2026-08-31T16:18:21+02:00',
/* author */ (''),
/* organization */ (''),
/* preprocessor_version */ 'ST-DEVELOPER v20.1',
/* originating_system */ 'Autodesk Translation Framework v15.8.0.0',
/* authorisation */ '');

FILE_SCHEMA (('AUTOMOTIVE_DESIGN { 1 0 10303 214 3 1 1 }'));
ENDSEC;

DATA;
#10=MECHANICAL_DESIGN_GEOMETRIC_PRESENTATION_REPRESENTATION('',(#13),#545);
#11=SHAPE_REPRESENTATION_RELATIONSHIP('SRR','None',#552,#12);
#12=ADVANCED_BREP_SHAPE_REPRESENTATION('',(#14),#544);
#13=STYLED_ITEM('',(#561),#14);
#14=MANIFOLD_SOLID_BREP('Body1',#325);
#15=CYLINDRICAL_SURFACE('',#344,52.);
#16=CYLINDRICAL_SURFACE('',#346,52.);
#17=CYLINDRICAL_SURFACE('',#352,1.65);
#18=CYLINDRICAL_SURFACE('',#356,1.65);
#19=FACE_BOUND('',#44,.T.);
#20=FACE_BOUND('',#50,.T.);
#21=FACE_BOUND('',#61,.T.);
#22=FACE_BOUND('',#62,.T.);
#23=FACE_OUTER_BOUND('',#41,.T.);
#24=FACE_OUTER_BOUND('',#42,.T.);
#25=FACE_OUTER_BOUND('',#43,.T.);
#26=FACE_OUTER_BOUND('',#45,.T.);
#27=FACE_OUTER_BOUND('',#46,.T.);
#28=FACE_OUTER_BOUND('',#47,.T.);
#29=FACE_OUTER_BOUND('',#48,.T.);
#30=FACE_OUTER_BOUND('',#49,.T.);
#31=FACE_OUTER_BOUND('',#51,.T.);
#32=FACE_OUTER_BOUND('',#52,.T.);
#33=FACE_OUTER_BOUND('',#53,.T.);
#34=FACE_OUTER_BOUND('',#54,.T.);
#35=FACE_OUTER_BOUND('',#55,.T.);
#36=FACE_OUTER_BOUND('',#56,.T.);
#37=FACE_OUTER_BOUND('',#57,.T.);
#38=FACE_OUTER_BOUND('',#58,.T.);
#39=FACE_OUTER_BOUND('',#59,.T.);
#40=FACE_OUTER_BOUND('',#60,.T.);
#41=EDGE_LOOP('',(#209,#210));
#42=EDGE_LOOP('',(#211,#212));
#43=EDGE_LOOP('',(#213,#214,#215,#216,#217,#218,#219,#220,#221,#222,#223,
#224));
#44=EDGE_LOOP('',(#225,#226,#227,#228));
#45=EDGE_LOOP('',(#229,#230,#231,#232));
#46=EDGE_LOOP('',(#233,#234,#235,#236));
#47=EDGE_LOOP('',(#237,#238,#239,#240,#241,#242));
#48=EDGE_LOOP('',(#243,#244,#245,#246,#247,#248));
#49=EDGE_LOOP('',(#249,#250,#251,#252));
#50=EDGE_LOOP('',(#253,#254,#255,#256));
#51=EDGE_LOOP('',(#257,#258,#259,#260));
#52=EDGE_LOOP('',(#261,#262,#263,#264));
#53=EDGE_LOOP('',(#265));
#54=EDGE_LOOP('',(#266,#267,#268,#269));
#55=EDGE_LOOP('',(#270));
#56=EDGE_LOOP('',(#271,#272,#273,#274));
#57=EDGE_LOOP('',(#275,#276,#277,#278));
#58=EDGE_LOOP('',(#279,#280,#281,#282));
#59=EDGE_LOOP('',(#283,#284,#285,#286));
#60=EDGE_LOOP('',(#287,#288,#289,#290));
#61=EDGE_LOOP('',(#291));
#62=EDGE_LOOP('',(#292));
#63=CIRCLE('',#340,52.);
#64=CIRCLE('',#342,52.);
#65=CIRCLE('',#345,52.);
#66=CIRCLE('',#347,52.);
#67=CIRCLE('',#353,1.65);
#68=CIRCLE('',#354,1.65);
#69=CIRCLE('',#357,1.65);
#70=CIRCLE('',#358,1.65);
#71=LINE('',#457,#105);
#72=LINE('',#462,#106);
#73=LINE('',#466,#107);
#74=LINE('',#468,#108);
#75=LINE('',#470,#109);
#76=LINE('',#472,#110);
#77=LINE('',#474,#111);
#78=LINE('',#475,#112);
#79=LINE('',#477,#113);
#80=LINE('',#479,#114);
#81=LINE('',#481,#115);
#82=LINE('',#482,#116);
#83=LINE('',#485,#117);
#84=LINE('',#487,#118);
#85=LINE('',#489,#119);
#86=LINE('',#490,#120);
#87=LINE('',#497,#121);
#88=LINE('',#499,#122);
#89=LINE('',#500,#123);
#90=LINE('',#503,#124);
#91=LINE('',#505,#125);
#92=LINE('',#506,#126);
#93=LINE('',#508,#127);
#94=LINE('',#509,#128);
#95=LINE('',#512,#129);
#96=LINE('',#514,#130);
#97=LINE('',#516,#131);
#98=LINE('',#517,#132);
#99=LINE('',#523,#133);
#100=LINE('',#530,#134);
#101=LINE('',#534,#135);
#102=LINE('',#535,#136);
#103=LINE('',#537,#137);
#104=LINE('',#539,#138);
#105=VECTOR('',#369,10.);
#106=VECTOR('',#374,10.);
#107=VECTOR('',#379,10.);
#108=VECTOR('',#380,10.);
#109=VECTOR('',#381,10.);
#110=VECTOR('',#382,10.);
#111=VECTOR('',#383,10.);
#112=VECTOR('',#384,10.);
#113=VECTOR('',#385,10.);
#114=VECTOR('',#386,10.);
#115=VECTOR('',#387,10.);
#116=VECTOR('',#388,10.);
#117=VECTOR('',#389,10.);
#118=VECTOR('',#390,10.);
#119=VECTOR('',#391,10.);
#120=VECTOR('',#392,10.);
#121=VECTOR('',#403,10.);
#122=VECTOR('',#404,10.);
#123=VECTOR('',#405,10.);
#124=VECTOR('',#408,10.);
#125=VECTOR('',#409,10.);
#126=VECTOR('',#410,10.);
#127=VECTOR('',#413,10.);
#128=VECTOR('',#414,10.);
#129=VECTOR('',#415,10.);
#130=VECTOR('',#416,10.);
#131=VECTOR('',#417,10.);
#132=VECTOR('',#418,10.);
#133=VECTOR('',#425,1.65);
#134=VECTOR('',#434,1.65);
#135=VECTOR('',#441,10.);
#136=VECTOR('',#442,10.);
#137=VECTOR('',#445,10.);
#138=VECTOR('',#448,10.);
#139=VERTEX_POINT('',#455);
#140=VERTEX_POINT('',#456);
#141=VERTEX_POINT('',#460);
#142=VERTEX_POINT('',#461);
#143=VERTEX_POINT('',#465);
#144=VERTEX_POINT('',#467);
#145=VERTEX_POINT('',#469);
#146=VERTEX_POINT('',#471);
#147=VERTEX_POINT('',#473);
#148=VERTEX_POINT('',#476);
#149=VERTEX_POINT('',#478);
#150=VERTEX_POINT('',#480);
#151=VERTEX_POINT('',#483);
#152=VERTEX_POINT('',#484);
#153=VERTEX_POINT('',#486);
#154=VERTEX_POINT('',#488);
#155=VERTEX_POINT('',#496);
#156=VERTEX_POINT('',#498);
#157=VERTEX_POINT('',#502);
#158=VERTEX_POINT('',#504);
#159=VERTEX_POINT('',#510);
#160=VERTEX_POINT('',#511);
#161=VERTEX_POINT('',#513);
#162=VERTEX_POINT('',#515);
#163=VERTEX_POINT('',#520);
#164=VERTEX_POINT('',#522);
#165=VERTEX_POINT('',#527);
#166=VERTEX_POINT('',#529);
#167=EDGE_CURVE('',#139,#140,#71,.T.);
#168=EDGE_CURVE('',#140,#139,#63,.T.);
#169=EDGE_CURVE('',#141,#142,#72,.T.);
#170=EDGE_CURVE('',#142,#141,#64,.T.);
#171=EDGE_CURVE('',#143,#139,#73,.T.);
#172=EDGE_CURVE('',#140,#144,#74,.T.);
#173=EDGE_CURVE('',#144,#145,#75,.T.);
#174=EDGE_CURVE('',#146,#145,#76,.T.);
#175=EDGE_CURVE('',#146,#147,#77,.T.);
#176=EDGE_CURVE('',#147,#141,#78,.T.);
#177=EDGE_CURVE('',#142,#148,#79,.T.);
#178=EDGE_CURVE('',#148,#149,#80,.T.);
#179=EDGE_CURVE('',#150,#149,#81,.T.);
#180=EDGE_CURVE('',#150,#143,#82,.T.);
#181=EDGE_CURVE('',#151,#152,#83,.T.);
#182=EDGE_CURVE('',#152,#153,#84,.T.);
#183=EDGE_CURVE('',#153,#154,#85,.T.);
#184=EDGE_CURVE('',#154,#151,#86,.T.);
#185=EDGE_CURVE('',#144,#143,#65,.T.);
#186=EDGE_CURVE('',#148,#147,#66,.T.);
#187=EDGE_CURVE('',#155,#150,#87,.T.);
#188=EDGE_CURVE('',#156,#155,#88,.T.);
#189=EDGE_CURVE('',#145,#156,#89,.T.);
#190=EDGE_CURVE('',#157,#146,#90,.T.);
#191=EDGE_CURVE('',#158,#157,#91,.T.);
#192=EDGE_CURVE('',#149,#158,#92,.T.);
#193=EDGE_CURVE('',#158,#155,#93,.T.);
#194=EDGE_CURVE('',#156,#157,#94,.T.);
#195=EDGE_CURVE('',#159,#160,#95,.T.);
#196=EDGE_CURVE('',#160,#161,#96,.T.);
#197=EDGE_CURVE('',#161,#162,#97,.T.);
#198=EDGE_CURVE('',#162,#159,#98,.T.);
#199=EDGE_CURVE('',#163,#163,#67,.T.);
#200=EDGE_CURVE('',#163,#164,#99,.T.);
#201=EDGE_CURVE('',#164,#164,#68,.T.);
#202=EDGE_CURVE('',#165,#165,#69,.T.);
#203=EDGE_CURVE('',#165,#166,#100,.T.);
#204=EDGE_CURVE('',#166,#166,#70,.T.);
#205=EDGE_CURVE('',#162,#153,#101,.T.);
#206=EDGE_CURVE('',#154,#161,#102,.T.);
#207=EDGE_CURVE('',#160,#151,#103,.T.);
#208=EDGE_CURVE('',#152,#159,#104,.T.);
#209=ORIENTED_EDGE('',*,*,#167,.F.);
#210=ORIENTED_EDGE('',*,*,#168,.F.);
#211=ORIENTED_EDGE('',*,*,#169,.F.);
#212=ORIENTED_EDGE('',*,*,#170,.F.);
#213=ORIENTED_EDGE('',*,*,#171,.T.);
#214=ORIENTED_EDGE('',*,*,#167,.T.);
#215=ORIENTED_EDGE('',*,*,#172,.T.);
#216=ORIENTED_EDGE('',*,*,#173,.T.);
#217=ORIENTED_EDGE('',*,*,#174,.F.);
#218=ORIENTED_EDGE('',*,*,#175,.T.);
#219=ORIENTED_EDGE('',*,*,#176,.T.);
#220=ORIENTED_EDGE('',*,*,#169,.T.);
#221=ORIENTED_EDGE('',*,*,#177,.T.);
#222=ORIENTED_EDGE('',*,*,#178,.T.);
#223=ORIENTED_EDGE('',*,*,#179,.F.);
#224=ORIENTED_EDGE('',*,*,#180,.T.);
#225=ORIENTED_EDGE('',*,*,#181,.T.);
#226=ORIENTED_EDGE('',*,*,#182,.T.);
#227=ORIENTED_EDGE('',*,*,#183,.T.);
#228=ORIENTED_EDGE('',*,*,#184,.T.);
#229=ORIENTED_EDGE('',*,*,#172,.F.);
#230=ORIENTED_EDGE('',*,*,#168,.T.);
#231=ORIENTED_EDGE('',*,*,#171,.F.);
#232=ORIENTED_EDGE('',*,*,#185,.F.);
#233=ORIENTED_EDGE('',*,*,#177,.F.);
#234=ORIENTED_EDGE('',*,*,#170,.T.);
#235=ORIENTED_EDGE('',*,*,#176,.F.);
#236=ORIENTED_EDGE('',*,*,#186,.F.);
#237=ORIENTED_EDGE('',*,*,#185,.T.);
#238=ORIENTED_EDGE('',*,*,#180,.F.);
#239=ORIENTED_EDGE('',*,*,#187,.F.);
#240=ORIENTED_EDGE('',*,*,#188,.F.);
#241=ORIENTED_EDGE('',*,*,#189,.F.);
#242=ORIENTED_EDGE('',*,*,#173,.F.);
#243=ORIENTED_EDGE('',*,*,#186,.T.);
#244=ORIENTED_EDGE('',*,*,#175,.F.);
#245=ORIENTED_EDGE('',*,*,#190,.F.);
#246=ORIENTED_EDGE('',*,*,#191,.F.);
#247=ORIENTED_EDGE('',*,*,#192,.F.);
#248=ORIENTED_EDGE('',*,*,#178,.F.);
#249=ORIENTED_EDGE('',*,*,#188,.T.);
#250=ORIENTED_EDGE('',*,*,#193,.F.);
#251=ORIENTED_EDGE('',*,*,#191,.T.);
#252=ORIENTED_EDGE('',*,*,#194,.F.);
#253=ORIENTED_EDGE('',*,*,#195,.T.);
#254=ORIENTED_EDGE('',*,*,#196,.T.);
#255=ORIENTED_EDGE('',*,*,#197,.T.);
#256=ORIENTED_EDGE('',*,*,#198,.T.);
#257=ORIENTED_EDGE('',*,*,#189,.T.);
#258=ORIENTED_EDGE('',*,*,#194,.T.);
#259=ORIENTED_EDGE('',*,*,#190,.T.);
#260=ORIENTED_EDGE('',*,*,#174,.T.);
#261=ORIENTED_EDGE('',*,*,#199,.F.);
#262=ORIENTED_EDGE('',*,*,#200,.T.);
#263=ORIENTED_EDGE('',*,*,#201,.T.);
#264=ORIENTED_EDGE('',*,*,#200,.F.);
#265=ORIENTED_EDGE('',*,*,#201,.F.);
#266=ORIENTED_EDGE('',*,*,#202,.F.);
#267=ORIENTED_EDGE('',*,*,#203,.T.);
#268=ORIENTED_EDGE('',*,*,#204,.T.);
#269=ORIENTED_EDGE('',*,*,#203,.F.);
#270=ORIENTED_EDGE('',*,*,#204,.F.);
#271=ORIENTED_EDGE('',*,*,#183,.F.);
#272=ORIENTED_EDGE('',*,*,#205,.F.);
#273=ORIENTED_EDGE('',*,*,#197,.F.);
#274=ORIENTED_EDGE('',*,*,#206,.F.);
#275=ORIENTED_EDGE('',*,*,#184,.F.);
#276=ORIENTED_EDGE('',*,*,#206,.T.);
#277=ORIENTED_EDGE('',*,*,#196,.F.);
#278=ORIENTED_EDGE('',*,*,#207,.T.);
#279=ORIENTED_EDGE('',*,*,#181,.F.);
#280=ORIENTED_EDGE('',*,*,#207,.F.);
#281=ORIENTED_EDGE('',*,*,#195,.F.);
#282=ORIENTED_EDGE('',*,*,#208,.F.);
#283=ORIENTED_EDGE('',*,*,#182,.F.);
#284=ORIENTED_EDGE('',*,*,#208,.T.);
#285=ORIENTED_EDGE('',*,*,#198,.F.);
#286=ORIENTED_EDGE('',*,*,#205,.T.);
#287=ORIENTED_EDGE('',*,*,#187,.T.);
#288=ORIENTED_EDGE('',*,*,#179,.T.);
#289=ORIENTED_EDGE('',*,*,#192,.T.);
#290=ORIENTED_EDGE('',*,*,#193,.T.);
#291=ORIENTED_EDGE('',*,*,#199,.T.);
#292=ORIENTED_EDGE('',*,*,#202,.T.);
#293=PLANE('',#339);
#294=PLANE('',#341);
#295=PLANE('',#343);
#296=PLANE('',#348);
#297=PLANE('',#349);
#298=PLANE('',#350);
#299=PLANE('',#351);
#300=PLANE('',#355);
#301=PLANE('',#359);
#302=PLANE('',#360);
#303=PLANE('',#361);
#304=PLANE('',#362);
#305=PLANE('',#363);
#306=PLANE('',#364);
#307=ADVANCED_FACE('',(#23),#293,.F.);
#308=ADVANCED_FACE('',(#24),#294,.F.);
#309=ADVANCED_FACE('',(#25,#19),#295,.F.);
#310=ADVANCED_FACE('',(#26),#15,.F.);
#311=ADVANCED_FACE('',(#27),#16,.F.);
#312=ADVANCED_FACE('',(#28),#296,.T.);
#313=ADVANCED_FACE('',(#29),#297,.T.);
#314=ADVANCED_FACE('',(#30,#20),#298,.F.);
#315=ADVANCED_FACE('',(#31),#299,.T.);
#316=ADVANCED_FACE('',(#32),#17,.F.);
#317=ADVANCED_FACE('',(#33),#300,.F.);
#318=ADVANCED_FACE('',(#34),#18,.F.);
#319=ADVANCED_FACE('',(#35),#301,.F.);
#320=ADVANCED_FACE('',(#36),#302,.F.);
#321=ADVANCED_FACE('',(#37),#303,.T.);
#322=ADVANCED_FACE('',(#38),#304,.T.);
#323=ADVANCED_FACE('',(#39),#305,.T.);
#324=ADVANCED_FACE('',(#40,#21,#22),#306,.F.);
#325=CLOSED_SHELL('',(#307,#308,#309,#310,#311,#312,#313,#314,#315,#316,
#317,#318,#319,#320,#321,#322,#323,#324));
#326=DERIVED_UNIT_ELEMENT(#328,1.);
#327=DERIVED_UNIT_ELEMENT(#547,-3.);
#328=(
MASS_UNIT()
NAMED_UNIT(*)
SI_UNIT(.KILO.,.GRAM.)
);
#329=DERIVED_UNIT((#326,#327));
#330=MEASURE_REPRESENTATION_ITEM('density measure',
POSITIVE_RATIO_MEASURE(7850.),#329);
#331=PROPERTY_DEFINITION_REPRESENTATION(#336,#333);
#332=PROPERTY_DEFINITION_REPRESENTATION(#337,#334);
#333=REPRESENTATION('material name',(#335),#544);
#334=REPRESENTATION('density',(#330),#544);
#335=DESCRIPTIVE_REPRESENTATION_ITEM('Steel','Steel');
#336=PROPERTY_DEFINITION('material property','material name',#554);
#337=PROPERTY_DEFINITION('material property','density of part',#554);
#338=AXIS2_PLACEMENT_3D('',#453,#365,#366);
#339=AXIS2_PLACEMENT_3D('',#454,#367,#368);
#340=AXIS2_PLACEMENT_3D('',#458,#370,#371);
#341=AXIS2_PLACEMENT_3D('',#459,#372,#373);
#342=AXIS2_PLACEMENT_3D('',#463,#375,#376);
#343=AXIS2_PLACEMENT_3D('',#464,#377,#378);
#344=AXIS2_PLACEMENT_3D('',#491,#393,#394);
#345=AXIS2_PLACEMENT_3D('',#492,#395,#396);
#346=AXIS2_PLACEMENT_3D('',#493,#397,#398);
#347=AXIS2_PLACEMENT_3D('',#494,#399,#400);
#348=AXIS2_PLACEMENT_3D('',#495,#401,#402);
#349=AXIS2_PLACEMENT_3D('',#501,#406,#407);
#350=AXIS2_PLACEMENT_3D('',#507,#411,#412);
#351=AXIS2_PLACEMENT_3D('',#518,#419,#420);
#352=AXIS2_PLACEMENT_3D('',#519,#421,#422);
#353=AXIS2_PLACEMENT_3D('',#521,#423,#424);
#354=AXIS2_PLACEMENT_3D('',#524,#426,#427);
#355=AXIS2_PLACEMENT_3D('',#525,#428,#429);
#356=AXIS2_PLACEMENT_3D('',#526,#430,#431);
#357=AXIS2_PLACEMENT_3D('',#528,#432,#433);
#358=AXIS2_PLACEMENT_3D('',#531,#435,#436);
#359=AXIS2_PLACEMENT_3D('',#532,#437,#438);
#360=AXIS2_PLACEMENT_3D('',#533,#439,#440);
#361=AXIS2_PLACEMENT_3D('',#536,#443,#444);
#362=AXIS2_PLACEMENT_3D('',#538,#446,#447);
#363=AXIS2_PLACEMENT_3D('',#540,#449,#450);
#364=AXIS2_PLACEMENT_3D('',#541,#451,#452);
#365=DIRECTION('axis',(0.,0.,1.));
#366=DIRECTION('refdir',(1.,0.,0.));
#367=DIRECTION('center_axis',(0.,1.,0.));
#368=DIRECTION('ref_axis',(1.,0.,0.));
#369=DIRECTION('',(0.,0.,1.));
#370=DIRECTION('center_axis',(0.,1.,0.));
#371=DIRECTION('ref_axis',(1.,0.,0.));
#372=DIRECTION('center_axis',(0.,-1.,0.));
#373=DIRECTION('ref_axis',(-1.,0.,0.));
#374=DIRECTION('',(0.,0.,-1.));
#375=DIRECTION('center_axis',(0.,-1.,0.));
#376=DIRECTION('ref_axis',(1.,0.,0.));
#377=DIRECTION('center_axis',(1.,0.,0.));
#378=DIRECTION('ref_axis',(0.,0.,-1.));
#379=DIRECTION('',(0.,1.,0.));
#380=DIRECTION('',(0.,-1.,0.));
#381=DIRECTION('',(0.,0.,1.));
#382=DIRECTION('',(0.,-1.,0.));
#383=DIRECTION('',(0.,0.,-1.));
#384=DIRECTION('',(0.,-1.,0.));
#385=DIRECTION('',(0.,1.,0.));
#386=DIRECTION('',(0.,0.,-1.));
#387=DIRECTION('',(0.,1.,0.));
#388=DIRECTION('',(0.,0.,1.));
#389=DIRECTION('',(0.,1.,0.));
#390=DIRECTION('',(0.,0.,1.));
#391=DIRECTION('',(0.,-1.,0.));
#392=DIRECTION('',(0.,0.,-1.));
#393=DIRECTION('center_axis',(0.,1.,0.));
#394=DIRECTION('ref_axis',(1.,0.,0.));
#395=DIRECTION('center_axis',(0.,1.,0.));
#396=DIRECTION('ref_axis',(1.,0.,0.));
#397=DIRECTION('center_axis',(0.,1.,0.));
#398=DIRECTION('ref_axis',(1.,0.,0.));
#399=DIRECTION('center_axis',(0.,-1.,0.));
#400=DIRECTION('ref_axis',(1.,0.,0.));
#401=DIRECTION('center_axis',(0.,-1.,0.));
#402=DIRECTION('ref_axis',(0.,0.,-1.));
#403=DIRECTION('',(-1.,0.,0.));
#404=DIRECTION('',(0.,0.,-1.));
#405=DIRECTION('',(1.,0.,0.));
#406=DIRECTION('center_axis',(0.,1.,0.));
#407=DIRECTION('ref_axis',(0.,0.,1.));
#408=DIRECTION('',(-1.,0.,0.));
#409=DIRECTION('',(0.,0.,1.));
#410=DIRECTION('',(1.,0.,0.));
#411=DIRECTION('center_axis',(-1.,0.,0.));
#412=DIRECTION('ref_axis',(0.,0.,1.));
#413=DIRECTION('',(0.,-1.,0.));
#414=DIRECTION('',(0.,1.,0.));
#415=DIRECTION('',(0.,-1.,0.));
#416=DIRECTION('',(0.,0.,1.));
#417=DIRECTION('',(0.,1.,0.));
#418=DIRECTION('',(0.,0.,-1.));
#419=DIRECTION('center_axis',(0.,0.,1.));
#420=DIRECTION('ref_axis',(1.,0.,0.));
#421=DIRECTION('center_axis',(0.,0.,1.));
#422=DIRECTION('ref_axis',(1.,0.,0.));
#423=DIRECTION('center_axis',(0.,0.,1.));
#424=DIRECTION('ref_axis',(1.,0.,0.));
#425=DIRECTION('',(0.,0.,1.));
#426=DIRECTION('center_axis',(0.,0.,1.));
#427=DIRECTION('ref_axis',(1.,0.,0.));
#428=DIRECTION('center_axis',(0.,0.,1.));
#429=DIRECTION('ref_axis',(1.,0.,0.));
#430=DIRECTION('center_axis',(0.,0.,1.));
#431=DIRECTION('ref_axis',(1.,0.,0.));
#432=DIRECTION('center_axis',(0.,0.,1.));
#433=DIRECTION('ref_axis',(1.,0.,0.));
#434=DIRECTION('',(0.,0.,1.));
#435=DIRECTION('center_axis',(0.,0.,1.));
#436=DIRECTION('ref_axis',(1.,0.,0.));
#437=DIRECTION('center_axis',(0.,0.,1.));
#438=DIRECTION('ref_axis',(1.,0.,0.));
#439=DIRECTION('center_axis',(0.,0.,1.));
#440=DIRECTION('ref_axis',(1.,0.,0.));
#441=DIRECTION('',(-1.,0.,0.));
#442=DIRECTION('',(1.,0.,0.));
#443=DIRECTION('center_axis',(0.,1.,0.));
#444=DIRECTION('ref_axis',(0.,0.,1.));
#445=DIRECTION('',(-1.,0.,0.));
#446=DIRECTION('center_axis',(0.,0.,1.));
#447=DIRECTION('ref_axis',(1.,0.,0.));
#448=DIRECTION('',(1.,0.,0.));
#449=DIRECTION('center_axis',(0.,-1.,0.));
#450=DIRECTION('ref_axis',(0.,0.,-1.));
#451=DIRECTION('center_axis',(0.,0.,1.));
#452=DIRECTION('ref_axis',(1.,0.,0.));
#453=CARTESIAN_POINT('',(0.,0.,0.));
#454=CARTESIAN_POINT('Origin',(0.,-42.95,240.));
#455=CARTESIAN_POINT('',(47.,-42.95,217.751404538713));
#456=CARTESIAN_POINT('',(47.,-42.95,262.248595461287));
#457=CARTESIAN_POINT('',(47.,-42.95,240.));
#458=CARTESIAN_POINT('Origin',(0.,-42.95,240.));
#459=CARTESIAN_POINT('Origin',(0.,42.95,240.));
#460=CARTESIAN_POINT('',(47.,42.95,262.248595461287));
#461=CARTESIAN_POINT('',(47.,42.95,217.751404538713));
#462=CARTESIAN_POINT('',(47.,42.95,240.));
#463=CARTESIAN_POINT('Origin',(0.,42.95,240.));
#464=CARTESIAN_POINT('Origin',(47.,0.,240.));
#465=CARTESIAN_POINT('',(47.,-43.9,217.751404538713));
#466=CARTESIAN_POINT('',(47.,-46.65,217.751404538713));
#467=CARTESIAN_POINT('',(47.,-43.9,262.248595461287));
#468=CARTESIAN_POINT('',(47.,-46.65,262.248595461287));
#469=CARTESIAN_POINT('',(47.,-43.9,276.));
#470=CARTESIAN_POINT('',(47.,-43.9,240.));
#471=CARTESIAN_POINT('',(47.,43.9,276.));
#472=CARTESIAN_POINT('',(47.,0.,276.));
#473=CARTESIAN_POINT('',(47.,43.9,262.248595461287));
#474=CARTESIAN_POINT('',(47.,43.9,240.));
#475=CARTESIAN_POINT('',(47.,46.65,262.248595461287));
#476=CARTESIAN_POINT('',(47.,43.9,217.751404538713));
#477=CARTESIAN_POINT('',(47.,46.65,217.751404538713));
#478=CARTESIAN_POINT('',(47.,43.9,204.));
#479=CARTESIAN_POINT('',(47.,43.9,240.));
#480=CARTESIAN_POINT('',(47.,-43.9,204.));
#481=CARTESIAN_POINT('',(47.,0.,204.));
#482=CARTESIAN_POINT('',(47.,-43.9,240.));
#483=CARTESIAN_POINT('',(47.,-33.,219.));
#484=CARTESIAN_POINT('',(47.,33.,219.));
#485=CARTESIAN_POINT('',(47.,0.,219.));
#486=CARTESIAN_POINT('',(47.,33.,261.));
#487=CARTESIAN_POINT('',(47.,33.,240.));
#488=CARTESIAN_POINT('',(47.,-33.,261.));
#489=CARTESIAN_POINT('',(47.,0.,261.));
#490=CARTESIAN_POINT('',(47.,-33.,240.));
#491=CARTESIAN_POINT('Origin',(0.,-46.65,240.));
#492=CARTESIAN_POINT('Origin',(0.,-43.9,240.));
#493=CARTESIAN_POINT('Origin',(0.,46.65,240.));
#494=CARTESIAN_POINT('Origin',(0.,43.9,240.));
#495=CARTESIAN_POINT('Origin',(135.,-43.9,240.));
#496=CARTESIAN_POINT('',(63.,-43.9,204.));
#497=CARTESIAN_POINT('',(95.,-43.9,204.));
#498=CARTESIAN_POINT('',(63.,-43.9,276.));
#499=CARTESIAN_POINT('',(63.,-43.9,240.));
#500=CARTESIAN_POINT('',(95.,-43.9,276.));
#501=CARTESIAN_POINT('Origin',(135.,43.9,240.));
#502=CARTESIAN_POINT('',(63.,43.9,276.));
#503=CARTESIAN_POINT('',(95.,43.9,276.));
#504=CARTESIAN_POINT('',(63.,43.9,204.));
#505=CARTESIAN_POINT('',(63.,43.9,240.));
#506=CARTESIAN_POINT('',(95.,43.9,204.));
#507=CARTESIAN_POINT('Origin',(63.,0.,240.));
#508=CARTESIAN_POINT('',(63.,0.,204.));
#509=CARTESIAN_POINT('',(63.,0.,276.));
#510=CARTESIAN_POINT('',(63.,33.,219.));
#511=CARTESIAN_POINT('',(63.,-33.,219.));
#512=CARTESIAN_POINT('',(63.,0.,219.));
#513=CARTESIAN_POINT('',(63.,-33.,261.));
#514=CARTESIAN_POINT('',(63.,-33.,240.));
#515=CARTESIAN_POINT('',(63.,33.,261.));
#516=CARTESIAN_POINT('',(63.,0.,261.));
#517=CARTESIAN_POINT('',(63.,33.,240.));
#518=CARTESIAN_POINT('Origin',(55.,0.,276.));
#519=CARTESIAN_POINT('Origin',(55.,-20.,208.75));
#520=CARTESIAN_POINT('',(53.35,-20.,204.));
#521=CARTESIAN_POINT('Origin',(55.,-20.,204.));
#522=CARTESIAN_POINT('',(53.35,-20.,214.));
#523=CARTESIAN_POINT('',(53.35,-20.,208.75));
#524=CARTESIAN_POINT('Origin',(55.,-20.,214.));
#525=CARTESIAN_POINT('Origin',(55.,-20.,214.));
#526=CARTESIAN_POINT('Origin',(55.,20.,208.75));
#527=CARTESIAN_POINT('',(53.35,20.,204.));
#528=CARTESIAN_POINT('Origin',(55.,20.,204.));
#529=CARTESIAN_POINT('',(53.35,20.,214.));
#530=CARTESIAN_POINT('',(53.35,20.,208.75));
#531=CARTESIAN_POINT('Origin',(55.,20.,214.));
#532=CARTESIAN_POINT('Origin',(55.,20.,214.));
#533=CARTESIAN_POINT('Origin',(55.,0.,261.));
#534=CARTESIAN_POINT('',(55.,33.,261.));
#535=CARTESIAN_POINT('',(55.,-33.,261.));
#536=CARTESIAN_POINT('Origin',(55.,-33.,240.));
#537=CARTESIAN_POINT('',(55.,-33.,219.));
#538=CARTESIAN_POINT('Origin',(55.,0.,219.));
#539=CARTESIAN_POINT('',(55.,33.,219.));
#540=CARTESIAN_POINT('Origin',(55.,33.,240.));
#541=CARTESIAN_POINT('Origin',(55.,0.,204.));
#542=UNCERTAINTY_MEASURE_WITH_UNIT(LENGTH_MEASURE(0.01),#546,
'DISTANCE_ACCURACY_VALUE',
'Maximum model space distance between geometric entities at asserted c
onnectivities');
#543=UNCERTAINTY_MEASURE_WITH_UNIT(LENGTH_MEASURE(0.01),#546,
'DISTANCE_ACCURACY_VALUE',
'Maximum model space distance between geometric entities at asserted c
onnectivities');
#544=(
GEOMETRIC_REPRESENTATION_CONTEXT(3)
GLOBAL_UNCERTAINTY_ASSIGNED_CONTEXT((#542))
GLOBAL_UNIT_ASSIGNED_CONTEXT((#546,#548,#549))
REPRESENTATION_CONTEXT('','3D')
);
#545=(
GEOMETRIC_REPRESENTATION_CONTEXT(3)
GLOBAL_UNCERTAINTY_ASSIGNED_CONTEXT((#543))
GLOBAL_UNIT_ASSIGNED_CONTEXT((#546,#548,#549))
REPRESENTATION_CONTEXT('','3D')
);
#546=(
LENGTH_UNIT()
NAMED_UNIT(*)
SI_UNIT(.MILLI.,.METRE.)
);
#547=(
LENGTH_UNIT()
NAMED_UNIT(*)
SI_UNIT($,.METRE.)
);
#548=(
NAMED_UNIT(*)
PLANE_ANGLE_UNIT()
SI_UNIT($,.RADIAN.)
);
#549=(
NAMED_UNIT(*)
SI_UNIT($,.STERADIAN.)
SOLID_ANGLE_UNIT()
);
#550=SHAPE_DEFINITION_REPRESENTATION(#551,#552);
#551=PRODUCT_DEFINITION_SHAPE('',$,#554);
#552=SHAPE_REPRESENTATION('',(#338),#544);
#553=PRODUCT_DEFINITION_CONTEXT('part definition',#558,'design');
#554=PRODUCT_DEFINITION('2026-08-31-16-18-21-752',
'EXPORT_PRINT_P204_UpperArmRib_A',#555,#553);
#555=PRODUCT_DEFINITION_FORMATION('',$,#560);
#556=PRODUCT_RELATED_PRODUCT_CATEGORY('EXPORT_PRINT_P204_UpperArmRib_A',
'EXPORT_PRINT_P204_UpperArmRib_A',(#560));
#557=APPLICATION_PROTOCOL_DEFINITION('international standard',
'automotive_design',2009,#558);
#558=APPLICATION_CONTEXT(
'Core Data for Automotive Mechanical Design Process');
#559=PRODUCT_CONTEXT('part definition',#558,'mechanical');
#560=PRODUCT('2026-08-31-16-18-21-752',
'EXPORT_PRINT_P204_UpperArmRib_A',$,(#559));
#561=PRESENTATION_STYLE_ASSIGNMENT((#562));
#562=SURFACE_STYLE_USAGE(.BOTH.,#563);
#563=SURFACE_SIDE_STYLE('',(#564));
#564=SURFACE_STYLE_FILL_AREA(#565);
#565=FILL_AREA_STYLE('Steel - Satin',(#566));
#566=FILL_AREA_STYLE_COLOUR('Steel - Satin',#567);
#567=COLOUR_RGB('Steel - Satin',0.627450980392157,0.627450980392157,0.627450980392157);
ENDSEC;
END-ISO-10303-21;
