ISO-10303-21;
HEADER;
/* Generated by software containing ST-Developer
 * from STEP Tools, Inc. (www.steptools.com) 
 */

FILE_DESCRIPTION(
/* description */ (''),
/* implementation_level */ '2;1');

FILE_NAME(
/* name */ 'PRINT_V005_P206_UpperArmRibC_ElbowSweepWindow.step',
/* time_stamp */ '2026-08-12T23:07:56+02:00',
/* author */ (''),
/* organization */ (''),
/* preprocessor_version */ 'ST-DEVELOPER v20.1',
/* originating_system */ 'Autodesk Translation Framework v15.8.0.0',
/* authorisation */ '');

FILE_SCHEMA (('AUTOMOTIVE_DESIGN { 1 0 10303 214 3 1 1 }'));
ENDSEC;

DATA;
#10=MECHANICAL_DESIGN_GEOMETRIC_PRESENTATION_REPRESENTATION('',(#13),#447);
#11=SHAPE_REPRESENTATION_RELATIONSHIP('SRR','None',#454,#12);
#12=ADVANCED_BREP_SHAPE_REPRESENTATION('',(#14),#446);
#13=STYLED_ITEM('',(#463),#14);
#14=MANIFOLD_SOLID_BREP('PRINT_V005_P206_UpperArmRibC_ElbowSweepWindow',
#275);
#15=FACE_OUTER_BOUND('',#29,.T.);
#16=FACE_OUTER_BOUND('',#30,.T.);
#17=FACE_OUTER_BOUND('',#31,.T.);
#18=FACE_OUTER_BOUND('',#32,.T.);
#19=FACE_OUTER_BOUND('',#33,.T.);
#20=FACE_OUTER_BOUND('',#34,.T.);
#21=FACE_OUTER_BOUND('',#35,.T.);
#22=FACE_OUTER_BOUND('',#36,.T.);
#23=FACE_OUTER_BOUND('',#37,.T.);
#24=FACE_OUTER_BOUND('',#38,.T.);
#25=FACE_OUTER_BOUND('',#39,.T.);
#26=FACE_OUTER_BOUND('',#40,.T.);
#27=FACE_OUTER_BOUND('',#41,.T.);
#28=FACE_OUTER_BOUND('',#42,.T.);
#29=EDGE_LOOP('',(#175,#176,#177,#178));
#30=EDGE_LOOP('',(#179,#180,#181,#182));
#31=EDGE_LOOP('',(#183,#184,#185,#186,#187,#188,#189,#190,#191,#192,#193,
#194));
#32=EDGE_LOOP('',(#195,#196,#197,#198));
#33=EDGE_LOOP('',(#199,#200,#201,#202));
#34=EDGE_LOOP('',(#203,#204,#205,#206));
#35=EDGE_LOOP('',(#207,#208,#209,#210));
#36=EDGE_LOOP('',(#211,#212,#213,#214));
#37=EDGE_LOOP('',(#215,#216,#217,#218));
#38=EDGE_LOOP('',(#219,#220,#221,#222));
#39=EDGE_LOOP('',(#223,#224,#225,#226));
#40=EDGE_LOOP('',(#227,#228,#229,#230));
#41=EDGE_LOOP('',(#231,#232,#233,#234,#235,#236,#237,#238,#239,#240,#241,
#242));
#42=EDGE_LOOP('',(#243,#244,#245,#246));
#43=LINE('',#373,#79);
#44=LINE('',#375,#80);
#45=LINE('',#377,#81);
#46=LINE('',#378,#82);
#47=LINE('',#382,#83);
#48=LINE('',#384,#84);
#49=LINE('',#386,#85);
#50=LINE('',#387,#86);
#51=LINE('',#390,#87);
#52=LINE('',#392,#88);
#53=LINE('',#394,#89);
#54=LINE('',#396,#90);
#55=LINE('',#397,#91);
#56=LINE('',#399,#92);
#57=LINE('',#401,#93);
#58=LINE('',#403,#94);
#59=LINE('',#405,#95);
#60=LINE('',#406,#96);
#61=LINE('',#409,#97);
#62=LINE('',#410,#98);
#63=LINE('',#413,#99);
#64=LINE('',#414,#100);
#65=LINE('',#417,#101);
#66=LINE('',#418,#102);
#67=LINE('',#421,#103);
#68=LINE('',#422,#104);
#69=LINE('',#425,#105);
#70=LINE('',#426,#106);
#71=LINE('',#428,#107);
#72=LINE('',#431,#108);
#73=LINE('',#432,#109);
#74=LINE('',#435,#110);
#75=LINE('',#437,#111);
#76=LINE('',#438,#112);
#77=LINE('',#440,#113);
#78=LINE('',#442,#114);
#79=VECTOR('',#307,10.);
#80=VECTOR('',#308,10.);
#81=VECTOR('',#309,10.);
#82=VECTOR('',#310,10.);
#83=VECTOR('',#313,10.);
#84=VECTOR('',#314,10.);
#85=VECTOR('',#315,10.);
#86=VECTOR('',#316,10.);
#87=VECTOR('',#319,10.);
#88=VECTOR('',#320,10.);
#89=VECTOR('',#321,10.);
#90=VECTOR('',#322,10.);
#91=VECTOR('',#323,10.);
#92=VECTOR('',#324,10.);
#93=VECTOR('',#325,10.);
#94=VECTOR('',#326,10.);
#95=VECTOR('',#327,10.);
#96=VECTOR('',#328,10.);
#97=VECTOR('',#331,10.);
#98=VECTOR('',#332,10.);
#99=VECTOR('',#335,10.);
#100=VECTOR('',#336,10.);
#101=VECTOR('',#339,10.);
#102=VECTOR('',#340,10.);
#103=VECTOR('',#343,10.);
#104=VECTOR('',#344,10.);
#105=VECTOR('',#347,10.);
#106=VECTOR('',#348,10.);
#107=VECTOR('',#351,10.);
#108=VECTOR('',#354,10.);
#109=VECTOR('',#355,10.);
#110=VECTOR('',#358,10.);
#111=VECTOR('',#359,10.);
#112=VECTOR('',#360,10.);
#113=VECTOR('',#363,10.);
#114=VECTOR('',#366,10.);
#115=VERTEX_POINT('',#371);
#116=VERTEX_POINT('',#372);
#117=VERTEX_POINT('',#374);
#118=VERTEX_POINT('',#376);
#119=VERTEX_POINT('',#380);
#120=VERTEX_POINT('',#381);
#121=VERTEX_POINT('',#383);
#122=VERTEX_POINT('',#385);
#123=VERTEX_POINT('',#389);
#124=VERTEX_POINT('',#391);
#125=VERTEX_POINT('',#393);
#126=VERTEX_POINT('',#395);
#127=VERTEX_POINT('',#398);
#128=VERTEX_POINT('',#400);
#129=VERTEX_POINT('',#402);
#130=VERTEX_POINT('',#404);
#131=VERTEX_POINT('',#408);
#132=VERTEX_POINT('',#412);
#133=VERTEX_POINT('',#416);
#134=VERTEX_POINT('',#420);
#135=VERTEX_POINT('',#424);
#136=VERTEX_POINT('',#430);
#137=VERTEX_POINT('',#434);
#138=VERTEX_POINT('',#436);
#139=EDGE_CURVE('',#115,#116,#43,.T.);
#140=EDGE_CURVE('',#117,#115,#44,.T.);
#141=EDGE_CURVE('',#118,#117,#45,.T.);
#142=EDGE_CURVE('',#116,#118,#46,.T.);
#143=EDGE_CURVE('',#119,#120,#47,.T.);
#144=EDGE_CURVE('',#121,#119,#48,.T.);
#145=EDGE_CURVE('',#122,#121,#49,.T.);
#146=EDGE_CURVE('',#120,#122,#50,.T.);
#147=EDGE_CURVE('',#123,#115,#51,.T.);
#148=EDGE_CURVE('',#123,#124,#52,.T.);
#149=EDGE_CURVE('',#125,#124,#53,.T.);
#150=EDGE_CURVE('',#126,#125,#54,.T.);
#151=EDGE_CURVE('',#120,#126,#55,.T.);
#152=EDGE_CURVE('',#122,#127,#56,.T.);
#153=EDGE_CURVE('',#127,#128,#57,.T.);
#154=EDGE_CURVE('',#128,#129,#58,.T.);
#155=EDGE_CURVE('',#129,#130,#59,.T.);
#156=EDGE_CURVE('',#130,#117,#60,.T.);
#157=EDGE_CURVE('',#131,#121,#61,.T.);
#158=EDGE_CURVE('',#127,#131,#62,.T.);
#159=EDGE_CURVE('',#132,#130,#63,.T.);
#160=EDGE_CURVE('',#118,#132,#64,.T.);
#161=EDGE_CURVE('',#126,#133,#65,.T.);
#162=EDGE_CURVE('',#133,#119,#66,.T.);
#163=EDGE_CURVE('',#132,#134,#67,.T.);
#164=EDGE_CURVE('',#129,#134,#68,.T.);
#165=EDGE_CURVE('',#134,#135,#69,.T.);
#166=EDGE_CURVE('',#135,#128,#70,.T.);
#167=EDGE_CURVE('',#135,#131,#71,.T.);
#168=EDGE_CURVE('',#116,#136,#72,.T.);
#169=EDGE_CURVE('',#136,#123,#73,.T.);
#170=EDGE_CURVE('',#124,#137,#74,.T.);
#171=EDGE_CURVE('',#137,#138,#75,.T.);
#172=EDGE_CURVE('',#138,#125,#76,.T.);
#173=EDGE_CURVE('',#136,#137,#77,.T.);
#174=EDGE_CURVE('',#133,#138,#78,.T.);
#175=ORIENTED_EDGE('',*,*,#139,.F.);
#176=ORIENTED_EDGE('',*,*,#140,.F.);
#177=ORIENTED_EDGE('',*,*,#141,.F.);
#178=ORIENTED_EDGE('',*,*,#142,.F.);
#179=ORIENTED_EDGE('',*,*,#143,.F.);
#180=ORIENTED_EDGE('',*,*,#144,.F.);
#181=ORIENTED_EDGE('',*,*,#145,.F.);
#182=ORIENTED_EDGE('',*,*,#146,.F.);
#183=ORIENTED_EDGE('',*,*,#140,.T.);
#184=ORIENTED_EDGE('',*,*,#147,.F.);
#185=ORIENTED_EDGE('',*,*,#148,.T.);
#186=ORIENTED_EDGE('',*,*,#149,.F.);
#187=ORIENTED_EDGE('',*,*,#150,.F.);
#188=ORIENTED_EDGE('',*,*,#151,.F.);
#189=ORIENTED_EDGE('',*,*,#146,.T.);
#190=ORIENTED_EDGE('',*,*,#152,.T.);
#191=ORIENTED_EDGE('',*,*,#153,.T.);
#192=ORIENTED_EDGE('',*,*,#154,.T.);
#193=ORIENTED_EDGE('',*,*,#155,.T.);
#194=ORIENTED_EDGE('',*,*,#156,.T.);
#195=ORIENTED_EDGE('',*,*,#145,.T.);
#196=ORIENTED_EDGE('',*,*,#157,.F.);
#197=ORIENTED_EDGE('',*,*,#158,.F.);
#198=ORIENTED_EDGE('',*,*,#152,.F.);
#199=ORIENTED_EDGE('',*,*,#141,.T.);
#200=ORIENTED_EDGE('',*,*,#156,.F.);
#201=ORIENTED_EDGE('',*,*,#159,.F.);
#202=ORIENTED_EDGE('',*,*,#160,.F.);
#203=ORIENTED_EDGE('',*,*,#143,.T.);
#204=ORIENTED_EDGE('',*,*,#151,.T.);
#205=ORIENTED_EDGE('',*,*,#161,.T.);
#206=ORIENTED_EDGE('',*,*,#162,.T.);
#207=ORIENTED_EDGE('',*,*,#163,.F.);
#208=ORIENTED_EDGE('',*,*,#159,.T.);
#209=ORIENTED_EDGE('',*,*,#155,.F.);
#210=ORIENTED_EDGE('',*,*,#164,.T.);
#211=ORIENTED_EDGE('',*,*,#165,.F.);
#212=ORIENTED_EDGE('',*,*,#164,.F.);
#213=ORIENTED_EDGE('',*,*,#154,.F.);
#214=ORIENTED_EDGE('',*,*,#166,.F.);
#215=ORIENTED_EDGE('',*,*,#167,.F.);
#216=ORIENTED_EDGE('',*,*,#166,.T.);
#217=ORIENTED_EDGE('',*,*,#153,.F.);
#218=ORIENTED_EDGE('',*,*,#158,.T.);
#219=ORIENTED_EDGE('',*,*,#139,.T.);
#220=ORIENTED_EDGE('',*,*,#168,.T.);
#221=ORIENTED_EDGE('',*,*,#169,.T.);
#222=ORIENTED_EDGE('',*,*,#147,.T.);
#223=ORIENTED_EDGE('',*,*,#149,.T.);
#224=ORIENTED_EDGE('',*,*,#170,.T.);
#225=ORIENTED_EDGE('',*,*,#171,.T.);
#226=ORIENTED_EDGE('',*,*,#172,.T.);
#227=ORIENTED_EDGE('',*,*,#173,.T.);
#228=ORIENTED_EDGE('',*,*,#170,.F.);
#229=ORIENTED_EDGE('',*,*,#148,.F.);
#230=ORIENTED_EDGE('',*,*,#169,.F.);
#231=ORIENTED_EDGE('',*,*,#142,.T.);
#232=ORIENTED_EDGE('',*,*,#160,.T.);
#233=ORIENTED_EDGE('',*,*,#163,.T.);
#234=ORIENTED_EDGE('',*,*,#165,.T.);
#235=ORIENTED_EDGE('',*,*,#167,.T.);
#236=ORIENTED_EDGE('',*,*,#157,.T.);
#237=ORIENTED_EDGE('',*,*,#144,.T.);
#238=ORIENTED_EDGE('',*,*,#162,.F.);
#239=ORIENTED_EDGE('',*,*,#174,.T.);
#240=ORIENTED_EDGE('',*,*,#171,.F.);
#241=ORIENTED_EDGE('',*,*,#173,.F.);
#242=ORIENTED_EDGE('',*,*,#168,.F.);
#243=ORIENTED_EDGE('',*,*,#150,.T.);
#244=ORIENTED_EDGE('',*,*,#172,.F.);
#245=ORIENTED_EDGE('',*,*,#174,.F.);
#246=ORIENTED_EDGE('',*,*,#161,.F.);
#247=PLANE('',#289);
#248=PLANE('',#290);
#249=PLANE('',#291);
#250=PLANE('',#292);
#251=PLANE('',#293);
#252=PLANE('',#294);
#253=PLANE('',#295);
#254=PLANE('',#296);
#255=PLANE('',#297);
#256=PLANE('',#298);
#257=PLANE('',#299);
#258=PLANE('',#300);
#259=PLANE('',#301);
#260=PLANE('',#302);
#261=ADVANCED_FACE('',(#15),#247,.T.);
#262=ADVANCED_FACE('',(#16),#248,.T.);
#263=ADVANCED_FACE('',(#17),#249,.F.);
#264=ADVANCED_FACE('',(#18),#250,.F.);
#265=ADVANCED_FACE('',(#19),#251,.F.);
#266=ADVANCED_FACE('',(#20),#252,.T.);
#267=ADVANCED_FACE('',(#21),#253,.T.);
#268=ADVANCED_FACE('',(#22),#254,.T.);
#269=ADVANCED_FACE('',(#23),#255,.T.);
#270=ADVANCED_FACE('',(#24),#256,.T.);
#271=ADVANCED_FACE('',(#25),#257,.F.);
#272=ADVANCED_FACE('',(#26),#258,.F.);
#273=ADVANCED_FACE('',(#27),#259,.F.);
#274=ADVANCED_FACE('',(#28),#260,.F.);
#275=CLOSED_SHELL('',(#261,#262,#263,#264,#265,#266,#267,#268,#269,#270,
#271,#272,#273,#274));
#276=DERIVED_UNIT_ELEMENT(#278,1.);
#277=DERIVED_UNIT_ELEMENT(#449,-3.);
#278=(
MASS_UNIT()
NAMED_UNIT(*)
SI_UNIT(.KILO.,.GRAM.)
);
#279=DERIVED_UNIT((#276,#277));
#280=MEASURE_REPRESENTATION_ITEM('density measure',
POSITIVE_RATIO_MEASURE(7850.),#279);
#281=PROPERTY_DEFINITION_REPRESENTATION(#286,#283);
#282=PROPERTY_DEFINITION_REPRESENTATION(#287,#284);
#283=REPRESENTATION('material name',(#285),#446);
#284=REPRESENTATION('density',(#280),#446);
#285=DESCRIPTIVE_REPRESENTATION_ITEM('Steel','Steel');
#286=PROPERTY_DEFINITION('material property','material name',#456);
#287=PROPERTY_DEFINITION('material property','density of part',#456);
#288=AXIS2_PLACEMENT_3D('',#369,#303,#304);
#289=AXIS2_PLACEMENT_3D('',#370,#305,#306);
#290=AXIS2_PLACEMENT_3D('',#379,#311,#312);
#291=AXIS2_PLACEMENT_3D('',#388,#317,#318);
#292=AXIS2_PLACEMENT_3D('',#407,#329,#330);
#293=AXIS2_PLACEMENT_3D('',#411,#333,#334);
#294=AXIS2_PLACEMENT_3D('',#415,#337,#338);
#295=AXIS2_PLACEMENT_3D('',#419,#341,#342);
#296=AXIS2_PLACEMENT_3D('',#423,#345,#346);
#297=AXIS2_PLACEMENT_3D('',#427,#349,#350);
#298=AXIS2_PLACEMENT_3D('',#429,#352,#353);
#299=AXIS2_PLACEMENT_3D('',#433,#356,#357);
#300=AXIS2_PLACEMENT_3D('',#439,#361,#362);
#301=AXIS2_PLACEMENT_3D('',#441,#364,#365);
#302=AXIS2_PLACEMENT_3D('',#443,#367,#368);
#303=DIRECTION('axis',(0.,0.,1.));
#304=DIRECTION('refdir',(1.,0.,0.));
#305=DIRECTION('center_axis',(0.,1.,0.));
#306=DIRECTION('ref_axis',(0.,0.,1.));
#307=DIRECTION('',(-1.,0.,0.));
#308=DIRECTION('',(0.,0.,1.));
#309=DIRECTION('',(1.,0.,0.));
#310=DIRECTION('',(0.,0.,-1.));
#311=DIRECTION('center_axis',(0.,-1.,0.));
#312=DIRECTION('ref_axis',(0.,0.,-1.));
#313=DIRECTION('',(1.,0.,0.));
#314=DIRECTION('',(0.,0.,1.));
#315=DIRECTION('',(-1.,0.,0.));
#316=DIRECTION('',(0.,0.,-1.));
#317=DIRECTION('center_axis',(-1.,0.,0.));
#318=DIRECTION('ref_axis',(0.,0.,1.));
#319=DIRECTION('',(0.,1.,0.));
#320=DIRECTION('',(0.,0.,-1.));
#321=DIRECTION('',(0.,-1.,0.));
#322=DIRECTION('',(0.,0.,-1.));
#323=DIRECTION('',(0.,1.,0.));
#324=DIRECTION('',(0.,1.,0.));
#325=DIRECTION('',(0.,0.,-1.));
#326=DIRECTION('',(0.,-1.,0.));
#327=DIRECTION('',(0.,0.,1.));
#328=DIRECTION('',(0.,1.,0.));
#329=DIRECTION('center_axis',(0.,0.,1.));
#330=DIRECTION('ref_axis',(1.,0.,0.));
#331=DIRECTION('',(0.,-1.,0.));
#332=DIRECTION('',(-1.,0.,0.));
#333=DIRECTION('center_axis',(0.,0.,1.));
#334=DIRECTION('ref_axis',(1.,0.,0.));
#335=DIRECTION('',(1.,0.,0.));
#336=DIRECTION('',(0.,-1.,0.));
#337=DIRECTION('center_axis',(0.,0.,1.));
#338=DIRECTION('ref_axis',(1.,0.,0.));
#339=DIRECTION('',(-1.,0.,0.));
#340=DIRECTION('',(0.,-1.,0.));
#341=DIRECTION('center_axis',(0.,1.,0.));
#342=DIRECTION('ref_axis',(0.,0.,1.));
#343=DIRECTION('',(0.,0.,-1.));
#344=DIRECTION('',(-1.,0.,0.));
#345=DIRECTION('center_axis',(0.,0.,1.));
#346=DIRECTION('ref_axis',(1.,0.,0.));
#347=DIRECTION('',(0.,1.,0.));
#348=DIRECTION('',(1.,0.,0.));
#349=DIRECTION('center_axis',(0.,-1.,0.));
#350=DIRECTION('ref_axis',(0.,0.,-1.));
#351=DIRECTION('',(0.,0.,1.));
#352=DIRECTION('center_axis',(0.,0.,1.));
#353=DIRECTION('ref_axis',(1.,0.,0.));
#354=DIRECTION('',(0.,-1.,0.));
#355=DIRECTION('',(1.,0.,0.));
#356=DIRECTION('center_axis',(0.,0.,1.));
#357=DIRECTION('ref_axis',(1.,0.,0.));
#358=DIRECTION('',(-1.,0.,0.));
#359=DIRECTION('',(0.,1.,0.));
#360=DIRECTION('',(1.,0.,0.));
#361=DIRECTION('center_axis',(0.,1.,0.));
#362=DIRECTION('ref_axis',(0.,0.,1.));
#363=DIRECTION('',(0.,0.,-1.));
#364=DIRECTION('center_axis',(1.,0.,0.));
#365=DIRECTION('ref_axis',(0.,0.,-1.));
#366=DIRECTION('',(0.,0.,-1.));
#367=DIRECTION('center_axis',(0.,-1.,0.));
#368=DIRECTION('ref_axis',(0.,0.,-1.));
#369=CARTESIAN_POINT('',(0.,0.,0.));
#370=CARTESIAN_POINT('Origin',(215.,-32.,268.));
#371=CARTESIAN_POINT('',(223.,-32.,276.));
#372=CARTESIAN_POINT('',(207.,-32.,276.));
#373=CARTESIAN_POINT('',(215.,-32.,276.));
#374=CARTESIAN_POINT('',(223.,-32.,261.));
#375=CARTESIAN_POINT('',(223.,-32.,254.));
#376=CARTESIAN_POINT('',(207.,-32.,261.));
#377=CARTESIAN_POINT('',(215.,-32.,261.));
#378=CARTESIAN_POINT('',(207.,-32.,254.));
#379=CARTESIAN_POINT('Origin',(215.,32.,268.));
#380=CARTESIAN_POINT('',(207.,32.,276.));
#381=CARTESIAN_POINT('',(223.,32.,276.));
#382=CARTESIAN_POINT('',(215.,32.,276.));
#383=CARTESIAN_POINT('',(207.,32.,261.));
#384=CARTESIAN_POINT('',(207.,32.,254.));
#385=CARTESIAN_POINT('',(223.,32.,261.));
#386=CARTESIAN_POINT('',(215.,32.,261.));
#387=CARTESIAN_POINT('',(223.,32.,254.));
#388=CARTESIAN_POINT('Origin',(223.,0.,240.));
#389=CARTESIAN_POINT('',(223.,-48.,276.));
#390=CARTESIAN_POINT('',(223.,0.,276.));
#391=CARTESIAN_POINT('',(223.,-48.,204.));
#392=CARTESIAN_POINT('',(223.,-48.,240.));
#393=CARTESIAN_POINT('',(223.,48.,204.));
#394=CARTESIAN_POINT('',(223.,0.,204.));
#395=CARTESIAN_POINT('',(223.,48.,276.));
#396=CARTESIAN_POINT('',(223.,48.,240.));
#397=CARTESIAN_POINT('',(223.,0.,276.));
#398=CARTESIAN_POINT('',(223.,33.,261.));
#399=CARTESIAN_POINT('',(223.,0.,261.));
#400=CARTESIAN_POINT('',(223.,33.,219.));
#401=CARTESIAN_POINT('',(223.,33.,240.));
#402=CARTESIAN_POINT('',(223.,-33.,219.));
#403=CARTESIAN_POINT('',(223.,0.,219.));
#404=CARTESIAN_POINT('',(223.,-33.,261.));
#405=CARTESIAN_POINT('',(223.,-33.,240.));
#406=CARTESIAN_POINT('',(223.,0.,261.));
#407=CARTESIAN_POINT('Origin',(215.,0.,261.));
#408=CARTESIAN_POINT('',(207.,33.,261.));
#409=CARTESIAN_POINT('',(207.,0.,261.));
#410=CARTESIAN_POINT('',(215.,33.,261.));
#411=CARTESIAN_POINT('Origin',(215.,0.,261.));
#412=CARTESIAN_POINT('',(207.,-33.,261.));
#413=CARTESIAN_POINT('',(215.,-33.,261.));
#414=CARTESIAN_POINT('',(207.,0.,261.));
#415=CARTESIAN_POINT('Origin',(215.,0.,276.));
#416=CARTESIAN_POINT('',(207.,48.,276.));
#417=CARTESIAN_POINT('',(215.,48.,276.));
#418=CARTESIAN_POINT('',(207.,0.,276.));
#419=CARTESIAN_POINT('Origin',(215.,-33.,240.));
#420=CARTESIAN_POINT('',(207.,-33.,219.));
#421=CARTESIAN_POINT('',(207.,-33.,240.));
#422=CARTESIAN_POINT('',(215.,-33.,219.));
#423=CARTESIAN_POINT('Origin',(215.,0.,219.));
#424=CARTESIAN_POINT('',(207.,33.,219.));
#425=CARTESIAN_POINT('',(207.,0.,219.));
#426=CARTESIAN_POINT('',(215.,33.,219.));
#427=CARTESIAN_POINT('Origin',(215.,33.,240.));
#428=CARTESIAN_POINT('',(207.,33.,240.));
#429=CARTESIAN_POINT('Origin',(215.,0.,276.));
#430=CARTESIAN_POINT('',(207.,-48.,276.));
#431=CARTESIAN_POINT('',(207.,0.,276.));
#432=CARTESIAN_POINT('',(215.,-48.,276.));
#433=CARTESIAN_POINT('Origin',(215.,0.,204.));
#434=CARTESIAN_POINT('',(207.,-48.,204.));
#435=CARTESIAN_POINT('',(215.,-48.,204.));
#436=CARTESIAN_POINT('',(207.,48.,204.));
#437=CARTESIAN_POINT('',(207.,0.,204.));
#438=CARTESIAN_POINT('',(215.,48.,204.));
#439=CARTESIAN_POINT('Origin',(215.,-48.,240.));
#440=CARTESIAN_POINT('',(207.,-48.,240.));
#441=CARTESIAN_POINT('Origin',(207.,0.,240.));
#442=CARTESIAN_POINT('',(207.,48.,240.));
#443=CARTESIAN_POINT('Origin',(215.,48.,240.));
#444=UNCERTAINTY_MEASURE_WITH_UNIT(LENGTH_MEASURE(0.01),#448,
'DISTANCE_ACCURACY_VALUE',
'Maximum model space distance between geometric entities at asserted c
onnectivities');
#445=UNCERTAINTY_MEASURE_WITH_UNIT(LENGTH_MEASURE(0.01),#448,
'DISTANCE_ACCURACY_VALUE',
'Maximum model space distance between geometric entities at asserted c
onnectivities');
#446=(
GEOMETRIC_REPRESENTATION_CONTEXT(3)
GLOBAL_UNCERTAINTY_ASSIGNED_CONTEXT((#444))
GLOBAL_UNIT_ASSIGNED_CONTEXT((#448,#450,#451))
REPRESENTATION_CONTEXT('','3D')
);
#447=(
GEOMETRIC_REPRESENTATION_CONTEXT(3)
GLOBAL_UNCERTAINTY_ASSIGNED_CONTEXT((#445))
GLOBAL_UNIT_ASSIGNED_CONTEXT((#448,#450,#451))
REPRESENTATION_CONTEXT('','3D')
);
#448=(
LENGTH_UNIT()
NAMED_UNIT(*)
SI_UNIT(.MILLI.,.METRE.)
);
#449=(
LENGTH_UNIT()
NAMED_UNIT(*)
SI_UNIT($,.METRE.)
);
#450=(
NAMED_UNIT(*)
PLANE_ANGLE_UNIT()
SI_UNIT($,.RADIAN.)
);
#451=(
NAMED_UNIT(*)
SI_UNIT($,.STERADIAN.)
SOLID_ANGLE_UNIT()
);
#452=SHAPE_DEFINITION_REPRESENTATION(#453,#454);
#453=PRODUCT_DEFINITION_SHAPE('',$,#456);
#454=SHAPE_REPRESENTATION('',(#288),#446);
#455=PRODUCT_DEFINITION_CONTEXT('part definition',#460,'design');
#456=PRODUCT_DEFINITION('2026-08-12-23-07-56-167',
'EXPORT_TMP_PRINT_V005_P206_UpperArmRibC_ElbowSweepW',#457,#455);
#457=PRODUCT_DEFINITION_FORMATION('',$,#462);
#458=PRODUCT_RELATED_PRODUCT_CATEGORY(
'EXPORT_TMP_PRINT_V005_P206_UpperArmRibC_ElbowSweepW',
'EXPORT_TMP_PRINT_V005_P206_UpperArmRibC_ElbowSweepW',(#462));
#459=APPLICATION_PROTOCOL_DEFINITION('international standard',
'automotive_design',2009,#460);
#460=APPLICATION_CONTEXT(
'Core Data for Automotive Mechanical Design Process');
#461=PRODUCT_CONTEXT('part definition',#460,'mechanical');
#462=PRODUCT('2026-08-12-23-07-56-167',
'EXPORT_TMP_PRINT_V005_P206_UpperArmRibC_ElbowSweepW',$,(#461));
#463=PRESENTATION_STYLE_ASSIGNMENT((#464));
#464=SURFACE_STYLE_USAGE(.BOTH.,#465);
#465=SURFACE_SIDE_STYLE('',(#466));
#466=SURFACE_STYLE_FILL_AREA(#467);
#467=FILL_AREA_STYLE('Steel - Satin',(#468));
#468=FILL_AREA_STYLE_COLOUR('Steel - Satin',#469);
#469=COLOUR_RGB('Steel - Satin',0.627450980392157,0.627450980392157,0.627450980392157);
ENDSEC;
END-ISO-10303-21;
