ISO-10303-21;
HEADER;
/* Generated by software containing ST-Developer
 * from STEP Tools, Inc. (www.steptools.com) 
 */

FILE_DESCRIPTION(
/* description */ (''),
/* implementation_level */ '2;1');

FILE_NAME(
/* name */ 'PRINT_P208_UpperArmBottomCover.step',
/* time_stamp */ '2026-09-30T14:03:45+02:00',
/* author */ (''),
/* organization */ (''),
/* preprocessor_version */ 'ST-DEVELOPER v20.2',
/* originating_system */ 'Autodesk Translation Framework v15.15.0.0',
/* authorisation */ '');

FILE_SCHEMA (('AUTOMOTIVE_DESIGN { 1 0 10303 214 3 1 1 }'));
ENDSEC;

DATA;
#10=MECHANICAL_DESIGN_GEOMETRIC_PRESENTATION_REPRESENTATION('',(#13),#1026);
#11=SHAPE_REPRESENTATION_RELATIONSHIP('SRR','None',#1033,#12);
#12=ADVANCED_BREP_SHAPE_REPRESENTATION('',(#14),#1025);
#13=STYLED_ITEM('',(#1042),#14);
#14=MANIFOLD_SOLID_BREP('PRINT_P208_UpperArmBottomCover',#590);
#15=FACE_BOUND('',#114,.T.);
#16=FACE_BOUND('',#117,.T.);
#17=FACE_BOUND('',#120,.T.);
#18=FACE_BOUND('',#123,.T.);
#19=FACE_BOUND('',#126,.T.);
#20=FACE_BOUND('',#129,.T.);
#21=FACE_BOUND('',#137,.T.);
#22=FACE_BOUND('',#138,.T.);
#23=FACE_BOUND('',#139,.T.);
#24=FACE_BOUND('',#140,.T.);
#25=FACE_BOUND('',#141,.T.);
#26=FACE_BOUND('',#142,.T.);
#27=FACE_BOUND('',#143,.T.);
#28=FACE_BOUND('',#144,.T.);
#29=FACE_BOUND('',#145,.T.);
#30=FACE_BOUND('',#146,.T.);
#31=FACE_BOUND('',#147,.T.);
#32=FACE_BOUND('',#148,.T.);
#33=FACE_BOUND('',#150,.T.);
#34=FACE_BOUND('',#151,.T.);
#35=FACE_BOUND('',#152,.T.);
#36=FACE_BOUND('',#153,.T.);
#37=FACE_BOUND('',#154,.T.);
#38=FACE_BOUND('',#155,.T.);
#39=FACE_BOUND('',#156,.T.);
#40=FACE_BOUND('',#157,.T.);
#41=FACE_BOUND('',#158,.T.);
#42=FACE_BOUND('',#159,.T.);
#43=FACE_BOUND('',#160,.T.);
#44=FACE_BOUND('',#161,.T.);
#45=ELLIPSE('',#608,5.22162915732907,4.);
#46=ELLIPSE('',#609,6.22289530744172,4.);
#47=ELLIPSE('',#611,5.22162915732907,4.);
#48=ELLIPSE('',#612,6.22289530744172,4.);
#49=CYLINDRICAL_SURFACE('',#607,4.);
#50=CYLINDRICAL_SURFACE('',#610,4.);
#51=CYLINDRICAL_SURFACE('',#614,2.25);
#52=CYLINDRICAL_SURFACE('',#617,2.25);
#53=CYLINDRICAL_SURFACE('',#620,2.25);
#54=CYLINDRICAL_SURFACE('',#623,2.25);
#55=CYLINDRICAL_SURFACE('',#626,2.25);
#56=CYLINDRICAL_SURFACE('',#629,2.25);
#57=CYLINDRICAL_SURFACE('',#632,5.);
#58=CYLINDRICAL_SURFACE('',#636,5.);
#59=CYLINDRICAL_SURFACE('',#640,5.);
#60=CYLINDRICAL_SURFACE('',#644,5.);
#61=CYLINDRICAL_SURFACE('',#648,5.);
#62=CYLINDRICAL_SURFACE('',#652,5.);
#63=CYLINDRICAL_SURFACE('',#656,2.2);
#64=CYLINDRICAL_SURFACE('',#659,2.2);
#65=CYLINDRICAL_SURFACE('',#662,2.2);
#66=CYLINDRICAL_SURFACE('',#665,2.2);
#67=CYLINDRICAL_SURFACE('',#668,2.2);
#68=CYLINDRICAL_SURFACE('',#671,2.2);
#69=FACE_OUTER_BOUND('',#102,.T.);
#70=FACE_OUTER_BOUND('',#103,.T.);
#71=FACE_OUTER_BOUND('',#104,.T.);
#72=FACE_OUTER_BOUND('',#105,.T.);
#73=FACE_OUTER_BOUND('',#106,.T.);
#74=FACE_OUTER_BOUND('',#107,.T.);
#75=FACE_OUTER_BOUND('',#108,.T.);
#76=FACE_OUTER_BOUND('',#109,.T.);
#77=FACE_OUTER_BOUND('',#110,.T.);
#78=FACE_OUTER_BOUND('',#111,.T.);
#79=FACE_OUTER_BOUND('',#112,.T.);
#80=FACE_OUTER_BOUND('',#113,.T.);
#81=FACE_OUTER_BOUND('',#115,.T.);
#82=FACE_OUTER_BOUND('',#116,.T.);
#83=FACE_OUTER_BOUND('',#118,.T.);
#84=FACE_OUTER_BOUND('',#119,.T.);
#85=FACE_OUTER_BOUND('',#121,.T.);
#86=FACE_OUTER_BOUND('',#122,.T.);
#87=FACE_OUTER_BOUND('',#124,.T.);
#88=FACE_OUTER_BOUND('',#125,.T.);
#89=FACE_OUTER_BOUND('',#127,.T.);
#90=FACE_OUTER_BOUND('',#128,.T.);
#91=FACE_OUTER_BOUND('',#130,.T.);
#92=FACE_OUTER_BOUND('',#131,.T.);
#93=FACE_OUTER_BOUND('',#132,.T.);
#94=FACE_OUTER_BOUND('',#133,.T.);
#95=FACE_OUTER_BOUND('',#134,.T.);
#96=FACE_OUTER_BOUND('',#135,.T.);
#97=FACE_OUTER_BOUND('',#136,.T.);
#98=FACE_OUTER_BOUND('',#149,.T.);
#99=FACE_OUTER_BOUND('',#162,.T.);
#100=FACE_OUTER_BOUND('',#163,.T.);
#101=FACE_OUTER_BOUND('',#164,.T.);
#102=EDGE_LOOP('',(#394,#395,#396,#397));
#103=EDGE_LOOP('',(#398,#399,#400));
#104=EDGE_LOOP('',(#401,#402,#403));
#105=EDGE_LOOP('',(#404,#405,#406,#407,#408,#409,#410,#411));
#106=EDGE_LOOP('',(#412,#413,#414,#415));
#107=EDGE_LOOP('',(#416,#417,#418,#419));
#108=EDGE_LOOP('',(#420,#421,#422,#423));
#109=EDGE_LOOP('',(#424,#425,#426,#427));
#110=EDGE_LOOP('',(#428,#429,#430,#431));
#111=EDGE_LOOP('',(#432,#433,#434,#435));
#112=EDGE_LOOP('',(#436,#437,#438,#439));
#113=EDGE_LOOP('',(#440));
#114=EDGE_LOOP('',(#441));
#115=EDGE_LOOP('',(#442,#443,#444,#445));
#116=EDGE_LOOP('',(#446));
#117=EDGE_LOOP('',(#447));
#118=EDGE_LOOP('',(#448,#449,#450,#451));
#119=EDGE_LOOP('',(#452));
#120=EDGE_LOOP('',(#453));
#121=EDGE_LOOP('',(#454,#455,#456,#457));
#122=EDGE_LOOP('',(#458));
#123=EDGE_LOOP('',(#459));
#124=EDGE_LOOP('',(#460,#461,#462,#463));
#125=EDGE_LOOP('',(#464));
#126=EDGE_LOOP('',(#465));
#127=EDGE_LOOP('',(#466,#467,#468,#469));
#128=EDGE_LOOP('',(#470));
#129=EDGE_LOOP('',(#471));
#130=EDGE_LOOP('',(#472,#473,#474,#475));
#131=EDGE_LOOP('',(#476,#477,#478,#479));
#132=EDGE_LOOP('',(#480,#481,#482,#483));
#133=EDGE_LOOP('',(#484,#485,#486,#487));
#134=EDGE_LOOP('',(#488,#489,#490,#491));
#135=EDGE_LOOP('',(#492,#493,#494,#495));
#136=EDGE_LOOP('',(#496,#497,#498,#499,#500,#501,#502,#503));
#137=EDGE_LOOP('',(#504));
#138=EDGE_LOOP('',(#505));
#139=EDGE_LOOP('',(#506));
#140=EDGE_LOOP('',(#507));
#141=EDGE_LOOP('',(#508));
#142=EDGE_LOOP('',(#509));
#143=EDGE_LOOP('',(#510));
#144=EDGE_LOOP('',(#511));
#145=EDGE_LOOP('',(#512));
#146=EDGE_LOOP('',(#513));
#147=EDGE_LOOP('',(#514));
#148=EDGE_LOOP('',(#515));
#149=EDGE_LOOP('',(#516,#517,#518,#519));
#150=EDGE_LOOP('',(#520));
#151=EDGE_LOOP('',(#521));
#152=EDGE_LOOP('',(#522));
#153=EDGE_LOOP('',(#523));
#154=EDGE_LOOP('',(#524));
#155=EDGE_LOOP('',(#525));
#156=EDGE_LOOP('',(#526));
#157=EDGE_LOOP('',(#527));
#158=EDGE_LOOP('',(#528));
#159=EDGE_LOOP('',(#529));
#160=EDGE_LOOP('',(#530));
#161=EDGE_LOOP('',(#531));
#162=EDGE_LOOP('',(#532,#533,#534,#535));
#163=EDGE_LOOP('',(#536,#537,#538,#539));
#164=EDGE_LOOP('',(#540,#541,#542,#543));
#165=CIRCLE('',#605,4.);
#166=CIRCLE('',#606,4.);
#167=CIRCLE('',#615,2.25);
#168=CIRCLE('',#616,2.25);
#169=CIRCLE('',#618,2.25);
#170=CIRCLE('',#619,2.25);
#171=CIRCLE('',#621,2.25);
#172=CIRCLE('',#622,2.25);
#173=CIRCLE('',#624,2.25);
#174=CIRCLE('',#625,2.25);
#175=CIRCLE('',#627,2.25);
#176=CIRCLE('',#628,2.25);
#177=CIRCLE('',#630,2.25);
#178=CIRCLE('',#631,2.25);
#179=CIRCLE('',#633,5.);
#180=CIRCLE('',#634,5.);
#181=CIRCLE('',#637,5.);
#182=CIRCLE('',#638,5.);
#183=CIRCLE('',#641,5.);
#184=CIRCLE('',#642,5.);
#185=CIRCLE('',#645,5.);
#186=CIRCLE('',#646,5.);
#187=CIRCLE('',#649,5.);
#188=CIRCLE('',#650,5.);
#189=CIRCLE('',#653,5.);
#190=CIRCLE('',#654,5.);
#191=CIRCLE('',#657,2.2);
#192=CIRCLE('',#658,2.2);
#193=CIRCLE('',#660,2.2);
#194=CIRCLE('',#661,2.2);
#195=CIRCLE('',#663,2.2);
#196=CIRCLE('',#664,2.2);
#197=CIRCLE('',#666,2.2);
#198=CIRCLE('',#667,2.2);
#199=CIRCLE('',#669,2.2);
#200=CIRCLE('',#670,2.2);
#201=CIRCLE('',#672,2.2);
#202=CIRCLE('',#673,2.2);
#203=LINE('',#868,#236);
#204=LINE('',#872,#237);
#205=LINE('',#884,#238);
#206=LINE('',#886,#239);
#207=LINE('',#888,#240);
#208=LINE('',#890,#241);
#209=LINE('',#891,#242);
#210=LINE('',#896,#243);
#211=LINE('',#902,#244);
#212=LINE('',#908,#245);
#213=LINE('',#914,#246);
#214=LINE('',#920,#247);
#215=LINE('',#926,#248);
#216=LINE('',#932,#249);
#217=LINE('',#939,#250);
#218=LINE('',#946,#251);
#219=LINE('',#953,#252);
#220=LINE('',#960,#253);
#221=LINE('',#967,#254);
#222=LINE('',#974,#255);
#223=LINE('',#980,#256);
#224=LINE('',#986,#257);
#225=LINE('',#992,#258);
#226=LINE('',#998,#259);
#227=LINE('',#1004,#260);
#228=LINE('',#1008,#261);
#229=LINE('',#1010,#262);
#230=LINE('',#1011,#263);
#231=LINE('',#1014,#264);
#232=LINE('',#1016,#265);
#233=LINE('',#1017,#266);
#234=LINE('',#1019,#267);
#235=LINE('',#1021,#268);
#236=VECTOR('',#683,10.);
#237=VECTOR('',#686,10.);
#238=VECTOR('',#703,10.);
#239=VECTOR('',#704,10.);
#240=VECTOR('',#705,10.);
#241=VECTOR('',#706,10.);
#242=VECTOR('',#707,10.);
#243=VECTOR('',#712,2.25);
#244=VECTOR('',#719,2.25);
#245=VECTOR('',#726,2.25);
#246=VECTOR('',#733,2.25);
#247=VECTOR('',#740,2.25);
#248=VECTOR('',#747,2.25);
#249=VECTOR('',#754,5.);
#250=VECTOR('',#763,5.);
#251=VECTOR('',#772,5.);
#252=VECTOR('',#781,5.);
#253=VECTOR('',#790,5.);
#254=VECTOR('',#799,5.);
#255=VECTOR('',#808,2.2);
#256=VECTOR('',#815,2.2);
#257=VECTOR('',#822,2.2);
#258=VECTOR('',#829,2.2);
#259=VECTOR('',#836,2.2);
#260=VECTOR('',#843,2.2);
#261=VECTOR('',#848,10.);
#262=VECTOR('',#849,10.);
#263=VECTOR('',#850,10.);
#264=VECTOR('',#853,10.);
#265=VECTOR('',#854,10.);
#266=VECTOR('',#855,10.);
#267=VECTOR('',#858,10.);
#268=VECTOR('',#861,10.);
#269=VERTEX_POINT('',#866);
#270=VERTEX_POINT('',#867);
#271=VERTEX_POINT('',#869);
#272=VERTEX_POINT('',#871);
#273=VERTEX_POINT('',#875);
#274=VERTEX_POINT('',#879);
#275=VERTEX_POINT('',#883);
#276=VERTEX_POINT('',#885);
#277=VERTEX_POINT('',#887);
#278=VERTEX_POINT('',#889);
#279=VERTEX_POINT('',#893);
#280=VERTEX_POINT('',#895);
#281=VERTEX_POINT('',#899);
#282=VERTEX_POINT('',#901);
#283=VERTEX_POINT('',#905);
#284=VERTEX_POINT('',#907);
#285=VERTEX_POINT('',#911);
#286=VERTEX_POINT('',#913);
#287=VERTEX_POINT('',#917);
#288=VERTEX_POINT('',#919);
#289=VERTEX_POINT('',#923);
#290=VERTEX_POINT('',#925);
#291=VERTEX_POINT('',#929);
#292=VERTEX_POINT('',#931);
#293=VERTEX_POINT('',#936);
#294=VERTEX_POINT('',#938);
#295=VERTEX_POINT('',#943);
#296=VERTEX_POINT('',#945);
#297=VERTEX_POINT('',#950);
#298=VERTEX_POINT('',#952);
#299=VERTEX_POINT('',#957);
#300=VERTEX_POINT('',#959);
#301=VERTEX_POINT('',#964);
#302=VERTEX_POINT('',#966);
#303=VERTEX_POINT('',#971);
#304=VERTEX_POINT('',#973);
#305=VERTEX_POINT('',#977);
#306=VERTEX_POINT('',#979);
#307=VERTEX_POINT('',#983);
#308=VERTEX_POINT('',#985);
#309=VERTEX_POINT('',#989);
#310=VERTEX_POINT('',#991);
#311=VERTEX_POINT('',#995);
#312=VERTEX_POINT('',#997);
#313=VERTEX_POINT('',#1001);
#314=VERTEX_POINT('',#1003);
#315=VERTEX_POINT('',#1007);
#316=VERTEX_POINT('',#1009);
#317=VERTEX_POINT('',#1013);
#318=VERTEX_POINT('',#1015);
#319=EDGE_CURVE('',#269,#270,#203,.T.);
#320=EDGE_CURVE('',#271,#269,#165,.T.);
#321=EDGE_CURVE('',#272,#271,#204,.T.);
#322=EDGE_CURVE('',#270,#272,#166,.T.);
#323=EDGE_CURVE('',#270,#273,#45,.T.);
#324=EDGE_CURVE('',#273,#272,#46,.T.);
#325=EDGE_CURVE('',#274,#269,#47,.T.);
#326=EDGE_CURVE('',#271,#274,#48,.T.);
#327=EDGE_CURVE('',#275,#273,#205,.T.);
#328=EDGE_CURVE('',#275,#276,#206,.T.);
#329=EDGE_CURVE('',#277,#276,#207,.T.);
#330=EDGE_CURVE('',#278,#277,#208,.T.);
#331=EDGE_CURVE('',#274,#278,#209,.T.);
#332=EDGE_CURVE('',#279,#279,#167,.T.);
#333=EDGE_CURVE('',#279,#280,#210,.T.);
#334=EDGE_CURVE('',#280,#280,#168,.T.);
#335=EDGE_CURVE('',#281,#281,#169,.T.);
#336=EDGE_CURVE('',#281,#282,#211,.T.);
#337=EDGE_CURVE('',#282,#282,#170,.T.);
#338=EDGE_CURVE('',#283,#283,#171,.T.);
#339=EDGE_CURVE('',#283,#284,#212,.T.);
#340=EDGE_CURVE('',#284,#284,#172,.T.);
#341=EDGE_CURVE('',#285,#285,#173,.T.);
#342=EDGE_CURVE('',#285,#286,#213,.T.);
#343=EDGE_CURVE('',#286,#286,#174,.T.);
#344=EDGE_CURVE('',#287,#287,#175,.T.);
#345=EDGE_CURVE('',#287,#288,#214,.T.);
#346=EDGE_CURVE('',#288,#288,#176,.T.);
#347=EDGE_CURVE('',#289,#289,#177,.T.);
#348=EDGE_CURVE('',#289,#290,#215,.T.);
#349=EDGE_CURVE('',#290,#290,#178,.T.);
#350=EDGE_CURVE('',#291,#291,#179,.T.);
#351=EDGE_CURVE('',#291,#292,#216,.T.);
#352=EDGE_CURVE('',#292,#292,#180,.T.);
#353=EDGE_CURVE('',#293,#293,#181,.T.);
#354=EDGE_CURVE('',#293,#294,#217,.T.);
#355=EDGE_CURVE('',#294,#294,#182,.T.);
#356=EDGE_CURVE('',#295,#295,#183,.T.);
#357=EDGE_CURVE('',#295,#296,#218,.T.);
#358=EDGE_CURVE('',#296,#296,#184,.T.);
#359=EDGE_CURVE('',#297,#297,#185,.T.);
#360=EDGE_CURVE('',#297,#298,#219,.T.);
#361=EDGE_CURVE('',#298,#298,#186,.T.);
#362=EDGE_CURVE('',#299,#299,#187,.T.);
#363=EDGE_CURVE('',#299,#300,#220,.T.);
#364=EDGE_CURVE('',#300,#300,#188,.T.);
#365=EDGE_CURVE('',#301,#301,#189,.T.);
#366=EDGE_CURVE('',#301,#302,#221,.T.);
#367=EDGE_CURVE('',#302,#302,#190,.T.);
#368=EDGE_CURVE('',#303,#303,#191,.T.);
#369=EDGE_CURVE('',#303,#304,#222,.T.);
#370=EDGE_CURVE('',#304,#304,#192,.T.);
#371=EDGE_CURVE('',#305,#305,#193,.T.);
#372=EDGE_CURVE('',#305,#306,#223,.T.);
#373=EDGE_CURVE('',#306,#306,#194,.T.);
#374=EDGE_CURVE('',#307,#307,#195,.T.);
#375=EDGE_CURVE('',#307,#308,#224,.T.);
#376=EDGE_CURVE('',#308,#308,#196,.T.);
#377=EDGE_CURVE('',#309,#309,#197,.T.);
#378=EDGE_CURVE('',#309,#310,#225,.T.);
#379=EDGE_CURVE('',#310,#310,#198,.T.);
#380=EDGE_CURVE('',#311,#311,#199,.T.);
#381=EDGE_CURVE('',#311,#312,#226,.T.);
#382=EDGE_CURVE('',#312,#312,#200,.T.);
#383=EDGE_CURVE('',#313,#313,#201,.T.);
#384=EDGE_CURVE('',#313,#314,#227,.T.);
#385=EDGE_CURVE('',#314,#314,#202,.T.);
#386=EDGE_CURVE('',#278,#315,#228,.T.);
#387=EDGE_CURVE('',#315,#316,#229,.T.);
#388=EDGE_CURVE('',#316,#275,#230,.T.);
#389=EDGE_CURVE('',#276,#317,#231,.T.);
#390=EDGE_CURVE('',#317,#318,#232,.T.);
#391=EDGE_CURVE('',#318,#277,#233,.T.);
#392=EDGE_CURVE('',#316,#317,#234,.T.);
#393=EDGE_CURVE('',#315,#318,#235,.T.);
#394=ORIENTED_EDGE('',*,*,#319,.F.);
#395=ORIENTED_EDGE('',*,*,#320,.F.);
#396=ORIENTED_EDGE('',*,*,#321,.F.);
#397=ORIENTED_EDGE('',*,*,#322,.F.);
#398=ORIENTED_EDGE('',*,*,#323,.F.);
#399=ORIENTED_EDGE('',*,*,#322,.T.);
#400=ORIENTED_EDGE('',*,*,#324,.F.);
#401=ORIENTED_EDGE('',*,*,#325,.F.);
#402=ORIENTED_EDGE('',*,*,#326,.F.);
#403=ORIENTED_EDGE('',*,*,#320,.T.);
#404=ORIENTED_EDGE('',*,*,#325,.T.);
#405=ORIENTED_EDGE('',*,*,#319,.T.);
#406=ORIENTED_EDGE('',*,*,#323,.T.);
#407=ORIENTED_EDGE('',*,*,#327,.F.);
#408=ORIENTED_EDGE('',*,*,#328,.T.);
#409=ORIENTED_EDGE('',*,*,#329,.F.);
#410=ORIENTED_EDGE('',*,*,#330,.F.);
#411=ORIENTED_EDGE('',*,*,#331,.F.);
#412=ORIENTED_EDGE('',*,*,#332,.F.);
#413=ORIENTED_EDGE('',*,*,#333,.T.);
#414=ORIENTED_EDGE('',*,*,#334,.F.);
#415=ORIENTED_EDGE('',*,*,#333,.F.);
#416=ORIENTED_EDGE('',*,*,#335,.F.);
#417=ORIENTED_EDGE('',*,*,#336,.T.);
#418=ORIENTED_EDGE('',*,*,#337,.F.);
#419=ORIENTED_EDGE('',*,*,#336,.F.);
#420=ORIENTED_EDGE('',*,*,#338,.F.);
#421=ORIENTED_EDGE('',*,*,#339,.T.);
#422=ORIENTED_EDGE('',*,*,#340,.F.);
#423=ORIENTED_EDGE('',*,*,#339,.F.);
#424=ORIENTED_EDGE('',*,*,#341,.F.);
#425=ORIENTED_EDGE('',*,*,#342,.T.);
#426=ORIENTED_EDGE('',*,*,#343,.F.);
#427=ORIENTED_EDGE('',*,*,#342,.F.);
#428=ORIENTED_EDGE('',*,*,#344,.F.);
#429=ORIENTED_EDGE('',*,*,#345,.T.);
#430=ORIENTED_EDGE('',*,*,#346,.F.);
#431=ORIENTED_EDGE('',*,*,#345,.F.);
#432=ORIENTED_EDGE('',*,*,#347,.F.);
#433=ORIENTED_EDGE('',*,*,#348,.T.);
#434=ORIENTED_EDGE('',*,*,#349,.F.);
#435=ORIENTED_EDGE('',*,*,#348,.F.);
#436=ORIENTED_EDGE('',*,*,#350,.F.);
#437=ORIENTED_EDGE('',*,*,#351,.T.);
#438=ORIENTED_EDGE('',*,*,#352,.F.);
#439=ORIENTED_EDGE('',*,*,#351,.F.);
#440=ORIENTED_EDGE('',*,*,#350,.T.);
#441=ORIENTED_EDGE('',*,*,#334,.T.);
#442=ORIENTED_EDGE('',*,*,#353,.F.);
#443=ORIENTED_EDGE('',*,*,#354,.T.);
#444=ORIENTED_EDGE('',*,*,#355,.F.);
#445=ORIENTED_EDGE('',*,*,#354,.F.);
#446=ORIENTED_EDGE('',*,*,#353,.T.);
#447=ORIENTED_EDGE('',*,*,#337,.T.);
#448=ORIENTED_EDGE('',*,*,#356,.F.);
#449=ORIENTED_EDGE('',*,*,#357,.T.);
#450=ORIENTED_EDGE('',*,*,#358,.F.);
#451=ORIENTED_EDGE('',*,*,#357,.F.);
#452=ORIENTED_EDGE('',*,*,#356,.T.);
#453=ORIENTED_EDGE('',*,*,#340,.T.);
#454=ORIENTED_EDGE('',*,*,#359,.F.);
#455=ORIENTED_EDGE('',*,*,#360,.T.);
#456=ORIENTED_EDGE('',*,*,#361,.F.);
#457=ORIENTED_EDGE('',*,*,#360,.F.);
#458=ORIENTED_EDGE('',*,*,#359,.T.);
#459=ORIENTED_EDGE('',*,*,#343,.T.);
#460=ORIENTED_EDGE('',*,*,#362,.F.);
#461=ORIENTED_EDGE('',*,*,#363,.T.);
#462=ORIENTED_EDGE('',*,*,#364,.F.);
#463=ORIENTED_EDGE('',*,*,#363,.F.);
#464=ORIENTED_EDGE('',*,*,#362,.T.);
#465=ORIENTED_EDGE('',*,*,#346,.T.);
#466=ORIENTED_EDGE('',*,*,#365,.F.);
#467=ORIENTED_EDGE('',*,*,#366,.T.);
#468=ORIENTED_EDGE('',*,*,#367,.F.);
#469=ORIENTED_EDGE('',*,*,#366,.F.);
#470=ORIENTED_EDGE('',*,*,#365,.T.);
#471=ORIENTED_EDGE('',*,*,#349,.T.);
#472=ORIENTED_EDGE('',*,*,#368,.F.);
#473=ORIENTED_EDGE('',*,*,#369,.T.);
#474=ORIENTED_EDGE('',*,*,#370,.F.);
#475=ORIENTED_EDGE('',*,*,#369,.F.);
#476=ORIENTED_EDGE('',*,*,#371,.F.);
#477=ORIENTED_EDGE('',*,*,#372,.T.);
#478=ORIENTED_EDGE('',*,*,#373,.F.);
#479=ORIENTED_EDGE('',*,*,#372,.F.);
#480=ORIENTED_EDGE('',*,*,#374,.F.);
#481=ORIENTED_EDGE('',*,*,#375,.T.);
#482=ORIENTED_EDGE('',*,*,#376,.F.);
#483=ORIENTED_EDGE('',*,*,#375,.F.);
#484=ORIENTED_EDGE('',*,*,#377,.F.);
#485=ORIENTED_EDGE('',*,*,#378,.T.);
#486=ORIENTED_EDGE('',*,*,#379,.F.);
#487=ORIENTED_EDGE('',*,*,#378,.F.);
#488=ORIENTED_EDGE('',*,*,#380,.F.);
#489=ORIENTED_EDGE('',*,*,#381,.T.);
#490=ORIENTED_EDGE('',*,*,#382,.F.);
#491=ORIENTED_EDGE('',*,*,#381,.F.);
#492=ORIENTED_EDGE('',*,*,#383,.F.);
#493=ORIENTED_EDGE('',*,*,#384,.T.);
#494=ORIENTED_EDGE('',*,*,#385,.F.);
#495=ORIENTED_EDGE('',*,*,#384,.F.);
#496=ORIENTED_EDGE('',*,*,#326,.T.);
#497=ORIENTED_EDGE('',*,*,#331,.T.);
#498=ORIENTED_EDGE('',*,*,#386,.T.);
#499=ORIENTED_EDGE('',*,*,#387,.T.);
#500=ORIENTED_EDGE('',*,*,#388,.T.);
#501=ORIENTED_EDGE('',*,*,#327,.T.);
#502=ORIENTED_EDGE('',*,*,#324,.T.);
#503=ORIENTED_EDGE('',*,*,#321,.T.);
#504=ORIENTED_EDGE('',*,*,#352,.T.);
#505=ORIENTED_EDGE('',*,*,#355,.T.);
#506=ORIENTED_EDGE('',*,*,#358,.T.);
#507=ORIENTED_EDGE('',*,*,#361,.T.);
#508=ORIENTED_EDGE('',*,*,#364,.T.);
#509=ORIENTED_EDGE('',*,*,#367,.T.);
#510=ORIENTED_EDGE('',*,*,#370,.T.);
#511=ORIENTED_EDGE('',*,*,#373,.T.);
#512=ORIENTED_EDGE('',*,*,#376,.T.);
#513=ORIENTED_EDGE('',*,*,#379,.T.);
#514=ORIENTED_EDGE('',*,*,#382,.T.);
#515=ORIENTED_EDGE('',*,*,#385,.T.);
#516=ORIENTED_EDGE('',*,*,#329,.T.);
#517=ORIENTED_EDGE('',*,*,#389,.T.);
#518=ORIENTED_EDGE('',*,*,#390,.T.);
#519=ORIENTED_EDGE('',*,*,#391,.T.);
#520=ORIENTED_EDGE('',*,*,#383,.T.);
#521=ORIENTED_EDGE('',*,*,#380,.T.);
#522=ORIENTED_EDGE('',*,*,#377,.T.);
#523=ORIENTED_EDGE('',*,*,#374,.T.);
#524=ORIENTED_EDGE('',*,*,#371,.T.);
#525=ORIENTED_EDGE('',*,*,#368,.T.);
#526=ORIENTED_EDGE('',*,*,#347,.T.);
#527=ORIENTED_EDGE('',*,*,#344,.T.);
#528=ORIENTED_EDGE('',*,*,#341,.T.);
#529=ORIENTED_EDGE('',*,*,#338,.T.);
#530=ORIENTED_EDGE('',*,*,#335,.T.);
#531=ORIENTED_EDGE('',*,*,#332,.T.);
#532=ORIENTED_EDGE('',*,*,#392,.T.);
#533=ORIENTED_EDGE('',*,*,#389,.F.);
#534=ORIENTED_EDGE('',*,*,#328,.F.);
#535=ORIENTED_EDGE('',*,*,#388,.F.);
#536=ORIENTED_EDGE('',*,*,#393,.T.);
#537=ORIENTED_EDGE('',*,*,#390,.F.);
#538=ORIENTED_EDGE('',*,*,#392,.F.);
#539=ORIENTED_EDGE('',*,*,#387,.F.);
#540=ORIENTED_EDGE('',*,*,#330,.T.);
#541=ORIENTED_EDGE('',*,*,#391,.F.);
#542=ORIENTED_EDGE('',*,*,#393,.F.);
#543=ORIENTED_EDGE('',*,*,#386,.F.);
#544=PLANE('',#604);
#545=PLANE('',#613);
#546=PLANE('',#635);
#547=PLANE('',#639);
#548=PLANE('',#643);
#549=PLANE('',#647);
#550=PLANE('',#651);
#551=PLANE('',#655);
#552=PLANE('',#674);
#553=PLANE('',#675);
#554=PLANE('',#676);
#555=PLANE('',#677);
#556=PLANE('',#678);
#557=ADVANCED_FACE('',(#69),#544,.F.);
#558=ADVANCED_FACE('',(#70),#49,.F.);
#559=ADVANCED_FACE('',(#71),#50,.F.);
#560=ADVANCED_FACE('',(#72),#545,.F.);
#561=ADVANCED_FACE('',(#73),#51,.F.);
#562=ADVANCED_FACE('',(#74),#52,.F.);
#563=ADVANCED_FACE('',(#75),#53,.F.);
#564=ADVANCED_FACE('',(#76),#54,.F.);
#565=ADVANCED_FACE('',(#77),#55,.F.);
#566=ADVANCED_FACE('',(#78),#56,.F.);
#567=ADVANCED_FACE('',(#79),#57,.T.);
#568=ADVANCED_FACE('',(#80,#15),#546,.T.);
#569=ADVANCED_FACE('',(#81),#58,.T.);
#570=ADVANCED_FACE('',(#82,#16),#547,.T.);
#571=ADVANCED_FACE('',(#83),#59,.T.);
#572=ADVANCED_FACE('',(#84,#17),#548,.T.);
#573=ADVANCED_FACE('',(#85),#60,.T.);
#574=ADVANCED_FACE('',(#86,#18),#549,.T.);
#575=ADVANCED_FACE('',(#87),#61,.T.);
#576=ADVANCED_FACE('',(#88,#19),#550,.T.);
#577=ADVANCED_FACE('',(#89),#62,.T.);
#578=ADVANCED_FACE('',(#90,#20),#551,.T.);
#579=ADVANCED_FACE('',(#91),#63,.F.);
#580=ADVANCED_FACE('',(#92),#64,.F.);
#581=ADVANCED_FACE('',(#93),#65,.F.);
#582=ADVANCED_FACE('',(#94),#66,.F.);
#583=ADVANCED_FACE('',(#95),#67,.F.);
#584=ADVANCED_FACE('',(#96),#68,.F.);
#585=ADVANCED_FACE('',(#97,#21,#22,#23,#24,#25,#26,#27,#28,#29,#30,#31,
#32),#552,.T.);
#586=ADVANCED_FACE('',(#98,#33,#34,#35,#36,#37,#38,#39,#40,#41,#42,#43,
#44),#553,.F.);
#587=ADVANCED_FACE('',(#99),#554,.F.);
#588=ADVANCED_FACE('',(#100),#555,.F.);
#589=ADVANCED_FACE('',(#101),#556,.F.);
#590=CLOSED_SHELL('',(#557,#558,#559,#560,#561,#562,#563,#564,#565,#566,
#567,#568,#569,#570,#571,#572,#573,#574,#575,#576,#577,#578,#579,#580,#581,
#582,#583,#584,#585,#586,#587,#588,#589));
#591=DERIVED_UNIT_ELEMENT(#593,1.);
#592=DERIVED_UNIT_ELEMENT(#1028,-3.);
#593=(
MASS_UNIT()
NAMED_UNIT(*)
SI_UNIT(.KILO.,.GRAM.)
);
#594=DERIVED_UNIT((#591,#592));
#595=MEASURE_REPRESENTATION_ITEM('density measure',
POSITIVE_RATIO_MEASURE(7850.),#594);
#596=PROPERTY_DEFINITION_REPRESENTATION(#601,#598);
#597=PROPERTY_DEFINITION_REPRESENTATION(#602,#599);
#598=REPRESENTATION('material name',(#600),#1025);
#599=REPRESENTATION('density',(#595),#1025);
#600=DESCRIPTIVE_REPRESENTATION_ITEM('Steel','Steel');
#601=PROPERTY_DEFINITION('material property','material name',#1035);
#602=PROPERTY_DEFINITION('material property','density of part',#1035);
#603=AXIS2_PLACEMENT_3D('',#864,#679,#680);
#604=AXIS2_PLACEMENT_3D('',#865,#681,#682);
#605=AXIS2_PLACEMENT_3D('',#870,#684,#685);
#606=AXIS2_PLACEMENT_3D('',#873,#687,#688);
#607=AXIS2_PLACEMENT_3D('',#874,#689,#690);
#608=AXIS2_PLACEMENT_3D('',#876,#691,#692);
#609=AXIS2_PLACEMENT_3D('',#877,#693,#694);
#610=AXIS2_PLACEMENT_3D('',#878,#695,#696);
#611=AXIS2_PLACEMENT_3D('',#880,#697,#698);
#612=AXIS2_PLACEMENT_3D('',#881,#699,#700);
#613=AXIS2_PLACEMENT_3D('',#882,#701,#702);
#614=AXIS2_PLACEMENT_3D('',#892,#708,#709);
#615=AXIS2_PLACEMENT_3D('',#894,#710,#711);
#616=AXIS2_PLACEMENT_3D('',#897,#713,#714);
#617=AXIS2_PLACEMENT_3D('',#898,#715,#716);
#618=AXIS2_PLACEMENT_3D('',#900,#717,#718);
#619=AXIS2_PLACEMENT_3D('',#903,#720,#721);
#620=AXIS2_PLACEMENT_3D('',#904,#722,#723);
#621=AXIS2_PLACEMENT_3D('',#906,#724,#725);
#622=AXIS2_PLACEMENT_3D('',#909,#727,#728);
#623=AXIS2_PLACEMENT_3D('',#910,#729,#730);
#624=AXIS2_PLACEMENT_3D('',#912,#731,#732);
#625=AXIS2_PLACEMENT_3D('',#915,#734,#735);
#626=AXIS2_PLACEMENT_3D('',#916,#736,#737);
#627=AXIS2_PLACEMENT_3D('',#918,#738,#739);
#628=AXIS2_PLACEMENT_3D('',#921,#741,#742);
#629=AXIS2_PLACEMENT_3D('',#922,#743,#744);
#630=AXIS2_PLACEMENT_3D('',#924,#745,#746);
#631=AXIS2_PLACEMENT_3D('',#927,#748,#749);
#632=AXIS2_PLACEMENT_3D('',#928,#750,#751);
#633=AXIS2_PLACEMENT_3D('',#930,#752,#753);
#634=AXIS2_PLACEMENT_3D('',#933,#755,#756);
#635=AXIS2_PLACEMENT_3D('',#934,#757,#758);
#636=AXIS2_PLACEMENT_3D('',#935,#759,#760);
#637=AXIS2_PLACEMENT_3D('',#937,#761,#762);
#638=AXIS2_PLACEMENT_3D('',#940,#764,#765);
#639=AXIS2_PLACEMENT_3D('',#941,#766,#767);
#640=AXIS2_PLACEMENT_3D('',#942,#768,#769);
#641=AXIS2_PLACEMENT_3D('',#944,#770,#771);
#642=AXIS2_PLACEMENT_3D('',#947,#773,#774);
#643=AXIS2_PLACEMENT_3D('',#948,#775,#776);
#644=AXIS2_PLACEMENT_3D('',#949,#777,#778);
#645=AXIS2_PLACEMENT_3D('',#951,#779,#780);
#646=AXIS2_PLACEMENT_3D('',#954,#782,#783);
#647=AXIS2_PLACEMENT_3D('',#955,#784,#785);
#648=AXIS2_PLACEMENT_3D('',#956,#786,#787);
#649=AXIS2_PLACEMENT_3D('',#958,#788,#789);
#650=AXIS2_PLACEMENT_3D('',#961,#791,#792);
#651=AXIS2_PLACEMENT_3D('',#962,#793,#794);
#652=AXIS2_PLACEMENT_3D('',#963,#795,#796);
#653=AXIS2_PLACEMENT_3D('',#965,#797,#798);
#654=AXIS2_PLACEMENT_3D('',#968,#800,#801);
#655=AXIS2_PLACEMENT_3D('',#969,#802,#803);
#656=AXIS2_PLACEMENT_3D('',#970,#804,#805);
#657=AXIS2_PLACEMENT_3D('',#972,#806,#807);
#658=AXIS2_PLACEMENT_3D('',#975,#809,#810);
#659=AXIS2_PLACEMENT_3D('',#976,#811,#812);
#660=AXIS2_PLACEMENT_3D('',#978,#813,#814);
#661=AXIS2_PLACEMENT_3D('',#981,#816,#817);
#662=AXIS2_PLACEMENT_3D('',#982,#818,#819);
#663=AXIS2_PLACEMENT_3D('',#984,#820,#821);
#664=AXIS2_PLACEMENT_3D('',#987,#823,#824);
#665=AXIS2_PLACEMENT_3D('',#988,#825,#826);
#666=AXIS2_PLACEMENT_3D('',#990,#827,#828);
#667=AXIS2_PLACEMENT_3D('',#993,#830,#831);
#668=AXIS2_PLACEMENT_3D('',#994,#832,#833);
#669=AXIS2_PLACEMENT_3D('',#996,#834,#835);
#670=AXIS2_PLACEMENT_3D('',#999,#837,#838);
#671=AXIS2_PLACEMENT_3D('',#1000,#839,#840);
#672=AXIS2_PLACEMENT_3D('',#1002,#841,#842);
#673=AXIS2_PLACEMENT_3D('',#1005,#844,#845);
#674=AXIS2_PLACEMENT_3D('',#1006,#846,#847);
#675=AXIS2_PLACEMENT_3D('',#1012,#851,#852);
#676=AXIS2_PLACEMENT_3D('',#1018,#856,#857);
#677=AXIS2_PLACEMENT_3D('',#1020,#859,#860);
#678=AXIS2_PLACEMENT_3D('',#1022,#862,#863);
#679=DIRECTION('axis',(0.,0.,1.));
#680=DIRECTION('refdir',(1.,0.,0.));
#681=DIRECTION('center_axis',(-0.766044443118984,0.,-0.642787609686532));
#682=DIRECTION('ref_axis',(0.642787609686532,0.,-0.766044443118984));
#683=DIRECTION('',(0.,-1.,0.));
#684=DIRECTION('center_axis',(-0.766044443118984,0.,-0.642787609686532));
#685=DIRECTION('ref_axis',(0.642787609686532,0.,-0.766044443118984));
#686=DIRECTION('',(0.,1.,0.));
#687=DIRECTION('center_axis',(-0.766044443118984,0.,-0.642787609686532));
#688=DIRECTION('ref_axis',(0.642787609686532,0.,-0.766044443118984));
#689=DIRECTION('center_axis',(-0.766044443118984,0.,-0.642787609686532));
#690=DIRECTION('ref_axis',(0.642787609686532,0.,-0.766044443118984));
#691=DIRECTION('center_axis',(-1.,0.,0.));
#692=DIRECTION('ref_axis',(0.,0.,-1.));
#693=DIRECTION('center_axis',(0.,0.,-1.));
#694=DIRECTION('ref_axis',(1.,0.,0.));
#695=DIRECTION('center_axis',(-0.766044443118984,0.,-0.642787609686532));
#696=DIRECTION('ref_axis',(0.642787609686532,0.,-0.766044443118984));
#697=DIRECTION('center_axis',(-1.,0.,0.));
#698=DIRECTION('ref_axis',(0.,0.,-1.));
#699=DIRECTION('center_axis',(0.,0.,-1.));
#700=DIRECTION('ref_axis',(1.,0.,0.));
#701=DIRECTION('center_axis',(-1.,0.,0.));
#702=DIRECTION('ref_axis',(0.,0.,1.));
#703=DIRECTION('',(0.,1.,0.));
#704=DIRECTION('',(0.,0.,-1.));
#705=DIRECTION('',(0.,-1.,0.));
#706=DIRECTION('',(0.,0.,-1.));
#707=DIRECTION('',(0.,1.,0.));
#708=DIRECTION('center_axis',(0.,0.,1.));
#709=DIRECTION('ref_axis',(1.,0.,0.));
#710=DIRECTION('center_axis',(0.,0.,1.));
#711=DIRECTION('ref_axis',(1.,0.,0.));
#712=DIRECTION('',(0.,0.,1.));
#713=DIRECTION('center_axis',(0.,0.,-1.));
#714=DIRECTION('ref_axis',(1.,0.,0.));
#715=DIRECTION('center_axis',(0.,0.,1.));
#716=DIRECTION('ref_axis',(1.,0.,0.));
#717=DIRECTION('center_axis',(0.,0.,1.));
#718=DIRECTION('ref_axis',(1.,0.,0.));
#719=DIRECTION('',(0.,0.,1.));
#720=DIRECTION('center_axis',(0.,0.,-1.));
#721=DIRECTION('ref_axis',(1.,0.,0.));
#722=DIRECTION('center_axis',(0.,0.,1.));
#723=DIRECTION('ref_axis',(1.,0.,0.));
#724=DIRECTION('center_axis',(0.,0.,1.));
#725=DIRECTION('ref_axis',(1.,0.,0.));
#726=DIRECTION('',(0.,0.,1.));
#727=DIRECTION('center_axis',(0.,0.,-1.));
#728=DIRECTION('ref_axis',(1.,0.,0.));
#729=DIRECTION('center_axis',(0.,0.,1.));
#730=DIRECTION('ref_axis',(1.,0.,0.));
#731=DIRECTION('center_axis',(0.,0.,1.));
#732=DIRECTION('ref_axis',(1.,0.,0.));
#733=DIRECTION('',(0.,0.,1.));
#734=DIRECTION('center_axis',(0.,0.,-1.));
#735=DIRECTION('ref_axis',(1.,0.,0.));
#736=DIRECTION('center_axis',(0.,0.,1.));
#737=DIRECTION('ref_axis',(1.,0.,0.));
#738=DIRECTION('center_axis',(0.,0.,1.));
#739=DIRECTION('ref_axis',(1.,0.,0.));
#740=DIRECTION('',(0.,0.,1.));
#741=DIRECTION('center_axis',(0.,0.,-1.));
#742=DIRECTION('ref_axis',(1.,0.,0.));
#743=DIRECTION('center_axis',(0.,0.,1.));
#744=DIRECTION('ref_axis',(1.,0.,0.));
#745=DIRECTION('center_axis',(0.,0.,1.));
#746=DIRECTION('ref_axis',(1.,0.,0.));
#747=DIRECTION('',(0.,0.,1.));
#748=DIRECTION('center_axis',(0.,0.,-1.));
#749=DIRECTION('ref_axis',(1.,0.,0.));
#750=DIRECTION('center_axis',(0.,0.,1.));
#751=DIRECTION('ref_axis',(1.,0.,0.));
#752=DIRECTION('center_axis',(0.,0.,1.));
#753=DIRECTION('ref_axis',(1.,0.,0.));
#754=DIRECTION('',(0.,0.,-1.));
#755=DIRECTION('center_axis',(0.,0.,-1.));
#756=DIRECTION('ref_axis',(1.,0.,0.));
#757=DIRECTION('center_axis',(0.,0.,1.));
#758=DIRECTION('ref_axis',(1.,0.,0.));
#759=DIRECTION('center_axis',(0.,0.,1.));
#760=DIRECTION('ref_axis',(1.,0.,0.));
#761=DIRECTION('center_axis',(0.,0.,1.));
#762=DIRECTION('ref_axis',(1.,0.,0.));
#763=DIRECTION('',(0.,0.,-1.));
#764=DIRECTION('center_axis',(0.,0.,-1.));
#765=DIRECTION('ref_axis',(1.,0.,0.));
#766=DIRECTION('center_axis',(0.,0.,1.));
#767=DIRECTION('ref_axis',(1.,0.,0.));
#768=DIRECTION('center_axis',(0.,0.,1.));
#769=DIRECTION('ref_axis',(1.,0.,0.));
#770=DIRECTION('center_axis',(0.,0.,1.));
#771=DIRECTION('ref_axis',(1.,0.,0.));
#772=DIRECTION('',(0.,0.,-1.));
#773=DIRECTION('center_axis',(0.,0.,-1.));
#774=DIRECTION('ref_axis',(1.,0.,0.));
#775=DIRECTION('center_axis',(0.,0.,1.));
#776=DIRECTION('ref_axis',(1.,0.,0.));
#777=DIRECTION('center_axis',(0.,0.,1.));
#778=DIRECTION('ref_axis',(1.,0.,0.));
#779=DIRECTION('center_axis',(0.,0.,1.));
#780=DIRECTION('ref_axis',(1.,0.,0.));
#781=DIRECTION('',(0.,0.,-1.));
#782=DIRECTION('center_axis',(0.,0.,-1.));
#783=DIRECTION('ref_axis',(1.,0.,0.));
#784=DIRECTION('center_axis',(0.,0.,1.));
#785=DIRECTION('ref_axis',(1.,0.,0.));
#786=DIRECTION('center_axis',(0.,0.,1.));
#787=DIRECTION('ref_axis',(1.,0.,0.));
#788=DIRECTION('center_axis',(0.,0.,1.));
#789=DIRECTION('ref_axis',(1.,0.,0.));
#790=DIRECTION('',(0.,0.,-1.));
#791=DIRECTION('center_axis',(0.,0.,-1.));
#792=DIRECTION('ref_axis',(1.,0.,0.));
#793=DIRECTION('center_axis',(0.,0.,1.));
#794=DIRECTION('ref_axis',(1.,0.,0.));
#795=DIRECTION('center_axis',(0.,0.,1.));
#796=DIRECTION('ref_axis',(1.,0.,0.));
#797=DIRECTION('center_axis',(0.,0.,1.));
#798=DIRECTION('ref_axis',(1.,0.,0.));
#799=DIRECTION('',(0.,0.,-1.));
#800=DIRECTION('center_axis',(0.,0.,-1.));
#801=DIRECTION('ref_axis',(1.,0.,0.));
#802=DIRECTION('center_axis',(0.,0.,1.));
#803=DIRECTION('ref_axis',(1.,0.,0.));
#804=DIRECTION('center_axis',(0.,0.,1.));
#805=DIRECTION('ref_axis',(1.,0.,0.));
#806=DIRECTION('center_axis',(0.,0.,1.));
#807=DIRECTION('ref_axis',(1.,0.,0.));
#808=DIRECTION('',(0.,0.,1.));
#809=DIRECTION('center_axis',(0.,0.,-1.));
#810=DIRECTION('ref_axis',(1.,0.,0.));
#811=DIRECTION('center_axis',(0.,0.,1.));
#812=DIRECTION('ref_axis',(1.,0.,0.));
#813=DIRECTION('center_axis',(0.,0.,1.));
#814=DIRECTION('ref_axis',(1.,0.,0.));
#815=DIRECTION('',(0.,0.,1.));
#816=DIRECTION('center_axis',(0.,0.,-1.));
#817=DIRECTION('ref_axis',(1.,0.,0.));
#818=DIRECTION('center_axis',(0.,0.,1.));
#819=DIRECTION('ref_axis',(1.,0.,0.));
#820=DIRECTION('center_axis',(0.,0.,1.));
#821=DIRECTION('ref_axis',(1.,0.,0.));
#822=DIRECTION('',(0.,0.,1.));
#823=DIRECTION('center_axis',(0.,0.,-1.));
#824=DIRECTION('ref_axis',(1.,0.,0.));
#825=DIRECTION('center_axis',(0.,0.,1.));
#826=DIRECTION('ref_axis',(1.,0.,0.));
#827=DIRECTION('center_axis',(0.,0.,1.));
#828=DIRECTION('ref_axis',(1.,0.,0.));
#829=DIRECTION('',(0.,0.,1.));
#830=DIRECTION('center_axis',(0.,0.,-1.));
#831=DIRECTION('ref_axis',(1.,0.,0.));
#832=DIRECTION('center_axis',(0.,0.,1.));
#833=DIRECTION('ref_axis',(1.,0.,0.));
#834=DIRECTION('center_axis',(0.,0.,1.));
#835=DIRECTION('ref_axis',(1.,0.,0.));
#836=DIRECTION('',(0.,0.,1.));
#837=DIRECTION('center_axis',(0.,0.,-1.));
#838=DIRECTION('ref_axis',(1.,0.,0.));
#839=DIRECTION('center_axis',(0.,0.,1.));
#840=DIRECTION('ref_axis',(1.,0.,0.));
#841=DIRECTION('center_axis',(0.,0.,1.));
#842=DIRECTION('ref_axis',(1.,0.,0.));
#843=DIRECTION('',(0.,0.,1.));
#844=DIRECTION('center_axis',(0.,0.,-1.));
#845=DIRECTION('ref_axis',(1.,0.,0.));
#846=DIRECTION('center_axis',(0.,0.,1.));
#847=DIRECTION('ref_axis',(1.,0.,0.));
#848=DIRECTION('',(-1.,0.,0.));
#849=DIRECTION('',(0.,-1.,0.));
#850=DIRECTION('',(1.,0.,0.));
#851=DIRECTION('center_axis',(0.,0.,1.));
#852=DIRECTION('ref_axis',(1.,0.,0.));
#853=DIRECTION('',(-1.,0.,0.));
#854=DIRECTION('',(0.,1.,0.));
#855=DIRECTION('',(1.,0.,0.));
#856=DIRECTION('center_axis',(0.,1.,0.));
#857=DIRECTION('ref_axis',(0.,0.,1.));
#858=DIRECTION('',(0.,0.,-1.));
#859=DIRECTION('center_axis',(1.,0.,0.));
#860=DIRECTION('ref_axis',(0.,0.,-1.));
#861=DIRECTION('',(0.,0.,-1.));
#862=DIRECTION('center_axis',(0.,-1.,0.));
#863=DIRECTION('ref_axis',(0.,0.,-1.));
#864=CARTESIAN_POINT('',(0.,0.,0.));
#865=CARTESIAN_POINT('Origin',(229.426147957219,20.,198.122051979467));
#866=CARTESIAN_POINT('',(230.,23.8991009196197,197.438161745865));
#867=CARTESIAN_POINT('',(230.,16.1008990803803,197.438161745865));
#868=CARTESIAN_POINT('',(230.,10.,197.438161745865));
#869=CARTESIAN_POINT('',(229.528561728174,23.9968255821123,198.));
#870=CARTESIAN_POINT('Origin',(229.426147957219,20.,198.122051979467));
#871=CARTESIAN_POINT('',(229.528561728174,16.0031744178877,198.));
#872=CARTESIAN_POINT('',(229.528561728174,10.,198.));
#873=CARTESIAN_POINT('Origin',(229.426147957219,20.,198.122051979467));
#874=CARTESIAN_POINT('Origin',(230.766725732677,20.,199.246930296418));
#875=CARTESIAN_POINT('',(230.,16.0268122150788,198.));
#876=CARTESIAN_POINT('Origin',(230.,20.,198.603571016915));
#877=CARTESIAN_POINT('Origin',(229.280692072206,20.,198.));
#878=CARTESIAN_POINT('Origin',(230.766725732677,20.,199.246930296418));
#879=CARTESIAN_POINT('',(230.,23.9731877849212,198.));
#880=CARTESIAN_POINT('Origin',(230.,20.,198.603571016915));
#881=CARTESIAN_POINT('Origin',(229.280692072206,20.,198.));
#882=CARTESIAN_POINT('Origin',(230.,0.,194.));
#883=CARTESIAN_POINT('',(230.,-44.,198.));
#884=CARTESIAN_POINT('',(230.,0.,198.));
#885=CARTESIAN_POINT('',(230.,-44.,190.));
#886=CARTESIAN_POINT('',(230.,-44.,194.));
#887=CARTESIAN_POINT('',(230.,44.,190.));
#888=CARTESIAN_POINT('',(230.,0.,190.));
#889=CARTESIAN_POINT('',(230.,44.,198.));
#890=CARTESIAN_POINT('',(230.,44.,194.));
#891=CARTESIAN_POINT('',(230.,0.,198.));
#892=CARTESIAN_POINT('Origin',(215.,-20.,196.75));
#893=CARTESIAN_POINT('',(212.75,-20.,190.));
#894=CARTESIAN_POINT('Origin',(215.,-20.,190.));
#895=CARTESIAN_POINT('',(212.75,-20.,204.));
#896=CARTESIAN_POINT('',(212.75,-20.,196.75));
#897=CARTESIAN_POINT('Origin',(215.,-20.,204.));
#898=CARTESIAN_POINT('Origin',(135.,-20.,196.75));
#899=CARTESIAN_POINT('',(132.75,-20.,190.));
#900=CARTESIAN_POINT('Origin',(135.,-20.,190.));
#901=CARTESIAN_POINT('',(132.75,-20.,204.));
#902=CARTESIAN_POINT('',(132.75,-20.,196.75));
#903=CARTESIAN_POINT('Origin',(135.,-20.,204.));
#904=CARTESIAN_POINT('Origin',(55.,-20.,196.75));
#905=CARTESIAN_POINT('',(52.75,-20.,190.));
#906=CARTESIAN_POINT('Origin',(55.,-20.,190.));
#907=CARTESIAN_POINT('',(52.75,-20.,204.));
#908=CARTESIAN_POINT('',(52.75,-20.,196.75));
#909=CARTESIAN_POINT('Origin',(55.,-20.,204.));
#910=CARTESIAN_POINT('Origin',(55.,20.,196.75));
#911=CARTESIAN_POINT('',(52.75,20.,190.));
#912=CARTESIAN_POINT('Origin',(55.,20.,190.));
#913=CARTESIAN_POINT('',(52.75,20.,204.));
#914=CARTESIAN_POINT('',(52.75,20.,196.75));
#915=CARTESIAN_POINT('Origin',(55.,20.,204.));
#916=CARTESIAN_POINT('Origin',(135.,20.,196.75));
#917=CARTESIAN_POINT('',(132.75,20.,190.));
#918=CARTESIAN_POINT('Origin',(135.,20.,190.));
#919=CARTESIAN_POINT('',(132.75,20.,204.));
#920=CARTESIAN_POINT('',(132.75,20.,196.75));
#921=CARTESIAN_POINT('Origin',(135.,20.,204.));
#922=CARTESIAN_POINT('Origin',(215.,20.,196.75));
#923=CARTESIAN_POINT('',(212.75,20.,190.));
#924=CARTESIAN_POINT('Origin',(215.,20.,190.));
#925=CARTESIAN_POINT('',(212.75,20.,204.));
#926=CARTESIAN_POINT('',(212.75,20.,196.75));
#927=CARTESIAN_POINT('Origin',(215.,20.,204.));
#928=CARTESIAN_POINT('Origin',(215.,-20.,200.75));
#929=CARTESIAN_POINT('',(210.,-20.,204.));
#930=CARTESIAN_POINT('Origin',(215.,-20.,204.));
#931=CARTESIAN_POINT('',(210.,-20.,198.));
#932=CARTESIAN_POINT('',(210.,-20.,200.75));
#933=CARTESIAN_POINT('Origin',(215.,-20.,198.));
#934=CARTESIAN_POINT('Origin',(215.,-20.,204.));
#935=CARTESIAN_POINT('Origin',(135.,-20.,200.75));
#936=CARTESIAN_POINT('',(130.,-20.,204.));
#937=CARTESIAN_POINT('Origin',(135.,-20.,204.));
#938=CARTESIAN_POINT('',(130.,-20.,198.));
#939=CARTESIAN_POINT('',(130.,-20.,200.75));
#940=CARTESIAN_POINT('Origin',(135.,-20.,198.));
#941=CARTESIAN_POINT('Origin',(135.,-20.,204.));
#942=CARTESIAN_POINT('Origin',(55.,-20.,200.75));
#943=CARTESIAN_POINT('',(50.,-20.,204.));
#944=CARTESIAN_POINT('Origin',(55.,-20.,204.));
#945=CARTESIAN_POINT('',(50.,-20.,198.));
#946=CARTESIAN_POINT('',(50.,-20.,200.75));
#947=CARTESIAN_POINT('Origin',(55.,-20.,198.));
#948=CARTESIAN_POINT('Origin',(55.,-20.,204.));
#949=CARTESIAN_POINT('Origin',(55.,20.,200.75));
#950=CARTESIAN_POINT('',(50.,20.,204.));
#951=CARTESIAN_POINT('Origin',(55.,20.,204.));
#952=CARTESIAN_POINT('',(50.,20.,198.));
#953=CARTESIAN_POINT('',(50.,20.,200.75));
#954=CARTESIAN_POINT('Origin',(55.,20.,198.));
#955=CARTESIAN_POINT('Origin',(55.,20.,204.));
#956=CARTESIAN_POINT('Origin',(135.,20.,200.75));
#957=CARTESIAN_POINT('',(130.,20.,204.));
#958=CARTESIAN_POINT('Origin',(135.,20.,204.));
#959=CARTESIAN_POINT('',(130.,20.,198.));
#960=CARTESIAN_POINT('',(130.,20.,200.75));
#961=CARTESIAN_POINT('Origin',(135.,20.,198.));
#962=CARTESIAN_POINT('Origin',(135.,20.,204.));
#963=CARTESIAN_POINT('Origin',(215.,20.,200.75));
#964=CARTESIAN_POINT('',(210.,20.,204.));
#965=CARTESIAN_POINT('Origin',(215.,20.,204.));
#966=CARTESIAN_POINT('',(210.,20.,198.));
#967=CARTESIAN_POINT('',(210.,20.,200.75));
#968=CARTESIAN_POINT('Origin',(215.,20.,198.));
#969=CARTESIAN_POINT('Origin',(215.,20.,204.));
#970=CARTESIAN_POINT('Origin',(215.,39.,194.));
#971=CARTESIAN_POINT('',(212.8,39.,190.));
#972=CARTESIAN_POINT('Origin',(215.,39.,190.));
#973=CARTESIAN_POINT('',(212.8,39.,198.));
#974=CARTESIAN_POINT('',(212.8,39.,194.));
#975=CARTESIAN_POINT('Origin',(215.,39.,198.));
#976=CARTESIAN_POINT('Origin',(215.,-39.,194.));
#977=CARTESIAN_POINT('',(212.8,-39.,190.));
#978=CARTESIAN_POINT('Origin',(215.,-39.,190.));
#979=CARTESIAN_POINT('',(212.8,-39.,198.));
#980=CARTESIAN_POINT('',(212.8,-39.,194.));
#981=CARTESIAN_POINT('Origin',(215.,-39.,198.));
#982=CARTESIAN_POINT('Origin',(135.,39.,194.));
#983=CARTESIAN_POINT('',(132.8,39.,190.));
#984=CARTESIAN_POINT('Origin',(135.,39.,190.));
#985=CARTESIAN_POINT('',(132.8,39.,198.));
#986=CARTESIAN_POINT('',(132.8,39.,194.));
#987=CARTESIAN_POINT('Origin',(135.,39.,198.));
#988=CARTESIAN_POINT('Origin',(135.,-39.,194.));
#989=CARTESIAN_POINT('',(132.8,-39.,190.));
#990=CARTESIAN_POINT('Origin',(135.,-39.,190.));
#991=CARTESIAN_POINT('',(132.8,-39.,198.));
#992=CARTESIAN_POINT('',(132.8,-39.,194.));
#993=CARTESIAN_POINT('Origin',(135.,-39.,198.));
#994=CARTESIAN_POINT('Origin',(55.,39.,194.));
#995=CARTESIAN_POINT('',(52.8,39.,190.));
#996=CARTESIAN_POINT('Origin',(55.,39.,190.));
#997=CARTESIAN_POINT('',(52.8,39.,198.));
#998=CARTESIAN_POINT('',(52.8,39.,194.));
#999=CARTESIAN_POINT('Origin',(55.,39.,198.));
#1000=CARTESIAN_POINT('Origin',(55.,-39.,194.));
#1001=CARTESIAN_POINT('',(52.8,-39.,190.));
#1002=CARTESIAN_POINT('Origin',(55.,-39.,190.));
#1003=CARTESIAN_POINT('',(52.8,-39.,198.));
#1004=CARTESIAN_POINT('',(52.8,-39.,194.));
#1005=CARTESIAN_POINT('Origin',(55.,-39.,198.));
#1006=CARTESIAN_POINT('Origin',(135.,0.,198.));
#1007=CARTESIAN_POINT('',(40.,44.,198.));
#1008=CARTESIAN_POINT('',(135.,44.,198.));
#1009=CARTESIAN_POINT('',(40.,-44.,198.));
#1010=CARTESIAN_POINT('',(40.,0.,198.));
#1011=CARTESIAN_POINT('',(135.,-44.,198.));
#1012=CARTESIAN_POINT('Origin',(135.,0.,190.));
#1013=CARTESIAN_POINT('',(40.,-44.,190.));
#1014=CARTESIAN_POINT('',(135.,-44.,190.));
#1015=CARTESIAN_POINT('',(40.,44.,190.));
#1016=CARTESIAN_POINT('',(40.,0.,190.));
#1017=CARTESIAN_POINT('',(135.,44.,190.));
#1018=CARTESIAN_POINT('Origin',(135.,-44.,194.));
#1019=CARTESIAN_POINT('',(40.,-44.,194.));
#1020=CARTESIAN_POINT('Origin',(40.,0.,194.));
#1021=CARTESIAN_POINT('',(40.,44.,194.));
#1022=CARTESIAN_POINT('Origin',(135.,44.,194.));
#1023=UNCERTAINTY_MEASURE_WITH_UNIT(LENGTH_MEASURE(0.01),#1027,
'DISTANCE_ACCURACY_VALUE',
'Maximum model space distance between geometric entities at asserted c
onnectivities');
#1024=UNCERTAINTY_MEASURE_WITH_UNIT(LENGTH_MEASURE(0.01),#1027,
'DISTANCE_ACCURACY_VALUE',
'Maximum model space distance between geometric entities at asserted c
onnectivities');
#1025=(
GEOMETRIC_REPRESENTATION_CONTEXT(3)
GLOBAL_UNCERTAINTY_ASSIGNED_CONTEXT((#1023))
GLOBAL_UNIT_ASSIGNED_CONTEXT((#1027,#1029,#1030))
REPRESENTATION_CONTEXT('','3D')
);
#1026=(
GEOMETRIC_REPRESENTATION_CONTEXT(3)
GLOBAL_UNCERTAINTY_ASSIGNED_CONTEXT((#1024))
GLOBAL_UNIT_ASSIGNED_CONTEXT((#1027,#1029,#1030))
REPRESENTATION_CONTEXT('','3D')
);
#1027=(
LENGTH_UNIT()
NAMED_UNIT(*)
SI_UNIT(.MILLI.,.METRE.)
);
#1028=(
LENGTH_UNIT()
NAMED_UNIT(*)
SI_UNIT($,.METRE.)
);
#1029=(
NAMED_UNIT(*)
PLANE_ANGLE_UNIT()
SI_UNIT($,.RADIAN.)
);
#1030=(
NAMED_UNIT(*)
SI_UNIT($,.STERADIAN.)
SOLID_ANGLE_UNIT()
);
#1031=SHAPE_DEFINITION_REPRESENTATION(#1032,#1033);
#1032=PRODUCT_DEFINITION_SHAPE('',$,#1035);
#1033=SHAPE_REPRESENTATION('',(#603),#1025);
#1034=PRODUCT_DEFINITION_CONTEXT('part definition',#1039,'design');
#1035=PRODUCT_DEFINITION('2026-09-30-14-03-45-915',
'EXPORT_TMP_PRINT_P208_UpperArmBottomCover',#1036,#1034);
#1036=PRODUCT_DEFINITION_FORMATION('',$,#1041);
#1037=PRODUCT_RELATED_PRODUCT_CATEGORY(
'EXPORT_TMP_PRINT_P208_UpperArmBottomCover',
'EXPORT_TMP_PRINT_P208_UpperArmBottomCover',(#1041));
#1038=APPLICATION_PROTOCOL_DEFINITION('international standard',
'automotive_design',2009,#1039);
#1039=APPLICATION_CONTEXT(
'Core Data for Automotive Mechanical Design Process');
#1040=PRODUCT_CONTEXT('part definition',#1039,'mechanical');
#1041=PRODUCT('2026-09-30-14-03-45-915',
'EXPORT_TMP_PRINT_P208_UpperArmBottomCover',$,(#1040));
#1042=PRESENTATION_STYLE_ASSIGNMENT((#1043));
#1043=SURFACE_STYLE_USAGE(.BOTH.,#1044);
#1044=SURFACE_SIDE_STYLE('',(#1045));
#1045=SURFACE_STYLE_FILL_AREA(#1046);
#1046=FILL_AREA_STYLE('Steel - Satin',(#1047));
#1047=FILL_AREA_STYLE_COLOUR('Steel - Satin',#1048);
#1048=COLOUR_RGB('Steel - Satin',0.627450980392157,0.627450980392157,0.627450980392157);
ENDSEC;
END-ISO-10303-21;
