ISO-10303-21;
HEADER;
/* Generated by software containing ST-Developer
 * from STEP Tools, Inc. (www.steptools.com) 
 */

FILE_DESCRIPTION(
/* description */ (''),
/* implementation_level */ '2;1');

FILE_NAME(
/* name */ 'PRINT_V010X_P03_HomeSwitchBracket_J3.step',
/* time_stamp */ '2026-08-31T16:24:19+02:00',
/* author */ (''),
/* organization */ (''),
/* preprocessor_version */ 'ST-DEVELOPER v20.1',
/* originating_system */ 'Autodesk Translation Framework v15.8.0.0',
/* authorisation */ '');

FILE_SCHEMA (('AUTOMOTIVE_DESIGN { 1 0 10303 214 3 1 1 }'));
ENDSEC;

DATA;
#10=MECHANICAL_DESIGN_GEOMETRIC_PRESENTATION_REPRESENTATION('',(#13),#424);
#11=SHAPE_REPRESENTATION_RELATIONSHIP('SRR','None',#431,#12);
#12=ADVANCED_BREP_SHAPE_REPRESENTATION('',(#14),#423);
#13=STYLED_ITEM('',(#440),#14);
#14=MANIFOLD_SOLID_BREP('Body1',#244);
#15=CYLINDRICAL_SURFACE('',#263,4.);
#16=CYLINDRICAL_SURFACE('',#274,4.);
#17=CIRCLE('',#262,4.);
#18=CIRCLE('',#264,4.);
#19=CIRCLE('',#265,4.);
#20=CIRCLE('',#266,4.);
#21=CIRCLE('',#267,4.);
#22=CIRCLE('',#272,4.);
#23=CIRCLE('',#273,4.);
#24=CIRCLE('',#275,4.);
#25=FACE_OUTER_BOUND('',#38,.T.);
#26=FACE_OUTER_BOUND('',#39,.T.);
#27=FACE_OUTER_BOUND('',#40,.T.);
#28=FACE_OUTER_BOUND('',#41,.T.);
#29=FACE_OUTER_BOUND('',#42,.T.);
#30=FACE_OUTER_BOUND('',#43,.T.);
#31=FACE_OUTER_BOUND('',#44,.T.);
#32=FACE_OUTER_BOUND('',#45,.T.);
#33=FACE_OUTER_BOUND('',#46,.T.);
#34=FACE_OUTER_BOUND('',#47,.T.);
#35=FACE_OUTER_BOUND('',#48,.T.);
#36=FACE_OUTER_BOUND('',#49,.T.);
#37=FACE_OUTER_BOUND('',#50,.T.);
#38=EDGE_LOOP('',(#154,#155,#156,#157));
#39=EDGE_LOOP('',(#158,#159));
#40=EDGE_LOOP('',(#160,#161,#162,#163,#164,#165,#166,#167));
#41=EDGE_LOOP('',(#168,#169));
#42=EDGE_LOOP('',(#170));
#43=EDGE_LOOP('',(#171,#172,#173,#174,#175,#176,#177,#178));
#44=EDGE_LOOP('',(#179,#180,#181,#182));
#45=EDGE_LOOP('',(#183,#184,#185,#186,#187,#188,#189,#190));
#46=EDGE_LOOP('',(#191,#192,#193,#194,#195,#196,#197,#198,#199));
#47=EDGE_LOOP('',(#200,#201,#202,#203));
#48=EDGE_LOOP('',(#204,#205,#206,#207));
#49=EDGE_LOOP('',(#208,#209,#210,#211,#212,#213,#214,#215));
#50=EDGE_LOOP('',(#216,#217,#218,#219));
#51=ELLIPSE('',#259,5.22162915732917,4.);
#52=ELLIPSE('',#260,5.22162915732917,4.);
#53=LINE('',#356,#76);
#54=LINE('',#360,#77);
#55=LINE('',#368,#78);
#56=LINE('',#372,#79);
#57=LINE('',#376,#80);
#58=LINE('',#379,#81);
#59=LINE('',#383,#82);
#60=LINE('',#385,#83);
#61=LINE('',#387,#84);
#62=LINE('',#389,#85);
#63=LINE('',#390,#86);
#64=LINE('',#395,#87);
#65=LINE('',#399,#88);
#66=LINE('',#402,#89);
#67=LINE('',#405,#90);
#68=LINE('',#406,#91);
#69=LINE('',#408,#92);
#70=LINE('',#409,#93);
#71=LINE('',#412,#94);
#72=LINE('',#413,#95);
#73=LINE('',#416,#96);
#74=LINE('',#417,#97);
#75=LINE('',#419,#98);
#76=VECTOR('',#285,10.);
#77=VECTOR('',#288,10.);
#78=VECTOR('',#299,4.);
#79=VECTOR('',#302,10.);
#80=VECTOR('',#305,10.);
#81=VECTOR('',#310,10.);
#82=VECTOR('',#315,10.);
#83=VECTOR('',#316,10.);
#84=VECTOR('',#317,10.);
#85=VECTOR('',#318,10.);
#86=VECTOR('',#319,10.);
#87=VECTOR('',#324,10.);
#88=VECTOR('',#329,10.);
#89=VECTOR('',#332,10.);
#90=VECTOR('',#335,10.);
#91=VECTOR('',#336,10.);
#92=VECTOR('',#337,10.);
#93=VECTOR('',#338,10.);
#94=VECTOR('',#341,10.);
#95=VECTOR('',#342,10.);
#96=VECTOR('',#345,10.);
#97=VECTOR('',#346,10.);
#98=VECTOR('',#349,10.);
#99=VERTEX_POINT('',#354);
#100=VERTEX_POINT('',#355);
#101=VERTEX_POINT('',#357);
#102=VERTEX_POINT('',#359);
#103=VERTEX_POINT('',#365);
#104=VERTEX_POINT('',#367);
#105=VERTEX_POINT('',#369);
#106=VERTEX_POINT('',#371);
#107=VERTEX_POINT('',#373);
#108=VERTEX_POINT('',#375);
#109=VERTEX_POINT('',#382);
#110=VERTEX_POINT('',#384);
#111=VERTEX_POINT('',#386);
#112=VERTEX_POINT('',#388);
#113=VERTEX_POINT('',#392);
#114=VERTEX_POINT('',#394);
#115=VERTEX_POINT('',#398);
#116=VERTEX_POINT('',#400);
#117=VERTEX_POINT('',#404);
#118=VERTEX_POINT('',#407);
#119=VERTEX_POINT('',#411);
#120=VERTEX_POINT('',#415);
#121=EDGE_CURVE('',#99,#100,#53,.T.);
#122=EDGE_CURVE('',#101,#99,#51,.T.);
#123=EDGE_CURVE('',#102,#101,#54,.T.);
#124=EDGE_CURVE('',#100,#102,#52,.T.);
#125=EDGE_CURVE('',#101,#102,#17,.T.);
#126=EDGE_CURVE('',#103,#103,#18,.T.);
#127=EDGE_CURVE('',#103,#104,#55,.T.);
#128=EDGE_CURVE('',#105,#104,#19,.T.);
#129=EDGE_CURVE('',#106,#105,#56,.T.);
#130=EDGE_CURVE('',#107,#106,#20,.T.);
#131=EDGE_CURVE('',#108,#107,#57,.T.);
#132=EDGE_CURVE('',#104,#108,#21,.T.);
#133=EDGE_CURVE('',#107,#106,#58,.T.);
#134=EDGE_CURVE('',#105,#109,#59,.T.);
#135=EDGE_CURVE('',#110,#109,#60,.T.);
#136=EDGE_CURVE('',#111,#110,#61,.T.);
#137=EDGE_CURVE('',#112,#111,#62,.T.);
#138=EDGE_CURVE('',#112,#108,#63,.T.);
#139=EDGE_CURVE('',#100,#113,#22,.T.);
#140=EDGE_CURVE('',#114,#113,#64,.T.);
#141=EDGE_CURVE('',#114,#99,#23,.T.);
#142=EDGE_CURVE('',#115,#114,#65,.T.);
#143=EDGE_CURVE('',#116,#115,#24,.T.);
#144=EDGE_CURVE('',#113,#116,#66,.T.);
#145=EDGE_CURVE('',#117,#112,#67,.T.);
#146=EDGE_CURVE('',#117,#116,#68,.T.);
#147=EDGE_CURVE('',#115,#118,#69,.T.);
#148=EDGE_CURVE('',#109,#118,#70,.T.);
#149=EDGE_CURVE('',#111,#119,#71,.T.);
#150=EDGE_CURVE('',#119,#117,#72,.T.);
#151=EDGE_CURVE('',#118,#120,#73,.T.);
#152=EDGE_CURVE('',#120,#110,#74,.T.);
#153=EDGE_CURVE('',#119,#120,#75,.T.);
#154=ORIENTED_EDGE('',*,*,#121,.F.);
#155=ORIENTED_EDGE('',*,*,#122,.F.);
#156=ORIENTED_EDGE('',*,*,#123,.F.);
#157=ORIENTED_EDGE('',*,*,#124,.F.);
#158=ORIENTED_EDGE('',*,*,#123,.T.);
#159=ORIENTED_EDGE('',*,*,#125,.T.);
#160=ORIENTED_EDGE('',*,*,#126,.F.);
#161=ORIENTED_EDGE('',*,*,#127,.T.);
#162=ORIENTED_EDGE('',*,*,#128,.F.);
#163=ORIENTED_EDGE('',*,*,#129,.F.);
#164=ORIENTED_EDGE('',*,*,#130,.F.);
#165=ORIENTED_EDGE('',*,*,#131,.F.);
#166=ORIENTED_EDGE('',*,*,#132,.F.);
#167=ORIENTED_EDGE('',*,*,#127,.F.);
#168=ORIENTED_EDGE('',*,*,#133,.F.);
#169=ORIENTED_EDGE('',*,*,#130,.T.);
#170=ORIENTED_EDGE('',*,*,#126,.T.);
#171=ORIENTED_EDGE('',*,*,#131,.T.);
#172=ORIENTED_EDGE('',*,*,#133,.T.);
#173=ORIENTED_EDGE('',*,*,#129,.T.);
#174=ORIENTED_EDGE('',*,*,#134,.T.);
#175=ORIENTED_EDGE('',*,*,#135,.F.);
#176=ORIENTED_EDGE('',*,*,#136,.F.);
#177=ORIENTED_EDGE('',*,*,#137,.F.);
#178=ORIENTED_EDGE('',*,*,#138,.T.);
#179=ORIENTED_EDGE('',*,*,#121,.T.);
#180=ORIENTED_EDGE('',*,*,#139,.T.);
#181=ORIENTED_EDGE('',*,*,#140,.F.);
#182=ORIENTED_EDGE('',*,*,#141,.T.);
#183=ORIENTED_EDGE('',*,*,#124,.T.);
#184=ORIENTED_EDGE('',*,*,#125,.F.);
#185=ORIENTED_EDGE('',*,*,#122,.T.);
#186=ORIENTED_EDGE('',*,*,#141,.F.);
#187=ORIENTED_EDGE('',*,*,#142,.F.);
#188=ORIENTED_EDGE('',*,*,#143,.F.);
#189=ORIENTED_EDGE('',*,*,#144,.F.);
#190=ORIENTED_EDGE('',*,*,#139,.F.);
#191=ORIENTED_EDGE('',*,*,#128,.T.);
#192=ORIENTED_EDGE('',*,*,#132,.T.);
#193=ORIENTED_EDGE('',*,*,#138,.F.);
#194=ORIENTED_EDGE('',*,*,#145,.F.);
#195=ORIENTED_EDGE('',*,*,#146,.T.);
#196=ORIENTED_EDGE('',*,*,#143,.T.);
#197=ORIENTED_EDGE('',*,*,#147,.T.);
#198=ORIENTED_EDGE('',*,*,#148,.F.);
#199=ORIENTED_EDGE('',*,*,#134,.F.);
#200=ORIENTED_EDGE('',*,*,#145,.T.);
#201=ORIENTED_EDGE('',*,*,#137,.T.);
#202=ORIENTED_EDGE('',*,*,#149,.T.);
#203=ORIENTED_EDGE('',*,*,#150,.T.);
#204=ORIENTED_EDGE('',*,*,#148,.T.);
#205=ORIENTED_EDGE('',*,*,#151,.T.);
#206=ORIENTED_EDGE('',*,*,#152,.T.);
#207=ORIENTED_EDGE('',*,*,#135,.T.);
#208=ORIENTED_EDGE('',*,*,#144,.T.);
#209=ORIENTED_EDGE('',*,*,#146,.F.);
#210=ORIENTED_EDGE('',*,*,#150,.F.);
#211=ORIENTED_EDGE('',*,*,#153,.T.);
#212=ORIENTED_EDGE('',*,*,#151,.F.);
#213=ORIENTED_EDGE('',*,*,#147,.F.);
#214=ORIENTED_EDGE('',*,*,#142,.T.);
#215=ORIENTED_EDGE('',*,*,#140,.T.);
#216=ORIENTED_EDGE('',*,*,#136,.T.);
#217=ORIENTED_EDGE('',*,*,#152,.F.);
#218=ORIENTED_EDGE('',*,*,#153,.F.);
#219=ORIENTED_EDGE('',*,*,#149,.F.);
#220=PLANE('',#258);
#221=PLANE('',#261);
#222=PLANE('',#268);
#223=PLANE('',#269);
#224=PLANE('',#270);
#225=PLANE('',#271);
#226=PLANE('',#276);
#227=PLANE('',#277);
#228=PLANE('',#278);
#229=PLANE('',#279);
#230=PLANE('',#280);
#231=ADVANCED_FACE('',(#25),#220,.T.);
#232=ADVANCED_FACE('',(#26),#221,.T.);
#233=ADVANCED_FACE('',(#27),#15,.T.);
#234=ADVANCED_FACE('',(#28),#222,.T.);
#235=ADVANCED_FACE('',(#29),#223,.T.);
#236=ADVANCED_FACE('',(#30),#224,.F.);
#237=ADVANCED_FACE('',(#31),#225,.T.);
#238=ADVANCED_FACE('',(#32),#16,.T.);
#239=ADVANCED_FACE('',(#33),#226,.F.);
#240=ADVANCED_FACE('',(#34),#227,.T.);
#241=ADVANCED_FACE('',(#35),#228,.F.);
#242=ADVANCED_FACE('',(#36),#229,.F.);
#243=ADVANCED_FACE('',(#37),#230,.F.);
#244=CLOSED_SHELL('',(#231,#232,#233,#234,#235,#236,#237,#238,#239,#240,
#241,#242,#243));
#245=DERIVED_UNIT_ELEMENT(#247,1.);
#246=DERIVED_UNIT_ELEMENT(#426,-3.);
#247=(
MASS_UNIT()
NAMED_UNIT(*)
SI_UNIT(.KILO.,.GRAM.)
);
#248=DERIVED_UNIT((#245,#246));
#249=MEASURE_REPRESENTATION_ITEM('density measure',
POSITIVE_RATIO_MEASURE(7850.),#248);
#250=PROPERTY_DEFINITION_REPRESENTATION(#255,#252);
#251=PROPERTY_DEFINITION_REPRESENTATION(#256,#253);
#252=REPRESENTATION('material name',(#254),#423);
#253=REPRESENTATION('density',(#249),#423);
#254=DESCRIPTIVE_REPRESENTATION_ITEM('Steel','Steel');
#255=PROPERTY_DEFINITION('material property','material name',#433);
#256=PROPERTY_DEFINITION('material property','density of part',#433);
#257=AXIS2_PLACEMENT_3D('',#352,#281,#282);
#258=AXIS2_PLACEMENT_3D('',#353,#283,#284);
#259=AXIS2_PLACEMENT_3D('',#358,#286,#287);
#260=AXIS2_PLACEMENT_3D('',#361,#289,#290);
#261=AXIS2_PLACEMENT_3D('',#362,#291,#292);
#262=AXIS2_PLACEMENT_3D('',#363,#293,#294);
#263=AXIS2_PLACEMENT_3D('',#364,#295,#296);
#264=AXIS2_PLACEMENT_3D('',#366,#297,#298);
#265=AXIS2_PLACEMENT_3D('',#370,#300,#301);
#266=AXIS2_PLACEMENT_3D('',#374,#303,#304);
#267=AXIS2_PLACEMENT_3D('',#377,#306,#307);
#268=AXIS2_PLACEMENT_3D('',#378,#308,#309);
#269=AXIS2_PLACEMENT_3D('',#380,#311,#312);
#270=AXIS2_PLACEMENT_3D('',#381,#313,#314);
#271=AXIS2_PLACEMENT_3D('',#391,#320,#321);
#272=AXIS2_PLACEMENT_3D('',#393,#322,#323);
#273=AXIS2_PLACEMENT_3D('',#396,#325,#326);
#274=AXIS2_PLACEMENT_3D('',#397,#327,#328);
#275=AXIS2_PLACEMENT_3D('',#401,#330,#331);
#276=AXIS2_PLACEMENT_3D('',#403,#333,#334);
#277=AXIS2_PLACEMENT_3D('',#410,#339,#340);
#278=AXIS2_PLACEMENT_3D('',#414,#343,#344);
#279=AXIS2_PLACEMENT_3D('',#418,#347,#348);
#280=AXIS2_PLACEMENT_3D('',#420,#350,#351);
#281=DIRECTION('axis',(0.,0.,1.));
#282=DIRECTION('refdir',(1.,0.,0.));
#283=DIRECTION('center_axis',(-1.,0.,0.));
#284=DIRECTION('ref_axis',(0.,0.,1.));
#285=DIRECTION('',(0.,-1.,0.));
#286=DIRECTION('center_axis',(1.,0.,0.));
#287=DIRECTION('ref_axis',(0.,0.,-1.));
#288=DIRECTION('',(0.,1.,0.));
#289=DIRECTION('center_axis',(1.,0.,0.));
#290=DIRECTION('ref_axis',(0.,0.,-1.));
#291=DIRECTION('center_axis',(-0.76604444311897,0.,-0.642787609686549));
#292=DIRECTION('ref_axis',(0.642787609686549,0.,-0.76604444311897));
#293=DIRECTION('center_axis',(-0.76604444311897,0.,-0.642787609686549));
#294=DIRECTION('ref_axis',(0.642787609686549,0.,-0.76604444311897));
#295=DIRECTION('center_axis',(-0.766044443118984,0.,-0.642787609686532));
#296=DIRECTION('ref_axis',(0.642787609686532,0.,-0.766044443118984));
#297=DIRECTION('center_axis',(-0.766044443118984,0.,-0.642787609686532));
#298=DIRECTION('ref_axis',(0.642787609686532,0.,-0.766044443118984));
#299=DIRECTION('',(0.766044443118984,0.,0.642787609686532));
#300=DIRECTION('center_axis',(0.766044443118978,0.,0.642787609686539));
#301=DIRECTION('ref_axis',(0.642787609686532,0.,-0.766044443118984));
#302=DIRECTION('',(-0.766044443118984,0.,-0.642787609686532));
#303=DIRECTION('center_axis',(0.766044443118984,0.,0.642787609686532));
#304=DIRECTION('ref_axis',(0.642787609686532,0.,-0.766044443118984));
#305=DIRECTION('',(0.766044443118984,0.,0.642787609686532));
#306=DIRECTION('center_axis',(0.766044443118978,0.,0.642787609686539));
#307=DIRECTION('ref_axis',(0.642787609686532,0.,-0.766044443118984));
#308=DIRECTION('center_axis',(0.766044443118984,0.,0.642787609686532));
#309=DIRECTION('ref_axis',(-0.642787609686532,0.,0.766044443118984));
#310=DIRECTION('',(0.,1.,0.));
#311=DIRECTION('center_axis',(-0.766044443118984,0.,-0.642787609686532));
#312=DIRECTION('ref_axis',(0.642787609686532,0.,-0.766044443118984));
#313=DIRECTION('center_axis',(-0.642787609686539,0.,0.766044443118978));
#314=DIRECTION('ref_axis',(0.,1.,0.));
#315=DIRECTION('',(0.,1.,0.));
#316=DIRECTION('',(-0.766044443118978,0.,-0.642787609686539));
#317=DIRECTION('',(0.,1.,0.));
#318=DIRECTION('',(0.766044443118978,0.,0.642787609686539));
#319=DIRECTION('',(0.,1.,0.));
#320=DIRECTION('center_axis',(0.76604444311897,0.,0.642787609686549));
#321=DIRECTION('ref_axis',(-0.642787609686549,0.,0.76604444311897));
#322=DIRECTION('center_axis',(0.76604444311897,0.,0.642787609686549));
#323=DIRECTION('ref_axis',(0.642787609686549,0.,-0.76604444311897));
#324=DIRECTION('',(0.,-1.,0.));
#325=DIRECTION('center_axis',(0.76604444311897,0.,0.642787609686549));
#326=DIRECTION('ref_axis',(0.642787609686549,0.,-0.76604444311897));
#327=DIRECTION('center_axis',(-0.76604444311897,0.,-0.642787609686549));
#328=DIRECTION('ref_axis',(0.642787609686549,0.,-0.76604444311897));
#329=DIRECTION('',(0.76604444311897,0.,0.642787609686549));
#330=DIRECTION('center_axis',(0.766044443118978,0.,0.642787609686539));
#331=DIRECTION('ref_axis',(0.642787609686549,0.,-0.76604444311897));
#332=DIRECTION('',(-0.76604444311897,0.,-0.642787609686549));
#333=DIRECTION('center_axis',(0.766044443118978,0.,0.642787609686539));
#334=DIRECTION('ref_axis',(0.,-1.,0.));
#335=DIRECTION('',(0.642787609686539,0.,-0.766044443118978));
#336=DIRECTION('',(0.,1.,0.));
#337=DIRECTION('',(0.,1.,0.));
#338=DIRECTION('',(-0.642787609686539,0.,0.766044443118978));
#339=DIRECTION('center_axis',(0.,-1.,0.));
#340=DIRECTION('ref_axis',(-0.766044443118978,0.,-0.642787609686539));
#341=DIRECTION('',(-0.642787609686539,0.,0.766044443118978));
#342=DIRECTION('',(-0.766044443118978,0.,-0.642787609686539));
#343=DIRECTION('center_axis',(0.,-1.,0.));
#344=DIRECTION('ref_axis',(-0.766044443118978,0.,-0.642787609686539));
#345=DIRECTION('',(0.766044443118978,0.,0.642787609686539));
#346=DIRECTION('',(0.642787609686539,0.,-0.766044443118978));
#347=DIRECTION('center_axis',(0.642787609686539,0.,-0.766044443118978));
#348=DIRECTION('ref_axis',(0.,-1.,0.));
#349=DIRECTION('',(0.,1.,0.));
#350=DIRECTION('center_axis',(-0.766044443118978,0.,-0.642787609686539));
#351=DIRECTION('ref_axis',(0.,1.,0.));
#352=CARTESIAN_POINT('',(0.,0.,0.));
#353=CARTESIAN_POINT('Origin',(223.,0.,240.));
#354=CARTESIAN_POINT('',(223.,23.3612242781352,211.225470288035));
#355=CARTESIAN_POINT('',(223.,16.6387757218648,211.225470288035));
#356=CARTESIAN_POINT('',(223.,10.,211.225470288035));
#357=CARTESIAN_POINT('',(223.,23.9818308772628,208.891884547745));
#358=CARTESIAN_POINT('Origin',(223.,20.,208.394761070662));
#359=CARTESIAN_POINT('',(223.,16.0181691227372,208.891884547745));
#360=CARTESIAN_POINT('',(223.,10.,208.891884547745));
#361=CARTESIAN_POINT('Origin',(223.,20.,208.394761070662));
#362=CARTESIAN_POINT('Origin',(223.244785527218,20.,208.600160516268));
#363=CARTESIAN_POINT('Origin',(223.244785527218,20.,208.600160516268));
#364=CARTESIAN_POINT('Origin',(230.766725732677,20.,199.246930296418));
#365=CARTESIAN_POINT('',(226.854997518472,20.,201.186229751943));
#366=CARTESIAN_POINT('Origin',(229.426147957219,20.,198.122051979467));
#367=CARTESIAN_POINT('',(229.153130847829,20.,203.114592581002));
#368=CARTESIAN_POINT('',(228.195575293931,20.,202.311108068894));
#369=CARTESIAN_POINT('',(232.688462701105,23.7080992435478,198.901348143848));
#370=CARTESIAN_POINT('Origin',(231.724281286575,20.,200.050414808526));
#371=CARTESIAN_POINT('',(233.071484922665,23.7080992435478,199.222741948691));
#372=CARTESIAN_POINT('',(231.730907147206,23.7080992435478,198.09786363174));
#373=CARTESIAN_POINT('',(233.071484922665,16.2919007564522,199.222741948691));
#374=CARTESIAN_POINT('Origin',(232.107303508135,20.,200.37180861337));
#375=CARTESIAN_POINT('',(232.688462701105,16.2919007564522,198.901348143848));
#376=CARTESIAN_POINT('',(231.730907147206,16.2919007564522,198.09786363174));
#377=CARTESIAN_POINT('Origin',(231.724281286575,20.,200.050414808526));
#378=CARTESIAN_POINT('Origin',(232.107303508135,20.,200.37180861337));
#379=CARTESIAN_POINT('',(233.071484922665,20.,199.222741948691));
#380=CARTESIAN_POINT('Origin',(229.426147957219,20.,198.122051979467));
#381=CARTESIAN_POINT('Origin',(234.795084919682,20.,200.669014070486));
#382=CARTESIAN_POINT('',(232.688462701105,24.5,198.901348143848));
#383=CARTESIAN_POINT('',(232.688462701105,20.,198.901348143848));
#384=CARTESIAN_POINT('',(236.90170713826,24.5,202.436679997124));
#385=CARTESIAN_POINT('',(234.795084919682,24.5,200.669014070486));
#386=CARTESIAN_POINT('',(236.90170713826,15.5,202.436679997124));
#387=CARTESIAN_POINT('',(236.90170713826,20.,202.436679997124));
#388=CARTESIAN_POINT('',(232.688462701105,15.5,198.901348143848));
#389=CARTESIAN_POINT('',(234.795084919682,15.5,200.669014070486));
#390=CARTESIAN_POINT('',(232.688462701105,20.,198.901348143848));
#391=CARTESIAN_POINT('Origin',(224.393852191896,20.,209.564341930798));
#392=CARTESIAN_POINT('',(223.429670777367,16.2919007564522,210.713408595476));
#393=CARTESIAN_POINT('Origin',(224.393852191896,20.,209.564341930798));
#394=CARTESIAN_POINT('',(223.429670777367,23.7080992435478,210.713408595476));
#395=CARTESIAN_POINT('',(223.429670777367,20.,210.713408595476));
#396=CARTESIAN_POINT('Origin',(224.393852191896,20.,209.564341930798));
#397=CARTESIAN_POINT('Origin',(223.819318859557,20.,209.082251223533));
#398=CARTESIAN_POINT('',(223.046648555807,23.7080992435478,210.392014790633));
#399=CARTESIAN_POINT('',(222.855137445027,23.7080992435478,210.231317888211));
#400=CARTESIAN_POINT('',(223.046648555807,16.2919007564522,210.392014790633));
#401=CARTESIAN_POINT('Origin',(224.010829970337,20.,209.242948125954));
#402=CARTESIAN_POINT('',(222.855137445027,16.2919007564522,210.231317888211));
#403=CARTESIAN_POINT('Origin',(227.867555628456,20.,204.64668146724));
#404=CARTESIAN_POINT('',(223.046648555807,15.5,210.392014790633));
#405=CARTESIAN_POINT('',(227.867555628456,15.5,204.64668146724));
#406=CARTESIAN_POINT('',(223.046648555807,20.,210.392014790633));
#407=CARTESIAN_POINT('',(223.046648555807,24.5,210.392014790633));
#408=CARTESIAN_POINT('',(223.046648555807,20.,210.392014790633));
#409=CARTESIAN_POINT('',(227.867555628456,24.5,204.64668146724));
#410=CARTESIAN_POINT('Origin',(229.974177847033,15.5,206.414347393878));
#411=CARTESIAN_POINT('',(227.259892992962,15.5,213.927346643909));
#412=CARTESIAN_POINT('',(232.080800065611,15.5,208.182013320516));
#413=CARTESIAN_POINT('',(225.153270774384,15.5,212.159680717271));
#414=CARTESIAN_POINT('Origin',(229.974177847033,24.5,206.414347393878));
#415=CARTESIAN_POINT('',(227.259892992962,24.5,213.927346643909));
#416=CARTESIAN_POINT('',(225.153270774384,24.5,212.159680717271));
#417=CARTESIAN_POINT('',(232.080800065611,24.5,208.182013320516));
#418=CARTESIAN_POINT('Origin',(225.153270774384,20.,212.159680717271));
#419=CARTESIAN_POINT('',(227.259892992962,20.,213.927346643909));
#420=CARTESIAN_POINT('Origin',(232.080800065611,20.,208.182013320516));
#421=UNCERTAINTY_MEASURE_WITH_UNIT(LENGTH_MEASURE(0.01),#425,
'DISTANCE_ACCURACY_VALUE',
'Maximum model space distance between geometric entities at asserted c
onnectivities');
#422=UNCERTAINTY_MEASURE_WITH_UNIT(LENGTH_MEASURE(0.01),#425,
'DISTANCE_ACCURACY_VALUE',
'Maximum model space distance between geometric entities at asserted c
onnectivities');
#423=(
GEOMETRIC_REPRESENTATION_CONTEXT(3)
GLOBAL_UNCERTAINTY_ASSIGNED_CONTEXT((#421))
GLOBAL_UNIT_ASSIGNED_CONTEXT((#425,#427,#428))
REPRESENTATION_CONTEXT('','3D')
);
#424=(
GEOMETRIC_REPRESENTATION_CONTEXT(3)
GLOBAL_UNCERTAINTY_ASSIGNED_CONTEXT((#422))
GLOBAL_UNIT_ASSIGNED_CONTEXT((#425,#427,#428))
REPRESENTATION_CONTEXT('','3D')
);
#425=(
LENGTH_UNIT()
NAMED_UNIT(*)
SI_UNIT(.MILLI.,.METRE.)
);
#426=(
LENGTH_UNIT()
NAMED_UNIT(*)
SI_UNIT($,.METRE.)
);
#427=(
NAMED_UNIT(*)
PLANE_ANGLE_UNIT()
SI_UNIT($,.RADIAN.)
);
#428=(
NAMED_UNIT(*)
SI_UNIT($,.STERADIAN.)
SOLID_ANGLE_UNIT()
);
#429=SHAPE_DEFINITION_REPRESENTATION(#430,#431);
#430=PRODUCT_DEFINITION_SHAPE('',$,#433);
#431=SHAPE_REPRESENTATION('',(#257),#423);
#432=PRODUCT_DEFINITION_CONTEXT('part definition',#437,'design');
#433=PRODUCT_DEFINITION('2026-08-31-16-24-19-682','EXPORT_TMP',#434,#432);
#434=PRODUCT_DEFINITION_FORMATION('',$,#439);
#435=PRODUCT_RELATED_PRODUCT_CATEGORY('EXPORT_TMP','EXPORT_TMP',(#439));
#436=APPLICATION_PROTOCOL_DEFINITION('international standard',
'automotive_design',2009,#437);
#437=APPLICATION_CONTEXT(
'Core Data for Automotive Mechanical Design Process');
#438=PRODUCT_CONTEXT('part definition',#437,'mechanical');
#439=PRODUCT('2026-08-31-16-24-19-682','EXPORT_TMP',$,(#438));
#440=PRESENTATION_STYLE_ASSIGNMENT((#441));
#441=SURFACE_STYLE_USAGE(.BOTH.,#442);
#442=SURFACE_SIDE_STYLE('',(#443));
#443=SURFACE_STYLE_FILL_AREA(#444);
#444=FILL_AREA_STYLE('Steel - Satin',(#445));
#445=FILL_AREA_STYLE_COLOUR('Steel - Satin',#446);
#446=COLOUR_RGB('Steel - Satin',0.627450980392157,0.627450980392157,0.627450980392157);
ENDSEC;
END-ISO-10303-21;
