ISO-10303-21;
HEADER;
/* Generated by software containing ST-Developer
 * from STEP Tools, Inc. (www.steptools.com) 
 */

FILE_DESCRIPTION(
/* description */ (''),
/* implementation_level */ '2;1');

FILE_NAME(
/* name */ 'PRINT_V010J_P301_J3_Dual6807JournalHub.step',
/* time_stamp */ '2026-08-31T16:24:08+02:00',
/* author */ (''),
/* organization */ (''),
/* preprocessor_version */ 'ST-DEVELOPER v20.1',
/* originating_system */ 'Autodesk Translation Framework v15.8.0.0',
/* authorisation */ '');

FILE_SCHEMA (('AUTOMOTIVE_DESIGN { 1 0 10303 214 3 1 1 }'));
ENDSEC;

DATA;
#10=MECHANICAL_DESIGN_GEOMETRIC_PRESENTATION_REPRESENTATION('',(#13),#1492);
#11=SHAPE_REPRESENTATION_RELATIONSHIP('SRR','None',#1499,#12);
#12=ADVANCED_BREP_SHAPE_REPRESENTATION('',(#784),#1491);
#13=STYLED_ITEM('',(#1508),#784);
#14=ORIENTED_CLOSED_SHELL('',*,#783,.F.);
#15=B_SPLINE_CURVE_WITH_KNOTS('',3,(#1272,#1273,#1274,#1275,#1276,#1277,
#1278,#1279,#1280,#1281,#1282,#1283,#1284,#1285,#1286,#1287,#1288,#1289,
#1290,#1291,#1292,#1293,#1294,#1295,#1296,#1297,#1298,#1299,#1300,#1301,
#1302,#1303,#1304,#1305),.UNSPECIFIED.,.T.,.F.,(4,2,2,2,2,2,2,2,2,2,2,2,
2,2,2,2,4),(0.,0.081076979017318,0.162153958034636,0.243230290554285,0.324306623073935,
0.405382955593585,0.486459288113234,0.567536267130552,0.64861324614787,
0.729690225165188,0.810767204182506,0.891843536702155,0.972919869221805,
1.05399620174145,1.1350725342611,1.21614951327842,1.29722649229574),
 .UNSPECIFIED.);
#16=B_SPLINE_CURVE_WITH_KNOTS('',3,(#1309,#1310,#1311,#1312,#1313,#1314,
#1315,#1316,#1317,#1318,#1319,#1320,#1321,#1322,#1323,#1324,#1325,#1326,
#1327,#1328,#1329,#1330),.UNSPECIFIED.,.F.,.F.,(4,2,2,2,2,2,2,2,2,2,4),
(-0.75211881651588,-0.733756684864851,-0.652217575680288,-0.570678466495725,
-0.489139357311161,-0.407624072575653,-0.326108787840144,-0.244593503104635,
-0.163078218369126,-0.0815391091845632,0.),.UNSPECIFIED.);
#17=B_SPLINE_CURVE_WITH_KNOTS('',3,(#1334,#1335,#1336,#1337,#1338,#1339,
#1340,#1341,#1342,#1343,#1344,#1345,#1346,#1347),.UNSPECIFIED.,.F.,.F.,
(4,2,2,2,2,2,4),(0.0998876008123211,0.163046196472899,0.244546807969829,
0.326047419466759,0.407548030963689,0.489048642460619,0.552207238121193),
 .UNSPECIFIED.);
#18=B_SPLINE_CURVE_WITH_KNOTS('',3,(#1350,#1351,#1352,#1353,#1354,#1355),
 .UNSPECIFIED.,.F.,.F.,(4,2,4),(0.,0.0815391091845632,0.0999012408355899),
 .UNSPECIFIED.);
#19=B_SPLINE_CURVE_WITH_KNOTS('',3,(#1358,#1359,#1360,#1361,#1362,#1363,
#1364,#1365,#1366,#1367,#1368,#1369,#1370,#1371,#1372,#1373,#1374,#1375,
#1376,#1377,#1378,#1379,#1380,#1381,#1382,#1383,#1384,#1385,#1386,#1387,
#1388,#1389,#1390,#1391),.UNSPECIFIED.,.T.,.F.,(4,2,2,2,2,2,2,2,2,2,2,2,
2,2,2,2,4),(0.,0.081076979017318,0.162153958034636,0.243230290554285,0.324306623073935,
0.405382955593585,0.486459288113234,0.567536267130552,0.64861324614787,
0.729690225165188,0.810767204182506,0.891843536702155,0.972919869221805,
1.05399620174145,1.1350725342611,1.21614951327842,1.29722649229574),
 .UNSPECIFIED.);
#20=B_SPLINE_CURVE_WITH_KNOTS('',3,(#1394,#1395,#1396,#1397,#1398,#1399,
#1400,#1401,#1402,#1403,#1404,#1405,#1406,#1407,#1408,#1409,#1410,#1411,
#1412,#1413,#1414,#1415,#1416,#1417,#1418,#1419,#1420,#1421,#1422,#1423,
#1424,#1425,#1426,#1427),.UNSPECIFIED.,.T.,.F.,(4,2,2,2,2,2,2,2,2,2,2,2,
2,2,2,2,4),(0.,0.0815230982364495,0.163046196472899,0.244546807969829,0.326047419466759,
0.407548030963689,0.489048642460619,0.570571740697068,0.652094838933518,
0.733617937169967,0.815141035406417,0.896641646903346,0.978142258400276,
1.05964286989721,1.14114348139414,1.22266657963059,1.30418967786704),
 .UNSPECIFIED.);
#21=FACE_BOUND('',#128,.T.);
#22=FACE_BOUND('',#131,.T.);
#23=FACE_BOUND('',#133,.T.);
#24=FACE_BOUND('',#134,.T.);
#25=FACE_BOUND('',#135,.T.);
#26=FACE_BOUND('',#136,.T.);
#27=FACE_BOUND('',#137,.T.);
#28=FACE_BOUND('',#138,.T.);
#29=FACE_BOUND('',#139,.T.);
#30=FACE_BOUND('',#141,.T.);
#31=FACE_BOUND('',#142,.T.);
#32=FACE_BOUND('',#143,.T.);
#33=FACE_BOUND('',#144,.T.);
#34=FACE_BOUND('',#145,.T.);
#35=FACE_BOUND('',#146,.T.);
#36=FACE_BOUND('',#147,.T.);
#37=FACE_BOUND('',#148,.T.);
#38=FACE_BOUND('',#172,.T.);
#39=FACE_BOUND('',#175,.T.);
#40=FACE_BOUND('',#177,.T.);
#41=FACE_BOUND('',#179,.T.);
#42=FACE_BOUND('',#180,.T.);
#43=FACE_BOUND('',#182,.T.);
#44=FACE_BOUND('',#183,.T.);
#45=FACE_BOUND('',#184,.T.);
#46=FACE_BOUND('',#185,.T.);
#47=FACE_BOUND('',#186,.T.);
#48=FACE_BOUND('',#187,.T.);
#49=FACE_BOUND('',#188,.T.);
#50=FACE_BOUND('',#193,.T.);
#51=FACE_BOUND('',#194,.T.);
#52=FACE_BOUND('',#195,.T.);
#53=FACE_BOUND('',#196,.T.);
#54=FACE_BOUND('',#197,.T.);
#55=FACE_BOUND('',#198,.T.);
#56=FACE_BOUND('',#199,.T.);
#57=FACE_BOUND('',#202,.T.);
#58=FACE_BOUND('',#205,.T.);
#59=PLANE('',#801);
#60=PLANE('',#806);
#61=PLANE('',#808);
#62=PLANE('',#816);
#63=PLANE('',#824);
#64=PLANE('',#825);
#65=PLANE('',#826);
#66=PLANE('',#827);
#67=PLANE('',#828);
#68=PLANE('',#853);
#69=PLANE('',#855);
#70=PLANE('',#861);
#71=PLANE('',#865);
#72=PLANE('',#873);
#73=PLANE('',#879);
#74=PLANE('',#883);
#75=PLANE('',#887);
#76=PLANE('',#891);
#77=PLANE('',#895);
#78=PLANE('',#896);
#79=FACE_OUTER_BOUND('',#126,.T.);
#80=FACE_OUTER_BOUND('',#127,.T.);
#81=FACE_OUTER_BOUND('',#129,.T.);
#82=FACE_OUTER_BOUND('',#130,.T.);
#83=FACE_OUTER_BOUND('',#132,.T.);
#84=FACE_OUTER_BOUND('',#140,.T.);
#85=FACE_OUTER_BOUND('',#149,.T.);
#86=FACE_OUTER_BOUND('',#150,.T.);
#87=FACE_OUTER_BOUND('',#151,.T.);
#88=FACE_OUTER_BOUND('',#152,.T.);
#89=FACE_OUTER_BOUND('',#153,.T.);
#90=FACE_OUTER_BOUND('',#154,.T.);
#91=FACE_OUTER_BOUND('',#155,.T.);
#92=FACE_OUTER_BOUND('',#156,.T.);
#93=FACE_OUTER_BOUND('',#157,.T.);
#94=FACE_OUTER_BOUND('',#158,.T.);
#95=FACE_OUTER_BOUND('',#159,.T.);
#96=FACE_OUTER_BOUND('',#160,.T.);
#97=FACE_OUTER_BOUND('',#161,.T.);
#98=FACE_OUTER_BOUND('',#162,.T.);
#99=FACE_OUTER_BOUND('',#163,.T.);
#100=FACE_OUTER_BOUND('',#164,.T.);
#101=FACE_OUTER_BOUND('',#165,.T.);
#102=FACE_OUTER_BOUND('',#166,.T.);
#103=FACE_OUTER_BOUND('',#167,.T.);
#104=FACE_OUTER_BOUND('',#168,.T.);
#105=FACE_OUTER_BOUND('',#169,.T.);
#106=FACE_OUTER_BOUND('',#170,.T.);
#107=FACE_OUTER_BOUND('',#171,.T.);
#108=FACE_OUTER_BOUND('',#173,.T.);
#109=FACE_OUTER_BOUND('',#174,.T.);
#110=FACE_OUTER_BOUND('',#176,.T.);
#111=FACE_OUTER_BOUND('',#178,.T.);
#112=FACE_OUTER_BOUND('',#181,.T.);
#113=FACE_OUTER_BOUND('',#189,.T.);
#114=FACE_OUTER_BOUND('',#190,.T.);
#115=FACE_OUTER_BOUND('',#191,.T.);
#116=FACE_OUTER_BOUND('',#192,.T.);
#117=FACE_OUTER_BOUND('',#200,.T.);
#118=FACE_OUTER_BOUND('',#201,.T.);
#119=FACE_OUTER_BOUND('',#203,.T.);
#120=FACE_OUTER_BOUND('',#204,.T.);
#121=FACE_OUTER_BOUND('',#206,.T.);
#122=FACE_OUTER_BOUND('',#207,.T.);
#123=FACE_OUTER_BOUND('',#208,.T.);
#124=FACE_OUTER_BOUND('',#209,.T.);
#125=FACE_OUTER_BOUND('',#210,.T.);
#126=EDGE_LOOP('',(#510,#511,#512,#513));
#127=EDGE_LOOP('',(#514));
#128=EDGE_LOOP('',(#515));
#129=EDGE_LOOP('',(#516,#517,#518,#519));
#130=EDGE_LOOP('',(#520));
#131=EDGE_LOOP('',(#521));
#132=EDGE_LOOP('',(#522));
#133=EDGE_LOOP('',(#523));
#134=EDGE_LOOP('',(#524));
#135=EDGE_LOOP('',(#525));
#136=EDGE_LOOP('',(#526));
#137=EDGE_LOOP('',(#527));
#138=EDGE_LOOP('',(#528));
#139=EDGE_LOOP('',(#529));
#140=EDGE_LOOP('',(#530));
#141=EDGE_LOOP('',(#531,#532,#533,#534));
#142=EDGE_LOOP('',(#535));
#143=EDGE_LOOP('',(#536));
#144=EDGE_LOOP('',(#537));
#145=EDGE_LOOP('',(#538));
#146=EDGE_LOOP('',(#539));
#147=EDGE_LOOP('',(#540));
#148=EDGE_LOOP('',(#541));
#149=EDGE_LOOP('',(#542,#543,#544,#545));
#150=EDGE_LOOP('',(#546,#547,#548,#549));
#151=EDGE_LOOP('',(#550,#551,#552,#553));
#152=EDGE_LOOP('',(#554,#555,#556,#557));
#153=EDGE_LOOP('',(#558,#559,#560,#561));
#154=EDGE_LOOP('',(#562,#563,#564,#565));
#155=EDGE_LOOP('',(#566,#567,#568,#569));
#156=EDGE_LOOP('',(#570,#571,#572,#573));
#157=EDGE_LOOP('',(#574,#575,#576,#577));
#158=EDGE_LOOP('',(#578,#579,#580,#581));
#159=EDGE_LOOP('',(#582,#583,#584,#585));
#160=EDGE_LOOP('',(#586,#587,#588,#589));
#161=EDGE_LOOP('',(#590,#591,#592,#593));
#162=EDGE_LOOP('',(#594,#595,#596,#597));
#163=EDGE_LOOP('',(#598,#599,#600,#601));
#164=EDGE_LOOP('',(#602,#603,#604,#605));
#165=EDGE_LOOP('',(#606,#607,#608,#609));
#166=EDGE_LOOP('',(#610));
#167=EDGE_LOOP('',(#611));
#168=EDGE_LOOP('',(#612,#613,#614,#615));
#169=EDGE_LOOP('',(#616,#617,#618,#619,#620,#621,#622,#623));
#170=EDGE_LOOP('',(#624,#625,#626,#627));
#171=EDGE_LOOP('',(#628));
#172=EDGE_LOOP('',(#629));
#173=EDGE_LOOP('',(#630,#631,#632,#633));
#174=EDGE_LOOP('',(#634));
#175=EDGE_LOOP('',(#635));
#176=EDGE_LOOP('',(#636,#637,#638,#639,#640,#641));
#177=EDGE_LOOP('',(#642));
#178=EDGE_LOOP('',(#643,#644,#645,#646));
#179=EDGE_LOOP('',(#647));
#180=EDGE_LOOP('',(#648));
#181=EDGE_LOOP('',(#649));
#182=EDGE_LOOP('',(#650));
#183=EDGE_LOOP('',(#651));
#184=EDGE_LOOP('',(#652));
#185=EDGE_LOOP('',(#653));
#186=EDGE_LOOP('',(#654));
#187=EDGE_LOOP('',(#655));
#188=EDGE_LOOP('',(#656));
#189=EDGE_LOOP('',(#657,#658,#659,#660));
#190=EDGE_LOOP('',(#661,#662,#663,#664));
#191=EDGE_LOOP('',(#665,#666,#667,#668));
#192=EDGE_LOOP('',(#669));
#193=EDGE_LOOP('',(#670));
#194=EDGE_LOOP('',(#671));
#195=EDGE_LOOP('',(#672));
#196=EDGE_LOOP('',(#673));
#197=EDGE_LOOP('',(#674));
#198=EDGE_LOOP('',(#675));
#199=EDGE_LOOP('',(#676));
#200=EDGE_LOOP('',(#677,#678,#679,#680));
#201=EDGE_LOOP('',(#681));
#202=EDGE_LOOP('',(#682));
#203=EDGE_LOOP('',(#683,#684,#685,#686));
#204=EDGE_LOOP('',(#687));
#205=EDGE_LOOP('',(#688));
#206=EDGE_LOOP('',(#689,#690,#691,#692,#693,#694,#695));
#207=EDGE_LOOP('',(#696,#697,#698,#699,#700,#701));
#208=EDGE_LOOP('',(#702,#703,#704,#705));
#209=EDGE_LOOP('',(#706));
#210=EDGE_LOOP('',(#707));
#211=LINE('',#1143,#252);
#212=LINE('',#1152,#253);
#213=LINE('',#1175,#254);
#214=LINE('',#1177,#255);
#215=LINE('',#1179,#256);
#216=LINE('',#1180,#257);
#217=LINE('',#1197,#258);
#218=LINE('',#1199,#259);
#219=LINE('',#1200,#260);
#220=LINE('',#1203,#261);
#221=LINE('',#1204,#262);
#222=LINE('',#1207,#263);
#223=LINE('',#1208,#264);
#224=LINE('',#1210,#265);
#225=LINE('',#1214,#266);
#226=LINE('',#1218,#267);
#227=LINE('',#1222,#268);
#228=LINE('',#1227,#269);
#229=LINE('',#1231,#270);
#230=LINE('',#1235,#271);
#231=LINE('',#1239,#272);
#232=LINE('',#1243,#273);
#233=LINE('',#1247,#274);
#234=LINE('',#1250,#275);
#235=LINE('',#1254,#276);
#236=LINE('',#1258,#277);
#237=LINE('',#1268,#278);
#238=LINE('',#1307,#279);
#239=LINE('',#1332,#280);
#240=LINE('',#1349,#281);
#241=LINE('',#1393,#282);
#242=LINE('',#1434,#283);
#243=LINE('',#1442,#284);
#244=LINE('',#1448,#285);
#245=LINE('',#1453,#286);
#246=LINE('',#1455,#287);
#247=LINE('',#1459,#288);
#248=LINE('',#1466,#289);
#249=LINE('',#1473,#290);
#250=LINE('',#1478,#291);
#251=LINE('',#1485,#292);
#252=VECTOR('',#903,45.);
#253=VECTOR('',#914,45.);
#254=VECTOR('',#939,10.);
#255=VECTOR('',#940,10.);
#256=VECTOR('',#941,10.);
#257=VECTOR('',#942,10.);
#258=VECTOR('',#959,10.);
#259=VECTOR('',#960,10.);
#260=VECTOR('',#961,10.);
#261=VECTOR('',#964,10.);
#262=VECTOR('',#965,10.);
#263=VECTOR('',#968,10.);
#264=VECTOR('',#969,10.);
#265=VECTOR('',#972,10.);
#266=VECTOR('',#977,2.7);
#267=VECTOR('',#982,2.7);
#268=VECTOR('',#987,2.7);
#269=VECTOR('',#994,2.7);
#270=VECTOR('',#999,2.7);
#271=VECTOR('',#1004,2.7);
#272=VECTOR('',#1009,2.7);
#273=VECTOR('',#1014,2.7);
#274=VECTOR('',#1019,2.7);
#275=VECTOR('',#1022,2.7);
#276=VECTOR('',#1027,2.7);
#277=VECTOR('',#1032,2.7);
#278=VECTOR('',#1045,7.2);
#279=VECTOR('',#1050,2.15);
#280=VECTOR('',#1051,10.);
#281=VECTOR('',#1052,10.);
#282=VECTOR('',#1055,2.15);
#283=VECTOR('',#1064,12.5);
#284=VECTOR('',#1073,7.3);
#285=VECTOR('',#1082,17.4);
#286=VECTOR('',#1089,46.);
#287=VECTOR('',#1092,35.);
#288=VECTOR('',#1097,46.);
#289=VECTOR('',#1106,17.4);
#290=VECTOR('',#1115,7.3);
#291=VECTOR('',#1122,7.2);
#292=VECTOR('',#1131,7.2);
#293=CIRCLE('',#799,45.);
#294=CIRCLE('',#800,45.);
#295=CIRCLE('',#802,46.);
#296=CIRCLE('',#804,45.);
#297=CIRCLE('',#805,45.);
#298=CIRCLE('',#807,46.);
#299=CIRCLE('',#809,2.7);
#300=CIRCLE('',#810,2.7);
#301=CIRCLE('',#811,2.7);
#302=CIRCLE('',#812,2.7);
#303=CIRCLE('',#813,2.7);
#304=CIRCLE('',#814,2.7);
#305=CIRCLE('',#815,35.);
#306=CIRCLE('',#817,35.);
#307=CIRCLE('',#818,2.7);
#308=CIRCLE('',#819,2.7);
#309=CIRCLE('',#820,2.7);
#310=CIRCLE('',#821,2.7);
#311=CIRCLE('',#822,2.7);
#312=CIRCLE('',#823,2.7);
#313=CIRCLE('',#830,2.7);
#314=CIRCLE('',#832,2.7);
#315=CIRCLE('',#834,2.7);
#316=CIRCLE('',#836,2.7);
#317=CIRCLE('',#838,2.7);
#318=CIRCLE('',#840,2.7);
#319=CIRCLE('',#842,2.7);
#320=CIRCLE('',#844,2.7);
#321=CIRCLE('',#846,2.7);
#322=CIRCLE('',#848,2.7);
#323=CIRCLE('',#850,2.7);
#324=CIRCLE('',#852,2.7);
#325=CIRCLE('',#854,12.5);
#326=CIRCLE('',#856,7.2);
#327=CIRCLE('',#858,7.2);
#328=CIRCLE('',#862,12.5);
#329=CIRCLE('',#863,7.2);
#330=CIRCLE('',#866,17.4);
#331=CIRCLE('',#867,7.3);
#332=CIRCLE('',#869,7.3);
#333=CIRCLE('',#870,7.3);
#334=CIRCLE('',#872,17.4);
#335=CIRCLE('',#874,46.);
#336=CIRCLE('',#878,46.);
#337=CIRCLE('',#880,17.4);
#338=CIRCLE('',#882,17.4);
#339=CIRCLE('',#884,7.3);
#340=CIRCLE('',#886,7.3);
#341=CIRCLE('',#889,7.2);
#342=CIRCLE('',#890,7.2);
#343=CIRCLE('',#893,7.2);
#344=CIRCLE('',#894,7.2);
#345=VERTEX_POINT('',#1140);
#346=VERTEX_POINT('',#1142);
#347=VERTEX_POINT('',#1146);
#348=VERTEX_POINT('',#1149);
#349=VERTEX_POINT('',#1151);
#350=VERTEX_POINT('',#1155);
#351=VERTEX_POINT('',#1158);
#352=VERTEX_POINT('',#1160);
#353=VERTEX_POINT('',#1162);
#354=VERTEX_POINT('',#1164);
#355=VERTEX_POINT('',#1166);
#356=VERTEX_POINT('',#1168);
#357=VERTEX_POINT('',#1170);
#358=VERTEX_POINT('',#1173);
#359=VERTEX_POINT('',#1174);
#360=VERTEX_POINT('',#1176);
#361=VERTEX_POINT('',#1178);
#362=VERTEX_POINT('',#1181);
#363=VERTEX_POINT('',#1183);
#364=VERTEX_POINT('',#1185);
#365=VERTEX_POINT('',#1187);
#366=VERTEX_POINT('',#1189);
#367=VERTEX_POINT('',#1191);
#368=VERTEX_POINT('',#1193);
#369=VERTEX_POINT('',#1196);
#370=VERTEX_POINT('',#1198);
#371=VERTEX_POINT('',#1202);
#372=VERTEX_POINT('',#1206);
#373=VERTEX_POINT('',#1213);
#374=VERTEX_POINT('',#1217);
#375=VERTEX_POINT('',#1221);
#376=VERTEX_POINT('',#1225);
#377=VERTEX_POINT('',#1229);
#378=VERTEX_POINT('',#1233);
#379=VERTEX_POINT('',#1237);
#380=VERTEX_POINT('',#1241);
#381=VERTEX_POINT('',#1245);
#382=VERTEX_POINT('',#1249);
#383=VERTEX_POINT('',#1253);
#384=VERTEX_POINT('',#1257);
#385=VERTEX_POINT('',#1261);
#386=VERTEX_POINT('',#1264);
#387=VERTEX_POINT('',#1267);
#388=VERTEX_POINT('',#1271);
#389=VERTEX_POINT('',#1306);
#390=VERTEX_POINT('',#1308);
#391=VERTEX_POINT('',#1331);
#392=VERTEX_POINT('',#1333);
#393=VERTEX_POINT('',#1348);
#394=VERTEX_POINT('',#1357);
#395=VERTEX_POINT('',#1392);
#396=VERTEX_POINT('',#1429);
#397=VERTEX_POINT('',#1431);
#398=VERTEX_POINT('',#1436);
#399=VERTEX_POINT('',#1438);
#400=VERTEX_POINT('',#1441);
#401=VERTEX_POINT('',#1446);
#402=VERTEX_POINT('',#1450);
#403=VERTEX_POINT('',#1457);
#404=VERTEX_POINT('',#1461);
#405=VERTEX_POINT('',#1464);
#406=VERTEX_POINT('',#1468);
#407=VERTEX_POINT('',#1471);
#408=VERTEX_POINT('',#1476);
#409=VERTEX_POINT('',#1482);
#410=VERTEX_POINT('',#1484);
#411=EDGE_CURVE('',#345,#345,#293,.T.);
#412=EDGE_CURVE('',#345,#346,#211,.T.);
#413=EDGE_CURVE('',#346,#346,#294,.T.);
#414=EDGE_CURVE('',#347,#347,#295,.T.);
#415=EDGE_CURVE('',#348,#348,#296,.T.);
#416=EDGE_CURVE('',#348,#349,#212,.T.);
#417=EDGE_CURVE('',#349,#349,#297,.T.);
#418=EDGE_CURVE('',#350,#350,#298,.T.);
#419=EDGE_CURVE('',#351,#351,#299,.T.);
#420=EDGE_CURVE('',#352,#352,#300,.T.);
#421=EDGE_CURVE('',#353,#353,#301,.T.);
#422=EDGE_CURVE('',#354,#354,#302,.T.);
#423=EDGE_CURVE('',#355,#355,#303,.T.);
#424=EDGE_CURVE('',#356,#356,#304,.T.);
#425=EDGE_CURVE('',#357,#357,#305,.T.);
#426=EDGE_CURVE('',#358,#359,#213,.T.);
#427=EDGE_CURVE('',#359,#360,#214,.T.);
#428=EDGE_CURVE('',#360,#361,#215,.T.);
#429=EDGE_CURVE('',#361,#358,#216,.T.);
#430=EDGE_CURVE('',#362,#362,#306,.T.);
#431=EDGE_CURVE('',#363,#363,#307,.T.);
#432=EDGE_CURVE('',#364,#364,#308,.T.);
#433=EDGE_CURVE('',#365,#365,#309,.T.);
#434=EDGE_CURVE('',#366,#366,#310,.T.);
#435=EDGE_CURVE('',#367,#367,#311,.T.);
#436=EDGE_CURVE('',#368,#368,#312,.T.);
#437=EDGE_CURVE('',#360,#369,#217,.T.);
#438=EDGE_CURVE('',#369,#370,#218,.T.);
#439=EDGE_CURVE('',#361,#370,#219,.T.);
#440=EDGE_CURVE('',#370,#371,#220,.T.);
#441=EDGE_CURVE('',#358,#371,#221,.T.);
#442=EDGE_CURVE('',#372,#369,#222,.T.);
#443=EDGE_CURVE('',#371,#372,#223,.T.);
#444=EDGE_CURVE('',#359,#372,#224,.T.);
#445=EDGE_CURVE('',#368,#373,#225,.T.);
#446=EDGE_CURVE('',#373,#373,#313,.T.);
#447=EDGE_CURVE('',#367,#374,#226,.T.);
#448=EDGE_CURVE('',#374,#374,#314,.T.);
#449=EDGE_CURVE('',#366,#375,#227,.T.);
#450=EDGE_CURVE('',#375,#375,#315,.T.);
#451=EDGE_CURVE('',#376,#376,#316,.T.);
#452=EDGE_CURVE('',#376,#351,#228,.T.);
#453=EDGE_CURVE('',#377,#377,#317,.T.);
#454=EDGE_CURVE('',#377,#352,#229,.T.);
#455=EDGE_CURVE('',#378,#378,#318,.T.);
#456=EDGE_CURVE('',#378,#353,#230,.T.);
#457=EDGE_CURVE('',#379,#379,#319,.T.);
#458=EDGE_CURVE('',#379,#354,#231,.T.);
#459=EDGE_CURVE('',#380,#380,#320,.T.);
#460=EDGE_CURVE('',#380,#355,#232,.T.);
#461=EDGE_CURVE('',#381,#381,#321,.T.);
#462=EDGE_CURVE('',#381,#356,#233,.T.);
#463=EDGE_CURVE('',#365,#382,#234,.T.);
#464=EDGE_CURVE('',#382,#382,#322,.T.);
#465=EDGE_CURVE('',#364,#383,#235,.T.);
#466=EDGE_CURVE('',#383,#383,#323,.T.);
#467=EDGE_CURVE('',#363,#384,#236,.T.);
#468=EDGE_CURVE('',#384,#384,#324,.T.);
#469=EDGE_CURVE('',#385,#385,#325,.T.);
#470=EDGE_CURVE('',#386,#386,#326,.T.);
#471=EDGE_CURVE('',#386,#387,#237,.T.);
#472=EDGE_CURVE('',#387,#387,#327,.T.);
#473=EDGE_CURVE('',#388,#388,#15,.T.);
#474=EDGE_CURVE('',#388,#389,#238,.T.);
#475=EDGE_CURVE('',#390,#389,#16,.T.);
#476=EDGE_CURVE('',#391,#390,#239,.T.);
#477=EDGE_CURVE('',#392,#391,#17,.T.);
#478=EDGE_CURVE('',#393,#392,#240,.T.);
#479=EDGE_CURVE('',#389,#393,#18,.T.);
#480=EDGE_CURVE('',#394,#394,#19,.T.);
#481=EDGE_CURVE('',#394,#395,#241,.T.);
#482=EDGE_CURVE('',#395,#395,#20,.T.);
#483=EDGE_CURVE('',#396,#396,#328,.T.);
#484=EDGE_CURVE('',#397,#397,#329,.T.);
#485=EDGE_CURVE('',#396,#385,#242,.T.);
#486=EDGE_CURVE('',#398,#398,#330,.T.);
#487=EDGE_CURVE('',#399,#399,#331,.T.);
#488=EDGE_CURVE('',#399,#400,#243,.T.);
#489=EDGE_CURVE('',#392,#400,#332,.T.);
#490=EDGE_CURVE('',#400,#391,#333,.T.);
#491=EDGE_CURVE('',#401,#401,#334,.T.);
#492=EDGE_CURVE('',#401,#398,#244,.T.);
#493=EDGE_CURVE('',#402,#402,#335,.T.);
#494=EDGE_CURVE('',#347,#402,#245,.T.);
#495=EDGE_CURVE('',#362,#357,#246,.T.);
#496=EDGE_CURVE('',#403,#403,#336,.T.);
#497=EDGE_CURVE('',#403,#350,#247,.T.);
#498=EDGE_CURVE('',#404,#404,#337,.T.);
#499=EDGE_CURVE('',#405,#405,#338,.T.);
#500=EDGE_CURVE('',#405,#404,#248,.T.);
#501=EDGE_CURVE('',#406,#406,#339,.T.);
#502=EDGE_CURVE('',#407,#407,#340,.T.);
#503=EDGE_CURVE('',#407,#406,#249,.T.);
#504=EDGE_CURVE('',#408,#393,#341,.T.);
#505=EDGE_CURVE('',#408,#397,#250,.T.);
#506=EDGE_CURVE('',#390,#408,#342,.T.);
#507=EDGE_CURVE('',#409,#409,#343,.T.);
#508=EDGE_CURVE('',#409,#410,#251,.T.);
#509=EDGE_CURVE('',#410,#410,#344,.T.);
#510=ORIENTED_EDGE('',*,*,#411,.F.);
#511=ORIENTED_EDGE('',*,*,#412,.T.);
#512=ORIENTED_EDGE('',*,*,#413,.T.);
#513=ORIENTED_EDGE('',*,*,#412,.F.);
#514=ORIENTED_EDGE('',*,*,#414,.F.);
#515=ORIENTED_EDGE('',*,*,#413,.F.);
#516=ORIENTED_EDGE('',*,*,#415,.T.);
#517=ORIENTED_EDGE('',*,*,#416,.T.);
#518=ORIENTED_EDGE('',*,*,#417,.F.);
#519=ORIENTED_EDGE('',*,*,#416,.F.);
#520=ORIENTED_EDGE('',*,*,#418,.F.);
#521=ORIENTED_EDGE('',*,*,#415,.F.);
#522=ORIENTED_EDGE('',*,*,#411,.T.);
#523=ORIENTED_EDGE('',*,*,#419,.T.);
#524=ORIENTED_EDGE('',*,*,#420,.T.);
#525=ORIENTED_EDGE('',*,*,#421,.T.);
#526=ORIENTED_EDGE('',*,*,#422,.T.);
#527=ORIENTED_EDGE('',*,*,#423,.T.);
#528=ORIENTED_EDGE('',*,*,#424,.T.);
#529=ORIENTED_EDGE('',*,*,#425,.F.);
#530=ORIENTED_EDGE('',*,*,#417,.T.);
#531=ORIENTED_EDGE('',*,*,#426,.T.);
#532=ORIENTED_EDGE('',*,*,#427,.T.);
#533=ORIENTED_EDGE('',*,*,#428,.T.);
#534=ORIENTED_EDGE('',*,*,#429,.T.);
#535=ORIENTED_EDGE('',*,*,#430,.F.);
#536=ORIENTED_EDGE('',*,*,#431,.T.);
#537=ORIENTED_EDGE('',*,*,#432,.T.);
#538=ORIENTED_EDGE('',*,*,#433,.T.);
#539=ORIENTED_EDGE('',*,*,#434,.T.);
#540=ORIENTED_EDGE('',*,*,#435,.T.);
#541=ORIENTED_EDGE('',*,*,#436,.T.);
#542=ORIENTED_EDGE('',*,*,#428,.F.);
#543=ORIENTED_EDGE('',*,*,#437,.T.);
#544=ORIENTED_EDGE('',*,*,#438,.T.);
#545=ORIENTED_EDGE('',*,*,#439,.F.);
#546=ORIENTED_EDGE('',*,*,#429,.F.);
#547=ORIENTED_EDGE('',*,*,#439,.T.);
#548=ORIENTED_EDGE('',*,*,#440,.T.);
#549=ORIENTED_EDGE('',*,*,#441,.F.);
#550=ORIENTED_EDGE('',*,*,#440,.F.);
#551=ORIENTED_EDGE('',*,*,#438,.F.);
#552=ORIENTED_EDGE('',*,*,#442,.F.);
#553=ORIENTED_EDGE('',*,*,#443,.F.);
#554=ORIENTED_EDGE('',*,*,#426,.F.);
#555=ORIENTED_EDGE('',*,*,#441,.T.);
#556=ORIENTED_EDGE('',*,*,#443,.T.);
#557=ORIENTED_EDGE('',*,*,#444,.F.);
#558=ORIENTED_EDGE('',*,*,#427,.F.);
#559=ORIENTED_EDGE('',*,*,#444,.T.);
#560=ORIENTED_EDGE('',*,*,#442,.T.);
#561=ORIENTED_EDGE('',*,*,#437,.F.);
#562=ORIENTED_EDGE('',*,*,#436,.F.);
#563=ORIENTED_EDGE('',*,*,#445,.T.);
#564=ORIENTED_EDGE('',*,*,#446,.F.);
#565=ORIENTED_EDGE('',*,*,#445,.F.);
#566=ORIENTED_EDGE('',*,*,#435,.F.);
#567=ORIENTED_EDGE('',*,*,#447,.T.);
#568=ORIENTED_EDGE('',*,*,#448,.F.);
#569=ORIENTED_EDGE('',*,*,#447,.F.);
#570=ORIENTED_EDGE('',*,*,#434,.F.);
#571=ORIENTED_EDGE('',*,*,#449,.T.);
#572=ORIENTED_EDGE('',*,*,#450,.F.);
#573=ORIENTED_EDGE('',*,*,#449,.F.);
#574=ORIENTED_EDGE('',*,*,#451,.F.);
#575=ORIENTED_EDGE('',*,*,#452,.T.);
#576=ORIENTED_EDGE('',*,*,#419,.F.);
#577=ORIENTED_EDGE('',*,*,#452,.F.);
#578=ORIENTED_EDGE('',*,*,#453,.F.);
#579=ORIENTED_EDGE('',*,*,#454,.T.);
#580=ORIENTED_EDGE('',*,*,#420,.F.);
#581=ORIENTED_EDGE('',*,*,#454,.F.);
#582=ORIENTED_EDGE('',*,*,#455,.F.);
#583=ORIENTED_EDGE('',*,*,#456,.T.);
#584=ORIENTED_EDGE('',*,*,#421,.F.);
#585=ORIENTED_EDGE('',*,*,#456,.F.);
#586=ORIENTED_EDGE('',*,*,#457,.F.);
#587=ORIENTED_EDGE('',*,*,#458,.T.);
#588=ORIENTED_EDGE('',*,*,#422,.F.);
#589=ORIENTED_EDGE('',*,*,#458,.F.);
#590=ORIENTED_EDGE('',*,*,#459,.F.);
#591=ORIENTED_EDGE('',*,*,#460,.T.);
#592=ORIENTED_EDGE('',*,*,#423,.F.);
#593=ORIENTED_EDGE('',*,*,#460,.F.);
#594=ORIENTED_EDGE('',*,*,#461,.F.);
#595=ORIENTED_EDGE('',*,*,#462,.T.);
#596=ORIENTED_EDGE('',*,*,#424,.F.);
#597=ORIENTED_EDGE('',*,*,#462,.F.);
#598=ORIENTED_EDGE('',*,*,#433,.F.);
#599=ORIENTED_EDGE('',*,*,#463,.T.);
#600=ORIENTED_EDGE('',*,*,#464,.F.);
#601=ORIENTED_EDGE('',*,*,#463,.F.);
#602=ORIENTED_EDGE('',*,*,#432,.F.);
#603=ORIENTED_EDGE('',*,*,#465,.T.);
#604=ORIENTED_EDGE('',*,*,#466,.F.);
#605=ORIENTED_EDGE('',*,*,#465,.F.);
#606=ORIENTED_EDGE('',*,*,#431,.F.);
#607=ORIENTED_EDGE('',*,*,#467,.T.);
#608=ORIENTED_EDGE('',*,*,#468,.F.);
#609=ORIENTED_EDGE('',*,*,#467,.F.);
#610=ORIENTED_EDGE('',*,*,#469,.F.);
#611=ORIENTED_EDGE('',*,*,#470,.F.);
#612=ORIENTED_EDGE('',*,*,#470,.T.);
#613=ORIENTED_EDGE('',*,*,#471,.T.);
#614=ORIENTED_EDGE('',*,*,#472,.F.);
#615=ORIENTED_EDGE('',*,*,#471,.F.);
#616=ORIENTED_EDGE('',*,*,#473,.F.);
#617=ORIENTED_EDGE('',*,*,#474,.T.);
#618=ORIENTED_EDGE('',*,*,#475,.F.);
#619=ORIENTED_EDGE('',*,*,#476,.F.);
#620=ORIENTED_EDGE('',*,*,#477,.F.);
#621=ORIENTED_EDGE('',*,*,#478,.F.);
#622=ORIENTED_EDGE('',*,*,#479,.F.);
#623=ORIENTED_EDGE('',*,*,#474,.F.);
#624=ORIENTED_EDGE('',*,*,#480,.F.);
#625=ORIENTED_EDGE('',*,*,#481,.T.);
#626=ORIENTED_EDGE('',*,*,#482,.F.);
#627=ORIENTED_EDGE('',*,*,#481,.F.);
#628=ORIENTED_EDGE('',*,*,#483,.F.);
#629=ORIENTED_EDGE('',*,*,#484,.F.);
#630=ORIENTED_EDGE('',*,*,#483,.T.);
#631=ORIENTED_EDGE('',*,*,#485,.T.);
#632=ORIENTED_EDGE('',*,*,#469,.T.);
#633=ORIENTED_EDGE('',*,*,#485,.F.);
#634=ORIENTED_EDGE('',*,*,#486,.F.);
#635=ORIENTED_EDGE('',*,*,#487,.T.);
#636=ORIENTED_EDGE('',*,*,#487,.F.);
#637=ORIENTED_EDGE('',*,*,#488,.T.);
#638=ORIENTED_EDGE('',*,*,#489,.F.);
#639=ORIENTED_EDGE('',*,*,#477,.T.);
#640=ORIENTED_EDGE('',*,*,#490,.F.);
#641=ORIENTED_EDGE('',*,*,#488,.F.);
#642=ORIENTED_EDGE('',*,*,#482,.T.);
#643=ORIENTED_EDGE('',*,*,#491,.T.);
#644=ORIENTED_EDGE('',*,*,#492,.T.);
#645=ORIENTED_EDGE('',*,*,#486,.T.);
#646=ORIENTED_EDGE('',*,*,#492,.F.);
#647=ORIENTED_EDGE('',*,*,#473,.T.);
#648=ORIENTED_EDGE('',*,*,#480,.T.);
#649=ORIENTED_EDGE('',*,*,#493,.T.);
#650=ORIENTED_EDGE('',*,*,#491,.F.);
#651=ORIENTED_EDGE('',*,*,#461,.T.);
#652=ORIENTED_EDGE('',*,*,#459,.T.);
#653=ORIENTED_EDGE('',*,*,#457,.T.);
#654=ORIENTED_EDGE('',*,*,#455,.T.);
#655=ORIENTED_EDGE('',*,*,#453,.T.);
#656=ORIENTED_EDGE('',*,*,#451,.T.);
#657=ORIENTED_EDGE('',*,*,#414,.T.);
#658=ORIENTED_EDGE('',*,*,#494,.T.);
#659=ORIENTED_EDGE('',*,*,#493,.F.);
#660=ORIENTED_EDGE('',*,*,#494,.F.);
#661=ORIENTED_EDGE('',*,*,#430,.T.);
#662=ORIENTED_EDGE('',*,*,#495,.T.);
#663=ORIENTED_EDGE('',*,*,#425,.T.);
#664=ORIENTED_EDGE('',*,*,#495,.F.);
#665=ORIENTED_EDGE('',*,*,#496,.F.);
#666=ORIENTED_EDGE('',*,*,#497,.T.);
#667=ORIENTED_EDGE('',*,*,#418,.T.);
#668=ORIENTED_EDGE('',*,*,#497,.F.);
#669=ORIENTED_EDGE('',*,*,#496,.T.);
#670=ORIENTED_EDGE('',*,*,#498,.F.);
#671=ORIENTED_EDGE('',*,*,#468,.T.);
#672=ORIENTED_EDGE('',*,*,#466,.T.);
#673=ORIENTED_EDGE('',*,*,#464,.T.);
#674=ORIENTED_EDGE('',*,*,#450,.T.);
#675=ORIENTED_EDGE('',*,*,#448,.T.);
#676=ORIENTED_EDGE('',*,*,#446,.T.);
#677=ORIENTED_EDGE('',*,*,#499,.F.);
#678=ORIENTED_EDGE('',*,*,#500,.T.);
#679=ORIENTED_EDGE('',*,*,#498,.T.);
#680=ORIENTED_EDGE('',*,*,#500,.F.);
#681=ORIENTED_EDGE('',*,*,#499,.T.);
#682=ORIENTED_EDGE('',*,*,#501,.T.);
#683=ORIENTED_EDGE('',*,*,#502,.F.);
#684=ORIENTED_EDGE('',*,*,#503,.T.);
#685=ORIENTED_EDGE('',*,*,#501,.F.);
#686=ORIENTED_EDGE('',*,*,#503,.F.);
#687=ORIENTED_EDGE('',*,*,#502,.T.);
#688=ORIENTED_EDGE('',*,*,#472,.T.);
#689=ORIENTED_EDGE('',*,*,#475,.T.);
#690=ORIENTED_EDGE('',*,*,#479,.T.);
#691=ORIENTED_EDGE('',*,*,#504,.F.);
#692=ORIENTED_EDGE('',*,*,#505,.T.);
#693=ORIENTED_EDGE('',*,*,#484,.T.);
#694=ORIENTED_EDGE('',*,*,#505,.F.);
#695=ORIENTED_EDGE('',*,*,#506,.F.);
#696=ORIENTED_EDGE('',*,*,#478,.T.);
#697=ORIENTED_EDGE('',*,*,#489,.T.);
#698=ORIENTED_EDGE('',*,*,#490,.T.);
#699=ORIENTED_EDGE('',*,*,#476,.T.);
#700=ORIENTED_EDGE('',*,*,#506,.T.);
#701=ORIENTED_EDGE('',*,*,#504,.T.);
#702=ORIENTED_EDGE('',*,*,#507,.T.);
#703=ORIENTED_EDGE('',*,*,#508,.T.);
#704=ORIENTED_EDGE('',*,*,#509,.T.);
#705=ORIENTED_EDGE('',*,*,#508,.F.);
#706=ORIENTED_EDGE('',*,*,#509,.F.);
#707=ORIENTED_EDGE('',*,*,#507,.F.);
#708=CYLINDRICAL_SURFACE('',#798,45.);
#709=CYLINDRICAL_SURFACE('',#803,45.);
#710=CYLINDRICAL_SURFACE('',#829,2.7);
#711=CYLINDRICAL_SURFACE('',#831,2.7);
#712=CYLINDRICAL_SURFACE('',#833,2.7);
#713=CYLINDRICAL_SURFACE('',#835,2.7);
#714=CYLINDRICAL_SURFACE('',#837,2.7);
#715=CYLINDRICAL_SURFACE('',#839,2.7);
#716=CYLINDRICAL_SURFACE('',#841,2.7);
#717=CYLINDRICAL_SURFACE('',#843,2.7);
#718=CYLINDRICAL_SURFACE('',#845,2.7);
#719=CYLINDRICAL_SURFACE('',#847,2.7);
#720=CYLINDRICAL_SURFACE('',#849,2.7);
#721=CYLINDRICAL_SURFACE('',#851,2.7);
#722=CYLINDRICAL_SURFACE('',#857,7.2);
#723=CYLINDRICAL_SURFACE('',#859,2.15);
#724=CYLINDRICAL_SURFACE('',#860,2.15);
#725=CYLINDRICAL_SURFACE('',#864,12.5);
#726=CYLINDRICAL_SURFACE('',#868,7.3);
#727=CYLINDRICAL_SURFACE('',#871,17.4);
#728=CYLINDRICAL_SURFACE('',#875,46.);
#729=CYLINDRICAL_SURFACE('',#876,35.);
#730=CYLINDRICAL_SURFACE('',#877,46.);
#731=CYLINDRICAL_SURFACE('',#881,17.4);
#732=CYLINDRICAL_SURFACE('',#885,7.3);
#733=CYLINDRICAL_SURFACE('',#888,7.2);
#734=CYLINDRICAL_SURFACE('',#892,7.2);
#735=ADVANCED_FACE('',(#79),#708,.T.);
#736=ADVANCED_FACE('',(#80,#21),#59,.F.);
#737=ADVANCED_FACE('',(#81),#709,.T.);
#738=ADVANCED_FACE('',(#82,#22),#60,.F.);
#739=ADVANCED_FACE('',(#83,#23,#24,#25,#26,#27,#28,#29),#61,.T.);
#740=ADVANCED_FACE('',(#84,#30,#31,#32,#33,#34,#35,#36,#37),#62,.T.);
#741=ADVANCED_FACE('',(#85),#63,.T.);
#742=ADVANCED_FACE('',(#86),#64,.T.);
#743=ADVANCED_FACE('',(#87),#65,.T.);
#744=ADVANCED_FACE('',(#88),#66,.T.);
#745=ADVANCED_FACE('',(#89),#67,.T.);
#746=ADVANCED_FACE('',(#90),#710,.F.);
#747=ADVANCED_FACE('',(#91),#711,.F.);
#748=ADVANCED_FACE('',(#92),#712,.F.);
#749=ADVANCED_FACE('',(#93),#713,.F.);
#750=ADVANCED_FACE('',(#94),#714,.F.);
#751=ADVANCED_FACE('',(#95),#715,.F.);
#752=ADVANCED_FACE('',(#96),#716,.F.);
#753=ADVANCED_FACE('',(#97),#717,.F.);
#754=ADVANCED_FACE('',(#98),#718,.F.);
#755=ADVANCED_FACE('',(#99),#719,.F.);
#756=ADVANCED_FACE('',(#100),#720,.F.);
#757=ADVANCED_FACE('',(#101),#721,.F.);
#758=ADVANCED_FACE('',(#102),#68,.T.);
#759=ADVANCED_FACE('',(#103),#69,.T.);
#760=ADVANCED_FACE('',(#104),#722,.F.);
#761=ADVANCED_FACE('',(#105),#723,.F.);
#762=ADVANCED_FACE('',(#106),#724,.F.);
#763=ADVANCED_FACE('',(#107,#38),#70,.F.);
#764=ADVANCED_FACE('',(#108),#725,.F.);
#765=ADVANCED_FACE('',(#109,#39),#71,.F.);
#766=ADVANCED_FACE('',(#110,#40),#726,.F.);
#767=ADVANCED_FACE('',(#111,#41,#42),#727,.T.);
#768=ADVANCED_FACE('',(#112,#43,#44,#45,#46,#47,#48,#49),#72,.T.);
#769=ADVANCED_FACE('',(#113),#728,.T.);
#770=ADVANCED_FACE('',(#114),#729,.T.);
#771=ADVANCED_FACE('',(#115),#730,.T.);
#772=ADVANCED_FACE('',(#116,#50,#51,#52,#53,#54,#55,#56),#73,.T.);
#773=ADVANCED_FACE('',(#117),#731,.T.);
#774=ADVANCED_FACE('',(#118,#57),#74,.T.);
#775=ADVANCED_FACE('',(#119),#732,.F.);
#776=ADVANCED_FACE('',(#120,#58),#75,.T.);
#777=ADVANCED_FACE('',(#121),#733,.F.);
#778=ADVANCED_FACE('',(#122),#76,.T.);
#779=ADVANCED_FACE('',(#123),#734,.F.);
#780=ADVANCED_FACE('',(#124),#77,.T.);
#781=ADVANCED_FACE('',(#125),#78,.T.);
#782=CLOSED_SHELL('',(#735,#736,#737,#738,#739,#740,#741,#742,#743,#744,
#745,#746,#747,#748,#749,#750,#751,#752,#753,#754,#755,#756,#757,#758,#759,
#760,#761,#762,#763,#764,#765,#766,#767,#768,#769,#770,#771,#772,#773,#774,
#775,#776,#777,#778));
#783=CLOSED_SHELL('',(#779,#780,#781));
#784=BREP_WITH_VOIDS('Body1',#782,(#14));
#785=DERIVED_UNIT_ELEMENT(#787,1.);
#786=DERIVED_UNIT_ELEMENT(#1494,-3.);
#787=(
MASS_UNIT()
NAMED_UNIT(*)
SI_UNIT(.KILO.,.GRAM.)
);
#788=DERIVED_UNIT((#785,#786));
#789=MEASURE_REPRESENTATION_ITEM('density measure',
POSITIVE_RATIO_MEASURE(7850.),#788);
#790=PROPERTY_DEFINITION_REPRESENTATION(#795,#792);
#791=PROPERTY_DEFINITION_REPRESENTATION(#796,#793);
#792=REPRESENTATION('material name',(#794),#1491);
#793=REPRESENTATION('density',(#789),#1491);
#794=DESCRIPTIVE_REPRESENTATION_ITEM('Steel','Steel');
#795=PROPERTY_DEFINITION('material property','material name',#1501);
#796=PROPERTY_DEFINITION('material property','density of part',#1501);
#797=AXIS2_PLACEMENT_3D('',#1138,#897,#898);
#798=AXIS2_PLACEMENT_3D('',#1139,#899,#900);
#799=AXIS2_PLACEMENT_3D('',#1141,#901,#902);
#800=AXIS2_PLACEMENT_3D('',#1144,#904,#905);
#801=AXIS2_PLACEMENT_3D('',#1145,#906,#907);
#802=AXIS2_PLACEMENT_3D('',#1147,#908,#909);
#803=AXIS2_PLACEMENT_3D('',#1148,#910,#911);
#804=AXIS2_PLACEMENT_3D('',#1150,#912,#913);
#805=AXIS2_PLACEMENT_3D('',#1153,#915,#916);
#806=AXIS2_PLACEMENT_3D('',#1154,#917,#918);
#807=AXIS2_PLACEMENT_3D('',#1156,#919,#920);
#808=AXIS2_PLACEMENT_3D('',#1157,#921,#922);
#809=AXIS2_PLACEMENT_3D('',#1159,#923,#924);
#810=AXIS2_PLACEMENT_3D('',#1161,#925,#926);
#811=AXIS2_PLACEMENT_3D('',#1163,#927,#928);
#812=AXIS2_PLACEMENT_3D('',#1165,#929,#930);
#813=AXIS2_PLACEMENT_3D('',#1167,#931,#932);
#814=AXIS2_PLACEMENT_3D('',#1169,#933,#934);
#815=AXIS2_PLACEMENT_3D('',#1171,#935,#936);
#816=AXIS2_PLACEMENT_3D('',#1172,#937,#938);
#817=AXIS2_PLACEMENT_3D('',#1182,#943,#944);
#818=AXIS2_PLACEMENT_3D('',#1184,#945,#946);
#819=AXIS2_PLACEMENT_3D('',#1186,#947,#948);
#820=AXIS2_PLACEMENT_3D('',#1188,#949,#950);
#821=AXIS2_PLACEMENT_3D('',#1190,#951,#952);
#822=AXIS2_PLACEMENT_3D('',#1192,#953,#954);
#823=AXIS2_PLACEMENT_3D('',#1194,#955,#956);
#824=AXIS2_PLACEMENT_3D('',#1195,#957,#958);
#825=AXIS2_PLACEMENT_3D('',#1201,#962,#963);
#826=AXIS2_PLACEMENT_3D('',#1205,#966,#967);
#827=AXIS2_PLACEMENT_3D('',#1209,#970,#971);
#828=AXIS2_PLACEMENT_3D('',#1211,#973,#974);
#829=AXIS2_PLACEMENT_3D('',#1212,#975,#976);
#830=AXIS2_PLACEMENT_3D('',#1215,#978,#979);
#831=AXIS2_PLACEMENT_3D('',#1216,#980,#981);
#832=AXIS2_PLACEMENT_3D('',#1219,#983,#984);
#833=AXIS2_PLACEMENT_3D('',#1220,#985,#986);
#834=AXIS2_PLACEMENT_3D('',#1223,#988,#989);
#835=AXIS2_PLACEMENT_3D('',#1224,#990,#991);
#836=AXIS2_PLACEMENT_3D('',#1226,#992,#993);
#837=AXIS2_PLACEMENT_3D('',#1228,#995,#996);
#838=AXIS2_PLACEMENT_3D('',#1230,#997,#998);
#839=AXIS2_PLACEMENT_3D('',#1232,#1000,#1001);
#840=AXIS2_PLACEMENT_3D('',#1234,#1002,#1003);
#841=AXIS2_PLACEMENT_3D('',#1236,#1005,#1006);
#842=AXIS2_PLACEMENT_3D('',#1238,#1007,#1008);
#843=AXIS2_PLACEMENT_3D('',#1240,#1010,#1011);
#844=AXIS2_PLACEMENT_3D('',#1242,#1012,#1013);
#845=AXIS2_PLACEMENT_3D('',#1244,#1015,#1016);
#846=AXIS2_PLACEMENT_3D('',#1246,#1017,#1018);
#847=AXIS2_PLACEMENT_3D('',#1248,#1020,#1021);
#848=AXIS2_PLACEMENT_3D('',#1251,#1023,#1024);
#849=AXIS2_PLACEMENT_3D('',#1252,#1025,#1026);
#850=AXIS2_PLACEMENT_3D('',#1255,#1028,#1029);
#851=AXIS2_PLACEMENT_3D('',#1256,#1030,#1031);
#852=AXIS2_PLACEMENT_3D('',#1259,#1033,#1034);
#853=AXIS2_PLACEMENT_3D('',#1260,#1035,#1036);
#854=AXIS2_PLACEMENT_3D('',#1262,#1037,#1038);
#855=AXIS2_PLACEMENT_3D('',#1263,#1039,#1040);
#856=AXIS2_PLACEMENT_3D('',#1265,#1041,#1042);
#857=AXIS2_PLACEMENT_3D('',#1266,#1043,#1044);
#858=AXIS2_PLACEMENT_3D('',#1269,#1046,#1047);
#859=AXIS2_PLACEMENT_3D('',#1270,#1048,#1049);
#860=AXIS2_PLACEMENT_3D('',#1356,#1053,#1054);
#861=AXIS2_PLACEMENT_3D('',#1428,#1056,#1057);
#862=AXIS2_PLACEMENT_3D('',#1430,#1058,#1059);
#863=AXIS2_PLACEMENT_3D('',#1432,#1060,#1061);
#864=AXIS2_PLACEMENT_3D('',#1433,#1062,#1063);
#865=AXIS2_PLACEMENT_3D('',#1435,#1065,#1066);
#866=AXIS2_PLACEMENT_3D('',#1437,#1067,#1068);
#867=AXIS2_PLACEMENT_3D('',#1439,#1069,#1070);
#868=AXIS2_PLACEMENT_3D('',#1440,#1071,#1072);
#869=AXIS2_PLACEMENT_3D('',#1443,#1074,#1075);
#870=AXIS2_PLACEMENT_3D('',#1444,#1076,#1077);
#871=AXIS2_PLACEMENT_3D('',#1445,#1078,#1079);
#872=AXIS2_PLACEMENT_3D('',#1447,#1080,#1081);
#873=AXIS2_PLACEMENT_3D('',#1449,#1083,#1084);
#874=AXIS2_PLACEMENT_3D('',#1451,#1085,#1086);
#875=AXIS2_PLACEMENT_3D('',#1452,#1087,#1088);
#876=AXIS2_PLACEMENT_3D('',#1454,#1090,#1091);
#877=AXIS2_PLACEMENT_3D('',#1456,#1093,#1094);
#878=AXIS2_PLACEMENT_3D('',#1458,#1095,#1096);
#879=AXIS2_PLACEMENT_3D('',#1460,#1098,#1099);
#880=AXIS2_PLACEMENT_3D('',#1462,#1100,#1101);
#881=AXIS2_PLACEMENT_3D('',#1463,#1102,#1103);
#882=AXIS2_PLACEMENT_3D('',#1465,#1104,#1105);
#883=AXIS2_PLACEMENT_3D('',#1467,#1107,#1108);
#884=AXIS2_PLACEMENT_3D('',#1469,#1109,#1110);
#885=AXIS2_PLACEMENT_3D('',#1470,#1111,#1112);
#886=AXIS2_PLACEMENT_3D('',#1472,#1113,#1114);
#887=AXIS2_PLACEMENT_3D('',#1474,#1116,#1117);
#888=AXIS2_PLACEMENT_3D('',#1475,#1118,#1119);
#889=AXIS2_PLACEMENT_3D('',#1477,#1120,#1121);
#890=AXIS2_PLACEMENT_3D('',#1479,#1123,#1124);
#891=AXIS2_PLACEMENT_3D('',#1480,#1125,#1126);
#892=AXIS2_PLACEMENT_3D('',#1481,#1127,#1128);
#893=AXIS2_PLACEMENT_3D('',#1483,#1129,#1130);
#894=AXIS2_PLACEMENT_3D('',#1486,#1132,#1133);
#895=AXIS2_PLACEMENT_3D('',#1487,#1134,#1135);
#896=AXIS2_PLACEMENT_3D('',#1488,#1136,#1137);
#897=DIRECTION('axis',(0.,0.,1.));
#898=DIRECTION('refdir',(1.,0.,0.));
#899=DIRECTION('center_axis',(0.,1.,0.));
#900=DIRECTION('ref_axis',(1.,0.,0.));
#901=DIRECTION('center_axis',(0.,1.,0.));
#902=DIRECTION('ref_axis',(1.,0.,0.));
#903=DIRECTION('',(0.,-1.,0.));
#904=DIRECTION('center_axis',(0.,1.,0.));
#905=DIRECTION('ref_axis',(1.,0.,0.));
#906=DIRECTION('center_axis',(0.,-1.,0.));
#907=DIRECTION('ref_axis',(-1.,0.,0.));
#908=DIRECTION('center_axis',(0.,-1.,0.));
#909=DIRECTION('ref_axis',(1.,0.,0.));
#910=DIRECTION('center_axis',(0.,1.,0.));
#911=DIRECTION('ref_axis',(1.,0.,0.));
#912=DIRECTION('center_axis',(0.,-1.,0.));
#913=DIRECTION('ref_axis',(1.,0.,0.));
#914=DIRECTION('',(0.,-1.,0.));
#915=DIRECTION('center_axis',(0.,-1.,0.));
#916=DIRECTION('ref_axis',(1.,0.,0.));
#917=DIRECTION('center_axis',(0.,1.,0.));
#918=DIRECTION('ref_axis',(1.,0.,0.));
#919=DIRECTION('center_axis',(0.,1.,0.));
#920=DIRECTION('ref_axis',(1.,0.,0.));
#921=DIRECTION('center_axis',(0.,1.,0.));
#922=DIRECTION('ref_axis',(1.,0.,0.));
#923=DIRECTION('center_axis',(0.,-1.,0.));
#924=DIRECTION('ref_axis',(1.,0.,0.));
#925=DIRECTION('center_axis',(0.,-1.,0.));
#926=DIRECTION('ref_axis',(1.,0.,0.));
#927=DIRECTION('center_axis',(0.,-1.,0.));
#928=DIRECTION('ref_axis',(1.,0.,0.));
#929=DIRECTION('center_axis',(0.,-1.,0.));
#930=DIRECTION('ref_axis',(1.,0.,0.));
#931=DIRECTION('center_axis',(0.,-1.,0.));
#932=DIRECTION('ref_axis',(1.,0.,0.));
#933=DIRECTION('center_axis',(0.,-1.,0.));
#934=DIRECTION('ref_axis',(1.,0.,0.));
#935=DIRECTION('center_axis',(0.,1.,0.));
#936=DIRECTION('ref_axis',(1.,0.,0.));
#937=DIRECTION('center_axis',(0.,-1.,0.));
#938=DIRECTION('ref_axis',(-1.,0.,0.));
#939=DIRECTION('',(0.766044443118978,0.,0.642787609686539));
#940=DIRECTION('',(0.642787609686539,0.,-0.766044443118978));
#941=DIRECTION('',(-0.766044443118978,0.,-0.642787609686539));
#942=DIRECTION('',(-0.642787609686539,0.,0.766044443118978));
#943=DIRECTION('center_axis',(0.,-1.,0.));
#944=DIRECTION('ref_axis',(1.,0.,0.));
#945=DIRECTION('center_axis',(0.,1.,0.));
#946=DIRECTION('ref_axis',(1.,0.,0.));
#947=DIRECTION('center_axis',(0.,1.,0.));
#948=DIRECTION('ref_axis',(1.,0.,0.));
#949=DIRECTION('center_axis',(0.,1.,0.));
#950=DIRECTION('ref_axis',(1.,0.,0.));
#951=DIRECTION('center_axis',(0.,1.,0.));
#952=DIRECTION('ref_axis',(1.,0.,0.));
#953=DIRECTION('center_axis',(0.,1.,0.));
#954=DIRECTION('ref_axis',(1.,0.,0.));
#955=DIRECTION('center_axis',(0.,1.,0.));
#956=DIRECTION('ref_axis',(1.,0.,0.));
#957=DIRECTION('center_axis',(-0.642787609686539,0.,0.766044443118978));
#958=DIRECTION('ref_axis',(0.,1.,0.));
#959=DIRECTION('',(0.,1.,0.));
#960=DIRECTION('',(-0.766044443118978,0.,-0.642787609686539));
#961=DIRECTION('',(0.,1.,0.));
#962=DIRECTION('center_axis',(0.766044443118978,0.,0.642787609686539));
#963=DIRECTION('ref_axis',(0.,-1.,0.));
#964=DIRECTION('',(-0.642787609686539,0.,0.766044443118978));
#965=DIRECTION('',(0.,1.,0.));
#966=DIRECTION('center_axis',(0.,-1.,0.));
#967=DIRECTION('ref_axis',(-0.766044443118978,0.,-0.642787609686539));
#968=DIRECTION('',(0.642787609686539,0.,-0.766044443118978));
#969=DIRECTION('',(0.766044443118978,0.,0.642787609686539));
#970=DIRECTION('center_axis',(0.642787609686539,0.,-0.766044443118978));
#971=DIRECTION('ref_axis',(0.,-1.,0.));
#972=DIRECTION('',(0.,1.,0.));
#973=DIRECTION('center_axis',(-0.766044443118978,0.,-0.642787609686539));
#974=DIRECTION('ref_axis',(0.,1.,0.));
#975=DIRECTION('center_axis',(0.,1.,0.));
#976=DIRECTION('ref_axis',(1.,0.,0.));
#977=DIRECTION('',(0.,1.,0.));
#978=DIRECTION('center_axis',(0.,-1.,0.));
#979=DIRECTION('ref_axis',(1.,0.,0.));
#980=DIRECTION('center_axis',(0.,1.,0.));
#981=DIRECTION('ref_axis',(1.,0.,0.));
#982=DIRECTION('',(0.,1.,0.));
#983=DIRECTION('center_axis',(0.,-1.,0.));
#984=DIRECTION('ref_axis',(1.,0.,0.));
#985=DIRECTION('center_axis',(0.,1.,0.));
#986=DIRECTION('ref_axis',(1.,0.,0.));
#987=DIRECTION('',(0.,1.,0.));
#988=DIRECTION('center_axis',(0.,-1.,0.));
#989=DIRECTION('ref_axis',(1.,0.,0.));
#990=DIRECTION('center_axis',(0.,1.,0.));
#991=DIRECTION('ref_axis',(1.,0.,0.));
#992=DIRECTION('center_axis',(0.,1.,0.));
#993=DIRECTION('ref_axis',(1.,0.,0.));
#994=DIRECTION('',(0.,1.,0.));
#995=DIRECTION('center_axis',(0.,1.,0.));
#996=DIRECTION('ref_axis',(1.,0.,0.));
#997=DIRECTION('center_axis',(0.,1.,0.));
#998=DIRECTION('ref_axis',(1.,0.,0.));
#999=DIRECTION('',(0.,1.,0.));
#1000=DIRECTION('center_axis',(0.,1.,0.));
#1001=DIRECTION('ref_axis',(1.,0.,0.));
#1002=DIRECTION('center_axis',(0.,1.,0.));
#1003=DIRECTION('ref_axis',(1.,0.,0.));
#1004=DIRECTION('',(0.,1.,0.));
#1005=DIRECTION('center_axis',(0.,1.,0.));
#1006=DIRECTION('ref_axis',(1.,0.,0.));
#1007=DIRECTION('center_axis',(0.,1.,0.));
#1008=DIRECTION('ref_axis',(1.,0.,0.));
#1009=DIRECTION('',(0.,1.,0.));
#1010=DIRECTION('center_axis',(0.,1.,0.));
#1011=DIRECTION('ref_axis',(1.,0.,0.));
#1012=DIRECTION('center_axis',(0.,1.,0.));
#1013=DIRECTION('ref_axis',(1.,0.,0.));
#1014=DIRECTION('',(0.,1.,0.));
#1015=DIRECTION('center_axis',(0.,1.,0.));
#1016=DIRECTION('ref_axis',(1.,0.,0.));
#1017=DIRECTION('center_axis',(0.,1.,0.));
#1018=DIRECTION('ref_axis',(1.,0.,0.));
#1019=DIRECTION('',(0.,1.,0.));
#1020=DIRECTION('center_axis',(0.,1.,0.));
#1021=DIRECTION('ref_axis',(1.,0.,0.));
#1022=DIRECTION('',(0.,1.,0.));
#1023=DIRECTION('center_axis',(0.,-1.,0.));
#1024=DIRECTION('ref_axis',(1.,0.,0.));
#1025=DIRECTION('center_axis',(0.,1.,0.));
#1026=DIRECTION('ref_axis',(1.,0.,0.));
#1027=DIRECTION('',(0.,1.,0.));
#1028=DIRECTION('center_axis',(0.,-1.,0.));
#1029=DIRECTION('ref_axis',(1.,0.,0.));
#1030=DIRECTION('center_axis',(0.,1.,0.));
#1031=DIRECTION('ref_axis',(1.,0.,0.));
#1032=DIRECTION('',(0.,1.,0.));
#1033=DIRECTION('center_axis',(0.,-1.,0.));
#1034=DIRECTION('ref_axis',(1.,0.,0.));
#1035=DIRECTION('center_axis',(0.,-1.,0.));
#1036=DIRECTION('ref_axis',(-1.,0.,0.));
#1037=DIRECTION('center_axis',(0.,1.,0.));
#1038=DIRECTION('ref_axis',(1.,0.,0.));
#1039=DIRECTION('center_axis',(0.,1.,0.));
#1040=DIRECTION('ref_axis',(1.,0.,0.));
#1041=DIRECTION('center_axis',(0.,-1.,0.));
#1042=DIRECTION('ref_axis',(1.,0.,0.));
#1043=DIRECTION('center_axis',(0.,1.,0.));
#1044=DIRECTION('ref_axis',(1.,0.,0.));
#1045=DIRECTION('',(0.,1.,0.));
#1046=DIRECTION('center_axis',(0.,-1.,0.));
#1047=DIRECTION('ref_axis',(1.,0.,0.));
#1048=DIRECTION('center_axis',(0.,0.,-1.));
#1049=DIRECTION('ref_axis',(1.,0.,0.));
#1050=DIRECTION('',(0.,0.,-1.));
#1051=DIRECTION('',(0.,0.,-1.));
#1052=DIRECTION('',(0.,0.,1.));
#1053=DIRECTION('center_axis',(0.,0.,-1.));
#1054=DIRECTION('ref_axis',(1.,0.,0.));
#1055=DIRECTION('',(0.,0.,-1.));
#1056=DIRECTION('center_axis',(0.,-1.,0.));
#1057=DIRECTION('ref_axis',(-1.,0.,0.));
#1058=DIRECTION('center_axis',(0.,-1.,0.));
#1059=DIRECTION('ref_axis',(1.,0.,0.));
#1060=DIRECTION('center_axis',(0.,1.,0.));
#1061=DIRECTION('ref_axis',(1.,0.,0.));
#1062=DIRECTION('center_axis',(0.,1.,0.));
#1063=DIRECTION('ref_axis',(1.,0.,0.));
#1064=DIRECTION('',(0.,1.,0.));
#1065=DIRECTION('center_axis',(0.,1.,0.));
#1066=DIRECTION('ref_axis',(1.,0.,0.));
#1067=DIRECTION('center_axis',(0.,1.,0.));
#1068=DIRECTION('ref_axis',(1.,0.,0.));
#1069=DIRECTION('center_axis',(0.,1.,0.));
#1070=DIRECTION('ref_axis',(1.,0.,0.));
#1071=DIRECTION('center_axis',(0.,1.,0.));
#1072=DIRECTION('ref_axis',(1.,0.,0.));
#1073=DIRECTION('',(0.,1.,0.));
#1074=DIRECTION('center_axis',(0.,-1.,0.));
#1075=DIRECTION('ref_axis',(1.,0.,0.));
#1076=DIRECTION('center_axis',(0.,-1.,0.));
#1077=DIRECTION('ref_axis',(1.,0.,0.));
#1078=DIRECTION('center_axis',(0.,1.,0.));
#1079=DIRECTION('ref_axis',(1.,0.,0.));
#1080=DIRECTION('center_axis',(0.,-1.,0.));
#1081=DIRECTION('ref_axis',(1.,0.,0.));
#1082=DIRECTION('',(0.,-1.,0.));
#1083=DIRECTION('center_axis',(0.,-1.,0.));
#1084=DIRECTION('ref_axis',(-1.,0.,0.));
#1085=DIRECTION('center_axis',(0.,-1.,0.));
#1086=DIRECTION('ref_axis',(1.,0.,0.));
#1087=DIRECTION('center_axis',(0.,1.,0.));
#1088=DIRECTION('ref_axis',(1.,0.,0.));
#1089=DIRECTION('',(0.,-1.,0.));
#1090=DIRECTION('center_axis',(0.,1.,0.));
#1091=DIRECTION('ref_axis',(1.,0.,0.));
#1092=DIRECTION('',(0.,-1.,0.));
#1093=DIRECTION('center_axis',(0.,1.,0.));
#1094=DIRECTION('ref_axis',(1.,0.,0.));
#1095=DIRECTION('center_axis',(0.,1.,0.));
#1096=DIRECTION('ref_axis',(1.,0.,0.));
#1097=DIRECTION('',(0.,-1.,0.));
#1098=DIRECTION('center_axis',(0.,1.,0.));
#1099=DIRECTION('ref_axis',(1.,0.,0.));
#1100=DIRECTION('center_axis',(0.,1.,0.));
#1101=DIRECTION('ref_axis',(1.,0.,0.));
#1102=DIRECTION('center_axis',(0.,1.,0.));
#1103=DIRECTION('ref_axis',(1.,0.,0.));
#1104=DIRECTION('center_axis',(0.,1.,0.));
#1105=DIRECTION('ref_axis',(1.,0.,0.));
#1106=DIRECTION('',(0.,-1.,0.));
#1107=DIRECTION('center_axis',(0.,1.,0.));
#1108=DIRECTION('ref_axis',(1.,0.,0.));
#1109=DIRECTION('center_axis',(0.,-1.,0.));
#1110=DIRECTION('ref_axis',(1.,0.,0.));
#1111=DIRECTION('center_axis',(0.,1.,0.));
#1112=DIRECTION('ref_axis',(1.,0.,0.));
#1113=DIRECTION('center_axis',(0.,1.,0.));
#1114=DIRECTION('ref_axis',(1.,0.,0.));
#1115=DIRECTION('',(0.,1.,0.));
#1116=DIRECTION('center_axis',(0.,1.,0.));
#1117=DIRECTION('ref_axis',(1.,0.,0.));
#1118=DIRECTION('center_axis',(0.,1.,0.));
#1119=DIRECTION('ref_axis',(1.,0.,0.));
#1120=DIRECTION('center_axis',(0.,1.,0.));
#1121=DIRECTION('ref_axis',(1.,0.,0.));
#1122=DIRECTION('',(0.,1.,0.));
#1123=DIRECTION('center_axis',(0.,1.,0.));
#1124=DIRECTION('ref_axis',(1.,0.,0.));
#1125=DIRECTION('center_axis',(0.,-1.,0.));
#1126=DIRECTION('ref_axis',(-1.,0.,0.));
#1127=DIRECTION('center_axis',(0.,1.,0.));
#1128=DIRECTION('ref_axis',(1.,0.,0.));
#1129=DIRECTION('center_axis',(0.,-1.,0.));
#1130=DIRECTION('ref_axis',(1.,0.,0.));
#1131=DIRECTION('',(0.,1.,0.));
#1132=DIRECTION('center_axis',(0.,1.,0.));
#1133=DIRECTION('ref_axis',(1.,0.,0.));
#1134=DIRECTION('center_axis',(0.,-1.,0.));
#1135=DIRECTION('ref_axis',(-1.,0.,0.));
#1136=DIRECTION('center_axis',(0.,1.,0.));
#1137=DIRECTION('ref_axis',(1.,0.,0.));
#1138=CARTESIAN_POINT('',(0.,0.,0.));
#1139=CARTESIAN_POINT('Origin',(270.,-24.975,240.));
#1140=CARTESIAN_POINT('',(225.,-22.,240.));
#1141=CARTESIAN_POINT('Origin',(270.,-22.,240.));
#1142=CARTESIAN_POINT('',(225.,-28.95,240.));
#1143=CARTESIAN_POINT('',(225.,-24.975,240.));
#1144=CARTESIAN_POINT('Origin',(270.,-28.95,240.));
#1145=CARTESIAN_POINT('Origin',(270.,-28.95,240.));
#1146=CARTESIAN_POINT('',(224.,-28.95,240.));
#1147=CARTESIAN_POINT('Origin',(270.,-28.95,240.));
#1148=CARTESIAN_POINT('Origin',(270.,24.975,240.));
#1149=CARTESIAN_POINT('',(225.,28.95,240.));
#1150=CARTESIAN_POINT('Origin',(270.,28.95,240.));
#1151=CARTESIAN_POINT('',(225.,22.,240.));
#1152=CARTESIAN_POINT('',(225.,24.975,240.));
#1153=CARTESIAN_POINT('Origin',(270.,22.,240.));
#1154=CARTESIAN_POINT('Origin',(270.,28.95,240.));
#1155=CARTESIAN_POINT('',(224.,28.95,240.));
#1156=CARTESIAN_POINT('Origin',(270.,28.95,240.));
#1157=CARTESIAN_POINT('Origin',(270.,-22.,240.));
#1158=CARTESIAN_POINT('',(247.3,-22.,205.358983848622));
#1159=CARTESIAN_POINT('Origin',(250.,-22.,205.358983848622));
#1160=CARTESIAN_POINT('',(247.3,-22.,274.641016151378));
#1161=CARTESIAN_POINT('Origin',(250.,-22.,274.641016151378));
#1162=CARTESIAN_POINT('',(307.3,-22.,240.));
#1163=CARTESIAN_POINT('Origin',(310.,-22.,240.));
#1164=CARTESIAN_POINT('',(287.3,-22.,274.641016151378));
#1165=CARTESIAN_POINT('Origin',(290.,-22.,274.641016151378));
#1166=CARTESIAN_POINT('',(227.3,-22.,240.));
#1167=CARTESIAN_POINT('Origin',(230.,-22.,240.));
#1168=CARTESIAN_POINT('',(287.3,-22.,205.358983848622));
#1169=CARTESIAN_POINT('Origin',(290.,-22.,205.358983848622));
#1170=CARTESIAN_POINT('',(235.,-22.,240.));
#1171=CARTESIAN_POINT('Origin',(270.,-22.,240.));
#1172=CARTESIAN_POINT('Origin',(270.,22.,240.));
#1173=CARTESIAN_POINT('',(230.862026181954,22.,220.213413497575));
#1174=CARTESIAN_POINT('',(234.462435064613,22.,223.234515263101));
#1175=CARTESIAN_POINT('',(248.117177263209,22.,234.692204405764));
#1176=CARTESIAN_POINT('',(247.318187258344,22.,207.913626400722));
#1177=CARTESIAN_POINT('',(240.890311161479,22.,215.574070831912));
#1178=CARTESIAN_POINT('',(243.717778375685,22.,204.892524635195));
#1179=CARTESIAN_POINT('',(260.97292945694,22.,219.371315543384));
#1180=CARTESIAN_POINT('',(237.28990227882,22.,212.552969066385));
#1181=CARTESIAN_POINT('',(235.,22.,240.));
#1182=CARTESIAN_POINT('Origin',(270.,22.,240.));
#1183=CARTESIAN_POINT('',(287.3,22.,205.358983848622));
#1184=CARTESIAN_POINT('Origin',(290.,22.,205.358983848622));
#1185=CARTESIAN_POINT('',(227.3,22.,240.));
#1186=CARTESIAN_POINT('Origin',(230.,22.,240.));
#1187=CARTESIAN_POINT('',(287.3,22.,274.641016151378));
#1188=CARTESIAN_POINT('Origin',(290.,22.,274.641016151378));
#1189=CARTESIAN_POINT('',(307.3,22.,240.));
#1190=CARTESIAN_POINT('Origin',(310.,22.,240.));
#1191=CARTESIAN_POINT('',(247.3,22.,274.641016151378));
#1192=CARTESIAN_POINT('Origin',(250.,22.,274.641016151378));
#1193=CARTESIAN_POINT('',(247.3,22.,205.358983848622));
#1194=CARTESIAN_POINT('Origin',(250.,22.,205.358983848622));
#1195=CARTESIAN_POINT('Origin',(245.517982817015,20.,206.403075517958));
#1196=CARTESIAN_POINT('',(247.318187258344,25.,207.913626400722));
#1197=CARTESIAN_POINT('',(247.318187258344,20.,207.913626400722));
#1198=CARTESIAN_POINT('',(243.717778375685,25.,204.892524635195));
#1199=CARTESIAN_POINT('',(245.517982817015,25.,206.403075517958));
#1200=CARTESIAN_POINT('',(243.717778375685,20.,204.892524635195));
#1201=CARTESIAN_POINT('Origin',(237.28990227882,20.,212.552969066385));
#1202=CARTESIAN_POINT('',(230.862026181954,25.,220.213413497575));
#1203=CARTESIAN_POINT('',(237.28990227882,25.,212.552969066385));
#1204=CARTESIAN_POINT('',(230.862026181954,20.,220.213413497575));
#1205=CARTESIAN_POINT('Origin',(239.090106720149,25.,214.063519949148));
#1206=CARTESIAN_POINT('',(234.462435064613,25.,223.234515263101));
#1207=CARTESIAN_POINT('',(240.890311161479,25.,215.574070831912));
#1208=CARTESIAN_POINT('',(232.662230623284,25.,221.723964380338));
#1209=CARTESIAN_POINT('Origin',(232.662230623284,20.,221.723964380338));
#1210=CARTESIAN_POINT('',(234.462435064613,20.,223.234515263101));
#1211=CARTESIAN_POINT('Origin',(240.890311161479,20.,215.574070831912));
#1212=CARTESIAN_POINT('Origin',(250.,26.,205.358983848622));
#1213=CARTESIAN_POINT('',(247.3,30.,205.358983848622));
#1214=CARTESIAN_POINT('',(247.3,26.,205.358983848622));
#1215=CARTESIAN_POINT('Origin',(250.,30.,205.358983848622));
#1216=CARTESIAN_POINT('Origin',(250.,26.,274.641016151378));
#1217=CARTESIAN_POINT('',(247.3,30.,274.641016151378));
#1218=CARTESIAN_POINT('',(247.3,26.,274.641016151378));
#1219=CARTESIAN_POINT('Origin',(250.,30.,274.641016151378));
#1220=CARTESIAN_POINT('Origin',(310.,26.,240.));
#1221=CARTESIAN_POINT('',(307.3,30.,240.));
#1222=CARTESIAN_POINT('',(307.3,26.,240.));
#1223=CARTESIAN_POINT('Origin',(310.,30.,240.));
#1224=CARTESIAN_POINT('Origin',(250.,-26.,205.358983848622));
#1225=CARTESIAN_POINT('',(247.3,-30.,205.358983848622));
#1226=CARTESIAN_POINT('Origin',(250.,-30.,205.358983848622));
#1227=CARTESIAN_POINT('',(247.3,-26.,205.358983848622));
#1228=CARTESIAN_POINT('Origin',(250.,-26.,274.641016151378));
#1229=CARTESIAN_POINT('',(247.3,-30.,274.641016151378));
#1230=CARTESIAN_POINT('Origin',(250.,-30.,274.641016151378));
#1231=CARTESIAN_POINT('',(247.3,-26.,274.641016151378));
#1232=CARTESIAN_POINT('Origin',(310.,-26.,240.));
#1233=CARTESIAN_POINT('',(307.3,-30.,240.));
#1234=CARTESIAN_POINT('Origin',(310.,-30.,240.));
#1235=CARTESIAN_POINT('',(307.3,-26.,240.));
#1236=CARTESIAN_POINT('Origin',(290.,-26.,274.641016151378));
#1237=CARTESIAN_POINT('',(287.3,-30.,274.641016151378));
#1238=CARTESIAN_POINT('Origin',(290.,-30.,274.641016151378));
#1239=CARTESIAN_POINT('',(287.3,-26.,274.641016151378));
#1240=CARTESIAN_POINT('Origin',(230.,-26.,240.));
#1241=CARTESIAN_POINT('',(227.3,-30.,240.));
#1242=CARTESIAN_POINT('Origin',(230.,-30.,240.));
#1243=CARTESIAN_POINT('',(227.3,-26.,240.));
#1244=CARTESIAN_POINT('Origin',(290.,-26.,205.358983848622));
#1245=CARTESIAN_POINT('',(287.3,-30.,205.358983848622));
#1246=CARTESIAN_POINT('Origin',(290.,-30.,205.358983848622));
#1247=CARTESIAN_POINT('',(287.3,-26.,205.358983848622));
#1248=CARTESIAN_POINT('Origin',(290.,26.,274.641016151378));
#1249=CARTESIAN_POINT('',(287.3,30.,274.641016151378));
#1250=CARTESIAN_POINT('',(287.3,26.,274.641016151378));
#1251=CARTESIAN_POINT('Origin',(290.,30.,274.641016151378));
#1252=CARTESIAN_POINT('Origin',(230.,26.,240.));
#1253=CARTESIAN_POINT('',(227.3,30.,240.));
#1254=CARTESIAN_POINT('',(227.3,26.,240.));
#1255=CARTESIAN_POINT('Origin',(230.,30.,240.));
#1256=CARTESIAN_POINT('Origin',(290.,26.,205.358983848622));
#1257=CARTESIAN_POINT('',(287.3,30.,205.358983848622));
#1258=CARTESIAN_POINT('',(287.3,26.,205.358983848622));
#1259=CARTESIAN_POINT('Origin',(290.,30.,205.358983848622));
#1260=CARTESIAN_POINT('Origin',(270.,-30.,240.));
#1261=CARTESIAN_POINT('',(257.5,-30.,240.));
#1262=CARTESIAN_POINT('Origin',(270.,-30.,240.));
#1263=CARTESIAN_POINT('Origin',(270.,30.,240.));
#1264=CARTESIAN_POINT('',(262.8,30.,240.));
#1265=CARTESIAN_POINT('Origin',(270.,30.,240.));
#1266=CARTESIAN_POINT('Origin',(270.,0.,240.));
#1267=CARTESIAN_POINT('',(262.8,43.,240.));
#1268=CARTESIAN_POINT('',(262.8,0.,240.));
#1269=CARTESIAN_POINT('Origin',(270.,43.,240.));
#1270=CARTESIAN_POINT('Origin',(270.,-42.,257.));
#1271=CARTESIAN_POINT('',(267.85,-42.,257.266658622907));
#1272=CARTESIAN_POINT('Ctrl Pts',(267.85,-42.,257.266658622907));
#1273=CARTESIAN_POINT('Ctrl Pts',(267.85,-41.7297434032756,257.266658622907));
#1274=CARTESIAN_POINT('Ctrl Pts',(267.90406745894,-41.4416635603255,257.273658297894));
#1275=CARTESIAN_POINT('Ctrl Pts',(268.123568257098,-40.912030880095,257.298878808826));
#1276=CARTESIAN_POINT('Ctrl Pts',(268.288986608779,-40.6704542321189,257.316728686915));
#1277=CARTESIAN_POINT('Ctrl Pts',(268.670452711231,-40.2889881296664,257.350186242904));
#1278=CARTESIAN_POINT('Ctrl Pts',(268.912030020695,-40.1235685866189,257.367976477179));
#1279=CARTESIAN_POINT('Ctrl Pts',(269.441664939509,-39.9040669140002,257.393060327208));
#1280=CARTESIAN_POINT('Ctrl Pts',(269.729745558268,-39.85,257.4));
#1281=CARTESIAN_POINT('Ctrl Pts',(270.270254441732,-39.85,257.4));
#1282=CARTESIAN_POINT('Ctrl Pts',(270.558335060491,-39.9040669140002,257.393060327208));
#1283=CARTESIAN_POINT('Ctrl Pts',(271.087969979305,-40.1235685866189,257.367976477179));
#1284=CARTESIAN_POINT('Ctrl Pts',(271.329547288769,-40.2889881296664,257.350186242904));
#1285=CARTESIAN_POINT('Ctrl Pts',(271.711013391221,-40.6704542321189,257.316728686915));
#1286=CARTESIAN_POINT('Ctrl Pts',(271.876431742902,-40.912030880095,257.298878808826));
#1287=CARTESIAN_POINT('Ctrl Pts',(272.09593254106,-41.4416635603255,257.273658297894));
#1288=CARTESIAN_POINT('Ctrl Pts',(272.15,-41.7297434032756,257.266658622907));
#1289=CARTESIAN_POINT('Ctrl Pts',(272.15,-42.2702565967244,257.266658622907));
#1290=CARTESIAN_POINT('Ctrl Pts',(272.09593254106,-42.5583364396745,257.273658297894));
#1291=CARTESIAN_POINT('Ctrl Pts',(271.876431742902,-43.087969119905,257.298878808826));
#1292=CARTESIAN_POINT('Ctrl Pts',(271.711013391221,-43.3295457678811,257.316728686915));
#1293=CARTESIAN_POINT('Ctrl Pts',(271.329547288769,-43.7110118703336,257.350186242904));
#1294=CARTESIAN_POINT('Ctrl Pts',(271.087969979305,-43.8764314133811,257.367976477179));
#1295=CARTESIAN_POINT('Ctrl Pts',(270.558335060491,-44.0959330859998,257.393060327208));
#1296=CARTESIAN_POINT('Ctrl Pts',(270.270254441732,-44.15,257.4));
#1297=CARTESIAN_POINT('Ctrl Pts',(269.729745558268,-44.15,257.4));
#1298=CARTESIAN_POINT('Ctrl Pts',(269.441664939509,-44.0959330859998,257.393060327208));
#1299=CARTESIAN_POINT('Ctrl Pts',(268.912030020695,-43.8764314133812,257.367976477179));
#1300=CARTESIAN_POINT('Ctrl Pts',(268.670452711231,-43.7110118703336,257.350186242904));
#1301=CARTESIAN_POINT('Ctrl Pts',(268.288986608779,-43.3295457678811,257.316728686915));
#1302=CARTESIAN_POINT('Ctrl Pts',(268.123568257098,-43.087969119905,257.298878808826));
#1303=CARTESIAN_POINT('Ctrl Pts',(267.90406745894,-42.5583364396745,257.273658297894));
#1304=CARTESIAN_POINT('Ctrl Pts',(267.85,-42.2702565967244,257.266658622907));
#1305=CARTESIAN_POINT('Ctrl Pts',(267.85,-42.,257.266658622907));
#1306=CARTESIAN_POINT('',(267.85,-42.,246.871499108637));
#1307=CARTESIAN_POINT('',(267.85,-42.,257.));
#1308=CARTESIAN_POINT('',(271.903286631067,-43.,246.943882199462));
#1309=CARTESIAN_POINT('Ctrl Pts',(271.903286631067,-43.,246.943882199462));
#1310=CARTESIAN_POINT('Ctrl Pts',(271.933187771059,-42.9430895600004,246.935686432546));
#1311=CARTESIAN_POINT('Ctrl Pts',(271.960625483921,-42.8846530477224,246.927958661414));
#1312=CARTESIAN_POINT('Ctrl Pts',(272.0953402843,-42.5604852836013,246.889313037066));
#1313=CARTESIAN_POINT('Ctrl Pts',(272.15,-42.2717970306152,246.871499108637));
#1314=CARTESIAN_POINT('Ctrl Pts',(272.15,-41.7282029693848,246.871499108637));
#1315=CARTESIAN_POINT('Ctrl Pts',(272.0953402843,-41.4395147163987,246.889313037066));
#1316=CARTESIAN_POINT('Ctrl Pts',(271.875432608981,-40.9103450986502,246.952397934848));
#1317=CARTESIAN_POINT('Ctrl Pts',(271.710265468776,-40.6697063096743,246.99662568772));
#1318=CARTESIAN_POINT('Ctrl Pts',(271.330349201223,-40.2897900421212,247.078695354154));
#1319=CARTESIAN_POINT('Ctrl Pts',(271.089687838527,-40.1245799072052,247.122045985095));
#1320=CARTESIAN_POINT('Ctrl Pts',(270.560436224175,-39.904640499605,247.183096117579));
#1321=CARTESIAN_POINT('Ctrl Pts',(270.271717615785,-39.85,247.2));
#1322=CARTESIAN_POINT('Ctrl Pts',(269.728282384215,-39.85,247.2));
#1323=CARTESIAN_POINT('Ctrl Pts',(269.439563775825,-39.904640499605,247.183096117579));
#1324=CARTESIAN_POINT('Ctrl Pts',(268.910312161473,-40.1245799072052,247.122045985095));
#1325=CARTESIAN_POINT('Ctrl Pts',(268.669650798777,-40.2897900421212,247.078695354154));
#1326=CARTESIAN_POINT('Ctrl Pts',(268.289734531224,-40.6697063096743,246.99662568772));
#1327=CARTESIAN_POINT('Ctrl Pts',(268.124567391019,-40.9103450986502,246.952397934848));
#1328=CARTESIAN_POINT('Ctrl Pts',(267.9046597157,-41.4395147163987,246.889313037066));
#1329=CARTESIAN_POINT('Ctrl Pts',(267.85,-41.7282029693848,246.871499108637));
#1330=CARTESIAN_POINT('Ctrl Pts',(267.85,-42.,246.871499108637));
#1331=CARTESIAN_POINT('',(271.903286631067,-43.,247.047517293345));
#1332=CARTESIAN_POINT('',(271.903286631067,-43.,257.));
#1333=CARTESIAN_POINT('',(268.096713368933,-43.,247.047517293345));
#1334=CARTESIAN_POINT('Ctrl Pts',(268.096713368933,-43.,247.047517293345));
#1335=CARTESIAN_POINT('Ctrl Pts',(268.199587244336,-43.1957984717411,247.075299910059));
#1336=CARTESIAN_POINT('Ctrl Pts',(268.332513333799,-43.3730724929014,247.108596247156));
#1337=CARTESIAN_POINT('Ctrl Pts',(268.669678215633,-43.7102373747355,247.180387445769));
#1338=CARTESIAN_POINT('Ctrl Pts',(268.910370146103,-43.875454220458,247.22313248387));
#1339=CARTESIAN_POINT('Ctrl Pts',(269.439634156971,-44.09537871485,247.283332081975));
#1340=CARTESIAN_POINT('Ctrl Pts',(269.72833129501,-44.15,247.3));
#1341=CARTESIAN_POINT('Ctrl Pts',(270.27166870499,-44.15,247.3));
#1342=CARTESIAN_POINT('Ctrl Pts',(270.560365843029,-44.09537871485,247.283332081975));
#1343=CARTESIAN_POINT('Ctrl Pts',(271.089629853897,-43.875454220458,247.22313248387));
#1344=CARTESIAN_POINT('Ctrl Pts',(271.330321784367,-43.7102373747355,247.180387445769));
#1345=CARTESIAN_POINT('Ctrl Pts',(271.667486666201,-43.3730724929014,247.108596247156));
#1346=CARTESIAN_POINT('Ctrl Pts',(271.800412755664,-43.1957984717411,247.075299910059));
#1347=CARTESIAN_POINT('Ctrl Pts',(271.903286631067,-43.,247.047517293345));
#1348=CARTESIAN_POINT('',(268.096713368933,-43.,246.943882199462));
#1349=CARTESIAN_POINT('',(268.096713368933,-43.,257.));
#1350=CARTESIAN_POINT('Ctrl Pts',(267.85,-42.,246.871499108637));
#1351=CARTESIAN_POINT('Ctrl Pts',(267.85,-42.2717970306152,246.871499108637));
#1352=CARTESIAN_POINT('Ctrl Pts',(267.9046597157,-42.5604852836013,246.889313037066));
#1353=CARTESIAN_POINT('Ctrl Pts',(268.039374516079,-42.8846530477224,246.927958661414));
#1354=CARTESIAN_POINT('Ctrl Pts',(268.066812228941,-42.9430895600004,246.935686432546));
#1355=CARTESIAN_POINT('Ctrl Pts',(268.096713368933,-43.,246.943882199462));
#1356=CARTESIAN_POINT('Origin',(270.,-52.,257.));
#1357=CARTESIAN_POINT('',(267.85,-52.,257.266658622907));
#1358=CARTESIAN_POINT('Ctrl Pts',(267.85,-52.,257.266658622907));
#1359=CARTESIAN_POINT('Ctrl Pts',(267.85,-51.7297434032756,257.266658622907));
#1360=CARTESIAN_POINT('Ctrl Pts',(267.90406745894,-51.4416635603255,257.273658297894));
#1361=CARTESIAN_POINT('Ctrl Pts',(268.123568257098,-50.912030880095,257.298878808826));
#1362=CARTESIAN_POINT('Ctrl Pts',(268.288986608779,-50.6704542321189,257.316728686915));
#1363=CARTESIAN_POINT('Ctrl Pts',(268.670452711231,-50.2889881296664,257.350186242904));
#1364=CARTESIAN_POINT('Ctrl Pts',(268.912030020695,-50.1235685866189,257.367976477179));
#1365=CARTESIAN_POINT('Ctrl Pts',(269.441664939509,-49.9040669140002,257.393060327208));
#1366=CARTESIAN_POINT('Ctrl Pts',(269.729745558268,-49.85,257.4));
#1367=CARTESIAN_POINT('Ctrl Pts',(270.270254441732,-49.85,257.4));
#1368=CARTESIAN_POINT('Ctrl Pts',(270.558335060491,-49.9040669140002,257.393060327208));
#1369=CARTESIAN_POINT('Ctrl Pts',(271.087969979305,-50.1235685866189,257.367976477179));
#1370=CARTESIAN_POINT('Ctrl Pts',(271.329547288769,-50.2889881296664,257.350186242904));
#1371=CARTESIAN_POINT('Ctrl Pts',(271.711013391221,-50.6704542321189,257.316728686915));
#1372=CARTESIAN_POINT('Ctrl Pts',(271.876431742902,-50.912030880095,257.298878808826));
#1373=CARTESIAN_POINT('Ctrl Pts',(272.09593254106,-51.4416635603255,257.273658297894));
#1374=CARTESIAN_POINT('Ctrl Pts',(272.15,-51.7297434032756,257.266658622907));
#1375=CARTESIAN_POINT('Ctrl Pts',(272.15,-52.2702565967244,257.266658622907));
#1376=CARTESIAN_POINT('Ctrl Pts',(272.09593254106,-52.5583364396745,257.273658297894));
#1377=CARTESIAN_POINT('Ctrl Pts',(271.876431742902,-53.087969119905,257.298878808826));
#1378=CARTESIAN_POINT('Ctrl Pts',(271.711013391221,-53.3295457678811,257.316728686915));
#1379=CARTESIAN_POINT('Ctrl Pts',(271.329547288769,-53.7110118703336,257.350186242904));
#1380=CARTESIAN_POINT('Ctrl Pts',(271.087969979305,-53.8764314133811,257.367976477179));
#1381=CARTESIAN_POINT('Ctrl Pts',(270.558335060491,-54.0959330859998,257.393060327208));
#1382=CARTESIAN_POINT('Ctrl Pts',(270.270254441732,-54.15,257.4));
#1383=CARTESIAN_POINT('Ctrl Pts',(269.729745558268,-54.15,257.4));
#1384=CARTESIAN_POINT('Ctrl Pts',(269.441664939509,-54.0959330859998,257.393060327208));
#1385=CARTESIAN_POINT('Ctrl Pts',(268.912030020695,-53.8764314133812,257.367976477179));
#1386=CARTESIAN_POINT('Ctrl Pts',(268.670452711231,-53.7110118703336,257.350186242904));
#1387=CARTESIAN_POINT('Ctrl Pts',(268.288986608779,-53.3295457678811,257.316728686915));
#1388=CARTESIAN_POINT('Ctrl Pts',(268.123568257098,-53.087969119905,257.298878808826));
#1389=CARTESIAN_POINT('Ctrl Pts',(267.90406745894,-52.5583364396745,257.273658297894));
#1390=CARTESIAN_POINT('Ctrl Pts',(267.85,-52.2702565967244,257.266658622907));
#1391=CARTESIAN_POINT('Ctrl Pts',(267.85,-52.,257.266658622907));
#1392=CARTESIAN_POINT('',(267.85,-52.,246.97620957254));
#1393=CARTESIAN_POINT('',(267.85,-52.,257.));
#1394=CARTESIAN_POINT('Ctrl Pts',(267.85,-52.,246.97620957254));
#1395=CARTESIAN_POINT('Ctrl Pts',(267.85,-52.2717436607882,246.97620957254));
#1396=CARTESIAN_POINT('Ctrl Pts',(267.904639440873,-52.5604122098164,246.993748521709));
#1397=CARTESIAN_POINT('Ctrl Pts',(268.12453398829,-53.0895988035831,247.055896895324));
#1398=CARTESIAN_POINT('Ctrl Pts',(268.289710214229,-53.3302693733309,247.099482346439));
#1399=CARTESIAN_POINT('Ctrl Pts',(268.669678215633,-53.7102373747355,247.180387445769));
#1400=CARTESIAN_POINT('Ctrl Pts',(268.910370146103,-53.875454220458,247.22313248387));
#1401=CARTESIAN_POINT('Ctrl Pts',(269.439634156971,-54.09537871485,247.283332081975));
#1402=CARTESIAN_POINT('Ctrl Pts',(269.72833129501,-54.15,247.3));
#1403=CARTESIAN_POINT('Ctrl Pts',(270.27166870499,-54.15,247.3));
#1404=CARTESIAN_POINT('Ctrl Pts',(270.560365843029,-54.0953787148501,247.283332081975));
#1405=CARTESIAN_POINT('Ctrl Pts',(271.089629853897,-53.875454220458,247.22313248387));
#1406=CARTESIAN_POINT('Ctrl Pts',(271.330321784367,-53.7102373747355,247.180387445769));
#1407=CARTESIAN_POINT('Ctrl Pts',(271.710289785771,-53.3302693733309,247.099482346439));
#1408=CARTESIAN_POINT('Ctrl Pts',(271.87546601171,-53.0895988035831,247.055896895324));
#1409=CARTESIAN_POINT('Ctrl Pts',(272.095360559127,-52.5604122098164,246.993748521709));
#1410=CARTESIAN_POINT('Ctrl Pts',(272.15,-52.2717436607882,246.97620957254));
#1411=CARTESIAN_POINT('Ctrl Pts',(272.15,-51.7282563392118,246.97620957254));
#1412=CARTESIAN_POINT('Ctrl Pts',(272.095360559127,-51.4395877901836,246.993748521709));
#1413=CARTESIAN_POINT('Ctrl Pts',(271.87546601171,-50.9104011964169,247.055896895324));
#1414=CARTESIAN_POINT('Ctrl Pts',(271.710289785771,-50.6697306266691,247.099482346439));
#1415=CARTESIAN_POINT('Ctrl Pts',(271.330321784367,-50.2897626252645,247.180387445769));
#1416=CARTESIAN_POINT('Ctrl Pts',(271.089629853897,-50.124545779542,247.22313248387));
#1417=CARTESIAN_POINT('Ctrl Pts',(270.560365843029,-49.90462128515,247.283332081975));
#1418=CARTESIAN_POINT('Ctrl Pts',(270.27166870499,-49.85,247.3));
#1419=CARTESIAN_POINT('Ctrl Pts',(269.72833129501,-49.85,247.3));
#1420=CARTESIAN_POINT('Ctrl Pts',(269.439634156971,-49.90462128515,247.283332081975));
#1421=CARTESIAN_POINT('Ctrl Pts',(268.910370146103,-50.124545779542,247.22313248387));
#1422=CARTESIAN_POINT('Ctrl Pts',(268.669678215633,-50.2897626252645,247.180387445769));
#1423=CARTESIAN_POINT('Ctrl Pts',(268.289710214229,-50.6697306266691,247.099482346439));
#1424=CARTESIAN_POINT('Ctrl Pts',(268.12453398829,-50.9104011964169,247.055896895324));
#1425=CARTESIAN_POINT('Ctrl Pts',(267.904639440873,-51.4395877901836,246.993748521709));
#1426=CARTESIAN_POINT('Ctrl Pts',(267.85,-51.7282563392118,246.97620957254));
#1427=CARTESIAN_POINT('Ctrl Pts',(267.85,-52.,246.97620957254));
#1428=CARTESIAN_POINT('Origin',(270.,-33.,240.));
#1429=CARTESIAN_POINT('',(257.5,-33.,240.));
#1430=CARTESIAN_POINT('Origin',(270.,-33.,240.));
#1431=CARTESIAN_POINT('',(262.8,-33.,240.));
#1432=CARTESIAN_POINT('Origin',(270.,-33.,240.));
#1433=CARTESIAN_POINT('Origin',(270.,-31.,240.));
#1434=CARTESIAN_POINT('',(257.5,-31.,240.));
#1435=CARTESIAN_POINT('Origin',(270.,-60.,240.));
#1436=CARTESIAN_POINT('',(252.6,-60.,240.));
#1437=CARTESIAN_POINT('Origin',(270.,-60.,240.));
#1438=CARTESIAN_POINT('',(262.7,-60.,240.));
#1439=CARTESIAN_POINT('Origin',(270.,-60.,240.));
#1440=CARTESIAN_POINT('Origin',(270.,-52.75,240.));
#1441=CARTESIAN_POINT('',(262.7,-43.,240.));
#1442=CARTESIAN_POINT('',(262.7,-52.75,240.));
#1443=CARTESIAN_POINT('Origin',(270.,-43.,240.));
#1444=CARTESIAN_POINT('Origin',(270.,-43.,240.));
#1445=CARTESIAN_POINT('Origin',(270.,0.,240.));
#1446=CARTESIAN_POINT('',(252.6,-30.,240.));
#1447=CARTESIAN_POINT('Origin',(270.,-30.,240.));
#1448=CARTESIAN_POINT('',(252.6,0.,240.));
#1449=CARTESIAN_POINT('Origin',(270.,-30.,240.));
#1450=CARTESIAN_POINT('',(224.,-30.,240.));
#1451=CARTESIAN_POINT('Origin',(270.,-30.,240.));
#1452=CARTESIAN_POINT('Origin',(270.,-29.5,240.));
#1453=CARTESIAN_POINT('',(224.,-29.5,240.));
#1454=CARTESIAN_POINT('Origin',(270.,0.,240.));
#1455=CARTESIAN_POINT('',(235.,0.,240.));
#1456=CARTESIAN_POINT('Origin',(270.,29.5,240.));
#1457=CARTESIAN_POINT('',(224.,30.,240.));
#1458=CARTESIAN_POINT('Origin',(270.,30.,240.));
#1459=CARTESIAN_POINT('',(224.,29.5,240.));
#1460=CARTESIAN_POINT('Origin',(270.,30.,240.));
#1461=CARTESIAN_POINT('',(252.6,30.,240.));
#1462=CARTESIAN_POINT('Origin',(270.,30.,240.));
#1463=CARTESIAN_POINT('Origin',(270.,0.,240.));
#1464=CARTESIAN_POINT('',(252.6,63.,240.));
#1465=CARTESIAN_POINT('Origin',(270.,63.,240.));
#1466=CARTESIAN_POINT('',(252.6,0.,240.));
#1467=CARTESIAN_POINT('Origin',(270.,63.,240.));
#1468=CARTESIAN_POINT('',(262.7,63.,240.));
#1469=CARTESIAN_POINT('Origin',(270.,63.,240.));
#1470=CARTESIAN_POINT('Origin',(270.,52.75,240.));
#1471=CARTESIAN_POINT('',(262.7,43.,240.));
#1472=CARTESIAN_POINT('Origin',(270.,43.,240.));
#1473=CARTESIAN_POINT('',(262.7,52.75,240.));
#1474=CARTESIAN_POINT('Origin',(270.,43.,240.));
#1475=CARTESIAN_POINT('Origin',(270.,0.,240.));
#1476=CARTESIAN_POINT('',(262.8,-43.,240.));
#1477=CARTESIAN_POINT('Origin',(270.,-43.,240.));
#1478=CARTESIAN_POINT('',(262.8,0.,240.));
#1479=CARTESIAN_POINT('Origin',(270.,-43.,240.));
#1480=CARTESIAN_POINT('Origin',(270.,-43.,240.));
#1481=CARTESIAN_POINT('Origin',(270.,0.,240.));
#1482=CARTESIAN_POINT('',(262.8,-22.,240.));
#1483=CARTESIAN_POINT('Origin',(270.,-22.,240.));
#1484=CARTESIAN_POINT('',(262.8,22.,240.));
#1485=CARTESIAN_POINT('',(262.8,0.,240.));
#1486=CARTESIAN_POINT('Origin',(270.,22.,240.));
#1487=CARTESIAN_POINT('Origin',(270.,22.,240.));
#1488=CARTESIAN_POINT('Origin',(270.,-22.,240.));
#1489=UNCERTAINTY_MEASURE_WITH_UNIT(LENGTH_MEASURE(0.01),#1493,
'DISTANCE_ACCURACY_VALUE',
'Maximum model space distance between geometric entities at asserted c
onnectivities');
#1490=UNCERTAINTY_MEASURE_WITH_UNIT(LENGTH_MEASURE(0.01),#1493,
'DISTANCE_ACCURACY_VALUE',
'Maximum model space distance between geometric entities at asserted c
onnectivities');
#1491=(
GEOMETRIC_REPRESENTATION_CONTEXT(3)
GLOBAL_UNCERTAINTY_ASSIGNED_CONTEXT((#1489))
GLOBAL_UNIT_ASSIGNED_CONTEXT((#1493,#1495,#1496))
REPRESENTATION_CONTEXT('','3D')
);
#1492=(
GEOMETRIC_REPRESENTATION_CONTEXT(3)
GLOBAL_UNCERTAINTY_ASSIGNED_CONTEXT((#1490))
GLOBAL_UNIT_ASSIGNED_CONTEXT((#1493,#1495,#1496))
REPRESENTATION_CONTEXT('','3D')
);
#1493=(
LENGTH_UNIT()
NAMED_UNIT(*)
SI_UNIT(.MILLI.,.METRE.)
);
#1494=(
LENGTH_UNIT()
NAMED_UNIT(*)
SI_UNIT($,.METRE.)
);
#1495=(
NAMED_UNIT(*)
PLANE_ANGLE_UNIT()
SI_UNIT($,.RADIAN.)
);
#1496=(
NAMED_UNIT(*)
SI_UNIT($,.STERADIAN.)
SOLID_ANGLE_UNIT()
);
#1497=SHAPE_DEFINITION_REPRESENTATION(#1498,#1499);
#1498=PRODUCT_DEFINITION_SHAPE('',$,#1501);
#1499=SHAPE_REPRESENTATION('',(#797),#1491);
#1500=PRODUCT_DEFINITION_CONTEXT('part definition',#1505,'design');
#1501=PRODUCT_DEFINITION('2026-08-31-16-24-07-793','EXPORT_TMP',#1502,#1500);
#1502=PRODUCT_DEFINITION_FORMATION('',$,#1507);
#1503=PRODUCT_RELATED_PRODUCT_CATEGORY('EXPORT_TMP','EXPORT_TMP',(#1507));
#1504=APPLICATION_PROTOCOL_DEFINITION('international standard',
'automotive_design',2009,#1505);
#1505=APPLICATION_CONTEXT(
'Core Data for Automotive Mechanical Design Process');
#1506=PRODUCT_CONTEXT('part definition',#1505,'mechanical');
#1507=PRODUCT('2026-08-31-16-24-07-793','EXPORT_TMP',$,(#1506));
#1508=PRESENTATION_STYLE_ASSIGNMENT((#1509));
#1509=SURFACE_STYLE_USAGE(.BOTH.,#1510);
#1510=SURFACE_SIDE_STYLE('',(#1511));
#1511=SURFACE_STYLE_FILL_AREA(#1512);
#1512=FILL_AREA_STYLE('Steel - Satin',(#1513));
#1513=FILL_AREA_STYLE_COLOUR('Steel - Satin',#1514);
#1514=COLOUR_RGB('Steel - Satin',0.627450980392157,0.627450980392157,0.627450980392157);
ENDSEC;
END-ISO-10303-21;
