ISO-10303-21;
HEADER;
/* Generated by software containing ST-Developer
 * from STEP Tools, Inc. (www.steptools.com) 
 */

FILE_DESCRIPTION(
/* description */ (''),
/* implementation_level */ '2;1');

FILE_NAME(
/* name */ 'PRINT_V004_P302_ElbowCheek_Left.step',
/* time_stamp */ '2026-08-20T15:56:49+02:00',
/* author */ (''),
/* organization */ (''),
/* preprocessor_version */ 'ST-DEVELOPER v20.1',
/* originating_system */ 'Autodesk Translation Framework v15.8.0.0',
/* authorisation */ '');

FILE_SCHEMA (('AUTOMOTIVE_DESIGN { 1 0 10303 214 3 1 1 }'));
ENDSEC;

DATA;
#10=MECHANICAL_DESIGN_GEOMETRIC_PRESENTATION_REPRESENTATION('',(#13),#1218);
#11=SHAPE_REPRESENTATION_RELATIONSHIP('SRR','None',#1225,#12);
#12=ADVANCED_BREP_SHAPE_REPRESENTATION('',(#14),#1217);
#13=STYLED_ITEM('',(#1234),#14);
#14=MANIFOLD_SOLID_BREP('PRINT_V004_P302_ElbowCheek_Left',#702);
#15=FACE_BOUND('',#85,.T.);
#16=FACE_BOUND('',#86,.T.);
#17=FACE_BOUND('',#87,.T.);
#18=FACE_BOUND('',#88,.T.);
#19=FACE_BOUND('',#89,.T.);
#20=FACE_BOUND('',#90,.T.);
#21=FACE_BOUND('',#91,.T.);
#22=FACE_BOUND('',#92,.T.);
#23=FACE_BOUND('',#96,.T.);
#24=FACE_BOUND('',#97,.T.);
#25=FACE_BOUND('',#98,.T.);
#26=FACE_BOUND('',#99,.T.);
#27=FACE_BOUND('',#100,.T.);
#28=FACE_BOUND('',#101,.T.);
#29=FACE_BOUND('',#102,.T.);
#30=FACE_BOUND('',#103,.T.);
#31=PLANE('',#734);
#32=PLANE('',#756);
#33=PLANE('',#782);
#34=PLANE('',#784);
#35=PLANE('',#787);
#36=PLANE('',#789);
#37=PLANE('',#790);
#38=PLANE('',#791);
#39=PLANE('',#793);
#40=PLANE('',#794);
#41=PLANE('',#795);
#42=PLANE('',#796);
#43=FACE_OUTER_BOUND('',#78,.T.);
#44=FACE_OUTER_BOUND('',#79,.T.);
#45=FACE_OUTER_BOUND('',#80,.T.);
#46=FACE_OUTER_BOUND('',#81,.T.);
#47=FACE_OUTER_BOUND('',#82,.T.);
#48=FACE_OUTER_BOUND('',#83,.T.);
#49=FACE_OUTER_BOUND('',#84,.T.);
#50=FACE_OUTER_BOUND('',#93,.T.);
#51=FACE_OUTER_BOUND('',#94,.T.);
#52=FACE_OUTER_BOUND('',#95,.T.);
#53=FACE_OUTER_BOUND('',#104,.T.);
#54=FACE_OUTER_BOUND('',#105,.T.);
#55=FACE_OUTER_BOUND('',#106,.T.);
#56=FACE_OUTER_BOUND('',#107,.T.);
#57=FACE_OUTER_BOUND('',#108,.T.);
#58=FACE_OUTER_BOUND('',#109,.T.);
#59=FACE_OUTER_BOUND('',#110,.T.);
#60=FACE_OUTER_BOUND('',#111,.T.);
#61=FACE_OUTER_BOUND('',#112,.T.);
#62=FACE_OUTER_BOUND('',#113,.T.);
#63=FACE_OUTER_BOUND('',#114,.T.);
#64=FACE_OUTER_BOUND('',#115,.T.);
#65=FACE_OUTER_BOUND('',#116,.T.);
#66=FACE_OUTER_BOUND('',#117,.T.);
#67=FACE_OUTER_BOUND('',#118,.T.);
#68=FACE_OUTER_BOUND('',#119,.T.);
#69=FACE_OUTER_BOUND('',#120,.T.);
#70=FACE_OUTER_BOUND('',#121,.T.);
#71=FACE_OUTER_BOUND('',#122,.T.);
#72=FACE_OUTER_BOUND('',#123,.T.);
#73=FACE_OUTER_BOUND('',#124,.T.);
#74=FACE_OUTER_BOUND('',#125,.T.);
#75=FACE_OUTER_BOUND('',#126,.T.);
#76=FACE_OUTER_BOUND('',#127,.T.);
#77=FACE_OUTER_BOUND('',#128,.T.);
#78=EDGE_LOOP('',(#446,#447,#448,#449));
#79=EDGE_LOOP('',(#450,#451,#452,#453));
#80=EDGE_LOOP('',(#454,#455,#456,#457));
#81=EDGE_LOOP('',(#458,#459,#460,#461));
#82=EDGE_LOOP('',(#462,#463,#464,#465));
#83=EDGE_LOOP('',(#466,#467,#468,#469));
#84=EDGE_LOOP('',(#470,#471,#472,#473,#474,#475,#476,#477));
#85=EDGE_LOOP('',(#478,#479,#480,#481,#482,#483,#484,#485,#486,#487,#488,
#489,#490,#491,#492,#493,#494,#495));
#86=EDGE_LOOP('',(#496));
#87=EDGE_LOOP('',(#497));
#88=EDGE_LOOP('',(#498));
#89=EDGE_LOOP('',(#499));
#90=EDGE_LOOP('',(#500));
#91=EDGE_LOOP('',(#501));
#92=EDGE_LOOP('',(#502));
#93=EDGE_LOOP('',(#503,#504,#505,#506));
#94=EDGE_LOOP('',(#507,#508,#509,#510));
#95=EDGE_LOOP('',(#511,#512,#513,#514,#515,#516,#517,#518));
#96=EDGE_LOOP('',(#519));
#97=EDGE_LOOP('',(#520));
#98=EDGE_LOOP('',(#521,#522,#523,#524,#525,#526,#527,#528,#529,#530,#531,
#532,#533,#534,#535,#536,#537,#538));
#99=EDGE_LOOP('',(#539));
#100=EDGE_LOOP('',(#540));
#101=EDGE_LOOP('',(#541));
#102=EDGE_LOOP('',(#542));
#103=EDGE_LOOP('',(#543));
#104=EDGE_LOOP('',(#544,#545,#546,#547));
#105=EDGE_LOOP('',(#548,#549,#550,#551));
#106=EDGE_LOOP('',(#552,#553,#554,#555));
#107=EDGE_LOOP('',(#556,#557,#558,#559));
#108=EDGE_LOOP('',(#560,#561,#562,#563));
#109=EDGE_LOOP('',(#564,#565,#566,#567));
#110=EDGE_LOOP('',(#568,#569,#570,#571));
#111=EDGE_LOOP('',(#572,#573,#574,#575));
#112=EDGE_LOOP('',(#576,#577,#578,#579));
#113=EDGE_LOOP('',(#580,#581,#582,#583));
#114=EDGE_LOOP('',(#584,#585,#586,#587));
#115=EDGE_LOOP('',(#588,#589,#590,#591));
#116=EDGE_LOOP('',(#592,#593,#594,#595));
#117=EDGE_LOOP('',(#596,#597,#598,#599));
#118=EDGE_LOOP('',(#600,#601,#602,#603));
#119=EDGE_LOOP('',(#604,#605,#606,#607));
#120=EDGE_LOOP('',(#608,#609,#610,#611));
#121=EDGE_LOOP('',(#612,#613,#614,#615));
#122=EDGE_LOOP('',(#616,#617,#618,#619));
#123=EDGE_LOOP('',(#620,#621,#622,#623));
#124=EDGE_LOOP('',(#624,#625,#626,#627));
#125=EDGE_LOOP('',(#628,#629,#630,#631));
#126=EDGE_LOOP('',(#632,#633,#634,#635));
#127=EDGE_LOOP('',(#636,#637,#638,#639));
#128=EDGE_LOOP('',(#640,#641,#642,#643));
#129=LINE('',#1019,#182);
#130=LINE('',#1025,#183);
#131=LINE('',#1031,#184);
#132=LINE('',#1037,#185);
#133=LINE('',#1043,#186);
#134=LINE('',#1048,#187);
#135=LINE('',#1052,#188);
#136=LINE('',#1059,#189);
#137=LINE('',#1061,#190);
#138=LINE('',#1065,#191);
#139=LINE('',#1069,#192);
#140=LINE('',#1070,#193);
#141=LINE('',#1074,#194);
#142=LINE('',#1078,#195);
#143=LINE('',#1080,#196);
#144=LINE('',#1082,#197);
#145=LINE('',#1086,#198);
#146=LINE('',#1111,#199);
#147=LINE('',#1114,#200);
#148=LINE('',#1116,#201);
#149=LINE('',#1123,#202);
#150=LINE('',#1125,#203);
#151=LINE('',#1129,#204);
#152=LINE('',#1133,#205);
#153=LINE('',#1134,#206);
#154=LINE('',#1155,#207);
#155=LINE('',#1159,#208);
#156=LINE('',#1161,#209);
#157=LINE('',#1163,#210);
#158=LINE('',#1166,#211);
#159=LINE('',#1168,#212);
#160=LINE('',#1170,#213);
#161=LINE('',#1172,#214);
#162=LINE('',#1173,#215);
#163=LINE('',#1176,#216);
#164=LINE('',#1178,#217);
#165=LINE('',#1180,#218);
#166=LINE('',#1182,#219);
#167=LINE('',#1184,#220);
#168=LINE('',#1186,#221);
#169=LINE('',#1187,#222);
#170=LINE('',#1189,#223);
#171=LINE('',#1191,#224);
#172=LINE('',#1192,#225);
#173=LINE('',#1195,#226);
#174=LINE('',#1197,#227);
#175=LINE('',#1199,#228);
#176=LINE('',#1200,#229);
#177=LINE('',#1202,#230);
#178=LINE('',#1205,#231);
#179=LINE('',#1208,#232);
#180=LINE('',#1210,#233);
#181=LINE('',#1212,#234);
#182=VECTOR('',#803,2.75);
#183=VECTOR('',#810,2.75);
#184=VECTOR('',#817,2.75);
#185=VECTOR('',#824,2.75);
#186=VECTOR('',#831,2.75);
#187=VECTOR('',#836,10.);
#188=VECTOR('',#839,10.);
#189=VECTOR('',#846,10.);
#190=VECTOR('',#847,10.);
#191=VECTOR('',#850,10.);
#192=VECTOR('',#853,10.);
#193=VECTOR('',#854,10.);
#194=VECTOR('',#857,10.);
#195=VECTOR('',#860,10.);
#196=VECTOR('',#861,10.);
#197=VECTOR('',#862,10.);
#198=VECTOR('',#865,10.);
#199=VECTOR('',#892,10.);
#200=VECTOR('',#895,10.);
#201=VECTOR('',#896,10.);
#202=VECTOR('',#903,10.);
#203=VECTOR('',#904,10.);
#204=VECTOR('',#907,10.);
#205=VECTOR('',#910,10.);
#206=VECTOR('',#911,10.);
#207=VECTOR('',#932,10.);
#208=VECTOR('',#935,10.);
#209=VECTOR('',#936,10.);
#210=VECTOR('',#937,10.);
#211=VECTOR('',#940,10.);
#212=VECTOR('',#943,10.);
#213=VECTOR('',#946,10.);
#214=VECTOR('',#949,10.);
#215=VECTOR('',#950,10.);
#216=VECTOR('',#955,10.);
#217=VECTOR('',#958,10.);
#218=VECTOR('',#961,10.);
#219=VECTOR('',#964,10.);
#220=VECTOR('',#967,10.);
#221=VECTOR('',#970,10.);
#222=VECTOR('',#971,10.);
#223=VECTOR('',#974,10.);
#224=VECTOR('',#977,10.);
#225=VECTOR('',#978,10.);
#226=VECTOR('',#983,2.2);
#227=VECTOR('',#986,2.2);
#228=VECTOR('',#989,10.);
#229=VECTOR('',#990,10.);
#230=VECTOR('',#993,10.);
#231=VECTOR('',#998,10.);
#232=VECTOR('',#1003,10.);
#233=VECTOR('',#1006,10.);
#234=VECTOR('',#1009,10.);
#235=CIRCLE('',#717,2.75);
#236=CIRCLE('',#718,2.75);
#237=CIRCLE('',#720,2.75);
#238=CIRCLE('',#721,2.75);
#239=CIRCLE('',#723,2.75);
#240=CIRCLE('',#724,2.75);
#241=CIRCLE('',#726,2.75);
#242=CIRCLE('',#727,2.75);
#243=CIRCLE('',#729,2.75);
#244=CIRCLE('',#730,2.75);
#245=CIRCLE('',#732,6.);
#246=CIRCLE('',#733,6.);
#247=CIRCLE('',#735,46.);
#248=CIRCLE('',#736,28.);
#249=CIRCLE('',#737,28.);
#250=CIRCLE('',#738,37.);
#251=CIRCLE('',#739,2.2);
#252=CIRCLE('',#740,2.2);
#253=CIRCLE('',#741,37.);
#254=CIRCLE('',#742,6.);
#255=CIRCLE('',#743,37.);
#256=CIRCLE('',#744,6.);
#257=CIRCLE('',#745,37.);
#258=CIRCLE('',#746,6.);
#259=CIRCLE('',#747,37.);
#260=CIRCLE('',#748,6.);
#261=CIRCLE('',#749,37.);
#262=CIRCLE('',#750,2.2);
#263=CIRCLE('',#751,2.2);
#264=CIRCLE('',#753,37.);
#265=CIRCLE('',#755,6.);
#266=CIRCLE('',#757,46.);
#267=CIRCLE('',#758,28.);
#268=CIRCLE('',#759,28.);
#269=CIRCLE('',#760,2.2);
#270=CIRCLE('',#761,2.2);
#271=CIRCLE('',#762,37.);
#272=CIRCLE('',#763,37.);
#273=CIRCLE('',#764,6.);
#274=CIRCLE('',#765,37.);
#275=CIRCLE('',#766,6.);
#276=CIRCLE('',#767,37.);
#277=CIRCLE('',#768,6.);
#278=CIRCLE('',#769,37.);
#279=CIRCLE('',#770,2.2);
#280=CIRCLE('',#771,2.2);
#281=VERTEX_POINT('',#1016);
#282=VERTEX_POINT('',#1018);
#283=VERTEX_POINT('',#1022);
#284=VERTEX_POINT('',#1024);
#285=VERTEX_POINT('',#1028);
#286=VERTEX_POINT('',#1030);
#287=VERTEX_POINT('',#1034);
#288=VERTEX_POINT('',#1036);
#289=VERTEX_POINT('',#1040);
#290=VERTEX_POINT('',#1042);
#291=VERTEX_POINT('',#1046);
#292=VERTEX_POINT('',#1047);
#293=VERTEX_POINT('',#1049);
#294=VERTEX_POINT('',#1051);
#295=VERTEX_POINT('',#1055);
#296=VERTEX_POINT('',#1056);
#297=VERTEX_POINT('',#1058);
#298=VERTEX_POINT('',#1060);
#299=VERTEX_POINT('',#1062);
#300=VERTEX_POINT('',#1064);
#301=VERTEX_POINT('',#1066);
#302=VERTEX_POINT('',#1068);
#303=VERTEX_POINT('',#1071);
#304=VERTEX_POINT('',#1073);
#305=VERTEX_POINT('',#1075);
#306=VERTEX_POINT('',#1077);
#307=VERTEX_POINT('',#1079);
#308=VERTEX_POINT('',#1081);
#309=VERTEX_POINT('',#1083);
#310=VERTEX_POINT('',#1085);
#311=VERTEX_POINT('',#1087);
#312=VERTEX_POINT('',#1089);
#313=VERTEX_POINT('',#1091);
#314=VERTEX_POINT('',#1093);
#315=VERTEX_POINT('',#1095);
#316=VERTEX_POINT('',#1097);
#317=VERTEX_POINT('',#1099);
#318=VERTEX_POINT('',#1101);
#319=VERTEX_POINT('',#1104);
#320=VERTEX_POINT('',#1106);
#321=VERTEX_POINT('',#1109);
#322=VERTEX_POINT('',#1113);
#323=VERTEX_POINT('',#1115);
#324=VERTEX_POINT('',#1119);
#325=VERTEX_POINT('',#1120);
#326=VERTEX_POINT('',#1122);
#327=VERTEX_POINT('',#1124);
#328=VERTEX_POINT('',#1126);
#329=VERTEX_POINT('',#1128);
#330=VERTEX_POINT('',#1130);
#331=VERTEX_POINT('',#1132);
#332=VERTEX_POINT('',#1135);
#333=VERTEX_POINT('',#1137);
#334=VERTEX_POINT('',#1140);
#335=VERTEX_POINT('',#1142);
#336=VERTEX_POINT('',#1144);
#337=VERTEX_POINT('',#1146);
#338=VERTEX_POINT('',#1148);
#339=VERTEX_POINT('',#1150);
#340=VERTEX_POINT('',#1152);
#341=VERTEX_POINT('',#1154);
#342=VERTEX_POINT('',#1156);
#343=VERTEX_POINT('',#1158);
#344=VERTEX_POINT('',#1160);
#345=VERTEX_POINT('',#1162);
#346=VERTEX_POINT('',#1164);
#347=EDGE_CURVE('',#281,#281,#235,.T.);
#348=EDGE_CURVE('',#281,#282,#129,.T.);
#349=EDGE_CURVE('',#282,#282,#236,.T.);
#350=EDGE_CURVE('',#283,#283,#237,.T.);
#351=EDGE_CURVE('',#283,#284,#130,.T.);
#352=EDGE_CURVE('',#284,#284,#238,.T.);
#353=EDGE_CURVE('',#285,#285,#239,.T.);
#354=EDGE_CURVE('',#285,#286,#131,.T.);
#355=EDGE_CURVE('',#286,#286,#240,.T.);
#356=EDGE_CURVE('',#287,#287,#241,.T.);
#357=EDGE_CURVE('',#287,#288,#132,.T.);
#358=EDGE_CURVE('',#288,#288,#242,.T.);
#359=EDGE_CURVE('',#289,#289,#243,.T.);
#360=EDGE_CURVE('',#289,#290,#133,.T.);
#361=EDGE_CURVE('',#290,#290,#244,.T.);
#362=EDGE_CURVE('',#291,#292,#134,.T.);
#363=EDGE_CURVE('',#293,#291,#245,.T.);
#364=EDGE_CURVE('',#294,#293,#135,.T.);
#365=EDGE_CURVE('',#292,#294,#246,.T.);
#366=EDGE_CURVE('',#295,#296,#247,.T.);
#367=EDGE_CURVE('',#297,#296,#136,.T.);
#368=EDGE_CURVE('',#297,#298,#137,.T.);
#369=EDGE_CURVE('',#298,#299,#248,.T.);
#370=EDGE_CURVE('',#299,#300,#138,.T.);
#371=EDGE_CURVE('',#300,#301,#249,.T.);
#372=EDGE_CURVE('',#301,#302,#139,.T.);
#373=EDGE_CURVE('',#295,#302,#140,.T.);
#374=EDGE_CURVE('',#294,#303,#250,.T.);
#375=EDGE_CURVE('',#303,#304,#141,.T.);
#376=EDGE_CURVE('',#304,#305,#251,.T.);
#377=EDGE_CURVE('',#305,#306,#142,.T.);
#378=EDGE_CURVE('',#306,#307,#143,.T.);
#379=EDGE_CURVE('',#307,#308,#144,.T.);
#380=EDGE_CURVE('',#308,#309,#252,.T.);
#381=EDGE_CURVE('',#309,#310,#145,.T.);
#382=EDGE_CURVE('',#310,#311,#253,.T.);
#383=EDGE_CURVE('',#311,#312,#254,.T.);
#384=EDGE_CURVE('',#312,#313,#255,.T.);
#385=EDGE_CURVE('',#313,#314,#256,.T.);
#386=EDGE_CURVE('',#314,#315,#257,.T.);
#387=EDGE_CURVE('',#315,#316,#258,.T.);
#388=EDGE_CURVE('',#316,#317,#259,.T.);
#389=EDGE_CURVE('',#317,#318,#260,.T.);
#390=EDGE_CURVE('',#318,#292,#261,.T.);
#391=EDGE_CURVE('',#319,#319,#262,.T.);
#392=EDGE_CURVE('',#320,#320,#263,.T.);
#393=EDGE_CURVE('',#321,#293,#264,.T.);
#394=EDGE_CURVE('',#321,#303,#146,.T.);
#395=EDGE_CURVE('',#318,#322,#147,.T.);
#396=EDGE_CURVE('',#323,#317,#148,.T.);
#397=EDGE_CURVE('',#322,#323,#265,.T.);
#398=EDGE_CURVE('',#324,#325,#266,.T.);
#399=EDGE_CURVE('',#326,#325,#149,.T.);
#400=EDGE_CURVE('',#327,#326,#150,.T.);
#401=EDGE_CURVE('',#327,#328,#267,.T.);
#402=EDGE_CURVE('',#328,#329,#151,.T.);
#403=EDGE_CURVE('',#329,#330,#268,.T.);
#404=EDGE_CURVE('',#331,#330,#152,.T.);
#405=EDGE_CURVE('',#324,#331,#153,.T.);
#406=EDGE_CURVE('',#332,#332,#269,.T.);
#407=EDGE_CURVE('',#333,#333,#270,.T.);
#408=EDGE_CURVE('',#291,#322,#271,.T.);
#409=EDGE_CURVE('',#323,#334,#272,.T.);
#410=EDGE_CURVE('',#334,#335,#273,.T.);
#411=EDGE_CURVE('',#335,#336,#274,.T.);
#412=EDGE_CURVE('',#336,#337,#275,.T.);
#413=EDGE_CURVE('',#337,#338,#276,.T.);
#414=EDGE_CURVE('',#338,#339,#277,.T.);
#415=EDGE_CURVE('',#339,#340,#278,.T.);
#416=EDGE_CURVE('',#340,#341,#154,.T.);
#417=EDGE_CURVE('',#341,#342,#279,.T.);
#418=EDGE_CURVE('',#342,#343,#155,.T.);
#419=EDGE_CURVE('',#343,#344,#156,.T.);
#420=EDGE_CURVE('',#344,#345,#157,.T.);
#421=EDGE_CURVE('',#345,#346,#280,.T.);
#422=EDGE_CURVE('',#346,#321,#158,.T.);
#423=EDGE_CURVE('',#316,#334,#159,.T.);
#424=EDGE_CURVE('',#335,#315,#160,.T.);
#425=EDGE_CURVE('',#295,#325,#161,.T.);
#426=EDGE_CURVE('',#324,#296,#162,.T.);
#427=EDGE_CURVE('',#314,#336,#163,.T.);
#428=EDGE_CURVE('',#337,#313,#164,.T.);
#429=EDGE_CURVE('',#312,#338,#165,.T.);
#430=EDGE_CURVE('',#339,#311,#166,.T.);
#431=EDGE_CURVE('',#310,#340,#167,.T.);
#432=EDGE_CURVE('',#342,#308,#168,.T.);
#433=EDGE_CURVE('',#309,#341,#169,.T.);
#434=EDGE_CURVE('',#343,#307,#170,.T.);
#435=EDGE_CURVE('',#346,#304,#171,.T.);
#436=EDGE_CURVE('',#305,#345,#172,.T.);
#437=EDGE_CURVE('',#333,#320,#173,.T.);
#438=EDGE_CURVE('',#332,#319,#174,.T.);
#439=EDGE_CURVE('',#300,#328,#175,.T.);
#440=EDGE_CURVE('',#329,#299,#176,.T.);
#441=EDGE_CURVE('',#301,#327,#177,.T.);
#442=EDGE_CURVE('',#306,#344,#178,.T.);
#443=EDGE_CURVE('',#330,#298,#179,.T.);
#444=EDGE_CURVE('',#331,#297,#180,.T.);
#445=EDGE_CURVE('',#302,#326,#181,.T.);
#446=ORIENTED_EDGE('',*,*,#347,.F.);
#447=ORIENTED_EDGE('',*,*,#348,.T.);
#448=ORIENTED_EDGE('',*,*,#349,.F.);
#449=ORIENTED_EDGE('',*,*,#348,.F.);
#450=ORIENTED_EDGE('',*,*,#350,.F.);
#451=ORIENTED_EDGE('',*,*,#351,.T.);
#452=ORIENTED_EDGE('',*,*,#352,.F.);
#453=ORIENTED_EDGE('',*,*,#351,.F.);
#454=ORIENTED_EDGE('',*,*,#353,.F.);
#455=ORIENTED_EDGE('',*,*,#354,.T.);
#456=ORIENTED_EDGE('',*,*,#355,.F.);
#457=ORIENTED_EDGE('',*,*,#354,.F.);
#458=ORIENTED_EDGE('',*,*,#356,.F.);
#459=ORIENTED_EDGE('',*,*,#357,.T.);
#460=ORIENTED_EDGE('',*,*,#358,.F.);
#461=ORIENTED_EDGE('',*,*,#357,.F.);
#462=ORIENTED_EDGE('',*,*,#359,.F.);
#463=ORIENTED_EDGE('',*,*,#360,.T.);
#464=ORIENTED_EDGE('',*,*,#361,.F.);
#465=ORIENTED_EDGE('',*,*,#360,.F.);
#466=ORIENTED_EDGE('',*,*,#362,.F.);
#467=ORIENTED_EDGE('',*,*,#363,.F.);
#468=ORIENTED_EDGE('',*,*,#364,.F.);
#469=ORIENTED_EDGE('',*,*,#365,.F.);
#470=ORIENTED_EDGE('',*,*,#366,.T.);
#471=ORIENTED_EDGE('',*,*,#367,.F.);
#472=ORIENTED_EDGE('',*,*,#368,.T.);
#473=ORIENTED_EDGE('',*,*,#369,.T.);
#474=ORIENTED_EDGE('',*,*,#370,.T.);
#475=ORIENTED_EDGE('',*,*,#371,.T.);
#476=ORIENTED_EDGE('',*,*,#372,.T.);
#477=ORIENTED_EDGE('',*,*,#373,.F.);
#478=ORIENTED_EDGE('',*,*,#374,.T.);
#479=ORIENTED_EDGE('',*,*,#375,.T.);
#480=ORIENTED_EDGE('',*,*,#376,.T.);
#481=ORIENTED_EDGE('',*,*,#377,.T.);
#482=ORIENTED_EDGE('',*,*,#378,.T.);
#483=ORIENTED_EDGE('',*,*,#379,.T.);
#484=ORIENTED_EDGE('',*,*,#380,.T.);
#485=ORIENTED_EDGE('',*,*,#381,.T.);
#486=ORIENTED_EDGE('',*,*,#382,.T.);
#487=ORIENTED_EDGE('',*,*,#383,.T.);
#488=ORIENTED_EDGE('',*,*,#384,.T.);
#489=ORIENTED_EDGE('',*,*,#385,.T.);
#490=ORIENTED_EDGE('',*,*,#386,.T.);
#491=ORIENTED_EDGE('',*,*,#387,.T.);
#492=ORIENTED_EDGE('',*,*,#388,.T.);
#493=ORIENTED_EDGE('',*,*,#389,.T.);
#494=ORIENTED_EDGE('',*,*,#390,.T.);
#495=ORIENTED_EDGE('',*,*,#365,.T.);
#496=ORIENTED_EDGE('',*,*,#391,.T.);
#497=ORIENTED_EDGE('',*,*,#392,.T.);
#498=ORIENTED_EDGE('',*,*,#361,.T.);
#499=ORIENTED_EDGE('',*,*,#358,.T.);
#500=ORIENTED_EDGE('',*,*,#355,.T.);
#501=ORIENTED_EDGE('',*,*,#352,.T.);
#502=ORIENTED_EDGE('',*,*,#349,.T.);
#503=ORIENTED_EDGE('',*,*,#364,.T.);
#504=ORIENTED_EDGE('',*,*,#393,.F.);
#505=ORIENTED_EDGE('',*,*,#394,.T.);
#506=ORIENTED_EDGE('',*,*,#374,.F.);
#507=ORIENTED_EDGE('',*,*,#395,.F.);
#508=ORIENTED_EDGE('',*,*,#389,.F.);
#509=ORIENTED_EDGE('',*,*,#396,.F.);
#510=ORIENTED_EDGE('',*,*,#397,.F.);
#511=ORIENTED_EDGE('',*,*,#398,.T.);
#512=ORIENTED_EDGE('',*,*,#399,.F.);
#513=ORIENTED_EDGE('',*,*,#400,.F.);
#514=ORIENTED_EDGE('',*,*,#401,.T.);
#515=ORIENTED_EDGE('',*,*,#402,.T.);
#516=ORIENTED_EDGE('',*,*,#403,.T.);
#517=ORIENTED_EDGE('',*,*,#404,.F.);
#518=ORIENTED_EDGE('',*,*,#405,.F.);
#519=ORIENTED_EDGE('',*,*,#406,.T.);
#520=ORIENTED_EDGE('',*,*,#407,.T.);
#521=ORIENTED_EDGE('',*,*,#408,.T.);
#522=ORIENTED_EDGE('',*,*,#397,.T.);
#523=ORIENTED_EDGE('',*,*,#409,.T.);
#524=ORIENTED_EDGE('',*,*,#410,.T.);
#525=ORIENTED_EDGE('',*,*,#411,.T.);
#526=ORIENTED_EDGE('',*,*,#412,.T.);
#527=ORIENTED_EDGE('',*,*,#413,.T.);
#528=ORIENTED_EDGE('',*,*,#414,.T.);
#529=ORIENTED_EDGE('',*,*,#415,.T.);
#530=ORIENTED_EDGE('',*,*,#416,.T.);
#531=ORIENTED_EDGE('',*,*,#417,.T.);
#532=ORIENTED_EDGE('',*,*,#418,.T.);
#533=ORIENTED_EDGE('',*,*,#419,.T.);
#534=ORIENTED_EDGE('',*,*,#420,.T.);
#535=ORIENTED_EDGE('',*,*,#421,.T.);
#536=ORIENTED_EDGE('',*,*,#422,.T.);
#537=ORIENTED_EDGE('',*,*,#393,.T.);
#538=ORIENTED_EDGE('',*,*,#363,.T.);
#539=ORIENTED_EDGE('',*,*,#359,.T.);
#540=ORIENTED_EDGE('',*,*,#356,.T.);
#541=ORIENTED_EDGE('',*,*,#353,.T.);
#542=ORIENTED_EDGE('',*,*,#350,.T.);
#543=ORIENTED_EDGE('',*,*,#347,.T.);
#544=ORIENTED_EDGE('',*,*,#396,.T.);
#545=ORIENTED_EDGE('',*,*,#388,.F.);
#546=ORIENTED_EDGE('',*,*,#423,.T.);
#547=ORIENTED_EDGE('',*,*,#409,.F.);
#548=ORIENTED_EDGE('',*,*,#424,.F.);
#549=ORIENTED_EDGE('',*,*,#410,.F.);
#550=ORIENTED_EDGE('',*,*,#423,.F.);
#551=ORIENTED_EDGE('',*,*,#387,.F.);
#552=ORIENTED_EDGE('',*,*,#366,.F.);
#553=ORIENTED_EDGE('',*,*,#425,.T.);
#554=ORIENTED_EDGE('',*,*,#398,.F.);
#555=ORIENTED_EDGE('',*,*,#426,.T.);
#556=ORIENTED_EDGE('',*,*,#362,.T.);
#557=ORIENTED_EDGE('',*,*,#390,.F.);
#558=ORIENTED_EDGE('',*,*,#395,.T.);
#559=ORIENTED_EDGE('',*,*,#408,.F.);
#560=ORIENTED_EDGE('',*,*,#424,.T.);
#561=ORIENTED_EDGE('',*,*,#386,.F.);
#562=ORIENTED_EDGE('',*,*,#427,.T.);
#563=ORIENTED_EDGE('',*,*,#411,.F.);
#564=ORIENTED_EDGE('',*,*,#427,.F.);
#565=ORIENTED_EDGE('',*,*,#385,.F.);
#566=ORIENTED_EDGE('',*,*,#428,.F.);
#567=ORIENTED_EDGE('',*,*,#412,.F.);
#568=ORIENTED_EDGE('',*,*,#428,.T.);
#569=ORIENTED_EDGE('',*,*,#384,.F.);
#570=ORIENTED_EDGE('',*,*,#429,.T.);
#571=ORIENTED_EDGE('',*,*,#413,.F.);
#572=ORIENTED_EDGE('',*,*,#429,.F.);
#573=ORIENTED_EDGE('',*,*,#383,.F.);
#574=ORIENTED_EDGE('',*,*,#430,.F.);
#575=ORIENTED_EDGE('',*,*,#414,.F.);
#576=ORIENTED_EDGE('',*,*,#430,.T.);
#577=ORIENTED_EDGE('',*,*,#382,.F.);
#578=ORIENTED_EDGE('',*,*,#431,.T.);
#579=ORIENTED_EDGE('',*,*,#415,.F.);
#580=ORIENTED_EDGE('',*,*,#380,.F.);
#581=ORIENTED_EDGE('',*,*,#432,.F.);
#582=ORIENTED_EDGE('',*,*,#417,.F.);
#583=ORIENTED_EDGE('',*,*,#433,.F.);
#584=ORIENTED_EDGE('',*,*,#432,.T.);
#585=ORIENTED_EDGE('',*,*,#379,.F.);
#586=ORIENTED_EDGE('',*,*,#434,.F.);
#587=ORIENTED_EDGE('',*,*,#418,.F.);
#588=ORIENTED_EDGE('',*,*,#376,.F.);
#589=ORIENTED_EDGE('',*,*,#435,.F.);
#590=ORIENTED_EDGE('',*,*,#421,.F.);
#591=ORIENTED_EDGE('',*,*,#436,.F.);
#592=ORIENTED_EDGE('',*,*,#435,.T.);
#593=ORIENTED_EDGE('',*,*,#375,.F.);
#594=ORIENTED_EDGE('',*,*,#394,.F.);
#595=ORIENTED_EDGE('',*,*,#422,.F.);
#596=ORIENTED_EDGE('',*,*,#407,.F.);
#597=ORIENTED_EDGE('',*,*,#437,.T.);
#598=ORIENTED_EDGE('',*,*,#392,.F.);
#599=ORIENTED_EDGE('',*,*,#437,.F.);
#600=ORIENTED_EDGE('',*,*,#406,.F.);
#601=ORIENTED_EDGE('',*,*,#438,.T.);
#602=ORIENTED_EDGE('',*,*,#391,.F.);
#603=ORIENTED_EDGE('',*,*,#438,.F.);
#604=ORIENTED_EDGE('',*,*,#402,.F.);
#605=ORIENTED_EDGE('',*,*,#439,.F.);
#606=ORIENTED_EDGE('',*,*,#370,.F.);
#607=ORIENTED_EDGE('',*,*,#440,.F.);
#608=ORIENTED_EDGE('',*,*,#439,.T.);
#609=ORIENTED_EDGE('',*,*,#401,.F.);
#610=ORIENTED_EDGE('',*,*,#441,.F.);
#611=ORIENTED_EDGE('',*,*,#371,.F.);
#612=ORIENTED_EDGE('',*,*,#433,.T.);
#613=ORIENTED_EDGE('',*,*,#416,.F.);
#614=ORIENTED_EDGE('',*,*,#431,.F.);
#615=ORIENTED_EDGE('',*,*,#381,.F.);
#616=ORIENTED_EDGE('',*,*,#436,.T.);
#617=ORIENTED_EDGE('',*,*,#420,.F.);
#618=ORIENTED_EDGE('',*,*,#442,.F.);
#619=ORIENTED_EDGE('',*,*,#377,.F.);
#620=ORIENTED_EDGE('',*,*,#378,.F.);
#621=ORIENTED_EDGE('',*,*,#442,.T.);
#622=ORIENTED_EDGE('',*,*,#419,.F.);
#623=ORIENTED_EDGE('',*,*,#434,.T.);
#624=ORIENTED_EDGE('',*,*,#440,.T.);
#625=ORIENTED_EDGE('',*,*,#369,.F.);
#626=ORIENTED_EDGE('',*,*,#443,.F.);
#627=ORIENTED_EDGE('',*,*,#403,.F.);
#628=ORIENTED_EDGE('',*,*,#443,.T.);
#629=ORIENTED_EDGE('',*,*,#368,.F.);
#630=ORIENTED_EDGE('',*,*,#444,.F.);
#631=ORIENTED_EDGE('',*,*,#404,.T.);
#632=ORIENTED_EDGE('',*,*,#441,.T.);
#633=ORIENTED_EDGE('',*,*,#400,.T.);
#634=ORIENTED_EDGE('',*,*,#445,.F.);
#635=ORIENTED_EDGE('',*,*,#372,.F.);
#636=ORIENTED_EDGE('',*,*,#426,.F.);
#637=ORIENTED_EDGE('',*,*,#405,.T.);
#638=ORIENTED_EDGE('',*,*,#444,.T.);
#639=ORIENTED_EDGE('',*,*,#367,.T.);
#640=ORIENTED_EDGE('',*,*,#425,.F.);
#641=ORIENTED_EDGE('',*,*,#373,.T.);
#642=ORIENTED_EDGE('',*,*,#445,.T.);
#643=ORIENTED_EDGE('',*,*,#399,.T.);
#644=CYLINDRICAL_SURFACE('',#716,2.75);
#645=CYLINDRICAL_SURFACE('',#719,2.75);
#646=CYLINDRICAL_SURFACE('',#722,2.75);
#647=CYLINDRICAL_SURFACE('',#725,2.75);
#648=CYLINDRICAL_SURFACE('',#728,2.75);
#649=CYLINDRICAL_SURFACE('',#731,6.);
#650=CYLINDRICAL_SURFACE('',#752,37.);
#651=CYLINDRICAL_SURFACE('',#754,6.);
#652=CYLINDRICAL_SURFACE('',#772,37.);
#653=CYLINDRICAL_SURFACE('',#773,6.);
#654=CYLINDRICAL_SURFACE('',#774,46.);
#655=CYLINDRICAL_SURFACE('',#775,37.);
#656=CYLINDRICAL_SURFACE('',#776,37.);
#657=CYLINDRICAL_SURFACE('',#777,6.);
#658=CYLINDRICAL_SURFACE('',#778,37.);
#659=CYLINDRICAL_SURFACE('',#779,6.);
#660=CYLINDRICAL_SURFACE('',#780,37.);
#661=CYLINDRICAL_SURFACE('',#781,2.2);
#662=CYLINDRICAL_SURFACE('',#783,2.2);
#663=CYLINDRICAL_SURFACE('',#785,2.2);
#664=CYLINDRICAL_SURFACE('',#786,2.2);
#665=CYLINDRICAL_SURFACE('',#788,28.);
#666=CYLINDRICAL_SURFACE('',#792,28.);
#667=ADVANCED_FACE('',(#43),#644,.F.);
#668=ADVANCED_FACE('',(#44),#645,.F.);
#669=ADVANCED_FACE('',(#45),#646,.F.);
#670=ADVANCED_FACE('',(#46),#647,.F.);
#671=ADVANCED_FACE('',(#47),#648,.F.);
#672=ADVANCED_FACE('',(#48),#649,.T.);
#673=ADVANCED_FACE('',(#49,#15,#16,#17,#18,#19,#20,#21,#22),#31,.T.);
#674=ADVANCED_FACE('',(#50),#650,.F.);
#675=ADVANCED_FACE('',(#51),#651,.T.);
#676=ADVANCED_FACE('',(#52,#23,#24,#25,#26,#27,#28,#29,#30),#32,.T.);
#677=ADVANCED_FACE('',(#53),#652,.F.);
#678=ADVANCED_FACE('',(#54),#653,.T.);
#679=ADVANCED_FACE('',(#55),#654,.T.);
#680=ADVANCED_FACE('',(#56),#655,.F.);
#681=ADVANCED_FACE('',(#57),#656,.F.);
#682=ADVANCED_FACE('',(#58),#657,.T.);
#683=ADVANCED_FACE('',(#59),#658,.F.);
#684=ADVANCED_FACE('',(#60),#659,.T.);
#685=ADVANCED_FACE('',(#61),#660,.F.);
#686=ADVANCED_FACE('',(#62),#661,.F.);
#687=ADVANCED_FACE('',(#63),#33,.F.);
#688=ADVANCED_FACE('',(#64),#662,.F.);
#689=ADVANCED_FACE('',(#65),#34,.T.);
#690=ADVANCED_FACE('',(#66),#663,.F.);
#691=ADVANCED_FACE('',(#67),#664,.F.);
#692=ADVANCED_FACE('',(#68),#35,.T.);
#693=ADVANCED_FACE('',(#69),#665,.T.);
#694=ADVANCED_FACE('',(#70),#36,.F.);
#695=ADVANCED_FACE('',(#71),#37,.T.);
#696=ADVANCED_FACE('',(#72),#38,.T.);
#697=ADVANCED_FACE('',(#73),#666,.T.);
#698=ADVANCED_FACE('',(#74),#39,.F.);
#699=ADVANCED_FACE('',(#75),#40,.F.);
#700=ADVANCED_FACE('',(#76),#41,.T.);
#701=ADVANCED_FACE('',(#77),#42,.F.);
#702=CLOSED_SHELL('',(#667,#668,#669,#670,#671,#672,#673,#674,#675,#676,
#677,#678,#679,#680,#681,#682,#683,#684,#685,#686,#687,#688,#689,#690,#691,
#692,#693,#694,#695,#696,#697,#698,#699,#700,#701));
#703=DERIVED_UNIT_ELEMENT(#705,1.);
#704=DERIVED_UNIT_ELEMENT(#1220,-3.);
#705=(
MASS_UNIT()
NAMED_UNIT(*)
SI_UNIT(.KILO.,.GRAM.)
);
#706=DERIVED_UNIT((#703,#704));
#707=MEASURE_REPRESENTATION_ITEM('density measure',
POSITIVE_RATIO_MEASURE(7850.),#706);
#708=PROPERTY_DEFINITION_REPRESENTATION(#713,#710);
#709=PROPERTY_DEFINITION_REPRESENTATION(#714,#711);
#710=REPRESENTATION('material name',(#712),#1217);
#711=REPRESENTATION('density',(#707),#1217);
#712=DESCRIPTIVE_REPRESENTATION_ITEM('Steel','Steel');
#713=PROPERTY_DEFINITION('material property','material name',#1227);
#714=PROPERTY_DEFINITION('material property','density of part',#1227);
#715=AXIS2_PLACEMENT_3D('',#1014,#797,#798);
#716=AXIS2_PLACEMENT_3D('',#1015,#799,#800);
#717=AXIS2_PLACEMENT_3D('',#1017,#801,#802);
#718=AXIS2_PLACEMENT_3D('',#1020,#804,#805);
#719=AXIS2_PLACEMENT_3D('',#1021,#806,#807);
#720=AXIS2_PLACEMENT_3D('',#1023,#808,#809);
#721=AXIS2_PLACEMENT_3D('',#1026,#811,#812);
#722=AXIS2_PLACEMENT_3D('',#1027,#813,#814);
#723=AXIS2_PLACEMENT_3D('',#1029,#815,#816);
#724=AXIS2_PLACEMENT_3D('',#1032,#818,#819);
#725=AXIS2_PLACEMENT_3D('',#1033,#820,#821);
#726=AXIS2_PLACEMENT_3D('',#1035,#822,#823);
#727=AXIS2_PLACEMENT_3D('',#1038,#825,#826);
#728=AXIS2_PLACEMENT_3D('',#1039,#827,#828);
#729=AXIS2_PLACEMENT_3D('',#1041,#829,#830);
#730=AXIS2_PLACEMENT_3D('',#1044,#832,#833);
#731=AXIS2_PLACEMENT_3D('',#1045,#834,#835);
#732=AXIS2_PLACEMENT_3D('',#1050,#837,#838);
#733=AXIS2_PLACEMENT_3D('',#1053,#840,#841);
#734=AXIS2_PLACEMENT_3D('',#1054,#842,#843);
#735=AXIS2_PLACEMENT_3D('',#1057,#844,#845);
#736=AXIS2_PLACEMENT_3D('',#1063,#848,#849);
#737=AXIS2_PLACEMENT_3D('',#1067,#851,#852);
#738=AXIS2_PLACEMENT_3D('',#1072,#855,#856);
#739=AXIS2_PLACEMENT_3D('',#1076,#858,#859);
#740=AXIS2_PLACEMENT_3D('',#1084,#863,#864);
#741=AXIS2_PLACEMENT_3D('',#1088,#866,#867);
#742=AXIS2_PLACEMENT_3D('',#1090,#868,#869);
#743=AXIS2_PLACEMENT_3D('',#1092,#870,#871);
#744=AXIS2_PLACEMENT_3D('',#1094,#872,#873);
#745=AXIS2_PLACEMENT_3D('',#1096,#874,#875);
#746=AXIS2_PLACEMENT_3D('',#1098,#876,#877);
#747=AXIS2_PLACEMENT_3D('',#1100,#878,#879);
#748=AXIS2_PLACEMENT_3D('',#1102,#880,#881);
#749=AXIS2_PLACEMENT_3D('',#1103,#882,#883);
#750=AXIS2_PLACEMENT_3D('',#1105,#884,#885);
#751=AXIS2_PLACEMENT_3D('',#1107,#886,#887);
#752=AXIS2_PLACEMENT_3D('',#1108,#888,#889);
#753=AXIS2_PLACEMENT_3D('',#1110,#890,#891);
#754=AXIS2_PLACEMENT_3D('',#1112,#893,#894);
#755=AXIS2_PLACEMENT_3D('',#1117,#897,#898);
#756=AXIS2_PLACEMENT_3D('',#1118,#899,#900);
#757=AXIS2_PLACEMENT_3D('',#1121,#901,#902);
#758=AXIS2_PLACEMENT_3D('',#1127,#905,#906);
#759=AXIS2_PLACEMENT_3D('',#1131,#908,#909);
#760=AXIS2_PLACEMENT_3D('',#1136,#912,#913);
#761=AXIS2_PLACEMENT_3D('',#1138,#914,#915);
#762=AXIS2_PLACEMENT_3D('',#1139,#916,#917);
#763=AXIS2_PLACEMENT_3D('',#1141,#918,#919);
#764=AXIS2_PLACEMENT_3D('',#1143,#920,#921);
#765=AXIS2_PLACEMENT_3D('',#1145,#922,#923);
#766=AXIS2_PLACEMENT_3D('',#1147,#924,#925);
#767=AXIS2_PLACEMENT_3D('',#1149,#926,#927);
#768=AXIS2_PLACEMENT_3D('',#1151,#928,#929);
#769=AXIS2_PLACEMENT_3D('',#1153,#930,#931);
#770=AXIS2_PLACEMENT_3D('',#1157,#933,#934);
#771=AXIS2_PLACEMENT_3D('',#1165,#938,#939);
#772=AXIS2_PLACEMENT_3D('',#1167,#941,#942);
#773=AXIS2_PLACEMENT_3D('',#1169,#944,#945);
#774=AXIS2_PLACEMENT_3D('',#1171,#947,#948);
#775=AXIS2_PLACEMENT_3D('',#1174,#951,#952);
#776=AXIS2_PLACEMENT_3D('',#1175,#953,#954);
#777=AXIS2_PLACEMENT_3D('',#1177,#956,#957);
#778=AXIS2_PLACEMENT_3D('',#1179,#959,#960);
#779=AXIS2_PLACEMENT_3D('',#1181,#962,#963);
#780=AXIS2_PLACEMENT_3D('',#1183,#965,#966);
#781=AXIS2_PLACEMENT_3D('',#1185,#968,#969);
#782=AXIS2_PLACEMENT_3D('',#1188,#972,#973);
#783=AXIS2_PLACEMENT_3D('',#1190,#975,#976);
#784=AXIS2_PLACEMENT_3D('',#1193,#979,#980);
#785=AXIS2_PLACEMENT_3D('',#1194,#981,#982);
#786=AXIS2_PLACEMENT_3D('',#1196,#984,#985);
#787=AXIS2_PLACEMENT_3D('',#1198,#987,#988);
#788=AXIS2_PLACEMENT_3D('',#1201,#991,#992);
#789=AXIS2_PLACEMENT_3D('',#1203,#994,#995);
#790=AXIS2_PLACEMENT_3D('',#1204,#996,#997);
#791=AXIS2_PLACEMENT_3D('',#1206,#999,#1000);
#792=AXIS2_PLACEMENT_3D('',#1207,#1001,#1002);
#793=AXIS2_PLACEMENT_3D('',#1209,#1004,#1005);
#794=AXIS2_PLACEMENT_3D('',#1211,#1007,#1008);
#795=AXIS2_PLACEMENT_3D('',#1213,#1010,#1011);
#796=AXIS2_PLACEMENT_3D('',#1214,#1012,#1013);
#797=DIRECTION('axis',(0.,0.,1.));
#798=DIRECTION('refdir',(1.,0.,0.));
#799=DIRECTION('center_axis',(0.,1.,0.));
#800=DIRECTION('ref_axis',(1.,0.,0.));
#801=DIRECTION('center_axis',(0.,1.,0.));
#802=DIRECTION('ref_axis',(1.,0.,0.));
#803=DIRECTION('',(0.,1.,0.));
#804=DIRECTION('center_axis',(0.,-1.,0.));
#805=DIRECTION('ref_axis',(1.,0.,0.));
#806=DIRECTION('center_axis',(0.,1.,0.));
#807=DIRECTION('ref_axis',(1.,0.,0.));
#808=DIRECTION('center_axis',(0.,1.,0.));
#809=DIRECTION('ref_axis',(1.,0.,0.));
#810=DIRECTION('',(0.,1.,0.));
#811=DIRECTION('center_axis',(0.,-1.,0.));
#812=DIRECTION('ref_axis',(1.,0.,0.));
#813=DIRECTION('center_axis',(0.,1.,0.));
#814=DIRECTION('ref_axis',(1.,0.,0.));
#815=DIRECTION('center_axis',(0.,1.,0.));
#816=DIRECTION('ref_axis',(1.,0.,0.));
#817=DIRECTION('',(0.,1.,0.));
#818=DIRECTION('center_axis',(0.,-1.,0.));
#819=DIRECTION('ref_axis',(1.,0.,0.));
#820=DIRECTION('center_axis',(0.,1.,0.));
#821=DIRECTION('ref_axis',(1.,0.,0.));
#822=DIRECTION('center_axis',(0.,1.,0.));
#823=DIRECTION('ref_axis',(1.,0.,0.));
#824=DIRECTION('',(0.,1.,0.));
#825=DIRECTION('center_axis',(0.,-1.,0.));
#826=DIRECTION('ref_axis',(1.,0.,0.));
#827=DIRECTION('center_axis',(0.,1.,0.));
#828=DIRECTION('ref_axis',(1.,0.,0.));
#829=DIRECTION('center_axis',(0.,1.,0.));
#830=DIRECTION('ref_axis',(1.,0.,0.));
#831=DIRECTION('',(0.,1.,0.));
#832=DIRECTION('center_axis',(0.,-1.,0.));
#833=DIRECTION('ref_axis',(1.,0.,0.));
#834=DIRECTION('center_axis',(0.,1.,0.));
#835=DIRECTION('ref_axis',(1.,0.,0.));
#836=DIRECTION('',(0.,1.,0.));
#837=DIRECTION('center_axis',(0.,-1.,0.));
#838=DIRECTION('ref_axis',(1.,0.,0.));
#839=DIRECTION('',(0.,-1.,0.));
#840=DIRECTION('center_axis',(0.,1.,0.));
#841=DIRECTION('ref_axis',(1.,0.,0.));
#842=DIRECTION('center_axis',(0.,1.,0.));
#843=DIRECTION('ref_axis',(1.,0.,0.));
#844=DIRECTION('center_axis',(0.,1.,0.));
#845=DIRECTION('ref_axis',(1.,0.,0.));
#846=DIRECTION('',(-1.,0.,0.));
#847=DIRECTION('',(0.,0.,-1.));
#848=DIRECTION('center_axis',(0.,1.,0.));
#849=DIRECTION('ref_axis',(1.,0.,0.));
#850=DIRECTION('',(0.,0.,-1.));
#851=DIRECTION('center_axis',(0.,1.,0.));
#852=DIRECTION('ref_axis',(1.,0.,0.));
#853=DIRECTION('',(0.,0.,-1.));
#854=DIRECTION('',(1.,0.,0.));
#855=DIRECTION('center_axis',(0.,-1.,0.));
#856=DIRECTION('ref_axis',(1.,0.,0.));
#857=DIRECTION('',(1.,0.,0.));
#858=DIRECTION('center_axis',(0.,-1.,0.));
#859=DIRECTION('ref_axis',(1.,0.,0.));
#860=DIRECTION('',(1.,0.,0.));
#861=DIRECTION('',(0.,0.,1.));
#862=DIRECTION('',(-1.,0.,0.));
#863=DIRECTION('center_axis',(0.,-1.,0.));
#864=DIRECTION('ref_axis',(1.,0.,0.));
#865=DIRECTION('',(-1.,0.,0.));
#866=DIRECTION('center_axis',(0.,-1.,0.));
#867=DIRECTION('ref_axis',(1.,0.,0.));
#868=DIRECTION('center_axis',(0.,1.,0.));
#869=DIRECTION('ref_axis',(1.,0.,0.));
#870=DIRECTION('center_axis',(0.,-1.,0.));
#871=DIRECTION('ref_axis',(1.,0.,0.));
#872=DIRECTION('center_axis',(0.,1.,0.));
#873=DIRECTION('ref_axis',(1.,0.,0.));
#874=DIRECTION('center_axis',(0.,-1.,0.));
#875=DIRECTION('ref_axis',(1.,0.,0.));
#876=DIRECTION('center_axis',(0.,1.,0.));
#877=DIRECTION('ref_axis',(1.,0.,0.));
#878=DIRECTION('center_axis',(0.,-1.,0.));
#879=DIRECTION('ref_axis',(1.,0.,0.));
#880=DIRECTION('center_axis',(0.,1.,0.));
#881=DIRECTION('ref_axis',(1.,0.,0.));
#882=DIRECTION('center_axis',(0.,-1.,0.));
#883=DIRECTION('ref_axis',(1.,0.,0.));
#884=DIRECTION('center_axis',(0.,-1.,0.));
#885=DIRECTION('ref_axis',(1.,0.,0.));
#886=DIRECTION('center_axis',(0.,-1.,0.));
#887=DIRECTION('ref_axis',(1.,0.,0.));
#888=DIRECTION('center_axis',(0.,1.,0.));
#889=DIRECTION('ref_axis',(1.,0.,0.));
#890=DIRECTION('center_axis',(0.,1.,0.));
#891=DIRECTION('ref_axis',(1.,0.,0.));
#892=DIRECTION('',(0.,1.,0.));
#893=DIRECTION('center_axis',(0.,1.,0.));
#894=DIRECTION('ref_axis',(1.,0.,0.));
#895=DIRECTION('',(0.,-1.,0.));
#896=DIRECTION('',(0.,1.,0.));
#897=DIRECTION('center_axis',(0.,-1.,0.));
#898=DIRECTION('ref_axis',(1.,0.,0.));
#899=DIRECTION('center_axis',(0.,-1.,0.));
#900=DIRECTION('ref_axis',(-1.,0.,0.));
#901=DIRECTION('center_axis',(0.,-1.,0.));
#902=DIRECTION('ref_axis',(1.,0.,0.));
#903=DIRECTION('',(-1.,0.,0.));
#904=DIRECTION('',(0.,0.,-1.));
#905=DIRECTION('center_axis',(0.,-1.,0.));
#906=DIRECTION('ref_axis',(1.,0.,0.));
#907=DIRECTION('',(0.,0.,1.));
#908=DIRECTION('center_axis',(0.,-1.,0.));
#909=DIRECTION('ref_axis',(1.,0.,0.));
#910=DIRECTION('',(0.,0.,-1.));
#911=DIRECTION('',(1.,0.,0.));
#912=DIRECTION('center_axis',(0.,1.,0.));
#913=DIRECTION('ref_axis',(1.,0.,0.));
#914=DIRECTION('center_axis',(0.,1.,0.));
#915=DIRECTION('ref_axis',(1.,0.,0.));
#916=DIRECTION('center_axis',(0.,1.,0.));
#917=DIRECTION('ref_axis',(1.,0.,0.));
#918=DIRECTION('center_axis',(0.,1.,0.));
#919=DIRECTION('ref_axis',(1.,0.,0.));
#920=DIRECTION('center_axis',(0.,-1.,0.));
#921=DIRECTION('ref_axis',(1.,0.,0.));
#922=DIRECTION('center_axis',(0.,1.,0.));
#923=DIRECTION('ref_axis',(1.,0.,0.));
#924=DIRECTION('center_axis',(0.,-1.,0.));
#925=DIRECTION('ref_axis',(1.,0.,0.));
#926=DIRECTION('center_axis',(0.,1.,0.));
#927=DIRECTION('ref_axis',(1.,0.,0.));
#928=DIRECTION('center_axis',(0.,-1.,0.));
#929=DIRECTION('ref_axis',(1.,0.,0.));
#930=DIRECTION('center_axis',(0.,1.,0.));
#931=DIRECTION('ref_axis',(1.,0.,0.));
#932=DIRECTION('',(1.,0.,0.));
#933=DIRECTION('center_axis',(0.,1.,0.));
#934=DIRECTION('ref_axis',(1.,0.,0.));
#935=DIRECTION('',(1.,0.,0.));
#936=DIRECTION('',(0.,0.,-1.));
#937=DIRECTION('',(-1.,0.,0.));
#938=DIRECTION('center_axis',(0.,1.,0.));
#939=DIRECTION('ref_axis',(1.,0.,0.));
#940=DIRECTION('',(-1.,0.,0.));
#941=DIRECTION('center_axis',(0.,1.,0.));
#942=DIRECTION('ref_axis',(1.,0.,0.));
#943=DIRECTION('',(0.,-1.,0.));
#944=DIRECTION('center_axis',(0.,1.,0.));
#945=DIRECTION('ref_axis',(1.,0.,0.));
#946=DIRECTION('',(0.,1.,0.));
#947=DIRECTION('center_axis',(0.,1.,0.));
#948=DIRECTION('ref_axis',(-1.,0.,-1.22464679914735E-16));
#949=DIRECTION('',(0.,-1.,0.));
#950=DIRECTION('',(0.,1.,0.));
#951=DIRECTION('center_axis',(0.,1.,0.));
#952=DIRECTION('ref_axis',(1.,0.,0.));
#953=DIRECTION('center_axis',(0.,1.,0.));
#954=DIRECTION('ref_axis',(1.,0.,0.));
#955=DIRECTION('',(0.,-1.,0.));
#956=DIRECTION('center_axis',(0.,1.,0.));
#957=DIRECTION('ref_axis',(1.,0.,0.));
#958=DIRECTION('',(0.,1.,0.));
#959=DIRECTION('center_axis',(0.,1.,0.));
#960=DIRECTION('ref_axis',(1.,0.,0.));
#961=DIRECTION('',(0.,-1.,0.));
#962=DIRECTION('center_axis',(0.,1.,0.));
#963=DIRECTION('ref_axis',(1.,0.,0.));
#964=DIRECTION('',(0.,1.,0.));
#965=DIRECTION('center_axis',(0.,1.,0.));
#966=DIRECTION('ref_axis',(1.,0.,0.));
#967=DIRECTION('',(0.,-1.,0.));
#968=DIRECTION('center_axis',(0.,1.,0.));
#969=DIRECTION('ref_axis',(-1.83697019872103E-16,0.,1.));
#970=DIRECTION('',(0.,1.,0.));
#971=DIRECTION('',(0.,-1.,0.));
#972=DIRECTION('center_axis',(0.,0.,1.));
#973=DIRECTION('ref_axis',(1.,0.,0.));
#974=DIRECTION('',(0.,1.,0.));
#975=DIRECTION('center_axis',(0.,1.,0.));
#976=DIRECTION('ref_axis',(6.12323399573677E-17,0.,-1.));
#977=DIRECTION('',(0.,1.,0.));
#978=DIRECTION('',(0.,-1.,0.));
#979=DIRECTION('center_axis',(0.,0.,1.));
#980=DIRECTION('ref_axis',(1.,0.,0.));
#981=DIRECTION('center_axis',(0.,1.,0.));
#982=DIRECTION('ref_axis',(1.,0.,0.));
#983=DIRECTION('',(0.,1.,0.));
#984=DIRECTION('center_axis',(0.,1.,0.));
#985=DIRECTION('ref_axis',(1.,0.,0.));
#986=DIRECTION('',(0.,1.,0.));
#987=DIRECTION('center_axis',(1.,0.,0.));
#988=DIRECTION('ref_axis',(0.,0.,-1.));
#989=DIRECTION('',(0.,-1.,0.));
#990=DIRECTION('',(0.,1.,0.));
#991=DIRECTION('center_axis',(0.,1.,0.));
#992=DIRECTION('ref_axis',(1.,0.,0.));
#993=DIRECTION('',(0.,-1.,0.));
#994=DIRECTION('center_axis',(0.,0.,1.));
#995=DIRECTION('ref_axis',(1.,0.,0.));
#996=DIRECTION('center_axis',(0.,0.,1.));
#997=DIRECTION('ref_axis',(1.,0.,0.));
#998=DIRECTION('',(0.,-1.,0.));
#999=DIRECTION('center_axis',(-1.,0.,0.));
#1000=DIRECTION('ref_axis',(0.,0.,1.));
#1001=DIRECTION('center_axis',(0.,1.,0.));
#1002=DIRECTION('ref_axis',(1.,0.,0.));
#1003=DIRECTION('',(0.,1.,0.));
#1004=DIRECTION('center_axis',(-1.,0.,0.));
#1005=DIRECTION('ref_axis',(0.,0.,1.));
#1006=DIRECTION('',(0.,1.,0.));
#1007=DIRECTION('center_axis',(-1.,0.,0.));
#1008=DIRECTION('ref_axis',(0.,0.,1.));
#1009=DIRECTION('',(0.,-1.,0.));
#1010=DIRECTION('center_axis',(0.,0.,1.));
#1011=DIRECTION('ref_axis',(1.,0.,0.));
#1012=DIRECTION('center_axis',(0.,0.,1.));
#1013=DIRECTION('ref_axis',(1.,0.,0.));
#1014=CARTESIAN_POINT('',(0.,0.,0.));
#1015=CARTESIAN_POINT('Origin',(290.,-34.,205.4));
#1016=CARTESIAN_POINT('',(287.25,-38.,205.4));
#1017=CARTESIAN_POINT('Origin',(290.,-38.,205.4));
#1018=CARTESIAN_POINT('',(287.25,-30.,205.4));
#1019=CARTESIAN_POINT('',(287.25,-34.,205.4));
#1020=CARTESIAN_POINT('Origin',(290.,-30.,205.4));
#1021=CARTESIAN_POINT('Origin',(250.,-34.,205.4));
#1022=CARTESIAN_POINT('',(247.25,-38.,205.4));
#1023=CARTESIAN_POINT('Origin',(250.,-38.,205.4));
#1024=CARTESIAN_POINT('',(247.25,-30.,205.4));
#1025=CARTESIAN_POINT('',(247.25,-34.,205.4));
#1026=CARTESIAN_POINT('Origin',(250.,-30.,205.4));
#1027=CARTESIAN_POINT('Origin',(230.,-34.,240.));
#1028=CARTESIAN_POINT('',(227.25,-38.,240.));
#1029=CARTESIAN_POINT('Origin',(230.,-38.,240.));
#1030=CARTESIAN_POINT('',(227.25,-30.,240.));
#1031=CARTESIAN_POINT('',(227.25,-34.,240.));
#1032=CARTESIAN_POINT('Origin',(230.,-30.,240.));
#1033=CARTESIAN_POINT('Origin',(250.,-34.,274.6));
#1034=CARTESIAN_POINT('',(247.25,-38.,274.6));
#1035=CARTESIAN_POINT('Origin',(250.,-38.,274.6));
#1036=CARTESIAN_POINT('',(247.25,-30.,274.6));
#1037=CARTESIAN_POINT('',(247.25,-34.,274.6));
#1038=CARTESIAN_POINT('Origin',(250.,-30.,274.6));
#1039=CARTESIAN_POINT('Origin',(290.,-34.,274.6));
#1040=CARTESIAN_POINT('',(287.25,-38.,274.6));
#1041=CARTESIAN_POINT('Origin',(290.,-38.,274.6));
#1042=CARTESIAN_POINT('',(287.25,-30.,274.6));
#1043=CARTESIAN_POINT('',(287.25,-34.,274.6));
#1044=CARTESIAN_POINT('Origin',(290.,-30.,274.6));
#1045=CARTESIAN_POINT('Origin',(290.,-34.,205.4));
#1046=CARTESIAN_POINT('',(284.01052411174,-38.,205.755216249561));
#1047=CARTESIAN_POINT('',(284.01052411174,-30.,205.755216249561));
#1048=CARTESIAN_POINT('',(284.01052411174,-34.,205.755216249561));
#1049=CARTESIAN_POINT('',(292.681604416397,-38.,210.767401396762));
#1050=CARTESIAN_POINT('Origin',(290.,-38.,205.4));
#1051=CARTESIAN_POINT('',(292.681604416397,-30.,210.767401396762));
#1052=CARTESIAN_POINT('',(292.681604416397,-34.,210.767401396762));
#1053=CARTESIAN_POINT('Origin',(290.,-30.,205.4));
#1054=CARTESIAN_POINT('Origin',(270.,-30.,240.));
#1055=CARTESIAN_POINT('',(294.392621835301,-30.,201.));
#1056=CARTESIAN_POINT('',(294.392621835301,-30.,279.));
#1057=CARTESIAN_POINT('Origin',(270.,-30.,240.));
#1058=CARTESIAN_POINT('',(340.,-30.,279.));
#1059=CARTESIAN_POINT('',(305.,-30.,279.));
#1060=CARTESIAN_POINT('',(340.,-30.,268.));
#1061=CARTESIAN_POINT('',(340.,-30.,240.));
#1062=CARTESIAN_POINT('',(365.,-30.,252.609520212918));
#1063=CARTESIAN_POINT('Origin',(340.,-30.,240.));
#1064=CARTESIAN_POINT('',(365.,-30.,227.390479787082));
#1065=CARTESIAN_POINT('',(365.,-30.,240.));
#1066=CARTESIAN_POINT('',(340.,-30.,212.));
#1067=CARTESIAN_POINT('Origin',(340.,-30.,240.));
#1068=CARTESIAN_POINT('',(340.,-30.,201.));
#1069=CARTESIAN_POINT('',(340.,-30.,240.));
#1070=CARTESIAN_POINT('',(305.,-30.,201.));
#1071=CARTESIAN_POINT('',(300.463092423456,-30.,219.));
#1072=CARTESIAN_POINT('Origin',(270.,-30.,240.));
#1073=CARTESIAN_POINT('',(327.040408205773,-30.,219.));
#1074=CARTESIAN_POINT('',(289.5,-30.,219.));
#1075=CARTESIAN_POINT('',(330.959591794227,-30.,219.));
#1076=CARTESIAN_POINT('Origin',(329.,-30.,218.));
#1077=CARTESIAN_POINT('',(332.,-30.,219.));
#1078=CARTESIAN_POINT('',(289.5,-30.,219.));
#1079=CARTESIAN_POINT('',(332.,-30.,261.));
#1080=CARTESIAN_POINT('',(332.,-30.,240.));
#1081=CARTESIAN_POINT('',(330.959591794227,-30.,261.));
#1082=CARTESIAN_POINT('',(289.5,-30.,261.));
#1083=CARTESIAN_POINT('',(327.040408205773,-30.,261.));
#1084=CARTESIAN_POINT('Origin',(329.,-30.,262.));
#1085=CARTESIAN_POINT('',(300.463092423456,-30.,261.));
#1086=CARTESIAN_POINT('',(289.5,-30.,261.));
#1087=CARTESIAN_POINT('',(292.681604416397,-30.,269.232598603238));
#1088=CARTESIAN_POINT('Origin',(270.,-30.,240.));
#1089=CARTESIAN_POINT('',(284.01052411174,-30.,274.244783750439));
#1090=CARTESIAN_POINT('Origin',(290.,-30.,274.6));
#1091=CARTESIAN_POINT('',(255.98947588826,-30.,274.244783750439));
#1092=CARTESIAN_POINT('Origin',(270.,-30.,240.));
#1093=CARTESIAN_POINT('',(247.318395583603,-30.,269.232598603238));
#1094=CARTESIAN_POINT('Origin',(250.,-30.,274.6));
#1095=CARTESIAN_POINT('',(233.3375,-30.,244.986090026263));
#1096=CARTESIAN_POINT('Origin',(270.,-30.,240.));
#1097=CARTESIAN_POINT('',(233.3375,-30.,235.013909973737));
#1098=CARTESIAN_POINT('Origin',(230.,-30.,240.));
#1099=CARTESIAN_POINT('',(247.318395583603,-30.,210.767401396762));
#1100=CARTESIAN_POINT('Origin',(270.,-30.,240.));
#1101=CARTESIAN_POINT('',(255.98947588826,-30.,205.755216249561));
#1102=CARTESIAN_POINT('Origin',(250.,-30.,205.4));
#1103=CARTESIAN_POINT('Origin',(270.,-30.,240.));
#1104=CARTESIAN_POINT('',(267.8,-30.,198.));
#1105=CARTESIAN_POINT('Origin',(270.,-30.,198.));
#1106=CARTESIAN_POINT('',(267.8,-30.,282.));
#1107=CARTESIAN_POINT('Origin',(270.,-30.,282.));
#1108=CARTESIAN_POINT('Origin',(270.,-34.,240.));
#1109=CARTESIAN_POINT('',(300.463092423456,-38.,219.));
#1110=CARTESIAN_POINT('Origin',(270.,-38.,240.));
#1111=CARTESIAN_POINT('',(300.463092423456,-34.,219.));
#1112=CARTESIAN_POINT('Origin',(250.,-34.,205.4));
#1113=CARTESIAN_POINT('',(255.98947588826,-38.,205.755216249561));
#1114=CARTESIAN_POINT('',(255.98947588826,-34.,205.755216249561));
#1115=CARTESIAN_POINT('',(247.318395583603,-38.,210.767401396762));
#1116=CARTESIAN_POINT('',(247.318395583603,-34.,210.767401396762));
#1117=CARTESIAN_POINT('Origin',(250.,-38.,205.4));
#1118=CARTESIAN_POINT('Origin',(270.,-38.,240.));
#1119=CARTESIAN_POINT('',(294.392621835301,-38.,279.));
#1120=CARTESIAN_POINT('',(294.392621835301,-38.,201.));
#1121=CARTESIAN_POINT('Origin',(270.,-38.,240.));
#1122=CARTESIAN_POINT('',(340.,-38.,201.));
#1123=CARTESIAN_POINT('',(305.,-38.,201.));
#1124=CARTESIAN_POINT('',(340.,-38.,212.));
#1125=CARTESIAN_POINT('',(340.,-38.,240.));
#1126=CARTESIAN_POINT('',(365.,-38.,227.390479787082));
#1127=CARTESIAN_POINT('Origin',(340.,-38.,240.));
#1128=CARTESIAN_POINT('',(365.,-38.,252.609520212918));
#1129=CARTESIAN_POINT('',(365.,-38.,240.));
#1130=CARTESIAN_POINT('',(340.,-38.,268.));
#1131=CARTESIAN_POINT('Origin',(340.,-38.,240.));
#1132=CARTESIAN_POINT('',(340.,-38.,279.));
#1133=CARTESIAN_POINT('',(340.,-38.,240.));
#1134=CARTESIAN_POINT('',(305.,-38.,279.));
#1135=CARTESIAN_POINT('',(267.8,-38.,198.));
#1136=CARTESIAN_POINT('Origin',(270.,-38.,198.));
#1137=CARTESIAN_POINT('',(267.8,-38.,282.));
#1138=CARTESIAN_POINT('Origin',(270.,-38.,282.));
#1139=CARTESIAN_POINT('Origin',(270.,-38.,240.));
#1140=CARTESIAN_POINT('',(233.3375,-38.,235.013909973737));
#1141=CARTESIAN_POINT('Origin',(270.,-38.,240.));
#1142=CARTESIAN_POINT('',(233.3375,-38.,244.986090026263));
#1143=CARTESIAN_POINT('Origin',(230.,-38.,240.));
#1144=CARTESIAN_POINT('',(247.318395583603,-38.,269.232598603238));
#1145=CARTESIAN_POINT('Origin',(270.,-38.,240.));
#1146=CARTESIAN_POINT('',(255.98947588826,-38.,274.244783750439));
#1147=CARTESIAN_POINT('Origin',(250.,-38.,274.6));
#1148=CARTESIAN_POINT('',(284.01052411174,-38.,274.244783750439));
#1149=CARTESIAN_POINT('Origin',(270.,-38.,240.));
#1150=CARTESIAN_POINT('',(292.681604416397,-38.,269.232598603238));
#1151=CARTESIAN_POINT('Origin',(290.,-38.,274.6));
#1152=CARTESIAN_POINT('',(300.463092423456,-38.,261.));
#1153=CARTESIAN_POINT('Origin',(270.,-38.,240.));
#1154=CARTESIAN_POINT('',(327.040408205773,-38.,261.));
#1155=CARTESIAN_POINT('',(289.5,-38.,261.));
#1156=CARTESIAN_POINT('',(330.959591794227,-38.,261.));
#1157=CARTESIAN_POINT('Origin',(329.,-38.,262.));
#1158=CARTESIAN_POINT('',(332.,-38.,261.));
#1159=CARTESIAN_POINT('',(289.5,-38.,261.));
#1160=CARTESIAN_POINT('',(332.,-38.,219.));
#1161=CARTESIAN_POINT('',(332.,-38.,240.));
#1162=CARTESIAN_POINT('',(330.959591794227,-38.,219.));
#1163=CARTESIAN_POINT('',(289.5,-38.,219.));
#1164=CARTESIAN_POINT('',(327.040408205773,-38.,219.));
#1165=CARTESIAN_POINT('Origin',(329.,-38.,218.));
#1166=CARTESIAN_POINT('',(289.5,-38.,219.));
#1167=CARTESIAN_POINT('Origin',(270.,-34.,240.));
#1168=CARTESIAN_POINT('',(233.3375,-34.,235.013909973737));
#1169=CARTESIAN_POINT('Origin',(230.,-34.,240.));
#1170=CARTESIAN_POINT('',(233.3375,-34.,244.986090026263));
#1171=CARTESIAN_POINT('Origin',(270.,-34.,240.));
#1172=CARTESIAN_POINT('',(294.392621835301,-34.,201.));
#1173=CARTESIAN_POINT('',(294.392621835301,-34.,279.));
#1174=CARTESIAN_POINT('Origin',(270.,-34.,240.));
#1175=CARTESIAN_POINT('Origin',(270.,-34.,240.));
#1176=CARTESIAN_POINT('',(247.318395583603,-34.,269.232598603239));
#1177=CARTESIAN_POINT('Origin',(250.,-34.,274.6));
#1178=CARTESIAN_POINT('',(255.98947588826,-34.,274.244783750439));
#1179=CARTESIAN_POINT('Origin',(270.,-34.,240.));
#1180=CARTESIAN_POINT('',(284.01052411174,-34.,274.244783750439));
#1181=CARTESIAN_POINT('Origin',(290.,-34.,274.6));
#1182=CARTESIAN_POINT('',(292.681604416397,-34.,269.232598603239));
#1183=CARTESIAN_POINT('Origin',(270.,-34.,240.));
#1184=CARTESIAN_POINT('',(300.463092423456,-34.,261.));
#1185=CARTESIAN_POINT('Origin',(329.,-34.,262.));
#1186=CARTESIAN_POINT('',(330.959591794227,-34.,261.));
#1187=CARTESIAN_POINT('',(327.040408205773,-34.,261.));
#1188=CARTESIAN_POINT('Origin',(309.,-34.,261.));
#1189=CARTESIAN_POINT('',(332.,-34.,261.));
#1190=CARTESIAN_POINT('Origin',(329.,-34.,218.));
#1191=CARTESIAN_POINT('',(327.040408205773,-34.,219.));
#1192=CARTESIAN_POINT('',(330.959591794227,-34.,219.));
#1193=CARTESIAN_POINT('Origin',(309.,-34.,219.));
#1194=CARTESIAN_POINT('Origin',(270.,-34.,282.));
#1195=CARTESIAN_POINT('',(267.8,-34.,282.));
#1196=CARTESIAN_POINT('Origin',(270.,-34.,198.));
#1197=CARTESIAN_POINT('',(267.8,-34.,198.));
#1198=CARTESIAN_POINT('Origin',(365.,-34.,240.));
#1199=CARTESIAN_POINT('',(365.,-34.,227.390479787082));
#1200=CARTESIAN_POINT('',(365.,-34.,252.609520212918));
#1201=CARTESIAN_POINT('Origin',(340.,-34.,240.));
#1202=CARTESIAN_POINT('',(340.,-34.,212.));
#1203=CARTESIAN_POINT('Origin',(309.,-34.,261.));
#1204=CARTESIAN_POINT('Origin',(309.,-34.,219.));
#1205=CARTESIAN_POINT('',(332.,-34.,219.));
#1206=CARTESIAN_POINT('Origin',(332.,-34.,240.));
#1207=CARTESIAN_POINT('Origin',(340.,-34.,240.));
#1208=CARTESIAN_POINT('',(340.,-34.,268.));
#1209=CARTESIAN_POINT('Origin',(340.,-34.,240.));
#1210=CARTESIAN_POINT('',(340.,-34.,279.));
#1211=CARTESIAN_POINT('Origin',(340.,-34.,240.));
#1212=CARTESIAN_POINT('',(340.,-34.,201.));
#1213=CARTESIAN_POINT('Origin',(305.,-34.,279.));
#1214=CARTESIAN_POINT('Origin',(305.,-34.,201.));
#1215=UNCERTAINTY_MEASURE_WITH_UNIT(LENGTH_MEASURE(0.01),#1219,
'DISTANCE_ACCURACY_VALUE',
'Maximum model space distance between geometric entities at asserted c
onnectivities');
#1216=UNCERTAINTY_MEASURE_WITH_UNIT(LENGTH_MEASURE(0.01),#1219,
'DISTANCE_ACCURACY_VALUE',
'Maximum model space distance between geometric entities at asserted c
onnectivities');
#1217=(
GEOMETRIC_REPRESENTATION_CONTEXT(3)
GLOBAL_UNCERTAINTY_ASSIGNED_CONTEXT((#1215))
GLOBAL_UNIT_ASSIGNED_CONTEXT((#1219,#1221,#1222))
REPRESENTATION_CONTEXT('','3D')
);
#1218=(
GEOMETRIC_REPRESENTATION_CONTEXT(3)
GLOBAL_UNCERTAINTY_ASSIGNED_CONTEXT((#1216))
GLOBAL_UNIT_ASSIGNED_CONTEXT((#1219,#1221,#1222))
REPRESENTATION_CONTEXT('','3D')
);
#1219=(
LENGTH_UNIT()
NAMED_UNIT(*)
SI_UNIT(.MILLI.,.METRE.)
);
#1220=(
LENGTH_UNIT()
NAMED_UNIT(*)
SI_UNIT($,.METRE.)
);
#1221=(
NAMED_UNIT(*)
PLANE_ANGLE_UNIT()
SI_UNIT($,.RADIAN.)
);
#1222=(
NAMED_UNIT(*)
SI_UNIT($,.STERADIAN.)
SOLID_ANGLE_UNIT()
);
#1223=SHAPE_DEFINITION_REPRESENTATION(#1224,#1225);
#1224=PRODUCT_DEFINITION_SHAPE('',$,#1227);
#1225=SHAPE_REPRESENTATION('',(#715),#1217);
#1226=PRODUCT_DEFINITION_CONTEXT('part definition',#1231,'design');
#1227=PRODUCT_DEFINITION('2026-08-20-15-56-49-685',
'EXPORT_TMP_PRINT_V004_P302_ElbowCheek_Left',#1228,#1226);
#1228=PRODUCT_DEFINITION_FORMATION('',$,#1233);
#1229=PRODUCT_RELATED_PRODUCT_CATEGORY(
'EXPORT_TMP_PRINT_V004_P302_ElbowCheek_Left',
'EXPORT_TMP_PRINT_V004_P302_ElbowCheek_Left',(#1233));
#1230=APPLICATION_PROTOCOL_DEFINITION('international standard',
'automotive_design',2009,#1231);
#1231=APPLICATION_CONTEXT(
'Core Data for Automotive Mechanical Design Process');
#1232=PRODUCT_CONTEXT('part definition',#1231,'mechanical');
#1233=PRODUCT('2026-08-20-15-56-49-685',
'EXPORT_TMP_PRINT_V004_P302_ElbowCheek_Left',$,(#1232));
#1234=PRESENTATION_STYLE_ASSIGNMENT((#1235));
#1235=SURFACE_STYLE_USAGE(.BOTH.,#1236);
#1236=SURFACE_SIDE_STYLE('',(#1237));
#1237=SURFACE_STYLE_FILL_AREA(#1238);
#1238=FILL_AREA_STYLE('Steel - Satin',(#1239));
#1239=FILL_AREA_STYLE_COLOUR('Steel - Satin',#1240);
#1240=COLOUR_RGB('Steel - Satin',0.627450980392157,0.627450980392157,0.627450980392157);
ENDSEC;
END-ISO-10303-21;
