ISO-10303-21;
HEADER;
/* Generated by software containing ST-Developer
 * from STEP Tools, Inc. (www.steptools.com) 
 */

FILE_DESCRIPTION(
/* description */ (''),
/* implementation_level */ '2;1');

FILE_NAME(
/* name */ 'PRINT_V004_P303_ElbowCheek_Right.step',
/* time_stamp */ '2026-08-31T16:23:54+02:00',
/* author */ (''),
/* organization */ (''),
/* preprocessor_version */ 'ST-DEVELOPER v20.1',
/* originating_system */ 'Autodesk Translation Framework v15.8.0.0',
/* authorisation */ '');

FILE_SCHEMA (('AUTOMOTIVE_DESIGN { 1 0 10303 214 3 1 1 }'));
ENDSEC;

DATA;
#10=MECHANICAL_DESIGN_GEOMETRIC_PRESENTATION_REPRESENTATION('',(#13),#1329);
#11=SHAPE_REPRESENTATION_RELATIONSHIP('SRR','None',#1336,#12);
#12=ADVANCED_BREP_SHAPE_REPRESENTATION('',(#14),#1328);
#13=STYLED_ITEM('',(#1345),#14);
#14=MANIFOLD_SOLID_BREP('Body1',#769);
#15=FACE_BOUND('',#90,.T.);
#16=FACE_BOUND('',#91,.T.);
#17=FACE_BOUND('',#92,.T.);
#18=FACE_BOUND('',#93,.T.);
#19=FACE_BOUND('',#94,.T.);
#20=FACE_BOUND('',#95,.T.);
#21=FACE_BOUND('',#96,.T.);
#22=FACE_BOUND('',#97,.T.);
#23=FACE_BOUND('',#98,.T.);
#24=FACE_BOUND('',#99,.T.);
#25=FACE_BOUND('',#107,.T.);
#26=FACE_BOUND('',#108,.T.);
#27=FACE_BOUND('',#109,.T.);
#28=FACE_BOUND('',#110,.T.);
#29=FACE_BOUND('',#111,.T.);
#30=FACE_BOUND('',#112,.T.);
#31=FACE_BOUND('',#113,.T.);
#32=FACE_BOUND('',#114,.T.);
#33=FACE_BOUND('',#115,.T.);
#34=FACE_BOUND('',#116,.T.);
#35=PLANE('',#789);
#36=PLANE('',#790);
#37=PLANE('',#826);
#38=PLANE('',#856);
#39=PLANE('',#858);
#40=PLANE('',#861);
#41=PLANE('',#863);
#42=PLANE('',#864);
#43=PLANE('',#865);
#44=PLANE('',#867);
#45=PLANE('',#868);
#46=PLANE('',#869);
#47=PLANE('',#870);
#48=FACE_OUTER_BOUND('',#86,.T.);
#49=FACE_OUTER_BOUND('',#87,.T.);
#50=FACE_OUTER_BOUND('',#88,.T.);
#51=FACE_OUTER_BOUND('',#89,.T.);
#52=FACE_OUTER_BOUND('',#100,.T.);
#53=FACE_OUTER_BOUND('',#101,.T.);
#54=FACE_OUTER_BOUND('',#102,.T.);
#55=FACE_OUTER_BOUND('',#103,.T.);
#56=FACE_OUTER_BOUND('',#104,.T.);
#57=FACE_OUTER_BOUND('',#105,.T.);
#58=FACE_OUTER_BOUND('',#106,.T.);
#59=FACE_OUTER_BOUND('',#117,.T.);
#60=FACE_OUTER_BOUND('',#118,.T.);
#61=FACE_OUTER_BOUND('',#119,.T.);
#62=FACE_OUTER_BOUND('',#120,.T.);
#63=FACE_OUTER_BOUND('',#121,.T.);
#64=FACE_OUTER_BOUND('',#122,.T.);
#65=FACE_OUTER_BOUND('',#123,.T.);
#66=FACE_OUTER_BOUND('',#124,.T.);
#67=FACE_OUTER_BOUND('',#125,.T.);
#68=FACE_OUTER_BOUND('',#126,.T.);
#69=FACE_OUTER_BOUND('',#127,.T.);
#70=FACE_OUTER_BOUND('',#128,.T.);
#71=FACE_OUTER_BOUND('',#129,.T.);
#72=FACE_OUTER_BOUND('',#130,.T.);
#73=FACE_OUTER_BOUND('',#131,.T.);
#74=FACE_OUTER_BOUND('',#132,.T.);
#75=FACE_OUTER_BOUND('',#133,.T.);
#76=FACE_OUTER_BOUND('',#134,.T.);
#77=FACE_OUTER_BOUND('',#135,.T.);
#78=FACE_OUTER_BOUND('',#136,.T.);
#79=FACE_OUTER_BOUND('',#137,.T.);
#80=FACE_OUTER_BOUND('',#138,.T.);
#81=FACE_OUTER_BOUND('',#139,.T.);
#82=FACE_OUTER_BOUND('',#140,.T.);
#83=FACE_OUTER_BOUND('',#141,.T.);
#84=FACE_OUTER_BOUND('',#142,.T.);
#85=FACE_OUTER_BOUND('',#143,.T.);
#86=EDGE_LOOP('',(#490,#491,#492,#493));
#87=EDGE_LOOP('',(#494,#495,#496,#497));
#88=EDGE_LOOP('',(#498,#499,#500,#501));
#89=EDGE_LOOP('',(#502,#503,#504,#505,#506,#507,#508,#509));
#90=EDGE_LOOP('',(#510));
#91=EDGE_LOOP('',(#511));
#92=EDGE_LOOP('',(#512));
#93=EDGE_LOOP('',(#513));
#94=EDGE_LOOP('',(#514));
#95=EDGE_LOOP('',(#515));
#96=EDGE_LOOP('',(#516));
#97=EDGE_LOOP('',(#517,#518));
#98=EDGE_LOOP('',(#519,#520,#521,#522,#523,#524,#525,#526,#527,#528,#529,
#530,#531,#532,#533,#534,#535,#536));
#99=EDGE_LOOP('',(#537));
#100=EDGE_LOOP('',(#538,#539,#540,#541));
#101=EDGE_LOOP('',(#542,#543,#544,#545));
#102=EDGE_LOOP('',(#546,#547,#548,#549));
#103=EDGE_LOOP('',(#550,#551,#552,#553));
#104=EDGE_LOOP('',(#554,#555,#556,#557));
#105=EDGE_LOOP('',(#558,#559,#560,#561));
#106=EDGE_LOOP('',(#562,#563,#564,#565,#566,#567,#568,#569));
#107=EDGE_LOOP('',(#570,#571));
#108=EDGE_LOOP('',(#572));
#109=EDGE_LOOP('',(#573,#574,#575,#576,#577,#578,#579,#580,#581,#582,#583,
#584,#585,#586,#587,#588,#589,#590));
#110=EDGE_LOOP('',(#591));
#111=EDGE_LOOP('',(#592));
#112=EDGE_LOOP('',(#593));
#113=EDGE_LOOP('',(#594));
#114=EDGE_LOOP('',(#595));
#115=EDGE_LOOP('',(#596));
#116=EDGE_LOOP('',(#597));
#117=EDGE_LOOP('',(#598,#599,#600,#601));
#118=EDGE_LOOP('',(#602,#603,#604,#605));
#119=EDGE_LOOP('',(#606,#607,#608,#609));
#120=EDGE_LOOP('',(#610,#611,#612,#613));
#121=EDGE_LOOP('',(#614,#615,#616,#617));
#122=EDGE_LOOP('',(#618,#619,#620,#621));
#123=EDGE_LOOP('',(#622,#623,#624,#625));
#124=EDGE_LOOP('',(#626,#627,#628,#629));
#125=EDGE_LOOP('',(#630,#631,#632,#633));
#126=EDGE_LOOP('',(#634,#635,#636,#637));
#127=EDGE_LOOP('',(#638,#639,#640,#641));
#128=EDGE_LOOP('',(#642,#643,#644,#645));
#129=EDGE_LOOP('',(#646,#647,#648,#649));
#130=EDGE_LOOP('',(#650,#651,#652,#653));
#131=EDGE_LOOP('',(#654,#655,#656,#657));
#132=EDGE_LOOP('',(#658,#659,#660,#661));
#133=EDGE_LOOP('',(#662,#663,#664,#665));
#134=EDGE_LOOP('',(#666,#667,#668,#669));
#135=EDGE_LOOP('',(#670,#671,#672,#673));
#136=EDGE_LOOP('',(#674,#675,#676,#677));
#137=EDGE_LOOP('',(#678,#679,#680,#681));
#138=EDGE_LOOP('',(#682,#683,#684,#685));
#139=EDGE_LOOP('',(#686,#687,#688,#689));
#140=EDGE_LOOP('',(#690,#691,#692,#693));
#141=EDGE_LOOP('',(#694,#695,#696,#697));
#142=EDGE_LOOP('',(#698,#699,#700,#701));
#143=EDGE_LOOP('',(#702,#703,#704,#705));
#144=LINE('',#1113,#202);
#145=LINE('',#1116,#203);
#146=LINE('',#1121,#204);
#147=LINE('',#1124,#205);
#148=LINE('',#1125,#206);
#149=LINE('',#1129,#207);
#150=LINE('',#1133,#208);
#151=LINE('',#1137,#209);
#152=LINE('',#1139,#210);
#153=LINE('',#1142,#211);
#154=LINE('',#1161,#212);
#155=LINE('',#1185,#213);
#156=LINE('',#1189,#214);
#157=LINE('',#1191,#215);
#158=LINE('',#1192,#216);
#159=LINE('',#1195,#217);
#160=LINE('',#1199,#218);
#161=LINE('',#1203,#219);
#162=LINE('',#1207,#220);
#163=LINE('',#1211,#221);
#164=LINE('',#1215,#222);
#165=LINE('',#1217,#223);
#166=LINE('',#1224,#224);
#167=LINE('',#1226,#225);
#168=LINE('',#1230,#226);
#169=LINE('',#1234,#227);
#170=LINE('',#1235,#228);
#171=LINE('',#1239,#229);
#172=LINE('',#1243,#230);
#173=LINE('',#1245,#231);
#174=LINE('',#1247,#232);
#175=LINE('',#1251,#233);
#176=LINE('',#1274,#234);
#177=LINE('',#1276,#235);
#178=LINE('',#1277,#236);
#179=LINE('',#1279,#237);
#180=LINE('',#1281,#238);
#181=LINE('',#1283,#239);
#182=LINE('',#1284,#240);
#183=LINE('',#1287,#241);
#184=LINE('',#1289,#242);
#185=LINE('',#1291,#243);
#186=LINE('',#1293,#244);
#187=LINE('',#1295,#245);
#188=LINE('',#1297,#246);
#189=LINE('',#1298,#247);
#190=LINE('',#1300,#248);
#191=LINE('',#1302,#249);
#192=LINE('',#1303,#250);
#193=LINE('',#1306,#251);
#194=LINE('',#1308,#252);
#195=LINE('',#1310,#253);
#196=LINE('',#1311,#254);
#197=LINE('',#1313,#255);
#198=LINE('',#1316,#256);
#199=LINE('',#1319,#257);
#200=LINE('',#1321,#258);
#201=LINE('',#1323,#259);
#202=VECTOR('',#877,10.);
#203=VECTOR('',#880,10.);
#204=VECTOR('',#885,4.9);
#205=VECTOR('',#890,10.);
#206=VECTOR('',#891,10.);
#207=VECTOR('',#894,10.);
#208=VECTOR('',#897,10.);
#209=VECTOR('',#900,10.);
#210=VECTOR('',#901,10.);
#211=VECTOR('',#904,10.);
#212=VECTOR('',#921,10.);
#213=VECTOR('',#944,10.);
#214=VECTOR('',#947,10.);
#215=VECTOR('',#948,10.);
#216=VECTOR('',#949,10.);
#217=VECTOR('',#952,2.75);
#218=VECTOR('',#957,2.75);
#219=VECTOR('',#962,2.75);
#220=VECTOR('',#967,2.75);
#221=VECTOR('',#972,2.75);
#222=VECTOR('',#977,10.);
#223=VECTOR('',#978,10.);
#224=VECTOR('',#985,10.);
#225=VECTOR('',#986,10.);
#226=VECTOR('',#989,10.);
#227=VECTOR('',#992,10.);
#228=VECTOR('',#993,10.);
#229=VECTOR('',#996,10.);
#230=VECTOR('',#999,10.);
#231=VECTOR('',#1000,10.);
#232=VECTOR('',#1001,10.);
#233=VECTOR('',#1004,10.);
#234=VECTOR('',#1029,10.);
#235=VECTOR('',#1032,10.);
#236=VECTOR('',#1033,10.);
#237=VECTOR('',#1036,10.);
#238=VECTOR('',#1039,10.);
#239=VECTOR('',#1042,10.);
#240=VECTOR('',#1043,10.);
#241=VECTOR('',#1048,10.);
#242=VECTOR('',#1051,10.);
#243=VECTOR('',#1054,10.);
#244=VECTOR('',#1057,10.);
#245=VECTOR('',#1060,10.);
#246=VECTOR('',#1063,10.);
#247=VECTOR('',#1064,10.);
#248=VECTOR('',#1067,10.);
#249=VECTOR('',#1070,10.);
#250=VECTOR('',#1071,10.);
#251=VECTOR('',#1076,2.2);
#252=VECTOR('',#1079,2.2);
#253=VECTOR('',#1082,10.);
#254=VECTOR('',#1083,10.);
#255=VECTOR('',#1086,10.);
#256=VECTOR('',#1091,10.);
#257=VECTOR('',#1096,10.);
#258=VECTOR('',#1099,10.);
#259=VECTOR('',#1102,10.);
#260=CIRCLE('',#784,5.5);
#261=CIRCLE('',#785,5.5);
#262=CIRCLE('',#787,4.9);
#263=CIRCLE('',#788,4.9);
#264=CIRCLE('',#791,28.);
#265=CIRCLE('',#792,28.);
#266=CIRCLE('',#793,46.);
#267=CIRCLE('',#794,2.2);
#268=CIRCLE('',#795,2.2);
#269=CIRCLE('',#796,2.75);
#270=CIRCLE('',#797,2.75);
#271=CIRCLE('',#798,2.75);
#272=CIRCLE('',#799,2.75);
#273=CIRCLE('',#800,2.75);
#274=CIRCLE('',#801,2.2);
#275=CIRCLE('',#802,37.);
#276=CIRCLE('',#803,6.);
#277=CIRCLE('',#804,37.);
#278=CIRCLE('',#805,6.);
#279=CIRCLE('',#806,37.);
#280=CIRCLE('',#807,6.);
#281=CIRCLE('',#808,37.);
#282=CIRCLE('',#809,6.);
#283=CIRCLE('',#810,37.);
#284=CIRCLE('',#811,6.);
#285=CIRCLE('',#812,37.);
#286=CIRCLE('',#813,2.2);
#287=CIRCLE('',#815,2.75);
#288=CIRCLE('',#817,2.75);
#289=CIRCLE('',#819,2.75);
#290=CIRCLE('',#821,2.75);
#291=CIRCLE('',#823,2.75);
#292=CIRCLE('',#825,6.);
#293=CIRCLE('',#827,46.);
#294=CIRCLE('',#828,28.);
#295=CIRCLE('',#829,28.);
#296=CIRCLE('',#830,37.);
#297=CIRCLE('',#831,2.2);
#298=CIRCLE('',#832,2.2);
#299=CIRCLE('',#833,37.);
#300=CIRCLE('',#834,6.);
#301=CIRCLE('',#835,37.);
#302=CIRCLE('',#836,6.);
#303=CIRCLE('',#837,37.);
#304=CIRCLE('',#838,6.);
#305=CIRCLE('',#839,37.);
#306=CIRCLE('',#840,6.);
#307=CIRCLE('',#841,37.);
#308=CIRCLE('',#842,2.2);
#309=CIRCLE('',#843,2.2);
#310=VERTEX_POINT('',#1109);
#311=VERTEX_POINT('',#1110);
#312=VERTEX_POINT('',#1112);
#313=VERTEX_POINT('',#1114);
#314=VERTEX_POINT('',#1118);
#315=VERTEX_POINT('',#1120);
#316=VERTEX_POINT('',#1127);
#317=VERTEX_POINT('',#1128);
#318=VERTEX_POINT('',#1130);
#319=VERTEX_POINT('',#1132);
#320=VERTEX_POINT('',#1134);
#321=VERTEX_POINT('',#1136);
#322=VERTEX_POINT('',#1138);
#323=VERTEX_POINT('',#1140);
#324=VERTEX_POINT('',#1143);
#325=VERTEX_POINT('',#1145);
#326=VERTEX_POINT('',#1147);
#327=VERTEX_POINT('',#1149);
#328=VERTEX_POINT('',#1151);
#329=VERTEX_POINT('',#1153);
#330=VERTEX_POINT('',#1155);
#331=VERTEX_POINT('',#1157);
#332=VERTEX_POINT('',#1158);
#333=VERTEX_POINT('',#1160);
#334=VERTEX_POINT('',#1162);
#335=VERTEX_POINT('',#1164);
#336=VERTEX_POINT('',#1166);
#337=VERTEX_POINT('',#1168);
#338=VERTEX_POINT('',#1170);
#339=VERTEX_POINT('',#1172);
#340=VERTEX_POINT('',#1174);
#341=VERTEX_POINT('',#1176);
#342=VERTEX_POINT('',#1178);
#343=VERTEX_POINT('',#1180);
#344=VERTEX_POINT('',#1182);
#345=VERTEX_POINT('',#1184);
#346=VERTEX_POINT('',#1186);
#347=VERTEX_POINT('',#1188);
#348=VERTEX_POINT('',#1190);
#349=VERTEX_POINT('',#1194);
#350=VERTEX_POINT('',#1198);
#351=VERTEX_POINT('',#1202);
#352=VERTEX_POINT('',#1206);
#353=VERTEX_POINT('',#1210);
#354=VERTEX_POINT('',#1214);
#355=VERTEX_POINT('',#1216);
#356=VERTEX_POINT('',#1220);
#357=VERTEX_POINT('',#1221);
#358=VERTEX_POINT('',#1223);
#359=VERTEX_POINT('',#1225);
#360=VERTEX_POINT('',#1227);
#361=VERTEX_POINT('',#1229);
#362=VERTEX_POINT('',#1231);
#363=VERTEX_POINT('',#1233);
#364=VERTEX_POINT('',#1236);
#365=VERTEX_POINT('',#1238);
#366=VERTEX_POINT('',#1240);
#367=VERTEX_POINT('',#1242);
#368=VERTEX_POINT('',#1244);
#369=VERTEX_POINT('',#1246);
#370=VERTEX_POINT('',#1248);
#371=VERTEX_POINT('',#1250);
#372=VERTEX_POINT('',#1252);
#373=VERTEX_POINT('',#1254);
#374=VERTEX_POINT('',#1256);
#375=VERTEX_POINT('',#1258);
#376=VERTEX_POINT('',#1260);
#377=VERTEX_POINT('',#1262);
#378=VERTEX_POINT('',#1264);
#379=VERTEX_POINT('',#1266);
#380=VERTEX_POINT('',#1269);
#381=VERTEX_POINT('',#1271);
#382=EDGE_CURVE('',#310,#311,#260,.T.);
#383=EDGE_CURVE('',#310,#312,#144,.T.);
#384=EDGE_CURVE('',#313,#312,#261,.T.);
#385=EDGE_CURVE('',#313,#311,#145,.T.);
#386=EDGE_CURVE('',#314,#314,#262,.T.);
#387=EDGE_CURVE('',#314,#315,#146,.T.);
#388=EDGE_CURVE('',#315,#315,#263,.T.);
#389=EDGE_CURVE('',#311,#310,#147,.T.);
#390=EDGE_CURVE('',#312,#313,#148,.T.);
#391=EDGE_CURVE('',#316,#317,#149,.T.);
#392=EDGE_CURVE('',#316,#318,#264,.T.);
#393=EDGE_CURVE('',#318,#319,#150,.T.);
#394=EDGE_CURVE('',#319,#320,#265,.T.);
#395=EDGE_CURVE('',#321,#320,#151,.T.);
#396=EDGE_CURVE('',#322,#321,#152,.T.);
#397=EDGE_CURVE('',#322,#323,#266,.T.);
#398=EDGE_CURVE('',#317,#323,#153,.T.);
#399=EDGE_CURVE('',#324,#324,#267,.T.);
#400=EDGE_CURVE('',#325,#325,#268,.T.);
#401=EDGE_CURVE('',#326,#326,#269,.T.);
#402=EDGE_CURVE('',#327,#327,#270,.T.);
#403=EDGE_CURVE('',#328,#328,#271,.T.);
#404=EDGE_CURVE('',#329,#329,#272,.T.);
#405=EDGE_CURVE('',#330,#330,#273,.T.);
#406=EDGE_CURVE('',#331,#332,#274,.T.);
#407=EDGE_CURVE('',#332,#333,#154,.T.);
#408=EDGE_CURVE('',#333,#334,#275,.T.);
#409=EDGE_CURVE('',#334,#335,#276,.T.);
#410=EDGE_CURVE('',#335,#336,#277,.T.);
#411=EDGE_CURVE('',#336,#337,#278,.T.);
#412=EDGE_CURVE('',#337,#338,#279,.T.);
#413=EDGE_CURVE('',#338,#339,#280,.T.);
#414=EDGE_CURVE('',#339,#340,#281,.T.);
#415=EDGE_CURVE('',#340,#341,#282,.T.);
#416=EDGE_CURVE('',#341,#342,#283,.T.);
#417=EDGE_CURVE('',#342,#343,#284,.T.);
#418=EDGE_CURVE('',#343,#344,#285,.T.);
#419=EDGE_CURVE('',#344,#345,#155,.T.);
#420=EDGE_CURVE('',#345,#346,#286,.T.);
#421=EDGE_CURVE('',#346,#347,#156,.T.);
#422=EDGE_CURVE('',#347,#348,#157,.T.);
#423=EDGE_CURVE('',#348,#331,#158,.T.);
#424=EDGE_CURVE('',#330,#349,#159,.T.);
#425=EDGE_CURVE('',#349,#349,#287,.T.);
#426=EDGE_CURVE('',#329,#350,#160,.T.);
#427=EDGE_CURVE('',#350,#350,#288,.T.);
#428=EDGE_CURVE('',#328,#351,#161,.T.);
#429=EDGE_CURVE('',#351,#351,#289,.T.);
#430=EDGE_CURVE('',#327,#352,#162,.T.);
#431=EDGE_CURVE('',#352,#352,#290,.T.);
#432=EDGE_CURVE('',#326,#353,#163,.T.);
#433=EDGE_CURVE('',#353,#353,#291,.T.);
#434=EDGE_CURVE('',#335,#354,#164,.T.);
#435=EDGE_CURVE('',#355,#334,#165,.T.);
#436=EDGE_CURVE('',#354,#355,#292,.T.);
#437=EDGE_CURVE('',#356,#357,#293,.T.);
#438=EDGE_CURVE('',#358,#357,#166,.T.);
#439=EDGE_CURVE('',#358,#359,#167,.T.);
#440=EDGE_CURVE('',#359,#360,#294,.T.);
#441=EDGE_CURVE('',#360,#361,#168,.T.);
#442=EDGE_CURVE('',#361,#362,#295,.T.);
#443=EDGE_CURVE('',#362,#363,#169,.T.);
#444=EDGE_CURVE('',#356,#363,#170,.T.);
#445=EDGE_CURVE('',#355,#364,#296,.T.);
#446=EDGE_CURVE('',#364,#365,#171,.T.);
#447=EDGE_CURVE('',#365,#366,#297,.T.);
#448=EDGE_CURVE('',#366,#367,#172,.T.);
#449=EDGE_CURVE('',#367,#368,#173,.T.);
#450=EDGE_CURVE('',#368,#369,#174,.T.);
#451=EDGE_CURVE('',#369,#370,#298,.T.);
#452=EDGE_CURVE('',#370,#371,#175,.T.);
#453=EDGE_CURVE('',#371,#372,#299,.T.);
#454=EDGE_CURVE('',#372,#373,#300,.T.);
#455=EDGE_CURVE('',#373,#374,#301,.T.);
#456=EDGE_CURVE('',#374,#375,#302,.T.);
#457=EDGE_CURVE('',#375,#376,#303,.T.);
#458=EDGE_CURVE('',#376,#377,#304,.T.);
#459=EDGE_CURVE('',#377,#378,#305,.T.);
#460=EDGE_CURVE('',#378,#379,#306,.T.);
#461=EDGE_CURVE('',#379,#354,#307,.T.);
#462=EDGE_CURVE('',#380,#380,#308,.T.);
#463=EDGE_CURVE('',#381,#381,#309,.T.);
#464=EDGE_CURVE('',#333,#364,#176,.T.);
#465=EDGE_CURVE('',#379,#336,#177,.T.);
#466=EDGE_CURVE('',#337,#378,#178,.T.);
#467=EDGE_CURVE('',#377,#338,#179,.T.);
#468=EDGE_CURVE('',#339,#376,#180,.T.);
#469=EDGE_CURVE('',#356,#323,#181,.T.);
#470=EDGE_CURVE('',#322,#357,#182,.T.);
#471=EDGE_CURVE('',#375,#340,#183,.T.);
#472=EDGE_CURVE('',#341,#374,#184,.T.);
#473=EDGE_CURVE('',#373,#342,#185,.T.);
#474=EDGE_CURVE('',#343,#372,#186,.T.);
#475=EDGE_CURVE('',#371,#344,#187,.T.);
#476=EDGE_CURVE('',#346,#369,#188,.T.);
#477=EDGE_CURVE('',#370,#345,#189,.T.);
#478=EDGE_CURVE('',#347,#368,#190,.T.);
#479=EDGE_CURVE('',#332,#365,#191,.T.);
#480=EDGE_CURVE('',#366,#331,#192,.T.);
#481=EDGE_CURVE('',#325,#381,#193,.T.);
#482=EDGE_CURVE('',#324,#380,#194,.T.);
#483=EDGE_CURVE('',#361,#318,#195,.T.);
#484=EDGE_CURVE('',#319,#360,#196,.T.);
#485=EDGE_CURVE('',#362,#316,#197,.T.);
#486=EDGE_CURVE('',#367,#348,#198,.T.);
#487=EDGE_CURVE('',#320,#359,#199,.T.);
#488=EDGE_CURVE('',#321,#358,#200,.T.);
#489=EDGE_CURVE('',#363,#317,#201,.T.);
#490=ORIENTED_EDGE('',*,*,#382,.F.);
#491=ORIENTED_EDGE('',*,*,#383,.T.);
#492=ORIENTED_EDGE('',*,*,#384,.F.);
#493=ORIENTED_EDGE('',*,*,#385,.T.);
#494=ORIENTED_EDGE('',*,*,#386,.F.);
#495=ORIENTED_EDGE('',*,*,#387,.T.);
#496=ORIENTED_EDGE('',*,*,#388,.F.);
#497=ORIENTED_EDGE('',*,*,#387,.F.);
#498=ORIENTED_EDGE('',*,*,#389,.F.);
#499=ORIENTED_EDGE('',*,*,#385,.F.);
#500=ORIENTED_EDGE('',*,*,#390,.F.);
#501=ORIENTED_EDGE('',*,*,#383,.F.);
#502=ORIENTED_EDGE('',*,*,#391,.F.);
#503=ORIENTED_EDGE('',*,*,#392,.T.);
#504=ORIENTED_EDGE('',*,*,#393,.T.);
#505=ORIENTED_EDGE('',*,*,#394,.T.);
#506=ORIENTED_EDGE('',*,*,#395,.F.);
#507=ORIENTED_EDGE('',*,*,#396,.F.);
#508=ORIENTED_EDGE('',*,*,#397,.T.);
#509=ORIENTED_EDGE('',*,*,#398,.F.);
#510=ORIENTED_EDGE('',*,*,#399,.T.);
#511=ORIENTED_EDGE('',*,*,#400,.T.);
#512=ORIENTED_EDGE('',*,*,#401,.T.);
#513=ORIENTED_EDGE('',*,*,#402,.T.);
#514=ORIENTED_EDGE('',*,*,#403,.T.);
#515=ORIENTED_EDGE('',*,*,#404,.T.);
#516=ORIENTED_EDGE('',*,*,#405,.T.);
#517=ORIENTED_EDGE('',*,*,#384,.T.);
#518=ORIENTED_EDGE('',*,*,#390,.T.);
#519=ORIENTED_EDGE('',*,*,#406,.T.);
#520=ORIENTED_EDGE('',*,*,#407,.T.);
#521=ORIENTED_EDGE('',*,*,#408,.T.);
#522=ORIENTED_EDGE('',*,*,#409,.T.);
#523=ORIENTED_EDGE('',*,*,#410,.T.);
#524=ORIENTED_EDGE('',*,*,#411,.T.);
#525=ORIENTED_EDGE('',*,*,#412,.T.);
#526=ORIENTED_EDGE('',*,*,#413,.T.);
#527=ORIENTED_EDGE('',*,*,#414,.T.);
#528=ORIENTED_EDGE('',*,*,#415,.T.);
#529=ORIENTED_EDGE('',*,*,#416,.T.);
#530=ORIENTED_EDGE('',*,*,#417,.T.);
#531=ORIENTED_EDGE('',*,*,#418,.T.);
#532=ORIENTED_EDGE('',*,*,#419,.T.);
#533=ORIENTED_EDGE('',*,*,#420,.T.);
#534=ORIENTED_EDGE('',*,*,#421,.T.);
#535=ORIENTED_EDGE('',*,*,#422,.T.);
#536=ORIENTED_EDGE('',*,*,#423,.T.);
#537=ORIENTED_EDGE('',*,*,#386,.T.);
#538=ORIENTED_EDGE('',*,*,#405,.F.);
#539=ORIENTED_EDGE('',*,*,#424,.T.);
#540=ORIENTED_EDGE('',*,*,#425,.F.);
#541=ORIENTED_EDGE('',*,*,#424,.F.);
#542=ORIENTED_EDGE('',*,*,#404,.F.);
#543=ORIENTED_EDGE('',*,*,#426,.T.);
#544=ORIENTED_EDGE('',*,*,#427,.F.);
#545=ORIENTED_EDGE('',*,*,#426,.F.);
#546=ORIENTED_EDGE('',*,*,#403,.F.);
#547=ORIENTED_EDGE('',*,*,#428,.T.);
#548=ORIENTED_EDGE('',*,*,#429,.F.);
#549=ORIENTED_EDGE('',*,*,#428,.F.);
#550=ORIENTED_EDGE('',*,*,#402,.F.);
#551=ORIENTED_EDGE('',*,*,#430,.T.);
#552=ORIENTED_EDGE('',*,*,#431,.F.);
#553=ORIENTED_EDGE('',*,*,#430,.F.);
#554=ORIENTED_EDGE('',*,*,#401,.F.);
#555=ORIENTED_EDGE('',*,*,#432,.T.);
#556=ORIENTED_EDGE('',*,*,#433,.F.);
#557=ORIENTED_EDGE('',*,*,#432,.F.);
#558=ORIENTED_EDGE('',*,*,#434,.F.);
#559=ORIENTED_EDGE('',*,*,#409,.F.);
#560=ORIENTED_EDGE('',*,*,#435,.F.);
#561=ORIENTED_EDGE('',*,*,#436,.F.);
#562=ORIENTED_EDGE('',*,*,#437,.T.);
#563=ORIENTED_EDGE('',*,*,#438,.F.);
#564=ORIENTED_EDGE('',*,*,#439,.T.);
#565=ORIENTED_EDGE('',*,*,#440,.T.);
#566=ORIENTED_EDGE('',*,*,#441,.T.);
#567=ORIENTED_EDGE('',*,*,#442,.T.);
#568=ORIENTED_EDGE('',*,*,#443,.T.);
#569=ORIENTED_EDGE('',*,*,#444,.F.);
#570=ORIENTED_EDGE('',*,*,#389,.T.);
#571=ORIENTED_EDGE('',*,*,#382,.T.);
#572=ORIENTED_EDGE('',*,*,#388,.T.);
#573=ORIENTED_EDGE('',*,*,#445,.T.);
#574=ORIENTED_EDGE('',*,*,#446,.T.);
#575=ORIENTED_EDGE('',*,*,#447,.T.);
#576=ORIENTED_EDGE('',*,*,#448,.T.);
#577=ORIENTED_EDGE('',*,*,#449,.T.);
#578=ORIENTED_EDGE('',*,*,#450,.T.);
#579=ORIENTED_EDGE('',*,*,#451,.T.);
#580=ORIENTED_EDGE('',*,*,#452,.T.);
#581=ORIENTED_EDGE('',*,*,#453,.T.);
#582=ORIENTED_EDGE('',*,*,#454,.T.);
#583=ORIENTED_EDGE('',*,*,#455,.T.);
#584=ORIENTED_EDGE('',*,*,#456,.T.);
#585=ORIENTED_EDGE('',*,*,#457,.T.);
#586=ORIENTED_EDGE('',*,*,#458,.T.);
#587=ORIENTED_EDGE('',*,*,#459,.T.);
#588=ORIENTED_EDGE('',*,*,#460,.T.);
#589=ORIENTED_EDGE('',*,*,#461,.T.);
#590=ORIENTED_EDGE('',*,*,#436,.T.);
#591=ORIENTED_EDGE('',*,*,#462,.T.);
#592=ORIENTED_EDGE('',*,*,#463,.T.);
#593=ORIENTED_EDGE('',*,*,#433,.T.);
#594=ORIENTED_EDGE('',*,*,#431,.T.);
#595=ORIENTED_EDGE('',*,*,#429,.T.);
#596=ORIENTED_EDGE('',*,*,#427,.T.);
#597=ORIENTED_EDGE('',*,*,#425,.T.);
#598=ORIENTED_EDGE('',*,*,#435,.T.);
#599=ORIENTED_EDGE('',*,*,#408,.F.);
#600=ORIENTED_EDGE('',*,*,#464,.T.);
#601=ORIENTED_EDGE('',*,*,#445,.F.);
#602=ORIENTED_EDGE('',*,*,#465,.F.);
#603=ORIENTED_EDGE('',*,*,#460,.F.);
#604=ORIENTED_EDGE('',*,*,#466,.F.);
#605=ORIENTED_EDGE('',*,*,#411,.F.);
#606=ORIENTED_EDGE('',*,*,#466,.T.);
#607=ORIENTED_EDGE('',*,*,#459,.F.);
#608=ORIENTED_EDGE('',*,*,#467,.T.);
#609=ORIENTED_EDGE('',*,*,#412,.F.);
#610=ORIENTED_EDGE('',*,*,#468,.F.);
#611=ORIENTED_EDGE('',*,*,#413,.F.);
#612=ORIENTED_EDGE('',*,*,#467,.F.);
#613=ORIENTED_EDGE('',*,*,#458,.F.);
#614=ORIENTED_EDGE('',*,*,#437,.F.);
#615=ORIENTED_EDGE('',*,*,#469,.T.);
#616=ORIENTED_EDGE('',*,*,#397,.F.);
#617=ORIENTED_EDGE('',*,*,#470,.T.);
#618=ORIENTED_EDGE('',*,*,#434,.T.);
#619=ORIENTED_EDGE('',*,*,#461,.F.);
#620=ORIENTED_EDGE('',*,*,#465,.T.);
#621=ORIENTED_EDGE('',*,*,#410,.F.);
#622=ORIENTED_EDGE('',*,*,#468,.T.);
#623=ORIENTED_EDGE('',*,*,#457,.F.);
#624=ORIENTED_EDGE('',*,*,#471,.T.);
#625=ORIENTED_EDGE('',*,*,#414,.F.);
#626=ORIENTED_EDGE('',*,*,#471,.F.);
#627=ORIENTED_EDGE('',*,*,#456,.F.);
#628=ORIENTED_EDGE('',*,*,#472,.F.);
#629=ORIENTED_EDGE('',*,*,#415,.F.);
#630=ORIENTED_EDGE('',*,*,#472,.T.);
#631=ORIENTED_EDGE('',*,*,#455,.F.);
#632=ORIENTED_EDGE('',*,*,#473,.T.);
#633=ORIENTED_EDGE('',*,*,#416,.F.);
#634=ORIENTED_EDGE('',*,*,#473,.F.);
#635=ORIENTED_EDGE('',*,*,#454,.F.);
#636=ORIENTED_EDGE('',*,*,#474,.F.);
#637=ORIENTED_EDGE('',*,*,#417,.F.);
#638=ORIENTED_EDGE('',*,*,#474,.T.);
#639=ORIENTED_EDGE('',*,*,#453,.F.);
#640=ORIENTED_EDGE('',*,*,#475,.T.);
#641=ORIENTED_EDGE('',*,*,#418,.F.);
#642=ORIENTED_EDGE('',*,*,#451,.F.);
#643=ORIENTED_EDGE('',*,*,#476,.F.);
#644=ORIENTED_EDGE('',*,*,#420,.F.);
#645=ORIENTED_EDGE('',*,*,#477,.F.);
#646=ORIENTED_EDGE('',*,*,#476,.T.);
#647=ORIENTED_EDGE('',*,*,#450,.F.);
#648=ORIENTED_EDGE('',*,*,#478,.F.);
#649=ORIENTED_EDGE('',*,*,#421,.F.);
#650=ORIENTED_EDGE('',*,*,#447,.F.);
#651=ORIENTED_EDGE('',*,*,#479,.F.);
#652=ORIENTED_EDGE('',*,*,#406,.F.);
#653=ORIENTED_EDGE('',*,*,#480,.F.);
#654=ORIENTED_EDGE('',*,*,#479,.T.);
#655=ORIENTED_EDGE('',*,*,#446,.F.);
#656=ORIENTED_EDGE('',*,*,#464,.F.);
#657=ORIENTED_EDGE('',*,*,#407,.F.);
#658=ORIENTED_EDGE('',*,*,#400,.F.);
#659=ORIENTED_EDGE('',*,*,#481,.T.);
#660=ORIENTED_EDGE('',*,*,#463,.F.);
#661=ORIENTED_EDGE('',*,*,#481,.F.);
#662=ORIENTED_EDGE('',*,*,#399,.F.);
#663=ORIENTED_EDGE('',*,*,#482,.T.);
#664=ORIENTED_EDGE('',*,*,#462,.F.);
#665=ORIENTED_EDGE('',*,*,#482,.F.);
#666=ORIENTED_EDGE('',*,*,#393,.F.);
#667=ORIENTED_EDGE('',*,*,#483,.F.);
#668=ORIENTED_EDGE('',*,*,#441,.F.);
#669=ORIENTED_EDGE('',*,*,#484,.F.);
#670=ORIENTED_EDGE('',*,*,#483,.T.);
#671=ORIENTED_EDGE('',*,*,#392,.F.);
#672=ORIENTED_EDGE('',*,*,#485,.F.);
#673=ORIENTED_EDGE('',*,*,#442,.F.);
#674=ORIENTED_EDGE('',*,*,#477,.T.);
#675=ORIENTED_EDGE('',*,*,#419,.F.);
#676=ORIENTED_EDGE('',*,*,#475,.F.);
#677=ORIENTED_EDGE('',*,*,#452,.F.);
#678=ORIENTED_EDGE('',*,*,#480,.T.);
#679=ORIENTED_EDGE('',*,*,#423,.F.);
#680=ORIENTED_EDGE('',*,*,#486,.F.);
#681=ORIENTED_EDGE('',*,*,#448,.F.);
#682=ORIENTED_EDGE('',*,*,#449,.F.);
#683=ORIENTED_EDGE('',*,*,#486,.T.);
#684=ORIENTED_EDGE('',*,*,#422,.F.);
#685=ORIENTED_EDGE('',*,*,#478,.T.);
#686=ORIENTED_EDGE('',*,*,#484,.T.);
#687=ORIENTED_EDGE('',*,*,#440,.F.);
#688=ORIENTED_EDGE('',*,*,#487,.F.);
#689=ORIENTED_EDGE('',*,*,#394,.F.);
#690=ORIENTED_EDGE('',*,*,#487,.T.);
#691=ORIENTED_EDGE('',*,*,#439,.F.);
#692=ORIENTED_EDGE('',*,*,#488,.F.);
#693=ORIENTED_EDGE('',*,*,#395,.T.);
#694=ORIENTED_EDGE('',*,*,#485,.T.);
#695=ORIENTED_EDGE('',*,*,#391,.T.);
#696=ORIENTED_EDGE('',*,*,#489,.F.);
#697=ORIENTED_EDGE('',*,*,#443,.F.);
#698=ORIENTED_EDGE('',*,*,#470,.F.);
#699=ORIENTED_EDGE('',*,*,#396,.T.);
#700=ORIENTED_EDGE('',*,*,#488,.T.);
#701=ORIENTED_EDGE('',*,*,#438,.T.);
#702=ORIENTED_EDGE('',*,*,#469,.F.);
#703=ORIENTED_EDGE('',*,*,#444,.T.);
#704=ORIENTED_EDGE('',*,*,#489,.T.);
#705=ORIENTED_EDGE('',*,*,#398,.T.);
#706=CYLINDRICAL_SURFACE('',#783,5.5);
#707=CYLINDRICAL_SURFACE('',#786,4.9);
#708=CYLINDRICAL_SURFACE('',#814,2.75);
#709=CYLINDRICAL_SURFACE('',#816,2.75);
#710=CYLINDRICAL_SURFACE('',#818,2.75);
#711=CYLINDRICAL_SURFACE('',#820,2.75);
#712=CYLINDRICAL_SURFACE('',#822,2.75);
#713=CYLINDRICAL_SURFACE('',#824,6.);
#714=CYLINDRICAL_SURFACE('',#844,37.);
#715=CYLINDRICAL_SURFACE('',#845,6.);
#716=CYLINDRICAL_SURFACE('',#846,37.);
#717=CYLINDRICAL_SURFACE('',#847,6.);
#718=CYLINDRICAL_SURFACE('',#848,46.);
#719=CYLINDRICAL_SURFACE('',#849,37.);
#720=CYLINDRICAL_SURFACE('',#850,37.);
#721=CYLINDRICAL_SURFACE('',#851,6.);
#722=CYLINDRICAL_SURFACE('',#852,37.);
#723=CYLINDRICAL_SURFACE('',#853,6.);
#724=CYLINDRICAL_SURFACE('',#854,37.);
#725=CYLINDRICAL_SURFACE('',#855,2.2);
#726=CYLINDRICAL_SURFACE('',#857,2.2);
#727=CYLINDRICAL_SURFACE('',#859,2.2);
#728=CYLINDRICAL_SURFACE('',#860,2.2);
#729=CYLINDRICAL_SURFACE('',#862,28.);
#730=CYLINDRICAL_SURFACE('',#866,28.);
#731=ADVANCED_FACE('',(#48),#706,.F.);
#732=ADVANCED_FACE('',(#49),#707,.F.);
#733=ADVANCED_FACE('',(#50),#35,.T.);
#734=ADVANCED_FACE('',(#51,#15,#16,#17,#18,#19,#20,#21,#22,#23,#24),#36,
 .T.);
#735=ADVANCED_FACE('',(#52),#708,.F.);
#736=ADVANCED_FACE('',(#53),#709,.F.);
#737=ADVANCED_FACE('',(#54),#710,.F.);
#738=ADVANCED_FACE('',(#55),#711,.F.);
#739=ADVANCED_FACE('',(#56),#712,.F.);
#740=ADVANCED_FACE('',(#57),#713,.T.);
#741=ADVANCED_FACE('',(#58,#25,#26,#27,#28,#29,#30,#31,#32,#33,#34),#37,
 .T.);
#742=ADVANCED_FACE('',(#59),#714,.F.);
#743=ADVANCED_FACE('',(#60),#715,.T.);
#744=ADVANCED_FACE('',(#61),#716,.F.);
#745=ADVANCED_FACE('',(#62),#717,.T.);
#746=ADVANCED_FACE('',(#63),#718,.T.);
#747=ADVANCED_FACE('',(#64),#719,.F.);
#748=ADVANCED_FACE('',(#65),#720,.F.);
#749=ADVANCED_FACE('',(#66),#721,.T.);
#750=ADVANCED_FACE('',(#67),#722,.F.);
#751=ADVANCED_FACE('',(#68),#723,.T.);
#752=ADVANCED_FACE('',(#69),#724,.F.);
#753=ADVANCED_FACE('',(#70),#725,.F.);
#754=ADVANCED_FACE('',(#71),#38,.F.);
#755=ADVANCED_FACE('',(#72),#726,.F.);
#756=ADVANCED_FACE('',(#73),#39,.T.);
#757=ADVANCED_FACE('',(#74),#727,.F.);
#758=ADVANCED_FACE('',(#75),#728,.F.);
#759=ADVANCED_FACE('',(#76),#40,.T.);
#760=ADVANCED_FACE('',(#77),#729,.T.);
#761=ADVANCED_FACE('',(#78),#41,.F.);
#762=ADVANCED_FACE('',(#79),#42,.T.);
#763=ADVANCED_FACE('',(#80),#43,.T.);
#764=ADVANCED_FACE('',(#81),#730,.T.);
#765=ADVANCED_FACE('',(#82),#44,.F.);
#766=ADVANCED_FACE('',(#83),#45,.F.);
#767=ADVANCED_FACE('',(#84),#46,.T.);
#768=ADVANCED_FACE('',(#85),#47,.F.);
#769=CLOSED_SHELL('',(#731,#732,#733,#734,#735,#736,#737,#738,#739,#740,
#741,#742,#743,#744,#745,#746,#747,#748,#749,#750,#751,#752,#753,#754,#755,
#756,#757,#758,#759,#760,#761,#762,#763,#764,#765,#766,#767,#768));
#770=DERIVED_UNIT_ELEMENT(#772,1.);
#771=DERIVED_UNIT_ELEMENT(#1331,-3.);
#772=(
MASS_UNIT()
NAMED_UNIT(*)
SI_UNIT(.KILO.,.GRAM.)
);
#773=DERIVED_UNIT((#770,#771));
#774=MEASURE_REPRESENTATION_ITEM('density measure',
POSITIVE_RATIO_MEASURE(7850.),#773);
#775=PROPERTY_DEFINITION_REPRESENTATION(#780,#777);
#776=PROPERTY_DEFINITION_REPRESENTATION(#781,#778);
#777=REPRESENTATION('material name',(#779),#1328);
#778=REPRESENTATION('density',(#774),#1328);
#779=DESCRIPTIVE_REPRESENTATION_ITEM('Steel','Steel');
#780=PROPERTY_DEFINITION('material property','material name',#1338);
#781=PROPERTY_DEFINITION('material property','density of part',#1338);
#782=AXIS2_PLACEMENT_3D('',#1107,#871,#872);
#783=AXIS2_PLACEMENT_3D('',#1108,#873,#874);
#784=AXIS2_PLACEMENT_3D('',#1111,#875,#876);
#785=AXIS2_PLACEMENT_3D('',#1115,#878,#879);
#786=AXIS2_PLACEMENT_3D('',#1117,#881,#882);
#787=AXIS2_PLACEMENT_3D('',#1119,#883,#884);
#788=AXIS2_PLACEMENT_3D('',#1122,#886,#887);
#789=AXIS2_PLACEMENT_3D('',#1123,#888,#889);
#790=AXIS2_PLACEMENT_3D('',#1126,#892,#893);
#791=AXIS2_PLACEMENT_3D('',#1131,#895,#896);
#792=AXIS2_PLACEMENT_3D('',#1135,#898,#899);
#793=AXIS2_PLACEMENT_3D('',#1141,#902,#903);
#794=AXIS2_PLACEMENT_3D('',#1144,#905,#906);
#795=AXIS2_PLACEMENT_3D('',#1146,#907,#908);
#796=AXIS2_PLACEMENT_3D('',#1148,#909,#910);
#797=AXIS2_PLACEMENT_3D('',#1150,#911,#912);
#798=AXIS2_PLACEMENT_3D('',#1152,#913,#914);
#799=AXIS2_PLACEMENT_3D('',#1154,#915,#916);
#800=AXIS2_PLACEMENT_3D('',#1156,#917,#918);
#801=AXIS2_PLACEMENT_3D('',#1159,#919,#920);
#802=AXIS2_PLACEMENT_3D('',#1163,#922,#923);
#803=AXIS2_PLACEMENT_3D('',#1165,#924,#925);
#804=AXIS2_PLACEMENT_3D('',#1167,#926,#927);
#805=AXIS2_PLACEMENT_3D('',#1169,#928,#929);
#806=AXIS2_PLACEMENT_3D('',#1171,#930,#931);
#807=AXIS2_PLACEMENT_3D('',#1173,#932,#933);
#808=AXIS2_PLACEMENT_3D('',#1175,#934,#935);
#809=AXIS2_PLACEMENT_3D('',#1177,#936,#937);
#810=AXIS2_PLACEMENT_3D('',#1179,#938,#939);
#811=AXIS2_PLACEMENT_3D('',#1181,#940,#941);
#812=AXIS2_PLACEMENT_3D('',#1183,#942,#943);
#813=AXIS2_PLACEMENT_3D('',#1187,#945,#946);
#814=AXIS2_PLACEMENT_3D('',#1193,#950,#951);
#815=AXIS2_PLACEMENT_3D('',#1196,#953,#954);
#816=AXIS2_PLACEMENT_3D('',#1197,#955,#956);
#817=AXIS2_PLACEMENT_3D('',#1200,#958,#959);
#818=AXIS2_PLACEMENT_3D('',#1201,#960,#961);
#819=AXIS2_PLACEMENT_3D('',#1204,#963,#964);
#820=AXIS2_PLACEMENT_3D('',#1205,#965,#966);
#821=AXIS2_PLACEMENT_3D('',#1208,#968,#969);
#822=AXIS2_PLACEMENT_3D('',#1209,#970,#971);
#823=AXIS2_PLACEMENT_3D('',#1212,#973,#974);
#824=AXIS2_PLACEMENT_3D('',#1213,#975,#976);
#825=AXIS2_PLACEMENT_3D('',#1218,#979,#980);
#826=AXIS2_PLACEMENT_3D('',#1219,#981,#982);
#827=AXIS2_PLACEMENT_3D('',#1222,#983,#984);
#828=AXIS2_PLACEMENT_3D('',#1228,#987,#988);
#829=AXIS2_PLACEMENT_3D('',#1232,#990,#991);
#830=AXIS2_PLACEMENT_3D('',#1237,#994,#995);
#831=AXIS2_PLACEMENT_3D('',#1241,#997,#998);
#832=AXIS2_PLACEMENT_3D('',#1249,#1002,#1003);
#833=AXIS2_PLACEMENT_3D('',#1253,#1005,#1006);
#834=AXIS2_PLACEMENT_3D('',#1255,#1007,#1008);
#835=AXIS2_PLACEMENT_3D('',#1257,#1009,#1010);
#836=AXIS2_PLACEMENT_3D('',#1259,#1011,#1012);
#837=AXIS2_PLACEMENT_3D('',#1261,#1013,#1014);
#838=AXIS2_PLACEMENT_3D('',#1263,#1015,#1016);
#839=AXIS2_PLACEMENT_3D('',#1265,#1017,#1018);
#840=AXIS2_PLACEMENT_3D('',#1267,#1019,#1020);
#841=AXIS2_PLACEMENT_3D('',#1268,#1021,#1022);
#842=AXIS2_PLACEMENT_3D('',#1270,#1023,#1024);
#843=AXIS2_PLACEMENT_3D('',#1272,#1025,#1026);
#844=AXIS2_PLACEMENT_3D('',#1273,#1027,#1028);
#845=AXIS2_PLACEMENT_3D('',#1275,#1030,#1031);
#846=AXIS2_PLACEMENT_3D('',#1278,#1034,#1035);
#847=AXIS2_PLACEMENT_3D('',#1280,#1037,#1038);
#848=AXIS2_PLACEMENT_3D('',#1282,#1040,#1041);
#849=AXIS2_PLACEMENT_3D('',#1285,#1044,#1045);
#850=AXIS2_PLACEMENT_3D('',#1286,#1046,#1047);
#851=AXIS2_PLACEMENT_3D('',#1288,#1049,#1050);
#852=AXIS2_PLACEMENT_3D('',#1290,#1052,#1053);
#853=AXIS2_PLACEMENT_3D('',#1292,#1055,#1056);
#854=AXIS2_PLACEMENT_3D('',#1294,#1058,#1059);
#855=AXIS2_PLACEMENT_3D('',#1296,#1061,#1062);
#856=AXIS2_PLACEMENT_3D('',#1299,#1065,#1066);
#857=AXIS2_PLACEMENT_3D('',#1301,#1068,#1069);
#858=AXIS2_PLACEMENT_3D('',#1304,#1072,#1073);
#859=AXIS2_PLACEMENT_3D('',#1305,#1074,#1075);
#860=AXIS2_PLACEMENT_3D('',#1307,#1077,#1078);
#861=AXIS2_PLACEMENT_3D('',#1309,#1080,#1081);
#862=AXIS2_PLACEMENT_3D('',#1312,#1084,#1085);
#863=AXIS2_PLACEMENT_3D('',#1314,#1087,#1088);
#864=AXIS2_PLACEMENT_3D('',#1315,#1089,#1090);
#865=AXIS2_PLACEMENT_3D('',#1317,#1092,#1093);
#866=AXIS2_PLACEMENT_3D('',#1318,#1094,#1095);
#867=AXIS2_PLACEMENT_3D('',#1320,#1097,#1098);
#868=AXIS2_PLACEMENT_3D('',#1322,#1100,#1101);
#869=AXIS2_PLACEMENT_3D('',#1324,#1103,#1104);
#870=AXIS2_PLACEMENT_3D('',#1325,#1105,#1106);
#871=DIRECTION('axis',(0.,0.,1.));
#872=DIRECTION('refdir',(1.,0.,0.));
#873=DIRECTION('center_axis',(0.,1.,0.));
#874=DIRECTION('ref_axis',(1.,0.,0.));
#875=DIRECTION('center_axis',(0.,-1.,0.));
#876=DIRECTION('ref_axis',(1.,0.,0.));
#877=DIRECTION('',(0.,-1.,0.));
#878=DIRECTION('center_axis',(0.,1.,0.));
#879=DIRECTION('ref_axis',(1.,0.,0.));
#880=DIRECTION('',(0.,1.,0.));
#881=DIRECTION('center_axis',(0.,1.,0.));
#882=DIRECTION('ref_axis',(1.,0.,0.));
#883=DIRECTION('center_axis',(0.,1.,0.));
#884=DIRECTION('ref_axis',(1.,0.,0.));
#885=DIRECTION('',(0.,1.,0.));
#886=DIRECTION('center_axis',(0.,-1.,0.));
#887=DIRECTION('ref_axis',(1.,0.,0.));
#888=DIRECTION('center_axis',(1.,0.,0.));
#889=DIRECTION('ref_axis',(0.,0.,-1.));
#890=DIRECTION('',(0.,0.,-1.));
#891=DIRECTION('',(0.,0.,1.));
#892=DIRECTION('center_axis',(0.,-1.,0.));
#893=DIRECTION('ref_axis',(-1.,0.,0.));
#894=DIRECTION('',(0.,0.,-1.));
#895=DIRECTION('center_axis',(0.,-1.,0.));
#896=DIRECTION('ref_axis',(1.,0.,0.));
#897=DIRECTION('',(0.,0.,1.));
#898=DIRECTION('center_axis',(0.,-1.,0.));
#899=DIRECTION('ref_axis',(1.,0.,0.));
#900=DIRECTION('',(0.,0.,-1.));
#901=DIRECTION('',(1.,0.,0.));
#902=DIRECTION('center_axis',(0.,-1.,0.));
#903=DIRECTION('ref_axis',(1.,0.,0.));
#904=DIRECTION('',(-1.,0.,0.));
#905=DIRECTION('center_axis',(0.,1.,0.));
#906=DIRECTION('ref_axis',(1.,0.,0.));
#907=DIRECTION('center_axis',(0.,1.,0.));
#908=DIRECTION('ref_axis',(1.,0.,0.));
#909=DIRECTION('center_axis',(0.,1.,0.));
#910=DIRECTION('ref_axis',(1.,0.,0.));
#911=DIRECTION('center_axis',(0.,1.,0.));
#912=DIRECTION('ref_axis',(1.,0.,0.));
#913=DIRECTION('center_axis',(0.,1.,0.));
#914=DIRECTION('ref_axis',(1.,0.,0.));
#915=DIRECTION('center_axis',(0.,1.,0.));
#916=DIRECTION('ref_axis',(1.,0.,0.));
#917=DIRECTION('center_axis',(0.,1.,0.));
#918=DIRECTION('ref_axis',(1.,0.,0.));
#919=DIRECTION('center_axis',(0.,1.,0.));
#920=DIRECTION('ref_axis',(1.,0.,0.));
#921=DIRECTION('',(-1.,0.,0.));
#922=DIRECTION('center_axis',(0.,1.,0.));
#923=DIRECTION('ref_axis',(1.,0.,0.));
#924=DIRECTION('center_axis',(0.,-1.,0.));
#925=DIRECTION('ref_axis',(1.,0.,0.));
#926=DIRECTION('center_axis',(0.,1.,0.));
#927=DIRECTION('ref_axis',(1.,0.,0.));
#928=DIRECTION('center_axis',(0.,-1.,0.));
#929=DIRECTION('ref_axis',(1.,0.,0.));
#930=DIRECTION('center_axis',(0.,1.,0.));
#931=DIRECTION('ref_axis',(1.,0.,0.));
#932=DIRECTION('center_axis',(0.,-1.,0.));
#933=DIRECTION('ref_axis',(1.,0.,0.));
#934=DIRECTION('center_axis',(0.,1.,0.));
#935=DIRECTION('ref_axis',(1.,0.,0.));
#936=DIRECTION('center_axis',(0.,-1.,0.));
#937=DIRECTION('ref_axis',(1.,0.,0.));
#938=DIRECTION('center_axis',(0.,1.,0.));
#939=DIRECTION('ref_axis',(1.,0.,0.));
#940=DIRECTION('center_axis',(0.,-1.,0.));
#941=DIRECTION('ref_axis',(1.,0.,0.));
#942=DIRECTION('center_axis',(0.,1.,0.));
#943=DIRECTION('ref_axis',(1.,0.,0.));
#944=DIRECTION('',(1.,0.,0.));
#945=DIRECTION('center_axis',(0.,1.,0.));
#946=DIRECTION('ref_axis',(1.,0.,0.));
#947=DIRECTION('',(1.,0.,0.));
#948=DIRECTION('',(0.,0.,-1.));
#949=DIRECTION('',(-1.,0.,0.));
#950=DIRECTION('center_axis',(0.,1.,0.));
#951=DIRECTION('ref_axis',(1.,0.,0.));
#952=DIRECTION('',(0.,1.,0.));
#953=DIRECTION('center_axis',(0.,-1.,0.));
#954=DIRECTION('ref_axis',(1.,0.,0.));
#955=DIRECTION('center_axis',(0.,1.,0.));
#956=DIRECTION('ref_axis',(1.,0.,0.));
#957=DIRECTION('',(0.,1.,0.));
#958=DIRECTION('center_axis',(0.,-1.,0.));
#959=DIRECTION('ref_axis',(1.,0.,0.));
#960=DIRECTION('center_axis',(0.,1.,0.));
#961=DIRECTION('ref_axis',(1.,0.,0.));
#962=DIRECTION('',(0.,1.,0.));
#963=DIRECTION('center_axis',(0.,-1.,0.));
#964=DIRECTION('ref_axis',(1.,0.,0.));
#965=DIRECTION('center_axis',(0.,1.,0.));
#966=DIRECTION('ref_axis',(1.,0.,0.));
#967=DIRECTION('',(0.,1.,0.));
#968=DIRECTION('center_axis',(0.,-1.,0.));
#969=DIRECTION('ref_axis',(1.,0.,0.));
#970=DIRECTION('center_axis',(0.,1.,0.));
#971=DIRECTION('ref_axis',(1.,0.,0.));
#972=DIRECTION('',(0.,1.,0.));
#973=DIRECTION('center_axis',(0.,-1.,0.));
#974=DIRECTION('ref_axis',(1.,0.,0.));
#975=DIRECTION('center_axis',(0.,1.,0.));
#976=DIRECTION('ref_axis',(1.,0.,0.));
#977=DIRECTION('',(0.,1.,0.));
#978=DIRECTION('',(0.,-1.,0.));
#979=DIRECTION('center_axis',(0.,1.,0.));
#980=DIRECTION('ref_axis',(1.,0.,0.));
#981=DIRECTION('center_axis',(0.,1.,0.));
#982=DIRECTION('ref_axis',(1.,0.,0.));
#983=DIRECTION('center_axis',(0.,1.,0.));
#984=DIRECTION('ref_axis',(1.,0.,0.));
#985=DIRECTION('',(-1.,0.,0.));
#986=DIRECTION('',(0.,0.,-1.));
#987=DIRECTION('center_axis',(0.,1.,0.));
#988=DIRECTION('ref_axis',(1.,0.,0.));
#989=DIRECTION('',(0.,0.,-1.));
#990=DIRECTION('center_axis',(0.,1.,0.));
#991=DIRECTION('ref_axis',(1.,0.,0.));
#992=DIRECTION('',(0.,0.,-1.));
#993=DIRECTION('',(1.,0.,0.));
#994=DIRECTION('center_axis',(0.,-1.,0.));
#995=DIRECTION('ref_axis',(1.,0.,0.));
#996=DIRECTION('',(1.,0.,0.));
#997=DIRECTION('center_axis',(0.,-1.,0.));
#998=DIRECTION('ref_axis',(1.,0.,0.));
#999=DIRECTION('',(1.,0.,0.));
#1000=DIRECTION('',(0.,0.,1.));
#1001=DIRECTION('',(-1.,0.,0.));
#1002=DIRECTION('center_axis',(0.,-1.,0.));
#1003=DIRECTION('ref_axis',(1.,0.,0.));
#1004=DIRECTION('',(-1.,0.,0.));
#1005=DIRECTION('center_axis',(0.,-1.,0.));
#1006=DIRECTION('ref_axis',(1.,0.,0.));
#1007=DIRECTION('center_axis',(0.,1.,0.));
#1008=DIRECTION('ref_axis',(1.,0.,0.));
#1009=DIRECTION('center_axis',(0.,-1.,0.));
#1010=DIRECTION('ref_axis',(1.,0.,0.));
#1011=DIRECTION('center_axis',(0.,1.,0.));
#1012=DIRECTION('ref_axis',(1.,0.,0.));
#1013=DIRECTION('center_axis',(0.,-1.,0.));
#1014=DIRECTION('ref_axis',(1.,0.,0.));
#1015=DIRECTION('center_axis',(0.,1.,0.));
#1016=DIRECTION('ref_axis',(1.,0.,0.));
#1017=DIRECTION('center_axis',(0.,-1.,0.));
#1018=DIRECTION('ref_axis',(1.,0.,0.));
#1019=DIRECTION('center_axis',(0.,1.,0.));
#1020=DIRECTION('ref_axis',(1.,0.,0.));
#1021=DIRECTION('center_axis',(0.,-1.,0.));
#1022=DIRECTION('ref_axis',(1.,0.,0.));
#1023=DIRECTION('center_axis',(0.,-1.,0.));
#1024=DIRECTION('ref_axis',(1.,0.,0.));
#1025=DIRECTION('center_axis',(0.,-1.,0.));
#1026=DIRECTION('ref_axis',(1.,0.,0.));
#1027=DIRECTION('center_axis',(0.,1.,0.));
#1028=DIRECTION('ref_axis',(1.,0.,0.));
#1029=DIRECTION('',(0.,1.,0.));
#1030=DIRECTION('center_axis',(0.,1.,0.));
#1031=DIRECTION('ref_axis',(1.,0.,0.));
#1032=DIRECTION('',(0.,-1.,0.));
#1033=DIRECTION('',(0.,1.,0.));
#1034=DIRECTION('center_axis',(0.,1.,0.));
#1035=DIRECTION('ref_axis',(1.,0.,0.));
#1036=DIRECTION('',(0.,-1.,0.));
#1037=DIRECTION('center_axis',(0.,1.,0.));
#1038=DIRECTION('ref_axis',(1.,0.,0.));
#1039=DIRECTION('',(0.,1.,0.));
#1040=DIRECTION('center_axis',(0.,1.,0.));
#1041=DIRECTION('ref_axis',(-1.,0.,-1.22464679914735E-16));
#1042=DIRECTION('',(0.,-1.,0.));
#1043=DIRECTION('',(0.,1.,0.));
#1044=DIRECTION('center_axis',(0.,1.,0.));
#1045=DIRECTION('ref_axis',(1.,0.,0.));
#1046=DIRECTION('center_axis',(0.,1.,0.));
#1047=DIRECTION('ref_axis',(1.,0.,0.));
#1048=DIRECTION('',(0.,-1.,0.));
#1049=DIRECTION('center_axis',(0.,1.,0.));
#1050=DIRECTION('ref_axis',(1.,0.,0.));
#1051=DIRECTION('',(0.,1.,0.));
#1052=DIRECTION('center_axis',(0.,1.,0.));
#1053=DIRECTION('ref_axis',(1.,0.,0.));
#1054=DIRECTION('',(0.,-1.,0.));
#1055=DIRECTION('center_axis',(0.,1.,0.));
#1056=DIRECTION('ref_axis',(1.,0.,0.));
#1057=DIRECTION('',(0.,1.,0.));
#1058=DIRECTION('center_axis',(0.,1.,0.));
#1059=DIRECTION('ref_axis',(1.,0.,0.));
#1060=DIRECTION('',(0.,-1.,0.));
#1061=DIRECTION('center_axis',(0.,1.,0.));
#1062=DIRECTION('ref_axis',(-1.83697019872103E-16,0.,1.));
#1063=DIRECTION('',(0.,1.,0.));
#1064=DIRECTION('',(0.,-1.,0.));
#1065=DIRECTION('center_axis',(0.,0.,1.));
#1066=DIRECTION('ref_axis',(1.,0.,0.));
#1067=DIRECTION('',(0.,1.,0.));
#1068=DIRECTION('center_axis',(0.,1.,0.));
#1069=DIRECTION('ref_axis',(6.12323399573677E-17,0.,-1.));
#1070=DIRECTION('',(0.,1.,0.));
#1071=DIRECTION('',(0.,-1.,0.));
#1072=DIRECTION('center_axis',(0.,0.,1.));
#1073=DIRECTION('ref_axis',(1.,0.,0.));
#1074=DIRECTION('center_axis',(0.,1.,0.));
#1075=DIRECTION('ref_axis',(1.,0.,0.));
#1076=DIRECTION('',(0.,1.,0.));
#1077=DIRECTION('center_axis',(0.,1.,0.));
#1078=DIRECTION('ref_axis',(1.,0.,0.));
#1079=DIRECTION('',(0.,1.,0.));
#1080=DIRECTION('center_axis',(1.,0.,0.));
#1081=DIRECTION('ref_axis',(0.,0.,-1.));
#1082=DIRECTION('',(0.,-1.,0.));
#1083=DIRECTION('',(0.,1.,0.));
#1084=DIRECTION('center_axis',(0.,1.,0.));
#1085=DIRECTION('ref_axis',(1.,0.,0.));
#1086=DIRECTION('',(0.,-1.,0.));
#1087=DIRECTION('center_axis',(0.,0.,1.));
#1088=DIRECTION('ref_axis',(1.,0.,0.));
#1089=DIRECTION('center_axis',(0.,0.,1.));
#1090=DIRECTION('ref_axis',(1.,0.,0.));
#1091=DIRECTION('',(0.,-1.,0.));
#1092=DIRECTION('center_axis',(-1.,0.,0.));
#1093=DIRECTION('ref_axis',(0.,0.,1.));
#1094=DIRECTION('center_axis',(0.,1.,0.));
#1095=DIRECTION('ref_axis',(1.,0.,0.));
#1096=DIRECTION('',(0.,1.,0.));
#1097=DIRECTION('center_axis',(-1.,0.,0.));
#1098=DIRECTION('ref_axis',(0.,0.,1.));
#1099=DIRECTION('',(0.,1.,0.));
#1100=DIRECTION('center_axis',(-1.,0.,0.));
#1101=DIRECTION('ref_axis',(0.,0.,1.));
#1102=DIRECTION('',(0.,-1.,0.));
#1103=DIRECTION('center_axis',(0.,0.,1.));
#1104=DIRECTION('ref_axis',(1.,0.,0.));
#1105=DIRECTION('center_axis',(0.,0.,1.));
#1106=DIRECTION('ref_axis',(1.,0.,0.));
#1107=CARTESIAN_POINT('',(0.,0.,0.));
#1108=CARTESIAN_POINT('Origin',(330.,28.,270.));
#1109=CARTESIAN_POINT('',(326.5,38.,265.757359312881));
#1110=CARTESIAN_POINT('',(326.5,38.,274.242640687119));
#1111=CARTESIAN_POINT('Origin',(330.,38.,270.));
#1112=CARTESIAN_POINT('',(326.5,30.,265.757359312881));
#1113=CARTESIAN_POINT('',(326.5,28.,265.757359312881));
#1114=CARTESIAN_POINT('',(326.5,30.,274.242640687119));
#1115=CARTESIAN_POINT('Origin',(330.,30.,270.));
#1116=CARTESIAN_POINT('',(326.5,28.,274.242640687119));
#1117=CARTESIAN_POINT('Origin',(330.,28.,210.));
#1118=CARTESIAN_POINT('',(325.1,30.,210.));
#1119=CARTESIAN_POINT('Origin',(330.,30.,210.));
#1120=CARTESIAN_POINT('',(325.1,38.,210.));
#1121=CARTESIAN_POINT('',(325.1,28.,210.));
#1122=CARTESIAN_POINT('Origin',(330.,38.,210.));
#1123=CARTESIAN_POINT('Origin',(326.5,0.,242.));
#1124=CARTESIAN_POINT('',(326.5,38.,241.));
#1125=CARTESIAN_POINT('',(326.5,30.,241.));
#1126=CARTESIAN_POINT('Origin',(270.,30.,240.));
#1127=CARTESIAN_POINT('',(340.,30.,212.));
#1128=CARTESIAN_POINT('',(340.,30.,201.));
#1129=CARTESIAN_POINT('',(340.,30.,240.));
#1130=CARTESIAN_POINT('',(365.,30.,227.390479787082));
#1131=CARTESIAN_POINT('Origin',(340.,30.,240.));
#1132=CARTESIAN_POINT('',(365.,30.,252.609520212918));
#1133=CARTESIAN_POINT('',(365.,30.,240.));
#1134=CARTESIAN_POINT('',(340.,30.,268.));
#1135=CARTESIAN_POINT('Origin',(340.,30.,240.));
#1136=CARTESIAN_POINT('',(340.,30.,279.));
#1137=CARTESIAN_POINT('',(340.,30.,240.));
#1138=CARTESIAN_POINT('',(294.392621835301,30.,279.));
#1139=CARTESIAN_POINT('',(305.,30.,279.));
#1140=CARTESIAN_POINT('',(294.392621835301,30.,201.));
#1141=CARTESIAN_POINT('Origin',(270.,30.,240.));
#1142=CARTESIAN_POINT('',(305.,30.,201.));
#1143=CARTESIAN_POINT('',(267.8,30.,198.));
#1144=CARTESIAN_POINT('Origin',(270.,30.,198.));
#1145=CARTESIAN_POINT('',(267.8,30.,282.));
#1146=CARTESIAN_POINT('Origin',(270.,30.,282.));
#1147=CARTESIAN_POINT('',(287.25,30.,274.6));
#1148=CARTESIAN_POINT('Origin',(290.,30.,274.6));
#1149=CARTESIAN_POINT('',(247.25,30.,274.6));
#1150=CARTESIAN_POINT('Origin',(250.,30.,274.6));
#1151=CARTESIAN_POINT('',(227.25,30.,240.));
#1152=CARTESIAN_POINT('Origin',(230.,30.,240.));
#1153=CARTESIAN_POINT('',(247.25,30.,205.4));
#1154=CARTESIAN_POINT('Origin',(250.,30.,205.4));
#1155=CARTESIAN_POINT('',(287.25,30.,205.4));
#1156=CARTESIAN_POINT('Origin',(290.,30.,205.4));
#1157=CARTESIAN_POINT('',(330.959591794227,30.,219.));
#1158=CARTESIAN_POINT('',(327.040408205773,30.,219.));
#1159=CARTESIAN_POINT('Origin',(329.,30.,218.));
#1160=CARTESIAN_POINT('',(300.463092423456,30.,219.));
#1161=CARTESIAN_POINT('',(289.5,30.,219.));
#1162=CARTESIAN_POINT('',(292.681604416397,30.,210.767401396762));
#1163=CARTESIAN_POINT('Origin',(270.,30.,240.));
#1164=CARTESIAN_POINT('',(284.01052411174,30.,205.755216249561));
#1165=CARTESIAN_POINT('Origin',(290.,30.,205.4));
#1166=CARTESIAN_POINT('',(255.98947588826,30.,205.755216249561));
#1167=CARTESIAN_POINT('Origin',(270.,30.,240.));
#1168=CARTESIAN_POINT('',(247.318395583603,30.,210.767401396762));
#1169=CARTESIAN_POINT('Origin',(250.,30.,205.4));
#1170=CARTESIAN_POINT('',(233.3375,30.,235.013909973737));
#1171=CARTESIAN_POINT('Origin',(270.,30.,240.));
#1172=CARTESIAN_POINT('',(233.3375,30.,244.986090026263));
#1173=CARTESIAN_POINT('Origin',(230.,30.,240.));
#1174=CARTESIAN_POINT('',(247.318395583603,30.,269.232598603238));
#1175=CARTESIAN_POINT('Origin',(270.,30.,240.));
#1176=CARTESIAN_POINT('',(255.98947588826,30.,274.244783750439));
#1177=CARTESIAN_POINT('Origin',(250.,30.,274.6));
#1178=CARTESIAN_POINT('',(284.01052411174,30.,274.244783750439));
#1179=CARTESIAN_POINT('Origin',(270.,30.,240.));
#1180=CARTESIAN_POINT('',(292.681604416397,30.,269.232598603238));
#1181=CARTESIAN_POINT('Origin',(290.,30.,274.6));
#1182=CARTESIAN_POINT('',(300.463092423456,30.,261.));
#1183=CARTESIAN_POINT('Origin',(270.,30.,240.));
#1184=CARTESIAN_POINT('',(327.040408205773,30.,261.));
#1185=CARTESIAN_POINT('',(289.5,30.,261.));
#1186=CARTESIAN_POINT('',(330.959591794227,30.,261.));
#1187=CARTESIAN_POINT('Origin',(329.,30.,262.));
#1188=CARTESIAN_POINT('',(332.,30.,261.));
#1189=CARTESIAN_POINT('',(289.5,30.,261.));
#1190=CARTESIAN_POINT('',(332.,30.,219.));
#1191=CARTESIAN_POINT('',(332.,30.,240.));
#1192=CARTESIAN_POINT('',(289.5,30.,219.));
#1193=CARTESIAN_POINT('Origin',(290.,34.,205.4));
#1194=CARTESIAN_POINT('',(287.25,38.,205.4));
#1195=CARTESIAN_POINT('',(287.25,34.,205.4));
#1196=CARTESIAN_POINT('Origin',(290.,38.,205.4));
#1197=CARTESIAN_POINT('Origin',(250.,34.,205.4));
#1198=CARTESIAN_POINT('',(247.25,38.,205.4));
#1199=CARTESIAN_POINT('',(247.25,34.,205.4));
#1200=CARTESIAN_POINT('Origin',(250.,38.,205.4));
#1201=CARTESIAN_POINT('Origin',(230.,34.,240.));
#1202=CARTESIAN_POINT('',(227.25,38.,240.));
#1203=CARTESIAN_POINT('',(227.25,34.,240.));
#1204=CARTESIAN_POINT('Origin',(230.,38.,240.));
#1205=CARTESIAN_POINT('Origin',(250.,34.,274.6));
#1206=CARTESIAN_POINT('',(247.25,38.,274.6));
#1207=CARTESIAN_POINT('',(247.25,34.,274.6));
#1208=CARTESIAN_POINT('Origin',(250.,38.,274.6));
#1209=CARTESIAN_POINT('Origin',(290.,34.,274.6));
#1210=CARTESIAN_POINT('',(287.25,38.,274.6));
#1211=CARTESIAN_POINT('',(287.25,34.,274.6));
#1212=CARTESIAN_POINT('Origin',(290.,38.,274.6));
#1213=CARTESIAN_POINT('Origin',(290.,34.,205.4));
#1214=CARTESIAN_POINT('',(284.01052411174,38.,205.755216249561));
#1215=CARTESIAN_POINT('',(284.01052411174,34.,205.755216249561));
#1216=CARTESIAN_POINT('',(292.681604416397,38.,210.767401396762));
#1217=CARTESIAN_POINT('',(292.681604416397,34.,210.767401396762));
#1218=CARTESIAN_POINT('Origin',(290.,38.,205.4));
#1219=CARTESIAN_POINT('Origin',(270.,38.,240.));
#1220=CARTESIAN_POINT('',(294.392621835301,38.,201.));
#1221=CARTESIAN_POINT('',(294.392621835301,38.,279.));
#1222=CARTESIAN_POINT('Origin',(270.,38.,240.));
#1223=CARTESIAN_POINT('',(340.,38.,279.));
#1224=CARTESIAN_POINT('',(305.,38.,279.));
#1225=CARTESIAN_POINT('',(340.,38.,268.));
#1226=CARTESIAN_POINT('',(340.,38.,240.));
#1227=CARTESIAN_POINT('',(365.,38.,252.609520212918));
#1228=CARTESIAN_POINT('Origin',(340.,38.,240.));
#1229=CARTESIAN_POINT('',(365.,38.,227.390479787082));
#1230=CARTESIAN_POINT('',(365.,38.,240.));
#1231=CARTESIAN_POINT('',(340.,38.,212.));
#1232=CARTESIAN_POINT('Origin',(340.,38.,240.));
#1233=CARTESIAN_POINT('',(340.,38.,201.));
#1234=CARTESIAN_POINT('',(340.,38.,240.));
#1235=CARTESIAN_POINT('',(305.,38.,201.));
#1236=CARTESIAN_POINT('',(300.463092423456,38.,219.));
#1237=CARTESIAN_POINT('Origin',(270.,38.,240.));
#1238=CARTESIAN_POINT('',(327.040408205773,38.,219.));
#1239=CARTESIAN_POINT('',(289.5,38.,219.));
#1240=CARTESIAN_POINT('',(330.959591794227,38.,219.));
#1241=CARTESIAN_POINT('Origin',(329.,38.,218.));
#1242=CARTESIAN_POINT('',(332.,38.,219.));
#1243=CARTESIAN_POINT('',(289.5,38.,219.));
#1244=CARTESIAN_POINT('',(332.,38.,261.));
#1245=CARTESIAN_POINT('',(332.,38.,240.));
#1246=CARTESIAN_POINT('',(330.959591794227,38.,261.));
#1247=CARTESIAN_POINT('',(289.5,38.,261.));
#1248=CARTESIAN_POINT('',(327.040408205773,38.,261.));
#1249=CARTESIAN_POINT('Origin',(329.,38.,262.));
#1250=CARTESIAN_POINT('',(300.463092423456,38.,261.));
#1251=CARTESIAN_POINT('',(289.5,38.,261.));
#1252=CARTESIAN_POINT('',(292.681604416397,38.,269.232598603238));
#1253=CARTESIAN_POINT('Origin',(270.,38.,240.));
#1254=CARTESIAN_POINT('',(284.01052411174,38.,274.244783750439));
#1255=CARTESIAN_POINT('Origin',(290.,38.,274.6));
#1256=CARTESIAN_POINT('',(255.98947588826,38.,274.244783750439));
#1257=CARTESIAN_POINT('Origin',(270.,38.,240.));
#1258=CARTESIAN_POINT('',(247.318395583603,38.,269.232598603238));
#1259=CARTESIAN_POINT('Origin',(250.,38.,274.6));
#1260=CARTESIAN_POINT('',(233.3375,38.,244.986090026263));
#1261=CARTESIAN_POINT('Origin',(270.,38.,240.));
#1262=CARTESIAN_POINT('',(233.3375,38.,235.013909973737));
#1263=CARTESIAN_POINT('Origin',(230.,38.,240.));
#1264=CARTESIAN_POINT('',(247.318395583603,38.,210.767401396762));
#1265=CARTESIAN_POINT('Origin',(270.,38.,240.));
#1266=CARTESIAN_POINT('',(255.98947588826,38.,205.755216249561));
#1267=CARTESIAN_POINT('Origin',(250.,38.,205.4));
#1268=CARTESIAN_POINT('Origin',(270.,38.,240.));
#1269=CARTESIAN_POINT('',(267.8,38.,198.));
#1270=CARTESIAN_POINT('Origin',(270.,38.,198.));
#1271=CARTESIAN_POINT('',(267.8,38.,282.));
#1272=CARTESIAN_POINT('Origin',(270.,38.,282.));
#1273=CARTESIAN_POINT('Origin',(270.,34.,240.));
#1274=CARTESIAN_POINT('',(300.463092423456,34.,219.));
#1275=CARTESIAN_POINT('Origin',(250.,34.,205.4));
#1276=CARTESIAN_POINT('',(255.98947588826,34.,205.755216249561));
#1277=CARTESIAN_POINT('',(247.318395583603,34.,210.767401396762));
#1278=CARTESIAN_POINT('Origin',(270.,34.,240.));
#1279=CARTESIAN_POINT('',(233.3375,34.,235.013909973737));
#1280=CARTESIAN_POINT('Origin',(230.,34.,240.));
#1281=CARTESIAN_POINT('',(233.3375,34.,244.986090026263));
#1282=CARTESIAN_POINT('Origin',(270.,34.,240.));
#1283=CARTESIAN_POINT('',(294.392621835301,34.,201.));
#1284=CARTESIAN_POINT('',(294.392621835301,34.,279.));
#1285=CARTESIAN_POINT('Origin',(270.,34.,240.));
#1286=CARTESIAN_POINT('Origin',(270.,34.,240.));
#1287=CARTESIAN_POINT('',(247.318395583603,34.,269.232598603239));
#1288=CARTESIAN_POINT('Origin',(250.,34.,274.6));
#1289=CARTESIAN_POINT('',(255.98947588826,34.,274.244783750439));
#1290=CARTESIAN_POINT('Origin',(270.,34.,240.));
#1291=CARTESIAN_POINT('',(284.01052411174,34.,274.244783750439));
#1292=CARTESIAN_POINT('Origin',(290.,34.,274.6));
#1293=CARTESIAN_POINT('',(292.681604416397,34.,269.232598603239));
#1294=CARTESIAN_POINT('Origin',(270.,34.,240.));
#1295=CARTESIAN_POINT('',(300.463092423456,34.,261.));
#1296=CARTESIAN_POINT('Origin',(329.,34.,262.));
#1297=CARTESIAN_POINT('',(330.959591794227,34.,261.));
#1298=CARTESIAN_POINT('',(327.040408205773,34.,261.));
#1299=CARTESIAN_POINT('Origin',(309.,34.,261.));
#1300=CARTESIAN_POINT('',(332.,34.,261.));
#1301=CARTESIAN_POINT('Origin',(329.,34.,218.));
#1302=CARTESIAN_POINT('',(327.040408205773,34.,219.));
#1303=CARTESIAN_POINT('',(330.959591794227,34.,219.));
#1304=CARTESIAN_POINT('Origin',(309.,34.,219.));
#1305=CARTESIAN_POINT('Origin',(270.,34.,282.));
#1306=CARTESIAN_POINT('',(267.8,34.,282.));
#1307=CARTESIAN_POINT('Origin',(270.,34.,198.));
#1308=CARTESIAN_POINT('',(267.8,34.,198.));
#1309=CARTESIAN_POINT('Origin',(365.,34.,240.));
#1310=CARTESIAN_POINT('',(365.,34.,227.390479787082));
#1311=CARTESIAN_POINT('',(365.,34.,252.609520212918));
#1312=CARTESIAN_POINT('Origin',(340.,34.,240.));
#1313=CARTESIAN_POINT('',(340.,34.,212.));
#1314=CARTESIAN_POINT('Origin',(309.,34.,261.));
#1315=CARTESIAN_POINT('Origin',(309.,34.,219.));
#1316=CARTESIAN_POINT('',(332.,34.,219.));
#1317=CARTESIAN_POINT('Origin',(332.,34.,240.));
#1318=CARTESIAN_POINT('Origin',(340.,34.,240.));
#1319=CARTESIAN_POINT('',(340.,34.,268.));
#1320=CARTESIAN_POINT('Origin',(340.,34.,240.));
#1321=CARTESIAN_POINT('',(340.,34.,279.));
#1322=CARTESIAN_POINT('Origin',(340.,34.,240.));
#1323=CARTESIAN_POINT('',(340.,34.,201.));
#1324=CARTESIAN_POINT('Origin',(305.,34.,279.));
#1325=CARTESIAN_POINT('Origin',(305.,34.,201.));
#1326=UNCERTAINTY_MEASURE_WITH_UNIT(LENGTH_MEASURE(0.01),#1330,
'DISTANCE_ACCURACY_VALUE',
'Maximum model space distance between geometric entities at asserted c
onnectivities');
#1327=UNCERTAINTY_MEASURE_WITH_UNIT(LENGTH_MEASURE(0.01),#1330,
'DISTANCE_ACCURACY_VALUE',
'Maximum model space distance between geometric entities at asserted c
onnectivities');
#1328=(
GEOMETRIC_REPRESENTATION_CONTEXT(3)
GLOBAL_UNCERTAINTY_ASSIGNED_CONTEXT((#1326))
GLOBAL_UNIT_ASSIGNED_CONTEXT((#1330,#1332,#1333))
REPRESENTATION_CONTEXT('','3D')
);
#1329=(
GEOMETRIC_REPRESENTATION_CONTEXT(3)
GLOBAL_UNCERTAINTY_ASSIGNED_CONTEXT((#1327))
GLOBAL_UNIT_ASSIGNED_CONTEXT((#1330,#1332,#1333))
REPRESENTATION_CONTEXT('','3D')
);
#1330=(
LENGTH_UNIT()
NAMED_UNIT(*)
SI_UNIT(.MILLI.,.METRE.)
);
#1331=(
LENGTH_UNIT()
NAMED_UNIT(*)
SI_UNIT($,.METRE.)
);
#1332=(
NAMED_UNIT(*)
PLANE_ANGLE_UNIT()
SI_UNIT($,.RADIAN.)
);
#1333=(
NAMED_UNIT(*)
SI_UNIT($,.STERADIAN.)
SOLID_ANGLE_UNIT()
);
#1334=SHAPE_DEFINITION_REPRESENTATION(#1335,#1336);
#1335=PRODUCT_DEFINITION_SHAPE('',$,#1338);
#1336=SHAPE_REPRESENTATION('',(#782),#1328);
#1337=PRODUCT_DEFINITION_CONTEXT('part definition',#1342,'design');
#1338=PRODUCT_DEFINITION('2026-08-31-16-23-54-381','EXPORT_TMP',#1339,#1337);
#1339=PRODUCT_DEFINITION_FORMATION('',$,#1344);
#1340=PRODUCT_RELATED_PRODUCT_CATEGORY('EXPORT_TMP','EXPORT_TMP',(#1344));
#1341=APPLICATION_PROTOCOL_DEFINITION('international standard',
'automotive_design',2009,#1342);
#1342=APPLICATION_CONTEXT(
'Core Data for Automotive Mechanical Design Process');
#1343=PRODUCT_CONTEXT('part definition',#1342,'mechanical');
#1344=PRODUCT('2026-08-31-16-23-54-381','EXPORT_TMP',$,(#1343));
#1345=PRESENTATION_STYLE_ASSIGNMENT((#1346));
#1346=SURFACE_STYLE_USAGE(.BOTH.,#1347);
#1347=SURFACE_SIDE_STYLE('',(#1348));
#1348=SURFACE_STYLE_FILL_AREA(#1349);
#1349=FILL_AREA_STYLE('Steel - Satin',(#1350));
#1350=FILL_AREA_STYLE_COLOUR('Steel - Satin',#1351);
#1351=COLOUR_RGB('Steel - Satin',0.627450980392157,0.627450980392157,0.627450980392157);
ENDSEC;
END-ISO-10303-21;
