ISO-10303-21;
HEADER;
/* Generated by software containing ST-Developer
 * from STEP Tools, Inc. (www.steptools.com) 
 */

FILE_DESCRIPTION(
/* description */ (''),
/* implementation_level */ '2;1');

FILE_NAME(
/* name */ 'PRINT_V010L_P220_J3_LeftInnerRaceCollar_M3.step',
/* time_stamp */ '2026-08-12T23:09:00+02:00',
/* author */ (''),
/* organization */ (''),
/* preprocessor_version */ 'ST-DEVELOPER v20.1',
/* originating_system */ 'Autodesk Translation Framework v15.8.0.0',
/* authorisation */ '');

FILE_SCHEMA (('AUTOMOTIVE_DESIGN { 1 0 10303 214 3 1 1 }'));
ENDSEC;

DATA;
#10=MECHANICAL_DESIGN_GEOMETRIC_PRESENTATION_REPRESENTATION('',(#13),#249);
#11=SHAPE_REPRESENTATION_RELATIONSHIP('SRR','None',#256,#12);
#12=ADVANCED_BREP_SHAPE_REPRESENTATION('',(#14),#248);
#13=STYLED_ITEM('',(#265),#14);
#14=MANIFOLD_SOLID_BREP('PRINT_V010L_P220_J3_LeftInnerRaceCollar_M3',#99);
#15=CIRCLE('',#116,21.);
#16=CIRCLE('',#117,17.5);
#17=CIRCLE('',#119,17.5);
#18=CIRCLE('',#121,21.);
#19=PLANE('',#115);
#20=PLANE('',#122);
#21=FACE_OUTER_BOUND('',#27,.T.);
#22=FACE_OUTER_BOUND('',#28,.T.);
#23=FACE_OUTER_BOUND('',#29,.T.);
#24=FACE_OUTER_BOUND('',#30,.T.);
#25=FACE_OUTER_BOUND('',#31,.T.);
#26=FACE_OUTER_BOUND('',#32,.T.);
#27=EDGE_LOOP('',(#65,#66,#67,#68));
#28=EDGE_LOOP('',(#69,#70,#71,#72));
#29=EDGE_LOOP('',(#73,#74,#75,#76));
#30=EDGE_LOOP('',(#77,#78,#79,#80));
#31=EDGE_LOOP('',(#81,#82,#83,#84));
#32=EDGE_LOOP('',(#85,#86,#87,#88));
#33=LINE('',#173,#37);
#34=LINE('',#194,#38);
#35=LINE('',#217,#39);
#36=LINE('',#237,#40);
#37=VECTOR('',#127,10.);
#38=VECTOR('',#128,10.);
#39=VECTOR('',#131,10.);
#40=VECTOR('',#132,10.);
#41=B_SPLINE_CURVE_WITH_KNOTS('',3,(#153,#154,#155,#156,#157,#158,#159,
#160,#161,#162,#163,#164,#165,#166,#167,#168,#169,#170,#171),
 .UNSPECIFIED.,.F.,.F.,(4,2,2,2,3,2,2,2,4),(0.739122708596993,0.759319933908788,
0.817729132476987,0.876138389798886,0.934547647120786,0.992956904442686,
1.05136616176459,1.10977536033278,1.12997258564458),.UNSPECIFIED.);
#42=B_SPLINE_CURVE_WITH_KNOTS('',3,(#175,#176,#177,#178,#179,#180,#181,
#182,#183,#184,#185,#186,#187,#188,#189,#190,#191,#192,#193),
 .UNSPECIFIED.,.F.,.F.,(4,2,2,2,3,2,2,2,4),(0.739245987162761,0.759450754056657,
0.817869986464007,0.876289340998208,0.934708695532409,0.99312805006661,
1.05154740460081,1.10996663700816,1.13017140390207),.UNSPECIFIED.);
#43=B_SPLINE_CURVE_WITH_KNOTS('',3,(#198,#199,#200,#201,#202,#203,#204,
#205,#206,#207,#208,#209,#210,#211,#212,#213,#214,#215),.UNSPECIFIED.,.F.,
 .F.,(4,2,2,2,2,2,2,2,4),(0.271848885036595,0.292046110348395,0.350455308916593,
0.408864566238493,0.467273823560393,0.525683080882293,0.584092338204192,
0.642501536772391,0.662698762084176),.UNSPECIFIED.);
#44=B_SPLINE_CURVE_WITH_KNOTS('',3,(#219,#220,#221,#222,#223,#224,#225,
#226,#227,#228,#229,#230,#231,#232,#233,#234,#235,#236),.UNSPECIFIED.,.F.,
 .F.,(4,2,2,2,2,2,2,2,4),(0.271891639396549,0.292096406290452,0.350515638697802,
0.408934993232003,0.467354347766204,0.525773702300405,0.584193056834606,
0.642612289241956,0.662817056135859),.UNSPECIFIED.);
#45=VERTEX_POINT('',#151);
#46=VERTEX_POINT('',#152);
#47=VERTEX_POINT('',#172);
#48=VERTEX_POINT('',#174);
#49=VERTEX_POINT('',#196);
#50=VERTEX_POINT('',#197);
#51=VERTEX_POINT('',#216);
#52=VERTEX_POINT('',#218);
#53=EDGE_CURVE('',#45,#46,#41,.T.);
#54=EDGE_CURVE('',#47,#45,#33,.T.);
#55=EDGE_CURVE('',#48,#47,#42,.T.);
#56=EDGE_CURVE('',#46,#48,#34,.T.);
#57=EDGE_CURVE('',#49,#50,#43,.T.);
#58=EDGE_CURVE('',#51,#49,#35,.T.);
#59=EDGE_CURVE('',#52,#51,#44,.T.);
#60=EDGE_CURVE('',#50,#52,#36,.T.);
#61=EDGE_CURVE('',#49,#46,#15,.T.);
#62=EDGE_CURVE('',#48,#51,#16,.T.);
#63=EDGE_CURVE('',#52,#47,#17,.T.);
#64=EDGE_CURVE('',#45,#50,#18,.T.);
#65=ORIENTED_EDGE('',*,*,#53,.F.);
#66=ORIENTED_EDGE('',*,*,#54,.F.);
#67=ORIENTED_EDGE('',*,*,#55,.F.);
#68=ORIENTED_EDGE('',*,*,#56,.F.);
#69=ORIENTED_EDGE('',*,*,#57,.F.);
#70=ORIENTED_EDGE('',*,*,#58,.F.);
#71=ORIENTED_EDGE('',*,*,#59,.F.);
#72=ORIENTED_EDGE('',*,*,#60,.F.);
#73=ORIENTED_EDGE('',*,*,#58,.T.);
#74=ORIENTED_EDGE('',*,*,#61,.T.);
#75=ORIENTED_EDGE('',*,*,#56,.T.);
#76=ORIENTED_EDGE('',*,*,#62,.T.);
#77=ORIENTED_EDGE('',*,*,#59,.T.);
#78=ORIENTED_EDGE('',*,*,#62,.F.);
#79=ORIENTED_EDGE('',*,*,#55,.T.);
#80=ORIENTED_EDGE('',*,*,#63,.F.);
#81=ORIENTED_EDGE('',*,*,#57,.T.);
#82=ORIENTED_EDGE('',*,*,#64,.F.);
#83=ORIENTED_EDGE('',*,*,#53,.T.);
#84=ORIENTED_EDGE('',*,*,#61,.F.);
#85=ORIENTED_EDGE('',*,*,#60,.T.);
#86=ORIENTED_EDGE('',*,*,#63,.T.);
#87=ORIENTED_EDGE('',*,*,#54,.T.);
#88=ORIENTED_EDGE('',*,*,#64,.T.);
#89=CYLINDRICAL_SURFACE('',#113,1.55);
#90=CYLINDRICAL_SURFACE('',#114,1.55);
#91=CYLINDRICAL_SURFACE('',#118,17.5);
#92=CYLINDRICAL_SURFACE('',#120,21.);
#93=ADVANCED_FACE('',(#21),#89,.F.);
#94=ADVANCED_FACE('',(#22),#90,.F.);
#95=ADVANCED_FACE('',(#23),#19,.T.);
#96=ADVANCED_FACE('',(#24),#91,.F.);
#97=ADVANCED_FACE('',(#25),#92,.T.);
#98=ADVANCED_FACE('',(#26),#20,.T.);
#99=CLOSED_SHELL('',(#93,#94,#95,#96,#97,#98));
#100=DERIVED_UNIT_ELEMENT(#102,1.);
#101=DERIVED_UNIT_ELEMENT(#251,-3.);
#102=(
MASS_UNIT()
NAMED_UNIT(*)
SI_UNIT(.KILO.,.GRAM.)
);
#103=DERIVED_UNIT((#100,#101));
#104=MEASURE_REPRESENTATION_ITEM('density measure',
POSITIVE_RATIO_MEASURE(7850.),#103);
#105=PROPERTY_DEFINITION_REPRESENTATION(#110,#107);
#106=PROPERTY_DEFINITION_REPRESENTATION(#111,#108);
#107=REPRESENTATION('material name',(#109),#248);
#108=REPRESENTATION('density',(#104),#248);
#109=DESCRIPTIVE_REPRESENTATION_ITEM('Steel','Steel');
#110=PROPERTY_DEFINITION('material property','material name',#258);
#111=PROPERTY_DEFINITION('material property','density of part',#258);
#112=AXIS2_PLACEMENT_3D('',#149,#123,#124);
#113=AXIS2_PLACEMENT_3D('',#150,#125,#126);
#114=AXIS2_PLACEMENT_3D('',#195,#129,#130);
#115=AXIS2_PLACEMENT_3D('',#238,#133,#134);
#116=AXIS2_PLACEMENT_3D('',#239,#135,#136);
#117=AXIS2_PLACEMENT_3D('',#240,#137,#138);
#118=AXIS2_PLACEMENT_3D('',#241,#139,#140);
#119=AXIS2_PLACEMENT_3D('',#242,#141,#142);
#120=AXIS2_PLACEMENT_3D('',#243,#143,#144);
#121=AXIS2_PLACEMENT_3D('',#244,#145,#146);
#122=AXIS2_PLACEMENT_3D('',#245,#147,#148);
#123=DIRECTION('axis',(0.,0.,1.));
#124=DIRECTION('refdir',(1.,0.,0.));
#125=DIRECTION('center_axis',(1.,0.,0.));
#126=DIRECTION('ref_axis',(0.,0.,-1.));
#127=DIRECTION('',(1.,0.,0.));
#128=DIRECTION('',(-1.,0.,0.));
#129=DIRECTION('center_axis',(1.,0.,0.));
#130=DIRECTION('ref_axis',(0.,1.22464679914735E-16,1.));
#131=DIRECTION('',(1.,0.,0.));
#132=DIRECTION('',(-1.,0.,0.));
#133=DIRECTION('center_axis',(0.,-1.,0.));
#134=DIRECTION('ref_axis',(-1.,0.,0.));
#135=DIRECTION('center_axis',(0.,-1.,0.));
#136=DIRECTION('ref_axis',(1.,0.,0.));
#137=DIRECTION('center_axis',(0.,1.,0.));
#138=DIRECTION('ref_axis',(1.,0.,0.));
#139=DIRECTION('center_axis',(0.,1.,0.));
#140=DIRECTION('ref_axis',(-1.,0.,1.01064309961486E-15));
#141=DIRECTION('center_axis',(0.,-1.,0.));
#142=DIRECTION('ref_axis',(1.,0.,0.));
#143=DIRECTION('center_axis',(0.,1.,0.));
#144=DIRECTION('ref_axis',(-1.,0.,-7.6571373978539E-16));
#145=DIRECTION('center_axis',(0.,1.,0.));
#146=DIRECTION('ref_axis',(1.,0.,0.));
#147=DIRECTION('center_axis',(0.,1.,0.));
#148=DIRECTION('ref_axis',(1.,0.,0.));
#149=CARTESIAN_POINT('',(0.,0.,0.));
#150=CARTESIAN_POINT('Origin',(289.5,-61.5,240.));
#151=CARTESIAN_POINT('',(290.996368733664,-60.,239.609487516205));
#152=CARTESIAN_POINT('',(290.996368733664,-63.,239.609487516205));
#153=CARTESIAN_POINT('Ctrl Pts',(290.996368733664,-60.,239.609487516205));
#154=CARTESIAN_POINT('Ctrl Pts',(290.995089820594,-60.0179016869354,239.540725231982));
#155=CARTESIAN_POINT('Ctrl Pts',(290.99348436504,-60.0406746495753,239.472765058622));
#156=CARTESIAN_POINT('Ctrl Pts',(290.986222361111,-60.1471300519697,239.215808848672));
#157=CARTESIAN_POINT('Ctrl Pts',(290.978569462673,-60.266406599591,239.041562378731));
#158=CARTESIAN_POINT('Ctrl Pts',(290.964189142279,-60.5415625171201,238.766406461202));
#159=CARTESIAN_POINT('Ctrl Pts',(290.956527127853,-60.715808925578,238.647130020331));
#160=CARTESIAN_POINT('Ctrl Pts',(290.945714080418,-61.0976758928544,238.48892484683));
#161=CARTESIAN_POINT('Ctrl Pts',(290.942719498671,-61.3053024755937,238.45));
#162=CARTESIAN_POINT('Ctrl Pts',(290.942719498671,-61.5,238.45));
#163=CARTESIAN_POINT('Ctrl Pts',(290.942719498671,-61.6946975244063,238.45));
#164=CARTESIAN_POINT('Ctrl Pts',(290.945714080418,-61.9023241071456,238.48892484683));
#165=CARTESIAN_POINT('Ctrl Pts',(290.956527127853,-62.284191074422,238.647130020331));
#166=CARTESIAN_POINT('Ctrl Pts',(290.964189142279,-62.4584374828799,238.766406461202));
#167=CARTESIAN_POINT('Ctrl Pts',(290.978569462673,-62.733593400409,239.041562378731));
#168=CARTESIAN_POINT('Ctrl Pts',(290.986222361111,-62.8528699480303,239.215808848672));
#169=CARTESIAN_POINT('Ctrl Pts',(290.99348436504,-62.9593253504247,239.472765058622));
#170=CARTESIAN_POINT('Ctrl Pts',(290.995089820594,-62.9820983130646,239.540725231982));
#171=CARTESIAN_POINT('Ctrl Pts',(290.996368733664,-63.,239.609487516205));
#172=CARTESIAN_POINT('',(287.495642314588,-60.,239.609487516205));
#173=CARTESIAN_POINT('',(289.5,-60.,239.609487516205));
#174=CARTESIAN_POINT('',(287.495642314588,-63.,239.609487516205));
#175=CARTESIAN_POINT('Ctrl Pts',(287.495642314588,-63.,239.609487516205));
#176=CARTESIAN_POINT('Ctrl Pts',(287.494107121727,-62.9820938765515,239.540708190863));
#177=CARTESIAN_POINT('Ctrl Pts',(287.492179839562,-62.9593145962584,239.472733450514));
#178=CARTESIAN_POINT('Ctrl Pts',(287.483463022648,-62.8528471129938,239.215770074949));
#179=CARTESIAN_POINT('Ctrl Pts',(287.474277109752,-62.7335756044172,239.041544582739));
#180=CARTESIAN_POINT('Ctrl Pts',(287.457012570695,-62.4584551296883,238.76642410801));
#181=CARTESIAN_POINT('Ctrl Pts',(287.447810884812,-62.2842297641736,238.647152823019));
#182=CARTESIAN_POINT('Ctrl Pts',(287.434821241952,-61.9023721451233,238.488937976456));
#183=CARTESIAN_POINT('Ctrl Pts',(287.431221988145,-61.6947311817807,238.45));
#184=CARTESIAN_POINT('Ctrl Pts',(287.431221988145,-61.5,238.45));
#185=CARTESIAN_POINT('Ctrl Pts',(287.431221988145,-61.3052688182193,238.45));
#186=CARTESIAN_POINT('Ctrl Pts',(287.434821241952,-61.0976278548767,238.488937976456));
#187=CARTESIAN_POINT('Ctrl Pts',(287.447810884812,-60.7157702358264,238.647152823019));
#188=CARTESIAN_POINT('Ctrl Pts',(287.457012570695,-60.5415448703117,238.76642410801));
#189=CARTESIAN_POINT('Ctrl Pts',(287.474277109752,-60.2664243955828,239.041544582739));
#190=CARTESIAN_POINT('Ctrl Pts',(287.483463022648,-60.1471528870062,239.215770074949));
#191=CARTESIAN_POINT('Ctrl Pts',(287.492179839562,-60.0406854037416,239.472733450514));
#192=CARTESIAN_POINT('Ctrl Pts',(287.494107121727,-60.0179061234485,239.540708190863));
#193=CARTESIAN_POINT('Ctrl Pts',(287.495642314588,-60.,239.609487516205));
#194=CARTESIAN_POINT('',(289.5,-63.,239.609487516205));
#195=CARTESIAN_POINT('Origin',(289.5,-61.5,240.));
#196=CARTESIAN_POINT('',(290.996368733664,-63.,240.390512483795));
#197=CARTESIAN_POINT('',(290.996368733664,-60.,240.390512483795));
#198=CARTESIAN_POINT('Ctrl Pts',(290.996368733664,-63.,240.390512483795));
#199=CARTESIAN_POINT('Ctrl Pts',(290.995089820594,-62.9820983130646,240.459274768018));
#200=CARTESIAN_POINT('Ctrl Pts',(290.99348436504,-62.9593253504247,240.527234941378));
#201=CARTESIAN_POINT('Ctrl Pts',(290.986222361111,-62.8528699480303,240.784191151328));
#202=CARTESIAN_POINT('Ctrl Pts',(290.978569462673,-62.733593400409,240.958437621269));
#203=CARTESIAN_POINT('Ctrl Pts',(290.964189142279,-62.4584374828799,241.233593538798));
#204=CARTESIAN_POINT('Ctrl Pts',(290.956527127853,-62.284191074422,241.352869979669));
#205=CARTESIAN_POINT('Ctrl Pts',(290.945714080418,-61.9023241071456,241.51107515317));
#206=CARTESIAN_POINT('Ctrl Pts',(290.942719498671,-61.6946975244063,241.55));
#207=CARTESIAN_POINT('Ctrl Pts',(290.942719498671,-61.3053024755937,241.55));
#208=CARTESIAN_POINT('Ctrl Pts',(290.945714080418,-61.0976758928544,241.51107515317));
#209=CARTESIAN_POINT('Ctrl Pts',(290.956527127853,-60.715808925578,241.352869979669));
#210=CARTESIAN_POINT('Ctrl Pts',(290.964189142279,-60.5415625171201,241.233593538798));
#211=CARTESIAN_POINT('Ctrl Pts',(290.978569462673,-60.266406599591,240.958437621269));
#212=CARTESIAN_POINT('Ctrl Pts',(290.986222361111,-60.1471300519697,240.784191151328));
#213=CARTESIAN_POINT('Ctrl Pts',(290.99348436504,-60.0406746495753,240.527234941378));
#214=CARTESIAN_POINT('Ctrl Pts',(290.995089820594,-60.0179016869354,240.459274768018));
#215=CARTESIAN_POINT('Ctrl Pts',(290.996368733664,-60.,240.390512483795));
#216=CARTESIAN_POINT('',(287.495642314588,-63.,240.390512483795));
#217=CARTESIAN_POINT('',(289.5,-63.,240.390512483795));
#218=CARTESIAN_POINT('',(287.495642314588,-60.,240.390512483795));
#219=CARTESIAN_POINT('Ctrl Pts',(287.495642314588,-60.,240.390512483795));
#220=CARTESIAN_POINT('Ctrl Pts',(287.494107121727,-60.0179061234485,240.459291809137));
#221=CARTESIAN_POINT('Ctrl Pts',(287.492179839562,-60.0406854037416,240.527266549486));
#222=CARTESIAN_POINT('Ctrl Pts',(287.483463022648,-60.1471528870062,240.784229925051));
#223=CARTESIAN_POINT('Ctrl Pts',(287.474277109752,-60.2664243955828,240.958455417261));
#224=CARTESIAN_POINT('Ctrl Pts',(287.457012570695,-60.5415448703117,241.23357589199));
#225=CARTESIAN_POINT('Ctrl Pts',(287.447810884812,-60.7157702358264,241.352847176981));
#226=CARTESIAN_POINT('Ctrl Pts',(287.434821241952,-61.0976278548767,241.511062023544));
#227=CARTESIAN_POINT('Ctrl Pts',(287.431221988145,-61.3052688182193,241.55));
#228=CARTESIAN_POINT('Ctrl Pts',(287.431221988145,-61.6947311817807,241.55));
#229=CARTESIAN_POINT('Ctrl Pts',(287.434821241952,-61.9023721451233,241.511062023544));
#230=CARTESIAN_POINT('Ctrl Pts',(287.447810884812,-62.2842297641737,241.352847176981));
#231=CARTESIAN_POINT('Ctrl Pts',(287.457012570695,-62.4584551296883,241.23357589199));
#232=CARTESIAN_POINT('Ctrl Pts',(287.474277109752,-62.7335756044172,240.958455417261));
#233=CARTESIAN_POINT('Ctrl Pts',(287.483463022648,-62.8528471129938,240.784229925051));
#234=CARTESIAN_POINT('Ctrl Pts',(287.492179839562,-62.9593145962584,240.527266549486));
#235=CARTESIAN_POINT('Ctrl Pts',(287.494107121727,-62.9820938765515,240.459291809137));
#236=CARTESIAN_POINT('Ctrl Pts',(287.495642314588,-63.,240.390512483795));
#237=CARTESIAN_POINT('',(289.5,-60.,240.390512483795));
#238=CARTESIAN_POINT('Origin',(270.,-63.,240.));
#239=CARTESIAN_POINT('Origin',(270.,-63.,240.));
#240=CARTESIAN_POINT('Origin',(270.,-63.,240.));
#241=CARTESIAN_POINT('Origin',(270.,-61.5,240.));
#242=CARTESIAN_POINT('Origin',(270.,-60.,240.));
#243=CARTESIAN_POINT('Origin',(270.,-61.5,240.));
#244=CARTESIAN_POINT('Origin',(270.,-60.,240.));
#245=CARTESIAN_POINT('Origin',(270.,-60.,240.));
#246=UNCERTAINTY_MEASURE_WITH_UNIT(LENGTH_MEASURE(0.01),#250,
'DISTANCE_ACCURACY_VALUE',
'Maximum model space distance between geometric entities at asserted c
onnectivities');
#247=UNCERTAINTY_MEASURE_WITH_UNIT(LENGTH_MEASURE(0.01),#250,
'DISTANCE_ACCURACY_VALUE',
'Maximum model space distance between geometric entities at asserted c
onnectivities');
#248=(
GEOMETRIC_REPRESENTATION_CONTEXT(3)
GLOBAL_UNCERTAINTY_ASSIGNED_CONTEXT((#246))
GLOBAL_UNIT_ASSIGNED_CONTEXT((#250,#252,#253))
REPRESENTATION_CONTEXT('','3D')
);
#249=(
GEOMETRIC_REPRESENTATION_CONTEXT(3)
GLOBAL_UNCERTAINTY_ASSIGNED_CONTEXT((#247))
GLOBAL_UNIT_ASSIGNED_CONTEXT((#250,#252,#253))
REPRESENTATION_CONTEXT('','3D')
);
#250=(
LENGTH_UNIT()
NAMED_UNIT(*)
SI_UNIT(.MILLI.,.METRE.)
);
#251=(
LENGTH_UNIT()
NAMED_UNIT(*)
SI_UNIT($,.METRE.)
);
#252=(
NAMED_UNIT(*)
PLANE_ANGLE_UNIT()
SI_UNIT($,.RADIAN.)
);
#253=(
NAMED_UNIT(*)
SI_UNIT($,.STERADIAN.)
SOLID_ANGLE_UNIT()
);
#254=SHAPE_DEFINITION_REPRESENTATION(#255,#256);
#255=PRODUCT_DEFINITION_SHAPE('',$,#258);
#256=SHAPE_REPRESENTATION('',(#112),#248);
#257=PRODUCT_DEFINITION_CONTEXT('part definition',#262,'design');
#258=PRODUCT_DEFINITION('2026-08-12-23-09-00-799',
'EXPORT_TMP_PRINT_V010L_P220_J3_LeftInnerRaceCollar_',#259,#257);
#259=PRODUCT_DEFINITION_FORMATION('',$,#264);
#260=PRODUCT_RELATED_PRODUCT_CATEGORY(
'EXPORT_TMP_PRINT_V010L_P220_J3_LeftInnerRaceCollar_',
'EXPORT_TMP_PRINT_V010L_P220_J3_LeftInnerRaceCollar_',(#264));
#261=APPLICATION_PROTOCOL_DEFINITION('international standard',
'automotive_design',2009,#262);
#262=APPLICATION_CONTEXT(
'Core Data for Automotive Mechanical Design Process');
#263=PRODUCT_CONTEXT('part definition',#262,'mechanical');
#264=PRODUCT('2026-08-12-23-09-00-799',
'EXPORT_TMP_PRINT_V010L_P220_J3_LeftInnerRaceCollar_',$,(#263));
#265=PRESENTATION_STYLE_ASSIGNMENT((#266));
#266=SURFACE_STYLE_USAGE(.BOTH.,#267);
#267=SURFACE_SIDE_STYLE('',(#268));
#268=SURFACE_STYLE_FILL_AREA(#269);
#269=FILL_AREA_STYLE('Steel - Satin',(#270));
#270=FILL_AREA_STYLE_COLOUR('Steel - Satin',#271);
#271=COLOUR_RGB('Steel - Satin',0.627450980392157,0.627450980392157,0.627450980392157);
ENDSEC;
END-ISO-10303-21;
