ISO-10303-21;
HEADER;
/* Generated by software containing ST-Developer
 * from STEP Tools, Inc. (www.steptools.com) 
 */

FILE_DESCRIPTION(
/* description */ (''),
/* implementation_level */ '2;1');

FILE_NAME(
/* name */ 'PRINT_V010U_P215_P216_J3_LoadCartridge_68mmGearbox.step',
/* time_stamp */ '2026-08-12T23:08:19+02:00',
/* author */ (''),
/* organization */ (''),
/* preprocessor_version */ 'ST-DEVELOPER v20.1',
/* originating_system */ 'Autodesk Translation Framework v15.8.0.0',
/* authorisation */ '');

FILE_SCHEMA (('AUTOMOTIVE_DESIGN { 1 0 10303 214 3 1 1 }'));
ENDSEC;

DATA;
#10=MECHANICAL_DESIGN_GEOMETRIC_PRESENTATION_REPRESENTATION('',(#13),#1738);
#11=SHAPE_REPRESENTATION_RELATIONSHIP('SRR','None',#1745,#12);
#12=ADVANCED_BREP_SHAPE_REPRESENTATION('',(#14),#1737);
#13=STYLED_ITEM('',(#1754),#14);
#14=MANIFOLD_SOLID_BREP(
'PRINT_V010U_P215_P216_J3_LoadCartridge_68mmGearbox',#1017);
#15=B_SPLINE_CURVE_WITH_KNOTS('',3,(#1520,#1521,#1522,#1523,#1524,#1525,
#1526,#1527,#1528),.UNSPECIFIED.,.F.,.F.,(4,3,2,4),(-0.0981372985271534,
0.,0.113165463965236,0.209743404601704),.UNSPECIFIED.);
#16=B_SPLINE_CURVE_WITH_KNOTS('',3,(#1532,#1533,#1534,#1535,#1536,#1537,
#1538,#1539,#1540,#1541,#1542,#1543,#1544,#1545,#1546,#1547,#1548,#1549),
 .UNSPECIFIED.,.F.,.F.,(4,2,2,2,2,2,2,2,4),(1.00302910710967,1.01802828736043,
1.13114284576829,1.24425671959857,1.35737059342886,1.47048446725914,1.58359834108942,
1.69671289949728,1.71171207974805),.UNSPECIFIED.);
#17=B_SPLINE_CURVE_WITH_KNOTS('',3,(#1553,#1554,#1555,#1556,#1557,#1558,
#1559,#1560),.UNSPECIFIED.,.F.,.F.,(4,2,2,4),(0.695574414048437,0.792152354684905,
0.905317818650141,1.00345511720917),.UNSPECIFIED.);
#18=CYLINDRICAL_SURFACE('',#1049,3.);
#19=CYLINDRICAL_SURFACE('',#1052,3.);
#20=CYLINDRICAL_SURFACE('',#1069,21.5);
#21=CYLINDRICAL_SURFACE('',#1071,2.2);
#22=CYLINDRICAL_SURFACE('',#1073,2.2);
#23=CYLINDRICAL_SURFACE('',#1075,2.2);
#24=CYLINDRICAL_SURFACE('',#1077,2.2);
#25=CYLINDRICAL_SURFACE('',#1079,26.);
#26=CYLINDRICAL_SURFACE('',#1080,8.);
#27=CYLINDRICAL_SURFACE('',#1083,8.);
#28=CYLINDRICAL_SURFACE('',#1086,8.);
#29=CYLINDRICAL_SURFACE('',#1089,8.);
#30=CYLINDRICAL_SURFACE('',#1101,5.);
#31=CYLINDRICAL_SURFACE('',#1104,5.);
#32=CYLINDRICAL_SURFACE('',#1109,8.);
#33=CYLINDRICAL_SURFACE('',#1111,8.);
#34=CYLINDRICAL_SURFACE('',#1114,5.);
#35=CYLINDRICAL_SURFACE('',#1116,5.);
#36=CYLINDRICAL_SURFACE('',#1121,8.);
#37=CYLINDRICAL_SURFACE('',#1122,8.);
#38=FACE_BOUND('',#152,.T.);
#39=FACE_BOUND('',#160,.T.);
#40=FACE_BOUND('',#166,.T.);
#41=FACE_BOUND('',#167,.T.);
#42=FACE_BOUND('',#168,.T.);
#43=FACE_BOUND('',#169,.T.);
#44=FACE_BOUND('',#170,.T.);
#45=FACE_BOUND('',#184,.T.);
#46=FACE_BOUND('',#189,.T.);
#47=FACE_BOUND('',#190,.T.);
#48=FACE_BOUND('',#191,.T.);
#49=FACE_BOUND('',#192,.T.);
#50=FACE_BOUND('',#193,.T.);
#51=FACE_BOUND('',#208,.T.);
#52=FACE_BOUND('',#214,.T.);
#53=CIRCLE('',#1036,8.);
#54=CIRCLE('',#1037,8.);
#55=CIRCLE('',#1038,8.);
#56=CIRCLE('',#1039,8.);
#57=CIRCLE('',#1050,3.);
#58=CIRCLE('',#1051,3.);
#59=CIRCLE('',#1053,3.);
#60=CIRCLE('',#1055,5.);
#61=CIRCLE('',#1056,5.);
#62=CIRCLE('',#1057,5.);
#63=CIRCLE('',#1058,5.);
#64=CIRCLE('',#1059,26.);
#65=CIRCLE('',#1060,2.2);
#66=CIRCLE('',#1061,2.2);
#67=CIRCLE('',#1062,2.2);
#68=CIRCLE('',#1063,2.2);
#69=CIRCLE('',#1066,21.5);
#70=CIRCLE('',#1067,26.);
#71=CIRCLE('',#1068,26.);
#72=CIRCLE('',#1070,21.5);
#73=CIRCLE('',#1072,2.2);
#74=CIRCLE('',#1074,2.2);
#75=CIRCLE('',#1076,2.2);
#76=CIRCLE('',#1078,2.2);
#77=CIRCLE('',#1081,8.);
#78=CIRCLE('',#1082,8.);
#79=CIRCLE('',#1084,8.);
#80=CIRCLE('',#1085,8.);
#81=CIRCLE('',#1087,8.);
#82=CIRCLE('',#1088,8.);
#83=CIRCLE('',#1090,8.);
#84=CIRCLE('',#1091,8.);
#85=CIRCLE('',#1093,8.);
#86=CIRCLE('',#1094,8.);
#87=CIRCLE('',#1095,8.);
#88=CIRCLE('',#1096,8.);
#89=CIRCLE('',#1102,5.);
#90=CIRCLE('',#1105,5.);
#91=CIRCLE('',#1115,5.);
#92=CIRCLE('',#1117,5.);
#93=FACE_OUTER_BOUND('',#147,.T.);
#94=FACE_OUTER_BOUND('',#148,.T.);
#95=FACE_OUTER_BOUND('',#149,.T.);
#96=FACE_OUTER_BOUND('',#150,.T.);
#97=FACE_OUTER_BOUND('',#151,.T.);
#98=FACE_OUTER_BOUND('',#153,.T.);
#99=FACE_OUTER_BOUND('',#154,.T.);
#100=FACE_OUTER_BOUND('',#155,.T.);
#101=FACE_OUTER_BOUND('',#156,.T.);
#102=FACE_OUTER_BOUND('',#157,.T.);
#103=FACE_OUTER_BOUND('',#158,.T.);
#104=FACE_OUTER_BOUND('',#159,.T.);
#105=FACE_OUTER_BOUND('',#161,.T.);
#106=FACE_OUTER_BOUND('',#162,.T.);
#107=FACE_OUTER_BOUND('',#163,.T.);
#108=FACE_OUTER_BOUND('',#164,.T.);
#109=FACE_OUTER_BOUND('',#165,.T.);
#110=FACE_OUTER_BOUND('',#171,.T.);
#111=FACE_OUTER_BOUND('',#172,.T.);
#112=FACE_OUTER_BOUND('',#173,.T.);
#113=FACE_OUTER_BOUND('',#174,.T.);
#114=FACE_OUTER_BOUND('',#175,.T.);
#115=FACE_OUTER_BOUND('',#176,.T.);
#116=FACE_OUTER_BOUND('',#177,.T.);
#117=FACE_OUTER_BOUND('',#178,.T.);
#118=FACE_OUTER_BOUND('',#179,.T.);
#119=FACE_OUTER_BOUND('',#180,.T.);
#120=FACE_OUTER_BOUND('',#181,.T.);
#121=FACE_OUTER_BOUND('',#182,.T.);
#122=FACE_OUTER_BOUND('',#183,.T.);
#123=FACE_OUTER_BOUND('',#185,.T.);
#124=FACE_OUTER_BOUND('',#186,.T.);
#125=FACE_OUTER_BOUND('',#187,.T.);
#126=FACE_OUTER_BOUND('',#188,.T.);
#127=FACE_OUTER_BOUND('',#194,.T.);
#128=FACE_OUTER_BOUND('',#195,.T.);
#129=FACE_OUTER_BOUND('',#196,.T.);
#130=FACE_OUTER_BOUND('',#197,.T.);
#131=FACE_OUTER_BOUND('',#198,.T.);
#132=FACE_OUTER_BOUND('',#199,.T.);
#133=FACE_OUTER_BOUND('',#200,.T.);
#134=FACE_OUTER_BOUND('',#201,.T.);
#135=FACE_OUTER_BOUND('',#202,.T.);
#136=FACE_OUTER_BOUND('',#203,.T.);
#137=FACE_OUTER_BOUND('',#204,.T.);
#138=FACE_OUTER_BOUND('',#205,.T.);
#139=FACE_OUTER_BOUND('',#206,.T.);
#140=FACE_OUTER_BOUND('',#207,.T.);
#141=FACE_OUTER_BOUND('',#209,.T.);
#142=FACE_OUTER_BOUND('',#210,.T.);
#143=FACE_OUTER_BOUND('',#211,.T.);
#144=FACE_OUTER_BOUND('',#212,.T.);
#145=FACE_OUTER_BOUND('',#213,.T.);
#146=FACE_OUTER_BOUND('',#215,.T.);
#147=EDGE_LOOP('',(#647,#648,#649,#650));
#148=EDGE_LOOP('',(#651,#652,#653,#654));
#149=EDGE_LOOP('',(#655,#656,#657,#658));
#150=EDGE_LOOP('',(#659,#660,#661,#662));
#151=EDGE_LOOP('',(#663,#664,#665,#666));
#152=EDGE_LOOP('',(#667,#668,#669,#670,#671,#672,#673,#674));
#153=EDGE_LOOP('',(#675,#676,#677,#678));
#154=EDGE_LOOP('',(#679,#680,#681,#682));
#155=EDGE_LOOP('',(#683,#684,#685,#686));
#156=EDGE_LOOP('',(#687,#688,#689,#690));
#157=EDGE_LOOP('',(#691,#692,#693,#694));
#158=EDGE_LOOP('',(#695,#696,#697,#698));
#159=EDGE_LOOP('',(#699,#700,#701,#702));
#160=EDGE_LOOP('',(#703,#704,#705,#706));
#161=EDGE_LOOP('',(#707,#708,#709,#710));
#162=EDGE_LOOP('',(#711,#712,#713,#714));
#163=EDGE_LOOP('',(#715,#716,#717,#718));
#164=EDGE_LOOP('',(#719,#720,#721,#722,#723,#724,#725,#726));
#165=EDGE_LOOP('',(#727,#728,#729,#730,#731,#732,#733,#734));
#166=EDGE_LOOP('',(#735));
#167=EDGE_LOOP('',(#736));
#168=EDGE_LOOP('',(#737));
#169=EDGE_LOOP('',(#738));
#170=EDGE_LOOP('',(#739));
#171=EDGE_LOOP('',(#740,#741,#742,#743,#744,#745));
#172=EDGE_LOOP('',(#746,#747,#748,#749,#750));
#173=EDGE_LOOP('',(#751,#752,#753,#754));
#174=EDGE_LOOP('',(#755,#756,#757,#758));
#175=EDGE_LOOP('',(#759,#760,#761,#762));
#176=EDGE_LOOP('',(#763,#764,#765,#766));
#177=EDGE_LOOP('',(#767,#768,#769,#770));
#178=EDGE_LOOP('',(#771,#772,#773,#774,#775,#776));
#179=EDGE_LOOP('',(#777,#778,#779,#780));
#180=EDGE_LOOP('',(#781,#782,#783,#784));
#181=EDGE_LOOP('',(#785,#786,#787,#788));
#182=EDGE_LOOP('',(#789,#790,#791,#792));
#183=EDGE_LOOP('',(#793,#794,#795,#796,#797,#798,#799,#800));
#184=EDGE_LOOP('',(#801,#802,#803,#804,#805,#806,#807,#808));
#185=EDGE_LOOP('',(#809,#810,#811,#812));
#186=EDGE_LOOP('',(#813,#814,#815,#816));
#187=EDGE_LOOP('',(#817,#818,#819,#820));
#188=EDGE_LOOP('',(#821,#822,#823,#824,#825,#826,#827,#828,#829,#830,#831,
#832));
#189=EDGE_LOOP('',(#833));
#190=EDGE_LOOP('',(#834));
#191=EDGE_LOOP('',(#835));
#192=EDGE_LOOP('',(#836));
#193=EDGE_LOOP('',(#837,#838,#839,#840));
#194=EDGE_LOOP('',(#841,#842,#843,#844));
#195=EDGE_LOOP('',(#845,#846,#847,#848));
#196=EDGE_LOOP('',(#849,#850,#851,#852));
#197=EDGE_LOOP('',(#853,#854,#855,#856));
#198=EDGE_LOOP('',(#857,#858,#859,#860));
#199=EDGE_LOOP('',(#861,#862));
#200=EDGE_LOOP('',(#863,#864,#865,#866));
#201=EDGE_LOOP('',(#867,#868,#869,#870));
#202=EDGE_LOOP('',(#871,#872,#873,#874));
#203=EDGE_LOOP('',(#875,#876,#877,#878));
#204=EDGE_LOOP('',(#879,#880,#881,#882));
#205=EDGE_LOOP('',(#883,#884,#885,#886));
#206=EDGE_LOOP('',(#887,#888,#889,#890));
#207=EDGE_LOOP('',(#891,#892,#893,#894,#895,#896,#897,#898));
#208=EDGE_LOOP('',(#899,#900,#901,#902));
#209=EDGE_LOOP('',(#903,#904));
#210=EDGE_LOOP('',(#905,#906,#907,#908));
#211=EDGE_LOOP('',(#909,#910,#911,#912));
#212=EDGE_LOOP('',(#913,#914,#915,#916));
#213=EDGE_LOOP('',(#917,#918,#919,#920));
#214=EDGE_LOOP('',(#921,#922,#923,#924));
#215=EDGE_LOOP('',(#925,#926,#927,#928));
#216=LINE('',#1417,#314);
#217=LINE('',#1419,#315);
#218=LINE('',#1421,#316);
#219=LINE('',#1422,#317);
#220=LINE('',#1425,#318);
#221=LINE('',#1427,#319);
#222=LINE('',#1428,#320);
#223=LINE('',#1431,#321);
#224=LINE('',#1433,#322);
#225=LINE('',#1434,#323);
#226=LINE('',#1436,#324);
#227=LINE('',#1437,#325);
#228=LINE('',#1441,#326);
#229=LINE('',#1443,#327);
#230=LINE('',#1445,#328);
#231=LINE('',#1446,#329);
#232=LINE('',#1449,#330);
#233=LINE('',#1453,#331);
#234=LINE('',#1457,#332);
#235=LINE('',#1461,#333);
#236=LINE('',#1466,#334);
#237=LINE('',#1468,#335);
#238=LINE('',#1470,#336);
#239=LINE('',#1471,#337);
#240=LINE('',#1474,#338);
#241=LINE('',#1476,#339);
#242=LINE('',#1477,#340);
#243=LINE('',#1480,#341);
#244=LINE('',#1482,#342);
#245=LINE('',#1483,#343);
#246=LINE('',#1485,#344);
#247=LINE('',#1486,#345);
#248=LINE('',#1489,#346);
#249=LINE('',#1491,#347);
#250=LINE('',#1492,#348);
#251=LINE('',#1495,#349);
#252=LINE('',#1497,#350);
#253=LINE('',#1498,#351);
#254=LINE('',#1500,#352);
#255=LINE('',#1501,#353);
#256=LINE('',#1509,#354);
#257=LINE('',#1512,#355);
#258=LINE('',#1518,#356);
#259=LINE('',#1530,#357);
#260=LINE('',#1551,#358);
#261=LINE('',#1561,#359);
#262=LINE('',#1567,#360);
#263=LINE('',#1571,#361);
#264=LINE('',#1575,#362);
#265=LINE('',#1578,#363);
#266=LINE('',#1591,#364);
#267=LINE('',#1593,#365);
#268=LINE('',#1595,#366);
#269=LINE('',#1597,#367);
#270=LINE('',#1598,#368);
#271=LINE('',#1608,#369);
#272=LINE('',#1612,#370);
#273=LINE('',#1616,#371);
#274=LINE('',#1620,#372);
#275=LINE('',#1623,#373);
#276=LINE('',#1627,#374);
#277=LINE('',#1634,#375);
#278=LINE('',#1639,#376);
#279=LINE('',#1643,#377);
#280=LINE('',#1648,#378);
#281=LINE('',#1652,#379);
#282=LINE('',#1655,#380);
#283=LINE('',#1656,#381);
#284=LINE('',#1657,#382);
#285=LINE('',#1662,#383);
#286=LINE('',#1666,#384);
#287=LINE('',#1670,#385);
#288=LINE('',#1673,#386);
#289=LINE('',#1675,#387);
#290=LINE('',#1677,#388);
#291=LINE('',#1679,#389);
#292=LINE('',#1681,#390);
#293=LINE('',#1682,#391);
#294=LINE('',#1685,#392);
#295=LINE('',#1688,#393);
#296=LINE('',#1691,#394);
#297=LINE('',#1692,#395);
#298=LINE('',#1695,#396);
#299=LINE('',#1699,#397);
#300=LINE('',#1700,#398);
#301=LINE('',#1702,#399);
#302=LINE('',#1703,#400);
#303=LINE('',#1706,#401);
#304=LINE('',#1708,#402);
#305=LINE('',#1710,#403);
#306=LINE('',#1712,#404);
#307=LINE('',#1715,#405);
#308=LINE('',#1716,#406);
#309=LINE('',#1719,#407);
#310=LINE('',#1724,#408);
#311=LINE('',#1726,#409);
#312=LINE('',#1730,#410);
#313=LINE('',#1732,#411);
#314=VECTOR('',#1129,10.);
#315=VECTOR('',#1130,10.);
#316=VECTOR('',#1131,10.);
#317=VECTOR('',#1132,10.);
#318=VECTOR('',#1135,10.);
#319=VECTOR('',#1136,10.);
#320=VECTOR('',#1137,10.);
#321=VECTOR('',#1140,10.);
#322=VECTOR('',#1141,10.);
#323=VECTOR('',#1142,10.);
#324=VECTOR('',#1145,10.);
#325=VECTOR('',#1146,10.);
#326=VECTOR('',#1149,10.);
#327=VECTOR('',#1150,10.);
#328=VECTOR('',#1151,10.);
#329=VECTOR('',#1152,10.);
#330=VECTOR('',#1153,10.);
#331=VECTOR('',#1156,10.);
#332=VECTOR('',#1159,10.);
#333=VECTOR('',#1162,10.);
#334=VECTOR('',#1167,10.);
#335=VECTOR('',#1168,10.);
#336=VECTOR('',#1169,10.);
#337=VECTOR('',#1170,10.);
#338=VECTOR('',#1173,10.);
#339=VECTOR('',#1174,10.);
#340=VECTOR('',#1175,10.);
#341=VECTOR('',#1178,10.);
#342=VECTOR('',#1179,10.);
#343=VECTOR('',#1180,10.);
#344=VECTOR('',#1183,10.);
#345=VECTOR('',#1184,10.);
#346=VECTOR('',#1187,10.);
#347=VECTOR('',#1188,10.);
#348=VECTOR('',#1189,10.);
#349=VECTOR('',#1192,10.);
#350=VECTOR('',#1193,10.);
#351=VECTOR('',#1194,10.);
#352=VECTOR('',#1197,10.);
#353=VECTOR('',#1198,10.);
#354=VECTOR('',#1207,10.);
#355=VECTOR('',#1210,10.);
#356=VECTOR('',#1215,10.);
#357=VECTOR('',#1216,10.);
#358=VECTOR('',#1217,10.);
#359=VECTOR('',#1218,10.);
#360=VECTOR('',#1223,10.);
#361=VECTOR('',#1226,10.);
#362=VECTOR('',#1229,10.);
#363=VECTOR('',#1232,10.);
#364=VECTOR('',#1245,10.);
#365=VECTOR('',#1246,10.);
#366=VECTOR('',#1247,10.);
#367=VECTOR('',#1248,10.);
#368=VECTOR('',#1249,10.);
#369=VECTOR('',#1264,2.2);
#370=VECTOR('',#1269,2.2);
#371=VECTOR('',#1274,2.2);
#372=VECTOR('',#1279,2.2);
#373=VECTOR('',#1284,26.);
#374=VECTOR('',#1287,10.);
#375=VECTOR('',#1296,10.);
#376=VECTOR('',#1301,10.);
#377=VECTOR('',#1304,10.);
#378=VECTOR('',#1309,10.);
#379=VECTOR('',#1312,10.);
#380=VECTOR('',#1317,10.);
#381=VECTOR('',#1318,10.);
#382=VECTOR('',#1319,10.);
#383=VECTOR('',#1322,10.);
#384=VECTOR('',#1325,10.);
#385=VECTOR('',#1328,10.);
#386=VECTOR('',#1331,10.);
#387=VECTOR('',#1334,10.);
#388=VECTOR('',#1337,10.);
#389=VECTOR('',#1340,10.);
#390=VECTOR('',#1343,10.);
#391=VECTOR('',#1344,10.);
#392=VECTOR('',#1347,10.);
#393=VECTOR('',#1350,10.);
#394=VECTOR('',#1353,10.);
#395=VECTOR('',#1354,10.);
#396=VECTOR('',#1357,10.);
#397=VECTOR('',#1362,10.);
#398=VECTOR('',#1363,10.);
#399=VECTOR('',#1366,10.);
#400=VECTOR('',#1367,10.);
#401=VECTOR('',#1372,10.);
#402=VECTOR('',#1375,10.);
#403=VECTOR('',#1378,10.);
#404=VECTOR('',#1381,10.);
#405=VECTOR('',#1384,10.);
#406=VECTOR('',#1385,10.);
#407=VECTOR('',#1388,10.);
#408=VECTOR('',#1395,10.);
#409=VECTOR('',#1398,10.);
#410=VECTOR('',#1405,10.);
#411=VECTOR('',#1408,10.);
#412=VERTEX_POINT('',#1415);
#413=VERTEX_POINT('',#1416);
#414=VERTEX_POINT('',#1418);
#415=VERTEX_POINT('',#1420);
#416=VERTEX_POINT('',#1424);
#417=VERTEX_POINT('',#1426);
#418=VERTEX_POINT('',#1430);
#419=VERTEX_POINT('',#1432);
#420=VERTEX_POINT('',#1439);
#421=VERTEX_POINT('',#1440);
#422=VERTEX_POINT('',#1442);
#423=VERTEX_POINT('',#1444);
#424=VERTEX_POINT('',#1447);
#425=VERTEX_POINT('',#1448);
#426=VERTEX_POINT('',#1450);
#427=VERTEX_POINT('',#1452);
#428=VERTEX_POINT('',#1454);
#429=VERTEX_POINT('',#1456);
#430=VERTEX_POINT('',#1458);
#431=VERTEX_POINT('',#1460);
#432=VERTEX_POINT('',#1464);
#433=VERTEX_POINT('',#1465);
#434=VERTEX_POINT('',#1467);
#435=VERTEX_POINT('',#1469);
#436=VERTEX_POINT('',#1473);
#437=VERTEX_POINT('',#1475);
#438=VERTEX_POINT('',#1479);
#439=VERTEX_POINT('',#1481);
#440=VERTEX_POINT('',#1488);
#441=VERTEX_POINT('',#1490);
#442=VERTEX_POINT('',#1494);
#443=VERTEX_POINT('',#1496);
#444=VERTEX_POINT('',#1505);
#445=VERTEX_POINT('',#1506);
#446=VERTEX_POINT('',#1508);
#447=VERTEX_POINT('',#1510);
#448=VERTEX_POINT('',#1514);
#449=VERTEX_POINT('',#1515);
#450=VERTEX_POINT('',#1517);
#451=VERTEX_POINT('',#1519);
#452=VERTEX_POINT('',#1529);
#453=VERTEX_POINT('',#1531);
#454=VERTEX_POINT('',#1550);
#455=VERTEX_POINT('',#1552);
#456=VERTEX_POINT('',#1563);
#457=VERTEX_POINT('',#1564);
#458=VERTEX_POINT('',#1566);
#459=VERTEX_POINT('',#1568);
#460=VERTEX_POINT('',#1570);
#461=VERTEX_POINT('',#1572);
#462=VERTEX_POINT('',#1574);
#463=VERTEX_POINT('',#1576);
#464=VERTEX_POINT('',#1579);
#465=VERTEX_POINT('',#1581);
#466=VERTEX_POINT('',#1583);
#467=VERTEX_POINT('',#1585);
#468=VERTEX_POINT('',#1587);
#469=VERTEX_POINT('',#1590);
#470=VERTEX_POINT('',#1592);
#471=VERTEX_POINT('',#1594);
#472=VERTEX_POINT('',#1596);
#473=VERTEX_POINT('',#1601);
#474=VERTEX_POINT('',#1607);
#475=VERTEX_POINT('',#1611);
#476=VERTEX_POINT('',#1615);
#477=VERTEX_POINT('',#1619);
#478=VERTEX_POINT('',#1625);
#479=VERTEX_POINT('',#1626);
#480=VERTEX_POINT('',#1631);
#481=VERTEX_POINT('',#1633);
#482=VERTEX_POINT('',#1637);
#483=VERTEX_POINT('',#1638);
#484=VERTEX_POINT('',#1640);
#485=VERTEX_POINT('',#1642);
#486=VERTEX_POINT('',#1646);
#487=VERTEX_POINT('',#1647);
#488=VERTEX_POINT('',#1649);
#489=VERTEX_POINT('',#1651);
#490=VERTEX_POINT('',#1658);
#491=VERTEX_POINT('',#1659);
#492=VERTEX_POINT('',#1661);
#493=VERTEX_POINT('',#1663);
#494=VERTEX_POINT('',#1665);
#495=VERTEX_POINT('',#1667);
#496=VERTEX_POINT('',#1669);
#497=VERTEX_POINT('',#1671);
#498=VERTEX_POINT('',#1684);
#499=VERTEX_POINT('',#1686);
#500=VERTEX_POINT('',#1690);
#501=VERTEX_POINT('',#1694);
#502=VERTEX_POINT('',#1698);
#503=VERTEX_POINT('',#1714);
#504=VERTEX_POINT('',#1718);
#505=VERTEX_POINT('',#1722);
#506=EDGE_CURVE('',#412,#413,#216,.T.);
#507=EDGE_CURVE('',#414,#412,#217,.T.);
#508=EDGE_CURVE('',#415,#414,#218,.T.);
#509=EDGE_CURVE('',#413,#415,#219,.T.);
#510=EDGE_CURVE('',#413,#416,#220,.T.);
#511=EDGE_CURVE('',#417,#415,#221,.T.);
#512=EDGE_CURVE('',#417,#416,#222,.T.);
#513=EDGE_CURVE('',#416,#418,#223,.T.);
#514=EDGE_CURVE('',#419,#417,#224,.T.);
#515=EDGE_CURVE('',#418,#419,#225,.T.);
#516=EDGE_CURVE('',#418,#412,#226,.T.);
#517=EDGE_CURVE('',#414,#419,#227,.T.);
#518=EDGE_CURVE('',#420,#421,#228,.T.);
#519=EDGE_CURVE('',#422,#421,#229,.T.);
#520=EDGE_CURVE('',#423,#422,#230,.T.);
#521=EDGE_CURVE('',#420,#423,#231,.T.);
#522=EDGE_CURVE('',#424,#425,#232,.T.);
#523=EDGE_CURVE('',#424,#426,#53,.T.);
#524=EDGE_CURVE('',#427,#426,#233,.T.);
#525=EDGE_CURVE('',#427,#428,#54,.T.);
#526=EDGE_CURVE('',#428,#429,#234,.T.);
#527=EDGE_CURVE('',#429,#430,#55,.T.);
#528=EDGE_CURVE('',#431,#430,#235,.T.);
#529=EDGE_CURVE('',#431,#425,#56,.T.);
#530=EDGE_CURVE('',#432,#433,#236,.T.);
#531=EDGE_CURVE('',#434,#432,#237,.T.);
#532=EDGE_CURVE('',#435,#434,#238,.T.);
#533=EDGE_CURVE('',#433,#435,#239,.T.);
#534=EDGE_CURVE('',#433,#436,#240,.T.);
#535=EDGE_CURVE('',#437,#435,#241,.T.);
#536=EDGE_CURVE('',#437,#436,#242,.T.);
#537=EDGE_CURVE('',#436,#438,#243,.T.);
#538=EDGE_CURVE('',#439,#437,#244,.T.);
#539=EDGE_CURVE('',#438,#439,#245,.T.);
#540=EDGE_CURVE('',#438,#432,#246,.T.);
#541=EDGE_CURVE('',#434,#439,#247,.T.);
#542=EDGE_CURVE('',#440,#420,#248,.T.);
#543=EDGE_CURVE('',#423,#441,#249,.T.);
#544=EDGE_CURVE('',#441,#440,#250,.T.);
#545=EDGE_CURVE('',#421,#442,#251,.T.);
#546=EDGE_CURVE('',#442,#443,#252,.T.);
#547=EDGE_CURVE('',#443,#422,#253,.T.);
#548=EDGE_CURVE('',#441,#443,#254,.T.);
#549=EDGE_CURVE('',#440,#442,#255,.T.);
#550=EDGE_CURVE('',#444,#445,#57,.T.);
#551=EDGE_CURVE('',#446,#444,#256,.T.);
#552=EDGE_CURVE('',#447,#446,#58,.T.);
#553=EDGE_CURVE('',#445,#447,#257,.T.);
#554=EDGE_CURVE('',#448,#449,#59,.T.);
#555=EDGE_CURVE('',#450,#448,#258,.T.);
#556=EDGE_CURVE('',#451,#450,#15,.T.);
#557=EDGE_CURVE('',#452,#451,#259,.T.);
#558=EDGE_CURVE('',#453,#452,#16,.T.);
#559=EDGE_CURVE('',#454,#453,#260,.T.);
#560=EDGE_CURVE('',#455,#454,#17,.T.);
#561=EDGE_CURVE('',#449,#455,#261,.T.);
#562=EDGE_CURVE('',#456,#457,#60,.T.);
#563=EDGE_CURVE('',#458,#456,#262,.T.);
#564=EDGE_CURVE('',#459,#458,#61,.T.);
#565=EDGE_CURVE('',#460,#459,#263,.T.);
#566=EDGE_CURVE('',#461,#460,#62,.T.);
#567=EDGE_CURVE('',#462,#461,#264,.T.);
#568=EDGE_CURVE('',#463,#462,#63,.T.);
#569=EDGE_CURVE('',#457,#463,#265,.T.);
#570=EDGE_CURVE('',#464,#464,#64,.T.);
#571=EDGE_CURVE('',#465,#465,#65,.T.);
#572=EDGE_CURVE('',#466,#466,#66,.T.);
#573=EDGE_CURVE('',#467,#467,#67,.T.);
#574=EDGE_CURVE('',#468,#468,#68,.T.);
#575=EDGE_CURVE('',#469,#446,#266,.T.);
#576=EDGE_CURVE('',#470,#469,#267,.T.);
#577=EDGE_CURVE('',#470,#471,#268,.T.);
#578=EDGE_CURVE('',#472,#471,#269,.T.);
#579=EDGE_CURVE('',#447,#472,#270,.T.);
#580=EDGE_CURVE('',#451,#454,#69,.T.);
#581=EDGE_CURVE('',#473,#453,#70,.T.);
#582=EDGE_CURVE('',#452,#473,#71,.T.);
#583=EDGE_CURVE('',#455,#450,#72,.T.);
#584=EDGE_CURVE('',#468,#474,#271,.T.);
#585=EDGE_CURVE('',#474,#474,#73,.T.);
#586=EDGE_CURVE('',#467,#475,#272,.T.);
#587=EDGE_CURVE('',#475,#475,#74,.T.);
#588=EDGE_CURVE('',#466,#476,#273,.T.);
#589=EDGE_CURVE('',#476,#476,#75,.T.);
#590=EDGE_CURVE('',#465,#477,#274,.T.);
#591=EDGE_CURVE('',#477,#477,#76,.T.);
#592=EDGE_CURVE('',#464,#473,#275,.T.);
#593=EDGE_CURVE('',#478,#479,#276,.T.);
#594=EDGE_CURVE('',#470,#478,#77,.T.);
#595=EDGE_CURVE('',#479,#469,#78,.T.);
#596=EDGE_CURVE('',#480,#471,#79,.T.);
#597=EDGE_CURVE('',#481,#480,#277,.T.);
#598=EDGE_CURVE('',#472,#481,#80,.T.);
#599=EDGE_CURVE('',#482,#483,#278,.T.);
#600=EDGE_CURVE('',#484,#483,#81,.T.);
#601=EDGE_CURVE('',#485,#484,#279,.T.);
#602=EDGE_CURVE('',#482,#485,#82,.T.);
#603=EDGE_CURVE('',#486,#487,#280,.T.);
#604=EDGE_CURVE('',#488,#487,#83,.T.);
#605=EDGE_CURVE('',#489,#488,#281,.T.);
#606=EDGE_CURVE('',#486,#489,#84,.T.);
#607=EDGE_CURVE('',#484,#478,#282,.T.);
#608=EDGE_CURVE('',#483,#486,#283,.T.);
#609=EDGE_CURVE('',#480,#489,#284,.T.);
#610=EDGE_CURVE('',#490,#491,#85,.T.);
#611=EDGE_CURVE('',#492,#490,#285,.T.);
#612=EDGE_CURVE('',#493,#492,#86,.T.);
#613=EDGE_CURVE('',#494,#493,#286,.T.);
#614=EDGE_CURVE('',#495,#494,#87,.T.);
#615=EDGE_CURVE('',#496,#495,#287,.T.);
#616=EDGE_CURVE('',#497,#496,#88,.T.);
#617=EDGE_CURVE('',#491,#497,#288,.T.);
#618=EDGE_CURVE('',#482,#487,#289,.T.);
#619=EDGE_CURVE('',#479,#485,#290,.T.);
#620=EDGE_CURVE('',#488,#481,#291,.T.);
#621=EDGE_CURVE('',#444,#445,#292,.T.);
#622=EDGE_CURVE('',#448,#449,#293,.T.);
#623=EDGE_CURVE('',#460,#498,#294,.T.);
#624=EDGE_CURVE('',#498,#499,#89,.T.);
#625=EDGE_CURVE('',#461,#499,#295,.T.);
#626=EDGE_CURVE('',#500,#459,#296,.T.);
#627=EDGE_CURVE('',#498,#500,#297,.T.);
#628=EDGE_CURVE('',#501,#458,#298,.T.);
#629=EDGE_CURVE('',#501,#500,#90,.T.);
#630=EDGE_CURVE('',#456,#502,#299,.T.);
#631=EDGE_CURVE('',#501,#502,#300,.T.);
#632=EDGE_CURVE('',#424,#495,#301,.T.);
#633=EDGE_CURVE('',#496,#425,#302,.T.);
#634=EDGE_CURVE('',#426,#494,#303,.T.);
#635=EDGE_CURVE('',#493,#427,#304,.T.);
#636=EDGE_CURVE('',#492,#428,#305,.T.);
#637=EDGE_CURVE('',#429,#490,#306,.T.);
#638=EDGE_CURVE('',#499,#503,#307,.T.);
#639=EDGE_CURVE('',#503,#462,#308,.T.);
#640=EDGE_CURVE('',#457,#504,#309,.T.);
#641=EDGE_CURVE('',#504,#502,#91,.T.);
#642=EDGE_CURVE('',#503,#505,#92,.T.);
#643=EDGE_CURVE('',#505,#463,#310,.T.);
#644=EDGE_CURVE('',#504,#505,#311,.T.);
#645=EDGE_CURVE('',#497,#431,#312,.T.);
#646=EDGE_CURVE('',#430,#491,#313,.T.);
#647=ORIENTED_EDGE('',*,*,#506,.F.);
#648=ORIENTED_EDGE('',*,*,#507,.F.);
#649=ORIENTED_EDGE('',*,*,#508,.F.);
#650=ORIENTED_EDGE('',*,*,#509,.F.);
#651=ORIENTED_EDGE('',*,*,#510,.F.);
#652=ORIENTED_EDGE('',*,*,#509,.T.);
#653=ORIENTED_EDGE('',*,*,#511,.F.);
#654=ORIENTED_EDGE('',*,*,#512,.T.);
#655=ORIENTED_EDGE('',*,*,#513,.F.);
#656=ORIENTED_EDGE('',*,*,#512,.F.);
#657=ORIENTED_EDGE('',*,*,#514,.F.);
#658=ORIENTED_EDGE('',*,*,#515,.F.);
#659=ORIENTED_EDGE('',*,*,#516,.F.);
#660=ORIENTED_EDGE('',*,*,#515,.T.);
#661=ORIENTED_EDGE('',*,*,#517,.F.);
#662=ORIENTED_EDGE('',*,*,#507,.T.);
#663=ORIENTED_EDGE('',*,*,#518,.T.);
#664=ORIENTED_EDGE('',*,*,#519,.F.);
#665=ORIENTED_EDGE('',*,*,#520,.F.);
#666=ORIENTED_EDGE('',*,*,#521,.F.);
#667=ORIENTED_EDGE('',*,*,#522,.F.);
#668=ORIENTED_EDGE('',*,*,#523,.T.);
#669=ORIENTED_EDGE('',*,*,#524,.F.);
#670=ORIENTED_EDGE('',*,*,#525,.T.);
#671=ORIENTED_EDGE('',*,*,#526,.T.);
#672=ORIENTED_EDGE('',*,*,#527,.T.);
#673=ORIENTED_EDGE('',*,*,#528,.F.);
#674=ORIENTED_EDGE('',*,*,#529,.T.);
#675=ORIENTED_EDGE('',*,*,#530,.F.);
#676=ORIENTED_EDGE('',*,*,#531,.F.);
#677=ORIENTED_EDGE('',*,*,#532,.F.);
#678=ORIENTED_EDGE('',*,*,#533,.F.);
#679=ORIENTED_EDGE('',*,*,#534,.F.);
#680=ORIENTED_EDGE('',*,*,#533,.T.);
#681=ORIENTED_EDGE('',*,*,#535,.F.);
#682=ORIENTED_EDGE('',*,*,#536,.T.);
#683=ORIENTED_EDGE('',*,*,#537,.F.);
#684=ORIENTED_EDGE('',*,*,#536,.F.);
#685=ORIENTED_EDGE('',*,*,#538,.F.);
#686=ORIENTED_EDGE('',*,*,#539,.F.);
#687=ORIENTED_EDGE('',*,*,#540,.F.);
#688=ORIENTED_EDGE('',*,*,#539,.T.);
#689=ORIENTED_EDGE('',*,*,#541,.F.);
#690=ORIENTED_EDGE('',*,*,#531,.T.);
#691=ORIENTED_EDGE('',*,*,#542,.T.);
#692=ORIENTED_EDGE('',*,*,#521,.T.);
#693=ORIENTED_EDGE('',*,*,#543,.T.);
#694=ORIENTED_EDGE('',*,*,#544,.T.);
#695=ORIENTED_EDGE('',*,*,#545,.T.);
#696=ORIENTED_EDGE('',*,*,#546,.T.);
#697=ORIENTED_EDGE('',*,*,#547,.T.);
#698=ORIENTED_EDGE('',*,*,#519,.T.);
#699=ORIENTED_EDGE('',*,*,#548,.T.);
#700=ORIENTED_EDGE('',*,*,#546,.F.);
#701=ORIENTED_EDGE('',*,*,#549,.F.);
#702=ORIENTED_EDGE('',*,*,#544,.F.);
#703=ORIENTED_EDGE('',*,*,#538,.T.);
#704=ORIENTED_EDGE('',*,*,#535,.T.);
#705=ORIENTED_EDGE('',*,*,#532,.T.);
#706=ORIENTED_EDGE('',*,*,#541,.T.);
#707=ORIENTED_EDGE('',*,*,#520,.T.);
#708=ORIENTED_EDGE('',*,*,#547,.F.);
#709=ORIENTED_EDGE('',*,*,#548,.F.);
#710=ORIENTED_EDGE('',*,*,#543,.F.);
#711=ORIENTED_EDGE('',*,*,#549,.T.);
#712=ORIENTED_EDGE('',*,*,#545,.F.);
#713=ORIENTED_EDGE('',*,*,#518,.F.);
#714=ORIENTED_EDGE('',*,*,#542,.F.);
#715=ORIENTED_EDGE('',*,*,#550,.F.);
#716=ORIENTED_EDGE('',*,*,#551,.F.);
#717=ORIENTED_EDGE('',*,*,#552,.F.);
#718=ORIENTED_EDGE('',*,*,#553,.F.);
#719=ORIENTED_EDGE('',*,*,#554,.F.);
#720=ORIENTED_EDGE('',*,*,#555,.F.);
#721=ORIENTED_EDGE('',*,*,#556,.F.);
#722=ORIENTED_EDGE('',*,*,#557,.F.);
#723=ORIENTED_EDGE('',*,*,#558,.F.);
#724=ORIENTED_EDGE('',*,*,#559,.F.);
#725=ORIENTED_EDGE('',*,*,#560,.F.);
#726=ORIENTED_EDGE('',*,*,#561,.F.);
#727=ORIENTED_EDGE('',*,*,#562,.F.);
#728=ORIENTED_EDGE('',*,*,#563,.F.);
#729=ORIENTED_EDGE('',*,*,#564,.F.);
#730=ORIENTED_EDGE('',*,*,#565,.F.);
#731=ORIENTED_EDGE('',*,*,#566,.F.);
#732=ORIENTED_EDGE('',*,*,#567,.F.);
#733=ORIENTED_EDGE('',*,*,#568,.F.);
#734=ORIENTED_EDGE('',*,*,#569,.F.);
#735=ORIENTED_EDGE('',*,*,#570,.T.);
#736=ORIENTED_EDGE('',*,*,#571,.T.);
#737=ORIENTED_EDGE('',*,*,#572,.T.);
#738=ORIENTED_EDGE('',*,*,#573,.T.);
#739=ORIENTED_EDGE('',*,*,#574,.T.);
#740=ORIENTED_EDGE('',*,*,#552,.T.);
#741=ORIENTED_EDGE('',*,*,#575,.F.);
#742=ORIENTED_EDGE('',*,*,#576,.F.);
#743=ORIENTED_EDGE('',*,*,#577,.T.);
#744=ORIENTED_EDGE('',*,*,#578,.F.);
#745=ORIENTED_EDGE('',*,*,#579,.F.);
#746=ORIENTED_EDGE('',*,*,#557,.T.);
#747=ORIENTED_EDGE('',*,*,#580,.T.);
#748=ORIENTED_EDGE('',*,*,#559,.T.);
#749=ORIENTED_EDGE('',*,*,#581,.F.);
#750=ORIENTED_EDGE('',*,*,#582,.F.);
#751=ORIENTED_EDGE('',*,*,#556,.T.);
#752=ORIENTED_EDGE('',*,*,#583,.F.);
#753=ORIENTED_EDGE('',*,*,#560,.T.);
#754=ORIENTED_EDGE('',*,*,#580,.F.);
#755=ORIENTED_EDGE('',*,*,#574,.F.);
#756=ORIENTED_EDGE('',*,*,#584,.T.);
#757=ORIENTED_EDGE('',*,*,#585,.F.);
#758=ORIENTED_EDGE('',*,*,#584,.F.);
#759=ORIENTED_EDGE('',*,*,#573,.F.);
#760=ORIENTED_EDGE('',*,*,#586,.T.);
#761=ORIENTED_EDGE('',*,*,#587,.F.);
#762=ORIENTED_EDGE('',*,*,#586,.F.);
#763=ORIENTED_EDGE('',*,*,#572,.F.);
#764=ORIENTED_EDGE('',*,*,#588,.T.);
#765=ORIENTED_EDGE('',*,*,#589,.F.);
#766=ORIENTED_EDGE('',*,*,#588,.F.);
#767=ORIENTED_EDGE('',*,*,#571,.F.);
#768=ORIENTED_EDGE('',*,*,#590,.T.);
#769=ORIENTED_EDGE('',*,*,#591,.F.);
#770=ORIENTED_EDGE('',*,*,#590,.F.);
#771=ORIENTED_EDGE('',*,*,#570,.F.);
#772=ORIENTED_EDGE('',*,*,#592,.T.);
#773=ORIENTED_EDGE('',*,*,#581,.T.);
#774=ORIENTED_EDGE('',*,*,#558,.T.);
#775=ORIENTED_EDGE('',*,*,#582,.T.);
#776=ORIENTED_EDGE('',*,*,#592,.F.);
#777=ORIENTED_EDGE('',*,*,#593,.F.);
#778=ORIENTED_EDGE('',*,*,#594,.F.);
#779=ORIENTED_EDGE('',*,*,#576,.T.);
#780=ORIENTED_EDGE('',*,*,#595,.F.);
#781=ORIENTED_EDGE('',*,*,#578,.T.);
#782=ORIENTED_EDGE('',*,*,#596,.F.);
#783=ORIENTED_EDGE('',*,*,#597,.F.);
#784=ORIENTED_EDGE('',*,*,#598,.F.);
#785=ORIENTED_EDGE('',*,*,#599,.T.);
#786=ORIENTED_EDGE('',*,*,#600,.F.);
#787=ORIENTED_EDGE('',*,*,#601,.F.);
#788=ORIENTED_EDGE('',*,*,#602,.F.);
#789=ORIENTED_EDGE('',*,*,#603,.T.);
#790=ORIENTED_EDGE('',*,*,#604,.F.);
#791=ORIENTED_EDGE('',*,*,#605,.F.);
#792=ORIENTED_EDGE('',*,*,#606,.F.);
#793=ORIENTED_EDGE('',*,*,#607,.F.);
#794=ORIENTED_EDGE('',*,*,#600,.T.);
#795=ORIENTED_EDGE('',*,*,#608,.T.);
#796=ORIENTED_EDGE('',*,*,#606,.T.);
#797=ORIENTED_EDGE('',*,*,#609,.F.);
#798=ORIENTED_EDGE('',*,*,#596,.T.);
#799=ORIENTED_EDGE('',*,*,#577,.F.);
#800=ORIENTED_EDGE('',*,*,#594,.T.);
#801=ORIENTED_EDGE('',*,*,#610,.F.);
#802=ORIENTED_EDGE('',*,*,#611,.F.);
#803=ORIENTED_EDGE('',*,*,#612,.F.);
#804=ORIENTED_EDGE('',*,*,#613,.F.);
#805=ORIENTED_EDGE('',*,*,#614,.F.);
#806=ORIENTED_EDGE('',*,*,#615,.F.);
#807=ORIENTED_EDGE('',*,*,#616,.F.);
#808=ORIENTED_EDGE('',*,*,#617,.F.);
#809=ORIENTED_EDGE('',*,*,#618,.T.);
#810=ORIENTED_EDGE('',*,*,#603,.F.);
#811=ORIENTED_EDGE('',*,*,#608,.F.);
#812=ORIENTED_EDGE('',*,*,#599,.F.);
#813=ORIENTED_EDGE('',*,*,#593,.T.);
#814=ORIENTED_EDGE('',*,*,#619,.T.);
#815=ORIENTED_EDGE('',*,*,#601,.T.);
#816=ORIENTED_EDGE('',*,*,#607,.T.);
#817=ORIENTED_EDGE('',*,*,#597,.T.);
#818=ORIENTED_EDGE('',*,*,#609,.T.);
#819=ORIENTED_EDGE('',*,*,#605,.T.);
#820=ORIENTED_EDGE('',*,*,#620,.T.);
#821=ORIENTED_EDGE('',*,*,#621,.T.);
#822=ORIENTED_EDGE('',*,*,#553,.T.);
#823=ORIENTED_EDGE('',*,*,#579,.T.);
#824=ORIENTED_EDGE('',*,*,#598,.T.);
#825=ORIENTED_EDGE('',*,*,#620,.F.);
#826=ORIENTED_EDGE('',*,*,#604,.T.);
#827=ORIENTED_EDGE('',*,*,#618,.F.);
#828=ORIENTED_EDGE('',*,*,#602,.T.);
#829=ORIENTED_EDGE('',*,*,#619,.F.);
#830=ORIENTED_EDGE('',*,*,#595,.T.);
#831=ORIENTED_EDGE('',*,*,#575,.T.);
#832=ORIENTED_EDGE('',*,*,#551,.T.);
#833=ORIENTED_EDGE('',*,*,#585,.T.);
#834=ORIENTED_EDGE('',*,*,#587,.T.);
#835=ORIENTED_EDGE('',*,*,#589,.T.);
#836=ORIENTED_EDGE('',*,*,#591,.T.);
#837=ORIENTED_EDGE('',*,*,#561,.T.);
#838=ORIENTED_EDGE('',*,*,#583,.T.);
#839=ORIENTED_EDGE('',*,*,#555,.T.);
#840=ORIENTED_EDGE('',*,*,#622,.T.);
#841=ORIENTED_EDGE('',*,*,#566,.T.);
#842=ORIENTED_EDGE('',*,*,#623,.T.);
#843=ORIENTED_EDGE('',*,*,#624,.T.);
#844=ORIENTED_EDGE('',*,*,#625,.F.);
#845=ORIENTED_EDGE('',*,*,#565,.T.);
#846=ORIENTED_EDGE('',*,*,#626,.F.);
#847=ORIENTED_EDGE('',*,*,#627,.F.);
#848=ORIENTED_EDGE('',*,*,#623,.F.);
#849=ORIENTED_EDGE('',*,*,#564,.T.);
#850=ORIENTED_EDGE('',*,*,#628,.F.);
#851=ORIENTED_EDGE('',*,*,#629,.T.);
#852=ORIENTED_EDGE('',*,*,#626,.T.);
#853=ORIENTED_EDGE('',*,*,#563,.T.);
#854=ORIENTED_EDGE('',*,*,#630,.T.);
#855=ORIENTED_EDGE('',*,*,#631,.F.);
#856=ORIENTED_EDGE('',*,*,#628,.T.);
#857=ORIENTED_EDGE('',*,*,#615,.T.);
#858=ORIENTED_EDGE('',*,*,#632,.F.);
#859=ORIENTED_EDGE('',*,*,#522,.T.);
#860=ORIENTED_EDGE('',*,*,#633,.F.);
#861=ORIENTED_EDGE('',*,*,#550,.T.);
#862=ORIENTED_EDGE('',*,*,#621,.F.);
#863=ORIENTED_EDGE('',*,*,#614,.T.);
#864=ORIENTED_EDGE('',*,*,#634,.F.);
#865=ORIENTED_EDGE('',*,*,#523,.F.);
#866=ORIENTED_EDGE('',*,*,#632,.T.);
#867=ORIENTED_EDGE('',*,*,#613,.T.);
#868=ORIENTED_EDGE('',*,*,#635,.T.);
#869=ORIENTED_EDGE('',*,*,#524,.T.);
#870=ORIENTED_EDGE('',*,*,#634,.T.);
#871=ORIENTED_EDGE('',*,*,#612,.T.);
#872=ORIENTED_EDGE('',*,*,#636,.T.);
#873=ORIENTED_EDGE('',*,*,#525,.F.);
#874=ORIENTED_EDGE('',*,*,#635,.F.);
#875=ORIENTED_EDGE('',*,*,#611,.T.);
#876=ORIENTED_EDGE('',*,*,#637,.F.);
#877=ORIENTED_EDGE('',*,*,#526,.F.);
#878=ORIENTED_EDGE('',*,*,#636,.F.);
#879=ORIENTED_EDGE('',*,*,#567,.T.);
#880=ORIENTED_EDGE('',*,*,#625,.T.);
#881=ORIENTED_EDGE('',*,*,#638,.T.);
#882=ORIENTED_EDGE('',*,*,#639,.T.);
#883=ORIENTED_EDGE('',*,*,#562,.T.);
#884=ORIENTED_EDGE('',*,*,#640,.T.);
#885=ORIENTED_EDGE('',*,*,#641,.T.);
#886=ORIENTED_EDGE('',*,*,#630,.F.);
#887=ORIENTED_EDGE('',*,*,#568,.T.);
#888=ORIENTED_EDGE('',*,*,#639,.F.);
#889=ORIENTED_EDGE('',*,*,#642,.T.);
#890=ORIENTED_EDGE('',*,*,#643,.T.);
#891=ORIENTED_EDGE('',*,*,#627,.T.);
#892=ORIENTED_EDGE('',*,*,#629,.F.);
#893=ORIENTED_EDGE('',*,*,#631,.T.);
#894=ORIENTED_EDGE('',*,*,#641,.F.);
#895=ORIENTED_EDGE('',*,*,#644,.T.);
#896=ORIENTED_EDGE('',*,*,#642,.F.);
#897=ORIENTED_EDGE('',*,*,#638,.F.);
#898=ORIENTED_EDGE('',*,*,#624,.F.);
#899=ORIENTED_EDGE('',*,*,#513,.T.);
#900=ORIENTED_EDGE('',*,*,#516,.T.);
#901=ORIENTED_EDGE('',*,*,#506,.T.);
#902=ORIENTED_EDGE('',*,*,#510,.T.);
#903=ORIENTED_EDGE('',*,*,#554,.T.);
#904=ORIENTED_EDGE('',*,*,#622,.F.);
#905=ORIENTED_EDGE('',*,*,#569,.T.);
#906=ORIENTED_EDGE('',*,*,#643,.F.);
#907=ORIENTED_EDGE('',*,*,#644,.F.);
#908=ORIENTED_EDGE('',*,*,#640,.F.);
#909=ORIENTED_EDGE('',*,*,#616,.T.);
#910=ORIENTED_EDGE('',*,*,#633,.T.);
#911=ORIENTED_EDGE('',*,*,#529,.F.);
#912=ORIENTED_EDGE('',*,*,#645,.F.);
#913=ORIENTED_EDGE('',*,*,#610,.T.);
#914=ORIENTED_EDGE('',*,*,#646,.F.);
#915=ORIENTED_EDGE('',*,*,#527,.F.);
#916=ORIENTED_EDGE('',*,*,#637,.T.);
#917=ORIENTED_EDGE('',*,*,#530,.T.);
#918=ORIENTED_EDGE('',*,*,#534,.T.);
#919=ORIENTED_EDGE('',*,*,#537,.T.);
#920=ORIENTED_EDGE('',*,*,#540,.T.);
#921=ORIENTED_EDGE('',*,*,#514,.T.);
#922=ORIENTED_EDGE('',*,*,#511,.T.);
#923=ORIENTED_EDGE('',*,*,#508,.T.);
#924=ORIENTED_EDGE('',*,*,#517,.T.);
#925=ORIENTED_EDGE('',*,*,#617,.T.);
#926=ORIENTED_EDGE('',*,*,#645,.T.);
#927=ORIENTED_EDGE('',*,*,#528,.T.);
#928=ORIENTED_EDGE('',*,*,#646,.T.);
#929=PLANE('',#1031);
#930=PLANE('',#1032);
#931=PLANE('',#1033);
#932=PLANE('',#1034);
#933=PLANE('',#1035);
#934=PLANE('',#1040);
#935=PLANE('',#1041);
#936=PLANE('',#1042);
#937=PLANE('',#1043);
#938=PLANE('',#1044);
#939=PLANE('',#1045);
#940=PLANE('',#1046);
#941=PLANE('',#1047);
#942=PLANE('',#1048);
#943=PLANE('',#1054);
#944=PLANE('',#1064);
#945=PLANE('',#1065);
#946=PLANE('',#1092);
#947=PLANE('',#1097);
#948=PLANE('',#1098);
#949=PLANE('',#1099);
#950=PLANE('',#1100);
#951=PLANE('',#1103);
#952=PLANE('',#1106);
#953=PLANE('',#1107);
#954=PLANE('',#1108);
#955=PLANE('',#1110);
#956=PLANE('',#1112);
#957=PLANE('',#1113);
#958=PLANE('',#1118);
#959=PLANE('',#1119);
#960=PLANE('',#1120);
#961=PLANE('',#1123);
#962=PLANE('',#1124);
#963=ADVANCED_FACE('',(#93),#929,.F.);
#964=ADVANCED_FACE('',(#94),#930,.T.);
#965=ADVANCED_FACE('',(#95),#931,.T.);
#966=ADVANCED_FACE('',(#96),#932,.T.);
#967=ADVANCED_FACE('',(#97,#38),#933,.F.);
#968=ADVANCED_FACE('',(#98),#934,.F.);
#969=ADVANCED_FACE('',(#99),#935,.T.);
#970=ADVANCED_FACE('',(#100),#936,.T.);
#971=ADVANCED_FACE('',(#101),#937,.T.);
#972=ADVANCED_FACE('',(#102),#938,.T.);
#973=ADVANCED_FACE('',(#103),#939,.F.);
#974=ADVANCED_FACE('',(#104,#39),#940,.F.);
#975=ADVANCED_FACE('',(#105),#941,.F.);
#976=ADVANCED_FACE('',(#106),#942,.F.);
#977=ADVANCED_FACE('',(#107),#18,.F.);
#978=ADVANCED_FACE('',(#108),#19,.F.);
#979=ADVANCED_FACE('',(#109,#40,#41,#42,#43,#44),#943,.F.);
#980=ADVANCED_FACE('',(#110),#944,.F.);
#981=ADVANCED_FACE('',(#111),#945,.T.);
#982=ADVANCED_FACE('',(#112),#20,.F.);
#983=ADVANCED_FACE('',(#113),#21,.F.);
#984=ADVANCED_FACE('',(#114),#22,.F.);
#985=ADVANCED_FACE('',(#115),#23,.F.);
#986=ADVANCED_FACE('',(#116),#24,.F.);
#987=ADVANCED_FACE('',(#117),#25,.F.);
#988=ADVANCED_FACE('',(#118),#26,.T.);
#989=ADVANCED_FACE('',(#119),#27,.T.);
#990=ADVANCED_FACE('',(#120),#28,.T.);
#991=ADVANCED_FACE('',(#121),#29,.T.);
#992=ADVANCED_FACE('',(#122,#45),#946,.F.);
#993=ADVANCED_FACE('',(#123),#947,.F.);
#994=ADVANCED_FACE('',(#124),#948,.T.);
#995=ADVANCED_FACE('',(#125),#949,.F.);
#996=ADVANCED_FACE('',(#126,#46,#47,#48,#49,#50),#950,.F.);
#997=ADVANCED_FACE('',(#127),#30,.F.);
#998=ADVANCED_FACE('',(#128),#951,.F.);
#999=ADVANCED_FACE('',(#129),#31,.F.);
#1000=ADVANCED_FACE('',(#130),#952,.T.);
#1001=ADVANCED_FACE('',(#131),#953,.F.);
#1002=ADVANCED_FACE('',(#132),#954,.F.);
#1003=ADVANCED_FACE('',(#133),#32,.T.);
#1004=ADVANCED_FACE('',(#134),#955,.T.);
#1005=ADVANCED_FACE('',(#135),#33,.T.);
#1006=ADVANCED_FACE('',(#136),#956,.F.);
#1007=ADVANCED_FACE('',(#137),#957,.T.);
#1008=ADVANCED_FACE('',(#138),#34,.F.);
#1009=ADVANCED_FACE('',(#139),#35,.F.);
#1010=ADVANCED_FACE('',(#140,#51),#958,.T.);
#1011=ADVANCED_FACE('',(#141),#959,.T.);
#1012=ADVANCED_FACE('',(#142),#960,.T.);
#1013=ADVANCED_FACE('',(#143),#36,.T.);
#1014=ADVANCED_FACE('',(#144),#37,.T.);
#1015=ADVANCED_FACE('',(#145,#52),#961,.F.);
#1016=ADVANCED_FACE('',(#146),#962,.F.);
#1017=CLOSED_SHELL('',(#963,#964,#965,#966,#967,#968,#969,#970,#971,#972,
#973,#974,#975,#976,#977,#978,#979,#980,#981,#982,#983,#984,#985,#986,#987,
#988,#989,#990,#991,#992,#993,#994,#995,#996,#997,#998,#999,#1000,#1001,
#1002,#1003,#1004,#1005,#1006,#1007,#1008,#1009,#1010,#1011,#1012,#1013,
#1014,#1015,#1016));
#1018=DERIVED_UNIT_ELEMENT(#1020,1.);
#1019=DERIVED_UNIT_ELEMENT(#1740,-3.);
#1020=(
MASS_UNIT()
NAMED_UNIT(*)
SI_UNIT(.KILO.,.GRAM.)
);
#1021=DERIVED_UNIT((#1018,#1019));
#1022=MEASURE_REPRESENTATION_ITEM('density measure',
POSITIVE_RATIO_MEASURE(7850.),#1021);
#1023=PROPERTY_DEFINITION_REPRESENTATION(#1028,#1025);
#1024=PROPERTY_DEFINITION_REPRESENTATION(#1029,#1026);
#1025=REPRESENTATION('material name',(#1027),#1737);
#1026=REPRESENTATION('density',(#1022),#1737);
#1027=DESCRIPTIVE_REPRESENTATION_ITEM('Steel','Steel');
#1028=PROPERTY_DEFINITION('material property','material name',#1747);
#1029=PROPERTY_DEFINITION('material property','density of part',#1747);
#1030=AXIS2_PLACEMENT_3D('',#1413,#1125,#1126);
#1031=AXIS2_PLACEMENT_3D('',#1414,#1127,#1128);
#1032=AXIS2_PLACEMENT_3D('',#1423,#1133,#1134);
#1033=AXIS2_PLACEMENT_3D('',#1429,#1138,#1139);
#1034=AXIS2_PLACEMENT_3D('',#1435,#1143,#1144);
#1035=AXIS2_PLACEMENT_3D('',#1438,#1147,#1148);
#1036=AXIS2_PLACEMENT_3D('',#1451,#1154,#1155);
#1037=AXIS2_PLACEMENT_3D('',#1455,#1157,#1158);
#1038=AXIS2_PLACEMENT_3D('',#1459,#1160,#1161);
#1039=AXIS2_PLACEMENT_3D('',#1462,#1163,#1164);
#1040=AXIS2_PLACEMENT_3D('',#1463,#1165,#1166);
#1041=AXIS2_PLACEMENT_3D('',#1472,#1171,#1172);
#1042=AXIS2_PLACEMENT_3D('',#1478,#1176,#1177);
#1043=AXIS2_PLACEMENT_3D('',#1484,#1181,#1182);
#1044=AXIS2_PLACEMENT_3D('',#1487,#1185,#1186);
#1045=AXIS2_PLACEMENT_3D('',#1493,#1190,#1191);
#1046=AXIS2_PLACEMENT_3D('',#1499,#1195,#1196);
#1047=AXIS2_PLACEMENT_3D('',#1502,#1199,#1200);
#1048=AXIS2_PLACEMENT_3D('',#1503,#1201,#1202);
#1049=AXIS2_PLACEMENT_3D('',#1504,#1203,#1204);
#1050=AXIS2_PLACEMENT_3D('',#1507,#1205,#1206);
#1051=AXIS2_PLACEMENT_3D('',#1511,#1208,#1209);
#1052=AXIS2_PLACEMENT_3D('',#1513,#1211,#1212);
#1053=AXIS2_PLACEMENT_3D('',#1516,#1213,#1214);
#1054=AXIS2_PLACEMENT_3D('',#1562,#1219,#1220);
#1055=AXIS2_PLACEMENT_3D('',#1565,#1221,#1222);
#1056=AXIS2_PLACEMENT_3D('',#1569,#1224,#1225);
#1057=AXIS2_PLACEMENT_3D('',#1573,#1227,#1228);
#1058=AXIS2_PLACEMENT_3D('',#1577,#1230,#1231);
#1059=AXIS2_PLACEMENT_3D('',#1580,#1233,#1234);
#1060=AXIS2_PLACEMENT_3D('',#1582,#1235,#1236);
#1061=AXIS2_PLACEMENT_3D('',#1584,#1237,#1238);
#1062=AXIS2_PLACEMENT_3D('',#1586,#1239,#1240);
#1063=AXIS2_PLACEMENT_3D('',#1588,#1241,#1242);
#1064=AXIS2_PLACEMENT_3D('',#1589,#1243,#1244);
#1065=AXIS2_PLACEMENT_3D('',#1599,#1250,#1251);
#1066=AXIS2_PLACEMENT_3D('',#1600,#1252,#1253);
#1067=AXIS2_PLACEMENT_3D('',#1602,#1254,#1255);
#1068=AXIS2_PLACEMENT_3D('',#1603,#1256,#1257);
#1069=AXIS2_PLACEMENT_3D('',#1604,#1258,#1259);
#1070=AXIS2_PLACEMENT_3D('',#1605,#1260,#1261);
#1071=AXIS2_PLACEMENT_3D('',#1606,#1262,#1263);
#1072=AXIS2_PLACEMENT_3D('',#1609,#1265,#1266);
#1073=AXIS2_PLACEMENT_3D('',#1610,#1267,#1268);
#1074=AXIS2_PLACEMENT_3D('',#1613,#1270,#1271);
#1075=AXIS2_PLACEMENT_3D('',#1614,#1272,#1273);
#1076=AXIS2_PLACEMENT_3D('',#1617,#1275,#1276);
#1077=AXIS2_PLACEMENT_3D('',#1618,#1277,#1278);
#1078=AXIS2_PLACEMENT_3D('',#1621,#1280,#1281);
#1079=AXIS2_PLACEMENT_3D('',#1622,#1282,#1283);
#1080=AXIS2_PLACEMENT_3D('',#1624,#1285,#1286);
#1081=AXIS2_PLACEMENT_3D('',#1628,#1288,#1289);
#1082=AXIS2_PLACEMENT_3D('',#1629,#1290,#1291);
#1083=AXIS2_PLACEMENT_3D('',#1630,#1292,#1293);
#1084=AXIS2_PLACEMENT_3D('',#1632,#1294,#1295);
#1085=AXIS2_PLACEMENT_3D('',#1635,#1297,#1298);
#1086=AXIS2_PLACEMENT_3D('',#1636,#1299,#1300);
#1087=AXIS2_PLACEMENT_3D('',#1641,#1302,#1303);
#1088=AXIS2_PLACEMENT_3D('',#1644,#1305,#1306);
#1089=AXIS2_PLACEMENT_3D('',#1645,#1307,#1308);
#1090=AXIS2_PLACEMENT_3D('',#1650,#1310,#1311);
#1091=AXIS2_PLACEMENT_3D('',#1653,#1313,#1314);
#1092=AXIS2_PLACEMENT_3D('',#1654,#1315,#1316);
#1093=AXIS2_PLACEMENT_3D('',#1660,#1320,#1321);
#1094=AXIS2_PLACEMENT_3D('',#1664,#1323,#1324);
#1095=AXIS2_PLACEMENT_3D('',#1668,#1326,#1327);
#1096=AXIS2_PLACEMENT_3D('',#1672,#1329,#1330);
#1097=AXIS2_PLACEMENT_3D('',#1674,#1332,#1333);
#1098=AXIS2_PLACEMENT_3D('',#1676,#1335,#1336);
#1099=AXIS2_PLACEMENT_3D('',#1678,#1338,#1339);
#1100=AXIS2_PLACEMENT_3D('',#1680,#1341,#1342);
#1101=AXIS2_PLACEMENT_3D('',#1683,#1345,#1346);
#1102=AXIS2_PLACEMENT_3D('',#1687,#1348,#1349);
#1103=AXIS2_PLACEMENT_3D('',#1689,#1351,#1352);
#1104=AXIS2_PLACEMENT_3D('',#1693,#1355,#1356);
#1105=AXIS2_PLACEMENT_3D('',#1696,#1358,#1359);
#1106=AXIS2_PLACEMENT_3D('',#1697,#1360,#1361);
#1107=AXIS2_PLACEMENT_3D('',#1701,#1364,#1365);
#1108=AXIS2_PLACEMENT_3D('',#1704,#1368,#1369);
#1109=AXIS2_PLACEMENT_3D('',#1705,#1370,#1371);
#1110=AXIS2_PLACEMENT_3D('',#1707,#1373,#1374);
#1111=AXIS2_PLACEMENT_3D('',#1709,#1376,#1377);
#1112=AXIS2_PLACEMENT_3D('',#1711,#1379,#1380);
#1113=AXIS2_PLACEMENT_3D('',#1713,#1382,#1383);
#1114=AXIS2_PLACEMENT_3D('',#1717,#1386,#1387);
#1115=AXIS2_PLACEMENT_3D('',#1720,#1389,#1390);
#1116=AXIS2_PLACEMENT_3D('',#1721,#1391,#1392);
#1117=AXIS2_PLACEMENT_3D('',#1723,#1393,#1394);
#1118=AXIS2_PLACEMENT_3D('',#1725,#1396,#1397);
#1119=AXIS2_PLACEMENT_3D('',#1727,#1399,#1400);
#1120=AXIS2_PLACEMENT_3D('',#1728,#1401,#1402);
#1121=AXIS2_PLACEMENT_3D('',#1729,#1403,#1404);
#1122=AXIS2_PLACEMENT_3D('',#1731,#1406,#1407);
#1123=AXIS2_PLACEMENT_3D('',#1733,#1409,#1410);
#1124=AXIS2_PLACEMENT_3D('',#1734,#1411,#1412);
#1125=DIRECTION('axis',(0.,0.,1.));
#1126=DIRECTION('refdir',(1.,0.,0.));
#1127=DIRECTION('center_axis',(0.,0.,1.));
#1128=DIRECTION('ref_axis',(1.,0.,0.));
#1129=DIRECTION('',(-1.,0.,0.));
#1130=DIRECTION('',(0.,1.,0.));
#1131=DIRECTION('',(1.,0.,0.));
#1132=DIRECTION('',(0.,-1.,0.));
#1133=DIRECTION('center_axis',(1.,0.,0.));
#1134=DIRECTION('ref_axis',(0.,0.,-1.));
#1135=DIRECTION('',(0.,0.,-1.));
#1136=DIRECTION('',(0.,0.,1.));
#1137=DIRECTION('',(0.,1.,0.));
#1138=DIRECTION('center_axis',(0.,0.,1.));
#1139=DIRECTION('ref_axis',(1.,0.,0.));
#1140=DIRECTION('',(1.,0.,0.));
#1141=DIRECTION('',(-1.,0.,0.));
#1142=DIRECTION('',(0.,-1.,0.));
#1143=DIRECTION('center_axis',(-1.,0.,0.));
#1144=DIRECTION('ref_axis',(0.,0.,1.));
#1145=DIRECTION('',(0.,0.,1.));
#1146=DIRECTION('',(0.,0.,-1.));
#1147=DIRECTION('center_axis',(0.,-1.,0.));
#1148=DIRECTION('ref_axis',(0.,0.,-1.));
#1149=DIRECTION('',(0.,0.,-1.));
#1150=DIRECTION('',(1.,0.,0.));
#1151=DIRECTION('',(0.,0.,-1.));
#1152=DIRECTION('',(-1.,0.,0.));
#1153=DIRECTION('',(0.,0.,-1.));
#1154=DIRECTION('center_axis',(0.,-1.,0.));
#1155=DIRECTION('ref_axis',(1.,0.,0.));
#1156=DIRECTION('',(1.,0.,0.));
#1157=DIRECTION('center_axis',(0.,-1.,0.));
#1158=DIRECTION('ref_axis',(1.,0.,0.));
#1159=DIRECTION('',(0.,0.,-1.));
#1160=DIRECTION('center_axis',(0.,-1.,0.));
#1161=DIRECTION('ref_axis',(1.,0.,0.));
#1162=DIRECTION('',(-1.,0.,0.));
#1163=DIRECTION('center_axis',(0.,-1.,0.));
#1164=DIRECTION('ref_axis',(1.,0.,0.));
#1165=DIRECTION('center_axis',(0.,0.,1.));
#1166=DIRECTION('ref_axis',(1.,0.,0.));
#1167=DIRECTION('',(-1.,0.,0.));
#1168=DIRECTION('',(0.,1.,0.));
#1169=DIRECTION('',(1.,0.,0.));
#1170=DIRECTION('',(0.,-1.,0.));
#1171=DIRECTION('center_axis',(1.,0.,0.));
#1172=DIRECTION('ref_axis',(0.,0.,-1.));
#1173=DIRECTION('',(0.,0.,-1.));
#1174=DIRECTION('',(0.,0.,1.));
#1175=DIRECTION('',(0.,1.,0.));
#1176=DIRECTION('center_axis',(0.,0.,1.));
#1177=DIRECTION('ref_axis',(1.,0.,0.));
#1178=DIRECTION('',(1.,0.,0.));
#1179=DIRECTION('',(-1.,0.,0.));
#1180=DIRECTION('',(0.,-1.,0.));
#1181=DIRECTION('center_axis',(-1.,0.,0.));
#1182=DIRECTION('ref_axis',(0.,0.,1.));
#1183=DIRECTION('',(0.,0.,1.));
#1184=DIRECTION('',(0.,0.,-1.));
#1185=DIRECTION('center_axis',(0.,0.,1.));
#1186=DIRECTION('ref_axis',(1.,0.,0.));
#1187=DIRECTION('',(0.,1.,0.));
#1188=DIRECTION('',(0.,-1.,0.));
#1189=DIRECTION('',(1.,0.,0.));
#1190=DIRECTION('center_axis',(0.,0.,1.));
#1191=DIRECTION('ref_axis',(1.,0.,0.));
#1192=DIRECTION('',(0.,-1.,0.));
#1193=DIRECTION('',(-1.,0.,0.));
#1194=DIRECTION('',(0.,1.,0.));
#1195=DIRECTION('center_axis',(0.,1.,0.));
#1196=DIRECTION('ref_axis',(0.,0.,1.));
#1197=DIRECTION('',(0.,0.,-1.));
#1198=DIRECTION('',(0.,0.,-1.));
#1199=DIRECTION('center_axis',(1.,0.,0.));
#1200=DIRECTION('ref_axis',(0.,0.,-1.));
#1201=DIRECTION('center_axis',(-1.,0.,0.));
#1202=DIRECTION('ref_axis',(0.,0.,1.));
#1203=DIRECTION('center_axis',(1.,0.,0.));
#1204=DIRECTION('ref_axis',(0.,-1.,1.83697019872103E-16));
#1205=DIRECTION('center_axis',(1.,0.,0.));
#1206=DIRECTION('ref_axis',(0.,0.,-1.));
#1207=DIRECTION('',(-1.,0.,0.));
#1208=DIRECTION('center_axis',(-1.,0.,0.));
#1209=DIRECTION('ref_axis',(0.,0.,-1.));
#1210=DIRECTION('',(1.,0.,0.));
#1211=DIRECTION('center_axis',(1.,0.,0.));
#1212=DIRECTION('ref_axis',(0.,-1.,6.40094595777298E-15));
#1213=DIRECTION('center_axis',(-1.,0.,0.));
#1214=DIRECTION('ref_axis',(0.,0.,-1.));
#1215=DIRECTION('',(1.,0.,0.));
#1216=DIRECTION('',(-1.,0.,0.));
#1217=DIRECTION('',(1.,0.,0.));
#1218=DIRECTION('',(-1.,0.,0.));
#1219=DIRECTION('center_axis',(0.,1.,0.));
#1220=DIRECTION('ref_axis',(0.,0.,1.));
#1221=DIRECTION('center_axis',(0.,1.,0.));
#1222=DIRECTION('ref_axis',(1.,0.,0.));
#1223=DIRECTION('',(0.,0.,-1.));
#1224=DIRECTION('center_axis',(0.,1.,0.));
#1225=DIRECTION('ref_axis',(1.,0.,0.));
#1226=DIRECTION('',(1.,0.,0.));
#1227=DIRECTION('center_axis',(0.,1.,0.));
#1228=DIRECTION('ref_axis',(1.,0.,0.));
#1229=DIRECTION('',(0.,0.,1.));
#1230=DIRECTION('center_axis',(0.,1.,0.));
#1231=DIRECTION('ref_axis',(1.,0.,0.));
#1232=DIRECTION('',(-1.,0.,0.));
#1233=DIRECTION('center_axis',(0.,1.,0.));
#1234=DIRECTION('ref_axis',(1.,0.,0.));
#1235=DIRECTION('center_axis',(0.,1.,0.));
#1236=DIRECTION('ref_axis',(1.,0.,0.));
#1237=DIRECTION('center_axis',(0.,1.,0.));
#1238=DIRECTION('ref_axis',(1.,0.,0.));
#1239=DIRECTION('center_axis',(0.,1.,0.));
#1240=DIRECTION('ref_axis',(1.,0.,0.));
#1241=DIRECTION('center_axis',(0.,1.,0.));
#1242=DIRECTION('ref_axis',(1.,0.,0.));
#1243=DIRECTION('center_axis',(-1.,0.,0.));
#1244=DIRECTION('ref_axis',(0.,0.,1.));
#1245=DIRECTION('',(0.,0.,-1.));
#1246=DIRECTION('',(0.,1.,0.));
#1247=DIRECTION('',(0.,0.,-1.));
#1248=DIRECTION('',(0.,-1.,0.));
#1249=DIRECTION('',(0.,0.,-1.));
#1250=DIRECTION('center_axis',(0.,-1.,0.));
#1251=DIRECTION('ref_axis',(-1.,0.,0.));
#1252=DIRECTION('center_axis',(0.,1.,0.));
#1253=DIRECTION('ref_axis',(1.,0.,0.));
#1254=DIRECTION('center_axis',(0.,1.,0.));
#1255=DIRECTION('ref_axis',(1.,0.,0.));
#1256=DIRECTION('center_axis',(0.,1.,0.));
#1257=DIRECTION('ref_axis',(1.,0.,0.));
#1258=DIRECTION('center_axis',(0.,1.,0.));
#1259=DIRECTION('ref_axis',(-1.,0.,7.6571373978539E-16));
#1260=DIRECTION('center_axis',(0.,-1.,0.));
#1261=DIRECTION('ref_axis',(1.,0.,0.));
#1262=DIRECTION('center_axis',(0.,1.,0.));
#1263=DIRECTION('ref_axis',(1.,0.,0.));
#1264=DIRECTION('',(0.,1.,0.));
#1265=DIRECTION('center_axis',(0.,-1.,0.));
#1266=DIRECTION('ref_axis',(1.,0.,0.));
#1267=DIRECTION('center_axis',(0.,1.,0.));
#1268=DIRECTION('ref_axis',(1.,0.,0.));
#1269=DIRECTION('',(0.,1.,0.));
#1270=DIRECTION('center_axis',(0.,-1.,0.));
#1271=DIRECTION('ref_axis',(1.,0.,0.));
#1272=DIRECTION('center_axis',(0.,1.,0.));
#1273=DIRECTION('ref_axis',(1.,0.,0.));
#1274=DIRECTION('',(0.,1.,0.));
#1275=DIRECTION('center_axis',(0.,-1.,0.));
#1276=DIRECTION('ref_axis',(1.,0.,0.));
#1277=DIRECTION('center_axis',(0.,1.,0.));
#1278=DIRECTION('ref_axis',(1.,0.,0.));
#1279=DIRECTION('',(0.,1.,0.));
#1280=DIRECTION('center_axis',(0.,-1.,0.));
#1281=DIRECTION('ref_axis',(1.,0.,0.));
#1282=DIRECTION('center_axis',(0.,1.,0.));
#1283=DIRECTION('ref_axis',(1.,0.,0.));
#1284=DIRECTION('',(0.,1.,0.));
#1285=DIRECTION('center_axis',(0.,1.,0.));
#1286=DIRECTION('ref_axis',(1.,0.,0.));
#1287=DIRECTION('',(0.,1.,0.));
#1288=DIRECTION('center_axis',(0.,-1.,0.));
#1289=DIRECTION('ref_axis',(1.,0.,0.));
#1290=DIRECTION('center_axis',(0.,1.,0.));
#1291=DIRECTION('ref_axis',(1.,0.,0.));
#1292=DIRECTION('center_axis',(0.,1.,0.));
#1293=DIRECTION('ref_axis',(1.,0.,0.));
#1294=DIRECTION('center_axis',(0.,-1.,0.));
#1295=DIRECTION('ref_axis',(1.,0.,0.));
#1296=DIRECTION('',(0.,-1.,0.));
#1297=DIRECTION('center_axis',(0.,1.,0.));
#1298=DIRECTION('ref_axis',(1.,0.,0.));
#1299=DIRECTION('center_axis',(0.,1.,0.));
#1300=DIRECTION('ref_axis',(1.,0.,0.));
#1301=DIRECTION('',(0.,-1.,0.));
#1302=DIRECTION('center_axis',(0.,-1.,0.));
#1303=DIRECTION('ref_axis',(1.,0.,0.));
#1304=DIRECTION('',(0.,-1.,0.));
#1305=DIRECTION('center_axis',(0.,1.,0.));
#1306=DIRECTION('ref_axis',(1.,0.,0.));
#1307=DIRECTION('center_axis',(0.,1.,0.));
#1308=DIRECTION('ref_axis',(1.,0.,0.));
#1309=DIRECTION('',(0.,1.,0.));
#1310=DIRECTION('center_axis',(0.,1.,0.));
#1311=DIRECTION('ref_axis',(1.,0.,0.));
#1312=DIRECTION('',(0.,1.,0.));
#1313=DIRECTION('center_axis',(0.,-1.,0.));
#1314=DIRECTION('ref_axis',(1.,0.,0.));
#1315=DIRECTION('center_axis',(0.,1.,0.));
#1316=DIRECTION('ref_axis',(0.,0.,1.));
#1317=DIRECTION('',(1.,0.,0.));
#1318=DIRECTION('',(0.,0.,-1.));
#1319=DIRECTION('',(-1.,0.,0.));
#1320=DIRECTION('center_axis',(0.,-1.,0.));
#1321=DIRECTION('ref_axis',(1.,0.,0.));
#1322=DIRECTION('',(0.,0.,-1.));
#1323=DIRECTION('center_axis',(0.,-1.,0.));
#1324=DIRECTION('ref_axis',(1.,0.,0.));
#1325=DIRECTION('',(-1.,0.,0.));
#1326=DIRECTION('center_axis',(0.,-1.,0.));
#1327=DIRECTION('ref_axis',(1.,0.,0.));
#1328=DIRECTION('',(0.,0.,1.));
#1329=DIRECTION('center_axis',(0.,-1.,0.));
#1330=DIRECTION('ref_axis',(1.,0.,0.));
#1331=DIRECTION('',(1.,0.,0.));
#1332=DIRECTION('center_axis',(1.,0.,0.));
#1333=DIRECTION('ref_axis',(0.,0.,-1.));
#1334=DIRECTION('',(0.,0.,-1.));
#1335=DIRECTION('center_axis',(0.,0.,1.));
#1336=DIRECTION('ref_axis',(1.,0.,0.));
#1337=DIRECTION('',(-1.,0.,0.));
#1338=DIRECTION('center_axis',(0.,0.,1.));
#1339=DIRECTION('ref_axis',(1.,0.,0.));
#1340=DIRECTION('',(1.,0.,0.));
#1341=DIRECTION('center_axis',(0.,-1.,0.));
#1342=DIRECTION('ref_axis',(0.,0.,-1.));
#1343=DIRECTION('',(0.,0.,-1.));
#1344=DIRECTION('',(0.,0.,1.));
#1345=DIRECTION('center_axis',(0.,1.,0.));
#1346=DIRECTION('ref_axis',(1.,0.,0.));
#1347=DIRECTION('',(0.,-1.,0.));
#1348=DIRECTION('center_axis',(0.,-1.,0.));
#1349=DIRECTION('ref_axis',(1.,0.,0.));
#1350=DIRECTION('',(0.,-1.,0.));
#1351=DIRECTION('center_axis',(0.,0.,1.));
#1352=DIRECTION('ref_axis',(1.,0.,0.));
#1353=DIRECTION('',(0.,1.,0.));
#1354=DIRECTION('',(1.,0.,0.));
#1355=DIRECTION('center_axis',(0.,1.,0.));
#1356=DIRECTION('ref_axis',(1.,0.,0.));
#1357=DIRECTION('',(0.,1.,0.));
#1358=DIRECTION('center_axis',(0.,-1.,0.));
#1359=DIRECTION('ref_axis',(1.,0.,0.));
#1360=DIRECTION('center_axis',(-1.,0.,0.));
#1361=DIRECTION('ref_axis',(0.,0.,1.));
#1362=DIRECTION('',(0.,-1.,0.));
#1363=DIRECTION('',(0.,0.,-1.));
#1364=DIRECTION('center_axis',(-1.,0.,0.));
#1365=DIRECTION('ref_axis',(0.,0.,1.));
#1366=DIRECTION('',(0.,1.,0.));
#1367=DIRECTION('',(0.,-1.,0.));
#1368=DIRECTION('center_axis',(-1.,0.,0.));
#1369=DIRECTION('ref_axis',(0.,0.,1.));
#1370=DIRECTION('center_axis',(0.,1.,0.));
#1371=DIRECTION('ref_axis',(1.,0.,0.));
#1372=DIRECTION('',(0.,1.,0.));
#1373=DIRECTION('center_axis',(0.,0.,1.));
#1374=DIRECTION('ref_axis',(1.,0.,0.));
#1375=DIRECTION('',(0.,-1.,0.));
#1376=DIRECTION('center_axis',(0.,1.,0.));
#1377=DIRECTION('ref_axis',(1.,0.,0.));
#1378=DIRECTION('',(0.,-1.,0.));
#1379=DIRECTION('center_axis',(1.,0.,0.));
#1380=DIRECTION('ref_axis',(0.,0.,-1.));
#1381=DIRECTION('',(0.,1.,0.));
#1382=DIRECTION('center_axis',(1.,0.,0.));
#1383=DIRECTION('ref_axis',(0.,0.,-1.));
#1384=DIRECTION('',(0.,0.,-1.));
#1385=DIRECTION('',(0.,1.,0.));
#1386=DIRECTION('center_axis',(0.,1.,0.));
#1387=DIRECTION('ref_axis',(1.,0.,0.));
#1388=DIRECTION('',(0.,-1.,0.));
#1389=DIRECTION('center_axis',(0.,-1.,0.));
#1390=DIRECTION('ref_axis',(1.,0.,0.));
#1391=DIRECTION('center_axis',(0.,1.,0.));
#1392=DIRECTION('ref_axis',(1.,0.,0.));
#1393=DIRECTION('center_axis',(0.,-1.,0.));
#1394=DIRECTION('ref_axis',(1.,0.,0.));
#1395=DIRECTION('',(0.,1.,0.));
#1396=DIRECTION('center_axis',(0.,1.,0.));
#1397=DIRECTION('ref_axis',(0.,0.,1.));
#1398=DIRECTION('',(-1.,0.,0.));
#1399=DIRECTION('center_axis',(-1.,0.,0.));
#1400=DIRECTION('ref_axis',(0.,0.,1.));
#1401=DIRECTION('center_axis',(0.,0.,1.));
#1402=DIRECTION('ref_axis',(1.,0.,0.));
#1403=DIRECTION('center_axis',(0.,1.,0.));
#1404=DIRECTION('ref_axis',(1.,0.,0.));
#1405=DIRECTION('',(0.,-1.,0.));
#1406=DIRECTION('center_axis',(0.,1.,0.));
#1407=DIRECTION('ref_axis',(1.,0.,0.));
#1408=DIRECTION('',(0.,1.,0.));
#1409=DIRECTION('center_axis',(0.,1.,0.));
#1410=DIRECTION('ref_axis',(0.,0.,1.));
#1411=DIRECTION('center_axis',(0.,0.,1.));
#1412=DIRECTION('ref_axis',(1.,0.,0.));
#1413=CARTESIAN_POINT('',(0.,0.,0.));
#1414=CARTESIAN_POINT('Origin',(270.,-158.2,268.9));
#1415=CARTESIAN_POINT('',(298.9,-178.,268.9));
#1416=CARTESIAN_POINT('',(241.1,-178.,268.9));
#1417=CARTESIAN_POINT('',(270.,-178.,268.9));
#1418=CARTESIAN_POINT('',(298.9,-181.,268.9));
#1419=CARTESIAN_POINT('',(298.9,-158.2,268.9));
#1420=CARTESIAN_POINT('',(241.1,-181.,268.9));
#1421=CARTESIAN_POINT('',(270.,-181.,268.9));
#1422=CARTESIAN_POINT('',(241.1,-158.2,268.9));
#1423=CARTESIAN_POINT('Origin',(241.1,-158.2,240.));
#1424=CARTESIAN_POINT('',(241.1,-178.,211.1));
#1425=CARTESIAN_POINT('',(241.1,-178.,240.));
#1426=CARTESIAN_POINT('',(241.1,-181.,211.1));
#1427=CARTESIAN_POINT('',(241.1,-181.,240.));
#1428=CARTESIAN_POINT('',(241.1,-158.2,211.1));
#1429=CARTESIAN_POINT('Origin',(270.,-158.2,211.1));
#1430=CARTESIAN_POINT('',(298.9,-178.,211.1));
#1431=CARTESIAN_POINT('',(270.,-178.,211.1));
#1432=CARTESIAN_POINT('',(298.9,-181.,211.1));
#1433=CARTESIAN_POINT('',(270.,-181.,211.1));
#1434=CARTESIAN_POINT('',(298.9,-158.2,211.1));
#1435=CARTESIAN_POINT('Origin',(298.9,-158.2,240.));
#1436=CARTESIAN_POINT('',(298.9,-178.,240.));
#1437=CARTESIAN_POINT('',(298.9,-181.,240.));
#1438=CARTESIAN_POINT('Origin',(270.,-181.,240.));
#1439=CARTESIAN_POINT('',(304.,-181.,274.));
#1440=CARTESIAN_POINT('',(304.,-181.,206.));
#1441=CARTESIAN_POINT('',(304.,-181.,240.));
#1442=CARTESIAN_POINT('',(236.,-181.,206.));
#1443=CARTESIAN_POINT('',(270.,-181.,206.));
#1444=CARTESIAN_POINT('',(236.,-181.,274.));
#1445=CARTESIAN_POINT('',(236.,-181.,240.));
#1446=CARTESIAN_POINT('',(270.,-181.,274.));
#1447=CARTESIAN_POINT('',(303.5,-181.,265.5));
#1448=CARTESIAN_POINT('',(303.5,-181.,214.5));
#1449=CARTESIAN_POINT('',(303.5,-181.,240.));
#1450=CARTESIAN_POINT('',(295.5,-181.,273.5));
#1451=CARTESIAN_POINT('Origin',(295.5,-181.,265.5));
#1452=CARTESIAN_POINT('',(244.5,-181.,273.5));
#1453=CARTESIAN_POINT('',(270.,-181.,273.5));
#1454=CARTESIAN_POINT('',(236.5,-181.,265.5));
#1455=CARTESIAN_POINT('Origin',(244.5,-181.,265.5));
#1456=CARTESIAN_POINT('',(236.5,-181.,214.5));
#1457=CARTESIAN_POINT('',(236.5,-181.,240.));
#1458=CARTESIAN_POINT('',(244.5,-181.,206.5));
#1459=CARTESIAN_POINT('Origin',(244.5,-181.,214.5));
#1460=CARTESIAN_POINT('',(295.5,-181.,206.5));
#1461=CARTESIAN_POINT('',(270.,-181.,206.5));
#1462=CARTESIAN_POINT('Origin',(295.5,-181.,214.5));
#1463=CARTESIAN_POINT('Origin',(270.,-186.5,270.));
#1464=CARTESIAN_POINT('',(300.,-181.,270.));
#1465=CARTESIAN_POINT('',(240.,-181.,270.));
#1466=CARTESIAN_POINT('',(270.,-181.,270.));
#1467=CARTESIAN_POINT('',(300.,-193.,270.));
#1468=CARTESIAN_POINT('',(300.,-186.5,270.));
#1469=CARTESIAN_POINT('',(240.,-193.,270.));
#1470=CARTESIAN_POINT('',(270.,-193.,270.));
#1471=CARTESIAN_POINT('',(240.,-186.5,270.));
#1472=CARTESIAN_POINT('Origin',(240.,-186.5,240.));
#1473=CARTESIAN_POINT('',(240.,-181.,210.));
#1474=CARTESIAN_POINT('',(240.,-181.,240.));
#1475=CARTESIAN_POINT('',(240.,-193.,210.));
#1476=CARTESIAN_POINT('',(240.,-193.,240.));
#1477=CARTESIAN_POINT('',(240.,-186.5,210.));
#1478=CARTESIAN_POINT('Origin',(270.,-186.5,210.));
#1479=CARTESIAN_POINT('',(300.,-181.,210.));
#1480=CARTESIAN_POINT('',(270.,-181.,210.));
#1481=CARTESIAN_POINT('',(300.,-193.,210.));
#1482=CARTESIAN_POINT('',(270.,-193.,210.));
#1483=CARTESIAN_POINT('',(300.,-186.5,210.));
#1484=CARTESIAN_POINT('Origin',(300.,-186.5,240.));
#1485=CARTESIAN_POINT('',(300.,-181.,240.));
#1486=CARTESIAN_POINT('',(300.,-193.,240.));
#1487=CARTESIAN_POINT('Origin',(270.,-187.,274.));
#1488=CARTESIAN_POINT('',(304.,-193.,274.));
#1489=CARTESIAN_POINT('',(304.,-187.,274.));
#1490=CARTESIAN_POINT('',(236.,-193.,274.));
#1491=CARTESIAN_POINT('',(236.,-187.,274.));
#1492=CARTESIAN_POINT('',(270.,-193.,274.));
#1493=CARTESIAN_POINT('Origin',(270.,-187.,206.));
#1494=CARTESIAN_POINT('',(304.,-193.,206.));
#1495=CARTESIAN_POINT('',(304.,-187.,206.));
#1496=CARTESIAN_POINT('',(236.,-193.,206.));
#1497=CARTESIAN_POINT('',(270.,-193.,206.));
#1498=CARTESIAN_POINT('',(236.,-187.,206.));
#1499=CARTESIAN_POINT('Origin',(270.,-193.,240.));
#1500=CARTESIAN_POINT('',(236.,-193.,240.));
#1501=CARTESIAN_POINT('',(304.,-193.,240.));
#1502=CARTESIAN_POINT('Origin',(236.,-187.,240.));
#1503=CARTESIAN_POINT('Origin',(304.,-187.,240.));
#1504=CARTESIAN_POINT('Origin',(298.,-62.,240.));
#1505=CARTESIAN_POINT('',(303.5,-60.,242.2360679775));
#1506=CARTESIAN_POINT('',(303.5,-60.,237.7639320225));
#1507=CARTESIAN_POINT('Origin',(303.5,-62.,240.));
#1508=CARTESIAN_POINT('',(304.,-60.,242.2360679775));
#1509=CARTESIAN_POINT('',(298.,-60.,242.2360679775));
#1510=CARTESIAN_POINT('',(304.,-60.,237.7639320225));
#1511=CARTESIAN_POINT('Origin',(304.,-62.,240.));
#1512=CARTESIAN_POINT('',(298.,-60.,237.7639320225));
#1513=CARTESIAN_POINT('Origin',(298.,-62.,240.));
#1514=CARTESIAN_POINT('',(300.5,-60.,237.7639320225));
#1515=CARTESIAN_POINT('',(300.5,-60.,242.2360679775));
#1516=CARTESIAN_POINT('Origin',(300.5,-62.,240.));
#1517=CARTESIAN_POINT('',(291.383404780343,-60.,237.7639320225));
#1518=CARTESIAN_POINT('',(298.,-60.,237.7639320225));
#1519=CARTESIAN_POINT('',(291.313141485947,-63.,237.171572875254));
#1520=CARTESIAN_POINT('Ctrl Pts',(291.313141485947,-63.,237.171572875254));
#1521=CARTESIAN_POINT('Ctrl Pts',(291.297806952644,-62.6731729220967,237.056022053723));
#1522=CARTESIAN_POINT('Ctrl Pts',(291.289668856044,-62.3271243284238,237.));
#1523=CARTESIAN_POINT('Ctrl Pts',(291.289668856044,-62.,237.));
#1524=CARTESIAN_POINT('Ctrl Pts',(291.289668856044,-61.6227817867826,237.));
#1525=CARTESIAN_POINT('Ctrl Pts',(291.300729642217,-61.2207611913601,237.075488068575));
#1526=CARTESIAN_POINT('Ctrl Pts',(291.337627546498,-60.5359313304735,237.359351667458));
#1527=CARTESIAN_POINT('Ctrl Pts',(291.360612695097,-60.2436861923035,237.545972466033));
#1528=CARTESIAN_POINT('Ctrl Pts',(291.383404780343,-60.,237.7639320225));
#1529=CARTESIAN_POINT('',(295.84569596664,-63.,237.171572875254));
#1530=CARTESIAN_POINT('',(298.,-63.,237.171572875254));
#1531=CARTESIAN_POINT('',(295.84569596664,-63.,242.828427124746));
#1532=CARTESIAN_POINT('Ctrl Pts',(295.84569596664,-63.,242.828427124746));
#1533=CARTESIAN_POINT('Ctrl Pts',(295.847629486727,-63.049973172312,242.810758940237));
#1534=CARTESIAN_POINT('Ctrl Pts',(295.849691351323,-63.0995176592308,242.791751082648));
#1535=CARTESIAN_POINT('Ctrl Pts',(295.868284753918,-63.5180351932697,242.61831298353));
#1536=CARTESIAN_POINT('Ctrl Pts',(295.891527948351,-63.8551523252095,242.38748836191));
#1537=CARTESIAN_POINT('Ctrl Pts',(295.93510599918,-64.3874867510415,241.855153936078));
#1538=CARTESIAN_POINT('Ctrl Pts',(295.958281497947,-64.6183126333016,241.51803610169));
#1539=CARTESIAN_POINT('Ctrl Pts',(295.990959519382,-64.9245785145079,240.778996271512));
#1540=CARTESIAN_POINT('Ctrl Pts',(296.,-65.,240.377046246101));
#1541=CARTESIAN_POINT('Ctrl Pts',(296.,-65.,239.622953753899));
#1542=CARTESIAN_POINT('Ctrl Pts',(295.990959519382,-64.9245785145079,239.221003728488));
#1543=CARTESIAN_POINT('Ctrl Pts',(295.958281497947,-64.6183126333016,238.48196389831));
#1544=CARTESIAN_POINT('Ctrl Pts',(295.93510599918,-64.3874867510415,238.144846063922));
#1545=CARTESIAN_POINT('Ctrl Pts',(295.891527948351,-63.8551523252095,237.61251163809));
#1546=CARTESIAN_POINT('Ctrl Pts',(295.868284753918,-63.5180351932697,237.38168701647));
#1547=CARTESIAN_POINT('Ctrl Pts',(295.849691351323,-63.0995176592308,237.208248917352));
#1548=CARTESIAN_POINT('Ctrl Pts',(295.847629486727,-63.049973172312,237.189241059763));
#1549=CARTESIAN_POINT('Ctrl Pts',(295.84569596664,-63.,237.171572875254));
#1550=CARTESIAN_POINT('',(291.313141485947,-63.,242.828427124746));
#1551=CARTESIAN_POINT('',(298.,-63.,242.828427124746));
#1552=CARTESIAN_POINT('',(291.383404780343,-60.,242.2360679775));
#1553=CARTESIAN_POINT('Ctrl Pts',(291.383404780343,-60.,242.2360679775));
#1554=CARTESIAN_POINT('Ctrl Pts',(291.360612695097,-60.2436861923034,242.454027533967));
#1555=CARTESIAN_POINT('Ctrl Pts',(291.337627546498,-60.5359313304735,242.640648332542));
#1556=CARTESIAN_POINT('Ctrl Pts',(291.300729642217,-61.2207611913601,242.924511931425));
#1557=CARTESIAN_POINT('Ctrl Pts',(291.289668856044,-61.6227817867826,243.));
#1558=CARTESIAN_POINT('Ctrl Pts',(291.289668856044,-62.3271243285301,243.));
#1559=CARTESIAN_POINT('Ctrl Pts',(291.297806952617,-62.6731729215149,242.943977946482));
#1560=CARTESIAN_POINT('Ctrl Pts',(291.313141485947,-63.,242.828427124746));
#1561=CARTESIAN_POINT('',(298.,-60.,242.2360679775));
#1562=CARTESIAN_POINT('Origin',(270.,-66.,240.));
#1563=CARTESIAN_POINT('',(300.5,-66.,214.5));
#1564=CARTESIAN_POINT('',(295.5,-66.,209.5));
#1565=CARTESIAN_POINT('Origin',(295.5,-66.,214.5));
#1566=CARTESIAN_POINT('',(300.5,-66.,265.5));
#1567=CARTESIAN_POINT('',(300.5,-66.,240.));
#1568=CARTESIAN_POINT('',(295.5,-66.,270.5));
#1569=CARTESIAN_POINT('Origin',(295.5,-66.,265.5));
#1570=CARTESIAN_POINT('',(244.5,-66.,270.5));
#1571=CARTESIAN_POINT('',(270.,-66.,270.5));
#1572=CARTESIAN_POINT('',(239.5,-66.,265.5));
#1573=CARTESIAN_POINT('Origin',(244.5,-66.,265.5));
#1574=CARTESIAN_POINT('',(239.5,-66.,214.5));
#1575=CARTESIAN_POINT('',(239.5,-66.,240.));
#1576=CARTESIAN_POINT('',(244.5,-66.,209.5));
#1577=CARTESIAN_POINT('Origin',(244.5,-66.,214.5));
#1578=CARTESIAN_POINT('',(270.,-66.,209.5));
#1579=CARTESIAN_POINT('',(244.,-66.,240.));
#1580=CARTESIAN_POINT('Origin',(270.,-66.,240.));
#1581=CARTESIAN_POINT('',(244.23,-66.,216.43));
#1582=CARTESIAN_POINT('Origin',(246.43,-66.,216.43));
#1583=CARTESIAN_POINT('',(244.23,-66.,263.57));
#1584=CARTESIAN_POINT('Origin',(246.43,-66.,263.57));
#1585=CARTESIAN_POINT('',(291.37,-66.,216.43));
#1586=CARTESIAN_POINT('Origin',(293.57,-66.,216.43));
#1587=CARTESIAN_POINT('',(291.37,-66.,263.57));
#1588=CARTESIAN_POINT('Origin',(293.57,-66.,263.57));
#1589=CARTESIAN_POINT('Origin',(304.,-63.,240.));
#1590=CARTESIAN_POINT('',(304.,-60.,266.));
#1591=CARTESIAN_POINT('',(304.,-60.,240.));
#1592=CARTESIAN_POINT('',(304.,-66.,266.));
#1593=CARTESIAN_POINT('',(304.,-63.,266.));
#1594=CARTESIAN_POINT('',(304.,-66.,214.));
#1595=CARTESIAN_POINT('',(304.,-66.,240.));
#1596=CARTESIAN_POINT('',(304.,-60.,214.));
#1597=CARTESIAN_POINT('',(304.,-63.,214.));
#1598=CARTESIAN_POINT('',(304.,-60.,240.));
#1599=CARTESIAN_POINT('Origin',(270.,-63.,240.));
#1600=CARTESIAN_POINT('Origin',(270.,-63.,240.));
#1601=CARTESIAN_POINT('',(244.,-63.,240.));
#1602=CARTESIAN_POINT('Origin',(270.,-63.,240.));
#1603=CARTESIAN_POINT('Origin',(270.,-63.,240.));
#1604=CARTESIAN_POINT('Origin',(270.,-61.5,240.));
#1605=CARTESIAN_POINT('Origin',(270.,-60.,240.));
#1606=CARTESIAN_POINT('Origin',(293.57,-63.,263.57));
#1607=CARTESIAN_POINT('',(291.37,-60.,263.57));
#1608=CARTESIAN_POINT('',(291.37,-63.,263.57));
#1609=CARTESIAN_POINT('Origin',(293.57,-60.,263.57));
#1610=CARTESIAN_POINT('Origin',(293.57,-63.,216.43));
#1611=CARTESIAN_POINT('',(291.37,-60.,216.43));
#1612=CARTESIAN_POINT('',(291.37,-63.,216.43));
#1613=CARTESIAN_POINT('Origin',(293.57,-60.,216.43));
#1614=CARTESIAN_POINT('Origin',(246.43,-63.,263.57));
#1615=CARTESIAN_POINT('',(244.23,-60.,263.57));
#1616=CARTESIAN_POINT('',(244.23,-63.,263.57));
#1617=CARTESIAN_POINT('Origin',(246.43,-60.,263.57));
#1618=CARTESIAN_POINT('Origin',(246.43,-63.,216.43));
#1619=CARTESIAN_POINT('',(244.23,-60.,216.43));
#1620=CARTESIAN_POINT('',(244.23,-63.,216.43));
#1621=CARTESIAN_POINT('Origin',(246.43,-60.,216.43));
#1622=CARTESIAN_POINT('Origin',(270.,-63.,240.));
#1623=CARTESIAN_POINT('',(244.,-63.,240.));
#1624=CARTESIAN_POINT('Origin',(296.,-63.,266.));
#1625=CARTESIAN_POINT('',(296.,-66.,274.));
#1626=CARTESIAN_POINT('',(296.,-60.,274.));
#1627=CARTESIAN_POINT('',(296.,-63.,274.));
#1628=CARTESIAN_POINT('Origin',(296.,-66.,266.));
#1629=CARTESIAN_POINT('Origin',(296.,-60.,266.));
#1630=CARTESIAN_POINT('Origin',(296.,-63.,214.));
#1631=CARTESIAN_POINT('',(296.,-66.,206.));
#1632=CARTESIAN_POINT('Origin',(296.,-66.,214.));
#1633=CARTESIAN_POINT('',(296.,-60.,206.));
#1634=CARTESIAN_POINT('',(296.,-63.,206.));
#1635=CARTESIAN_POINT('Origin',(296.,-60.,214.));
#1636=CARTESIAN_POINT('Origin',(244.,-63.,266.));
#1637=CARTESIAN_POINT('',(236.,-60.,266.));
#1638=CARTESIAN_POINT('',(236.,-66.,266.));
#1639=CARTESIAN_POINT('',(236.,-63.,266.));
#1640=CARTESIAN_POINT('',(244.,-66.,274.));
#1641=CARTESIAN_POINT('Origin',(244.,-66.,266.));
#1642=CARTESIAN_POINT('',(244.,-60.,274.));
#1643=CARTESIAN_POINT('',(244.,-63.,274.));
#1644=CARTESIAN_POINT('Origin',(244.,-60.,266.));
#1645=CARTESIAN_POINT('Origin',(244.,-63.,214.));
#1646=CARTESIAN_POINT('',(236.,-66.,214.));
#1647=CARTESIAN_POINT('',(236.,-60.,214.));
#1648=CARTESIAN_POINT('',(236.,-63.,214.));
#1649=CARTESIAN_POINT('',(244.,-60.,206.));
#1650=CARTESIAN_POINT('Origin',(244.,-60.,214.));
#1651=CARTESIAN_POINT('',(244.,-66.,206.));
#1652=CARTESIAN_POINT('',(244.,-63.,206.));
#1653=CARTESIAN_POINT('Origin',(244.,-66.,214.));
#1654=CARTESIAN_POINT('Origin',(270.,-66.,240.));
#1655=CARTESIAN_POINT('',(270.,-66.,274.));
#1656=CARTESIAN_POINT('',(236.,-66.,240.));
#1657=CARTESIAN_POINT('',(270.,-66.,206.));
#1658=CARTESIAN_POINT('',(236.5,-66.,214.5));
#1659=CARTESIAN_POINT('',(244.5,-66.,206.5));
#1660=CARTESIAN_POINT('Origin',(244.5,-66.,214.5));
#1661=CARTESIAN_POINT('',(236.5,-66.,265.5));
#1662=CARTESIAN_POINT('',(236.5,-66.,240.));
#1663=CARTESIAN_POINT('',(244.5,-66.,273.5));
#1664=CARTESIAN_POINT('Origin',(244.5,-66.,265.5));
#1665=CARTESIAN_POINT('',(295.5,-66.,273.5));
#1666=CARTESIAN_POINT('',(270.,-66.,273.5));
#1667=CARTESIAN_POINT('',(303.5,-66.,265.5));
#1668=CARTESIAN_POINT('Origin',(295.5,-66.,265.5));
#1669=CARTESIAN_POINT('',(303.5,-66.,214.5));
#1670=CARTESIAN_POINT('',(303.5,-66.,240.));
#1671=CARTESIAN_POINT('',(295.5,-66.,206.5));
#1672=CARTESIAN_POINT('Origin',(295.5,-66.,214.5));
#1673=CARTESIAN_POINT('',(270.,-66.,206.5));
#1674=CARTESIAN_POINT('Origin',(236.,-63.,240.));
#1675=CARTESIAN_POINT('',(236.,-60.,240.));
#1676=CARTESIAN_POINT('Origin',(270.,-63.,274.));
#1677=CARTESIAN_POINT('',(270.,-60.,274.));
#1678=CARTESIAN_POINT('Origin',(270.,-63.,206.));
#1679=CARTESIAN_POINT('',(270.,-60.,206.));
#1680=CARTESIAN_POINT('Origin',(270.,-60.,240.));
#1681=CARTESIAN_POINT('',(303.5,-60.,240.));
#1682=CARTESIAN_POINT('',(300.5,-60.,240.));
#1683=CARTESIAN_POINT('Origin',(244.5,-118.,265.5));
#1684=CARTESIAN_POINT('',(244.5,-178.,270.5));
#1685=CARTESIAN_POINT('',(244.5,-118.,270.5));
#1686=CARTESIAN_POINT('',(239.5,-178.,265.5));
#1687=CARTESIAN_POINT('Origin',(244.5,-178.,265.5));
#1688=CARTESIAN_POINT('',(239.5,-118.,265.5));
#1689=CARTESIAN_POINT('Origin',(270.,-118.,270.5));
#1690=CARTESIAN_POINT('',(295.5,-178.,270.5));
#1691=CARTESIAN_POINT('',(295.5,-118.,270.5));
#1692=CARTESIAN_POINT('',(270.,-178.,270.5));
#1693=CARTESIAN_POINT('Origin',(295.5,-118.,265.5));
#1694=CARTESIAN_POINT('',(300.5,-178.,265.5));
#1695=CARTESIAN_POINT('',(300.5,-118.,265.5));
#1696=CARTESIAN_POINT('Origin',(295.5,-178.,265.5));
#1697=CARTESIAN_POINT('Origin',(300.5,-118.,240.));
#1698=CARTESIAN_POINT('',(300.5,-178.,214.5));
#1699=CARTESIAN_POINT('',(300.5,-118.,214.5));
#1700=CARTESIAN_POINT('',(300.5,-178.,240.));
#1701=CARTESIAN_POINT('Origin',(303.5,-120.5,240.));
#1702=CARTESIAN_POINT('',(303.5,-120.5,265.5));
#1703=CARTESIAN_POINT('',(303.5,-120.5,214.5));
#1704=CARTESIAN_POINT('Origin',(303.5,-120.5,240.));
#1705=CARTESIAN_POINT('Origin',(295.5,-120.5,265.5));
#1706=CARTESIAN_POINT('',(295.5,-120.5,273.5));
#1707=CARTESIAN_POINT('Origin',(270.,-120.5,273.5));
#1708=CARTESIAN_POINT('',(244.5,-120.5,273.5));
#1709=CARTESIAN_POINT('Origin',(244.5,-120.5,265.5));
#1710=CARTESIAN_POINT('',(236.5,-120.5,265.5));
#1711=CARTESIAN_POINT('Origin',(236.5,-120.5,240.));
#1712=CARTESIAN_POINT('',(236.5,-120.5,214.5));
#1713=CARTESIAN_POINT('Origin',(239.5,-118.,240.));
#1714=CARTESIAN_POINT('',(239.5,-178.,214.5));
#1715=CARTESIAN_POINT('',(239.5,-178.,240.));
#1716=CARTESIAN_POINT('',(239.5,-118.,214.5));
#1717=CARTESIAN_POINT('Origin',(295.5,-118.,214.5));
#1718=CARTESIAN_POINT('',(295.5,-178.,209.5));
#1719=CARTESIAN_POINT('',(295.5,-118.,209.5));
#1720=CARTESIAN_POINT('Origin',(295.5,-178.,214.5));
#1721=CARTESIAN_POINT('Origin',(244.5,-118.,214.5));
#1722=CARTESIAN_POINT('',(244.5,-178.,209.5));
#1723=CARTESIAN_POINT('Origin',(244.5,-178.,214.5));
#1724=CARTESIAN_POINT('',(244.5,-118.,209.5));
#1725=CARTESIAN_POINT('Origin',(270.,-178.,240.));
#1726=CARTESIAN_POINT('',(270.,-178.,209.5));
#1727=CARTESIAN_POINT('Origin',(300.5,-118.,240.));
#1728=CARTESIAN_POINT('Origin',(270.,-118.,209.5));
#1729=CARTESIAN_POINT('Origin',(295.5,-120.5,214.5));
#1730=CARTESIAN_POINT('',(295.5,-120.5,206.5));
#1731=CARTESIAN_POINT('Origin',(244.5,-120.5,214.5));
#1732=CARTESIAN_POINT('',(244.5,-120.5,206.5));
#1733=CARTESIAN_POINT('Origin',(270.,-181.,240.));
#1734=CARTESIAN_POINT('Origin',(270.,-120.5,206.5));
#1735=UNCERTAINTY_MEASURE_WITH_UNIT(LENGTH_MEASURE(0.01),#1739,
'DISTANCE_ACCURACY_VALUE',
'Maximum model space distance between geometric entities at asserted c
onnectivities');
#1736=UNCERTAINTY_MEASURE_WITH_UNIT(LENGTH_MEASURE(0.01),#1739,
'DISTANCE_ACCURACY_VALUE',
'Maximum model space distance between geometric entities at asserted c
onnectivities');
#1737=(
GEOMETRIC_REPRESENTATION_CONTEXT(3)
GLOBAL_UNCERTAINTY_ASSIGNED_CONTEXT((#1735))
GLOBAL_UNIT_ASSIGNED_CONTEXT((#1739,#1741,#1742))
REPRESENTATION_CONTEXT('','3D')
);
#1738=(
GEOMETRIC_REPRESENTATION_CONTEXT(3)
GLOBAL_UNCERTAINTY_ASSIGNED_CONTEXT((#1736))
GLOBAL_UNIT_ASSIGNED_CONTEXT((#1739,#1741,#1742))
REPRESENTATION_CONTEXT('','3D')
);
#1739=(
LENGTH_UNIT()
NAMED_UNIT(*)
SI_UNIT(.MILLI.,.METRE.)
);
#1740=(
LENGTH_UNIT()
NAMED_UNIT(*)
SI_UNIT($,.METRE.)
);
#1741=(
NAMED_UNIT(*)
PLANE_ANGLE_UNIT()
SI_UNIT($,.RADIAN.)
);
#1742=(
NAMED_UNIT(*)
SI_UNIT($,.STERADIAN.)
SOLID_ANGLE_UNIT()
);
#1743=SHAPE_DEFINITION_REPRESENTATION(#1744,#1745);
#1744=PRODUCT_DEFINITION_SHAPE('',$,#1747);
#1745=SHAPE_REPRESENTATION('',(#1030),#1737);
#1746=PRODUCT_DEFINITION_CONTEXT('part definition',#1751,'design');
#1747=PRODUCT_DEFINITION('2026-08-12-23-08-19-731',
'EXPORT_TMP_PRINT_V010U_P215_P216_J3_LoadCartridge_6',#1748,#1746);
#1748=PRODUCT_DEFINITION_FORMATION('',$,#1753);
#1749=PRODUCT_RELATED_PRODUCT_CATEGORY(
'EXPORT_TMP_PRINT_V010U_P215_P216_J3_LoadCartridge_6',
'EXPORT_TMP_PRINT_V010U_P215_P216_J3_LoadCartridge_6',(#1753));
#1750=APPLICATION_PROTOCOL_DEFINITION('international standard',
'automotive_design',2009,#1751);
#1751=APPLICATION_CONTEXT(
'Core Data for Automotive Mechanical Design Process');
#1752=PRODUCT_CONTEXT('part definition',#1751,'mechanical');
#1753=PRODUCT('2026-08-12-23-08-19-731',
'EXPORT_TMP_PRINT_V010U_P215_P216_J3_LoadCartridge_6',$,(#1752));
#1754=PRESENTATION_STYLE_ASSIGNMENT((#1755));
#1755=SURFACE_STYLE_USAGE(.BOTH.,#1756);
#1756=SURFACE_SIDE_STYLE('',(#1757));
#1757=SURFACE_STYLE_FILL_AREA(#1758);
#1758=FILL_AREA_STYLE('Steel - Satin',(#1759));
#1759=FILL_AREA_STYLE_COLOUR('Steel - Satin',#1760);
#1760=COLOUR_RGB('Steel - Satin',0.627450980392157,0.627450980392157,0.627450980392157);
ENDSEC;
END-ISO-10303-21;
