ISO-10303-21;
HEADER;
/* Generated by software containing ST-Developer
 * from STEP Tools, Inc. (www.steptools.com) 
 */

FILE_DESCRIPTION(
/* description */ (''),
/* implementation_level */ '2;1');

FILE_NAME(
/* name */ 'PRINT_V008B_P213_UpperArmCheek_Right_A_J2SixBoltHoles.step',

/* time_stamp */ '2026-08-31T20:24:00+02:00',
/* author */ (''),
/* organization */ (''),
/* preprocessor_version */ 'ST-DEVELOPER v20.1',
/* originating_system */ 'Autodesk Translation Framework v15.8.0.0',
/* authorisation */ '');

FILE_SCHEMA (('AUTOMOTIVE_DESIGN { 1 0 10303 214 3 1 1 }'));
ENDSEC;

DATA;
#10=MECHANICAL_DESIGN_GEOMETRIC_PRESENTATION_REPRESENTATION('',(#13),#1295);
#11=SHAPE_REPRESENTATION_RELATIONSHIP('SRR','None',#1302,#12);
#12=ADVANCED_BREP_SHAPE_REPRESENTATION('',(#14),#1294);
#13=STYLED_ITEM('',(#1311),#14);
#14=MANIFOLD_SOLID_BREP('Body1',#751);
#15=FACE_BOUND('',#98,.T.);
#16=FACE_BOUND('',#101,.T.);
#17=FACE_BOUND('',#104,.T.);
#18=FACE_BOUND('',#107,.T.);
#19=FACE_BOUND('',#110,.T.);
#20=FACE_BOUND('',#117,.T.);
#21=FACE_BOUND('',#120,.T.);
#22=FACE_BOUND('',#121,.T.);
#23=FACE_BOUND('',#122,.T.);
#24=FACE_BOUND('',#123,.T.);
#25=FACE_BOUND('',#124,.T.);
#26=FACE_BOUND('',#128,.T.);
#27=FACE_BOUND('',#144,.T.);
#28=FACE_BOUND('',#145,.T.);
#29=FACE_BOUND('',#146,.T.);
#30=FACE_BOUND('',#147,.T.);
#31=FACE_BOUND('',#148,.T.);
#32=FACE_BOUND('',#149,.T.);
#33=FACE_BOUND('',#150,.T.);
#34=PLANE('',#768);
#35=PLANE('',#773);
#36=PLANE('',#778);
#37=PLANE('',#783);
#38=PLANE('',#788);
#39=PLANE('',#790);
#40=PLANE('',#792);
#41=PLANE('',#793);
#42=PLANE('',#794);
#43=PLANE('',#799);
#44=PLANE('',#806);
#45=PLANE('',#815);
#46=PLANE('',#831);
#47=PLANE('',#832);
#48=PLANE('',#833);
#49=PLANE('',#834);
#50=PLANE('',#843);
#51=PLANE('',#846);
#52=PLANE('',#847);
#53=PLANE('',#848);
#54=PLANE('',#849);
#55=FACE_OUTER_BOUND('',#96,.T.);
#56=FACE_OUTER_BOUND('',#97,.T.);
#57=FACE_OUTER_BOUND('',#99,.T.);
#58=FACE_OUTER_BOUND('',#100,.T.);
#59=FACE_OUTER_BOUND('',#102,.T.);
#60=FACE_OUTER_BOUND('',#103,.T.);
#61=FACE_OUTER_BOUND('',#105,.T.);
#62=FACE_OUTER_BOUND('',#106,.T.);
#63=FACE_OUTER_BOUND('',#108,.T.);
#64=FACE_OUTER_BOUND('',#109,.T.);
#65=FACE_OUTER_BOUND('',#111,.T.);
#66=FACE_OUTER_BOUND('',#112,.T.);
#67=FACE_OUTER_BOUND('',#113,.T.);
#68=FACE_OUTER_BOUND('',#114,.T.);
#69=FACE_OUTER_BOUND('',#115,.T.);
#70=FACE_OUTER_BOUND('',#116,.T.);
#71=FACE_OUTER_BOUND('',#118,.T.);
#72=FACE_OUTER_BOUND('',#119,.T.);
#73=FACE_OUTER_BOUND('',#125,.T.);
#74=FACE_OUTER_BOUND('',#126,.T.);
#75=FACE_OUTER_BOUND('',#127,.T.);
#76=FACE_OUTER_BOUND('',#129,.T.);
#77=FACE_OUTER_BOUND('',#130,.T.);
#78=FACE_OUTER_BOUND('',#131,.T.);
#79=FACE_OUTER_BOUND('',#132,.T.);
#80=FACE_OUTER_BOUND('',#133,.T.);
#81=FACE_OUTER_BOUND('',#134,.T.);
#82=FACE_OUTER_BOUND('',#135,.T.);
#83=FACE_OUTER_BOUND('',#136,.T.);
#84=FACE_OUTER_BOUND('',#137,.T.);
#85=FACE_OUTER_BOUND('',#138,.T.);
#86=FACE_OUTER_BOUND('',#139,.T.);
#87=FACE_OUTER_BOUND('',#140,.T.);
#88=FACE_OUTER_BOUND('',#141,.T.);
#89=FACE_OUTER_BOUND('',#142,.T.);
#90=FACE_OUTER_BOUND('',#143,.T.);
#91=FACE_OUTER_BOUND('',#151,.T.);
#92=FACE_OUTER_BOUND('',#152,.T.);
#93=FACE_OUTER_BOUND('',#153,.T.);
#94=FACE_OUTER_BOUND('',#154,.T.);
#95=FACE_OUTER_BOUND('',#155,.T.);
#96=EDGE_LOOP('',(#486,#487,#488,#489));
#97=EDGE_LOOP('',(#490));
#98=EDGE_LOOP('',(#491));
#99=EDGE_LOOP('',(#492,#493,#494,#495));
#100=EDGE_LOOP('',(#496));
#101=EDGE_LOOP('',(#497));
#102=EDGE_LOOP('',(#498,#499,#500,#501));
#103=EDGE_LOOP('',(#502));
#104=EDGE_LOOP('',(#503));
#105=EDGE_LOOP('',(#504,#505,#506,#507));
#106=EDGE_LOOP('',(#508));
#107=EDGE_LOOP('',(#509));
#108=EDGE_LOOP('',(#510,#511,#512,#513));
#109=EDGE_LOOP('',(#514));
#110=EDGE_LOOP('',(#515));
#111=EDGE_LOOP('',(#516,#517,#518,#519));
#112=EDGE_LOOP('',(#520,#521,#522,#523));
#113=EDGE_LOOP('',(#524,#525,#526,#527,#528,#529));
#114=EDGE_LOOP('',(#530,#531,#532,#533,#534,#535));
#115=EDGE_LOOP('',(#536,#537,#538,#539,#540,#541,#542,#543));
#116=EDGE_LOOP('',(#544,#545,#546,#547,#548,#549,#550,#551,#552,#553));
#117=EDGE_LOOP('',(#554));
#118=EDGE_LOOP('',(#555,#556,#557,#558));
#119=EDGE_LOOP('',(#559,#560,#561,#562,#563,#564,#565));
#120=EDGE_LOOP('',(#566));
#121=EDGE_LOOP('',(#567));
#122=EDGE_LOOP('',(#568));
#123=EDGE_LOOP('',(#569));
#124=EDGE_LOOP('',(#570));
#125=EDGE_LOOP('',(#571,#572,#573,#574));
#126=EDGE_LOOP('',(#575,#576,#577,#578));
#127=EDGE_LOOP('',(#579,#580,#581,#582,#583,#584,#585,#586,#587));
#128=EDGE_LOOP('',(#588));
#129=EDGE_LOOP('',(#589,#590,#591,#592,#593,#594));
#130=EDGE_LOOP('',(#595,#596,#597,#598));
#131=EDGE_LOOP('',(#599,#600,#601,#602));
#132=EDGE_LOOP('',(#603,#604,#605,#606));
#133=EDGE_LOOP('',(#607,#608,#609,#610));
#134=EDGE_LOOP('',(#611,#612,#613,#614));
#135=EDGE_LOOP('',(#615,#616,#617,#618));
#136=EDGE_LOOP('',(#619,#620,#621,#622));
#137=EDGE_LOOP('',(#623,#624,#625,#626));
#138=EDGE_LOOP('',(#627,#628,#629,#630));
#139=EDGE_LOOP('',(#631,#632,#633,#634));
#140=EDGE_LOOP('',(#635,#636,#637,#638));
#141=EDGE_LOOP('',(#639,#640,#641,#642));
#142=EDGE_LOOP('',(#643,#644,#645,#646));
#143=EDGE_LOOP('',(#647,#648,#649,#650,#651,#652,#653,#654,#655,#656,#657,
#658,#659,#660));
#144=EDGE_LOOP('',(#661));
#145=EDGE_LOOP('',(#662));
#146=EDGE_LOOP('',(#663));
#147=EDGE_LOOP('',(#664));
#148=EDGE_LOOP('',(#665));
#149=EDGE_LOOP('',(#666));
#150=EDGE_LOOP('',(#667));
#151=EDGE_LOOP('',(#668,#669,#670,#671,#672,#673));
#152=EDGE_LOOP('',(#674,#675,#676,#677));
#153=EDGE_LOOP('',(#678,#679,#680,#681));
#154=EDGE_LOOP('',(#682,#683,#684,#685));
#155=EDGE_LOOP('',(#686,#687,#688,#689));
#156=LINE('',#1085,#214);
#157=LINE('',#1094,#215);
#158=LINE('',#1103,#216);
#159=LINE('',#1112,#217);
#160=LINE('',#1121,#218);
#161=LINE('',#1131,#219);
#162=LINE('',#1133,#220);
#163=LINE('',#1134,#221);
#164=LINE('',#1137,#222);
#165=LINE('',#1139,#223);
#166=LINE('',#1140,#224);
#167=LINE('',#1144,#225);
#168=LINE('',#1146,#226);
#169=LINE('',#1147,#227);
#170=LINE('',#1148,#228);
#171=LINE('',#1151,#229);
#172=LINE('',#1153,#230);
#173=LINE('',#1155,#231);
#174=LINE('',#1156,#232);
#175=LINE('',#1161,#233);
#176=LINE('',#1165,#234);
#177=LINE('',#1173,#235);
#178=LINE('',#1175,#236);
#179=LINE('',#1179,#237);
#180=LINE('',#1180,#238);
#181=LINE('',#1186,#239);
#182=LINE('',#1197,#240);
#183=LINE('',#1200,#241);
#184=LINE('',#1204,#242);
#185=LINE('',#1207,#243);
#186=LINE('',#1209,#244);
#187=LINE('',#1213,#245);
#188=LINE('',#1215,#246);
#189=LINE('',#1222,#247);
#190=LINE('',#1225,#248);
#191=LINE('',#1229,#249);
#192=LINE('',#1233,#250);
#193=LINE('',#1237,#251);
#194=LINE('',#1241,#252);
#195=LINE('',#1245,#253);
#196=LINE('',#1247,#254);
#197=LINE('',#1248,#255);
#198=LINE('',#1251,#256);
#199=LINE('',#1253,#257);
#200=LINE('',#1254,#258);
#201=LINE('',#1257,#259);
#202=LINE('',#1259,#260);
#203=LINE('',#1260,#261);
#204=LINE('',#1263,#262);
#205=LINE('',#1265,#263);
#206=LINE('',#1266,#264);
#207=LINE('',#1273,#265);
#208=LINE('',#1277,#266);
#209=LINE('',#1282,#267);
#210=LINE('',#1283,#268);
#211=LINE('',#1284,#269);
#212=LINE('',#1285,#270);
#213=LINE('',#1287,#271);
#214=VECTOR('',#856,3.25);
#215=VECTOR('',#867,3.25);
#216=VECTOR('',#878,3.25);
#217=VECTOR('',#889,3.25);
#218=VECTOR('',#900,3.25);
#219=VECTOR('',#911,10.);
#220=VECTOR('',#912,10.);
#221=VECTOR('',#913,10.);
#222=VECTOR('',#916,10.);
#223=VECTOR('',#917,10.);
#224=VECTOR('',#918,10.);
#225=VECTOR('',#921,10.);
#226=VECTOR('',#922,10.);
#227=VECTOR('',#923,10.);
#228=VECTOR('',#924,10.);
#229=VECTOR('',#927,10.);
#230=VECTOR('',#928,10.);
#231=VECTOR('',#929,10.);
#232=VECTOR('',#930,10.);
#233=VECTOR('',#935,10.);
#234=VECTOR('',#938,10.);
#235=VECTOR('',#947,10.);
#236=VECTOR('',#948,10.);
#237=VECTOR('',#951,10.);
#238=VECTOR('',#952,10.);
#239=VECTOR('',#959,10.);
#240=VECTOR('',#972,10.);
#241=VECTOR('',#975,10.);
#242=VECTOR('',#980,10.);
#243=VECTOR('',#983,10.);
#244=VECTOR('',#984,10.);
#245=VECTOR('',#987,10.);
#246=VECTOR('',#988,10.);
#247=VECTOR('',#997,10.);
#248=VECTOR('',#1000,2.7);
#249=VECTOR('',#1005,2.7);
#250=VECTOR('',#1010,2.7);
#251=VECTOR('',#1015,2.7);
#252=VECTOR('',#1020,2.7);
#253=VECTOR('',#1025,10.);
#254=VECTOR('',#1026,10.);
#255=VECTOR('',#1027,10.);
#256=VECTOR('',#1030,10.);
#257=VECTOR('',#1031,10.);
#258=VECTOR('',#1032,10.);
#259=VECTOR('',#1035,10.);
#260=VECTOR('',#1036,10.);
#261=VECTOR('',#1037,10.);
#262=VECTOR('',#1040,10.);
#263=VECTOR('',#1041,10.);
#264=VECTOR('',#1042,10.);
#265=VECTOR('',#1053,2.2);
#266=VECTOR('',#1058,2.2);
#267=VECTOR('',#1065,10.);
#268=VECTOR('',#1066,10.);
#269=VECTOR('',#1067,10.);
#270=VECTOR('',#1068,10.);
#271=VECTOR('',#1071,10.);
#272=CIRCLE('',#766,3.25);
#273=CIRCLE('',#767,3.25);
#274=CIRCLE('',#769,2.7);
#275=CIRCLE('',#771,3.25);
#276=CIRCLE('',#772,3.25);
#277=CIRCLE('',#774,2.7);
#278=CIRCLE('',#776,3.25);
#279=CIRCLE('',#777,3.25);
#280=CIRCLE('',#779,2.7);
#281=CIRCLE('',#781,3.25);
#282=CIRCLE('',#782,3.25);
#283=CIRCLE('',#784,2.7);
#284=CIRCLE('',#786,3.25);
#285=CIRCLE('',#787,3.25);
#286=CIRCLE('',#789,2.7);
#287=CIRCLE('',#791,52.);
#288=CIRCLE('',#796,52.);
#289=CIRCLE('',#797,52.);
#290=CIRCLE('',#798,52.);
#291=CIRCLE('',#800,48.6);
#292=CIRCLE('',#801,25.);
#293=CIRCLE('',#802,2.2);
#294=CIRCLE('',#803,2.2);
#295=CIRCLE('',#805,48.6);
#296=CIRCLE('',#807,48.6);
#297=CIRCLE('',#808,25.);
#298=CIRCLE('',#809,24.5);
#299=CIRCLE('',#810,25.);
#300=CIRCLE('',#812,24.5);
#301=CIRCLE('',#814,48.6);
#302=CIRCLE('',#816,2.2);
#303=CIRCLE('',#817,25.);
#304=CIRCLE('',#818,2.2);
#305=CIRCLE('',#820,25.);
#306=CIRCLE('',#822,2.7);
#307=CIRCLE('',#824,2.7);
#308=CIRCLE('',#826,2.7);
#309=CIRCLE('',#828,2.7);
#310=CIRCLE('',#830,2.7);
#311=CIRCLE('',#836,2.2);
#312=CIRCLE('',#838,2.2);
#313=CIRCLE('',#840,2.2);
#314=CIRCLE('',#842,2.2);
#315=CIRCLE('',#844,25.);
#316=VERTEX_POINT('',#1082);
#317=VERTEX_POINT('',#1084);
#318=VERTEX_POINT('',#1088);
#319=VERTEX_POINT('',#1091);
#320=VERTEX_POINT('',#1093);
#321=VERTEX_POINT('',#1097);
#322=VERTEX_POINT('',#1100);
#323=VERTEX_POINT('',#1102);
#324=VERTEX_POINT('',#1106);
#325=VERTEX_POINT('',#1109);
#326=VERTEX_POINT('',#1111);
#327=VERTEX_POINT('',#1115);
#328=VERTEX_POINT('',#1118);
#329=VERTEX_POINT('',#1120);
#330=VERTEX_POINT('',#1124);
#331=VERTEX_POINT('',#1127);
#332=VERTEX_POINT('',#1128);
#333=VERTEX_POINT('',#1130);
#334=VERTEX_POINT('',#1132);
#335=VERTEX_POINT('',#1136);
#336=VERTEX_POINT('',#1138);
#337=VERTEX_POINT('',#1142);
#338=VERTEX_POINT('',#1143);
#339=VERTEX_POINT('',#1145);
#340=VERTEX_POINT('',#1150);
#341=VERTEX_POINT('',#1152);
#342=VERTEX_POINT('',#1154);
#343=VERTEX_POINT('',#1158);
#344=VERTEX_POINT('',#1160);
#345=VERTEX_POINT('',#1162);
#346=VERTEX_POINT('',#1164);
#347=VERTEX_POINT('',#1168);
#348=VERTEX_POINT('',#1170);
#349=VERTEX_POINT('',#1172);
#350=VERTEX_POINT('',#1174);
#351=VERTEX_POINT('',#1176);
#352=VERTEX_POINT('',#1178);
#353=VERTEX_POINT('',#1181);
#354=VERTEX_POINT('',#1184);
#355=VERTEX_POINT('',#1188);
#356=VERTEX_POINT('',#1190);
#357=VERTEX_POINT('',#1192);
#358=VERTEX_POINT('',#1196);
#359=VERTEX_POINT('',#1198);
#360=VERTEX_POINT('',#1202);
#361=VERTEX_POINT('',#1206);
#362=VERTEX_POINT('',#1208);
#363=VERTEX_POINT('',#1210);
#364=VERTEX_POINT('',#1212);
#365=VERTEX_POINT('',#1214);
#366=VERTEX_POINT('',#1217);
#367=VERTEX_POINT('',#1220);
#368=VERTEX_POINT('',#1224);
#369=VERTEX_POINT('',#1228);
#370=VERTEX_POINT('',#1232);
#371=VERTEX_POINT('',#1236);
#372=VERTEX_POINT('',#1240);
#373=VERTEX_POINT('',#1244);
#374=VERTEX_POINT('',#1246);
#375=VERTEX_POINT('',#1250);
#376=VERTEX_POINT('',#1252);
#377=VERTEX_POINT('',#1256);
#378=VERTEX_POINT('',#1258);
#379=VERTEX_POINT('',#1262);
#380=VERTEX_POINT('',#1264);
#381=VERTEX_POINT('',#1272);
#382=VERTEX_POINT('',#1276);
#383=VERTEX_POINT('',#1280);
#384=EDGE_CURVE('',#316,#316,#272,.T.);
#385=EDGE_CURVE('',#316,#317,#156,.T.);
#386=EDGE_CURVE('',#317,#317,#273,.T.);
#387=EDGE_CURVE('',#318,#318,#274,.T.);
#388=EDGE_CURVE('',#319,#319,#275,.T.);
#389=EDGE_CURVE('',#319,#320,#157,.T.);
#390=EDGE_CURVE('',#320,#320,#276,.T.);
#391=EDGE_CURVE('',#321,#321,#277,.T.);
#392=EDGE_CURVE('',#322,#322,#278,.T.);
#393=EDGE_CURVE('',#322,#323,#158,.T.);
#394=EDGE_CURVE('',#323,#323,#279,.T.);
#395=EDGE_CURVE('',#324,#324,#280,.T.);
#396=EDGE_CURVE('',#325,#325,#281,.T.);
#397=EDGE_CURVE('',#325,#326,#159,.T.);
#398=EDGE_CURVE('',#326,#326,#282,.T.);
#399=EDGE_CURVE('',#327,#327,#283,.T.);
#400=EDGE_CURVE('',#328,#328,#284,.T.);
#401=EDGE_CURVE('',#328,#329,#160,.T.);
#402=EDGE_CURVE('',#329,#329,#285,.T.);
#403=EDGE_CURVE('',#330,#330,#286,.T.);
#404=EDGE_CURVE('',#331,#332,#287,.T.);
#405=EDGE_CURVE('',#333,#331,#161,.T.);
#406=EDGE_CURVE('',#333,#334,#162,.T.);
#407=EDGE_CURVE('',#334,#332,#163,.T.);
#408=EDGE_CURVE('',#332,#335,#164,.T.);
#409=EDGE_CURVE('',#334,#336,#165,.T.);
#410=EDGE_CURVE('',#335,#336,#166,.T.);
#411=EDGE_CURVE('',#337,#338,#167,.T.);
#412=EDGE_CURVE('',#339,#337,#168,.T.);
#413=EDGE_CURVE('',#336,#339,#169,.T.);
#414=EDGE_CURVE('',#338,#333,#170,.T.);
#415=EDGE_CURVE('',#340,#331,#171,.T.);
#416=EDGE_CURVE('',#341,#340,#172,.T.);
#417=EDGE_CURVE('',#342,#341,#173,.T.);
#418=EDGE_CURVE('',#338,#342,#174,.T.);
#419=EDGE_CURVE('',#343,#335,#288,.T.);
#420=EDGE_CURVE('',#344,#343,#175,.T.);
#421=EDGE_CURVE('',#345,#344,#289,.T.);
#422=EDGE_CURVE('',#346,#345,#176,.T.);
#423=EDGE_CURVE('',#340,#346,#290,.T.);
#424=EDGE_CURVE('',#339,#347,#291,.T.);
#425=EDGE_CURVE('',#347,#348,#292,.T.);
#426=EDGE_CURVE('',#348,#349,#177,.T.);
#427=EDGE_CURVE('',#350,#349,#178,.T.);
#428=EDGE_CURVE('',#350,#351,#293,.T.);
#429=EDGE_CURVE('',#352,#351,#179,.T.);
#430=EDGE_CURVE('',#343,#352,#180,.T.);
#431=EDGE_CURVE('',#353,#353,#294,.T.);
#432=EDGE_CURVE('',#337,#354,#295,.T.);
#433=EDGE_CURVE('',#347,#354,#181,.T.);
#434=EDGE_CURVE('',#355,#342,#296,.T.);
#435=EDGE_CURVE('',#356,#355,#297,.T.);
#436=EDGE_CURVE('',#357,#356,#298,.T.);
#437=EDGE_CURVE('',#354,#357,#299,.T.);
#438=EDGE_CURVE('',#358,#356,#182,.T.);
#439=EDGE_CURVE('',#359,#358,#300,.T.);
#440=EDGE_CURVE('',#357,#359,#183,.T.);
#441=EDGE_CURVE('',#360,#341,#301,.T.);
#442=EDGE_CURVE('',#355,#360,#184,.T.);
#443=EDGE_CURVE('',#361,#346,#185,.T.);
#444=EDGE_CURVE('',#362,#361,#186,.T.);
#445=EDGE_CURVE('',#362,#363,#302,.T.);
#446=EDGE_CURVE('',#364,#363,#187,.T.);
#447=EDGE_CURVE('',#364,#365,#188,.T.);
#448=EDGE_CURVE('',#365,#360,#303,.T.);
#449=EDGE_CURVE('',#366,#366,#304,.T.);
#450=EDGE_CURVE('',#367,#359,#305,.T.);
#451=EDGE_CURVE('',#367,#348,#189,.T.);
#452=EDGE_CURVE('',#330,#368,#190,.T.);
#453=EDGE_CURVE('',#368,#368,#306,.T.);
#454=EDGE_CURVE('',#318,#369,#191,.T.);
#455=EDGE_CURVE('',#369,#369,#307,.T.);
#456=EDGE_CURVE('',#327,#370,#192,.T.);
#457=EDGE_CURVE('',#370,#370,#308,.T.);
#458=EDGE_CURVE('',#321,#371,#193,.T.);
#459=EDGE_CURVE('',#371,#371,#309,.T.);
#460=EDGE_CURVE('',#324,#372,#194,.T.);
#461=EDGE_CURVE('',#372,#372,#310,.T.);
#462=EDGE_CURVE('',#363,#373,#195,.T.);
#463=EDGE_CURVE('',#373,#374,#196,.T.);
#464=EDGE_CURVE('',#374,#364,#197,.T.);
#465=EDGE_CURVE('',#375,#362,#198,.T.);
#466=EDGE_CURVE('',#361,#376,#199,.T.);
#467=EDGE_CURVE('',#376,#375,#200,.T.);
#468=EDGE_CURVE('',#351,#377,#201,.T.);
#469=EDGE_CURVE('',#377,#378,#202,.T.);
#470=EDGE_CURVE('',#378,#352,#203,.T.);
#471=EDGE_CURVE('',#379,#350,#204,.T.);
#472=EDGE_CURVE('',#349,#380,#205,.T.);
#473=EDGE_CURVE('',#380,#379,#206,.T.);
#474=EDGE_CURVE('',#377,#379,#311,.T.);
#475=EDGE_CURVE('',#373,#375,#312,.T.);
#476=EDGE_CURVE('',#353,#381,#207,.T.);
#477=EDGE_CURVE('',#381,#381,#313,.T.);
#478=EDGE_CURVE('',#366,#382,#208,.T.);
#479=EDGE_CURVE('',#382,#382,#314,.T.);
#480=EDGE_CURVE('',#358,#383,#315,.T.);
#481=EDGE_CURVE('',#383,#374,#209,.T.);
#482=EDGE_CURVE('',#345,#376,#210,.T.);
#483=EDGE_CURVE('',#378,#344,#211,.T.);
#484=EDGE_CURVE('',#380,#367,#212,.T.);
#485=EDGE_CURVE('',#365,#383,#213,.T.);
#486=ORIENTED_EDGE('',*,*,#384,.F.);
#487=ORIENTED_EDGE('',*,*,#385,.T.);
#488=ORIENTED_EDGE('',*,*,#386,.T.);
#489=ORIENTED_EDGE('',*,*,#385,.F.);
#490=ORIENTED_EDGE('',*,*,#386,.F.);
#491=ORIENTED_EDGE('',*,*,#387,.F.);
#492=ORIENTED_EDGE('',*,*,#388,.F.);
#493=ORIENTED_EDGE('',*,*,#389,.T.);
#494=ORIENTED_EDGE('',*,*,#390,.T.);
#495=ORIENTED_EDGE('',*,*,#389,.F.);
#496=ORIENTED_EDGE('',*,*,#390,.F.);
#497=ORIENTED_EDGE('',*,*,#391,.F.);
#498=ORIENTED_EDGE('',*,*,#392,.F.);
#499=ORIENTED_EDGE('',*,*,#393,.T.);
#500=ORIENTED_EDGE('',*,*,#394,.T.);
#501=ORIENTED_EDGE('',*,*,#393,.F.);
#502=ORIENTED_EDGE('',*,*,#394,.F.);
#503=ORIENTED_EDGE('',*,*,#395,.F.);
#504=ORIENTED_EDGE('',*,*,#396,.F.);
#505=ORIENTED_EDGE('',*,*,#397,.T.);
#506=ORIENTED_EDGE('',*,*,#398,.T.);
#507=ORIENTED_EDGE('',*,*,#397,.F.);
#508=ORIENTED_EDGE('',*,*,#398,.F.);
#509=ORIENTED_EDGE('',*,*,#399,.F.);
#510=ORIENTED_EDGE('',*,*,#400,.F.);
#511=ORIENTED_EDGE('',*,*,#401,.T.);
#512=ORIENTED_EDGE('',*,*,#402,.T.);
#513=ORIENTED_EDGE('',*,*,#401,.F.);
#514=ORIENTED_EDGE('',*,*,#402,.F.);
#515=ORIENTED_EDGE('',*,*,#403,.F.);
#516=ORIENTED_EDGE('',*,*,#404,.F.);
#517=ORIENTED_EDGE('',*,*,#405,.F.);
#518=ORIENTED_EDGE('',*,*,#406,.T.);
#519=ORIENTED_EDGE('',*,*,#407,.T.);
#520=ORIENTED_EDGE('',*,*,#408,.F.);
#521=ORIENTED_EDGE('',*,*,#407,.F.);
#522=ORIENTED_EDGE('',*,*,#409,.T.);
#523=ORIENTED_EDGE('',*,*,#410,.F.);
#524=ORIENTED_EDGE('',*,*,#411,.F.);
#525=ORIENTED_EDGE('',*,*,#412,.F.);
#526=ORIENTED_EDGE('',*,*,#413,.F.);
#527=ORIENTED_EDGE('',*,*,#409,.F.);
#528=ORIENTED_EDGE('',*,*,#406,.F.);
#529=ORIENTED_EDGE('',*,*,#414,.F.);
#530=ORIENTED_EDGE('',*,*,#415,.F.);
#531=ORIENTED_EDGE('',*,*,#416,.F.);
#532=ORIENTED_EDGE('',*,*,#417,.F.);
#533=ORIENTED_EDGE('',*,*,#418,.F.);
#534=ORIENTED_EDGE('',*,*,#414,.T.);
#535=ORIENTED_EDGE('',*,*,#405,.T.);
#536=ORIENTED_EDGE('',*,*,#415,.T.);
#537=ORIENTED_EDGE('',*,*,#404,.T.);
#538=ORIENTED_EDGE('',*,*,#408,.T.);
#539=ORIENTED_EDGE('',*,*,#419,.F.);
#540=ORIENTED_EDGE('',*,*,#420,.F.);
#541=ORIENTED_EDGE('',*,*,#421,.F.);
#542=ORIENTED_EDGE('',*,*,#422,.F.);
#543=ORIENTED_EDGE('',*,*,#423,.F.);
#544=ORIENTED_EDGE('',*,*,#410,.T.);
#545=ORIENTED_EDGE('',*,*,#413,.T.);
#546=ORIENTED_EDGE('',*,*,#424,.T.);
#547=ORIENTED_EDGE('',*,*,#425,.T.);
#548=ORIENTED_EDGE('',*,*,#426,.T.);
#549=ORIENTED_EDGE('',*,*,#427,.F.);
#550=ORIENTED_EDGE('',*,*,#428,.T.);
#551=ORIENTED_EDGE('',*,*,#429,.F.);
#552=ORIENTED_EDGE('',*,*,#430,.F.);
#553=ORIENTED_EDGE('',*,*,#419,.T.);
#554=ORIENTED_EDGE('',*,*,#431,.T.);
#555=ORIENTED_EDGE('',*,*,#412,.T.);
#556=ORIENTED_EDGE('',*,*,#432,.T.);
#557=ORIENTED_EDGE('',*,*,#433,.F.);
#558=ORIENTED_EDGE('',*,*,#424,.F.);
#559=ORIENTED_EDGE('',*,*,#418,.T.);
#560=ORIENTED_EDGE('',*,*,#434,.F.);
#561=ORIENTED_EDGE('',*,*,#435,.F.);
#562=ORIENTED_EDGE('',*,*,#436,.F.);
#563=ORIENTED_EDGE('',*,*,#437,.F.);
#564=ORIENTED_EDGE('',*,*,#432,.F.);
#565=ORIENTED_EDGE('',*,*,#411,.T.);
#566=ORIENTED_EDGE('',*,*,#400,.T.);
#567=ORIENTED_EDGE('',*,*,#396,.T.);
#568=ORIENTED_EDGE('',*,*,#392,.T.);
#569=ORIENTED_EDGE('',*,*,#388,.T.);
#570=ORIENTED_EDGE('',*,*,#384,.T.);
#571=ORIENTED_EDGE('',*,*,#438,.F.);
#572=ORIENTED_EDGE('',*,*,#439,.F.);
#573=ORIENTED_EDGE('',*,*,#440,.F.);
#574=ORIENTED_EDGE('',*,*,#436,.T.);
#575=ORIENTED_EDGE('',*,*,#417,.T.);
#576=ORIENTED_EDGE('',*,*,#441,.F.);
#577=ORIENTED_EDGE('',*,*,#442,.F.);
#578=ORIENTED_EDGE('',*,*,#434,.T.);
#579=ORIENTED_EDGE('',*,*,#416,.T.);
#580=ORIENTED_EDGE('',*,*,#423,.T.);
#581=ORIENTED_EDGE('',*,*,#443,.F.);
#582=ORIENTED_EDGE('',*,*,#444,.F.);
#583=ORIENTED_EDGE('',*,*,#445,.T.);
#584=ORIENTED_EDGE('',*,*,#446,.F.);
#585=ORIENTED_EDGE('',*,*,#447,.T.);
#586=ORIENTED_EDGE('',*,*,#448,.T.);
#587=ORIENTED_EDGE('',*,*,#441,.T.);
#588=ORIENTED_EDGE('',*,*,#449,.T.);
#589=ORIENTED_EDGE('',*,*,#433,.T.);
#590=ORIENTED_EDGE('',*,*,#437,.T.);
#591=ORIENTED_EDGE('',*,*,#440,.T.);
#592=ORIENTED_EDGE('',*,*,#450,.F.);
#593=ORIENTED_EDGE('',*,*,#451,.T.);
#594=ORIENTED_EDGE('',*,*,#425,.F.);
#595=ORIENTED_EDGE('',*,*,#403,.T.);
#596=ORIENTED_EDGE('',*,*,#452,.T.);
#597=ORIENTED_EDGE('',*,*,#453,.F.);
#598=ORIENTED_EDGE('',*,*,#452,.F.);
#599=ORIENTED_EDGE('',*,*,#387,.T.);
#600=ORIENTED_EDGE('',*,*,#454,.T.);
#601=ORIENTED_EDGE('',*,*,#455,.F.);
#602=ORIENTED_EDGE('',*,*,#454,.F.);
#603=ORIENTED_EDGE('',*,*,#399,.T.);
#604=ORIENTED_EDGE('',*,*,#456,.T.);
#605=ORIENTED_EDGE('',*,*,#457,.F.);
#606=ORIENTED_EDGE('',*,*,#456,.F.);
#607=ORIENTED_EDGE('',*,*,#391,.T.);
#608=ORIENTED_EDGE('',*,*,#458,.T.);
#609=ORIENTED_EDGE('',*,*,#459,.F.);
#610=ORIENTED_EDGE('',*,*,#458,.F.);
#611=ORIENTED_EDGE('',*,*,#395,.T.);
#612=ORIENTED_EDGE('',*,*,#460,.T.);
#613=ORIENTED_EDGE('',*,*,#461,.F.);
#614=ORIENTED_EDGE('',*,*,#460,.F.);
#615=ORIENTED_EDGE('',*,*,#462,.T.);
#616=ORIENTED_EDGE('',*,*,#463,.T.);
#617=ORIENTED_EDGE('',*,*,#464,.T.);
#618=ORIENTED_EDGE('',*,*,#446,.T.);
#619=ORIENTED_EDGE('',*,*,#465,.T.);
#620=ORIENTED_EDGE('',*,*,#444,.T.);
#621=ORIENTED_EDGE('',*,*,#466,.T.);
#622=ORIENTED_EDGE('',*,*,#467,.T.);
#623=ORIENTED_EDGE('',*,*,#468,.T.);
#624=ORIENTED_EDGE('',*,*,#469,.T.);
#625=ORIENTED_EDGE('',*,*,#470,.T.);
#626=ORIENTED_EDGE('',*,*,#429,.T.);
#627=ORIENTED_EDGE('',*,*,#471,.T.);
#628=ORIENTED_EDGE('',*,*,#427,.T.);
#629=ORIENTED_EDGE('',*,*,#472,.T.);
#630=ORIENTED_EDGE('',*,*,#473,.T.);
#631=ORIENTED_EDGE('',*,*,#471,.F.);
#632=ORIENTED_EDGE('',*,*,#474,.F.);
#633=ORIENTED_EDGE('',*,*,#468,.F.);
#634=ORIENTED_EDGE('',*,*,#428,.F.);
#635=ORIENTED_EDGE('',*,*,#465,.F.);
#636=ORIENTED_EDGE('',*,*,#475,.F.);
#637=ORIENTED_EDGE('',*,*,#462,.F.);
#638=ORIENTED_EDGE('',*,*,#445,.F.);
#639=ORIENTED_EDGE('',*,*,#431,.F.);
#640=ORIENTED_EDGE('',*,*,#476,.T.);
#641=ORIENTED_EDGE('',*,*,#477,.F.);
#642=ORIENTED_EDGE('',*,*,#476,.F.);
#643=ORIENTED_EDGE('',*,*,#449,.F.);
#644=ORIENTED_EDGE('',*,*,#478,.T.);
#645=ORIENTED_EDGE('',*,*,#479,.F.);
#646=ORIENTED_EDGE('',*,*,#478,.F.);
#647=ORIENTED_EDGE('',*,*,#439,.T.);
#648=ORIENTED_EDGE('',*,*,#480,.T.);
#649=ORIENTED_EDGE('',*,*,#481,.T.);
#650=ORIENTED_EDGE('',*,*,#463,.F.);
#651=ORIENTED_EDGE('',*,*,#475,.T.);
#652=ORIENTED_EDGE('',*,*,#467,.F.);
#653=ORIENTED_EDGE('',*,*,#482,.F.);
#654=ORIENTED_EDGE('',*,*,#421,.T.);
#655=ORIENTED_EDGE('',*,*,#483,.F.);
#656=ORIENTED_EDGE('',*,*,#469,.F.);
#657=ORIENTED_EDGE('',*,*,#474,.T.);
#658=ORIENTED_EDGE('',*,*,#473,.F.);
#659=ORIENTED_EDGE('',*,*,#484,.T.);
#660=ORIENTED_EDGE('',*,*,#450,.T.);
#661=ORIENTED_EDGE('',*,*,#453,.T.);
#662=ORIENTED_EDGE('',*,*,#455,.T.);
#663=ORIENTED_EDGE('',*,*,#457,.T.);
#664=ORIENTED_EDGE('',*,*,#459,.T.);
#665=ORIENTED_EDGE('',*,*,#461,.T.);
#666=ORIENTED_EDGE('',*,*,#477,.T.);
#667=ORIENTED_EDGE('',*,*,#479,.T.);
#668=ORIENTED_EDGE('',*,*,#442,.T.);
#669=ORIENTED_EDGE('',*,*,#448,.F.);
#670=ORIENTED_EDGE('',*,*,#485,.T.);
#671=ORIENTED_EDGE('',*,*,#480,.F.);
#672=ORIENTED_EDGE('',*,*,#438,.T.);
#673=ORIENTED_EDGE('',*,*,#435,.T.);
#674=ORIENTED_EDGE('',*,*,#464,.F.);
#675=ORIENTED_EDGE('',*,*,#481,.F.);
#676=ORIENTED_EDGE('',*,*,#485,.F.);
#677=ORIENTED_EDGE('',*,*,#447,.F.);
#678=ORIENTED_EDGE('',*,*,#472,.F.);
#679=ORIENTED_EDGE('',*,*,#426,.F.);
#680=ORIENTED_EDGE('',*,*,#451,.F.);
#681=ORIENTED_EDGE('',*,*,#484,.F.);
#682=ORIENTED_EDGE('',*,*,#466,.F.);
#683=ORIENTED_EDGE('',*,*,#443,.T.);
#684=ORIENTED_EDGE('',*,*,#422,.T.);
#685=ORIENTED_EDGE('',*,*,#482,.T.);
#686=ORIENTED_EDGE('',*,*,#470,.F.);
#687=ORIENTED_EDGE('',*,*,#483,.T.);
#688=ORIENTED_EDGE('',*,*,#420,.T.);
#689=ORIENTED_EDGE('',*,*,#430,.T.);
#690=CYLINDRICAL_SURFACE('',#765,3.25);
#691=CYLINDRICAL_SURFACE('',#770,3.25);
#692=CYLINDRICAL_SURFACE('',#775,3.25);
#693=CYLINDRICAL_SURFACE('',#780,3.25);
#694=CYLINDRICAL_SURFACE('',#785,3.25);
#695=CYLINDRICAL_SURFACE('',#795,52.);
#696=CYLINDRICAL_SURFACE('',#804,48.6);
#697=CYLINDRICAL_SURFACE('',#811,24.5);
#698=CYLINDRICAL_SURFACE('',#813,48.6);
#699=CYLINDRICAL_SURFACE('',#819,25.);
#700=CYLINDRICAL_SURFACE('',#821,2.7);
#701=CYLINDRICAL_SURFACE('',#823,2.7);
#702=CYLINDRICAL_SURFACE('',#825,2.7);
#703=CYLINDRICAL_SURFACE('',#827,2.7);
#704=CYLINDRICAL_SURFACE('',#829,2.7);
#705=CYLINDRICAL_SURFACE('',#835,2.2);
#706=CYLINDRICAL_SURFACE('',#837,2.2);
#707=CYLINDRICAL_SURFACE('',#839,2.2);
#708=CYLINDRICAL_SURFACE('',#841,2.2);
#709=CYLINDRICAL_SURFACE('',#845,25.);
#710=ADVANCED_FACE('',(#55),#690,.F.);
#711=ADVANCED_FACE('',(#56,#15),#34,.F.);
#712=ADVANCED_FACE('',(#57),#691,.F.);
#713=ADVANCED_FACE('',(#58,#16),#35,.F.);
#714=ADVANCED_FACE('',(#59),#692,.F.);
#715=ADVANCED_FACE('',(#60,#17),#36,.F.);
#716=ADVANCED_FACE('',(#61),#693,.F.);
#717=ADVANCED_FACE('',(#62,#18),#37,.F.);
#718=ADVANCED_FACE('',(#63),#694,.F.);
#719=ADVANCED_FACE('',(#64,#19),#38,.F.);
#720=ADVANCED_FACE('',(#65),#39,.T.);
#721=ADVANCED_FACE('',(#66),#40,.T.);
#722=ADVANCED_FACE('',(#67),#41,.F.);
#723=ADVANCED_FACE('',(#68),#42,.T.);
#724=ADVANCED_FACE('',(#69),#695,.T.);
#725=ADVANCED_FACE('',(#70,#20),#43,.F.);
#726=ADVANCED_FACE('',(#71),#696,.F.);
#727=ADVANCED_FACE('',(#72,#21,#22,#23,#24,#25),#44,.F.);
#728=ADVANCED_FACE('',(#73),#697,.F.);
#729=ADVANCED_FACE('',(#74),#698,.F.);
#730=ADVANCED_FACE('',(#75,#26),#45,.F.);
#731=ADVANCED_FACE('',(#76),#699,.F.);
#732=ADVANCED_FACE('',(#77),#700,.F.);
#733=ADVANCED_FACE('',(#78),#701,.F.);
#734=ADVANCED_FACE('',(#79),#702,.F.);
#735=ADVANCED_FACE('',(#80),#703,.F.);
#736=ADVANCED_FACE('',(#81),#704,.F.);
#737=ADVANCED_FACE('',(#82),#46,.F.);
#738=ADVANCED_FACE('',(#83),#47,.F.);
#739=ADVANCED_FACE('',(#84),#48,.F.);
#740=ADVANCED_FACE('',(#85),#49,.F.);
#741=ADVANCED_FACE('',(#86),#705,.F.);
#742=ADVANCED_FACE('',(#87),#706,.F.);
#743=ADVANCED_FACE('',(#88),#707,.F.);
#744=ADVANCED_FACE('',(#89),#708,.F.);
#745=ADVANCED_FACE('',(#90,#27,#28,#29,#30,#31,#32,#33),#50,.F.);
#746=ADVANCED_FACE('',(#91),#709,.F.);
#747=ADVANCED_FACE('',(#92),#51,.T.);
#748=ADVANCED_FACE('',(#93),#52,.F.);
#749=ADVANCED_FACE('',(#94),#53,.F.);
#750=ADVANCED_FACE('',(#95),#54,.T.);
#751=CLOSED_SHELL('',(#710,#711,#712,#713,#714,#715,#716,#717,#718,#719,
#720,#721,#722,#723,#724,#725,#726,#727,#728,#729,#730,#731,#732,#733,#734,
#735,#736,#737,#738,#739,#740,#741,#742,#743,#744,#745,#746,#747,#748,#749,
#750));
#752=DERIVED_UNIT_ELEMENT(#754,1.);
#753=DERIVED_UNIT_ELEMENT(#1297,-3.);
#754=(
MASS_UNIT()
NAMED_UNIT(*)
SI_UNIT(.KILO.,.GRAM.)
);
#755=DERIVED_UNIT((#752,#753));
#756=MEASURE_REPRESENTATION_ITEM('density measure',
POSITIVE_RATIO_MEASURE(7850.),#755);
#757=PROPERTY_DEFINITION_REPRESENTATION(#762,#759);
#758=PROPERTY_DEFINITION_REPRESENTATION(#763,#760);
#759=REPRESENTATION('material name',(#761),#1294);
#760=REPRESENTATION('density',(#756),#1294);
#761=DESCRIPTIVE_REPRESENTATION_ITEM('Steel','Steel');
#762=PROPERTY_DEFINITION('material property','material name',#1304);
#763=PROPERTY_DEFINITION('material property','density of part',#1304);
#764=AXIS2_PLACEMENT_3D('',#1080,#850,#851);
#765=AXIS2_PLACEMENT_3D('',#1081,#852,#853);
#766=AXIS2_PLACEMENT_3D('',#1083,#854,#855);
#767=AXIS2_PLACEMENT_3D('',#1086,#857,#858);
#768=AXIS2_PLACEMENT_3D('',#1087,#859,#860);
#769=AXIS2_PLACEMENT_3D('',#1089,#861,#862);
#770=AXIS2_PLACEMENT_3D('',#1090,#863,#864);
#771=AXIS2_PLACEMENT_3D('',#1092,#865,#866);
#772=AXIS2_PLACEMENT_3D('',#1095,#868,#869);
#773=AXIS2_PLACEMENT_3D('',#1096,#870,#871);
#774=AXIS2_PLACEMENT_3D('',#1098,#872,#873);
#775=AXIS2_PLACEMENT_3D('',#1099,#874,#875);
#776=AXIS2_PLACEMENT_3D('',#1101,#876,#877);
#777=AXIS2_PLACEMENT_3D('',#1104,#879,#880);
#778=AXIS2_PLACEMENT_3D('',#1105,#881,#882);
#779=AXIS2_PLACEMENT_3D('',#1107,#883,#884);
#780=AXIS2_PLACEMENT_3D('',#1108,#885,#886);
#781=AXIS2_PLACEMENT_3D('',#1110,#887,#888);
#782=AXIS2_PLACEMENT_3D('',#1113,#890,#891);
#783=AXIS2_PLACEMENT_3D('',#1114,#892,#893);
#784=AXIS2_PLACEMENT_3D('',#1116,#894,#895);
#785=AXIS2_PLACEMENT_3D('',#1117,#896,#897);
#786=AXIS2_PLACEMENT_3D('',#1119,#898,#899);
#787=AXIS2_PLACEMENT_3D('',#1122,#901,#902);
#788=AXIS2_PLACEMENT_3D('',#1123,#903,#904);
#789=AXIS2_PLACEMENT_3D('',#1125,#905,#906);
#790=AXIS2_PLACEMENT_3D('',#1126,#907,#908);
#791=AXIS2_PLACEMENT_3D('',#1129,#909,#910);
#792=AXIS2_PLACEMENT_3D('',#1135,#914,#915);
#793=AXIS2_PLACEMENT_3D('',#1141,#919,#920);
#794=AXIS2_PLACEMENT_3D('',#1149,#925,#926);
#795=AXIS2_PLACEMENT_3D('',#1157,#931,#932);
#796=AXIS2_PLACEMENT_3D('',#1159,#933,#934);
#797=AXIS2_PLACEMENT_3D('',#1163,#936,#937);
#798=AXIS2_PLACEMENT_3D('',#1166,#939,#940);
#799=AXIS2_PLACEMENT_3D('',#1167,#941,#942);
#800=AXIS2_PLACEMENT_3D('',#1169,#943,#944);
#801=AXIS2_PLACEMENT_3D('',#1171,#945,#946);
#802=AXIS2_PLACEMENT_3D('',#1177,#949,#950);
#803=AXIS2_PLACEMENT_3D('',#1182,#953,#954);
#804=AXIS2_PLACEMENT_3D('',#1183,#955,#956);
#805=AXIS2_PLACEMENT_3D('',#1185,#957,#958);
#806=AXIS2_PLACEMENT_3D('',#1187,#960,#961);
#807=AXIS2_PLACEMENT_3D('',#1189,#962,#963);
#808=AXIS2_PLACEMENT_3D('',#1191,#964,#965);
#809=AXIS2_PLACEMENT_3D('',#1193,#966,#967);
#810=AXIS2_PLACEMENT_3D('',#1194,#968,#969);
#811=AXIS2_PLACEMENT_3D('',#1195,#970,#971);
#812=AXIS2_PLACEMENT_3D('',#1199,#973,#974);
#813=AXIS2_PLACEMENT_3D('',#1201,#976,#977);
#814=AXIS2_PLACEMENT_3D('',#1203,#978,#979);
#815=AXIS2_PLACEMENT_3D('',#1205,#981,#982);
#816=AXIS2_PLACEMENT_3D('',#1211,#985,#986);
#817=AXIS2_PLACEMENT_3D('',#1216,#989,#990);
#818=AXIS2_PLACEMENT_3D('',#1218,#991,#992);
#819=AXIS2_PLACEMENT_3D('',#1219,#993,#994);
#820=AXIS2_PLACEMENT_3D('',#1221,#995,#996);
#821=AXIS2_PLACEMENT_3D('',#1223,#998,#999);
#822=AXIS2_PLACEMENT_3D('',#1226,#1001,#1002);
#823=AXIS2_PLACEMENT_3D('',#1227,#1003,#1004);
#824=AXIS2_PLACEMENT_3D('',#1230,#1006,#1007);
#825=AXIS2_PLACEMENT_3D('',#1231,#1008,#1009);
#826=AXIS2_PLACEMENT_3D('',#1234,#1011,#1012);
#827=AXIS2_PLACEMENT_3D('',#1235,#1013,#1014);
#828=AXIS2_PLACEMENT_3D('',#1238,#1016,#1017);
#829=AXIS2_PLACEMENT_3D('',#1239,#1018,#1019);
#830=AXIS2_PLACEMENT_3D('',#1242,#1021,#1022);
#831=AXIS2_PLACEMENT_3D('',#1243,#1023,#1024);
#832=AXIS2_PLACEMENT_3D('',#1249,#1028,#1029);
#833=AXIS2_PLACEMENT_3D('',#1255,#1033,#1034);
#834=AXIS2_PLACEMENT_3D('',#1261,#1038,#1039);
#835=AXIS2_PLACEMENT_3D('',#1267,#1043,#1044);
#836=AXIS2_PLACEMENT_3D('',#1268,#1045,#1046);
#837=AXIS2_PLACEMENT_3D('',#1269,#1047,#1048);
#838=AXIS2_PLACEMENT_3D('',#1270,#1049,#1050);
#839=AXIS2_PLACEMENT_3D('',#1271,#1051,#1052);
#840=AXIS2_PLACEMENT_3D('',#1274,#1054,#1055);
#841=AXIS2_PLACEMENT_3D('',#1275,#1056,#1057);
#842=AXIS2_PLACEMENT_3D('',#1278,#1059,#1060);
#843=AXIS2_PLACEMENT_3D('',#1279,#1061,#1062);
#844=AXIS2_PLACEMENT_3D('',#1281,#1063,#1064);
#845=AXIS2_PLACEMENT_3D('',#1286,#1069,#1070);
#846=AXIS2_PLACEMENT_3D('',#1288,#1072,#1073);
#847=AXIS2_PLACEMENT_3D('',#1289,#1074,#1075);
#848=AXIS2_PLACEMENT_3D('',#1290,#1076,#1077);
#849=AXIS2_PLACEMENT_3D('',#1291,#1078,#1079);
#850=DIRECTION('axis',(0.,0.,1.));
#851=DIRECTION('refdir',(1.,0.,0.));
#852=DIRECTION('center_axis',(0.,1.,0.));
#853=DIRECTION('ref_axis',(1.,0.,0.));
#854=DIRECTION('center_axis',(0.,1.,0.));
#855=DIRECTION('ref_axis',(1.,0.,0.));
#856=DIRECTION('',(0.,1.,0.));
#857=DIRECTION('center_axis',(0.,1.,0.));
#858=DIRECTION('ref_axis',(1.,0.,0.));
#859=DIRECTION('center_axis',(0.,1.,0.));
#860=DIRECTION('ref_axis',(1.,0.,0.));
#861=DIRECTION('center_axis',(0.,-1.,0.));
#862=DIRECTION('ref_axis',(1.,0.,0.));
#863=DIRECTION('center_axis',(0.,1.,0.));
#864=DIRECTION('ref_axis',(1.,0.,0.));
#865=DIRECTION('center_axis',(0.,1.,0.));
#866=DIRECTION('ref_axis',(1.,0.,0.));
#867=DIRECTION('',(0.,1.,0.));
#868=DIRECTION('center_axis',(0.,1.,0.));
#869=DIRECTION('ref_axis',(1.,0.,0.));
#870=DIRECTION('center_axis',(0.,1.,0.));
#871=DIRECTION('ref_axis',(1.,0.,0.));
#872=DIRECTION('center_axis',(0.,-1.,0.));
#873=DIRECTION('ref_axis',(1.,0.,0.));
#874=DIRECTION('center_axis',(0.,1.,0.));
#875=DIRECTION('ref_axis',(1.,0.,0.));
#876=DIRECTION('center_axis',(0.,1.,0.));
#877=DIRECTION('ref_axis',(1.,0.,0.));
#878=DIRECTION('',(0.,1.,0.));
#879=DIRECTION('center_axis',(0.,1.,0.));
#880=DIRECTION('ref_axis',(1.,0.,0.));
#881=DIRECTION('center_axis',(0.,1.,0.));
#882=DIRECTION('ref_axis',(1.,0.,0.));
#883=DIRECTION('center_axis',(0.,-1.,0.));
#884=DIRECTION('ref_axis',(1.,0.,0.));
#885=DIRECTION('center_axis',(0.,1.,0.));
#886=DIRECTION('ref_axis',(1.,0.,0.));
#887=DIRECTION('center_axis',(0.,1.,0.));
#888=DIRECTION('ref_axis',(1.,0.,0.));
#889=DIRECTION('',(0.,1.,0.));
#890=DIRECTION('center_axis',(0.,1.,0.));
#891=DIRECTION('ref_axis',(1.,0.,0.));
#892=DIRECTION('center_axis',(0.,1.,0.));
#893=DIRECTION('ref_axis',(1.,0.,0.));
#894=DIRECTION('center_axis',(0.,-1.,0.));
#895=DIRECTION('ref_axis',(1.,0.,0.));
#896=DIRECTION('center_axis',(0.,1.,0.));
#897=DIRECTION('ref_axis',(1.,0.,0.));
#898=DIRECTION('center_axis',(0.,1.,0.));
#899=DIRECTION('ref_axis',(1.,0.,0.));
#900=DIRECTION('',(0.,1.,0.));
#901=DIRECTION('center_axis',(0.,1.,0.));
#902=DIRECTION('ref_axis',(1.,0.,0.));
#903=DIRECTION('center_axis',(0.,1.,0.));
#904=DIRECTION('ref_axis',(1.,0.,0.));
#905=DIRECTION('center_axis',(0.,-1.,0.));
#906=DIRECTION('ref_axis',(1.,0.,0.));
#907=DIRECTION('center_axis',(0.,-1.,0.));
#908=DIRECTION('ref_axis',(0.,0.,-1.));
#909=DIRECTION('center_axis',(0.,1.,0.));
#910=DIRECTION('ref_axis',(1.,0.,0.));
#911=DIRECTION('',(0.,0.,-1.));
#912=DIRECTION('',(-1.,0.,0.));
#913=DIRECTION('',(0.,0.,-1.));
#914=DIRECTION('center_axis',(1.,0.,0.));
#915=DIRECTION('ref_axis',(0.,0.,-1.));
#916=DIRECTION('',(0.,-1.,0.));
#917=DIRECTION('',(0.,-1.,0.));
#918=DIRECTION('',(0.,0.,1.));
#919=DIRECTION('center_axis',(0.,0.,1.));
#920=DIRECTION('ref_axis',(1.,0.,0.));
#921=DIRECTION('',(1.,0.,0.));
#922=DIRECTION('',(0.,1.,0.));
#923=DIRECTION('',(1.,0.,0.));
#924=DIRECTION('',(0.,1.,0.));
#925=DIRECTION('center_axis',(-1.,0.,0.));
#926=DIRECTION('ref_axis',(0.,0.,1.));
#927=DIRECTION('',(0.,1.,0.));
#928=DIRECTION('',(0.,0.,-1.));
#929=DIRECTION('',(0.,-1.,0.));
#930=DIRECTION('',(0.,0.,-1.));
#931=DIRECTION('center_axis',(0.,1.,0.));
#932=DIRECTION('ref_axis',(-1.,0.,-1.22464679914735E-16));
#933=DIRECTION('center_axis',(0.,-1.,0.));
#934=DIRECTION('ref_axis',(1.,0.,0.));
#935=DIRECTION('',(0.,-1.,0.));
#936=DIRECTION('center_axis',(0.,1.,0.));
#937=DIRECTION('ref_axis',(1.,0.,0.));
#938=DIRECTION('',(0.,1.,0.));
#939=DIRECTION('center_axis',(0.,-1.,0.));
#940=DIRECTION('ref_axis',(1.,0.,0.));
#941=DIRECTION('center_axis',(0.,1.,0.));
#942=DIRECTION('ref_axis',(0.,0.,1.));
#943=DIRECTION('center_axis',(0.,1.,0.));
#944=DIRECTION('ref_axis',(1.,0.,0.));
#945=DIRECTION('center_axis',(0.,1.,0.));
#946=DIRECTION('ref_axis',(1.,0.,0.));
#947=DIRECTION('',(1.,0.,0.));
#948=DIRECTION('',(0.,0.,-1.));
#949=DIRECTION('center_axis',(0.,1.,0.));
#950=DIRECTION('ref_axis',(1.,0.,0.));
#951=DIRECTION('',(0.,0.,-1.));
#952=DIRECTION('',(1.,0.,0.));
#953=DIRECTION('center_axis',(0.,1.,0.));
#954=DIRECTION('ref_axis',(1.,0.,0.));
#955=DIRECTION('center_axis',(0.,1.,0.));
#956=DIRECTION('ref_axis',(-0.746383196577505,0.,0.665516433956927));
#957=DIRECTION('center_axis',(0.,1.,0.));
#958=DIRECTION('ref_axis',(1.,0.,0.));
#959=DIRECTION('',(0.,1.,0.));
#960=DIRECTION('center_axis',(0.,1.,0.));
#961=DIRECTION('ref_axis',(1.,0.,0.));
#962=DIRECTION('center_axis',(0.,1.,0.));
#963=DIRECTION('ref_axis',(1.,0.,0.));
#964=DIRECTION('center_axis',(0.,-1.,0.));
#965=DIRECTION('ref_axis',(1.,0.,0.));
#966=DIRECTION('center_axis',(0.,-1.,0.));
#967=DIRECTION('ref_axis',(1.,0.,0.));
#968=DIRECTION('center_axis',(0.,-1.,0.));
#969=DIRECTION('ref_axis',(1.,0.,0.));
#970=DIRECTION('center_axis',(0.,1.,0.));
#971=DIRECTION('ref_axis',(-1.,0.,-1.22464679914735E-16));
#972=DIRECTION('',(0.,-1.,0.));
#973=DIRECTION('center_axis',(0.,-1.,0.));
#974=DIRECTION('ref_axis',(1.,0.,0.));
#975=DIRECTION('',(0.,1.,0.));
#976=DIRECTION('center_axis',(0.,1.,0.));
#977=DIRECTION('ref_axis',(1.,0.,0.));
#978=DIRECTION('center_axis',(0.,1.,0.));
#979=DIRECTION('ref_axis',(1.,0.,0.));
#980=DIRECTION('',(0.,-1.,0.));
#981=DIRECTION('center_axis',(0.,1.,0.));
#982=DIRECTION('ref_axis',(0.,0.,1.));
#983=DIRECTION('',(-1.,0.,0.));
#984=DIRECTION('',(0.,0.,-1.));
#985=DIRECTION('center_axis',(0.,1.,0.));
#986=DIRECTION('ref_axis',(1.,0.,0.));
#987=DIRECTION('',(0.,0.,-1.));
#988=DIRECTION('',(-1.,0.,0.));
#989=DIRECTION('center_axis',(0.,1.,0.));
#990=DIRECTION('ref_axis',(1.,0.,0.));
#991=DIRECTION('center_axis',(0.,1.,0.));
#992=DIRECTION('ref_axis',(1.,0.,0.));
#993=DIRECTION('center_axis',(0.,1.,0.));
#994=DIRECTION('ref_axis',(1.,0.,0.));
#995=DIRECTION('center_axis',(0.,-1.,0.));
#996=DIRECTION('ref_axis',(1.,0.,0.));
#997=DIRECTION('',(0.,-1.,0.));
#998=DIRECTION('center_axis',(0.,1.,0.));
#999=DIRECTION('ref_axis',(1.,0.,0.));
#1000=DIRECTION('',(0.,1.,0.));
#1001=DIRECTION('center_axis',(0.,-1.,0.));
#1002=DIRECTION('ref_axis',(1.,0.,0.));
#1003=DIRECTION('center_axis',(0.,1.,0.));
#1004=DIRECTION('ref_axis',(1.,0.,0.));
#1005=DIRECTION('',(0.,1.,0.));
#1006=DIRECTION('center_axis',(0.,-1.,0.));
#1007=DIRECTION('ref_axis',(1.,0.,0.));
#1008=DIRECTION('center_axis',(0.,1.,0.));
#1009=DIRECTION('ref_axis',(1.,0.,0.));
#1010=DIRECTION('',(0.,1.,0.));
#1011=DIRECTION('center_axis',(0.,-1.,0.));
#1012=DIRECTION('ref_axis',(1.,0.,0.));
#1013=DIRECTION('center_axis',(0.,1.,0.));
#1014=DIRECTION('ref_axis',(1.,0.,0.));
#1015=DIRECTION('',(0.,1.,0.));
#1016=DIRECTION('center_axis',(0.,-1.,0.));
#1017=DIRECTION('ref_axis',(1.,0.,0.));
#1018=DIRECTION('center_axis',(0.,1.,0.));
#1019=DIRECTION('ref_axis',(1.,0.,0.));
#1020=DIRECTION('',(0.,1.,0.));
#1021=DIRECTION('center_axis',(0.,-1.,0.));
#1022=DIRECTION('ref_axis',(1.,0.,0.));
#1023=DIRECTION('center_axis',(-1.,0.,0.));
#1024=DIRECTION('ref_axis',(0.,0.,1.));
#1025=DIRECTION('',(0.,1.,0.));
#1026=DIRECTION('',(0.,0.,1.));
#1027=DIRECTION('',(0.,-1.,0.));
#1028=DIRECTION('center_axis',(-1.,0.,0.));
#1029=DIRECTION('ref_axis',(0.,0.,1.));
#1030=DIRECTION('',(0.,-1.,0.));
#1031=DIRECTION('',(0.,1.,0.));
#1032=DIRECTION('',(0.,0.,1.));
#1033=DIRECTION('center_axis',(-1.,0.,0.));
#1034=DIRECTION('ref_axis',(0.,0.,1.));
#1035=DIRECTION('',(0.,1.,0.));
#1036=DIRECTION('',(0.,0.,1.));
#1037=DIRECTION('',(0.,-1.,0.));
#1038=DIRECTION('center_axis',(-1.,0.,0.));
#1039=DIRECTION('ref_axis',(0.,0.,1.));
#1040=DIRECTION('',(0.,-1.,0.));
#1041=DIRECTION('',(0.,1.,0.));
#1042=DIRECTION('',(0.,0.,1.));
#1043=DIRECTION('center_axis',(0.,1.,0.));
#1044=DIRECTION('ref_axis',(-1.,0.,-1.22464679914735E-16));
#1045=DIRECTION('center_axis',(0.,-1.,0.));
#1046=DIRECTION('ref_axis',(1.,0.,0.));
#1047=DIRECTION('center_axis',(0.,1.,0.));
#1048=DIRECTION('ref_axis',(-1.,0.,-1.22464679914735E-16));
#1049=DIRECTION('center_axis',(0.,-1.,0.));
#1050=DIRECTION('ref_axis',(1.,0.,0.));
#1051=DIRECTION('center_axis',(0.,1.,0.));
#1052=DIRECTION('ref_axis',(1.,0.,0.));
#1053=DIRECTION('',(0.,1.,0.));
#1054=DIRECTION('center_axis',(0.,-1.,0.));
#1055=DIRECTION('ref_axis',(1.,0.,0.));
#1056=DIRECTION('center_axis',(0.,1.,0.));
#1057=DIRECTION('ref_axis',(1.,0.,0.));
#1058=DIRECTION('',(0.,1.,0.));
#1059=DIRECTION('center_axis',(0.,-1.,0.));
#1060=DIRECTION('ref_axis',(1.,0.,0.));
#1061=DIRECTION('center_axis',(0.,-1.,0.));
#1062=DIRECTION('ref_axis',(0.,0.,-1.));
#1063=DIRECTION('center_axis',(0.,-1.,0.));
#1064=DIRECTION('ref_axis',(1.,0.,0.));
#1065=DIRECTION('',(1.,0.,0.));
#1066=DIRECTION('',(1.,0.,0.));
#1067=DIRECTION('',(-1.,0.,0.));
#1068=DIRECTION('',(-1.,0.,0.));
#1069=DIRECTION('center_axis',(0.,1.,0.));
#1070=DIRECTION('ref_axis',(1.,0.,0.));
#1071=DIRECTION('',(0.,1.,0.));
#1072=DIRECTION('center_axis',(0.,0.,1.));
#1073=DIRECTION('ref_axis',(1.,0.,0.));
#1074=DIRECTION('center_axis',(0.,0.,1.));
#1075=DIRECTION('ref_axis',(1.,0.,0.));
#1076=DIRECTION('center_axis',(0.,0.,1.));
#1077=DIRECTION('ref_axis',(1.,0.,0.));
#1078=DIRECTION('center_axis',(0.,0.,1.));
#1079=DIRECTION('ref_axis',(1.,0.,0.));
#1080=CARTESIAN_POINT('',(0.,0.,0.));
#1081=CARTESIAN_POINT('Origin',(-21.,53.45,203.626933041054));
#1082=CARTESIAN_POINT('',(-24.25,49.5,203.626933041054));
#1083=CARTESIAN_POINT('Origin',(-21.,49.5,203.626933041054));
#1084=CARTESIAN_POINT('',(-24.25,57.5,203.626933041054));
#1085=CARTESIAN_POINT('',(-24.25,53.45,203.626933041054));
#1086=CARTESIAN_POINT('Origin',(-21.,57.5,203.626933041054));
#1087=CARTESIAN_POINT('Origin',(-21.,57.5,203.626933041054));
#1088=CARTESIAN_POINT('',(-23.7,57.5,203.626933041054));
#1089=CARTESIAN_POINT('Origin',(-21.,57.5,203.626933041054));
#1090=CARTESIAN_POINT('Origin',(-21.,53.45,276.373066958946));
#1091=CARTESIAN_POINT('',(-24.25,49.5,276.373066958946));
#1092=CARTESIAN_POINT('Origin',(-21.,49.5,276.373066958946));
#1093=CARTESIAN_POINT('',(-24.25,57.5,276.373066958946));
#1094=CARTESIAN_POINT('',(-24.25,53.45,276.373066958946));
#1095=CARTESIAN_POINT('Origin',(-21.,57.5,276.373066958946));
#1096=CARTESIAN_POINT('Origin',(-21.,57.5,276.373066958946));
#1097=CARTESIAN_POINT('',(-23.7,57.5,276.373066958946));
#1098=CARTESIAN_POINT('Origin',(-21.,57.5,276.373066958946));
#1099=CARTESIAN_POINT('Origin',(21.,53.45,276.373066958946));
#1100=CARTESIAN_POINT('',(17.75,49.5,276.373066958946));
#1101=CARTESIAN_POINT('Origin',(21.,49.5,276.373066958946));
#1102=CARTESIAN_POINT('',(17.75,57.5,276.373066958946));
#1103=CARTESIAN_POINT('',(17.75,53.45,276.373066958946));
#1104=CARTESIAN_POINT('Origin',(21.,57.5,276.373066958946));
#1105=CARTESIAN_POINT('Origin',(21.,57.5,276.373066958946));
#1106=CARTESIAN_POINT('',(18.3,57.5,276.373066958946));
#1107=CARTESIAN_POINT('Origin',(21.,57.5,276.373066958946));
#1108=CARTESIAN_POINT('Origin',(-42.,53.45,240.));
#1109=CARTESIAN_POINT('',(-45.25,49.5,240.));
#1110=CARTESIAN_POINT('Origin',(-42.,49.5,240.));
#1111=CARTESIAN_POINT('',(-45.25,57.5,240.));
#1112=CARTESIAN_POINT('',(-45.25,53.45,240.));
#1113=CARTESIAN_POINT('Origin',(-42.,57.5,240.));
#1114=CARTESIAN_POINT('Origin',(-42.,57.5,240.));
#1115=CARTESIAN_POINT('',(-44.7,57.5,240.));
#1116=CARTESIAN_POINT('Origin',(-42.,57.5,240.));
#1117=CARTESIAN_POINT('Origin',(21.,53.45,203.626933041054));
#1118=CARTESIAN_POINT('',(17.75,49.5,203.626933041054));
#1119=CARTESIAN_POINT('Origin',(21.,49.5,203.626933041054));
#1120=CARTESIAN_POINT('',(17.75,57.5,203.626933041054));
#1121=CARTESIAN_POINT('',(17.75,53.45,203.626933041054));
#1122=CARTESIAN_POINT('Origin',(21.,57.5,203.626933041054));
#1123=CARTESIAN_POINT('Origin',(21.,57.5,203.626933041054));
#1124=CARTESIAN_POINT('',(18.3,57.5,203.626933041054));
#1125=CARTESIAN_POINT('Origin',(21.,57.5,203.626933041054));
#1126=CARTESIAN_POINT('Origin',(-15.,54.,191.));
#1127=CARTESIAN_POINT('',(-8.,54.,188.619069685339));
#1128=CARTESIAN_POINT('',(-22.,54.,192.883124042441));
#1129=CARTESIAN_POINT('Origin',(0.,54.,240.));
#1130=CARTESIAN_POINT('',(-8.,54.,195.5));
#1131=CARTESIAN_POINT('',(-8.,54.,191.));
#1132=CARTESIAN_POINT('',(-22.,54.,195.5));
#1133=CARTESIAN_POINT('',(-15.,54.,195.5));
#1134=CARTESIAN_POINT('',(-22.,54.,191.));
#1135=CARTESIAN_POINT('Origin',(-22.,48.45,191.));
#1136=CARTESIAN_POINT('',(-22.,44.,192.883124042441));
#1137=CARTESIAN_POINT('',(-22.,52.,192.883124042441));
#1138=CARTESIAN_POINT('',(-22.,44.,195.5));
#1139=CARTESIAN_POINT('',(-22.,48.45,195.5));
#1140=CARTESIAN_POINT('',(-22.,44.,215.5));
#1141=CARTESIAN_POINT('Origin',(-15.,48.45,195.5));
#1142=CARTESIAN_POINT('',(-19.537400031734,49.5,195.5));
#1143=CARTESIAN_POINT('',(-8.,49.5,195.5));
#1144=CARTESIAN_POINT('',(-7.5,49.5,195.5));
#1145=CARTESIAN_POINT('',(-19.537400031734,44.,195.5));
#1146=CARTESIAN_POINT('',(-19.537400031734,46.2,195.5));
#1147=CARTESIAN_POINT('',(60.,44.,195.5));
#1148=CARTESIAN_POINT('',(-8.,48.45,195.5));
#1149=CARTESIAN_POINT('Origin',(-8.,48.45,191.));
#1150=CARTESIAN_POINT('',(-8.,44.,188.619069685339));
#1151=CARTESIAN_POINT('',(-8.,52.,188.619069685339));
#1152=CARTESIAN_POINT('',(-8.,44.,192.062957955251));
#1153=CARTESIAN_POINT('',(-8.00000000000001,44.,215.5));
#1154=CARTESIAN_POINT('',(-8.,49.5,192.062957955251));
#1155=CARTESIAN_POINT('',(-8.,46.2,192.062957955251));
#1156=CARTESIAN_POINT('',(-8.,49.5,215.5));
#1157=CARTESIAN_POINT('Origin',(0.,52.,240.));
#1158=CARTESIAN_POINT('',(20.,44.,288.));
#1159=CARTESIAN_POINT('Origin',(0.,44.,240.));
#1160=CARTESIAN_POINT('',(20.,60.,288.));
#1161=CARTESIAN_POINT('',(20.,52.,288.));
#1162=CARTESIAN_POINT('',(20.,60.,192.));
#1163=CARTESIAN_POINT('Origin',(0.,60.,240.));
#1164=CARTESIAN_POINT('',(20.,44.,192.));
#1165=CARTESIAN_POINT('',(20.,52.,192.));
#1166=CARTESIAN_POINT('Origin',(0.,44.,240.));
#1167=CARTESIAN_POINT('Origin',(135.,44.,240.));
#1168=CARTESIAN_POINT('',(41.9782978723404,44.,264.490457483295));
#1169=CARTESIAN_POINT('Origin',(0.,44.,240.));
#1170=CARTESIAN_POINT('',(47.,44.,265.));
#1171=CARTESIAN_POINT('Origin',(47.,44.,240.));
#1172=CARTESIAN_POINT('',(135.,44.,265.));
#1173=CARTESIAN_POINT('',(135.,44.,265.));
#1174=CARTESIAN_POINT('',(135.,44.,275.8));
#1175=CARTESIAN_POINT('',(135.,44.,240.));
#1176=CARTESIAN_POINT('',(135.,44.,280.2));
#1177=CARTESIAN_POINT('Origin',(135.,44.,278.));
#1178=CARTESIAN_POINT('',(135.,44.,288.));
#1179=CARTESIAN_POINT('',(135.,44.,240.));
#1180=CARTESIAN_POINT('',(135.,44.,288.));
#1181=CARTESIAN_POINT('',(52.8,44.,278.));
#1182=CARTESIAN_POINT('Origin',(55.,44.,278.));
#1183=CARTESIAN_POINT('Origin',(0.,46.2,240.));
#1184=CARTESIAN_POINT('',(41.9782978723404,49.5,264.490457483295));
#1185=CARTESIAN_POINT('Origin',(0.,49.5,240.));
#1186=CARTESIAN_POINT('',(41.9782978723404,46.2,264.490457483295));
#1187=CARTESIAN_POINT('Origin',(0.,49.5,240.));
#1188=CARTESIAN_POINT('',(41.9782978723404,49.5,215.509542516705));
#1189=CARTESIAN_POINT('Origin',(0.,49.5,240.));
#1190=CARTESIAN_POINT('',(23.2367021276596,49.5,232.234327187525));
#1191=CARTESIAN_POINT('Origin',(47.,49.5,240.));
#1192=CARTESIAN_POINT('',(23.2367021276596,49.5,247.765672812475));
#1193=CARTESIAN_POINT('Origin',(0.,49.5,240.));
#1194=CARTESIAN_POINT('Origin',(47.,49.5,240.));
#1195=CARTESIAN_POINT('Origin',(0.,54.75,240.));
#1196=CARTESIAN_POINT('',(23.2367021276596,60.,232.234327187525));
#1197=CARTESIAN_POINT('',(23.2367021276596,54.75,232.234327187525));
#1198=CARTESIAN_POINT('',(23.2367021276596,60.,247.765672812475));
#1199=CARTESIAN_POINT('Origin',(0.,60.,240.));
#1200=CARTESIAN_POINT('',(23.2367021276596,54.75,247.765672812475));
#1201=CARTESIAN_POINT('Origin',(0.,46.2,240.));
#1202=CARTESIAN_POINT('',(41.9782978723404,44.,215.509542516705));
#1203=CARTESIAN_POINT('Origin',(0.,44.,240.));
#1204=CARTESIAN_POINT('',(41.9782978723404,46.2,215.509542516705));
#1205=CARTESIAN_POINT('Origin',(135.,44.,240.));
#1206=CARTESIAN_POINT('',(135.,44.,192.));
#1207=CARTESIAN_POINT('',(135.,44.,192.));
#1208=CARTESIAN_POINT('',(135.,44.,199.8));
#1209=CARTESIAN_POINT('',(135.,44.,240.));
#1210=CARTESIAN_POINT('',(135.,44.,204.2));
#1211=CARTESIAN_POINT('Origin',(135.,44.,202.));
#1212=CARTESIAN_POINT('',(135.,44.,215.));
#1213=CARTESIAN_POINT('',(135.,44.,240.));
#1214=CARTESIAN_POINT('',(47.,44.,215.));
#1215=CARTESIAN_POINT('',(135.,44.,215.));
#1216=CARTESIAN_POINT('Origin',(47.,44.,240.));
#1217=CARTESIAN_POINT('',(52.8,44.,202.));
#1218=CARTESIAN_POINT('Origin',(55.,44.,202.));
#1219=CARTESIAN_POINT('Origin',(47.,52.,240.));
#1220=CARTESIAN_POINT('',(47.,60.,265.));
#1221=CARTESIAN_POINT('Origin',(47.,60.,240.));
#1222=CARTESIAN_POINT('',(47.,52.,265.));
#1223=CARTESIAN_POINT('Origin',(21.,50.5,203.626933041054));
#1224=CARTESIAN_POINT('',(18.3,60.,203.626933041054));
#1225=CARTESIAN_POINT('',(18.3,50.5,203.626933041054));
#1226=CARTESIAN_POINT('Origin',(21.,60.,203.626933041054));
#1227=CARTESIAN_POINT('Origin',(-21.,50.5,203.626933041054));
#1228=CARTESIAN_POINT('',(-23.7,60.,203.626933041054));
#1229=CARTESIAN_POINT('',(-23.7,50.5,203.626933041054));
#1230=CARTESIAN_POINT('Origin',(-21.,60.,203.626933041054));
#1231=CARTESIAN_POINT('Origin',(-42.,50.5,240.));
#1232=CARTESIAN_POINT('',(-44.7,60.,240.));
#1233=CARTESIAN_POINT('',(-44.7,50.5,240.));
#1234=CARTESIAN_POINT('Origin',(-42.,60.,240.));
#1235=CARTESIAN_POINT('Origin',(-21.,50.5,276.373066958946));
#1236=CARTESIAN_POINT('',(-23.7,60.,276.373066958946));
#1237=CARTESIAN_POINT('',(-23.7,50.5,276.373066958946));
#1238=CARTESIAN_POINT('Origin',(-21.,60.,276.373066958946));
#1239=CARTESIAN_POINT('Origin',(21.,50.5,276.373066958946));
#1240=CARTESIAN_POINT('',(18.3,60.,276.373066958946));
#1241=CARTESIAN_POINT('',(18.3,50.5,276.373066958946));
#1242=CARTESIAN_POINT('Origin',(21.,60.,276.373066958946));
#1243=CARTESIAN_POINT('Origin',(135.,52.,240.));
#1244=CARTESIAN_POINT('',(135.,60.,204.2));
#1245=CARTESIAN_POINT('',(135.,52.,204.2));
#1246=CARTESIAN_POINT('',(135.,60.,215.));
#1247=CARTESIAN_POINT('',(135.,60.,240.));
#1248=CARTESIAN_POINT('',(135.,52.,215.));
#1249=CARTESIAN_POINT('Origin',(135.,52.,240.));
#1250=CARTESIAN_POINT('',(135.,60.,199.8));
#1251=CARTESIAN_POINT('',(135.,52.,199.8));
#1252=CARTESIAN_POINT('',(135.,60.,192.));
#1253=CARTESIAN_POINT('',(135.,52.,192.));
#1254=CARTESIAN_POINT('',(135.,60.,240.));
#1255=CARTESIAN_POINT('Origin',(135.,52.,240.));
#1256=CARTESIAN_POINT('',(135.,60.,280.2));
#1257=CARTESIAN_POINT('',(135.,52.,280.2));
#1258=CARTESIAN_POINT('',(135.,60.,288.));
#1259=CARTESIAN_POINT('',(135.,60.,240.));
#1260=CARTESIAN_POINT('',(135.,52.,288.));
#1261=CARTESIAN_POINT('Origin',(135.,52.,240.));
#1262=CARTESIAN_POINT('',(135.,60.,275.8));
#1263=CARTESIAN_POINT('',(135.,52.,275.8));
#1264=CARTESIAN_POINT('',(135.,60.,265.));
#1265=CARTESIAN_POINT('',(135.,52.,265.));
#1266=CARTESIAN_POINT('',(135.,60.,240.));
#1267=CARTESIAN_POINT('Origin',(135.,52.,278.));
#1268=CARTESIAN_POINT('Origin',(135.,60.,278.));
#1269=CARTESIAN_POINT('Origin',(135.,52.,202.));
#1270=CARTESIAN_POINT('Origin',(135.,60.,202.));
#1271=CARTESIAN_POINT('Origin',(55.,52.,278.));
#1272=CARTESIAN_POINT('',(52.8,60.,278.));
#1273=CARTESIAN_POINT('',(52.8,52.,278.));
#1274=CARTESIAN_POINT('Origin',(55.,60.,278.));
#1275=CARTESIAN_POINT('Origin',(55.,52.,202.));
#1276=CARTESIAN_POINT('',(52.8,60.,202.));
#1277=CARTESIAN_POINT('',(52.8,52.,202.));
#1278=CARTESIAN_POINT('Origin',(55.,60.,202.));
#1279=CARTESIAN_POINT('Origin',(135.,60.,240.));
#1280=CARTESIAN_POINT('',(47.,60.,215.));
#1281=CARTESIAN_POINT('Origin',(47.,60.,240.));
#1282=CARTESIAN_POINT('',(135.,60.,215.));
#1283=CARTESIAN_POINT('',(135.,60.,192.));
#1284=CARTESIAN_POINT('',(135.,60.,288.));
#1285=CARTESIAN_POINT('',(135.,60.,265.));
#1286=CARTESIAN_POINT('Origin',(47.,52.,240.));
#1287=CARTESIAN_POINT('',(47.,52.,215.));
#1288=CARTESIAN_POINT('Origin',(135.,52.,215.));
#1289=CARTESIAN_POINT('Origin',(135.,52.,265.));
#1290=CARTESIAN_POINT('Origin',(135.,52.,192.));
#1291=CARTESIAN_POINT('Origin',(135.,52.,288.));
#1292=UNCERTAINTY_MEASURE_WITH_UNIT(LENGTH_MEASURE(0.01),#1296,
'DISTANCE_ACCURACY_VALUE',
'Maximum model space distance between geometric entities at asserted c
onnectivities');
#1293=UNCERTAINTY_MEASURE_WITH_UNIT(LENGTH_MEASURE(0.01),#1296,
'DISTANCE_ACCURACY_VALUE',
'Maximum model space distance between geometric entities at asserted c
onnectivities');
#1294=(
GEOMETRIC_REPRESENTATION_CONTEXT(3)
GLOBAL_UNCERTAINTY_ASSIGNED_CONTEXT((#1292))
GLOBAL_UNIT_ASSIGNED_CONTEXT((#1296,#1298,#1299))
REPRESENTATION_CONTEXT('','3D')
);
#1295=(
GEOMETRIC_REPRESENTATION_CONTEXT(3)
GLOBAL_UNCERTAINTY_ASSIGNED_CONTEXT((#1293))
GLOBAL_UNIT_ASSIGNED_CONTEXT((#1296,#1298,#1299))
REPRESENTATION_CONTEXT('','3D')
);
#1296=(
LENGTH_UNIT()
NAMED_UNIT(*)
SI_UNIT(.MILLI.,.METRE.)
);
#1297=(
LENGTH_UNIT()
NAMED_UNIT(*)
SI_UNIT($,.METRE.)
);
#1298=(
NAMED_UNIT(*)
PLANE_ANGLE_UNIT()
SI_UNIT($,.RADIAN.)
);
#1299=(
NAMED_UNIT(*)
SI_UNIT($,.STERADIAN.)
SOLID_ANGLE_UNIT()
);
#1300=SHAPE_DEFINITION_REPRESENTATION(#1301,#1302);
#1301=PRODUCT_DEFINITION_SHAPE('',$,#1304);
#1302=SHAPE_REPRESENTATION('',(#764),#1294);
#1303=PRODUCT_DEFINITION_CONTEXT('part definition',#1308,'design');
#1304=PRODUCT_DEFINITION('2026-08-31-20-24-00-364','EXPORT_TMP',#1305,#1303);
#1305=PRODUCT_DEFINITION_FORMATION('',$,#1310);
#1306=PRODUCT_RELATED_PRODUCT_CATEGORY('EXPORT_TMP','EXPORT_TMP',(#1310));
#1307=APPLICATION_PROTOCOL_DEFINITION('international standard',
'automotive_design',2009,#1308);
#1308=APPLICATION_CONTEXT(
'Core Data for Automotive Mechanical Design Process');
#1309=PRODUCT_CONTEXT('part definition',#1308,'mechanical');
#1310=PRODUCT('2026-08-31-20-24-00-364','EXPORT_TMP',$,(#1309));
#1311=PRESENTATION_STYLE_ASSIGNMENT((#1312));
#1312=SURFACE_STYLE_USAGE(.BOTH.,#1313);
#1313=SURFACE_SIDE_STYLE('',(#1314));
#1314=SURFACE_STYLE_FILL_AREA(#1315);
#1315=FILL_AREA_STYLE('Steel - Satin',(#1316));
#1316=FILL_AREA_STYLE_COLOUR('Steel - Satin',#1317);
#1317=COLOUR_RGB('Steel - Satin',0.627450980392157,0.627450980392157,0.627450980392157);
ENDSEC;
END-ISO-10303-21;
