ISO-10303-21;
HEADER;
/* Generated by software containing ST-Developer
 * from STEP Tools, Inc. (www.steptools.com) 
 */

FILE_DESCRIPTION(
/* description */ (''),
/* implementation_level */ '2;1');

FILE_NAME(
/* name */ 
'PRINT_V010J_P214_UpperArmCheek_Right_B_6807InnerShoulder_M3Pilots.ste
p',
/* time_stamp */ '2026-09-30T18:58:24+02:00',
/* author */ (''),
/* organization */ (''),
/* preprocessor_version */ 'ST-DEVELOPER v20.2',
/* originating_system */ 'Autodesk Translation Framework v15.15.0.0',
/* authorisation */ '');

FILE_SCHEMA (('AUTOMOTIVE_DESIGN { 1 0 10303 214 3 1 1 }'));
ENDSEC;

DATA;
#10=MECHANICAL_DESIGN_GEOMETRIC_PRESENTATION_REPRESENTATION('',(#13),#1142);
#11=SHAPE_REPRESENTATION_RELATIONSHIP('SRR','None',#1149,#12);
#12=ADVANCED_BREP_SHAPE_REPRESENTATION('',(#14),#1141);
#13=STYLED_ITEM('',(#1158),#14);
#14=MANIFOLD_SOLID_BREP(
'PRINT_V010J_P214_UpperArmCheek_Right_B_6807InnerShoulder_M3Pilots',#650);
#15=FACE_BOUND('',#94,.T.);
#16=FACE_BOUND('',#97,.T.);
#17=FACE_BOUND('',#108,.T.);
#18=FACE_BOUND('',#111,.T.);
#19=FACE_BOUND('',#121,.T.);
#20=FACE_BOUND('',#122,.T.);
#21=FACE_BOUND('',#123,.T.);
#22=FACE_BOUND('',#124,.T.);
#23=FACE_BOUND('',#125,.T.);
#24=FACE_BOUND('',#126,.T.);
#25=FACE_BOUND('',#127,.T.);
#26=FACE_BOUND('',#128,.T.);
#27=FACE_BOUND('',#134,.T.);
#28=FACE_BOUND('',#135,.T.);
#29=PLANE('',#667);
#30=PLANE('',#671);
#31=PLANE('',#675);
#32=PLANE('',#679);
#33=PLANE('',#683);
#34=PLANE('',#687);
#35=PLANE('',#691);
#36=PLANE('',#695);
#37=PLANE('',#699);
#38=PLANE('',#706);
#39=PLANE('',#717);
#40=PLANE('',#718);
#41=PLANE('',#719);
#42=PLANE('',#720);
#43=PLANE('',#724);
#44=PLANE('',#738);
#45=PLANE('',#740);
#46=PLANE('',#741);
#47=PLANE('',#743);
#48=PLANE('',#744);
#49=FACE_OUTER_BOUND('',#88,.T.);
#50=FACE_OUTER_BOUND('',#89,.T.);
#51=FACE_OUTER_BOUND('',#90,.T.);
#52=FACE_OUTER_BOUND('',#91,.T.);
#53=FACE_OUTER_BOUND('',#92,.T.);
#54=FACE_OUTER_BOUND('',#93,.T.);
#55=FACE_OUTER_BOUND('',#95,.T.);
#56=FACE_OUTER_BOUND('',#96,.T.);
#57=FACE_OUTER_BOUND('',#98,.T.);
#58=FACE_OUTER_BOUND('',#99,.T.);
#59=FACE_OUTER_BOUND('',#100,.T.);
#60=FACE_OUTER_BOUND('',#101,.T.);
#61=FACE_OUTER_BOUND('',#102,.T.);
#62=FACE_OUTER_BOUND('',#103,.T.);
#63=FACE_OUTER_BOUND('',#104,.T.);
#64=FACE_OUTER_BOUND('',#105,.T.);
#65=FACE_OUTER_BOUND('',#106,.T.);
#66=FACE_OUTER_BOUND('',#107,.T.);
#67=FACE_OUTER_BOUND('',#109,.T.);
#68=FACE_OUTER_BOUND('',#110,.T.);
#69=FACE_OUTER_BOUND('',#112,.T.);
#70=FACE_OUTER_BOUND('',#113,.T.);
#71=FACE_OUTER_BOUND('',#114,.T.);
#72=FACE_OUTER_BOUND('',#115,.T.);
#73=FACE_OUTER_BOUND('',#116,.T.);
#74=FACE_OUTER_BOUND('',#117,.T.);
#75=FACE_OUTER_BOUND('',#118,.T.);
#76=FACE_OUTER_BOUND('',#119,.T.);
#77=FACE_OUTER_BOUND('',#120,.T.);
#78=FACE_OUTER_BOUND('',#129,.T.);
#79=FACE_OUTER_BOUND('',#130,.T.);
#80=FACE_OUTER_BOUND('',#131,.T.);
#81=FACE_OUTER_BOUND('',#132,.T.);
#82=FACE_OUTER_BOUND('',#133,.T.);
#83=FACE_OUTER_BOUND('',#136,.T.);
#84=FACE_OUTER_BOUND('',#137,.T.);
#85=FACE_OUTER_BOUND('',#138,.T.);
#86=FACE_OUTER_BOUND('',#139,.T.);
#87=FACE_OUTER_BOUND('',#140,.T.);
#88=EDGE_LOOP('',(#418,#419,#420,#421));
#89=EDGE_LOOP('',(#422));
#90=EDGE_LOOP('',(#423,#424,#425,#426));
#91=EDGE_LOOP('',(#427));
#92=EDGE_LOOP('',(#428,#429,#430,#431));
#93=EDGE_LOOP('',(#432));
#94=EDGE_LOOP('',(#433));
#95=EDGE_LOOP('',(#434,#435,#436,#437));
#96=EDGE_LOOP('',(#438));
#97=EDGE_LOOP('',(#439));
#98=EDGE_LOOP('',(#440,#441,#442,#443));
#99=EDGE_LOOP('',(#444));
#100=EDGE_LOOP('',(#445,#446,#447,#448));
#101=EDGE_LOOP('',(#449));
#102=EDGE_LOOP('',(#450,#451,#452,#453));
#103=EDGE_LOOP('',(#454));
#104=EDGE_LOOP('',(#455,#456,#457,#458));
#105=EDGE_LOOP('',(#459));
#106=EDGE_LOOP('',(#460,#461,#462,#463));
#107=EDGE_LOOP('',(#464,#465,#466,#467));
#108=EDGE_LOOP('',(#468));
#109=EDGE_LOOP('',(#469,#470,#471,#472));
#110=EDGE_LOOP('',(#473,#474,#475,#476));
#111=EDGE_LOOP('',(#477));
#112=EDGE_LOOP('',(#478,#479,#480,#481,#482,#483,#484,#485));
#113=EDGE_LOOP('',(#486,#487,#488,#489));
#114=EDGE_LOOP('',(#490,#491,#492,#493));
#115=EDGE_LOOP('',(#494,#495,#496,#497));
#116=EDGE_LOOP('',(#498,#499,#500,#501));
#117=EDGE_LOOP('',(#502,#503,#504,#505));
#118=EDGE_LOOP('',(#506,#507,#508,#509));
#119=EDGE_LOOP('',(#510,#511,#512,#513));
#120=EDGE_LOOP('',(#514,#515,#516,#517,#518,#519,#520,#521,#522,#523,#524,
#525,#526,#527));
#121=EDGE_LOOP('',(#528));
#122=EDGE_LOOP('',(#529));
#123=EDGE_LOOP('',(#530));
#124=EDGE_LOOP('',(#531));
#125=EDGE_LOOP('',(#532));
#126=EDGE_LOOP('',(#533));
#127=EDGE_LOOP('',(#534));
#128=EDGE_LOOP('',(#535));
#129=EDGE_LOOP('',(#536,#537,#538,#539));
#130=EDGE_LOOP('',(#540,#541,#542,#543));
#131=EDGE_LOOP('',(#544,#545,#546,#547));
#132=EDGE_LOOP('',(#548,#549,#550,#551,#552,#553,#554,#555));
#133=EDGE_LOOP('',(#556,#557,#558,#559,#560,#561,#562,#563,#564,#565,#566,
#567,#568,#569));
#134=EDGE_LOOP('',(#570));
#135=EDGE_LOOP('',(#571));
#136=EDGE_LOOP('',(#572,#573,#574,#575));
#137=EDGE_LOOP('',(#576,#577,#578,#579));
#138=EDGE_LOOP('',(#580,#581,#582,#583));
#139=EDGE_LOOP('',(#584,#585,#586,#587));
#140=EDGE_LOOP('',(#588,#589,#590,#591));
#141=LINE('',#959,#186);
#142=LINE('',#966,#187);
#143=LINE('',#973,#188);
#144=LINE('',#980,#189);
#145=LINE('',#987,#190);
#146=LINE('',#994,#191);
#147=LINE('',#1001,#192);
#148=LINE('',#1008,#193);
#149=LINE('',#1014,#194);
#150=LINE('',#1018,#195);
#151=LINE('',#1031,#196);
#152=LINE('',#1040,#197);
#153=LINE('',#1044,#198);
#154=LINE('',#1047,#199);
#155=LINE('',#1050,#200);
#156=LINE('',#1055,#201);
#157=LINE('',#1059,#202);
#158=LINE('',#1061,#203);
#159=LINE('',#1063,#204);
#160=LINE('',#1064,#205);
#161=LINE('',#1068,#206);
#162=LINE('',#1070,#207);
#163=LINE('',#1072,#208);
#164=LINE('',#1073,#209);
#165=LINE('',#1077,#210);
#166=LINE('',#1079,#211);
#167=LINE('',#1081,#212);
#168=LINE('',#1082,#213);
#169=LINE('',#1086,#214);
#170=LINE('',#1088,#215);
#171=LINE('',#1090,#216);
#172=LINE('',#1091,#217);
#173=LINE('',#1097,#218);
#174=LINE('',#1100,#219);
#175=LINE('',#1102,#220);
#176=LINE('',#1105,#221);
#177=LINE('',#1115,#222);
#178=LINE('',#1119,#223);
#179=LINE('',#1123,#224);
#180=LINE('',#1125,#225);
#181=LINE('',#1126,#226);
#182=LINE('',#1128,#227);
#183=LINE('',#1131,#228);
#184=LINE('',#1135,#229);
#185=LINE('',#1136,#230);
#186=VECTOR('',#751,2.7);
#187=VECTOR('',#760,2.7);
#188=VECTOR('',#769,3.25);
#189=VECTOR('',#778,3.25);
#190=VECTOR('',#787,1.45);
#191=VECTOR('',#796,1.45);
#192=VECTOR('',#805,1.45);
#193=VECTOR('',#814,1.45);
#194=VECTOR('',#821,10.);
#195=VECTOR('',#824,10.);
#196=VECTOR('',#841,21.5);
#197=VECTOR('',#852,10.);
#198=VECTOR('',#855,10.);
#199=VECTOR('',#858,10.);
#200=VECTOR('',#861,10.);
#201=VECTOR('',#868,10.);
#202=VECTOR('',#871,10.);
#203=VECTOR('',#872,10.);
#204=VECTOR('',#873,10.);
#205=VECTOR('',#874,10.);
#206=VECTOR('',#877,10.);
#207=VECTOR('',#878,10.);
#208=VECTOR('',#879,10.);
#209=VECTOR('',#880,10.);
#210=VECTOR('',#883,10.);
#211=VECTOR('',#884,10.);
#212=VECTOR('',#885,10.);
#213=VECTOR('',#886,10.);
#214=VECTOR('',#889,10.);
#215=VECTOR('',#890,10.);
#216=VECTOR('',#891,10.);
#217=VECTOR('',#892,10.);
#218=VECTOR('',#901,10.);
#219=VECTOR('',#904,10.);
#220=VECTOR('',#907,10.);
#221=VECTOR('',#910,10.);
#222=VECTOR('',#923,2.2);
#223=VECTOR('',#928,2.2);
#224=VECTOR('',#933,10.);
#225=VECTOR('',#936,10.);
#226=VECTOR('',#937,10.);
#227=VECTOR('',#938,10.);
#228=VECTOR('',#941,10.);
#229=VECTOR('',#948,10.);
#230=VECTOR('',#949,10.);
#231=CIRCLE('',#665,2.7);
#232=CIRCLE('',#666,2.7);
#233=CIRCLE('',#669,2.7);
#234=CIRCLE('',#670,2.7);
#235=CIRCLE('',#673,3.25);
#236=CIRCLE('',#674,3.25);
#237=CIRCLE('',#677,3.25);
#238=CIRCLE('',#678,3.25);
#239=CIRCLE('',#681,1.45);
#240=CIRCLE('',#682,1.45);
#241=CIRCLE('',#685,1.45);
#242=CIRCLE('',#686,1.45);
#243=CIRCLE('',#689,1.45);
#244=CIRCLE('',#690,1.45);
#245=CIRCLE('',#693,1.45);
#246=CIRCLE('',#694,1.45);
#247=CIRCLE('',#697,25.);
#248=CIRCLE('',#698,25.);
#249=CIRCLE('',#700,25.);
#250=CIRCLE('',#701,23.7);
#251=CIRCLE('',#702,25.);
#252=CIRCLE('',#703,21.5);
#253=CIRCLE('',#705,21.5);
#254=CIRCLE('',#707,25.);
#255=CIRCLE('',#708,25.);
#256=CIRCLE('',#709,23.7);
#257=CIRCLE('',#711,25.);
#258=CIRCLE('',#712,25.);
#259=CIRCLE('',#714,23.7);
#260=CIRCLE('',#716,23.7);
#261=CIRCLE('',#722,2.2);
#262=CIRCLE('',#723,2.2);
#263=CIRCLE('',#725,52.);
#264=CIRCLE('',#726,2.2);
#265=CIRCLE('',#727,25.);
#266=CIRCLE('',#728,2.2);
#267=CIRCLE('',#729,2.2);
#268=CIRCLE('',#731,2.2);
#269=CIRCLE('',#733,2.2);
#270=CIRCLE('',#735,2.2);
#271=CIRCLE('',#737,25.);
#272=CIRCLE('',#739,52.);
#273=VERTEX_POINT('',#956);
#274=VERTEX_POINT('',#958);
#275=VERTEX_POINT('',#963);
#276=VERTEX_POINT('',#965);
#277=VERTEX_POINT('',#970);
#278=VERTEX_POINT('',#972);
#279=VERTEX_POINT('',#977);
#280=VERTEX_POINT('',#979);
#281=VERTEX_POINT('',#984);
#282=VERTEX_POINT('',#986);
#283=VERTEX_POINT('',#991);
#284=VERTEX_POINT('',#993);
#285=VERTEX_POINT('',#998);
#286=VERTEX_POINT('',#1000);
#287=VERTEX_POINT('',#1005);
#288=VERTEX_POINT('',#1007);
#289=VERTEX_POINT('',#1012);
#290=VERTEX_POINT('',#1013);
#291=VERTEX_POINT('',#1015);
#292=VERTEX_POINT('',#1017);
#293=VERTEX_POINT('',#1021);
#294=VERTEX_POINT('',#1023);
#295=VERTEX_POINT('',#1026);
#296=VERTEX_POINT('',#1029);
#297=VERTEX_POINT('',#1033);
#298=VERTEX_POINT('',#1035);
#299=VERTEX_POINT('',#1039);
#300=VERTEX_POINT('',#1041);
#301=VERTEX_POINT('',#1043);
#302=VERTEX_POINT('',#1045);
#303=VERTEX_POINT('',#1049);
#304=VERTEX_POINT('',#1053);
#305=VERTEX_POINT('',#1057);
#306=VERTEX_POINT('',#1058);
#307=VERTEX_POINT('',#1060);
#308=VERTEX_POINT('',#1062);
#309=VERTEX_POINT('',#1066);
#310=VERTEX_POINT('',#1067);
#311=VERTEX_POINT('',#1069);
#312=VERTEX_POINT('',#1071);
#313=VERTEX_POINT('',#1075);
#314=VERTEX_POINT('',#1076);
#315=VERTEX_POINT('',#1078);
#316=VERTEX_POINT('',#1080);
#317=VERTEX_POINT('',#1084);
#318=VERTEX_POINT('',#1085);
#319=VERTEX_POINT('',#1087);
#320=VERTEX_POINT('',#1089);
#321=VERTEX_POINT('',#1096);
#322=VERTEX_POINT('',#1098);
#323=VERTEX_POINT('',#1103);
#324=VERTEX_POINT('',#1106);
#325=VERTEX_POINT('',#1108);
#326=VERTEX_POINT('',#1113);
#327=VERTEX_POINT('',#1117);
#328=VERTEX_POINT('',#1121);
#329=VERTEX_POINT('',#1127);
#330=VERTEX_POINT('',#1129);
#331=EDGE_CURVE('',#273,#273,#231,.T.);
#332=EDGE_CURVE('',#273,#274,#141,.T.);
#333=EDGE_CURVE('',#274,#274,#232,.T.);
#334=EDGE_CURVE('',#275,#275,#233,.T.);
#335=EDGE_CURVE('',#275,#276,#142,.T.);
#336=EDGE_CURVE('',#276,#276,#234,.T.);
#337=EDGE_CURVE('',#277,#277,#235,.T.);
#338=EDGE_CURVE('',#277,#278,#143,.T.);
#339=EDGE_CURVE('',#278,#278,#236,.T.);
#340=EDGE_CURVE('',#279,#279,#237,.T.);
#341=EDGE_CURVE('',#279,#280,#144,.T.);
#342=EDGE_CURVE('',#280,#280,#238,.T.);
#343=EDGE_CURVE('',#281,#281,#239,.T.);
#344=EDGE_CURVE('',#281,#282,#145,.T.);
#345=EDGE_CURVE('',#282,#282,#240,.T.);
#346=EDGE_CURVE('',#283,#283,#241,.T.);
#347=EDGE_CURVE('',#283,#284,#146,.T.);
#348=EDGE_CURVE('',#284,#284,#242,.T.);
#349=EDGE_CURVE('',#285,#285,#243,.T.);
#350=EDGE_CURVE('',#285,#286,#147,.T.);
#351=EDGE_CURVE('',#286,#286,#244,.T.);
#352=EDGE_CURVE('',#287,#287,#245,.T.);
#353=EDGE_CURVE('',#287,#288,#148,.T.);
#354=EDGE_CURVE('',#288,#288,#246,.T.);
#355=EDGE_CURVE('',#289,#290,#149,.T.);
#356=EDGE_CURVE('',#291,#289,#247,.T.);
#357=EDGE_CURVE('',#292,#291,#150,.T.);
#358=EDGE_CURVE('',#290,#292,#248,.T.);
#359=EDGE_CURVE('',#293,#289,#249,.T.);
#360=EDGE_CURVE('',#294,#293,#250,.T.);
#361=EDGE_CURVE('',#291,#294,#251,.T.);
#362=EDGE_CURVE('',#295,#295,#252,.T.);
#363=EDGE_CURVE('',#296,#296,#253,.T.);
#364=EDGE_CURVE('',#296,#295,#151,.T.);
#365=EDGE_CURVE('',#290,#297,#254,.T.);
#366=EDGE_CURVE('',#298,#292,#255,.T.);
#367=EDGE_CURVE('',#297,#298,#256,.T.);
#368=EDGE_CURVE('',#294,#299,#152,.T.);
#369=EDGE_CURVE('',#300,#299,#257,.T.);
#370=EDGE_CURVE('',#300,#301,#153,.T.);
#371=EDGE_CURVE('',#302,#301,#258,.T.);
#372=EDGE_CURVE('',#302,#298,#154,.T.);
#373=EDGE_CURVE('',#303,#293,#155,.T.);
#374=EDGE_CURVE('',#299,#303,#259,.T.);
#375=EDGE_CURVE('',#304,#302,#260,.T.);
#376=EDGE_CURVE('',#297,#304,#156,.T.);
#377=EDGE_CURVE('',#305,#306,#157,.T.);
#378=EDGE_CURVE('',#306,#307,#158,.T.);
#379=EDGE_CURVE('',#307,#308,#159,.T.);
#380=EDGE_CURVE('',#308,#305,#160,.T.);
#381=EDGE_CURVE('',#309,#310,#161,.T.);
#382=EDGE_CURVE('',#310,#311,#162,.T.);
#383=EDGE_CURVE('',#311,#312,#163,.T.);
#384=EDGE_CURVE('',#312,#309,#164,.T.);
#385=EDGE_CURVE('',#313,#314,#165,.T.);
#386=EDGE_CURVE('',#314,#315,#166,.T.);
#387=EDGE_CURVE('',#315,#316,#167,.T.);
#388=EDGE_CURVE('',#316,#313,#168,.T.);
#389=EDGE_CURVE('',#317,#318,#169,.T.);
#390=EDGE_CURVE('',#318,#319,#170,.T.);
#391=EDGE_CURVE('',#319,#320,#171,.T.);
#392=EDGE_CURVE('',#320,#317,#172,.T.);
#393=EDGE_CURVE('',#314,#317,#261,.T.);
#394=EDGE_CURVE('',#318,#313,#262,.T.);
#395=EDGE_CURVE('',#321,#316,#173,.T.);
#396=EDGE_CURVE('',#321,#322,#263,.T.);
#397=EDGE_CURVE('',#311,#322,#174,.T.);
#398=EDGE_CURVE('',#310,#305,#264,.T.);
#399=EDGE_CURVE('',#308,#300,#175,.T.);
#400=EDGE_CURVE('',#303,#323,#265,.T.);
#401=EDGE_CURVE('',#323,#319,#176,.T.);
#402=EDGE_CURVE('',#324,#324,#266,.T.);
#403=EDGE_CURVE('',#325,#325,#267,.T.);
#404=EDGE_CURVE('',#306,#309,#268,.T.);
#405=EDGE_CURVE('',#326,#326,#269,.T.);
#406=EDGE_CURVE('',#326,#324,#177,.T.);
#407=EDGE_CURVE('',#327,#327,#270,.T.);
#408=EDGE_CURVE('',#327,#325,#178,.T.);
#409=EDGE_CURVE('',#328,#304,#271,.T.);
#410=EDGE_CURVE('',#328,#323,#179,.T.);
#411=EDGE_CURVE('',#320,#328,#180,.T.);
#412=EDGE_CURVE('',#301,#307,#181,.T.);
#413=EDGE_CURVE('',#329,#312,#182,.T.);
#414=EDGE_CURVE('',#329,#330,#272,.T.);
#415=EDGE_CURVE('',#315,#330,#183,.T.);
#416=EDGE_CURVE('',#330,#321,#184,.T.);
#417=EDGE_CURVE('',#322,#329,#185,.T.);
#418=ORIENTED_EDGE('',*,*,#331,.F.);
#419=ORIENTED_EDGE('',*,*,#332,.T.);
#420=ORIENTED_EDGE('',*,*,#333,.T.);
#421=ORIENTED_EDGE('',*,*,#332,.F.);
#422=ORIENTED_EDGE('',*,*,#333,.F.);
#423=ORIENTED_EDGE('',*,*,#334,.F.);
#424=ORIENTED_EDGE('',*,*,#335,.T.);
#425=ORIENTED_EDGE('',*,*,#336,.T.);
#426=ORIENTED_EDGE('',*,*,#335,.F.);
#427=ORIENTED_EDGE('',*,*,#336,.F.);
#428=ORIENTED_EDGE('',*,*,#337,.F.);
#429=ORIENTED_EDGE('',*,*,#338,.T.);
#430=ORIENTED_EDGE('',*,*,#339,.T.);
#431=ORIENTED_EDGE('',*,*,#338,.F.);
#432=ORIENTED_EDGE('',*,*,#339,.F.);
#433=ORIENTED_EDGE('',*,*,#331,.T.);
#434=ORIENTED_EDGE('',*,*,#340,.F.);
#435=ORIENTED_EDGE('',*,*,#341,.T.);
#436=ORIENTED_EDGE('',*,*,#342,.T.);
#437=ORIENTED_EDGE('',*,*,#341,.F.);
#438=ORIENTED_EDGE('',*,*,#342,.F.);
#439=ORIENTED_EDGE('',*,*,#334,.T.);
#440=ORIENTED_EDGE('',*,*,#343,.T.);
#441=ORIENTED_EDGE('',*,*,#344,.T.);
#442=ORIENTED_EDGE('',*,*,#345,.F.);
#443=ORIENTED_EDGE('',*,*,#344,.F.);
#444=ORIENTED_EDGE('',*,*,#343,.F.);
#445=ORIENTED_EDGE('',*,*,#346,.T.);
#446=ORIENTED_EDGE('',*,*,#347,.T.);
#447=ORIENTED_EDGE('',*,*,#348,.F.);
#448=ORIENTED_EDGE('',*,*,#347,.F.);
#449=ORIENTED_EDGE('',*,*,#346,.F.);
#450=ORIENTED_EDGE('',*,*,#349,.T.);
#451=ORIENTED_EDGE('',*,*,#350,.T.);
#452=ORIENTED_EDGE('',*,*,#351,.F.);
#453=ORIENTED_EDGE('',*,*,#350,.F.);
#454=ORIENTED_EDGE('',*,*,#349,.F.);
#455=ORIENTED_EDGE('',*,*,#352,.T.);
#456=ORIENTED_EDGE('',*,*,#353,.T.);
#457=ORIENTED_EDGE('',*,*,#354,.F.);
#458=ORIENTED_EDGE('',*,*,#353,.F.);
#459=ORIENTED_EDGE('',*,*,#352,.F.);
#460=ORIENTED_EDGE('',*,*,#355,.F.);
#461=ORIENTED_EDGE('',*,*,#356,.F.);
#462=ORIENTED_EDGE('',*,*,#357,.F.);
#463=ORIENTED_EDGE('',*,*,#358,.F.);
#464=ORIENTED_EDGE('',*,*,#359,.F.);
#465=ORIENTED_EDGE('',*,*,#360,.F.);
#466=ORIENTED_EDGE('',*,*,#361,.F.);
#467=ORIENTED_EDGE('',*,*,#356,.T.);
#468=ORIENTED_EDGE('',*,*,#362,.T.);
#469=ORIENTED_EDGE('',*,*,#363,.F.);
#470=ORIENTED_EDGE('',*,*,#364,.T.);
#471=ORIENTED_EDGE('',*,*,#362,.F.);
#472=ORIENTED_EDGE('',*,*,#364,.F.);
#473=ORIENTED_EDGE('',*,*,#365,.F.);
#474=ORIENTED_EDGE('',*,*,#358,.T.);
#475=ORIENTED_EDGE('',*,*,#366,.F.);
#476=ORIENTED_EDGE('',*,*,#367,.F.);
#477=ORIENTED_EDGE('',*,*,#363,.T.);
#478=ORIENTED_EDGE('',*,*,#366,.T.);
#479=ORIENTED_EDGE('',*,*,#357,.T.);
#480=ORIENTED_EDGE('',*,*,#361,.T.);
#481=ORIENTED_EDGE('',*,*,#368,.T.);
#482=ORIENTED_EDGE('',*,*,#369,.F.);
#483=ORIENTED_EDGE('',*,*,#370,.T.);
#484=ORIENTED_EDGE('',*,*,#371,.F.);
#485=ORIENTED_EDGE('',*,*,#372,.T.);
#486=ORIENTED_EDGE('',*,*,#360,.T.);
#487=ORIENTED_EDGE('',*,*,#373,.F.);
#488=ORIENTED_EDGE('',*,*,#374,.F.);
#489=ORIENTED_EDGE('',*,*,#368,.F.);
#490=ORIENTED_EDGE('',*,*,#367,.T.);
#491=ORIENTED_EDGE('',*,*,#372,.F.);
#492=ORIENTED_EDGE('',*,*,#375,.F.);
#493=ORIENTED_EDGE('',*,*,#376,.F.);
#494=ORIENTED_EDGE('',*,*,#377,.T.);
#495=ORIENTED_EDGE('',*,*,#378,.T.);
#496=ORIENTED_EDGE('',*,*,#379,.T.);
#497=ORIENTED_EDGE('',*,*,#380,.T.);
#498=ORIENTED_EDGE('',*,*,#381,.T.);
#499=ORIENTED_EDGE('',*,*,#382,.T.);
#500=ORIENTED_EDGE('',*,*,#383,.T.);
#501=ORIENTED_EDGE('',*,*,#384,.T.);
#502=ORIENTED_EDGE('',*,*,#385,.T.);
#503=ORIENTED_EDGE('',*,*,#386,.T.);
#504=ORIENTED_EDGE('',*,*,#387,.T.);
#505=ORIENTED_EDGE('',*,*,#388,.T.);
#506=ORIENTED_EDGE('',*,*,#389,.T.);
#507=ORIENTED_EDGE('',*,*,#390,.T.);
#508=ORIENTED_EDGE('',*,*,#391,.T.);
#509=ORIENTED_EDGE('',*,*,#392,.T.);
#510=ORIENTED_EDGE('',*,*,#389,.F.);
#511=ORIENTED_EDGE('',*,*,#393,.F.);
#512=ORIENTED_EDGE('',*,*,#385,.F.);
#513=ORIENTED_EDGE('',*,*,#394,.F.);
#514=ORIENTED_EDGE('',*,*,#390,.F.);
#515=ORIENTED_EDGE('',*,*,#394,.T.);
#516=ORIENTED_EDGE('',*,*,#388,.F.);
#517=ORIENTED_EDGE('',*,*,#395,.F.);
#518=ORIENTED_EDGE('',*,*,#396,.T.);
#519=ORIENTED_EDGE('',*,*,#397,.F.);
#520=ORIENTED_EDGE('',*,*,#382,.F.);
#521=ORIENTED_EDGE('',*,*,#398,.T.);
#522=ORIENTED_EDGE('',*,*,#380,.F.);
#523=ORIENTED_EDGE('',*,*,#399,.T.);
#524=ORIENTED_EDGE('',*,*,#369,.T.);
#525=ORIENTED_EDGE('',*,*,#374,.T.);
#526=ORIENTED_EDGE('',*,*,#400,.T.);
#527=ORIENTED_EDGE('',*,*,#401,.T.);
#528=ORIENTED_EDGE('',*,*,#402,.T.);
#529=ORIENTED_EDGE('',*,*,#403,.T.);
#530=ORIENTED_EDGE('',*,*,#354,.T.);
#531=ORIENTED_EDGE('',*,*,#351,.T.);
#532=ORIENTED_EDGE('',*,*,#348,.T.);
#533=ORIENTED_EDGE('',*,*,#345,.T.);
#534=ORIENTED_EDGE('',*,*,#340,.T.);
#535=ORIENTED_EDGE('',*,*,#337,.T.);
#536=ORIENTED_EDGE('',*,*,#381,.F.);
#537=ORIENTED_EDGE('',*,*,#404,.F.);
#538=ORIENTED_EDGE('',*,*,#377,.F.);
#539=ORIENTED_EDGE('',*,*,#398,.F.);
#540=ORIENTED_EDGE('',*,*,#405,.F.);
#541=ORIENTED_EDGE('',*,*,#406,.T.);
#542=ORIENTED_EDGE('',*,*,#402,.F.);
#543=ORIENTED_EDGE('',*,*,#406,.F.);
#544=ORIENTED_EDGE('',*,*,#407,.F.);
#545=ORIENTED_EDGE('',*,*,#408,.T.);
#546=ORIENTED_EDGE('',*,*,#403,.F.);
#547=ORIENTED_EDGE('',*,*,#408,.F.);
#548=ORIENTED_EDGE('',*,*,#365,.T.);
#549=ORIENTED_EDGE('',*,*,#376,.T.);
#550=ORIENTED_EDGE('',*,*,#409,.F.);
#551=ORIENTED_EDGE('',*,*,#410,.T.);
#552=ORIENTED_EDGE('',*,*,#400,.F.);
#553=ORIENTED_EDGE('',*,*,#373,.T.);
#554=ORIENTED_EDGE('',*,*,#359,.T.);
#555=ORIENTED_EDGE('',*,*,#355,.T.);
#556=ORIENTED_EDGE('',*,*,#392,.F.);
#557=ORIENTED_EDGE('',*,*,#411,.T.);
#558=ORIENTED_EDGE('',*,*,#409,.T.);
#559=ORIENTED_EDGE('',*,*,#375,.T.);
#560=ORIENTED_EDGE('',*,*,#371,.T.);
#561=ORIENTED_EDGE('',*,*,#412,.T.);
#562=ORIENTED_EDGE('',*,*,#378,.F.);
#563=ORIENTED_EDGE('',*,*,#404,.T.);
#564=ORIENTED_EDGE('',*,*,#384,.F.);
#565=ORIENTED_EDGE('',*,*,#413,.F.);
#566=ORIENTED_EDGE('',*,*,#414,.T.);
#567=ORIENTED_EDGE('',*,*,#415,.F.);
#568=ORIENTED_EDGE('',*,*,#386,.F.);
#569=ORIENTED_EDGE('',*,*,#393,.T.);
#570=ORIENTED_EDGE('',*,*,#405,.T.);
#571=ORIENTED_EDGE('',*,*,#407,.T.);
#572=ORIENTED_EDGE('',*,*,#379,.F.);
#573=ORIENTED_EDGE('',*,*,#412,.F.);
#574=ORIENTED_EDGE('',*,*,#370,.F.);
#575=ORIENTED_EDGE('',*,*,#399,.F.);
#576=ORIENTED_EDGE('',*,*,#391,.F.);
#577=ORIENTED_EDGE('',*,*,#401,.F.);
#578=ORIENTED_EDGE('',*,*,#410,.F.);
#579=ORIENTED_EDGE('',*,*,#411,.F.);
#580=ORIENTED_EDGE('',*,*,#396,.F.);
#581=ORIENTED_EDGE('',*,*,#416,.F.);
#582=ORIENTED_EDGE('',*,*,#414,.F.);
#583=ORIENTED_EDGE('',*,*,#417,.F.);
#584=ORIENTED_EDGE('',*,*,#383,.F.);
#585=ORIENTED_EDGE('',*,*,#397,.T.);
#586=ORIENTED_EDGE('',*,*,#417,.T.);
#587=ORIENTED_EDGE('',*,*,#413,.T.);
#588=ORIENTED_EDGE('',*,*,#387,.F.);
#589=ORIENTED_EDGE('',*,*,#415,.T.);
#590=ORIENTED_EDGE('',*,*,#416,.T.);
#591=ORIENTED_EDGE('',*,*,#395,.T.);
#592=CYLINDRICAL_SURFACE('',#664,2.7);
#593=CYLINDRICAL_SURFACE('',#668,2.7);
#594=CYLINDRICAL_SURFACE('',#672,3.25);
#595=CYLINDRICAL_SURFACE('',#676,3.25);
#596=CYLINDRICAL_SURFACE('',#680,1.45);
#597=CYLINDRICAL_SURFACE('',#684,1.45);
#598=CYLINDRICAL_SURFACE('',#688,1.45);
#599=CYLINDRICAL_SURFACE('',#692,1.45);
#600=CYLINDRICAL_SURFACE('',#696,25.);
#601=CYLINDRICAL_SURFACE('',#704,21.5);
#602=CYLINDRICAL_SURFACE('',#710,25.);
#603=CYLINDRICAL_SURFACE('',#713,23.7);
#604=CYLINDRICAL_SURFACE('',#715,23.7);
#605=CYLINDRICAL_SURFACE('',#721,2.2);
#606=CYLINDRICAL_SURFACE('',#730,2.2);
#607=CYLINDRICAL_SURFACE('',#732,2.2);
#608=CYLINDRICAL_SURFACE('',#734,2.2);
#609=CYLINDRICAL_SURFACE('',#736,25.);
#610=CYLINDRICAL_SURFACE('',#742,52.);
#611=ADVANCED_FACE('',(#49),#592,.F.);
#612=ADVANCED_FACE('',(#50),#29,.F.);
#613=ADVANCED_FACE('',(#51),#593,.F.);
#614=ADVANCED_FACE('',(#52),#30,.F.);
#615=ADVANCED_FACE('',(#53),#594,.F.);
#616=ADVANCED_FACE('',(#54,#15),#31,.F.);
#617=ADVANCED_FACE('',(#55),#595,.F.);
#618=ADVANCED_FACE('',(#56,#16),#32,.F.);
#619=ADVANCED_FACE('',(#57),#596,.F.);
#620=ADVANCED_FACE('',(#58),#33,.F.);
#621=ADVANCED_FACE('',(#59),#597,.F.);
#622=ADVANCED_FACE('',(#60),#34,.F.);
#623=ADVANCED_FACE('',(#61),#598,.F.);
#624=ADVANCED_FACE('',(#62),#35,.F.);
#625=ADVANCED_FACE('',(#63),#599,.F.);
#626=ADVANCED_FACE('',(#64),#36,.F.);
#627=ADVANCED_FACE('',(#65),#600,.T.);
#628=ADVANCED_FACE('',(#66,#17),#37,.T.);
#629=ADVANCED_FACE('',(#67),#601,.F.);
#630=ADVANCED_FACE('',(#68,#18),#38,.T.);
#631=ADVANCED_FACE('',(#69),#602,.F.);
#632=ADVANCED_FACE('',(#70),#603,.F.);
#633=ADVANCED_FACE('',(#71),#604,.F.);
#634=ADVANCED_FACE('',(#72),#39,.F.);
#635=ADVANCED_FACE('',(#73),#40,.F.);
#636=ADVANCED_FACE('',(#74),#41,.F.);
#637=ADVANCED_FACE('',(#75),#42,.F.);
#638=ADVANCED_FACE('',(#76),#605,.F.);
#639=ADVANCED_FACE('',(#77,#19,#20,#21,#22,#23,#24,#25,#26),#43,.F.);
#640=ADVANCED_FACE('',(#78),#606,.F.);
#641=ADVANCED_FACE('',(#79),#607,.F.);
#642=ADVANCED_FACE('',(#80),#608,.F.);
#643=ADVANCED_FACE('',(#81),#609,.F.);
#644=ADVANCED_FACE('',(#82,#27,#28),#44,.F.);
#645=ADVANCED_FACE('',(#83),#45,.T.);
#646=ADVANCED_FACE('',(#84),#46,.F.);
#647=ADVANCED_FACE('',(#85),#610,.T.);
#648=ADVANCED_FACE('',(#86),#47,.F.);
#649=ADVANCED_FACE('',(#87),#48,.T.);
#650=CLOSED_SHELL('',(#611,#612,#613,#614,#615,#616,#617,#618,#619,#620,
#621,#622,#623,#624,#625,#626,#627,#628,#629,#630,#631,#632,#633,#634,#635,
#636,#637,#638,#639,#640,#641,#642,#643,#644,#645,#646,#647,#648,#649));
#651=DERIVED_UNIT_ELEMENT(#653,1.);
#652=DERIVED_UNIT_ELEMENT(#1144,-3.);
#653=(
MASS_UNIT()
NAMED_UNIT(*)
SI_UNIT(.KILO.,.GRAM.)
);
#654=DERIVED_UNIT((#651,#652));
#655=MEASURE_REPRESENTATION_ITEM('density measure',
POSITIVE_RATIO_MEASURE(7850.),#654);
#656=PROPERTY_DEFINITION_REPRESENTATION(#661,#658);
#657=PROPERTY_DEFINITION_REPRESENTATION(#662,#659);
#658=REPRESENTATION('material name',(#660),#1141);
#659=REPRESENTATION('density',(#655),#1141);
#660=DESCRIPTIVE_REPRESENTATION_ITEM('Steel','Steel');
#661=PROPERTY_DEFINITION('material property','material name',#1151);
#662=PROPERTY_DEFINITION('material property','density of part',#1151);
#663=AXIS2_PLACEMENT_3D('',#954,#745,#746);
#664=AXIS2_PLACEMENT_3D('',#955,#747,#748);
#665=AXIS2_PLACEMENT_3D('',#957,#749,#750);
#666=AXIS2_PLACEMENT_3D('',#960,#752,#753);
#667=AXIS2_PLACEMENT_3D('',#961,#754,#755);
#668=AXIS2_PLACEMENT_3D('',#962,#756,#757);
#669=AXIS2_PLACEMENT_3D('',#964,#758,#759);
#670=AXIS2_PLACEMENT_3D('',#967,#761,#762);
#671=AXIS2_PLACEMENT_3D('',#968,#763,#764);
#672=AXIS2_PLACEMENT_3D('',#969,#765,#766);
#673=AXIS2_PLACEMENT_3D('',#971,#767,#768);
#674=AXIS2_PLACEMENT_3D('',#974,#770,#771);
#675=AXIS2_PLACEMENT_3D('',#975,#772,#773);
#676=AXIS2_PLACEMENT_3D('',#976,#774,#775);
#677=AXIS2_PLACEMENT_3D('',#978,#776,#777);
#678=AXIS2_PLACEMENT_3D('',#981,#779,#780);
#679=AXIS2_PLACEMENT_3D('',#982,#781,#782);
#680=AXIS2_PLACEMENT_3D('',#983,#783,#784);
#681=AXIS2_PLACEMENT_3D('',#985,#785,#786);
#682=AXIS2_PLACEMENT_3D('',#988,#788,#789);
#683=AXIS2_PLACEMENT_3D('',#989,#790,#791);
#684=AXIS2_PLACEMENT_3D('',#990,#792,#793);
#685=AXIS2_PLACEMENT_3D('',#992,#794,#795);
#686=AXIS2_PLACEMENT_3D('',#995,#797,#798);
#687=AXIS2_PLACEMENT_3D('',#996,#799,#800);
#688=AXIS2_PLACEMENT_3D('',#997,#801,#802);
#689=AXIS2_PLACEMENT_3D('',#999,#803,#804);
#690=AXIS2_PLACEMENT_3D('',#1002,#806,#807);
#691=AXIS2_PLACEMENT_3D('',#1003,#808,#809);
#692=AXIS2_PLACEMENT_3D('',#1004,#810,#811);
#693=AXIS2_PLACEMENT_3D('',#1006,#812,#813);
#694=AXIS2_PLACEMENT_3D('',#1009,#815,#816);
#695=AXIS2_PLACEMENT_3D('',#1010,#817,#818);
#696=AXIS2_PLACEMENT_3D('',#1011,#819,#820);
#697=AXIS2_PLACEMENT_3D('',#1016,#822,#823);
#698=AXIS2_PLACEMENT_3D('',#1019,#825,#826);
#699=AXIS2_PLACEMENT_3D('',#1020,#827,#828);
#700=AXIS2_PLACEMENT_3D('',#1022,#829,#830);
#701=AXIS2_PLACEMENT_3D('',#1024,#831,#832);
#702=AXIS2_PLACEMENT_3D('',#1025,#833,#834);
#703=AXIS2_PLACEMENT_3D('',#1027,#835,#836);
#704=AXIS2_PLACEMENT_3D('',#1028,#837,#838);
#705=AXIS2_PLACEMENT_3D('',#1030,#839,#840);
#706=AXIS2_PLACEMENT_3D('',#1032,#842,#843);
#707=AXIS2_PLACEMENT_3D('',#1034,#844,#845);
#708=AXIS2_PLACEMENT_3D('',#1036,#846,#847);
#709=AXIS2_PLACEMENT_3D('',#1037,#848,#849);
#710=AXIS2_PLACEMENT_3D('',#1038,#850,#851);
#711=AXIS2_PLACEMENT_3D('',#1042,#853,#854);
#712=AXIS2_PLACEMENT_3D('',#1046,#856,#857);
#713=AXIS2_PLACEMENT_3D('',#1048,#859,#860);
#714=AXIS2_PLACEMENT_3D('',#1051,#862,#863);
#715=AXIS2_PLACEMENT_3D('',#1052,#864,#865);
#716=AXIS2_PLACEMENT_3D('',#1054,#866,#867);
#717=AXIS2_PLACEMENT_3D('',#1056,#869,#870);
#718=AXIS2_PLACEMENT_3D('',#1065,#875,#876);
#719=AXIS2_PLACEMENT_3D('',#1074,#881,#882);
#720=AXIS2_PLACEMENT_3D('',#1083,#887,#888);
#721=AXIS2_PLACEMENT_3D('',#1092,#893,#894);
#722=AXIS2_PLACEMENT_3D('',#1093,#895,#896);
#723=AXIS2_PLACEMENT_3D('',#1094,#897,#898);
#724=AXIS2_PLACEMENT_3D('',#1095,#899,#900);
#725=AXIS2_PLACEMENT_3D('',#1099,#902,#903);
#726=AXIS2_PLACEMENT_3D('',#1101,#905,#906);
#727=AXIS2_PLACEMENT_3D('',#1104,#908,#909);
#728=AXIS2_PLACEMENT_3D('',#1107,#911,#912);
#729=AXIS2_PLACEMENT_3D('',#1109,#913,#914);
#730=AXIS2_PLACEMENT_3D('',#1110,#915,#916);
#731=AXIS2_PLACEMENT_3D('',#1111,#917,#918);
#732=AXIS2_PLACEMENT_3D('',#1112,#919,#920);
#733=AXIS2_PLACEMENT_3D('',#1114,#921,#922);
#734=AXIS2_PLACEMENT_3D('',#1116,#924,#925);
#735=AXIS2_PLACEMENT_3D('',#1118,#926,#927);
#736=AXIS2_PLACEMENT_3D('',#1120,#929,#930);
#737=AXIS2_PLACEMENT_3D('',#1122,#931,#932);
#738=AXIS2_PLACEMENT_3D('',#1124,#934,#935);
#739=AXIS2_PLACEMENT_3D('',#1130,#939,#940);
#740=AXIS2_PLACEMENT_3D('',#1132,#942,#943);
#741=AXIS2_PLACEMENT_3D('',#1133,#944,#945);
#742=AXIS2_PLACEMENT_3D('',#1134,#946,#947);
#743=AXIS2_PLACEMENT_3D('',#1137,#950,#951);
#744=AXIS2_PLACEMENT_3D('',#1138,#952,#953);
#745=DIRECTION('axis',(0.,0.,1.));
#746=DIRECTION('refdir',(1.,0.,0.));
#747=DIRECTION('center_axis',(0.,-1.,0.));
#748=DIRECTION('ref_axis',(1.,0.,0.));
#749=DIRECTION('center_axis',(0.,-1.,0.));
#750=DIRECTION('ref_axis',(1.,0.,0.));
#751=DIRECTION('',(0.,-1.,0.));
#752=DIRECTION('center_axis',(0.,-1.,0.));
#753=DIRECTION('ref_axis',(1.,0.,0.));
#754=DIRECTION('center_axis',(0.,-1.,0.));
#755=DIRECTION('ref_axis',(1.,0.,0.));
#756=DIRECTION('center_axis',(0.,-1.,0.));
#757=DIRECTION('ref_axis',(1.,0.,0.));
#758=DIRECTION('center_axis',(0.,-1.,0.));
#759=DIRECTION('ref_axis',(1.,0.,0.));
#760=DIRECTION('',(0.,-1.,0.));
#761=DIRECTION('center_axis',(0.,-1.,0.));
#762=DIRECTION('ref_axis',(1.,0.,0.));
#763=DIRECTION('center_axis',(0.,-1.,0.));
#764=DIRECTION('ref_axis',(1.,0.,0.));
#765=DIRECTION('center_axis',(0.,-1.,0.));
#766=DIRECTION('ref_axis',(1.,0.,0.));
#767=DIRECTION('center_axis',(0.,-1.,0.));
#768=DIRECTION('ref_axis',(1.,0.,0.));
#769=DIRECTION('',(0.,-1.,0.));
#770=DIRECTION('center_axis',(0.,-1.,0.));
#771=DIRECTION('ref_axis',(1.,0.,0.));
#772=DIRECTION('center_axis',(0.,-1.,0.));
#773=DIRECTION('ref_axis',(1.,0.,0.));
#774=DIRECTION('center_axis',(0.,-1.,0.));
#775=DIRECTION('ref_axis',(1.,0.,0.));
#776=DIRECTION('center_axis',(0.,-1.,0.));
#777=DIRECTION('ref_axis',(1.,0.,0.));
#778=DIRECTION('',(0.,-1.,0.));
#779=DIRECTION('center_axis',(0.,-1.,0.));
#780=DIRECTION('ref_axis',(1.,0.,0.));
#781=DIRECTION('center_axis',(0.,-1.,0.));
#782=DIRECTION('ref_axis',(1.,0.,0.));
#783=DIRECTION('center_axis',(0.,1.,0.));
#784=DIRECTION('ref_axis',(1.,0.,0.));
#785=DIRECTION('center_axis',(0.,-1.,0.));
#786=DIRECTION('ref_axis',(1.,0.,0.));
#787=DIRECTION('',(0.,1.,0.));
#788=DIRECTION('center_axis',(0.,-1.,0.));
#789=DIRECTION('ref_axis',(1.,0.,0.));
#790=DIRECTION('center_axis',(0.,-1.,0.));
#791=DIRECTION('ref_axis',(-1.,0.,0.));
#792=DIRECTION('center_axis',(0.,1.,0.));
#793=DIRECTION('ref_axis',(1.,0.,0.));
#794=DIRECTION('center_axis',(0.,-1.,0.));
#795=DIRECTION('ref_axis',(1.,0.,0.));
#796=DIRECTION('',(0.,1.,0.));
#797=DIRECTION('center_axis',(0.,-1.,0.));
#798=DIRECTION('ref_axis',(1.,0.,0.));
#799=DIRECTION('center_axis',(0.,-1.,0.));
#800=DIRECTION('ref_axis',(-1.,0.,0.));
#801=DIRECTION('center_axis',(0.,1.,0.));
#802=DIRECTION('ref_axis',(1.,0.,0.));
#803=DIRECTION('center_axis',(0.,-1.,0.));
#804=DIRECTION('ref_axis',(1.,0.,0.));
#805=DIRECTION('',(0.,1.,0.));
#806=DIRECTION('center_axis',(0.,-1.,0.));
#807=DIRECTION('ref_axis',(1.,0.,0.));
#808=DIRECTION('center_axis',(0.,-1.,0.));
#809=DIRECTION('ref_axis',(-1.,0.,0.));
#810=DIRECTION('center_axis',(0.,1.,0.));
#811=DIRECTION('ref_axis',(1.,0.,0.));
#812=DIRECTION('center_axis',(0.,-1.,0.));
#813=DIRECTION('ref_axis',(1.,0.,0.));
#814=DIRECTION('',(0.,1.,0.));
#815=DIRECTION('center_axis',(0.,-1.,0.));
#816=DIRECTION('ref_axis',(1.,0.,0.));
#817=DIRECTION('center_axis',(0.,-1.,0.));
#818=DIRECTION('ref_axis',(-1.,0.,0.));
#819=DIRECTION('center_axis',(0.,1.,0.));
#820=DIRECTION('ref_axis',(-1.,0.,1.22464679914735E-16));
#821=DIRECTION('',(0.,-1.,0.));
#822=DIRECTION('center_axis',(0.,1.,0.));
#823=DIRECTION('ref_axis',(1.,0.,0.));
#824=DIRECTION('',(0.,1.,0.));
#825=DIRECTION('center_axis',(0.,-1.,0.));
#826=DIRECTION('ref_axis',(1.,0.,0.));
#827=DIRECTION('center_axis',(0.,1.,0.));
#828=DIRECTION('ref_axis',(1.,0.,0.));
#829=DIRECTION('center_axis',(0.,-1.,0.));
#830=DIRECTION('ref_axis',(1.,0.,0.));
#831=DIRECTION('center_axis',(0.,-1.,0.));
#832=DIRECTION('ref_axis',(1.,0.,0.));
#833=DIRECTION('center_axis',(0.,-1.,0.));
#834=DIRECTION('ref_axis',(1.,0.,0.));
#835=DIRECTION('center_axis',(0.,-1.,0.));
#836=DIRECTION('ref_axis',(1.,0.,0.));
#837=DIRECTION('center_axis',(0.,1.,0.));
#838=DIRECTION('ref_axis',(1.,0.,0.));
#839=DIRECTION('center_axis',(0.,1.,0.));
#840=DIRECTION('ref_axis',(1.,0.,0.));
#841=DIRECTION('',(0.,1.,0.));
#842=DIRECTION('center_axis',(0.,-1.,0.));
#843=DIRECTION('ref_axis',(-1.,0.,0.));
#844=DIRECTION('center_axis',(0.,1.,0.));
#845=DIRECTION('ref_axis',(1.,0.,0.));
#846=DIRECTION('center_axis',(0.,1.,0.));
#847=DIRECTION('ref_axis',(1.,0.,0.));
#848=DIRECTION('center_axis',(0.,1.,0.));
#849=DIRECTION('ref_axis',(1.,0.,0.));
#850=DIRECTION('center_axis',(0.,1.,0.));
#851=DIRECTION('ref_axis',(1.,0.,0.));
#852=DIRECTION('',(0.,1.,0.));
#853=DIRECTION('center_axis',(0.,-1.,0.));
#854=DIRECTION('ref_axis',(1.,0.,0.));
#855=DIRECTION('',(0.,-1.,0.));
#856=DIRECTION('center_axis',(0.,1.,0.));
#857=DIRECTION('ref_axis',(1.,0.,0.));
#858=DIRECTION('',(0.,1.,0.));
#859=DIRECTION('center_axis',(0.,1.,0.));
#860=DIRECTION('ref_axis',(1.,0.,0.));
#861=DIRECTION('',(0.,-1.,0.));
#862=DIRECTION('center_axis',(0.,-1.,0.));
#863=DIRECTION('ref_axis',(1.,0.,0.));
#864=DIRECTION('center_axis',(0.,1.,0.));
#865=DIRECTION('ref_axis',(1.,0.,0.));
#866=DIRECTION('center_axis',(0.,1.,0.));
#867=DIRECTION('ref_axis',(1.,0.,0.));
#868=DIRECTION('',(0.,-1.,0.));
#869=DIRECTION('center_axis',(1.,0.,0.));
#870=DIRECTION('ref_axis',(0.,0.,-1.));
#871=DIRECTION('',(0.,-1.,0.));
#872=DIRECTION('',(0.,0.,1.));
#873=DIRECTION('',(0.,1.,0.));
#874=DIRECTION('',(0.,0.,-1.));
#875=DIRECTION('center_axis',(1.,0.,0.));
#876=DIRECTION('ref_axis',(0.,0.,-1.));
#877=DIRECTION('',(0.,1.,0.));
#878=DIRECTION('',(0.,0.,-1.));
#879=DIRECTION('',(0.,-1.,0.));
#880=DIRECTION('',(0.,0.,1.));
#881=DIRECTION('center_axis',(1.,0.,0.));
#882=DIRECTION('ref_axis',(0.,0.,-1.));
#883=DIRECTION('',(0.,-1.,0.));
#884=DIRECTION('',(0.,0.,1.));
#885=DIRECTION('',(0.,1.,0.));
#886=DIRECTION('',(0.,0.,-1.));
#887=DIRECTION('center_axis',(1.,0.,0.));
#888=DIRECTION('ref_axis',(0.,0.,-1.));
#889=DIRECTION('',(0.,1.,0.));
#890=DIRECTION('',(0.,0.,-1.));
#891=DIRECTION('',(0.,-1.,0.));
#892=DIRECTION('',(0.,0.,1.));
#893=DIRECTION('center_axis',(0.,1.,0.));
#894=DIRECTION('ref_axis',(1.,0.,0.));
#895=DIRECTION('center_axis',(0.,1.,0.));
#896=DIRECTION('ref_axis',(1.,0.,0.));
#897=DIRECTION('center_axis',(0.,-1.,0.));
#898=DIRECTION('ref_axis',(1.,0.,0.));
#899=DIRECTION('center_axis',(0.,-1.,0.));
#900=DIRECTION('ref_axis',(0.,0.,-1.));
#901=DIRECTION('',(-1.,0.,0.));
#902=DIRECTION('center_axis',(0.,1.,0.));
#903=DIRECTION('ref_axis',(1.,0.,0.));
#904=DIRECTION('',(1.,0.,0.));
#905=DIRECTION('center_axis',(0.,-1.,0.));
#906=DIRECTION('ref_axis',(1.,0.,0.));
#907=DIRECTION('',(1.,0.,0.));
#908=DIRECTION('center_axis',(0.,-1.,0.));
#909=DIRECTION('ref_axis',(1.,0.,0.));
#910=DIRECTION('',(-1.,0.,0.));
#911=DIRECTION('center_axis',(0.,-1.,0.));
#912=DIRECTION('ref_axis',(1.,0.,0.));
#913=DIRECTION('center_axis',(0.,-1.,0.));
#914=DIRECTION('ref_axis',(1.,0.,0.));
#915=DIRECTION('center_axis',(0.,1.,0.));
#916=DIRECTION('ref_axis',(1.,0.,0.));
#917=DIRECTION('center_axis',(0.,1.,0.));
#918=DIRECTION('ref_axis',(1.,0.,0.));
#919=DIRECTION('center_axis',(0.,1.,0.));
#920=DIRECTION('ref_axis',(1.,0.,0.));
#921=DIRECTION('center_axis',(0.,1.,0.));
#922=DIRECTION('ref_axis',(1.,0.,0.));
#923=DIRECTION('',(0.,1.,0.));
#924=DIRECTION('center_axis',(0.,1.,0.));
#925=DIRECTION('ref_axis',(1.,0.,0.));
#926=DIRECTION('center_axis',(0.,1.,0.));
#927=DIRECTION('ref_axis',(1.,0.,0.));
#928=DIRECTION('',(0.,1.,0.));
#929=DIRECTION('center_axis',(0.,1.,0.));
#930=DIRECTION('ref_axis',(1.,0.,0.));
#931=DIRECTION('center_axis',(0.,1.,0.));
#932=DIRECTION('ref_axis',(1.,0.,0.));
#933=DIRECTION('',(0.,1.,0.));
#934=DIRECTION('center_axis',(0.,1.,0.));
#935=DIRECTION('ref_axis',(0.,0.,1.));
#936=DIRECTION('',(1.,0.,0.));
#937=DIRECTION('',(-1.,0.,0.));
#938=DIRECTION('',(-1.,0.,0.));
#939=DIRECTION('center_axis',(0.,-1.,0.));
#940=DIRECTION('ref_axis',(1.,0.,0.));
#941=DIRECTION('',(1.,0.,0.));
#942=DIRECTION('center_axis',(0.,0.,1.));
#943=DIRECTION('ref_axis',(1.,0.,0.));
#944=DIRECTION('center_axis',(0.,0.,1.));
#945=DIRECTION('ref_axis',(1.,0.,0.));
#946=DIRECTION('center_axis',(0.,1.,0.));
#947=DIRECTION('ref_axis',(1.,0.,0.));
#948=DIRECTION('',(0.,1.,0.));
#949=DIRECTION('',(0.,-1.,0.));
#950=DIRECTION('center_axis',(0.,0.,1.));
#951=DIRECTION('ref_axis',(1.,0.,0.));
#952=DIRECTION('center_axis',(0.,0.,1.));
#953=DIRECTION('ref_axis',(1.,0.,0.));
#954=CARTESIAN_POINT('',(0.,0.,0.));
#955=CARTESIAN_POINT('Origin',(160.,50.7,203.));
#956=CARTESIAN_POINT('',(157.3,51.9,203.));
#957=CARTESIAN_POINT('Origin',(160.,51.9,203.));
#958=CARTESIAN_POINT('',(157.3,48.9,203.));
#959=CARTESIAN_POINT('',(157.3,50.7,203.));
#960=CARTESIAN_POINT('Origin',(160.,48.9,203.));
#961=CARTESIAN_POINT('Origin',(160.,48.9,203.));
#962=CARTESIAN_POINT('Origin',(160.,50.7,277.));
#963=CARTESIAN_POINT('',(157.3,51.9,277.));
#964=CARTESIAN_POINT('Origin',(160.,51.9,277.));
#965=CARTESIAN_POINT('',(157.3,48.9,277.));
#966=CARTESIAN_POINT('',(157.3,50.7,277.));
#967=CARTESIAN_POINT('Origin',(160.,48.9,277.));
#968=CARTESIAN_POINT('Origin',(160.,48.9,277.));
#969=CARTESIAN_POINT('Origin',(160.,56.2,203.));
#970=CARTESIAN_POINT('',(156.75,60.,203.));
#971=CARTESIAN_POINT('Origin',(160.,60.,203.));
#972=CARTESIAN_POINT('',(156.75,51.9,203.));
#973=CARTESIAN_POINT('',(156.75,56.2,203.));
#974=CARTESIAN_POINT('Origin',(160.,51.9,203.));
#975=CARTESIAN_POINT('Origin',(160.,51.9,203.));
#976=CARTESIAN_POINT('Origin',(160.,56.2,277.));
#977=CARTESIAN_POINT('',(156.75,60.,277.));
#978=CARTESIAN_POINT('Origin',(160.,60.,277.));
#979=CARTESIAN_POINT('',(156.75,51.9,277.));
#980=CARTESIAN_POINT('',(156.75,56.2,277.));
#981=CARTESIAN_POINT('Origin',(160.,51.9,277.));
#982=CARTESIAN_POINT('Origin',(160.,51.9,277.));
#983=CARTESIAN_POINT('Origin',(291.213203435596,57.,218.786796564404));
#984=CARTESIAN_POINT('',(289.763203435596,53.,218.786796564404));
#985=CARTESIAN_POINT('Origin',(291.213203435596,53.,218.786796564404));
#986=CARTESIAN_POINT('',(289.763203435596,60.,218.786796564404));
#987=CARTESIAN_POINT('',(289.763203435596,57.,218.786796564404));
#988=CARTESIAN_POINT('Origin',(291.213203435596,60.,218.786796564404));
#989=CARTESIAN_POINT('Origin',(291.213203435596,53.,218.786796564404));
#990=CARTESIAN_POINT('Origin',(248.786796564404,57.,218.786796564404));
#991=CARTESIAN_POINT('',(247.336796564404,53.,218.786796564404));
#992=CARTESIAN_POINT('Origin',(248.786796564404,53.,218.786796564404));
#993=CARTESIAN_POINT('',(247.336796564404,60.,218.786796564404));
#994=CARTESIAN_POINT('',(247.336796564404,57.,218.786796564404));
#995=CARTESIAN_POINT('Origin',(248.786796564404,60.,218.786796564404));
#996=CARTESIAN_POINT('Origin',(248.786796564404,53.,218.786796564404));
#997=CARTESIAN_POINT('Origin',(248.786796564404,57.,261.213203435596));
#998=CARTESIAN_POINT('',(247.336796564404,53.,261.213203435596));
#999=CARTESIAN_POINT('Origin',(248.786796564404,53.,261.213203435596));
#1000=CARTESIAN_POINT('',(247.336796564404,60.,261.213203435596));
#1001=CARTESIAN_POINT('',(247.336796564404,57.,261.213203435596));
#1002=CARTESIAN_POINT('Origin',(248.786796564404,60.,261.213203435596));
#1003=CARTESIAN_POINT('Origin',(248.786796564404,53.,261.213203435596));
#1004=CARTESIAN_POINT('Origin',(291.213203435596,57.,261.213203435596));
#1005=CARTESIAN_POINT('',(289.763203435596,53.,261.213203435596));
#1006=CARTESIAN_POINT('Origin',(291.213203435596,53.,261.213203435596));
#1007=CARTESIAN_POINT('',(289.763203435596,60.,261.213203435596));
#1008=CARTESIAN_POINT('',(289.763203435596,57.,261.213203435596));
#1009=CARTESIAN_POINT('Origin',(291.213203435596,60.,261.213203435596));
#1010=CARTESIAN_POINT('Origin',(291.213203435596,53.,261.213203435596));
#1011=CARTESIAN_POINT('Origin',(270.,51.25,240.));
#1012=CARTESIAN_POINT('',(246.5,53.,248.529361054616));
#1013=CARTESIAN_POINT('',(246.5,49.5,248.529361054616));
#1014=CARTESIAN_POINT('',(246.5,51.25,248.529361054616));
#1015=CARTESIAN_POINT('',(246.5,53.,231.470638945384));
#1016=CARTESIAN_POINT('Origin',(270.,53.,240.));
#1017=CARTESIAN_POINT('',(246.5,49.5,231.470638945384));
#1018=CARTESIAN_POINT('',(246.5,51.25,231.470638945384));
#1019=CARTESIAN_POINT('Origin',(270.,49.5,240.));
#1020=CARTESIAN_POINT('Origin',(270.,53.,240.));
#1021=CARTESIAN_POINT('',(247.173510638298,53.,246.375059483652));
#1022=CARTESIAN_POINT('Origin',(223.,53.,240.));
#1023=CARTESIAN_POINT('',(247.173510638298,53.,233.624940516348));
#1024=CARTESIAN_POINT('Origin',(270.,53.,240.));
#1025=CARTESIAN_POINT('Origin',(223.,53.,240.));
#1026=CARTESIAN_POINT('',(248.5,53.,240.));
#1027=CARTESIAN_POINT('Origin',(270.,53.,240.));
#1028=CARTESIAN_POINT('Origin',(270.,51.25,240.));
#1029=CARTESIAN_POINT('',(248.5,49.5,240.));
#1030=CARTESIAN_POINT('Origin',(270.,49.5,240.));
#1031=CARTESIAN_POINT('',(248.5,51.25,240.));
#1032=CARTESIAN_POINT('Origin',(270.,49.5,240.));
#1033=CARTESIAN_POINT('',(247.173510638298,49.5,246.375059483652));
#1034=CARTESIAN_POINT('Origin',(223.,49.5,240.));
#1035=CARTESIAN_POINT('',(247.173510638298,49.5,233.624940516348));
#1036=CARTESIAN_POINT('Origin',(223.,49.5,240.));
#1037=CARTESIAN_POINT('Origin',(270.,49.5,240.));
#1038=CARTESIAN_POINT('Origin',(223.,52.,240.));
#1039=CARTESIAN_POINT('',(247.173510638298,60.,233.624940516348));
#1040=CARTESIAN_POINT('',(247.173510638298,52.,233.624940516348));
#1041=CARTESIAN_POINT('',(223.,60.,215.));
#1042=CARTESIAN_POINT('Origin',(223.,60.,240.));
#1043=CARTESIAN_POINT('',(223.,44.,215.));
#1044=CARTESIAN_POINT('',(223.,52.,215.));
#1045=CARTESIAN_POINT('',(247.173510638298,44.,233.624940516348));
#1046=CARTESIAN_POINT('Origin',(223.,44.,240.));
#1047=CARTESIAN_POINT('',(247.173510638298,52.,233.624940516348));
#1048=CARTESIAN_POINT('Origin',(270.,52.,240.));
#1049=CARTESIAN_POINT('',(247.173510638298,60.,246.375059483652));
#1050=CARTESIAN_POINT('',(247.173510638298,52.,246.375059483652));
#1051=CARTESIAN_POINT('Origin',(270.,60.,240.));
#1052=CARTESIAN_POINT('Origin',(270.,52.,240.));
#1053=CARTESIAN_POINT('',(247.173510638298,44.,246.375059483652));
#1054=CARTESIAN_POINT('Origin',(270.,44.,240.));
#1055=CARTESIAN_POINT('',(247.173510638298,52.,246.375059483652));
#1056=CARTESIAN_POINT('Origin',(135.,52.,240.));
#1057=CARTESIAN_POINT('',(135.,60.,204.2));
#1058=CARTESIAN_POINT('',(135.,44.,204.2));
#1059=CARTESIAN_POINT('',(135.,52.,204.2));
#1060=CARTESIAN_POINT('',(135.,44.,215.));
#1061=CARTESIAN_POINT('',(135.,44.,240.));
#1062=CARTESIAN_POINT('',(135.,60.,215.));
#1063=CARTESIAN_POINT('',(135.,52.,215.));
#1064=CARTESIAN_POINT('',(135.,60.,240.));
#1065=CARTESIAN_POINT('Origin',(135.,52.,240.));
#1066=CARTESIAN_POINT('',(135.,44.,199.8));
#1067=CARTESIAN_POINT('',(135.,60.,199.8));
#1068=CARTESIAN_POINT('',(135.,52.,199.8));
#1069=CARTESIAN_POINT('',(135.,60.,192.));
#1070=CARTESIAN_POINT('',(135.,60.,240.));
#1071=CARTESIAN_POINT('',(135.,44.,192.));
#1072=CARTESIAN_POINT('',(135.,52.,192.));
#1073=CARTESIAN_POINT('',(135.,44.,240.));
#1074=CARTESIAN_POINT('Origin',(135.,52.,240.));
#1075=CARTESIAN_POINT('',(135.,60.,280.2));
#1076=CARTESIAN_POINT('',(135.,44.,280.2));
#1077=CARTESIAN_POINT('',(135.,52.,280.2));
#1078=CARTESIAN_POINT('',(135.,44.,288.));
#1079=CARTESIAN_POINT('',(135.,44.,240.));
#1080=CARTESIAN_POINT('',(135.,60.,288.));
#1081=CARTESIAN_POINT('',(135.,52.,288.));
#1082=CARTESIAN_POINT('',(135.,60.,240.));
#1083=CARTESIAN_POINT('Origin',(135.,52.,240.));
#1084=CARTESIAN_POINT('',(135.,44.,275.8));
#1085=CARTESIAN_POINT('',(135.,60.,275.8));
#1086=CARTESIAN_POINT('',(135.,52.,275.8));
#1087=CARTESIAN_POINT('',(135.,60.,265.));
#1088=CARTESIAN_POINT('',(135.,60.,240.));
#1089=CARTESIAN_POINT('',(135.,44.,265.));
#1090=CARTESIAN_POINT('',(135.,52.,265.));
#1091=CARTESIAN_POINT('',(135.,44.,240.));
#1092=CARTESIAN_POINT('Origin',(135.,52.,278.));
#1093=CARTESIAN_POINT('Origin',(135.,44.,278.));
#1094=CARTESIAN_POINT('Origin',(135.,60.,278.));
#1095=CARTESIAN_POINT('Origin',(135.,60.,240.));
#1096=CARTESIAN_POINT('',(250.,60.,288.));
#1097=CARTESIAN_POINT('',(135.,60.,288.));
#1098=CARTESIAN_POINT('',(250.,60.,192.));
#1099=CARTESIAN_POINT('Origin',(270.,60.,240.));
#1100=CARTESIAN_POINT('',(135.,60.,192.));
#1101=CARTESIAN_POINT('Origin',(135.,60.,202.));
#1102=CARTESIAN_POINT('',(135.,60.,215.));
#1103=CARTESIAN_POINT('',(223.,60.,265.));
#1104=CARTESIAN_POINT('Origin',(223.,60.,240.));
#1105=CARTESIAN_POINT('',(135.,60.,265.));
#1106=CARTESIAN_POINT('',(212.8,60.,278.));
#1107=CARTESIAN_POINT('Origin',(215.,60.,278.));
#1108=CARTESIAN_POINT('',(212.8,60.,202.));
#1109=CARTESIAN_POINT('Origin',(215.,60.,202.));
#1110=CARTESIAN_POINT('Origin',(135.,52.,202.));
#1111=CARTESIAN_POINT('Origin',(135.,44.,202.));
#1112=CARTESIAN_POINT('Origin',(215.,52.,278.));
#1113=CARTESIAN_POINT('',(212.8,44.,278.));
#1114=CARTESIAN_POINT('Origin',(215.,44.,278.));
#1115=CARTESIAN_POINT('',(212.8,52.,278.));
#1116=CARTESIAN_POINT('Origin',(215.,52.,202.));
#1117=CARTESIAN_POINT('',(212.8,44.,202.));
#1118=CARTESIAN_POINT('Origin',(215.,44.,202.));
#1119=CARTESIAN_POINT('',(212.8,52.,202.));
#1120=CARTESIAN_POINT('Origin',(223.,52.,240.));
#1121=CARTESIAN_POINT('',(223.,44.,265.));
#1122=CARTESIAN_POINT('Origin',(223.,44.,240.));
#1123=CARTESIAN_POINT('',(223.,52.,265.));
#1124=CARTESIAN_POINT('Origin',(135.,44.,240.));
#1125=CARTESIAN_POINT('',(135.,44.,265.));
#1126=CARTESIAN_POINT('',(135.,44.,215.));
#1127=CARTESIAN_POINT('',(250.,44.,192.));
#1128=CARTESIAN_POINT('',(135.,44.,192.));
#1129=CARTESIAN_POINT('',(250.,44.,288.));
#1130=CARTESIAN_POINT('Origin',(270.,44.,240.));
#1131=CARTESIAN_POINT('',(135.,44.,288.));
#1132=CARTESIAN_POINT('Origin',(135.,52.,215.));
#1133=CARTESIAN_POINT('Origin',(135.,52.,265.));
#1134=CARTESIAN_POINT('Origin',(270.,52.,240.));
#1135=CARTESIAN_POINT('',(250.,52.,288.));
#1136=CARTESIAN_POINT('',(250.,52.,192.));
#1137=CARTESIAN_POINT('Origin',(135.,52.,192.));
#1138=CARTESIAN_POINT('Origin',(135.,52.,288.));
#1139=UNCERTAINTY_MEASURE_WITH_UNIT(LENGTH_MEASURE(0.01),#1143,
'DISTANCE_ACCURACY_VALUE',
'Maximum model space distance between geometric entities at asserted c
onnectivities');
#1140=UNCERTAINTY_MEASURE_WITH_UNIT(LENGTH_MEASURE(0.01),#1143,
'DISTANCE_ACCURACY_VALUE',
'Maximum model space distance between geometric entities at asserted c
onnectivities');
#1141=(
GEOMETRIC_REPRESENTATION_CONTEXT(3)
GLOBAL_UNCERTAINTY_ASSIGNED_CONTEXT((#1139))
GLOBAL_UNIT_ASSIGNED_CONTEXT((#1143,#1145,#1146))
REPRESENTATION_CONTEXT('','3D')
);
#1142=(
GEOMETRIC_REPRESENTATION_CONTEXT(3)
GLOBAL_UNCERTAINTY_ASSIGNED_CONTEXT((#1140))
GLOBAL_UNIT_ASSIGNED_CONTEXT((#1143,#1145,#1146))
REPRESENTATION_CONTEXT('','3D')
);
#1143=(
LENGTH_UNIT()
NAMED_UNIT(*)
SI_UNIT(.MILLI.,.METRE.)
);
#1144=(
LENGTH_UNIT()
NAMED_UNIT(*)
SI_UNIT($,.METRE.)
);
#1145=(
NAMED_UNIT(*)
PLANE_ANGLE_UNIT()
SI_UNIT($,.RADIAN.)
);
#1146=(
NAMED_UNIT(*)
SI_UNIT($,.STERADIAN.)
SOLID_ANGLE_UNIT()
);
#1147=SHAPE_DEFINITION_REPRESENTATION(#1148,#1149);
#1148=PRODUCT_DEFINITION_SHAPE('',$,#1151);
#1149=SHAPE_REPRESENTATION('',(#663),#1141);
#1150=PRODUCT_DEFINITION_CONTEXT('part definition',#1155,'design');
#1151=PRODUCT_DEFINITION('2026-09-30-18-58-24-423',
'EXPORT_TMP_PRINT_V010J_P214_UpperArmCheek_Right_B_6',#1152,#1150);
#1152=PRODUCT_DEFINITION_FORMATION('',$,#1157);
#1153=PRODUCT_RELATED_PRODUCT_CATEGORY(
'EXPORT_TMP_PRINT_V010J_P214_UpperArmCheek_Right_B_6',
'EXPORT_TMP_PRINT_V010J_P214_UpperArmCheek_Right_B_6',(#1157));
#1154=APPLICATION_PROTOCOL_DEFINITION('international standard',
'automotive_design',2009,#1155);
#1155=APPLICATION_CONTEXT(
'Core Data for Automotive Mechanical Design Process');
#1156=PRODUCT_CONTEXT('part definition',#1155,'mechanical');
#1157=PRODUCT('2026-09-30-18-58-24-423',
'EXPORT_TMP_PRINT_V010J_P214_UpperArmCheek_Right_B_6',$,(#1156));
#1158=PRESENTATION_STYLE_ASSIGNMENT((#1159));
#1159=SURFACE_STYLE_USAGE(.BOTH.,#1160);
#1160=SURFACE_SIDE_STYLE('',(#1161));
#1161=SURFACE_STYLE_FILL_AREA(#1162);
#1162=FILL_AREA_STYLE('Steel - Satin',(#1163));
#1163=FILL_AREA_STYLE_COLOUR('Steel - Satin',#1164);
#1164=COLOUR_RGB('Steel - Satin',0.627450980392157,0.627450980392157,0.627450980392157);
ENDSEC;
END-ISO-10303-21;
