ISO-10303-21;
HEADER;
/* Generated by software containing ST-Developer
 * from STEP Tools, Inc. (www.steptools.com) 
 */

FILE_DESCRIPTION(
/* description */ (''),
/* implementation_level */ '2;1');

FILE_NAME(
/* name */ 'PRINT_V010J_P221_J3_InnerRaceSetScrewCollar_Right.step',
/* time_stamp */ '2026-08-12T23:08:55+02:00',
/* author */ (''),
/* organization */ (''),
/* preprocessor_version */ 'ST-DEVELOPER v20.1',
/* originating_system */ 'Autodesk Translation Framework v15.8.0.0',
/* authorisation */ '');

FILE_SCHEMA (('AUTOMOTIVE_DESIGN { 1 0 10303 214 3 1 1 }'));
ENDSEC;

DATA;
#10=MECHANICAL_DESIGN_GEOMETRIC_PRESENTATION_REPRESENTATION('',(#13),#249);
#11=SHAPE_REPRESENTATION_RELATIONSHIP('SRR','None',#256,#12);
#12=ADVANCED_BREP_SHAPE_REPRESENTATION('',(#14),#248);
#13=STYLED_ITEM('',(#265),#14);
#14=MANIFOLD_SOLID_BREP(
'PRINT_V010J_P221_J3_InnerRaceSetScrewCollar_Right',#99);
#15=CIRCLE('',#116,21.);
#16=CIRCLE('',#117,17.5);
#17=CIRCLE('',#119,17.5);
#18=CIRCLE('',#121,21.);
#19=PLANE('',#115);
#20=PLANE('',#122);
#21=FACE_OUTER_BOUND('',#27,.T.);
#22=FACE_OUTER_BOUND('',#28,.T.);
#23=FACE_OUTER_BOUND('',#29,.T.);
#24=FACE_OUTER_BOUND('',#30,.T.);
#25=FACE_OUTER_BOUND('',#31,.T.);
#26=FACE_OUTER_BOUND('',#32,.T.);
#27=EDGE_LOOP('',(#65,#66,#67,#68));
#28=EDGE_LOOP('',(#69,#70,#71,#72));
#29=EDGE_LOOP('',(#73,#74,#75,#76));
#30=EDGE_LOOP('',(#77,#78,#79,#80));
#31=EDGE_LOOP('',(#81,#82,#83,#84));
#32=EDGE_LOOP('',(#85,#86,#87,#88));
#33=LINE('',#173,#37);
#34=LINE('',#194,#38);
#35=LINE('',#217,#39);
#36=LINE('',#237,#40);
#37=VECTOR('',#127,10.);
#38=VECTOR('',#128,10.);
#39=VECTOR('',#131,10.);
#40=VECTOR('',#132,10.);
#41=B_SPLINE_CURVE_WITH_KNOTS('',3,(#153,#154,#155,#156,#157,#158,#159,
#160,#161,#162,#163,#164,#165,#166,#167,#168,#169,#170,#171),
 .UNSPECIFIED.,.F.,.F.,(4,2,2,2,3,2,2,2,4),(0.971334272629517,1.00455669325423,
1.0818301748524,1.15910389519691,1.23637761554142,1.31365133588592,1.39092505623043,
1.4681985378286,1.50142095845331),.UNSPECIFIED.);
#42=B_SPLINE_CURVE_WITH_KNOTS('',3,(#175,#176,#177,#178,#179,#180,#181,
#182,#183,#184,#185,#186,#187,#188,#189,#190,#191,#192,#193),
 .UNSPECIFIED.,.F.,.F.,(4,2,2,2,3,2,2,2,4),(0.971619500267547,1.0048607527476,
1.08215750426395,1.1594547529528,1.23675200164166,1.31404925033051,1.39134649901936,
1.46864325053571,1.50188450301576),.UNSPECIFIED.);
#43=B_SPLINE_CURVE_WITH_KNOTS('',3,(#198,#199,#200,#201,#202,#203,#204,
#205,#206,#207,#208,#209,#210,#211,#212,#213,#214,#215),.UNSPECIFIED.,.F.,
 .F.,(4,2,2,2,2,2,2,2,4),(0.353145464858803,0.386367885483522,0.463641367081691,
0.540915087426199,0.618188807770708,0.695462528115217,0.772736248459725,
0.850009730057893,0.883232150682614),.UNSPECIFIED.);
#44=B_SPLINE_CURVE_WITH_KNOTS('',3,(#219,#220,#221,#222,#223,#224,#225,
#226,#227,#228,#229,#230,#231,#232,#233,#234,#235,#236),.UNSPECIFIED.,.F.,
 .F.,(4,2,2,2,2,2,2,2,4),(0.353243499446718,0.386484751926768,0.463781503443123,
0.541078752131975,0.618376000820828,0.69567324950968,0.772970498198533,
0.850267249714887,0.883508502194933),.UNSPECIFIED.);
#45=VERTEX_POINT('',#151);
#46=VERTEX_POINT('',#152);
#47=VERTEX_POINT('',#172);
#48=VERTEX_POINT('',#174);
#49=VERTEX_POINT('',#196);
#50=VERTEX_POINT('',#197);
#51=VERTEX_POINT('',#216);
#52=VERTEX_POINT('',#218);
#53=EDGE_CURVE('',#45,#46,#41,.T.);
#54=EDGE_CURVE('',#47,#45,#33,.T.);
#55=EDGE_CURVE('',#48,#47,#42,.T.);
#56=EDGE_CURVE('',#46,#48,#34,.T.);
#57=EDGE_CURVE('',#49,#50,#43,.T.);
#58=EDGE_CURVE('',#51,#49,#35,.T.);
#59=EDGE_CURVE('',#52,#51,#44,.T.);
#60=EDGE_CURVE('',#50,#52,#36,.T.);
#61=EDGE_CURVE('',#49,#46,#15,.T.);
#62=EDGE_CURVE('',#48,#51,#16,.T.);
#63=EDGE_CURVE('',#52,#47,#17,.T.);
#64=EDGE_CURVE('',#45,#50,#18,.T.);
#65=ORIENTED_EDGE('',*,*,#53,.F.);
#66=ORIENTED_EDGE('',*,*,#54,.F.);
#67=ORIENTED_EDGE('',*,*,#55,.F.);
#68=ORIENTED_EDGE('',*,*,#56,.F.);
#69=ORIENTED_EDGE('',*,*,#57,.F.);
#70=ORIENTED_EDGE('',*,*,#58,.F.);
#71=ORIENTED_EDGE('',*,*,#59,.F.);
#72=ORIENTED_EDGE('',*,*,#60,.F.);
#73=ORIENTED_EDGE('',*,*,#58,.T.);
#74=ORIENTED_EDGE('',*,*,#61,.T.);
#75=ORIENTED_EDGE('',*,*,#56,.T.);
#76=ORIENTED_EDGE('',*,*,#62,.T.);
#77=ORIENTED_EDGE('',*,*,#59,.T.);
#78=ORIENTED_EDGE('',*,*,#62,.F.);
#79=ORIENTED_EDGE('',*,*,#55,.T.);
#80=ORIENTED_EDGE('',*,*,#63,.F.);
#81=ORIENTED_EDGE('',*,*,#57,.T.);
#82=ORIENTED_EDGE('',*,*,#64,.F.);
#83=ORIENTED_EDGE('',*,*,#53,.T.);
#84=ORIENTED_EDGE('',*,*,#61,.F.);
#85=ORIENTED_EDGE('',*,*,#60,.T.);
#86=ORIENTED_EDGE('',*,*,#63,.T.);
#87=ORIENTED_EDGE('',*,*,#54,.T.);
#88=ORIENTED_EDGE('',*,*,#64,.T.);
#89=CYLINDRICAL_SURFACE('',#113,2.05);
#90=CYLINDRICAL_SURFACE('',#114,2.05);
#91=CYLINDRICAL_SURFACE('',#118,17.5);
#92=CYLINDRICAL_SURFACE('',#120,21.);
#93=ADVANCED_FACE('',(#21),#89,.F.);
#94=ADVANCED_FACE('',(#22),#90,.F.);
#95=ADVANCED_FACE('',(#23),#19,.T.);
#96=ADVANCED_FACE('',(#24),#91,.F.);
#97=ADVANCED_FACE('',(#25),#92,.T.);
#98=ADVANCED_FACE('',(#26),#20,.T.);
#99=CLOSED_SHELL('',(#93,#94,#95,#96,#97,#98));
#100=DERIVED_UNIT_ELEMENT(#102,1.);
#101=DERIVED_UNIT_ELEMENT(#251,-3.);
#102=(
MASS_UNIT()
NAMED_UNIT(*)
SI_UNIT(.KILO.,.GRAM.)
);
#103=DERIVED_UNIT((#100,#101));
#104=MEASURE_REPRESENTATION_ITEM('density measure',
POSITIVE_RATIO_MEASURE(7850.),#103);
#105=PROPERTY_DEFINITION_REPRESENTATION(#110,#107);
#106=PROPERTY_DEFINITION_REPRESENTATION(#111,#108);
#107=REPRESENTATION('material name',(#109),#248);
#108=REPRESENTATION('density',(#104),#248);
#109=DESCRIPTIVE_REPRESENTATION_ITEM('Steel','Steel');
#110=PROPERTY_DEFINITION('material property','material name',#258);
#111=PROPERTY_DEFINITION('material property','density of part',#258);
#112=AXIS2_PLACEMENT_3D('',#149,#123,#124);
#113=AXIS2_PLACEMENT_3D('',#150,#125,#126);
#114=AXIS2_PLACEMENT_3D('',#195,#129,#130);
#115=AXIS2_PLACEMENT_3D('',#238,#133,#134);
#116=AXIS2_PLACEMENT_3D('',#239,#135,#136);
#117=AXIS2_PLACEMENT_3D('',#240,#137,#138);
#118=AXIS2_PLACEMENT_3D('',#241,#139,#140);
#119=AXIS2_PLACEMENT_3D('',#242,#141,#142);
#120=AXIS2_PLACEMENT_3D('',#243,#143,#144);
#121=AXIS2_PLACEMENT_3D('',#244,#145,#146);
#122=AXIS2_PLACEMENT_3D('',#245,#147,#148);
#123=DIRECTION('axis',(0.,0.,1.));
#124=DIRECTION('refdir',(1.,0.,0.));
#125=DIRECTION('center_axis',(1.,0.,0.));
#126=DIRECTION('ref_axis',(0.,0.,-1.));
#127=DIRECTION('',(1.,0.,0.));
#128=DIRECTION('',(-1.,0.,0.));
#129=DIRECTION('center_axis',(1.,0.,0.));
#130=DIRECTION('ref_axis',(0.,-8.75931951708652E-15,1.));
#131=DIRECTION('',(1.,0.,0.));
#132=DIRECTION('',(-1.,0.,0.));
#133=DIRECTION('center_axis',(0.,-1.,0.));
#134=DIRECTION('ref_axis',(-1.,0.,0.));
#135=DIRECTION('center_axis',(0.,-1.,0.));
#136=DIRECTION('ref_axis',(1.,0.,0.));
#137=DIRECTION('center_axis',(0.,1.,0.));
#138=DIRECTION('ref_axis',(1.,0.,0.));
#139=DIRECTION('center_axis',(0.,1.,0.));
#140=DIRECTION('ref_axis',(-1.,0.,-7.6571373978539E-16));
#141=DIRECTION('center_axis',(0.,-1.,0.));
#142=DIRECTION('ref_axis',(1.,0.,0.));
#143=DIRECTION('center_axis',(0.,1.,0.));
#144=DIRECTION('ref_axis',(-1.,0.,1.22464679914735E-16));
#145=DIRECTION('center_axis',(0.,1.,0.));
#146=DIRECTION('ref_axis',(1.,0.,0.));
#147=DIRECTION('center_axis',(0.,1.,0.));
#148=DIRECTION('ref_axis',(1.,0.,0.));
#149=CARTESIAN_POINT('',(0.,0.,0.));
#150=CARTESIAN_POINT('Origin',(289.5,62.,240.));
#151=CARTESIAN_POINT('',(290.995178017821,64.,239.55));
#152=CARTESIAN_POINT('',(290.995178017821,60.,239.55));
#153=CARTESIAN_POINT('Ctrl Pts',(290.995178017821,64.,239.55));
#154=CARTESIAN_POINT('Ctrl Pts',(290.992742986462,63.9744380415659,239.436391295849));
#155=CARTESIAN_POINT('Ctrl Pts',(290.989392671387,63.9388429046045,239.32383581484));
#156=CARTESIAN_POINT('Ctrl Pts',(290.975890421554,63.7892281500659,238.962756584111));
#157=CARTESIAN_POINT('Ctrl Pts',(290.962497776514,63.6314866392957,238.732348836431));
#158=CARTESIAN_POINT('Ctrl Pts',(290.9373231866,63.267650601511,238.368512798646));
#159=CARTESIAN_POINT('Ctrl Pts',(290.923902586703,63.0372431004876,238.210771726175));
#160=CARTESIAN_POINT('Ctrl Pts',(290.904953442233,62.5322143501902,238.001510846335));
#161=CARTESIAN_POINT('Ctrl Pts',(290.899700954798,62.257579067815,237.95));
#162=CARTESIAN_POINT('Ctrl Pts',(290.899700954798,62.,237.95));
#163=CARTESIAN_POINT('Ctrl Pts',(290.899700954798,61.742420932185,237.95));
#164=CARTESIAN_POINT('Ctrl Pts',(290.904953442233,61.4677856498098,238.001510846335));
#165=CARTESIAN_POINT('Ctrl Pts',(290.923902586703,60.9627568995124,238.210771726175));
#166=CARTESIAN_POINT('Ctrl Pts',(290.9373231866,60.732349398489,238.368512798646));
#167=CARTESIAN_POINT('Ctrl Pts',(290.962497776514,60.3685133607043,238.732348836431));
#168=CARTESIAN_POINT('Ctrl Pts',(290.975890421554,60.2107718499341,238.962756584111));
#169=CARTESIAN_POINT('Ctrl Pts',(290.989392671388,60.0611570953955,239.32383581484));
#170=CARTESIAN_POINT('Ctrl Pts',(290.992742986462,60.025561958434,239.436391295849));
#171=CARTESIAN_POINT('Ctrl Pts',(290.995178017821,60.,239.55));
#172=CARTESIAN_POINT('',(287.494213328984,64.,239.55));
#173=CARTESIAN_POINT('',(289.5,64.,239.55));
#174=CARTESIAN_POINT('',(287.494213328984,60.,239.55));
#175=CARTESIAN_POINT('Ctrl Pts',(287.494213328984,60.,239.55));
#176=CARTESIAN_POINT('Ctrl Pts',(287.491289906623,60.0255714872164,239.436348945705));
#177=CARTESIAN_POINT('Ctrl Pts',(287.487267199654,60.061181947826,239.323759534124));
#178=CARTESIAN_POINT('Ctrl Pts',(287.47105681346,60.2108248786307,238.962666537663));
#179=CARTESIAN_POINT('Ctrl Pts',(287.454978174758,60.3685547661193,238.732307431016));
#180=CARTESIAN_POINT('Ctrl Pts',(287.424743630569,60.7323086008439,238.368553596291));
#181=CARTESIAN_POINT('Ctrl Pts',(287.408616575288,60.9626671976579,238.210824624507));
#182=CARTESIAN_POINT('Ctrl Pts',(287.385834546105,61.4676739735062,238.001541396205));
#183=CARTESIAN_POINT('Ctrl Pts',(287.379513802175,61.7423425043705,237.95));
#184=CARTESIAN_POINT('Ctrl Pts',(287.379513802175,62.,237.95));
#185=CARTESIAN_POINT('Ctrl Pts',(287.379513802175,62.2576574956295,237.95));
#186=CARTESIAN_POINT('Ctrl Pts',(287.385834546105,62.5323260264938,238.001541396205));
#187=CARTESIAN_POINT('Ctrl Pts',(287.408616575288,63.0373328023421,238.210824624507));
#188=CARTESIAN_POINT('Ctrl Pts',(287.424743630569,63.2676913991561,238.368553596291));
#189=CARTESIAN_POINT('Ctrl Pts',(287.454978174758,63.6314452338807,238.732307431016));
#190=CARTESIAN_POINT('Ctrl Pts',(287.47105681346,63.7891751213694,238.962666537663));
#191=CARTESIAN_POINT('Ctrl Pts',(287.487267199654,63.938818052174,239.323759534124));
#192=CARTESIAN_POINT('Ctrl Pts',(287.491289906623,63.9744285127836,239.436348945705));
#193=CARTESIAN_POINT('Ctrl Pts',(287.494213328984,64.,239.55));
#194=CARTESIAN_POINT('',(289.5,60.,239.55));
#195=CARTESIAN_POINT('Origin',(289.5,62.,240.));
#196=CARTESIAN_POINT('',(290.995178017821,60.,240.45));
#197=CARTESIAN_POINT('',(290.995178017821,64.,240.45));
#198=CARTESIAN_POINT('Ctrl Pts',(290.995178017821,60.,240.45));
#199=CARTESIAN_POINT('Ctrl Pts',(290.992742986462,60.025561958434,240.563608704151));
#200=CARTESIAN_POINT('Ctrl Pts',(290.989392671388,60.0611570953955,240.67616418516));
#201=CARTESIAN_POINT('Ctrl Pts',(290.975890421554,60.2107718499342,241.037243415889));
#202=CARTESIAN_POINT('Ctrl Pts',(290.962497776514,60.3685133607044,241.267651163569));
#203=CARTESIAN_POINT('Ctrl Pts',(290.9373231866,60.732349398489,241.631487201354));
#204=CARTESIAN_POINT('Ctrl Pts',(290.923902586703,60.9627568995124,241.789228273825));
#205=CARTESIAN_POINT('Ctrl Pts',(290.904953442233,61.4677856498098,241.998489153665));
#206=CARTESIAN_POINT('Ctrl Pts',(290.899700954798,61.742420932185,242.05));
#207=CARTESIAN_POINT('Ctrl Pts',(290.899700954798,62.257579067815,242.05));
#208=CARTESIAN_POINT('Ctrl Pts',(290.904953442233,62.5322143501902,241.998489153665));
#209=CARTESIAN_POINT('Ctrl Pts',(290.923902586703,63.0372431004876,241.789228273825));
#210=CARTESIAN_POINT('Ctrl Pts',(290.9373231866,63.267650601511,241.631487201354));
#211=CARTESIAN_POINT('Ctrl Pts',(290.962497776514,63.6314866392957,241.267651163569));
#212=CARTESIAN_POINT('Ctrl Pts',(290.975890421554,63.7892281500658,241.037243415889));
#213=CARTESIAN_POINT('Ctrl Pts',(290.989392671388,63.9388429046045,240.67616418516));
#214=CARTESIAN_POINT('Ctrl Pts',(290.992742986462,63.974438041566,240.563608704151));
#215=CARTESIAN_POINT('Ctrl Pts',(290.995178017821,64.,240.45));
#216=CARTESIAN_POINT('',(287.494213328984,60.,240.45));
#217=CARTESIAN_POINT('',(289.5,60.,240.45));
#218=CARTESIAN_POINT('',(287.494213328984,64.,240.45));
#219=CARTESIAN_POINT('Ctrl Pts',(287.494213328984,64.,240.45));
#220=CARTESIAN_POINT('Ctrl Pts',(287.491289906623,63.9744285127836,240.563651054295));
#221=CARTESIAN_POINT('Ctrl Pts',(287.487267199654,63.938818052174,240.676240465876));
#222=CARTESIAN_POINT('Ctrl Pts',(287.47105681346,63.7891751213693,241.037333462337));
#223=CARTESIAN_POINT('Ctrl Pts',(287.454978174758,63.6314452338807,241.267692568984));
#224=CARTESIAN_POINT('Ctrl Pts',(287.424743630569,63.2676913991561,241.631446403709));
#225=CARTESIAN_POINT('Ctrl Pts',(287.408616575288,63.0373328023421,241.789175375493));
#226=CARTESIAN_POINT('Ctrl Pts',(287.385834546105,62.5323260264938,241.998458603795));
#227=CARTESIAN_POINT('Ctrl Pts',(287.379513802175,62.2576574956295,242.05));
#228=CARTESIAN_POINT('Ctrl Pts',(287.379513802175,61.7423425043705,242.05));
#229=CARTESIAN_POINT('Ctrl Pts',(287.385834546105,61.4676739735062,241.998458603795));
#230=CARTESIAN_POINT('Ctrl Pts',(287.408616575288,60.9626671976579,241.789175375493));
#231=CARTESIAN_POINT('Ctrl Pts',(287.424743630569,60.7323086008439,241.631446403709));
#232=CARTESIAN_POINT('Ctrl Pts',(287.454978174758,60.3685547661193,241.267692568984));
#233=CARTESIAN_POINT('Ctrl Pts',(287.47105681346,60.2108248786306,241.037333462336));
#234=CARTESIAN_POINT('Ctrl Pts',(287.487267199654,60.061181947826,240.676240465876));
#235=CARTESIAN_POINT('Ctrl Pts',(287.491289906623,60.0255714872164,240.563651054295));
#236=CARTESIAN_POINT('Ctrl Pts',(287.494213328984,60.,240.45));
#237=CARTESIAN_POINT('',(289.5,64.,240.45));
#238=CARTESIAN_POINT('Origin',(270.,60.,240.));
#239=CARTESIAN_POINT('Origin',(270.,60.,240.));
#240=CARTESIAN_POINT('Origin',(270.,60.,240.));
#241=CARTESIAN_POINT('Origin',(270.,62.,240.));
#242=CARTESIAN_POINT('Origin',(270.,64.,240.));
#243=CARTESIAN_POINT('Origin',(270.,62.,240.));
#244=CARTESIAN_POINT('Origin',(270.,64.,240.));
#245=CARTESIAN_POINT('Origin',(270.,64.,240.));
#246=UNCERTAINTY_MEASURE_WITH_UNIT(LENGTH_MEASURE(0.01),#250,
'DISTANCE_ACCURACY_VALUE',
'Maximum model space distance between geometric entities at asserted c
onnectivities');
#247=UNCERTAINTY_MEASURE_WITH_UNIT(LENGTH_MEASURE(0.01),#250,
'DISTANCE_ACCURACY_VALUE',
'Maximum model space distance between geometric entities at asserted c
onnectivities');
#248=(
GEOMETRIC_REPRESENTATION_CONTEXT(3)
GLOBAL_UNCERTAINTY_ASSIGNED_CONTEXT((#246))
GLOBAL_UNIT_ASSIGNED_CONTEXT((#250,#252,#253))
REPRESENTATION_CONTEXT('','3D')
);
#249=(
GEOMETRIC_REPRESENTATION_CONTEXT(3)
GLOBAL_UNCERTAINTY_ASSIGNED_CONTEXT((#247))
GLOBAL_UNIT_ASSIGNED_CONTEXT((#250,#252,#253))
REPRESENTATION_CONTEXT('','3D')
);
#250=(
LENGTH_UNIT()
NAMED_UNIT(*)
SI_UNIT(.MILLI.,.METRE.)
);
#251=(
LENGTH_UNIT()
NAMED_UNIT(*)
SI_UNIT($,.METRE.)
);
#252=(
NAMED_UNIT(*)
PLANE_ANGLE_UNIT()
SI_UNIT($,.RADIAN.)
);
#253=(
NAMED_UNIT(*)
SI_UNIT($,.STERADIAN.)
SOLID_ANGLE_UNIT()
);
#254=SHAPE_DEFINITION_REPRESENTATION(#255,#256);
#255=PRODUCT_DEFINITION_SHAPE('',$,#258);
#256=SHAPE_REPRESENTATION('',(#112),#248);
#257=PRODUCT_DEFINITION_CONTEXT('part definition',#262,'design');
#258=PRODUCT_DEFINITION('2026-08-12-23-08-55-034',
'EXPORT_TMP_PRINT_V010J_P221_J3_InnerRaceSetScrewCol',#259,#257);
#259=PRODUCT_DEFINITION_FORMATION('',$,#264);
#260=PRODUCT_RELATED_PRODUCT_CATEGORY(
'EXPORT_TMP_PRINT_V010J_P221_J3_InnerRaceSetScrewCol',
'EXPORT_TMP_PRINT_V010J_P221_J3_InnerRaceSetScrewCol',(#264));
#261=APPLICATION_PROTOCOL_DEFINITION('international standard',
'automotive_design',2009,#262);
#262=APPLICATION_CONTEXT(
'Core Data for Automotive Mechanical Design Process');
#263=PRODUCT_CONTEXT('part definition',#262,'mechanical');
#264=PRODUCT('2026-08-12-23-08-55-034',
'EXPORT_TMP_PRINT_V010J_P221_J3_InnerRaceSetScrewCol',$,(#263));
#265=PRESENTATION_STYLE_ASSIGNMENT((#266));
#266=SURFACE_STYLE_USAGE(.BOTH.,#267);
#267=SURFACE_SIDE_STYLE('',(#268));
#268=SURFACE_STYLE_FILL_AREA(#269);
#269=FILL_AREA_STYLE('Steel - Satin',(#270));
#270=FILL_AREA_STYLE_COLOUR('Steel - Satin',#271);
#271=COLOUR_RGB('Steel - Satin',0.627450980392157,0.627450980392157,0.627450980392157);
ENDSEC;
END-ISO-10303-21;
