ISO-10303-21;
HEADER;
/* Generated by software containing ST-Developer
 * from STEP Tools, Inc. (www.steptools.com) 
 */

FILE_DESCRIPTION(
/* description */ (''),
/* implementation_level */ '2;1');

FILE_NAME(
/* name */ 
'PRINT_V010J_P219_J3_Right6807_OuterRaceRetainer_Access.step',
/* time_stamp */ '2026-08-12T23:08:16+02:00',
/* author */ (''),
/* organization */ (''),
/* preprocessor_version */ 'ST-DEVELOPER v20.1',
/* originating_system */ 'Autodesk Translation Framework v15.8.0.0',
/* authorisation */ '');

FILE_SCHEMA (('AUTOMOTIVE_DESIGN { 1 0 10303 214 3 1 1 }'));
ENDSEC;

DATA;
#10=MECHANICAL_DESIGN_GEOMETRIC_PRESENTATION_REPRESENTATION('',(#13),#645);
#11=SHAPE_REPRESENTATION_RELATIONSHIP('SRR','None',#652,#12);
#12=ADVANCED_BREP_SHAPE_REPRESENTATION('',(#14),#644);
#13=STYLED_ITEM('',(#661),#14);
#14=MANIFOLD_SOLID_BREP(
'PRINT_V010J_P219_J3_Right6807_OuterRaceRetainer_Access',#343);
#15=FACE_BOUND('',#76,.T.);
#16=FACE_BOUND('',#77,.T.);
#17=FACE_BOUND('',#78,.T.);
#18=FACE_BOUND('',#79,.T.);
#19=FACE_BOUND('',#89,.T.);
#20=FACE_BOUND('',#90,.T.);
#21=FACE_BOUND('',#91,.T.);
#22=FACE_BOUND('',#92,.T.);
#23=PLANE('',#365);
#24=PLANE('',#394);
#25=CIRCLE('',#360,26.);
#26=CIRCLE('',#361,26.);
#27=CIRCLE('',#363,26.);
#28=CIRCLE('',#364,26.);
#29=CIRCLE('',#366,5.5);
#30=CIRCLE('',#367,26.);
#31=CIRCLE('',#368,5.5);
#32=CIRCLE('',#369,26.);
#33=CIRCLE('',#370,5.5);
#34=CIRCLE('',#371,26.);
#35=CIRCLE('',#372,5.5);
#36=CIRCLE('',#373,21.5);
#37=CIRCLE('',#374,1.7);
#38=CIRCLE('',#375,1.7);
#39=CIRCLE('',#376,1.7);
#40=CIRCLE('',#377,1.7);
#41=CIRCLE('',#379,1.7);
#42=CIRCLE('',#381,5.5);
#43=CIRCLE('',#383,26.);
#44=CIRCLE('',#385,1.7);
#45=CIRCLE('',#387,5.5);
#46=CIRCLE('',#389,26.);
#47=CIRCLE('',#391,1.7);
#48=CIRCLE('',#393,5.5);
#49=CIRCLE('',#395,21.5);
#50=CIRCLE('',#396,5.5);
#51=CIRCLE('',#397,26.);
#52=CIRCLE('',#398,1.7);
#53=FACE_OUTER_BOUND('',#71,.T.);
#54=FACE_OUTER_BOUND('',#72,.T.);
#55=FACE_OUTER_BOUND('',#73,.T.);
#56=FACE_OUTER_BOUND('',#74,.T.);
#57=FACE_OUTER_BOUND('',#75,.T.);
#58=FACE_OUTER_BOUND('',#80,.T.);
#59=FACE_OUTER_BOUND('',#81,.T.);
#60=FACE_OUTER_BOUND('',#82,.T.);
#61=FACE_OUTER_BOUND('',#83,.T.);
#62=FACE_OUTER_BOUND('',#84,.T.);
#63=FACE_OUTER_BOUND('',#85,.T.);
#64=FACE_OUTER_BOUND('',#86,.T.);
#65=FACE_OUTER_BOUND('',#87,.T.);
#66=FACE_OUTER_BOUND('',#88,.T.);
#67=FACE_OUTER_BOUND('',#93,.T.);
#68=FACE_OUTER_BOUND('',#94,.T.);
#69=FACE_OUTER_BOUND('',#95,.T.);
#70=FACE_OUTER_BOUND('',#96,.T.);
#71=EDGE_LOOP('',(#213,#214,#215,#216));
#72=EDGE_LOOP('',(#217,#218,#219,#220));
#73=EDGE_LOOP('',(#221,#222,#223,#224));
#74=EDGE_LOOP('',(#225,#226,#227,#228));
#75=EDGE_LOOP('',(#229,#230,#231,#232,#233,#234,#235,#236,#237,#238,#239,
#240));
#76=EDGE_LOOP('',(#241));
#77=EDGE_LOOP('',(#242));
#78=EDGE_LOOP('',(#243));
#79=EDGE_LOOP('',(#244));
#80=EDGE_LOOP('',(#245,#246,#247,#248));
#81=EDGE_LOOP('',(#249,#250,#251,#252));
#82=EDGE_LOOP('',(#253,#254,#255,#256));
#83=EDGE_LOOP('',(#257,#258,#259,#260));
#84=EDGE_LOOP('',(#261,#262,#263,#264));
#85=EDGE_LOOP('',(#265,#266,#267,#268));
#86=EDGE_LOOP('',(#269,#270,#271,#272));
#87=EDGE_LOOP('',(#273,#274,#275,#276));
#88=EDGE_LOOP('',(#277,#278,#279,#280,#281,#282,#283,#284,#285,#286,#287,
#288));
#89=EDGE_LOOP('',(#289));
#90=EDGE_LOOP('',(#290));
#91=EDGE_LOOP('',(#291));
#92=EDGE_LOOP('',(#292));
#93=EDGE_LOOP('',(#293,#294,#295,#296));
#94=EDGE_LOOP('',(#297,#298,#299,#300));
#95=EDGE_LOOP('',(#301,#302,#303,#304));
#96=EDGE_LOOP('',(#305,#306,#307,#308));
#97=B_SPLINE_CURVE_WITH_KNOTS('',3,(#519,#520,#521,#522,#523,#524,#525,
#526),.UNSPECIFIED.,.F.,.F.,(4,2,2,4),(0.807180520091108,0.905317818650141,
1.01848328261538,1.11506122325184),.UNSPECIFIED.);
#98=B_SPLINE_CURVE_WITH_KNOTS('',3,(#529,#530,#531,#532,#533,#534,#535,
#536),.UNSPECIFIED.,.F.,.F.,(4,2,2,4),(0.695259509578754,0.791799170544712,
0.904913728952571,1.00302910710967),.UNSPECIFIED.);
#99=B_SPLINE_CURVE_WITH_KNOTS('',3,(#542,#543,#544,#545,#546,#547,#548,
#549,#550),.UNSPECIFIED.,.F.,.F.,(4,3,2,4),(-0.0981153781357168,0.,0.113114558407859,
0.209654219373815),.UNSPECIFIED.);
#100=B_SPLINE_CURVE_WITH_KNOTS('',3,(#553,#554,#555,#556,#557,#558,#559,
#560,#561),.UNSPECIFIED.,.F.,.F.,(4,2,3,4),(-0.209743404601707,-0.113165463965236,
0.,0.0981372985590364),.UNSPECIFIED.);
#101=LINE('',#517,#117);
#102=LINE('',#528,#118);
#103=LINE('',#540,#119);
#104=LINE('',#552,#120);
#105=LINE('',#566,#121);
#106=LINE('',#572,#122);
#107=LINE('',#600,#123);
#108=LINE('',#604,#124);
#109=LINE('',#608,#125);
#110=LINE('',#612,#126);
#111=LINE('',#616,#127);
#112=LINE('',#620,#128);
#113=LINE('',#624,#129);
#114=LINE('',#627,#130);
#115=LINE('',#637,#131);
#116=LINE('',#639,#132);
#117=VECTOR('',#407,10.);
#118=VECTOR('',#408,10.);
#119=VECTOR('',#411,10.);
#120=VECTOR('',#412,10.);
#121=VECTOR('',#417,10.);
#122=VECTOR('',#424,10.);
#123=VECTOR('',#457,1.7);
#124=VECTOR('',#462,10.);
#125=VECTOR('',#467,10.);
#126=VECTOR('',#472,1.7);
#127=VECTOR('',#477,10.);
#128=VECTOR('',#482,10.);
#129=VECTOR('',#487,1.7);
#130=VECTOR('',#490,10.);
#131=VECTOR('',#505,1.7);
#132=VECTOR('',#508,10.);
#133=VERTEX_POINT('',#515);
#134=VERTEX_POINT('',#516);
#135=VERTEX_POINT('',#518);
#136=VERTEX_POINT('',#527);
#137=VERTEX_POINT('',#538);
#138=VERTEX_POINT('',#539);
#139=VERTEX_POINT('',#541);
#140=VERTEX_POINT('',#551);
#141=VERTEX_POINT('',#563);
#142=VERTEX_POINT('',#565);
#143=VERTEX_POINT('',#569);
#144=VERTEX_POINT('',#571);
#145=VERTEX_POINT('',#575);
#146=VERTEX_POINT('',#577);
#147=VERTEX_POINT('',#579);
#148=VERTEX_POINT('',#581);
#149=VERTEX_POINT('',#583);
#150=VERTEX_POINT('',#585);
#151=VERTEX_POINT('',#589);
#152=VERTEX_POINT('',#591);
#153=VERTEX_POINT('',#593);
#154=VERTEX_POINT('',#595);
#155=VERTEX_POINT('',#598);
#156=VERTEX_POINT('',#602);
#157=VERTEX_POINT('',#606);
#158=VERTEX_POINT('',#610);
#159=VERTEX_POINT('',#614);
#160=VERTEX_POINT('',#618);
#161=VERTEX_POINT('',#622);
#162=VERTEX_POINT('',#626);
#163=VERTEX_POINT('',#631);
#164=VERTEX_POINT('',#634);
#165=EDGE_CURVE('',#133,#134,#101,.T.);
#166=EDGE_CURVE('',#135,#133,#97,.T.);
#167=EDGE_CURVE('',#136,#135,#102,.T.);
#168=EDGE_CURVE('',#134,#136,#98,.T.);
#169=EDGE_CURVE('',#137,#138,#103,.T.);
#170=EDGE_CURVE('',#139,#137,#99,.T.);
#171=EDGE_CURVE('',#140,#139,#104,.T.);
#172=EDGE_CURVE('',#138,#140,#100,.T.);
#173=EDGE_CURVE('',#141,#136,#25,.T.);
#174=EDGE_CURVE('',#141,#142,#105,.T.);
#175=EDGE_CURVE('',#134,#142,#26,.T.);
#176=EDGE_CURVE('',#143,#137,#27,.T.);
#177=EDGE_CURVE('',#143,#144,#106,.T.);
#178=EDGE_CURVE('',#139,#144,#28,.T.);
#179=EDGE_CURVE('',#144,#145,#29,.T.);
#180=EDGE_CURVE('',#145,#146,#30,.T.);
#181=EDGE_CURVE('',#146,#147,#31,.T.);
#182=EDGE_CURVE('',#147,#148,#32,.T.);
#183=EDGE_CURVE('',#148,#149,#33,.T.);
#184=EDGE_CURVE('',#149,#150,#34,.T.);
#185=EDGE_CURVE('',#150,#141,#35,.T.);
#186=EDGE_CURVE('',#135,#140,#36,.T.);
#187=EDGE_CURVE('',#151,#151,#37,.T.);
#188=EDGE_CURVE('',#152,#152,#38,.T.);
#189=EDGE_CURVE('',#153,#153,#39,.T.);
#190=EDGE_CURVE('',#154,#154,#40,.T.);
#191=EDGE_CURVE('',#155,#155,#41,.T.);
#192=EDGE_CURVE('',#155,#154,#107,.T.);
#193=EDGE_CURVE('',#156,#143,#42,.T.);
#194=EDGE_CURVE('',#145,#156,#108,.T.);
#195=EDGE_CURVE('',#157,#156,#43,.T.);
#196=EDGE_CURVE('',#157,#146,#109,.T.);
#197=EDGE_CURVE('',#158,#158,#44,.T.);
#198=EDGE_CURVE('',#158,#151,#110,.T.);
#199=EDGE_CURVE('',#159,#157,#45,.T.);
#200=EDGE_CURVE('',#147,#159,#111,.T.);
#201=EDGE_CURVE('',#160,#159,#46,.T.);
#202=EDGE_CURVE('',#160,#148,#112,.T.);
#203=EDGE_CURVE('',#161,#161,#47,.T.);
#204=EDGE_CURVE('',#161,#153,#113,.T.);
#205=EDGE_CURVE('',#149,#162,#114,.T.);
#206=EDGE_CURVE('',#162,#160,#48,.T.);
#207=EDGE_CURVE('',#138,#133,#49,.T.);
#208=EDGE_CURVE('',#142,#163,#50,.T.);
#209=EDGE_CURVE('',#163,#162,#51,.T.);
#210=EDGE_CURVE('',#164,#164,#52,.T.);
#211=EDGE_CURVE('',#164,#152,#115,.T.);
#212=EDGE_CURVE('',#163,#150,#116,.T.);
#213=ORIENTED_EDGE('',*,*,#165,.F.);
#214=ORIENTED_EDGE('',*,*,#166,.F.);
#215=ORIENTED_EDGE('',*,*,#167,.F.);
#216=ORIENTED_EDGE('',*,*,#168,.F.);
#217=ORIENTED_EDGE('',*,*,#169,.F.);
#218=ORIENTED_EDGE('',*,*,#170,.F.);
#219=ORIENTED_EDGE('',*,*,#171,.F.);
#220=ORIENTED_EDGE('',*,*,#172,.F.);
#221=ORIENTED_EDGE('',*,*,#168,.T.);
#222=ORIENTED_EDGE('',*,*,#173,.F.);
#223=ORIENTED_EDGE('',*,*,#174,.T.);
#224=ORIENTED_EDGE('',*,*,#175,.F.);
#225=ORIENTED_EDGE('',*,*,#170,.T.);
#226=ORIENTED_EDGE('',*,*,#176,.F.);
#227=ORIENTED_EDGE('',*,*,#177,.T.);
#228=ORIENTED_EDGE('',*,*,#178,.F.);
#229=ORIENTED_EDGE('',*,*,#171,.T.);
#230=ORIENTED_EDGE('',*,*,#178,.T.);
#231=ORIENTED_EDGE('',*,*,#179,.T.);
#232=ORIENTED_EDGE('',*,*,#180,.T.);
#233=ORIENTED_EDGE('',*,*,#181,.T.);
#234=ORIENTED_EDGE('',*,*,#182,.T.);
#235=ORIENTED_EDGE('',*,*,#183,.T.);
#236=ORIENTED_EDGE('',*,*,#184,.T.);
#237=ORIENTED_EDGE('',*,*,#185,.T.);
#238=ORIENTED_EDGE('',*,*,#173,.T.);
#239=ORIENTED_EDGE('',*,*,#167,.T.);
#240=ORIENTED_EDGE('',*,*,#186,.T.);
#241=ORIENTED_EDGE('',*,*,#187,.T.);
#242=ORIENTED_EDGE('',*,*,#188,.T.);
#243=ORIENTED_EDGE('',*,*,#189,.T.);
#244=ORIENTED_EDGE('',*,*,#190,.T.);
#245=ORIENTED_EDGE('',*,*,#191,.F.);
#246=ORIENTED_EDGE('',*,*,#192,.T.);
#247=ORIENTED_EDGE('',*,*,#190,.F.);
#248=ORIENTED_EDGE('',*,*,#192,.F.);
#249=ORIENTED_EDGE('',*,*,#177,.F.);
#250=ORIENTED_EDGE('',*,*,#193,.F.);
#251=ORIENTED_EDGE('',*,*,#194,.F.);
#252=ORIENTED_EDGE('',*,*,#179,.F.);
#253=ORIENTED_EDGE('',*,*,#194,.T.);
#254=ORIENTED_EDGE('',*,*,#195,.F.);
#255=ORIENTED_EDGE('',*,*,#196,.T.);
#256=ORIENTED_EDGE('',*,*,#180,.F.);
#257=ORIENTED_EDGE('',*,*,#197,.F.);
#258=ORIENTED_EDGE('',*,*,#198,.T.);
#259=ORIENTED_EDGE('',*,*,#187,.F.);
#260=ORIENTED_EDGE('',*,*,#198,.F.);
#261=ORIENTED_EDGE('',*,*,#196,.F.);
#262=ORIENTED_EDGE('',*,*,#199,.F.);
#263=ORIENTED_EDGE('',*,*,#200,.F.);
#264=ORIENTED_EDGE('',*,*,#181,.F.);
#265=ORIENTED_EDGE('',*,*,#200,.T.);
#266=ORIENTED_EDGE('',*,*,#201,.F.);
#267=ORIENTED_EDGE('',*,*,#202,.T.);
#268=ORIENTED_EDGE('',*,*,#182,.F.);
#269=ORIENTED_EDGE('',*,*,#203,.F.);
#270=ORIENTED_EDGE('',*,*,#204,.T.);
#271=ORIENTED_EDGE('',*,*,#189,.F.);
#272=ORIENTED_EDGE('',*,*,#204,.F.);
#273=ORIENTED_EDGE('',*,*,#205,.F.);
#274=ORIENTED_EDGE('',*,*,#183,.F.);
#275=ORIENTED_EDGE('',*,*,#202,.F.);
#276=ORIENTED_EDGE('',*,*,#206,.F.);
#277=ORIENTED_EDGE('',*,*,#169,.T.);
#278=ORIENTED_EDGE('',*,*,#207,.T.);
#279=ORIENTED_EDGE('',*,*,#165,.T.);
#280=ORIENTED_EDGE('',*,*,#175,.T.);
#281=ORIENTED_EDGE('',*,*,#208,.T.);
#282=ORIENTED_EDGE('',*,*,#209,.T.);
#283=ORIENTED_EDGE('',*,*,#206,.T.);
#284=ORIENTED_EDGE('',*,*,#201,.T.);
#285=ORIENTED_EDGE('',*,*,#199,.T.);
#286=ORIENTED_EDGE('',*,*,#195,.T.);
#287=ORIENTED_EDGE('',*,*,#193,.T.);
#288=ORIENTED_EDGE('',*,*,#176,.T.);
#289=ORIENTED_EDGE('',*,*,#191,.T.);
#290=ORIENTED_EDGE('',*,*,#197,.T.);
#291=ORIENTED_EDGE('',*,*,#203,.T.);
#292=ORIENTED_EDGE('',*,*,#210,.T.);
#293=ORIENTED_EDGE('',*,*,#210,.F.);
#294=ORIENTED_EDGE('',*,*,#211,.T.);
#295=ORIENTED_EDGE('',*,*,#188,.F.);
#296=ORIENTED_EDGE('',*,*,#211,.F.);
#297=ORIENTED_EDGE('',*,*,#212,.F.);
#298=ORIENTED_EDGE('',*,*,#208,.F.);
#299=ORIENTED_EDGE('',*,*,#174,.F.);
#300=ORIENTED_EDGE('',*,*,#185,.F.);
#301=ORIENTED_EDGE('',*,*,#205,.T.);
#302=ORIENTED_EDGE('',*,*,#209,.F.);
#303=ORIENTED_EDGE('',*,*,#212,.T.);
#304=ORIENTED_EDGE('',*,*,#184,.F.);
#305=ORIENTED_EDGE('',*,*,#172,.T.);
#306=ORIENTED_EDGE('',*,*,#186,.F.);
#307=ORIENTED_EDGE('',*,*,#166,.T.);
#308=ORIENTED_EDGE('',*,*,#207,.F.);
#309=CYLINDRICAL_SURFACE('',#357,3.);
#310=CYLINDRICAL_SURFACE('',#358,3.);
#311=CYLINDRICAL_SURFACE('',#359,26.);
#312=CYLINDRICAL_SURFACE('',#362,26.);
#313=CYLINDRICAL_SURFACE('',#378,1.7);
#314=CYLINDRICAL_SURFACE('',#380,5.5);
#315=CYLINDRICAL_SURFACE('',#382,26.);
#316=CYLINDRICAL_SURFACE('',#384,1.7);
#317=CYLINDRICAL_SURFACE('',#386,5.5);
#318=CYLINDRICAL_SURFACE('',#388,26.);
#319=CYLINDRICAL_SURFACE('',#390,1.7);
#320=CYLINDRICAL_SURFACE('',#392,5.5);
#321=CYLINDRICAL_SURFACE('',#399,1.7);
#322=CYLINDRICAL_SURFACE('',#400,5.5);
#323=CYLINDRICAL_SURFACE('',#401,26.);
#324=CYLINDRICAL_SURFACE('',#402,21.5);
#325=ADVANCED_FACE('',(#53),#309,.F.);
#326=ADVANCED_FACE('',(#54),#310,.F.);
#327=ADVANCED_FACE('',(#55),#311,.T.);
#328=ADVANCED_FACE('',(#56),#312,.T.);
#329=ADVANCED_FACE('',(#57,#15,#16,#17,#18),#23,.T.);
#330=ADVANCED_FACE('',(#58),#313,.F.);
#331=ADVANCED_FACE('',(#59),#314,.T.);
#332=ADVANCED_FACE('',(#60),#315,.T.);
#333=ADVANCED_FACE('',(#61),#316,.F.);
#334=ADVANCED_FACE('',(#62),#317,.T.);
#335=ADVANCED_FACE('',(#63),#318,.T.);
#336=ADVANCED_FACE('',(#64),#319,.F.);
#337=ADVANCED_FACE('',(#65),#320,.T.);
#338=ADVANCED_FACE('',(#66,#19,#20,#21,#22),#24,.T.);
#339=ADVANCED_FACE('',(#67),#321,.F.);
#340=ADVANCED_FACE('',(#68),#322,.T.);
#341=ADVANCED_FACE('',(#69),#323,.T.);
#342=ADVANCED_FACE('',(#70),#324,.F.);
#343=CLOSED_SHELL('',(#325,#326,#327,#328,#329,#330,#331,#332,#333,#334,
#335,#336,#337,#338,#339,#340,#341,#342));
#344=DERIVED_UNIT_ELEMENT(#346,1.);
#345=DERIVED_UNIT_ELEMENT(#647,-3.);
#346=(
MASS_UNIT()
NAMED_UNIT(*)
SI_UNIT(.KILO.,.GRAM.)
);
#347=DERIVED_UNIT((#344,#345));
#348=MEASURE_REPRESENTATION_ITEM('density measure',
POSITIVE_RATIO_MEASURE(7850.),#347);
#349=PROPERTY_DEFINITION_REPRESENTATION(#354,#351);
#350=PROPERTY_DEFINITION_REPRESENTATION(#355,#352);
#351=REPRESENTATION('material name',(#353),#644);
#352=REPRESENTATION('density',(#348),#644);
#353=DESCRIPTIVE_REPRESENTATION_ITEM('Steel','Steel');
#354=PROPERTY_DEFINITION('material property','material name',#654);
#355=PROPERTY_DEFINITION('material property','density of part',#654);
#356=AXIS2_PLACEMENT_3D('',#513,#403,#404);
#357=AXIS2_PLACEMENT_3D('',#514,#405,#406);
#358=AXIS2_PLACEMENT_3D('',#537,#409,#410);
#359=AXIS2_PLACEMENT_3D('',#562,#413,#414);
#360=AXIS2_PLACEMENT_3D('',#564,#415,#416);
#361=AXIS2_PLACEMENT_3D('',#567,#418,#419);
#362=AXIS2_PLACEMENT_3D('',#568,#420,#421);
#363=AXIS2_PLACEMENT_3D('',#570,#422,#423);
#364=AXIS2_PLACEMENT_3D('',#573,#425,#426);
#365=AXIS2_PLACEMENT_3D('',#574,#427,#428);
#366=AXIS2_PLACEMENT_3D('',#576,#429,#430);
#367=AXIS2_PLACEMENT_3D('',#578,#431,#432);
#368=AXIS2_PLACEMENT_3D('',#580,#433,#434);
#369=AXIS2_PLACEMENT_3D('',#582,#435,#436);
#370=AXIS2_PLACEMENT_3D('',#584,#437,#438);
#371=AXIS2_PLACEMENT_3D('',#586,#439,#440);
#372=AXIS2_PLACEMENT_3D('',#587,#441,#442);
#373=AXIS2_PLACEMENT_3D('',#588,#443,#444);
#374=AXIS2_PLACEMENT_3D('',#590,#445,#446);
#375=AXIS2_PLACEMENT_3D('',#592,#447,#448);
#376=AXIS2_PLACEMENT_3D('',#594,#449,#450);
#377=AXIS2_PLACEMENT_3D('',#596,#451,#452);
#378=AXIS2_PLACEMENT_3D('',#597,#453,#454);
#379=AXIS2_PLACEMENT_3D('',#599,#455,#456);
#380=AXIS2_PLACEMENT_3D('',#601,#458,#459);
#381=AXIS2_PLACEMENT_3D('',#603,#460,#461);
#382=AXIS2_PLACEMENT_3D('',#605,#463,#464);
#383=AXIS2_PLACEMENT_3D('',#607,#465,#466);
#384=AXIS2_PLACEMENT_3D('',#609,#468,#469);
#385=AXIS2_PLACEMENT_3D('',#611,#470,#471);
#386=AXIS2_PLACEMENT_3D('',#613,#473,#474);
#387=AXIS2_PLACEMENT_3D('',#615,#475,#476);
#388=AXIS2_PLACEMENT_3D('',#617,#478,#479);
#389=AXIS2_PLACEMENT_3D('',#619,#480,#481);
#390=AXIS2_PLACEMENT_3D('',#621,#483,#484);
#391=AXIS2_PLACEMENT_3D('',#623,#485,#486);
#392=AXIS2_PLACEMENT_3D('',#625,#488,#489);
#393=AXIS2_PLACEMENT_3D('',#628,#491,#492);
#394=AXIS2_PLACEMENT_3D('',#629,#493,#494);
#395=AXIS2_PLACEMENT_3D('',#630,#495,#496);
#396=AXIS2_PLACEMENT_3D('',#632,#497,#498);
#397=AXIS2_PLACEMENT_3D('',#633,#499,#500);
#398=AXIS2_PLACEMENT_3D('',#635,#501,#502);
#399=AXIS2_PLACEMENT_3D('',#636,#503,#504);
#400=AXIS2_PLACEMENT_3D('',#638,#506,#507);
#401=AXIS2_PLACEMENT_3D('',#640,#509,#510);
#402=AXIS2_PLACEMENT_3D('',#641,#511,#512);
#403=DIRECTION('axis',(0.,0.,1.));
#404=DIRECTION('refdir',(1.,0.,0.));
#405=DIRECTION('center_axis',(1.,0.,0.));
#406=DIRECTION('ref_axis',(0.,-0.193712943361395,0.981058252895446));
#407=DIRECTION('',(1.,0.,0.));
#408=DIRECTION('',(-1.,0.,0.));
#409=DIRECTION('center_axis',(1.,0.,0.));
#410=DIRECTION('ref_axis',(0.,0.,-1.));
#411=DIRECTION('',(-1.,0.,0.));
#412=DIRECTION('',(1.,0.,0.));
#413=DIRECTION('center_axis',(0.,1.,0.));
#414=DIRECTION('ref_axis',(1.,0.,0.));
#415=DIRECTION('center_axis',(0.,1.,0.));
#416=DIRECTION('ref_axis',(1.,0.,0.));
#417=DIRECTION('',(0.,-1.,0.));
#418=DIRECTION('center_axis',(0.,-1.,0.));
#419=DIRECTION('ref_axis',(1.,0.,0.));
#420=DIRECTION('center_axis',(0.,1.,0.));
#421=DIRECTION('ref_axis',(1.,0.,0.));
#422=DIRECTION('center_axis',(0.,-1.,0.));
#423=DIRECTION('ref_axis',(1.,0.,0.));
#424=DIRECTION('',(0.,1.,0.));
#425=DIRECTION('center_axis',(0.,1.,0.));
#426=DIRECTION('ref_axis',(1.,0.,0.));
#427=DIRECTION('center_axis',(0.,1.,0.));
#428=DIRECTION('ref_axis',(1.,0.,0.));
#429=DIRECTION('center_axis',(0.,1.,0.));
#430=DIRECTION('ref_axis',(1.,0.,0.));
#431=DIRECTION('center_axis',(0.,1.,0.));
#432=DIRECTION('ref_axis',(1.,0.,0.));
#433=DIRECTION('center_axis',(0.,1.,0.));
#434=DIRECTION('ref_axis',(1.,0.,0.));
#435=DIRECTION('center_axis',(0.,1.,0.));
#436=DIRECTION('ref_axis',(1.,0.,0.));
#437=DIRECTION('center_axis',(0.,1.,0.));
#438=DIRECTION('ref_axis',(1.,0.,0.));
#439=DIRECTION('center_axis',(0.,1.,0.));
#440=DIRECTION('ref_axis',(1.,0.,0.));
#441=DIRECTION('center_axis',(0.,1.,0.));
#442=DIRECTION('ref_axis',(1.,0.,0.));
#443=DIRECTION('center_axis',(0.,-1.,0.));
#444=DIRECTION('ref_axis',(1.,0.,0.));
#445=DIRECTION('center_axis',(0.,-1.,0.));
#446=DIRECTION('ref_axis',(1.,0.,0.));
#447=DIRECTION('center_axis',(0.,-1.,0.));
#448=DIRECTION('ref_axis',(1.,0.,0.));
#449=DIRECTION('center_axis',(0.,-1.,0.));
#450=DIRECTION('ref_axis',(1.,0.,0.));
#451=DIRECTION('center_axis',(0.,-1.,0.));
#452=DIRECTION('ref_axis',(1.,0.,0.));
#453=DIRECTION('center_axis',(0.,1.,0.));
#454=DIRECTION('ref_axis',(1.,0.,0.));
#455=DIRECTION('center_axis',(0.,1.,0.));
#456=DIRECTION('ref_axis',(1.,0.,0.));
#457=DIRECTION('',(0.,1.,0.));
#458=DIRECTION('center_axis',(0.,1.,0.));
#459=DIRECTION('ref_axis',(0.70710678118655,0.,-0.707106781186545));
#460=DIRECTION('center_axis',(0.,-1.,0.));
#461=DIRECTION('ref_axis',(1.,0.,0.));
#462=DIRECTION('',(0.,-1.,0.));
#463=DIRECTION('center_axis',(0.,1.,0.));
#464=DIRECTION('ref_axis',(1.,0.,0.));
#465=DIRECTION('center_axis',(0.,-1.,0.));
#466=DIRECTION('ref_axis',(1.,0.,0.));
#467=DIRECTION('',(0.,1.,0.));
#468=DIRECTION('center_axis',(0.,1.,0.));
#469=DIRECTION('ref_axis',(1.,0.,0.));
#470=DIRECTION('center_axis',(0.,1.,0.));
#471=DIRECTION('ref_axis',(1.,0.,0.));
#472=DIRECTION('',(0.,1.,0.));
#473=DIRECTION('center_axis',(0.,1.,0.));
#474=DIRECTION('ref_axis',(-0.70710678118655,0.,-0.707106781186545));
#475=DIRECTION('center_axis',(0.,-1.,0.));
#476=DIRECTION('ref_axis',(1.,0.,0.));
#477=DIRECTION('',(0.,-1.,0.));
#478=DIRECTION('center_axis',(0.,1.,0.));
#479=DIRECTION('ref_axis',(-1.,0.,-5.66553889764798E-16));
#480=DIRECTION('center_axis',(0.,-1.,0.));
#481=DIRECTION('ref_axis',(1.,0.,0.));
#482=DIRECTION('',(0.,1.,0.));
#483=DIRECTION('center_axis',(0.,1.,0.));
#484=DIRECTION('ref_axis',(1.,0.,0.));
#485=DIRECTION('center_axis',(0.,1.,0.));
#486=DIRECTION('ref_axis',(1.,0.,0.));
#487=DIRECTION('',(0.,1.,0.));
#488=DIRECTION('center_axis',(0.,1.,0.));
#489=DIRECTION('ref_axis',(-0.707106781186547,0.,0.707106781186548));
#490=DIRECTION('',(0.,-1.,0.));
#491=DIRECTION('center_axis',(0.,-1.,0.));
#492=DIRECTION('ref_axis',(1.,0.,0.));
#493=DIRECTION('center_axis',(0.,-1.,0.));
#494=DIRECTION('ref_axis',(-1.,0.,0.));
#495=DIRECTION('center_axis',(0.,1.,0.));
#496=DIRECTION('ref_axis',(1.,0.,0.));
#497=DIRECTION('center_axis',(0.,-1.,0.));
#498=DIRECTION('ref_axis',(1.,0.,0.));
#499=DIRECTION('center_axis',(0.,-1.,0.));
#500=DIRECTION('ref_axis',(1.,0.,0.));
#501=DIRECTION('center_axis',(0.,1.,0.));
#502=DIRECTION('ref_axis',(1.,0.,0.));
#503=DIRECTION('center_axis',(0.,1.,0.));
#504=DIRECTION('ref_axis',(1.,0.,0.));
#505=DIRECTION('',(0.,1.,0.));
#506=DIRECTION('center_axis',(0.,1.,0.));
#507=DIRECTION('ref_axis',(0.707106781186548,0.,0.707106781186547));
#508=DIRECTION('',(0.,1.,0.));
#509=DIRECTION('center_axis',(0.,1.,0.));
#510=DIRECTION('ref_axis',(1.,0.,0.));
#511=DIRECTION('center_axis',(0.,1.,0.));
#512=DIRECTION('ref_axis',(-1.,0.,-1.22464679914735E-16));
#513=CARTESIAN_POINT('',(0.,0.,0.));
#514=CARTESIAN_POINT('Origin',(294.5,62.,240.));
#515=CARTESIAN_POINT('',(291.383404780343,60.,242.2360679775));
#516=CARTESIAN_POINT('',(295.903667693977,60.,242.2360679775));
#517=CARTESIAN_POINT('',(294.5,60.,242.2360679775));
#518=CARTESIAN_POINT('',(291.313141485947,63.,242.828427124746));
#519=CARTESIAN_POINT('Ctrl Pts',(291.313141485947,63.,242.828427124746));
#520=CARTESIAN_POINT('Ctrl Pts',(291.297806952617,62.6731729215148,242.943977946482));
#521=CARTESIAN_POINT('Ctrl Pts',(291.289668856044,62.3271243285301,243.));
#522=CARTESIAN_POINT('Ctrl Pts',(291.289668856044,61.6227817867826,243.));
#523=CARTESIAN_POINT('Ctrl Pts',(291.300729642217,61.22076119136,242.924511931425));
#524=CARTESIAN_POINT('Ctrl Pts',(291.337627546498,60.5359313304735,242.640648332542));
#525=CARTESIAN_POINT('Ctrl Pts',(291.360612695097,60.2436861923035,242.454027533967));
#526=CARTESIAN_POINT('Ctrl Pts',(291.383404780343,60.,242.2360679775));
#527=CARTESIAN_POINT('',(295.84569596664,63.,242.828427124746));
#528=CARTESIAN_POINT('',(294.5,63.,242.828427124746));
#529=CARTESIAN_POINT('Ctrl Pts',(295.903667693977,60.,242.2360679775));
#530=CARTESIAN_POINT('Ctrl Pts',(295.884846352598,60.2437708863249,242.454103286603));
#531=CARTESIAN_POINT('Ctrl Pts',(295.86587920597,60.5361111088909,242.640751784673));
#532=CARTESIAN_POINT('Ctrl Pts',(295.835451670662,61.2210022674183,242.924577935255));
#533=CARTESIAN_POINT('Ctrl Pts',(295.82634314029,61.6229514719738,243.));
#534=CARTESIAN_POINT('Ctrl Pts',(295.82634314029,62.3270512605237,243.));
#535=CARTESIAN_POINT('Ctrl Pts',(295.8330480718,62.6731063553388,242.94400148118));
#536=CARTESIAN_POINT('Ctrl Pts',(295.84569596664,63.,242.828427124746));
#537=CARTESIAN_POINT('Origin',(294.5,62.,240.));
#538=CARTESIAN_POINT('',(295.903667693977,60.,237.7639320225));
#539=CARTESIAN_POINT('',(291.383404780343,60.,237.7639320225));
#540=CARTESIAN_POINT('',(294.5,60.,237.7639320225));
#541=CARTESIAN_POINT('',(295.84569596664,63.,237.171572875254));
#542=CARTESIAN_POINT('Ctrl Pts',(295.84569596664,63.,237.171572875254));
#543=CARTESIAN_POINT('Ctrl Pts',(295.833048071815,62.6731063557299,237.055998518959));
#544=CARTESIAN_POINT('Ctrl Pts',(295.82634314029,62.3270512604524,237.));
#545=CARTESIAN_POINT('Ctrl Pts',(295.82634314029,62.,237.));
#546=CARTESIAN_POINT('Ctrl Pts',(295.82634314029,61.6229514719738,237.));
#547=CARTESIAN_POINT('Ctrl Pts',(295.835451670662,61.2210022674183,237.075422064745));
#548=CARTESIAN_POINT('Ctrl Pts',(295.86587920597,60.5361111088909,237.359248215327));
#549=CARTESIAN_POINT('Ctrl Pts',(295.884846352598,60.2437708863249,237.545896713397));
#550=CARTESIAN_POINT('Ctrl Pts',(295.903667693977,60.,237.7639320225));
#551=CARTESIAN_POINT('',(291.313141485947,63.,237.171572875254));
#552=CARTESIAN_POINT('',(294.5,63.,237.171572875254));
#553=CARTESIAN_POINT('Ctrl Pts',(291.383404780343,60.,237.7639320225));
#554=CARTESIAN_POINT('Ctrl Pts',(291.360612695097,60.2436861923035,237.545972466033));
#555=CARTESIAN_POINT('Ctrl Pts',(291.337627546498,60.5359313304735,237.359351667459));
#556=CARTESIAN_POINT('Ctrl Pts',(291.300729642217,61.2207611913601,237.075488068575));
#557=CARTESIAN_POINT('Ctrl Pts',(291.289668856044,61.6227817867825,237.));
#558=CARTESIAN_POINT('Ctrl Pts',(291.289668856044,62.,237.));
#559=CARTESIAN_POINT('Ctrl Pts',(291.289668856044,62.3271243285301,237.));
#560=CARTESIAN_POINT('Ctrl Pts',(291.297806952617,62.6731729215148,237.056022053518));
#561=CARTESIAN_POINT('Ctrl Pts',(291.313141485947,63.,237.171572875254));
#562=CARTESIAN_POINT('Origin',(270.,61.5,240.));
#563=CARTESIAN_POINT('',(290.696111907402,63.,255.737564993235));
#564=CARTESIAN_POINT('Origin',(270.,63.,240.));
#565=CARTESIAN_POINT('',(290.696111907402,60.,255.737564993235));
#566=CARTESIAN_POINT('',(290.696111907402,61.5,255.737564993235));
#567=CARTESIAN_POINT('Origin',(270.,60.,240.));
#568=CARTESIAN_POINT('Origin',(270.,61.5,240.));
#569=CARTESIAN_POINT('',(290.696111907402,60.,224.262435006765));
#570=CARTESIAN_POINT('Origin',(270.,60.,240.));
#571=CARTESIAN_POINT('',(290.696111907402,63.,224.262435006765));
#572=CARTESIAN_POINT('',(290.696111907402,61.5,224.262435006765));
#573=CARTESIAN_POINT('Origin',(270.,63.,240.));
#574=CARTESIAN_POINT('Origin',(270.,63.,240.));
#575=CARTESIAN_POINT('',(285.737564993235,63.,219.303888092598));
#576=CARTESIAN_POINT('Origin',(291.213203435596,63.,218.786796564404));
#577=CARTESIAN_POINT('',(254.262435006765,63.,219.303888092598));
#578=CARTESIAN_POINT('Origin',(270.,63.,240.));
#579=CARTESIAN_POINT('',(249.303888092598,63.,224.262435006765));
#580=CARTESIAN_POINT('Origin',(248.786796564404,63.,218.786796564404));
#581=CARTESIAN_POINT('',(249.303888092598,63.,255.737564993235));
#582=CARTESIAN_POINT('Origin',(270.,63.,240.));
#583=CARTESIAN_POINT('',(254.262435006765,63.,260.696111907402));
#584=CARTESIAN_POINT('Origin',(248.786796564404,63.,261.213203435596));
#585=CARTESIAN_POINT('',(285.737564993235,63.,260.696111907402));
#586=CARTESIAN_POINT('Origin',(270.,63.,240.));
#587=CARTESIAN_POINT('Origin',(291.213203435596,63.,261.213203435596));
#588=CARTESIAN_POINT('Origin',(270.,63.,240.));
#589=CARTESIAN_POINT('',(247.086796564404,63.,218.786796564404));
#590=CARTESIAN_POINT('Origin',(248.786796564404,63.,218.786796564404));
#591=CARTESIAN_POINT('',(289.513203435596,63.,261.213203435596));
#592=CARTESIAN_POINT('Origin',(291.213203435596,63.,261.213203435596));
#593=CARTESIAN_POINT('',(247.086796564404,63.,261.213203435596));
#594=CARTESIAN_POINT('Origin',(248.786796564404,63.,261.213203435596));
#595=CARTESIAN_POINT('',(289.513203435596,63.,218.786796564404));
#596=CARTESIAN_POINT('Origin',(291.213203435596,63.,218.786796564404));
#597=CARTESIAN_POINT('Origin',(291.213203435596,63.,218.786796564404));
#598=CARTESIAN_POINT('',(289.513203435596,60.,218.786796564404));
#599=CARTESIAN_POINT('Origin',(291.213203435596,60.,218.786796564404));
#600=CARTESIAN_POINT('',(289.513203435596,63.,218.786796564404));
#601=CARTESIAN_POINT('Origin',(291.213203435596,61.5,218.786796564404));
#602=CARTESIAN_POINT('',(285.737564993235,60.,219.303888092598));
#603=CARTESIAN_POINT('Origin',(291.213203435596,60.,218.786796564404));
#604=CARTESIAN_POINT('',(285.737564993235,61.5,219.303888092598));
#605=CARTESIAN_POINT('Origin',(270.,61.5,240.));
#606=CARTESIAN_POINT('',(254.262435006765,60.,219.303888092598));
#607=CARTESIAN_POINT('Origin',(270.,60.,240.));
#608=CARTESIAN_POINT('',(254.262435006765,61.5,219.303888092598));
#609=CARTESIAN_POINT('Origin',(248.786796564404,63.,218.786796564404));
#610=CARTESIAN_POINT('',(247.086796564404,60.,218.786796564404));
#611=CARTESIAN_POINT('Origin',(248.786796564404,60.,218.786796564404));
#612=CARTESIAN_POINT('',(247.086796564404,63.,218.786796564404));
#613=CARTESIAN_POINT('Origin',(248.786796564404,61.5,218.786796564404));
#614=CARTESIAN_POINT('',(249.303888092598,60.,224.262435006765));
#615=CARTESIAN_POINT('Origin',(248.786796564404,60.,218.786796564404));
#616=CARTESIAN_POINT('',(249.303888092598,61.5,224.262435006765));
#617=CARTESIAN_POINT('Origin',(270.,61.5,240.));
#618=CARTESIAN_POINT('',(249.303888092598,60.,255.737564993235));
#619=CARTESIAN_POINT('Origin',(270.,60.,240.));
#620=CARTESIAN_POINT('',(249.303888092598,61.5,255.737564993235));
#621=CARTESIAN_POINT('Origin',(248.786796564404,63.,261.213203435596));
#622=CARTESIAN_POINT('',(247.086796564404,60.,261.213203435596));
#623=CARTESIAN_POINT('Origin',(248.786796564404,60.,261.213203435596));
#624=CARTESIAN_POINT('',(247.086796564404,63.,261.213203435596));
#625=CARTESIAN_POINT('Origin',(248.786796564404,61.5,261.213203435596));
#626=CARTESIAN_POINT('',(254.262435006765,60.,260.696111907402));
#627=CARTESIAN_POINT('',(254.262435006765,61.5,260.696111907402));
#628=CARTESIAN_POINT('Origin',(248.786796564404,60.,261.213203435596));
#629=CARTESIAN_POINT('Origin',(270.,60.,240.));
#630=CARTESIAN_POINT('Origin',(270.,60.,240.));
#631=CARTESIAN_POINT('',(285.737564993235,60.,260.696111907402));
#632=CARTESIAN_POINT('Origin',(291.213203435596,60.,261.213203435596));
#633=CARTESIAN_POINT('Origin',(270.,60.,240.));
#634=CARTESIAN_POINT('',(289.513203435596,60.,261.213203435596));
#635=CARTESIAN_POINT('Origin',(291.213203435596,60.,261.213203435596));
#636=CARTESIAN_POINT('Origin',(291.213203435596,63.,261.213203435596));
#637=CARTESIAN_POINT('',(289.513203435596,63.,261.213203435596));
#638=CARTESIAN_POINT('Origin',(291.213203435596,61.5,261.213203435596));
#639=CARTESIAN_POINT('',(285.737564993235,61.5,260.696111907402));
#640=CARTESIAN_POINT('Origin',(270.,61.5,240.));
#641=CARTESIAN_POINT('Origin',(270.,61.5,240.));
#642=UNCERTAINTY_MEASURE_WITH_UNIT(LENGTH_MEASURE(0.01),#646,
'DISTANCE_ACCURACY_VALUE',
'Maximum model space distance between geometric entities at asserted c
onnectivities');
#643=UNCERTAINTY_MEASURE_WITH_UNIT(LENGTH_MEASURE(0.01),#646,
'DISTANCE_ACCURACY_VALUE',
'Maximum model space distance between geometric entities at asserted c
onnectivities');
#644=(
GEOMETRIC_REPRESENTATION_CONTEXT(3)
GLOBAL_UNCERTAINTY_ASSIGNED_CONTEXT((#642))
GLOBAL_UNIT_ASSIGNED_CONTEXT((#646,#648,#649))
REPRESENTATION_CONTEXT('','3D')
);
#645=(
GEOMETRIC_REPRESENTATION_CONTEXT(3)
GLOBAL_UNCERTAINTY_ASSIGNED_CONTEXT((#643))
GLOBAL_UNIT_ASSIGNED_CONTEXT((#646,#648,#649))
REPRESENTATION_CONTEXT('','3D')
);
#646=(
LENGTH_UNIT()
NAMED_UNIT(*)
SI_UNIT(.MILLI.,.METRE.)
);
#647=(
LENGTH_UNIT()
NAMED_UNIT(*)
SI_UNIT($,.METRE.)
);
#648=(
NAMED_UNIT(*)
PLANE_ANGLE_UNIT()
SI_UNIT($,.RADIAN.)
);
#649=(
NAMED_UNIT(*)
SI_UNIT($,.STERADIAN.)
SOLID_ANGLE_UNIT()
);
#650=SHAPE_DEFINITION_REPRESENTATION(#651,#652);
#651=PRODUCT_DEFINITION_SHAPE('',$,#654);
#652=SHAPE_REPRESENTATION('',(#356),#644);
#653=PRODUCT_DEFINITION_CONTEXT('part definition',#658,'design');
#654=PRODUCT_DEFINITION('2026-08-12-23-08-16-686',
'EXPORT_TMP_PRINT_V010J_P219_J3_Right6807_OuterRaceR',#655,#653);
#655=PRODUCT_DEFINITION_FORMATION('',$,#660);
#656=PRODUCT_RELATED_PRODUCT_CATEGORY(
'EXPORT_TMP_PRINT_V010J_P219_J3_Right6807_OuterRaceR',
'EXPORT_TMP_PRINT_V010J_P219_J3_Right6807_OuterRaceR',(#660));
#657=APPLICATION_PROTOCOL_DEFINITION('international standard',
'automotive_design',2009,#658);
#658=APPLICATION_CONTEXT(
'Core Data for Automotive Mechanical Design Process');
#659=PRODUCT_CONTEXT('part definition',#658,'mechanical');
#660=PRODUCT('2026-08-12-23-08-16-686',
'EXPORT_TMP_PRINT_V010J_P219_J3_Right6807_OuterRaceR',$,(#659));
#661=PRESENTATION_STYLE_ASSIGNMENT((#662));
#662=SURFACE_STYLE_USAGE(.BOTH.,#663);
#663=SURFACE_SIDE_STYLE('',(#664));
#664=SURFACE_STYLE_FILL_AREA(#665);
#665=FILL_AREA_STYLE('Steel - Satin',(#666));
#666=FILL_AREA_STYLE_COLOUR('Steel - Satin',#667);
#667=COLOUR_RGB('Steel - Satin',0.627450980392157,0.627450980392157,0.627450980392157);
ENDSEC;
END-ISO-10303-21;
