ISO-10303-21;
HEADER;
/* Generated by software containing ST-Developer
 * from STEP Tools, Inc. (www.steptools.com) 
 */

FILE_DESCRIPTION(
/* description */ (''),
/* implementation_level */ '2;1');

FILE_NAME(
/* name */ 'PRINT_V005_P207_UpperArmTopCover_ElbowSweepWindow.step',
/* time_stamp */ '2026-08-12T23:08:01+02:00',
/* author */ (''),
/* organization */ (''),
/* preprocessor_version */ 'ST-DEVELOPER v20.1',
/* originating_system */ 'Autodesk Translation Framework v15.8.0.0',
/* authorisation */ '');

FILE_SCHEMA (('AUTOMOTIVE_DESIGN { 1 0 10303 214 3 1 1 }'));
ENDSEC;

DATA;
#10=MECHANICAL_DESIGN_GEOMETRIC_PRESENTATION_REPRESENTATION('',(#13),#549);
#11=SHAPE_REPRESENTATION_RELATIONSHIP('SRR','None',#556,#12);
#12=ADVANCED_BREP_SHAPE_REPRESENTATION('',(#14),#548);
#13=STYLED_ITEM('',(#565),#14);
#14=MANIFOLD_SOLID_BREP(
'PRINT_V005_P207_UpperArmTopCover_ElbowSweepWindow',#329);
#15=CYLINDRICAL_SURFACE('',#355,2.2);
#16=CYLINDRICAL_SURFACE('',#357,2.2);
#17=CYLINDRICAL_SURFACE('',#359,2.2);
#18=CYLINDRICAL_SURFACE('',#361,2.2);
#19=CYLINDRICAL_SURFACE('',#363,2.2);
#20=CYLINDRICAL_SURFACE('',#365,2.2);
#21=FACE_BOUND('',#65,.T.);
#22=FACE_BOUND('',#66,.T.);
#23=FACE_BOUND('',#67,.T.);
#24=FACE_BOUND('',#68,.T.);
#25=FACE_BOUND('',#69,.T.);
#26=FACE_BOUND('',#70,.T.);
#27=FACE_BOUND('',#80,.T.);
#28=FACE_BOUND('',#81,.T.);
#29=FACE_BOUND('',#82,.T.);
#30=FACE_BOUND('',#83,.T.);
#31=FACE_BOUND('',#84,.T.);
#32=FACE_BOUND('',#85,.T.);
#33=CIRCLE('',#347,2.2);
#34=CIRCLE('',#348,2.2);
#35=CIRCLE('',#349,2.2);
#36=CIRCLE('',#350,2.2);
#37=CIRCLE('',#351,2.2);
#38=CIRCLE('',#352,2.2);
#39=CIRCLE('',#356,2.2);
#40=CIRCLE('',#358,2.2);
#41=CIRCLE('',#360,2.2);
#42=CIRCLE('',#362,2.2);
#43=CIRCLE('',#364,2.2);
#44=CIRCLE('',#366,2.2);
#45=FACE_OUTER_BOUND('',#61,.T.);
#46=FACE_OUTER_BOUND('',#62,.T.);
#47=FACE_OUTER_BOUND('',#63,.T.);
#48=FACE_OUTER_BOUND('',#64,.T.);
#49=FACE_OUTER_BOUND('',#71,.T.);
#50=FACE_OUTER_BOUND('',#72,.T.);
#51=FACE_OUTER_BOUND('',#73,.T.);
#52=FACE_OUTER_BOUND('',#74,.T.);
#53=FACE_OUTER_BOUND('',#75,.T.);
#54=FACE_OUTER_BOUND('',#76,.T.);
#55=FACE_OUTER_BOUND('',#77,.T.);
#56=FACE_OUTER_BOUND('',#78,.T.);
#57=FACE_OUTER_BOUND('',#79,.T.);
#58=FACE_OUTER_BOUND('',#86,.T.);
#59=FACE_OUTER_BOUND('',#87,.T.);
#60=FACE_OUTER_BOUND('',#88,.T.);
#61=EDGE_LOOP('',(#219,#220,#221,#222));
#62=EDGE_LOOP('',(#223,#224,#225,#226));
#63=EDGE_LOOP('',(#227,#228,#229,#230));
#64=EDGE_LOOP('',(#231,#232,#233,#234,#235,#236,#237,#238));
#65=EDGE_LOOP('',(#239));
#66=EDGE_LOOP('',(#240));
#67=EDGE_LOOP('',(#241));
#68=EDGE_LOOP('',(#242));
#69=EDGE_LOOP('',(#243));
#70=EDGE_LOOP('',(#244));
#71=EDGE_LOOP('',(#245,#246,#247,#248));
#72=EDGE_LOOP('',(#249,#250,#251,#252));
#73=EDGE_LOOP('',(#253,#254,#255,#256));
#74=EDGE_LOOP('',(#257,#258,#259,#260));
#75=EDGE_LOOP('',(#261,#262,#263,#264));
#76=EDGE_LOOP('',(#265,#266,#267,#268));
#77=EDGE_LOOP('',(#269,#270,#271,#272));
#78=EDGE_LOOP('',(#273,#274,#275,#276));
#79=EDGE_LOOP('',(#277,#278,#279,#280,#281,#282,#283,#284));
#80=EDGE_LOOP('',(#285));
#81=EDGE_LOOP('',(#286));
#82=EDGE_LOOP('',(#287));
#83=EDGE_LOOP('',(#288));
#84=EDGE_LOOP('',(#289));
#85=EDGE_LOOP('',(#290));
#86=EDGE_LOOP('',(#291,#292,#293,#294));
#87=EDGE_LOOP('',(#295,#296,#297,#298));
#88=EDGE_LOOP('',(#299,#300,#301,#302));
#89=LINE('',#463,#119);
#90=LINE('',#465,#120);
#91=LINE('',#467,#121);
#92=LINE('',#468,#122);
#93=LINE('',#472,#123);
#94=LINE('',#474,#124);
#95=LINE('',#476,#125);
#96=LINE('',#477,#126);
#97=LINE('',#479,#127);
#98=LINE('',#480,#128);
#99=LINE('',#483,#129);
#100=LINE('',#485,#130);
#101=LINE('',#487,#131);
#102=LINE('',#489,#132);
#103=LINE('',#490,#133);
#104=LINE('',#505,#134);
#105=LINE('',#506,#135);
#106=LINE('',#509,#136);
#107=LINE('',#510,#137);
#108=LINE('',#513,#138);
#109=LINE('',#517,#139);
#110=LINE('',#521,#140);
#111=LINE('',#525,#141);
#112=LINE('',#529,#142);
#113=LINE('',#533,#143);
#114=LINE('',#537,#144);
#115=LINE('',#539,#145);
#116=LINE('',#540,#146);
#117=LINE('',#542,#147);
#118=LINE('',#544,#148);
#119=VECTOR('',#375,10.);
#120=VECTOR('',#376,10.);
#121=VECTOR('',#377,10.);
#122=VECTOR('',#378,10.);
#123=VECTOR('',#381,10.);
#124=VECTOR('',#382,10.);
#125=VECTOR('',#383,10.);
#126=VECTOR('',#384,10.);
#127=VECTOR('',#387,10.);
#128=VECTOR('',#388,10.);
#129=VECTOR('',#391,10.);
#130=VECTOR('',#392,10.);
#131=VECTOR('',#393,10.);
#132=VECTOR('',#394,10.);
#133=VECTOR('',#395,10.);
#134=VECTOR('',#410,10.);
#135=VECTOR('',#411,10.);
#136=VECTOR('',#414,10.);
#137=VECTOR('',#415,10.);
#138=VECTOR('',#418,2.2);
#139=VECTOR('',#423,2.2);
#140=VECTOR('',#428,2.2);
#141=VECTOR('',#433,2.2);
#142=VECTOR('',#438,2.2);
#143=VECTOR('',#443,2.2);
#144=VECTOR('',#448,10.);
#145=VECTOR('',#449,10.);
#146=VECTOR('',#450,10.);
#147=VECTOR('',#453,10.);
#148=VECTOR('',#456,10.);
#149=VERTEX_POINT('',#461);
#150=VERTEX_POINT('',#462);
#151=VERTEX_POINT('',#464);
#152=VERTEX_POINT('',#466);
#153=VERTEX_POINT('',#470);
#154=VERTEX_POINT('',#471);
#155=VERTEX_POINT('',#473);
#156=VERTEX_POINT('',#475);
#157=VERTEX_POINT('',#482);
#158=VERTEX_POINT('',#484);
#159=VERTEX_POINT('',#486);
#160=VERTEX_POINT('',#488);
#161=VERTEX_POINT('',#491);
#162=VERTEX_POINT('',#493);
#163=VERTEX_POINT('',#495);
#164=VERTEX_POINT('',#497);
#165=VERTEX_POINT('',#499);
#166=VERTEX_POINT('',#501);
#167=VERTEX_POINT('',#504);
#168=VERTEX_POINT('',#508);
#169=VERTEX_POINT('',#512);
#170=VERTEX_POINT('',#516);
#171=VERTEX_POINT('',#520);
#172=VERTEX_POINT('',#524);
#173=VERTEX_POINT('',#528);
#174=VERTEX_POINT('',#532);
#175=VERTEX_POINT('',#536);
#176=VERTEX_POINT('',#538);
#177=EDGE_CURVE('',#149,#150,#89,.T.);
#178=EDGE_CURVE('',#149,#151,#90,.T.);
#179=EDGE_CURVE('',#152,#151,#91,.T.);
#180=EDGE_CURVE('',#150,#152,#92,.T.);
#181=EDGE_CURVE('',#153,#154,#93,.T.);
#182=EDGE_CURVE('',#155,#153,#94,.T.);
#183=EDGE_CURVE('',#156,#155,#95,.T.);
#184=EDGE_CURVE('',#154,#156,#96,.T.);
#185=EDGE_CURVE('',#154,#149,#97,.T.);
#186=EDGE_CURVE('',#151,#156,#98,.T.);
#187=EDGE_CURVE('',#155,#157,#99,.T.);
#188=EDGE_CURVE('',#157,#158,#100,.T.);
#189=EDGE_CURVE('',#158,#159,#101,.T.);
#190=EDGE_CURVE('',#159,#160,#102,.T.);
#191=EDGE_CURVE('',#160,#152,#103,.T.);
#192=EDGE_CURVE('',#161,#161,#33,.T.);
#193=EDGE_CURVE('',#162,#162,#34,.T.);
#194=EDGE_CURVE('',#163,#163,#35,.T.);
#195=EDGE_CURVE('',#164,#164,#36,.T.);
#196=EDGE_CURVE('',#165,#165,#37,.T.);
#197=EDGE_CURVE('',#166,#166,#38,.T.);
#198=EDGE_CURVE('',#167,#153,#104,.T.);
#199=EDGE_CURVE('',#167,#157,#105,.T.);
#200=EDGE_CURVE('',#168,#160,#106,.T.);
#201=EDGE_CURVE('',#150,#168,#107,.T.);
#202=EDGE_CURVE('',#166,#169,#108,.T.);
#203=EDGE_CURVE('',#169,#169,#39,.T.);
#204=EDGE_CURVE('',#165,#170,#109,.T.);
#205=EDGE_CURVE('',#170,#170,#40,.T.);
#206=EDGE_CURVE('',#164,#171,#110,.T.);
#207=EDGE_CURVE('',#171,#171,#41,.T.);
#208=EDGE_CURVE('',#163,#172,#111,.T.);
#209=EDGE_CURVE('',#172,#172,#42,.T.);
#210=EDGE_CURVE('',#162,#173,#112,.T.);
#211=EDGE_CURVE('',#173,#173,#43,.T.);
#212=EDGE_CURVE('',#161,#174,#113,.T.);
#213=EDGE_CURVE('',#174,#174,#44,.T.);
#214=EDGE_CURVE('',#168,#175,#114,.T.);
#215=EDGE_CURVE('',#175,#176,#115,.T.);
#216=EDGE_CURVE('',#176,#167,#116,.T.);
#217=EDGE_CURVE('',#176,#158,#117,.T.);
#218=EDGE_CURVE('',#175,#159,#118,.T.);
#219=ORIENTED_EDGE('',*,*,#177,.F.);
#220=ORIENTED_EDGE('',*,*,#178,.T.);
#221=ORIENTED_EDGE('',*,*,#179,.F.);
#222=ORIENTED_EDGE('',*,*,#180,.F.);
#223=ORIENTED_EDGE('',*,*,#181,.F.);
#224=ORIENTED_EDGE('',*,*,#182,.F.);
#225=ORIENTED_EDGE('',*,*,#183,.F.);
#226=ORIENTED_EDGE('',*,*,#184,.F.);
#227=ORIENTED_EDGE('',*,*,#185,.F.);
#228=ORIENTED_EDGE('',*,*,#184,.T.);
#229=ORIENTED_EDGE('',*,*,#186,.F.);
#230=ORIENTED_EDGE('',*,*,#178,.F.);
#231=ORIENTED_EDGE('',*,*,#179,.T.);
#232=ORIENTED_EDGE('',*,*,#186,.T.);
#233=ORIENTED_EDGE('',*,*,#183,.T.);
#234=ORIENTED_EDGE('',*,*,#187,.T.);
#235=ORIENTED_EDGE('',*,*,#188,.T.);
#236=ORIENTED_EDGE('',*,*,#189,.T.);
#237=ORIENTED_EDGE('',*,*,#190,.T.);
#238=ORIENTED_EDGE('',*,*,#191,.T.);
#239=ORIENTED_EDGE('',*,*,#192,.T.);
#240=ORIENTED_EDGE('',*,*,#193,.T.);
#241=ORIENTED_EDGE('',*,*,#194,.T.);
#242=ORIENTED_EDGE('',*,*,#195,.T.);
#243=ORIENTED_EDGE('',*,*,#196,.T.);
#244=ORIENTED_EDGE('',*,*,#197,.T.);
#245=ORIENTED_EDGE('',*,*,#182,.T.);
#246=ORIENTED_EDGE('',*,*,#198,.F.);
#247=ORIENTED_EDGE('',*,*,#199,.T.);
#248=ORIENTED_EDGE('',*,*,#187,.F.);
#249=ORIENTED_EDGE('',*,*,#180,.T.);
#250=ORIENTED_EDGE('',*,*,#191,.F.);
#251=ORIENTED_EDGE('',*,*,#200,.F.);
#252=ORIENTED_EDGE('',*,*,#201,.F.);
#253=ORIENTED_EDGE('',*,*,#197,.F.);
#254=ORIENTED_EDGE('',*,*,#202,.T.);
#255=ORIENTED_EDGE('',*,*,#203,.F.);
#256=ORIENTED_EDGE('',*,*,#202,.F.);
#257=ORIENTED_EDGE('',*,*,#196,.F.);
#258=ORIENTED_EDGE('',*,*,#204,.T.);
#259=ORIENTED_EDGE('',*,*,#205,.F.);
#260=ORIENTED_EDGE('',*,*,#204,.F.);
#261=ORIENTED_EDGE('',*,*,#195,.F.);
#262=ORIENTED_EDGE('',*,*,#206,.T.);
#263=ORIENTED_EDGE('',*,*,#207,.F.);
#264=ORIENTED_EDGE('',*,*,#206,.F.);
#265=ORIENTED_EDGE('',*,*,#194,.F.);
#266=ORIENTED_EDGE('',*,*,#208,.T.);
#267=ORIENTED_EDGE('',*,*,#209,.F.);
#268=ORIENTED_EDGE('',*,*,#208,.F.);
#269=ORIENTED_EDGE('',*,*,#193,.F.);
#270=ORIENTED_EDGE('',*,*,#210,.T.);
#271=ORIENTED_EDGE('',*,*,#211,.F.);
#272=ORIENTED_EDGE('',*,*,#210,.F.);
#273=ORIENTED_EDGE('',*,*,#192,.F.);
#274=ORIENTED_EDGE('',*,*,#212,.T.);
#275=ORIENTED_EDGE('',*,*,#213,.F.);
#276=ORIENTED_EDGE('',*,*,#212,.F.);
#277=ORIENTED_EDGE('',*,*,#177,.T.);
#278=ORIENTED_EDGE('',*,*,#201,.T.);
#279=ORIENTED_EDGE('',*,*,#214,.T.);
#280=ORIENTED_EDGE('',*,*,#215,.T.);
#281=ORIENTED_EDGE('',*,*,#216,.T.);
#282=ORIENTED_EDGE('',*,*,#198,.T.);
#283=ORIENTED_EDGE('',*,*,#181,.T.);
#284=ORIENTED_EDGE('',*,*,#185,.T.);
#285=ORIENTED_EDGE('',*,*,#203,.T.);
#286=ORIENTED_EDGE('',*,*,#205,.T.);
#287=ORIENTED_EDGE('',*,*,#207,.T.);
#288=ORIENTED_EDGE('',*,*,#209,.T.);
#289=ORIENTED_EDGE('',*,*,#211,.T.);
#290=ORIENTED_EDGE('',*,*,#213,.T.);
#291=ORIENTED_EDGE('',*,*,#217,.T.);
#292=ORIENTED_EDGE('',*,*,#188,.F.);
#293=ORIENTED_EDGE('',*,*,#199,.F.);
#294=ORIENTED_EDGE('',*,*,#216,.F.);
#295=ORIENTED_EDGE('',*,*,#218,.T.);
#296=ORIENTED_EDGE('',*,*,#189,.F.);
#297=ORIENTED_EDGE('',*,*,#217,.F.);
#298=ORIENTED_EDGE('',*,*,#215,.F.);
#299=ORIENTED_EDGE('',*,*,#200,.T.);
#300=ORIENTED_EDGE('',*,*,#190,.F.);
#301=ORIENTED_EDGE('',*,*,#218,.F.);
#302=ORIENTED_EDGE('',*,*,#214,.F.);
#303=PLANE('',#343);
#304=PLANE('',#344);
#305=PLANE('',#345);
#306=PLANE('',#346);
#307=PLANE('',#353);
#308=PLANE('',#354);
#309=PLANE('',#367);
#310=PLANE('',#368);
#311=PLANE('',#369);
#312=PLANE('',#370);
#313=ADVANCED_FACE('',(#45),#303,.T.);
#314=ADVANCED_FACE('',(#46),#304,.T.);
#315=ADVANCED_FACE('',(#47),#305,.T.);
#316=ADVANCED_FACE('',(#48,#21,#22,#23,#24,#25,#26),#306,.F.);
#317=ADVANCED_FACE('',(#49),#307,.F.);
#318=ADVANCED_FACE('',(#50),#308,.F.);
#319=ADVANCED_FACE('',(#51),#15,.F.);
#320=ADVANCED_FACE('',(#52),#16,.F.);
#321=ADVANCED_FACE('',(#53),#17,.F.);
#322=ADVANCED_FACE('',(#54),#18,.F.);
#323=ADVANCED_FACE('',(#55),#19,.F.);
#324=ADVANCED_FACE('',(#56),#20,.F.);
#325=ADVANCED_FACE('',(#57,#27,#28,#29,#30,#31,#32),#309,.T.);
#326=ADVANCED_FACE('',(#58),#310,.F.);
#327=ADVANCED_FACE('',(#59),#311,.F.);
#328=ADVANCED_FACE('',(#60),#312,.F.);
#329=CLOSED_SHELL('',(#313,#314,#315,#316,#317,#318,#319,#320,#321,#322,
#323,#324,#325,#326,#327,#328));
#330=DERIVED_UNIT_ELEMENT(#332,1.);
#331=DERIVED_UNIT_ELEMENT(#551,-3.);
#332=(
MASS_UNIT()
NAMED_UNIT(*)
SI_UNIT(.KILO.,.GRAM.)
);
#333=DERIVED_UNIT((#330,#331));
#334=MEASURE_REPRESENTATION_ITEM('density measure',
POSITIVE_RATIO_MEASURE(7850.),#333);
#335=PROPERTY_DEFINITION_REPRESENTATION(#340,#337);
#336=PROPERTY_DEFINITION_REPRESENTATION(#341,#338);
#337=REPRESENTATION('material name',(#339),#548);
#338=REPRESENTATION('density',(#334),#548);
#339=DESCRIPTIVE_REPRESENTATION_ITEM('Steel','Steel');
#340=PROPERTY_DEFINITION('material property','material name',#558);
#341=PROPERTY_DEFINITION('material property','density of part',#558);
#342=AXIS2_PLACEMENT_3D('',#459,#371,#372);
#343=AXIS2_PLACEMENT_3D('',#460,#373,#374);
#344=AXIS2_PLACEMENT_3D('',#469,#379,#380);
#345=AXIS2_PLACEMENT_3D('',#478,#385,#386);
#346=AXIS2_PLACEMENT_3D('',#481,#389,#390);
#347=AXIS2_PLACEMENT_3D('',#492,#396,#397);
#348=AXIS2_PLACEMENT_3D('',#494,#398,#399);
#349=AXIS2_PLACEMENT_3D('',#496,#400,#401);
#350=AXIS2_PLACEMENT_3D('',#498,#402,#403);
#351=AXIS2_PLACEMENT_3D('',#500,#404,#405);
#352=AXIS2_PLACEMENT_3D('',#502,#406,#407);
#353=AXIS2_PLACEMENT_3D('',#503,#408,#409);
#354=AXIS2_PLACEMENT_3D('',#507,#412,#413);
#355=AXIS2_PLACEMENT_3D('',#511,#416,#417);
#356=AXIS2_PLACEMENT_3D('',#514,#419,#420);
#357=AXIS2_PLACEMENT_3D('',#515,#421,#422);
#358=AXIS2_PLACEMENT_3D('',#518,#424,#425);
#359=AXIS2_PLACEMENT_3D('',#519,#426,#427);
#360=AXIS2_PLACEMENT_3D('',#522,#429,#430);
#361=AXIS2_PLACEMENT_3D('',#523,#431,#432);
#362=AXIS2_PLACEMENT_3D('',#526,#434,#435);
#363=AXIS2_PLACEMENT_3D('',#527,#436,#437);
#364=AXIS2_PLACEMENT_3D('',#530,#439,#440);
#365=AXIS2_PLACEMENT_3D('',#531,#441,#442);
#366=AXIS2_PLACEMENT_3D('',#534,#444,#445);
#367=AXIS2_PLACEMENT_3D('',#535,#446,#447);
#368=AXIS2_PLACEMENT_3D('',#541,#451,#452);
#369=AXIS2_PLACEMENT_3D('',#543,#454,#455);
#370=AXIS2_PLACEMENT_3D('',#545,#457,#458);
#371=DIRECTION('axis',(0.,0.,1.));
#372=DIRECTION('refdir',(1.,0.,0.));
#373=DIRECTION('center_axis',(0.,-1.,0.));
#374=DIRECTION('ref_axis',(0.,0.,-1.));
#375=DIRECTION('',(1.,0.,0.));
#376=DIRECTION('',(0.,0.,-1.));
#377=DIRECTION('',(-1.,0.,0.));
#378=DIRECTION('',(0.,0.,-1.));
#379=DIRECTION('center_axis',(0.,1.,0.));
#380=DIRECTION('ref_axis',(0.,0.,1.));
#381=DIRECTION('',(-1.,0.,0.));
#382=DIRECTION('',(0.,0.,1.));
#383=DIRECTION('',(1.,0.,0.));
#384=DIRECTION('',(0.,0.,-1.));
#385=DIRECTION('center_axis',(1.,0.,0.));
#386=DIRECTION('ref_axis',(0.,0.,-1.));
#387=DIRECTION('',(0.,1.,0.));
#388=DIRECTION('',(0.,-1.,0.));
#389=DIRECTION('center_axis',(0.,0.,1.));
#390=DIRECTION('ref_axis',(1.,0.,0.));
#391=DIRECTION('',(0.,-1.,0.));
#392=DIRECTION('',(-1.,0.,0.));
#393=DIRECTION('',(0.,1.,0.));
#394=DIRECTION('',(1.,0.,0.));
#395=DIRECTION('',(0.,-1.,0.));
#396=DIRECTION('center_axis',(0.,0.,1.));
#397=DIRECTION('ref_axis',(1.,0.,0.));
#398=DIRECTION('center_axis',(0.,0.,1.));
#399=DIRECTION('ref_axis',(1.,0.,0.));
#400=DIRECTION('center_axis',(0.,0.,1.));
#401=DIRECTION('ref_axis',(1.,0.,0.));
#402=DIRECTION('center_axis',(0.,0.,1.));
#403=DIRECTION('ref_axis',(1.,0.,0.));
#404=DIRECTION('center_axis',(0.,0.,1.));
#405=DIRECTION('ref_axis',(1.,0.,0.));
#406=DIRECTION('center_axis',(0.,0.,1.));
#407=DIRECTION('ref_axis',(1.,0.,0.));
#408=DIRECTION('center_axis',(-1.,0.,0.));
#409=DIRECTION('ref_axis',(0.,0.,1.));
#410=DIRECTION('',(0.,1.,0.));
#411=DIRECTION('',(0.,0.,-1.));
#412=DIRECTION('center_axis',(-1.,0.,0.));
#413=DIRECTION('ref_axis',(0.,0.,1.));
#414=DIRECTION('',(0.,0.,-1.));
#415=DIRECTION('',(0.,1.,0.));
#416=DIRECTION('center_axis',(0.,0.,1.));
#417=DIRECTION('ref_axis',(1.,0.,0.));
#418=DIRECTION('',(0.,0.,1.));
#419=DIRECTION('center_axis',(0.,0.,-1.));
#420=DIRECTION('ref_axis',(1.,0.,0.));
#421=DIRECTION('center_axis',(0.,0.,1.));
#422=DIRECTION('ref_axis',(1.,0.,0.));
#423=DIRECTION('',(0.,0.,1.));
#424=DIRECTION('center_axis',(0.,0.,-1.));
#425=DIRECTION('ref_axis',(1.,0.,0.));
#426=DIRECTION('center_axis',(0.,0.,1.));
#427=DIRECTION('ref_axis',(1.,0.,0.));
#428=DIRECTION('',(0.,0.,1.));
#429=DIRECTION('center_axis',(0.,0.,-1.));
#430=DIRECTION('ref_axis',(1.,0.,0.));
#431=DIRECTION('center_axis',(0.,0.,1.));
#432=DIRECTION('ref_axis',(1.,0.,0.));
#433=DIRECTION('',(0.,0.,1.));
#434=DIRECTION('center_axis',(0.,0.,-1.));
#435=DIRECTION('ref_axis',(1.,0.,0.));
#436=DIRECTION('center_axis',(0.,0.,1.));
#437=DIRECTION('ref_axis',(1.,0.,0.));
#438=DIRECTION('',(0.,0.,1.));
#439=DIRECTION('center_axis',(0.,0.,-1.));
#440=DIRECTION('ref_axis',(1.,0.,0.));
#441=DIRECTION('center_axis',(0.,0.,1.));
#442=DIRECTION('ref_axis',(1.,0.,0.));
#443=DIRECTION('',(0.,0.,1.));
#444=DIRECTION('center_axis',(0.,0.,-1.));
#445=DIRECTION('ref_axis',(1.,0.,0.));
#446=DIRECTION('center_axis',(0.,0.,1.));
#447=DIRECTION('ref_axis',(1.,0.,0.));
#448=DIRECTION('',(-1.,0.,0.));
#449=DIRECTION('',(0.,-1.,0.));
#450=DIRECTION('',(1.,0.,0.));
#451=DIRECTION('center_axis',(0.,1.,0.));
#452=DIRECTION('ref_axis',(0.,0.,1.));
#453=DIRECTION('',(0.,0.,-1.));
#454=DIRECTION('center_axis',(1.,0.,0.));
#455=DIRECTION('ref_axis',(0.,0.,-1.));
#456=DIRECTION('',(0.,0.,-1.));
#457=DIRECTION('center_axis',(0.,-1.,0.));
#458=DIRECTION('ref_axis',(0.,0.,-1.));
#459=CARTESIAN_POINT('',(0.,0.,0.));
#460=CARTESIAN_POINT('Origin',(206.,32.,286.));
#461=CARTESIAN_POINT('',(180.,32.,290.));
#462=CARTESIAN_POINT('',(230.,32.,290.));
#463=CARTESIAN_POINT('',(170.5,32.,290.));
#464=CARTESIAN_POINT('',(180.,32.,282.));
#465=CARTESIAN_POINT('',(180.,32.,286.));
#466=CARTESIAN_POINT('',(230.,32.,282.));
#467=CARTESIAN_POINT('',(170.5,32.,282.));
#468=CARTESIAN_POINT('',(230.,32.,286.));
#469=CARTESIAN_POINT('Origin',(206.,-32.,286.));
#470=CARTESIAN_POINT('',(230.,-32.,290.));
#471=CARTESIAN_POINT('',(180.,-32.,290.));
#472=CARTESIAN_POINT('',(170.5,-32.,290.));
#473=CARTESIAN_POINT('',(230.,-32.,282.));
#474=CARTESIAN_POINT('',(230.,-32.,286.));
#475=CARTESIAN_POINT('',(180.,-32.,282.));
#476=CARTESIAN_POINT('',(170.5,-32.,282.));
#477=CARTESIAN_POINT('',(180.,-32.,286.));
#478=CARTESIAN_POINT('Origin',(180.,0.,286.));
#479=CARTESIAN_POINT('',(180.,0.,290.));
#480=CARTESIAN_POINT('',(180.,0.,282.));
#481=CARTESIAN_POINT('Origin',(135.,0.,282.));
#482=CARTESIAN_POINT('',(230.,-44.,282.));
#483=CARTESIAN_POINT('',(230.,0.,282.));
#484=CARTESIAN_POINT('',(40.,-44.,282.));
#485=CARTESIAN_POINT('',(135.,-44.,282.));
#486=CARTESIAN_POINT('',(40.,44.,282.));
#487=CARTESIAN_POINT('',(40.,0.,282.));
#488=CARTESIAN_POINT('',(230.,44.,282.));
#489=CARTESIAN_POINT('',(135.,44.,282.));
#490=CARTESIAN_POINT('',(230.,0.,282.));
#491=CARTESIAN_POINT('',(52.8,-39.,282.));
#492=CARTESIAN_POINT('Origin',(55.,-39.,282.));
#493=CARTESIAN_POINT('',(52.8,39.,282.));
#494=CARTESIAN_POINT('Origin',(55.,39.,282.));
#495=CARTESIAN_POINT('',(132.8,-39.,282.));
#496=CARTESIAN_POINT('Origin',(135.,-39.,282.));
#497=CARTESIAN_POINT('',(132.8,39.,282.));
#498=CARTESIAN_POINT('Origin',(135.,39.,282.));
#499=CARTESIAN_POINT('',(212.8,-39.,282.));
#500=CARTESIAN_POINT('Origin',(215.,-39.,282.));
#501=CARTESIAN_POINT('',(212.8,39.,282.));
#502=CARTESIAN_POINT('Origin',(215.,39.,282.));
#503=CARTESIAN_POINT('Origin',(230.,0.,286.));
#504=CARTESIAN_POINT('',(230.,-44.,290.));
#505=CARTESIAN_POINT('',(230.,0.,290.));
#506=CARTESIAN_POINT('',(230.,-44.,286.));
#507=CARTESIAN_POINT('Origin',(230.,0.,286.));
#508=CARTESIAN_POINT('',(230.,44.,290.));
#509=CARTESIAN_POINT('',(230.,44.,286.));
#510=CARTESIAN_POINT('',(230.,0.,290.));
#511=CARTESIAN_POINT('Origin',(215.,39.,286.));
#512=CARTESIAN_POINT('',(212.8,39.,290.));
#513=CARTESIAN_POINT('',(212.8,39.,286.));
#514=CARTESIAN_POINT('Origin',(215.,39.,290.));
#515=CARTESIAN_POINT('Origin',(215.,-39.,286.));
#516=CARTESIAN_POINT('',(212.8,-39.,290.));
#517=CARTESIAN_POINT('',(212.8,-39.,286.));
#518=CARTESIAN_POINT('Origin',(215.,-39.,290.));
#519=CARTESIAN_POINT('Origin',(135.,39.,286.));
#520=CARTESIAN_POINT('',(132.8,39.,290.));
#521=CARTESIAN_POINT('',(132.8,39.,286.));
#522=CARTESIAN_POINT('Origin',(135.,39.,290.));
#523=CARTESIAN_POINT('Origin',(135.,-39.,286.));
#524=CARTESIAN_POINT('',(132.8,-39.,290.));
#525=CARTESIAN_POINT('',(132.8,-39.,286.));
#526=CARTESIAN_POINT('Origin',(135.,-39.,290.));
#527=CARTESIAN_POINT('Origin',(55.,39.,286.));
#528=CARTESIAN_POINT('',(52.8,39.,290.));
#529=CARTESIAN_POINT('',(52.8,39.,286.));
#530=CARTESIAN_POINT('Origin',(55.,39.,290.));
#531=CARTESIAN_POINT('Origin',(55.,-39.,286.));
#532=CARTESIAN_POINT('',(52.8,-39.,290.));
#533=CARTESIAN_POINT('',(52.8,-39.,286.));
#534=CARTESIAN_POINT('Origin',(55.,-39.,290.));
#535=CARTESIAN_POINT('Origin',(135.,0.,290.));
#536=CARTESIAN_POINT('',(40.,44.,290.));
#537=CARTESIAN_POINT('',(135.,44.,290.));
#538=CARTESIAN_POINT('',(40.,-44.,290.));
#539=CARTESIAN_POINT('',(40.,0.,290.));
#540=CARTESIAN_POINT('',(135.,-44.,290.));
#541=CARTESIAN_POINT('Origin',(135.,-44.,286.));
#542=CARTESIAN_POINT('',(40.,-44.,286.));
#543=CARTESIAN_POINT('Origin',(40.,0.,286.));
#544=CARTESIAN_POINT('',(40.,44.,286.));
#545=CARTESIAN_POINT('Origin',(135.,44.,286.));
#546=UNCERTAINTY_MEASURE_WITH_UNIT(LENGTH_MEASURE(0.01),#550,
'DISTANCE_ACCURACY_VALUE',
'Maximum model space distance between geometric entities at asserted c
onnectivities');
#547=UNCERTAINTY_MEASURE_WITH_UNIT(LENGTH_MEASURE(0.01),#550,
'DISTANCE_ACCURACY_VALUE',
'Maximum model space distance between geometric entities at asserted c
onnectivities');
#548=(
GEOMETRIC_REPRESENTATION_CONTEXT(3)
GLOBAL_UNCERTAINTY_ASSIGNED_CONTEXT((#546))
GLOBAL_UNIT_ASSIGNED_CONTEXT((#550,#552,#553))
REPRESENTATION_CONTEXT('','3D')
);
#549=(
GEOMETRIC_REPRESENTATION_CONTEXT(3)
GLOBAL_UNCERTAINTY_ASSIGNED_CONTEXT((#547))
GLOBAL_UNIT_ASSIGNED_CONTEXT((#550,#552,#553))
REPRESENTATION_CONTEXT('','3D')
);
#550=(
LENGTH_UNIT()
NAMED_UNIT(*)
SI_UNIT(.MILLI.,.METRE.)
);
#551=(
LENGTH_UNIT()
NAMED_UNIT(*)
SI_UNIT($,.METRE.)
);
#552=(
NAMED_UNIT(*)
PLANE_ANGLE_UNIT()
SI_UNIT($,.RADIAN.)
);
#553=(
NAMED_UNIT(*)
SI_UNIT($,.STERADIAN.)
SOLID_ANGLE_UNIT()
);
#554=SHAPE_DEFINITION_REPRESENTATION(#555,#556);
#555=PRODUCT_DEFINITION_SHAPE('',$,#558);
#556=SHAPE_REPRESENTATION('',(#342),#548);
#557=PRODUCT_DEFINITION_CONTEXT('part definition',#562,'design');
#558=PRODUCT_DEFINITION('2026-08-12-23-08-01-582',
'EXPORT_TMP_PRINT_V005_P207_UpperArmTopCover_ElbowSw',#559,#557);
#559=PRODUCT_DEFINITION_FORMATION('',$,#564);
#560=PRODUCT_RELATED_PRODUCT_CATEGORY(
'EXPORT_TMP_PRINT_V005_P207_UpperArmTopCover_ElbowSw',
'EXPORT_TMP_PRINT_V005_P207_UpperArmTopCover_ElbowSw',(#564));
#561=APPLICATION_PROTOCOL_DEFINITION('international standard',
'automotive_design',2009,#562);
#562=APPLICATION_CONTEXT(
'Core Data for Automotive Mechanical Design Process');
#563=PRODUCT_CONTEXT('part definition',#562,'mechanical');
#564=PRODUCT('2026-08-12-23-08-01-582',
'EXPORT_TMP_PRINT_V005_P207_UpperArmTopCover_ElbowSw',$,(#563));
#565=PRESENTATION_STYLE_ASSIGNMENT((#566));
#566=SURFACE_STYLE_USAGE(.BOTH.,#567);
#567=SURFACE_SIDE_STYLE('',(#568));
#568=SURFACE_STYLE_FILL_AREA(#569);
#569=FILL_AREA_STYLE('Steel - Satin',(#570));
#570=FILL_AREA_STYLE_COLOUR('Steel - Satin',#571);
#571=COLOUR_RGB('Steel - Satin',0.627450980392157,0.627450980392157,0.627450980392157);
ENDSEC;
END-ISO-10303-21;
