ISO-10303-21;
HEADER;
/* Generated by software containing ST-Developer
 * from STEP Tools, Inc. (www.steptools.com) 
 */

FILE_DESCRIPTION(
/* description */ (''),
/* implementation_level */ '2;1');

FILE_NAME(
/* name */ 'PRINT_V010C_P001_BaseFloor_Left_Anchored.step',
/* time_stamp */ '2026-08-30T16:33:40+02:00',
/* author */ (''),
/* organization */ (''),
/* preprocessor_version */ 'ST-DEVELOPER v20.1',
/* originating_system */ 'Autodesk Translation Framework v15.8.0.0',
/* authorisation */ '');

FILE_SCHEMA (('AUTOMOTIVE_DESIGN { 1 0 10303 214 3 1 1 }'));
ENDSEC;

DATA;
#10=MECHANICAL_DESIGN_GEOMETRIC_PRESENTATION_REPRESENTATION('',(#13),#906);
#11=SHAPE_REPRESENTATION_RELATIONSHIP('SRR','None',#913,#12);
#12=ADVANCED_BREP_SHAPE_REPRESENTATION('',(#14),#905);
#13=STYLED_ITEM('',(#922),#14);
#14=MANIFOLD_SOLID_BREP('PRINT_V010C_P001_BaseFloor_Left_Anchored',#530);
#15=FACE_BOUND('',#84,.T.);
#16=FACE_BOUND('',#85,.T.);
#17=FACE_BOUND('',#86,.T.);
#18=FACE_BOUND('',#87,.T.);
#19=FACE_BOUND('',#88,.T.);
#20=FACE_BOUND('',#89,.T.);
#21=FACE_BOUND('',#90,.T.);
#22=FACE_BOUND('',#91,.T.);
#23=FACE_BOUND('',#92,.T.);
#24=FACE_BOUND('',#93,.T.);
#25=FACE_BOUND('',#94,.T.);
#26=FACE_BOUND('',#95,.T.);
#27=FACE_BOUND('',#96,.T.);
#28=FACE_BOUND('',#97,.T.);
#29=FACE_BOUND('',#98,.T.);
#30=FACE_BOUND('',#101,.T.);
#31=FACE_BOUND('',#102,.T.);
#32=FACE_BOUND('',#103,.T.);
#33=FACE_BOUND('',#104,.T.);
#34=FACE_BOUND('',#105,.T.);
#35=FACE_BOUND('',#106,.T.);
#36=FACE_BOUND('',#107,.T.);
#37=FACE_BOUND('',#108,.T.);
#38=FACE_BOUND('',#109,.T.);
#39=FACE_BOUND('',#110,.T.);
#40=FACE_BOUND('',#111,.T.);
#41=FACE_BOUND('',#112,.T.);
#42=FACE_BOUND('',#113,.T.);
#43=FACE_BOUND('',#114,.T.);
#44=FACE_BOUND('',#115,.T.);
#45=PLANE('',#562);
#46=PLANE('',#575);
#47=PLANE('',#576);
#48=PLANE('',#589);
#49=PLANE('',#600);
#50=PLANE('',#603);
#51=PLANE('',#604);
#52=FACE_OUTER_BOUND('',#77,.T.);
#53=FACE_OUTER_BOUND('',#78,.T.);
#54=FACE_OUTER_BOUND('',#79,.T.);
#55=FACE_OUTER_BOUND('',#80,.T.);
#56=FACE_OUTER_BOUND('',#81,.T.);
#57=FACE_OUTER_BOUND('',#82,.T.);
#58=FACE_OUTER_BOUND('',#83,.T.);
#59=FACE_OUTER_BOUND('',#99,.T.);
#60=FACE_OUTER_BOUND('',#100,.T.);
#61=FACE_OUTER_BOUND('',#116,.T.);
#62=FACE_OUTER_BOUND('',#117,.T.);
#63=FACE_OUTER_BOUND('',#118,.T.);
#64=FACE_OUTER_BOUND('',#119,.T.);
#65=FACE_OUTER_BOUND('',#120,.T.);
#66=FACE_OUTER_BOUND('',#121,.T.);
#67=FACE_OUTER_BOUND('',#122,.T.);
#68=FACE_OUTER_BOUND('',#123,.T.);
#69=FACE_OUTER_BOUND('',#124,.T.);
#70=FACE_OUTER_BOUND('',#125,.T.);
#71=FACE_OUTER_BOUND('',#126,.T.);
#72=FACE_OUTER_BOUND('',#127,.T.);
#73=FACE_OUTER_BOUND('',#128,.T.);
#74=FACE_OUTER_BOUND('',#129,.T.);
#75=FACE_OUTER_BOUND('',#130,.T.);
#76=FACE_OUTER_BOUND('',#131,.T.);
#77=EDGE_LOOP('',(#349,#350,#351,#352));
#78=EDGE_LOOP('',(#353,#354,#355,#356));
#79=EDGE_LOOP('',(#357,#358,#359,#360));
#80=EDGE_LOOP('',(#361,#362,#363,#364));
#81=EDGE_LOOP('',(#365,#366,#367,#368));
#82=EDGE_LOOP('',(#369,#370,#371,#372));
#83=EDGE_LOOP('',(#373,#374,#375,#376,#377,#378,#379,#380));
#84=EDGE_LOOP('',(#381));
#85=EDGE_LOOP('',(#382));
#86=EDGE_LOOP('',(#383));
#87=EDGE_LOOP('',(#384));
#88=EDGE_LOOP('',(#385));
#89=EDGE_LOOP('',(#386));
#90=EDGE_LOOP('',(#387));
#91=EDGE_LOOP('',(#388));
#92=EDGE_LOOP('',(#389));
#93=EDGE_LOOP('',(#390));
#94=EDGE_LOOP('',(#391));
#95=EDGE_LOOP('',(#392));
#96=EDGE_LOOP('',(#393));
#97=EDGE_LOOP('',(#394));
#98=EDGE_LOOP('',(#395));
#99=EDGE_LOOP('',(#396,#397,#398,#399));
#100=EDGE_LOOP('',(#400,#401,#402,#403,#404,#405,#406,#407));
#101=EDGE_LOOP('',(#408));
#102=EDGE_LOOP('',(#409));
#103=EDGE_LOOP('',(#410));
#104=EDGE_LOOP('',(#411));
#105=EDGE_LOOP('',(#412));
#106=EDGE_LOOP('',(#413));
#107=EDGE_LOOP('',(#414));
#108=EDGE_LOOP('',(#415));
#109=EDGE_LOOP('',(#416));
#110=EDGE_LOOP('',(#417));
#111=EDGE_LOOP('',(#418));
#112=EDGE_LOOP('',(#419));
#113=EDGE_LOOP('',(#420));
#114=EDGE_LOOP('',(#421));
#115=EDGE_LOOP('',(#422));
#116=EDGE_LOOP('',(#423,#424,#425,#426));
#117=EDGE_LOOP('',(#427,#428,#429,#430));
#118=EDGE_LOOP('',(#431,#432,#433,#434));
#119=EDGE_LOOP('',(#435,#436,#437,#438));
#120=EDGE_LOOP('',(#439,#440,#441,#442));
#121=EDGE_LOOP('',(#443,#444,#445,#446));
#122=EDGE_LOOP('',(#447,#448,#449,#450));
#123=EDGE_LOOP('',(#451,#452,#453,#454));
#124=EDGE_LOOP('',(#455,#456,#457,#458));
#125=EDGE_LOOP('',(#459,#460,#461,#462));
#126=EDGE_LOOP('',(#463,#464,#465,#466));
#127=EDGE_LOOP('',(#467,#468,#469,#470));
#128=EDGE_LOOP('',(#471,#472,#473,#474));
#129=EDGE_LOOP('',(#475,#476,#477,#478));
#130=EDGE_LOOP('',(#479,#480,#481,#482));
#131=EDGE_LOOP('',(#483,#484,#485,#486));
#132=LINE('',#767,#165);
#133=LINE('',#773,#166);
#134=LINE('',#779,#167);
#135=LINE('',#785,#168);
#136=LINE('',#791,#169);
#137=LINE('',#798,#170);
#138=LINE('',#801,#171);
#139=LINE('',#804,#172);
#140=LINE('',#806,#173);
#141=LINE('',#810,#174);
#142=LINE('',#814,#175);
#143=LINE('',#815,#176);
#144=LINE('',#838,#177);
#145=LINE('',#839,#178);
#146=LINE('',#842,#179);
#147=LINE('',#844,#180);
#148=LINE('',#848,#181);
#149=LINE('',#851,#182);
#150=LINE('',#873,#183);
#151=LINE('',#875,#184);
#152=LINE('',#877,#185);
#153=LINE('',#879,#186);
#154=LINE('',#881,#187);
#155=LINE('',#883,#188);
#156=LINE('',#885,#189);
#157=LINE('',#887,#190);
#158=LINE('',#889,#191);
#159=LINE('',#891,#192);
#160=LINE('',#893,#193);
#161=LINE('',#895,#194);
#162=LINE('',#897,#195);
#163=LINE('',#899,#196);
#164=LINE('',#900,#197);
#165=VECTOR('',#611,7.5);
#166=VECTOR('',#618,7.5);
#167=VECTOR('',#625,2.25);
#168=VECTOR('',#632,2.25);
#169=VECTOR('',#639,7.5);
#170=VECTOR('',#646,10.);
#171=VECTOR('',#649,10.);
#172=VECTOR('',#652,10.);
#173=VECTOR('',#653,10.);
#174=VECTOR('',#656,10.);
#175=VECTOR('',#659,10.);
#176=VECTOR('',#660,10.);
#177=VECTOR('',#683,10.);
#178=VECTOR('',#684,10.);
#179=VECTOR('',#687,10.);
#180=VECTOR('',#688,10.);
#181=VECTOR('',#691,10.);
#182=VECTOR('',#694,10.);
#183=VECTOR('',#717,10.);
#184=VECTOR('',#720,2.7);
#185=VECTOR('',#723,2.7);
#186=VECTOR('',#726,2.7);
#187=VECTOR('',#729,2.7);
#188=VECTOR('',#732,2.7);
#189=VECTOR('',#735,2.7);
#190=VECTOR('',#738,3.25);
#191=VECTOR('',#741,3.25);
#192=VECTOR('',#744,4.3);
#193=VECTOR('',#747,4.3);
#194=VECTOR('',#750,10.);
#195=VECTOR('',#753,10.);
#196=VECTOR('',#756,10.);
#197=VECTOR('',#757,10.);
#198=CIRCLE('',#545,7.5);
#199=CIRCLE('',#546,7.5);
#200=CIRCLE('',#548,7.5);
#201=CIRCLE('',#549,7.5);
#202=CIRCLE('',#551,2.25);
#203=CIRCLE('',#552,2.25);
#204=CIRCLE('',#554,2.25);
#205=CIRCLE('',#555,2.25);
#206=CIRCLE('',#557,7.5);
#207=CIRCLE('',#558,7.5);
#208=CIRCLE('',#560,41.5);
#209=CIRCLE('',#561,41.5);
#210=CIRCLE('',#563,26.);
#211=CIRCLE('',#564,26.);
#212=CIRCLE('',#565,2.7);
#213=CIRCLE('',#566,2.7);
#214=CIRCLE('',#567,2.7);
#215=CIRCLE('',#568,2.7);
#216=CIRCLE('',#569,2.7);
#217=CIRCLE('',#570,3.25);
#218=CIRCLE('',#571,3.25);
#219=CIRCLE('',#572,4.3);
#220=CIRCLE('',#573,4.3);
#221=CIRCLE('',#574,2.7);
#222=CIRCLE('',#577,26.);
#223=CIRCLE('',#578,26.);
#224=CIRCLE('',#579,2.7);
#225=CIRCLE('',#580,2.7);
#226=CIRCLE('',#581,2.7);
#227=CIRCLE('',#582,2.7);
#228=CIRCLE('',#583,2.7);
#229=CIRCLE('',#584,3.25);
#230=CIRCLE('',#585,3.25);
#231=CIRCLE('',#586,4.3);
#232=CIRCLE('',#587,4.3);
#233=CIRCLE('',#588,2.7);
#234=VERTEX_POINT('',#764);
#235=VERTEX_POINT('',#766);
#236=VERTEX_POINT('',#770);
#237=VERTEX_POINT('',#772);
#238=VERTEX_POINT('',#776);
#239=VERTEX_POINT('',#778);
#240=VERTEX_POINT('',#782);
#241=VERTEX_POINT('',#784);
#242=VERTEX_POINT('',#788);
#243=VERTEX_POINT('',#790);
#244=VERTEX_POINT('',#794);
#245=VERTEX_POINT('',#795);
#246=VERTEX_POINT('',#797);
#247=VERTEX_POINT('',#799);
#248=VERTEX_POINT('',#803);
#249=VERTEX_POINT('',#805);
#250=VERTEX_POINT('',#807);
#251=VERTEX_POINT('',#809);
#252=VERTEX_POINT('',#811);
#253=VERTEX_POINT('',#813);
#254=VERTEX_POINT('',#816);
#255=VERTEX_POINT('',#818);
#256=VERTEX_POINT('',#820);
#257=VERTEX_POINT('',#822);
#258=VERTEX_POINT('',#824);
#259=VERTEX_POINT('',#826);
#260=VERTEX_POINT('',#828);
#261=VERTEX_POINT('',#830);
#262=VERTEX_POINT('',#832);
#263=VERTEX_POINT('',#834);
#264=VERTEX_POINT('',#837);
#265=VERTEX_POINT('',#841);
#266=VERTEX_POINT('',#843);
#267=VERTEX_POINT('',#845);
#268=VERTEX_POINT('',#847);
#269=VERTEX_POINT('',#849);
#270=VERTEX_POINT('',#852);
#271=VERTEX_POINT('',#854);
#272=VERTEX_POINT('',#856);
#273=VERTEX_POINT('',#858);
#274=VERTEX_POINT('',#860);
#275=VERTEX_POINT('',#862);
#276=VERTEX_POINT('',#864);
#277=VERTEX_POINT('',#866);
#278=VERTEX_POINT('',#868);
#279=VERTEX_POINT('',#870);
#280=EDGE_CURVE('',#234,#234,#198,.T.);
#281=EDGE_CURVE('',#234,#235,#132,.T.);
#282=EDGE_CURVE('',#235,#235,#199,.T.);
#283=EDGE_CURVE('',#236,#236,#200,.T.);
#284=EDGE_CURVE('',#236,#237,#133,.T.);
#285=EDGE_CURVE('',#237,#237,#201,.T.);
#286=EDGE_CURVE('',#238,#238,#202,.T.);
#287=EDGE_CURVE('',#238,#239,#134,.T.);
#288=EDGE_CURVE('',#239,#239,#203,.T.);
#289=EDGE_CURVE('',#240,#240,#204,.T.);
#290=EDGE_CURVE('',#240,#241,#135,.T.);
#291=EDGE_CURVE('',#241,#241,#205,.T.);
#292=EDGE_CURVE('',#242,#242,#206,.T.);
#293=EDGE_CURVE('',#242,#243,#136,.T.);
#294=EDGE_CURVE('',#243,#243,#207,.T.);
#295=EDGE_CURVE('',#244,#245,#208,.T.);
#296=EDGE_CURVE('',#246,#244,#137,.T.);
#297=EDGE_CURVE('',#247,#246,#209,.T.);
#298=EDGE_CURVE('',#245,#247,#138,.T.);
#299=EDGE_CURVE('',#248,#246,#139,.T.);
#300=EDGE_CURVE('',#248,#249,#140,.T.);
#301=EDGE_CURVE('',#249,#250,#210,.T.);
#302=EDGE_CURVE('',#250,#251,#141,.T.);
#303=EDGE_CURVE('',#251,#252,#211,.T.);
#304=EDGE_CURVE('',#252,#253,#142,.T.);
#305=EDGE_CURVE('',#247,#253,#143,.T.);
#306=EDGE_CURVE('',#254,#254,#212,.T.);
#307=EDGE_CURVE('',#255,#255,#213,.T.);
#308=EDGE_CURVE('',#256,#256,#214,.T.);
#309=EDGE_CURVE('',#257,#257,#215,.T.);
#310=EDGE_CURVE('',#258,#258,#216,.T.);
#311=EDGE_CURVE('',#259,#259,#217,.T.);
#312=EDGE_CURVE('',#260,#260,#218,.T.);
#313=EDGE_CURVE('',#261,#261,#219,.T.);
#314=EDGE_CURVE('',#262,#262,#220,.T.);
#315=EDGE_CURVE('',#263,#263,#221,.T.);
#316=EDGE_CURVE('',#244,#264,#144,.T.);
#317=EDGE_CURVE('',#264,#248,#145,.T.);
#318=EDGE_CURVE('',#265,#245,#146,.T.);
#319=EDGE_CURVE('',#265,#266,#147,.T.);
#320=EDGE_CURVE('',#266,#267,#222,.T.);
#321=EDGE_CURVE('',#267,#268,#148,.T.);
#322=EDGE_CURVE('',#268,#269,#223,.T.);
#323=EDGE_CURVE('',#269,#264,#149,.T.);
#324=EDGE_CURVE('',#270,#270,#224,.T.);
#325=EDGE_CURVE('',#271,#271,#225,.T.);
#326=EDGE_CURVE('',#272,#272,#226,.T.);
#327=EDGE_CURVE('',#273,#273,#227,.T.);
#328=EDGE_CURVE('',#274,#274,#228,.T.);
#329=EDGE_CURVE('',#275,#275,#229,.T.);
#330=EDGE_CURVE('',#276,#276,#230,.T.);
#331=EDGE_CURVE('',#277,#277,#231,.T.);
#332=EDGE_CURVE('',#278,#278,#232,.T.);
#333=EDGE_CURVE('',#279,#279,#233,.T.);
#334=EDGE_CURVE('',#253,#265,#150,.T.);
#335=EDGE_CURVE('',#270,#254,#151,.T.);
#336=EDGE_CURVE('',#279,#263,#152,.T.);
#337=EDGE_CURVE('',#271,#255,#153,.T.);
#338=EDGE_CURVE('',#272,#256,#154,.T.);
#339=EDGE_CURVE('',#273,#257,#155,.T.);
#340=EDGE_CURVE('',#274,#258,#156,.T.);
#341=EDGE_CURVE('',#275,#259,#157,.T.);
#342=EDGE_CURVE('',#276,#260,#158,.T.);
#343=EDGE_CURVE('',#277,#261,#159,.T.);
#344=EDGE_CURVE('',#278,#262,#160,.T.);
#345=EDGE_CURVE('',#249,#269,#161,.T.);
#346=EDGE_CURVE('',#250,#268,#162,.T.);
#347=EDGE_CURVE('',#252,#266,#163,.T.);
#348=EDGE_CURVE('',#251,#267,#164,.T.);
#349=ORIENTED_EDGE('',*,*,#280,.F.);
#350=ORIENTED_EDGE('',*,*,#281,.T.);
#351=ORIENTED_EDGE('',*,*,#282,.F.);
#352=ORIENTED_EDGE('',*,*,#281,.F.);
#353=ORIENTED_EDGE('',*,*,#283,.F.);
#354=ORIENTED_EDGE('',*,*,#284,.T.);
#355=ORIENTED_EDGE('',*,*,#285,.F.);
#356=ORIENTED_EDGE('',*,*,#284,.F.);
#357=ORIENTED_EDGE('',*,*,#286,.F.);
#358=ORIENTED_EDGE('',*,*,#287,.T.);
#359=ORIENTED_EDGE('',*,*,#288,.F.);
#360=ORIENTED_EDGE('',*,*,#287,.F.);
#361=ORIENTED_EDGE('',*,*,#289,.F.);
#362=ORIENTED_EDGE('',*,*,#290,.T.);
#363=ORIENTED_EDGE('',*,*,#291,.F.);
#364=ORIENTED_EDGE('',*,*,#290,.F.);
#365=ORIENTED_EDGE('',*,*,#292,.F.);
#366=ORIENTED_EDGE('',*,*,#293,.T.);
#367=ORIENTED_EDGE('',*,*,#294,.F.);
#368=ORIENTED_EDGE('',*,*,#293,.F.);
#369=ORIENTED_EDGE('',*,*,#295,.F.);
#370=ORIENTED_EDGE('',*,*,#296,.F.);
#371=ORIENTED_EDGE('',*,*,#297,.F.);
#372=ORIENTED_EDGE('',*,*,#298,.F.);
#373=ORIENTED_EDGE('',*,*,#297,.T.);
#374=ORIENTED_EDGE('',*,*,#299,.F.);
#375=ORIENTED_EDGE('',*,*,#300,.T.);
#376=ORIENTED_EDGE('',*,*,#301,.T.);
#377=ORIENTED_EDGE('',*,*,#302,.T.);
#378=ORIENTED_EDGE('',*,*,#303,.T.);
#379=ORIENTED_EDGE('',*,*,#304,.T.);
#380=ORIENTED_EDGE('',*,*,#305,.F.);
#381=ORIENTED_EDGE('',*,*,#306,.T.);
#382=ORIENTED_EDGE('',*,*,#307,.T.);
#383=ORIENTED_EDGE('',*,*,#308,.T.);
#384=ORIENTED_EDGE('',*,*,#309,.T.);
#385=ORIENTED_EDGE('',*,*,#310,.T.);
#386=ORIENTED_EDGE('',*,*,#311,.T.);
#387=ORIENTED_EDGE('',*,*,#312,.T.);
#388=ORIENTED_EDGE('',*,*,#313,.T.);
#389=ORIENTED_EDGE('',*,*,#314,.T.);
#390=ORIENTED_EDGE('',*,*,#315,.T.);
#391=ORIENTED_EDGE('',*,*,#294,.T.);
#392=ORIENTED_EDGE('',*,*,#291,.T.);
#393=ORIENTED_EDGE('',*,*,#288,.T.);
#394=ORIENTED_EDGE('',*,*,#285,.T.);
#395=ORIENTED_EDGE('',*,*,#282,.T.);
#396=ORIENTED_EDGE('',*,*,#296,.T.);
#397=ORIENTED_EDGE('',*,*,#316,.T.);
#398=ORIENTED_EDGE('',*,*,#317,.T.);
#399=ORIENTED_EDGE('',*,*,#299,.T.);
#400=ORIENTED_EDGE('',*,*,#295,.T.);
#401=ORIENTED_EDGE('',*,*,#318,.F.);
#402=ORIENTED_EDGE('',*,*,#319,.T.);
#403=ORIENTED_EDGE('',*,*,#320,.T.);
#404=ORIENTED_EDGE('',*,*,#321,.T.);
#405=ORIENTED_EDGE('',*,*,#322,.T.);
#406=ORIENTED_EDGE('',*,*,#323,.T.);
#407=ORIENTED_EDGE('',*,*,#316,.F.);
#408=ORIENTED_EDGE('',*,*,#324,.T.);
#409=ORIENTED_EDGE('',*,*,#325,.T.);
#410=ORIENTED_EDGE('',*,*,#326,.T.);
#411=ORIENTED_EDGE('',*,*,#327,.T.);
#412=ORIENTED_EDGE('',*,*,#328,.T.);
#413=ORIENTED_EDGE('',*,*,#329,.T.);
#414=ORIENTED_EDGE('',*,*,#330,.T.);
#415=ORIENTED_EDGE('',*,*,#331,.T.);
#416=ORIENTED_EDGE('',*,*,#332,.T.);
#417=ORIENTED_EDGE('',*,*,#333,.T.);
#418=ORIENTED_EDGE('',*,*,#292,.T.);
#419=ORIENTED_EDGE('',*,*,#289,.T.);
#420=ORIENTED_EDGE('',*,*,#286,.T.);
#421=ORIENTED_EDGE('',*,*,#283,.T.);
#422=ORIENTED_EDGE('',*,*,#280,.T.);
#423=ORIENTED_EDGE('',*,*,#298,.T.);
#424=ORIENTED_EDGE('',*,*,#305,.T.);
#425=ORIENTED_EDGE('',*,*,#334,.T.);
#426=ORIENTED_EDGE('',*,*,#318,.T.);
#427=ORIENTED_EDGE('',*,*,#324,.F.);
#428=ORIENTED_EDGE('',*,*,#335,.T.);
#429=ORIENTED_EDGE('',*,*,#306,.F.);
#430=ORIENTED_EDGE('',*,*,#335,.F.);
#431=ORIENTED_EDGE('',*,*,#333,.F.);
#432=ORIENTED_EDGE('',*,*,#336,.T.);
#433=ORIENTED_EDGE('',*,*,#315,.F.);
#434=ORIENTED_EDGE('',*,*,#336,.F.);
#435=ORIENTED_EDGE('',*,*,#325,.F.);
#436=ORIENTED_EDGE('',*,*,#337,.T.);
#437=ORIENTED_EDGE('',*,*,#307,.F.);
#438=ORIENTED_EDGE('',*,*,#337,.F.);
#439=ORIENTED_EDGE('',*,*,#326,.F.);
#440=ORIENTED_EDGE('',*,*,#338,.T.);
#441=ORIENTED_EDGE('',*,*,#308,.F.);
#442=ORIENTED_EDGE('',*,*,#338,.F.);
#443=ORIENTED_EDGE('',*,*,#327,.F.);
#444=ORIENTED_EDGE('',*,*,#339,.T.);
#445=ORIENTED_EDGE('',*,*,#309,.F.);
#446=ORIENTED_EDGE('',*,*,#339,.F.);
#447=ORIENTED_EDGE('',*,*,#328,.F.);
#448=ORIENTED_EDGE('',*,*,#340,.T.);
#449=ORIENTED_EDGE('',*,*,#310,.F.);
#450=ORIENTED_EDGE('',*,*,#340,.F.);
#451=ORIENTED_EDGE('',*,*,#329,.F.);
#452=ORIENTED_EDGE('',*,*,#341,.T.);
#453=ORIENTED_EDGE('',*,*,#311,.F.);
#454=ORIENTED_EDGE('',*,*,#341,.F.);
#455=ORIENTED_EDGE('',*,*,#330,.F.);
#456=ORIENTED_EDGE('',*,*,#342,.T.);
#457=ORIENTED_EDGE('',*,*,#312,.F.);
#458=ORIENTED_EDGE('',*,*,#342,.F.);
#459=ORIENTED_EDGE('',*,*,#331,.F.);
#460=ORIENTED_EDGE('',*,*,#343,.T.);
#461=ORIENTED_EDGE('',*,*,#313,.F.);
#462=ORIENTED_EDGE('',*,*,#343,.F.);
#463=ORIENTED_EDGE('',*,*,#332,.F.);
#464=ORIENTED_EDGE('',*,*,#344,.T.);
#465=ORIENTED_EDGE('',*,*,#314,.F.);
#466=ORIENTED_EDGE('',*,*,#344,.F.);
#467=ORIENTED_EDGE('',*,*,#317,.F.);
#468=ORIENTED_EDGE('',*,*,#323,.F.);
#469=ORIENTED_EDGE('',*,*,#345,.F.);
#470=ORIENTED_EDGE('',*,*,#300,.F.);
#471=ORIENTED_EDGE('',*,*,#346,.F.);
#472=ORIENTED_EDGE('',*,*,#301,.F.);
#473=ORIENTED_EDGE('',*,*,#345,.T.);
#474=ORIENTED_EDGE('',*,*,#322,.F.);
#475=ORIENTED_EDGE('',*,*,#347,.F.);
#476=ORIENTED_EDGE('',*,*,#303,.F.);
#477=ORIENTED_EDGE('',*,*,#348,.T.);
#478=ORIENTED_EDGE('',*,*,#320,.F.);
#479=ORIENTED_EDGE('',*,*,#346,.T.);
#480=ORIENTED_EDGE('',*,*,#321,.F.);
#481=ORIENTED_EDGE('',*,*,#348,.F.);
#482=ORIENTED_EDGE('',*,*,#302,.F.);
#483=ORIENTED_EDGE('',*,*,#334,.F.);
#484=ORIENTED_EDGE('',*,*,#304,.F.);
#485=ORIENTED_EDGE('',*,*,#347,.T.);
#486=ORIENTED_EDGE('',*,*,#319,.F.);
#487=CYLINDRICAL_SURFACE('',#544,7.5);
#488=CYLINDRICAL_SURFACE('',#547,7.5);
#489=CYLINDRICAL_SURFACE('',#550,2.25);
#490=CYLINDRICAL_SURFACE('',#553,2.25);
#491=CYLINDRICAL_SURFACE('',#556,7.5);
#492=CYLINDRICAL_SURFACE('',#559,41.5);
#493=CYLINDRICAL_SURFACE('',#590,2.7);
#494=CYLINDRICAL_SURFACE('',#591,2.7);
#495=CYLINDRICAL_SURFACE('',#592,2.7);
#496=CYLINDRICAL_SURFACE('',#593,2.7);
#497=CYLINDRICAL_SURFACE('',#594,2.7);
#498=CYLINDRICAL_SURFACE('',#595,2.7);
#499=CYLINDRICAL_SURFACE('',#596,3.25);
#500=CYLINDRICAL_SURFACE('',#597,3.25);
#501=CYLINDRICAL_SURFACE('',#598,4.3);
#502=CYLINDRICAL_SURFACE('',#599,4.3);
#503=CYLINDRICAL_SURFACE('',#601,26.);
#504=CYLINDRICAL_SURFACE('',#602,26.);
#505=ADVANCED_FACE('',(#52),#487,.F.);
#506=ADVANCED_FACE('',(#53),#488,.F.);
#507=ADVANCED_FACE('',(#54),#489,.F.);
#508=ADVANCED_FACE('',(#55),#490,.F.);
#509=ADVANCED_FACE('',(#56),#491,.F.);
#510=ADVANCED_FACE('',(#57),#492,.F.);
#511=ADVANCED_FACE('',(#58,#15,#16,#17,#18,#19,#20,#21,#22,#23,#24,#25,
#26,#27,#28,#29),#45,.T.);
#512=ADVANCED_FACE('',(#59),#46,.F.);
#513=ADVANCED_FACE('',(#60,#30,#31,#32,#33,#34,#35,#36,#37,#38,#39,#40,
#41,#42,#43,#44),#47,.F.);
#514=ADVANCED_FACE('',(#61),#48,.F.);
#515=ADVANCED_FACE('',(#62),#493,.F.);
#516=ADVANCED_FACE('',(#63),#494,.F.);
#517=ADVANCED_FACE('',(#64),#495,.F.);
#518=ADVANCED_FACE('',(#65),#496,.F.);
#519=ADVANCED_FACE('',(#66),#497,.F.);
#520=ADVANCED_FACE('',(#67),#498,.F.);
#521=ADVANCED_FACE('',(#68),#499,.F.);
#522=ADVANCED_FACE('',(#69),#500,.F.);
#523=ADVANCED_FACE('',(#70),#501,.F.);
#524=ADVANCED_FACE('',(#71),#502,.F.);
#525=ADVANCED_FACE('',(#72),#49,.F.);
#526=ADVANCED_FACE('',(#73),#503,.T.);
#527=ADVANCED_FACE('',(#74),#504,.T.);
#528=ADVANCED_FACE('',(#75),#50,.F.);
#529=ADVANCED_FACE('',(#76),#51,.F.);
#530=CLOSED_SHELL('',(#505,#506,#507,#508,#509,#510,#511,#512,#513,#514,
#515,#516,#517,#518,#519,#520,#521,#522,#523,#524,#525,#526,#527,#528,#529));
#531=DERIVED_UNIT_ELEMENT(#533,1.);
#532=DERIVED_UNIT_ELEMENT(#908,-3.);
#533=(
MASS_UNIT()
NAMED_UNIT(*)
SI_UNIT(.KILO.,.GRAM.)
);
#534=DERIVED_UNIT((#531,#532));
#535=MEASURE_REPRESENTATION_ITEM('density measure',
POSITIVE_RATIO_MEASURE(7850.),#534);
#536=PROPERTY_DEFINITION_REPRESENTATION(#541,#538);
#537=PROPERTY_DEFINITION_REPRESENTATION(#542,#539);
#538=REPRESENTATION('material name',(#540),#905);
#539=REPRESENTATION('density',(#535),#905);
#540=DESCRIPTIVE_REPRESENTATION_ITEM('Steel','Steel');
#541=PROPERTY_DEFINITION('material property','material name',#915);
#542=PROPERTY_DEFINITION('material property','density of part',#915);
#543=AXIS2_PLACEMENT_3D('',#762,#605,#606);
#544=AXIS2_PLACEMENT_3D('',#763,#607,#608);
#545=AXIS2_PLACEMENT_3D('',#765,#609,#610);
#546=AXIS2_PLACEMENT_3D('',#768,#612,#613);
#547=AXIS2_PLACEMENT_3D('',#769,#614,#615);
#548=AXIS2_PLACEMENT_3D('',#771,#616,#617);
#549=AXIS2_PLACEMENT_3D('',#774,#619,#620);
#550=AXIS2_PLACEMENT_3D('',#775,#621,#622);
#551=AXIS2_PLACEMENT_3D('',#777,#623,#624);
#552=AXIS2_PLACEMENT_3D('',#780,#626,#627);
#553=AXIS2_PLACEMENT_3D('',#781,#628,#629);
#554=AXIS2_PLACEMENT_3D('',#783,#630,#631);
#555=AXIS2_PLACEMENT_3D('',#786,#633,#634);
#556=AXIS2_PLACEMENT_3D('',#787,#635,#636);
#557=AXIS2_PLACEMENT_3D('',#789,#637,#638);
#558=AXIS2_PLACEMENT_3D('',#792,#640,#641);
#559=AXIS2_PLACEMENT_3D('',#793,#642,#643);
#560=AXIS2_PLACEMENT_3D('',#796,#644,#645);
#561=AXIS2_PLACEMENT_3D('',#800,#647,#648);
#562=AXIS2_PLACEMENT_3D('',#802,#650,#651);
#563=AXIS2_PLACEMENT_3D('',#808,#654,#655);
#564=AXIS2_PLACEMENT_3D('',#812,#657,#658);
#565=AXIS2_PLACEMENT_3D('',#817,#661,#662);
#566=AXIS2_PLACEMENT_3D('',#819,#663,#664);
#567=AXIS2_PLACEMENT_3D('',#821,#665,#666);
#568=AXIS2_PLACEMENT_3D('',#823,#667,#668);
#569=AXIS2_PLACEMENT_3D('',#825,#669,#670);
#570=AXIS2_PLACEMENT_3D('',#827,#671,#672);
#571=AXIS2_PLACEMENT_3D('',#829,#673,#674);
#572=AXIS2_PLACEMENT_3D('',#831,#675,#676);
#573=AXIS2_PLACEMENT_3D('',#833,#677,#678);
#574=AXIS2_PLACEMENT_3D('',#835,#679,#680);
#575=AXIS2_PLACEMENT_3D('',#836,#681,#682);
#576=AXIS2_PLACEMENT_3D('',#840,#685,#686);
#577=AXIS2_PLACEMENT_3D('',#846,#689,#690);
#578=AXIS2_PLACEMENT_3D('',#850,#692,#693);
#579=AXIS2_PLACEMENT_3D('',#853,#695,#696);
#580=AXIS2_PLACEMENT_3D('',#855,#697,#698);
#581=AXIS2_PLACEMENT_3D('',#857,#699,#700);
#582=AXIS2_PLACEMENT_3D('',#859,#701,#702);
#583=AXIS2_PLACEMENT_3D('',#861,#703,#704);
#584=AXIS2_PLACEMENT_3D('',#863,#705,#706);
#585=AXIS2_PLACEMENT_3D('',#865,#707,#708);
#586=AXIS2_PLACEMENT_3D('',#867,#709,#710);
#587=AXIS2_PLACEMENT_3D('',#869,#711,#712);
#588=AXIS2_PLACEMENT_3D('',#871,#713,#714);
#589=AXIS2_PLACEMENT_3D('',#872,#715,#716);
#590=AXIS2_PLACEMENT_3D('',#874,#718,#719);
#591=AXIS2_PLACEMENT_3D('',#876,#721,#722);
#592=AXIS2_PLACEMENT_3D('',#878,#724,#725);
#593=AXIS2_PLACEMENT_3D('',#880,#727,#728);
#594=AXIS2_PLACEMENT_3D('',#882,#730,#731);
#595=AXIS2_PLACEMENT_3D('',#884,#733,#734);
#596=AXIS2_PLACEMENT_3D('',#886,#736,#737);
#597=AXIS2_PLACEMENT_3D('',#888,#739,#740);
#598=AXIS2_PLACEMENT_3D('',#890,#742,#743);
#599=AXIS2_PLACEMENT_3D('',#892,#745,#746);
#600=AXIS2_PLACEMENT_3D('',#894,#748,#749);
#601=AXIS2_PLACEMENT_3D('',#896,#751,#752);
#602=AXIS2_PLACEMENT_3D('',#898,#754,#755);
#603=AXIS2_PLACEMENT_3D('',#901,#758,#759);
#604=AXIS2_PLACEMENT_3D('',#902,#760,#761);
#605=DIRECTION('axis',(0.,0.,1.));
#606=DIRECTION('refdir',(1.,0.,0.));
#607=DIRECTION('center_axis',(0.,0.,1.));
#608=DIRECTION('ref_axis',(1.,0.,0.));
#609=DIRECTION('center_axis',(0.,0.,1.));
#610=DIRECTION('ref_axis',(1.,0.,0.));
#611=DIRECTION('',(0.,0.,1.));
#612=DIRECTION('center_axis',(0.,0.,-1.));
#613=DIRECTION('ref_axis',(1.,0.,0.));
#614=DIRECTION('center_axis',(0.,0.,1.));
#615=DIRECTION('ref_axis',(1.,0.,0.));
#616=DIRECTION('center_axis',(0.,0.,1.));
#617=DIRECTION('ref_axis',(1.,0.,0.));
#618=DIRECTION('',(0.,0.,1.));
#619=DIRECTION('center_axis',(0.,0.,-1.));
#620=DIRECTION('ref_axis',(1.,0.,0.));
#621=DIRECTION('center_axis',(0.,0.,1.));
#622=DIRECTION('ref_axis',(1.,0.,0.));
#623=DIRECTION('center_axis',(0.,0.,1.));
#624=DIRECTION('ref_axis',(1.,0.,0.));
#625=DIRECTION('',(0.,0.,1.));
#626=DIRECTION('center_axis',(0.,0.,-1.));
#627=DIRECTION('ref_axis',(1.,0.,0.));
#628=DIRECTION('center_axis',(0.,0.,1.));
#629=DIRECTION('ref_axis',(1.,0.,0.));
#630=DIRECTION('center_axis',(0.,0.,1.));
#631=DIRECTION('ref_axis',(1.,0.,0.));
#632=DIRECTION('',(0.,0.,1.));
#633=DIRECTION('center_axis',(0.,0.,-1.));
#634=DIRECTION('ref_axis',(1.,0.,0.));
#635=DIRECTION('center_axis',(0.,0.,1.));
#636=DIRECTION('ref_axis',(1.,0.,0.));
#637=DIRECTION('center_axis',(0.,0.,1.));
#638=DIRECTION('ref_axis',(1.,0.,0.));
#639=DIRECTION('',(0.,0.,1.));
#640=DIRECTION('center_axis',(0.,0.,-1.));
#641=DIRECTION('ref_axis',(1.,0.,0.));
#642=DIRECTION('center_axis',(0.,0.,1.));
#643=DIRECTION('ref_axis',(-1.,1.22464679914735E-16,0.));
#644=DIRECTION('center_axis',(0.,0.,1.));
#645=DIRECTION('ref_axis',(1.,0.,0.));
#646=DIRECTION('',(0.,0.,-1.));
#647=DIRECTION('center_axis',(0.,0.,-1.));
#648=DIRECTION('ref_axis',(1.,0.,0.));
#649=DIRECTION('',(0.,0.,1.));
#650=DIRECTION('center_axis',(0.,0.,1.));
#651=DIRECTION('ref_axis',(1.,0.,0.));
#652=DIRECTION('',(0.,-1.,0.));
#653=DIRECTION('',(-1.,0.,0.));
#654=DIRECTION('center_axis',(0.,0.,1.));
#655=DIRECTION('ref_axis',(1.,0.,0.));
#656=DIRECTION('',(0.,-1.,0.));
#657=DIRECTION('center_axis',(0.,0.,1.));
#658=DIRECTION('ref_axis',(1.,0.,0.));
#659=DIRECTION('',(1.,0.,0.));
#660=DIRECTION('',(0.,-1.,0.));
#661=DIRECTION('center_axis',(0.,0.,-1.));
#662=DIRECTION('ref_axis',(1.,0.,0.));
#663=DIRECTION('center_axis',(0.,0.,-1.));
#664=DIRECTION('ref_axis',(1.,0.,0.));
#665=DIRECTION('center_axis',(0.,0.,-1.));
#666=DIRECTION('ref_axis',(1.,0.,0.));
#667=DIRECTION('center_axis',(0.,0.,-1.));
#668=DIRECTION('ref_axis',(1.,0.,0.));
#669=DIRECTION('center_axis',(0.,0.,-1.));
#670=DIRECTION('ref_axis',(1.,0.,0.));
#671=DIRECTION('center_axis',(0.,0.,-1.));
#672=DIRECTION('ref_axis',(1.,0.,0.));
#673=DIRECTION('center_axis',(0.,0.,-1.));
#674=DIRECTION('ref_axis',(1.,0.,0.));
#675=DIRECTION('center_axis',(0.,0.,-1.));
#676=DIRECTION('ref_axis',(1.,0.,0.));
#677=DIRECTION('center_axis',(0.,0.,-1.));
#678=DIRECTION('ref_axis',(1.,0.,0.));
#679=DIRECTION('center_axis',(0.,0.,-1.));
#680=DIRECTION('ref_axis',(1.,0.,0.));
#681=DIRECTION('center_axis',(-1.,0.,0.));
#682=DIRECTION('ref_axis',(0.,0.,1.));
#683=DIRECTION('',(0.,1.,0.));
#684=DIRECTION('',(0.,0.,1.));
#685=DIRECTION('center_axis',(0.,0.,1.));
#686=DIRECTION('ref_axis',(1.,0.,0.));
#687=DIRECTION('',(0.,1.,0.));
#688=DIRECTION('',(-1.,0.,0.));
#689=DIRECTION('center_axis',(0.,0.,-1.));
#690=DIRECTION('ref_axis',(1.,0.,0.));
#691=DIRECTION('',(0.,1.,0.));
#692=DIRECTION('center_axis',(0.,0.,-1.));
#693=DIRECTION('ref_axis',(1.,0.,0.));
#694=DIRECTION('',(1.,0.,0.));
#695=DIRECTION('center_axis',(0.,0.,1.));
#696=DIRECTION('ref_axis',(1.,0.,0.));
#697=DIRECTION('center_axis',(0.,0.,1.));
#698=DIRECTION('ref_axis',(1.,0.,0.));
#699=DIRECTION('center_axis',(0.,0.,1.));
#700=DIRECTION('ref_axis',(1.,0.,0.));
#701=DIRECTION('center_axis',(0.,0.,1.));
#702=DIRECTION('ref_axis',(1.,0.,0.));
#703=DIRECTION('center_axis',(0.,0.,1.));
#704=DIRECTION('ref_axis',(1.,0.,0.));
#705=DIRECTION('center_axis',(0.,0.,1.));
#706=DIRECTION('ref_axis',(1.,0.,0.));
#707=DIRECTION('center_axis',(0.,0.,1.));
#708=DIRECTION('ref_axis',(1.,0.,0.));
#709=DIRECTION('center_axis',(0.,0.,1.));
#710=DIRECTION('ref_axis',(1.,0.,0.));
#711=DIRECTION('center_axis',(0.,0.,1.));
#712=DIRECTION('ref_axis',(1.,0.,0.));
#713=DIRECTION('center_axis',(0.,0.,1.));
#714=DIRECTION('ref_axis',(1.,0.,0.));
#715=DIRECTION('center_axis',(-1.,0.,0.));
#716=DIRECTION('ref_axis',(0.,0.,1.));
#717=DIRECTION('',(0.,0.,-1.));
#718=DIRECTION('center_axis',(0.,0.,1.));
#719=DIRECTION('ref_axis',(1.,0.,0.));
#720=DIRECTION('',(0.,0.,1.));
#721=DIRECTION('center_axis',(0.,0.,1.));
#722=DIRECTION('ref_axis',(1.,0.,0.));
#723=DIRECTION('',(0.,0.,1.));
#724=DIRECTION('center_axis',(0.,0.,1.));
#725=DIRECTION('ref_axis',(1.,0.,0.));
#726=DIRECTION('',(0.,0.,1.));
#727=DIRECTION('center_axis',(0.,0.,1.));
#728=DIRECTION('ref_axis',(1.,0.,0.));
#729=DIRECTION('',(0.,0.,1.));
#730=DIRECTION('center_axis',(0.,0.,1.));
#731=DIRECTION('ref_axis',(1.,0.,0.));
#732=DIRECTION('',(0.,0.,1.));
#733=DIRECTION('center_axis',(0.,0.,1.));
#734=DIRECTION('ref_axis',(1.,0.,0.));
#735=DIRECTION('',(0.,0.,1.));
#736=DIRECTION('center_axis',(0.,0.,1.));
#737=DIRECTION('ref_axis',(1.,0.,0.));
#738=DIRECTION('',(0.,0.,1.));
#739=DIRECTION('center_axis',(0.,0.,1.));
#740=DIRECTION('ref_axis',(1.,0.,0.));
#741=DIRECTION('',(0.,0.,1.));
#742=DIRECTION('center_axis',(0.,0.,1.));
#743=DIRECTION('ref_axis',(1.,0.,0.));
#744=DIRECTION('',(0.,0.,1.));
#745=DIRECTION('center_axis',(0.,0.,1.));
#746=DIRECTION('ref_axis',(1.,0.,0.));
#747=DIRECTION('',(0.,0.,1.));
#748=DIRECTION('center_axis',(0.,-1.,0.));
#749=DIRECTION('ref_axis',(0.,0.,-1.));
#750=DIRECTION('',(0.,0.,-1.));
#751=DIRECTION('center_axis',(0.,0.,1.));
#752=DIRECTION('ref_axis',(1.,0.,0.));
#753=DIRECTION('',(0.,0.,-1.));
#754=DIRECTION('center_axis',(0.,0.,1.));
#755=DIRECTION('ref_axis',(1.,0.,0.));
#756=DIRECTION('',(0.,0.,-1.));
#757=DIRECTION('',(0.,0.,-1.));
#758=DIRECTION('center_axis',(1.,0.,0.));
#759=DIRECTION('ref_axis',(0.,0.,-1.));
#760=DIRECTION('center_axis',(0.,1.,0.));
#761=DIRECTION('ref_axis',(0.,0.,1.));
#762=CARTESIAN_POINT('',(0.,0.,0.));
#763=CARTESIAN_POINT('Origin',(-30.,-51.9615242270663,6.));
#764=CARTESIAN_POINT('',(-37.5,-51.9615242270663,0.));
#765=CARTESIAN_POINT('Origin',(-30.,-51.9615242270663,0.));
#766=CARTESIAN_POINT('',(-37.5,-51.9615242270663,12.));
#767=CARTESIAN_POINT('',(-37.5,-51.9615242270663,6.));
#768=CARTESIAN_POINT('Origin',(-30.,-51.9615242270663,12.));
#769=CARTESIAN_POINT('Origin',(-30.,51.9615242270663,6.));
#770=CARTESIAN_POINT('',(-37.5,51.9615242270663,0.));
#771=CARTESIAN_POINT('Origin',(-30.,51.9615242270663,0.));
#772=CARTESIAN_POINT('',(-37.5,51.9615242270663,12.));
#773=CARTESIAN_POINT('',(-37.5,51.9615242270663,6.));
#774=CARTESIAN_POINT('Origin',(-30.,51.9615242270663,12.));
#775=CARTESIAN_POINT('Origin',(-58.,58.,6.));
#776=CARTESIAN_POINT('',(-60.25,58.,0.));
#777=CARTESIAN_POINT('Origin',(-58.,58.,0.));
#778=CARTESIAN_POINT('',(-60.25,58.,12.));
#779=CARTESIAN_POINT('',(-60.25,58.,6.));
#780=CARTESIAN_POINT('Origin',(-58.,58.,12.));
#781=CARTESIAN_POINT('Origin',(-58.,-58.,6.));
#782=CARTESIAN_POINT('',(-60.25,-58.,0.));
#783=CARTESIAN_POINT('Origin',(-58.,-58.,0.));
#784=CARTESIAN_POINT('',(-60.25,-58.,12.));
#785=CARTESIAN_POINT('',(-60.25,-58.,6.));
#786=CARTESIAN_POINT('Origin',(-58.,-58.,12.));
#787=CARTESIAN_POINT('Origin',(-60.,7.34788079488412E-15,6.));
#788=CARTESIAN_POINT('',(-67.5,6.4293956955236E-15,0.));
#789=CARTESIAN_POINT('Origin',(-60.,7.34788079488412E-15,0.));
#790=CARTESIAN_POINT('',(-67.5,8.26636589424464E-15,12.));
#791=CARTESIAN_POINT('',(-67.5,6.4293956955236E-15,6.));
#792=CARTESIAN_POINT('Origin',(-60.,7.34788079488412E-15,12.));
#793=CARTESIAN_POINT('Origin',(0.,0.,6.));
#794=CARTESIAN_POINT('',(0.,41.5,0.));
#795=CARTESIAN_POINT('',(0.,-41.5,0.));
#796=CARTESIAN_POINT('Origin',(0.,0.,0.));
#797=CARTESIAN_POINT('',(0.,41.5,12.));
#798=CARTESIAN_POINT('',(0.,41.5,6.));
#799=CARTESIAN_POINT('',(0.,-41.5,12.));
#800=CARTESIAN_POINT('Origin',(0.,0.,12.));
#801=CARTESIAN_POINT('',(0.,-41.5,6.));
#802=CARTESIAN_POINT('Origin',(0.,0.,12.));
#803=CARTESIAN_POINT('',(0.,107.,12.));
#804=CARTESIAN_POINT('',(0.,0.,12.));
#805=CARTESIAN_POINT('',(-90.,107.,12.));
#806=CARTESIAN_POINT('',(0.,107.,12.));
#807=CARTESIAN_POINT('',(-116.,81.,12.));
#808=CARTESIAN_POINT('Origin',(-90.,81.,12.));
#809=CARTESIAN_POINT('',(-116.,-81.,12.));
#810=CARTESIAN_POINT('',(-116.,0.,12.));
#811=CARTESIAN_POINT('',(-90.,-107.,12.));
#812=CARTESIAN_POINT('Origin',(-90.,-81.,12.));
#813=CARTESIAN_POINT('',(0.,-107.,12.));
#814=CARTESIAN_POINT('',(0.,-107.,12.));
#815=CARTESIAN_POINT('',(0.,0.,12.));
#816=CARTESIAN_POINT('',(-14.7,60.,12.));
#817=CARTESIAN_POINT('Origin',(-12.,60.,12.));
#818=CARTESIAN_POINT('',(-94.7,88.,12.));
#819=CARTESIAN_POINT('Origin',(-92.,88.,12.));
#820=CARTESIAN_POINT('',(-84.7,88.,12.));
#821=CARTESIAN_POINT('Origin',(-82.,88.,12.));
#822=CARTESIAN_POINT('',(-94.7,-88.,12.));
#823=CARTESIAN_POINT('Origin',(-92.,-88.,12.));
#824=CARTESIAN_POINT('',(-84.7,-88.,12.));
#825=CARTESIAN_POINT('Origin',(-82.,-88.,12.));
#826=CARTESIAN_POINT('',(-39.25,92.,12.));
#827=CARTESIAN_POINT('Origin',(-36.,92.,12.));
#828=CARTESIAN_POINT('',(-39.25,-92.,12.));
#829=CARTESIAN_POINT('Origin',(-36.,-92.,12.));
#830=CARTESIAN_POINT('',(-96.3,78.,12.));
#831=CARTESIAN_POINT('Origin',(-92.,78.,12.));
#832=CARTESIAN_POINT('',(-96.3,-78.,12.));
#833=CARTESIAN_POINT('Origin',(-92.,-78.,12.));
#834=CARTESIAN_POINT('',(-14.7,-60.,12.));
#835=CARTESIAN_POINT('Origin',(-12.,-60.,12.));
#836=CARTESIAN_POINT('Origin',(0.,0.,150.));
#837=CARTESIAN_POINT('',(0.,107.,0.));
#838=CARTESIAN_POINT('',(0.,0.,0.));
#839=CARTESIAN_POINT('',(0.,107.,78.));
#840=CARTESIAN_POINT('Origin',(0.,0.,0.));
#841=CARTESIAN_POINT('',(0.,-107.,0.));
#842=CARTESIAN_POINT('',(0.,0.,0.));
#843=CARTESIAN_POINT('',(-90.,-107.,0.));
#844=CARTESIAN_POINT('',(0.,-107.,0.));
#845=CARTESIAN_POINT('',(-116.,-81.,0.));
#846=CARTESIAN_POINT('Origin',(-90.,-81.,0.));
#847=CARTESIAN_POINT('',(-116.,81.,0.));
#848=CARTESIAN_POINT('',(-116.,0.,0.));
#849=CARTESIAN_POINT('',(-90.,107.,0.));
#850=CARTESIAN_POINT('Origin',(-90.,81.,0.));
#851=CARTESIAN_POINT('',(0.,107.,0.));
#852=CARTESIAN_POINT('',(-14.7,60.,0.));
#853=CARTESIAN_POINT('Origin',(-12.,60.,0.));
#854=CARTESIAN_POINT('',(-94.7,88.,0.));
#855=CARTESIAN_POINT('Origin',(-92.,88.,0.));
#856=CARTESIAN_POINT('',(-84.7,88.,0.));
#857=CARTESIAN_POINT('Origin',(-82.,88.,0.));
#858=CARTESIAN_POINT('',(-94.7,-88.,0.));
#859=CARTESIAN_POINT('Origin',(-92.,-88.,0.));
#860=CARTESIAN_POINT('',(-84.7,-88.,0.));
#861=CARTESIAN_POINT('Origin',(-82.,-88.,0.));
#862=CARTESIAN_POINT('',(-39.25,92.,0.));
#863=CARTESIAN_POINT('Origin',(-36.,92.,0.));
#864=CARTESIAN_POINT('',(-39.25,-92.,0.));
#865=CARTESIAN_POINT('Origin',(-36.,-92.,0.));
#866=CARTESIAN_POINT('',(-96.3,78.,0.));
#867=CARTESIAN_POINT('Origin',(-92.,78.,0.));
#868=CARTESIAN_POINT('',(-96.3,-78.,0.));
#869=CARTESIAN_POINT('Origin',(-92.,-78.,0.));
#870=CARTESIAN_POINT('',(-14.7,-60.,0.));
#871=CARTESIAN_POINT('Origin',(-12.,-60.,0.));
#872=CARTESIAN_POINT('Origin',(0.,0.,150.));
#873=CARTESIAN_POINT('',(0.,-107.,78.));
#874=CARTESIAN_POINT('Origin',(-12.,60.,6.5));
#875=CARTESIAN_POINT('',(-14.7,60.,6.5));
#876=CARTESIAN_POINT('Origin',(-12.,-60.,6.5));
#877=CARTESIAN_POINT('',(-14.7,-60.,6.5));
#878=CARTESIAN_POINT('Origin',(-92.,88.,6.5));
#879=CARTESIAN_POINT('',(-94.7,88.,6.5));
#880=CARTESIAN_POINT('Origin',(-82.,88.,6.5));
#881=CARTESIAN_POINT('',(-84.7,88.,6.5));
#882=CARTESIAN_POINT('Origin',(-92.,-88.,6.5));
#883=CARTESIAN_POINT('',(-94.7,-88.,6.5));
#884=CARTESIAN_POINT('Origin',(-82.,-88.,6.5));
#885=CARTESIAN_POINT('',(-84.7,-88.,6.5));
#886=CARTESIAN_POINT('Origin',(-36.,92.,6.));
#887=CARTESIAN_POINT('',(-39.25,92.,6.));
#888=CARTESIAN_POINT('Origin',(-36.,-92.,6.));
#889=CARTESIAN_POINT('',(-39.25,-92.,6.));
#890=CARTESIAN_POINT('Origin',(-92.,78.,6.));
#891=CARTESIAN_POINT('',(-96.3,78.,6.));
#892=CARTESIAN_POINT('Origin',(-92.,-78.,6.));
#893=CARTESIAN_POINT('',(-96.3,-78.,6.));
#894=CARTESIAN_POINT('Origin',(0.,107.,6.));
#895=CARTESIAN_POINT('',(-90.,107.,6.));
#896=CARTESIAN_POINT('Origin',(-90.,81.,6.));
#897=CARTESIAN_POINT('',(-116.,81.,6.));
#898=CARTESIAN_POINT('Origin',(-90.,-81.,6.));
#899=CARTESIAN_POINT('',(-90.,-107.,6.));
#900=CARTESIAN_POINT('',(-116.,-81.,6.));
#901=CARTESIAN_POINT('Origin',(-116.,0.,6.));
#902=CARTESIAN_POINT('Origin',(0.,-107.,6.));
#903=UNCERTAINTY_MEASURE_WITH_UNIT(LENGTH_MEASURE(0.01),#907,
'DISTANCE_ACCURACY_VALUE',
'Maximum model space distance between geometric entities at asserted c
onnectivities');
#904=UNCERTAINTY_MEASURE_WITH_UNIT(LENGTH_MEASURE(0.01),#907,
'DISTANCE_ACCURACY_VALUE',
'Maximum model space distance between geometric entities at asserted c
onnectivities');
#905=(
GEOMETRIC_REPRESENTATION_CONTEXT(3)
GLOBAL_UNCERTAINTY_ASSIGNED_CONTEXT((#903))
GLOBAL_UNIT_ASSIGNED_CONTEXT((#907,#909,#910))
REPRESENTATION_CONTEXT('','3D')
);
#906=(
GEOMETRIC_REPRESENTATION_CONTEXT(3)
GLOBAL_UNCERTAINTY_ASSIGNED_CONTEXT((#904))
GLOBAL_UNIT_ASSIGNED_CONTEXT((#907,#909,#910))
REPRESENTATION_CONTEXT('','3D')
);
#907=(
LENGTH_UNIT()
NAMED_UNIT(*)
SI_UNIT(.MILLI.,.METRE.)
);
#908=(
LENGTH_UNIT()
NAMED_UNIT(*)
SI_UNIT($,.METRE.)
);
#909=(
NAMED_UNIT(*)
PLANE_ANGLE_UNIT()
SI_UNIT($,.RADIAN.)
);
#910=(
NAMED_UNIT(*)
SI_UNIT($,.STERADIAN.)
SOLID_ANGLE_UNIT()
);
#911=SHAPE_DEFINITION_REPRESENTATION(#912,#913);
#912=PRODUCT_DEFINITION_SHAPE('',$,#915);
#913=SHAPE_REPRESENTATION('',(#543),#905);
#914=PRODUCT_DEFINITION_CONTEXT('part definition',#919,'design');
#915=PRODUCT_DEFINITION('2026-08-30-16-33-39-907',
'EXPORT_TMP_PRINT_V010C_P001_BaseFloor_Left_Anchored',#916,#914);
#916=PRODUCT_DEFINITION_FORMATION('',$,#921);
#917=PRODUCT_RELATED_PRODUCT_CATEGORY(
'EXPORT_TMP_PRINT_V010C_P001_BaseFloor_Left_Anchored',
'EXPORT_TMP_PRINT_V010C_P001_BaseFloor_Left_Anchored',(#921));
#918=APPLICATION_PROTOCOL_DEFINITION('international standard',
'automotive_design',2009,#919);
#919=APPLICATION_CONTEXT(
'Core Data for Automotive Mechanical Design Process');
#920=PRODUCT_CONTEXT('part definition',#919,'mechanical');
#921=PRODUCT('2026-08-30-16-33-39-907',
'EXPORT_TMP_PRINT_V010C_P001_BaseFloor_Left_Anchored',$,(#920));
#922=PRESENTATION_STYLE_ASSIGNMENT((#923));
#923=SURFACE_STYLE_USAGE(.BOTH.,#924);
#924=SURFACE_SIDE_STYLE('',(#925));
#925=SURFACE_STYLE_FILL_AREA(#926);
#926=FILL_AREA_STYLE('Steel - Satin',(#927));
#927=FILL_AREA_STYLE_COLOUR('Steel - Satin',#928);
#928=COLOUR_RGB('Steel - Satin',0.627450980392157,0.627450980392157,0.627450980392157);
ENDSEC;
END-ISO-10303-21;
