ISO-10303-21;
HEADER;
/* Generated by software containing ST-Developer
 * from STEP Tools, Inc. (www.steptools.com) 
 */

FILE_DESCRIPTION(
/* description */ (''),
/* implementation_level */ '2;1');

FILE_NAME(
/* name */ 'PRINT_V010C_P013_BaseCornerPost_RL.step',
/* time_stamp */ '2026-08-12T23:06:45+02:00',
/* author */ (''),
/* organization */ (''),
/* preprocessor_version */ 'ST-DEVELOPER v20.1',
/* originating_system */ 'Autodesk Translation Framework v15.8.0.0',
/* authorisation */ '');

FILE_SCHEMA (('AUTOMOTIVE_DESIGN { 1 0 10303 214 3 1 1 }'));
ENDSEC;

DATA;
#10=MECHANICAL_DESIGN_GEOMETRIC_PRESENTATION_REPRESENTATION('',(#13),#826);
#11=SHAPE_REPRESENTATION_RELATIONSHIP('SRR','None',#833,#12);
#12=ADVANCED_BREP_SHAPE_REPRESENTATION('',(#14),#825);
#13=STYLED_ITEM('',(#842),#14);
#14=MANIFOLD_SOLID_BREP('PRINT_V010C_P013_BaseCornerPost_RL',#493);
#15=FACE_BOUND('',#78,.T.);
#16=FACE_BOUND('',#86,.T.);
#17=FACE_BOUND('',#94,.T.);
#18=FACE_BOUND('',#96,.T.);
#19=FACE_BOUND('',#97,.T.);
#20=FACE_BOUND('',#99,.T.);
#21=FACE_BOUND('',#100,.T.);
#22=FACE_BOUND('',#102,.T.);
#23=FACE_BOUND('',#103,.T.);
#24=PLANE('',#513);
#25=PLANE('',#517);
#26=PLANE('',#523);
#27=PLANE('',#524);
#28=PLANE('',#525);
#29=PLANE('',#527);
#30=PLANE('',#531);
#31=PLANE('',#532);
#32=PLANE('',#539);
#33=PLANE('',#540);
#34=PLANE('',#541);
#35=PLANE('',#542);
#36=PLANE('',#543);
#37=PLANE('',#544);
#38=PLANE('',#545);
#39=PLANE('',#546);
#40=PLANE('',#547);
#41=PLANE('',#548);
#42=PLANE('',#549);
#43=FACE_OUTER_BOUND('',#69,.T.);
#44=FACE_OUTER_BOUND('',#70,.T.);
#45=FACE_OUTER_BOUND('',#71,.T.);
#46=FACE_OUTER_BOUND('',#72,.T.);
#47=FACE_OUTER_BOUND('',#73,.T.);
#48=FACE_OUTER_BOUND('',#74,.T.);
#49=FACE_OUTER_BOUND('',#75,.T.);
#50=FACE_OUTER_BOUND('',#76,.T.);
#51=FACE_OUTER_BOUND('',#77,.T.);
#52=FACE_OUTER_BOUND('',#79,.T.);
#53=FACE_OUTER_BOUND('',#80,.T.);
#54=FACE_OUTER_BOUND('',#81,.T.);
#55=FACE_OUTER_BOUND('',#82,.T.);
#56=FACE_OUTER_BOUND('',#83,.T.);
#57=FACE_OUTER_BOUND('',#84,.T.);
#58=FACE_OUTER_BOUND('',#85,.T.);
#59=FACE_OUTER_BOUND('',#87,.T.);
#60=FACE_OUTER_BOUND('',#88,.T.);
#61=FACE_OUTER_BOUND('',#89,.T.);
#62=FACE_OUTER_BOUND('',#90,.T.);
#63=FACE_OUTER_BOUND('',#91,.T.);
#64=FACE_OUTER_BOUND('',#92,.T.);
#65=FACE_OUTER_BOUND('',#93,.T.);
#66=FACE_OUTER_BOUND('',#95,.T.);
#67=FACE_OUTER_BOUND('',#98,.T.);
#68=FACE_OUTER_BOUND('',#101,.T.);
#69=EDGE_LOOP('',(#328,#329,#330,#331));
#70=EDGE_LOOP('',(#332,#333,#334,#335));
#71=EDGE_LOOP('',(#336));
#72=EDGE_LOOP('',(#337,#338,#339,#340));
#73=EDGE_LOOP('',(#341));
#74=EDGE_LOOP('',(#342,#343,#344,#345,#346,#347,#348,#349,#350,#351));
#75=EDGE_LOOP('',(#352));
#76=EDGE_LOOP('',(#353,#354,#355,#356,#357,#358));
#77=EDGE_LOOP('',(#359,#360,#361,#362,#363,#364,#365,#366,#367,#368));
#78=EDGE_LOOP('',(#369));
#79=EDGE_LOOP('',(#370,#371,#372,#373));
#80=EDGE_LOOP('',(#374,#375,#376,#377));
#81=EDGE_LOOP('',(#378));
#82=EDGE_LOOP('',(#379,#380));
#83=EDGE_LOOP('',(#381,#382,#383,#384,#385,#386,#387));
#84=EDGE_LOOP('',(#388,#389,#390,#391));
#85=EDGE_LOOP('',(#392,#393,#394,#395,#396,#397));
#86=EDGE_LOOP('',(#398));
#87=EDGE_LOOP('',(#399,#400,#401,#402));
#88=EDGE_LOOP('',(#403,#404,#405,#406));
#89=EDGE_LOOP('',(#407,#408,#409,#410));
#90=EDGE_LOOP('',(#411,#412,#413,#414,#415,#416));
#91=EDGE_LOOP('',(#417,#418,#419,#420));
#92=EDGE_LOOP('',(#421,#422,#423,#424,#425,#426,#427,#428));
#93=EDGE_LOOP('',(#429,#430,#431,#432,#433,#434,#435,#436,#437,#438));
#94=EDGE_LOOP('',(#439));
#95=EDGE_LOOP('',(#440,#441,#442,#443,#444,#445));
#96=EDGE_LOOP('',(#446));
#97=EDGE_LOOP('',(#447));
#98=EDGE_LOOP('',(#448,#449,#450,#451));
#99=EDGE_LOOP('',(#452));
#100=EDGE_LOOP('',(#453));
#101=EDGE_LOOP('',(#454,#455,#456,#457));
#102=EDGE_LOOP('',(#458));
#103=EDGE_LOOP('',(#459));
#104=LINE('',#692,#153);
#105=LINE('',#698,#154);
#106=LINE('',#705,#155);
#107=LINE('',#712,#156);
#108=LINE('',#716,#157);
#109=LINE('',#720,#158);
#110=LINE('',#722,#159);
#111=LINE('',#726,#160);
#112=LINE('',#728,#161);
#113=LINE('',#730,#162);
#114=LINE('',#732,#163);
#115=LINE('',#733,#164);
#116=LINE('',#736,#165);
#117=LINE('',#738,#166);
#118=LINE('',#740,#167);
#119=LINE('',#742,#168);
#120=LINE('',#744,#169);
#121=LINE('',#746,#170);
#122=LINE('',#748,#171);
#123=LINE('',#749,#172);
#124=LINE('',#754,#173);
#125=LINE('',#755,#174);
#126=LINE('',#760,#175);
#127=LINE('',#768,#176);
#128=LINE('',#772,#177);
#129=LINE('',#776,#178);
#130=LINE('',#778,#179);
#131=LINE('',#780,#180);
#132=LINE('',#781,#181);
#133=LINE('',#784,#182);
#134=LINE('',#785,#183);
#135=LINE('',#788,#184);
#136=LINE('',#790,#185);
#137=LINE('',#791,#186);
#138=LINE('',#793,#187);
#139=LINE('',#796,#188);
#140=LINE('',#798,#189);
#141=LINE('',#799,#190);
#142=LINE('',#803,#191);
#143=LINE('',#805,#192);
#144=LINE('',#807,#193);
#145=LINE('',#808,#194);
#146=LINE('',#810,#195);
#147=LINE('',#811,#196);
#148=LINE('',#814,#197);
#149=LINE('',#815,#198);
#150=LINE('',#818,#199);
#151=LINE('',#819,#200);
#152=LINE('',#821,#201);
#153=VECTOR('',#556,2.6);
#154=VECTOR('',#563,2.1);
#155=VECTOR('',#572,2.1);
#156=VECTOR('',#581,1.7);
#157=VECTOR('',#584,10.);
#158=VECTOR('',#587,1.7);
#159=VECTOR('',#590,10.);
#160=VECTOR('',#595,10.);
#161=VECTOR('',#596,10.);
#162=VECTOR('',#597,10.);
#163=VECTOR('',#598,10.);
#164=VECTOR('',#599,10.);
#165=VECTOR('',#602,10.);
#166=VECTOR('',#603,10.);
#167=VECTOR('',#604,10.);
#168=VECTOR('',#605,10.);
#169=VECTOR('',#606,10.);
#170=VECTOR('',#607,10.);
#171=VECTOR('',#608,10.);
#172=VECTOR('',#609,10.);
#173=VECTOR('',#614,10.);
#174=VECTOR('',#615,10.);
#175=VECTOR('',#620,1.7);
#176=VECTOR('',#633,1.7);
#177=VECTOR('',#638,1.7);
#178=VECTOR('',#643,10.);
#179=VECTOR('',#644,10.);
#180=VECTOR('',#645,10.);
#181=VECTOR('',#646,10.);
#182=VECTOR('',#649,10.);
#183=VECTOR('',#650,10.);
#184=VECTOR('',#653,10.);
#185=VECTOR('',#654,10.);
#186=VECTOR('',#655,10.);
#187=VECTOR('',#658,10.);
#188=VECTOR('',#661,10.);
#189=VECTOR('',#662,10.);
#190=VECTOR('',#663,10.);
#191=VECTOR('',#666,10.);
#192=VECTOR('',#667,10.);
#193=VECTOR('',#668,10.);
#194=VECTOR('',#669,10.);
#195=VECTOR('',#672,10.);
#196=VECTOR('',#673,10.);
#197=VECTOR('',#676,10.);
#198=VECTOR('',#677,10.);
#199=VECTOR('',#680,10.);
#200=VECTOR('',#681,10.);
#201=VECTOR('',#684,10.);
#202=CIRCLE('',#508,2.6);
#203=CIRCLE('',#509,2.6);
#204=CIRCLE('',#511,2.1);
#205=CIRCLE('',#512,2.1);
#206=CIRCLE('',#515,2.1);
#207=CIRCLE('',#516,2.1);
#208=CIRCLE('',#519,1.7);
#209=CIRCLE('',#520,1.7);
#210=CIRCLE('',#521,1.7);
#211=CIRCLE('',#522,1.7);
#212=CIRCLE('',#526,1.7);
#213=CIRCLE('',#529,1.7);
#214=CIRCLE('',#530,1.7);
#215=CIRCLE('',#533,1.7);
#216=CIRCLE('',#535,1.7);
#217=CIRCLE('',#536,1.7);
#218=CIRCLE('',#538,1.7);
#219=VERTEX_POINT('',#689);
#220=VERTEX_POINT('',#691);
#221=VERTEX_POINT('',#695);
#222=VERTEX_POINT('',#697);
#223=VERTEX_POINT('',#702);
#224=VERTEX_POINT('',#704);
#225=VERTEX_POINT('',#709);
#226=VERTEX_POINT('',#711);
#227=VERTEX_POINT('',#713);
#228=VERTEX_POINT('',#715);
#229=VERTEX_POINT('',#717);
#230=VERTEX_POINT('',#719);
#231=VERTEX_POINT('',#725);
#232=VERTEX_POINT('',#727);
#233=VERTEX_POINT('',#729);
#234=VERTEX_POINT('',#731);
#235=VERTEX_POINT('',#735);
#236=VERTEX_POINT('',#737);
#237=VERTEX_POINT('',#739);
#238=VERTEX_POINT('',#741);
#239=VERTEX_POINT('',#743);
#240=VERTEX_POINT('',#745);
#241=VERTEX_POINT('',#747);
#242=VERTEX_POINT('',#750);
#243=VERTEX_POINT('',#753);
#244=VERTEX_POINT('',#757);
#245=VERTEX_POINT('',#759);
#246=VERTEX_POINT('',#767);
#247=VERTEX_POINT('',#771);
#248=VERTEX_POINT('',#775);
#249=VERTEX_POINT('',#777);
#250=VERTEX_POINT('',#779);
#251=VERTEX_POINT('',#783);
#252=VERTEX_POINT('',#787);
#253=VERTEX_POINT('',#789);
#254=VERTEX_POINT('',#795);
#255=VERTEX_POINT('',#797);
#256=VERTEX_POINT('',#801);
#257=VERTEX_POINT('',#802);
#258=VERTEX_POINT('',#804);
#259=VERTEX_POINT('',#806);
#260=VERTEX_POINT('',#813);
#261=VERTEX_POINT('',#817);
#262=EDGE_CURVE('',#219,#219,#202,.T.);
#263=EDGE_CURVE('',#219,#220,#104,.T.);
#264=EDGE_CURVE('',#220,#220,#203,.T.);
#265=EDGE_CURVE('',#221,#221,#204,.T.);
#266=EDGE_CURVE('',#221,#222,#105,.T.);
#267=EDGE_CURVE('',#222,#222,#205,.T.);
#268=EDGE_CURVE('',#223,#223,#206,.T.);
#269=EDGE_CURVE('',#223,#224,#106,.T.);
#270=EDGE_CURVE('',#224,#224,#207,.T.);
#271=EDGE_CURVE('',#225,#225,#208,.T.);
#272=EDGE_CURVE('',#225,#226,#107,.T.);
#273=EDGE_CURVE('',#227,#226,#209,.T.);
#274=EDGE_CURVE('',#228,#227,#108,.T.);
#275=EDGE_CURVE('',#229,#228,#210,.T.);
#276=EDGE_CURVE('',#229,#230,#109,.T.);
#277=EDGE_CURVE('',#230,#230,#211,.T.);
#278=EDGE_CURVE('',#226,#229,#110,.T.);
#279=EDGE_CURVE('',#231,#226,#111,.T.);
#280=EDGE_CURVE('',#232,#231,#112,.T.);
#281=EDGE_CURVE('',#233,#232,#113,.T.);
#282=EDGE_CURVE('',#234,#233,#114,.T.);
#283=EDGE_CURVE('',#227,#234,#115,.T.);
#284=EDGE_CURVE('',#229,#235,#116,.T.);
#285=EDGE_CURVE('',#235,#236,#117,.T.);
#286=EDGE_CURVE('',#236,#237,#118,.T.);
#287=EDGE_CURVE('',#237,#238,#119,.T.);
#288=EDGE_CURVE('',#238,#239,#120,.T.);
#289=EDGE_CURVE('',#240,#239,#121,.T.);
#290=EDGE_CURVE('',#241,#240,#122,.T.);
#291=EDGE_CURVE('',#241,#231,#123,.T.);
#292=EDGE_CURVE('',#242,#242,#212,.T.);
#293=EDGE_CURVE('',#243,#234,#124,.T.);
#294=EDGE_CURVE('',#243,#228,#125,.T.);
#295=EDGE_CURVE('',#244,#244,#213,.T.);
#296=EDGE_CURVE('',#244,#245,#126,.T.);
#297=EDGE_CURVE('',#245,#245,#214,.T.);
#298=EDGE_CURVE('',#237,#236,#215,.T.);
#299=EDGE_CURVE('',#238,#235,#216,.T.);
#300=EDGE_CURVE('',#238,#246,#127,.T.);
#301=EDGE_CURVE('',#246,#246,#217,.T.);
#302=EDGE_CURVE('',#242,#247,#128,.T.);
#303=EDGE_CURVE('',#247,#247,#218,.T.);
#304=EDGE_CURVE('',#248,#241,#129,.T.);
#305=EDGE_CURVE('',#248,#249,#130,.T.);
#306=EDGE_CURVE('',#249,#250,#131,.T.);
#307=EDGE_CURVE('',#250,#232,#132,.T.);
#308=EDGE_CURVE('',#251,#250,#133,.T.);
#309=EDGE_CURVE('',#233,#251,#134,.T.);
#310=EDGE_CURVE('',#252,#248,#135,.T.);
#311=EDGE_CURVE('',#253,#252,#136,.T.);
#312=EDGE_CURVE('',#253,#249,#137,.T.);
#313=EDGE_CURVE('',#251,#253,#138,.T.);
#314=EDGE_CURVE('',#254,#240,#139,.T.);
#315=EDGE_CURVE('',#255,#254,#140,.T.);
#316=EDGE_CURVE('',#252,#255,#141,.T.);
#317=EDGE_CURVE('',#256,#257,#142,.T.);
#318=EDGE_CURVE('',#258,#257,#143,.T.);
#319=EDGE_CURVE('',#259,#258,#144,.T.);
#320=EDGE_CURVE('',#256,#259,#145,.T.);
#321=EDGE_CURVE('',#259,#243,#146,.T.);
#322=EDGE_CURVE('',#239,#258,#147,.T.);
#323=EDGE_CURVE('',#255,#260,#148,.T.);
#324=EDGE_CURVE('',#260,#256,#149,.T.);
#325=EDGE_CURVE('',#261,#254,#150,.T.);
#326=EDGE_CURVE('',#257,#261,#151,.T.);
#327=EDGE_CURVE('',#260,#261,#152,.T.);
#328=ORIENTED_EDGE('',*,*,#262,.F.);
#329=ORIENTED_EDGE('',*,*,#263,.T.);
#330=ORIENTED_EDGE('',*,*,#264,.F.);
#331=ORIENTED_EDGE('',*,*,#263,.F.);
#332=ORIENTED_EDGE('',*,*,#265,.F.);
#333=ORIENTED_EDGE('',*,*,#266,.T.);
#334=ORIENTED_EDGE('',*,*,#267,.T.);
#335=ORIENTED_EDGE('',*,*,#266,.F.);
#336=ORIENTED_EDGE('',*,*,#267,.F.);
#337=ORIENTED_EDGE('',*,*,#268,.F.);
#338=ORIENTED_EDGE('',*,*,#269,.T.);
#339=ORIENTED_EDGE('',*,*,#270,.T.);
#340=ORIENTED_EDGE('',*,*,#269,.F.);
#341=ORIENTED_EDGE('',*,*,#270,.F.);
#342=ORIENTED_EDGE('',*,*,#271,.T.);
#343=ORIENTED_EDGE('',*,*,#272,.T.);
#344=ORIENTED_EDGE('',*,*,#273,.F.);
#345=ORIENTED_EDGE('',*,*,#274,.F.);
#346=ORIENTED_EDGE('',*,*,#275,.F.);
#347=ORIENTED_EDGE('',*,*,#276,.T.);
#348=ORIENTED_EDGE('',*,*,#277,.F.);
#349=ORIENTED_EDGE('',*,*,#276,.F.);
#350=ORIENTED_EDGE('',*,*,#278,.F.);
#351=ORIENTED_EDGE('',*,*,#272,.F.);
#352=ORIENTED_EDGE('',*,*,#271,.F.);
#353=ORIENTED_EDGE('',*,*,#273,.T.);
#354=ORIENTED_EDGE('',*,*,#279,.F.);
#355=ORIENTED_EDGE('',*,*,#280,.F.);
#356=ORIENTED_EDGE('',*,*,#281,.F.);
#357=ORIENTED_EDGE('',*,*,#282,.F.);
#358=ORIENTED_EDGE('',*,*,#283,.F.);
#359=ORIENTED_EDGE('',*,*,#278,.T.);
#360=ORIENTED_EDGE('',*,*,#284,.T.);
#361=ORIENTED_EDGE('',*,*,#285,.T.);
#362=ORIENTED_EDGE('',*,*,#286,.T.);
#363=ORIENTED_EDGE('',*,*,#287,.T.);
#364=ORIENTED_EDGE('',*,*,#288,.T.);
#365=ORIENTED_EDGE('',*,*,#289,.F.);
#366=ORIENTED_EDGE('',*,*,#290,.F.);
#367=ORIENTED_EDGE('',*,*,#291,.T.);
#368=ORIENTED_EDGE('',*,*,#279,.T.);
#369=ORIENTED_EDGE('',*,*,#292,.T.);
#370=ORIENTED_EDGE('',*,*,#274,.T.);
#371=ORIENTED_EDGE('',*,*,#283,.T.);
#372=ORIENTED_EDGE('',*,*,#293,.F.);
#373=ORIENTED_EDGE('',*,*,#294,.T.);
#374=ORIENTED_EDGE('',*,*,#295,.T.);
#375=ORIENTED_EDGE('',*,*,#296,.T.);
#376=ORIENTED_EDGE('',*,*,#297,.F.);
#377=ORIENTED_EDGE('',*,*,#296,.F.);
#378=ORIENTED_EDGE('',*,*,#295,.F.);
#379=ORIENTED_EDGE('',*,*,#286,.F.);
#380=ORIENTED_EDGE('',*,*,#298,.F.);
#381=ORIENTED_EDGE('',*,*,#285,.F.);
#382=ORIENTED_EDGE('',*,*,#299,.F.);
#383=ORIENTED_EDGE('',*,*,#300,.T.);
#384=ORIENTED_EDGE('',*,*,#301,.F.);
#385=ORIENTED_EDGE('',*,*,#300,.F.);
#386=ORIENTED_EDGE('',*,*,#287,.F.);
#387=ORIENTED_EDGE('',*,*,#298,.T.);
#388=ORIENTED_EDGE('',*,*,#292,.F.);
#389=ORIENTED_EDGE('',*,*,#302,.T.);
#390=ORIENTED_EDGE('',*,*,#303,.F.);
#391=ORIENTED_EDGE('',*,*,#302,.F.);
#392=ORIENTED_EDGE('',*,*,#304,.F.);
#393=ORIENTED_EDGE('',*,*,#305,.T.);
#394=ORIENTED_EDGE('',*,*,#306,.T.);
#395=ORIENTED_EDGE('',*,*,#307,.T.);
#396=ORIENTED_EDGE('',*,*,#280,.T.);
#397=ORIENTED_EDGE('',*,*,#291,.F.);
#398=ORIENTED_EDGE('',*,*,#262,.T.);
#399=ORIENTED_EDGE('',*,*,#281,.T.);
#400=ORIENTED_EDGE('',*,*,#307,.F.);
#401=ORIENTED_EDGE('',*,*,#308,.F.);
#402=ORIENTED_EDGE('',*,*,#309,.F.);
#403=ORIENTED_EDGE('',*,*,#310,.F.);
#404=ORIENTED_EDGE('',*,*,#311,.F.);
#405=ORIENTED_EDGE('',*,*,#312,.T.);
#406=ORIENTED_EDGE('',*,*,#305,.F.);
#407=ORIENTED_EDGE('',*,*,#308,.T.);
#408=ORIENTED_EDGE('',*,*,#306,.F.);
#409=ORIENTED_EDGE('',*,*,#312,.F.);
#410=ORIENTED_EDGE('',*,*,#313,.F.);
#411=ORIENTED_EDGE('',*,*,#310,.T.);
#412=ORIENTED_EDGE('',*,*,#304,.T.);
#413=ORIENTED_EDGE('',*,*,#290,.T.);
#414=ORIENTED_EDGE('',*,*,#314,.F.);
#415=ORIENTED_EDGE('',*,*,#315,.F.);
#416=ORIENTED_EDGE('',*,*,#316,.F.);
#417=ORIENTED_EDGE('',*,*,#317,.T.);
#418=ORIENTED_EDGE('',*,*,#318,.F.);
#419=ORIENTED_EDGE('',*,*,#319,.F.);
#420=ORIENTED_EDGE('',*,*,#320,.F.);
#421=ORIENTED_EDGE('',*,*,#275,.T.);
#422=ORIENTED_EDGE('',*,*,#294,.F.);
#423=ORIENTED_EDGE('',*,*,#321,.F.);
#424=ORIENTED_EDGE('',*,*,#319,.T.);
#425=ORIENTED_EDGE('',*,*,#322,.F.);
#426=ORIENTED_EDGE('',*,*,#288,.F.);
#427=ORIENTED_EDGE('',*,*,#299,.T.);
#428=ORIENTED_EDGE('',*,*,#284,.F.);
#429=ORIENTED_EDGE('',*,*,#316,.T.);
#430=ORIENTED_EDGE('',*,*,#323,.T.);
#431=ORIENTED_EDGE('',*,*,#324,.T.);
#432=ORIENTED_EDGE('',*,*,#320,.T.);
#433=ORIENTED_EDGE('',*,*,#321,.T.);
#434=ORIENTED_EDGE('',*,*,#293,.T.);
#435=ORIENTED_EDGE('',*,*,#282,.T.);
#436=ORIENTED_EDGE('',*,*,#309,.T.);
#437=ORIENTED_EDGE('',*,*,#313,.T.);
#438=ORIENTED_EDGE('',*,*,#311,.T.);
#439=ORIENTED_EDGE('',*,*,#264,.T.);
#440=ORIENTED_EDGE('',*,*,#325,.T.);
#441=ORIENTED_EDGE('',*,*,#314,.T.);
#442=ORIENTED_EDGE('',*,*,#289,.T.);
#443=ORIENTED_EDGE('',*,*,#322,.T.);
#444=ORIENTED_EDGE('',*,*,#318,.T.);
#445=ORIENTED_EDGE('',*,*,#326,.T.);
#446=ORIENTED_EDGE('',*,*,#265,.T.);
#447=ORIENTED_EDGE('',*,*,#268,.T.);
#448=ORIENTED_EDGE('',*,*,#327,.T.);
#449=ORIENTED_EDGE('',*,*,#326,.F.);
#450=ORIENTED_EDGE('',*,*,#317,.F.);
#451=ORIENTED_EDGE('',*,*,#324,.F.);
#452=ORIENTED_EDGE('',*,*,#277,.T.);
#453=ORIENTED_EDGE('',*,*,#301,.T.);
#454=ORIENTED_EDGE('',*,*,#323,.F.);
#455=ORIENTED_EDGE('',*,*,#315,.T.);
#456=ORIENTED_EDGE('',*,*,#325,.F.);
#457=ORIENTED_EDGE('',*,*,#327,.F.);
#458=ORIENTED_EDGE('',*,*,#297,.T.);
#459=ORIENTED_EDGE('',*,*,#303,.T.);
#460=CYLINDRICAL_SURFACE('',#507,2.6);
#461=CYLINDRICAL_SURFACE('',#510,2.1);
#462=CYLINDRICAL_SURFACE('',#514,2.1);
#463=CYLINDRICAL_SURFACE('',#518,1.7);
#464=CYLINDRICAL_SURFACE('',#528,1.7);
#465=CYLINDRICAL_SURFACE('',#534,1.7);
#466=CYLINDRICAL_SURFACE('',#537,1.7);
#467=ADVANCED_FACE('',(#43),#460,.F.);
#468=ADVANCED_FACE('',(#44),#461,.F.);
#469=ADVANCED_FACE('',(#45),#24,.F.);
#470=ADVANCED_FACE('',(#46),#462,.F.);
#471=ADVANCED_FACE('',(#47),#25,.F.);
#472=ADVANCED_FACE('',(#48),#463,.F.);
#473=ADVANCED_FACE('',(#49),#26,.F.);
#474=ADVANCED_FACE('',(#50),#27,.F.);
#475=ADVANCED_FACE('',(#51,#15),#28,.F.);
#476=ADVANCED_FACE('',(#52),#29,.F.);
#477=ADVANCED_FACE('',(#53),#464,.F.);
#478=ADVANCED_FACE('',(#54),#30,.F.);
#479=ADVANCED_FACE('',(#55),#31,.F.);
#480=ADVANCED_FACE('',(#56),#465,.F.);
#481=ADVANCED_FACE('',(#57),#466,.F.);
#482=ADVANCED_FACE('',(#58,#16),#32,.F.);
#483=ADVANCED_FACE('',(#59),#33,.F.);
#484=ADVANCED_FACE('',(#60),#34,.F.);
#485=ADVANCED_FACE('',(#61),#35,.F.);
#486=ADVANCED_FACE('',(#62),#36,.F.);
#487=ADVANCED_FACE('',(#63),#37,.F.);
#488=ADVANCED_FACE('',(#64),#38,.F.);
#489=ADVANCED_FACE('',(#65,#17),#39,.T.);
#490=ADVANCED_FACE('',(#66,#18,#19),#40,.F.);
#491=ADVANCED_FACE('',(#67,#20,#21),#41,.F.);
#492=ADVANCED_FACE('',(#68,#22,#23),#42,.F.);
#493=CLOSED_SHELL('',(#467,#468,#469,#470,#471,#472,#473,#474,#475,#476,
#477,#478,#479,#480,#481,#482,#483,#484,#485,#486,#487,#488,#489,#490,#491,
#492));
#494=DERIVED_UNIT_ELEMENT(#496,1.);
#495=DERIVED_UNIT_ELEMENT(#828,-3.);
#496=(
MASS_UNIT()
NAMED_UNIT(*)
SI_UNIT(.KILO.,.GRAM.)
);
#497=DERIVED_UNIT((#494,#495));
#498=MEASURE_REPRESENTATION_ITEM('density measure',
POSITIVE_RATIO_MEASURE(7850.),#497);
#499=PROPERTY_DEFINITION_REPRESENTATION(#504,#501);
#500=PROPERTY_DEFINITION_REPRESENTATION(#505,#502);
#501=REPRESENTATION('material name',(#503),#825);
#502=REPRESENTATION('density',(#498),#825);
#503=DESCRIPTIVE_REPRESENTATION_ITEM('Steel','Steel');
#504=PROPERTY_DEFINITION('material property','material name',#835);
#505=PROPERTY_DEFINITION('material property','density of part',#835);
#506=AXIS2_PLACEMENT_3D('',#687,#550,#551);
#507=AXIS2_PLACEMENT_3D('',#688,#552,#553);
#508=AXIS2_PLACEMENT_3D('',#690,#554,#555);
#509=AXIS2_PLACEMENT_3D('',#693,#557,#558);
#510=AXIS2_PLACEMENT_3D('',#694,#559,#560);
#511=AXIS2_PLACEMENT_3D('',#696,#561,#562);
#512=AXIS2_PLACEMENT_3D('',#699,#564,#565);
#513=AXIS2_PLACEMENT_3D('',#700,#566,#567);
#514=AXIS2_PLACEMENT_3D('',#701,#568,#569);
#515=AXIS2_PLACEMENT_3D('',#703,#570,#571);
#516=AXIS2_PLACEMENT_3D('',#706,#573,#574);
#517=AXIS2_PLACEMENT_3D('',#707,#575,#576);
#518=AXIS2_PLACEMENT_3D('',#708,#577,#578);
#519=AXIS2_PLACEMENT_3D('',#710,#579,#580);
#520=AXIS2_PLACEMENT_3D('',#714,#582,#583);
#521=AXIS2_PLACEMENT_3D('',#718,#585,#586);
#522=AXIS2_PLACEMENT_3D('',#721,#588,#589);
#523=AXIS2_PLACEMENT_3D('',#723,#591,#592);
#524=AXIS2_PLACEMENT_3D('',#724,#593,#594);
#525=AXIS2_PLACEMENT_3D('',#734,#600,#601);
#526=AXIS2_PLACEMENT_3D('',#751,#610,#611);
#527=AXIS2_PLACEMENT_3D('',#752,#612,#613);
#528=AXIS2_PLACEMENT_3D('',#756,#616,#617);
#529=AXIS2_PLACEMENT_3D('',#758,#618,#619);
#530=AXIS2_PLACEMENT_3D('',#761,#621,#622);
#531=AXIS2_PLACEMENT_3D('',#762,#623,#624);
#532=AXIS2_PLACEMENT_3D('',#763,#625,#626);
#533=AXIS2_PLACEMENT_3D('',#764,#627,#628);
#534=AXIS2_PLACEMENT_3D('',#765,#629,#630);
#535=AXIS2_PLACEMENT_3D('',#766,#631,#632);
#536=AXIS2_PLACEMENT_3D('',#769,#634,#635);
#537=AXIS2_PLACEMENT_3D('',#770,#636,#637);
#538=AXIS2_PLACEMENT_3D('',#773,#639,#640);
#539=AXIS2_PLACEMENT_3D('',#774,#641,#642);
#540=AXIS2_PLACEMENT_3D('',#782,#647,#648);
#541=AXIS2_PLACEMENT_3D('',#786,#651,#652);
#542=AXIS2_PLACEMENT_3D('',#792,#656,#657);
#543=AXIS2_PLACEMENT_3D('',#794,#659,#660);
#544=AXIS2_PLACEMENT_3D('',#800,#664,#665);
#545=AXIS2_PLACEMENT_3D('',#809,#670,#671);
#546=AXIS2_PLACEMENT_3D('',#812,#674,#675);
#547=AXIS2_PLACEMENT_3D('',#816,#678,#679);
#548=AXIS2_PLACEMENT_3D('',#820,#682,#683);
#549=AXIS2_PLACEMENT_3D('',#822,#685,#686);
#550=DIRECTION('axis',(0.,0.,1.));
#551=DIRECTION('refdir',(1.,0.,0.));
#552=DIRECTION('center_axis',(0.,0.,1.));
#553=DIRECTION('ref_axis',(1.,0.,0.));
#554=DIRECTION('center_axis',(0.,0.,1.));
#555=DIRECTION('ref_axis',(1.,0.,0.));
#556=DIRECTION('',(0.,0.,1.));
#557=DIRECTION('center_axis',(0.,0.,-1.));
#558=DIRECTION('ref_axis',(1.,0.,0.));
#559=DIRECTION('center_axis',(0.,0.,1.));
#560=DIRECTION('ref_axis',(1.,0.,0.));
#561=DIRECTION('center_axis',(0.,0.,1.));
#562=DIRECTION('ref_axis',(1.,0.,0.));
#563=DIRECTION('',(0.,0.,1.));
#564=DIRECTION('center_axis',(0.,0.,1.));
#565=DIRECTION('ref_axis',(1.,0.,0.));
#566=DIRECTION('center_axis',(0.,0.,1.));
#567=DIRECTION('ref_axis',(1.,0.,0.));
#568=DIRECTION('center_axis',(0.,0.,1.));
#569=DIRECTION('ref_axis',(1.,0.,0.));
#570=DIRECTION('center_axis',(0.,0.,1.));
#571=DIRECTION('ref_axis',(1.,0.,0.));
#572=DIRECTION('',(0.,0.,1.));
#573=DIRECTION('center_axis',(0.,0.,1.));
#574=DIRECTION('ref_axis',(1.,0.,0.));
#575=DIRECTION('center_axis',(0.,0.,1.));
#576=DIRECTION('ref_axis',(1.,0.,0.));
#577=DIRECTION('center_axis',(-1.,0.,0.));
#578=DIRECTION('ref_axis',(0.,0.,1.));
#579=DIRECTION('center_axis',(1.,0.,0.));
#580=DIRECTION('ref_axis',(0.,0.,1.));
#581=DIRECTION('',(-1.,0.,0.));
#582=DIRECTION('center_axis',(1.,0.,0.));
#583=DIRECTION('ref_axis',(0.,0.,1.));
#584=DIRECTION('',(1.,0.,0.));
#585=DIRECTION('center_axis',(-1.,0.,0.));
#586=DIRECTION('ref_axis',(0.,0.,1.));
#587=DIRECTION('',(-1.,0.,0.));
#588=DIRECTION('center_axis',(1.,0.,0.));
#589=DIRECTION('ref_axis',(0.,0.,1.));
#590=DIRECTION('',(-1.,0.,0.));
#591=DIRECTION('center_axis',(1.,0.,0.));
#592=DIRECTION('ref_axis',(0.,0.,-1.));
#593=DIRECTION('center_axis',(1.,0.,0.));
#594=DIRECTION('ref_axis',(0.,0.,-1.));
#595=DIRECTION('',(0.,0.,1.));
#596=DIRECTION('',(0.,1.,0.));
#597=DIRECTION('',(0.,0.,-1.));
#598=DIRECTION('',(0.,-1.,0.));
#599=DIRECTION('',(0.,0.,1.));
#600=DIRECTION('center_axis',(0.,1.,0.));
#601=DIRECTION('ref_axis',(0.,0.,1.));
#602=DIRECTION('',(0.,0.,-1.));
#603=DIRECTION('',(1.,0.,0.));
#604=DIRECTION('',(0.,0.,-1.));
#605=DIRECTION('',(-1.,0.,0.));
#606=DIRECTION('',(0.,0.,-1.));
#607=DIRECTION('',(-1.,0.,0.));
#608=DIRECTION('',(0.,0.,-1.));
#609=DIRECTION('',(-1.,0.,0.));
#610=DIRECTION('center_axis',(0.,1.,0.));
#611=DIRECTION('ref_axis',(1.,0.,0.));
#612=DIRECTION('center_axis',(0.,1.,0.));
#613=DIRECTION('ref_axis',(0.,0.,1.));
#614=DIRECTION('',(1.,0.,0.));
#615=DIRECTION('',(0.,0.,-1.));
#616=DIRECTION('center_axis',(0.,1.,0.));
#617=DIRECTION('ref_axis',(1.,0.,0.));
#618=DIRECTION('center_axis',(0.,-1.,0.));
#619=DIRECTION('ref_axis',(1.,0.,0.));
#620=DIRECTION('',(0.,1.,0.));
#621=DIRECTION('center_axis',(0.,-1.,0.));
#622=DIRECTION('ref_axis',(1.,0.,0.));
#623=DIRECTION('center_axis',(0.,-1.,0.));
#624=DIRECTION('ref_axis',(-1.,0.,0.));
#625=DIRECTION('center_axis',(1.,0.,0.));
#626=DIRECTION('ref_axis',(0.,0.,-1.));
#627=DIRECTION('center_axis',(1.,0.,0.));
#628=DIRECTION('ref_axis',(0.,0.,1.));
#629=DIRECTION('center_axis',(-1.,0.,0.));
#630=DIRECTION('ref_axis',(0.,0.,1.));
#631=DIRECTION('center_axis',(-1.,0.,0.));
#632=DIRECTION('ref_axis',(0.,0.,1.));
#633=DIRECTION('',(-1.,0.,0.));
#634=DIRECTION('center_axis',(1.,0.,0.));
#635=DIRECTION('ref_axis',(0.,0.,1.));
#636=DIRECTION('center_axis',(0.,1.,0.));
#637=DIRECTION('ref_axis',(1.,0.,0.));
#638=DIRECTION('',(0.,1.,0.));
#639=DIRECTION('center_axis',(0.,-1.,0.));
#640=DIRECTION('ref_axis',(1.,0.,0.));
#641=DIRECTION('center_axis',(0.,0.,1.));
#642=DIRECTION('ref_axis',(1.,0.,0.));
#643=DIRECTION('',(0.,-1.,0.));
#644=DIRECTION('',(1.,0.,0.));
#645=DIRECTION('',(0.,-1.,0.));
#646=DIRECTION('',(-1.,0.,0.));
#647=DIRECTION('center_axis',(0.,1.,0.));
#648=DIRECTION('ref_axis',(0.,0.,1.));
#649=DIRECTION('',(0.,0.,-1.));
#650=DIRECTION('',(1.,0.,0.));
#651=DIRECTION('center_axis',(0.,-1.,0.));
#652=DIRECTION('ref_axis',(0.,0.,-1.));
#653=DIRECTION('',(0.,0.,-1.));
#654=DIRECTION('',(-1.,0.,0.));
#655=DIRECTION('',(0.,0.,-1.));
#656=DIRECTION('center_axis',(-1.,0.,0.));
#657=DIRECTION('ref_axis',(0.,0.,1.));
#658=DIRECTION('',(0.,1.,0.));
#659=DIRECTION('center_axis',(-1.,0.,0.));
#660=DIRECTION('ref_axis',(0.,0.,1.));
#661=DIRECTION('',(0.,-1.,0.));
#662=DIRECTION('',(0.,0.,-1.));
#663=DIRECTION('',(0.,1.,0.));
#664=DIRECTION('center_axis',(0.,1.,0.));
#665=DIRECTION('ref_axis',(0.,0.,1.));
#666=DIRECTION('',(0.,0.,-1.));
#667=DIRECTION('',(-1.,0.,0.));
#668=DIRECTION('',(0.,0.,-1.));
#669=DIRECTION('',(1.,0.,0.));
#670=DIRECTION('center_axis',(-1.,0.,0.));
#671=DIRECTION('ref_axis',(0.,0.,1.));
#672=DIRECTION('',(0.,1.,0.));
#673=DIRECTION('',(0.,-1.,0.));
#674=DIRECTION('center_axis',(0.,0.,1.));
#675=DIRECTION('ref_axis',(1.,0.,0.));
#676=DIRECTION('',(-1.,0.,0.));
#677=DIRECTION('',(0.,-1.,0.));
#678=DIRECTION('center_axis',(0.,0.,1.));
#679=DIRECTION('ref_axis',(1.,0.,0.));
#680=DIRECTION('',(1.,0.,0.));
#681=DIRECTION('',(0.,1.,0.));
#682=DIRECTION('center_axis',(1.,0.,0.));
#683=DIRECTION('ref_axis',(0.,0.,-1.));
#684=DIRECTION('',(0.,0.,-1.));
#685=DIRECTION('center_axis',(0.,-1.,0.));
#686=DIRECTION('ref_axis',(0.,0.,-1.));
#687=CARTESIAN_POINT('',(0.,0.,0.));
#688=CARTESIAN_POINT('Origin',(-78.,70.,135.5));
#689=CARTESIAN_POINT('',(-80.6,70.,126.));
#690=CARTESIAN_POINT('Origin',(-78.,70.,126.));
#691=CARTESIAN_POINT('',(-80.6,70.,144.));
#692=CARTESIAN_POINT('',(-80.6,70.,135.5));
#693=CARTESIAN_POINT('Origin',(-78.,70.,144.));
#694=CARTESIAN_POINT('Origin',(-92.,88.,16.5));
#695=CARTESIAN_POINT('',(-94.1,88.,12.));
#696=CARTESIAN_POINT('Origin',(-92.,88.,12.));
#697=CARTESIAN_POINT('',(-94.1,88.,25.));
#698=CARTESIAN_POINT('',(-94.1,88.,16.5));
#699=CARTESIAN_POINT('Origin',(-92.,88.,25.));
#700=CARTESIAN_POINT('Origin',(-92.,88.,25.));
#701=CARTESIAN_POINT('Origin',(-82.,88.,16.5));
#702=CARTESIAN_POINT('',(-84.1,88.,12.));
#703=CARTESIAN_POINT('Origin',(-82.,88.,12.));
#704=CARTESIAN_POINT('',(-84.1,88.,25.));
#705=CARTESIAN_POINT('',(-84.1,88.,16.5));
#706=CARTESIAN_POINT('Origin',(-82.,88.,25.));
#707=CARTESIAN_POINT('Origin',(-82.,88.,25.));
#708=CARTESIAN_POINT('Origin',(-96.,82.,139.));
#709=CARTESIAN_POINT('',(-80.,82.,137.3));
#710=CARTESIAN_POINT('Origin',(-80.,82.,139.));
#711=CARTESIAN_POINT('',(-86.,82.,137.3));
#712=CARTESIAN_POINT('',(-96.,82.,137.3));
#713=CARTESIAN_POINT('',(-86.,82.,140.7));
#714=CARTESIAN_POINT('Origin',(-86.,82.,139.));
#715=CARTESIAN_POINT('',(-88.,82.,140.7));
#716=CARTESIAN_POINT('',(-96.,82.,140.7));
#717=CARTESIAN_POINT('',(-88.,82.,137.3));
#718=CARTESIAN_POINT('Origin',(-88.,82.,139.));
#719=CARTESIAN_POINT('',(-100.,82.,137.3));
#720=CARTESIAN_POINT('',(-96.,82.,137.3));
#721=CARTESIAN_POINT('Origin',(-100.,82.,139.));
#722=CARTESIAN_POINT('',(-96.,82.,137.3));
#723=CARTESIAN_POINT('Origin',(-80.,82.,139.));
#724=CARTESIAN_POINT('Origin',(-86.,76.,135.));
#725=CARTESIAN_POINT('',(-86.,82.,126.));
#726=CARTESIAN_POINT('',(-86.,82.,106.5));
#727=CARTESIAN_POINT('',(-86.,64.,126.));
#728=CARTESIAN_POINT('',(-86.,76.,126.));
#729=CARTESIAN_POINT('',(-86.,64.,144.));
#730=CARTESIAN_POINT('',(-86.,64.,135.));
#731=CARTESIAN_POINT('',(-86.,82.,144.));
#732=CARTESIAN_POINT('',(-86.,76.,144.));
#733=CARTESIAN_POINT('',(-86.,82.,106.5));
#734=CARTESIAN_POINT('Origin',(-86.,82.,78.));
#735=CARTESIAN_POINT('',(-88.,82.,26.7));
#736=CARTESIAN_POINT('',(-88.,82.,78.));
#737=CARTESIAN_POINT('',(-80.,82.,26.7));
#738=CARTESIAN_POINT('',(-96.,82.,26.7));
#739=CARTESIAN_POINT('',(-80.,82.,23.3));
#740=CARTESIAN_POINT('',(-80.,82.,51.5));
#741=CARTESIAN_POINT('',(-88.,82.,23.3));
#742=CARTESIAN_POINT('',(-96.,82.,23.3));
#743=CARTESIAN_POINT('',(-88.,82.,12.));
#744=CARTESIAN_POINT('',(-88.,82.,78.));
#745=CARTESIAN_POINT('',(-72.,82.,12.));
#746=CARTESIAN_POINT('',(-86.,82.,12.));
#747=CARTESIAN_POINT('',(-72.,82.,126.));
#748=CARTESIAN_POINT('',(-72.,82.,78.));
#749=CARTESIAN_POINT('',(-82.,82.,126.));
#750=CARTESIAN_POINT('',(-79.7,82.,25.));
#751=CARTESIAN_POINT('Origin',(-78.,82.,25.));
#752=CARTESIAN_POINT('Origin',(-86.,82.,78.));
#753=CARTESIAN_POINT('',(-88.,82.,144.));
#754=CARTESIAN_POINT('',(-86.,82.,144.));
#755=CARTESIAN_POINT('',(-88.,82.,78.));
#756=CARTESIAN_POINT('Origin',(-78.,94.,139.));
#757=CARTESIAN_POINT('',(-79.7,80.,139.));
#758=CARTESIAN_POINT('Origin',(-78.,80.,139.));
#759=CARTESIAN_POINT('',(-79.7,94.,139.));
#760=CARTESIAN_POINT('',(-79.7,94.,139.));
#761=CARTESIAN_POINT('Origin',(-78.,94.,139.));
#762=CARTESIAN_POINT('Origin',(-78.,80.,139.));
#763=CARTESIAN_POINT('Origin',(-80.,82.,25.));
#764=CARTESIAN_POINT('Origin',(-80.,82.,25.));
#765=CARTESIAN_POINT('Origin',(-96.,82.,25.));
#766=CARTESIAN_POINT('Origin',(-88.,82.,25.));
#767=CARTESIAN_POINT('',(-100.,82.,23.3));
#768=CARTESIAN_POINT('',(-96.,82.,23.3));
#769=CARTESIAN_POINT('Origin',(-100.,82.,25.));
#770=CARTESIAN_POINT('Origin',(-78.,94.,25.));
#771=CARTESIAN_POINT('',(-79.7,94.,25.));
#772=CARTESIAN_POINT('',(-79.7,94.,25.));
#773=CARTESIAN_POINT('Origin',(-78.,94.,25.));
#774=CARTESIAN_POINT('Origin',(-78.,76.,126.));
#775=CARTESIAN_POINT('',(-72.,88.,126.));
#776=CARTESIAN_POINT('',(-72.,82.,126.));
#777=CARTESIAN_POINT('',(-70.,88.,126.));
#778=CARTESIAN_POINT('',(-78.,88.,126.));
#779=CARTESIAN_POINT('',(-70.,64.,126.));
#780=CARTESIAN_POINT('',(-70.,76.,126.));
#781=CARTESIAN_POINT('',(-78.,64.,126.));
#782=CARTESIAN_POINT('Origin',(-78.,64.,135.));
#783=CARTESIAN_POINT('',(-70.,64.,144.));
#784=CARTESIAN_POINT('',(-70.,64.,135.));
#785=CARTESIAN_POINT('',(-78.,64.,144.));
#786=CARTESIAN_POINT('Origin',(-78.,88.,135.));
#787=CARTESIAN_POINT('',(-72.,88.,144.));
#788=CARTESIAN_POINT('',(-72.,88.,106.5));
#789=CARTESIAN_POINT('',(-70.,88.,144.));
#790=CARTESIAN_POINT('',(-78.,88.,144.));
#791=CARTESIAN_POINT('',(-70.,88.,135.));
#792=CARTESIAN_POINT('Origin',(-70.,76.,135.));
#793=CARTESIAN_POINT('',(-70.,76.,144.));
#794=CARTESIAN_POINT('Origin',(-72.,88.,78.));
#795=CARTESIAN_POINT('',(-72.,94.,12.));
#796=CARTESIAN_POINT('',(-72.,88.,12.));
#797=CARTESIAN_POINT('',(-72.,94.,144.));
#798=CARTESIAN_POINT('',(-72.,94.,78.));
#799=CARTESIAN_POINT('',(-72.,88.,144.));
#800=CARTESIAN_POINT('Origin',(-94.,70.,78.));
#801=CARTESIAN_POINT('',(-100.,70.,144.));
#802=CARTESIAN_POINT('',(-100.,70.,12.));
#803=CARTESIAN_POINT('',(-100.,70.,78.));
#804=CARTESIAN_POINT('',(-88.,70.,12.));
#805=CARTESIAN_POINT('',(-94.,70.,12.));
#806=CARTESIAN_POINT('',(-88.,70.,144.));
#807=CARTESIAN_POINT('',(-88.,70.,78.));
#808=CARTESIAN_POINT('',(-94.,70.,144.));
#809=CARTESIAN_POINT('Origin',(-88.,82.,78.));
#810=CARTESIAN_POINT('',(-88.,82.,144.));
#811=CARTESIAN_POINT('',(-88.,82.,12.));
#812=CARTESIAN_POINT('Origin',(-86.,88.,144.));
#813=CARTESIAN_POINT('',(-100.,94.,144.));
#814=CARTESIAN_POINT('',(-86.,94.,144.));
#815=CARTESIAN_POINT('',(-100.,88.,144.));
#816=CARTESIAN_POINT('Origin',(-86.,88.,12.));
#817=CARTESIAN_POINT('',(-100.,94.,12.));
#818=CARTESIAN_POINT('',(-86.,94.,12.));
#819=CARTESIAN_POINT('',(-100.,88.,12.));
#820=CARTESIAN_POINT('Origin',(-100.,88.,78.));
#821=CARTESIAN_POINT('',(-100.,94.,78.));
#822=CARTESIAN_POINT('Origin',(-86.,94.,78.));
#823=UNCERTAINTY_MEASURE_WITH_UNIT(LENGTH_MEASURE(0.01),#827,
'DISTANCE_ACCURACY_VALUE',
'Maximum model space distance between geometric entities at asserted c
onnectivities');
#824=UNCERTAINTY_MEASURE_WITH_UNIT(LENGTH_MEASURE(0.01),#827,
'DISTANCE_ACCURACY_VALUE',
'Maximum model space distance between geometric entities at asserted c
onnectivities');
#825=(
GEOMETRIC_REPRESENTATION_CONTEXT(3)
GLOBAL_UNCERTAINTY_ASSIGNED_CONTEXT((#823))
GLOBAL_UNIT_ASSIGNED_CONTEXT((#827,#829,#830))
REPRESENTATION_CONTEXT('','3D')
);
#826=(
GEOMETRIC_REPRESENTATION_CONTEXT(3)
GLOBAL_UNCERTAINTY_ASSIGNED_CONTEXT((#824))
GLOBAL_UNIT_ASSIGNED_CONTEXT((#827,#829,#830))
REPRESENTATION_CONTEXT('','3D')
);
#827=(
LENGTH_UNIT()
NAMED_UNIT(*)
SI_UNIT(.MILLI.,.METRE.)
);
#828=(
LENGTH_UNIT()
NAMED_UNIT(*)
SI_UNIT($,.METRE.)
);
#829=(
NAMED_UNIT(*)
PLANE_ANGLE_UNIT()
SI_UNIT($,.RADIAN.)
);
#830=(
NAMED_UNIT(*)
SI_UNIT($,.STERADIAN.)
SOLID_ANGLE_UNIT()
);
#831=SHAPE_DEFINITION_REPRESENTATION(#832,#833);
#832=PRODUCT_DEFINITION_SHAPE('',$,#835);
#833=SHAPE_REPRESENTATION('',(#506),#825);
#834=PRODUCT_DEFINITION_CONTEXT('part definition',#839,'design');
#835=PRODUCT_DEFINITION('2026-08-12-23-06-45-544',
'EXPORT_TMP_PRINT_V010C_P013_BaseCornerPost_RL',#836,#834);
#836=PRODUCT_DEFINITION_FORMATION('',$,#841);
#837=PRODUCT_RELATED_PRODUCT_CATEGORY(
'EXPORT_TMP_PRINT_V010C_P013_BaseCornerPost_RL',
'EXPORT_TMP_PRINT_V010C_P013_BaseCornerPost_RL',(#841));
#838=APPLICATION_PROTOCOL_DEFINITION('international standard',
'automotive_design',2009,#839);
#839=APPLICATION_CONTEXT(
'Core Data for Automotive Mechanical Design Process');
#840=PRODUCT_CONTEXT('part definition',#839,'mechanical');
#841=PRODUCT('2026-08-12-23-06-45-544',
'EXPORT_TMP_PRINT_V010C_P013_BaseCornerPost_RL',$,(#840));
#842=PRESENTATION_STYLE_ASSIGNMENT((#843));
#843=SURFACE_STYLE_USAGE(.BOTH.,#844);
#844=SURFACE_SIDE_STYLE('',(#845));
#845=SURFACE_STYLE_FILL_AREA(#846);
#846=FILL_AREA_STYLE('Steel - Satin',(#847));
#847=FILL_AREA_STYLE_COLOUR('Steel - Satin',#848);
#848=COLOUR_RGB('Steel - Satin',0.627450980392157,0.627450980392157,0.627450980392157);
ENDSEC;
END-ISO-10303-21;
