ISO-10303-21;
HEADER;
/* Generated by software containing ST-Developer
 * from STEP Tools, Inc. (www.steptools.com) 
 */

FILE_DESCRIPTION(
/* description */ (''),
/* implementation_level */ '2;1');

FILE_NAME(
/* name */ 'PRINT_P003_BaseFrontPanel.step',
/* time_stamp */ '2026-08-12T23:06:09+02:00',
/* author */ (''),
/* organization */ (''),
/* preprocessor_version */ 'ST-DEVELOPER v20.1',
/* originating_system */ 'Autodesk Translation Framework v15.8.0.0',
/* authorisation */ '');

FILE_SCHEMA (('AUTOMOTIVE_DESIGN { 1 0 10303 214 3 1 1 }'));
ENDSEC;

DATA;
#10=MECHANICAL_DESIGN_GEOMETRIC_PRESENTATION_REPRESENTATION('',(#13),#1167);
#11=SHAPE_REPRESENTATION_RELATIONSHIP('SRR','None',#1174,#12);
#12=ADVANCED_BREP_SHAPE_REPRESENTATION('',(#14),#1166);
#13=STYLED_ITEM('',(#1183),#14);
#14=MANIFOLD_SOLID_BREP('PRINT_P003_BaseFrontPanel',#691);
#15=FACE_BOUND('',#112,.T.);
#16=FACE_BOUND('',#113,.T.);
#17=FACE_BOUND('',#114,.T.);
#18=FACE_BOUND('',#115,.T.);
#19=FACE_BOUND('',#116,.T.);
#20=FACE_BOUND('',#117,.T.);
#21=FACE_BOUND('',#118,.T.);
#22=FACE_BOUND('',#121,.T.);
#23=FACE_BOUND('',#122,.T.);
#24=FACE_BOUND('',#123,.T.);
#25=FACE_BOUND('',#124,.T.);
#26=FACE_BOUND('',#125,.T.);
#27=FACE_BOUND('',#126,.T.);
#28=FACE_BOUND('',#127,.T.);
#29=PLANE('',#720);
#30=PLANE('',#728);
#31=PLANE('',#731);
#32=PLANE('',#732);
#33=PLANE('',#736);
#34=PLANE('',#744);
#35=PLANE('',#747);
#36=PLANE('',#748);
#37=PLANE('',#752);
#38=PLANE('',#760);
#39=PLANE('',#763);
#40=PLANE('',#764);
#41=PLANE('',#765);
#42=PLANE('',#766);
#43=PLANE('',#767);
#44=PLANE('',#768);
#45=PLANE('',#769);
#46=PLANE('',#770);
#47=FACE_OUTER_BOUND('',#81,.T.);
#48=FACE_OUTER_BOUND('',#82,.T.);
#49=FACE_OUTER_BOUND('',#83,.T.);
#50=FACE_OUTER_BOUND('',#84,.T.);
#51=FACE_OUTER_BOUND('',#85,.T.);
#52=FACE_OUTER_BOUND('',#86,.T.);
#53=FACE_OUTER_BOUND('',#87,.T.);
#54=FACE_OUTER_BOUND('',#88,.T.);
#55=FACE_OUTER_BOUND('',#89,.T.);
#56=FACE_OUTER_BOUND('',#90,.T.);
#57=FACE_OUTER_BOUND('',#91,.T.);
#58=FACE_OUTER_BOUND('',#92,.T.);
#59=FACE_OUTER_BOUND('',#93,.T.);
#60=FACE_OUTER_BOUND('',#94,.T.);
#61=FACE_OUTER_BOUND('',#95,.T.);
#62=FACE_OUTER_BOUND('',#96,.T.);
#63=FACE_OUTER_BOUND('',#97,.T.);
#64=FACE_OUTER_BOUND('',#98,.T.);
#65=FACE_OUTER_BOUND('',#99,.T.);
#66=FACE_OUTER_BOUND('',#100,.T.);
#67=FACE_OUTER_BOUND('',#101,.T.);
#68=FACE_OUTER_BOUND('',#102,.T.);
#69=FACE_OUTER_BOUND('',#103,.T.);
#70=FACE_OUTER_BOUND('',#104,.T.);
#71=FACE_OUTER_BOUND('',#105,.T.);
#72=FACE_OUTER_BOUND('',#106,.T.);
#73=FACE_OUTER_BOUND('',#107,.T.);
#74=FACE_OUTER_BOUND('',#108,.T.);
#75=FACE_OUTER_BOUND('',#109,.T.);
#76=FACE_OUTER_BOUND('',#110,.T.);
#77=FACE_OUTER_BOUND('',#111,.T.);
#78=FACE_OUTER_BOUND('',#119,.T.);
#79=FACE_OUTER_BOUND('',#120,.T.);
#80=FACE_OUTER_BOUND('',#128,.T.);
#81=EDGE_LOOP('',(#449,#450,#451,#452));
#82=EDGE_LOOP('',(#453,#454,#455,#456));
#83=EDGE_LOOP('',(#457,#458,#459,#460));
#84=EDGE_LOOP('',(#461,#462,#463,#464));
#85=EDGE_LOOP('',(#465,#466,#467,#468));
#86=EDGE_LOOP('',(#469,#470,#471,#472,#473,#474,#475,#476));
#87=EDGE_LOOP('',(#477,#478,#479,#480));
#88=EDGE_LOOP('',(#481,#482,#483,#484));
#89=EDGE_LOOP('',(#485,#486,#487,#488,#489,#490,#491,#492));
#90=EDGE_LOOP('',(#493,#494,#495,#496));
#91=EDGE_LOOP('',(#497,#498,#499,#500));
#92=EDGE_LOOP('',(#501,#502,#503,#504));
#93=EDGE_LOOP('',(#505,#506,#507,#508));
#94=EDGE_LOOP('',(#509,#510,#511,#512,#513,#514,#515,#516));
#95=EDGE_LOOP('',(#517,#518,#519,#520));
#96=EDGE_LOOP('',(#521,#522,#523,#524));
#97=EDGE_LOOP('',(#525,#526,#527,#528,#529,#530,#531,#532));
#98=EDGE_LOOP('',(#533,#534,#535,#536));
#99=EDGE_LOOP('',(#537,#538,#539,#540));
#100=EDGE_LOOP('',(#541,#542,#543,#544));
#101=EDGE_LOOP('',(#545,#546,#547,#548));
#102=EDGE_LOOP('',(#549,#550,#551,#552,#553,#554,#555,#556));
#103=EDGE_LOOP('',(#557,#558,#559,#560));
#104=EDGE_LOOP('',(#561,#562,#563,#564));
#105=EDGE_LOOP('',(#565,#566,#567,#568,#569,#570,#571,#572));
#106=EDGE_LOOP('',(#573,#574,#575,#576));
#107=EDGE_LOOP('',(#577,#578,#579,#580));
#108=EDGE_LOOP('',(#581,#582,#583,#584));
#109=EDGE_LOOP('',(#585,#586,#587,#588));
#110=EDGE_LOOP('',(#589,#590,#591,#592));
#111=EDGE_LOOP('',(#593,#594,#595,#596));
#112=EDGE_LOOP('',(#597));
#113=EDGE_LOOP('',(#598));
#114=EDGE_LOOP('',(#599));
#115=EDGE_LOOP('',(#600));
#116=EDGE_LOOP('',(#601,#602,#603,#604));
#117=EDGE_LOOP('',(#605,#606,#607,#608));
#118=EDGE_LOOP('',(#609,#610,#611,#612));
#119=EDGE_LOOP('',(#613,#614,#615,#616));
#120=EDGE_LOOP('',(#617,#618,#619,#620));
#121=EDGE_LOOP('',(#621));
#122=EDGE_LOOP('',(#622));
#123=EDGE_LOOP('',(#623));
#124=EDGE_LOOP('',(#624));
#125=EDGE_LOOP('',(#625,#626,#627,#628));
#126=EDGE_LOOP('',(#629,#630,#631,#632));
#127=EDGE_LOOP('',(#633,#634,#635,#636));
#128=EDGE_LOOP('',(#637,#638,#639,#640));
#129=LINE('',#974,#193);
#130=LINE('',#980,#194);
#131=LINE('',#986,#195);
#132=LINE('',#992,#196);
#133=LINE('',#997,#197);
#134=LINE('',#1001,#198);
#135=LINE('',#1005,#199);
#136=LINE('',#1007,#200);
#137=LINE('',#1011,#201);
#138=LINE('',#1015,#202);
#139=LINE('',#1019,#203);
#140=LINE('',#1021,#204);
#141=LINE('',#1025,#205);
#142=LINE('',#1027,#206);
#143=LINE('',#1030,#207);
#144=LINE('',#1032,#208);
#145=LINE('',#1035,#209);
#146=LINE('',#1036,#210);
#147=LINE('',#1038,#211);
#148=LINE('',#1039,#212);
#149=LINE('',#1045,#213);
#150=LINE('',#1049,#214);
#151=LINE('',#1053,#215);
#152=LINE('',#1055,#216);
#153=LINE('',#1059,#217);
#154=LINE('',#1063,#218);
#155=LINE('',#1067,#219);
#156=LINE('',#1069,#220);
#157=LINE('',#1073,#221);
#158=LINE('',#1075,#222);
#159=LINE('',#1078,#223);
#160=LINE('',#1080,#224);
#161=LINE('',#1083,#225);
#162=LINE('',#1084,#226);
#163=LINE('',#1086,#227);
#164=LINE('',#1087,#228);
#165=LINE('',#1093,#229);
#166=LINE('',#1097,#230);
#167=LINE('',#1101,#231);
#168=LINE('',#1103,#232);
#169=LINE('',#1107,#233);
#170=LINE('',#1111,#234);
#171=LINE('',#1115,#235);
#172=LINE('',#1117,#236);
#173=LINE('',#1121,#237);
#174=LINE('',#1123,#238);
#175=LINE('',#1126,#239);
#176=LINE('',#1128,#240);
#177=LINE('',#1131,#241);
#178=LINE('',#1132,#242);
#179=LINE('',#1134,#243);
#180=LINE('',#1135,#244);
#181=LINE('',#1141,#245);
#182=LINE('',#1143,#246);
#183=LINE('',#1145,#247);
#184=LINE('',#1146,#248);
#185=LINE('',#1150,#249);
#186=LINE('',#1152,#250);
#187=LINE('',#1154,#251);
#188=LINE('',#1155,#252);
#189=LINE('',#1157,#253);
#190=LINE('',#1158,#254);
#191=LINE('',#1160,#255);
#192=LINE('',#1162,#256);
#193=VECTOR('',#777,2.2);
#194=VECTOR('',#784,2.2);
#195=VECTOR('',#791,2.2);
#196=VECTOR('',#798,2.2);
#197=VECTOR('',#803,10.);
#198=VECTOR('',#806,10.);
#199=VECTOR('',#811,10.);
#200=VECTOR('',#812,10.);
#201=VECTOR('',#815,10.);
#202=VECTOR('',#818,10.);
#203=VECTOR('',#823,10.);
#204=VECTOR('',#824,10.);
#205=VECTOR('',#829,10.);
#206=VECTOR('',#830,10.);
#207=VECTOR('',#835,10.);
#208=VECTOR('',#836,10.);
#209=VECTOR('',#839,10.);
#210=VECTOR('',#840,10.);
#211=VECTOR('',#843,10.);
#212=VECTOR('',#844,10.);
#213=VECTOR('',#851,10.);
#214=VECTOR('',#854,10.);
#215=VECTOR('',#859,10.);
#216=VECTOR('',#860,10.);
#217=VECTOR('',#863,10.);
#218=VECTOR('',#866,10.);
#219=VECTOR('',#871,10.);
#220=VECTOR('',#872,10.);
#221=VECTOR('',#877,10.);
#222=VECTOR('',#878,10.);
#223=VECTOR('',#883,10.);
#224=VECTOR('',#884,10.);
#225=VECTOR('',#887,10.);
#226=VECTOR('',#888,10.);
#227=VECTOR('',#891,10.);
#228=VECTOR('',#892,10.);
#229=VECTOR('',#899,10.);
#230=VECTOR('',#902,10.);
#231=VECTOR('',#907,10.);
#232=VECTOR('',#908,10.);
#233=VECTOR('',#911,10.);
#234=VECTOR('',#914,10.);
#235=VECTOR('',#919,10.);
#236=VECTOR('',#920,10.);
#237=VECTOR('',#925,10.);
#238=VECTOR('',#926,10.);
#239=VECTOR('',#931,10.);
#240=VECTOR('',#932,10.);
#241=VECTOR('',#935,10.);
#242=VECTOR('',#936,10.);
#243=VECTOR('',#939,10.);
#244=VECTOR('',#940,10.);
#245=VECTOR('',#947,10.);
#246=VECTOR('',#948,10.);
#247=VECTOR('',#949,10.);
#248=VECTOR('',#950,10.);
#249=VECTOR('',#953,10.);
#250=VECTOR('',#954,10.);
#251=VECTOR('',#955,10.);
#252=VECTOR('',#956,10.);
#253=VECTOR('',#959,10.);
#254=VECTOR('',#960,10.);
#255=VECTOR('',#963,10.);
#256=VECTOR('',#966,10.);
#257=CIRCLE('',#706,2.2);
#258=CIRCLE('',#707,2.2);
#259=CIRCLE('',#709,2.2);
#260=CIRCLE('',#710,2.2);
#261=CIRCLE('',#712,2.2);
#262=CIRCLE('',#713,2.2);
#263=CIRCLE('',#715,2.2);
#264=CIRCLE('',#716,2.2);
#265=CIRCLE('',#718,5.);
#266=CIRCLE('',#719,5.);
#267=CIRCLE('',#721,5.);
#268=CIRCLE('',#722,5.);
#269=CIRCLE('',#723,5.);
#270=CIRCLE('',#725,5.);
#271=CIRCLE('',#727,5.);
#272=CIRCLE('',#729,5.);
#273=CIRCLE('',#734,5.);
#274=CIRCLE('',#735,5.);
#275=CIRCLE('',#737,5.);
#276=CIRCLE('',#738,5.);
#277=CIRCLE('',#739,5.);
#278=CIRCLE('',#741,5.);
#279=CIRCLE('',#743,5.);
#280=CIRCLE('',#745,5.);
#281=CIRCLE('',#750,5.);
#282=CIRCLE('',#751,5.);
#283=CIRCLE('',#753,5.);
#284=CIRCLE('',#754,5.);
#285=CIRCLE('',#755,5.);
#286=CIRCLE('',#757,5.);
#287=CIRCLE('',#759,5.);
#288=CIRCLE('',#761,5.);
#289=VERTEX_POINT('',#971);
#290=VERTEX_POINT('',#973);
#291=VERTEX_POINT('',#977);
#292=VERTEX_POINT('',#979);
#293=VERTEX_POINT('',#983);
#294=VERTEX_POINT('',#985);
#295=VERTEX_POINT('',#989);
#296=VERTEX_POINT('',#991);
#297=VERTEX_POINT('',#995);
#298=VERTEX_POINT('',#996);
#299=VERTEX_POINT('',#998);
#300=VERTEX_POINT('',#1000);
#301=VERTEX_POINT('',#1004);
#302=VERTEX_POINT('',#1006);
#303=VERTEX_POINT('',#1008);
#304=VERTEX_POINT('',#1010);
#305=VERTEX_POINT('',#1012);
#306=VERTEX_POINT('',#1014);
#307=VERTEX_POINT('',#1018);
#308=VERTEX_POINT('',#1020);
#309=VERTEX_POINT('',#1024);
#310=VERTEX_POINT('',#1026);
#311=VERTEX_POINT('',#1031);
#312=VERTEX_POINT('',#1033);
#313=VERTEX_POINT('',#1043);
#314=VERTEX_POINT('',#1044);
#315=VERTEX_POINT('',#1046);
#316=VERTEX_POINT('',#1048);
#317=VERTEX_POINT('',#1052);
#318=VERTEX_POINT('',#1054);
#319=VERTEX_POINT('',#1056);
#320=VERTEX_POINT('',#1058);
#321=VERTEX_POINT('',#1060);
#322=VERTEX_POINT('',#1062);
#323=VERTEX_POINT('',#1066);
#324=VERTEX_POINT('',#1068);
#325=VERTEX_POINT('',#1072);
#326=VERTEX_POINT('',#1074);
#327=VERTEX_POINT('',#1079);
#328=VERTEX_POINT('',#1081);
#329=VERTEX_POINT('',#1091);
#330=VERTEX_POINT('',#1092);
#331=VERTEX_POINT('',#1094);
#332=VERTEX_POINT('',#1096);
#333=VERTEX_POINT('',#1100);
#334=VERTEX_POINT('',#1102);
#335=VERTEX_POINT('',#1104);
#336=VERTEX_POINT('',#1106);
#337=VERTEX_POINT('',#1108);
#338=VERTEX_POINT('',#1110);
#339=VERTEX_POINT('',#1114);
#340=VERTEX_POINT('',#1116);
#341=VERTEX_POINT('',#1120);
#342=VERTEX_POINT('',#1122);
#343=VERTEX_POINT('',#1127);
#344=VERTEX_POINT('',#1129);
#345=VERTEX_POINT('',#1139);
#346=VERTEX_POINT('',#1140);
#347=VERTEX_POINT('',#1142);
#348=VERTEX_POINT('',#1144);
#349=VERTEX_POINT('',#1148);
#350=VERTEX_POINT('',#1149);
#351=VERTEX_POINT('',#1151);
#352=VERTEX_POINT('',#1153);
#353=EDGE_CURVE('',#289,#289,#257,.T.);
#354=EDGE_CURVE('',#289,#290,#129,.T.);
#355=EDGE_CURVE('',#290,#290,#258,.T.);
#356=EDGE_CURVE('',#291,#291,#259,.T.);
#357=EDGE_CURVE('',#291,#292,#130,.T.);
#358=EDGE_CURVE('',#292,#292,#260,.T.);
#359=EDGE_CURVE('',#293,#293,#261,.T.);
#360=EDGE_CURVE('',#293,#294,#131,.T.);
#361=EDGE_CURVE('',#294,#294,#262,.T.);
#362=EDGE_CURVE('',#295,#295,#263,.T.);
#363=EDGE_CURVE('',#295,#296,#132,.T.);
#364=EDGE_CURVE('',#296,#296,#264,.T.);
#365=EDGE_CURVE('',#297,#298,#133,.T.);
#366=EDGE_CURVE('',#297,#299,#265,.T.);
#367=EDGE_CURVE('',#299,#300,#134,.T.);
#368=EDGE_CURVE('',#300,#298,#266,.T.);
#369=EDGE_CURVE('',#298,#301,#135,.T.);
#370=EDGE_CURVE('',#302,#300,#136,.T.);
#371=EDGE_CURVE('',#303,#302,#267,.T.);
#372=EDGE_CURVE('',#304,#303,#137,.T.);
#373=EDGE_CURVE('',#305,#304,#268,.T.);
#374=EDGE_CURVE('',#306,#305,#138,.T.);
#375=EDGE_CURVE('',#301,#306,#269,.T.);
#376=EDGE_CURVE('',#303,#307,#139,.T.);
#377=EDGE_CURVE('',#308,#302,#140,.T.);
#378=EDGE_CURVE('',#308,#307,#270,.T.);
#379=EDGE_CURVE('',#301,#309,#141,.T.);
#380=EDGE_CURVE('',#310,#306,#142,.T.);
#381=EDGE_CURVE('',#310,#309,#271,.T.);
#382=EDGE_CURVE('',#309,#297,#143,.T.);
#383=EDGE_CURVE('',#311,#310,#144,.T.);
#384=EDGE_CURVE('',#312,#311,#272,.T.);
#385=EDGE_CURVE('',#307,#312,#145,.T.);
#386=EDGE_CURVE('',#299,#308,#146,.T.);
#387=EDGE_CURVE('',#312,#304,#147,.T.);
#388=EDGE_CURVE('',#311,#305,#148,.T.);
#389=EDGE_CURVE('',#313,#314,#149,.T.);
#390=EDGE_CURVE('',#313,#315,#273,.T.);
#391=EDGE_CURVE('',#315,#316,#150,.T.);
#392=EDGE_CURVE('',#316,#314,#274,.T.);
#393=EDGE_CURVE('',#314,#317,#151,.T.);
#394=EDGE_CURVE('',#318,#316,#152,.T.);
#395=EDGE_CURVE('',#319,#318,#275,.T.);
#396=EDGE_CURVE('',#320,#319,#153,.T.);
#397=EDGE_CURVE('',#321,#320,#276,.T.);
#398=EDGE_CURVE('',#322,#321,#154,.T.);
#399=EDGE_CURVE('',#317,#322,#277,.T.);
#400=EDGE_CURVE('',#319,#323,#155,.T.);
#401=EDGE_CURVE('',#324,#318,#156,.T.);
#402=EDGE_CURVE('',#324,#323,#278,.T.);
#403=EDGE_CURVE('',#317,#325,#157,.T.);
#404=EDGE_CURVE('',#326,#322,#158,.T.);
#405=EDGE_CURVE('',#326,#325,#279,.T.);
#406=EDGE_CURVE('',#325,#313,#159,.T.);
#407=EDGE_CURVE('',#327,#326,#160,.T.);
#408=EDGE_CURVE('',#328,#327,#280,.T.);
#409=EDGE_CURVE('',#323,#328,#161,.T.);
#410=EDGE_CURVE('',#315,#324,#162,.T.);
#411=EDGE_CURVE('',#328,#320,#163,.T.);
#412=EDGE_CURVE('',#327,#321,#164,.T.);
#413=EDGE_CURVE('',#329,#330,#165,.T.);
#414=EDGE_CURVE('',#329,#331,#281,.T.);
#415=EDGE_CURVE('',#331,#332,#166,.T.);
#416=EDGE_CURVE('',#332,#330,#282,.T.);
#417=EDGE_CURVE('',#330,#333,#167,.T.);
#418=EDGE_CURVE('',#334,#332,#168,.T.);
#419=EDGE_CURVE('',#335,#334,#283,.T.);
#420=EDGE_CURVE('',#336,#335,#169,.T.);
#421=EDGE_CURVE('',#337,#336,#284,.T.);
#422=EDGE_CURVE('',#338,#337,#170,.T.);
#423=EDGE_CURVE('',#333,#338,#285,.T.);
#424=EDGE_CURVE('',#335,#339,#171,.T.);
#425=EDGE_CURVE('',#340,#334,#172,.T.);
#426=EDGE_CURVE('',#340,#339,#286,.T.);
#427=EDGE_CURVE('',#333,#341,#173,.T.);
#428=EDGE_CURVE('',#342,#338,#174,.T.);
#429=EDGE_CURVE('',#342,#341,#287,.T.);
#430=EDGE_CURVE('',#341,#329,#175,.T.);
#431=EDGE_CURVE('',#343,#342,#176,.T.);
#432=EDGE_CURVE('',#344,#343,#288,.T.);
#433=EDGE_CURVE('',#339,#344,#177,.T.);
#434=EDGE_CURVE('',#331,#340,#178,.T.);
#435=EDGE_CURVE('',#344,#336,#179,.T.);
#436=EDGE_CURVE('',#343,#337,#180,.T.);
#437=EDGE_CURVE('',#345,#346,#181,.T.);
#438=EDGE_CURVE('',#346,#347,#182,.T.);
#439=EDGE_CURVE('',#347,#348,#183,.T.);
#440=EDGE_CURVE('',#348,#345,#184,.T.);
#441=EDGE_CURVE('',#349,#350,#185,.T.);
#442=EDGE_CURVE('',#350,#351,#186,.T.);
#443=EDGE_CURVE('',#351,#352,#187,.T.);
#444=EDGE_CURVE('',#352,#349,#188,.T.);
#445=EDGE_CURVE('',#348,#351,#189,.T.);
#446=EDGE_CURVE('',#345,#350,#190,.T.);
#447=EDGE_CURVE('',#347,#352,#191,.T.);
#448=EDGE_CURVE('',#346,#349,#192,.T.);
#449=ORIENTED_EDGE('',*,*,#353,.F.);
#450=ORIENTED_EDGE('',*,*,#354,.T.);
#451=ORIENTED_EDGE('',*,*,#355,.F.);
#452=ORIENTED_EDGE('',*,*,#354,.F.);
#453=ORIENTED_EDGE('',*,*,#356,.F.);
#454=ORIENTED_EDGE('',*,*,#357,.T.);
#455=ORIENTED_EDGE('',*,*,#358,.F.);
#456=ORIENTED_EDGE('',*,*,#357,.F.);
#457=ORIENTED_EDGE('',*,*,#359,.F.);
#458=ORIENTED_EDGE('',*,*,#360,.T.);
#459=ORIENTED_EDGE('',*,*,#361,.F.);
#460=ORIENTED_EDGE('',*,*,#360,.F.);
#461=ORIENTED_EDGE('',*,*,#362,.F.);
#462=ORIENTED_EDGE('',*,*,#363,.T.);
#463=ORIENTED_EDGE('',*,*,#364,.F.);
#464=ORIENTED_EDGE('',*,*,#363,.F.);
#465=ORIENTED_EDGE('',*,*,#365,.F.);
#466=ORIENTED_EDGE('',*,*,#366,.T.);
#467=ORIENTED_EDGE('',*,*,#367,.T.);
#468=ORIENTED_EDGE('',*,*,#368,.T.);
#469=ORIENTED_EDGE('',*,*,#369,.F.);
#470=ORIENTED_EDGE('',*,*,#368,.F.);
#471=ORIENTED_EDGE('',*,*,#370,.F.);
#472=ORIENTED_EDGE('',*,*,#371,.F.);
#473=ORIENTED_EDGE('',*,*,#372,.F.);
#474=ORIENTED_EDGE('',*,*,#373,.F.);
#475=ORIENTED_EDGE('',*,*,#374,.F.);
#476=ORIENTED_EDGE('',*,*,#375,.F.);
#477=ORIENTED_EDGE('',*,*,#376,.F.);
#478=ORIENTED_EDGE('',*,*,#371,.T.);
#479=ORIENTED_EDGE('',*,*,#377,.F.);
#480=ORIENTED_EDGE('',*,*,#378,.T.);
#481=ORIENTED_EDGE('',*,*,#379,.F.);
#482=ORIENTED_EDGE('',*,*,#375,.T.);
#483=ORIENTED_EDGE('',*,*,#380,.F.);
#484=ORIENTED_EDGE('',*,*,#381,.T.);
#485=ORIENTED_EDGE('',*,*,#382,.F.);
#486=ORIENTED_EDGE('',*,*,#381,.F.);
#487=ORIENTED_EDGE('',*,*,#383,.F.);
#488=ORIENTED_EDGE('',*,*,#384,.F.);
#489=ORIENTED_EDGE('',*,*,#385,.F.);
#490=ORIENTED_EDGE('',*,*,#378,.F.);
#491=ORIENTED_EDGE('',*,*,#386,.F.);
#492=ORIENTED_EDGE('',*,*,#366,.F.);
#493=ORIENTED_EDGE('',*,*,#387,.F.);
#494=ORIENTED_EDGE('',*,*,#384,.T.);
#495=ORIENTED_EDGE('',*,*,#388,.T.);
#496=ORIENTED_EDGE('',*,*,#373,.T.);
#497=ORIENTED_EDGE('',*,*,#367,.F.);
#498=ORIENTED_EDGE('',*,*,#386,.T.);
#499=ORIENTED_EDGE('',*,*,#377,.T.);
#500=ORIENTED_EDGE('',*,*,#370,.T.);
#501=ORIENTED_EDGE('',*,*,#388,.F.);
#502=ORIENTED_EDGE('',*,*,#383,.T.);
#503=ORIENTED_EDGE('',*,*,#380,.T.);
#504=ORIENTED_EDGE('',*,*,#374,.T.);
#505=ORIENTED_EDGE('',*,*,#389,.F.);
#506=ORIENTED_EDGE('',*,*,#390,.T.);
#507=ORIENTED_EDGE('',*,*,#391,.T.);
#508=ORIENTED_EDGE('',*,*,#392,.T.);
#509=ORIENTED_EDGE('',*,*,#393,.F.);
#510=ORIENTED_EDGE('',*,*,#392,.F.);
#511=ORIENTED_EDGE('',*,*,#394,.F.);
#512=ORIENTED_EDGE('',*,*,#395,.F.);
#513=ORIENTED_EDGE('',*,*,#396,.F.);
#514=ORIENTED_EDGE('',*,*,#397,.F.);
#515=ORIENTED_EDGE('',*,*,#398,.F.);
#516=ORIENTED_EDGE('',*,*,#399,.F.);
#517=ORIENTED_EDGE('',*,*,#400,.F.);
#518=ORIENTED_EDGE('',*,*,#395,.T.);
#519=ORIENTED_EDGE('',*,*,#401,.F.);
#520=ORIENTED_EDGE('',*,*,#402,.T.);
#521=ORIENTED_EDGE('',*,*,#403,.F.);
#522=ORIENTED_EDGE('',*,*,#399,.T.);
#523=ORIENTED_EDGE('',*,*,#404,.F.);
#524=ORIENTED_EDGE('',*,*,#405,.T.);
#525=ORIENTED_EDGE('',*,*,#406,.F.);
#526=ORIENTED_EDGE('',*,*,#405,.F.);
#527=ORIENTED_EDGE('',*,*,#407,.F.);
#528=ORIENTED_EDGE('',*,*,#408,.F.);
#529=ORIENTED_EDGE('',*,*,#409,.F.);
#530=ORIENTED_EDGE('',*,*,#402,.F.);
#531=ORIENTED_EDGE('',*,*,#410,.F.);
#532=ORIENTED_EDGE('',*,*,#390,.F.);
#533=ORIENTED_EDGE('',*,*,#411,.F.);
#534=ORIENTED_EDGE('',*,*,#408,.T.);
#535=ORIENTED_EDGE('',*,*,#412,.T.);
#536=ORIENTED_EDGE('',*,*,#397,.T.);
#537=ORIENTED_EDGE('',*,*,#391,.F.);
#538=ORIENTED_EDGE('',*,*,#410,.T.);
#539=ORIENTED_EDGE('',*,*,#401,.T.);
#540=ORIENTED_EDGE('',*,*,#394,.T.);
#541=ORIENTED_EDGE('',*,*,#412,.F.);
#542=ORIENTED_EDGE('',*,*,#407,.T.);
#543=ORIENTED_EDGE('',*,*,#404,.T.);
#544=ORIENTED_EDGE('',*,*,#398,.T.);
#545=ORIENTED_EDGE('',*,*,#413,.F.);
#546=ORIENTED_EDGE('',*,*,#414,.T.);
#547=ORIENTED_EDGE('',*,*,#415,.T.);
#548=ORIENTED_EDGE('',*,*,#416,.T.);
#549=ORIENTED_EDGE('',*,*,#417,.F.);
#550=ORIENTED_EDGE('',*,*,#416,.F.);
#551=ORIENTED_EDGE('',*,*,#418,.F.);
#552=ORIENTED_EDGE('',*,*,#419,.F.);
#553=ORIENTED_EDGE('',*,*,#420,.F.);
#554=ORIENTED_EDGE('',*,*,#421,.F.);
#555=ORIENTED_EDGE('',*,*,#422,.F.);
#556=ORIENTED_EDGE('',*,*,#423,.F.);
#557=ORIENTED_EDGE('',*,*,#424,.F.);
#558=ORIENTED_EDGE('',*,*,#419,.T.);
#559=ORIENTED_EDGE('',*,*,#425,.F.);
#560=ORIENTED_EDGE('',*,*,#426,.T.);
#561=ORIENTED_EDGE('',*,*,#427,.F.);
#562=ORIENTED_EDGE('',*,*,#423,.T.);
#563=ORIENTED_EDGE('',*,*,#428,.F.);
#564=ORIENTED_EDGE('',*,*,#429,.T.);
#565=ORIENTED_EDGE('',*,*,#430,.F.);
#566=ORIENTED_EDGE('',*,*,#429,.F.);
#567=ORIENTED_EDGE('',*,*,#431,.F.);
#568=ORIENTED_EDGE('',*,*,#432,.F.);
#569=ORIENTED_EDGE('',*,*,#433,.F.);
#570=ORIENTED_EDGE('',*,*,#426,.F.);
#571=ORIENTED_EDGE('',*,*,#434,.F.);
#572=ORIENTED_EDGE('',*,*,#414,.F.);
#573=ORIENTED_EDGE('',*,*,#435,.F.);
#574=ORIENTED_EDGE('',*,*,#432,.T.);
#575=ORIENTED_EDGE('',*,*,#436,.T.);
#576=ORIENTED_EDGE('',*,*,#421,.T.);
#577=ORIENTED_EDGE('',*,*,#415,.F.);
#578=ORIENTED_EDGE('',*,*,#434,.T.);
#579=ORIENTED_EDGE('',*,*,#425,.T.);
#580=ORIENTED_EDGE('',*,*,#418,.T.);
#581=ORIENTED_EDGE('',*,*,#436,.F.);
#582=ORIENTED_EDGE('',*,*,#431,.T.);
#583=ORIENTED_EDGE('',*,*,#428,.T.);
#584=ORIENTED_EDGE('',*,*,#422,.T.);
#585=ORIENTED_EDGE('',*,*,#437,.T.);
#586=ORIENTED_EDGE('',*,*,#438,.T.);
#587=ORIENTED_EDGE('',*,*,#439,.T.);
#588=ORIENTED_EDGE('',*,*,#440,.T.);
#589=ORIENTED_EDGE('',*,*,#441,.T.);
#590=ORIENTED_EDGE('',*,*,#442,.T.);
#591=ORIENTED_EDGE('',*,*,#443,.T.);
#592=ORIENTED_EDGE('',*,*,#444,.T.);
#593=ORIENTED_EDGE('',*,*,#445,.T.);
#594=ORIENTED_EDGE('',*,*,#442,.F.);
#595=ORIENTED_EDGE('',*,*,#446,.F.);
#596=ORIENTED_EDGE('',*,*,#440,.F.);
#597=ORIENTED_EDGE('',*,*,#353,.T.);
#598=ORIENTED_EDGE('',*,*,#356,.T.);
#599=ORIENTED_EDGE('',*,*,#359,.T.);
#600=ORIENTED_EDGE('',*,*,#362,.T.);
#601=ORIENTED_EDGE('',*,*,#385,.T.);
#602=ORIENTED_EDGE('',*,*,#387,.T.);
#603=ORIENTED_EDGE('',*,*,#372,.T.);
#604=ORIENTED_EDGE('',*,*,#376,.T.);
#605=ORIENTED_EDGE('',*,*,#409,.T.);
#606=ORIENTED_EDGE('',*,*,#411,.T.);
#607=ORIENTED_EDGE('',*,*,#396,.T.);
#608=ORIENTED_EDGE('',*,*,#400,.T.);
#609=ORIENTED_EDGE('',*,*,#433,.T.);
#610=ORIENTED_EDGE('',*,*,#435,.T.);
#611=ORIENTED_EDGE('',*,*,#420,.T.);
#612=ORIENTED_EDGE('',*,*,#424,.T.);
#613=ORIENTED_EDGE('',*,*,#447,.T.);
#614=ORIENTED_EDGE('',*,*,#443,.F.);
#615=ORIENTED_EDGE('',*,*,#445,.F.);
#616=ORIENTED_EDGE('',*,*,#439,.F.);
#617=ORIENTED_EDGE('',*,*,#448,.T.);
#618=ORIENTED_EDGE('',*,*,#444,.F.);
#619=ORIENTED_EDGE('',*,*,#447,.F.);
#620=ORIENTED_EDGE('',*,*,#438,.F.);
#621=ORIENTED_EDGE('',*,*,#355,.T.);
#622=ORIENTED_EDGE('',*,*,#358,.T.);
#623=ORIENTED_EDGE('',*,*,#361,.T.);
#624=ORIENTED_EDGE('',*,*,#364,.T.);
#625=ORIENTED_EDGE('',*,*,#379,.T.);
#626=ORIENTED_EDGE('',*,*,#382,.T.);
#627=ORIENTED_EDGE('',*,*,#365,.T.);
#628=ORIENTED_EDGE('',*,*,#369,.T.);
#629=ORIENTED_EDGE('',*,*,#403,.T.);
#630=ORIENTED_EDGE('',*,*,#406,.T.);
#631=ORIENTED_EDGE('',*,*,#389,.T.);
#632=ORIENTED_EDGE('',*,*,#393,.T.);
#633=ORIENTED_EDGE('',*,*,#427,.T.);
#634=ORIENTED_EDGE('',*,*,#430,.T.);
#635=ORIENTED_EDGE('',*,*,#413,.T.);
#636=ORIENTED_EDGE('',*,*,#417,.T.);
#637=ORIENTED_EDGE('',*,*,#446,.T.);
#638=ORIENTED_EDGE('',*,*,#441,.F.);
#639=ORIENTED_EDGE('',*,*,#448,.F.);
#640=ORIENTED_EDGE('',*,*,#437,.F.);
#641=CYLINDRICAL_SURFACE('',#705,2.2);
#642=CYLINDRICAL_SURFACE('',#708,2.2);
#643=CYLINDRICAL_SURFACE('',#711,2.2);
#644=CYLINDRICAL_SURFACE('',#714,2.2);
#645=CYLINDRICAL_SURFACE('',#717,5.);
#646=CYLINDRICAL_SURFACE('',#724,5.);
#647=CYLINDRICAL_SURFACE('',#726,5.);
#648=CYLINDRICAL_SURFACE('',#730,5.);
#649=CYLINDRICAL_SURFACE('',#733,5.);
#650=CYLINDRICAL_SURFACE('',#740,5.);
#651=CYLINDRICAL_SURFACE('',#742,5.);
#652=CYLINDRICAL_SURFACE('',#746,5.);
#653=CYLINDRICAL_SURFACE('',#749,5.);
#654=CYLINDRICAL_SURFACE('',#756,5.);
#655=CYLINDRICAL_SURFACE('',#758,5.);
#656=CYLINDRICAL_SURFACE('',#762,5.);
#657=ADVANCED_FACE('',(#47),#641,.F.);
#658=ADVANCED_FACE('',(#48),#642,.F.);
#659=ADVANCED_FACE('',(#49),#643,.F.);
#660=ADVANCED_FACE('',(#50),#644,.F.);
#661=ADVANCED_FACE('',(#51),#645,.F.);
#662=ADVANCED_FACE('',(#52),#29,.T.);
#663=ADVANCED_FACE('',(#53),#646,.F.);
#664=ADVANCED_FACE('',(#54),#647,.F.);
#665=ADVANCED_FACE('',(#55),#30,.F.);
#666=ADVANCED_FACE('',(#56),#648,.F.);
#667=ADVANCED_FACE('',(#57),#31,.T.);
#668=ADVANCED_FACE('',(#58),#32,.T.);
#669=ADVANCED_FACE('',(#59),#649,.F.);
#670=ADVANCED_FACE('',(#60),#33,.T.);
#671=ADVANCED_FACE('',(#61),#650,.F.);
#672=ADVANCED_FACE('',(#62),#651,.F.);
#673=ADVANCED_FACE('',(#63),#34,.F.);
#674=ADVANCED_FACE('',(#64),#652,.F.);
#675=ADVANCED_FACE('',(#65),#35,.T.);
#676=ADVANCED_FACE('',(#66),#36,.T.);
#677=ADVANCED_FACE('',(#67),#653,.F.);
#678=ADVANCED_FACE('',(#68),#37,.T.);
#679=ADVANCED_FACE('',(#69),#654,.F.);
#680=ADVANCED_FACE('',(#70),#655,.F.);
#681=ADVANCED_FACE('',(#71),#38,.F.);
#682=ADVANCED_FACE('',(#72),#656,.F.);
#683=ADVANCED_FACE('',(#73),#39,.T.);
#684=ADVANCED_FACE('',(#74),#40,.T.);
#685=ADVANCED_FACE('',(#75),#41,.T.);
#686=ADVANCED_FACE('',(#76),#42,.F.);
#687=ADVANCED_FACE('',(#77,#15,#16,#17,#18,#19,#20,#21),#43,.F.);
#688=ADVANCED_FACE('',(#78),#44,.F.);
#689=ADVANCED_FACE('',(#79,#22,#23,#24,#25,#26,#27,#28),#45,.F.);
#690=ADVANCED_FACE('',(#80),#46,.F.);
#691=CLOSED_SHELL('',(#657,#658,#659,#660,#661,#662,#663,#664,#665,#666,
#667,#668,#669,#670,#671,#672,#673,#674,#675,#676,#677,#678,#679,#680,#681,
#682,#683,#684,#685,#686,#687,#688,#689,#690));
#692=DERIVED_UNIT_ELEMENT(#694,1.);
#693=DERIVED_UNIT_ELEMENT(#1169,-3.);
#694=(
MASS_UNIT()
NAMED_UNIT(*)
SI_UNIT(.KILO.,.GRAM.)
);
#695=DERIVED_UNIT((#692,#693));
#696=MEASURE_REPRESENTATION_ITEM('density measure',
POSITIVE_RATIO_MEASURE(7850.),#695);
#697=PROPERTY_DEFINITION_REPRESENTATION(#702,#699);
#698=PROPERTY_DEFINITION_REPRESENTATION(#703,#700);
#699=REPRESENTATION('material name',(#701),#1166);
#700=REPRESENTATION('density',(#696),#1166);
#701=DESCRIPTIVE_REPRESENTATION_ITEM('Steel','Steel');
#702=PROPERTY_DEFINITION('material property','material name',#1176);
#703=PROPERTY_DEFINITION('material property','density of part',#1176);
#704=AXIS2_PLACEMENT_3D('',#969,#771,#772);
#705=AXIS2_PLACEMENT_3D('',#970,#773,#774);
#706=AXIS2_PLACEMENT_3D('',#972,#775,#776);
#707=AXIS2_PLACEMENT_3D('',#975,#778,#779);
#708=AXIS2_PLACEMENT_3D('',#976,#780,#781);
#709=AXIS2_PLACEMENT_3D('',#978,#782,#783);
#710=AXIS2_PLACEMENT_3D('',#981,#785,#786);
#711=AXIS2_PLACEMENT_3D('',#982,#787,#788);
#712=AXIS2_PLACEMENT_3D('',#984,#789,#790);
#713=AXIS2_PLACEMENT_3D('',#987,#792,#793);
#714=AXIS2_PLACEMENT_3D('',#988,#794,#795);
#715=AXIS2_PLACEMENT_3D('',#990,#796,#797);
#716=AXIS2_PLACEMENT_3D('',#993,#799,#800);
#717=AXIS2_PLACEMENT_3D('',#994,#801,#802);
#718=AXIS2_PLACEMENT_3D('',#999,#804,#805);
#719=AXIS2_PLACEMENT_3D('',#1002,#807,#808);
#720=AXIS2_PLACEMENT_3D('',#1003,#809,#810);
#721=AXIS2_PLACEMENT_3D('',#1009,#813,#814);
#722=AXIS2_PLACEMENT_3D('',#1013,#816,#817);
#723=AXIS2_PLACEMENT_3D('',#1016,#819,#820);
#724=AXIS2_PLACEMENT_3D('',#1017,#821,#822);
#725=AXIS2_PLACEMENT_3D('',#1022,#825,#826);
#726=AXIS2_PLACEMENT_3D('',#1023,#827,#828);
#727=AXIS2_PLACEMENT_3D('',#1028,#831,#832);
#728=AXIS2_PLACEMENT_3D('',#1029,#833,#834);
#729=AXIS2_PLACEMENT_3D('',#1034,#837,#838);
#730=AXIS2_PLACEMENT_3D('',#1037,#841,#842);
#731=AXIS2_PLACEMENT_3D('',#1040,#845,#846);
#732=AXIS2_PLACEMENT_3D('',#1041,#847,#848);
#733=AXIS2_PLACEMENT_3D('',#1042,#849,#850);
#734=AXIS2_PLACEMENT_3D('',#1047,#852,#853);
#735=AXIS2_PLACEMENT_3D('',#1050,#855,#856);
#736=AXIS2_PLACEMENT_3D('',#1051,#857,#858);
#737=AXIS2_PLACEMENT_3D('',#1057,#861,#862);
#738=AXIS2_PLACEMENT_3D('',#1061,#864,#865);
#739=AXIS2_PLACEMENT_3D('',#1064,#867,#868);
#740=AXIS2_PLACEMENT_3D('',#1065,#869,#870);
#741=AXIS2_PLACEMENT_3D('',#1070,#873,#874);
#742=AXIS2_PLACEMENT_3D('',#1071,#875,#876);
#743=AXIS2_PLACEMENT_3D('',#1076,#879,#880);
#744=AXIS2_PLACEMENT_3D('',#1077,#881,#882);
#745=AXIS2_PLACEMENT_3D('',#1082,#885,#886);
#746=AXIS2_PLACEMENT_3D('',#1085,#889,#890);
#747=AXIS2_PLACEMENT_3D('',#1088,#893,#894);
#748=AXIS2_PLACEMENT_3D('',#1089,#895,#896);
#749=AXIS2_PLACEMENT_3D('',#1090,#897,#898);
#750=AXIS2_PLACEMENT_3D('',#1095,#900,#901);
#751=AXIS2_PLACEMENT_3D('',#1098,#903,#904);
#752=AXIS2_PLACEMENT_3D('',#1099,#905,#906);
#753=AXIS2_PLACEMENT_3D('',#1105,#909,#910);
#754=AXIS2_PLACEMENT_3D('',#1109,#912,#913);
#755=AXIS2_PLACEMENT_3D('',#1112,#915,#916);
#756=AXIS2_PLACEMENT_3D('',#1113,#917,#918);
#757=AXIS2_PLACEMENT_3D('',#1118,#921,#922);
#758=AXIS2_PLACEMENT_3D('',#1119,#923,#924);
#759=AXIS2_PLACEMENT_3D('',#1124,#927,#928);
#760=AXIS2_PLACEMENT_3D('',#1125,#929,#930);
#761=AXIS2_PLACEMENT_3D('',#1130,#933,#934);
#762=AXIS2_PLACEMENT_3D('',#1133,#937,#938);
#763=AXIS2_PLACEMENT_3D('',#1136,#941,#942);
#764=AXIS2_PLACEMENT_3D('',#1137,#943,#944);
#765=AXIS2_PLACEMENT_3D('',#1138,#945,#946);
#766=AXIS2_PLACEMENT_3D('',#1147,#951,#952);
#767=AXIS2_PLACEMENT_3D('',#1156,#957,#958);
#768=AXIS2_PLACEMENT_3D('',#1159,#961,#962);
#769=AXIS2_PLACEMENT_3D('',#1161,#964,#965);
#770=AXIS2_PLACEMENT_3D('',#1163,#967,#968);
#771=DIRECTION('axis',(0.,0.,1.));
#772=DIRECTION('refdir',(1.,0.,0.));
#773=DIRECTION('center_axis',(0.,1.,0.));
#774=DIRECTION('ref_axis',(1.,0.,0.));
#775=DIRECTION('center_axis',(0.,1.,0.));
#776=DIRECTION('ref_axis',(1.,0.,0.));
#777=DIRECTION('',(0.,1.,0.));
#778=DIRECTION('center_axis',(0.,-1.,0.));
#779=DIRECTION('ref_axis',(1.,0.,0.));
#780=DIRECTION('center_axis',(0.,1.,0.));
#781=DIRECTION('ref_axis',(1.,0.,0.));
#782=DIRECTION('center_axis',(0.,1.,0.));
#783=DIRECTION('ref_axis',(1.,0.,0.));
#784=DIRECTION('',(0.,1.,0.));
#785=DIRECTION('center_axis',(0.,-1.,0.));
#786=DIRECTION('ref_axis',(1.,0.,0.));
#787=DIRECTION('center_axis',(0.,1.,0.));
#788=DIRECTION('ref_axis',(1.,0.,0.));
#789=DIRECTION('center_axis',(0.,1.,0.));
#790=DIRECTION('ref_axis',(1.,0.,0.));
#791=DIRECTION('',(0.,1.,0.));
#792=DIRECTION('center_axis',(0.,-1.,0.));
#793=DIRECTION('ref_axis',(1.,0.,0.));
#794=DIRECTION('center_axis',(0.,1.,0.));
#795=DIRECTION('ref_axis',(1.,0.,0.));
#796=DIRECTION('center_axis',(0.,1.,0.));
#797=DIRECTION('ref_axis',(1.,0.,0.));
#798=DIRECTION('',(0.,1.,0.));
#799=DIRECTION('center_axis',(0.,-1.,0.));
#800=DIRECTION('ref_axis',(1.,0.,0.));
#801=DIRECTION('center_axis',(0.,0.,1.));
#802=DIRECTION('ref_axis',(1.,0.,0.));
#803=DIRECTION('',(0.,0.,-1.));
#804=DIRECTION('center_axis',(0.,0.,1.));
#805=DIRECTION('ref_axis',(1.,0.,0.));
#806=DIRECTION('',(0.,0.,-1.));
#807=DIRECTION('center_axis',(0.,0.,-1.));
#808=DIRECTION('ref_axis',(1.,0.,0.));
#809=DIRECTION('center_axis',(0.,0.,1.));
#810=DIRECTION('ref_axis',(1.,0.,0.));
#811=DIRECTION('',(1.,0.,0.));
#812=DIRECTION('',(0.,1.,0.));
#813=DIRECTION('center_axis',(0.,0.,-1.));
#814=DIRECTION('ref_axis',(1.,0.,0.));
#815=DIRECTION('',(-1.,0.,0.));
#816=DIRECTION('center_axis',(0.,0.,-1.));
#817=DIRECTION('ref_axis',(1.,0.,0.));
#818=DIRECTION('',(0.,-1.,0.));
#819=DIRECTION('center_axis',(0.,0.,-1.));
#820=DIRECTION('ref_axis',(1.,0.,0.));
#821=DIRECTION('center_axis',(0.,0.,1.));
#822=DIRECTION('ref_axis',(1.,0.,0.));
#823=DIRECTION('',(0.,0.,1.));
#824=DIRECTION('',(0.,0.,-1.));
#825=DIRECTION('center_axis',(0.,0.,1.));
#826=DIRECTION('ref_axis',(1.,0.,0.));
#827=DIRECTION('center_axis',(0.,0.,1.));
#828=DIRECTION('ref_axis',(1.,0.,0.));
#829=DIRECTION('',(0.,0.,1.));
#830=DIRECTION('',(0.,0.,-1.));
#831=DIRECTION('center_axis',(0.,0.,1.));
#832=DIRECTION('ref_axis',(1.,0.,0.));
#833=DIRECTION('center_axis',(0.,0.,1.));
#834=DIRECTION('ref_axis',(1.,0.,0.));
#835=DIRECTION('',(-1.,0.,0.));
#836=DIRECTION('',(0.,1.,0.));
#837=DIRECTION('center_axis',(0.,0.,1.));
#838=DIRECTION('ref_axis',(1.,0.,0.));
#839=DIRECTION('',(1.,0.,0.));
#840=DIRECTION('',(0.,-1.,0.));
#841=DIRECTION('center_axis',(0.,0.,1.));
#842=DIRECTION('ref_axis',(1.,0.,0.));
#843=DIRECTION('',(0.,0.,-1.));
#844=DIRECTION('',(0.,0.,-1.));
#845=DIRECTION('center_axis',(1.,0.,0.));
#846=DIRECTION('ref_axis',(0.,0.,-1.));
#847=DIRECTION('center_axis',(-1.,0.,0.));
#848=DIRECTION('ref_axis',(0.,0.,1.));
#849=DIRECTION('center_axis',(0.,0.,1.));
#850=DIRECTION('ref_axis',(1.,0.,0.));
#851=DIRECTION('',(0.,0.,-1.));
#852=DIRECTION('center_axis',(0.,0.,1.));
#853=DIRECTION('ref_axis',(1.,0.,0.));
#854=DIRECTION('',(0.,0.,-1.));
#855=DIRECTION('center_axis',(0.,0.,-1.));
#856=DIRECTION('ref_axis',(1.,0.,0.));
#857=DIRECTION('center_axis',(0.,0.,1.));
#858=DIRECTION('ref_axis',(1.,0.,0.));
#859=DIRECTION('',(1.,0.,0.));
#860=DIRECTION('',(0.,1.,0.));
#861=DIRECTION('center_axis',(0.,0.,-1.));
#862=DIRECTION('ref_axis',(1.,0.,0.));
#863=DIRECTION('',(-1.,0.,0.));
#864=DIRECTION('center_axis',(0.,0.,-1.));
#865=DIRECTION('ref_axis',(1.,0.,0.));
#866=DIRECTION('',(0.,-1.,0.));
#867=DIRECTION('center_axis',(0.,0.,-1.));
#868=DIRECTION('ref_axis',(1.,0.,0.));
#869=DIRECTION('center_axis',(0.,0.,1.));
#870=DIRECTION('ref_axis',(1.,0.,0.));
#871=DIRECTION('',(0.,0.,1.));
#872=DIRECTION('',(0.,0.,-1.));
#873=DIRECTION('center_axis',(0.,0.,1.));
#874=DIRECTION('ref_axis',(1.,0.,0.));
#875=DIRECTION('center_axis',(0.,0.,1.));
#876=DIRECTION('ref_axis',(1.,0.,0.));
#877=DIRECTION('',(0.,0.,1.));
#878=DIRECTION('',(0.,0.,-1.));
#879=DIRECTION('center_axis',(0.,0.,1.));
#880=DIRECTION('ref_axis',(1.,0.,0.));
#881=DIRECTION('center_axis',(0.,0.,1.));
#882=DIRECTION('ref_axis',(1.,0.,0.));
#883=DIRECTION('',(-1.,0.,0.));
#884=DIRECTION('',(0.,1.,0.));
#885=DIRECTION('center_axis',(0.,0.,1.));
#886=DIRECTION('ref_axis',(1.,0.,0.));
#887=DIRECTION('',(1.,0.,0.));
#888=DIRECTION('',(0.,-1.,0.));
#889=DIRECTION('center_axis',(0.,0.,1.));
#890=DIRECTION('ref_axis',(1.,0.,0.));
#891=DIRECTION('',(0.,0.,-1.));
#892=DIRECTION('',(0.,0.,-1.));
#893=DIRECTION('center_axis',(1.,0.,0.));
#894=DIRECTION('ref_axis',(0.,0.,-1.));
#895=DIRECTION('center_axis',(-1.,0.,0.));
#896=DIRECTION('ref_axis',(0.,0.,1.));
#897=DIRECTION('center_axis',(0.,0.,1.));
#898=DIRECTION('ref_axis',(1.,0.,0.));
#899=DIRECTION('',(0.,0.,-1.));
#900=DIRECTION('center_axis',(0.,0.,1.));
#901=DIRECTION('ref_axis',(1.,0.,0.));
#902=DIRECTION('',(0.,0.,-1.));
#903=DIRECTION('center_axis',(0.,0.,-1.));
#904=DIRECTION('ref_axis',(1.,0.,0.));
#905=DIRECTION('center_axis',(0.,0.,1.));
#906=DIRECTION('ref_axis',(1.,0.,0.));
#907=DIRECTION('',(1.,0.,0.));
#908=DIRECTION('',(0.,1.,0.));
#909=DIRECTION('center_axis',(0.,0.,-1.));
#910=DIRECTION('ref_axis',(1.,0.,0.));
#911=DIRECTION('',(-1.,0.,0.));
#912=DIRECTION('center_axis',(0.,0.,-1.));
#913=DIRECTION('ref_axis',(1.,0.,0.));
#914=DIRECTION('',(0.,-1.,0.));
#915=DIRECTION('center_axis',(0.,0.,-1.));
#916=DIRECTION('ref_axis',(1.,0.,0.));
#917=DIRECTION('center_axis',(0.,0.,1.));
#918=DIRECTION('ref_axis',(1.,0.,0.));
#919=DIRECTION('',(0.,0.,1.));
#920=DIRECTION('',(0.,0.,-1.));
#921=DIRECTION('center_axis',(0.,0.,1.));
#922=DIRECTION('ref_axis',(1.,0.,0.));
#923=DIRECTION('center_axis',(0.,0.,1.));
#924=DIRECTION('ref_axis',(1.,0.,0.));
#925=DIRECTION('',(0.,0.,1.));
#926=DIRECTION('',(0.,0.,-1.));
#927=DIRECTION('center_axis',(0.,0.,1.));
#928=DIRECTION('ref_axis',(1.,0.,0.));
#929=DIRECTION('center_axis',(0.,0.,1.));
#930=DIRECTION('ref_axis',(1.,0.,0.));
#931=DIRECTION('',(-1.,0.,0.));
#932=DIRECTION('',(0.,1.,0.));
#933=DIRECTION('center_axis',(0.,0.,1.));
#934=DIRECTION('ref_axis',(1.,0.,0.));
#935=DIRECTION('',(1.,0.,0.));
#936=DIRECTION('',(0.,-1.,0.));
#937=DIRECTION('center_axis',(0.,0.,1.));
#938=DIRECTION('ref_axis',(1.,0.,0.));
#939=DIRECTION('',(0.,0.,-1.));
#940=DIRECTION('',(0.,0.,-1.));
#941=DIRECTION('center_axis',(1.,0.,0.));
#942=DIRECTION('ref_axis',(0.,0.,-1.));
#943=DIRECTION('center_axis',(-1.,0.,0.));
#944=DIRECTION('ref_axis',(0.,0.,1.));
#945=DIRECTION('center_axis',(0.,0.,1.));
#946=DIRECTION('ref_axis',(1.,0.,0.));
#947=DIRECTION('',(0.,1.,0.));
#948=DIRECTION('',(-1.,0.,0.));
#949=DIRECTION('',(0.,-1.,0.));
#950=DIRECTION('',(1.,0.,0.));
#951=DIRECTION('center_axis',(0.,0.,1.));
#952=DIRECTION('ref_axis',(1.,0.,0.));
#953=DIRECTION('',(0.,-1.,0.));
#954=DIRECTION('',(-1.,0.,0.));
#955=DIRECTION('',(0.,1.,0.));
#956=DIRECTION('',(1.,0.,0.));
#957=DIRECTION('center_axis',(0.,1.,0.));
#958=DIRECTION('ref_axis',(0.,0.,1.));
#959=DIRECTION('',(0.,0.,-1.));
#960=DIRECTION('',(0.,0.,-1.));
#961=DIRECTION('center_axis',(1.,0.,0.));
#962=DIRECTION('ref_axis',(0.,0.,-1.));
#963=DIRECTION('',(0.,0.,-1.));
#964=DIRECTION('center_axis',(0.,-1.,0.));
#965=DIRECTION('ref_axis',(0.,0.,-1.));
#966=DIRECTION('',(0.,0.,-1.));
#967=DIRECTION('center_axis',(-1.,0.,0.));
#968=DIRECTION('ref_axis',(0.,0.,1.));
#969=CARTESIAN_POINT('',(0.,0.,0.));
#970=CARTESIAN_POINT('Origin',(78.,-99.,139.));
#971=CARTESIAN_POINT('',(75.8,-104.,139.));
#972=CARTESIAN_POINT('Origin',(78.,-104.,139.));
#973=CARTESIAN_POINT('',(75.8,-94.,139.));
#974=CARTESIAN_POINT('',(75.8,-99.,139.));
#975=CARTESIAN_POINT('Origin',(78.,-94.,139.));
#976=CARTESIAN_POINT('Origin',(78.,-99.,25.));
#977=CARTESIAN_POINT('',(75.8,-104.,25.));
#978=CARTESIAN_POINT('Origin',(78.,-104.,25.));
#979=CARTESIAN_POINT('',(75.8,-94.,25.));
#980=CARTESIAN_POINT('',(75.8,-99.,25.));
#981=CARTESIAN_POINT('Origin',(78.,-94.,25.));
#982=CARTESIAN_POINT('Origin',(-78.,-99.,139.));
#983=CARTESIAN_POINT('',(-80.2,-104.,139.));
#984=CARTESIAN_POINT('Origin',(-78.,-104.,139.));
#985=CARTESIAN_POINT('',(-80.2,-94.,139.));
#986=CARTESIAN_POINT('',(-80.2,-99.,139.));
#987=CARTESIAN_POINT('Origin',(-78.,-94.,139.));
#988=CARTESIAN_POINT('Origin',(-78.,-99.,25.));
#989=CARTESIAN_POINT('',(-80.2,-104.,25.));
#990=CARTESIAN_POINT('Origin',(-78.,-104.,25.));
#991=CARTESIAN_POINT('',(-80.2,-94.,25.));
#992=CARTESIAN_POINT('',(-80.2,-99.,25.));
#993=CARTESIAN_POINT('Origin',(-78.,-94.,25.));
#994=CARTESIAN_POINT('Origin',(44.5,-95.,82.));
#995=CARTESIAN_POINT('',(39.6010205144336,-94.,115.));
#996=CARTESIAN_POINT('',(39.6010205144336,-94.,49.));
#997=CARTESIAN_POINT('',(39.6010205144336,-94.,82.));
#998=CARTESIAN_POINT('',(39.5,-95.,115.));
#999=CARTESIAN_POINT('Origin',(44.5,-95.,115.));
#1000=CARTESIAN_POINT('',(39.5,-95.,49.));
#1001=CARTESIAN_POINT('',(39.5,-95.,82.));
#1002=CARTESIAN_POINT('Origin',(44.5,-95.,49.));
#1003=CARTESIAN_POINT('Origin',(55.,-99.,49.));
#1004=CARTESIAN_POINT('',(70.3989794855664,-94.,49.));
#1005=CARTESIAN_POINT('',(27.5,-94.,49.));
#1006=CARTESIAN_POINT('',(39.5,-103.,49.));
#1007=CARTESIAN_POINT('',(39.5,-99.,49.));
#1008=CARTESIAN_POINT('',(39.6010205144336,-104.,49.));
#1009=CARTESIAN_POINT('Origin',(44.5,-103.,49.));
#1010=CARTESIAN_POINT('',(70.3989794855664,-104.,49.));
#1011=CARTESIAN_POINT('',(27.5,-104.,49.));
#1012=CARTESIAN_POINT('',(70.5,-103.,49.));
#1013=CARTESIAN_POINT('Origin',(65.5,-103.,49.));
#1014=CARTESIAN_POINT('',(70.5,-95.,49.));
#1015=CARTESIAN_POINT('',(70.5,-99.,49.));
#1016=CARTESIAN_POINT('Origin',(65.5,-95.,49.));
#1017=CARTESIAN_POINT('Origin',(44.5,-103.,82.));
#1018=CARTESIAN_POINT('',(39.6010205144336,-104.,115.));
#1019=CARTESIAN_POINT('',(39.6010205144336,-104.,82.));
#1020=CARTESIAN_POINT('',(39.5,-103.,115.));
#1021=CARTESIAN_POINT('',(39.5,-103.,82.));
#1022=CARTESIAN_POINT('Origin',(44.5,-103.,115.));
#1023=CARTESIAN_POINT('Origin',(65.5,-95.,82.));
#1024=CARTESIAN_POINT('',(70.3989794855664,-94.,115.));
#1025=CARTESIAN_POINT('',(70.3989794855664,-94.,82.));
#1026=CARTESIAN_POINT('',(70.5,-95.,115.));
#1027=CARTESIAN_POINT('',(70.5,-95.,82.));
#1028=CARTESIAN_POINT('Origin',(65.5,-95.,115.));
#1029=CARTESIAN_POINT('Origin',(55.,-99.,115.));
#1030=CARTESIAN_POINT('',(27.5,-94.,115.));
#1031=CARTESIAN_POINT('',(70.5,-103.,115.));
#1032=CARTESIAN_POINT('',(70.5,-99.,115.));
#1033=CARTESIAN_POINT('',(70.3989794855664,-104.,115.));
#1034=CARTESIAN_POINT('Origin',(65.5,-103.,115.));
#1035=CARTESIAN_POINT('',(27.5,-104.,115.));
#1036=CARTESIAN_POINT('',(39.5,-99.,115.));
#1037=CARTESIAN_POINT('Origin',(65.5,-103.,82.));
#1038=CARTESIAN_POINT('',(70.3989794855664,-104.,82.));
#1039=CARTESIAN_POINT('',(70.5,-103.,82.));
#1040=CARTESIAN_POINT('Origin',(39.5,-99.,82.));
#1041=CARTESIAN_POINT('Origin',(70.5,-99.,82.));
#1042=CARTESIAN_POINT('Origin',(-10.5,-95.,82.));
#1043=CARTESIAN_POINT('',(-15.3989794855664,-94.,115.));
#1044=CARTESIAN_POINT('',(-15.3989794855664,-94.,49.));
#1045=CARTESIAN_POINT('',(-15.3989794855664,-94.,82.));
#1046=CARTESIAN_POINT('',(-15.5,-95.,115.));
#1047=CARTESIAN_POINT('Origin',(-10.5,-95.,115.));
#1048=CARTESIAN_POINT('',(-15.5,-95.,49.));
#1049=CARTESIAN_POINT('',(-15.5,-95.,82.));
#1050=CARTESIAN_POINT('Origin',(-10.5,-95.,49.));
#1051=CARTESIAN_POINT('Origin',(0.,-99.,49.));
#1052=CARTESIAN_POINT('',(15.3989794855664,-94.,49.));
#1053=CARTESIAN_POINT('',(0.,-94.,49.));
#1054=CARTESIAN_POINT('',(-15.5,-103.,49.));
#1055=CARTESIAN_POINT('',(-15.5,-99.,49.));
#1056=CARTESIAN_POINT('',(-15.3989794855664,-104.,49.));
#1057=CARTESIAN_POINT('Origin',(-10.5,-103.,49.));
#1058=CARTESIAN_POINT('',(15.3989794855664,-104.,49.));
#1059=CARTESIAN_POINT('',(0.,-104.,49.));
#1060=CARTESIAN_POINT('',(15.5,-103.,49.));
#1061=CARTESIAN_POINT('Origin',(10.5,-103.,49.));
#1062=CARTESIAN_POINT('',(15.5,-95.,49.));
#1063=CARTESIAN_POINT('',(15.5,-99.,49.));
#1064=CARTESIAN_POINT('Origin',(10.5,-95.,49.));
#1065=CARTESIAN_POINT('Origin',(-10.5,-103.,82.));
#1066=CARTESIAN_POINT('',(-15.3989794855664,-104.,115.));
#1067=CARTESIAN_POINT('',(-15.3989794855664,-104.,82.));
#1068=CARTESIAN_POINT('',(-15.5,-103.,115.));
#1069=CARTESIAN_POINT('',(-15.5,-103.,82.));
#1070=CARTESIAN_POINT('Origin',(-10.5,-103.,115.));
#1071=CARTESIAN_POINT('Origin',(10.5,-95.,82.));
#1072=CARTESIAN_POINT('',(15.3989794855664,-94.,115.));
#1073=CARTESIAN_POINT('',(15.3989794855664,-94.,82.));
#1074=CARTESIAN_POINT('',(15.5,-95.,115.));
#1075=CARTESIAN_POINT('',(15.5,-95.,82.));
#1076=CARTESIAN_POINT('Origin',(10.5,-95.,115.));
#1077=CARTESIAN_POINT('Origin',(0.,-99.,115.));
#1078=CARTESIAN_POINT('',(0.,-94.,115.));
#1079=CARTESIAN_POINT('',(15.5,-103.,115.));
#1080=CARTESIAN_POINT('',(15.5,-99.,115.));
#1081=CARTESIAN_POINT('',(15.3989794855664,-104.,115.));
#1082=CARTESIAN_POINT('Origin',(10.5,-103.,115.));
#1083=CARTESIAN_POINT('',(0.,-104.,115.));
#1084=CARTESIAN_POINT('',(-15.5,-99.,115.));
#1085=CARTESIAN_POINT('Origin',(10.5,-103.,82.));
#1086=CARTESIAN_POINT('',(15.3989794855664,-104.,82.));
#1087=CARTESIAN_POINT('',(15.5,-103.,82.));
#1088=CARTESIAN_POINT('Origin',(-15.5,-99.,82.));
#1089=CARTESIAN_POINT('Origin',(15.5,-99.,82.));
#1090=CARTESIAN_POINT('Origin',(-65.5,-95.,82.));
#1091=CARTESIAN_POINT('',(-70.3989794855664,-94.,115.));
#1092=CARTESIAN_POINT('',(-70.3989794855664,-94.,49.));
#1093=CARTESIAN_POINT('',(-70.3989794855664,-94.,82.));
#1094=CARTESIAN_POINT('',(-70.5,-95.,115.));
#1095=CARTESIAN_POINT('Origin',(-65.5,-95.,115.));
#1096=CARTESIAN_POINT('',(-70.5,-95.,49.));
#1097=CARTESIAN_POINT('',(-70.5,-95.,82.));
#1098=CARTESIAN_POINT('Origin',(-65.5,-95.,49.));
#1099=CARTESIAN_POINT('Origin',(-55.,-99.,49.));
#1100=CARTESIAN_POINT('',(-39.6010205144336,-94.,49.));
#1101=CARTESIAN_POINT('',(-27.5,-94.,49.));
#1102=CARTESIAN_POINT('',(-70.5,-103.,49.));
#1103=CARTESIAN_POINT('',(-70.5,-99.,49.));
#1104=CARTESIAN_POINT('',(-70.3989794855664,-104.,49.));
#1105=CARTESIAN_POINT('Origin',(-65.5,-103.,49.));
#1106=CARTESIAN_POINT('',(-39.6010205144336,-104.,49.));
#1107=CARTESIAN_POINT('',(-27.5,-104.,49.));
#1108=CARTESIAN_POINT('',(-39.5,-103.,49.));
#1109=CARTESIAN_POINT('Origin',(-44.5,-103.,49.));
#1110=CARTESIAN_POINT('',(-39.5,-95.,49.));
#1111=CARTESIAN_POINT('',(-39.5,-99.,49.));
#1112=CARTESIAN_POINT('Origin',(-44.5,-95.,49.));
#1113=CARTESIAN_POINT('Origin',(-65.5,-103.,82.));
#1114=CARTESIAN_POINT('',(-70.3989794855664,-104.,115.));
#1115=CARTESIAN_POINT('',(-70.3989794855664,-104.,82.));
#1116=CARTESIAN_POINT('',(-70.5,-103.,115.));
#1117=CARTESIAN_POINT('',(-70.5,-103.,82.));
#1118=CARTESIAN_POINT('Origin',(-65.5,-103.,115.));
#1119=CARTESIAN_POINT('Origin',(-44.5,-95.,82.));
#1120=CARTESIAN_POINT('',(-39.6010205144336,-94.,115.));
#1121=CARTESIAN_POINT('',(-39.6010205144336,-94.,82.));
#1122=CARTESIAN_POINT('',(-39.5,-95.,115.));
#1123=CARTESIAN_POINT('',(-39.5,-95.,82.));
#1124=CARTESIAN_POINT('Origin',(-44.5,-95.,115.));
#1125=CARTESIAN_POINT('Origin',(-55.,-99.,115.));
#1126=CARTESIAN_POINT('',(-27.5,-94.,115.));
#1127=CARTESIAN_POINT('',(-39.5,-103.,115.));
#1128=CARTESIAN_POINT('',(-39.5,-99.,115.));
#1129=CARTESIAN_POINT('',(-39.6010205144336,-104.,115.));
#1130=CARTESIAN_POINT('Origin',(-44.5,-103.,115.));
#1131=CARTESIAN_POINT('',(-27.5,-104.,115.));
#1132=CARTESIAN_POINT('',(-70.5,-99.,115.));
#1133=CARTESIAN_POINT('Origin',(-44.5,-103.,82.));
#1134=CARTESIAN_POINT('',(-39.6010205144336,-104.,82.));
#1135=CARTESIAN_POINT('',(-39.5,-103.,82.));
#1136=CARTESIAN_POINT('Origin',(-70.5,-99.,82.));
#1137=CARTESIAN_POINT('Origin',(-39.5,-99.,82.));
#1138=CARTESIAN_POINT('Origin',(0.,-99.,150.));
#1139=CARTESIAN_POINT('',(89.,-104.,150.));
#1140=CARTESIAN_POINT('',(89.,-94.,150.));
#1141=CARTESIAN_POINT('',(89.,-99.,150.));
#1142=CARTESIAN_POINT('',(-89.,-94.,150.));
#1143=CARTESIAN_POINT('',(0.,-94.,150.));
#1144=CARTESIAN_POINT('',(-89.,-104.,150.));
#1145=CARTESIAN_POINT('',(-89.,-99.,150.));
#1146=CARTESIAN_POINT('',(0.,-104.,150.));
#1147=CARTESIAN_POINT('Origin',(0.,-99.,14.));
#1148=CARTESIAN_POINT('',(89.,-94.,14.));
#1149=CARTESIAN_POINT('',(89.,-104.,14.));
#1150=CARTESIAN_POINT('',(89.,-99.,14.));
#1151=CARTESIAN_POINT('',(-89.,-104.,14.));
#1152=CARTESIAN_POINT('',(0.,-104.,14.));
#1153=CARTESIAN_POINT('',(-89.,-94.,14.));
#1154=CARTESIAN_POINT('',(-89.,-99.,14.));
#1155=CARTESIAN_POINT('',(0.,-94.,14.));
#1156=CARTESIAN_POINT('Origin',(0.,-104.,82.));
#1157=CARTESIAN_POINT('',(-89.,-104.,82.));
#1158=CARTESIAN_POINT('',(89.,-104.,82.));
#1159=CARTESIAN_POINT('Origin',(-89.,-99.,82.));
#1160=CARTESIAN_POINT('',(-89.,-94.,82.));
#1161=CARTESIAN_POINT('Origin',(0.,-94.,82.));
#1162=CARTESIAN_POINT('',(89.,-94.,82.));
#1163=CARTESIAN_POINT('Origin',(89.,-99.,82.));
#1164=UNCERTAINTY_MEASURE_WITH_UNIT(LENGTH_MEASURE(0.01),#1168,
'DISTANCE_ACCURACY_VALUE',
'Maximum model space distance between geometric entities at asserted c
onnectivities');
#1165=UNCERTAINTY_MEASURE_WITH_UNIT(LENGTH_MEASURE(0.01),#1168,
'DISTANCE_ACCURACY_VALUE',
'Maximum model space distance between geometric entities at asserted c
onnectivities');
#1166=(
GEOMETRIC_REPRESENTATION_CONTEXT(3)
GLOBAL_UNCERTAINTY_ASSIGNED_CONTEXT((#1164))
GLOBAL_UNIT_ASSIGNED_CONTEXT((#1168,#1170,#1171))
REPRESENTATION_CONTEXT('','3D')
);
#1167=(
GEOMETRIC_REPRESENTATION_CONTEXT(3)
GLOBAL_UNCERTAINTY_ASSIGNED_CONTEXT((#1165))
GLOBAL_UNIT_ASSIGNED_CONTEXT((#1168,#1170,#1171))
REPRESENTATION_CONTEXT('','3D')
);
#1168=(
LENGTH_UNIT()
NAMED_UNIT(*)
SI_UNIT(.MILLI.,.METRE.)
);
#1169=(
LENGTH_UNIT()
NAMED_UNIT(*)
SI_UNIT($,.METRE.)
);
#1170=(
NAMED_UNIT(*)
PLANE_ANGLE_UNIT()
SI_UNIT($,.RADIAN.)
);
#1171=(
NAMED_UNIT(*)
SI_UNIT($,.STERADIAN.)
SOLID_ANGLE_UNIT()
);
#1172=SHAPE_DEFINITION_REPRESENTATION(#1173,#1174);
#1173=PRODUCT_DEFINITION_SHAPE('',$,#1176);
#1174=SHAPE_REPRESENTATION('',(#704),#1166);
#1175=PRODUCT_DEFINITION_CONTEXT('part definition',#1180,'design');
#1176=PRODUCT_DEFINITION('2026-08-12-23-06-08-850',
'EXPORT_TMP_PRINT_P003_BaseFrontPanel',#1177,#1175);
#1177=PRODUCT_DEFINITION_FORMATION('',$,#1182);
#1178=PRODUCT_RELATED_PRODUCT_CATEGORY(
'EXPORT_TMP_PRINT_P003_BaseFrontPanel',
'EXPORT_TMP_PRINT_P003_BaseFrontPanel',(#1182));
#1179=APPLICATION_PROTOCOL_DEFINITION('international standard',
'automotive_design',2009,#1180);
#1180=APPLICATION_CONTEXT(
'Core Data for Automotive Mechanical Design Process');
#1181=PRODUCT_CONTEXT('part definition',#1180,'mechanical');
#1182=PRODUCT('2026-08-12-23-06-08-850',
'EXPORT_TMP_PRINT_P003_BaseFrontPanel',$,(#1181));
#1183=PRESENTATION_STYLE_ASSIGNMENT((#1184));
#1184=SURFACE_STYLE_USAGE(.BOTH.,#1185);
#1185=SURFACE_SIDE_STYLE('',(#1186));
#1186=SURFACE_STYLE_FILL_AREA(#1187);
#1187=FILL_AREA_STYLE('Steel - Satin',(#1188));
#1188=FILL_AREA_STYLE_COLOUR('Steel - Satin',#1189);
#1189=COLOUR_RGB('Steel - Satin',0.627450980392157,0.627450980392157,0.627450980392157);
ENDSEC;
END-ISO-10303-21;
