ISO-10303-21;
HEADER;
/* Generated by software containing ST-Developer
 * from STEP Tools, Inc. (www.steptools.com) 
 */

FILE_DESCRIPTION(
/* description */ (''),
/* implementation_level */ '2;1');

FILE_NAME(
/* name */ 'PRINT_P005_BaseLeftPanel.step',
/* time_stamp */ '2026-08-12T23:06:14+02:00',
/* author */ (''),
/* organization */ (''),
/* preprocessor_version */ 'ST-DEVELOPER v20.1',
/* originating_system */ 'Autodesk Translation Framework v15.8.0.0',
/* authorisation */ '');

FILE_SCHEMA (('AUTOMOTIVE_DESIGN { 1 0 10303 214 3 1 1 }'));
ENDSEC;

DATA;
#10=MECHANICAL_DESIGN_GEOMETRIC_PRESENTATION_REPRESENTATION('',(#13),#747);
#11=SHAPE_REPRESENTATION_RELATIONSHIP('SRR','None',#754,#12);
#12=ADVANCED_BREP_SHAPE_REPRESENTATION('',(#14),#746);
#13=STYLED_ITEM('',(#763),#14);
#14=MANIFOLD_SOLID_BREP('PRINT_P005_BaseLeftPanel',#463);
#15=FACE_BOUND('',#89,.T.);
#16=FACE_BOUND('',#90,.T.);
#17=FACE_BOUND('',#91,.T.);
#18=FACE_BOUND('',#92,.T.);
#19=FACE_BOUND('',#93,.T.);
#20=FACE_BOUND('',#94,.T.);
#21=FACE_BOUND('',#95,.T.);
#22=FACE_BOUND('',#98,.T.);
#23=FACE_BOUND('',#99,.T.);
#24=FACE_BOUND('',#100,.T.);
#25=FACE_BOUND('',#101,.T.);
#26=FACE_BOUND('',#102,.T.);
#27=FACE_BOUND('',#103,.T.);
#28=FACE_BOUND('',#104,.T.);
#29=PLANE('',#489);
#30=PLANE('',#490);
#31=PLANE('',#491);
#32=PLANE('',#492);
#33=PLANE('',#493);
#34=PLANE('',#494);
#35=PLANE('',#495);
#36=PLANE('',#496);
#37=PLANE('',#497);
#38=PLANE('',#498);
#39=PLANE('',#499);
#40=PLANE('',#500);
#41=PLANE('',#501);
#42=PLANE('',#502);
#43=PLANE('',#503);
#44=PLANE('',#504);
#45=PLANE('',#505);
#46=PLANE('',#506);
#47=FACE_OUTER_BOUND('',#69,.T.);
#48=FACE_OUTER_BOUND('',#70,.T.);
#49=FACE_OUTER_BOUND('',#71,.T.);
#50=FACE_OUTER_BOUND('',#72,.T.);
#51=FACE_OUTER_BOUND('',#73,.T.);
#52=FACE_OUTER_BOUND('',#74,.T.);
#53=FACE_OUTER_BOUND('',#75,.T.);
#54=FACE_OUTER_BOUND('',#76,.T.);
#55=FACE_OUTER_BOUND('',#77,.T.);
#56=FACE_OUTER_BOUND('',#78,.T.);
#57=FACE_OUTER_BOUND('',#79,.T.);
#58=FACE_OUTER_BOUND('',#80,.T.);
#59=FACE_OUTER_BOUND('',#81,.T.);
#60=FACE_OUTER_BOUND('',#82,.T.);
#61=FACE_OUTER_BOUND('',#83,.T.);
#62=FACE_OUTER_BOUND('',#84,.T.);
#63=FACE_OUTER_BOUND('',#85,.T.);
#64=FACE_OUTER_BOUND('',#86,.T.);
#65=FACE_OUTER_BOUND('',#87,.T.);
#66=FACE_OUTER_BOUND('',#88,.T.);
#67=FACE_OUTER_BOUND('',#96,.T.);
#68=FACE_OUTER_BOUND('',#97,.T.);
#69=EDGE_LOOP('',(#317,#318,#319,#320));
#70=EDGE_LOOP('',(#321,#322,#323,#324));
#71=EDGE_LOOP('',(#325,#326,#327,#328));
#72=EDGE_LOOP('',(#329,#330,#331,#332));
#73=EDGE_LOOP('',(#333,#334,#335,#336));
#74=EDGE_LOOP('',(#337,#338,#339,#340));
#75=EDGE_LOOP('',(#341,#342,#343,#344));
#76=EDGE_LOOP('',(#345,#346,#347,#348));
#77=EDGE_LOOP('',(#349,#350,#351,#352));
#78=EDGE_LOOP('',(#353,#354,#355,#356));
#79=EDGE_LOOP('',(#357,#358,#359,#360));
#80=EDGE_LOOP('',(#361,#362,#363,#364));
#81=EDGE_LOOP('',(#365,#366,#367,#368));
#82=EDGE_LOOP('',(#369,#370,#371,#372));
#83=EDGE_LOOP('',(#373,#374,#375,#376));
#84=EDGE_LOOP('',(#377,#378,#379,#380));
#85=EDGE_LOOP('',(#381,#382,#383,#384));
#86=EDGE_LOOP('',(#385,#386,#387,#388));
#87=EDGE_LOOP('',(#389,#390,#391,#392));
#88=EDGE_LOOP('',(#393,#394,#395,#396));
#89=EDGE_LOOP('',(#397));
#90=EDGE_LOOP('',(#398));
#91=EDGE_LOOP('',(#399));
#92=EDGE_LOOP('',(#400));
#93=EDGE_LOOP('',(#401,#402,#403,#404));
#94=EDGE_LOOP('',(#405,#406,#407,#408));
#95=EDGE_LOOP('',(#409,#410,#411,#412));
#96=EDGE_LOOP('',(#413,#414,#415,#416));
#97=EDGE_LOOP('',(#417,#418,#419,#420));
#98=EDGE_LOOP('',(#421));
#99=EDGE_LOOP('',(#422));
#100=EDGE_LOOP('',(#423));
#101=EDGE_LOOP('',(#424));
#102=EDGE_LOOP('',(#425,#426,#427,#428));
#103=EDGE_LOOP('',(#429,#430,#431,#432));
#104=EDGE_LOOP('',(#433,#434,#435,#436));
#105=LINE('',#626,#157);
#106=LINE('',#632,#158);
#107=LINE('',#638,#159);
#108=LINE('',#644,#160);
#109=LINE('',#649,#161);
#110=LINE('',#651,#162);
#111=LINE('',#653,#163);
#112=LINE('',#654,#164);
#113=LINE('',#657,#165);
#114=LINE('',#659,#166);
#115=LINE('',#660,#167);
#116=LINE('',#663,#168);
#117=LINE('',#665,#169);
#118=LINE('',#666,#170);
#119=LINE('',#668,#171);
#120=LINE('',#669,#172);
#121=LINE('',#673,#173);
#122=LINE('',#675,#174);
#123=LINE('',#677,#175);
#124=LINE('',#678,#176);
#125=LINE('',#681,#177);
#126=LINE('',#683,#178);
#127=LINE('',#684,#179);
#128=LINE('',#687,#180);
#129=LINE('',#689,#181);
#130=LINE('',#690,#182);
#131=LINE('',#692,#183);
#132=LINE('',#693,#184);
#133=LINE('',#697,#185);
#134=LINE('',#699,#186);
#135=LINE('',#701,#187);
#136=LINE('',#702,#188);
#137=LINE('',#705,#189);
#138=LINE('',#707,#190);
#139=LINE('',#708,#191);
#140=LINE('',#711,#192);
#141=LINE('',#713,#193);
#142=LINE('',#714,#194);
#143=LINE('',#716,#195);
#144=LINE('',#717,#196);
#145=LINE('',#721,#197);
#146=LINE('',#723,#198);
#147=LINE('',#725,#199);
#148=LINE('',#726,#200);
#149=LINE('',#730,#201);
#150=LINE('',#732,#202);
#151=LINE('',#734,#203);
#152=LINE('',#735,#204);
#153=LINE('',#737,#205);
#154=LINE('',#738,#206);
#155=LINE('',#740,#207);
#156=LINE('',#742,#208);
#157=VECTOR('',#513,2.2);
#158=VECTOR('',#520,2.2);
#159=VECTOR('',#527,2.2);
#160=VECTOR('',#534,2.2);
#161=VECTOR('',#539,10.);
#162=VECTOR('',#540,10.);
#163=VECTOR('',#541,10.);
#164=VECTOR('',#542,10.);
#165=VECTOR('',#545,10.);
#166=VECTOR('',#546,10.);
#167=VECTOR('',#547,10.);
#168=VECTOR('',#550,10.);
#169=VECTOR('',#551,10.);
#170=VECTOR('',#552,10.);
#171=VECTOR('',#555,10.);
#172=VECTOR('',#556,10.);
#173=VECTOR('',#559,10.);
#174=VECTOR('',#560,10.);
#175=VECTOR('',#561,10.);
#176=VECTOR('',#562,10.);
#177=VECTOR('',#565,10.);
#178=VECTOR('',#566,10.);
#179=VECTOR('',#567,10.);
#180=VECTOR('',#570,10.);
#181=VECTOR('',#571,10.);
#182=VECTOR('',#572,10.);
#183=VECTOR('',#575,10.);
#184=VECTOR('',#576,10.);
#185=VECTOR('',#579,10.);
#186=VECTOR('',#580,10.);
#187=VECTOR('',#581,10.);
#188=VECTOR('',#582,10.);
#189=VECTOR('',#585,10.);
#190=VECTOR('',#586,10.);
#191=VECTOR('',#587,10.);
#192=VECTOR('',#590,10.);
#193=VECTOR('',#591,10.);
#194=VECTOR('',#592,10.);
#195=VECTOR('',#595,10.);
#196=VECTOR('',#596,10.);
#197=VECTOR('',#599,10.);
#198=VECTOR('',#600,10.);
#199=VECTOR('',#601,10.);
#200=VECTOR('',#602,10.);
#201=VECTOR('',#605,10.);
#202=VECTOR('',#606,10.);
#203=VECTOR('',#607,10.);
#204=VECTOR('',#608,10.);
#205=VECTOR('',#611,10.);
#206=VECTOR('',#612,10.);
#207=VECTOR('',#615,10.);
#208=VECTOR('',#618,10.);
#209=CIRCLE('',#478,2.2);
#210=CIRCLE('',#479,2.2);
#211=CIRCLE('',#481,2.2);
#212=CIRCLE('',#482,2.2);
#213=CIRCLE('',#484,2.2);
#214=CIRCLE('',#485,2.2);
#215=CIRCLE('',#487,2.2);
#216=CIRCLE('',#488,2.2);
#217=VERTEX_POINT('',#623);
#218=VERTEX_POINT('',#625);
#219=VERTEX_POINT('',#629);
#220=VERTEX_POINT('',#631);
#221=VERTEX_POINT('',#635);
#222=VERTEX_POINT('',#637);
#223=VERTEX_POINT('',#641);
#224=VERTEX_POINT('',#643);
#225=VERTEX_POINT('',#647);
#226=VERTEX_POINT('',#648);
#227=VERTEX_POINT('',#650);
#228=VERTEX_POINT('',#652);
#229=VERTEX_POINT('',#656);
#230=VERTEX_POINT('',#658);
#231=VERTEX_POINT('',#662);
#232=VERTEX_POINT('',#664);
#233=VERTEX_POINT('',#671);
#234=VERTEX_POINT('',#672);
#235=VERTEX_POINT('',#674);
#236=VERTEX_POINT('',#676);
#237=VERTEX_POINT('',#680);
#238=VERTEX_POINT('',#682);
#239=VERTEX_POINT('',#686);
#240=VERTEX_POINT('',#688);
#241=VERTEX_POINT('',#695);
#242=VERTEX_POINT('',#696);
#243=VERTEX_POINT('',#698);
#244=VERTEX_POINT('',#700);
#245=VERTEX_POINT('',#704);
#246=VERTEX_POINT('',#706);
#247=VERTEX_POINT('',#710);
#248=VERTEX_POINT('',#712);
#249=VERTEX_POINT('',#719);
#250=VERTEX_POINT('',#720);
#251=VERTEX_POINT('',#722);
#252=VERTEX_POINT('',#724);
#253=VERTEX_POINT('',#728);
#254=VERTEX_POINT('',#729);
#255=VERTEX_POINT('',#731);
#256=VERTEX_POINT('',#733);
#257=EDGE_CURVE('',#217,#217,#209,.T.);
#258=EDGE_CURVE('',#217,#218,#105,.T.);
#259=EDGE_CURVE('',#218,#218,#210,.T.);
#260=EDGE_CURVE('',#219,#219,#211,.T.);
#261=EDGE_CURVE('',#219,#220,#106,.T.);
#262=EDGE_CURVE('',#220,#220,#212,.T.);
#263=EDGE_CURVE('',#221,#221,#213,.T.);
#264=EDGE_CURVE('',#221,#222,#107,.T.);
#265=EDGE_CURVE('',#222,#222,#214,.T.);
#266=EDGE_CURVE('',#223,#223,#215,.T.);
#267=EDGE_CURVE('',#223,#224,#108,.T.);
#268=EDGE_CURVE('',#224,#224,#216,.T.);
#269=EDGE_CURVE('',#225,#226,#109,.T.);
#270=EDGE_CURVE('',#227,#225,#110,.T.);
#271=EDGE_CURVE('',#228,#227,#111,.T.);
#272=EDGE_CURVE('',#226,#228,#112,.T.);
#273=EDGE_CURVE('',#226,#229,#113,.T.);
#274=EDGE_CURVE('',#230,#228,#114,.T.);
#275=EDGE_CURVE('',#230,#229,#115,.T.);
#276=EDGE_CURVE('',#229,#231,#116,.T.);
#277=EDGE_CURVE('',#232,#230,#117,.T.);
#278=EDGE_CURVE('',#231,#232,#118,.T.);
#279=EDGE_CURVE('',#231,#225,#119,.T.);
#280=EDGE_CURVE('',#227,#232,#120,.T.);
#281=EDGE_CURVE('',#233,#234,#121,.T.);
#282=EDGE_CURVE('',#235,#233,#122,.T.);
#283=EDGE_CURVE('',#236,#235,#123,.T.);
#284=EDGE_CURVE('',#234,#236,#124,.T.);
#285=EDGE_CURVE('',#234,#237,#125,.T.);
#286=EDGE_CURVE('',#238,#236,#126,.T.);
#287=EDGE_CURVE('',#238,#237,#127,.T.);
#288=EDGE_CURVE('',#237,#239,#128,.T.);
#289=EDGE_CURVE('',#240,#238,#129,.T.);
#290=EDGE_CURVE('',#239,#240,#130,.T.);
#291=EDGE_CURVE('',#239,#233,#131,.T.);
#292=EDGE_CURVE('',#235,#240,#132,.T.);
#293=EDGE_CURVE('',#241,#242,#133,.T.);
#294=EDGE_CURVE('',#243,#241,#134,.T.);
#295=EDGE_CURVE('',#244,#243,#135,.T.);
#296=EDGE_CURVE('',#242,#244,#136,.T.);
#297=EDGE_CURVE('',#242,#245,#137,.T.);
#298=EDGE_CURVE('',#246,#244,#138,.T.);
#299=EDGE_CURVE('',#246,#245,#139,.T.);
#300=EDGE_CURVE('',#245,#247,#140,.T.);
#301=EDGE_CURVE('',#248,#246,#141,.T.);
#302=EDGE_CURVE('',#247,#248,#142,.T.);
#303=EDGE_CURVE('',#247,#241,#143,.T.);
#304=EDGE_CURVE('',#243,#248,#144,.T.);
#305=EDGE_CURVE('',#249,#250,#145,.T.);
#306=EDGE_CURVE('',#250,#251,#146,.T.);
#307=EDGE_CURVE('',#251,#252,#147,.T.);
#308=EDGE_CURVE('',#252,#249,#148,.T.);
#309=EDGE_CURVE('',#253,#254,#149,.T.);
#310=EDGE_CURVE('',#254,#255,#150,.T.);
#311=EDGE_CURVE('',#255,#256,#151,.T.);
#312=EDGE_CURVE('',#256,#253,#152,.T.);
#313=EDGE_CURVE('',#252,#255,#153,.T.);
#314=EDGE_CURVE('',#249,#254,#154,.T.);
#315=EDGE_CURVE('',#251,#256,#155,.T.);
#316=EDGE_CURVE('',#250,#253,#156,.T.);
#317=ORIENTED_EDGE('',*,*,#257,.F.);
#318=ORIENTED_EDGE('',*,*,#258,.T.);
#319=ORIENTED_EDGE('',*,*,#259,.F.);
#320=ORIENTED_EDGE('',*,*,#258,.F.);
#321=ORIENTED_EDGE('',*,*,#260,.F.);
#322=ORIENTED_EDGE('',*,*,#261,.T.);
#323=ORIENTED_EDGE('',*,*,#262,.F.);
#324=ORIENTED_EDGE('',*,*,#261,.F.);
#325=ORIENTED_EDGE('',*,*,#263,.F.);
#326=ORIENTED_EDGE('',*,*,#264,.T.);
#327=ORIENTED_EDGE('',*,*,#265,.F.);
#328=ORIENTED_EDGE('',*,*,#264,.F.);
#329=ORIENTED_EDGE('',*,*,#266,.F.);
#330=ORIENTED_EDGE('',*,*,#267,.T.);
#331=ORIENTED_EDGE('',*,*,#268,.F.);
#332=ORIENTED_EDGE('',*,*,#267,.F.);
#333=ORIENTED_EDGE('',*,*,#269,.F.);
#334=ORIENTED_EDGE('',*,*,#270,.F.);
#335=ORIENTED_EDGE('',*,*,#271,.F.);
#336=ORIENTED_EDGE('',*,*,#272,.F.);
#337=ORIENTED_EDGE('',*,*,#273,.F.);
#338=ORIENTED_EDGE('',*,*,#272,.T.);
#339=ORIENTED_EDGE('',*,*,#274,.F.);
#340=ORIENTED_EDGE('',*,*,#275,.T.);
#341=ORIENTED_EDGE('',*,*,#276,.F.);
#342=ORIENTED_EDGE('',*,*,#275,.F.);
#343=ORIENTED_EDGE('',*,*,#277,.F.);
#344=ORIENTED_EDGE('',*,*,#278,.F.);
#345=ORIENTED_EDGE('',*,*,#279,.F.);
#346=ORIENTED_EDGE('',*,*,#278,.T.);
#347=ORIENTED_EDGE('',*,*,#280,.F.);
#348=ORIENTED_EDGE('',*,*,#270,.T.);
#349=ORIENTED_EDGE('',*,*,#281,.F.);
#350=ORIENTED_EDGE('',*,*,#282,.F.);
#351=ORIENTED_EDGE('',*,*,#283,.F.);
#352=ORIENTED_EDGE('',*,*,#284,.F.);
#353=ORIENTED_EDGE('',*,*,#285,.F.);
#354=ORIENTED_EDGE('',*,*,#284,.T.);
#355=ORIENTED_EDGE('',*,*,#286,.F.);
#356=ORIENTED_EDGE('',*,*,#287,.T.);
#357=ORIENTED_EDGE('',*,*,#288,.F.);
#358=ORIENTED_EDGE('',*,*,#287,.F.);
#359=ORIENTED_EDGE('',*,*,#289,.F.);
#360=ORIENTED_EDGE('',*,*,#290,.F.);
#361=ORIENTED_EDGE('',*,*,#291,.F.);
#362=ORIENTED_EDGE('',*,*,#290,.T.);
#363=ORIENTED_EDGE('',*,*,#292,.F.);
#364=ORIENTED_EDGE('',*,*,#282,.T.);
#365=ORIENTED_EDGE('',*,*,#293,.F.);
#366=ORIENTED_EDGE('',*,*,#294,.F.);
#367=ORIENTED_EDGE('',*,*,#295,.F.);
#368=ORIENTED_EDGE('',*,*,#296,.F.);
#369=ORIENTED_EDGE('',*,*,#297,.F.);
#370=ORIENTED_EDGE('',*,*,#296,.T.);
#371=ORIENTED_EDGE('',*,*,#298,.F.);
#372=ORIENTED_EDGE('',*,*,#299,.T.);
#373=ORIENTED_EDGE('',*,*,#300,.F.);
#374=ORIENTED_EDGE('',*,*,#299,.F.);
#375=ORIENTED_EDGE('',*,*,#301,.F.);
#376=ORIENTED_EDGE('',*,*,#302,.F.);
#377=ORIENTED_EDGE('',*,*,#303,.F.);
#378=ORIENTED_EDGE('',*,*,#302,.T.);
#379=ORIENTED_EDGE('',*,*,#304,.F.);
#380=ORIENTED_EDGE('',*,*,#294,.T.);
#381=ORIENTED_EDGE('',*,*,#305,.T.);
#382=ORIENTED_EDGE('',*,*,#306,.T.);
#383=ORIENTED_EDGE('',*,*,#307,.T.);
#384=ORIENTED_EDGE('',*,*,#308,.T.);
#385=ORIENTED_EDGE('',*,*,#309,.T.);
#386=ORIENTED_EDGE('',*,*,#310,.T.);
#387=ORIENTED_EDGE('',*,*,#311,.T.);
#388=ORIENTED_EDGE('',*,*,#312,.T.);
#389=ORIENTED_EDGE('',*,*,#313,.T.);
#390=ORIENTED_EDGE('',*,*,#310,.F.);
#391=ORIENTED_EDGE('',*,*,#314,.F.);
#392=ORIENTED_EDGE('',*,*,#308,.F.);
#393=ORIENTED_EDGE('',*,*,#315,.T.);
#394=ORIENTED_EDGE('',*,*,#311,.F.);
#395=ORIENTED_EDGE('',*,*,#313,.F.);
#396=ORIENTED_EDGE('',*,*,#307,.F.);
#397=ORIENTED_EDGE('',*,*,#257,.T.);
#398=ORIENTED_EDGE('',*,*,#260,.T.);
#399=ORIENTED_EDGE('',*,*,#263,.T.);
#400=ORIENTED_EDGE('',*,*,#266,.T.);
#401=ORIENTED_EDGE('',*,*,#276,.T.);
#402=ORIENTED_EDGE('',*,*,#279,.T.);
#403=ORIENTED_EDGE('',*,*,#269,.T.);
#404=ORIENTED_EDGE('',*,*,#273,.T.);
#405=ORIENTED_EDGE('',*,*,#288,.T.);
#406=ORIENTED_EDGE('',*,*,#291,.T.);
#407=ORIENTED_EDGE('',*,*,#281,.T.);
#408=ORIENTED_EDGE('',*,*,#285,.T.);
#409=ORIENTED_EDGE('',*,*,#300,.T.);
#410=ORIENTED_EDGE('',*,*,#303,.T.);
#411=ORIENTED_EDGE('',*,*,#293,.T.);
#412=ORIENTED_EDGE('',*,*,#297,.T.);
#413=ORIENTED_EDGE('',*,*,#316,.T.);
#414=ORIENTED_EDGE('',*,*,#312,.F.);
#415=ORIENTED_EDGE('',*,*,#315,.F.);
#416=ORIENTED_EDGE('',*,*,#306,.F.);
#417=ORIENTED_EDGE('',*,*,#314,.T.);
#418=ORIENTED_EDGE('',*,*,#309,.F.);
#419=ORIENTED_EDGE('',*,*,#316,.F.);
#420=ORIENTED_EDGE('',*,*,#305,.F.);
#421=ORIENTED_EDGE('',*,*,#259,.T.);
#422=ORIENTED_EDGE('',*,*,#262,.T.);
#423=ORIENTED_EDGE('',*,*,#265,.T.);
#424=ORIENTED_EDGE('',*,*,#268,.T.);
#425=ORIENTED_EDGE('',*,*,#277,.T.);
#426=ORIENTED_EDGE('',*,*,#274,.T.);
#427=ORIENTED_EDGE('',*,*,#271,.T.);
#428=ORIENTED_EDGE('',*,*,#280,.T.);
#429=ORIENTED_EDGE('',*,*,#289,.T.);
#430=ORIENTED_EDGE('',*,*,#286,.T.);
#431=ORIENTED_EDGE('',*,*,#283,.T.);
#432=ORIENTED_EDGE('',*,*,#292,.T.);
#433=ORIENTED_EDGE('',*,*,#301,.T.);
#434=ORIENTED_EDGE('',*,*,#298,.T.);
#435=ORIENTED_EDGE('',*,*,#295,.T.);
#436=ORIENTED_EDGE('',*,*,#304,.T.);
#437=CYLINDRICAL_SURFACE('',#477,2.2);
#438=CYLINDRICAL_SURFACE('',#480,2.2);
#439=CYLINDRICAL_SURFACE('',#483,2.2);
#440=CYLINDRICAL_SURFACE('',#486,2.2);
#441=ADVANCED_FACE('',(#47),#437,.F.);
#442=ADVANCED_FACE('',(#48),#438,.F.);
#443=ADVANCED_FACE('',(#49),#439,.F.);
#444=ADVANCED_FACE('',(#50),#440,.F.);
#445=ADVANCED_FACE('',(#51),#29,.F.);
#446=ADVANCED_FACE('',(#52),#30,.T.);
#447=ADVANCED_FACE('',(#53),#31,.T.);
#448=ADVANCED_FACE('',(#54),#32,.T.);
#449=ADVANCED_FACE('',(#55),#33,.F.);
#450=ADVANCED_FACE('',(#56),#34,.T.);
#451=ADVANCED_FACE('',(#57),#35,.T.);
#452=ADVANCED_FACE('',(#58),#36,.T.);
#453=ADVANCED_FACE('',(#59),#37,.F.);
#454=ADVANCED_FACE('',(#60),#38,.T.);
#455=ADVANCED_FACE('',(#61),#39,.T.);
#456=ADVANCED_FACE('',(#62),#40,.T.);
#457=ADVANCED_FACE('',(#63),#41,.T.);
#458=ADVANCED_FACE('',(#64),#42,.F.);
#459=ADVANCED_FACE('',(#65),#43,.F.);
#460=ADVANCED_FACE('',(#66,#15,#16,#17,#18,#19,#20,#21),#44,.F.);
#461=ADVANCED_FACE('',(#67),#45,.F.);
#462=ADVANCED_FACE('',(#68,#22,#23,#24,#25,#26,#27,#28),#46,.F.);
#463=CLOSED_SHELL('',(#441,#442,#443,#444,#445,#446,#447,#448,#449,#450,
#451,#452,#453,#454,#455,#456,#457,#458,#459,#460,#461,#462));
#464=DERIVED_UNIT_ELEMENT(#466,1.);
#465=DERIVED_UNIT_ELEMENT(#749,-3.);
#466=(
MASS_UNIT()
NAMED_UNIT(*)
SI_UNIT(.KILO.,.GRAM.)
);
#467=DERIVED_UNIT((#464,#465));
#468=MEASURE_REPRESENTATION_ITEM('density measure',
POSITIVE_RATIO_MEASURE(7850.),#467);
#469=PROPERTY_DEFINITION_REPRESENTATION(#474,#471);
#470=PROPERTY_DEFINITION_REPRESENTATION(#475,#472);
#471=REPRESENTATION('material name',(#473),#746);
#472=REPRESENTATION('density',(#468),#746);
#473=DESCRIPTIVE_REPRESENTATION_ITEM('Steel','Steel');
#474=PROPERTY_DEFINITION('material property','material name',#756);
#475=PROPERTY_DEFINITION('material property','density of part',#756);
#476=AXIS2_PLACEMENT_3D('',#621,#507,#508);
#477=AXIS2_PLACEMENT_3D('',#622,#509,#510);
#478=AXIS2_PLACEMENT_3D('',#624,#511,#512);
#479=AXIS2_PLACEMENT_3D('',#627,#514,#515);
#480=AXIS2_PLACEMENT_3D('',#628,#516,#517);
#481=AXIS2_PLACEMENT_3D('',#630,#518,#519);
#482=AXIS2_PLACEMENT_3D('',#633,#521,#522);
#483=AXIS2_PLACEMENT_3D('',#634,#523,#524);
#484=AXIS2_PLACEMENT_3D('',#636,#525,#526);
#485=AXIS2_PLACEMENT_3D('',#639,#528,#529);
#486=AXIS2_PLACEMENT_3D('',#640,#530,#531);
#487=AXIS2_PLACEMENT_3D('',#642,#532,#533);
#488=AXIS2_PLACEMENT_3D('',#645,#535,#536);
#489=AXIS2_PLACEMENT_3D('',#646,#537,#538);
#490=AXIS2_PLACEMENT_3D('',#655,#543,#544);
#491=AXIS2_PLACEMENT_3D('',#661,#548,#549);
#492=AXIS2_PLACEMENT_3D('',#667,#553,#554);
#493=AXIS2_PLACEMENT_3D('',#670,#557,#558);
#494=AXIS2_PLACEMENT_3D('',#679,#563,#564);
#495=AXIS2_PLACEMENT_3D('',#685,#568,#569);
#496=AXIS2_PLACEMENT_3D('',#691,#573,#574);
#497=AXIS2_PLACEMENT_3D('',#694,#577,#578);
#498=AXIS2_PLACEMENT_3D('',#703,#583,#584);
#499=AXIS2_PLACEMENT_3D('',#709,#588,#589);
#500=AXIS2_PLACEMENT_3D('',#715,#593,#594);
#501=AXIS2_PLACEMENT_3D('',#718,#597,#598);
#502=AXIS2_PLACEMENT_3D('',#727,#603,#604);
#503=AXIS2_PLACEMENT_3D('',#736,#609,#610);
#504=AXIS2_PLACEMENT_3D('',#739,#613,#614);
#505=AXIS2_PLACEMENT_3D('',#741,#616,#617);
#506=AXIS2_PLACEMENT_3D('',#743,#619,#620);
#507=DIRECTION('axis',(0.,0.,1.));
#508=DIRECTION('refdir',(1.,0.,0.));
#509=DIRECTION('center_axis',(1.,0.,0.));
#510=DIRECTION('ref_axis',(0.,0.,-1.));
#511=DIRECTION('center_axis',(1.,0.,0.));
#512=DIRECTION('ref_axis',(0.,0.,-1.));
#513=DIRECTION('',(1.,0.,0.));
#514=DIRECTION('center_axis',(-1.,0.,0.));
#515=DIRECTION('ref_axis',(0.,0.,-1.));
#516=DIRECTION('center_axis',(1.,0.,0.));
#517=DIRECTION('ref_axis',(0.,0.,-1.));
#518=DIRECTION('center_axis',(1.,0.,0.));
#519=DIRECTION('ref_axis',(0.,0.,-1.));
#520=DIRECTION('',(1.,0.,0.));
#521=DIRECTION('center_axis',(-1.,0.,0.));
#522=DIRECTION('ref_axis',(0.,0.,-1.));
#523=DIRECTION('center_axis',(1.,0.,0.));
#524=DIRECTION('ref_axis',(0.,0.,-1.));
#525=DIRECTION('center_axis',(1.,0.,0.));
#526=DIRECTION('ref_axis',(0.,0.,-1.));
#527=DIRECTION('',(1.,0.,0.));
#528=DIRECTION('center_axis',(-1.,0.,0.));
#529=DIRECTION('ref_axis',(0.,0.,-1.));
#530=DIRECTION('center_axis',(1.,0.,0.));
#531=DIRECTION('ref_axis',(0.,0.,-1.));
#532=DIRECTION('center_axis',(1.,0.,0.));
#533=DIRECTION('ref_axis',(0.,0.,-1.));
#534=DIRECTION('',(1.,0.,0.));
#535=DIRECTION('center_axis',(-1.,0.,0.));
#536=DIRECTION('ref_axis',(0.,0.,-1.));
#537=DIRECTION('center_axis',(0.,0.,1.));
#538=DIRECTION('ref_axis',(1.,0.,0.));
#539=DIRECTION('',(0.,-1.,0.));
#540=DIRECTION('',(-1.,0.,0.));
#541=DIRECTION('',(0.,1.,0.));
#542=DIRECTION('',(1.,0.,0.));
#543=DIRECTION('center_axis',(0.,1.,0.));
#544=DIRECTION('ref_axis',(0.,0.,1.));
#545=DIRECTION('',(0.,0.,-1.));
#546=DIRECTION('',(0.,0.,1.));
#547=DIRECTION('',(-1.,0.,0.));
#548=DIRECTION('center_axis',(0.,0.,1.));
#549=DIRECTION('ref_axis',(1.,0.,0.));
#550=DIRECTION('',(0.,1.,0.));
#551=DIRECTION('',(0.,-1.,0.));
#552=DIRECTION('',(1.,0.,0.));
#553=DIRECTION('center_axis',(0.,-1.,0.));
#554=DIRECTION('ref_axis',(0.,0.,-1.));
#555=DIRECTION('',(0.,0.,1.));
#556=DIRECTION('',(0.,0.,-1.));
#557=DIRECTION('center_axis',(0.,0.,1.));
#558=DIRECTION('ref_axis',(1.,0.,0.));
#559=DIRECTION('',(0.,-1.,0.));
#560=DIRECTION('',(-1.,0.,0.));
#561=DIRECTION('',(0.,1.,0.));
#562=DIRECTION('',(1.,0.,0.));
#563=DIRECTION('center_axis',(0.,1.,0.));
#564=DIRECTION('ref_axis',(0.,0.,1.));
#565=DIRECTION('',(0.,0.,-1.));
#566=DIRECTION('',(0.,0.,1.));
#567=DIRECTION('',(-1.,0.,0.));
#568=DIRECTION('center_axis',(0.,0.,1.));
#569=DIRECTION('ref_axis',(1.,0.,0.));
#570=DIRECTION('',(0.,1.,0.));
#571=DIRECTION('',(0.,-1.,0.));
#572=DIRECTION('',(1.,0.,0.));
#573=DIRECTION('center_axis',(0.,-1.,0.));
#574=DIRECTION('ref_axis',(0.,0.,-1.));
#575=DIRECTION('',(0.,0.,1.));
#576=DIRECTION('',(0.,0.,-1.));
#577=DIRECTION('center_axis',(0.,0.,1.));
#578=DIRECTION('ref_axis',(1.,0.,0.));
#579=DIRECTION('',(0.,-1.,0.));
#580=DIRECTION('',(-1.,0.,0.));
#581=DIRECTION('',(0.,1.,0.));
#582=DIRECTION('',(1.,0.,0.));
#583=DIRECTION('center_axis',(0.,1.,0.));
#584=DIRECTION('ref_axis',(0.,0.,1.));
#585=DIRECTION('',(0.,0.,-1.));
#586=DIRECTION('',(0.,0.,1.));
#587=DIRECTION('',(-1.,0.,0.));
#588=DIRECTION('center_axis',(0.,0.,1.));
#589=DIRECTION('ref_axis',(1.,0.,0.));
#590=DIRECTION('',(0.,1.,0.));
#591=DIRECTION('',(0.,-1.,0.));
#592=DIRECTION('',(1.,0.,0.));
#593=DIRECTION('center_axis',(0.,-1.,0.));
#594=DIRECTION('ref_axis',(0.,0.,-1.));
#595=DIRECTION('',(0.,0.,1.));
#596=DIRECTION('',(0.,0.,-1.));
#597=DIRECTION('center_axis',(0.,0.,1.));
#598=DIRECTION('ref_axis',(1.,0.,0.));
#599=DIRECTION('',(0.,1.,0.));
#600=DIRECTION('',(-1.,0.,0.));
#601=DIRECTION('',(0.,-1.,0.));
#602=DIRECTION('',(1.,0.,0.));
#603=DIRECTION('center_axis',(0.,0.,1.));
#604=DIRECTION('ref_axis',(1.,0.,0.));
#605=DIRECTION('',(0.,-1.,0.));
#606=DIRECTION('',(-1.,0.,0.));
#607=DIRECTION('',(0.,1.,0.));
#608=DIRECTION('',(1.,0.,0.));
#609=DIRECTION('center_axis',(0.,1.,0.));
#610=DIRECTION('ref_axis',(0.,0.,1.));
#611=DIRECTION('',(0.,0.,-1.));
#612=DIRECTION('',(0.,0.,-1.));
#613=DIRECTION('center_axis',(1.,0.,0.));
#614=DIRECTION('ref_axis',(0.,0.,-1.));
#615=DIRECTION('',(0.,0.,-1.));
#616=DIRECTION('center_axis',(0.,-1.,0.));
#617=DIRECTION('ref_axis',(0.,0.,-1.));
#618=DIRECTION('',(0.,0.,-1.));
#619=DIRECTION('center_axis',(-1.,0.,0.));
#620=DIRECTION('ref_axis',(0.,0.,1.));
#621=CARTESIAN_POINT('',(0.,0.,0.));
#622=CARTESIAN_POINT('Origin',(-105.,82.,139.));
#623=CARTESIAN_POINT('',(-110.,82.,141.2));
#624=CARTESIAN_POINT('Origin',(-110.,82.,139.));
#625=CARTESIAN_POINT('',(-100.,82.,141.2));
#626=CARTESIAN_POINT('',(-105.,82.,141.2));
#627=CARTESIAN_POINT('Origin',(-100.,82.,139.));
#628=CARTESIAN_POINT('Origin',(-105.,82.,25.));
#629=CARTESIAN_POINT('',(-110.,82.,27.2));
#630=CARTESIAN_POINT('Origin',(-110.,82.,25.));
#631=CARTESIAN_POINT('',(-100.,82.,27.2));
#632=CARTESIAN_POINT('',(-105.,82.,27.2));
#633=CARTESIAN_POINT('Origin',(-100.,82.,25.));
#634=CARTESIAN_POINT('Origin',(-105.,-82.,139.));
#635=CARTESIAN_POINT('',(-110.,-82.,141.2));
#636=CARTESIAN_POINT('Origin',(-110.,-82.,139.));
#637=CARTESIAN_POINT('',(-100.,-82.,141.2));
#638=CARTESIAN_POINT('',(-105.,-82.,141.2));
#639=CARTESIAN_POINT('Origin',(-100.,-82.,139.));
#640=CARTESIAN_POINT('Origin',(-105.,-82.,25.));
#641=CARTESIAN_POINT('',(-110.,-82.,27.2));
#642=CARTESIAN_POINT('Origin',(-110.,-82.,25.));
#643=CARTESIAN_POINT('',(-100.,-82.,27.2));
#644=CARTESIAN_POINT('',(-105.,-82.,27.2));
#645=CARTESIAN_POINT('Origin',(-100.,-82.,25.));
#646=CARTESIAN_POINT('Origin',(-105.,0.,118.));
#647=CARTESIAN_POINT('',(-110.,52.,118.));
#648=CARTESIAN_POINT('',(-110.,-52.,118.));
#649=CARTESIAN_POINT('',(-110.,0.,118.));
#650=CARTESIAN_POINT('',(-100.,52.,118.));
#651=CARTESIAN_POINT('',(-105.,52.,118.));
#652=CARTESIAN_POINT('',(-100.,-52.,118.));
#653=CARTESIAN_POINT('',(-100.,0.,118.));
#654=CARTESIAN_POINT('',(-105.,-52.,118.));
#655=CARTESIAN_POINT('Origin',(-105.,-52.,112.));
#656=CARTESIAN_POINT('',(-110.,-52.,106.));
#657=CARTESIAN_POINT('',(-110.,-52.,97.));
#658=CARTESIAN_POINT('',(-100.,-52.,106.));
#659=CARTESIAN_POINT('',(-100.,-52.,97.));
#660=CARTESIAN_POINT('',(-105.,-52.,106.));
#661=CARTESIAN_POINT('Origin',(-105.,0.,106.));
#662=CARTESIAN_POINT('',(-110.,52.,106.));
#663=CARTESIAN_POINT('',(-110.,0.,106.));
#664=CARTESIAN_POINT('',(-100.,52.,106.));
#665=CARTESIAN_POINT('',(-100.,0.,106.));
#666=CARTESIAN_POINT('',(-105.,52.,106.));
#667=CARTESIAN_POINT('Origin',(-105.,52.,112.));
#668=CARTESIAN_POINT('',(-110.,52.,97.));
#669=CARTESIAN_POINT('',(-100.,52.,97.));
#670=CARTESIAN_POINT('Origin',(-105.,0.,86.));
#671=CARTESIAN_POINT('',(-110.,52.,86.));
#672=CARTESIAN_POINT('',(-110.,-52.,86.));
#673=CARTESIAN_POINT('',(-110.,0.,86.));
#674=CARTESIAN_POINT('',(-100.,52.,86.));
#675=CARTESIAN_POINT('',(-105.,52.,86.));
#676=CARTESIAN_POINT('',(-100.,-52.,86.));
#677=CARTESIAN_POINT('',(-100.,0.,86.));
#678=CARTESIAN_POINT('',(-105.,-52.,86.));
#679=CARTESIAN_POINT('Origin',(-105.,-52.,80.));
#680=CARTESIAN_POINT('',(-110.,-52.,74.));
#681=CARTESIAN_POINT('',(-110.,-52.,81.));
#682=CARTESIAN_POINT('',(-100.,-52.,74.));
#683=CARTESIAN_POINT('',(-100.,-52.,81.));
#684=CARTESIAN_POINT('',(-105.,-52.,74.));
#685=CARTESIAN_POINT('Origin',(-105.,0.,74.));
#686=CARTESIAN_POINT('',(-110.,52.,74.));
#687=CARTESIAN_POINT('',(-110.,0.,74.));
#688=CARTESIAN_POINT('',(-100.,52.,74.));
#689=CARTESIAN_POINT('',(-100.,0.,74.));
#690=CARTESIAN_POINT('',(-105.,52.,74.));
#691=CARTESIAN_POINT('Origin',(-105.,52.,80.));
#692=CARTESIAN_POINT('',(-110.,52.,81.));
#693=CARTESIAN_POINT('',(-100.,52.,81.));
#694=CARTESIAN_POINT('Origin',(-105.,0.,54.));
#695=CARTESIAN_POINT('',(-110.,52.,54.));
#696=CARTESIAN_POINT('',(-110.,-52.,54.));
#697=CARTESIAN_POINT('',(-110.,0.,54.));
#698=CARTESIAN_POINT('',(-100.,52.,54.));
#699=CARTESIAN_POINT('',(-105.,52.,54.));
#700=CARTESIAN_POINT('',(-100.,-52.,54.));
#701=CARTESIAN_POINT('',(-100.,0.,54.));
#702=CARTESIAN_POINT('',(-105.,-52.,54.));
#703=CARTESIAN_POINT('Origin',(-105.,-52.,48.));
#704=CARTESIAN_POINT('',(-110.,-52.,42.));
#705=CARTESIAN_POINT('',(-110.,-52.,65.));
#706=CARTESIAN_POINT('',(-100.,-52.,42.));
#707=CARTESIAN_POINT('',(-100.,-52.,65.));
#708=CARTESIAN_POINT('',(-105.,-52.,42.));
#709=CARTESIAN_POINT('Origin',(-105.,0.,42.));
#710=CARTESIAN_POINT('',(-110.,52.,42.));
#711=CARTESIAN_POINT('',(-110.,0.,42.));
#712=CARTESIAN_POINT('',(-100.,52.,42.));
#713=CARTESIAN_POINT('',(-100.,0.,42.));
#714=CARTESIAN_POINT('',(-105.,52.,42.));
#715=CARTESIAN_POINT('Origin',(-105.,52.,48.));
#716=CARTESIAN_POINT('',(-110.,52.,65.));
#717=CARTESIAN_POINT('',(-100.,52.,65.));
#718=CARTESIAN_POINT('Origin',(-105.,0.,150.));
#719=CARTESIAN_POINT('',(-100.,-93.,150.));
#720=CARTESIAN_POINT('',(-100.,93.,150.));
#721=CARTESIAN_POINT('',(-100.,0.,150.));
#722=CARTESIAN_POINT('',(-110.,93.,150.));
#723=CARTESIAN_POINT('',(-105.,93.,150.));
#724=CARTESIAN_POINT('',(-110.,-93.,150.));
#725=CARTESIAN_POINT('',(-110.,0.,150.));
#726=CARTESIAN_POINT('',(-105.,-93.,150.));
#727=CARTESIAN_POINT('Origin',(-105.,0.,14.));
#728=CARTESIAN_POINT('',(-100.,93.,14.));
#729=CARTESIAN_POINT('',(-100.,-93.,14.));
#730=CARTESIAN_POINT('',(-100.,0.,14.));
#731=CARTESIAN_POINT('',(-110.,-93.,14.));
#732=CARTESIAN_POINT('',(-105.,-93.,14.));
#733=CARTESIAN_POINT('',(-110.,93.,14.));
#734=CARTESIAN_POINT('',(-110.,0.,14.));
#735=CARTESIAN_POINT('',(-105.,93.,14.));
#736=CARTESIAN_POINT('Origin',(-105.,-93.,82.));
#737=CARTESIAN_POINT('',(-110.,-93.,82.));
#738=CARTESIAN_POINT('',(-100.,-93.,82.));
#739=CARTESIAN_POINT('Origin',(-110.,0.,82.));
#740=CARTESIAN_POINT('',(-110.,93.,82.));
#741=CARTESIAN_POINT('Origin',(-105.,93.,82.));
#742=CARTESIAN_POINT('',(-100.,93.,82.));
#743=CARTESIAN_POINT('Origin',(-100.,0.,82.));
#744=UNCERTAINTY_MEASURE_WITH_UNIT(LENGTH_MEASURE(0.01),#748,
'DISTANCE_ACCURACY_VALUE',
'Maximum model space distance between geometric entities at asserted c
onnectivities');
#745=UNCERTAINTY_MEASURE_WITH_UNIT(LENGTH_MEASURE(0.01),#748,
'DISTANCE_ACCURACY_VALUE',
'Maximum model space distance between geometric entities at asserted c
onnectivities');
#746=(
GEOMETRIC_REPRESENTATION_CONTEXT(3)
GLOBAL_UNCERTAINTY_ASSIGNED_CONTEXT((#744))
GLOBAL_UNIT_ASSIGNED_CONTEXT((#748,#750,#751))
REPRESENTATION_CONTEXT('','3D')
);
#747=(
GEOMETRIC_REPRESENTATION_CONTEXT(3)
GLOBAL_UNCERTAINTY_ASSIGNED_CONTEXT((#745))
GLOBAL_UNIT_ASSIGNED_CONTEXT((#748,#750,#751))
REPRESENTATION_CONTEXT('','3D')
);
#748=(
LENGTH_UNIT()
NAMED_UNIT(*)
SI_UNIT(.MILLI.,.METRE.)
);
#749=(
LENGTH_UNIT()
NAMED_UNIT(*)
SI_UNIT($,.METRE.)
);
#750=(
NAMED_UNIT(*)
PLANE_ANGLE_UNIT()
SI_UNIT($,.RADIAN.)
);
#751=(
NAMED_UNIT(*)
SI_UNIT($,.STERADIAN.)
SOLID_ANGLE_UNIT()
);
#752=SHAPE_DEFINITION_REPRESENTATION(#753,#754);
#753=PRODUCT_DEFINITION_SHAPE('',$,#756);
#754=SHAPE_REPRESENTATION('',(#476),#746);
#755=PRODUCT_DEFINITION_CONTEXT('part definition',#760,'design');
#756=PRODUCT_DEFINITION('2026-08-12-23-06-14-751',
'EXPORT_TMP_PRINT_P005_BaseLeftPanel',#757,#755);
#757=PRODUCT_DEFINITION_FORMATION('',$,#762);
#758=PRODUCT_RELATED_PRODUCT_CATEGORY(
'EXPORT_TMP_PRINT_P005_BaseLeftPanel',
'EXPORT_TMP_PRINT_P005_BaseLeftPanel',(#762));
#759=APPLICATION_PROTOCOL_DEFINITION('international standard',
'automotive_design',2009,#760);
#760=APPLICATION_CONTEXT(
'Core Data for Automotive Mechanical Design Process');
#761=PRODUCT_CONTEXT('part definition',#760,'mechanical');
#762=PRODUCT('2026-08-12-23-06-14-751',
'EXPORT_TMP_PRINT_P005_BaseLeftPanel',$,(#761));
#763=PRESENTATION_STYLE_ASSIGNMENT((#764));
#764=SURFACE_STYLE_USAGE(.BOTH.,#765);
#765=SURFACE_SIDE_STYLE('',(#766));
#766=SURFACE_STYLE_FILL_AREA(#767);
#767=FILL_AREA_STYLE('Steel - Satin',(#768));
#768=FILL_AREA_STYLE_COLOUR('Steel - Satin',#769);
#769=COLOUR_RGB('Steel - Satin',0.627450980392157,0.627450980392157,0.627450980392157);
ENDSEC;
END-ISO-10303-21;
