ISO-10303-21;
HEADER;
/* Generated by software containing ST-Developer
 * from STEP Tools, Inc. (www.steptools.com) 
 */

FILE_DESCRIPTION(
/* description */ (''),
/* implementation_level */ '2;1');

FILE_NAME(
/* name */ 'PRINT_V010A_P008_J1_ReducerAndBearingAdapter.step',
/* time_stamp */ '2026-08-12T23:06:23+02:00',
/* author */ (''),
/* organization */ (''),
/* preprocessor_version */ 'ST-DEVELOPER v20.1',
/* originating_system */ 'Autodesk Translation Framework v15.8.0.0',
/* authorisation */ '');

FILE_SCHEMA (('AUTOMOTIVE_DESIGN { 1 0 10303 214 3 1 1 }'));
ENDSEC;

DATA;
#10=MECHANICAL_DESIGN_GEOMETRIC_PRESENTATION_REPRESENTATION('',(#13),#750);
#11=SHAPE_REPRESENTATION_RELATIONSHIP('SRR','None',#757,#12);
#12=ADVANCED_BREP_SHAPE_REPRESENTATION('',(#14),#749);
#13=STYLED_ITEM('',(#766),#14);
#14=MANIFOLD_SOLID_BREP('PRINT_V010A_P008_J1_ReducerAndBearingAdapter',
#426);
#15=FACE_BOUND('',#88,.T.);
#16=FACE_BOUND('',#92,.T.);
#17=FACE_BOUND('',#93,.T.);
#18=FACE_BOUND('',#94,.T.);
#19=FACE_BOUND('',#95,.T.);
#20=FACE_BOUND('',#96,.T.);
#21=FACE_BOUND('',#99,.T.);
#22=FACE_BOUND('',#100,.T.);
#23=FACE_BOUND('',#101,.T.);
#24=FACE_BOUND('',#102,.T.);
#25=FACE_BOUND('',#103,.T.);
#26=FACE_BOUND('',#104,.T.);
#27=FACE_BOUND('',#105,.T.);
#28=FACE_BOUND('',#109,.T.);
#29=FACE_BOUND('',#110,.T.);
#30=FACE_BOUND('',#111,.T.);
#31=FACE_BOUND('',#112,.T.);
#32=FACE_BOUND('',#113,.T.);
#33=FACE_BOUND('',#114,.T.);
#34=FACE_BOUND('',#115,.T.);
#35=FACE_BOUND('',#116,.T.);
#36=FACE_BOUND('',#117,.T.);
#37=FACE_BOUND('',#118,.T.);
#38=FACE_BOUND('',#119,.T.);
#39=FACE_BOUND('',#121,.T.);
#40=PLANE('',#478);
#41=PLANE('',#486);
#42=PLANE('',#490);
#43=PLANE('',#496);
#44=PLANE('',#497);
#45=CONICAL_SURFACE('',#458,3.1,0.624023052976757);
#46=CONICAL_SURFACE('',#463,3.1,0.624023052976757);
#47=CONICAL_SURFACE('',#468,3.1,0.624023052976757);
#48=CONICAL_SURFACE('',#473,3.1,0.624023052976757);
#49=FACE_OUTER_BOUND('',#73,.T.);
#50=FACE_OUTER_BOUND('',#74,.T.);
#51=FACE_OUTER_BOUND('',#75,.T.);
#52=FACE_OUTER_BOUND('',#76,.T.);
#53=FACE_OUTER_BOUND('',#77,.T.);
#54=FACE_OUTER_BOUND('',#78,.T.);
#55=FACE_OUTER_BOUND('',#79,.T.);
#56=FACE_OUTER_BOUND('',#80,.T.);
#57=FACE_OUTER_BOUND('',#81,.T.);
#58=FACE_OUTER_BOUND('',#82,.T.);
#59=FACE_OUTER_BOUND('',#83,.T.);
#60=FACE_OUTER_BOUND('',#84,.T.);
#61=FACE_OUTER_BOUND('',#85,.T.);
#62=FACE_OUTER_BOUND('',#86,.T.);
#63=FACE_OUTER_BOUND('',#87,.T.);
#64=FACE_OUTER_BOUND('',#89,.T.);
#65=FACE_OUTER_BOUND('',#90,.T.);
#66=FACE_OUTER_BOUND('',#91,.T.);
#67=FACE_OUTER_BOUND('',#97,.T.);
#68=FACE_OUTER_BOUND('',#98,.T.);
#69=FACE_OUTER_BOUND('',#106,.T.);
#70=FACE_OUTER_BOUND('',#107,.T.);
#71=FACE_OUTER_BOUND('',#108,.T.);
#72=FACE_OUTER_BOUND('',#120,.T.);
#73=EDGE_LOOP('',(#281,#282,#283,#284));
#74=EDGE_LOOP('',(#285,#286,#287,#288));
#75=EDGE_LOOP('',(#289,#290,#291,#292));
#76=EDGE_LOOP('',(#293,#294,#295,#296));
#77=EDGE_LOOP('',(#297,#298,#299,#300));
#78=EDGE_LOOP('',(#301,#302,#303,#304));
#79=EDGE_LOOP('',(#305,#306,#307,#308));
#80=EDGE_LOOP('',(#309,#310,#311,#312));
#81=EDGE_LOOP('',(#313,#314,#315,#316));
#82=EDGE_LOOP('',(#317,#318,#319,#320));
#83=EDGE_LOOP('',(#321,#322,#323,#324));
#84=EDGE_LOOP('',(#325,#326,#327,#328));
#85=EDGE_LOOP('',(#329,#330,#331,#332));
#86=EDGE_LOOP('',(#333,#334,#335,#336));
#87=EDGE_LOOP('',(#337));
#88=EDGE_LOOP('',(#338));
#89=EDGE_LOOP('',(#339,#340,#341,#342));
#90=EDGE_LOOP('',(#343,#344,#345,#346));
#91=EDGE_LOOP('',(#347));
#92=EDGE_LOOP('',(#348));
#93=EDGE_LOOP('',(#349));
#94=EDGE_LOOP('',(#350));
#95=EDGE_LOOP('',(#351));
#96=EDGE_LOOP('',(#352));
#97=EDGE_LOOP('',(#353,#354,#355,#356));
#98=EDGE_LOOP('',(#357));
#99=EDGE_LOOP('',(#358));
#100=EDGE_LOOP('',(#359));
#101=EDGE_LOOP('',(#360));
#102=EDGE_LOOP('',(#361));
#103=EDGE_LOOP('',(#362));
#104=EDGE_LOOP('',(#363));
#105=EDGE_LOOP('',(#364));
#106=EDGE_LOOP('',(#365,#366,#367,#368));
#107=EDGE_LOOP('',(#369,#370,#371,#372));
#108=EDGE_LOOP('',(#373));
#109=EDGE_LOOP('',(#374));
#110=EDGE_LOOP('',(#375));
#111=EDGE_LOOP('',(#376));
#112=EDGE_LOOP('',(#377));
#113=EDGE_LOOP('',(#378));
#114=EDGE_LOOP('',(#379));
#115=EDGE_LOOP('',(#380));
#116=EDGE_LOOP('',(#381));
#117=EDGE_LOOP('',(#382));
#118=EDGE_LOOP('',(#383));
#119=EDGE_LOOP('',(#384));
#120=EDGE_LOOP('',(#385));
#121=EDGE_LOOP('',(#386));
#122=LINE('',#640,#141);
#123=LINE('',#646,#142);
#124=LINE('',#652,#143);
#125=LINE('',#658,#144);
#126=LINE('',#664,#145);
#127=LINE('',#670,#146);
#128=LINE('',#676,#147);
#129=LINE('',#681,#148);
#130=LINE('',#686,#149);
#131=LINE('',#691,#150);
#132=LINE('',#696,#151);
#133=LINE('',#701,#152);
#134=LINE('',#706,#153);
#135=LINE('',#711,#154);
#136=LINE('',#719,#155);
#137=LINE('',#725,#156);
#138=LINE('',#732,#157);
#139=LINE('',#740,#158);
#140=LINE('',#743,#159);
#141=VECTOR('',#504,2.7);
#142=VECTOR('',#511,2.7);
#143=VECTOR('',#518,2.7);
#144=VECTOR('',#525,2.7);
#145=VECTOR('',#532,2.7);
#146=VECTOR('',#539,2.7);
#147=VECTOR('',#546,3.1);
#148=VECTOR('',#553,2.2);
#149=VECTOR('',#558,3.1);
#150=VECTOR('',#565,2.2);
#151=VECTOR('',#570,3.1);
#152=VECTOR('',#577,2.2);
#153=VECTOR('',#582,3.1);
#154=VECTOR('',#589,2.2);
#155=VECTOR('',#598,20.2);
#156=VECTOR('',#605,38.);
#157=VECTOR('',#614,51.4);
#158=VECTOR('',#625,26.2);
#159=VECTOR('',#628,70.);
#160=CIRCLE('',#441,2.7);
#161=CIRCLE('',#442,2.7);
#162=CIRCLE('',#444,2.7);
#163=CIRCLE('',#445,2.7);
#164=CIRCLE('',#447,2.7);
#165=CIRCLE('',#448,2.7);
#166=CIRCLE('',#450,2.7);
#167=CIRCLE('',#451,2.7);
#168=CIRCLE('',#453,2.7);
#169=CIRCLE('',#454,2.7);
#170=CIRCLE('',#456,2.7);
#171=CIRCLE('',#457,2.7);
#172=CIRCLE('',#459,4.);
#173=CIRCLE('',#460,2.2);
#174=CIRCLE('',#462,2.2);
#175=CIRCLE('',#464,4.);
#176=CIRCLE('',#465,2.2);
#177=CIRCLE('',#467,2.2);
#178=CIRCLE('',#469,4.);
#179=CIRCLE('',#470,2.2);
#180=CIRCLE('',#472,2.2);
#181=CIRCLE('',#474,4.);
#182=CIRCLE('',#475,2.2);
#183=CIRCLE('',#477,2.2);
#184=CIRCLE('',#479,26.2);
#185=CIRCLE('',#480,20.2);
#186=CIRCLE('',#482,20.2);
#187=CIRCLE('',#484,38.);
#188=CIRCLE('',#485,38.);
#189=CIRCLE('',#488,51.4);
#190=CIRCLE('',#489,51.4);
#191=CIRCLE('',#491,70.);
#192=CIRCLE('',#493,26.2);
#193=CIRCLE('',#495,70.);
#194=VERTEX_POINT('',#637);
#195=VERTEX_POINT('',#639);
#196=VERTEX_POINT('',#643);
#197=VERTEX_POINT('',#645);
#198=VERTEX_POINT('',#649);
#199=VERTEX_POINT('',#651);
#200=VERTEX_POINT('',#655);
#201=VERTEX_POINT('',#657);
#202=VERTEX_POINT('',#661);
#203=VERTEX_POINT('',#663);
#204=VERTEX_POINT('',#667);
#205=VERTEX_POINT('',#669);
#206=VERTEX_POINT('',#673);
#207=VERTEX_POINT('',#675);
#208=VERTEX_POINT('',#679);
#209=VERTEX_POINT('',#683);
#210=VERTEX_POINT('',#685);
#211=VERTEX_POINT('',#689);
#212=VERTEX_POINT('',#693);
#213=VERTEX_POINT('',#695);
#214=VERTEX_POINT('',#699);
#215=VERTEX_POINT('',#703);
#216=VERTEX_POINT('',#705);
#217=VERTEX_POINT('',#709);
#218=VERTEX_POINT('',#713);
#219=VERTEX_POINT('',#715);
#220=VERTEX_POINT('',#718);
#221=VERTEX_POINT('',#722);
#222=VERTEX_POINT('',#724);
#223=VERTEX_POINT('',#729);
#224=VERTEX_POINT('',#731);
#225=VERTEX_POINT('',#735);
#226=VERTEX_POINT('',#738);
#227=VERTEX_POINT('',#742);
#228=EDGE_CURVE('',#194,#194,#160,.T.);
#229=EDGE_CURVE('',#194,#195,#122,.T.);
#230=EDGE_CURVE('',#195,#195,#161,.T.);
#231=EDGE_CURVE('',#196,#196,#162,.T.);
#232=EDGE_CURVE('',#196,#197,#123,.T.);
#233=EDGE_CURVE('',#197,#197,#163,.T.);
#234=EDGE_CURVE('',#198,#198,#164,.T.);
#235=EDGE_CURVE('',#198,#199,#124,.T.);
#236=EDGE_CURVE('',#199,#199,#165,.T.);
#237=EDGE_CURVE('',#200,#200,#166,.T.);
#238=EDGE_CURVE('',#200,#201,#125,.T.);
#239=EDGE_CURVE('',#201,#201,#167,.T.);
#240=EDGE_CURVE('',#202,#202,#168,.T.);
#241=EDGE_CURVE('',#202,#203,#126,.T.);
#242=EDGE_CURVE('',#203,#203,#169,.T.);
#243=EDGE_CURVE('',#204,#204,#170,.T.);
#244=EDGE_CURVE('',#204,#205,#127,.T.);
#245=EDGE_CURVE('',#205,#205,#171,.T.);
#246=EDGE_CURVE('',#206,#206,#172,.T.);
#247=EDGE_CURVE('',#206,#207,#128,.T.);
#248=EDGE_CURVE('',#207,#207,#173,.T.);
#249=EDGE_CURVE('',#208,#208,#174,.T.);
#250=EDGE_CURVE('',#208,#207,#129,.T.);
#251=EDGE_CURVE('',#209,#209,#175,.T.);
#252=EDGE_CURVE('',#209,#210,#130,.T.);
#253=EDGE_CURVE('',#210,#210,#176,.T.);
#254=EDGE_CURVE('',#211,#211,#177,.T.);
#255=EDGE_CURVE('',#211,#210,#131,.T.);
#256=EDGE_CURVE('',#212,#212,#178,.T.);
#257=EDGE_CURVE('',#212,#213,#132,.T.);
#258=EDGE_CURVE('',#213,#213,#179,.T.);
#259=EDGE_CURVE('',#214,#214,#180,.T.);
#260=EDGE_CURVE('',#214,#213,#133,.T.);
#261=EDGE_CURVE('',#215,#215,#181,.T.);
#262=EDGE_CURVE('',#215,#216,#134,.T.);
#263=EDGE_CURVE('',#216,#216,#182,.T.);
#264=EDGE_CURVE('',#217,#217,#183,.T.);
#265=EDGE_CURVE('',#217,#216,#135,.T.);
#266=EDGE_CURVE('',#218,#218,#184,.T.);
#267=EDGE_CURVE('',#219,#219,#185,.T.);
#268=EDGE_CURVE('',#219,#220,#136,.T.);
#269=EDGE_CURVE('',#220,#220,#186,.T.);
#270=EDGE_CURVE('',#221,#221,#187,.T.);
#271=EDGE_CURVE('',#221,#222,#137,.T.);
#272=EDGE_CURVE('',#222,#222,#188,.T.);
#273=EDGE_CURVE('',#223,#223,#189,.T.);
#274=EDGE_CURVE('',#223,#224,#138,.T.);
#275=EDGE_CURVE('',#224,#224,#190,.T.);
#276=EDGE_CURVE('',#225,#225,#191,.T.);
#277=EDGE_CURVE('',#226,#226,#192,.T.);
#278=EDGE_CURVE('',#226,#218,#139,.T.);
#279=EDGE_CURVE('',#225,#227,#140,.T.);
#280=EDGE_CURVE('',#227,#227,#193,.T.);
#281=ORIENTED_EDGE('',*,*,#228,.F.);
#282=ORIENTED_EDGE('',*,*,#229,.T.);
#283=ORIENTED_EDGE('',*,*,#230,.F.);
#284=ORIENTED_EDGE('',*,*,#229,.F.);
#285=ORIENTED_EDGE('',*,*,#231,.F.);
#286=ORIENTED_EDGE('',*,*,#232,.T.);
#287=ORIENTED_EDGE('',*,*,#233,.F.);
#288=ORIENTED_EDGE('',*,*,#232,.F.);
#289=ORIENTED_EDGE('',*,*,#234,.F.);
#290=ORIENTED_EDGE('',*,*,#235,.T.);
#291=ORIENTED_EDGE('',*,*,#236,.F.);
#292=ORIENTED_EDGE('',*,*,#235,.F.);
#293=ORIENTED_EDGE('',*,*,#237,.F.);
#294=ORIENTED_EDGE('',*,*,#238,.T.);
#295=ORIENTED_EDGE('',*,*,#239,.F.);
#296=ORIENTED_EDGE('',*,*,#238,.F.);
#297=ORIENTED_EDGE('',*,*,#240,.F.);
#298=ORIENTED_EDGE('',*,*,#241,.T.);
#299=ORIENTED_EDGE('',*,*,#242,.F.);
#300=ORIENTED_EDGE('',*,*,#241,.F.);
#301=ORIENTED_EDGE('',*,*,#243,.F.);
#302=ORIENTED_EDGE('',*,*,#244,.T.);
#303=ORIENTED_EDGE('',*,*,#245,.F.);
#304=ORIENTED_EDGE('',*,*,#244,.F.);
#305=ORIENTED_EDGE('',*,*,#246,.F.);
#306=ORIENTED_EDGE('',*,*,#247,.T.);
#307=ORIENTED_EDGE('',*,*,#248,.F.);
#308=ORIENTED_EDGE('',*,*,#247,.F.);
#309=ORIENTED_EDGE('',*,*,#249,.F.);
#310=ORIENTED_EDGE('',*,*,#250,.T.);
#311=ORIENTED_EDGE('',*,*,#248,.T.);
#312=ORIENTED_EDGE('',*,*,#250,.F.);
#313=ORIENTED_EDGE('',*,*,#251,.F.);
#314=ORIENTED_EDGE('',*,*,#252,.T.);
#315=ORIENTED_EDGE('',*,*,#253,.F.);
#316=ORIENTED_EDGE('',*,*,#252,.F.);
#317=ORIENTED_EDGE('',*,*,#254,.F.);
#318=ORIENTED_EDGE('',*,*,#255,.T.);
#319=ORIENTED_EDGE('',*,*,#253,.T.);
#320=ORIENTED_EDGE('',*,*,#255,.F.);
#321=ORIENTED_EDGE('',*,*,#256,.F.);
#322=ORIENTED_EDGE('',*,*,#257,.T.);
#323=ORIENTED_EDGE('',*,*,#258,.F.);
#324=ORIENTED_EDGE('',*,*,#257,.F.);
#325=ORIENTED_EDGE('',*,*,#259,.F.);
#326=ORIENTED_EDGE('',*,*,#260,.T.);
#327=ORIENTED_EDGE('',*,*,#258,.T.);
#328=ORIENTED_EDGE('',*,*,#260,.F.);
#329=ORIENTED_EDGE('',*,*,#261,.F.);
#330=ORIENTED_EDGE('',*,*,#262,.T.);
#331=ORIENTED_EDGE('',*,*,#263,.F.);
#332=ORIENTED_EDGE('',*,*,#262,.F.);
#333=ORIENTED_EDGE('',*,*,#264,.F.);
#334=ORIENTED_EDGE('',*,*,#265,.T.);
#335=ORIENTED_EDGE('',*,*,#263,.T.);
#336=ORIENTED_EDGE('',*,*,#265,.F.);
#337=ORIENTED_EDGE('',*,*,#266,.T.);
#338=ORIENTED_EDGE('',*,*,#267,.T.);
#339=ORIENTED_EDGE('',*,*,#267,.F.);
#340=ORIENTED_EDGE('',*,*,#268,.T.);
#341=ORIENTED_EDGE('',*,*,#269,.F.);
#342=ORIENTED_EDGE('',*,*,#268,.F.);
#343=ORIENTED_EDGE('',*,*,#270,.F.);
#344=ORIENTED_EDGE('',*,*,#271,.T.);
#345=ORIENTED_EDGE('',*,*,#272,.F.);
#346=ORIENTED_EDGE('',*,*,#271,.F.);
#347=ORIENTED_EDGE('',*,*,#270,.T.);
#348=ORIENTED_EDGE('',*,*,#246,.T.);
#349=ORIENTED_EDGE('',*,*,#251,.T.);
#350=ORIENTED_EDGE('',*,*,#256,.T.);
#351=ORIENTED_EDGE('',*,*,#261,.T.);
#352=ORIENTED_EDGE('',*,*,#269,.T.);
#353=ORIENTED_EDGE('',*,*,#273,.F.);
#354=ORIENTED_EDGE('',*,*,#274,.T.);
#355=ORIENTED_EDGE('',*,*,#275,.F.);
#356=ORIENTED_EDGE('',*,*,#274,.F.);
#357=ORIENTED_EDGE('',*,*,#276,.T.);
#358=ORIENTED_EDGE('',*,*,#230,.T.);
#359=ORIENTED_EDGE('',*,*,#233,.T.);
#360=ORIENTED_EDGE('',*,*,#236,.T.);
#361=ORIENTED_EDGE('',*,*,#239,.T.);
#362=ORIENTED_EDGE('',*,*,#242,.T.);
#363=ORIENTED_EDGE('',*,*,#245,.T.);
#364=ORIENTED_EDGE('',*,*,#275,.T.);
#365=ORIENTED_EDGE('',*,*,#277,.F.);
#366=ORIENTED_EDGE('',*,*,#278,.T.);
#367=ORIENTED_EDGE('',*,*,#266,.F.);
#368=ORIENTED_EDGE('',*,*,#278,.F.);
#369=ORIENTED_EDGE('',*,*,#276,.F.);
#370=ORIENTED_EDGE('',*,*,#279,.T.);
#371=ORIENTED_EDGE('',*,*,#280,.F.);
#372=ORIENTED_EDGE('',*,*,#279,.F.);
#373=ORIENTED_EDGE('',*,*,#280,.T.);
#374=ORIENTED_EDGE('',*,*,#231,.T.);
#375=ORIENTED_EDGE('',*,*,#237,.T.);
#376=ORIENTED_EDGE('',*,*,#240,.T.);
#377=ORIENTED_EDGE('',*,*,#243,.T.);
#378=ORIENTED_EDGE('',*,*,#249,.T.);
#379=ORIENTED_EDGE('',*,*,#254,.T.);
#380=ORIENTED_EDGE('',*,*,#259,.T.);
#381=ORIENTED_EDGE('',*,*,#264,.T.);
#382=ORIENTED_EDGE('',*,*,#277,.T.);
#383=ORIENTED_EDGE('',*,*,#234,.T.);
#384=ORIENTED_EDGE('',*,*,#228,.T.);
#385=ORIENTED_EDGE('',*,*,#273,.T.);
#386=ORIENTED_EDGE('',*,*,#272,.T.);
#387=CYLINDRICAL_SURFACE('',#440,2.7);
#388=CYLINDRICAL_SURFACE('',#443,2.7);
#389=CYLINDRICAL_SURFACE('',#446,2.7);
#390=CYLINDRICAL_SURFACE('',#449,2.7);
#391=CYLINDRICAL_SURFACE('',#452,2.7);
#392=CYLINDRICAL_SURFACE('',#455,2.7);
#393=CYLINDRICAL_SURFACE('',#461,2.2);
#394=CYLINDRICAL_SURFACE('',#466,2.2);
#395=CYLINDRICAL_SURFACE('',#471,2.2);
#396=CYLINDRICAL_SURFACE('',#476,2.2);
#397=CYLINDRICAL_SURFACE('',#481,20.2);
#398=CYLINDRICAL_SURFACE('',#483,38.);
#399=CYLINDRICAL_SURFACE('',#487,51.4);
#400=CYLINDRICAL_SURFACE('',#492,26.2);
#401=CYLINDRICAL_SURFACE('',#494,70.);
#402=ADVANCED_FACE('',(#49),#387,.F.);
#403=ADVANCED_FACE('',(#50),#388,.F.);
#404=ADVANCED_FACE('',(#51),#389,.F.);
#405=ADVANCED_FACE('',(#52),#390,.F.);
#406=ADVANCED_FACE('',(#53),#391,.F.);
#407=ADVANCED_FACE('',(#54),#392,.F.);
#408=ADVANCED_FACE('',(#55),#45,.F.);
#409=ADVANCED_FACE('',(#56),#393,.F.);
#410=ADVANCED_FACE('',(#57),#46,.F.);
#411=ADVANCED_FACE('',(#58),#394,.F.);
#412=ADVANCED_FACE('',(#59),#47,.F.);
#413=ADVANCED_FACE('',(#60),#395,.F.);
#414=ADVANCED_FACE('',(#61),#48,.F.);
#415=ADVANCED_FACE('',(#62),#396,.F.);
#416=ADVANCED_FACE('',(#63,#15),#40,.T.);
#417=ADVANCED_FACE('',(#64),#397,.F.);
#418=ADVANCED_FACE('',(#65),#398,.T.);
#419=ADVANCED_FACE('',(#66,#16,#17,#18,#19,#20),#41,.T.);
#420=ADVANCED_FACE('',(#67),#399,.F.);
#421=ADVANCED_FACE('',(#68,#21,#22,#23,#24,#25,#26,#27),#42,.T.);
#422=ADVANCED_FACE('',(#69),#400,.F.);
#423=ADVANCED_FACE('',(#70),#401,.T.);
#424=ADVANCED_FACE('',(#71,#28,#29,#30,#31,#32,#33,#34,#35,#36,#37,#38),
#43,.T.);
#425=ADVANCED_FACE('',(#72,#39),#44,.T.);
#426=CLOSED_SHELL('',(#402,#403,#404,#405,#406,#407,#408,#409,#410,#411,
#412,#413,#414,#415,#416,#417,#418,#419,#420,#421,#422,#423,#424,#425));
#427=DERIVED_UNIT_ELEMENT(#429,1.);
#428=DERIVED_UNIT_ELEMENT(#752,-3.);
#429=(
MASS_UNIT()
NAMED_UNIT(*)
SI_UNIT(.KILO.,.GRAM.)
);
#430=DERIVED_UNIT((#427,#428));
#431=MEASURE_REPRESENTATION_ITEM('density measure',
POSITIVE_RATIO_MEASURE(7850.),#430);
#432=PROPERTY_DEFINITION_REPRESENTATION(#437,#434);
#433=PROPERTY_DEFINITION_REPRESENTATION(#438,#435);
#434=REPRESENTATION('material name',(#436),#749);
#435=REPRESENTATION('density',(#431),#749);
#436=DESCRIPTIVE_REPRESENTATION_ITEM('Steel','Steel');
#437=PROPERTY_DEFINITION('material property','material name',#759);
#438=PROPERTY_DEFINITION('material property','density of part',#759);
#439=AXIS2_PLACEMENT_3D('',#635,#498,#499);
#440=AXIS2_PLACEMENT_3D('',#636,#500,#501);
#441=AXIS2_PLACEMENT_3D('',#638,#502,#503);
#442=AXIS2_PLACEMENT_3D('',#641,#505,#506);
#443=AXIS2_PLACEMENT_3D('',#642,#507,#508);
#444=AXIS2_PLACEMENT_3D('',#644,#509,#510);
#445=AXIS2_PLACEMENT_3D('',#647,#512,#513);
#446=AXIS2_PLACEMENT_3D('',#648,#514,#515);
#447=AXIS2_PLACEMENT_3D('',#650,#516,#517);
#448=AXIS2_PLACEMENT_3D('',#653,#519,#520);
#449=AXIS2_PLACEMENT_3D('',#654,#521,#522);
#450=AXIS2_PLACEMENT_3D('',#656,#523,#524);
#451=AXIS2_PLACEMENT_3D('',#659,#526,#527);
#452=AXIS2_PLACEMENT_3D('',#660,#528,#529);
#453=AXIS2_PLACEMENT_3D('',#662,#530,#531);
#454=AXIS2_PLACEMENT_3D('',#665,#533,#534);
#455=AXIS2_PLACEMENT_3D('',#666,#535,#536);
#456=AXIS2_PLACEMENT_3D('',#668,#537,#538);
#457=AXIS2_PLACEMENT_3D('',#671,#540,#541);
#458=AXIS2_PLACEMENT_3D('',#672,#542,#543);
#459=AXIS2_PLACEMENT_3D('',#674,#544,#545);
#460=AXIS2_PLACEMENT_3D('',#677,#547,#548);
#461=AXIS2_PLACEMENT_3D('',#678,#549,#550);
#462=AXIS2_PLACEMENT_3D('',#680,#551,#552);
#463=AXIS2_PLACEMENT_3D('',#682,#554,#555);
#464=AXIS2_PLACEMENT_3D('',#684,#556,#557);
#465=AXIS2_PLACEMENT_3D('',#687,#559,#560);
#466=AXIS2_PLACEMENT_3D('',#688,#561,#562);
#467=AXIS2_PLACEMENT_3D('',#690,#563,#564);
#468=AXIS2_PLACEMENT_3D('',#692,#566,#567);
#469=AXIS2_PLACEMENT_3D('',#694,#568,#569);
#470=AXIS2_PLACEMENT_3D('',#697,#571,#572);
#471=AXIS2_PLACEMENT_3D('',#698,#573,#574);
#472=AXIS2_PLACEMENT_3D('',#700,#575,#576);
#473=AXIS2_PLACEMENT_3D('',#702,#578,#579);
#474=AXIS2_PLACEMENT_3D('',#704,#580,#581);
#475=AXIS2_PLACEMENT_3D('',#707,#583,#584);
#476=AXIS2_PLACEMENT_3D('',#708,#585,#586);
#477=AXIS2_PLACEMENT_3D('',#710,#587,#588);
#478=AXIS2_PLACEMENT_3D('',#712,#590,#591);
#479=AXIS2_PLACEMENT_3D('',#714,#592,#593);
#480=AXIS2_PLACEMENT_3D('',#716,#594,#595);
#481=AXIS2_PLACEMENT_3D('',#717,#596,#597);
#482=AXIS2_PLACEMENT_3D('',#720,#599,#600);
#483=AXIS2_PLACEMENT_3D('',#721,#601,#602);
#484=AXIS2_PLACEMENT_3D('',#723,#603,#604);
#485=AXIS2_PLACEMENT_3D('',#726,#606,#607);
#486=AXIS2_PLACEMENT_3D('',#727,#608,#609);
#487=AXIS2_PLACEMENT_3D('',#728,#610,#611);
#488=AXIS2_PLACEMENT_3D('',#730,#612,#613);
#489=AXIS2_PLACEMENT_3D('',#733,#615,#616);
#490=AXIS2_PLACEMENT_3D('',#734,#617,#618);
#491=AXIS2_PLACEMENT_3D('',#736,#619,#620);
#492=AXIS2_PLACEMENT_3D('',#737,#621,#622);
#493=AXIS2_PLACEMENT_3D('',#739,#623,#624);
#494=AXIS2_PLACEMENT_3D('',#741,#626,#627);
#495=AXIS2_PLACEMENT_3D('',#744,#629,#630);
#496=AXIS2_PLACEMENT_3D('',#745,#631,#632);
#497=AXIS2_PLACEMENT_3D('',#746,#633,#634);
#498=DIRECTION('axis',(0.,0.,1.));
#499=DIRECTION('refdir',(1.,0.,0.));
#500=DIRECTION('center_axis',(0.,0.,1.));
#501=DIRECTION('ref_axis',(1.,0.,0.));
#502=DIRECTION('center_axis',(0.,0.,1.));
#503=DIRECTION('ref_axis',(1.,0.,0.));
#504=DIRECTION('',(0.,0.,1.));
#505=DIRECTION('center_axis',(0.,0.,-1.));
#506=DIRECTION('ref_axis',(1.,0.,0.));
#507=DIRECTION('center_axis',(0.,0.,1.));
#508=DIRECTION('ref_axis',(1.,0.,0.));
#509=DIRECTION('center_axis',(0.,0.,1.));
#510=DIRECTION('ref_axis',(1.,0.,0.));
#511=DIRECTION('',(0.,0.,1.));
#512=DIRECTION('center_axis',(0.,0.,-1.));
#513=DIRECTION('ref_axis',(1.,0.,0.));
#514=DIRECTION('center_axis',(0.,0.,1.));
#515=DIRECTION('ref_axis',(1.,0.,0.));
#516=DIRECTION('center_axis',(0.,0.,1.));
#517=DIRECTION('ref_axis',(1.,0.,0.));
#518=DIRECTION('',(0.,0.,1.));
#519=DIRECTION('center_axis',(0.,0.,-1.));
#520=DIRECTION('ref_axis',(1.,0.,0.));
#521=DIRECTION('center_axis',(0.,0.,1.));
#522=DIRECTION('ref_axis',(1.,0.,0.));
#523=DIRECTION('center_axis',(0.,0.,1.));
#524=DIRECTION('ref_axis',(1.,0.,0.));
#525=DIRECTION('',(0.,0.,1.));
#526=DIRECTION('center_axis',(0.,0.,-1.));
#527=DIRECTION('ref_axis',(1.,0.,0.));
#528=DIRECTION('center_axis',(0.,0.,1.));
#529=DIRECTION('ref_axis',(1.,0.,0.));
#530=DIRECTION('center_axis',(0.,0.,1.));
#531=DIRECTION('ref_axis',(1.,0.,0.));
#532=DIRECTION('',(0.,0.,1.));
#533=DIRECTION('center_axis',(0.,0.,-1.));
#534=DIRECTION('ref_axis',(1.,0.,0.));
#535=DIRECTION('center_axis',(0.,0.,1.));
#536=DIRECTION('ref_axis',(1.,0.,0.));
#537=DIRECTION('center_axis',(0.,0.,1.));
#538=DIRECTION('ref_axis',(1.,0.,0.));
#539=DIRECTION('',(0.,0.,1.));
#540=DIRECTION('center_axis',(0.,0.,-1.));
#541=DIRECTION('ref_axis',(1.,0.,0.));
#542=DIRECTION('center_axis',(0.,0.,1.));
#543=DIRECTION('ref_axis',(1.,0.,0.));
#544=DIRECTION('center_axis',(0.,0.,-1.));
#545=DIRECTION('ref_axis',(1.,0.,0.));
#546=DIRECTION('',(0.584304725845076,-7.15566912232844E-17,-0.811534341451494));
#547=DIRECTION('center_axis',(0.,0.,1.));
#548=DIRECTION('ref_axis',(1.,0.,0.));
#549=DIRECTION('center_axis',(0.,0.,1.));
#550=DIRECTION('ref_axis',(1.,0.,0.));
#551=DIRECTION('center_axis',(0.,0.,1.));
#552=DIRECTION('ref_axis',(1.,0.,0.));
#553=DIRECTION('',(0.,0.,1.));
#554=DIRECTION('center_axis',(0.,0.,1.));
#555=DIRECTION('ref_axis',(1.,0.,0.));
#556=DIRECTION('center_axis',(0.,0.,-1.));
#557=DIRECTION('ref_axis',(1.,0.,0.));
#558=DIRECTION('',(0.584304725845076,-7.15566912232844E-17,-0.811534341451494));
#559=DIRECTION('center_axis',(0.,0.,1.));
#560=DIRECTION('ref_axis',(1.,0.,0.));
#561=DIRECTION('center_axis',(0.,0.,1.));
#562=DIRECTION('ref_axis',(1.,0.,0.));
#563=DIRECTION('center_axis',(0.,0.,1.));
#564=DIRECTION('ref_axis',(1.,0.,0.));
#565=DIRECTION('',(0.,0.,1.));
#566=DIRECTION('center_axis',(0.,0.,1.));
#567=DIRECTION('ref_axis',(1.,0.,0.));
#568=DIRECTION('center_axis',(0.,0.,-1.));
#569=DIRECTION('ref_axis',(1.,0.,0.));
#570=DIRECTION('',(0.584304725845076,-7.15566912232844E-17,-0.811534341451494));
#571=DIRECTION('center_axis',(0.,0.,1.));
#572=DIRECTION('ref_axis',(1.,0.,0.));
#573=DIRECTION('center_axis',(0.,0.,1.));
#574=DIRECTION('ref_axis',(1.,0.,0.));
#575=DIRECTION('center_axis',(0.,0.,1.));
#576=DIRECTION('ref_axis',(1.,0.,0.));
#577=DIRECTION('',(0.,0.,1.));
#578=DIRECTION('center_axis',(0.,0.,1.));
#579=DIRECTION('ref_axis',(1.,0.,0.));
#580=DIRECTION('center_axis',(0.,0.,-1.));
#581=DIRECTION('ref_axis',(1.,0.,0.));
#582=DIRECTION('',(0.584304725845076,-7.15566912232844E-17,-0.811534341451494));
#583=DIRECTION('center_axis',(0.,0.,1.));
#584=DIRECTION('ref_axis',(1.,0.,0.));
#585=DIRECTION('center_axis',(0.,0.,1.));
#586=DIRECTION('ref_axis',(1.,0.,0.));
#587=DIRECTION('center_axis',(0.,0.,1.));
#588=DIRECTION('ref_axis',(1.,0.,0.));
#589=DIRECTION('',(0.,0.,1.));
#590=DIRECTION('center_axis',(0.,0.,-1.));
#591=DIRECTION('ref_axis',(-1.,0.,0.));
#592=DIRECTION('center_axis',(0.,0.,-1.));
#593=DIRECTION('ref_axis',(1.,0.,0.));
#594=DIRECTION('center_axis',(0.,0.,1.));
#595=DIRECTION('ref_axis',(1.,0.,0.));
#596=DIRECTION('center_axis',(0.,0.,1.));
#597=DIRECTION('ref_axis',(1.,0.,0.));
#598=DIRECTION('',(0.,0.,1.));
#599=DIRECTION('center_axis',(0.,0.,-1.));
#600=DIRECTION('ref_axis',(1.,0.,0.));
#601=DIRECTION('center_axis',(0.,0.,1.));
#602=DIRECTION('ref_axis',(1.,0.,0.));
#603=DIRECTION('center_axis',(0.,0.,1.));
#604=DIRECTION('ref_axis',(1.,0.,0.));
#605=DIRECTION('',(0.,0.,-1.));
#606=DIRECTION('center_axis',(0.,0.,-1.));
#607=DIRECTION('ref_axis',(1.,0.,0.));
#608=DIRECTION('center_axis',(0.,0.,1.));
#609=DIRECTION('ref_axis',(1.,0.,0.));
#610=DIRECTION('center_axis',(0.,0.,1.));
#611=DIRECTION('ref_axis',(1.,0.,0.));
#612=DIRECTION('center_axis',(0.,0.,1.));
#613=DIRECTION('ref_axis',(1.,0.,0.));
#614=DIRECTION('',(0.,0.,1.));
#615=DIRECTION('center_axis',(0.,0.,-1.));
#616=DIRECTION('ref_axis',(1.,0.,0.));
#617=DIRECTION('center_axis',(0.,0.,1.));
#618=DIRECTION('ref_axis',(1.,0.,0.));
#619=DIRECTION('center_axis',(0.,0.,1.));
#620=DIRECTION('ref_axis',(1.,0.,0.));
#621=DIRECTION('center_axis',(0.,0.,1.));
#622=DIRECTION('ref_axis',(1.,0.,0.));
#623=DIRECTION('center_axis',(0.,0.,1.));
#624=DIRECTION('ref_axis',(1.,0.,0.));
#625=DIRECTION('',(0.,0.,1.));
#626=DIRECTION('center_axis',(0.,0.,1.));
#627=DIRECTION('ref_axis',(1.,0.,0.));
#628=DIRECTION('',(0.,0.,-1.));
#629=DIRECTION('center_axis',(0.,0.,-1.));
#630=DIRECTION('ref_axis',(1.,0.,0.));
#631=DIRECTION('center_axis',(0.,0.,-1.));
#632=DIRECTION('ref_axis',(-1.,0.,0.));
#633=DIRECTION('center_axis',(0.,0.,1.));
#634=DIRECTION('ref_axis',(1.,0.,0.));
#635=CARTESIAN_POINT('',(0.,0.,0.));
#636=CARTESIAN_POINT('Origin',(30.,-51.9615242270663,138.));
#637=CARTESIAN_POINT('',(27.3,-51.9615242270663,132.5));
#638=CARTESIAN_POINT('Origin',(30.,-51.9615242270663,132.5));
#639=CARTESIAN_POINT('',(27.3,-51.9615242270663,144.));
#640=CARTESIAN_POINT('',(27.3,-51.9615242270663,138.));
#641=CARTESIAN_POINT('Origin',(30.,-51.9615242270663,144.));
#642=CARTESIAN_POINT('Origin',(-30.,-51.9615242270663,138.));
#643=CARTESIAN_POINT('',(-32.7,-51.9615242270663,132.5));
#644=CARTESIAN_POINT('Origin',(-30.,-51.9615242270663,132.5));
#645=CARTESIAN_POINT('',(-32.7,-51.9615242270663,144.));
#646=CARTESIAN_POINT('',(-32.7,-51.9615242270663,138.));
#647=CARTESIAN_POINT('Origin',(-30.,-51.9615242270663,144.));
#648=CARTESIAN_POINT('Origin',(-60.,7.34788079488412E-15,138.));
#649=CARTESIAN_POINT('',(-62.7,7.01722615911433E-15,132.5));
#650=CARTESIAN_POINT('Origin',(-60.,7.34788079488412E-15,132.5));
#651=CARTESIAN_POINT('',(-62.7,7.6785354306539E-15,144.));
#652=CARTESIAN_POINT('',(-62.7,7.01722615911433E-15,138.));
#653=CARTESIAN_POINT('Origin',(-60.,7.34788079488412E-15,144.));
#654=CARTESIAN_POINT('Origin',(-30.,51.9615242270663,138.));
#655=CARTESIAN_POINT('',(-32.7,51.9615242270663,132.5));
#656=CARTESIAN_POINT('Origin',(-30.,51.9615242270663,132.5));
#657=CARTESIAN_POINT('',(-32.7,51.9615242270663,144.));
#658=CARTESIAN_POINT('',(-32.7,51.9615242270663,138.));
#659=CARTESIAN_POINT('Origin',(-30.,51.9615242270663,144.));
#660=CARTESIAN_POINT('Origin',(30.,51.9615242270663,138.));
#661=CARTESIAN_POINT('',(27.3,51.9615242270663,132.5));
#662=CARTESIAN_POINT('Origin',(30.,51.9615242270663,132.5));
#663=CARTESIAN_POINT('',(27.3,51.9615242270663,144.));
#664=CARTESIAN_POINT('',(27.3,51.9615242270663,138.));
#665=CARTESIAN_POINT('Origin',(30.,51.9615242270663,144.));
#666=CARTESIAN_POINT('Origin',(60.,0.,138.));
#667=CARTESIAN_POINT('',(57.3,-3.30654635769785E-16,132.5));
#668=CARTESIAN_POINT('Origin',(60.,0.,132.5));
#669=CARTESIAN_POINT('',(57.3,3.30654635769785E-16,144.));
#670=CARTESIAN_POINT('',(57.3,-3.30654635769785E-16,138.));
#671=CARTESIAN_POINT('Origin',(60.,0.,144.));
#672=CARTESIAN_POINT('Origin',(23.57,23.57,143.75));
#673=CARTESIAN_POINT('',(19.57,23.57,145.));
#674=CARTESIAN_POINT('Origin',(23.57,23.57,145.));
#675=CARTESIAN_POINT('',(21.37,23.57,142.5));
#676=CARTESIAN_POINT('',(20.47,23.57,143.75));
#677=CARTESIAN_POINT('Origin',(23.57,23.57,142.5));
#678=CARTESIAN_POINT('Origin',(23.57,23.57,138.));
#679=CARTESIAN_POINT('',(21.37,23.57,132.5));
#680=CARTESIAN_POINT('Origin',(23.57,23.57,132.5));
#681=CARTESIAN_POINT('',(21.37,23.57,138.));
#682=CARTESIAN_POINT('Origin',(23.57,-23.57,143.75));
#683=CARTESIAN_POINT('',(19.57,-23.57,145.));
#684=CARTESIAN_POINT('Origin',(23.57,-23.57,145.));
#685=CARTESIAN_POINT('',(21.37,-23.57,142.5));
#686=CARTESIAN_POINT('',(20.47,-23.57,143.75));
#687=CARTESIAN_POINT('Origin',(23.57,-23.57,142.5));
#688=CARTESIAN_POINT('Origin',(23.57,-23.57,138.));
#689=CARTESIAN_POINT('',(21.37,-23.57,132.5));
#690=CARTESIAN_POINT('Origin',(23.57,-23.57,132.5));
#691=CARTESIAN_POINT('',(21.37,-23.57,138.));
#692=CARTESIAN_POINT('Origin',(-23.57,23.57,143.75));
#693=CARTESIAN_POINT('',(-27.57,23.57,145.));
#694=CARTESIAN_POINT('Origin',(-23.57,23.57,145.));
#695=CARTESIAN_POINT('',(-25.77,23.57,142.5));
#696=CARTESIAN_POINT('',(-26.67,23.57,143.75));
#697=CARTESIAN_POINT('Origin',(-23.57,23.57,142.5));
#698=CARTESIAN_POINT('Origin',(-23.57,23.57,138.));
#699=CARTESIAN_POINT('',(-25.77,23.57,132.5));
#700=CARTESIAN_POINT('Origin',(-23.57,23.57,132.5));
#701=CARTESIAN_POINT('',(-25.77,23.57,138.));
#702=CARTESIAN_POINT('Origin',(-23.57,-23.57,143.75));
#703=CARTESIAN_POINT('',(-27.57,-23.57,145.));
#704=CARTESIAN_POINT('Origin',(-23.57,-23.57,145.));
#705=CARTESIAN_POINT('',(-25.77,-23.57,142.5));
#706=CARTESIAN_POINT('',(-26.67,-23.57,143.75));
#707=CARTESIAN_POINT('Origin',(-23.57,-23.57,142.5));
#708=CARTESIAN_POINT('Origin',(-23.57,-23.57,138.));
#709=CARTESIAN_POINT('',(-25.77,-23.57,132.5));
#710=CARTESIAN_POINT('Origin',(-23.57,-23.57,132.5));
#711=CARTESIAN_POINT('',(-25.77,-23.57,138.));
#712=CARTESIAN_POINT('Origin',(0.,0.,140.5));
#713=CARTESIAN_POINT('',(-26.2,3.20857461376607E-15,140.5));
#714=CARTESIAN_POINT('Origin',(0.,0.,140.5));
#715=CARTESIAN_POINT('',(-20.2,-2.47378653427765E-15,140.5));
#716=CARTESIAN_POINT('Origin',(0.,0.,140.5));
#717=CARTESIAN_POINT('Origin',(0.,0.,142.75));
#718=CARTESIAN_POINT('',(-20.2,2.47378653427765E-15,145.));
#719=CARTESIAN_POINT('',(-20.2,-2.47378653427765E-15,142.75));
#720=CARTESIAN_POINT('Origin',(0.,0.,145.));
#721=CARTESIAN_POINT('Origin',(0.,0.,142.75));
#722=CARTESIAN_POINT('',(-38.,-4.65365783675994E-15,145.));
#723=CARTESIAN_POINT('Origin',(0.,0.,145.));
#724=CARTESIAN_POINT('',(-38.,-4.65365783675994E-15,140.5));
#725=CARTESIAN_POINT('',(-38.,-4.65365783675994E-15,142.75));
#726=CARTESIAN_POINT('Origin',(0.,0.,140.5));
#727=CARTESIAN_POINT('Origin',(0.,0.,145.));
#728=CARTESIAN_POINT('Origin',(0.,0.,142.25));
#729=CARTESIAN_POINT('',(-51.4,-6.29468454761739E-15,140.5));
#730=CARTESIAN_POINT('Origin',(0.,0.,140.5));
#731=CARTESIAN_POINT('',(-51.4,6.29468454761739E-15,144.));
#732=CARTESIAN_POINT('',(-51.4,-6.29468454761739E-15,142.25));
#733=CARTESIAN_POINT('Origin',(0.,0.,144.));
#734=CARTESIAN_POINT('Origin',(0.,0.,144.));
#735=CARTESIAN_POINT('',(-70.,-8.57252759403147E-15,144.));
#736=CARTESIAN_POINT('Origin',(0.,0.,144.));
#737=CARTESIAN_POINT('Origin',(0.,0.,136.5));
#738=CARTESIAN_POINT('',(-26.2,-3.20857461376607E-15,132.5));
#739=CARTESIAN_POINT('Origin',(0.,0.,132.5));
#740=CARTESIAN_POINT('',(-26.2,-3.20857461376607E-15,136.5));
#741=CARTESIAN_POINT('Origin',(0.,0.,136.5));
#742=CARTESIAN_POINT('',(-70.,-8.57252759403147E-15,132.5));
#743=CARTESIAN_POINT('',(-70.,-8.57252759403147E-15,136.5));
#744=CARTESIAN_POINT('Origin',(0.,0.,132.5));
#745=CARTESIAN_POINT('Origin',(0.,0.,132.5));
#746=CARTESIAN_POINT('Origin',(0.,0.,140.5));
#747=UNCERTAINTY_MEASURE_WITH_UNIT(LENGTH_MEASURE(0.01),#751,
'DISTANCE_ACCURACY_VALUE',
'Maximum model space distance between geometric entities at asserted c
onnectivities');
#748=UNCERTAINTY_MEASURE_WITH_UNIT(LENGTH_MEASURE(0.01),#751,
'DISTANCE_ACCURACY_VALUE',
'Maximum model space distance between geometric entities at asserted c
onnectivities');
#749=(
GEOMETRIC_REPRESENTATION_CONTEXT(3)
GLOBAL_UNCERTAINTY_ASSIGNED_CONTEXT((#747))
GLOBAL_UNIT_ASSIGNED_CONTEXT((#751,#753,#754))
REPRESENTATION_CONTEXT('','3D')
);
#750=(
GEOMETRIC_REPRESENTATION_CONTEXT(3)
GLOBAL_UNCERTAINTY_ASSIGNED_CONTEXT((#748))
GLOBAL_UNIT_ASSIGNED_CONTEXT((#751,#753,#754))
REPRESENTATION_CONTEXT('','3D')
);
#751=(
LENGTH_UNIT()
NAMED_UNIT(*)
SI_UNIT(.MILLI.,.METRE.)
);
#752=(
LENGTH_UNIT()
NAMED_UNIT(*)
SI_UNIT($,.METRE.)
);
#753=(
NAMED_UNIT(*)
PLANE_ANGLE_UNIT()
SI_UNIT($,.RADIAN.)
);
#754=(
NAMED_UNIT(*)
SI_UNIT($,.STERADIAN.)
SOLID_ANGLE_UNIT()
);
#755=SHAPE_DEFINITION_REPRESENTATION(#756,#757);
#756=PRODUCT_DEFINITION_SHAPE('',$,#759);
#757=SHAPE_REPRESENTATION('',(#439),#749);
#758=PRODUCT_DEFINITION_CONTEXT('part definition',#763,'design');
#759=PRODUCT_DEFINITION('2026-08-12-23-06-23-462',
'EXPORT_TMP_PRINT_V010A_P008_J1_ReducerAndBearingAda',#760,#758);
#760=PRODUCT_DEFINITION_FORMATION('',$,#765);
#761=PRODUCT_RELATED_PRODUCT_CATEGORY(
'EXPORT_TMP_PRINT_V010A_P008_J1_ReducerAndBearingAda',
'EXPORT_TMP_PRINT_V010A_P008_J1_ReducerAndBearingAda',(#765));
#762=APPLICATION_PROTOCOL_DEFINITION('international standard',
'automotive_design',2009,#763);
#763=APPLICATION_CONTEXT(
'Core Data for Automotive Mechanical Design Process');
#764=PRODUCT_CONTEXT('part definition',#763,'mechanical');
#765=PRODUCT('2026-08-12-23-06-23-462',
'EXPORT_TMP_PRINT_V010A_P008_J1_ReducerAndBearingAda',$,(#764));
#766=PRESENTATION_STYLE_ASSIGNMENT((#767));
#767=SURFACE_STYLE_USAGE(.BOTH.,#768);
#768=SURFACE_SIDE_STYLE('',(#769));
#769=SURFACE_STYLE_FILL_AREA(#770);
#770=FILL_AREA_STYLE('Steel - Satin',(#771));
#771=FILL_AREA_STYLE_COLOUR('Steel - Satin',#772);
#772=COLOUR_RGB('Steel - Satin',0.627450980392157,0.627450980392157,0.627450980392157);
ENDSEC;
END-ISO-10303-21;
