ISO-10303-21;
HEADER;
/* Generated by software containing ST-Developer
 * from STEP Tools, Inc. (www.steptools.com) 
 */

FILE_DESCRIPTION(
/* description */ (''),
/* implementation_level */ '2;1');

FILE_NAME(
/* name */ 'PRINT_V010A_P007_BaseTopPlate_J1StackOpening.step',
/* time_stamp */ '2026-08-12T23:06:20+02:00',
/* author */ (''),
/* organization */ (''),
/* preprocessor_version */ 'ST-DEVELOPER v20.1',
/* originating_system */ 'Autodesk Translation Framework v15.8.0.0',
/* authorisation */ '');

FILE_SCHEMA (('AUTOMOTIVE_DESIGN { 1 0 10303 214 3 1 1 }'));
ENDSEC;

DATA;
#10=MECHANICAL_DESIGN_GEOMETRIC_PRESENTATION_REPRESENTATION('',(#13),#908);
#11=SHAPE_REPRESENTATION_RELATIONSHIP('SRR','None',#915,#12);
#12=ADVANCED_BREP_SHAPE_REPRESENTATION('',(#14),#907);
#13=STYLED_ITEM('',(#924),#14);
#14=MANIFOLD_SOLID_BREP('PRINT_V010A_P007_BaseTopPlate_J1StackOpening',
#528);
#15=FACE_BOUND('',#93,.T.);
#16=FACE_BOUND('',#94,.T.);
#17=FACE_BOUND('',#95,.T.);
#18=FACE_BOUND('',#96,.T.);
#19=FACE_BOUND('',#97,.T.);
#20=FACE_BOUND('',#98,.T.);
#21=FACE_BOUND('',#99,.T.);
#22=FACE_BOUND('',#100,.T.);
#23=FACE_BOUND('',#101,.T.);
#24=FACE_BOUND('',#102,.T.);
#25=FACE_BOUND('',#103,.T.);
#26=FACE_BOUND('',#104,.T.);
#27=FACE_BOUND('',#105,.T.);
#28=FACE_BOUND('',#106,.T.);
#29=FACE_BOUND('',#107,.T.);
#30=FACE_BOUND('',#111,.T.);
#31=FACE_BOUND('',#112,.T.);
#32=FACE_BOUND('',#113,.T.);
#33=FACE_BOUND('',#114,.T.);
#34=FACE_BOUND('',#115,.T.);
#35=FACE_BOUND('',#116,.T.);
#36=FACE_BOUND('',#117,.T.);
#37=FACE_BOUND('',#118,.T.);
#38=FACE_BOUND('',#119,.T.);
#39=FACE_BOUND('',#120,.T.);
#40=FACE_BOUND('',#121,.T.);
#41=FACE_BOUND('',#122,.T.);
#42=FACE_BOUND('',#123,.T.);
#43=FACE_BOUND('',#124,.T.);
#44=FACE_BOUND('',#125,.T.);
#45=PLANE('',#590);
#46=PLANE('',#598);
#47=PLANE('',#601);
#48=PLANE('',#602);
#49=PLANE('',#603);
#50=PLANE('',#604);
#51=FACE_OUTER_BOUND('',#76,.T.);
#52=FACE_OUTER_BOUND('',#77,.T.);
#53=FACE_OUTER_BOUND('',#78,.T.);
#54=FACE_OUTER_BOUND('',#79,.T.);
#55=FACE_OUTER_BOUND('',#80,.T.);
#56=FACE_OUTER_BOUND('',#81,.T.);
#57=FACE_OUTER_BOUND('',#82,.T.);
#58=FACE_OUTER_BOUND('',#83,.T.);
#59=FACE_OUTER_BOUND('',#84,.T.);
#60=FACE_OUTER_BOUND('',#85,.T.);
#61=FACE_OUTER_BOUND('',#86,.T.);
#62=FACE_OUTER_BOUND('',#87,.T.);
#63=FACE_OUTER_BOUND('',#88,.T.);
#64=FACE_OUTER_BOUND('',#89,.T.);
#65=FACE_OUTER_BOUND('',#90,.T.);
#66=FACE_OUTER_BOUND('',#91,.T.);
#67=FACE_OUTER_BOUND('',#92,.T.);
#68=FACE_OUTER_BOUND('',#108,.T.);
#69=FACE_OUTER_BOUND('',#109,.T.);
#70=FACE_OUTER_BOUND('',#110,.T.);
#71=FACE_OUTER_BOUND('',#126,.T.);
#72=FACE_OUTER_BOUND('',#127,.T.);
#73=FACE_OUTER_BOUND('',#128,.T.);
#74=FACE_OUTER_BOUND('',#129,.T.);
#75=FACE_OUTER_BOUND('',#130,.T.);
#76=EDGE_LOOP('',(#346,#347,#348,#349));
#77=EDGE_LOOP('',(#350,#351,#352,#353));
#78=EDGE_LOOP('',(#354,#355,#356,#357));
#79=EDGE_LOOP('',(#358,#359,#360,#361));
#80=EDGE_LOOP('',(#362,#363,#364,#365));
#81=EDGE_LOOP('',(#366,#367,#368,#369));
#82=EDGE_LOOP('',(#370,#371,#372,#373));
#83=EDGE_LOOP('',(#374,#375,#376,#377));
#84=EDGE_LOOP('',(#378,#379,#380,#381));
#85=EDGE_LOOP('',(#382,#383,#384,#385));
#86=EDGE_LOOP('',(#386,#387,#388,#389));
#87=EDGE_LOOP('',(#390,#391,#392,#393));
#88=EDGE_LOOP('',(#394,#395,#396,#397));
#89=EDGE_LOOP('',(#398,#399,#400,#401));
#90=EDGE_LOOP('',(#402,#403,#404,#405));
#91=EDGE_LOOP('',(#406,#407,#408,#409));
#92=EDGE_LOOP('',(#410,#411,#412,#413,#414,#415,#416,#417));
#93=EDGE_LOOP('',(#418));
#94=EDGE_LOOP('',(#419));
#95=EDGE_LOOP('',(#420));
#96=EDGE_LOOP('',(#421));
#97=EDGE_LOOP('',(#422));
#98=EDGE_LOOP('',(#423));
#99=EDGE_LOOP('',(#424));
#100=EDGE_LOOP('',(#425));
#101=EDGE_LOOP('',(#426));
#102=EDGE_LOOP('',(#427));
#103=EDGE_LOOP('',(#428));
#104=EDGE_LOOP('',(#429));
#105=EDGE_LOOP('',(#430));
#106=EDGE_LOOP('',(#431));
#107=EDGE_LOOP('',(#432));
#108=EDGE_LOOP('',(#433,#434,#435,#436));
#109=EDGE_LOOP('',(#437,#438,#439,#440));
#110=EDGE_LOOP('',(#441,#442,#443,#444,#445,#446,#447,#448));
#111=EDGE_LOOP('',(#449));
#112=EDGE_LOOP('',(#450));
#113=EDGE_LOOP('',(#451));
#114=EDGE_LOOP('',(#452));
#115=EDGE_LOOP('',(#453));
#116=EDGE_LOOP('',(#454));
#117=EDGE_LOOP('',(#455));
#118=EDGE_LOOP('',(#456));
#119=EDGE_LOOP('',(#457));
#120=EDGE_LOOP('',(#458));
#121=EDGE_LOOP('',(#459));
#122=EDGE_LOOP('',(#460));
#123=EDGE_LOOP('',(#461));
#124=EDGE_LOOP('',(#462));
#125=EDGE_LOOP('',(#463));
#126=EDGE_LOOP('',(#464,#465,#466,#467));
#127=EDGE_LOOP('',(#468,#469,#470,#471));
#128=EDGE_LOOP('',(#472,#473,#474,#475));
#129=EDGE_LOOP('',(#476,#477,#478,#479));
#130=EDGE_LOOP('',(#480,#481,#482,#483));
#131=LINE('',#769,#162);
#132=LINE('',#775,#163);
#133=LINE('',#781,#164);
#134=LINE('',#787,#165);
#135=LINE('',#793,#166);
#136=LINE('',#799,#167);
#137=LINE('',#805,#168);
#138=LINE('',#811,#169);
#139=LINE('',#817,#170);
#140=LINE('',#823,#171);
#141=LINE('',#829,#172);
#142=LINE('',#835,#173);
#143=LINE('',#841,#174);
#144=LINE('',#847,#175);
#145=LINE('',#853,#176);
#146=LINE('',#858,#177);
#147=LINE('',#862,#178);
#148=LINE('',#866,#179);
#149=LINE('',#870,#180);
#150=LINE('',#874,#181);
#151=LINE('',#877,#182);
#152=LINE('',#880,#183);
#153=LINE('',#883,#184);
#154=LINE('',#886,#185);
#155=LINE('',#888,#186);
#156=LINE('',#891,#187);
#157=LINE('',#893,#188);
#158=LINE('',#896,#189);
#159=LINE('',#897,#190);
#160=LINE('',#899,#191);
#161=LINE('',#900,#192);
#162=VECTOR('',#611,2.7);
#163=VECTOR('',#618,2.7);
#164=VECTOR('',#625,2.7);
#165=VECTOR('',#632,2.7);
#166=VECTOR('',#639,2.7);
#167=VECTOR('',#646,2.7);
#168=VECTOR('',#653,51.3);
#169=VECTOR('',#660,3.25);
#170=VECTOR('',#667,3.25);
#171=VECTOR('',#674,3.25);
#172=VECTOR('',#681,3.25);
#173=VECTOR('',#688,3.25);
#174=VECTOR('',#695,3.25);
#175=VECTOR('',#702,3.25);
#176=VECTOR('',#709,3.25);
#177=VECTOR('',#714,10.);
#178=VECTOR('',#717,10.);
#179=VECTOR('',#722,10.);
#180=VECTOR('',#725,10.);
#181=VECTOR('',#728,10.);
#182=VECTOR('',#731,10.);
#183=VECTOR('',#734,10.);
#184=VECTOR('',#737,10.);
#185=VECTOR('',#740,10.);
#186=VECTOR('',#741,10.);
#187=VECTOR('',#746,10.);
#188=VECTOR('',#747,10.);
#189=VECTOR('',#750,10.);
#190=VECTOR('',#751,10.);
#191=VECTOR('',#754,10.);
#192=VECTOR('',#755,10.);
#193=CIRCLE('',#543,2.7);
#194=CIRCLE('',#544,2.7);
#195=CIRCLE('',#546,2.7);
#196=CIRCLE('',#547,2.7);
#197=CIRCLE('',#549,2.7);
#198=CIRCLE('',#550,2.7);
#199=CIRCLE('',#552,2.7);
#200=CIRCLE('',#553,2.7);
#201=CIRCLE('',#555,2.7);
#202=CIRCLE('',#556,2.7);
#203=CIRCLE('',#558,2.7);
#204=CIRCLE('',#559,2.7);
#205=CIRCLE('',#561,51.3);
#206=CIRCLE('',#562,51.3);
#207=CIRCLE('',#564,3.25);
#208=CIRCLE('',#565,3.25);
#209=CIRCLE('',#567,3.25);
#210=CIRCLE('',#568,3.25);
#211=CIRCLE('',#570,3.25);
#212=CIRCLE('',#571,3.25);
#213=CIRCLE('',#573,3.25);
#214=CIRCLE('',#574,3.25);
#215=CIRCLE('',#576,3.25);
#216=CIRCLE('',#577,3.25);
#217=CIRCLE('',#579,3.25);
#218=CIRCLE('',#580,3.25);
#219=CIRCLE('',#582,3.25);
#220=CIRCLE('',#583,3.25);
#221=CIRCLE('',#585,3.25);
#222=CIRCLE('',#586,3.25);
#223=CIRCLE('',#588,22.);
#224=CIRCLE('',#589,22.);
#225=CIRCLE('',#591,22.);
#226=CIRCLE('',#592,22.);
#227=CIRCLE('',#593,22.);
#228=CIRCLE('',#595,22.);
#229=CIRCLE('',#597,22.);
#230=CIRCLE('',#599,22.);
#231=VERTEX_POINT('',#766);
#232=VERTEX_POINT('',#768);
#233=VERTEX_POINT('',#772);
#234=VERTEX_POINT('',#774);
#235=VERTEX_POINT('',#778);
#236=VERTEX_POINT('',#780);
#237=VERTEX_POINT('',#784);
#238=VERTEX_POINT('',#786);
#239=VERTEX_POINT('',#790);
#240=VERTEX_POINT('',#792);
#241=VERTEX_POINT('',#796);
#242=VERTEX_POINT('',#798);
#243=VERTEX_POINT('',#802);
#244=VERTEX_POINT('',#804);
#245=VERTEX_POINT('',#808);
#246=VERTEX_POINT('',#810);
#247=VERTEX_POINT('',#814);
#248=VERTEX_POINT('',#816);
#249=VERTEX_POINT('',#820);
#250=VERTEX_POINT('',#822);
#251=VERTEX_POINT('',#826);
#252=VERTEX_POINT('',#828);
#253=VERTEX_POINT('',#832);
#254=VERTEX_POINT('',#834);
#255=VERTEX_POINT('',#838);
#256=VERTEX_POINT('',#840);
#257=VERTEX_POINT('',#844);
#258=VERTEX_POINT('',#846);
#259=VERTEX_POINT('',#850);
#260=VERTEX_POINT('',#852);
#261=VERTEX_POINT('',#856);
#262=VERTEX_POINT('',#857);
#263=VERTEX_POINT('',#859);
#264=VERTEX_POINT('',#861);
#265=VERTEX_POINT('',#865);
#266=VERTEX_POINT('',#867);
#267=VERTEX_POINT('',#869);
#268=VERTEX_POINT('',#871);
#269=VERTEX_POINT('',#873);
#270=VERTEX_POINT('',#875);
#271=VERTEX_POINT('',#879);
#272=VERTEX_POINT('',#881);
#273=VERTEX_POINT('',#885);
#274=VERTEX_POINT('',#887);
#275=VERTEX_POINT('',#892);
#276=VERTEX_POINT('',#894);
#277=EDGE_CURVE('',#231,#231,#193,.T.);
#278=EDGE_CURVE('',#231,#232,#131,.T.);
#279=EDGE_CURVE('',#232,#232,#194,.T.);
#280=EDGE_CURVE('',#233,#233,#195,.T.);
#281=EDGE_CURVE('',#233,#234,#132,.T.);
#282=EDGE_CURVE('',#234,#234,#196,.T.);
#283=EDGE_CURVE('',#235,#235,#197,.T.);
#284=EDGE_CURVE('',#235,#236,#133,.T.);
#285=EDGE_CURVE('',#236,#236,#198,.T.);
#286=EDGE_CURVE('',#237,#237,#199,.T.);
#287=EDGE_CURVE('',#237,#238,#134,.T.);
#288=EDGE_CURVE('',#238,#238,#200,.T.);
#289=EDGE_CURVE('',#239,#239,#201,.T.);
#290=EDGE_CURVE('',#239,#240,#135,.T.);
#291=EDGE_CURVE('',#240,#240,#202,.T.);
#292=EDGE_CURVE('',#241,#241,#203,.T.);
#293=EDGE_CURVE('',#241,#242,#136,.T.);
#294=EDGE_CURVE('',#242,#242,#204,.T.);
#295=EDGE_CURVE('',#243,#243,#205,.T.);
#296=EDGE_CURVE('',#243,#244,#137,.T.);
#297=EDGE_CURVE('',#244,#244,#206,.T.);
#298=EDGE_CURVE('',#245,#245,#207,.T.);
#299=EDGE_CURVE('',#245,#246,#138,.T.);
#300=EDGE_CURVE('',#246,#246,#208,.T.);
#301=EDGE_CURVE('',#247,#247,#209,.T.);
#302=EDGE_CURVE('',#247,#248,#139,.T.);
#303=EDGE_CURVE('',#248,#248,#210,.T.);
#304=EDGE_CURVE('',#249,#249,#211,.T.);
#305=EDGE_CURVE('',#249,#250,#140,.T.);
#306=EDGE_CURVE('',#250,#250,#212,.T.);
#307=EDGE_CURVE('',#251,#251,#213,.T.);
#308=EDGE_CURVE('',#251,#252,#141,.T.);
#309=EDGE_CURVE('',#252,#252,#214,.T.);
#310=EDGE_CURVE('',#253,#253,#215,.T.);
#311=EDGE_CURVE('',#253,#254,#142,.T.);
#312=EDGE_CURVE('',#254,#254,#216,.T.);
#313=EDGE_CURVE('',#255,#255,#217,.T.);
#314=EDGE_CURVE('',#255,#256,#143,.T.);
#315=EDGE_CURVE('',#256,#256,#218,.T.);
#316=EDGE_CURVE('',#257,#257,#219,.T.);
#317=EDGE_CURVE('',#257,#258,#144,.T.);
#318=EDGE_CURVE('',#258,#258,#220,.T.);
#319=EDGE_CURVE('',#259,#259,#221,.T.);
#320=EDGE_CURVE('',#259,#260,#145,.T.);
#321=EDGE_CURVE('',#260,#260,#222,.T.);
#322=EDGE_CURVE('',#261,#262,#146,.T.);
#323=EDGE_CURVE('',#263,#262,#223,.T.);
#324=EDGE_CURVE('',#264,#263,#147,.T.);
#325=EDGE_CURVE('',#261,#264,#224,.T.);
#326=EDGE_CURVE('',#264,#265,#148,.T.);
#327=EDGE_CURVE('',#265,#266,#225,.T.);
#328=EDGE_CURVE('',#266,#267,#149,.T.);
#329=EDGE_CURVE('',#267,#268,#226,.T.);
#330=EDGE_CURVE('',#268,#269,#150,.T.);
#331=EDGE_CURVE('',#269,#270,#227,.T.);
#332=EDGE_CURVE('',#270,#261,#151,.T.);
#333=EDGE_CURVE('',#269,#271,#152,.T.);
#334=EDGE_CURVE('',#272,#271,#228,.T.);
#335=EDGE_CURVE('',#270,#272,#153,.T.);
#336=EDGE_CURVE('',#266,#273,#154,.T.);
#337=EDGE_CURVE('',#265,#274,#155,.T.);
#338=EDGE_CURVE('',#273,#274,#229,.T.);
#339=EDGE_CURVE('',#262,#272,#156,.T.);
#340=EDGE_CURVE('',#271,#275,#157,.T.);
#341=EDGE_CURVE('',#275,#276,#230,.T.);
#342=EDGE_CURVE('',#276,#273,#158,.T.);
#343=EDGE_CURVE('',#274,#263,#159,.T.);
#344=EDGE_CURVE('',#268,#275,#160,.T.);
#345=EDGE_CURVE('',#267,#276,#161,.T.);
#346=ORIENTED_EDGE('',*,*,#277,.F.);
#347=ORIENTED_EDGE('',*,*,#278,.T.);
#348=ORIENTED_EDGE('',*,*,#279,.F.);
#349=ORIENTED_EDGE('',*,*,#278,.F.);
#350=ORIENTED_EDGE('',*,*,#280,.F.);
#351=ORIENTED_EDGE('',*,*,#281,.T.);
#352=ORIENTED_EDGE('',*,*,#282,.F.);
#353=ORIENTED_EDGE('',*,*,#281,.F.);
#354=ORIENTED_EDGE('',*,*,#283,.F.);
#355=ORIENTED_EDGE('',*,*,#284,.T.);
#356=ORIENTED_EDGE('',*,*,#285,.F.);
#357=ORIENTED_EDGE('',*,*,#284,.F.);
#358=ORIENTED_EDGE('',*,*,#286,.F.);
#359=ORIENTED_EDGE('',*,*,#287,.T.);
#360=ORIENTED_EDGE('',*,*,#288,.F.);
#361=ORIENTED_EDGE('',*,*,#287,.F.);
#362=ORIENTED_EDGE('',*,*,#289,.F.);
#363=ORIENTED_EDGE('',*,*,#290,.T.);
#364=ORIENTED_EDGE('',*,*,#291,.F.);
#365=ORIENTED_EDGE('',*,*,#290,.F.);
#366=ORIENTED_EDGE('',*,*,#292,.F.);
#367=ORIENTED_EDGE('',*,*,#293,.T.);
#368=ORIENTED_EDGE('',*,*,#294,.F.);
#369=ORIENTED_EDGE('',*,*,#293,.F.);
#370=ORIENTED_EDGE('',*,*,#295,.F.);
#371=ORIENTED_EDGE('',*,*,#296,.T.);
#372=ORIENTED_EDGE('',*,*,#297,.F.);
#373=ORIENTED_EDGE('',*,*,#296,.F.);
#374=ORIENTED_EDGE('',*,*,#298,.F.);
#375=ORIENTED_EDGE('',*,*,#299,.T.);
#376=ORIENTED_EDGE('',*,*,#300,.F.);
#377=ORIENTED_EDGE('',*,*,#299,.F.);
#378=ORIENTED_EDGE('',*,*,#301,.F.);
#379=ORIENTED_EDGE('',*,*,#302,.T.);
#380=ORIENTED_EDGE('',*,*,#303,.F.);
#381=ORIENTED_EDGE('',*,*,#302,.F.);
#382=ORIENTED_EDGE('',*,*,#304,.F.);
#383=ORIENTED_EDGE('',*,*,#305,.T.);
#384=ORIENTED_EDGE('',*,*,#306,.F.);
#385=ORIENTED_EDGE('',*,*,#305,.F.);
#386=ORIENTED_EDGE('',*,*,#307,.F.);
#387=ORIENTED_EDGE('',*,*,#308,.T.);
#388=ORIENTED_EDGE('',*,*,#309,.F.);
#389=ORIENTED_EDGE('',*,*,#308,.F.);
#390=ORIENTED_EDGE('',*,*,#310,.F.);
#391=ORIENTED_EDGE('',*,*,#311,.T.);
#392=ORIENTED_EDGE('',*,*,#312,.F.);
#393=ORIENTED_EDGE('',*,*,#311,.F.);
#394=ORIENTED_EDGE('',*,*,#313,.F.);
#395=ORIENTED_EDGE('',*,*,#314,.T.);
#396=ORIENTED_EDGE('',*,*,#315,.F.);
#397=ORIENTED_EDGE('',*,*,#314,.F.);
#398=ORIENTED_EDGE('',*,*,#316,.F.);
#399=ORIENTED_EDGE('',*,*,#317,.T.);
#400=ORIENTED_EDGE('',*,*,#318,.F.);
#401=ORIENTED_EDGE('',*,*,#317,.F.);
#402=ORIENTED_EDGE('',*,*,#319,.F.);
#403=ORIENTED_EDGE('',*,*,#320,.T.);
#404=ORIENTED_EDGE('',*,*,#321,.F.);
#405=ORIENTED_EDGE('',*,*,#320,.F.);
#406=ORIENTED_EDGE('',*,*,#322,.T.);
#407=ORIENTED_EDGE('',*,*,#323,.F.);
#408=ORIENTED_EDGE('',*,*,#324,.F.);
#409=ORIENTED_EDGE('',*,*,#325,.F.);
#410=ORIENTED_EDGE('',*,*,#326,.T.);
#411=ORIENTED_EDGE('',*,*,#327,.T.);
#412=ORIENTED_EDGE('',*,*,#328,.T.);
#413=ORIENTED_EDGE('',*,*,#329,.T.);
#414=ORIENTED_EDGE('',*,*,#330,.T.);
#415=ORIENTED_EDGE('',*,*,#331,.T.);
#416=ORIENTED_EDGE('',*,*,#332,.T.);
#417=ORIENTED_EDGE('',*,*,#325,.T.);
#418=ORIENTED_EDGE('',*,*,#282,.T.);
#419=ORIENTED_EDGE('',*,*,#288,.T.);
#420=ORIENTED_EDGE('',*,*,#294,.T.);
#421=ORIENTED_EDGE('',*,*,#300,.T.);
#422=ORIENTED_EDGE('',*,*,#321,.T.);
#423=ORIENTED_EDGE('',*,*,#318,.T.);
#424=ORIENTED_EDGE('',*,*,#315,.T.);
#425=ORIENTED_EDGE('',*,*,#312,.T.);
#426=ORIENTED_EDGE('',*,*,#309,.T.);
#427=ORIENTED_EDGE('',*,*,#306,.T.);
#428=ORIENTED_EDGE('',*,*,#303,.T.);
#429=ORIENTED_EDGE('',*,*,#297,.T.);
#430=ORIENTED_EDGE('',*,*,#291,.T.);
#431=ORIENTED_EDGE('',*,*,#285,.T.);
#432=ORIENTED_EDGE('',*,*,#279,.T.);
#433=ORIENTED_EDGE('',*,*,#333,.T.);
#434=ORIENTED_EDGE('',*,*,#334,.F.);
#435=ORIENTED_EDGE('',*,*,#335,.F.);
#436=ORIENTED_EDGE('',*,*,#331,.F.);
#437=ORIENTED_EDGE('',*,*,#336,.F.);
#438=ORIENTED_EDGE('',*,*,#327,.F.);
#439=ORIENTED_EDGE('',*,*,#337,.T.);
#440=ORIENTED_EDGE('',*,*,#338,.F.);
#441=ORIENTED_EDGE('',*,*,#339,.T.);
#442=ORIENTED_EDGE('',*,*,#334,.T.);
#443=ORIENTED_EDGE('',*,*,#340,.T.);
#444=ORIENTED_EDGE('',*,*,#341,.T.);
#445=ORIENTED_EDGE('',*,*,#342,.T.);
#446=ORIENTED_EDGE('',*,*,#338,.T.);
#447=ORIENTED_EDGE('',*,*,#343,.T.);
#448=ORIENTED_EDGE('',*,*,#323,.T.);
#449=ORIENTED_EDGE('',*,*,#280,.T.);
#450=ORIENTED_EDGE('',*,*,#286,.T.);
#451=ORIENTED_EDGE('',*,*,#292,.T.);
#452=ORIENTED_EDGE('',*,*,#298,.T.);
#453=ORIENTED_EDGE('',*,*,#319,.T.);
#454=ORIENTED_EDGE('',*,*,#316,.T.);
#455=ORIENTED_EDGE('',*,*,#313,.T.);
#456=ORIENTED_EDGE('',*,*,#310,.T.);
#457=ORIENTED_EDGE('',*,*,#307,.T.);
#458=ORIENTED_EDGE('',*,*,#304,.T.);
#459=ORIENTED_EDGE('',*,*,#301,.T.);
#460=ORIENTED_EDGE('',*,*,#295,.T.);
#461=ORIENTED_EDGE('',*,*,#289,.T.);
#462=ORIENTED_EDGE('',*,*,#283,.T.);
#463=ORIENTED_EDGE('',*,*,#277,.T.);
#464=ORIENTED_EDGE('',*,*,#344,.F.);
#465=ORIENTED_EDGE('',*,*,#329,.F.);
#466=ORIENTED_EDGE('',*,*,#345,.T.);
#467=ORIENTED_EDGE('',*,*,#341,.F.);
#468=ORIENTED_EDGE('',*,*,#336,.T.);
#469=ORIENTED_EDGE('',*,*,#342,.F.);
#470=ORIENTED_EDGE('',*,*,#345,.F.);
#471=ORIENTED_EDGE('',*,*,#328,.F.);
#472=ORIENTED_EDGE('',*,*,#335,.T.);
#473=ORIENTED_EDGE('',*,*,#339,.F.);
#474=ORIENTED_EDGE('',*,*,#322,.F.);
#475=ORIENTED_EDGE('',*,*,#332,.F.);
#476=ORIENTED_EDGE('',*,*,#344,.T.);
#477=ORIENTED_EDGE('',*,*,#340,.F.);
#478=ORIENTED_EDGE('',*,*,#333,.F.);
#479=ORIENTED_EDGE('',*,*,#330,.F.);
#480=ORIENTED_EDGE('',*,*,#324,.T.);
#481=ORIENTED_EDGE('',*,*,#343,.F.);
#482=ORIENTED_EDGE('',*,*,#337,.F.);
#483=ORIENTED_EDGE('',*,*,#326,.F.);
#484=CYLINDRICAL_SURFACE('',#542,2.7);
#485=CYLINDRICAL_SURFACE('',#545,2.7);
#486=CYLINDRICAL_SURFACE('',#548,2.7);
#487=CYLINDRICAL_SURFACE('',#551,2.7);
#488=CYLINDRICAL_SURFACE('',#554,2.7);
#489=CYLINDRICAL_SURFACE('',#557,2.7);
#490=CYLINDRICAL_SURFACE('',#560,51.3);
#491=CYLINDRICAL_SURFACE('',#563,3.25);
#492=CYLINDRICAL_SURFACE('',#566,3.25);
#493=CYLINDRICAL_SURFACE('',#569,3.25);
#494=CYLINDRICAL_SURFACE('',#572,3.25);
#495=CYLINDRICAL_SURFACE('',#575,3.25);
#496=CYLINDRICAL_SURFACE('',#578,3.25);
#497=CYLINDRICAL_SURFACE('',#581,3.25);
#498=CYLINDRICAL_SURFACE('',#584,3.25);
#499=CYLINDRICAL_SURFACE('',#587,22.);
#500=CYLINDRICAL_SURFACE('',#594,22.);
#501=CYLINDRICAL_SURFACE('',#596,22.);
#502=CYLINDRICAL_SURFACE('',#600,22.);
#503=ADVANCED_FACE('',(#51),#484,.F.);
#504=ADVANCED_FACE('',(#52),#485,.F.);
#505=ADVANCED_FACE('',(#53),#486,.F.);
#506=ADVANCED_FACE('',(#54),#487,.F.);
#507=ADVANCED_FACE('',(#55),#488,.F.);
#508=ADVANCED_FACE('',(#56),#489,.F.);
#509=ADVANCED_FACE('',(#57),#490,.F.);
#510=ADVANCED_FACE('',(#58),#491,.F.);
#511=ADVANCED_FACE('',(#59),#492,.F.);
#512=ADVANCED_FACE('',(#60),#493,.F.);
#513=ADVANCED_FACE('',(#61),#494,.F.);
#514=ADVANCED_FACE('',(#62),#495,.F.);
#515=ADVANCED_FACE('',(#63),#496,.F.);
#516=ADVANCED_FACE('',(#64),#497,.F.);
#517=ADVANCED_FACE('',(#65),#498,.F.);
#518=ADVANCED_FACE('',(#66),#499,.T.);
#519=ADVANCED_FACE('',(#67,#15,#16,#17,#18,#19,#20,#21,#22,#23,#24,#25,
#26,#27,#28,#29),#45,.T.);
#520=ADVANCED_FACE('',(#68),#500,.T.);
#521=ADVANCED_FACE('',(#69),#501,.T.);
#522=ADVANCED_FACE('',(#70,#30,#31,#32,#33,#34,#35,#36,#37,#38,#39,#40,
#41,#42,#43,#44),#46,.F.);
#523=ADVANCED_FACE('',(#71),#502,.T.);
#524=ADVANCED_FACE('',(#72),#47,.F.);
#525=ADVANCED_FACE('',(#73),#48,.F.);
#526=ADVANCED_FACE('',(#74),#49,.F.);
#527=ADVANCED_FACE('',(#75),#50,.F.);
#528=CLOSED_SHELL('',(#503,#504,#505,#506,#507,#508,#509,#510,#511,#512,
#513,#514,#515,#516,#517,#518,#519,#520,#521,#522,#523,#524,#525,#526,#527));
#529=DERIVED_UNIT_ELEMENT(#531,1.);
#530=DERIVED_UNIT_ELEMENT(#910,-3.);
#531=(
MASS_UNIT()
NAMED_UNIT(*)
SI_UNIT(.KILO.,.GRAM.)
);
#532=DERIVED_UNIT((#529,#530));
#533=MEASURE_REPRESENTATION_ITEM('density measure',
POSITIVE_RATIO_MEASURE(7850.),#532);
#534=PROPERTY_DEFINITION_REPRESENTATION(#539,#536);
#535=PROPERTY_DEFINITION_REPRESENTATION(#540,#537);
#536=REPRESENTATION('material name',(#538),#907);
#537=REPRESENTATION('density',(#533),#907);
#538=DESCRIPTIVE_REPRESENTATION_ITEM('Steel','Steel');
#539=PROPERTY_DEFINITION('material property','material name',#917);
#540=PROPERTY_DEFINITION('material property','density of part',#917);
#541=AXIS2_PLACEMENT_3D('',#764,#605,#606);
#542=AXIS2_PLACEMENT_3D('',#765,#607,#608);
#543=AXIS2_PLACEMENT_3D('',#767,#609,#610);
#544=AXIS2_PLACEMENT_3D('',#770,#612,#613);
#545=AXIS2_PLACEMENT_3D('',#771,#614,#615);
#546=AXIS2_PLACEMENT_3D('',#773,#616,#617);
#547=AXIS2_PLACEMENT_3D('',#776,#619,#620);
#548=AXIS2_PLACEMENT_3D('',#777,#621,#622);
#549=AXIS2_PLACEMENT_3D('',#779,#623,#624);
#550=AXIS2_PLACEMENT_3D('',#782,#626,#627);
#551=AXIS2_PLACEMENT_3D('',#783,#628,#629);
#552=AXIS2_PLACEMENT_3D('',#785,#630,#631);
#553=AXIS2_PLACEMENT_3D('',#788,#633,#634);
#554=AXIS2_PLACEMENT_3D('',#789,#635,#636);
#555=AXIS2_PLACEMENT_3D('',#791,#637,#638);
#556=AXIS2_PLACEMENT_3D('',#794,#640,#641);
#557=AXIS2_PLACEMENT_3D('',#795,#642,#643);
#558=AXIS2_PLACEMENT_3D('',#797,#644,#645);
#559=AXIS2_PLACEMENT_3D('',#800,#647,#648);
#560=AXIS2_PLACEMENT_3D('',#801,#649,#650);
#561=AXIS2_PLACEMENT_3D('',#803,#651,#652);
#562=AXIS2_PLACEMENT_3D('',#806,#654,#655);
#563=AXIS2_PLACEMENT_3D('',#807,#656,#657);
#564=AXIS2_PLACEMENT_3D('',#809,#658,#659);
#565=AXIS2_PLACEMENT_3D('',#812,#661,#662);
#566=AXIS2_PLACEMENT_3D('',#813,#663,#664);
#567=AXIS2_PLACEMENT_3D('',#815,#665,#666);
#568=AXIS2_PLACEMENT_3D('',#818,#668,#669);
#569=AXIS2_PLACEMENT_3D('',#819,#670,#671);
#570=AXIS2_PLACEMENT_3D('',#821,#672,#673);
#571=AXIS2_PLACEMENT_3D('',#824,#675,#676);
#572=AXIS2_PLACEMENT_3D('',#825,#677,#678);
#573=AXIS2_PLACEMENT_3D('',#827,#679,#680);
#574=AXIS2_PLACEMENT_3D('',#830,#682,#683);
#575=AXIS2_PLACEMENT_3D('',#831,#684,#685);
#576=AXIS2_PLACEMENT_3D('',#833,#686,#687);
#577=AXIS2_PLACEMENT_3D('',#836,#689,#690);
#578=AXIS2_PLACEMENT_3D('',#837,#691,#692);
#579=AXIS2_PLACEMENT_3D('',#839,#693,#694);
#580=AXIS2_PLACEMENT_3D('',#842,#696,#697);
#581=AXIS2_PLACEMENT_3D('',#843,#698,#699);
#582=AXIS2_PLACEMENT_3D('',#845,#700,#701);
#583=AXIS2_PLACEMENT_3D('',#848,#703,#704);
#584=AXIS2_PLACEMENT_3D('',#849,#705,#706);
#585=AXIS2_PLACEMENT_3D('',#851,#707,#708);
#586=AXIS2_PLACEMENT_3D('',#854,#710,#711);
#587=AXIS2_PLACEMENT_3D('',#855,#712,#713);
#588=AXIS2_PLACEMENT_3D('',#860,#715,#716);
#589=AXIS2_PLACEMENT_3D('',#863,#718,#719);
#590=AXIS2_PLACEMENT_3D('',#864,#720,#721);
#591=AXIS2_PLACEMENT_3D('',#868,#723,#724);
#592=AXIS2_PLACEMENT_3D('',#872,#726,#727);
#593=AXIS2_PLACEMENT_3D('',#876,#729,#730);
#594=AXIS2_PLACEMENT_3D('',#878,#732,#733);
#595=AXIS2_PLACEMENT_3D('',#882,#735,#736);
#596=AXIS2_PLACEMENT_3D('',#884,#738,#739);
#597=AXIS2_PLACEMENT_3D('',#889,#742,#743);
#598=AXIS2_PLACEMENT_3D('',#890,#744,#745);
#599=AXIS2_PLACEMENT_3D('',#895,#748,#749);
#600=AXIS2_PLACEMENT_3D('',#898,#752,#753);
#601=AXIS2_PLACEMENT_3D('',#901,#756,#757);
#602=AXIS2_PLACEMENT_3D('',#902,#758,#759);
#603=AXIS2_PLACEMENT_3D('',#903,#760,#761);
#604=AXIS2_PLACEMENT_3D('',#904,#762,#763);
#605=DIRECTION('axis',(0.,0.,1.));
#606=DIRECTION('refdir',(1.,0.,0.));
#607=DIRECTION('center_axis',(0.,0.,1.));
#608=DIRECTION('ref_axis',(1.,0.,0.));
#609=DIRECTION('center_axis',(0.,0.,1.));
#610=DIRECTION('ref_axis',(1.,0.,0.));
#611=DIRECTION('',(0.,0.,1.));
#612=DIRECTION('center_axis',(0.,0.,-1.));
#613=DIRECTION('ref_axis',(1.,0.,0.));
#614=DIRECTION('center_axis',(0.,0.,1.));
#615=DIRECTION('ref_axis',(1.,0.,0.));
#616=DIRECTION('center_axis',(0.,0.,1.));
#617=DIRECTION('ref_axis',(1.,0.,0.));
#618=DIRECTION('',(0.,0.,1.));
#619=DIRECTION('center_axis',(0.,0.,-1.));
#620=DIRECTION('ref_axis',(1.,0.,0.));
#621=DIRECTION('center_axis',(0.,0.,1.));
#622=DIRECTION('ref_axis',(1.,0.,0.));
#623=DIRECTION('center_axis',(0.,0.,1.));
#624=DIRECTION('ref_axis',(1.,0.,0.));
#625=DIRECTION('',(0.,0.,1.));
#626=DIRECTION('center_axis',(0.,0.,-1.));
#627=DIRECTION('ref_axis',(1.,0.,0.));
#628=DIRECTION('center_axis',(0.,0.,1.));
#629=DIRECTION('ref_axis',(1.,0.,0.));
#630=DIRECTION('center_axis',(0.,0.,1.));
#631=DIRECTION('ref_axis',(1.,0.,0.));
#632=DIRECTION('',(0.,0.,1.));
#633=DIRECTION('center_axis',(0.,0.,-1.));
#634=DIRECTION('ref_axis',(1.,0.,0.));
#635=DIRECTION('center_axis',(0.,0.,1.));
#636=DIRECTION('ref_axis',(1.,0.,0.));
#637=DIRECTION('center_axis',(0.,0.,1.));
#638=DIRECTION('ref_axis',(1.,0.,0.));
#639=DIRECTION('',(0.,0.,1.));
#640=DIRECTION('center_axis',(0.,0.,-1.));
#641=DIRECTION('ref_axis',(1.,0.,0.));
#642=DIRECTION('center_axis',(0.,0.,1.));
#643=DIRECTION('ref_axis',(1.,0.,0.));
#644=DIRECTION('center_axis',(0.,0.,1.));
#645=DIRECTION('ref_axis',(1.,0.,0.));
#646=DIRECTION('',(0.,0.,1.));
#647=DIRECTION('center_axis',(0.,0.,-1.));
#648=DIRECTION('ref_axis',(1.,0.,0.));
#649=DIRECTION('center_axis',(0.,0.,1.));
#650=DIRECTION('ref_axis',(1.,0.,0.));
#651=DIRECTION('center_axis',(0.,0.,1.));
#652=DIRECTION('ref_axis',(1.,0.,0.));
#653=DIRECTION('',(0.,0.,1.));
#654=DIRECTION('center_axis',(0.,0.,-1.));
#655=DIRECTION('ref_axis',(1.,0.,0.));
#656=DIRECTION('center_axis',(0.,0.,1.));
#657=DIRECTION('ref_axis',(1.,0.,0.));
#658=DIRECTION('center_axis',(0.,0.,1.));
#659=DIRECTION('ref_axis',(1.,0.,0.));
#660=DIRECTION('',(0.,0.,1.));
#661=DIRECTION('center_axis',(0.,0.,-1.));
#662=DIRECTION('ref_axis',(1.,0.,0.));
#663=DIRECTION('center_axis',(0.,0.,1.));
#664=DIRECTION('ref_axis',(1.,0.,0.));
#665=DIRECTION('center_axis',(0.,0.,1.));
#666=DIRECTION('ref_axis',(1.,0.,0.));
#667=DIRECTION('',(0.,0.,1.));
#668=DIRECTION('center_axis',(0.,0.,-1.));
#669=DIRECTION('ref_axis',(1.,0.,0.));
#670=DIRECTION('center_axis',(0.,0.,1.));
#671=DIRECTION('ref_axis',(1.,0.,0.));
#672=DIRECTION('center_axis',(0.,0.,1.));
#673=DIRECTION('ref_axis',(1.,0.,0.));
#674=DIRECTION('',(0.,0.,1.));
#675=DIRECTION('center_axis',(0.,0.,-1.));
#676=DIRECTION('ref_axis',(1.,0.,0.));
#677=DIRECTION('center_axis',(0.,0.,1.));
#678=DIRECTION('ref_axis',(1.,0.,0.));
#679=DIRECTION('center_axis',(0.,0.,1.));
#680=DIRECTION('ref_axis',(1.,0.,0.));
#681=DIRECTION('',(0.,0.,1.));
#682=DIRECTION('center_axis',(0.,0.,-1.));
#683=DIRECTION('ref_axis',(1.,0.,0.));
#684=DIRECTION('center_axis',(0.,0.,1.));
#685=DIRECTION('ref_axis',(1.,0.,0.));
#686=DIRECTION('center_axis',(0.,0.,1.));
#687=DIRECTION('ref_axis',(1.,0.,0.));
#688=DIRECTION('',(0.,0.,1.));
#689=DIRECTION('center_axis',(0.,0.,-1.));
#690=DIRECTION('ref_axis',(1.,0.,0.));
#691=DIRECTION('center_axis',(0.,0.,1.));
#692=DIRECTION('ref_axis',(1.,0.,0.));
#693=DIRECTION('center_axis',(0.,0.,1.));
#694=DIRECTION('ref_axis',(1.,0.,0.));
#695=DIRECTION('',(0.,0.,1.));
#696=DIRECTION('center_axis',(0.,0.,-1.));
#697=DIRECTION('ref_axis',(1.,0.,0.));
#698=DIRECTION('center_axis',(0.,0.,1.));
#699=DIRECTION('ref_axis',(1.,0.,0.));
#700=DIRECTION('center_axis',(0.,0.,1.));
#701=DIRECTION('ref_axis',(1.,0.,0.));
#702=DIRECTION('',(0.,0.,1.));
#703=DIRECTION('center_axis',(0.,0.,-1.));
#704=DIRECTION('ref_axis',(1.,0.,0.));
#705=DIRECTION('center_axis',(0.,0.,1.));
#706=DIRECTION('ref_axis',(1.,0.,0.));
#707=DIRECTION('center_axis',(0.,0.,1.));
#708=DIRECTION('ref_axis',(1.,0.,0.));
#709=DIRECTION('',(0.,0.,1.));
#710=DIRECTION('center_axis',(0.,0.,-1.));
#711=DIRECTION('ref_axis',(1.,0.,0.));
#712=DIRECTION('center_axis',(0.,0.,1.));
#713=DIRECTION('ref_axis',(1.,0.,0.));
#714=DIRECTION('',(0.,0.,-1.));
#715=DIRECTION('center_axis',(0.,0.,-1.));
#716=DIRECTION('ref_axis',(1.,0.,0.));
#717=DIRECTION('',(0.,0.,-1.));
#718=DIRECTION('center_axis',(0.,0.,1.));
#719=DIRECTION('ref_axis',(1.,0.,0.));
#720=DIRECTION('center_axis',(0.,0.,1.));
#721=DIRECTION('ref_axis',(1.,0.,0.));
#722=DIRECTION('',(-1.,0.,0.));
#723=DIRECTION('center_axis',(0.,0.,1.));
#724=DIRECTION('ref_axis',(1.,0.,0.));
#725=DIRECTION('',(0.,-1.,0.));
#726=DIRECTION('center_axis',(0.,0.,1.));
#727=DIRECTION('ref_axis',(1.,0.,0.));
#728=DIRECTION('',(1.,0.,0.));
#729=DIRECTION('center_axis',(0.,0.,1.));
#730=DIRECTION('ref_axis',(1.,0.,0.));
#731=DIRECTION('',(0.,1.,0.));
#732=DIRECTION('center_axis',(0.,0.,1.));
#733=DIRECTION('ref_axis',(1.,0.,0.));
#734=DIRECTION('',(0.,0.,-1.));
#735=DIRECTION('center_axis',(0.,0.,-1.));
#736=DIRECTION('ref_axis',(1.,0.,0.));
#737=DIRECTION('',(0.,0.,-1.));
#738=DIRECTION('center_axis',(0.,0.,1.));
#739=DIRECTION('ref_axis',(1.,0.,0.));
#740=DIRECTION('',(0.,0.,-1.));
#741=DIRECTION('',(0.,0.,-1.));
#742=DIRECTION('center_axis',(0.,0.,-1.));
#743=DIRECTION('ref_axis',(1.,0.,0.));
#744=DIRECTION('center_axis',(0.,0.,1.));
#745=DIRECTION('ref_axis',(1.,0.,0.));
#746=DIRECTION('',(0.,-1.,0.));
#747=DIRECTION('',(-1.,0.,0.));
#748=DIRECTION('center_axis',(0.,0.,-1.));
#749=DIRECTION('ref_axis',(1.,0.,0.));
#750=DIRECTION('',(0.,1.,0.));
#751=DIRECTION('',(1.,0.,0.));
#752=DIRECTION('center_axis',(0.,0.,1.));
#753=DIRECTION('ref_axis',(1.,0.,0.));
#754=DIRECTION('',(0.,0.,-1.));
#755=DIRECTION('',(0.,0.,-1.));
#756=DIRECTION('center_axis',(1.,0.,0.));
#757=DIRECTION('ref_axis',(0.,0.,-1.));
#758=DIRECTION('center_axis',(-1.,0.,0.));
#759=DIRECTION('ref_axis',(0.,0.,1.));
#760=DIRECTION('center_axis',(0.,1.,0.));
#761=DIRECTION('ref_axis',(0.,0.,1.));
#762=DIRECTION('center_axis',(0.,-1.,0.));
#763=DIRECTION('ref_axis',(0.,0.,-1.));
#764=CARTESIAN_POINT('',(0.,0.,0.));
#765=CARTESIAN_POINT('Origin',(30.,-51.9615242270663,151.));
#766=CARTESIAN_POINT('',(27.3,-51.9615242270663,144.));
#767=CARTESIAN_POINT('Origin',(30.,-51.9615242270663,144.));
#768=CARTESIAN_POINT('',(27.3,-51.9615242270663,158.));
#769=CARTESIAN_POINT('',(27.3,-51.9615242270663,151.));
#770=CARTESIAN_POINT('Origin',(30.,-51.9615242270663,158.));
#771=CARTESIAN_POINT('Origin',(-30.,-51.9615242270663,151.));
#772=CARTESIAN_POINT('',(-32.7,-51.9615242270663,144.));
#773=CARTESIAN_POINT('Origin',(-30.,-51.9615242270663,144.));
#774=CARTESIAN_POINT('',(-32.7,-51.9615242270663,158.));
#775=CARTESIAN_POINT('',(-32.7,-51.9615242270663,151.));
#776=CARTESIAN_POINT('Origin',(-30.,-51.9615242270663,158.));
#777=CARTESIAN_POINT('Origin',(-60.,7.34788079488412E-15,151.));
#778=CARTESIAN_POINT('',(-62.7,7.01722615911433E-15,144.));
#779=CARTESIAN_POINT('Origin',(-60.,7.34788079488412E-15,144.));
#780=CARTESIAN_POINT('',(-62.7,7.6785354306539E-15,158.));
#781=CARTESIAN_POINT('',(-62.7,7.01722615911433E-15,151.));
#782=CARTESIAN_POINT('Origin',(-60.,7.34788079488412E-15,158.));
#783=CARTESIAN_POINT('Origin',(-30.,51.9615242270663,151.));
#784=CARTESIAN_POINT('',(-32.7,51.9615242270663,144.));
#785=CARTESIAN_POINT('Origin',(-30.,51.9615242270663,144.));
#786=CARTESIAN_POINT('',(-32.7,51.9615242270663,158.));
#787=CARTESIAN_POINT('',(-32.7,51.9615242270663,151.));
#788=CARTESIAN_POINT('Origin',(-30.,51.9615242270663,158.));
#789=CARTESIAN_POINT('Origin',(30.,51.9615242270663,151.));
#790=CARTESIAN_POINT('',(27.3,51.9615242270663,144.));
#791=CARTESIAN_POINT('Origin',(30.,51.9615242270663,144.));
#792=CARTESIAN_POINT('',(27.3,51.9615242270663,158.));
#793=CARTESIAN_POINT('',(27.3,51.9615242270663,151.));
#794=CARTESIAN_POINT('Origin',(30.,51.9615242270663,158.));
#795=CARTESIAN_POINT('Origin',(60.,0.,151.));
#796=CARTESIAN_POINT('',(57.3,-3.30654635769785E-16,144.));
#797=CARTESIAN_POINT('Origin',(60.,0.,144.));
#798=CARTESIAN_POINT('',(57.3,3.30654635769785E-16,158.));
#799=CARTESIAN_POINT('',(57.3,-3.30654635769785E-16,151.));
#800=CARTESIAN_POINT('Origin',(60.,0.,158.));
#801=CARTESIAN_POINT('Origin',(0.,0.,151.));
#802=CARTESIAN_POINT('',(-51.3,-6.28243807962592E-15,144.));
#803=CARTESIAN_POINT('Origin',(0.,0.,144.));
#804=CARTESIAN_POINT('',(-51.3,6.28243807962592E-15,158.));
#805=CARTESIAN_POINT('',(-51.3,-6.28243807962592E-15,151.));
#806=CARTESIAN_POINT('Origin',(0.,0.,158.));
#807=CARTESIAN_POINT('Origin',(55.1543289325507,-49.4974746830583,151.));
#808=CARTESIAN_POINT('',(51.9043289325507,-49.4974746830583,144.));
#809=CARTESIAN_POINT('Origin',(55.1543289325507,-49.4974746830583,144.));
#810=CARTESIAN_POINT('',(51.9043289325507,-49.4974746830583,158.));
#811=CARTESIAN_POINT('',(51.9043289325507,-49.4974746830583,151.));
#812=CARTESIAN_POINT('Origin',(55.1543289325507,-49.4974746830583,158.));
#813=CARTESIAN_POINT('Origin',(-1.4328367550024E-14,-70.,151.));
#814=CARTESIAN_POINT('',(-3.25000000000001,-70.,144.));
#815=CARTESIAN_POINT('Origin',(-1.4328367550024E-14,-70.,144.));
#816=CARTESIAN_POINT('',(-3.25000000000001,-70.,158.));
#817=CARTESIAN_POINT('',(-3.25000000000001,-70.,151.));
#818=CARTESIAN_POINT('Origin',(-1.4328367550024E-14,-70.,158.));
#819=CARTESIAN_POINT('Origin',(-55.1543289325507,-49.4974746830583,151.));
#820=CARTESIAN_POINT('',(-58.4043289325507,-49.4974746830583,144.));
#821=CARTESIAN_POINT('Origin',(-55.1543289325507,-49.4974746830583,144.));
#822=CARTESIAN_POINT('',(-58.4043289325507,-49.4974746830583,158.));
#823=CARTESIAN_POINT('',(-58.4043289325507,-49.4974746830583,151.));
#824=CARTESIAN_POINT('Origin',(-55.1543289325507,-49.4974746830583,158.));
#825=CARTESIAN_POINT('Origin',(-78.,8.57252759403147E-15,151.));
#826=CARTESIAN_POINT('',(-81.25,8.17451738430858E-15,144.));
#827=CARTESIAN_POINT('Origin',(-78.,8.57252759403147E-15,144.));
#828=CARTESIAN_POINT('',(-81.25,8.97053780375436E-15,158.));
#829=CARTESIAN_POINT('',(-81.25,8.17451738430858E-15,151.));
#830=CARTESIAN_POINT('Origin',(-78.,8.57252759403147E-15,158.));
#831=CARTESIAN_POINT('Origin',(-55.1543289325507,49.4974746830583,151.));
#832=CARTESIAN_POINT('',(-58.4043289325507,49.4974746830583,144.));
#833=CARTESIAN_POINT('Origin',(-55.1543289325507,49.4974746830583,144.));
#834=CARTESIAN_POINT('',(-58.4043289325507,49.4974746830583,158.));
#835=CARTESIAN_POINT('',(-58.4043289325507,49.4974746830583,151.));
#836=CARTESIAN_POINT('Origin',(-55.1543289325507,49.4974746830583,158.));
#837=CARTESIAN_POINT('Origin',(4.77612251667468E-15,70.,151.));
#838=CARTESIAN_POINT('',(-3.25,70.,144.));
#839=CARTESIAN_POINT('Origin',(4.77612251667468E-15,70.,144.));
#840=CARTESIAN_POINT('',(-3.25,70.,158.));
#841=CARTESIAN_POINT('',(-3.25,70.,151.));
#842=CARTESIAN_POINT('Origin',(4.77612251667468E-15,70.,158.));
#843=CARTESIAN_POINT('Origin',(55.1543289325507,49.4974746830583,151.));
#844=CARTESIAN_POINT('',(51.9043289325507,49.4974746830583,144.));
#845=CARTESIAN_POINT('Origin',(55.1543289325507,49.4974746830583,144.));
#846=CARTESIAN_POINT('',(51.9043289325507,49.4974746830583,158.));
#847=CARTESIAN_POINT('',(51.9043289325507,49.4974746830583,151.));
#848=CARTESIAN_POINT('Origin',(55.1543289325507,49.4974746830583,158.));
#849=CARTESIAN_POINT('Origin',(78.,0.,151.));
#850=CARTESIAN_POINT('',(74.75,-3.9801020972289E-16,144.));
#851=CARTESIAN_POINT('Origin',(78.,0.,144.));
#852=CARTESIAN_POINT('',(74.75,3.9801020972289E-16,158.));
#853=CARTESIAN_POINT('',(74.75,-3.9801020972289E-16,151.));
#854=CARTESIAN_POINT('Origin',(78.,0.,158.));
#855=CARTESIAN_POINT('Origin',(73.,67.,151.));
#856=CARTESIAN_POINT('',(95.,67.,158.));
#857=CARTESIAN_POINT('',(95.,67.,144.));
#858=CARTESIAN_POINT('',(95.,67.,151.));
#859=CARTESIAN_POINT('',(73.,89.,144.));
#860=CARTESIAN_POINT('Origin',(73.,67.,144.));
#861=CARTESIAN_POINT('',(73.,89.,158.));
#862=CARTESIAN_POINT('',(73.,89.,151.));
#863=CARTESIAN_POINT('Origin',(73.,67.,158.));
#864=CARTESIAN_POINT('Origin',(0.,0.,158.));
#865=CARTESIAN_POINT('',(-73.,89.,158.));
#866=CARTESIAN_POINT('',(0.,89.,158.));
#867=CARTESIAN_POINT('',(-95.,67.,158.));
#868=CARTESIAN_POINT('Origin',(-73.,67.,158.));
#869=CARTESIAN_POINT('',(-95.,-67.,158.));
#870=CARTESIAN_POINT('',(-95.,0.,158.));
#871=CARTESIAN_POINT('',(-73.,-89.,158.));
#872=CARTESIAN_POINT('Origin',(-73.,-67.,158.));
#873=CARTESIAN_POINT('',(73.,-89.,158.));
#874=CARTESIAN_POINT('',(0.,-89.,158.));
#875=CARTESIAN_POINT('',(95.,-67.,158.));
#876=CARTESIAN_POINT('Origin',(73.,-67.,158.));
#877=CARTESIAN_POINT('',(95.,0.,158.));
#878=CARTESIAN_POINT('Origin',(73.,-67.,151.));
#879=CARTESIAN_POINT('',(73.,-89.,144.));
#880=CARTESIAN_POINT('',(73.,-89.,151.));
#881=CARTESIAN_POINT('',(95.,-67.,144.));
#882=CARTESIAN_POINT('Origin',(73.,-67.,144.));
#883=CARTESIAN_POINT('',(95.,-67.,151.));
#884=CARTESIAN_POINT('Origin',(-73.,67.,151.));
#885=CARTESIAN_POINT('',(-95.,67.,144.));
#886=CARTESIAN_POINT('',(-95.,67.,151.));
#887=CARTESIAN_POINT('',(-73.,89.,144.));
#888=CARTESIAN_POINT('',(-73.,89.,151.));
#889=CARTESIAN_POINT('Origin',(-73.,67.,144.));
#890=CARTESIAN_POINT('Origin',(0.,0.,144.));
#891=CARTESIAN_POINT('',(95.,0.,144.));
#892=CARTESIAN_POINT('',(-73.,-89.,144.));
#893=CARTESIAN_POINT('',(0.,-89.,144.));
#894=CARTESIAN_POINT('',(-95.,-67.,144.));
#895=CARTESIAN_POINT('Origin',(-73.,-67.,144.));
#896=CARTESIAN_POINT('',(-95.,0.,144.));
#897=CARTESIAN_POINT('',(0.,89.,144.));
#898=CARTESIAN_POINT('Origin',(-73.,-67.,151.));
#899=CARTESIAN_POINT('',(-73.,-89.,151.));
#900=CARTESIAN_POINT('',(-95.,-67.,151.));
#901=CARTESIAN_POINT('Origin',(-95.,0.,151.));
#902=CARTESIAN_POINT('Origin',(95.,0.,151.));
#903=CARTESIAN_POINT('Origin',(0.,-89.,151.));
#904=CARTESIAN_POINT('Origin',(0.,89.,151.));
#905=UNCERTAINTY_MEASURE_WITH_UNIT(LENGTH_MEASURE(0.01),#909,
'DISTANCE_ACCURACY_VALUE',
'Maximum model space distance between geometric entities at asserted c
onnectivities');
#906=UNCERTAINTY_MEASURE_WITH_UNIT(LENGTH_MEASURE(0.01),#909,
'DISTANCE_ACCURACY_VALUE',
'Maximum model space distance between geometric entities at asserted c
onnectivities');
#907=(
GEOMETRIC_REPRESENTATION_CONTEXT(3)
GLOBAL_UNCERTAINTY_ASSIGNED_CONTEXT((#905))
GLOBAL_UNIT_ASSIGNED_CONTEXT((#909,#911,#912))
REPRESENTATION_CONTEXT('','3D')
);
#908=(
GEOMETRIC_REPRESENTATION_CONTEXT(3)
GLOBAL_UNCERTAINTY_ASSIGNED_CONTEXT((#906))
GLOBAL_UNIT_ASSIGNED_CONTEXT((#909,#911,#912))
REPRESENTATION_CONTEXT('','3D')
);
#909=(
LENGTH_UNIT()
NAMED_UNIT(*)
SI_UNIT(.MILLI.,.METRE.)
);
#910=(
LENGTH_UNIT()
NAMED_UNIT(*)
SI_UNIT($,.METRE.)
);
#911=(
NAMED_UNIT(*)
PLANE_ANGLE_UNIT()
SI_UNIT($,.RADIAN.)
);
#912=(
NAMED_UNIT(*)
SI_UNIT($,.STERADIAN.)
SOLID_ANGLE_UNIT()
);
#913=SHAPE_DEFINITION_REPRESENTATION(#914,#915);
#914=PRODUCT_DEFINITION_SHAPE('',$,#917);
#915=SHAPE_REPRESENTATION('',(#541),#907);
#916=PRODUCT_DEFINITION_CONTEXT('part definition',#921,'design');
#917=PRODUCT_DEFINITION('2026-08-12-23-06-20-550',
'EXPORT_TMP_PRINT_V010A_P007_BaseTopPlate_J1StackOpe',#918,#916);
#918=PRODUCT_DEFINITION_FORMATION('',$,#923);
#919=PRODUCT_RELATED_PRODUCT_CATEGORY(
'EXPORT_TMP_PRINT_V010A_P007_BaseTopPlate_J1StackOpe',
'EXPORT_TMP_PRINT_V010A_P007_BaseTopPlate_J1StackOpe',(#923));
#920=APPLICATION_PROTOCOL_DEFINITION('international standard',
'automotive_design',2009,#921);
#921=APPLICATION_CONTEXT(
'Core Data for Automotive Mechanical Design Process');
#922=PRODUCT_CONTEXT('part definition',#921,'mechanical');
#923=PRODUCT('2026-08-12-23-06-20-550',
'EXPORT_TMP_PRINT_V010A_P007_BaseTopPlate_J1StackOpe',$,(#922));
#924=PRESENTATION_STYLE_ASSIGNMENT((#925));
#925=SURFACE_STYLE_USAGE(.BOTH.,#926);
#926=SURFACE_SIDE_STYLE('',(#927));
#927=SURFACE_STYLE_FILL_AREA(#928);
#928=FILL_AREA_STYLE('Steel - Satin',(#929));
#929=FILL_AREA_STYLE_COLOUR('Steel - Satin',#930);
#930=COLOUR_RGB('Steel - Satin',0.627450980392157,0.627450980392157,0.627450980392157);
ENDSEC;
END-ISO-10303-21;
