ISO-10303-21;
HEADER;
/* Generated by software containing ST-Developer
 * from STEP Tools, Inc. (www.steptools.com) 
 */

FILE_DESCRIPTION(
/* description */ (''),
/* implementation_level */ '2;1');

FILE_NAME(
/* name */ 'PRINT_V010A_P009_J1_DualBearingHousing_Flanged.step',
/* time_stamp */ '2026-08-12T23:06:28+02:00',
/* author */ (''),
/* organization */ (''),
/* preprocessor_version */ 'ST-DEVELOPER v20.1',
/* originating_system */ 'Autodesk Translation Framework v15.8.0.0',
/* authorisation */ '');

FILE_SCHEMA (('AUTOMOTIVE_DESIGN { 1 0 10303 214 3 1 1 }'));
ENDSEC;

DATA;
#10=MECHANICAL_DESIGN_GEOMETRIC_PRESENTATION_REPRESENTATION('',(#13),#764);
#11=SHAPE_REPRESENTATION_RELATIONSHIP('SRR','None',#771,#12);
#12=ADVANCED_BREP_SHAPE_REPRESENTATION('',(#14),#763);
#13=STYLED_ITEM('',(#780),#14);
#14=MANIFOLD_SOLID_BREP(
'PRINT_V010A_P009_J1_DualBearingHousing_Flanged',#428);
#15=FACE_BOUND('',#93,.T.);
#16=FACE_BOUND('',#94,.T.);
#17=FACE_BOUND('',#95,.T.);
#18=FACE_BOUND('',#96,.T.);
#19=FACE_BOUND('',#97,.T.);
#20=FACE_BOUND('',#101,.T.);
#21=FACE_BOUND('',#104,.T.);
#22=FACE_BOUND('',#106,.T.);
#23=FACE_BOUND('',#107,.T.);
#24=FACE_BOUND('',#108,.T.);
#25=FACE_BOUND('',#109,.T.);
#26=FACE_BOUND('',#110,.T.);
#27=FACE_BOUND('',#111,.T.);
#28=FACE_BOUND('',#112,.T.);
#29=FACE_BOUND('',#114,.T.);
#30=FACE_BOUND('',#115,.T.);
#31=FACE_BOUND('',#116,.T.);
#32=FACE_BOUND('',#117,.T.);
#33=FACE_BOUND('',#118,.T.);
#34=FACE_BOUND('',#119,.T.);
#35=FACE_BOUND('',#120,.T.);
#36=FACE_BOUND('',#125,.T.);
#37=FACE_BOUND('',#127,.T.);
#38=PLANE('',#445);
#39=PLANE('',#449);
#40=PLANE('',#453);
#41=PLANE('',#457);
#42=PLANE('',#479);
#43=PLANE('',#486);
#44=PLANE('',#490);
#45=PLANE('',#491);
#46=PLANE('',#494);
#47=PLANE('',#502);
#48=PLANE('',#503);
#49=FACE_OUTER_BOUND('',#77,.T.);
#50=FACE_OUTER_BOUND('',#78,.T.);
#51=FACE_OUTER_BOUND('',#79,.T.);
#52=FACE_OUTER_BOUND('',#80,.T.);
#53=FACE_OUTER_BOUND('',#81,.T.);
#54=FACE_OUTER_BOUND('',#82,.T.);
#55=FACE_OUTER_BOUND('',#83,.T.);
#56=FACE_OUTER_BOUND('',#84,.T.);
#57=FACE_OUTER_BOUND('',#85,.T.);
#58=FACE_OUTER_BOUND('',#86,.T.);
#59=FACE_OUTER_BOUND('',#87,.T.);
#60=FACE_OUTER_BOUND('',#88,.T.);
#61=FACE_OUTER_BOUND('',#89,.T.);
#62=FACE_OUTER_BOUND('',#90,.T.);
#63=FACE_OUTER_BOUND('',#91,.T.);
#64=FACE_OUTER_BOUND('',#92,.T.);
#65=FACE_OUTER_BOUND('',#98,.T.);
#66=FACE_OUTER_BOUND('',#99,.T.);
#67=FACE_OUTER_BOUND('',#100,.T.);
#68=FACE_OUTER_BOUND('',#102,.T.);
#69=FACE_OUTER_BOUND('',#103,.T.);
#70=FACE_OUTER_BOUND('',#105,.T.);
#71=FACE_OUTER_BOUND('',#113,.T.);
#72=FACE_OUTER_BOUND('',#121,.T.);
#73=FACE_OUTER_BOUND('',#122,.T.);
#74=FACE_OUTER_BOUND('',#123,.T.);
#75=FACE_OUTER_BOUND('',#124,.T.);
#76=FACE_OUTER_BOUND('',#126,.T.);
#77=EDGE_LOOP('',(#281,#282,#283,#284));
#78=EDGE_LOOP('',(#285));
#79=EDGE_LOOP('',(#286,#287,#288,#289));
#80=EDGE_LOOP('',(#290));
#81=EDGE_LOOP('',(#291,#292,#293,#294));
#82=EDGE_LOOP('',(#295));
#83=EDGE_LOOP('',(#296,#297,#298,#299));
#84=EDGE_LOOP('',(#300));
#85=EDGE_LOOP('',(#301,#302,#303,#304));
#86=EDGE_LOOP('',(#305,#306,#307,#308));
#87=EDGE_LOOP('',(#309,#310,#311,#312));
#88=EDGE_LOOP('',(#313,#314,#315,#316));
#89=EDGE_LOOP('',(#317,#318,#319,#320));
#90=EDGE_LOOP('',(#321,#322,#323,#324));
#91=EDGE_LOOP('',(#325,#326,#327,#328));
#92=EDGE_LOOP('',(#329));
#93=EDGE_LOOP('',(#330));
#94=EDGE_LOOP('',(#331));
#95=EDGE_LOOP('',(#332));
#96=EDGE_LOOP('',(#333));
#97=EDGE_LOOP('',(#334));
#98=EDGE_LOOP('',(#335,#336,#337,#338));
#99=EDGE_LOOP('',(#339,#340,#341,#342));
#100=EDGE_LOOP('',(#343));
#101=EDGE_LOOP('',(#344));
#102=EDGE_LOOP('',(#345,#346,#347,#348));
#103=EDGE_LOOP('',(#349));
#104=EDGE_LOOP('',(#350));
#105=EDGE_LOOP('',(#351));
#106=EDGE_LOOP('',(#352));
#107=EDGE_LOOP('',(#353));
#108=EDGE_LOOP('',(#354));
#109=EDGE_LOOP('',(#355));
#110=EDGE_LOOP('',(#356));
#111=EDGE_LOOP('',(#357));
#112=EDGE_LOOP('',(#358));
#113=EDGE_LOOP('',(#359));
#114=EDGE_LOOP('',(#360));
#115=EDGE_LOOP('',(#361));
#116=EDGE_LOOP('',(#362));
#117=EDGE_LOOP('',(#363));
#118=EDGE_LOOP('',(#364));
#119=EDGE_LOOP('',(#365));
#120=EDGE_LOOP('',(#366));
#121=EDGE_LOOP('',(#367,#368,#369,#370));
#122=EDGE_LOOP('',(#371,#372,#373,#374));
#123=EDGE_LOOP('',(#375,#376,#377,#378));
#124=EDGE_LOOP('',(#379));
#125=EDGE_LOOP('',(#380));
#126=EDGE_LOOP('',(#381));
#127=EDGE_LOOP('',(#382));
#128=LINE('',#652,#145);
#129=LINE('',#659,#146);
#130=LINE('',#666,#147);
#131=LINE('',#673,#148);
#132=LINE('',#680,#149);
#133=LINE('',#686,#150);
#134=LINE('',#692,#151);
#135=LINE('',#698,#152);
#136=LINE('',#704,#153);
#137=LINE('',#710,#154);
#138=LINE('',#716,#155);
#139=LINE('',#724,#156);
#140=LINE('',#729,#157);
#141=LINE('',#736,#158);
#142=LINE('',#750,#159);
#143=LINE('',#754,#160);
#144=LINE('',#757,#161);
#145=VECTOR('',#510,1.7);
#146=VECTOR('',#519,1.7);
#147=VECTOR('',#528,1.7);
#148=VECTOR('',#537,1.7);
#149=VECTOR('',#546,2.7);
#150=VECTOR('',#553,2.7);
#151=VECTOR('',#560,2.7);
#152=VECTOR('',#567,2.7);
#153=VECTOR('',#574,2.7);
#154=VECTOR('',#581,2.7);
#155=VECTOR('',#588,45.);
#156=VECTOR('',#599,23.6);
#157=VECTOR('',#604,27.5);
#158=VECTOR('',#613,34.1);
#159=VECTOR('',#632,70.);
#160=VECTOR('',#637,51.);
#161=VECTOR('',#640,51.);
#162=CIRCLE('',#443,1.7);
#163=CIRCLE('',#444,1.7);
#164=CIRCLE('',#447,1.7);
#165=CIRCLE('',#448,1.7);
#166=CIRCLE('',#451,1.7);
#167=CIRCLE('',#452,1.7);
#168=CIRCLE('',#455,1.7);
#169=CIRCLE('',#456,1.7);
#170=CIRCLE('',#459,2.7);
#171=CIRCLE('',#460,2.7);
#172=CIRCLE('',#462,2.7);
#173=CIRCLE('',#463,2.7);
#174=CIRCLE('',#465,2.7);
#175=CIRCLE('',#466,2.7);
#176=CIRCLE('',#468,2.7);
#177=CIRCLE('',#469,2.7);
#178=CIRCLE('',#471,2.7);
#179=CIRCLE('',#472,2.7);
#180=CIRCLE('',#474,2.7);
#181=CIRCLE('',#475,2.7);
#182=CIRCLE('',#477,45.);
#183=CIRCLE('',#478,45.);
#184=CIRCLE('',#480,23.6);
#185=CIRCLE('',#482,23.6);
#186=CIRCLE('',#484,27.5);
#187=CIRCLE('',#485,27.5);
#188=CIRCLE('',#488,34.1);
#189=CIRCLE('',#489,34.1);
#190=CIRCLE('',#492,70.);
#191=CIRCLE('',#493,51.);
#192=CIRCLE('',#495,70.);
#193=CIRCLE('',#496,51.);
#194=CIRCLE('',#499,51.);
#195=CIRCLE('',#501,51.);
#196=VERTEX_POINT('',#649);
#197=VERTEX_POINT('',#651);
#198=VERTEX_POINT('',#656);
#199=VERTEX_POINT('',#658);
#200=VERTEX_POINT('',#663);
#201=VERTEX_POINT('',#665);
#202=VERTEX_POINT('',#670);
#203=VERTEX_POINT('',#672);
#204=VERTEX_POINT('',#677);
#205=VERTEX_POINT('',#679);
#206=VERTEX_POINT('',#683);
#207=VERTEX_POINT('',#685);
#208=VERTEX_POINT('',#689);
#209=VERTEX_POINT('',#691);
#210=VERTEX_POINT('',#695);
#211=VERTEX_POINT('',#697);
#212=VERTEX_POINT('',#701);
#213=VERTEX_POINT('',#703);
#214=VERTEX_POINT('',#707);
#215=VERTEX_POINT('',#709);
#216=VERTEX_POINT('',#713);
#217=VERTEX_POINT('',#715);
#218=VERTEX_POINT('',#719);
#219=VERTEX_POINT('',#722);
#220=VERTEX_POINT('',#726);
#221=VERTEX_POINT('',#728);
#222=VERTEX_POINT('',#733);
#223=VERTEX_POINT('',#735);
#224=VERTEX_POINT('',#740);
#225=VERTEX_POINT('',#742);
#226=VERTEX_POINT('',#745);
#227=VERTEX_POINT('',#747);
#228=VERTEX_POINT('',#752);
#229=VERTEX_POINT('',#756);
#230=EDGE_CURVE('',#196,#196,#162,.T.);
#231=EDGE_CURVE('',#196,#197,#128,.T.);
#232=EDGE_CURVE('',#197,#197,#163,.T.);
#233=EDGE_CURVE('',#198,#198,#164,.T.);
#234=EDGE_CURVE('',#198,#199,#129,.T.);
#235=EDGE_CURVE('',#199,#199,#165,.T.);
#236=EDGE_CURVE('',#200,#200,#166,.T.);
#237=EDGE_CURVE('',#200,#201,#130,.T.);
#238=EDGE_CURVE('',#201,#201,#167,.T.);
#239=EDGE_CURVE('',#202,#202,#168,.T.);
#240=EDGE_CURVE('',#202,#203,#131,.T.);
#241=EDGE_CURVE('',#203,#203,#169,.T.);
#242=EDGE_CURVE('',#204,#204,#170,.T.);
#243=EDGE_CURVE('',#204,#205,#132,.T.);
#244=EDGE_CURVE('',#205,#205,#171,.T.);
#245=EDGE_CURVE('',#206,#206,#172,.T.);
#246=EDGE_CURVE('',#206,#207,#133,.T.);
#247=EDGE_CURVE('',#207,#207,#173,.T.);
#248=EDGE_CURVE('',#208,#208,#174,.T.);
#249=EDGE_CURVE('',#208,#209,#134,.T.);
#250=EDGE_CURVE('',#209,#209,#175,.T.);
#251=EDGE_CURVE('',#210,#210,#176,.T.);
#252=EDGE_CURVE('',#210,#211,#135,.T.);
#253=EDGE_CURVE('',#211,#211,#177,.T.);
#254=EDGE_CURVE('',#212,#212,#178,.T.);
#255=EDGE_CURVE('',#212,#213,#136,.T.);
#256=EDGE_CURVE('',#213,#213,#179,.T.);
#257=EDGE_CURVE('',#214,#214,#180,.T.);
#258=EDGE_CURVE('',#214,#215,#137,.T.);
#259=EDGE_CURVE('',#215,#215,#181,.T.);
#260=EDGE_CURVE('',#216,#216,#182,.T.);
#261=EDGE_CURVE('',#216,#217,#138,.T.);
#262=EDGE_CURVE('',#217,#217,#183,.T.);
#263=EDGE_CURVE('',#218,#218,#184,.T.);
#264=EDGE_CURVE('',#219,#219,#185,.T.);
#265=EDGE_CURVE('',#219,#218,#139,.T.);
#266=EDGE_CURVE('',#220,#220,#186,.T.);
#267=EDGE_CURVE('',#220,#221,#140,.T.);
#268=EDGE_CURVE('',#221,#221,#187,.T.);
#269=EDGE_CURVE('',#222,#222,#188,.T.);
#270=EDGE_CURVE('',#222,#223,#141,.T.);
#271=EDGE_CURVE('',#223,#223,#189,.T.);
#272=EDGE_CURVE('',#224,#224,#190,.T.);
#273=EDGE_CURVE('',#225,#225,#191,.T.);
#274=EDGE_CURVE('',#226,#226,#192,.T.);
#275=EDGE_CURVE('',#227,#227,#193,.T.);
#276=EDGE_CURVE('',#226,#224,#142,.T.);
#277=EDGE_CURVE('',#228,#228,#194,.T.);
#278=EDGE_CURVE('',#228,#227,#143,.T.);
#279=EDGE_CURVE('',#225,#229,#144,.T.);
#280=EDGE_CURVE('',#229,#229,#195,.T.);
#281=ORIENTED_EDGE('',*,*,#230,.T.);
#282=ORIENTED_EDGE('',*,*,#231,.T.);
#283=ORIENTED_EDGE('',*,*,#232,.F.);
#284=ORIENTED_EDGE('',*,*,#231,.F.);
#285=ORIENTED_EDGE('',*,*,#230,.F.);
#286=ORIENTED_EDGE('',*,*,#233,.T.);
#287=ORIENTED_EDGE('',*,*,#234,.T.);
#288=ORIENTED_EDGE('',*,*,#235,.F.);
#289=ORIENTED_EDGE('',*,*,#234,.F.);
#290=ORIENTED_EDGE('',*,*,#233,.F.);
#291=ORIENTED_EDGE('',*,*,#236,.T.);
#292=ORIENTED_EDGE('',*,*,#237,.T.);
#293=ORIENTED_EDGE('',*,*,#238,.F.);
#294=ORIENTED_EDGE('',*,*,#237,.F.);
#295=ORIENTED_EDGE('',*,*,#236,.F.);
#296=ORIENTED_EDGE('',*,*,#239,.T.);
#297=ORIENTED_EDGE('',*,*,#240,.T.);
#298=ORIENTED_EDGE('',*,*,#241,.F.);
#299=ORIENTED_EDGE('',*,*,#240,.F.);
#300=ORIENTED_EDGE('',*,*,#239,.F.);
#301=ORIENTED_EDGE('',*,*,#242,.F.);
#302=ORIENTED_EDGE('',*,*,#243,.T.);
#303=ORIENTED_EDGE('',*,*,#244,.F.);
#304=ORIENTED_EDGE('',*,*,#243,.F.);
#305=ORIENTED_EDGE('',*,*,#245,.F.);
#306=ORIENTED_EDGE('',*,*,#246,.T.);
#307=ORIENTED_EDGE('',*,*,#247,.F.);
#308=ORIENTED_EDGE('',*,*,#246,.F.);
#309=ORIENTED_EDGE('',*,*,#248,.F.);
#310=ORIENTED_EDGE('',*,*,#249,.T.);
#311=ORIENTED_EDGE('',*,*,#250,.F.);
#312=ORIENTED_EDGE('',*,*,#249,.F.);
#313=ORIENTED_EDGE('',*,*,#251,.F.);
#314=ORIENTED_EDGE('',*,*,#252,.T.);
#315=ORIENTED_EDGE('',*,*,#253,.F.);
#316=ORIENTED_EDGE('',*,*,#252,.F.);
#317=ORIENTED_EDGE('',*,*,#254,.F.);
#318=ORIENTED_EDGE('',*,*,#255,.T.);
#319=ORIENTED_EDGE('',*,*,#256,.F.);
#320=ORIENTED_EDGE('',*,*,#255,.F.);
#321=ORIENTED_EDGE('',*,*,#257,.F.);
#322=ORIENTED_EDGE('',*,*,#258,.T.);
#323=ORIENTED_EDGE('',*,*,#259,.F.);
#324=ORIENTED_EDGE('',*,*,#258,.F.);
#325=ORIENTED_EDGE('',*,*,#260,.T.);
#326=ORIENTED_EDGE('',*,*,#261,.T.);
#327=ORIENTED_EDGE('',*,*,#262,.F.);
#328=ORIENTED_EDGE('',*,*,#261,.F.);
#329=ORIENTED_EDGE('',*,*,#260,.F.);
#330=ORIENTED_EDGE('',*,*,#232,.T.);
#331=ORIENTED_EDGE('',*,*,#235,.T.);
#332=ORIENTED_EDGE('',*,*,#238,.T.);
#333=ORIENTED_EDGE('',*,*,#241,.T.);
#334=ORIENTED_EDGE('',*,*,#263,.F.);
#335=ORIENTED_EDGE('',*,*,#264,.F.);
#336=ORIENTED_EDGE('',*,*,#265,.T.);
#337=ORIENTED_EDGE('',*,*,#263,.T.);
#338=ORIENTED_EDGE('',*,*,#265,.F.);
#339=ORIENTED_EDGE('',*,*,#266,.F.);
#340=ORIENTED_EDGE('',*,*,#267,.T.);
#341=ORIENTED_EDGE('',*,*,#268,.T.);
#342=ORIENTED_EDGE('',*,*,#267,.F.);
#343=ORIENTED_EDGE('',*,*,#268,.F.);
#344=ORIENTED_EDGE('',*,*,#264,.T.);
#345=ORIENTED_EDGE('',*,*,#269,.F.);
#346=ORIENTED_EDGE('',*,*,#270,.T.);
#347=ORIENTED_EDGE('',*,*,#271,.T.);
#348=ORIENTED_EDGE('',*,*,#270,.F.);
#349=ORIENTED_EDGE('',*,*,#271,.F.);
#350=ORIENTED_EDGE('',*,*,#266,.T.);
#351=ORIENTED_EDGE('',*,*,#272,.T.);
#352=ORIENTED_EDGE('',*,*,#242,.T.);
#353=ORIENTED_EDGE('',*,*,#245,.T.);
#354=ORIENTED_EDGE('',*,*,#248,.T.);
#355=ORIENTED_EDGE('',*,*,#251,.T.);
#356=ORIENTED_EDGE('',*,*,#254,.T.);
#357=ORIENTED_EDGE('',*,*,#257,.T.);
#358=ORIENTED_EDGE('',*,*,#273,.F.);
#359=ORIENTED_EDGE('',*,*,#274,.T.);
#360=ORIENTED_EDGE('',*,*,#244,.T.);
#361=ORIENTED_EDGE('',*,*,#247,.T.);
#362=ORIENTED_EDGE('',*,*,#250,.T.);
#363=ORIENTED_EDGE('',*,*,#253,.T.);
#364=ORIENTED_EDGE('',*,*,#256,.T.);
#365=ORIENTED_EDGE('',*,*,#259,.T.);
#366=ORIENTED_EDGE('',*,*,#275,.F.);
#367=ORIENTED_EDGE('',*,*,#274,.F.);
#368=ORIENTED_EDGE('',*,*,#276,.T.);
#369=ORIENTED_EDGE('',*,*,#272,.F.);
#370=ORIENTED_EDGE('',*,*,#276,.F.);
#371=ORIENTED_EDGE('',*,*,#277,.F.);
#372=ORIENTED_EDGE('',*,*,#278,.T.);
#373=ORIENTED_EDGE('',*,*,#275,.T.);
#374=ORIENTED_EDGE('',*,*,#278,.F.);
#375=ORIENTED_EDGE('',*,*,#273,.T.);
#376=ORIENTED_EDGE('',*,*,#279,.T.);
#377=ORIENTED_EDGE('',*,*,#280,.F.);
#378=ORIENTED_EDGE('',*,*,#279,.F.);
#379=ORIENTED_EDGE('',*,*,#280,.T.);
#380=ORIENTED_EDGE('',*,*,#269,.T.);
#381=ORIENTED_EDGE('',*,*,#277,.T.);
#382=ORIENTED_EDGE('',*,*,#262,.T.);
#383=CYLINDRICAL_SURFACE('',#442,1.7);
#384=CYLINDRICAL_SURFACE('',#446,1.7);
#385=CYLINDRICAL_SURFACE('',#450,1.7);
#386=CYLINDRICAL_SURFACE('',#454,1.7);
#387=CYLINDRICAL_SURFACE('',#458,2.7);
#388=CYLINDRICAL_SURFACE('',#461,2.7);
#389=CYLINDRICAL_SURFACE('',#464,2.7);
#390=CYLINDRICAL_SURFACE('',#467,2.7);
#391=CYLINDRICAL_SURFACE('',#470,2.7);
#392=CYLINDRICAL_SURFACE('',#473,2.7);
#393=CYLINDRICAL_SURFACE('',#476,45.);
#394=CYLINDRICAL_SURFACE('',#481,23.6);
#395=CYLINDRICAL_SURFACE('',#483,27.5);
#396=CYLINDRICAL_SURFACE('',#487,34.1);
#397=CYLINDRICAL_SURFACE('',#497,70.);
#398=CYLINDRICAL_SURFACE('',#498,51.);
#399=CYLINDRICAL_SURFACE('',#500,51.);
#400=ADVANCED_FACE('',(#49),#383,.F.);
#401=ADVANCED_FACE('',(#50),#38,.F.);
#402=ADVANCED_FACE('',(#51),#384,.F.);
#403=ADVANCED_FACE('',(#52),#39,.F.);
#404=ADVANCED_FACE('',(#53),#385,.F.);
#405=ADVANCED_FACE('',(#54),#40,.F.);
#406=ADVANCED_FACE('',(#55),#386,.F.);
#407=ADVANCED_FACE('',(#56),#41,.F.);
#408=ADVANCED_FACE('',(#57),#387,.F.);
#409=ADVANCED_FACE('',(#58),#388,.F.);
#410=ADVANCED_FACE('',(#59),#389,.F.);
#411=ADVANCED_FACE('',(#60),#390,.F.);
#412=ADVANCED_FACE('',(#61),#391,.F.);
#413=ADVANCED_FACE('',(#62),#392,.F.);
#414=ADVANCED_FACE('',(#63),#393,.F.);
#415=ADVANCED_FACE('',(#64,#15,#16,#17,#18,#19),#42,.F.);
#416=ADVANCED_FACE('',(#65),#394,.F.);
#417=ADVANCED_FACE('',(#66),#395,.F.);
#418=ADVANCED_FACE('',(#67,#20),#43,.F.);
#419=ADVANCED_FACE('',(#68),#396,.F.);
#420=ADVANCED_FACE('',(#69,#21),#44,.F.);
#421=ADVANCED_FACE('',(#70,#22,#23,#24,#25,#26,#27,#28),#45,.T.);
#422=ADVANCED_FACE('',(#71,#29,#30,#31,#32,#33,#34,#35),#46,.T.);
#423=ADVANCED_FACE('',(#72),#397,.T.);
#424=ADVANCED_FACE('',(#73),#398,.T.);
#425=ADVANCED_FACE('',(#74),#399,.T.);
#426=ADVANCED_FACE('',(#75,#36),#47,.T.);
#427=ADVANCED_FACE('',(#76,#37),#48,.T.);
#428=CLOSED_SHELL('',(#400,#401,#402,#403,#404,#405,#406,#407,#408,#409,
#410,#411,#412,#413,#414,#415,#416,#417,#418,#419,#420,#421,#422,#423,#424,
#425,#426,#427));
#429=DERIVED_UNIT_ELEMENT(#431,1.);
#430=DERIVED_UNIT_ELEMENT(#766,-3.);
#431=(
MASS_UNIT()
NAMED_UNIT(*)
SI_UNIT(.KILO.,.GRAM.)
);
#432=DERIVED_UNIT((#429,#430));
#433=MEASURE_REPRESENTATION_ITEM('density measure',
POSITIVE_RATIO_MEASURE(7850.),#432);
#434=PROPERTY_DEFINITION_REPRESENTATION(#439,#436);
#435=PROPERTY_DEFINITION_REPRESENTATION(#440,#437);
#436=REPRESENTATION('material name',(#438),#763);
#437=REPRESENTATION('density',(#433),#763);
#438=DESCRIPTIVE_REPRESENTATION_ITEM('Steel','Steel');
#439=PROPERTY_DEFINITION('material property','material name',#773);
#440=PROPERTY_DEFINITION('material property','density of part',#773);
#441=AXIS2_PLACEMENT_3D('',#647,#504,#505);
#442=AXIS2_PLACEMENT_3D('',#648,#506,#507);
#443=AXIS2_PLACEMENT_3D('',#650,#508,#509);
#444=AXIS2_PLACEMENT_3D('',#653,#511,#512);
#445=AXIS2_PLACEMENT_3D('',#654,#513,#514);
#446=AXIS2_PLACEMENT_3D('',#655,#515,#516);
#447=AXIS2_PLACEMENT_3D('',#657,#517,#518);
#448=AXIS2_PLACEMENT_3D('',#660,#520,#521);
#449=AXIS2_PLACEMENT_3D('',#661,#522,#523);
#450=AXIS2_PLACEMENT_3D('',#662,#524,#525);
#451=AXIS2_PLACEMENT_3D('',#664,#526,#527);
#452=AXIS2_PLACEMENT_3D('',#667,#529,#530);
#453=AXIS2_PLACEMENT_3D('',#668,#531,#532);
#454=AXIS2_PLACEMENT_3D('',#669,#533,#534);
#455=AXIS2_PLACEMENT_3D('',#671,#535,#536);
#456=AXIS2_PLACEMENT_3D('',#674,#538,#539);
#457=AXIS2_PLACEMENT_3D('',#675,#540,#541);
#458=AXIS2_PLACEMENT_3D('',#676,#542,#543);
#459=AXIS2_PLACEMENT_3D('',#678,#544,#545);
#460=AXIS2_PLACEMENT_3D('',#681,#547,#548);
#461=AXIS2_PLACEMENT_3D('',#682,#549,#550);
#462=AXIS2_PLACEMENT_3D('',#684,#551,#552);
#463=AXIS2_PLACEMENT_3D('',#687,#554,#555);
#464=AXIS2_PLACEMENT_3D('',#688,#556,#557);
#465=AXIS2_PLACEMENT_3D('',#690,#558,#559);
#466=AXIS2_PLACEMENT_3D('',#693,#561,#562);
#467=AXIS2_PLACEMENT_3D('',#694,#563,#564);
#468=AXIS2_PLACEMENT_3D('',#696,#565,#566);
#469=AXIS2_PLACEMENT_3D('',#699,#568,#569);
#470=AXIS2_PLACEMENT_3D('',#700,#570,#571);
#471=AXIS2_PLACEMENT_3D('',#702,#572,#573);
#472=AXIS2_PLACEMENT_3D('',#705,#575,#576);
#473=AXIS2_PLACEMENT_3D('',#706,#577,#578);
#474=AXIS2_PLACEMENT_3D('',#708,#579,#580);
#475=AXIS2_PLACEMENT_3D('',#711,#582,#583);
#476=AXIS2_PLACEMENT_3D('',#712,#584,#585);
#477=AXIS2_PLACEMENT_3D('',#714,#586,#587);
#478=AXIS2_PLACEMENT_3D('',#717,#589,#590);
#479=AXIS2_PLACEMENT_3D('',#718,#591,#592);
#480=AXIS2_PLACEMENT_3D('',#720,#593,#594);
#481=AXIS2_PLACEMENT_3D('',#721,#595,#596);
#482=AXIS2_PLACEMENT_3D('',#723,#597,#598);
#483=AXIS2_PLACEMENT_3D('',#725,#600,#601);
#484=AXIS2_PLACEMENT_3D('',#727,#602,#603);
#485=AXIS2_PLACEMENT_3D('',#730,#605,#606);
#486=AXIS2_PLACEMENT_3D('',#731,#607,#608);
#487=AXIS2_PLACEMENT_3D('',#732,#609,#610);
#488=AXIS2_PLACEMENT_3D('',#734,#611,#612);
#489=AXIS2_PLACEMENT_3D('',#737,#614,#615);
#490=AXIS2_PLACEMENT_3D('',#738,#616,#617);
#491=AXIS2_PLACEMENT_3D('',#739,#618,#619);
#492=AXIS2_PLACEMENT_3D('',#741,#620,#621);
#493=AXIS2_PLACEMENT_3D('',#743,#622,#623);
#494=AXIS2_PLACEMENT_3D('',#744,#624,#625);
#495=AXIS2_PLACEMENT_3D('',#746,#626,#627);
#496=AXIS2_PLACEMENT_3D('',#748,#628,#629);
#497=AXIS2_PLACEMENT_3D('',#749,#630,#631);
#498=AXIS2_PLACEMENT_3D('',#751,#633,#634);
#499=AXIS2_PLACEMENT_3D('',#753,#635,#636);
#500=AXIS2_PLACEMENT_3D('',#755,#638,#639);
#501=AXIS2_PLACEMENT_3D('',#758,#641,#642);
#502=AXIS2_PLACEMENT_3D('',#759,#643,#644);
#503=AXIS2_PLACEMENT_3D('',#760,#645,#646);
#504=DIRECTION('axis',(0.,0.,1.));
#505=DIRECTION('refdir',(1.,0.,0.));
#506=DIRECTION('center_axis',(0.,0.,1.));
#507=DIRECTION('ref_axis',(1.,0.,0.));
#508=DIRECTION('center_axis',(0.,0.,-1.));
#509=DIRECTION('ref_axis',(1.,0.,0.));
#510=DIRECTION('',(0.,0.,1.));
#511=DIRECTION('center_axis',(0.,0.,-1.));
#512=DIRECTION('ref_axis',(1.,0.,0.));
#513=DIRECTION('center_axis',(0.,0.,-1.));
#514=DIRECTION('ref_axis',(-1.,0.,0.));
#515=DIRECTION('center_axis',(0.,0.,1.));
#516=DIRECTION('ref_axis',(1.,0.,0.));
#517=DIRECTION('center_axis',(0.,0.,-1.));
#518=DIRECTION('ref_axis',(1.,0.,0.));
#519=DIRECTION('',(0.,0.,1.));
#520=DIRECTION('center_axis',(0.,0.,-1.));
#521=DIRECTION('ref_axis',(1.,0.,0.));
#522=DIRECTION('center_axis',(0.,0.,-1.));
#523=DIRECTION('ref_axis',(-1.,0.,0.));
#524=DIRECTION('center_axis',(0.,0.,1.));
#525=DIRECTION('ref_axis',(1.,0.,0.));
#526=DIRECTION('center_axis',(0.,0.,-1.));
#527=DIRECTION('ref_axis',(1.,0.,0.));
#528=DIRECTION('',(0.,0.,1.));
#529=DIRECTION('center_axis',(0.,0.,-1.));
#530=DIRECTION('ref_axis',(1.,0.,0.));
#531=DIRECTION('center_axis',(0.,0.,-1.));
#532=DIRECTION('ref_axis',(-1.,0.,0.));
#533=DIRECTION('center_axis',(0.,0.,1.));
#534=DIRECTION('ref_axis',(1.,0.,0.));
#535=DIRECTION('center_axis',(0.,0.,-1.));
#536=DIRECTION('ref_axis',(1.,0.,0.));
#537=DIRECTION('',(0.,0.,1.));
#538=DIRECTION('center_axis',(0.,0.,-1.));
#539=DIRECTION('ref_axis',(1.,0.,0.));
#540=DIRECTION('center_axis',(0.,0.,-1.));
#541=DIRECTION('ref_axis',(-1.,0.,0.));
#542=DIRECTION('center_axis',(0.,0.,1.));
#543=DIRECTION('ref_axis',(1.,0.,0.));
#544=DIRECTION('center_axis',(0.,0.,1.));
#545=DIRECTION('ref_axis',(1.,0.,0.));
#546=DIRECTION('',(0.,0.,1.));
#547=DIRECTION('center_axis',(0.,0.,-1.));
#548=DIRECTION('ref_axis',(1.,0.,0.));
#549=DIRECTION('center_axis',(0.,0.,1.));
#550=DIRECTION('ref_axis',(1.,0.,0.));
#551=DIRECTION('center_axis',(0.,0.,1.));
#552=DIRECTION('ref_axis',(1.,0.,0.));
#553=DIRECTION('',(0.,0.,1.));
#554=DIRECTION('center_axis',(0.,0.,-1.));
#555=DIRECTION('ref_axis',(1.,0.,0.));
#556=DIRECTION('center_axis',(0.,0.,1.));
#557=DIRECTION('ref_axis',(1.,0.,0.));
#558=DIRECTION('center_axis',(0.,0.,1.));
#559=DIRECTION('ref_axis',(1.,0.,0.));
#560=DIRECTION('',(0.,0.,1.));
#561=DIRECTION('center_axis',(0.,0.,-1.));
#562=DIRECTION('ref_axis',(1.,0.,0.));
#563=DIRECTION('center_axis',(0.,0.,1.));
#564=DIRECTION('ref_axis',(1.,0.,0.));
#565=DIRECTION('center_axis',(0.,0.,1.));
#566=DIRECTION('ref_axis',(1.,0.,0.));
#567=DIRECTION('',(0.,0.,1.));
#568=DIRECTION('center_axis',(0.,0.,-1.));
#569=DIRECTION('ref_axis',(1.,0.,0.));
#570=DIRECTION('center_axis',(0.,0.,1.));
#571=DIRECTION('ref_axis',(1.,0.,0.));
#572=DIRECTION('center_axis',(0.,0.,1.));
#573=DIRECTION('ref_axis',(1.,0.,0.));
#574=DIRECTION('',(0.,0.,1.));
#575=DIRECTION('center_axis',(0.,0.,-1.));
#576=DIRECTION('ref_axis',(1.,0.,0.));
#577=DIRECTION('center_axis',(0.,0.,1.));
#578=DIRECTION('ref_axis',(1.,0.,0.));
#579=DIRECTION('center_axis',(0.,0.,1.));
#580=DIRECTION('ref_axis',(1.,0.,0.));
#581=DIRECTION('',(0.,0.,1.));
#582=DIRECTION('center_axis',(0.,0.,-1.));
#583=DIRECTION('ref_axis',(1.,0.,0.));
#584=DIRECTION('center_axis',(0.,0.,1.));
#585=DIRECTION('ref_axis',(1.,0.,0.));
#586=DIRECTION('center_axis',(0.,0.,-1.));
#587=DIRECTION('ref_axis',(1.,0.,0.));
#588=DIRECTION('',(0.,0.,1.));
#589=DIRECTION('center_axis',(0.,0.,-1.));
#590=DIRECTION('ref_axis',(1.,0.,0.));
#591=DIRECTION('center_axis',(0.,0.,-1.));
#592=DIRECTION('ref_axis',(-1.,0.,0.));
#593=DIRECTION('center_axis',(0.,0.,1.));
#594=DIRECTION('ref_axis',(1.,0.,0.));
#595=DIRECTION('center_axis',(0.,0.,1.));
#596=DIRECTION('ref_axis',(1.,0.,0.));
#597=DIRECTION('center_axis',(0.,0.,1.));
#598=DIRECTION('ref_axis',(1.,0.,0.));
#599=DIRECTION('',(0.,0.,1.));
#600=DIRECTION('center_axis',(0.,0.,1.));
#601=DIRECTION('ref_axis',(1.,0.,0.));
#602=DIRECTION('center_axis',(0.,0.,1.));
#603=DIRECTION('ref_axis',(1.,0.,0.));
#604=DIRECTION('',(0.,0.,1.));
#605=DIRECTION('center_axis',(0.,0.,1.));
#606=DIRECTION('ref_axis',(1.,0.,0.));
#607=DIRECTION('center_axis',(0.,0.,1.));
#608=DIRECTION('ref_axis',(1.,0.,0.));
#609=DIRECTION('center_axis',(0.,0.,1.));
#610=DIRECTION('ref_axis',(1.,0.,0.));
#611=DIRECTION('center_axis',(0.,0.,1.));
#612=DIRECTION('ref_axis',(1.,0.,0.));
#613=DIRECTION('',(0.,0.,1.));
#614=DIRECTION('center_axis',(0.,0.,1.));
#615=DIRECTION('ref_axis',(1.,0.,0.));
#616=DIRECTION('center_axis',(0.,0.,1.));
#617=DIRECTION('ref_axis',(1.,0.,0.));
#618=DIRECTION('center_axis',(0.,0.,-1.));
#619=DIRECTION('ref_axis',(-1.,0.,0.));
#620=DIRECTION('center_axis',(0.,0.,-1.));
#621=DIRECTION('ref_axis',(1.,0.,0.));
#622=DIRECTION('center_axis',(0.,0.,-1.));
#623=DIRECTION('ref_axis',(1.,0.,0.));
#624=DIRECTION('center_axis',(0.,0.,1.));
#625=DIRECTION('ref_axis',(1.,0.,0.));
#626=DIRECTION('center_axis',(0.,0.,1.));
#627=DIRECTION('ref_axis',(1.,0.,0.));
#628=DIRECTION('center_axis',(0.,0.,1.));
#629=DIRECTION('ref_axis',(1.,0.,0.));
#630=DIRECTION('center_axis',(0.,0.,1.));
#631=DIRECTION('ref_axis',(1.,0.,0.));
#632=DIRECTION('',(0.,0.,-1.));
#633=DIRECTION('center_axis',(0.,0.,1.));
#634=DIRECTION('ref_axis',(1.,0.,0.));
#635=DIRECTION('center_axis',(0.,0.,1.));
#636=DIRECTION('ref_axis',(1.,0.,0.));
#637=DIRECTION('',(0.,0.,-1.));
#638=DIRECTION('center_axis',(0.,0.,1.));
#639=DIRECTION('ref_axis',(1.,0.,0.));
#640=DIRECTION('',(0.,0.,-1.));
#641=DIRECTION('center_axis',(0.,0.,-1.));
#642=DIRECTION('ref_axis',(1.,0.,0.));
#643=DIRECTION('center_axis',(0.,0.,-1.));
#644=DIRECTION('ref_axis',(-1.,0.,0.));
#645=DIRECTION('center_axis',(0.,0.,1.));
#646=DIRECTION('ref_axis',(1.,0.,0.));
#647=CARTESIAN_POINT('',(0.,0.,0.));
#648=CARTESIAN_POINT('Origin',(26.8700576850888,-26.8700576850888,182.5));
#649=CARTESIAN_POINT('',(25.1700576850888,-26.8700576850888,175.));
#650=CARTESIAN_POINT('Origin',(26.8700576850888,-26.8700576850888,175.));
#651=CARTESIAN_POINT('',(25.1700576850888,-26.8700576850888,184.));
#652=CARTESIAN_POINT('',(25.1700576850888,-26.8700576850888,182.5));
#653=CARTESIAN_POINT('Origin',(26.8700576850888,-26.8700576850888,184.));
#654=CARTESIAN_POINT('Origin',(26.8700576850888,-26.8700576850888,175.));
#655=CARTESIAN_POINT('Origin',(-26.8700576850888,-26.8700576850888,182.5));
#656=CARTESIAN_POINT('',(-28.5700576850888,-26.8700576850888,175.));
#657=CARTESIAN_POINT('Origin',(-26.8700576850888,-26.8700576850888,175.));
#658=CARTESIAN_POINT('',(-28.5700576850888,-26.8700576850888,184.));
#659=CARTESIAN_POINT('',(-28.5700576850888,-26.8700576850888,182.5));
#660=CARTESIAN_POINT('Origin',(-26.8700576850888,-26.8700576850888,184.));
#661=CARTESIAN_POINT('Origin',(-26.8700576850888,-26.8700576850888,175.));
#662=CARTESIAN_POINT('Origin',(-26.8700576850888,26.8700576850888,182.5));
#663=CARTESIAN_POINT('',(-28.5700576850888,26.8700576850888,175.));
#664=CARTESIAN_POINT('Origin',(-26.8700576850888,26.8700576850888,175.));
#665=CARTESIAN_POINT('',(-28.5700576850888,26.8700576850888,184.));
#666=CARTESIAN_POINT('',(-28.5700576850888,26.8700576850888,182.5));
#667=CARTESIAN_POINT('Origin',(-26.8700576850888,26.8700576850888,184.));
#668=CARTESIAN_POINT('Origin',(-26.8700576850888,26.8700576850888,175.));
#669=CARTESIAN_POINT('Origin',(26.8700576850888,26.8700576850888,182.5));
#670=CARTESIAN_POINT('',(25.1700576850888,26.8700576850888,175.));
#671=CARTESIAN_POINT('Origin',(26.8700576850888,26.8700576850888,175.));
#672=CARTESIAN_POINT('',(25.1700576850888,26.8700576850888,184.));
#673=CARTESIAN_POINT('',(25.1700576850888,26.8700576850888,182.5));
#674=CARTESIAN_POINT('Origin',(26.8700576850888,26.8700576850888,184.));
#675=CARTESIAN_POINT('Origin',(26.8700576850888,26.8700576850888,175.));
#676=CARTESIAN_POINT('Origin',(30.,-51.9615242270663,161.));
#677=CARTESIAN_POINT('',(27.3,-51.9615242270663,158.));
#678=CARTESIAN_POINT('Origin',(30.,-51.9615242270663,158.));
#679=CARTESIAN_POINT('',(27.3,-51.9615242270663,164.));
#680=CARTESIAN_POINT('',(27.3,-51.9615242270663,161.));
#681=CARTESIAN_POINT('Origin',(30.,-51.9615242270663,164.));
#682=CARTESIAN_POINT('Origin',(-30.,-51.9615242270663,161.));
#683=CARTESIAN_POINT('',(-32.7,-51.9615242270663,158.));
#684=CARTESIAN_POINT('Origin',(-30.,-51.9615242270663,158.));
#685=CARTESIAN_POINT('',(-32.7,-51.9615242270663,164.));
#686=CARTESIAN_POINT('',(-32.7,-51.9615242270663,161.));
#687=CARTESIAN_POINT('Origin',(-30.,-51.9615242270663,164.));
#688=CARTESIAN_POINT('Origin',(-60.,7.34788079488412E-15,161.));
#689=CARTESIAN_POINT('',(-62.7,7.01722615911433E-15,158.));
#690=CARTESIAN_POINT('Origin',(-60.,7.34788079488412E-15,158.));
#691=CARTESIAN_POINT('',(-62.7,7.6785354306539E-15,164.));
#692=CARTESIAN_POINT('',(-62.7,7.01722615911433E-15,161.));
#693=CARTESIAN_POINT('Origin',(-60.,7.34788079488412E-15,164.));
#694=CARTESIAN_POINT('Origin',(-30.,51.9615242270663,161.));
#695=CARTESIAN_POINT('',(-32.7,51.9615242270663,158.));
#696=CARTESIAN_POINT('Origin',(-30.,51.9615242270663,158.));
#697=CARTESIAN_POINT('',(-32.7,51.9615242270663,164.));
#698=CARTESIAN_POINT('',(-32.7,51.9615242270663,161.));
#699=CARTESIAN_POINT('Origin',(-30.,51.9615242270663,164.));
#700=CARTESIAN_POINT('Origin',(30.,51.9615242270663,161.));
#701=CARTESIAN_POINT('',(27.3,51.9615242270663,158.));
#702=CARTESIAN_POINT('Origin',(30.,51.9615242270663,158.));
#703=CARTESIAN_POINT('',(27.3,51.9615242270663,164.));
#704=CARTESIAN_POINT('',(27.3,51.9615242270663,161.));
#705=CARTESIAN_POINT('Origin',(30.,51.9615242270663,164.));
#706=CARTESIAN_POINT('Origin',(60.,0.,161.));
#707=CARTESIAN_POINT('',(57.3,-3.30654635769785E-16,158.));
#708=CARTESIAN_POINT('Origin',(60.,0.,158.));
#709=CARTESIAN_POINT('',(57.3,3.30654635769785E-16,164.));
#710=CARTESIAN_POINT('',(57.3,-3.30654635769785E-16,161.));
#711=CARTESIAN_POINT('Origin',(60.,0.,164.));
#712=CARTESIAN_POINT('Origin',(0.,0.,186.1));
#713=CARTESIAN_POINT('',(-45.,-5.51091059616309E-15,184.));
#714=CARTESIAN_POINT('Origin',(0.,0.,184.));
#715=CARTESIAN_POINT('',(-45.,5.51091059616309E-15,188.));
#716=CARTESIAN_POINT('',(-45.,-5.51091059616309E-15,186.1));
#717=CARTESIAN_POINT('Origin',(0.,0.,188.));
#718=CARTESIAN_POINT('Origin',(0.,0.,184.));
#719=CARTESIAN_POINT('',(-23.6,-2.89016644598775E-15,184.));
#720=CARTESIAN_POINT('Origin',(0.,0.,184.));
#721=CARTESIAN_POINT('Origin',(0.,0.,180.45));
#722=CARTESIAN_POINT('',(-23.6,-2.89016644598775E-15,176.8));
#723=CARTESIAN_POINT('Origin',(0.,0.,176.8));
#724=CARTESIAN_POINT('',(-23.6,-2.89016644598775E-15,180.45));
#725=CARTESIAN_POINT('Origin',(0.,0.,170.55));
#726=CARTESIAN_POINT('',(-27.5,-3.36777869765522E-15,164.3));
#727=CARTESIAN_POINT('Origin',(0.,0.,164.3));
#728=CARTESIAN_POINT('',(-27.5,-3.36777869765522E-15,176.8));
#729=CARTESIAN_POINT('',(-27.5,-3.36777869765522E-15,170.55));
#730=CARTESIAN_POINT('Origin',(0.,0.,176.8));
#731=CARTESIAN_POINT('Origin',(0.,0.,176.8));
#732=CARTESIAN_POINT('Origin',(0.,0.,154.15));
#733=CARTESIAN_POINT('',(-34.1,-4.17604558509247E-15,145.));
#734=CARTESIAN_POINT('Origin',(0.,0.,145.));
#735=CARTESIAN_POINT('',(-34.1,-4.17604558509247E-15,164.3));
#736=CARTESIAN_POINT('',(-34.1,-4.17604558509247E-15,154.15));
#737=CARTESIAN_POINT('Origin',(0.,0.,164.3));
#738=CARTESIAN_POINT('Origin',(0.,0.,164.3));
#739=CARTESIAN_POINT('Origin',(0.,0.,158.));
#740=CARTESIAN_POINT('',(-70.,-8.57252759403147E-15,158.));
#741=CARTESIAN_POINT('Origin',(0.,0.,158.));
#742=CARTESIAN_POINT('',(-51.,6.2456986756515E-15,158.));
#743=CARTESIAN_POINT('Origin',(0.,0.,158.));
#744=CARTESIAN_POINT('Origin',(0.,0.,164.));
#745=CARTESIAN_POINT('',(-70.,-8.57252759403147E-15,164.));
#746=CARTESIAN_POINT('Origin',(0.,0.,164.));
#747=CARTESIAN_POINT('',(-51.,-6.2456986756515E-15,164.));
#748=CARTESIAN_POINT('Origin',(0.,0.,164.));
#749=CARTESIAN_POINT('Origin',(0.,0.,161.));
#750=CARTESIAN_POINT('',(-70.,-8.57252759403147E-15,161.));
#751=CARTESIAN_POINT('Origin',(0.,0.,166.5));
#752=CARTESIAN_POINT('',(-51.,-6.2456986756515E-15,188.));
#753=CARTESIAN_POINT('Origin',(0.,0.,188.));
#754=CARTESIAN_POINT('',(-51.,-6.2456986756515E-15,166.5));
#755=CARTESIAN_POINT('Origin',(0.,0.,166.5));
#756=CARTESIAN_POINT('',(-51.,-6.2456986756515E-15,145.));
#757=CARTESIAN_POINT('',(-51.,-6.2456986756515E-15,166.5));
#758=CARTESIAN_POINT('Origin',(0.,0.,145.));
#759=CARTESIAN_POINT('Origin',(0.,0.,145.));
#760=CARTESIAN_POINT('Origin',(0.,0.,188.));
#761=UNCERTAINTY_MEASURE_WITH_UNIT(LENGTH_MEASURE(0.01),#765,
'DISTANCE_ACCURACY_VALUE',
'Maximum model space distance between geometric entities at asserted c
onnectivities');
#762=UNCERTAINTY_MEASURE_WITH_UNIT(LENGTH_MEASURE(0.01),#765,
'DISTANCE_ACCURACY_VALUE',
'Maximum model space distance between geometric entities at asserted c
onnectivities');
#763=(
GEOMETRIC_REPRESENTATION_CONTEXT(3)
GLOBAL_UNCERTAINTY_ASSIGNED_CONTEXT((#761))
GLOBAL_UNIT_ASSIGNED_CONTEXT((#765,#767,#768))
REPRESENTATION_CONTEXT('','3D')
);
#764=(
GEOMETRIC_REPRESENTATION_CONTEXT(3)
GLOBAL_UNCERTAINTY_ASSIGNED_CONTEXT((#762))
GLOBAL_UNIT_ASSIGNED_CONTEXT((#765,#767,#768))
REPRESENTATION_CONTEXT('','3D')
);
#765=(
LENGTH_UNIT()
NAMED_UNIT(*)
SI_UNIT(.MILLI.,.METRE.)
);
#766=(
LENGTH_UNIT()
NAMED_UNIT(*)
SI_UNIT($,.METRE.)
);
#767=(
NAMED_UNIT(*)
PLANE_ANGLE_UNIT()
SI_UNIT($,.RADIAN.)
);
#768=(
NAMED_UNIT(*)
SI_UNIT($,.STERADIAN.)
SOLID_ANGLE_UNIT()
);
#769=SHAPE_DEFINITION_REPRESENTATION(#770,#771);
#770=PRODUCT_DEFINITION_SHAPE('',$,#773);
#771=SHAPE_REPRESENTATION('',(#441),#763);
#772=PRODUCT_DEFINITION_CONTEXT('part definition',#777,'design');
#773=PRODUCT_DEFINITION('2026-08-12-23-06-28-821',
'EXPORT_TMP_PRINT_V010A_P009_J1_DualBearingHousing_F',#774,#772);
#774=PRODUCT_DEFINITION_FORMATION('',$,#779);
#775=PRODUCT_RELATED_PRODUCT_CATEGORY(
'EXPORT_TMP_PRINT_V010A_P009_J1_DualBearingHousing_F',
'EXPORT_TMP_PRINT_V010A_P009_J1_DualBearingHousing_F',(#779));
#776=APPLICATION_PROTOCOL_DEFINITION('international standard',
'automotive_design',2009,#777);
#777=APPLICATION_CONTEXT(
'Core Data for Automotive Mechanical Design Process');
#778=PRODUCT_CONTEXT('part definition',#777,'mechanical');
#779=PRODUCT('2026-08-12-23-06-28-821',
'EXPORT_TMP_PRINT_V010A_P009_J1_DualBearingHousing_F',$,(#778));
#780=PRESENTATION_STYLE_ASSIGNMENT((#781));
#781=SURFACE_STYLE_USAGE(.BOTH.,#782);
#782=SURFACE_SIDE_STYLE('',(#783));
#783=SURFACE_STYLE_FILL_AREA(#784);
#784=FILL_AREA_STYLE('Steel - Satin',(#785));
#785=FILL_AREA_STYLE_COLOUR('Steel - Satin',#786);
#786=COLOUR_RGB('Steel - Satin',0.627450980392157,0.627450980392157,0.627450980392157);
ENDSEC;
END-ISO-10303-21;
