ISO-10303-21;
HEADER;
/* Generated by software containing ST-Developer
 * from STEP Tools, Inc. (www.steptools.com) 
 */

FILE_DESCRIPTION(
/* description */ (''),
/* implementation_level */ '2;1');

FILE_NAME(
/* name */ 'PRINT_V010A_P010_J1_6807_TopRetainer_CSK.step',
/* time_stamp */ '2026-08-12T23:06:31+02:00',
/* author */ (''),
/* organization */ (''),
/* preprocessor_version */ 'ST-DEVELOPER v20.1',
/* originating_system */ 'Autodesk Translation Framework v15.8.0.0',
/* authorisation */ '');

FILE_SCHEMA (('AUTOMOTIVE_DESIGN { 1 0 10303 214 3 1 1 }'));
ENDSEC;

DATA;
#10=MECHANICAL_DESIGN_GEOMETRIC_PRESENTATION_REPRESENTATION('',(#13),#381);
#11=SHAPE_REPRESENTATION_RELATIONSHIP('SRR','None',#388,#12);
#12=ADVANCED_BREP_SHAPE_REPRESENTATION('',(#14),#380);
#13=STYLED_ITEM('',(#397),#14);
#14=MANIFOLD_SOLID_BREP('PRINT_V010A_P010_J1_6807_TopRetainer_CSK',#213);
#15=FACE_BOUND('',#56,.T.);
#16=FACE_BOUND('',#57,.T.);
#17=FACE_BOUND('',#58,.T.);
#18=FACE_BOUND('',#59,.T.);
#19=FACE_BOUND('',#60,.T.);
#20=FACE_BOUND('',#62,.T.);
#21=FACE_BOUND('',#63,.T.);
#22=FACE_BOUND('',#64,.T.);
#23=FACE_BOUND('',#65,.T.);
#24=FACE_BOUND('',#66,.T.);
#25=PLANE('',#253);
#26=PLANE('',#254);
#27=CYLINDRICAL_SURFACE('',#230,1.7);
#28=CYLINDRICAL_SURFACE('',#235,1.7);
#29=CYLINDRICAL_SURFACE('',#240,1.7);
#30=CYLINDRICAL_SURFACE('',#245,1.7);
#31=CYLINDRICAL_SURFACE('',#247,17.6);
#32=CYLINDRICAL_SURFACE('',#250,44.8);
#33=FACE_OUTER_BOUND('',#45,.T.);
#34=FACE_OUTER_BOUND('',#46,.T.);
#35=FACE_OUTER_BOUND('',#47,.T.);
#36=FACE_OUTER_BOUND('',#48,.T.);
#37=FACE_OUTER_BOUND('',#49,.T.);
#38=FACE_OUTER_BOUND('',#50,.T.);
#39=FACE_OUTER_BOUND('',#51,.T.);
#40=FACE_OUTER_BOUND('',#52,.T.);
#41=FACE_OUTER_BOUND('',#53,.T.);
#42=FACE_OUTER_BOUND('',#54,.T.);
#43=FACE_OUTER_BOUND('',#55,.T.);
#44=FACE_OUTER_BOUND('',#61,.T.);
#45=EDGE_LOOP('',(#145,#146,#147,#148));
#46=EDGE_LOOP('',(#149,#150,#151,#152));
#47=EDGE_LOOP('',(#153,#154,#155,#156));
#48=EDGE_LOOP('',(#157,#158,#159,#160));
#49=EDGE_LOOP('',(#161,#162,#163,#164));
#50=EDGE_LOOP('',(#165,#166,#167,#168));
#51=EDGE_LOOP('',(#169,#170,#171,#172));
#52=EDGE_LOOP('',(#173,#174,#175,#176));
#53=EDGE_LOOP('',(#177,#178,#179,#180));
#54=EDGE_LOOP('',(#181,#182,#183,#184));
#55=EDGE_LOOP('',(#185));
#56=EDGE_LOOP('',(#186));
#57=EDGE_LOOP('',(#187));
#58=EDGE_LOOP('',(#188));
#59=EDGE_LOOP('',(#189));
#60=EDGE_LOOP('',(#190));
#61=EDGE_LOOP('',(#191));
#62=EDGE_LOOP('',(#192));
#63=EDGE_LOOP('',(#193));
#64=EDGE_LOOP('',(#194));
#65=EDGE_LOOP('',(#195));
#66=EDGE_LOOP('',(#196));
#67=LINE('',#328,#77);
#68=LINE('',#333,#78);
#69=LINE('',#338,#79);
#70=LINE('',#343,#80);
#71=LINE('',#348,#81);
#72=LINE('',#353,#82);
#73=LINE('',#358,#83);
#74=LINE('',#363,#84);
#75=LINE('',#368,#85);
#76=LINE('',#374,#86);
#77=VECTOR('',#261,2.85);
#78=VECTOR('',#268,1.7);
#79=VECTOR('',#273,2.85);
#80=VECTOR('',#280,1.7);
#81=VECTOR('',#285,2.85);
#82=VECTOR('',#292,1.7);
#83=VECTOR('',#297,2.85);
#84=VECTOR('',#304,1.7);
#85=VECTOR('',#309,17.6);
#86=VECTOR('',#316,44.8);
#87=CIRCLE('',#228,4.00000000000002);
#88=CIRCLE('',#229,1.7);
#89=CIRCLE('',#231,1.7);
#90=CIRCLE('',#233,4.00000000000002);
#91=CIRCLE('',#234,1.7);
#92=CIRCLE('',#236,1.7);
#93=CIRCLE('',#238,4.00000000000002);
#94=CIRCLE('',#239,1.7);
#95=CIRCLE('',#241,1.7);
#96=CIRCLE('',#243,4.00000000000002);
#97=CIRCLE('',#244,1.7);
#98=CIRCLE('',#246,1.7);
#99=CIRCLE('',#248,17.6);
#100=CIRCLE('',#249,17.6);
#101=CIRCLE('',#251,44.8);
#102=CIRCLE('',#252,44.8);
#103=VERTEX_POINT('',#325);
#104=VERTEX_POINT('',#327);
#105=VERTEX_POINT('',#331);
#106=VERTEX_POINT('',#335);
#107=VERTEX_POINT('',#337);
#108=VERTEX_POINT('',#341);
#109=VERTEX_POINT('',#345);
#110=VERTEX_POINT('',#347);
#111=VERTEX_POINT('',#351);
#112=VERTEX_POINT('',#355);
#113=VERTEX_POINT('',#357);
#114=VERTEX_POINT('',#361);
#115=VERTEX_POINT('',#365);
#116=VERTEX_POINT('',#367);
#117=VERTEX_POINT('',#371);
#118=VERTEX_POINT('',#373);
#119=EDGE_CURVE('',#103,#103,#87,.T.);
#120=EDGE_CURVE('',#103,#104,#67,.T.);
#121=EDGE_CURVE('',#104,#104,#88,.T.);
#122=EDGE_CURVE('',#105,#105,#89,.T.);
#123=EDGE_CURVE('',#105,#104,#68,.T.);
#124=EDGE_CURVE('',#106,#106,#90,.T.);
#125=EDGE_CURVE('',#106,#107,#69,.T.);
#126=EDGE_CURVE('',#107,#107,#91,.T.);
#127=EDGE_CURVE('',#108,#108,#92,.T.);
#128=EDGE_CURVE('',#108,#107,#70,.T.);
#129=EDGE_CURVE('',#109,#109,#93,.T.);
#130=EDGE_CURVE('',#109,#110,#71,.T.);
#131=EDGE_CURVE('',#110,#110,#94,.T.);
#132=EDGE_CURVE('',#111,#111,#95,.T.);
#133=EDGE_CURVE('',#111,#110,#72,.T.);
#134=EDGE_CURVE('',#112,#112,#96,.T.);
#135=EDGE_CURVE('',#112,#113,#73,.T.);
#136=EDGE_CURVE('',#113,#113,#97,.T.);
#137=EDGE_CURVE('',#114,#114,#98,.T.);
#138=EDGE_CURVE('',#114,#113,#74,.T.);
#139=EDGE_CURVE('',#115,#115,#99,.T.);
#140=EDGE_CURVE('',#115,#116,#75,.T.);
#141=EDGE_CURVE('',#116,#116,#100,.T.);
#142=EDGE_CURVE('',#117,#117,#101,.T.);
#143=EDGE_CURVE('',#117,#118,#76,.T.);
#144=EDGE_CURVE('',#118,#118,#102,.T.);
#145=ORIENTED_EDGE('',*,*,#119,.F.);
#146=ORIENTED_EDGE('',*,*,#120,.T.);
#147=ORIENTED_EDGE('',*,*,#121,.F.);
#148=ORIENTED_EDGE('',*,*,#120,.F.);
#149=ORIENTED_EDGE('',*,*,#122,.F.);
#150=ORIENTED_EDGE('',*,*,#123,.T.);
#151=ORIENTED_EDGE('',*,*,#121,.T.);
#152=ORIENTED_EDGE('',*,*,#123,.F.);
#153=ORIENTED_EDGE('',*,*,#124,.F.);
#154=ORIENTED_EDGE('',*,*,#125,.T.);
#155=ORIENTED_EDGE('',*,*,#126,.F.);
#156=ORIENTED_EDGE('',*,*,#125,.F.);
#157=ORIENTED_EDGE('',*,*,#127,.F.);
#158=ORIENTED_EDGE('',*,*,#128,.T.);
#159=ORIENTED_EDGE('',*,*,#126,.T.);
#160=ORIENTED_EDGE('',*,*,#128,.F.);
#161=ORIENTED_EDGE('',*,*,#129,.F.);
#162=ORIENTED_EDGE('',*,*,#130,.T.);
#163=ORIENTED_EDGE('',*,*,#131,.F.);
#164=ORIENTED_EDGE('',*,*,#130,.F.);
#165=ORIENTED_EDGE('',*,*,#132,.F.);
#166=ORIENTED_EDGE('',*,*,#133,.T.);
#167=ORIENTED_EDGE('',*,*,#131,.T.);
#168=ORIENTED_EDGE('',*,*,#133,.F.);
#169=ORIENTED_EDGE('',*,*,#134,.F.);
#170=ORIENTED_EDGE('',*,*,#135,.T.);
#171=ORIENTED_EDGE('',*,*,#136,.F.);
#172=ORIENTED_EDGE('',*,*,#135,.F.);
#173=ORIENTED_EDGE('',*,*,#137,.F.);
#174=ORIENTED_EDGE('',*,*,#138,.T.);
#175=ORIENTED_EDGE('',*,*,#136,.T.);
#176=ORIENTED_EDGE('',*,*,#138,.F.);
#177=ORIENTED_EDGE('',*,*,#139,.F.);
#178=ORIENTED_EDGE('',*,*,#140,.T.);
#179=ORIENTED_EDGE('',*,*,#141,.F.);
#180=ORIENTED_EDGE('',*,*,#140,.F.);
#181=ORIENTED_EDGE('',*,*,#142,.F.);
#182=ORIENTED_EDGE('',*,*,#143,.T.);
#183=ORIENTED_EDGE('',*,*,#144,.F.);
#184=ORIENTED_EDGE('',*,*,#143,.F.);
#185=ORIENTED_EDGE('',*,*,#144,.T.);
#186=ORIENTED_EDGE('',*,*,#122,.T.);
#187=ORIENTED_EDGE('',*,*,#127,.T.);
#188=ORIENTED_EDGE('',*,*,#132,.T.);
#189=ORIENTED_EDGE('',*,*,#137,.T.);
#190=ORIENTED_EDGE('',*,*,#139,.T.);
#191=ORIENTED_EDGE('',*,*,#142,.T.);
#192=ORIENTED_EDGE('',*,*,#119,.T.);
#193=ORIENTED_EDGE('',*,*,#124,.T.);
#194=ORIENTED_EDGE('',*,*,#129,.T.);
#195=ORIENTED_EDGE('',*,*,#134,.T.);
#196=ORIENTED_EDGE('',*,*,#141,.T.);
#197=CONICAL_SURFACE('',#227,2.85,0.855052737126018);
#198=CONICAL_SURFACE('',#232,2.85,0.855052737126018);
#199=CONICAL_SURFACE('',#237,2.85,0.855052737126018);
#200=CONICAL_SURFACE('',#242,2.85,0.855052737126018);
#201=ADVANCED_FACE('',(#33),#197,.F.);
#202=ADVANCED_FACE('',(#34),#27,.F.);
#203=ADVANCED_FACE('',(#35),#198,.F.);
#204=ADVANCED_FACE('',(#36),#28,.F.);
#205=ADVANCED_FACE('',(#37),#199,.F.);
#206=ADVANCED_FACE('',(#38),#29,.F.);
#207=ADVANCED_FACE('',(#39),#200,.F.);
#208=ADVANCED_FACE('',(#40),#30,.F.);
#209=ADVANCED_FACE('',(#41),#31,.F.);
#210=ADVANCED_FACE('',(#42),#32,.T.);
#211=ADVANCED_FACE('',(#43,#15,#16,#17,#18,#19),#25,.T.);
#212=ADVANCED_FACE('',(#44,#20,#21,#22,#23,#24),#26,.T.);
#213=CLOSED_SHELL('',(#201,#202,#203,#204,#205,#206,#207,#208,#209,#210,
#211,#212));
#214=DERIVED_UNIT_ELEMENT(#216,1.);
#215=DERIVED_UNIT_ELEMENT(#383,-3.);
#216=(
MASS_UNIT()
NAMED_UNIT(*)
SI_UNIT(.KILO.,.GRAM.)
);
#217=DERIVED_UNIT((#214,#215));
#218=MEASURE_REPRESENTATION_ITEM('density measure',
POSITIVE_RATIO_MEASURE(7850.),#217);
#219=PROPERTY_DEFINITION_REPRESENTATION(#224,#221);
#220=PROPERTY_DEFINITION_REPRESENTATION(#225,#222);
#221=REPRESENTATION('material name',(#223),#380);
#222=REPRESENTATION('density',(#218),#380);
#223=DESCRIPTIVE_REPRESENTATION_ITEM('Steel','Steel');
#224=PROPERTY_DEFINITION('material property','material name',#390);
#225=PROPERTY_DEFINITION('material property','density of part',#390);
#226=AXIS2_PLACEMENT_3D('',#323,#255,#256);
#227=AXIS2_PLACEMENT_3D('',#324,#257,#258);
#228=AXIS2_PLACEMENT_3D('',#326,#259,#260);
#229=AXIS2_PLACEMENT_3D('',#329,#262,#263);
#230=AXIS2_PLACEMENT_3D('',#330,#264,#265);
#231=AXIS2_PLACEMENT_3D('',#332,#266,#267);
#232=AXIS2_PLACEMENT_3D('',#334,#269,#270);
#233=AXIS2_PLACEMENT_3D('',#336,#271,#272);
#234=AXIS2_PLACEMENT_3D('',#339,#274,#275);
#235=AXIS2_PLACEMENT_3D('',#340,#276,#277);
#236=AXIS2_PLACEMENT_3D('',#342,#278,#279);
#237=AXIS2_PLACEMENT_3D('',#344,#281,#282);
#238=AXIS2_PLACEMENT_3D('',#346,#283,#284);
#239=AXIS2_PLACEMENT_3D('',#349,#286,#287);
#240=AXIS2_PLACEMENT_3D('',#350,#288,#289);
#241=AXIS2_PLACEMENT_3D('',#352,#290,#291);
#242=AXIS2_PLACEMENT_3D('',#354,#293,#294);
#243=AXIS2_PLACEMENT_3D('',#356,#295,#296);
#244=AXIS2_PLACEMENT_3D('',#359,#298,#299);
#245=AXIS2_PLACEMENT_3D('',#360,#300,#301);
#246=AXIS2_PLACEMENT_3D('',#362,#302,#303);
#247=AXIS2_PLACEMENT_3D('',#364,#305,#306);
#248=AXIS2_PLACEMENT_3D('',#366,#307,#308);
#249=AXIS2_PLACEMENT_3D('',#369,#310,#311);
#250=AXIS2_PLACEMENT_3D('',#370,#312,#313);
#251=AXIS2_PLACEMENT_3D('',#372,#314,#315);
#252=AXIS2_PLACEMENT_3D('',#375,#317,#318);
#253=AXIS2_PLACEMENT_3D('',#376,#319,#320);
#254=AXIS2_PLACEMENT_3D('',#377,#321,#322);
#255=DIRECTION('axis',(0.,0.,1.));
#256=DIRECTION('refdir',(1.,0.,0.));
#257=DIRECTION('center_axis',(0.,0.,1.));
#258=DIRECTION('ref_axis',(1.,0.,0.));
#259=DIRECTION('center_axis',(0.,0.,-1.));
#260=DIRECTION('ref_axis',(1.,0.,0.));
#261=DIRECTION('',(0.754605522163506,-9.24125237336455E-17,-0.656178714924785));
#262=DIRECTION('center_axis',(0.,0.,1.));
#263=DIRECTION('ref_axis',(1.,0.,0.));
#264=DIRECTION('center_axis',(0.,0.,1.));
#265=DIRECTION('ref_axis',(1.,0.,0.));
#266=DIRECTION('center_axis',(0.,0.,1.));
#267=DIRECTION('ref_axis',(1.,0.,0.));
#268=DIRECTION('',(0.,0.,1.));
#269=DIRECTION('center_axis',(0.,0.,1.));
#270=DIRECTION('ref_axis',(1.,0.,0.));
#271=DIRECTION('center_axis',(0.,0.,-1.));
#272=DIRECTION('ref_axis',(1.,0.,0.));
#273=DIRECTION('',(0.754605522163506,-9.24125237336455E-17,-0.656178714924785));
#274=DIRECTION('center_axis',(0.,0.,1.));
#275=DIRECTION('ref_axis',(1.,0.,0.));
#276=DIRECTION('center_axis',(0.,0.,1.));
#277=DIRECTION('ref_axis',(1.,0.,0.));
#278=DIRECTION('center_axis',(0.,0.,1.));
#279=DIRECTION('ref_axis',(1.,0.,0.));
#280=DIRECTION('',(0.,0.,1.));
#281=DIRECTION('center_axis',(0.,0.,1.));
#282=DIRECTION('ref_axis',(1.,0.,0.));
#283=DIRECTION('center_axis',(0.,0.,-1.));
#284=DIRECTION('ref_axis',(1.,0.,0.));
#285=DIRECTION('',(0.754605522163506,-9.24125237336455E-17,-0.656178714924785));
#286=DIRECTION('center_axis',(0.,0.,1.));
#287=DIRECTION('ref_axis',(1.,0.,0.));
#288=DIRECTION('center_axis',(0.,0.,1.));
#289=DIRECTION('ref_axis',(1.,0.,0.));
#290=DIRECTION('center_axis',(0.,0.,1.));
#291=DIRECTION('ref_axis',(1.,0.,0.));
#292=DIRECTION('',(0.,0.,1.));
#293=DIRECTION('center_axis',(0.,0.,1.));
#294=DIRECTION('ref_axis',(1.,0.,0.));
#295=DIRECTION('center_axis',(0.,0.,-1.));
#296=DIRECTION('ref_axis',(1.,0.,0.));
#297=DIRECTION('',(0.754605522163506,-9.24125237336455E-17,-0.656178714924785));
#298=DIRECTION('center_axis',(0.,0.,1.));
#299=DIRECTION('ref_axis',(1.,0.,0.));
#300=DIRECTION('center_axis',(0.,0.,1.));
#301=DIRECTION('ref_axis',(1.,0.,0.));
#302=DIRECTION('center_axis',(0.,0.,1.));
#303=DIRECTION('ref_axis',(1.,0.,0.));
#304=DIRECTION('',(0.,0.,1.));
#305=DIRECTION('center_axis',(0.,0.,1.));
#306=DIRECTION('ref_axis',(1.,0.,0.));
#307=DIRECTION('center_axis',(0.,0.,1.));
#308=DIRECTION('ref_axis',(1.,0.,0.));
#309=DIRECTION('',(0.,0.,1.));
#310=DIRECTION('center_axis',(0.,0.,-1.));
#311=DIRECTION('ref_axis',(1.,0.,0.));
#312=DIRECTION('center_axis',(0.,0.,1.));
#313=DIRECTION('ref_axis',(1.,0.,0.));
#314=DIRECTION('center_axis',(0.,0.,1.));
#315=DIRECTION('ref_axis',(1.,0.,0.));
#316=DIRECTION('',(0.,0.,-1.));
#317=DIRECTION('center_axis',(0.,0.,-1.));
#318=DIRECTION('ref_axis',(1.,0.,0.));
#319=DIRECTION('center_axis',(0.,0.,-1.));
#320=DIRECTION('ref_axis',(-1.,0.,0.));
#321=DIRECTION('center_axis',(0.,0.,1.));
#322=DIRECTION('ref_axis',(1.,0.,0.));
#323=CARTESIAN_POINT('',(0.,0.,0.));
#324=CARTESIAN_POINT('Origin',(26.8700576850888,-26.8700576850888,187.));
#325=CARTESIAN_POINT('',(22.8700576850888,-26.8700576850888,188.));
#326=CARTESIAN_POINT('Origin',(26.8700576850888,-26.8700576850888,188.));
#327=CARTESIAN_POINT('',(25.1700576850888,-26.8700576850888,186.));
#328=CARTESIAN_POINT('',(24.0200576850888,-26.8700576850888,187.));
#329=CARTESIAN_POINT('Origin',(26.8700576850888,-26.8700576850888,186.));
#330=CARTESIAN_POINT('Origin',(26.8700576850888,-26.8700576850888,186.));
#331=CARTESIAN_POINT('',(25.1700576850888,-26.8700576850888,184.));
#332=CARTESIAN_POINT('Origin',(26.8700576850888,-26.8700576850888,184.));
#333=CARTESIAN_POINT('',(25.1700576850888,-26.8700576850888,186.));
#334=CARTESIAN_POINT('Origin',(-26.8700576850888,-26.8700576850888,187.));
#335=CARTESIAN_POINT('',(-30.8700576850888,-26.8700576850888,188.));
#336=CARTESIAN_POINT('Origin',(-26.8700576850888,-26.8700576850888,188.));
#337=CARTESIAN_POINT('',(-28.5700576850888,-26.8700576850888,186.));
#338=CARTESIAN_POINT('',(-29.7200576850888,-26.8700576850888,187.));
#339=CARTESIAN_POINT('Origin',(-26.8700576850888,-26.8700576850888,186.));
#340=CARTESIAN_POINT('Origin',(-26.8700576850888,-26.8700576850888,186.));
#341=CARTESIAN_POINT('',(-28.5700576850888,-26.8700576850888,184.));
#342=CARTESIAN_POINT('Origin',(-26.8700576850888,-26.8700576850888,184.));
#343=CARTESIAN_POINT('',(-28.5700576850888,-26.8700576850888,186.));
#344=CARTESIAN_POINT('Origin',(-26.8700576850888,26.8700576850888,187.));
#345=CARTESIAN_POINT('',(-30.8700576850888,26.8700576850888,188.));
#346=CARTESIAN_POINT('Origin',(-26.8700576850888,26.8700576850888,188.));
#347=CARTESIAN_POINT('',(-28.5700576850888,26.8700576850888,186.));
#348=CARTESIAN_POINT('',(-29.7200576850888,26.8700576850888,187.));
#349=CARTESIAN_POINT('Origin',(-26.8700576850888,26.8700576850888,186.));
#350=CARTESIAN_POINT('Origin',(-26.8700576850888,26.8700576850888,186.));
#351=CARTESIAN_POINT('',(-28.5700576850888,26.8700576850888,184.));
#352=CARTESIAN_POINT('Origin',(-26.8700576850888,26.8700576850888,184.));
#353=CARTESIAN_POINT('',(-28.5700576850888,26.8700576850888,186.));
#354=CARTESIAN_POINT('Origin',(26.8700576850888,26.8700576850888,187.));
#355=CARTESIAN_POINT('',(22.8700576850888,26.8700576850888,188.));
#356=CARTESIAN_POINT('Origin',(26.8700576850888,26.8700576850888,188.));
#357=CARTESIAN_POINT('',(25.1700576850888,26.8700576850888,186.));
#358=CARTESIAN_POINT('',(24.0200576850888,26.8700576850888,187.));
#359=CARTESIAN_POINT('Origin',(26.8700576850888,26.8700576850888,186.));
#360=CARTESIAN_POINT('Origin',(26.8700576850888,26.8700576850888,186.));
#361=CARTESIAN_POINT('',(25.1700576850888,26.8700576850888,184.));
#362=CARTESIAN_POINT('Origin',(26.8700576850888,26.8700576850888,184.));
#363=CARTESIAN_POINT('',(25.1700576850888,26.8700576850888,186.));
#364=CARTESIAN_POINT('Origin',(0.,0.,186.));
#365=CARTESIAN_POINT('',(-17.6,-2.15537836649934E-15,184.));
#366=CARTESIAN_POINT('Origin',(0.,0.,184.));
#367=CARTESIAN_POINT('',(-17.6,2.15537836649934E-15,188.));
#368=CARTESIAN_POINT('',(-17.6,-2.15537836649934E-15,186.));
#369=CARTESIAN_POINT('Origin',(0.,0.,188.));
#370=CARTESIAN_POINT('Origin',(0.,0.,186.));
#371=CARTESIAN_POINT('',(-44.8,-5.48641766018014E-15,188.));
#372=CARTESIAN_POINT('Origin',(0.,0.,188.));
#373=CARTESIAN_POINT('',(-44.8,-5.48641766018014E-15,184.));
#374=CARTESIAN_POINT('',(-44.8,-5.48641766018014E-15,186.));
#375=CARTESIAN_POINT('Origin',(0.,0.,184.));
#376=CARTESIAN_POINT('Origin',(0.,0.,184.));
#377=CARTESIAN_POINT('Origin',(0.,0.,188.));
#378=UNCERTAINTY_MEASURE_WITH_UNIT(LENGTH_MEASURE(0.01),#382,
'DISTANCE_ACCURACY_VALUE',
'Maximum model space distance between geometric entities at asserted c
onnectivities');
#379=UNCERTAINTY_MEASURE_WITH_UNIT(LENGTH_MEASURE(0.01),#382,
'DISTANCE_ACCURACY_VALUE',
'Maximum model space distance between geometric entities at asserted c
onnectivities');
#380=(
GEOMETRIC_REPRESENTATION_CONTEXT(3)
GLOBAL_UNCERTAINTY_ASSIGNED_CONTEXT((#378))
GLOBAL_UNIT_ASSIGNED_CONTEXT((#382,#384,#385))
REPRESENTATION_CONTEXT('','3D')
);
#381=(
GEOMETRIC_REPRESENTATION_CONTEXT(3)
GLOBAL_UNCERTAINTY_ASSIGNED_CONTEXT((#379))
GLOBAL_UNIT_ASSIGNED_CONTEXT((#382,#384,#385))
REPRESENTATION_CONTEXT('','3D')
);
#382=(
LENGTH_UNIT()
NAMED_UNIT(*)
SI_UNIT(.MILLI.,.METRE.)
);
#383=(
LENGTH_UNIT()
NAMED_UNIT(*)
SI_UNIT($,.METRE.)
);
#384=(
NAMED_UNIT(*)
PLANE_ANGLE_UNIT()
SI_UNIT($,.RADIAN.)
);
#385=(
NAMED_UNIT(*)
SI_UNIT($,.STERADIAN.)
SOLID_ANGLE_UNIT()
);
#386=SHAPE_DEFINITION_REPRESENTATION(#387,#388);
#387=PRODUCT_DEFINITION_SHAPE('',$,#390);
#388=SHAPE_REPRESENTATION('',(#226),#380);
#389=PRODUCT_DEFINITION_CONTEXT('part definition',#394,'design');
#390=PRODUCT_DEFINITION('2026-08-12-23-06-31-784',
'EXPORT_TMP_PRINT_V010A_P010_J1_6807_TopRetainer_CSK',#391,#389);
#391=PRODUCT_DEFINITION_FORMATION('',$,#396);
#392=PRODUCT_RELATED_PRODUCT_CATEGORY(
'EXPORT_TMP_PRINT_V010A_P010_J1_6807_TopRetainer_CSK',
'EXPORT_TMP_PRINT_V010A_P010_J1_6807_TopRetainer_CSK',(#396));
#393=APPLICATION_PROTOCOL_DEFINITION('international standard',
'automotive_design',2009,#394);
#394=APPLICATION_CONTEXT(
'Core Data for Automotive Mechanical Design Process');
#395=PRODUCT_CONTEXT('part definition',#394,'mechanical');
#396=PRODUCT('2026-08-12-23-06-31-784',
'EXPORT_TMP_PRINT_V010A_P010_J1_6807_TopRetainer_CSK',$,(#395));
#397=PRESENTATION_STYLE_ASSIGNMENT((#398));
#398=SURFACE_STYLE_USAGE(.BOTH.,#399);
#399=SURFACE_SIDE_STYLE('',(#400));
#400=SURFACE_STYLE_FILL_AREA(#401);
#401=FILL_AREA_STYLE('Steel - Satin',(#402));
#402=FILL_AREA_STYLE_COLOUR('Steel - Satin',#403);
#403=COLOUR_RGB('Steel - Satin',0.627450980392157,0.627450980392157,0.627450980392157);
ENDSEC;
END-ISO-10303-21;
