ISO-10303-21;
HEADER;
/* Generated by software containing ST-Developer
 * from STEP Tools, Inc. (www.steptools.com) 
 */

FILE_DESCRIPTION(
/* description */ (''),
/* implementation_level */ '2;1');

FILE_NAME(
/* name */ 'PRINT_V015_P101A_J1_JournalCartridge.step',
/* time_stamp */ '2026-08-17T10:00:56+02:00',
/* author */ (''),
/* organization */ (''),
/* preprocessor_version */ 'ST-DEVELOPER v20.1',
/* originating_system */ 'Autodesk Translation Framework v15.8.0.0',
/* authorisation */ '');

FILE_SCHEMA (('AUTOMOTIVE_DESIGN { 1 0 10303 214 3 1 1 }'));
ENDSEC;

DATA;
#10=MECHANICAL_DESIGN_GEOMETRIC_PRESENTATION_REPRESENTATION('',(#13),#912);
#11=SHAPE_REPRESENTATION_RELATIONSHIP('SRR','None',#919,#12);
#12=ADVANCED_BREP_SHAPE_REPRESENTATION('',(#14),#911);
#13=STYLED_ITEM('',(#928),#14);
#14=MANIFOLD_SOLID_BREP('PRINT_V015_P101A_J1_JournalCartridge',#497);
#15=B_SPLINE_CURVE_WITH_KNOTS('',3,(#803,#804,#805,#806,#807,#808,#809,
#810,#811,#812,#813,#814,#815,#816,#817,#818,#819,#820,#821,#822,#823,#824,
#825,#826,#827,#828,#829,#830,#831,#832,#833,#834,#835,#836),
 .UNSPECIFIED.,.T.,.F.,(4,2,2,2,2,2,2,2,2,2,2,2,2,2,2,2,4),(0.,0.0989460730194584,
0.197892146038917,0.296773751419423,0.395655356799929,0.494536962180435,
0.593418567560941,0.692364640580399,0.791310713599857,0.890256786619316,
0.989202859638774,1.08808446501928,1.18696607039979,1.28584767578029,1.3847292811608,
1.48367535418026,1.58262142719971),.UNSPECIFIED.);
#16=B_SPLINE_CURVE_WITH_KNOTS('',3,(#856,#857,#858,#859,#860,#861,#862,
#863,#864,#865,#866,#867,#868,#869,#870,#871,#872,#873,#874,#875,#876,#877,
#878,#879,#880,#881),.UNSPECIFIED.,.F.,.F.,(4,2,2,2,2,2,2,2,2,2,2,2,4),
(-2.77824639717018,-2.60460346233177,-2.43096052749336,-2.2573226626855,
-2.08368479787763,-1.91004693306977,-1.73640906826191,-1.5627661334235,
-1.38912319858509,-1.21548026374668,-1.04183732890827,-0.868199464100408,
-0.694561599292545),.UNSPECIFIED.);
#17=B_SPLINE_CURVE_WITH_KNOTS('',3,(#882,#883,#884,#885,#886,#887,#888,
#889,#890,#891),.UNSPECIFIED.,.F.,.F.,(4,2,2,2,4),(-0.694561599292545,-0.520923734484682,
-0.34728586967682,-0.17364293483841,0.),.UNSPECIFIED.);
#18=CYLINDRICAL_SURFACE('',#518,2.75);
#19=CYLINDRICAL_SURFACE('',#520,2.75);
#20=CYLINDRICAL_SURFACE('',#522,2.75);
#21=CYLINDRICAL_SURFACE('',#524,2.75);
#22=CYLINDRICAL_SURFACE('',#536,30.);
#23=CYLINDRICAL_SURFACE('',#537,17.4);
#24=CYLINDRICAL_SURFACE('',#539,7.2);
#25=CYLINDRICAL_SURFACE('',#549,2.6);
#26=CYLINDRICAL_SURFACE('',#551,27.);
#27=CYLINDRICAL_SURFACE('',#553,19.9);
#28=CYLINDRICAL_SURFACE('',#559,4.6);
#29=CYLINDRICAL_SURFACE('',#562,17.4);
#30=FACE_BOUND('',#101,.T.);
#31=FACE_BOUND('',#102,.T.);
#32=FACE_BOUND('',#103,.T.);
#33=FACE_BOUND('',#104,.T.);
#34=FACE_BOUND('',#113,.T.);
#35=FACE_BOUND('',#114,.T.);
#36=FACE_BOUND('',#115,.T.);
#37=FACE_BOUND('',#116,.T.);
#38=FACE_BOUND('',#117,.T.);
#39=FACE_BOUND('',#120,.T.);
#40=FACE_BOUND('',#125,.T.);
#41=FACE_BOUND('',#128,.T.);
#42=FACE_BOUND('',#131,.T.);
#43=FACE_BOUND('',#134,.T.);
#44=FACE_BOUND('',#137,.T.);
#45=FACE_BOUND('',#139,.T.);
#46=FACE_BOUND('',#142,.T.);
#47=CIRCLE('',#513,2.75);
#48=CIRCLE('',#514,2.75);
#49=CIRCLE('',#515,2.75);
#50=CIRCLE('',#516,2.75);
#51=CIRCLE('',#519,2.75);
#52=CIRCLE('',#521,2.75);
#53=CIRCLE('',#523,2.75);
#54=CIRCLE('',#525,2.75);
#55=CIRCLE('',#529,30.);
#56=CIRCLE('',#530,17.4);
#57=CIRCLE('',#533,30.);
#58=CIRCLE('',#534,7.2);
#59=CIRCLE('',#538,17.4);
#60=CIRCLE('',#540,7.2);
#61=CIRCLE('',#541,7.2);
#62=CIRCLE('',#542,7.2);
#63=CIRCLE('',#545,27.);
#64=CIRCLE('',#548,19.9);
#65=CIRCLE('',#550,2.6);
#66=CIRCLE('',#552,27.);
#67=CIRCLE('',#554,19.9);
#68=CIRCLE('',#556,4.6);
#69=CIRCLE('',#558,17.4);
#70=CIRCLE('',#561,17.4);
#71=FACE_OUTER_BOUND('',#99,.T.);
#72=FACE_OUTER_BOUND('',#100,.T.);
#73=FACE_OUTER_BOUND('',#105,.T.);
#74=FACE_OUTER_BOUND('',#106,.T.);
#75=FACE_OUTER_BOUND('',#107,.T.);
#76=FACE_OUTER_BOUND('',#108,.T.);
#77=FACE_OUTER_BOUND('',#109,.T.);
#78=FACE_OUTER_BOUND('',#110,.T.);
#79=FACE_OUTER_BOUND('',#111,.T.);
#80=FACE_OUTER_BOUND('',#112,.T.);
#81=FACE_OUTER_BOUND('',#118,.T.);
#82=FACE_OUTER_BOUND('',#119,.T.);
#83=FACE_OUTER_BOUND('',#121,.T.);
#84=FACE_OUTER_BOUND('',#122,.T.);
#85=FACE_OUTER_BOUND('',#123,.T.);
#86=FACE_OUTER_BOUND('',#124,.T.);
#87=FACE_OUTER_BOUND('',#126,.T.);
#88=FACE_OUTER_BOUND('',#127,.T.);
#89=FACE_OUTER_BOUND('',#129,.T.);
#90=FACE_OUTER_BOUND('',#130,.T.);
#91=FACE_OUTER_BOUND('',#132,.T.);
#92=FACE_OUTER_BOUND('',#133,.T.);
#93=FACE_OUTER_BOUND('',#135,.T.);
#94=FACE_OUTER_BOUND('',#136,.T.);
#95=FACE_OUTER_BOUND('',#138,.T.);
#96=FACE_OUTER_BOUND('',#140,.T.);
#97=FACE_OUTER_BOUND('',#141,.T.);
#98=FACE_OUTER_BOUND('',#143,.T.);
#99=EDGE_LOOP('',(#325,#326,#327,#328));
#100=EDGE_LOOP('',(#329,#330,#331,#332));
#101=EDGE_LOOP('',(#333));
#102=EDGE_LOOP('',(#334));
#103=EDGE_LOOP('',(#335));
#104=EDGE_LOOP('',(#336));
#105=EDGE_LOOP('',(#337,#338,#339,#340));
#106=EDGE_LOOP('',(#341,#342,#343,#344));
#107=EDGE_LOOP('',(#345,#346,#347,#348));
#108=EDGE_LOOP('',(#349,#350,#351,#352));
#109=EDGE_LOOP('',(#353,#354,#355,#356));
#110=EDGE_LOOP('',(#357,#358,#359,#360,#361,#362,#363,#364));
#111=EDGE_LOOP('',(#365,#366,#367,#368));
#112=EDGE_LOOP('',(#369,#370,#371,#372,#373,#374,#375,#376));
#113=EDGE_LOOP('',(#377));
#114=EDGE_LOOP('',(#378));
#115=EDGE_LOOP('',(#379));
#116=EDGE_LOOP('',(#380));
#117=EDGE_LOOP('',(#381));
#118=EDGE_LOOP('',(#382,#383,#384,#385));
#119=EDGE_LOOP('',(#386,#387,#388,#389));
#120=EDGE_LOOP('',(#390,#391));
#121=EDGE_LOOP('',(#392,#393,#394,#395));
#122=EDGE_LOOP('',(#396,#397,#398,#399));
#123=EDGE_LOOP('',(#400,#401,#402,#403));
#124=EDGE_LOOP('',(#404,#405,#406,#407,#408,#409,#410,#411));
#125=EDGE_LOOP('',(#412));
#126=EDGE_LOOP('',(#413,#414,#415,#416));
#127=EDGE_LOOP('',(#417));
#128=EDGE_LOOP('',(#418));
#129=EDGE_LOOP('',(#419,#420,#421));
#130=EDGE_LOOP('',(#422));
#131=EDGE_LOOP('',(#423));
#132=EDGE_LOOP('',(#424,#425,#426,#427));
#133=EDGE_LOOP('',(#428,#429,#430,#431));
#134=EDGE_LOOP('',(#432,#433));
#135=EDGE_LOOP('',(#434,#435,#436,#437));
#136=EDGE_LOOP('',(#438));
#137=EDGE_LOOP('',(#439));
#138=EDGE_LOOP('',(#440));
#139=EDGE_LOOP('',(#441));
#140=EDGE_LOOP('',(#442,#443,#444,#445,#446));
#141=EDGE_LOOP('',(#447));
#142=EDGE_LOOP('',(#448));
#143=EDGE_LOOP('',(#449,#450,#451,#452));
#144=LINE('',#710,#181);
#145=LINE('',#712,#182);
#146=LINE('',#714,#183);
#147=LINE('',#715,#184);
#148=LINE('',#718,#185);
#149=LINE('',#720,#186);
#150=LINE('',#721,#187);
#151=LINE('',#732,#188);
#152=LINE('',#734,#189);
#153=LINE('',#735,#190);
#154=LINE('',#739,#191);
#155=LINE('',#743,#192);
#156=LINE('',#747,#193);
#157=LINE('',#751,#194);
#158=LINE('',#754,#195);
#159=LINE('',#756,#196);
#160=LINE('',#758,#197);
#161=LINE('',#760,#198);
#162=LINE('',#761,#199);
#163=LINE('',#763,#200);
#164=LINE('',#766,#201);
#165=LINE('',#769,#202);
#166=LINE('',#774,#203);
#167=LINE('',#775,#204);
#168=LINE('',#779,#205);
#169=LINE('',#783,#206);
#170=LINE('',#785,#207);
#171=LINE('',#789,#208);
#172=LINE('',#795,#209);
#173=LINE('',#798,#210);
#174=LINE('',#800,#211);
#175=LINE('',#838,#212);
#176=LINE('',#848,#213);
#177=LINE('',#852,#214);
#178=LINE('',#895,#215);
#179=LINE('',#903,#216);
#180=LINE('',#908,#217);
#181=VECTOR('',#567,10.);
#182=VECTOR('',#568,10.);
#183=VECTOR('',#569,10.);
#184=VECTOR('',#570,10.);
#185=VECTOR('',#573,1.);
#186=VECTOR('',#574,1.);
#187=VECTOR('',#575,10.);
#188=VECTOR('',#586,10.);
#189=VECTOR('',#587,10.);
#190=VECTOR('',#588,10.);
#191=VECTOR('',#593,2.75);
#192=VECTOR('',#598,2.75);
#193=VECTOR('',#603,2.75);
#194=VECTOR('',#608,2.75);
#195=VECTOR('',#611,1.);
#196=VECTOR('',#612,1.);
#197=VECTOR('',#613,1.);
#198=VECTOR('',#614,1.);
#199=VECTOR('',#615,1.);
#200=VECTOR('',#618,1.);
#201=VECTOR('',#621,1.);
#202=VECTOR('',#624,1.);
#203=VECTOR('',#629,1.);
#204=VECTOR('',#630,1.);
#205=VECTOR('',#635,1.);
#206=VECTOR('',#638,1.);
#207=VECTOR('',#641,1.);
#208=VECTOR('',#646,17.4);
#209=VECTOR('',#653,7.2);
#210=VECTOR('',#656,1.);
#211=VECTOR('',#657,1.);
#212=VECTOR('',#662,1.);
#213=VECTOR('',#675,2.6);
#214=VECTOR('',#680,27.);
#215=VECTOR('',#687,19.9);
#216=VECTOR('',#698,4.6);
#217=VECTOR('',#705,17.4);
#218=VERTEX_POINT('',#708);
#219=VERTEX_POINT('',#709);
#220=VERTEX_POINT('',#711);
#221=VERTEX_POINT('',#713);
#222=VERTEX_POINT('',#717);
#223=VERTEX_POINT('',#719);
#224=VERTEX_POINT('',#722);
#225=VERTEX_POINT('',#724);
#226=VERTEX_POINT('',#726);
#227=VERTEX_POINT('',#728);
#228=VERTEX_POINT('',#731);
#229=VERTEX_POINT('',#733);
#230=VERTEX_POINT('',#737);
#231=VERTEX_POINT('',#741);
#232=VERTEX_POINT('',#745);
#233=VERTEX_POINT('',#749);
#234=VERTEX_POINT('',#753);
#235=VERTEX_POINT('',#755);
#236=VERTEX_POINT('',#757);
#237=VERTEX_POINT('',#759);
#238=VERTEX_POINT('',#765);
#239=VERTEX_POINT('',#767);
#240=VERTEX_POINT('',#770);
#241=VERTEX_POINT('',#773);
#242=VERTEX_POINT('',#777);
#243=VERTEX_POINT('',#780);
#244=VERTEX_POINT('',#781);
#245=VERTEX_POINT('',#788);
#246=VERTEX_POINT('',#792);
#247=VERTEX_POINT('',#794);
#248=VERTEX_POINT('',#796);
#249=VERTEX_POINT('',#799);
#250=VERTEX_POINT('',#802);
#251=VERTEX_POINT('',#840);
#252=VERTEX_POINT('',#844);
#253=VERTEX_POINT('',#847);
#254=VERTEX_POINT('',#851);
#255=VERTEX_POINT('',#854);
#256=VERTEX_POINT('',#855);
#257=VERTEX_POINT('',#893);
#258=VERTEX_POINT('',#897);
#259=VERTEX_POINT('',#900);
#260=VERTEX_POINT('',#905);
#261=EDGE_CURVE('',#218,#219,#144,.T.);
#262=EDGE_CURVE('',#219,#220,#145,.T.);
#263=EDGE_CURVE('',#220,#221,#146,.T.);
#264=EDGE_CURVE('',#218,#221,#147,.T.);
#265=EDGE_CURVE('',#218,#222,#148,.T.);
#266=EDGE_CURVE('',#223,#221,#149,.T.);
#267=EDGE_CURVE('',#223,#222,#150,.T.);
#268=EDGE_CURVE('',#224,#224,#47,.T.);
#269=EDGE_CURVE('',#225,#225,#48,.T.);
#270=EDGE_CURVE('',#226,#226,#49,.T.);
#271=EDGE_CURVE('',#227,#227,#50,.T.);
#272=EDGE_CURVE('',#228,#222,#151,.T.);
#273=EDGE_CURVE('',#223,#229,#152,.T.);
#274=EDGE_CURVE('',#229,#228,#153,.T.);
#275=EDGE_CURVE('',#230,#230,#51,.T.);
#276=EDGE_CURVE('',#230,#227,#154,.T.);
#277=EDGE_CURVE('',#231,#231,#52,.T.);
#278=EDGE_CURVE('',#231,#226,#155,.T.);
#279=EDGE_CURVE('',#232,#232,#53,.T.);
#280=EDGE_CURVE('',#232,#225,#156,.T.);
#281=EDGE_CURVE('',#233,#233,#54,.T.);
#282=EDGE_CURVE('',#233,#224,#157,.T.);
#283=EDGE_CURVE('',#234,#228,#158,.T.);
#284=EDGE_CURVE('',#235,#234,#159,.T.);
#285=EDGE_CURVE('',#236,#235,#160,.T.);
#286=EDGE_CURVE('',#237,#236,#161,.T.);
#287=EDGE_CURVE('',#219,#237,#162,.T.);
#288=EDGE_CURVE('',#229,#220,#163,.T.);
#289=EDGE_CURVE('',#237,#238,#164,.T.);
#290=EDGE_CURVE('',#238,#239,#55,.T.);
#291=EDGE_CURVE('',#239,#234,#165,.T.);
#292=EDGE_CURVE('',#240,#240,#56,.T.);
#293=EDGE_CURVE('',#241,#239,#166,.T.);
#294=EDGE_CURVE('',#235,#241,#167,.T.);
#295=EDGE_CURVE('',#241,#242,#57,.T.);
#296=EDGE_CURVE('',#242,#236,#168,.T.);
#297=EDGE_CURVE('',#243,#244,#58,.T.);
#298=EDGE_CURVE('',#244,#243,#169,.T.);
#299=EDGE_CURVE('',#238,#242,#170,.T.);
#300=EDGE_CURVE('',#240,#245,#171,.T.);
#301=EDGE_CURVE('',#245,#245,#59,.T.);
#302=EDGE_CURVE('',#246,#246,#60,.T.);
#303=EDGE_CURVE('',#246,#247,#172,.T.);
#304=EDGE_CURVE('',#247,#248,#61,.T.);
#305=EDGE_CURVE('',#248,#244,#173,.T.);
#306=EDGE_CURVE('',#243,#249,#174,.T.);
#307=EDGE_CURVE('',#249,#247,#62,.T.);
#308=EDGE_CURVE('',#250,#250,#15,.T.);
#309=EDGE_CURVE('',#248,#249,#175,.T.);
#310=EDGE_CURVE('',#251,#251,#63,.T.);
#311=EDGE_CURVE('',#252,#252,#64,.T.);
#312=EDGE_CURVE('',#250,#253,#176,.T.);
#313=EDGE_CURVE('',#253,#253,#65,.T.);
#314=EDGE_CURVE('',#251,#254,#177,.T.);
#315=EDGE_CURVE('',#254,#254,#66,.T.);
#316=EDGE_CURVE('',#255,#256,#16,.T.);
#317=EDGE_CURVE('',#256,#255,#17,.T.);
#318=EDGE_CURVE('',#257,#257,#67,.T.);
#319=EDGE_CURVE('',#257,#252,#178,.T.);
#320=EDGE_CURVE('',#258,#258,#68,.T.);
#321=EDGE_CURVE('',#259,#259,#69,.T.);
#322=EDGE_CURVE('',#258,#256,#179,.T.);
#323=EDGE_CURVE('',#260,#260,#70,.T.);
#324=EDGE_CURVE('',#259,#260,#180,.T.);
#325=ORIENTED_EDGE('',*,*,#261,.T.);
#326=ORIENTED_EDGE('',*,*,#262,.T.);
#327=ORIENTED_EDGE('',*,*,#263,.T.);
#328=ORIENTED_EDGE('',*,*,#264,.F.);
#329=ORIENTED_EDGE('',*,*,#265,.F.);
#330=ORIENTED_EDGE('',*,*,#264,.T.);
#331=ORIENTED_EDGE('',*,*,#266,.F.);
#332=ORIENTED_EDGE('',*,*,#267,.T.);
#333=ORIENTED_EDGE('',*,*,#268,.T.);
#334=ORIENTED_EDGE('',*,*,#269,.T.);
#335=ORIENTED_EDGE('',*,*,#270,.T.);
#336=ORIENTED_EDGE('',*,*,#271,.T.);
#337=ORIENTED_EDGE('',*,*,#272,.T.);
#338=ORIENTED_EDGE('',*,*,#267,.F.);
#339=ORIENTED_EDGE('',*,*,#273,.T.);
#340=ORIENTED_EDGE('',*,*,#274,.T.);
#341=ORIENTED_EDGE('',*,*,#275,.F.);
#342=ORIENTED_EDGE('',*,*,#276,.T.);
#343=ORIENTED_EDGE('',*,*,#271,.F.);
#344=ORIENTED_EDGE('',*,*,#276,.F.);
#345=ORIENTED_EDGE('',*,*,#277,.F.);
#346=ORIENTED_EDGE('',*,*,#278,.T.);
#347=ORIENTED_EDGE('',*,*,#270,.F.);
#348=ORIENTED_EDGE('',*,*,#278,.F.);
#349=ORIENTED_EDGE('',*,*,#279,.F.);
#350=ORIENTED_EDGE('',*,*,#280,.T.);
#351=ORIENTED_EDGE('',*,*,#269,.F.);
#352=ORIENTED_EDGE('',*,*,#280,.F.);
#353=ORIENTED_EDGE('',*,*,#281,.F.);
#354=ORIENTED_EDGE('',*,*,#282,.T.);
#355=ORIENTED_EDGE('',*,*,#268,.F.);
#356=ORIENTED_EDGE('',*,*,#282,.F.);
#357=ORIENTED_EDGE('',*,*,#261,.F.);
#358=ORIENTED_EDGE('',*,*,#265,.T.);
#359=ORIENTED_EDGE('',*,*,#272,.F.);
#360=ORIENTED_EDGE('',*,*,#283,.F.);
#361=ORIENTED_EDGE('',*,*,#284,.F.);
#362=ORIENTED_EDGE('',*,*,#285,.F.);
#363=ORIENTED_EDGE('',*,*,#286,.F.);
#364=ORIENTED_EDGE('',*,*,#287,.F.);
#365=ORIENTED_EDGE('',*,*,#263,.F.);
#366=ORIENTED_EDGE('',*,*,#288,.F.);
#367=ORIENTED_EDGE('',*,*,#273,.F.);
#368=ORIENTED_EDGE('',*,*,#266,.T.);
#369=ORIENTED_EDGE('',*,*,#262,.F.);
#370=ORIENTED_EDGE('',*,*,#287,.T.);
#371=ORIENTED_EDGE('',*,*,#289,.T.);
#372=ORIENTED_EDGE('',*,*,#290,.T.);
#373=ORIENTED_EDGE('',*,*,#291,.T.);
#374=ORIENTED_EDGE('',*,*,#283,.T.);
#375=ORIENTED_EDGE('',*,*,#274,.F.);
#376=ORIENTED_EDGE('',*,*,#288,.T.);
#377=ORIENTED_EDGE('',*,*,#275,.T.);
#378=ORIENTED_EDGE('',*,*,#277,.T.);
#379=ORIENTED_EDGE('',*,*,#279,.T.);
#380=ORIENTED_EDGE('',*,*,#281,.T.);
#381=ORIENTED_EDGE('',*,*,#292,.F.);
#382=ORIENTED_EDGE('',*,*,#284,.T.);
#383=ORIENTED_EDGE('',*,*,#291,.F.);
#384=ORIENTED_EDGE('',*,*,#293,.F.);
#385=ORIENTED_EDGE('',*,*,#294,.F.);
#386=ORIENTED_EDGE('',*,*,#285,.T.);
#387=ORIENTED_EDGE('',*,*,#294,.T.);
#388=ORIENTED_EDGE('',*,*,#295,.T.);
#389=ORIENTED_EDGE('',*,*,#296,.T.);
#390=ORIENTED_EDGE('',*,*,#297,.T.);
#391=ORIENTED_EDGE('',*,*,#298,.T.);
#392=ORIENTED_EDGE('',*,*,#286,.T.);
#393=ORIENTED_EDGE('',*,*,#296,.F.);
#394=ORIENTED_EDGE('',*,*,#299,.F.);
#395=ORIENTED_EDGE('',*,*,#289,.F.);
#396=ORIENTED_EDGE('',*,*,#299,.T.);
#397=ORIENTED_EDGE('',*,*,#295,.F.);
#398=ORIENTED_EDGE('',*,*,#293,.T.);
#399=ORIENTED_EDGE('',*,*,#290,.F.);
#400=ORIENTED_EDGE('',*,*,#292,.T.);
#401=ORIENTED_EDGE('',*,*,#300,.T.);
#402=ORIENTED_EDGE('',*,*,#301,.T.);
#403=ORIENTED_EDGE('',*,*,#300,.F.);
#404=ORIENTED_EDGE('',*,*,#302,.F.);
#405=ORIENTED_EDGE('',*,*,#303,.T.);
#406=ORIENTED_EDGE('',*,*,#304,.T.);
#407=ORIENTED_EDGE('',*,*,#305,.T.);
#408=ORIENTED_EDGE('',*,*,#297,.F.);
#409=ORIENTED_EDGE('',*,*,#306,.T.);
#410=ORIENTED_EDGE('',*,*,#307,.T.);
#411=ORIENTED_EDGE('',*,*,#303,.F.);
#412=ORIENTED_EDGE('',*,*,#308,.T.);
#413=ORIENTED_EDGE('',*,*,#309,.T.);
#414=ORIENTED_EDGE('',*,*,#306,.F.);
#415=ORIENTED_EDGE('',*,*,#298,.F.);
#416=ORIENTED_EDGE('',*,*,#305,.F.);
#417=ORIENTED_EDGE('',*,*,#310,.T.);
#418=ORIENTED_EDGE('',*,*,#301,.F.);
#419=ORIENTED_EDGE('',*,*,#309,.F.);
#420=ORIENTED_EDGE('',*,*,#304,.F.);
#421=ORIENTED_EDGE('',*,*,#307,.F.);
#422=ORIENTED_EDGE('',*,*,#311,.T.);
#423=ORIENTED_EDGE('',*,*,#302,.T.);
#424=ORIENTED_EDGE('',*,*,#308,.F.);
#425=ORIENTED_EDGE('',*,*,#312,.T.);
#426=ORIENTED_EDGE('',*,*,#313,.F.);
#427=ORIENTED_EDGE('',*,*,#312,.F.);
#428=ORIENTED_EDGE('',*,*,#310,.F.);
#429=ORIENTED_EDGE('',*,*,#314,.T.);
#430=ORIENTED_EDGE('',*,*,#315,.F.);
#431=ORIENTED_EDGE('',*,*,#314,.F.);
#432=ORIENTED_EDGE('',*,*,#316,.T.);
#433=ORIENTED_EDGE('',*,*,#317,.T.);
#434=ORIENTED_EDGE('',*,*,#318,.T.);
#435=ORIENTED_EDGE('',*,*,#319,.T.);
#436=ORIENTED_EDGE('',*,*,#311,.F.);
#437=ORIENTED_EDGE('',*,*,#319,.F.);
#438=ORIENTED_EDGE('',*,*,#320,.F.);
#439=ORIENTED_EDGE('',*,*,#313,.T.);
#440=ORIENTED_EDGE('',*,*,#315,.T.);
#441=ORIENTED_EDGE('',*,*,#321,.F.);
#442=ORIENTED_EDGE('',*,*,#320,.T.);
#443=ORIENTED_EDGE('',*,*,#322,.T.);
#444=ORIENTED_EDGE('',*,*,#316,.F.);
#445=ORIENTED_EDGE('',*,*,#317,.F.);
#446=ORIENTED_EDGE('',*,*,#322,.F.);
#447=ORIENTED_EDGE('',*,*,#318,.F.);
#448=ORIENTED_EDGE('',*,*,#323,.F.);
#449=ORIENTED_EDGE('',*,*,#321,.T.);
#450=ORIENTED_EDGE('',*,*,#324,.T.);
#451=ORIENTED_EDGE('',*,*,#323,.T.);
#452=ORIENTED_EDGE('',*,*,#324,.F.);
#453=PLANE('',#511);
#454=PLANE('',#512);
#455=PLANE('',#517);
#456=PLANE('',#526);
#457=PLANE('',#527);
#458=PLANE('',#528);
#459=PLANE('',#531);
#460=PLANE('',#532);
#461=PLANE('',#535);
#462=PLANE('',#543);
#463=PLANE('',#544);
#464=PLANE('',#546);
#465=PLANE('',#547);
#466=PLANE('',#555);
#467=PLANE('',#557);
#468=PLANE('',#560);
#469=ADVANCED_FACE('',(#71),#453,.F.);
#470=ADVANCED_FACE('',(#72,#30,#31,#32,#33),#454,.T.);
#471=ADVANCED_FACE('',(#73),#455,.F.);
#472=ADVANCED_FACE('',(#74),#18,.F.);
#473=ADVANCED_FACE('',(#75),#19,.F.);
#474=ADVANCED_FACE('',(#76),#20,.F.);
#475=ADVANCED_FACE('',(#77),#21,.F.);
#476=ADVANCED_FACE('',(#78),#456,.F.);
#477=ADVANCED_FACE('',(#79),#457,.F.);
#478=ADVANCED_FACE('',(#80,#34,#35,#36,#37,#38),#458,.T.);
#479=ADVANCED_FACE('',(#81),#459,.F.);
#480=ADVANCED_FACE('',(#82,#39),#460,.T.);
#481=ADVANCED_FACE('',(#83),#461,.F.);
#482=ADVANCED_FACE('',(#84),#22,.T.);
#483=ADVANCED_FACE('',(#85),#23,.T.);
#484=ADVANCED_FACE('',(#86,#40),#24,.F.);
#485=ADVANCED_FACE('',(#87),#462,.F.);
#486=ADVANCED_FACE('',(#88,#41),#463,.T.);
#487=ADVANCED_FACE('',(#89),#464,.F.);
#488=ADVANCED_FACE('',(#90,#42),#465,.T.);
#489=ADVANCED_FACE('',(#91),#25,.F.);
#490=ADVANCED_FACE('',(#92,#43),#26,.T.);
#491=ADVANCED_FACE('',(#93),#27,.T.);
#492=ADVANCED_FACE('',(#94,#44),#466,.F.);
#493=ADVANCED_FACE('',(#95,#45),#467,.T.);
#494=ADVANCED_FACE('',(#96),#28,.F.);
#495=ADVANCED_FACE('',(#97,#46),#468,.F.);
#496=ADVANCED_FACE('',(#98),#29,.T.);
#497=CLOSED_SHELL('',(#469,#470,#471,#472,#473,#474,#475,#476,#477,#478,
#479,#480,#481,#482,#483,#484,#485,#486,#487,#488,#489,#490,#491,#492,#493,
#494,#495,#496));
#498=DERIVED_UNIT_ELEMENT(#500,1.);
#499=DERIVED_UNIT_ELEMENT(#914,-3.);
#500=(
MASS_UNIT()
NAMED_UNIT(*)
SI_UNIT(.KILO.,.GRAM.)
);
#501=DERIVED_UNIT((#498,#499));
#502=MEASURE_REPRESENTATION_ITEM('density measure',
POSITIVE_RATIO_MEASURE(7850.),#501);
#503=PROPERTY_DEFINITION_REPRESENTATION(#508,#505);
#504=PROPERTY_DEFINITION_REPRESENTATION(#509,#506);
#505=REPRESENTATION('material name',(#507),#911);
#506=REPRESENTATION('density',(#502),#911);
#507=DESCRIPTIVE_REPRESENTATION_ITEM('Steel','Steel');
#508=PROPERTY_DEFINITION('material property','material name',#921);
#509=PROPERTY_DEFINITION('material property','density of part',#921);
#510=AXIS2_PLACEMENT_3D('',#706,#563,#564);
#511=AXIS2_PLACEMENT_3D('',#707,#565,#566);
#512=AXIS2_PLACEMENT_3D('',#716,#571,#572);
#513=AXIS2_PLACEMENT_3D('',#723,#576,#577);
#514=AXIS2_PLACEMENT_3D('',#725,#578,#579);
#515=AXIS2_PLACEMENT_3D('',#727,#580,#581);
#516=AXIS2_PLACEMENT_3D('',#729,#582,#583);
#517=AXIS2_PLACEMENT_3D('',#730,#584,#585);
#518=AXIS2_PLACEMENT_3D('',#736,#589,#590);
#519=AXIS2_PLACEMENT_3D('',#738,#591,#592);
#520=AXIS2_PLACEMENT_3D('',#740,#594,#595);
#521=AXIS2_PLACEMENT_3D('',#742,#596,#597);
#522=AXIS2_PLACEMENT_3D('',#744,#599,#600);
#523=AXIS2_PLACEMENT_3D('',#746,#601,#602);
#524=AXIS2_PLACEMENT_3D('',#748,#604,#605);
#525=AXIS2_PLACEMENT_3D('',#750,#606,#607);
#526=AXIS2_PLACEMENT_3D('',#752,#609,#610);
#527=AXIS2_PLACEMENT_3D('',#762,#616,#617);
#528=AXIS2_PLACEMENT_3D('',#764,#619,#620);
#529=AXIS2_PLACEMENT_3D('',#768,#622,#623);
#530=AXIS2_PLACEMENT_3D('',#771,#625,#626);
#531=AXIS2_PLACEMENT_3D('',#772,#627,#628);
#532=AXIS2_PLACEMENT_3D('',#776,#631,#632);
#533=AXIS2_PLACEMENT_3D('',#778,#633,#634);
#534=AXIS2_PLACEMENT_3D('',#782,#636,#637);
#535=AXIS2_PLACEMENT_3D('',#784,#639,#640);
#536=AXIS2_PLACEMENT_3D('',#786,#642,#643);
#537=AXIS2_PLACEMENT_3D('',#787,#644,#645);
#538=AXIS2_PLACEMENT_3D('',#790,#647,#648);
#539=AXIS2_PLACEMENT_3D('',#791,#649,#650);
#540=AXIS2_PLACEMENT_3D('',#793,#651,#652);
#541=AXIS2_PLACEMENT_3D('',#797,#654,#655);
#542=AXIS2_PLACEMENT_3D('',#801,#658,#659);
#543=AXIS2_PLACEMENT_3D('',#837,#660,#661);
#544=AXIS2_PLACEMENT_3D('',#839,#663,#664);
#545=AXIS2_PLACEMENT_3D('',#841,#665,#666);
#546=AXIS2_PLACEMENT_3D('',#842,#667,#668);
#547=AXIS2_PLACEMENT_3D('',#843,#669,#670);
#548=AXIS2_PLACEMENT_3D('',#845,#671,#672);
#549=AXIS2_PLACEMENT_3D('',#846,#673,#674);
#550=AXIS2_PLACEMENT_3D('',#849,#676,#677);
#551=AXIS2_PLACEMENT_3D('',#850,#678,#679);
#552=AXIS2_PLACEMENT_3D('',#853,#681,#682);
#553=AXIS2_PLACEMENT_3D('',#892,#683,#684);
#554=AXIS2_PLACEMENT_3D('',#894,#685,#686);
#555=AXIS2_PLACEMENT_3D('',#896,#688,#689);
#556=AXIS2_PLACEMENT_3D('',#898,#690,#691);
#557=AXIS2_PLACEMENT_3D('',#899,#692,#693);
#558=AXIS2_PLACEMENT_3D('',#901,#694,#695);
#559=AXIS2_PLACEMENT_3D('',#902,#696,#697);
#560=AXIS2_PLACEMENT_3D('',#904,#699,#700);
#561=AXIS2_PLACEMENT_3D('',#906,#701,#702);
#562=AXIS2_PLACEMENT_3D('',#907,#703,#704);
#563=DIRECTION('axis',(0.,0.,1.));
#564=DIRECTION('refdir',(1.,0.,0.));
#565=DIRECTION('center_axis',(0.,-1.,0.));
#566=DIRECTION('ref_axis',(0.,0.,-1.));
#567=DIRECTION('',(0.,0.,-1.));
#568=DIRECTION('',(-1.,0.,0.));
#569=DIRECTION('',(0.,0.,1.));
#570=DIRECTION('',(-1.,0.,0.));
#571=DIRECTION('center_axis',(0.,0.,1.));
#572=DIRECTION('ref_axis',(1.,0.,0.));
#573=DIRECTION('',(0.,-1.,0.));
#574=DIRECTION('',(0.,1.,0.));
#575=DIRECTION('',(1.,0.,0.));
#576=DIRECTION('center_axis',(0.,0.,-1.));
#577=DIRECTION('ref_axis',(1.,0.,0.));
#578=DIRECTION('center_axis',(0.,0.,-1.));
#579=DIRECTION('ref_axis',(1.,0.,0.));
#580=DIRECTION('center_axis',(0.,0.,-1.));
#581=DIRECTION('ref_axis',(1.,0.,0.));
#582=DIRECTION('center_axis',(0.,0.,-1.));
#583=DIRECTION('ref_axis',(1.,0.,0.));
#584=DIRECTION('center_axis',(0.,1.,0.));
#585=DIRECTION('ref_axis',(0.,0.,1.));
#586=DIRECTION('',(0.,0.,1.));
#587=DIRECTION('',(0.,0.,-1.));
#588=DIRECTION('',(1.,0.,0.));
#589=DIRECTION('center_axis',(0.,0.,1.));
#590=DIRECTION('ref_axis',(1.,0.,0.));
#591=DIRECTION('center_axis',(0.,0.,1.));
#592=DIRECTION('ref_axis',(1.,0.,0.));
#593=DIRECTION('',(0.,0.,1.));
#594=DIRECTION('center_axis',(0.,0.,1.));
#595=DIRECTION('ref_axis',(1.,0.,0.));
#596=DIRECTION('center_axis',(0.,0.,1.));
#597=DIRECTION('ref_axis',(1.,0.,0.));
#598=DIRECTION('',(0.,0.,1.));
#599=DIRECTION('center_axis',(0.,0.,1.));
#600=DIRECTION('ref_axis',(1.,0.,0.));
#601=DIRECTION('center_axis',(0.,0.,1.));
#602=DIRECTION('ref_axis',(1.,0.,0.));
#603=DIRECTION('',(0.,0.,1.));
#604=DIRECTION('center_axis',(0.,0.,1.));
#605=DIRECTION('ref_axis',(1.,0.,0.));
#606=DIRECTION('center_axis',(0.,0.,1.));
#607=DIRECTION('ref_axis',(1.,0.,0.));
#608=DIRECTION('',(0.,0.,1.));
#609=DIRECTION('center_axis',(-1.,0.,0.));
#610=DIRECTION('ref_axis',(0.,0.,1.));
#611=DIRECTION('',(0.,-1.,0.));
#612=DIRECTION('',(0.,0.,-1.));
#613=DIRECTION('',(0.,-1.,0.));
#614=DIRECTION('',(0.,0.,1.));
#615=DIRECTION('',(0.,-1.,0.));
#616=DIRECTION('center_axis',(1.,0.,0.));
#617=DIRECTION('ref_axis',(0.,0.,-1.));
#618=DIRECTION('',(0.,1.,0.));
#619=DIRECTION('center_axis',(0.,0.,-1.));
#620=DIRECTION('ref_axis',(-1.,0.,0.));
#621=DIRECTION('',(1.,0.,0.));
#622=DIRECTION('center_axis',(0.,0.,-1.));
#623=DIRECTION('ref_axis',(1.,0.,0.));
#624=DIRECTION('',(-1.,0.,0.));
#625=DIRECTION('center_axis',(0.,0.,-1.));
#626=DIRECTION('ref_axis',(1.,0.,0.));
#627=DIRECTION('center_axis',(0.,1.,0.));
#628=DIRECTION('ref_axis',(0.,0.,1.));
#629=DIRECTION('',(0.,0.,-1.));
#630=DIRECTION('',(1.,0.,0.));
#631=DIRECTION('center_axis',(0.,0.,1.));
#632=DIRECTION('ref_axis',(1.,0.,0.));
#633=DIRECTION('center_axis',(0.,0.,1.));
#634=DIRECTION('ref_axis',(1.,0.,0.));
#635=DIRECTION('',(-1.,0.,0.));
#636=DIRECTION('center_axis',(0.,0.,-1.));
#637=DIRECTION('ref_axis',(1.,0.,0.));
#638=DIRECTION('',(0.,1.,0.));
#639=DIRECTION('center_axis',(0.,-1.,0.));
#640=DIRECTION('ref_axis',(0.,0.,-1.));
#641=DIRECTION('',(0.,0.,1.));
#642=DIRECTION('center_axis',(0.,0.,1.));
#643=DIRECTION('ref_axis',(1.,0.,0.));
#644=DIRECTION('center_axis',(0.,0.,1.));
#645=DIRECTION('ref_axis',(1.,0.,0.));
#646=DIRECTION('',(0.,0.,-1.));
#647=DIRECTION('center_axis',(0.,0.,1.));
#648=DIRECTION('ref_axis',(1.,0.,0.));
#649=DIRECTION('center_axis',(0.,0.,1.));
#650=DIRECTION('ref_axis',(1.,0.,0.));
#651=DIRECTION('center_axis',(0.,0.,1.));
#652=DIRECTION('ref_axis',(1.,0.,0.));
#653=DIRECTION('',(0.,0.,1.));
#654=DIRECTION('center_axis',(0.,0.,1.));
#655=DIRECTION('ref_axis',(1.,0.,0.));
#656=DIRECTION('',(0.,0.,1.));
#657=DIRECTION('',(0.,0.,-1.));
#658=DIRECTION('center_axis',(0.,0.,1.));
#659=DIRECTION('ref_axis',(1.,0.,0.));
#660=DIRECTION('center_axis',(-1.,0.,0.));
#661=DIRECTION('ref_axis',(0.,0.,1.));
#662=DIRECTION('',(0.,1.,0.));
#663=DIRECTION('center_axis',(0.,0.,1.));
#664=DIRECTION('ref_axis',(1.,0.,0.));
#665=DIRECTION('center_axis',(0.,0.,1.));
#666=DIRECTION('ref_axis',(1.,0.,0.));
#667=DIRECTION('center_axis',(0.,0.,1.));
#668=DIRECTION('ref_axis',(1.,0.,0.));
#669=DIRECTION('center_axis',(0.,0.,-1.));
#670=DIRECTION('ref_axis',(-1.,0.,0.));
#671=DIRECTION('center_axis',(0.,0.,-1.));
#672=DIRECTION('ref_axis',(1.,0.,0.));
#673=DIRECTION('center_axis',(1.,0.,0.));
#674=DIRECTION('ref_axis',(0.,0.,-1.));
#675=DIRECTION('',(1.,0.,0.));
#676=DIRECTION('center_axis',(-1.,0.,0.));
#677=DIRECTION('ref_axis',(0.,0.,-1.));
#678=DIRECTION('center_axis',(0.,0.,1.));
#679=DIRECTION('ref_axis',(1.,0.,0.));
#680=DIRECTION('',(0.,0.,-1.));
#681=DIRECTION('center_axis',(0.,0.,-1.));
#682=DIRECTION('ref_axis',(1.,0.,0.));
#683=DIRECTION('center_axis',(0.,0.,1.));
#684=DIRECTION('ref_axis',(1.,0.,0.));
#685=DIRECTION('center_axis',(0.,0.,-1.));
#686=DIRECTION('ref_axis',(1.,0.,0.));
#687=DIRECTION('',(0.,0.,-1.));
#688=DIRECTION('center_axis',(-1.,0.,0.));
#689=DIRECTION('ref_axis',(0.,0.,1.));
#690=DIRECTION('center_axis',(-1.,0.,0.));
#691=DIRECTION('ref_axis',(0.,0.,-1.));
#692=DIRECTION('center_axis',(0.,0.,-1.));
#693=DIRECTION('ref_axis',(-1.,0.,0.));
#694=DIRECTION('center_axis',(0.,0.,-1.));
#695=DIRECTION('ref_axis',(1.,0.,0.));
#696=DIRECTION('center_axis',(1.,0.,0.));
#697=DIRECTION('ref_axis',(0.,0.,-1.));
#698=DIRECTION('',(1.,0.,0.));
#699=DIRECTION('center_axis',(0.,0.,-1.));
#700=DIRECTION('ref_axis',(-1.,0.,0.));
#701=DIRECTION('center_axis',(0.,0.,1.));
#702=DIRECTION('ref_axis',(1.,0.,0.));
#703=DIRECTION('center_axis',(0.,0.,1.));
#704=DIRECTION('ref_axis',(1.,0.,0.));
#705=DIRECTION('',(0.,0.,-1.));
#706=CARTESIAN_POINT('',(0.,0.,0.));
#707=CARTESIAN_POINT('Origin',(-15.,59.,172.));
#708=CARTESIAN_POINT('',(-57.,59.,200.));
#709=CARTESIAN_POINT('',(-57.,59.,188.2));
#710=CARTESIAN_POINT('',(-57.,59.,181.8));
#711=CARTESIAN_POINT('',(-75.,59.,188.2));
#712=CARTESIAN_POINT('',(-7.5,59.,188.2));
#713=CARTESIAN_POINT('',(-75.,59.,200.));
#714=CARTESIAN_POINT('',(-75.,59.,181.8));
#715=CARTESIAN_POINT('',(-15.,59.,200.));
#716=CARTESIAN_POINT('Origin',(-15.,0.,200.));
#717=CARTESIAN_POINT('',(-57.,-59.,200.));
#718=CARTESIAN_POINT('',(-57.,0.,200.));
#719=CARTESIAN_POINT('',(-75.,-59.,200.));
#720=CARTESIAN_POINT('',(-75.,0.,200.));
#721=CARTESIAN_POINT('',(-15.,-59.,200.));
#722=CARTESIAN_POINT('',(-68.75,-42.,200.));
#723=CARTESIAN_POINT('Origin',(-66.,-42.,200.));
#724=CARTESIAN_POINT('',(-68.75,-14.,200.));
#725=CARTESIAN_POINT('Origin',(-66.,-14.,200.));
#726=CARTESIAN_POINT('',(-68.75,14.,200.));
#727=CARTESIAN_POINT('Origin',(-66.,14.,200.));
#728=CARTESIAN_POINT('',(-68.75,42.,200.));
#729=CARTESIAN_POINT('Origin',(-66.,42.,200.));
#730=CARTESIAN_POINT('Origin',(-15.,-59.,172.));
#731=CARTESIAN_POINT('',(-57.,-59.,188.2));
#732=CARTESIAN_POINT('',(-57.,-59.,181.8));
#733=CARTESIAN_POINT('',(-75.,-59.,188.2));
#734=CARTESIAN_POINT('',(-75.,-59.,181.8));
#735=CARTESIAN_POINT('',(-7.5,-59.,188.2));
#736=CARTESIAN_POINT('Origin',(-66.,42.,232.));
#737=CARTESIAN_POINT('',(-68.75,42.,188.2));
#738=CARTESIAN_POINT('Origin',(-66.,42.,188.2));
#739=CARTESIAN_POINT('',(-68.75,42.,232.));
#740=CARTESIAN_POINT('Origin',(-66.,14.,232.));
#741=CARTESIAN_POINT('',(-68.75,14.,188.2));
#742=CARTESIAN_POINT('Origin',(-66.,14.,188.2));
#743=CARTESIAN_POINT('',(-68.75,14.,232.));
#744=CARTESIAN_POINT('Origin',(-66.,-14.,232.));
#745=CARTESIAN_POINT('',(-68.75,-14.,188.2));
#746=CARTESIAN_POINT('Origin',(-66.,-14.,188.2));
#747=CARTESIAN_POINT('',(-68.75,-14.,232.));
#748=CARTESIAN_POINT('Origin',(-66.,-42.,232.));
#749=CARTESIAN_POINT('',(-68.75,-42.,188.2));
#750=CARTESIAN_POINT('Origin',(-66.,-42.,188.2));
#751=CARTESIAN_POINT('',(-68.75,-42.,232.));
#752=CARTESIAN_POINT('Origin',(-57.,0.,191.6));
#753=CARTESIAN_POINT('',(-57.,-16.,188.2));
#754=CARTESIAN_POINT('',(-57.,0.,188.2));
#755=CARTESIAN_POINT('',(-57.,-16.,195.));
#756=CARTESIAN_POINT('',(-57.,-16.,191.6));
#757=CARTESIAN_POINT('',(-57.,16.,195.));
#758=CARTESIAN_POINT('',(-57.,0.,195.));
#759=CARTESIAN_POINT('',(-57.,16.,188.2));
#760=CARTESIAN_POINT('',(-57.,16.,191.6));
#761=CARTESIAN_POINT('',(-57.,0.,188.2));
#762=CARTESIAN_POINT('Origin',(-75.,0.,191.6));
#763=CARTESIAN_POINT('',(-75.,0.,188.2));
#764=CARTESIAN_POINT('Origin',(0.,0.,188.2));
#765=CARTESIAN_POINT('',(-25.37715508089,16.,188.2));
#766=CARTESIAN_POINT('',(-35.,16.,188.2));
#767=CARTESIAN_POINT('',(-25.37715508089,-16.,188.2));
#768=CARTESIAN_POINT('Origin',(0.,0.,188.2));
#769=CARTESIAN_POINT('',(-35.,-16.,188.2));
#770=CARTESIAN_POINT('',(-17.4,2.130885430516E-15,188.2));
#771=CARTESIAN_POINT('Origin',(0.,0.,188.2));
#772=CARTESIAN_POINT('Origin',(-35.,-16.,191.6));
#773=CARTESIAN_POINT('',(-25.37715508089,-16.,195.));
#774=CARTESIAN_POINT('',(-25.37715508089,-16.,191.6));
#775=CARTESIAN_POINT('',(-35.,-16.,195.));
#776=CARTESIAN_POINT('Origin',(0.,0.,195.));
#777=CARTESIAN_POINT('',(-25.37715508089,16.,195.));
#778=CARTESIAN_POINT('Origin',(0.,0.,195.));
#779=CARTESIAN_POINT('',(-35.,16.,195.));
#780=CARTESIAN_POINT('',(0.,7.2,195.));
#781=CARTESIAN_POINT('',(0.,-7.2,195.));
#782=CARTESIAN_POINT('Origin',(0.,0.,195.));
#783=CARTESIAN_POINT('',(0.,0.,195.));
#784=CARTESIAN_POINT('Origin',(-35.,16.,191.6));
#785=CARTESIAN_POINT('',(-25.37715508089,16.,191.6));
#786=CARTESIAN_POINT('Origin',(0.,0.,191.6));
#787=CARTESIAN_POINT('Origin',(0.,0.,176.25));
#788=CARTESIAN_POINT('',(-17.4,-2.130885430516E-15,176.));
#789=CARTESIAN_POINT('',(-17.4,-2.13088543051639E-15,176.25));
#790=CARTESIAN_POINT('Origin',(0.,0.,176.));
#791=CARTESIAN_POINT('Origin',(0.,0.,172.5));
#792=CARTESIAN_POINT('',(-7.2,-8.817456953861E-16,145.2));
#793=CARTESIAN_POINT('Origin',(0.,0.,145.2));
#794=CARTESIAN_POINT('',(-7.2,-8.81745695386094E-16,190.));
#795=CARTESIAN_POINT('',(-7.2,-8.81745695386094E-16,172.5));
#796=CARTESIAN_POINT('',(0.,-7.2,190.));
#797=CARTESIAN_POINT('Origin',(0.,0.,190.));
#798=CARTESIAN_POINT('',(0.,-7.2,172.5));
#799=CARTESIAN_POINT('',(0.,7.2,190.));
#800=CARTESIAN_POINT('',(0.,7.2,172.5));
#801=CARTESIAN_POINT('Origin',(0.,0.,190.));
#802=CARTESIAN_POINT('',(7.2,-2.632874924478E-16,172.6));
#803=CARTESIAN_POINT('Ctrl Pts',(6.71416413263781,2.6,170.));
#804=CARTESIAN_POINT('Ctrl Pts',(6.71416413263781,2.6,170.329820243398));
#805=CARTESIAN_POINT('Ctrl Pts',(6.7410274062097,2.53347212628666,170.679331126792));
#806=CARTESIAN_POINT('Ctrl Pts',(6.8351598838562,2.26727142706729,171.318883409972));
#807=CARTESIAN_POINT('Ctrl Pts',(6.90077575053852,2.06773248851914,171.609222773651));
#808=CARTESIAN_POINT('Ctrl Pts',(7.02182822831794,1.60937214308948,172.067583119081));
#809=CARTESIAN_POINT('Ctrl Pts',(7.08552346698549,1.31897442273065,172.2672363987));
#810=CARTESIAN_POINT('Ctrl Pts',(7.17516700954205,0.679201528650173,172.533523214874));
#811=CARTESIAN_POINT('Ctrl Pts',(7.2,0.329605351268353,172.6));
#812=CARTESIAN_POINT('Ctrl Pts',(7.2,-0.329605351268353,172.6));
#813=CARTESIAN_POINT('Ctrl Pts',(7.17516700954205,-0.679201528650172,172.533523214874));
#814=CARTESIAN_POINT('Ctrl Pts',(7.08552346698549,-1.31897442273065,172.2672363987));
#815=CARTESIAN_POINT('Ctrl Pts',(7.02182822831794,-1.60937214308948,172.067583119081));
#816=CARTESIAN_POINT('Ctrl Pts',(6.90077575053852,-2.06773248851914,171.609222773651));
#817=CARTESIAN_POINT('Ctrl Pts',(6.8351598838562,-2.2672714270673,171.318883409972));
#818=CARTESIAN_POINT('Ctrl Pts',(6.74102740620969,-2.53347212628667,170.679331126792));
#819=CARTESIAN_POINT('Ctrl Pts',(6.71416413263781,-2.6,170.329820243398));
#820=CARTESIAN_POINT('Ctrl Pts',(6.71416413263781,-2.6,169.670179756602));
#821=CARTESIAN_POINT('Ctrl Pts',(6.7410274062097,-2.53347212628664,169.320668873208));
#822=CARTESIAN_POINT('Ctrl Pts',(6.83515988385622,-2.26727142706726,168.681116590028));
#823=CARTESIAN_POINT('Ctrl Pts',(6.90077575053852,-2.06773248851915,168.390777226349));
#824=CARTESIAN_POINT('Ctrl Pts',(7.02182822831794,-1.60937214308948,167.932416880919));
#825=CARTESIAN_POINT('Ctrl Pts',(7.0855234669855,-1.31897442273063,167.7327636013));
#826=CARTESIAN_POINT('Ctrl Pts',(7.17516700954205,-0.679201528650147,167.466476785126));
#827=CARTESIAN_POINT('Ctrl Pts',(7.2,-0.329605351268354,167.4));
#828=CARTESIAN_POINT('Ctrl Pts',(7.2,0.329605351268352,167.4));
#829=CARTESIAN_POINT('Ctrl Pts',(7.17516700954205,0.679201528650172,167.466476785126));
#830=CARTESIAN_POINT('Ctrl Pts',(7.08552346698549,1.31897442273065,167.7327636013));
#831=CARTESIAN_POINT('Ctrl Pts',(7.02182822831794,1.60937214308948,167.932416880919));
#832=CARTESIAN_POINT('Ctrl Pts',(6.90077575053852,2.06773248851914,168.390777226349));
#833=CARTESIAN_POINT('Ctrl Pts',(6.8351598838562,2.26727142706729,168.681116590028));
#834=CARTESIAN_POINT('Ctrl Pts',(6.7410274062097,2.53347212628666,169.320668873208));
#835=CARTESIAN_POINT('Ctrl Pts',(6.71416413263781,2.6,169.670179756602));
#836=CARTESIAN_POINT('Ctrl Pts',(6.71416413263781,2.6,170.));
#837=CARTESIAN_POINT('Origin',(0.,0.,191.6));
#838=CARTESIAN_POINT('',(0.,0.,190.));
#839=CARTESIAN_POINT('Origin',(0.,0.,176.));
#840=CARTESIAN_POINT('',(-27.,-3.306546357698E-15,176.));
#841=CARTESIAN_POINT('Origin',(0.,0.,176.));
#842=CARTESIAN_POINT('Origin',(0.,0.,190.));
#843=CARTESIAN_POINT('Origin',(0.,0.,145.2));
#844=CARTESIAN_POINT('',(-19.9,-2.437047130303E-15,145.2));
#845=CARTESIAN_POINT('Origin',(0.,0.,145.2));
#846=CARTESIAN_POINT('Origin',(11.9,0.,170.));
#847=CARTESIAN_POINT('',(18.,-3.184081677783E-16,172.6));
#848=CARTESIAN_POINT('',(11.9,-3.18408167778312E-16,172.6));
#849=CARTESIAN_POINT('Origin',(18.,0.,170.));
#850=CARTESIAN_POINT('Origin',(0.,0.,170.5));
#851=CARTESIAN_POINT('',(-27.,-3.306546357698E-15,165.));
#852=CARTESIAN_POINT('',(-27.,-3.30654635769785E-15,170.5));
#853=CARTESIAN_POINT('Origin',(0.,0.,165.));
#854=CARTESIAN_POINT('',(26.605262637305,4.6,170.));
#855=CARTESIAN_POINT('',(27.,-5.63337527607783E-16,174.6));
#856=CARTESIAN_POINT('Ctrl Pts',(26.6052626373054,4.6,170.));
#857=CARTESIAN_POINT('Ctrl Pts',(26.6052626373054,4.6,169.421190217205));
#858=CARTESIAN_POINT('Ctrl Pts',(26.6261053716634,4.48409309849841,168.80458894954));
#859=CARTESIAN_POINT('Ctrl Pts',(26.7009733413764,4.01429945146412,167.671588684514));
#860=CARTESIAN_POINT('Ctrl Pts',(26.7538721055535,3.6604729433258,167.15509055641));
#861=CARTESIAN_POINT('Ctrl Pts',(26.8528424467146,2.84492135001168,166.339538963095));
#862=CARTESIAN_POINT('Ctrl Pts',(26.9054041767478,2.32841811612583,165.985703116669));
#863=CARTESIAN_POINT('Ctrl Pts',(26.9794981971646,1.19540028922999,165.515902691128));
#864=CARTESIAN_POINT('Ctrl Pts',(27.,0.578792882692876,165.4));
#865=CARTESIAN_POINT('Ctrl Pts',(27.,-0.578792882692876,165.4));
#866=CARTESIAN_POINT('Ctrl Pts',(26.9794981971646,-1.19540028922999,165.515902691128));
#867=CARTESIAN_POINT('Ctrl Pts',(26.9054041767478,-2.32841811612583,165.985703116669));
#868=CARTESIAN_POINT('Ctrl Pts',(26.8528424467146,-2.84492135001168,166.339538963095));
#869=CARTESIAN_POINT('Ctrl Pts',(26.7538721055535,-3.6604729433258,167.15509055641));
#870=CARTESIAN_POINT('Ctrl Pts',(26.7009733413764,-4.01429945146412,167.671588684514));
#871=CARTESIAN_POINT('Ctrl Pts',(26.6261053716634,-4.48409309849841,168.80458894954));
#872=CARTESIAN_POINT('Ctrl Pts',(26.6052626373054,-4.6,169.421190217205));
#873=CARTESIAN_POINT('Ctrl Pts',(26.6052626373054,-4.6,170.578809782795));
#874=CARTESIAN_POINT('Ctrl Pts',(26.6261053716634,-4.48409309849841,171.19541105046));
#875=CARTESIAN_POINT('Ctrl Pts',(26.7009733413764,-4.01429945146412,172.328411315486));
#876=CARTESIAN_POINT('Ctrl Pts',(26.7538721055535,-3.6604729433258,172.84490944359));
#877=CARTESIAN_POINT('Ctrl Pts',(26.8528424467146,-2.84492135001168,173.660461036905));
#878=CARTESIAN_POINT('Ctrl Pts',(26.9054041767478,-2.32841811612583,174.014296883331));
#879=CARTESIAN_POINT('Ctrl Pts',(26.9794981971646,-1.19540028922999,174.484097308872));
#880=CARTESIAN_POINT('Ctrl Pts',(27.,-0.578792882692874,174.6));
#881=CARTESIAN_POINT('Ctrl Pts',(27.,1.2490009027033E-15,174.6));
#882=CARTESIAN_POINT('Ctrl Pts',(27.,-1.52655665885959E-15,174.6));
#883=CARTESIAN_POINT('Ctrl Pts',(27.,0.578792882692875,174.6));
#884=CARTESIAN_POINT('Ctrl Pts',(26.9794981971646,1.19540028922999,174.484097308872));
#885=CARTESIAN_POINT('Ctrl Pts',(26.9054041767478,2.32841811612583,174.014296883331));
#886=CARTESIAN_POINT('Ctrl Pts',(26.8528424467146,2.84492135001168,173.660461036905));
#887=CARTESIAN_POINT('Ctrl Pts',(26.7538721055535,3.6604729433258,172.84490944359));
#888=CARTESIAN_POINT('Ctrl Pts',(26.7009733413764,4.01429945146412,172.328411315486));
#889=CARTESIAN_POINT('Ctrl Pts',(26.6261053716634,4.48409309849841,171.19541105046));
#890=CARTESIAN_POINT('Ctrl Pts',(26.6052626373054,4.6,170.578809782795));
#891=CARTESIAN_POINT('Ctrl Pts',(26.6052626373054,4.6,170.));
#892=CARTESIAN_POINT('Origin',(0.,0.,166.7));
#893=CARTESIAN_POINT('',(-19.9,2.437047130303E-15,164.3));
#894=CARTESIAN_POINT('Origin',(0.,0.,164.3));
#895=CARTESIAN_POINT('',(-19.9,-2.43704713030323E-15,166.7));
#896=CARTESIAN_POINT('Origin',(18.,0.,170.));
#897=CARTESIAN_POINT('',(18.,-5.633375276078E-16,174.6));
#898=CARTESIAN_POINT('Origin',(18.,0.,170.));
#899=CARTESIAN_POINT('Origin',(0.,0.,165.));
#900=CARTESIAN_POINT('',(-17.4,2.130885430516E-15,165.));
#901=CARTESIAN_POINT('Origin',(0.,0.,165.));
#902=CARTESIAN_POINT('Origin',(24.,0.,170.));
#903=CARTESIAN_POINT('',(24.,-5.63337527607783E-16,174.6));
#904=CARTESIAN_POINT('Origin',(0.,0.,164.3));
#905=CARTESIAN_POINT('',(-17.4,-2.130885430516E-15,164.3));
#906=CARTESIAN_POINT('Origin',(0.,0.,164.3));
#907=CARTESIAN_POINT('Origin',(0.,0.,176.25));
#908=CARTESIAN_POINT('',(-17.4,-2.13088543051639E-15,176.25));
#909=UNCERTAINTY_MEASURE_WITH_UNIT(LENGTH_MEASURE(0.01),#913,
'DISTANCE_ACCURACY_VALUE',
'Maximum model space distance between geometric entities at asserted c
onnectivities');
#910=UNCERTAINTY_MEASURE_WITH_UNIT(LENGTH_MEASURE(0.01),#913,
'DISTANCE_ACCURACY_VALUE',
'Maximum model space distance between geometric entities at asserted c
onnectivities');
#911=(
GEOMETRIC_REPRESENTATION_CONTEXT(3)
GLOBAL_UNCERTAINTY_ASSIGNED_CONTEXT((#909))
GLOBAL_UNIT_ASSIGNED_CONTEXT((#913,#915,#916))
REPRESENTATION_CONTEXT('','3D')
);
#912=(
GEOMETRIC_REPRESENTATION_CONTEXT(3)
GLOBAL_UNCERTAINTY_ASSIGNED_CONTEXT((#910))
GLOBAL_UNIT_ASSIGNED_CONTEXT((#913,#915,#916))
REPRESENTATION_CONTEXT('','3D')
);
#913=(
LENGTH_UNIT()
NAMED_UNIT(*)
SI_UNIT(.MILLI.,.METRE.)
);
#914=(
LENGTH_UNIT()
NAMED_UNIT(*)
SI_UNIT($,.METRE.)
);
#915=(
NAMED_UNIT(*)
PLANE_ANGLE_UNIT()
SI_UNIT($,.RADIAN.)
);
#916=(
NAMED_UNIT(*)
SI_UNIT($,.STERADIAN.)
SOLID_ANGLE_UNIT()
);
#917=SHAPE_DEFINITION_REPRESENTATION(#918,#919);
#918=PRODUCT_DEFINITION_SHAPE('',$,#921);
#919=SHAPE_REPRESENTATION('',(#510),#911);
#920=PRODUCT_DEFINITION_CONTEXT('part definition',#925,'design');
#921=PRODUCT_DEFINITION('2026-08-17-10-00-56-474',
'EXPORT_TMP_PRINT_V015_P101A_J1_JournalCartridge',#922,#920);
#922=PRODUCT_DEFINITION_FORMATION('',$,#927);
#923=PRODUCT_RELATED_PRODUCT_CATEGORY(
'EXPORT_TMP_PRINT_V015_P101A_J1_JournalCartridge',
'EXPORT_TMP_PRINT_V015_P101A_J1_JournalCartridge',(#927));
#924=APPLICATION_PROTOCOL_DEFINITION('international standard',
'automotive_design',2009,#925);
#925=APPLICATION_CONTEXT(
'Core Data for Automotive Mechanical Design Process');
#926=PRODUCT_CONTEXT('part definition',#925,'mechanical');
#927=PRODUCT('2026-08-17-10-00-56-474',
'EXPORT_TMP_PRINT_V015_P101A_J1_JournalCartridge',$,(#926));
#928=PRESENTATION_STYLE_ASSIGNMENT((#929));
#929=SURFACE_STYLE_USAGE(.BOTH.,#930);
#930=SURFACE_SIDE_STYLE('',(#931));
#931=SURFACE_STYLE_FILL_AREA(#932);
#932=FILL_AREA_STYLE('Steel - Satin',(#933));
#933=FILL_AREA_STYLE_COLOUR('Steel - Satin',#934);
#934=COLOUR_RGB('Steel - Satin',0.627450980392157,0.627450980392157,0.627450980392157);
ENDSEC;
END-ISO-10303-21;
