ISO-10303-21;
HEADER;
/* Generated by software containing ST-Developer
 * from STEP Tools, Inc. (www.steptools.com) 
 */

FILE_DESCRIPTION(
/* description */ (''),
/* implementation_level */ '2;1');

FILE_NAME(
/* name */ 'PRINT_V015_P101B_LowerDeck.step',
/* time_stamp */ '2026-08-20T20:03:36+02:00',
/* author */ (''),
/* organization */ (''),
/* preprocessor_version */ 'ST-DEVELOPER v20.1',
/* originating_system */ 'Autodesk Translation Framework v15.8.0.0',
/* authorisation */ '');

FILE_SCHEMA (('AUTOMOTIVE_DESIGN { 1 0 10303 214 3 1 1 }'));
ENDSEC;

DATA;
#10=MECHANICAL_DESIGN_GEOMETRIC_PRESENTATION_REPRESENTATION('',(#13),#1000);
#11=SHAPE_REPRESENTATION_RELATIONSHIP('SRR','None',#1007,#12);
#12=ADVANCED_BREP_SHAPE_REPRESENTATION('',(#14),#999);
#13=STYLED_ITEM('',(#1016),#14);
#14=MANIFOLD_SOLID_BREP('PRINT_V015_P101B_LowerDeck',#596);
#15=CYLINDRICAL_SURFACE('',#616,2.75);
#16=CYLINDRICAL_SURFACE('',#619,2.75);
#17=CYLINDRICAL_SURFACE('',#622,2.75);
#18=CYLINDRICAL_SURFACE('',#625,2.75);
#19=CYLINDRICAL_SURFACE('',#628,2.25);
#20=CYLINDRICAL_SURFACE('',#630,2.25);
#21=CYLINDRICAL_SURFACE('',#643,20.);
#22=CYLINDRICAL_SURFACE('',#646,20.);
#23=CYLINDRICAL_SURFACE('',#654,60.);
#24=FACE_BOUND('',#66,.T.);
#25=FACE_BOUND('',#68,.T.);
#26=FACE_BOUND('',#89,.T.);
#27=FACE_BOUND('',#90,.T.);
#28=FACE_BOUND('',#91,.T.);
#29=FACE_BOUND('',#92,.T.);
#30=FACE_BOUND('',#94,.T.);
#31=FACE_BOUND('',#95,.T.);
#32=FACE_BOUND('',#96,.T.);
#33=FACE_BOUND('',#97,.T.);
#34=FACE_OUTER_BOUND('',#65,.T.);
#35=FACE_OUTER_BOUND('',#67,.T.);
#36=FACE_OUTER_BOUND('',#69,.T.);
#37=FACE_OUTER_BOUND('',#70,.T.);
#38=FACE_OUTER_BOUND('',#71,.T.);
#39=FACE_OUTER_BOUND('',#72,.T.);
#40=FACE_OUTER_BOUND('',#73,.T.);
#41=FACE_OUTER_BOUND('',#74,.T.);
#42=FACE_OUTER_BOUND('',#75,.T.);
#43=FACE_OUTER_BOUND('',#76,.T.);
#44=FACE_OUTER_BOUND('',#77,.T.);
#45=FACE_OUTER_BOUND('',#78,.T.);
#46=FACE_OUTER_BOUND('',#79,.T.);
#47=FACE_OUTER_BOUND('',#80,.T.);
#48=FACE_OUTER_BOUND('',#81,.T.);
#49=FACE_OUTER_BOUND('',#82,.T.);
#50=FACE_OUTER_BOUND('',#83,.T.);
#51=FACE_OUTER_BOUND('',#84,.T.);
#52=FACE_OUTER_BOUND('',#85,.T.);
#53=FACE_OUTER_BOUND('',#86,.T.);
#54=FACE_OUTER_BOUND('',#87,.T.);
#55=FACE_OUTER_BOUND('',#88,.T.);
#56=FACE_OUTER_BOUND('',#93,.T.);
#57=FACE_OUTER_BOUND('',#98,.T.);
#58=FACE_OUTER_BOUND('',#99,.T.);
#59=FACE_OUTER_BOUND('',#100,.T.);
#60=FACE_OUTER_BOUND('',#101,.T.);
#61=FACE_OUTER_BOUND('',#102,.T.);
#62=FACE_OUTER_BOUND('',#103,.T.);
#63=FACE_OUTER_BOUND('',#104,.T.);
#64=FACE_OUTER_BOUND('',#105,.T.);
#65=EDGE_LOOP('',(#381,#382,#383,#384,#385,#386));
#66=EDGE_LOOP('',(#387));
#67=EDGE_LOOP('',(#388,#389,#390,#391,#392,#393));
#68=EDGE_LOOP('',(#394));
#69=EDGE_LOOP('',(#395,#396,#397,#398));
#70=EDGE_LOOP('',(#399,#400,#401,#402));
#71=EDGE_LOOP('',(#403,#404,#405,#406));
#72=EDGE_LOOP('',(#407,#408,#409,#410));
#73=EDGE_LOOP('',(#411,#412,#413,#414));
#74=EDGE_LOOP('',(#415,#416,#417,#418));
#75=EDGE_LOOP('',(#419));
#76=EDGE_LOOP('',(#420));
#77=EDGE_LOOP('',(#421,#422,#423,#424));
#78=EDGE_LOOP('',(#425,#426,#427,#428));
#79=EDGE_LOOP('',(#429,#430,#431,#432));
#80=EDGE_LOOP('',(#433,#434,#435,#436));
#81=EDGE_LOOP('',(#437,#438,#439,#440));
#82=EDGE_LOOP('',(#441,#442,#443,#444));
#83=EDGE_LOOP('',(#445,#446,#447,#448));
#84=EDGE_LOOP('',(#449,#450,#451,#452));
#85=EDGE_LOOP('',(#453,#454,#455,#456));
#86=EDGE_LOOP('',(#457,#458,#459,#460));
#87=EDGE_LOOP('',(#461,#462,#463,#464));
#88=EDGE_LOOP('',(#465,#466,#467,#468,#469,#470,#471,#472,#473,#474,#475,
#476,#477,#478,#479,#480,#481,#482));
#89=EDGE_LOOP('',(#483));
#90=EDGE_LOOP('',(#484));
#91=EDGE_LOOP('',(#485));
#92=EDGE_LOOP('',(#486));
#93=EDGE_LOOP('',(#487,#488,#489,#490,#491,#492,#493,#494,#495,#496));
#94=EDGE_LOOP('',(#497));
#95=EDGE_LOOP('',(#498));
#96=EDGE_LOOP('',(#499));
#97=EDGE_LOOP('',(#500));
#98=EDGE_LOOP('',(#501,#502,#503,#504));
#99=EDGE_LOOP('',(#505,#506,#507,#508));
#100=EDGE_LOOP('',(#509,#510,#511,#512,#513,#514,#515,#516,#517,#518,#519,
#520));
#101=EDGE_LOOP('',(#521,#522,#523,#524,#525));
#102=EDGE_LOOP('',(#526,#527,#528,#529));
#103=EDGE_LOOP('',(#530,#531,#532,#533,#534));
#104=EDGE_LOOP('',(#535,#536,#537,#538));
#105=EDGE_LOOP('',(#539,#540,#541,#542));
#106=LINE('',#836,#165);
#107=LINE('',#838,#166);
#108=LINE('',#840,#167);
#109=LINE('',#842,#168);
#110=LINE('',#843,#169);
#111=LINE('',#851,#170);
#112=LINE('',#853,#171);
#113=LINE('',#855,#172);
#114=LINE('',#857,#173);
#115=LINE('',#858,#174);
#116=LINE('',#865,#175);
#117=LINE('',#871,#176);
#118=LINE('',#877,#177);
#119=LINE('',#883,#178);
#120=LINE('',#887,#179);
#121=LINE('',#892,#180);
#122=LINE('',#897,#181);
#123=LINE('',#899,#182);
#124=LINE('',#900,#183);
#125=LINE('',#903,#184);
#126=LINE('',#905,#185);
#127=LINE('',#906,#186);
#128=LINE('',#909,#187);
#129=LINE('',#910,#188);
#130=LINE('',#914,#189);
#131=LINE('',#916,#190);
#132=LINE('',#918,#191);
#133=LINE('',#919,#192);
#134=LINE('',#922,#193);
#135=LINE('',#923,#194);
#136=LINE('',#926,#195);
#137=LINE('',#928,#196);
#138=LINE('',#929,#197);
#139=LINE('',#932,#198);
#140=LINE('',#934,#199);
#141=LINE('',#935,#200);
#142=LINE('',#939,#201);
#143=LINE('',#940,#202);
#144=LINE('',#941,#203);
#145=LINE('',#945,#204);
#146=LINE('',#946,#205);
#147=LINE('',#947,#206);
#148=LINE('',#952,#207);
#149=LINE('',#958,#208);
#150=LINE('',#961,#209);
#151=LINE('',#963,#210);
#152=LINE('',#965,#211);
#153=LINE('',#967,#212);
#154=LINE('',#969,#213);
#155=LINE('',#971,#214);
#156=LINE('',#973,#215);
#157=LINE('',#974,#216);
#158=LINE('',#976,#217);
#159=LINE('',#977,#218);
#160=LINE('',#987,#219);
#161=LINE('',#988,#220);
#162=LINE('',#991,#221);
#163=LINE('',#992,#222);
#164=LINE('',#994,#223);
#165=VECTOR('',#669,10.);
#166=VECTOR('',#670,10.);
#167=VECTOR('',#671,10.);
#168=VECTOR('',#672,10.);
#169=VECTOR('',#673,10.);
#170=VECTOR('',#680,10.);
#171=VECTOR('',#681,10.);
#172=VECTOR('',#682,10.);
#173=VECTOR('',#683,10.);
#174=VECTOR('',#684,10.);
#175=VECTOR('',#691,2.75);
#176=VECTOR('',#698,2.75);
#177=VECTOR('',#705,2.75);
#178=VECTOR('',#712,2.75);
#179=VECTOR('',#717,2.25);
#180=VECTOR('',#724,2.25);
#181=VECTOR('',#731,1.);
#182=VECTOR('',#732,1.);
#183=VECTOR('',#733,1.);
#184=VECTOR('',#736,1.);
#185=VECTOR('',#737,1.);
#186=VECTOR('',#738,1.);
#187=VECTOR('',#741,1.);
#188=VECTOR('',#742,1.);
#189=VECTOR('',#745,10.);
#190=VECTOR('',#746,10.);
#191=VECTOR('',#747,10.);
#192=VECTOR('',#748,10.);
#193=VECTOR('',#751,1.);
#194=VECTOR('',#752,1.);
#195=VECTOR('',#755,10.);
#196=VECTOR('',#756,10.);
#197=VECTOR('',#757,10.);
#198=VECTOR('',#760,10.);
#199=VECTOR('',#761,10.);
#200=VECTOR('',#762,10.);
#201=VECTOR('',#765,10.);
#202=VECTOR('',#766,10.);
#203=VECTOR('',#767,10.);
#204=VECTOR('',#770,10.);
#205=VECTOR('',#771,10.);
#206=VECTOR('',#772,10.);
#207=VECTOR('',#777,1.);
#208=VECTOR('',#784,1.);
#209=VECTOR('',#789,1.);
#210=VECTOR('',#790,10.);
#211=VECTOR('',#791,1.);
#212=VECTOR('',#792,10.);
#213=VECTOR('',#793,10.);
#214=VECTOR('',#794,10.);
#215=VECTOR('',#795,1.);
#216=VECTOR('',#796,10.);
#217=VECTOR('',#799,1.);
#218=VECTOR('',#800,1.);
#219=VECTOR('',#817,10.);
#220=VECTOR('',#818,10.);
#221=VECTOR('',#821,10.);
#222=VECTOR('',#822,10.);
#223=VECTOR('',#825,10.);
#224=CIRCLE('',#611,60.);
#225=CIRCLE('',#612,2.25);
#226=CIRCLE('',#614,60.);
#227=CIRCLE('',#615,2.25);
#228=CIRCLE('',#617,2.75);
#229=CIRCLE('',#618,2.75);
#230=CIRCLE('',#620,2.75);
#231=CIRCLE('',#621,2.75);
#232=CIRCLE('',#623,2.75);
#233=CIRCLE('',#624,2.75);
#234=CIRCLE('',#626,2.75);
#235=CIRCLE('',#627,2.75);
#236=CIRCLE('',#629,2.25);
#237=CIRCLE('',#631,2.25);
#238=CIRCLE('',#644,20.);
#239=CIRCLE('',#645,20.);
#240=CIRCLE('',#647,20.);
#241=CIRCLE('',#648,20.);
#242=CIRCLE('',#653,60.);
#243=CIRCLE('',#655,60.);
#244=CIRCLE('',#656,60.);
#245=CIRCLE('',#657,60.);
#246=VERTEX_POINT('',#832);
#247=VERTEX_POINT('',#833);
#248=VERTEX_POINT('',#835);
#249=VERTEX_POINT('',#837);
#250=VERTEX_POINT('',#839);
#251=VERTEX_POINT('',#841);
#252=VERTEX_POINT('',#844);
#253=VERTEX_POINT('',#847);
#254=VERTEX_POINT('',#848);
#255=VERTEX_POINT('',#850);
#256=VERTEX_POINT('',#852);
#257=VERTEX_POINT('',#854);
#258=VERTEX_POINT('',#856);
#259=VERTEX_POINT('',#859);
#260=VERTEX_POINT('',#862);
#261=VERTEX_POINT('',#864);
#262=VERTEX_POINT('',#868);
#263=VERTEX_POINT('',#870);
#264=VERTEX_POINT('',#874);
#265=VERTEX_POINT('',#876);
#266=VERTEX_POINT('',#880);
#267=VERTEX_POINT('',#882);
#268=VERTEX_POINT('',#886);
#269=VERTEX_POINT('',#890);
#270=VERTEX_POINT('',#896);
#271=VERTEX_POINT('',#898);
#272=VERTEX_POINT('',#902);
#273=VERTEX_POINT('',#904);
#274=VERTEX_POINT('',#908);
#275=VERTEX_POINT('',#912);
#276=VERTEX_POINT('',#913);
#277=VERTEX_POINT('',#915);
#278=VERTEX_POINT('',#917);
#279=VERTEX_POINT('',#921);
#280=VERTEX_POINT('',#925);
#281=VERTEX_POINT('',#927);
#282=VERTEX_POINT('',#931);
#283=VERTEX_POINT('',#933);
#284=VERTEX_POINT('',#937);
#285=VERTEX_POINT('',#938);
#286=VERTEX_POINT('',#943);
#287=VERTEX_POINT('',#944);
#288=VERTEX_POINT('',#949);
#289=VERTEX_POINT('',#951);
#290=VERTEX_POINT('',#955);
#291=VERTEX_POINT('',#957);
#292=VERTEX_POINT('',#962);
#293=VERTEX_POINT('',#964);
#294=VERTEX_POINT('',#966);
#295=VERTEX_POINT('',#968);
#296=VERTEX_POINT('',#970);
#297=VERTEX_POINT('',#972);
#298=VERTEX_POINT('',#986);
#299=VERTEX_POINT('',#990);
#300=EDGE_CURVE('',#246,#247,#224,.T.);
#301=EDGE_CURVE('',#248,#247,#106,.T.);
#302=EDGE_CURVE('',#249,#248,#107,.T.);
#303=EDGE_CURVE('',#250,#249,#108,.T.);
#304=EDGE_CURVE('',#251,#250,#109,.T.);
#305=EDGE_CURVE('',#246,#251,#110,.T.);
#306=EDGE_CURVE('',#252,#252,#225,.T.);
#307=EDGE_CURVE('',#253,#254,#226,.T.);
#308=EDGE_CURVE('',#254,#255,#111,.T.);
#309=EDGE_CURVE('',#256,#255,#112,.T.);
#310=EDGE_CURVE('',#257,#256,#113,.T.);
#311=EDGE_CURVE('',#258,#257,#114,.T.);
#312=EDGE_CURVE('',#253,#258,#115,.T.);
#313=EDGE_CURVE('',#259,#259,#227,.T.);
#314=EDGE_CURVE('',#260,#260,#228,.T.);
#315=EDGE_CURVE('',#260,#261,#116,.T.);
#316=EDGE_CURVE('',#261,#261,#229,.T.);
#317=EDGE_CURVE('',#262,#262,#230,.T.);
#318=EDGE_CURVE('',#262,#263,#117,.T.);
#319=EDGE_CURVE('',#263,#263,#231,.T.);
#320=EDGE_CURVE('',#264,#264,#232,.T.);
#321=EDGE_CURVE('',#264,#265,#118,.T.);
#322=EDGE_CURVE('',#265,#265,#233,.T.);
#323=EDGE_CURVE('',#266,#266,#234,.T.);
#324=EDGE_CURVE('',#266,#267,#119,.T.);
#325=EDGE_CURVE('',#267,#267,#235,.T.);
#326=EDGE_CURVE('',#259,#268,#120,.T.);
#327=EDGE_CURVE('',#268,#268,#236,.T.);
#328=EDGE_CURVE('',#269,#269,#237,.T.);
#329=EDGE_CURVE('',#269,#252,#121,.T.);
#330=EDGE_CURVE('',#270,#247,#122,.T.);
#331=EDGE_CURVE('',#271,#270,#123,.T.);
#332=EDGE_CURVE('',#248,#271,#124,.T.);
#333=EDGE_CURVE('',#272,#258,#125,.T.);
#334=EDGE_CURVE('',#273,#272,#126,.T.);
#335=EDGE_CURVE('',#253,#273,#127,.T.);
#336=EDGE_CURVE('',#274,#257,#128,.T.);
#337=EDGE_CURVE('',#272,#274,#129,.T.);
#338=EDGE_CURVE('',#275,#276,#130,.T.);
#339=EDGE_CURVE('',#277,#275,#131,.T.);
#340=EDGE_CURVE('',#278,#277,#132,.T.);
#341=EDGE_CURVE('',#278,#276,#133,.T.);
#342=EDGE_CURVE('',#271,#279,#134,.T.);
#343=EDGE_CURVE('',#249,#279,#135,.T.);
#344=EDGE_CURVE('',#280,#255,#136,.T.);
#345=EDGE_CURVE('',#280,#281,#137,.T.);
#346=EDGE_CURVE('',#256,#281,#138,.T.);
#347=EDGE_CURVE('',#282,#250,#139,.T.);
#348=EDGE_CURVE('',#283,#282,#140,.T.);
#349=EDGE_CURVE('',#251,#283,#141,.T.);
#350=EDGE_CURVE('',#284,#285,#142,.T.);
#351=EDGE_CURVE('',#285,#281,#143,.T.);
#352=EDGE_CURVE('',#284,#280,#144,.T.);
#353=EDGE_CURVE('',#286,#287,#145,.T.);
#354=EDGE_CURVE('',#287,#283,#146,.T.);
#355=EDGE_CURVE('',#282,#286,#147,.T.);
#356=EDGE_CURVE('',#288,#286,#238,.T.);
#357=EDGE_CURVE('',#289,#288,#148,.T.);
#358=EDGE_CURVE('',#287,#289,#239,.T.);
#359=EDGE_CURVE('',#290,#284,#240,.T.);
#360=EDGE_CURVE('',#290,#291,#149,.T.);
#361=EDGE_CURVE('',#285,#291,#241,.T.);
#362=EDGE_CURVE('',#291,#288,#150,.T.);
#363=EDGE_CURVE('',#279,#292,#151,.T.);
#364=EDGE_CURVE('',#292,#293,#152,.T.);
#365=EDGE_CURVE('',#293,#294,#153,.T.);
#366=EDGE_CURVE('',#294,#295,#154,.T.);
#367=EDGE_CURVE('',#295,#296,#155,.T.);
#368=EDGE_CURVE('',#296,#297,#156,.T.);
#369=EDGE_CURVE('',#297,#274,#157,.T.);
#370=EDGE_CURVE('',#254,#246,#158,.T.);
#371=EDGE_CURVE('',#289,#290,#159,.T.);
#372=EDGE_CURVE('',#292,#270,#242,.T.);
#373=EDGE_CURVE('',#276,#293,#243,.T.);
#374=EDGE_CURVE('',#273,#297,#244,.T.);
#375=EDGE_CURVE('',#296,#275,#245,.T.);
#376=EDGE_CURVE('',#298,#295,#160,.T.);
#377=EDGE_CURVE('',#277,#298,#161,.T.);
#378=EDGE_CURVE('',#298,#299,#162,.T.);
#379=EDGE_CURVE('',#299,#278,#163,.T.);
#380=EDGE_CURVE('',#299,#294,#164,.T.);
#381=ORIENTED_EDGE('',*,*,#300,.T.);
#382=ORIENTED_EDGE('',*,*,#301,.F.);
#383=ORIENTED_EDGE('',*,*,#302,.F.);
#384=ORIENTED_EDGE('',*,*,#303,.F.);
#385=ORIENTED_EDGE('',*,*,#304,.F.);
#386=ORIENTED_EDGE('',*,*,#305,.F.);
#387=ORIENTED_EDGE('',*,*,#306,.T.);
#388=ORIENTED_EDGE('',*,*,#307,.T.);
#389=ORIENTED_EDGE('',*,*,#308,.T.);
#390=ORIENTED_EDGE('',*,*,#309,.F.);
#391=ORIENTED_EDGE('',*,*,#310,.F.);
#392=ORIENTED_EDGE('',*,*,#311,.F.);
#393=ORIENTED_EDGE('',*,*,#312,.F.);
#394=ORIENTED_EDGE('',*,*,#313,.T.);
#395=ORIENTED_EDGE('',*,*,#314,.F.);
#396=ORIENTED_EDGE('',*,*,#315,.T.);
#397=ORIENTED_EDGE('',*,*,#316,.F.);
#398=ORIENTED_EDGE('',*,*,#315,.F.);
#399=ORIENTED_EDGE('',*,*,#317,.F.);
#400=ORIENTED_EDGE('',*,*,#318,.T.);
#401=ORIENTED_EDGE('',*,*,#319,.F.);
#402=ORIENTED_EDGE('',*,*,#318,.F.);
#403=ORIENTED_EDGE('',*,*,#320,.F.);
#404=ORIENTED_EDGE('',*,*,#321,.T.);
#405=ORIENTED_EDGE('',*,*,#322,.F.);
#406=ORIENTED_EDGE('',*,*,#321,.F.);
#407=ORIENTED_EDGE('',*,*,#323,.F.);
#408=ORIENTED_EDGE('',*,*,#324,.T.);
#409=ORIENTED_EDGE('',*,*,#325,.F.);
#410=ORIENTED_EDGE('',*,*,#324,.F.);
#411=ORIENTED_EDGE('',*,*,#313,.F.);
#412=ORIENTED_EDGE('',*,*,#326,.T.);
#413=ORIENTED_EDGE('',*,*,#327,.T.);
#414=ORIENTED_EDGE('',*,*,#326,.F.);
#415=ORIENTED_EDGE('',*,*,#328,.T.);
#416=ORIENTED_EDGE('',*,*,#329,.T.);
#417=ORIENTED_EDGE('',*,*,#306,.F.);
#418=ORIENTED_EDGE('',*,*,#329,.F.);
#419=ORIENTED_EDGE('',*,*,#328,.F.);
#420=ORIENTED_EDGE('',*,*,#327,.F.);
#421=ORIENTED_EDGE('',*,*,#301,.T.);
#422=ORIENTED_EDGE('',*,*,#330,.F.);
#423=ORIENTED_EDGE('',*,*,#331,.F.);
#424=ORIENTED_EDGE('',*,*,#332,.F.);
#425=ORIENTED_EDGE('',*,*,#312,.T.);
#426=ORIENTED_EDGE('',*,*,#333,.F.);
#427=ORIENTED_EDGE('',*,*,#334,.F.);
#428=ORIENTED_EDGE('',*,*,#335,.F.);
#429=ORIENTED_EDGE('',*,*,#311,.T.);
#430=ORIENTED_EDGE('',*,*,#336,.F.);
#431=ORIENTED_EDGE('',*,*,#337,.F.);
#432=ORIENTED_EDGE('',*,*,#333,.T.);
#433=ORIENTED_EDGE('',*,*,#338,.F.);
#434=ORIENTED_EDGE('',*,*,#339,.F.);
#435=ORIENTED_EDGE('',*,*,#340,.F.);
#436=ORIENTED_EDGE('',*,*,#341,.T.);
#437=ORIENTED_EDGE('',*,*,#302,.T.);
#438=ORIENTED_EDGE('',*,*,#332,.T.);
#439=ORIENTED_EDGE('',*,*,#342,.T.);
#440=ORIENTED_EDGE('',*,*,#343,.F.);
#441=ORIENTED_EDGE('',*,*,#309,.T.);
#442=ORIENTED_EDGE('',*,*,#344,.F.);
#443=ORIENTED_EDGE('',*,*,#345,.T.);
#444=ORIENTED_EDGE('',*,*,#346,.F.);
#445=ORIENTED_EDGE('',*,*,#304,.T.);
#446=ORIENTED_EDGE('',*,*,#347,.F.);
#447=ORIENTED_EDGE('',*,*,#348,.F.);
#448=ORIENTED_EDGE('',*,*,#349,.F.);
#449=ORIENTED_EDGE('',*,*,#350,.T.);
#450=ORIENTED_EDGE('',*,*,#351,.T.);
#451=ORIENTED_EDGE('',*,*,#345,.F.);
#452=ORIENTED_EDGE('',*,*,#352,.F.);
#453=ORIENTED_EDGE('',*,*,#353,.T.);
#454=ORIENTED_EDGE('',*,*,#354,.T.);
#455=ORIENTED_EDGE('',*,*,#348,.T.);
#456=ORIENTED_EDGE('',*,*,#355,.T.);
#457=ORIENTED_EDGE('',*,*,#353,.F.);
#458=ORIENTED_EDGE('',*,*,#356,.F.);
#459=ORIENTED_EDGE('',*,*,#357,.F.);
#460=ORIENTED_EDGE('',*,*,#358,.F.);
#461=ORIENTED_EDGE('',*,*,#350,.F.);
#462=ORIENTED_EDGE('',*,*,#359,.F.);
#463=ORIENTED_EDGE('',*,*,#360,.T.);
#464=ORIENTED_EDGE('',*,*,#361,.F.);
#465=ORIENTED_EDGE('',*,*,#351,.F.);
#466=ORIENTED_EDGE('',*,*,#361,.T.);
#467=ORIENTED_EDGE('',*,*,#362,.T.);
#468=ORIENTED_EDGE('',*,*,#356,.T.);
#469=ORIENTED_EDGE('',*,*,#355,.F.);
#470=ORIENTED_EDGE('',*,*,#347,.T.);
#471=ORIENTED_EDGE('',*,*,#303,.T.);
#472=ORIENTED_EDGE('',*,*,#343,.T.);
#473=ORIENTED_EDGE('',*,*,#363,.T.);
#474=ORIENTED_EDGE('',*,*,#364,.T.);
#475=ORIENTED_EDGE('',*,*,#365,.T.);
#476=ORIENTED_EDGE('',*,*,#366,.T.);
#477=ORIENTED_EDGE('',*,*,#367,.T.);
#478=ORIENTED_EDGE('',*,*,#368,.T.);
#479=ORIENTED_EDGE('',*,*,#369,.T.);
#480=ORIENTED_EDGE('',*,*,#336,.T.);
#481=ORIENTED_EDGE('',*,*,#310,.T.);
#482=ORIENTED_EDGE('',*,*,#346,.T.);
#483=ORIENTED_EDGE('',*,*,#323,.T.);
#484=ORIENTED_EDGE('',*,*,#320,.T.);
#485=ORIENTED_EDGE('',*,*,#317,.T.);
#486=ORIENTED_EDGE('',*,*,#314,.T.);
#487=ORIENTED_EDGE('',*,*,#352,.T.);
#488=ORIENTED_EDGE('',*,*,#344,.T.);
#489=ORIENTED_EDGE('',*,*,#308,.F.);
#490=ORIENTED_EDGE('',*,*,#370,.T.);
#491=ORIENTED_EDGE('',*,*,#305,.T.);
#492=ORIENTED_EDGE('',*,*,#349,.T.);
#493=ORIENTED_EDGE('',*,*,#354,.F.);
#494=ORIENTED_EDGE('',*,*,#358,.T.);
#495=ORIENTED_EDGE('',*,*,#371,.T.);
#496=ORIENTED_EDGE('',*,*,#359,.T.);
#497=ORIENTED_EDGE('',*,*,#325,.T.);
#498=ORIENTED_EDGE('',*,*,#322,.T.);
#499=ORIENTED_EDGE('',*,*,#319,.T.);
#500=ORIENTED_EDGE('',*,*,#316,.T.);
#501=ORIENTED_EDGE('',*,*,#357,.T.);
#502=ORIENTED_EDGE('',*,*,#362,.F.);
#503=ORIENTED_EDGE('',*,*,#360,.F.);
#504=ORIENTED_EDGE('',*,*,#371,.F.);
#505=ORIENTED_EDGE('',*,*,#363,.F.);
#506=ORIENTED_EDGE('',*,*,#342,.F.);
#507=ORIENTED_EDGE('',*,*,#331,.T.);
#508=ORIENTED_EDGE('',*,*,#372,.F.);
#509=ORIENTED_EDGE('',*,*,#373,.T.);
#510=ORIENTED_EDGE('',*,*,#364,.F.);
#511=ORIENTED_EDGE('',*,*,#372,.T.);
#512=ORIENTED_EDGE('',*,*,#330,.T.);
#513=ORIENTED_EDGE('',*,*,#300,.F.);
#514=ORIENTED_EDGE('',*,*,#370,.F.);
#515=ORIENTED_EDGE('',*,*,#307,.F.);
#516=ORIENTED_EDGE('',*,*,#335,.T.);
#517=ORIENTED_EDGE('',*,*,#374,.T.);
#518=ORIENTED_EDGE('',*,*,#368,.F.);
#519=ORIENTED_EDGE('',*,*,#375,.T.);
#520=ORIENTED_EDGE('',*,*,#338,.T.);
#521=ORIENTED_EDGE('',*,*,#375,.F.);
#522=ORIENTED_EDGE('',*,*,#367,.F.);
#523=ORIENTED_EDGE('',*,*,#376,.F.);
#524=ORIENTED_EDGE('',*,*,#377,.F.);
#525=ORIENTED_EDGE('',*,*,#339,.T.);
#526=ORIENTED_EDGE('',*,*,#377,.T.);
#527=ORIENTED_EDGE('',*,*,#378,.T.);
#528=ORIENTED_EDGE('',*,*,#379,.T.);
#529=ORIENTED_EDGE('',*,*,#340,.T.);
#530=ORIENTED_EDGE('',*,*,#379,.F.);
#531=ORIENTED_EDGE('',*,*,#380,.T.);
#532=ORIENTED_EDGE('',*,*,#365,.F.);
#533=ORIENTED_EDGE('',*,*,#373,.F.);
#534=ORIENTED_EDGE('',*,*,#341,.F.);
#535=ORIENTED_EDGE('',*,*,#376,.T.);
#536=ORIENTED_EDGE('',*,*,#366,.F.);
#537=ORIENTED_EDGE('',*,*,#380,.F.);
#538=ORIENTED_EDGE('',*,*,#378,.F.);
#539=ORIENTED_EDGE('',*,*,#369,.F.);
#540=ORIENTED_EDGE('',*,*,#374,.F.);
#541=ORIENTED_EDGE('',*,*,#334,.T.);
#542=ORIENTED_EDGE('',*,*,#337,.T.);
#543=PLANE('',#610);
#544=PLANE('',#613);
#545=PLANE('',#632);
#546=PLANE('',#633);
#547=PLANE('',#634);
#548=PLANE('',#635);
#549=PLANE('',#636);
#550=PLANE('',#637);
#551=PLANE('',#638);
#552=PLANE('',#639);
#553=PLANE('',#640);
#554=PLANE('',#641);
#555=PLANE('',#642);
#556=PLANE('',#649);
#557=PLANE('',#650);
#558=PLANE('',#651);
#559=PLANE('',#652);
#560=PLANE('',#658);
#561=PLANE('',#659);
#562=PLANE('',#660);
#563=PLANE('',#661);
#564=PLANE('',#662);
#565=ADVANCED_FACE('',(#34,#24),#543,.F.);
#566=ADVANCED_FACE('',(#35,#25),#544,.F.);
#567=ADVANCED_FACE('',(#36),#15,.F.);
#568=ADVANCED_FACE('',(#37),#16,.F.);
#569=ADVANCED_FACE('',(#38),#17,.F.);
#570=ADVANCED_FACE('',(#39),#18,.F.);
#571=ADVANCED_FACE('',(#40),#19,.F.);
#572=ADVANCED_FACE('',(#41),#20,.F.);
#573=ADVANCED_FACE('',(#42),#545,.F.);
#574=ADVANCED_FACE('',(#43),#546,.F.);
#575=ADVANCED_FACE('',(#44),#547,.F.);
#576=ADVANCED_FACE('',(#45),#548,.F.);
#577=ADVANCED_FACE('',(#46),#549,.T.);
#578=ADVANCED_FACE('',(#47),#550,.F.);
#579=ADVANCED_FACE('',(#48),#551,.T.);
#580=ADVANCED_FACE('',(#49),#552,.F.);
#581=ADVANCED_FACE('',(#50),#553,.F.);
#582=ADVANCED_FACE('',(#51),#554,.F.);
#583=ADVANCED_FACE('',(#52),#555,.F.);
#584=ADVANCED_FACE('',(#53),#21,.T.);
#585=ADVANCED_FACE('',(#54),#22,.T.);
#586=ADVANCED_FACE('',(#55,#26,#27,#28,#29),#556,.F.);
#587=ADVANCED_FACE('',(#56,#30,#31,#32,#33),#557,.T.);
#588=ADVANCED_FACE('',(#57),#558,.F.);
#589=ADVANCED_FACE('',(#58),#559,.T.);
#590=ADVANCED_FACE('',(#59),#23,.F.);
#591=ADVANCED_FACE('',(#60),#560,.F.);
#592=ADVANCED_FACE('',(#61),#561,.T.);
#593=ADVANCED_FACE('',(#62),#562,.F.);
#594=ADVANCED_FACE('',(#63),#563,.F.);
#595=ADVANCED_FACE('',(#64),#564,.T.);
#596=CLOSED_SHELL('',(#565,#566,#567,#568,#569,#570,#571,#572,#573,#574,
#575,#576,#577,#578,#579,#580,#581,#582,#583,#584,#585,#586,#587,#588,#589,
#590,#591,#592,#593,#594,#595));
#597=DERIVED_UNIT_ELEMENT(#599,1.);
#598=DERIVED_UNIT_ELEMENT(#1002,-3.);
#599=(
MASS_UNIT()
NAMED_UNIT(*)
SI_UNIT(.KILO.,.GRAM.)
);
#600=DERIVED_UNIT((#597,#598));
#601=MEASURE_REPRESENTATION_ITEM('density measure',
POSITIVE_RATIO_MEASURE(7850.),#600);
#602=PROPERTY_DEFINITION_REPRESENTATION(#607,#604);
#603=PROPERTY_DEFINITION_REPRESENTATION(#608,#605);
#604=REPRESENTATION('material name',(#606),#999);
#605=REPRESENTATION('density',(#601),#999);
#606=DESCRIPTIVE_REPRESENTATION_ITEM('Steel','Steel');
#607=PROPERTY_DEFINITION('material property','material name',#1009);
#608=PROPERTY_DEFINITION('material property','density of part',#1009);
#609=AXIS2_PLACEMENT_3D('',#830,#663,#664);
#610=AXIS2_PLACEMENT_3D('',#831,#665,#666);
#611=AXIS2_PLACEMENT_3D('',#834,#667,#668);
#612=AXIS2_PLACEMENT_3D('',#845,#674,#675);
#613=AXIS2_PLACEMENT_3D('',#846,#676,#677);
#614=AXIS2_PLACEMENT_3D('',#849,#678,#679);
#615=AXIS2_PLACEMENT_3D('',#860,#685,#686);
#616=AXIS2_PLACEMENT_3D('',#861,#687,#688);
#617=AXIS2_PLACEMENT_3D('',#863,#689,#690);
#618=AXIS2_PLACEMENT_3D('',#866,#692,#693);
#619=AXIS2_PLACEMENT_3D('',#867,#694,#695);
#620=AXIS2_PLACEMENT_3D('',#869,#696,#697);
#621=AXIS2_PLACEMENT_3D('',#872,#699,#700);
#622=AXIS2_PLACEMENT_3D('',#873,#701,#702);
#623=AXIS2_PLACEMENT_3D('',#875,#703,#704);
#624=AXIS2_PLACEMENT_3D('',#878,#706,#707);
#625=AXIS2_PLACEMENT_3D('',#879,#708,#709);
#626=AXIS2_PLACEMENT_3D('',#881,#710,#711);
#627=AXIS2_PLACEMENT_3D('',#884,#713,#714);
#628=AXIS2_PLACEMENT_3D('',#885,#715,#716);
#629=AXIS2_PLACEMENT_3D('',#888,#718,#719);
#630=AXIS2_PLACEMENT_3D('',#889,#720,#721);
#631=AXIS2_PLACEMENT_3D('',#891,#722,#723);
#632=AXIS2_PLACEMENT_3D('',#893,#725,#726);
#633=AXIS2_PLACEMENT_3D('',#894,#727,#728);
#634=AXIS2_PLACEMENT_3D('',#895,#729,#730);
#635=AXIS2_PLACEMENT_3D('',#901,#734,#735);
#636=AXIS2_PLACEMENT_3D('',#907,#739,#740);
#637=AXIS2_PLACEMENT_3D('',#911,#743,#744);
#638=AXIS2_PLACEMENT_3D('',#920,#749,#750);
#639=AXIS2_PLACEMENT_3D('',#924,#753,#754);
#640=AXIS2_PLACEMENT_3D('',#930,#758,#759);
#641=AXIS2_PLACEMENT_3D('',#936,#763,#764);
#642=AXIS2_PLACEMENT_3D('',#942,#768,#769);
#643=AXIS2_PLACEMENT_3D('',#948,#773,#774);
#644=AXIS2_PLACEMENT_3D('',#950,#775,#776);
#645=AXIS2_PLACEMENT_3D('',#953,#778,#779);
#646=AXIS2_PLACEMENT_3D('',#954,#780,#781);
#647=AXIS2_PLACEMENT_3D('',#956,#782,#783);
#648=AXIS2_PLACEMENT_3D('',#959,#785,#786);
#649=AXIS2_PLACEMENT_3D('',#960,#787,#788);
#650=AXIS2_PLACEMENT_3D('',#975,#797,#798);
#651=AXIS2_PLACEMENT_3D('',#978,#801,#802);
#652=AXIS2_PLACEMENT_3D('',#979,#803,#804);
#653=AXIS2_PLACEMENT_3D('',#980,#805,#806);
#654=AXIS2_PLACEMENT_3D('',#981,#807,#808);
#655=AXIS2_PLACEMENT_3D('',#982,#809,#810);
#656=AXIS2_PLACEMENT_3D('',#983,#811,#812);
#657=AXIS2_PLACEMENT_3D('',#984,#813,#814);
#658=AXIS2_PLACEMENT_3D('',#985,#815,#816);
#659=AXIS2_PLACEMENT_3D('',#989,#819,#820);
#660=AXIS2_PLACEMENT_3D('',#993,#823,#824);
#661=AXIS2_PLACEMENT_3D('',#995,#826,#827);
#662=AXIS2_PLACEMENT_3D('',#996,#828,#829);
#663=DIRECTION('axis',(0.,0.,1.));
#664=DIRECTION('refdir',(1.,0.,0.));
#665=DIRECTION('center_axis',(0.,-1.,0.));
#666=DIRECTION('ref_axis',(0.,0.,-1.));
#667=DIRECTION('center_axis',(0.,-1.,0.));
#668=DIRECTION('ref_axis',(1.,0.,0.));
#669=DIRECTION('',(1.,0.,0.));
#670=DIRECTION('',(0.,0.,1.));
#671=DIRECTION('',(1.,0.,0.));
#672=DIRECTION('',(0.,0.,-1.));
#673=DIRECTION('',(-1.,0.,0.));
#674=DIRECTION('center_axis',(0.,-1.,0.));
#675=DIRECTION('ref_axis',(1.,0.,0.));
#676=DIRECTION('center_axis',(0.,1.,0.));
#677=DIRECTION('ref_axis',(0.,0.,1.));
#678=DIRECTION('center_axis',(0.,1.,0.));
#679=DIRECTION('ref_axis',(1.,0.,0.));
#680=DIRECTION('',(-1.,0.,0.));
#681=DIRECTION('',(0.,0.,1.));
#682=DIRECTION('',(-1.,0.,0.));
#683=DIRECTION('',(0.,0.,-1.));
#684=DIRECTION('',(-1.,0.,0.));
#685=DIRECTION('center_axis',(0.,1.,0.));
#686=DIRECTION('ref_axis',(1.,0.,0.));
#687=DIRECTION('center_axis',(0.,0.,1.));
#688=DIRECTION('ref_axis',(1.,0.,0.));
#689=DIRECTION('center_axis',(0.,0.,1.));
#690=DIRECTION('ref_axis',(1.,0.,0.));
#691=DIRECTION('',(0.,0.,1.));
#692=DIRECTION('center_axis',(0.,0.,-1.));
#693=DIRECTION('ref_axis',(1.,0.,0.));
#694=DIRECTION('center_axis',(0.,0.,1.));
#695=DIRECTION('ref_axis',(1.,0.,0.));
#696=DIRECTION('center_axis',(0.,0.,1.));
#697=DIRECTION('ref_axis',(1.,0.,0.));
#698=DIRECTION('',(0.,0.,1.));
#699=DIRECTION('center_axis',(0.,0.,-1.));
#700=DIRECTION('ref_axis',(1.,0.,0.));
#701=DIRECTION('center_axis',(0.,0.,1.));
#702=DIRECTION('ref_axis',(1.,0.,0.));
#703=DIRECTION('center_axis',(0.,0.,1.));
#704=DIRECTION('ref_axis',(1.,0.,0.));
#705=DIRECTION('',(0.,0.,1.));
#706=DIRECTION('center_axis',(0.,0.,-1.));
#707=DIRECTION('ref_axis',(1.,0.,0.));
#708=DIRECTION('center_axis',(0.,0.,1.));
#709=DIRECTION('ref_axis',(1.,0.,0.));
#710=DIRECTION('center_axis',(0.,0.,1.));
#711=DIRECTION('ref_axis',(1.,0.,0.));
#712=DIRECTION('',(0.,0.,1.));
#713=DIRECTION('center_axis',(0.,0.,-1.));
#714=DIRECTION('ref_axis',(1.,0.,0.));
#715=DIRECTION('center_axis',(0.,1.,0.));
#716=DIRECTION('ref_axis',(1.,0.,0.));
#717=DIRECTION('',(0.,1.,0.));
#718=DIRECTION('center_axis',(0.,1.,0.));
#719=DIRECTION('ref_axis',(1.,0.,0.));
#720=DIRECTION('center_axis',(0.,1.,0.));
#721=DIRECTION('ref_axis',(1.,0.,0.));
#722=DIRECTION('center_axis',(0.,-1.,0.));
#723=DIRECTION('ref_axis',(1.,0.,0.));
#724=DIRECTION('',(0.,1.,0.));
#725=DIRECTION('center_axis',(0.,-1.,0.));
#726=DIRECTION('ref_axis',(-1.,0.,0.));
#727=DIRECTION('center_axis',(0.,1.,0.));
#728=DIRECTION('ref_axis',(1.,0.,0.));
#729=DIRECTION('center_axis',(0.,0.,1.));
#730=DIRECTION('ref_axis',(1.,0.,0.));
#731=DIRECTION('',(0.,1.,0.));
#732=DIRECTION('',(1.,0.,0.));
#733=DIRECTION('',(0.,-1.,0.));
#734=DIRECTION('center_axis',(0.,0.,1.));
#735=DIRECTION('ref_axis',(1.,0.,0.));
#736=DIRECTION('',(0.,-1.,0.));
#737=DIRECTION('',(-1.,0.,0.));
#738=DIRECTION('',(0.,1.,0.));
#739=DIRECTION('center_axis',(1.,0.,0.));
#740=DIRECTION('ref_axis',(0.,0.,-1.));
#741=DIRECTION('',(0.,-1.,0.));
#742=DIRECTION('',(0.,0.,-1.));
#743=DIRECTION('center_axis',(1.,0.,0.));
#744=DIRECTION('ref_axis',(0.,0.,-1.));
#745=DIRECTION('',(0.,1.,0.));
#746=DIRECTION('',(0.,0.,-1.));
#747=DIRECTION('',(0.,-1.,0.));
#748=DIRECTION('',(0.,0.,-1.));
#749=DIRECTION('center_axis',(1.,0.,0.));
#750=DIRECTION('ref_axis',(0.,0.,-1.));
#751=DIRECTION('',(0.,0.,-1.));
#752=DIRECTION('',(0.,-1.,0.));
#753=DIRECTION('center_axis',(-1.,0.,0.));
#754=DIRECTION('ref_axis',(0.,0.,1.));
#755=DIRECTION('',(0.,1.,0.));
#756=DIRECTION('',(0.,0.,-1.));
#757=DIRECTION('',(0.,-1.,0.));
#758=DIRECTION('center_axis',(-1.,0.,0.));
#759=DIRECTION('ref_axis',(0.,0.,1.));
#760=DIRECTION('',(0.,-1.,0.));
#761=DIRECTION('',(0.,0.,-1.));
#762=DIRECTION('',(0.,1.,0.));
#763=DIRECTION('center_axis',(0.,1.,0.));
#764=DIRECTION('ref_axis',(0.,0.,1.));
#765=DIRECTION('',(0.,0.,-1.));
#766=DIRECTION('',(1.,0.,0.));
#767=DIRECTION('',(1.,0.,0.));
#768=DIRECTION('center_axis',(0.,-1.,0.));
#769=DIRECTION('ref_axis',(0.,0.,-1.));
#770=DIRECTION('',(0.,0.,1.));
#771=DIRECTION('',(1.,0.,0.));
#772=DIRECTION('',(-1.,0.,0.));
#773=DIRECTION('center_axis',(0.,0.,1.));
#774=DIRECTION('ref_axis',(1.,0.,0.));
#775=DIRECTION('center_axis',(0.,0.,-1.));
#776=DIRECTION('ref_axis',(1.,0.,0.));
#777=DIRECTION('',(0.,0.,-1.));
#778=DIRECTION('center_axis',(0.,0.,1.));
#779=DIRECTION('ref_axis',(1.,0.,0.));
#780=DIRECTION('center_axis',(0.,0.,1.));
#781=DIRECTION('ref_axis',(1.,0.,0.));
#782=DIRECTION('center_axis',(0.,0.,1.));
#783=DIRECTION('ref_axis',(1.,0.,0.));
#784=DIRECTION('',(0.,0.,-1.));
#785=DIRECTION('center_axis',(0.,0.,-1.));
#786=DIRECTION('ref_axis',(1.,0.,0.));
#787=DIRECTION('center_axis',(0.,0.,1.));
#788=DIRECTION('ref_axis',(1.,0.,0.));
#789=DIRECTION('',(0.,1.,0.));
#790=DIRECTION('',(1.,0.,0.));
#791=DIRECTION('',(0.,-1.,0.));
#792=DIRECTION('',(1.,0.,0.));
#793=DIRECTION('',(0.,-1.,0.));
#794=DIRECTION('',(-1.,0.,0.));
#795=DIRECTION('',(0.,-1.,0.));
#796=DIRECTION('',(-1.,0.,0.));
#797=DIRECTION('center_axis',(0.,0.,1.));
#798=DIRECTION('ref_axis',(1.,0.,0.));
#799=DIRECTION('',(0.,1.,0.));
#800=DIRECTION('',(0.,-1.,0.));
#801=DIRECTION('center_axis',(1.,0.,0.));
#802=DIRECTION('ref_axis',(0.,0.,-1.));
#803=DIRECTION('center_axis',(0.,1.,0.));
#804=DIRECTION('ref_axis',(0.,0.,1.));
#805=DIRECTION('center_axis',(0.,1.,0.));
#806=DIRECTION('ref_axis',(1.,0.,0.));
#807=DIRECTION('center_axis',(0.,1.,0.));
#808=DIRECTION('ref_axis',(1.,0.,0.));
#809=DIRECTION('center_axis',(0.,-1.,0.));
#810=DIRECTION('ref_axis',(1.,0.,0.));
#811=DIRECTION('center_axis',(0.,-1.,0.));
#812=DIRECTION('ref_axis',(1.,0.,0.));
#813=DIRECTION('center_axis',(0.,1.,0.));
#814=DIRECTION('ref_axis',(1.,0.,0.));
#815=DIRECTION('center_axis',(0.,1.,0.));
#816=DIRECTION('ref_axis',(0.,0.,1.));
#817=DIRECTION('',(0.,0.,-1.));
#818=DIRECTION('',(1.,0.,0.));
#819=DIRECTION('center_axis',(0.,0.,1.));
#820=DIRECTION('ref_axis',(1.,0.,0.));
#821=DIRECTION('',(0.,1.,0.));
#822=DIRECTION('',(-1.,0.,0.));
#823=DIRECTION('center_axis',(0.,-1.,0.));
#824=DIRECTION('ref_axis',(0.,0.,-1.));
#825=DIRECTION('',(0.,0.,-1.));
#826=DIRECTION('center_axis',(-1.,0.,0.));
#827=DIRECTION('ref_axis',(0.,0.,1.));
#828=DIRECTION('center_axis',(0.,-1.,0.));
#829=DIRECTION('ref_axis',(0.,0.,-1.));
#830=CARTESIAN_POINT('',(0.,0.,0.));
#831=CARTESIAN_POINT('Origin',(-57.75,52.,207.));
#832=CARTESIAN_POINT('',(-54.0740233383831,52.,214.));
#833=CARTESIAN_POINT('',(-50.10987926547,52.,207.));
#834=CARTESIAN_POINT('Origin',(0.,52.,240.));
#835=CARTESIAN_POINT('',(-51.,52.,207.));
#836=CARTESIAN_POINT('',(-51.875,52.,207.));
#837=CARTESIAN_POINT('',(-51.,52.,200.));
#838=CARTESIAN_POINT('',(-51.,52.,197.5));
#839=CARTESIAN_POINT('',(-70.,52.,200.));
#840=CARTESIAN_POINT('',(-28.875,52.,200.));
#841=CARTESIAN_POINT('',(-70.,52.,214.));
#842=CARTESIAN_POINT('',(-70.,52.,207.));
#843=CARTESIAN_POINT('',(-57.75,52.,214.));
#844=CARTESIAN_POINT('',(-68.25,52.,207.));
#845=CARTESIAN_POINT('Origin',(-66.,52.,207.));
#846=CARTESIAN_POINT('Origin',(-57.75,-52.,207.));
#847=CARTESIAN_POINT('',(-50.10987926547,-52.,207.));
#848=CARTESIAN_POINT('',(-54.0740233383831,-52.,214.));
#849=CARTESIAN_POINT('Origin',(0.,-52.,240.));
#850=CARTESIAN_POINT('',(-70.,-52.,214.));
#851=CARTESIAN_POINT('',(-28.875,-52.,214.));
#852=CARTESIAN_POINT('',(-70.,-52.,200.));
#853=CARTESIAN_POINT('',(-70.,-52.,207.));
#854=CARTESIAN_POINT('',(-51.,-52.,200.));
#855=CARTESIAN_POINT('',(-28.875,-52.,200.));
#856=CARTESIAN_POINT('',(-51.,-52.,207.));
#857=CARTESIAN_POINT('',(-51.,-52.,197.5));
#858=CARTESIAN_POINT('',(-51.875,-52.,207.));
#859=CARTESIAN_POINT('',(-68.25,-52.,207.));
#860=CARTESIAN_POINT('Origin',(-66.,-52.,207.));
#861=CARTESIAN_POINT('Origin',(-66.,28.,232.));
#862=CARTESIAN_POINT('',(-68.75,28.,200.));
#863=CARTESIAN_POINT('Origin',(-66.,28.,200.));
#864=CARTESIAN_POINT('',(-68.75,28.,214.));
#865=CARTESIAN_POINT('',(-68.75,28.,232.));
#866=CARTESIAN_POINT('Origin',(-66.,28.,214.));
#867=CARTESIAN_POINT('Origin',(-66.,10.,232.));
#868=CARTESIAN_POINT('',(-68.75,10.,200.));
#869=CARTESIAN_POINT('Origin',(-66.,10.,200.));
#870=CARTESIAN_POINT('',(-68.75,10.,214.));
#871=CARTESIAN_POINT('',(-68.75,10.,232.));
#872=CARTESIAN_POINT('Origin',(-66.,10.,214.));
#873=CARTESIAN_POINT('Origin',(-66.,-10.,232.));
#874=CARTESIAN_POINT('',(-68.75,-10.,200.));
#875=CARTESIAN_POINT('Origin',(-66.,-10.,200.));
#876=CARTESIAN_POINT('',(-68.75,-10.,214.));
#877=CARTESIAN_POINT('',(-68.75,-10.,232.));
#878=CARTESIAN_POINT('Origin',(-66.,-10.,214.));
#879=CARTESIAN_POINT('Origin',(-66.,-28.,232.));
#880=CARTESIAN_POINT('',(-68.75,-28.,200.));
#881=CARTESIAN_POINT('Origin',(-66.,-28.,200.));
#882=CARTESIAN_POINT('',(-68.75,-28.,214.));
#883=CARTESIAN_POINT('',(-68.75,-28.,232.));
#884=CARTESIAN_POINT('Origin',(-66.,-28.,214.));
#885=CARTESIAN_POINT('Origin',(-66.,-45.5,207.));
#886=CARTESIAN_POINT('',(-68.25,-32.,207.));
#887=CARTESIAN_POINT('',(-68.25,-45.5,207.));
#888=CARTESIAN_POINT('Origin',(-66.,-32.,207.));
#889=CARTESIAN_POINT('Origin',(-66.,45.5,207.));
#890=CARTESIAN_POINT('',(-68.25,32.,207.));
#891=CARTESIAN_POINT('Origin',(-66.,32.,207.));
#892=CARTESIAN_POINT('',(-68.25,45.5,207.));
#893=CARTESIAN_POINT('Origin',(-66.,32.,207.));
#894=CARTESIAN_POINT('Origin',(-66.,-32.,207.));
#895=CARTESIAN_POINT('Origin',(-46.,52.,207.));
#896=CARTESIAN_POINT('',(-50.10987926547,42.,207.));
#897=CARTESIAN_POINT('',(-50.10987926547,0.,207.));
#898=CARTESIAN_POINT('',(-51.,42.,207.));
#899=CARTESIAN_POINT('',(-46.,42.,207.));
#900=CARTESIAN_POINT('',(-51.,52.,207.));
#901=CARTESIAN_POINT('Origin',(-46.,-52.,207.));
#902=CARTESIAN_POINT('',(-51.,-42.,207.));
#903=CARTESIAN_POINT('',(-51.,-52.,207.));
#904=CARTESIAN_POINT('',(-50.10987926547,-42.,207.));
#905=CARTESIAN_POINT('',(-46.,-42.,207.));
#906=CARTESIAN_POINT('',(-50.10987926547,0.,207.));
#907=CARTESIAN_POINT('Origin',(-51.,-52.,202.));
#908=CARTESIAN_POINT('',(-51.,-42.,200.));
#909=CARTESIAN_POINT('',(-51.,-26.,200.));
#910=CARTESIAN_POINT('',(-51.,-42.,202.));
#911=CARTESIAN_POINT('Origin',(-50.,0.,207.));
#912=CARTESIAN_POINT('',(-50.,-24.,206.833752096446));
#913=CARTESIAN_POINT('',(-50.,24.,206.833752096446));
#914=CARTESIAN_POINT('',(-50.,0.,206.833752096446));
#915=CARTESIAN_POINT('',(-50.,-24.,214.));
#916=CARTESIAN_POINT('',(-50.,-24.,207.));
#917=CARTESIAN_POINT('',(-50.,24.,214.));
#918=CARTESIAN_POINT('',(-50.,0.,214.));
#919=CARTESIAN_POINT('',(-50.,24.,207.));
#920=CARTESIAN_POINT('Origin',(-51.,52.,202.));
#921=CARTESIAN_POINT('',(-51.,42.,200.));
#922=CARTESIAN_POINT('',(-51.,42.,202.));
#923=CARTESIAN_POINT('',(-51.,26.,200.));
#924=CARTESIAN_POINT('Origin',(-70.,0.,207.));
#925=CARTESIAN_POINT('',(-70.,-59.,214.));
#926=CARTESIAN_POINT('',(-70.,0.,214.));
#927=CARTESIAN_POINT('',(-70.,-59.,200.));
#928=CARTESIAN_POINT('',(-70.,-59.,207.));
#929=CARTESIAN_POINT('',(-70.,0.,200.));
#930=CARTESIAN_POINT('Origin',(-70.,0.,207.));
#931=CARTESIAN_POINT('',(-70.,59.,200.));
#932=CARTESIAN_POINT('',(-70.,0.,200.));
#933=CARTESIAN_POINT('',(-70.,59.,214.));
#934=CARTESIAN_POINT('',(-70.,59.,207.));
#935=CARTESIAN_POINT('',(-70.,0.,214.));
#936=CARTESIAN_POINT('Origin',(-80.,-59.,207.));
#937=CARTESIAN_POINT('',(-86.8997487421324,-59.,214.));
#938=CARTESIAN_POINT('',(-86.8997487421324,-59.,200.));
#939=CARTESIAN_POINT('',(-86.8997487421324,-59.,207.));
#940=CARTESIAN_POINT('',(-40.,-59.,200.));
#941=CARTESIAN_POINT('',(-80.,-59.,214.));
#942=CARTESIAN_POINT('Origin',(-80.,59.,207.));
#943=CARTESIAN_POINT('',(-86.8997487421324,59.,200.));
#944=CARTESIAN_POINT('',(-86.8997487421324,59.,214.));
#945=CARTESIAN_POINT('',(-86.8997487421324,59.,207.));
#946=CARTESIAN_POINT('',(-40.,59.,214.));
#947=CARTESIAN_POINT('',(-40.,59.,200.));
#948=CARTESIAN_POINT('Origin',(-67.,57.,207.));
#949=CARTESIAN_POINT('',(-87.,57.,200.));
#950=CARTESIAN_POINT('Origin',(-67.,57.,200.));
#951=CARTESIAN_POINT('',(-87.,57.,214.));
#952=CARTESIAN_POINT('',(-87.,57.,207.));
#953=CARTESIAN_POINT('Origin',(-67.,57.,214.));
#954=CARTESIAN_POINT('Origin',(-67.,-57.,207.));
#955=CARTESIAN_POINT('',(-87.,-57.,214.));
#956=CARTESIAN_POINT('Origin',(-67.,-57.,214.));
#957=CARTESIAN_POINT('',(-87.,-57.,200.));
#958=CARTESIAN_POINT('',(-87.,-57.,207.));
#959=CARTESIAN_POINT('Origin',(-67.,-57.,200.));
#960=CARTESIAN_POINT('Origin',(0.,0.,200.));
#961=CARTESIAN_POINT('',(-87.,0.,200.));
#962=CARTESIAN_POINT('',(-44.72135954999,42.,200.));
#963=CARTESIAN_POINT('',(-19.375,42.,200.));
#964=CARTESIAN_POINT('',(-44.7213595499958,24.,200.));
#965=CARTESIAN_POINT('',(-44.72135954999,0.,200.));
#966=CARTESIAN_POINT('',(-28.,24.,200.));
#967=CARTESIAN_POINT('',(-36.5,24.,200.));
#968=CARTESIAN_POINT('',(-28.,-24.,200.));
#969=CARTESIAN_POINT('',(-28.,0.,200.));
#970=CARTESIAN_POINT('',(-44.7213595499958,-24.,200.));
#971=CARTESIAN_POINT('',(-36.5,-24.,200.));
#972=CARTESIAN_POINT('',(-44.72135954999,-42.,200.));
#973=CARTESIAN_POINT('',(-44.72135954999,0.,200.));
#974=CARTESIAN_POINT('',(-19.375,-42.,200.));
#975=CARTESIAN_POINT('Origin',(0.,0.,214.));
#976=CARTESIAN_POINT('',(-54.07402333838,0.,214.));
#977=CARTESIAN_POINT('',(-87.,0.,214.));
#978=CARTESIAN_POINT('Origin',(-87.,0.,207.));
#979=CARTESIAN_POINT('Origin',(-46.,42.,202.));
#980=CARTESIAN_POINT('Origin',(0.,42.,240.));
#981=CARTESIAN_POINT('Origin',(0.,0.,240.));
#982=CARTESIAN_POINT('Origin',(0.,24.,240.));
#983=CARTESIAN_POINT('Origin',(0.,-42.,240.));
#984=CARTESIAN_POINT('Origin',(0.,-24.,240.));
#985=CARTESIAN_POINT('Origin',(-39.,-24.,207.));
#986=CARTESIAN_POINT('',(-28.,-24.,214.));
#987=CARTESIAN_POINT('',(-28.,-24.,207.));
#988=CARTESIAN_POINT('',(-39.,-24.,214.));
#989=CARTESIAN_POINT('Origin',(-39.,0.,214.));
#990=CARTESIAN_POINT('',(-28.,24.,214.));
#991=CARTESIAN_POINT('',(-28.,0.,214.));
#992=CARTESIAN_POINT('',(-39.,24.,214.));
#993=CARTESIAN_POINT('Origin',(-39.,24.,207.));
#994=CARTESIAN_POINT('',(-28.,24.,207.));
#995=CARTESIAN_POINT('Origin',(-28.,0.,207.));
#996=CARTESIAN_POINT('Origin',(-46.,-42.,202.));
#997=UNCERTAINTY_MEASURE_WITH_UNIT(LENGTH_MEASURE(0.01),#1001,
'DISTANCE_ACCURACY_VALUE',
'Maximum model space distance between geometric entities at asserted c
onnectivities');
#998=UNCERTAINTY_MEASURE_WITH_UNIT(LENGTH_MEASURE(0.01),#1001,
'DISTANCE_ACCURACY_VALUE',
'Maximum model space distance between geometric entities at asserted c
onnectivities');
#999=(
GEOMETRIC_REPRESENTATION_CONTEXT(3)
GLOBAL_UNCERTAINTY_ASSIGNED_CONTEXT((#997))
GLOBAL_UNIT_ASSIGNED_CONTEXT((#1001,#1003,#1004))
REPRESENTATION_CONTEXT('','3D')
);
#1000=(
GEOMETRIC_REPRESENTATION_CONTEXT(3)
GLOBAL_UNCERTAINTY_ASSIGNED_CONTEXT((#998))
GLOBAL_UNIT_ASSIGNED_CONTEXT((#1001,#1003,#1004))
REPRESENTATION_CONTEXT('','3D')
);
#1001=(
LENGTH_UNIT()
NAMED_UNIT(*)
SI_UNIT(.MILLI.,.METRE.)
);
#1002=(
LENGTH_UNIT()
NAMED_UNIT(*)
SI_UNIT($,.METRE.)
);
#1003=(
NAMED_UNIT(*)
PLANE_ANGLE_UNIT()
SI_UNIT($,.RADIAN.)
);
#1004=(
NAMED_UNIT(*)
SI_UNIT($,.STERADIAN.)
SOLID_ANGLE_UNIT()
);
#1005=SHAPE_DEFINITION_REPRESENTATION(#1006,#1007);
#1006=PRODUCT_DEFINITION_SHAPE('',$,#1009);
#1007=SHAPE_REPRESENTATION('',(#609),#999);
#1008=PRODUCT_DEFINITION_CONTEXT('part definition',#1013,'design');
#1009=PRODUCT_DEFINITION('2026-08-20-20-03-36-264',
'EXPORT_TMP_PRINT_V015_P101B_LowerDeck',#1010,#1008);
#1010=PRODUCT_DEFINITION_FORMATION('',$,#1015);
#1011=PRODUCT_RELATED_PRODUCT_CATEGORY(
'EXPORT_TMP_PRINT_V015_P101B_LowerDeck',
'EXPORT_TMP_PRINT_V015_P101B_LowerDeck',(#1015));
#1012=APPLICATION_PROTOCOL_DEFINITION('international standard',
'automotive_design',2009,#1013);
#1013=APPLICATION_CONTEXT(
'Core Data for Automotive Mechanical Design Process');
#1014=PRODUCT_CONTEXT('part definition',#1013,'mechanical');
#1015=PRODUCT('2026-08-20-20-03-36-264',
'EXPORT_TMP_PRINT_V015_P101B_LowerDeck',$,(#1014));
#1016=PRESENTATION_STYLE_ASSIGNMENT((#1017));
#1017=SURFACE_STYLE_USAGE(.BOTH.,#1018);
#1018=SURFACE_SIDE_STYLE('',(#1019));
#1019=SURFACE_STYLE_FILL_AREA(#1020);
#1020=FILL_AREA_STYLE('Steel - Satin',(#1021));
#1021=FILL_AREA_STYLE_COLOUR('Steel - Satin',#1022);
#1022=COLOUR_RGB('Steel - Satin',0.627450980392157,0.627450980392157,0.627450980392157);
ENDSEC;
END-ISO-10303-21;
