ISO-10303-21;
HEADER;
/* Generated by software containing ST-Developer
 * from STEP Tools, Inc. (www.steptools.com) 
 */

FILE_DESCRIPTION(
/* description */ (''),
/* implementation_level */ '2;1');

FILE_NAME(
/* name */ 'PRINT_V015_P101E_RearBridge.step',
/* time_stamp */ '2026-08-17T10:01:05+02:00',
/* author */ (''),
/* organization */ (''),
/* preprocessor_version */ 'ST-DEVELOPER v20.1',
/* originating_system */ 'Autodesk Translation Framework v15.8.0.0',
/* authorisation */ '');

FILE_SCHEMA (('AUTOMOTIVE_DESIGN { 1 0 10303 214 3 1 1 }'));
ENDSEC;

DATA;
#10=MECHANICAL_DESIGN_GEOMETRIC_PRESENTATION_REPRESENTATION('',(#13),#1860);
#11=SHAPE_REPRESENTATION_RELATIONSHIP('SRR','None',#1867,#12);
#12=ADVANCED_BREP_SHAPE_REPRESENTATION('',(#14),#1859);
#13=STYLED_ITEM('',(#1876),#14);
#14=MANIFOLD_SOLID_BREP('PRINT_V015_P101E_RearBridge',#960);
#15=B_SPLINE_CURVE_WITH_KNOTS('',3,(#1492,#1493,#1494,#1495,#1496,#1497,
#1498,#1499,#1500,#1501,#1502,#1503,#1504,#1505,#1506,#1507,#1508,#1509,
#1510,#1511,#1512,#1513),.UNSPECIFIED.,.F.,.F.,(4,2,2,2,2,2,2,2,2,2,4),
(-0.901867943457539,-0.844199317536384,-0.786530691615229,-0.671193439772921,
-0.561063705750845,-0.450933971728769,-0.340804237706693,-0.230674503684617,
-0.115337251842309,-0.0576686259211543,0.),.UNSPECIFIED.);
#16=B_SPLINE_CURVE_WITH_KNOTS('',3,(#1517,#1518,#1519,#1520,#1521,#1522,
#1523,#1524,#1525,#1526,#1527,#1528,#1529,#1530,#1531,#1532,#1533,#1534,
#1535,#1536,#1537,#1538),.UNSPECIFIED.,.F.,.F.,(4,2,2,2,2,2,2,2,2,2,4),
(0.,0.0576686259211543,0.115337251842309,0.230674503684617,0.340804237706693,
0.450933971728769,0.561063705750845,0.671193439772921,0.78653069161523,
0.844199317536384,0.901867943457539),.UNSPECIFIED.);
#17=B_SPLINE_CURVE_WITH_KNOTS('',3,(#1559,#1560,#1561,#1562,#1563,#1564,
#1565,#1566,#1567,#1568,#1569,#1570,#1571,#1572,#1573,#1574,#1575,#1576,
#1577,#1578,#1579,#1580),.UNSPECIFIED.,.F.,.F.,(4,2,2,2,2,2,2,2,2,2,4),
(-0.901867943457539,-0.844199317536384,-0.786530691615229,-0.671193439772921,
-0.561063705750845,-0.450933971728769,-0.340804237706693,-0.230674503684617,
-0.115337251842309,-0.0576686259211543,0.),.UNSPECIFIED.);
#18=B_SPLINE_CURVE_WITH_KNOTS('',3,(#1583,#1584,#1585,#1586,#1587,#1588,
#1589,#1590,#1591,#1592,#1593,#1594,#1595,#1596,#1597,#1598,#1599,#1600,
#1601,#1602,#1603,#1604),.UNSPECIFIED.,.F.,.F.,(4,2,2,2,2,2,2,2,2,2,4),
(0.,0.0576686259211543,0.115337251842309,0.230674503684617,0.340804237706693,
0.450933971728769,0.561063705750845,0.671193439772921,0.78653069161523,
0.844199317536384,0.901867943457539),.UNSPECIFIED.);
#19=B_SPLINE_CURVE_WITH_KNOTS('',3,(#1613,#1614,#1615,#1616,#1617,#1618,
#1619,#1620,#1621,#1622,#1623,#1624,#1625,#1626,#1627,#1628,#1629,#1630,
#1631,#1632,#1633,#1634),.UNSPECIFIED.,.F.,.F.,(4,2,2,2,2,2,2,2,2,2,4),
(-0.901867943457539,-0.844199317536384,-0.786530691615229,-0.671193439772921,
-0.561063705750845,-0.450933971728769,-0.340804237706693,-0.230674503684617,
-0.115337251842309,-0.0576686259211543,0.),.UNSPECIFIED.);
#20=B_SPLINE_CURVE_WITH_KNOTS('',3,(#1638,#1639,#1640,#1641,#1642,#1643,
#1644,#1645,#1646,#1647,#1648,#1649,#1650,#1651,#1652,#1653,#1654,#1655,
#1656,#1657,#1658,#1659),.UNSPECIFIED.,.F.,.F.,(4,2,2,2,2,2,2,2,2,2,4),
(0.,0.0576686259211543,0.115337251842309,0.230674503684617,0.340804237706693,
0.450933971728769,0.561063705750845,0.671193439772921,0.78653069161523,
0.844199317536384,0.901867943457539),.UNSPECIFIED.);
#21=B_SPLINE_CURVE_WITH_KNOTS('',3,(#1676,#1677,#1678,#1679,#1680,#1681,
#1682,#1683,#1684,#1685,#1686,#1687,#1688,#1689,#1690,#1691,#1692,#1693,
#1694,#1695,#1696,#1697),.UNSPECIFIED.,.F.,.F.,(4,2,2,2,2,2,2,2,2,2,4),
(-0.901867943457539,-0.844199317536384,-0.786530691615229,-0.671193439772921,
-0.561063705750845,-0.450933971728769,-0.340804237706693,-0.230674503684617,
-0.115337251842309,-0.0576686259211543,0.),.UNSPECIFIED.);
#22=B_SPLINE_CURVE_WITH_KNOTS('',3,(#1700,#1701,#1702,#1703,#1704,#1705,
#1706,#1707,#1708,#1709,#1710,#1711,#1712,#1713,#1714,#1715,#1716,#1717,
#1718,#1719,#1720,#1721),.UNSPECIFIED.,.F.,.F.,(4,2,2,2,2,2,2,2,2,2,4),
(0.,0.0576686259211543,0.115337251842309,0.230674503684617,0.340804237706693,
0.450933971728769,0.561063705750845,0.671193439772921,0.78653069161523,
0.844199317536384,0.901867943457539),.UNSPECIFIED.);
#23=ELLIPSE('',#988,3.88908729652602,2.75);
#24=ELLIPSE('',#989,3.88908729652602,2.75);
#25=ELLIPSE('',#991,3.88908729652602,2.75);
#26=ELLIPSE('',#992,3.88908729652602,2.75);
#27=ELLIPSE('',#994,3.88908729652602,2.75);
#28=ELLIPSE('',#995,3.88908729652602,2.75);
#29=ELLIPSE('',#997,3.88908729652602,2.75);
#30=ELLIPSE('',#998,3.88908729652602,2.75);
#31=ELLIPSE('',#1000,3.88908729652602,2.75);
#32=ELLIPSE('',#1001,3.88908729652602,2.75);
#33=ELLIPSE('',#1003,3.88908729652602,2.75);
#34=ELLIPSE('',#1004,3.88908729652602,2.75);
#35=ELLIPSE('',#1006,3.88908729652602,2.75);
#36=ELLIPSE('',#1008,3.88908729652602,2.75);
#37=ELLIPSE('',#1009,3.88908729652602,2.75);
#38=ELLIPSE('',#1011,3.88908729652602,2.75);
#39=ELLIPSE('',#1012,3.88908729652602,2.75);
#40=ELLIPSE('',#1014,3.88908729652602,2.75);
#41=ELLIPSE('',#1016,3.88908729652602,2.75);
#42=ELLIPSE('',#1017,3.88908729652602,2.75);
#43=ELLIPSE('',#1018,3.88908729652602,2.75);
#44=ELLIPSE('',#1019,3.88908729652602,2.75);
#45=ELLIPSE('',#1021,3.88908729652602,2.75);
#46=ELLIPSE('',#1022,3.88908729652602,2.75);
#47=ELLIPSE('',#1023,3.88908729652602,2.75);
#48=ELLIPSE('',#1024,3.88908729652602,2.75);
#49=ELLIPSE('',#1026,3.88908729652602,2.75);
#50=ELLIPSE('',#1027,3.88908729652602,2.75);
#51=ELLIPSE('',#1028,3.88908729652602,2.75);
#52=ELLIPSE('',#1029,3.88908729652602,2.75);
#53=ELLIPSE('',#1051,3.88908729652602,2.75);
#54=ELLIPSE('',#1052,3.88908729652602,2.75);
#55=ELLIPSE('',#1053,3.88908729652602,2.75);
#56=ELLIPSE('',#1054,3.88908729652602,2.75);
#57=ELLIPSE('',#1056,3.88908729652602,2.75);
#58=ELLIPSE('',#1057,3.88908729652602,2.75);
#59=ELLIPSE('',#1058,3.88908729652602,2.75);
#60=ELLIPSE('',#1059,3.88908729652602,2.75);
#61=ELLIPSE('',#1061,3.88908729652602,2.75);
#62=ELLIPSE('',#1062,3.88908729652602,2.75);
#63=ELLIPSE('',#1063,3.88908729652602,2.75);
#64=ELLIPSE('',#1064,3.88908729652602,2.75);
#65=ELLIPSE('',#1070,3.88908729652602,2.75);
#66=ELLIPSE('',#1071,3.88908729652602,2.75);
#67=ELLIPSE('',#1073,3.88908729652602,2.75);
#68=ELLIPSE('',#1074,3.88908729652602,2.75);
#69=ELLIPSE('',#1076,3.88908729652602,2.75);
#70=ELLIPSE('',#1077,3.88908729652602,2.75);
#71=CYLINDRICAL_SURFACE('',#987,2.75);
#72=CYLINDRICAL_SURFACE('',#990,2.75);
#73=CYLINDRICAL_SURFACE('',#993,2.75);
#74=CYLINDRICAL_SURFACE('',#996,2.75);
#75=CYLINDRICAL_SURFACE('',#999,2.75);
#76=CYLINDRICAL_SURFACE('',#1002,2.75);
#77=CYLINDRICAL_SURFACE('',#1005,2.75);
#78=CYLINDRICAL_SURFACE('',#1007,2.75);
#79=CYLINDRICAL_SURFACE('',#1010,2.75);
#80=CYLINDRICAL_SURFACE('',#1013,2.75);
#81=CYLINDRICAL_SURFACE('',#1015,2.75);
#82=CYLINDRICAL_SURFACE('',#1020,2.75);
#83=CYLINDRICAL_SURFACE('',#1025,2.75);
#84=CYLINDRICAL_SURFACE('',#1032,3.25);
#85=CYLINDRICAL_SURFACE('',#1038,3.25);
#86=CYLINDRICAL_SURFACE('',#1042,2.75);
#87=CYLINDRICAL_SURFACE('',#1044,2.75);
#88=CYLINDRICAL_SURFACE('',#1046,2.75);
#89=CYLINDRICAL_SURFACE('',#1048,2.75);
#90=CYLINDRICAL_SURFACE('',#1050,2.75);
#91=CYLINDRICAL_SURFACE('',#1055,2.75);
#92=CYLINDRICAL_SURFACE('',#1060,2.75);
#93=CYLINDRICAL_SURFACE('',#1065,2.75);
#94=CYLINDRICAL_SURFACE('',#1066,2.75);
#95=CYLINDRICAL_SURFACE('',#1067,2.75);
#96=CYLINDRICAL_SURFACE('',#1068,2.75);
#97=CYLINDRICAL_SURFACE('',#1069,2.75);
#98=CYLINDRICAL_SURFACE('',#1072,2.75);
#99=CYLINDRICAL_SURFACE('',#1075,2.75);
#100=CYLINDRICAL_SURFACE('',#1081,3.25);
#101=CYLINDRICAL_SURFACE('',#1089,3.25);
#102=CYLINDRICAL_SURFACE('',#1094,2.75);
#103=CYLINDRICAL_SURFACE('',#1095,2.75);
#104=CYLINDRICAL_SURFACE('',#1096,2.75);
#105=CYLINDRICAL_SURFACE('',#1097,2.75);
#106=FACE_BOUND('',#204,.T.);
#107=FACE_BOUND('',#205,.T.);
#108=FACE_BOUND('',#206,.T.);
#109=FACE_BOUND('',#207,.T.);
#110=FACE_BOUND('',#209,.T.);
#111=FACE_BOUND('',#210,.T.);
#112=FACE_BOUND('',#211,.T.);
#113=FACE_BOUND('',#213,.T.);
#114=FACE_BOUND('',#214,.T.);
#115=FACE_BOUND('',#215,.T.);
#116=FACE_BOUND('',#261,.T.);
#117=FACE_BOUND('',#262,.T.);
#118=FACE_BOUND('',#263,.T.);
#119=FACE_BOUND('',#264,.T.);
#120=FACE_BOUND('',#265,.T.);
#121=FACE_BOUND('',#266,.T.);
#122=CIRCLE('',#975,2.75);
#123=CIRCLE('',#976,2.75);
#124=CIRCLE('',#977,2.75);
#125=CIRCLE('',#978,2.75);
#126=CIRCLE('',#980,2.75);
#127=CIRCLE('',#981,2.75);
#128=CIRCLE('',#982,2.75);
#129=CIRCLE('',#984,2.75);
#130=CIRCLE('',#985,2.75);
#131=CIRCLE('',#986,2.75);
#132=CIRCLE('',#1031,3.25);
#133=CIRCLE('',#1033,3.25);
#134=CIRCLE('',#1034,3.25);
#135=CIRCLE('',#1035,3.25);
#136=CIRCLE('',#1037,3.25);
#137=CIRCLE('',#1039,3.25);
#138=CIRCLE('',#1040,3.25);
#139=CIRCLE('',#1041,3.25);
#140=CIRCLE('',#1043,2.75);
#141=CIRCLE('',#1045,2.75);
#142=CIRCLE('',#1047,2.75);
#143=CIRCLE('',#1049,2.75);
#144=CIRCLE('',#1079,3.25);
#145=CIRCLE('',#1080,3.25);
#146=CIRCLE('',#1082,3.25);
#147=CIRCLE('',#1083,3.25);
#148=CIRCLE('',#1087,3.25);
#149=CIRCLE('',#1088,3.25);
#150=CIRCLE('',#1090,3.25);
#151=CIRCLE('',#1091,3.25);
#152=FACE_OUTER_BOUND('',#203,.T.);
#153=FACE_OUTER_BOUND('',#208,.T.);
#154=FACE_OUTER_BOUND('',#212,.T.);
#155=FACE_OUTER_BOUND('',#216,.T.);
#156=FACE_OUTER_BOUND('',#217,.T.);
#157=FACE_OUTER_BOUND('',#218,.T.);
#158=FACE_OUTER_BOUND('',#219,.T.);
#159=FACE_OUTER_BOUND('',#220,.T.);
#160=FACE_OUTER_BOUND('',#221,.T.);
#161=FACE_OUTER_BOUND('',#222,.T.);
#162=FACE_OUTER_BOUND('',#223,.T.);
#163=FACE_OUTER_BOUND('',#224,.T.);
#164=FACE_OUTER_BOUND('',#225,.T.);
#165=FACE_OUTER_BOUND('',#226,.T.);
#166=FACE_OUTER_BOUND('',#227,.T.);
#167=FACE_OUTER_BOUND('',#228,.T.);
#168=FACE_OUTER_BOUND('',#229,.T.);
#169=FACE_OUTER_BOUND('',#230,.T.);
#170=FACE_OUTER_BOUND('',#231,.T.);
#171=FACE_OUTER_BOUND('',#232,.T.);
#172=FACE_OUTER_BOUND('',#233,.T.);
#173=FACE_OUTER_BOUND('',#234,.T.);
#174=FACE_OUTER_BOUND('',#235,.T.);
#175=FACE_OUTER_BOUND('',#236,.T.);
#176=FACE_OUTER_BOUND('',#237,.T.);
#177=FACE_OUTER_BOUND('',#238,.T.);
#178=FACE_OUTER_BOUND('',#239,.T.);
#179=FACE_OUTER_BOUND('',#240,.T.);
#180=FACE_OUTER_BOUND('',#241,.T.);
#181=FACE_OUTER_BOUND('',#242,.T.);
#182=FACE_OUTER_BOUND('',#243,.T.);
#183=FACE_OUTER_BOUND('',#244,.T.);
#184=FACE_OUTER_BOUND('',#245,.T.);
#185=FACE_OUTER_BOUND('',#246,.T.);
#186=FACE_OUTER_BOUND('',#247,.T.);
#187=FACE_OUTER_BOUND('',#248,.T.);
#188=FACE_OUTER_BOUND('',#249,.T.);
#189=FACE_OUTER_BOUND('',#250,.T.);
#190=FACE_OUTER_BOUND('',#251,.T.);
#191=FACE_OUTER_BOUND('',#252,.T.);
#192=FACE_OUTER_BOUND('',#253,.T.);
#193=FACE_OUTER_BOUND('',#254,.T.);
#194=FACE_OUTER_BOUND('',#255,.T.);
#195=FACE_OUTER_BOUND('',#256,.T.);
#196=FACE_OUTER_BOUND('',#257,.T.);
#197=FACE_OUTER_BOUND('',#258,.T.);
#198=FACE_OUTER_BOUND('',#259,.T.);
#199=FACE_OUTER_BOUND('',#260,.T.);
#200=FACE_OUTER_BOUND('',#267,.T.);
#201=FACE_OUTER_BOUND('',#268,.T.);
#202=FACE_OUTER_BOUND('',#269,.T.);
#203=EDGE_LOOP('',(#603,#604,#605,#606));
#204=EDGE_LOOP('',(#607));
#205=EDGE_LOOP('',(#608));
#206=EDGE_LOOP('',(#609));
#207=EDGE_LOOP('',(#610));
#208=EDGE_LOOP('',(#611,#612,#613,#614));
#209=EDGE_LOOP('',(#615));
#210=EDGE_LOOP('',(#616));
#211=EDGE_LOOP('',(#617));
#212=EDGE_LOOP('',(#618,#619,#620,#621));
#213=EDGE_LOOP('',(#622));
#214=EDGE_LOOP('',(#623));
#215=EDGE_LOOP('',(#624));
#216=EDGE_LOOP('',(#625,#626,#627,#628,#629));
#217=EDGE_LOOP('',(#630,#631,#632,#633,#634));
#218=EDGE_LOOP('',(#635,#636,#637,#638,#639));
#219=EDGE_LOOP('',(#640,#641,#642,#643,#644));
#220=EDGE_LOOP('',(#645,#646,#647,#648,#649,#650,#651,#652,#653,#654,#655));
#221=EDGE_LOOP('',(#656,#657,#658,#659,#660));
#222=EDGE_LOOP('',(#661,#662,#663,#664,#665,#666,#667,#668,#669,#670,#671));
#223=EDGE_LOOP('',(#672,#673,#674,#675,#676,#677,#678,#679,#680,#681,#682));
#224=EDGE_LOOP('',(#683,#684,#685,#686,#687));
#225=EDGE_LOOP('',(#688,#689,#690,#691,#692,#693,#694,#695,#696,#697,#698));
#226=EDGE_LOOP('',(#699,#700,#701,#702,#703,#704));
#227=EDGE_LOOP('',(#705,#706,#707,#708,#709,#710));
#228=EDGE_LOOP('',(#711,#712,#713,#714,#715,#716));
#229=EDGE_LOOP('',(#717,#718));
#230=EDGE_LOOP('',(#719,#720,#721,#722,#723,#724,#725,#726));
#231=EDGE_LOOP('',(#727,#728));
#232=EDGE_LOOP('',(#729,#730,#731,#732,#733,#734,#735,#736));
#233=EDGE_LOOP('',(#737,#738,#739,#740,#741));
#234=EDGE_LOOP('',(#742,#743,#744,#745,#746));
#235=EDGE_LOOP('',(#747,#748,#749,#750,#751));
#236=EDGE_LOOP('',(#752,#753,#754,#755,#756));
#237=EDGE_LOOP('',(#757,#758,#759,#760,#761,#762));
#238=EDGE_LOOP('',(#763,#764,#765,#766,#767,#768));
#239=EDGE_LOOP('',(#769,#770,#771,#772,#773,#774));
#240=EDGE_LOOP('',(#775,#776,#777,#778,#779,#780));
#241=EDGE_LOOP('',(#781,#782,#783,#784,#785,#786));
#242=EDGE_LOOP('',(#787,#788,#789,#790,#791,#792));
#243=EDGE_LOOP('',(#793,#794,#795,#796,#797,#798));
#244=EDGE_LOOP('',(#799,#800,#801,#802,#803,#804));
#245=EDGE_LOOP('',(#805,#806,#807,#808,#809,#810));
#246=EDGE_LOOP('',(#811,#812,#813,#814,#815,#816));
#247=EDGE_LOOP('',(#817,#818,#819));
#248=EDGE_LOOP('',(#820,#821,#822,#823,#824,#825,#826,#827));
#249=EDGE_LOOP('',(#828,#829));
#250=EDGE_LOOP('',(#830));
#251=EDGE_LOOP('',(#831,#832,#833));
#252=EDGE_LOOP('',(#834,#835,#836,#837,#838,#839,#840,#841));
#253=EDGE_LOOP('',(#842,#843));
#254=EDGE_LOOP('',(#844));
#255=EDGE_LOOP('',(#845,#846,#847,#848,#849,#850));
#256=EDGE_LOOP('',(#851,#852,#853,#854,#855,#856));
#257=EDGE_LOOP('',(#857,#858,#859,#860,#861,#862));
#258=EDGE_LOOP('',(#863,#864,#865,#866,#867,#868));
#259=EDGE_LOOP('',(#869,#870,#871,#872));
#260=EDGE_LOOP('',(#873,#874,#875,#876));
#261=EDGE_LOOP('',(#877));
#262=EDGE_LOOP('',(#878));
#263=EDGE_LOOP('',(#879));
#264=EDGE_LOOP('',(#880));
#265=EDGE_LOOP('',(#881));
#266=EDGE_LOOP('',(#882));
#267=EDGE_LOOP('',(#883,#884,#885,#886));
#268=EDGE_LOOP('',(#887,#888,#889));
#269=EDGE_LOOP('',(#890,#891,#892));
#270=LINE('',#1426,#329);
#271=LINE('',#1428,#330);
#272=LINE('',#1430,#331);
#273=LINE('',#1431,#332);
#274=LINE('',#1442,#333);
#275=LINE('',#1444,#334);
#276=LINE('',#1445,#335);
#277=LINE('',#1454,#336);
#278=LINE('',#1456,#337);
#279=LINE('',#1457,#338);
#280=LINE('',#1466,#339);
#281=LINE('',#1472,#340);
#282=LINE('',#1478,#341);
#283=LINE('',#1484,#342);
#284=LINE('',#1490,#343);
#285=LINE('',#1515,#344);
#286=LINE('',#1540,#345);
#287=LINE('',#1544,#346);
#288=LINE('',#1547,#347);
#289=LINE('',#1553,#348);
#290=LINE('',#1555,#349);
#291=LINE('',#1556,#350);
#292=LINE('',#1582,#351);
#293=LINE('',#1611,#352);
#294=LINE('',#1636,#353);
#295=LINE('',#1660,#354);
#296=LINE('',#1661,#355);
#297=LINE('',#1667,#356);
#298=LINE('',#1671,#357);
#299=LINE('',#1673,#358);
#300=LINE('',#1674,#359);
#301=LINE('',#1699,#360);
#302=LINE('',#1726,#361);
#303=LINE('',#1734,#362);
#304=LINE('',#1741,#363);
#305=LINE('',#1750,#364);
#306=LINE('',#1759,#365);
#307=LINE('',#1764,#366);
#308=LINE('',#1768,#367);
#309=LINE('',#1772,#368);
#310=LINE('',#1776,#369);
#311=LINE('',#1782,#370);
#312=LINE('',#1790,#371);
#313=LINE('',#1797,#372);
#314=LINE('',#1801,#373);
#315=LINE('',#1803,#374);
#316=LINE('',#1805,#375);
#317=LINE('',#1807,#376);
#318=LINE('',#1810,#377);
#319=LINE('',#1814,#378);
#320=LINE('',#1818,#379);
#321=LINE('',#1827,#380);
#322=LINE('',#1838,#381);
#323=LINE('',#1843,#382);
#324=LINE('',#1845,#383);
#325=LINE('',#1847,#384);
#326=LINE('',#1849,#385);
#327=LINE('',#1851,#386);
#328=LINE('',#1853,#387);
#329=VECTOR('',#1107,1.);
#330=VECTOR('',#1108,10.);
#331=VECTOR('',#1109,1.);
#332=VECTOR('',#1110,10.);
#333=VECTOR('',#1121,10.);
#334=VECTOR('',#1122,10.);
#335=VECTOR('',#1123,10.);
#336=VECTOR('',#1132,10.);
#337=VECTOR('',#1133,10.);
#338=VECTOR('',#1134,10.);
#339=VECTOR('',#1143,2.75);
#340=VECTOR('',#1150,2.75);
#341=VECTOR('',#1157,2.75);
#342=VECTOR('',#1164,2.75);
#343=VECTOR('',#1171,2.75);
#344=VECTOR('',#1172,10.);
#345=VECTOR('',#1173,2.75);
#346=VECTOR('',#1178,10.);
#347=VECTOR('',#1181,2.75);
#348=VECTOR('',#1188,2.75);
#349=VECTOR('',#1189,10.);
#350=VECTOR('',#1190,2.75);
#351=VECTOR('',#1193,10.);
#352=VECTOR('',#1200,2.75);
#353=VECTOR('',#1201,10.);
#354=VECTOR('',#1202,2.75);
#355=VECTOR('',#1203,10.);
#356=VECTOR('',#1210,2.75);
#357=VECTOR('',#1215,2.75);
#358=VECTOR('',#1216,10.);
#359=VECTOR('',#1217,2.75);
#360=VECTOR('',#1218,10.);
#361=VECTOR('',#1225,2.75);
#362=VECTOR('',#1236,2.75);
#363=VECTOR('',#1247,2.75);
#364=VECTOR('',#1260,3.25);
#365=VECTOR('',#1273,3.25);
#366=VECTOR('',#1280,2.75);
#367=VECTOR('',#1285,2.75);
#368=VECTOR('',#1290,2.75);
#369=VECTOR('',#1295,2.75);
#370=VECTOR('',#1304,2.75);
#371=VECTOR('',#1315,2.75);
#372=VECTOR('',#1326,2.75);
#373=VECTOR('',#1333,2.75);
#374=VECTOR('',#1336,2.75);
#375=VECTOR('',#1339,2.75);
#376=VECTOR('',#1342,2.75);
#377=VECTOR('',#1347,2.75);
#378=VECTOR('',#1354,2.75);
#379=VECTOR('',#1361,2.75);
#380=VECTOR('',#1374,3.25);
#381=VECTOR('',#1391,3.25);
#382=VECTOR('',#1400,2.75);
#383=VECTOR('',#1403,2.75);
#384=VECTOR('',#1406,2.75);
#385=VECTOR('',#1409,2.75);
#386=VECTOR('',#1412,1.);
#387=VECTOR('',#1415,1.);
#388=VERTEX_POINT('',#1424);
#389=VERTEX_POINT('',#1425);
#390=VERTEX_POINT('',#1427);
#391=VERTEX_POINT('',#1429);
#392=VERTEX_POINT('',#1432);
#393=VERTEX_POINT('',#1434);
#394=VERTEX_POINT('',#1436);
#395=VERTEX_POINT('',#1438);
#396=VERTEX_POINT('',#1441);
#397=VERTEX_POINT('',#1443);
#398=VERTEX_POINT('',#1446);
#399=VERTEX_POINT('',#1448);
#400=VERTEX_POINT('',#1450);
#401=VERTEX_POINT('',#1453);
#402=VERTEX_POINT('',#1455);
#403=VERTEX_POINT('',#1458);
#404=VERTEX_POINT('',#1460);
#405=VERTEX_POINT('',#1462);
#406=VERTEX_POINT('',#1465);
#407=VERTEX_POINT('',#1467);
#408=VERTEX_POINT('',#1471);
#409=VERTEX_POINT('',#1473);
#410=VERTEX_POINT('',#1477);
#411=VERTEX_POINT('',#1479);
#412=VERTEX_POINT('',#1483);
#413=VERTEX_POINT('',#1485);
#414=VERTEX_POINT('',#1489);
#415=VERTEX_POINT('',#1491);
#416=VERTEX_POINT('',#1514);
#417=VERTEX_POINT('',#1516);
#418=VERTEX_POINT('',#1539);
#419=VERTEX_POINT('',#1541);
#420=VERTEX_POINT('',#1546);
#421=VERTEX_POINT('',#1548);
#422=VERTEX_POINT('',#1552);
#423=VERTEX_POINT('',#1554);
#424=VERTEX_POINT('',#1558);
#425=VERTEX_POINT('',#1581);
#426=VERTEX_POINT('',#1606);
#427=VERTEX_POINT('',#1607);
#428=VERTEX_POINT('',#1610);
#429=VERTEX_POINT('',#1612);
#430=VERTEX_POINT('',#1635);
#431=VERTEX_POINT('',#1637);
#432=VERTEX_POINT('',#1663);
#433=VERTEX_POINT('',#1664);
#434=VERTEX_POINT('',#1670);
#435=VERTEX_POINT('',#1672);
#436=VERTEX_POINT('',#1675);
#437=VERTEX_POINT('',#1698);
#438=VERTEX_POINT('',#1725);
#439=VERTEX_POINT('',#1727);
#440=VERTEX_POINT('',#1733);
#441=VERTEX_POINT('',#1735);
#442=VERTEX_POINT('',#1747);
#443=VERTEX_POINT('',#1749);
#444=VERTEX_POINT('',#1756);
#445=VERTEX_POINT('',#1758);
#446=VERTEX_POINT('',#1763);
#447=VERTEX_POINT('',#1767);
#448=VERTEX_POINT('',#1771);
#449=VERTEX_POINT('',#1775);
#450=VERTEX_POINT('',#1781);
#451=VERTEX_POINT('',#1783);
#452=VERTEX_POINT('',#1789);
#453=VERTEX_POINT('',#1791);
#454=VERTEX_POINT('',#1821);
#455=VERTEX_POINT('',#1825);
#456=VERTEX_POINT('',#1832);
#457=VERTEX_POINT('',#1836);
#458=EDGE_CURVE('',#388,#389,#270,.T.);
#459=EDGE_CURVE('',#389,#390,#271,.T.);
#460=EDGE_CURVE('',#390,#391,#272,.T.);
#461=EDGE_CURVE('',#391,#388,#273,.T.);
#462=EDGE_CURVE('',#392,#392,#122,.T.);
#463=EDGE_CURVE('',#393,#393,#123,.T.);
#464=EDGE_CURVE('',#394,#394,#124,.T.);
#465=EDGE_CURVE('',#395,#395,#125,.T.);
#466=EDGE_CURVE('',#389,#396,#274,.T.);
#467=EDGE_CURVE('',#396,#397,#275,.T.);
#468=EDGE_CURVE('',#397,#390,#276,.T.);
#469=EDGE_CURVE('',#398,#398,#126,.T.);
#470=EDGE_CURVE('',#399,#399,#127,.T.);
#471=EDGE_CURVE('',#400,#400,#128,.T.);
#472=EDGE_CURVE('',#401,#388,#277,.T.);
#473=EDGE_CURVE('',#391,#402,#278,.T.);
#474=EDGE_CURVE('',#402,#401,#279,.T.);
#475=EDGE_CURVE('',#403,#403,#129,.T.);
#476=EDGE_CURVE('',#404,#404,#130,.T.);
#477=EDGE_CURVE('',#405,#405,#131,.T.);
#478=EDGE_CURVE('',#395,#406,#280,.T.);
#479=EDGE_CURVE('',#406,#407,#23,.T.);
#480=EDGE_CURVE('',#407,#406,#24,.T.);
#481=EDGE_CURVE('',#394,#408,#281,.T.);
#482=EDGE_CURVE('',#408,#409,#25,.T.);
#483=EDGE_CURVE('',#409,#408,#26,.T.);
#484=EDGE_CURVE('',#393,#410,#282,.T.);
#485=EDGE_CURVE('',#410,#411,#27,.T.);
#486=EDGE_CURVE('',#411,#410,#28,.T.);
#487=EDGE_CURVE('',#392,#412,#283,.T.);
#488=EDGE_CURVE('',#412,#413,#29,.T.);
#489=EDGE_CURVE('',#413,#412,#30,.T.);
#490=EDGE_CURVE('',#405,#414,#284,.T.);
#491=EDGE_CURVE('',#415,#414,#15,.T.);
#492=EDGE_CURVE('',#416,#415,#285,.T.);
#493=EDGE_CURVE('',#417,#416,#16,.T.);
#494=EDGE_CURVE('',#417,#418,#286,.T.);
#495=EDGE_CURVE('',#419,#418,#31,.T.);
#496=EDGE_CURVE('',#418,#419,#32,.T.);
#497=EDGE_CURVE('',#414,#417,#287,.T.);
#498=EDGE_CURVE('',#404,#420,#288,.T.);
#499=EDGE_CURVE('',#421,#420,#33,.T.);
#500=EDGE_CURVE('',#420,#421,#34,.T.);
#501=EDGE_CURVE('',#403,#422,#289,.T.);
#502=EDGE_CURVE('',#423,#422,#290,.T.);
#503=EDGE_CURVE('',#423,#412,#291,.T.);
#504=EDGE_CURVE('',#413,#412,#35,.T.);
#505=EDGE_CURVE('',#424,#423,#17,.T.);
#506=EDGE_CURVE('',#425,#424,#292,.T.);
#507=EDGE_CURVE('',#422,#425,#18,.T.);
#508=EDGE_CURVE('',#426,#427,#36,.T.);
#509=EDGE_CURVE('',#427,#426,#37,.T.);
#510=EDGE_CURVE('',#427,#428,#293,.T.);
#511=EDGE_CURVE('',#429,#428,#19,.T.);
#512=EDGE_CURVE('',#430,#429,#294,.T.);
#513=EDGE_CURVE('',#431,#430,#20,.T.);
#514=EDGE_CURVE('',#431,#400,#295,.T.);
#515=EDGE_CURVE('',#428,#431,#296,.T.);
#516=EDGE_CURVE('',#432,#433,#38,.T.);
#517=EDGE_CURVE('',#433,#432,#39,.T.);
#518=EDGE_CURVE('',#433,#399,#297,.T.);
#519=EDGE_CURVE('',#406,#407,#40,.T.);
#520=EDGE_CURVE('',#406,#434,#298,.T.);
#521=EDGE_CURVE('',#435,#434,#299,.T.);
#522=EDGE_CURVE('',#435,#398,#300,.T.);
#523=EDGE_CURVE('',#436,#435,#21,.T.);
#524=EDGE_CURVE('',#437,#436,#301,.T.);
#525=EDGE_CURVE('',#434,#437,#22,.T.);
#526=EDGE_CURVE('',#419,#418,#41,.T.);
#527=EDGE_CURVE('',#418,#419,#42,.T.);
#528=EDGE_CURVE('',#418,#438,#302,.T.);
#529=EDGE_CURVE('',#439,#438,#43,.T.);
#530=EDGE_CURVE('',#438,#439,#44,.T.);
#531=EDGE_CURVE('',#439,#438,#45,.T.);
#532=EDGE_CURVE('',#438,#439,#46,.T.);
#533=EDGE_CURVE('',#438,#440,#303,.T.);
#534=EDGE_CURVE('',#441,#440,#47,.T.);
#535=EDGE_CURVE('',#440,#441,#48,.T.);
#536=EDGE_CURVE('',#441,#440,#49,.T.);
#537=EDGE_CURVE('',#440,#441,#50,.T.);
#538=EDGE_CURVE('',#440,#427,#304,.T.);
#539=EDGE_CURVE('',#426,#427,#51,.T.);
#540=EDGE_CURVE('',#427,#426,#52,.T.);
#541=EDGE_CURVE('',#430,#429,#132,.T.);
#542=EDGE_CURVE('',#428,#442,#133,.T.);
#543=EDGE_CURVE('',#442,#443,#305,.T.);
#544=EDGE_CURVE('',#443,#443,#134,.T.);
#545=EDGE_CURVE('',#442,#431,#135,.T.);
#546=EDGE_CURVE('',#416,#415,#136,.T.);
#547=EDGE_CURVE('',#414,#444,#137,.T.);
#548=EDGE_CURVE('',#444,#445,#306,.T.);
#549=EDGE_CURVE('',#445,#445,#138,.T.);
#550=EDGE_CURVE('',#444,#417,#139,.T.);
#551=EDGE_CURVE('',#427,#446,#307,.T.);
#552=EDGE_CURVE('',#446,#446,#140,.T.);
#553=EDGE_CURVE('',#440,#447,#308,.T.);
#554=EDGE_CURVE('',#447,#447,#141,.T.);
#555=EDGE_CURVE('',#438,#448,#309,.T.);
#556=EDGE_CURVE('',#448,#448,#142,.T.);
#557=EDGE_CURVE('',#418,#449,#310,.T.);
#558=EDGE_CURVE('',#449,#449,#143,.T.);
#559=EDGE_CURVE('',#421,#420,#53,.T.);
#560=EDGE_CURVE('',#420,#421,#54,.T.);
#561=EDGE_CURVE('',#420,#450,#311,.T.);
#562=EDGE_CURVE('',#451,#450,#55,.T.);
#563=EDGE_CURVE('',#450,#451,#56,.T.);
#564=EDGE_CURVE('',#451,#450,#57,.T.);
#565=EDGE_CURVE('',#450,#451,#58,.T.);
#566=EDGE_CURVE('',#450,#452,#312,.T.);
#567=EDGE_CURVE('',#453,#452,#59,.T.);
#568=EDGE_CURVE('',#452,#453,#60,.T.);
#569=EDGE_CURVE('',#453,#452,#61,.T.);
#570=EDGE_CURVE('',#452,#453,#62,.T.);
#571=EDGE_CURVE('',#452,#433,#313,.T.);
#572=EDGE_CURVE('',#432,#433,#63,.T.);
#573=EDGE_CURVE('',#433,#432,#64,.T.);
#574=EDGE_CURVE('',#433,#427,#314,.T.);
#575=EDGE_CURVE('',#452,#440,#315,.T.);
#576=EDGE_CURVE('',#450,#438,#316,.T.);
#577=EDGE_CURVE('',#420,#418,#317,.T.);
#578=EDGE_CURVE('',#412,#413,#65,.T.);
#579=EDGE_CURVE('',#412,#410,#318,.T.);
#580=EDGE_CURVE('',#411,#410,#66,.T.);
#581=EDGE_CURVE('',#410,#411,#67,.T.);
#582=EDGE_CURVE('',#410,#408,#319,.T.);
#583=EDGE_CURVE('',#409,#408,#68,.T.);
#584=EDGE_CURVE('',#408,#409,#69,.T.);
#585=EDGE_CURVE('',#408,#406,#320,.T.);
#586=EDGE_CURVE('',#407,#406,#70,.T.);
#587=EDGE_CURVE('',#454,#434,#144,.T.);
#588=EDGE_CURVE('',#435,#454,#145,.T.);
#589=EDGE_CURVE('',#455,#455,#146,.T.);
#590=EDGE_CURVE('',#455,#454,#321,.T.);
#591=EDGE_CURVE('',#437,#436,#147,.T.);
#592=EDGE_CURVE('',#456,#422,#148,.T.);
#593=EDGE_CURVE('',#423,#456,#149,.T.);
#594=EDGE_CURVE('',#457,#457,#150,.T.);
#595=EDGE_CURVE('',#457,#456,#322,.T.);
#596=EDGE_CURVE('',#425,#424,#151,.T.);
#597=EDGE_CURVE('',#406,#433,#323,.T.);
#598=EDGE_CURVE('',#408,#452,#324,.T.);
#599=EDGE_CURVE('',#410,#450,#325,.T.);
#600=EDGE_CURVE('',#412,#420,#326,.T.);
#601=EDGE_CURVE('',#402,#397,#327,.T.);
#602=EDGE_CURVE('',#396,#401,#328,.T.);
#603=ORIENTED_EDGE('',*,*,#458,.T.);
#604=ORIENTED_EDGE('',*,*,#459,.T.);
#605=ORIENTED_EDGE('',*,*,#460,.T.);
#606=ORIENTED_EDGE('',*,*,#461,.T.);
#607=ORIENTED_EDGE('',*,*,#462,.T.);
#608=ORIENTED_EDGE('',*,*,#463,.T.);
#609=ORIENTED_EDGE('',*,*,#464,.T.);
#610=ORIENTED_EDGE('',*,*,#465,.T.);
#611=ORIENTED_EDGE('',*,*,#466,.T.);
#612=ORIENTED_EDGE('',*,*,#467,.T.);
#613=ORIENTED_EDGE('',*,*,#468,.T.);
#614=ORIENTED_EDGE('',*,*,#459,.F.);
#615=ORIENTED_EDGE('',*,*,#469,.T.);
#616=ORIENTED_EDGE('',*,*,#470,.T.);
#617=ORIENTED_EDGE('',*,*,#471,.T.);
#618=ORIENTED_EDGE('',*,*,#472,.T.);
#619=ORIENTED_EDGE('',*,*,#461,.F.);
#620=ORIENTED_EDGE('',*,*,#473,.T.);
#621=ORIENTED_EDGE('',*,*,#474,.T.);
#622=ORIENTED_EDGE('',*,*,#475,.T.);
#623=ORIENTED_EDGE('',*,*,#476,.T.);
#624=ORIENTED_EDGE('',*,*,#477,.T.);
#625=ORIENTED_EDGE('',*,*,#465,.F.);
#626=ORIENTED_EDGE('',*,*,#478,.T.);
#627=ORIENTED_EDGE('',*,*,#479,.T.);
#628=ORIENTED_EDGE('',*,*,#480,.T.);
#629=ORIENTED_EDGE('',*,*,#478,.F.);
#630=ORIENTED_EDGE('',*,*,#464,.F.);
#631=ORIENTED_EDGE('',*,*,#481,.T.);
#632=ORIENTED_EDGE('',*,*,#482,.T.);
#633=ORIENTED_EDGE('',*,*,#483,.T.);
#634=ORIENTED_EDGE('',*,*,#481,.F.);
#635=ORIENTED_EDGE('',*,*,#463,.F.);
#636=ORIENTED_EDGE('',*,*,#484,.T.);
#637=ORIENTED_EDGE('',*,*,#485,.T.);
#638=ORIENTED_EDGE('',*,*,#486,.T.);
#639=ORIENTED_EDGE('',*,*,#484,.F.);
#640=ORIENTED_EDGE('',*,*,#462,.F.);
#641=ORIENTED_EDGE('',*,*,#487,.T.);
#642=ORIENTED_EDGE('',*,*,#488,.T.);
#643=ORIENTED_EDGE('',*,*,#489,.T.);
#644=ORIENTED_EDGE('',*,*,#487,.F.);
#645=ORIENTED_EDGE('',*,*,#477,.F.);
#646=ORIENTED_EDGE('',*,*,#490,.T.);
#647=ORIENTED_EDGE('',*,*,#491,.F.);
#648=ORIENTED_EDGE('',*,*,#492,.F.);
#649=ORIENTED_EDGE('',*,*,#493,.F.);
#650=ORIENTED_EDGE('',*,*,#494,.T.);
#651=ORIENTED_EDGE('',*,*,#495,.F.);
#652=ORIENTED_EDGE('',*,*,#496,.F.);
#653=ORIENTED_EDGE('',*,*,#494,.F.);
#654=ORIENTED_EDGE('',*,*,#497,.F.);
#655=ORIENTED_EDGE('',*,*,#490,.F.);
#656=ORIENTED_EDGE('',*,*,#476,.F.);
#657=ORIENTED_EDGE('',*,*,#498,.T.);
#658=ORIENTED_EDGE('',*,*,#499,.F.);
#659=ORIENTED_EDGE('',*,*,#500,.F.);
#660=ORIENTED_EDGE('',*,*,#498,.F.);
#661=ORIENTED_EDGE('',*,*,#475,.F.);
#662=ORIENTED_EDGE('',*,*,#501,.T.);
#663=ORIENTED_EDGE('',*,*,#502,.F.);
#664=ORIENTED_EDGE('',*,*,#503,.T.);
#665=ORIENTED_EDGE('',*,*,#504,.F.);
#666=ORIENTED_EDGE('',*,*,#488,.F.);
#667=ORIENTED_EDGE('',*,*,#503,.F.);
#668=ORIENTED_EDGE('',*,*,#505,.F.);
#669=ORIENTED_EDGE('',*,*,#506,.F.);
#670=ORIENTED_EDGE('',*,*,#507,.F.);
#671=ORIENTED_EDGE('',*,*,#501,.F.);
#672=ORIENTED_EDGE('',*,*,#508,.F.);
#673=ORIENTED_EDGE('',*,*,#509,.F.);
#674=ORIENTED_EDGE('',*,*,#510,.T.);
#675=ORIENTED_EDGE('',*,*,#511,.F.);
#676=ORIENTED_EDGE('',*,*,#512,.F.);
#677=ORIENTED_EDGE('',*,*,#513,.F.);
#678=ORIENTED_EDGE('',*,*,#514,.T.);
#679=ORIENTED_EDGE('',*,*,#471,.F.);
#680=ORIENTED_EDGE('',*,*,#514,.F.);
#681=ORIENTED_EDGE('',*,*,#515,.F.);
#682=ORIENTED_EDGE('',*,*,#510,.F.);
#683=ORIENTED_EDGE('',*,*,#516,.F.);
#684=ORIENTED_EDGE('',*,*,#517,.F.);
#685=ORIENTED_EDGE('',*,*,#518,.T.);
#686=ORIENTED_EDGE('',*,*,#470,.F.);
#687=ORIENTED_EDGE('',*,*,#518,.F.);
#688=ORIENTED_EDGE('',*,*,#480,.F.);
#689=ORIENTED_EDGE('',*,*,#519,.F.);
#690=ORIENTED_EDGE('',*,*,#520,.T.);
#691=ORIENTED_EDGE('',*,*,#521,.F.);
#692=ORIENTED_EDGE('',*,*,#522,.T.);
#693=ORIENTED_EDGE('',*,*,#469,.F.);
#694=ORIENTED_EDGE('',*,*,#522,.F.);
#695=ORIENTED_EDGE('',*,*,#523,.F.);
#696=ORIENTED_EDGE('',*,*,#524,.F.);
#697=ORIENTED_EDGE('',*,*,#525,.F.);
#698=ORIENTED_EDGE('',*,*,#520,.F.);
#699=ORIENTED_EDGE('',*,*,#526,.F.);
#700=ORIENTED_EDGE('',*,*,#527,.F.);
#701=ORIENTED_EDGE('',*,*,#528,.T.);
#702=ORIENTED_EDGE('',*,*,#529,.F.);
#703=ORIENTED_EDGE('',*,*,#530,.F.);
#704=ORIENTED_EDGE('',*,*,#528,.F.);
#705=ORIENTED_EDGE('',*,*,#531,.F.);
#706=ORIENTED_EDGE('',*,*,#532,.F.);
#707=ORIENTED_EDGE('',*,*,#533,.T.);
#708=ORIENTED_EDGE('',*,*,#534,.F.);
#709=ORIENTED_EDGE('',*,*,#535,.F.);
#710=ORIENTED_EDGE('',*,*,#533,.F.);
#711=ORIENTED_EDGE('',*,*,#536,.F.);
#712=ORIENTED_EDGE('',*,*,#537,.F.);
#713=ORIENTED_EDGE('',*,*,#538,.T.);
#714=ORIENTED_EDGE('',*,*,#539,.F.);
#715=ORIENTED_EDGE('',*,*,#540,.F.);
#716=ORIENTED_EDGE('',*,*,#538,.F.);
#717=ORIENTED_EDGE('',*,*,#512,.T.);
#718=ORIENTED_EDGE('',*,*,#541,.F.);
#719=ORIENTED_EDGE('',*,*,#513,.T.);
#720=ORIENTED_EDGE('',*,*,#541,.T.);
#721=ORIENTED_EDGE('',*,*,#511,.T.);
#722=ORIENTED_EDGE('',*,*,#542,.T.);
#723=ORIENTED_EDGE('',*,*,#543,.T.);
#724=ORIENTED_EDGE('',*,*,#544,.F.);
#725=ORIENTED_EDGE('',*,*,#543,.F.);
#726=ORIENTED_EDGE('',*,*,#545,.T.);
#727=ORIENTED_EDGE('',*,*,#492,.T.);
#728=ORIENTED_EDGE('',*,*,#546,.F.);
#729=ORIENTED_EDGE('',*,*,#493,.T.);
#730=ORIENTED_EDGE('',*,*,#546,.T.);
#731=ORIENTED_EDGE('',*,*,#491,.T.);
#732=ORIENTED_EDGE('',*,*,#547,.T.);
#733=ORIENTED_EDGE('',*,*,#548,.T.);
#734=ORIENTED_EDGE('',*,*,#549,.F.);
#735=ORIENTED_EDGE('',*,*,#548,.F.);
#736=ORIENTED_EDGE('',*,*,#550,.T.);
#737=ORIENTED_EDGE('',*,*,#539,.T.);
#738=ORIENTED_EDGE('',*,*,#551,.T.);
#739=ORIENTED_EDGE('',*,*,#552,.F.);
#740=ORIENTED_EDGE('',*,*,#551,.F.);
#741=ORIENTED_EDGE('',*,*,#509,.T.);
#742=ORIENTED_EDGE('',*,*,#534,.T.);
#743=ORIENTED_EDGE('',*,*,#553,.T.);
#744=ORIENTED_EDGE('',*,*,#554,.F.);
#745=ORIENTED_EDGE('',*,*,#553,.F.);
#746=ORIENTED_EDGE('',*,*,#537,.T.);
#747=ORIENTED_EDGE('',*,*,#529,.T.);
#748=ORIENTED_EDGE('',*,*,#555,.T.);
#749=ORIENTED_EDGE('',*,*,#556,.F.);
#750=ORIENTED_EDGE('',*,*,#555,.F.);
#751=ORIENTED_EDGE('',*,*,#532,.T.);
#752=ORIENTED_EDGE('',*,*,#495,.T.);
#753=ORIENTED_EDGE('',*,*,#557,.T.);
#754=ORIENTED_EDGE('',*,*,#558,.F.);
#755=ORIENTED_EDGE('',*,*,#557,.F.);
#756=ORIENTED_EDGE('',*,*,#527,.T.);
#757=ORIENTED_EDGE('',*,*,#559,.F.);
#758=ORIENTED_EDGE('',*,*,#560,.F.);
#759=ORIENTED_EDGE('',*,*,#561,.T.);
#760=ORIENTED_EDGE('',*,*,#562,.F.);
#761=ORIENTED_EDGE('',*,*,#563,.F.);
#762=ORIENTED_EDGE('',*,*,#561,.F.);
#763=ORIENTED_EDGE('',*,*,#564,.F.);
#764=ORIENTED_EDGE('',*,*,#565,.F.);
#765=ORIENTED_EDGE('',*,*,#566,.T.);
#766=ORIENTED_EDGE('',*,*,#567,.F.);
#767=ORIENTED_EDGE('',*,*,#568,.F.);
#768=ORIENTED_EDGE('',*,*,#566,.F.);
#769=ORIENTED_EDGE('',*,*,#569,.F.);
#770=ORIENTED_EDGE('',*,*,#570,.F.);
#771=ORIENTED_EDGE('',*,*,#571,.T.);
#772=ORIENTED_EDGE('',*,*,#572,.F.);
#773=ORIENTED_EDGE('',*,*,#573,.F.);
#774=ORIENTED_EDGE('',*,*,#571,.F.);
#775=ORIENTED_EDGE('',*,*,#572,.T.);
#776=ORIENTED_EDGE('',*,*,#574,.T.);
#777=ORIENTED_EDGE('',*,*,#540,.T.);
#778=ORIENTED_EDGE('',*,*,#508,.T.);
#779=ORIENTED_EDGE('',*,*,#574,.F.);
#780=ORIENTED_EDGE('',*,*,#517,.T.);
#781=ORIENTED_EDGE('',*,*,#567,.T.);
#782=ORIENTED_EDGE('',*,*,#575,.T.);
#783=ORIENTED_EDGE('',*,*,#535,.T.);
#784=ORIENTED_EDGE('',*,*,#536,.T.);
#785=ORIENTED_EDGE('',*,*,#575,.F.);
#786=ORIENTED_EDGE('',*,*,#570,.T.);
#787=ORIENTED_EDGE('',*,*,#562,.T.);
#788=ORIENTED_EDGE('',*,*,#576,.T.);
#789=ORIENTED_EDGE('',*,*,#530,.T.);
#790=ORIENTED_EDGE('',*,*,#531,.T.);
#791=ORIENTED_EDGE('',*,*,#576,.F.);
#792=ORIENTED_EDGE('',*,*,#565,.T.);
#793=ORIENTED_EDGE('',*,*,#499,.T.);
#794=ORIENTED_EDGE('',*,*,#577,.T.);
#795=ORIENTED_EDGE('',*,*,#496,.T.);
#796=ORIENTED_EDGE('',*,*,#526,.T.);
#797=ORIENTED_EDGE('',*,*,#577,.F.);
#798=ORIENTED_EDGE('',*,*,#560,.T.);
#799=ORIENTED_EDGE('',*,*,#489,.F.);
#800=ORIENTED_EDGE('',*,*,#578,.F.);
#801=ORIENTED_EDGE('',*,*,#579,.T.);
#802=ORIENTED_EDGE('',*,*,#580,.F.);
#803=ORIENTED_EDGE('',*,*,#485,.F.);
#804=ORIENTED_EDGE('',*,*,#579,.F.);
#805=ORIENTED_EDGE('',*,*,#486,.F.);
#806=ORIENTED_EDGE('',*,*,#581,.F.);
#807=ORIENTED_EDGE('',*,*,#582,.T.);
#808=ORIENTED_EDGE('',*,*,#583,.F.);
#809=ORIENTED_EDGE('',*,*,#482,.F.);
#810=ORIENTED_EDGE('',*,*,#582,.F.);
#811=ORIENTED_EDGE('',*,*,#483,.F.);
#812=ORIENTED_EDGE('',*,*,#584,.F.);
#813=ORIENTED_EDGE('',*,*,#585,.T.);
#814=ORIENTED_EDGE('',*,*,#586,.F.);
#815=ORIENTED_EDGE('',*,*,#479,.F.);
#816=ORIENTED_EDGE('',*,*,#585,.F.);
#817=ORIENTED_EDGE('',*,*,#521,.T.);
#818=ORIENTED_EDGE('',*,*,#587,.F.);
#819=ORIENTED_EDGE('',*,*,#588,.F.);
#820=ORIENTED_EDGE('',*,*,#589,.T.);
#821=ORIENTED_EDGE('',*,*,#590,.T.);
#822=ORIENTED_EDGE('',*,*,#587,.T.);
#823=ORIENTED_EDGE('',*,*,#525,.T.);
#824=ORIENTED_EDGE('',*,*,#591,.T.);
#825=ORIENTED_EDGE('',*,*,#523,.T.);
#826=ORIENTED_EDGE('',*,*,#588,.T.);
#827=ORIENTED_EDGE('',*,*,#590,.F.);
#828=ORIENTED_EDGE('',*,*,#524,.T.);
#829=ORIENTED_EDGE('',*,*,#591,.F.);
#830=ORIENTED_EDGE('',*,*,#589,.F.);
#831=ORIENTED_EDGE('',*,*,#502,.T.);
#832=ORIENTED_EDGE('',*,*,#592,.F.);
#833=ORIENTED_EDGE('',*,*,#593,.F.);
#834=ORIENTED_EDGE('',*,*,#594,.T.);
#835=ORIENTED_EDGE('',*,*,#595,.T.);
#836=ORIENTED_EDGE('',*,*,#592,.T.);
#837=ORIENTED_EDGE('',*,*,#507,.T.);
#838=ORIENTED_EDGE('',*,*,#596,.T.);
#839=ORIENTED_EDGE('',*,*,#505,.T.);
#840=ORIENTED_EDGE('',*,*,#593,.T.);
#841=ORIENTED_EDGE('',*,*,#595,.F.);
#842=ORIENTED_EDGE('',*,*,#506,.T.);
#843=ORIENTED_EDGE('',*,*,#596,.F.);
#844=ORIENTED_EDGE('',*,*,#594,.F.);
#845=ORIENTED_EDGE('',*,*,#586,.T.);
#846=ORIENTED_EDGE('',*,*,#597,.T.);
#847=ORIENTED_EDGE('',*,*,#573,.T.);
#848=ORIENTED_EDGE('',*,*,#516,.T.);
#849=ORIENTED_EDGE('',*,*,#597,.F.);
#850=ORIENTED_EDGE('',*,*,#519,.T.);
#851=ORIENTED_EDGE('',*,*,#583,.T.);
#852=ORIENTED_EDGE('',*,*,#598,.T.);
#853=ORIENTED_EDGE('',*,*,#568,.T.);
#854=ORIENTED_EDGE('',*,*,#569,.T.);
#855=ORIENTED_EDGE('',*,*,#598,.F.);
#856=ORIENTED_EDGE('',*,*,#584,.T.);
#857=ORIENTED_EDGE('',*,*,#580,.T.);
#858=ORIENTED_EDGE('',*,*,#599,.T.);
#859=ORIENTED_EDGE('',*,*,#563,.T.);
#860=ORIENTED_EDGE('',*,*,#564,.T.);
#861=ORIENTED_EDGE('',*,*,#599,.F.);
#862=ORIENTED_EDGE('',*,*,#581,.T.);
#863=ORIENTED_EDGE('',*,*,#504,.T.);
#864=ORIENTED_EDGE('',*,*,#600,.T.);
#865=ORIENTED_EDGE('',*,*,#500,.T.);
#866=ORIENTED_EDGE('',*,*,#559,.T.);
#867=ORIENTED_EDGE('',*,*,#600,.F.);
#868=ORIENTED_EDGE('',*,*,#578,.T.);
#869=ORIENTED_EDGE('',*,*,#468,.F.);
#870=ORIENTED_EDGE('',*,*,#601,.F.);
#871=ORIENTED_EDGE('',*,*,#473,.F.);
#872=ORIENTED_EDGE('',*,*,#460,.F.);
#873=ORIENTED_EDGE('',*,*,#467,.F.);
#874=ORIENTED_EDGE('',*,*,#602,.T.);
#875=ORIENTED_EDGE('',*,*,#474,.F.);
#876=ORIENTED_EDGE('',*,*,#601,.T.);
#877=ORIENTED_EDGE('',*,*,#552,.T.);
#878=ORIENTED_EDGE('',*,*,#554,.T.);
#879=ORIENTED_EDGE('',*,*,#556,.T.);
#880=ORIENTED_EDGE('',*,*,#558,.T.);
#881=ORIENTED_EDGE('',*,*,#544,.T.);
#882=ORIENTED_EDGE('',*,*,#549,.T.);
#883=ORIENTED_EDGE('',*,*,#466,.F.);
#884=ORIENTED_EDGE('',*,*,#458,.F.);
#885=ORIENTED_EDGE('',*,*,#472,.F.);
#886=ORIENTED_EDGE('',*,*,#602,.F.);
#887=ORIENTED_EDGE('',*,*,#515,.T.);
#888=ORIENTED_EDGE('',*,*,#545,.F.);
#889=ORIENTED_EDGE('',*,*,#542,.F.);
#890=ORIENTED_EDGE('',*,*,#497,.T.);
#891=ORIENTED_EDGE('',*,*,#550,.F.);
#892=ORIENTED_EDGE('',*,*,#547,.F.);
#893=PLANE('',#974);
#894=PLANE('',#979);
#895=PLANE('',#983);
#896=PLANE('',#1030);
#897=PLANE('',#1036);
#898=PLANE('',#1078);
#899=PLANE('',#1084);
#900=PLANE('',#1085);
#901=PLANE('',#1086);
#902=PLANE('',#1092);
#903=PLANE('',#1093);
#904=PLANE('',#1098);
#905=PLANE('',#1099);
#906=PLANE('',#1100);
#907=PLANE('',#1101);
#908=PLANE('',#1102);
#909=ADVANCED_FACE('',(#152,#106,#107,#108,#109),#893,.F.);
#910=ADVANCED_FACE('',(#153,#110,#111,#112),#894,.F.);
#911=ADVANCED_FACE('',(#154,#113,#114,#115),#895,.F.);
#912=ADVANCED_FACE('',(#155),#71,.F.);
#913=ADVANCED_FACE('',(#156),#72,.F.);
#914=ADVANCED_FACE('',(#157),#73,.F.);
#915=ADVANCED_FACE('',(#158),#74,.F.);
#916=ADVANCED_FACE('',(#159),#75,.F.);
#917=ADVANCED_FACE('',(#160),#76,.F.);
#918=ADVANCED_FACE('',(#161),#77,.F.);
#919=ADVANCED_FACE('',(#162),#78,.F.);
#920=ADVANCED_FACE('',(#163),#79,.F.);
#921=ADVANCED_FACE('',(#164),#80,.F.);
#922=ADVANCED_FACE('',(#165),#81,.F.);
#923=ADVANCED_FACE('',(#166),#82,.F.);
#924=ADVANCED_FACE('',(#167),#83,.F.);
#925=ADVANCED_FACE('',(#168),#896,.F.);
#926=ADVANCED_FACE('',(#169),#84,.F.);
#927=ADVANCED_FACE('',(#170),#897,.F.);
#928=ADVANCED_FACE('',(#171),#85,.F.);
#929=ADVANCED_FACE('',(#172),#86,.F.);
#930=ADVANCED_FACE('',(#173),#87,.F.);
#931=ADVANCED_FACE('',(#174),#88,.F.);
#932=ADVANCED_FACE('',(#175),#89,.F.);
#933=ADVANCED_FACE('',(#176),#90,.F.);
#934=ADVANCED_FACE('',(#177),#91,.F.);
#935=ADVANCED_FACE('',(#178),#92,.F.);
#936=ADVANCED_FACE('',(#179),#93,.F.);
#937=ADVANCED_FACE('',(#180),#94,.F.);
#938=ADVANCED_FACE('',(#181),#95,.F.);
#939=ADVANCED_FACE('',(#182),#96,.F.);
#940=ADVANCED_FACE('',(#183),#97,.F.);
#941=ADVANCED_FACE('',(#184),#98,.F.);
#942=ADVANCED_FACE('',(#185),#99,.F.);
#943=ADVANCED_FACE('',(#186),#898,.F.);
#944=ADVANCED_FACE('',(#187),#100,.F.);
#945=ADVANCED_FACE('',(#188),#899,.F.);
#946=ADVANCED_FACE('',(#189),#900,.F.);
#947=ADVANCED_FACE('',(#190),#901,.F.);
#948=ADVANCED_FACE('',(#191),#101,.F.);
#949=ADVANCED_FACE('',(#192),#902,.F.);
#950=ADVANCED_FACE('',(#193),#903,.F.);
#951=ADVANCED_FACE('',(#194),#102,.F.);
#952=ADVANCED_FACE('',(#195),#103,.F.);
#953=ADVANCED_FACE('',(#196),#104,.F.);
#954=ADVANCED_FACE('',(#197),#105,.F.);
#955=ADVANCED_FACE('',(#198),#904,.F.);
#956=ADVANCED_FACE('',(#199,#116,#117,#118,#119,#120,#121),#905,.T.);
#957=ADVANCED_FACE('',(#200),#906,.F.);
#958=ADVANCED_FACE('',(#201),#907,.F.);
#959=ADVANCED_FACE('',(#202),#908,.F.);
#960=CLOSED_SHELL('',(#909,#910,#911,#912,#913,#914,#915,#916,#917,#918,
#919,#920,#921,#922,#923,#924,#925,#926,#927,#928,#929,#930,#931,#932,#933,
#934,#935,#936,#937,#938,#939,#940,#941,#942,#943,#944,#945,#946,#947,#948,
#949,#950,#951,#952,#953,#954,#955,#956,#957,#958,#959));
#961=DERIVED_UNIT_ELEMENT(#963,1.);
#962=DERIVED_UNIT_ELEMENT(#1862,-3.);
#963=(
MASS_UNIT()
NAMED_UNIT(*)
SI_UNIT(.KILO.,.GRAM.)
);
#964=DERIVED_UNIT((#961,#962));
#965=MEASURE_REPRESENTATION_ITEM('density measure',
POSITIVE_RATIO_MEASURE(7850.),#964);
#966=PROPERTY_DEFINITION_REPRESENTATION(#971,#968);
#967=PROPERTY_DEFINITION_REPRESENTATION(#972,#969);
#968=REPRESENTATION('material name',(#970),#1859);
#969=REPRESENTATION('density',(#965),#1859);
#970=DESCRIPTIVE_REPRESENTATION_ITEM('Steel','Steel');
#971=PROPERTY_DEFINITION('material property','material name',#1869);
#972=PROPERTY_DEFINITION('material property','density of part',#1869);
#973=AXIS2_PLACEMENT_3D('',#1422,#1103,#1104);
#974=AXIS2_PLACEMENT_3D('',#1423,#1105,#1106);
#975=AXIS2_PLACEMENT_3D('',#1433,#1111,#1112);
#976=AXIS2_PLACEMENT_3D('',#1435,#1113,#1114);
#977=AXIS2_PLACEMENT_3D('',#1437,#1115,#1116);
#978=AXIS2_PLACEMENT_3D('',#1439,#1117,#1118);
#979=AXIS2_PLACEMENT_3D('',#1440,#1119,#1120);
#980=AXIS2_PLACEMENT_3D('',#1447,#1124,#1125);
#981=AXIS2_PLACEMENT_3D('',#1449,#1126,#1127);
#982=AXIS2_PLACEMENT_3D('',#1451,#1128,#1129);
#983=AXIS2_PLACEMENT_3D('',#1452,#1130,#1131);
#984=AXIS2_PLACEMENT_3D('',#1459,#1135,#1136);
#985=AXIS2_PLACEMENT_3D('',#1461,#1137,#1138);
#986=AXIS2_PLACEMENT_3D('',#1463,#1139,#1140);
#987=AXIS2_PLACEMENT_3D('',#1464,#1141,#1142);
#988=AXIS2_PLACEMENT_3D('',#1468,#1144,#1145);
#989=AXIS2_PLACEMENT_3D('',#1469,#1146,#1147);
#990=AXIS2_PLACEMENT_3D('',#1470,#1148,#1149);
#991=AXIS2_PLACEMENT_3D('',#1474,#1151,#1152);
#992=AXIS2_PLACEMENT_3D('',#1475,#1153,#1154);
#993=AXIS2_PLACEMENT_3D('',#1476,#1155,#1156);
#994=AXIS2_PLACEMENT_3D('',#1480,#1158,#1159);
#995=AXIS2_PLACEMENT_3D('',#1481,#1160,#1161);
#996=AXIS2_PLACEMENT_3D('',#1482,#1162,#1163);
#997=AXIS2_PLACEMENT_3D('',#1486,#1165,#1166);
#998=AXIS2_PLACEMENT_3D('',#1487,#1167,#1168);
#999=AXIS2_PLACEMENT_3D('',#1488,#1169,#1170);
#1000=AXIS2_PLACEMENT_3D('',#1542,#1174,#1175);
#1001=AXIS2_PLACEMENT_3D('',#1543,#1176,#1177);
#1002=AXIS2_PLACEMENT_3D('',#1545,#1179,#1180);
#1003=AXIS2_PLACEMENT_3D('',#1549,#1182,#1183);
#1004=AXIS2_PLACEMENT_3D('',#1550,#1184,#1185);
#1005=AXIS2_PLACEMENT_3D('',#1551,#1186,#1187);
#1006=AXIS2_PLACEMENT_3D('',#1557,#1191,#1192);
#1007=AXIS2_PLACEMENT_3D('',#1605,#1194,#1195);
#1008=AXIS2_PLACEMENT_3D('',#1608,#1196,#1197);
#1009=AXIS2_PLACEMENT_3D('',#1609,#1198,#1199);
#1010=AXIS2_PLACEMENT_3D('',#1662,#1204,#1205);
#1011=AXIS2_PLACEMENT_3D('',#1665,#1206,#1207);
#1012=AXIS2_PLACEMENT_3D('',#1666,#1208,#1209);
#1013=AXIS2_PLACEMENT_3D('',#1668,#1211,#1212);
#1014=AXIS2_PLACEMENT_3D('',#1669,#1213,#1214);
#1015=AXIS2_PLACEMENT_3D('',#1722,#1219,#1220);
#1016=AXIS2_PLACEMENT_3D('',#1723,#1221,#1222);
#1017=AXIS2_PLACEMENT_3D('',#1724,#1223,#1224);
#1018=AXIS2_PLACEMENT_3D('',#1728,#1226,#1227);
#1019=AXIS2_PLACEMENT_3D('',#1729,#1228,#1229);
#1020=AXIS2_PLACEMENT_3D('',#1730,#1230,#1231);
#1021=AXIS2_PLACEMENT_3D('',#1731,#1232,#1233);
#1022=AXIS2_PLACEMENT_3D('',#1732,#1234,#1235);
#1023=AXIS2_PLACEMENT_3D('',#1736,#1237,#1238);
#1024=AXIS2_PLACEMENT_3D('',#1737,#1239,#1240);
#1025=AXIS2_PLACEMENT_3D('',#1738,#1241,#1242);
#1026=AXIS2_PLACEMENT_3D('',#1739,#1243,#1244);
#1027=AXIS2_PLACEMENT_3D('',#1740,#1245,#1246);
#1028=AXIS2_PLACEMENT_3D('',#1742,#1248,#1249);
#1029=AXIS2_PLACEMENT_3D('',#1743,#1250,#1251);
#1030=AXIS2_PLACEMENT_3D('',#1744,#1252,#1253);
#1031=AXIS2_PLACEMENT_3D('',#1745,#1254,#1255);
#1032=AXIS2_PLACEMENT_3D('',#1746,#1256,#1257);
#1033=AXIS2_PLACEMENT_3D('',#1748,#1258,#1259);
#1034=AXIS2_PLACEMENT_3D('',#1751,#1261,#1262);
#1035=AXIS2_PLACEMENT_3D('',#1752,#1263,#1264);
#1036=AXIS2_PLACEMENT_3D('',#1753,#1265,#1266);
#1037=AXIS2_PLACEMENT_3D('',#1754,#1267,#1268);
#1038=AXIS2_PLACEMENT_3D('',#1755,#1269,#1270);
#1039=AXIS2_PLACEMENT_3D('',#1757,#1271,#1272);
#1040=AXIS2_PLACEMENT_3D('',#1760,#1274,#1275);
#1041=AXIS2_PLACEMENT_3D('',#1761,#1276,#1277);
#1042=AXIS2_PLACEMENT_3D('',#1762,#1278,#1279);
#1043=AXIS2_PLACEMENT_3D('',#1765,#1281,#1282);
#1044=AXIS2_PLACEMENT_3D('',#1766,#1283,#1284);
#1045=AXIS2_PLACEMENT_3D('',#1769,#1286,#1287);
#1046=AXIS2_PLACEMENT_3D('',#1770,#1288,#1289);
#1047=AXIS2_PLACEMENT_3D('',#1773,#1291,#1292);
#1048=AXIS2_PLACEMENT_3D('',#1774,#1293,#1294);
#1049=AXIS2_PLACEMENT_3D('',#1777,#1296,#1297);
#1050=AXIS2_PLACEMENT_3D('',#1778,#1298,#1299);
#1051=AXIS2_PLACEMENT_3D('',#1779,#1300,#1301);
#1052=AXIS2_PLACEMENT_3D('',#1780,#1302,#1303);
#1053=AXIS2_PLACEMENT_3D('',#1784,#1305,#1306);
#1054=AXIS2_PLACEMENT_3D('',#1785,#1307,#1308);
#1055=AXIS2_PLACEMENT_3D('',#1786,#1309,#1310);
#1056=AXIS2_PLACEMENT_3D('',#1787,#1311,#1312);
#1057=AXIS2_PLACEMENT_3D('',#1788,#1313,#1314);
#1058=AXIS2_PLACEMENT_3D('',#1792,#1316,#1317);
#1059=AXIS2_PLACEMENT_3D('',#1793,#1318,#1319);
#1060=AXIS2_PLACEMENT_3D('',#1794,#1320,#1321);
#1061=AXIS2_PLACEMENT_3D('',#1795,#1322,#1323);
#1062=AXIS2_PLACEMENT_3D('',#1796,#1324,#1325);
#1063=AXIS2_PLACEMENT_3D('',#1798,#1327,#1328);
#1064=AXIS2_PLACEMENT_3D('',#1799,#1329,#1330);
#1065=AXIS2_PLACEMENT_3D('',#1800,#1331,#1332);
#1066=AXIS2_PLACEMENT_3D('',#1802,#1334,#1335);
#1067=AXIS2_PLACEMENT_3D('',#1804,#1337,#1338);
#1068=AXIS2_PLACEMENT_3D('',#1806,#1340,#1341);
#1069=AXIS2_PLACEMENT_3D('',#1808,#1343,#1344);
#1070=AXIS2_PLACEMENT_3D('',#1809,#1345,#1346);
#1071=AXIS2_PLACEMENT_3D('',#1811,#1348,#1349);
#1072=AXIS2_PLACEMENT_3D('',#1812,#1350,#1351);
#1073=AXIS2_PLACEMENT_3D('',#1813,#1352,#1353);
#1074=AXIS2_PLACEMENT_3D('',#1815,#1355,#1356);
#1075=AXIS2_PLACEMENT_3D('',#1816,#1357,#1358);
#1076=AXIS2_PLACEMENT_3D('',#1817,#1359,#1360);
#1077=AXIS2_PLACEMENT_3D('',#1819,#1362,#1363);
#1078=AXIS2_PLACEMENT_3D('',#1820,#1364,#1365);
#1079=AXIS2_PLACEMENT_3D('',#1822,#1366,#1367);
#1080=AXIS2_PLACEMENT_3D('',#1823,#1368,#1369);
#1081=AXIS2_PLACEMENT_3D('',#1824,#1370,#1371);
#1082=AXIS2_PLACEMENT_3D('',#1826,#1372,#1373);
#1083=AXIS2_PLACEMENT_3D('',#1828,#1375,#1376);
#1084=AXIS2_PLACEMENT_3D('',#1829,#1377,#1378);
#1085=AXIS2_PLACEMENT_3D('',#1830,#1379,#1380);
#1086=AXIS2_PLACEMENT_3D('',#1831,#1381,#1382);
#1087=AXIS2_PLACEMENT_3D('',#1833,#1383,#1384);
#1088=AXIS2_PLACEMENT_3D('',#1834,#1385,#1386);
#1089=AXIS2_PLACEMENT_3D('',#1835,#1387,#1388);
#1090=AXIS2_PLACEMENT_3D('',#1837,#1389,#1390);
#1091=AXIS2_PLACEMENT_3D('',#1839,#1392,#1393);
#1092=AXIS2_PLACEMENT_3D('',#1840,#1394,#1395);
#1093=AXIS2_PLACEMENT_3D('',#1841,#1396,#1397);
#1094=AXIS2_PLACEMENT_3D('',#1842,#1398,#1399);
#1095=AXIS2_PLACEMENT_3D('',#1844,#1401,#1402);
#1096=AXIS2_PLACEMENT_3D('',#1846,#1404,#1405);
#1097=AXIS2_PLACEMENT_3D('',#1848,#1407,#1408);
#1098=AXIS2_PLACEMENT_3D('',#1850,#1410,#1411);
#1099=AXIS2_PLACEMENT_3D('',#1852,#1413,#1414);
#1100=AXIS2_PLACEMENT_3D('',#1854,#1416,#1417);
#1101=AXIS2_PLACEMENT_3D('',#1855,#1418,#1419);
#1102=AXIS2_PLACEMENT_3D('',#1856,#1420,#1421);
#1103=DIRECTION('axis',(0.,0.,1.));
#1104=DIRECTION('refdir',(1.,0.,0.));
#1105=DIRECTION('center_axis',(0.,0.,1.));
#1106=DIRECTION('ref_axis',(1.,0.,0.));
#1107=DIRECTION('',(0.,1.,0.));
#1108=DIRECTION('',(1.,0.,0.));
#1109=DIRECTION('',(0.,-1.,0.));
#1110=DIRECTION('',(-1.,0.,0.));
#1111=DIRECTION('center_axis',(0.,0.,1.));
#1112=DIRECTION('ref_axis',(1.,0.,0.));
#1113=DIRECTION('center_axis',(0.,0.,1.));
#1114=DIRECTION('ref_axis',(1.,0.,0.));
#1115=DIRECTION('center_axis',(0.,0.,1.));
#1116=DIRECTION('ref_axis',(1.,0.,0.));
#1117=DIRECTION('center_axis',(0.,0.,1.));
#1118=DIRECTION('ref_axis',(1.,0.,0.));
#1119=DIRECTION('center_axis',(0.,-1.,0.));
#1120=DIRECTION('ref_axis',(0.,0.,-1.));
#1121=DIRECTION('',(0.,0.,1.));
#1122=DIRECTION('',(1.,0.,0.));
#1123=DIRECTION('',(0.,0.,-1.));
#1124=DIRECTION('center_axis',(0.,-1.,0.));
#1125=DIRECTION('ref_axis',(1.,0.,0.));
#1126=DIRECTION('center_axis',(0.,-1.,0.));
#1127=DIRECTION('ref_axis',(1.,0.,0.));
#1128=DIRECTION('center_axis',(0.,-1.,0.));
#1129=DIRECTION('ref_axis',(1.,0.,0.));
#1130=DIRECTION('center_axis',(0.,1.,0.));
#1131=DIRECTION('ref_axis',(0.,0.,1.));
#1132=DIRECTION('',(0.,0.,-1.));
#1133=DIRECTION('',(0.,0.,1.));
#1134=DIRECTION('',(-1.,0.,0.));
#1135=DIRECTION('center_axis',(0.,1.,0.));
#1136=DIRECTION('ref_axis',(1.,0.,0.));
#1137=DIRECTION('center_axis',(0.,1.,0.));
#1138=DIRECTION('ref_axis',(1.,0.,0.));
#1139=DIRECTION('center_axis',(0.,1.,0.));
#1140=DIRECTION('ref_axis',(1.,0.,0.));
#1141=DIRECTION('center_axis',(0.,0.,1.));
#1142=DIRECTION('ref_axis',(1.,0.,0.));
#1143=DIRECTION('',(0.,0.,1.));
#1144=DIRECTION('center_axis',(0.,-0.707106781186545,0.70710678118655));
#1145=DIRECTION('ref_axis',(0.,-0.70710678118655,-0.707106781186545));
#1146=DIRECTION('center_axis',(0.,0.707106781186546,0.707106781186549));
#1147=DIRECTION('ref_axis',(0.,0.707106781186549,-0.707106781186546));
#1148=DIRECTION('center_axis',(0.,0.,1.));
#1149=DIRECTION('ref_axis',(1.,0.,0.));
#1150=DIRECTION('',(0.,0.,1.));
#1151=DIRECTION('center_axis',(0.,-0.707106781186546,0.707106781186549));
#1152=DIRECTION('ref_axis',(0.,-0.707106781186549,-0.707106781186546));
#1153=DIRECTION('center_axis',(0.,0.707106781186546,0.707106781186549));
#1154=DIRECTION('ref_axis',(0.,0.707106781186549,-0.707106781186546));
#1155=DIRECTION('center_axis',(0.,0.,1.));
#1156=DIRECTION('ref_axis',(1.,0.,0.));
#1157=DIRECTION('',(0.,0.,1.));
#1158=DIRECTION('center_axis',(0.,-0.707106781186546,0.707106781186549));
#1159=DIRECTION('ref_axis',(0.,-0.707106781186549,-0.707106781186546));
#1160=DIRECTION('center_axis',(0.,0.707106781186546,0.707106781186549));
#1161=DIRECTION('ref_axis',(0.,0.707106781186549,-0.707106781186546));
#1162=DIRECTION('center_axis',(0.,0.,1.));
#1163=DIRECTION('ref_axis',(1.,0.,0.));
#1164=DIRECTION('',(0.,0.,1.));
#1165=DIRECTION('center_axis',(0.,-0.707106781186546,0.707106781186549));
#1166=DIRECTION('ref_axis',(0.,-0.707106781186549,-0.707106781186546));
#1167=DIRECTION('center_axis',(0.,0.707106781186545,0.70710678118655));
#1168=DIRECTION('ref_axis',(0.,0.70710678118655,-0.707106781186545));
#1169=DIRECTION('center_axis',(0.,1.,0.));
#1170=DIRECTION('ref_axis',(1.,0.,0.));
#1171=DIRECTION('',(0.,1.,0.));
#1172=DIRECTION('',(0.,-1.,0.));
#1173=DIRECTION('',(0.,1.,0.));
#1174=DIRECTION('center_axis',(0.,-0.707106781186545,-0.70710678118655));
#1175=DIRECTION('ref_axis',(0.,0.70710678118655,-0.707106781186545));
#1176=DIRECTION('center_axis',(0.,-0.707106781186546,0.707106781186549));
#1177=DIRECTION('ref_axis',(0.,-0.707106781186549,-0.707106781186546));
#1178=DIRECTION('',(0.,1.,0.));
#1179=DIRECTION('center_axis',(0.,1.,0.));
#1180=DIRECTION('ref_axis',(1.,0.,0.));
#1181=DIRECTION('',(0.,1.,0.));
#1182=DIRECTION('center_axis',(0.,-0.707106781186545,-0.70710678118655));
#1183=DIRECTION('ref_axis',(0.,0.70710678118655,-0.707106781186545));
#1184=DIRECTION('center_axis',(0.,-0.707106781186546,0.707106781186549));
#1185=DIRECTION('ref_axis',(0.,-0.707106781186549,-0.707106781186546));
#1186=DIRECTION('center_axis',(0.,1.,0.));
#1187=DIRECTION('ref_axis',(1.,0.,0.));
#1188=DIRECTION('',(0.,1.,0.));
#1189=DIRECTION('',(0.,-1.,0.));
#1190=DIRECTION('',(0.,1.,0.));
#1191=DIRECTION('center_axis',(0.,-0.707106781186545,-0.70710678118655));
#1192=DIRECTION('ref_axis',(0.,0.70710678118655,-0.707106781186545));
#1193=DIRECTION('',(0.,1.,0.));
#1194=DIRECTION('center_axis',(0.,1.,0.));
#1195=DIRECTION('ref_axis',(1.,0.,0.));
#1196=DIRECTION('center_axis',(0.,0.707106781186546,0.707106781186549));
#1197=DIRECTION('ref_axis',(0.,0.707106781186549,-0.707106781186546));
#1198=DIRECTION('center_axis',(0.,0.707106781186545,-0.70710678118655));
#1199=DIRECTION('ref_axis',(0.,-0.70710678118655,-0.707106781186545));
#1200=DIRECTION('',(0.,1.,0.));
#1201=DIRECTION('',(0.,-1.,0.));
#1202=DIRECTION('',(0.,1.,0.));
#1203=DIRECTION('',(0.,1.,0.));
#1204=DIRECTION('center_axis',(0.,1.,0.));
#1205=DIRECTION('ref_axis',(1.,0.,0.));
#1206=DIRECTION('center_axis',(0.,0.707106781186546,0.707106781186549));
#1207=DIRECTION('ref_axis',(0.,0.707106781186549,-0.707106781186546));
#1208=DIRECTION('center_axis',(0.,0.707106781186545,-0.70710678118655));
#1209=DIRECTION('ref_axis',(0.,-0.70710678118655,-0.707106781186545));
#1210=DIRECTION('',(0.,1.,0.));
#1211=DIRECTION('center_axis',(0.,1.,0.));
#1212=DIRECTION('ref_axis',(1.,0.,0.));
#1213=DIRECTION('center_axis',(0.,0.707106781186545,-0.70710678118655));
#1214=DIRECTION('ref_axis',(0.,-0.70710678118655,-0.707106781186545));
#1215=DIRECTION('',(0.,1.,0.));
#1216=DIRECTION('',(0.,-1.,0.));
#1217=DIRECTION('',(0.,1.,0.));
#1218=DIRECTION('',(0.,1.,0.));
#1219=DIRECTION('center_axis',(0.,1.,0.));
#1220=DIRECTION('ref_axis',(1.,0.,0.));
#1221=DIRECTION('center_axis',(0.,0.707106781186545,0.70710678118655));
#1222=DIRECTION('ref_axis',(0.,0.70710678118655,-0.707106781186545));
#1223=DIRECTION('center_axis',(0.,0.707106781186546,-0.707106781186549));
#1224=DIRECTION('ref_axis',(0.,-0.707106781186549,-0.707106781186546));
#1225=DIRECTION('',(0.,1.,0.));
#1226=DIRECTION('center_axis',(0.,-0.707106781186546,-0.707106781186549));
#1227=DIRECTION('ref_axis',(0.,0.707106781186549,-0.707106781186546));
#1228=DIRECTION('center_axis',(0.,-0.707106781186546,0.707106781186549));
#1229=DIRECTION('ref_axis',(0.,-0.707106781186549,-0.707106781186546));
#1230=DIRECTION('center_axis',(0.,1.,0.));
#1231=DIRECTION('ref_axis',(1.,0.,0.));
#1232=DIRECTION('center_axis',(0.,0.707106781186546,0.707106781186549));
#1233=DIRECTION('ref_axis',(0.,0.707106781186549,-0.707106781186546));
#1234=DIRECTION('center_axis',(0.,0.707106781186546,-0.707106781186549));
#1235=DIRECTION('ref_axis',(0.,-0.707106781186549,-0.707106781186546));
#1236=DIRECTION('',(0.,1.,0.));
#1237=DIRECTION('center_axis',(0.,-0.707106781186546,-0.707106781186549));
#1238=DIRECTION('ref_axis',(0.,0.707106781186549,-0.707106781186546));
#1239=DIRECTION('center_axis',(0.,-0.707106781186546,0.707106781186549));
#1240=DIRECTION('ref_axis',(0.,-0.707106781186549,-0.707106781186546));
#1241=DIRECTION('center_axis',(0.,1.,0.));
#1242=DIRECTION('ref_axis',(1.,0.,0.));
#1243=DIRECTION('center_axis',(0.,0.707106781186546,0.707106781186549));
#1244=DIRECTION('ref_axis',(0.,0.707106781186549,-0.707106781186546));
#1245=DIRECTION('center_axis',(0.,0.707106781186546,-0.707106781186549));
#1246=DIRECTION('ref_axis',(0.,-0.707106781186549,-0.707106781186546));
#1247=DIRECTION('',(0.,1.,0.));
#1248=DIRECTION('center_axis',(0.,-0.707106781186546,-0.707106781186549));
#1249=DIRECTION('ref_axis',(0.,0.707106781186549,-0.707106781186546));
#1250=DIRECTION('center_axis',(0.,-0.707106781186545,0.70710678118655));
#1251=DIRECTION('ref_axis',(0.,-0.70710678118655,-0.707106781186545));
#1252=DIRECTION('center_axis',(0.,0.,-1.));
#1253=DIRECTION('ref_axis',(-1.,0.,0.));
#1254=DIRECTION('center_axis',(0.,0.,-1.));
#1255=DIRECTION('ref_axis',(1.,0.,0.));
#1256=DIRECTION('center_axis',(0.,0.,1.));
#1257=DIRECTION('ref_axis',(1.,0.,0.));
#1258=DIRECTION('center_axis',(0.,0.,-1.));
#1259=DIRECTION('ref_axis',(1.,0.,0.));
#1260=DIRECTION('',(0.,0.,1.));
#1261=DIRECTION('center_axis',(0.,0.,-1.));
#1262=DIRECTION('ref_axis',(1.,0.,0.));
#1263=DIRECTION('center_axis',(0.,0.,-1.));
#1264=DIRECTION('ref_axis',(1.,0.,0.));
#1265=DIRECTION('center_axis',(0.,0.,-1.));
#1266=DIRECTION('ref_axis',(-1.,0.,0.));
#1267=DIRECTION('center_axis',(0.,0.,-1.));
#1268=DIRECTION('ref_axis',(1.,0.,0.));
#1269=DIRECTION('center_axis',(0.,0.,1.));
#1270=DIRECTION('ref_axis',(1.,0.,0.));
#1271=DIRECTION('center_axis',(0.,0.,-1.));
#1272=DIRECTION('ref_axis',(1.,0.,0.));
#1273=DIRECTION('',(0.,0.,1.));
#1274=DIRECTION('center_axis',(0.,0.,-1.));
#1275=DIRECTION('ref_axis',(1.,0.,0.));
#1276=DIRECTION('center_axis',(0.,0.,-1.));
#1277=DIRECTION('ref_axis',(1.,0.,0.));
#1278=DIRECTION('center_axis',(0.,0.,1.));
#1279=DIRECTION('ref_axis',(1.,0.,0.));
#1280=DIRECTION('',(0.,0.,1.));
#1281=DIRECTION('center_axis',(0.,0.,-1.));
#1282=DIRECTION('ref_axis',(1.,0.,0.));
#1283=DIRECTION('center_axis',(0.,0.,1.));
#1284=DIRECTION('ref_axis',(1.,0.,0.));
#1285=DIRECTION('',(0.,0.,1.));
#1286=DIRECTION('center_axis',(0.,0.,-1.));
#1287=DIRECTION('ref_axis',(1.,0.,0.));
#1288=DIRECTION('center_axis',(0.,0.,1.));
#1289=DIRECTION('ref_axis',(1.,0.,0.));
#1290=DIRECTION('',(0.,0.,1.));
#1291=DIRECTION('center_axis',(0.,0.,-1.));
#1292=DIRECTION('ref_axis',(1.,0.,0.));
#1293=DIRECTION('center_axis',(0.,0.,1.));
#1294=DIRECTION('ref_axis',(1.,0.,0.));
#1295=DIRECTION('',(0.,0.,1.));
#1296=DIRECTION('center_axis',(0.,0.,-1.));
#1297=DIRECTION('ref_axis',(1.,0.,0.));
#1298=DIRECTION('center_axis',(0.,1.,0.));
#1299=DIRECTION('ref_axis',(1.,0.,0.));
#1300=DIRECTION('center_axis',(0.,0.707106781186545,0.70710678118655));
#1301=DIRECTION('ref_axis',(0.,0.70710678118655,-0.707106781186545));
#1302=DIRECTION('center_axis',(0.,0.707106781186546,-0.707106781186549));
#1303=DIRECTION('ref_axis',(0.,-0.707106781186549,-0.707106781186546));
#1304=DIRECTION('',(0.,1.,0.));
#1305=DIRECTION('center_axis',(0.,-0.707106781186546,-0.707106781186549));
#1306=DIRECTION('ref_axis',(0.,0.707106781186549,-0.707106781186546));
#1307=DIRECTION('center_axis',(0.,-0.707106781186546,0.707106781186549));
#1308=DIRECTION('ref_axis',(0.,-0.707106781186549,-0.707106781186546));
#1309=DIRECTION('center_axis',(0.,1.,0.));
#1310=DIRECTION('ref_axis',(1.,0.,0.));
#1311=DIRECTION('center_axis',(0.,0.707106781186546,0.707106781186549));
#1312=DIRECTION('ref_axis',(0.,0.707106781186549,-0.707106781186546));
#1313=DIRECTION('center_axis',(0.,0.707106781186546,-0.707106781186549));
#1314=DIRECTION('ref_axis',(0.,-0.707106781186549,-0.707106781186546));
#1315=DIRECTION('',(0.,1.,0.));
#1316=DIRECTION('center_axis',(0.,-0.707106781186546,-0.707106781186549));
#1317=DIRECTION('ref_axis',(0.,0.707106781186549,-0.707106781186546));
#1318=DIRECTION('center_axis',(0.,-0.707106781186546,0.707106781186549));
#1319=DIRECTION('ref_axis',(0.,-0.707106781186549,-0.707106781186546));
#1320=DIRECTION('center_axis',(0.,1.,0.));
#1321=DIRECTION('ref_axis',(1.,0.,0.));
#1322=DIRECTION('center_axis',(0.,0.707106781186546,0.707106781186549));
#1323=DIRECTION('ref_axis',(0.,0.707106781186549,-0.707106781186546));
#1324=DIRECTION('center_axis',(0.,0.707106781186546,-0.707106781186549));
#1325=DIRECTION('ref_axis',(0.,-0.707106781186549,-0.707106781186546));
#1326=DIRECTION('',(0.,1.,0.));
#1327=DIRECTION('center_axis',(0.,-0.707106781186546,-0.707106781186549));
#1328=DIRECTION('ref_axis',(0.,0.707106781186549,-0.707106781186546));
#1329=DIRECTION('center_axis',(0.,-0.707106781186545,0.70710678118655));
#1330=DIRECTION('ref_axis',(0.,-0.70710678118655,-0.707106781186545));
#1331=DIRECTION('center_axis',(0.,0.,1.));
#1332=DIRECTION('ref_axis',(1.,0.,0.));
#1333=DIRECTION('',(0.,0.,1.));
#1334=DIRECTION('center_axis',(0.,0.,1.));
#1335=DIRECTION('ref_axis',(1.,0.,0.));
#1336=DIRECTION('',(0.,0.,1.));
#1337=DIRECTION('center_axis',(0.,0.,1.));
#1338=DIRECTION('ref_axis',(1.,0.,0.));
#1339=DIRECTION('',(0.,0.,1.));
#1340=DIRECTION('center_axis',(0.,0.,1.));
#1341=DIRECTION('ref_axis',(1.,0.,0.));
#1342=DIRECTION('',(0.,0.,1.));
#1343=DIRECTION('center_axis',(0.,1.,0.));
#1344=DIRECTION('ref_axis',(1.,0.,0.));
#1345=DIRECTION('center_axis',(0.,0.707106781186546,-0.707106781186549));
#1346=DIRECTION('ref_axis',(0.,-0.707106781186549,-0.707106781186546));
#1347=DIRECTION('',(0.,1.,0.));
#1348=DIRECTION('center_axis',(0.,-0.707106781186546,-0.707106781186549));
#1349=DIRECTION('ref_axis',(0.,0.707106781186549,-0.707106781186546));
#1350=DIRECTION('center_axis',(0.,1.,0.));
#1351=DIRECTION('ref_axis',(1.,0.,0.));
#1352=DIRECTION('center_axis',(0.,0.707106781186546,-0.707106781186549));
#1353=DIRECTION('ref_axis',(0.,-0.707106781186549,-0.707106781186546));
#1354=DIRECTION('',(0.,1.,0.));
#1355=DIRECTION('center_axis',(0.,-0.707106781186546,-0.707106781186549));
#1356=DIRECTION('ref_axis',(0.,0.707106781186549,-0.707106781186546));
#1357=DIRECTION('center_axis',(0.,1.,0.));
#1358=DIRECTION('ref_axis',(1.,0.,0.));
#1359=DIRECTION('center_axis',(0.,0.707106781186546,-0.707106781186549));
#1360=DIRECTION('ref_axis',(0.,-0.707106781186549,-0.707106781186546));
#1361=DIRECTION('',(0.,1.,0.));
#1362=DIRECTION('center_axis',(0.,-0.707106781186546,-0.707106781186549));
#1363=DIRECTION('ref_axis',(0.,0.707106781186549,-0.707106781186546));
#1364=DIRECTION('center_axis',(0.,0.,1.));
#1365=DIRECTION('ref_axis',(1.,0.,0.));
#1366=DIRECTION('center_axis',(0.,0.,1.));
#1367=DIRECTION('ref_axis',(1.,0.,0.));
#1368=DIRECTION('center_axis',(0.,0.,1.));
#1369=DIRECTION('ref_axis',(1.,0.,0.));
#1370=DIRECTION('center_axis',(0.,0.,1.));
#1371=DIRECTION('ref_axis',(1.,0.,0.));
#1372=DIRECTION('center_axis',(0.,0.,-1.));
#1373=DIRECTION('ref_axis',(1.,0.,0.));
#1374=DIRECTION('',(0.,0.,1.));
#1375=DIRECTION('center_axis',(0.,0.,1.));
#1376=DIRECTION('ref_axis',(1.,0.,0.));
#1377=DIRECTION('center_axis',(0.,0.,1.));
#1378=DIRECTION('ref_axis',(1.,0.,0.));
#1379=DIRECTION('center_axis',(0.,0.,-1.));
#1380=DIRECTION('ref_axis',(-1.,0.,0.));
#1381=DIRECTION('center_axis',(0.,0.,1.));
#1382=DIRECTION('ref_axis',(1.,0.,0.));
#1383=DIRECTION('center_axis',(0.,0.,1.));
#1384=DIRECTION('ref_axis',(1.,0.,0.));
#1385=DIRECTION('center_axis',(0.,0.,1.));
#1386=DIRECTION('ref_axis',(1.,0.,0.));
#1387=DIRECTION('center_axis',(0.,0.,1.));
#1388=DIRECTION('ref_axis',(1.,0.,0.));
#1389=DIRECTION('center_axis',(0.,0.,-1.));
#1390=DIRECTION('ref_axis',(1.,0.,0.));
#1391=DIRECTION('',(0.,0.,1.));
#1392=DIRECTION('center_axis',(0.,0.,1.));
#1393=DIRECTION('ref_axis',(1.,0.,0.));
#1394=DIRECTION('center_axis',(0.,0.,1.));
#1395=DIRECTION('ref_axis',(1.,0.,0.));
#1396=DIRECTION('center_axis',(0.,0.,-1.));
#1397=DIRECTION('ref_axis',(-1.,0.,0.));
#1398=DIRECTION('center_axis',(0.,0.,1.));
#1399=DIRECTION('ref_axis',(1.,0.,0.));
#1400=DIRECTION('',(0.,0.,1.));
#1401=DIRECTION('center_axis',(0.,0.,1.));
#1402=DIRECTION('ref_axis',(1.,0.,0.));
#1403=DIRECTION('',(0.,0.,1.));
#1404=DIRECTION('center_axis',(0.,0.,1.));
#1405=DIRECTION('ref_axis',(1.,0.,0.));
#1406=DIRECTION('',(0.,0.,1.));
#1407=DIRECTION('center_axis',(0.,0.,1.));
#1408=DIRECTION('ref_axis',(1.,0.,0.));
#1409=DIRECTION('',(0.,0.,1.));
#1410=DIRECTION('center_axis',(-1.,0.,0.));
#1411=DIRECTION('ref_axis',(0.,0.,1.));
#1412=DIRECTION('',(0.,1.,0.));
#1413=DIRECTION('center_axis',(0.,0.,1.));
#1414=DIRECTION('ref_axis',(1.,0.,0.));
#1415=DIRECTION('',(0.,-1.,0.));
#1416=DIRECTION('center_axis',(1.,0.,0.));
#1417=DIRECTION('ref_axis',(0.,0.,-1.));
#1418=DIRECTION('center_axis',(0.,0.,-1.));
#1419=DIRECTION('ref_axis',(-1.,0.,0.));
#1420=DIRECTION('center_axis',(0.,0.,-1.));
#1421=DIRECTION('ref_axis',(-1.,0.,0.));
#1422=CARTESIAN_POINT('',(0.,0.,0.));
#1423=CARTESIAN_POINT('Origin',(-15.,0.,214.));
#1424=CARTESIAN_POINT('',(-75.,-59.,214.));
#1425=CARTESIAN_POINT('',(-75.,59.,214.));
#1426=CARTESIAN_POINT('',(-75.,35.,214.));
#1427=CARTESIAN_POINT('',(-57.,59.,214.));
#1428=CARTESIAN_POINT('',(-15.,59.,214.));
#1429=CARTESIAN_POINT('',(-57.,-59.,214.));
#1430=CARTESIAN_POINT('',(-57.,-35.,214.));
#1431=CARTESIAN_POINT('',(-15.,-59.,214.));
#1432=CARTESIAN_POINT('',(-68.75,-42.,214.));
#1433=CARTESIAN_POINT('Origin',(-66.,-42.,214.));
#1434=CARTESIAN_POINT('',(-68.75,-14.,214.));
#1435=CARTESIAN_POINT('Origin',(-66.,-14.,214.));
#1436=CARTESIAN_POINT('',(-68.75,14.,214.));
#1437=CARTESIAN_POINT('Origin',(-66.,14.,214.));
#1438=CARTESIAN_POINT('',(-68.75,42.,214.));
#1439=CARTESIAN_POINT('Origin',(-66.,42.,214.));
#1440=CARTESIAN_POINT('Origin',(-15.,59.,257.));
#1441=CARTESIAN_POINT('',(-75.,59.,275.));
#1442=CARTESIAN_POINT('',(-75.,59.,248.5));
#1443=CARTESIAN_POINT('',(-57.,59.,275.));
#1444=CARTESIAN_POINT('',(-40.5,59.,275.));
#1445=CARTESIAN_POINT('',(-57.,59.,248.5));
#1446=CARTESIAN_POINT('',(-68.75,59.,225.));
#1447=CARTESIAN_POINT('Origin',(-66.,59.,225.));
#1448=CARTESIAN_POINT('',(-68.75,59.,245.));
#1449=CARTESIAN_POINT('Origin',(-66.,59.,245.));
#1450=CARTESIAN_POINT('',(-68.75,59.,265.));
#1451=CARTESIAN_POINT('Origin',(-66.,59.,265.));
#1452=CARTESIAN_POINT('Origin',(-15.,-59.,257.));
#1453=CARTESIAN_POINT('',(-75.,-59.,275.));
#1454=CARTESIAN_POINT('',(-75.,-59.,248.5));
#1455=CARTESIAN_POINT('',(-57.,-59.,275.));
#1456=CARTESIAN_POINT('',(-57.,-59.,248.5));
#1457=CARTESIAN_POINT('',(-40.5,-59.,275.));
#1458=CARTESIAN_POINT('',(-68.75,-59.,225.));
#1459=CARTESIAN_POINT('Origin',(-66.,-59.,225.));
#1460=CARTESIAN_POINT('',(-68.75,-59.,245.));
#1461=CARTESIAN_POINT('Origin',(-66.,-59.,245.));
#1462=CARTESIAN_POINT('',(-68.75,-59.,265.));
#1463=CARTESIAN_POINT('Origin',(-66.,-59.,265.));
#1464=CARTESIAN_POINT('Origin',(-66.,42.,232.));
#1465=CARTESIAN_POINT('',(-68.75,42.,225.));
#1466=CARTESIAN_POINT('',(-68.75,42.,232.));
#1467=CARTESIAN_POINT('',(-63.25,42.,225.));
#1468=CARTESIAN_POINT('Origin',(-66.,42.,225.));
#1469=CARTESIAN_POINT('Origin',(-66.,42.,225.));
#1470=CARTESIAN_POINT('Origin',(-66.,14.,232.));
#1471=CARTESIAN_POINT('',(-68.75,14.,225.));
#1472=CARTESIAN_POINT('',(-68.75,14.,232.));
#1473=CARTESIAN_POINT('',(-63.25,14.,225.));
#1474=CARTESIAN_POINT('Origin',(-66.,14.,225.));
#1475=CARTESIAN_POINT('Origin',(-66.,14.,225.));
#1476=CARTESIAN_POINT('Origin',(-66.,-14.,232.));
#1477=CARTESIAN_POINT('',(-68.75,-14.,225.));
#1478=CARTESIAN_POINT('',(-68.75,-14.,232.));
#1479=CARTESIAN_POINT('',(-63.25,-14.,225.));
#1480=CARTESIAN_POINT('Origin',(-66.,-14.,225.));
#1481=CARTESIAN_POINT('Origin',(-66.,-14.,225.));
#1482=CARTESIAN_POINT('Origin',(-66.,-42.,232.));
#1483=CARTESIAN_POINT('',(-68.75,-42.,225.));
#1484=CARTESIAN_POINT('',(-68.75,-42.,232.));
#1485=CARTESIAN_POINT('',(-63.25,-42.,225.));
#1486=CARTESIAN_POINT('Origin',(-66.,-42.,225.));
#1487=CARTESIAN_POINT('Origin',(-66.,-42.,225.));
#1488=CARTESIAN_POINT('Origin',(-66.,0.,265.));
#1489=CARTESIAN_POINT('',(-68.75,-53.7320508075689,265.));
#1490=CARTESIAN_POINT('',(-68.75,0.,265.));
#1491=CARTESIAN_POINT('',(-63.25,-53.7320508075689,265.));
#1492=CARTESIAN_POINT('Ctrl Pts',(-63.25,-53.7320508075689,265.));
#1493=CARTESIAN_POINT('Ctrl Pts',(-63.25,-53.7320508075689,265.19222875307));
#1494=CARTESIAN_POINT('Ctrl Pts',(-63.2701027279753,-53.7648425820367,265.379419297786));
#1495=CARTESIAN_POINT('Ctrl Pts',(-63.3449626742269,-53.8755529726295,265.739722996753));
#1496=CARTESIAN_POINT('Ctrl Pts',(-63.3997950206934,-53.952934318855,265.912985408764));
#1497=CARTESIAN_POINT('Ctrl Pts',(-63.6104884995381,-54.2142287671583,266.407540005876));
#1498=CARTESIAN_POINT('Ctrl Pts',(-63.8150578703665,-54.4245708969497,266.704145166892));
#1499=CARTESIAN_POINT('Ctrl Pts',(-64.2850007564263,-54.7754907169511,267.174088052952));
#1500=CARTESIAN_POINT('Ctrl Pts',(-64.5809523728789,-54.9455680679078,267.383906755434));
#1501=CARTESIAN_POINT('Ctrl Pts',(-65.2545143844314,-55.1834445639353,267.672257387599));
#1502=CARTESIAN_POINT('Ctrl Pts',(-65.6329008865931,-55.25,267.75));
#1503=CARTESIAN_POINT('Ctrl Pts',(-66.3670991134069,-55.25,267.75));
#1504=CARTESIAN_POINT('Ctrl Pts',(-66.7454856155686,-55.1834445639353,267.672257387599));
#1505=CARTESIAN_POINT('Ctrl Pts',(-67.4190476271211,-54.9455680679078,267.383906755434));
#1506=CARTESIAN_POINT('Ctrl Pts',(-67.7149992435737,-54.7754907169511,267.174088052952));
#1507=CARTESIAN_POINT('Ctrl Pts',(-68.1849421296335,-54.4245708969497,266.704145166892));
#1508=CARTESIAN_POINT('Ctrl Pts',(-68.3895115004619,-54.2142287671583,266.407540005876));
#1509=CARTESIAN_POINT('Ctrl Pts',(-68.6002049793065,-53.952934318855,265.912985408764));
#1510=CARTESIAN_POINT('Ctrl Pts',(-68.6550373257731,-53.8755529726295,265.739722996753));
#1511=CARTESIAN_POINT('Ctrl Pts',(-68.7298972720247,-53.7648425820368,265.379419297786));
#1512=CARTESIAN_POINT('Ctrl Pts',(-68.75,-53.7320508075689,265.192228753071));
#1513=CARTESIAN_POINT('Ctrl Pts',(-68.75,-53.7320508075689,265.));
#1514=CARTESIAN_POINT('',(-63.25,-50.2679491924311,265.));
#1515=CARTESIAN_POINT('',(-63.25,0.,265.));
#1516=CARTESIAN_POINT('',(-68.75,-50.2679491924311,265.));
#1517=CARTESIAN_POINT('Ctrl Pts',(-68.75,-50.2679491924311,265.));
#1518=CARTESIAN_POINT('Ctrl Pts',(-68.75,-50.2679491924311,265.19222875307));
#1519=CARTESIAN_POINT('Ctrl Pts',(-68.7298972720247,-50.2351574179632,265.379419297786));
#1520=CARTESIAN_POINT('Ctrl Pts',(-68.6550373257731,-50.1244470273705,265.739722996753));
#1521=CARTESIAN_POINT('Ctrl Pts',(-68.6002049793066,-50.047065681145,265.912985408764));
#1522=CARTESIAN_POINT('Ctrl Pts',(-68.3895115004619,-49.7857712328417,266.407540005876));
#1523=CARTESIAN_POINT('Ctrl Pts',(-68.1849421296335,-49.5754291030503,266.704145166892));
#1524=CARTESIAN_POINT('Ctrl Pts',(-67.7149992435737,-49.2245092830489,267.174088052952));
#1525=CARTESIAN_POINT('Ctrl Pts',(-67.4190476271211,-49.0544319320922,267.383906755434));
#1526=CARTESIAN_POINT('Ctrl Pts',(-66.7454856155686,-48.8165554360647,267.672257387599));
#1527=CARTESIAN_POINT('Ctrl Pts',(-66.3670991134069,-48.75,267.75));
#1528=CARTESIAN_POINT('Ctrl Pts',(-65.6329008865931,-48.75,267.75));
#1529=CARTESIAN_POINT('Ctrl Pts',(-65.2545143844314,-48.8165554360647,267.672257387599));
#1530=CARTESIAN_POINT('Ctrl Pts',(-64.5809523728789,-49.0544319320922,267.383906755434));
#1531=CARTESIAN_POINT('Ctrl Pts',(-64.2850007564263,-49.2245092830489,267.174088052952));
#1532=CARTESIAN_POINT('Ctrl Pts',(-63.8150578703665,-49.5754291030503,266.704145166892));
#1533=CARTESIAN_POINT('Ctrl Pts',(-63.6104884995381,-49.7857712328417,266.407540005876));
#1534=CARTESIAN_POINT('Ctrl Pts',(-63.3997950206934,-50.047065681145,265.912985408764));
#1535=CARTESIAN_POINT('Ctrl Pts',(-63.3449626742269,-50.1244470273705,265.739722996753));
#1536=CARTESIAN_POINT('Ctrl Pts',(-63.2701027279753,-50.2351574179633,265.379419297786));
#1537=CARTESIAN_POINT('Ctrl Pts',(-63.25,-50.2679491924311,265.19222875307));
#1538=CARTESIAN_POINT('Ctrl Pts',(-63.25,-50.2679491924311,265.));
#1539=CARTESIAN_POINT('',(-68.75,-42.,265.));
#1540=CARTESIAN_POINT('',(-68.75,0.,265.));
#1541=CARTESIAN_POINT('',(-63.25,-42.,265.));
#1542=CARTESIAN_POINT('Origin',(-66.,-42.,265.));
#1543=CARTESIAN_POINT('Origin',(-66.,-42.,265.));
#1544=CARTESIAN_POINT('',(-68.75,0.,265.));
#1545=CARTESIAN_POINT('Origin',(-66.,0.,245.));
#1546=CARTESIAN_POINT('',(-68.75,-42.,245.));
#1547=CARTESIAN_POINT('',(-68.75,0.,245.));
#1548=CARTESIAN_POINT('',(-63.25,-42.,245.));
#1549=CARTESIAN_POINT('Origin',(-66.,-42.,245.));
#1550=CARTESIAN_POINT('Origin',(-66.,-42.,245.));
#1551=CARTESIAN_POINT('Origin',(-66.,0.,225.));
#1552=CARTESIAN_POINT('',(-68.75,-53.7320508075689,225.));
#1553=CARTESIAN_POINT('',(-68.75,0.,225.));
#1554=CARTESIAN_POINT('',(-68.75,-50.2679491924311,225.));
#1555=CARTESIAN_POINT('',(-68.75,0.,225.));
#1556=CARTESIAN_POINT('',(-68.75,0.,225.));
#1557=CARTESIAN_POINT('Origin',(-66.,-42.,225.));
#1558=CARTESIAN_POINT('',(-63.25,-50.2679491924311,225.));
#1559=CARTESIAN_POINT('Ctrl Pts',(-63.25,-50.2679491924311,225.));
#1560=CARTESIAN_POINT('Ctrl Pts',(-63.25,-50.2679491924311,224.807771246929));
#1561=CARTESIAN_POINT('Ctrl Pts',(-63.2701027279753,-50.2351574179633,224.620580702214));
#1562=CARTESIAN_POINT('Ctrl Pts',(-63.3449626742269,-50.1244470273705,224.260277003247));
#1563=CARTESIAN_POINT('Ctrl Pts',(-63.3997950206934,-50.047065681145,224.087014591236));
#1564=CARTESIAN_POINT('Ctrl Pts',(-63.6104884995381,-49.7857712328417,223.592459994124));
#1565=CARTESIAN_POINT('Ctrl Pts',(-63.8150578703665,-49.5754291030503,223.295854833108));
#1566=CARTESIAN_POINT('Ctrl Pts',(-64.2850007564263,-49.2245092830489,222.825911947048));
#1567=CARTESIAN_POINT('Ctrl Pts',(-64.5809523728789,-49.0544319320922,222.616093244566));
#1568=CARTESIAN_POINT('Ctrl Pts',(-65.2545143844314,-48.8165554360647,222.327742612401));
#1569=CARTESIAN_POINT('Ctrl Pts',(-65.6329008865931,-48.75,222.25));
#1570=CARTESIAN_POINT('Ctrl Pts',(-66.3670991134069,-48.75,222.25));
#1571=CARTESIAN_POINT('Ctrl Pts',(-66.7454856155686,-48.8165554360647,222.327742612401));
#1572=CARTESIAN_POINT('Ctrl Pts',(-67.4190476271211,-49.0544319320922,222.616093244566));
#1573=CARTESIAN_POINT('Ctrl Pts',(-67.7149992435737,-49.2245092830489,222.825911947048));
#1574=CARTESIAN_POINT('Ctrl Pts',(-68.1849421296335,-49.5754291030503,223.295854833108));
#1575=CARTESIAN_POINT('Ctrl Pts',(-68.3895115004619,-49.7857712328417,223.592459994124));
#1576=CARTESIAN_POINT('Ctrl Pts',(-68.6002049793065,-50.047065681145,224.087014591236));
#1577=CARTESIAN_POINT('Ctrl Pts',(-68.6550373257731,-50.1244470273705,224.260277003247));
#1578=CARTESIAN_POINT('Ctrl Pts',(-68.7298972720247,-50.2351574179632,224.620580702214));
#1579=CARTESIAN_POINT('Ctrl Pts',(-68.75,-50.2679491924311,224.807771246929));
#1580=CARTESIAN_POINT('Ctrl Pts',(-68.75,-50.2679491924311,225.));
#1581=CARTESIAN_POINT('',(-63.25,-53.7320508075689,225.));
#1582=CARTESIAN_POINT('',(-63.25,0.,225.));
#1583=CARTESIAN_POINT('Ctrl Pts',(-68.75,-53.7320508075689,225.));
#1584=CARTESIAN_POINT('Ctrl Pts',(-68.75,-53.7320508075689,224.807771246929));
#1585=CARTESIAN_POINT('Ctrl Pts',(-68.7298972720247,-53.7648425820368,224.620580702214));
#1586=CARTESIAN_POINT('Ctrl Pts',(-68.6550373257731,-53.8755529726295,224.260277003247));
#1587=CARTESIAN_POINT('Ctrl Pts',(-68.6002049793066,-53.952934318855,224.087014591236));
#1588=CARTESIAN_POINT('Ctrl Pts',(-68.3895115004619,-54.2142287671583,223.592459994124));
#1589=CARTESIAN_POINT('Ctrl Pts',(-68.1849421296335,-54.4245708969497,223.295854833108));
#1590=CARTESIAN_POINT('Ctrl Pts',(-67.7149992435737,-54.7754907169511,222.825911947048));
#1591=CARTESIAN_POINT('Ctrl Pts',(-67.4190476271211,-54.9455680679078,222.616093244566));
#1592=CARTESIAN_POINT('Ctrl Pts',(-66.7454856155686,-55.1834445639353,222.327742612401));
#1593=CARTESIAN_POINT('Ctrl Pts',(-66.3670991134069,-55.25,222.25));
#1594=CARTESIAN_POINT('Ctrl Pts',(-65.6329008865931,-55.25,222.25));
#1595=CARTESIAN_POINT('Ctrl Pts',(-65.2545143844314,-55.1834445639353,222.327742612401));
#1596=CARTESIAN_POINT('Ctrl Pts',(-64.5809523728789,-54.9455680679078,222.616093244566));
#1597=CARTESIAN_POINT('Ctrl Pts',(-64.2850007564263,-54.7754907169511,222.825911947048));
#1598=CARTESIAN_POINT('Ctrl Pts',(-63.8150578703665,-54.4245708969497,223.295854833108));
#1599=CARTESIAN_POINT('Ctrl Pts',(-63.6104884995381,-54.2142287671583,223.592459994124));
#1600=CARTESIAN_POINT('Ctrl Pts',(-63.3997950206934,-53.952934318855,224.087014591236));
#1601=CARTESIAN_POINT('Ctrl Pts',(-63.3449626742269,-53.8755529726295,224.260277003247));
#1602=CARTESIAN_POINT('Ctrl Pts',(-63.2701027279753,-53.7648425820367,224.620580702214));
#1603=CARTESIAN_POINT('Ctrl Pts',(-63.25,-53.7320508075689,224.807771246929));
#1604=CARTESIAN_POINT('Ctrl Pts',(-63.25,-53.7320508075689,225.));
#1605=CARTESIAN_POINT('Origin',(-66.,0.,265.));
#1606=CARTESIAN_POINT('',(-63.25,42.,265.));
#1607=CARTESIAN_POINT('',(-68.75,42.,265.));
#1608=CARTESIAN_POINT('Origin',(-66.,42.,265.));
#1609=CARTESIAN_POINT('Origin',(-66.,42.,265.));
#1610=CARTESIAN_POINT('',(-68.75,50.2679491924311,265.));
#1611=CARTESIAN_POINT('',(-68.75,0.,265.));
#1612=CARTESIAN_POINT('',(-63.25,50.2679491924311,265.));
#1613=CARTESIAN_POINT('Ctrl Pts',(-63.25,50.2679491924311,265.));
#1614=CARTESIAN_POINT('Ctrl Pts',(-63.25,50.2679491924311,265.19222875307));
#1615=CARTESIAN_POINT('Ctrl Pts',(-63.2701027279753,50.2351574179633,265.379419297786));
#1616=CARTESIAN_POINT('Ctrl Pts',(-63.3449626742269,50.1244470273705,265.739722996753));
#1617=CARTESIAN_POINT('Ctrl Pts',(-63.3997950206934,50.047065681145,265.912985408764));
#1618=CARTESIAN_POINT('Ctrl Pts',(-63.6104884995381,49.7857712328417,266.407540005876));
#1619=CARTESIAN_POINT('Ctrl Pts',(-63.8150578703665,49.5754291030503,266.704145166892));
#1620=CARTESIAN_POINT('Ctrl Pts',(-64.2850007564263,49.2245092830489,267.174088052952));
#1621=CARTESIAN_POINT('Ctrl Pts',(-64.5809523728789,49.0544319320922,267.383906755434));
#1622=CARTESIAN_POINT('Ctrl Pts',(-65.2545143844314,48.8165554360647,267.672257387599));
#1623=CARTESIAN_POINT('Ctrl Pts',(-65.6329008865931,48.75,267.75));
#1624=CARTESIAN_POINT('Ctrl Pts',(-66.3670991134069,48.75,267.75));
#1625=CARTESIAN_POINT('Ctrl Pts',(-66.7454856155686,48.8165554360647,267.672257387599));
#1626=CARTESIAN_POINT('Ctrl Pts',(-67.4190476271211,49.0544319320922,267.383906755434));
#1627=CARTESIAN_POINT('Ctrl Pts',(-67.7149992435737,49.2245092830489,267.174088052952));
#1628=CARTESIAN_POINT('Ctrl Pts',(-68.1849421296335,49.5754291030503,266.704145166892));
#1629=CARTESIAN_POINT('Ctrl Pts',(-68.3895115004619,49.7857712328417,266.407540005876));
#1630=CARTESIAN_POINT('Ctrl Pts',(-68.6002049793065,50.047065681145,265.912985408764));
#1631=CARTESIAN_POINT('Ctrl Pts',(-68.6550373257731,50.1244470273705,265.739722996753));
#1632=CARTESIAN_POINT('Ctrl Pts',(-68.7298972720247,50.2351574179632,265.379419297786));
#1633=CARTESIAN_POINT('Ctrl Pts',(-68.75,50.2679491924311,265.192228753071));
#1634=CARTESIAN_POINT('Ctrl Pts',(-68.75,50.2679491924311,265.));
#1635=CARTESIAN_POINT('',(-63.25,53.7320508075689,265.));
#1636=CARTESIAN_POINT('',(-63.25,0.,265.));
#1637=CARTESIAN_POINT('',(-68.75,53.7320508075689,265.));
#1638=CARTESIAN_POINT('Ctrl Pts',(-68.75,53.7320508075689,265.));
#1639=CARTESIAN_POINT('Ctrl Pts',(-68.75,53.7320508075689,265.19222875307));
#1640=CARTESIAN_POINT('Ctrl Pts',(-68.7298972720247,53.7648425820368,265.379419297786));
#1641=CARTESIAN_POINT('Ctrl Pts',(-68.6550373257731,53.8755529726295,265.739722996753));
#1642=CARTESIAN_POINT('Ctrl Pts',(-68.6002049793066,53.952934318855,265.912985408764));
#1643=CARTESIAN_POINT('Ctrl Pts',(-68.3895115004619,54.2142287671583,266.407540005876));
#1644=CARTESIAN_POINT('Ctrl Pts',(-68.1849421296335,54.4245708969497,266.704145166892));
#1645=CARTESIAN_POINT('Ctrl Pts',(-67.7149992435737,54.7754907169511,267.174088052952));
#1646=CARTESIAN_POINT('Ctrl Pts',(-67.4190476271211,54.9455680679078,267.383906755434));
#1647=CARTESIAN_POINT('Ctrl Pts',(-66.7454856155686,55.1834445639353,267.672257387599));
#1648=CARTESIAN_POINT('Ctrl Pts',(-66.3670991134069,55.25,267.75));
#1649=CARTESIAN_POINT('Ctrl Pts',(-65.6329008865931,55.25,267.75));
#1650=CARTESIAN_POINT('Ctrl Pts',(-65.2545143844314,55.1834445639353,267.672257387599));
#1651=CARTESIAN_POINT('Ctrl Pts',(-64.5809523728789,54.9455680679078,267.383906755434));
#1652=CARTESIAN_POINT('Ctrl Pts',(-64.2850007564263,54.7754907169511,267.174088052952));
#1653=CARTESIAN_POINT('Ctrl Pts',(-63.8150578703665,54.4245708969497,266.704145166892));
#1654=CARTESIAN_POINT('Ctrl Pts',(-63.6104884995381,54.2142287671583,266.407540005876));
#1655=CARTESIAN_POINT('Ctrl Pts',(-63.3997950206934,53.952934318855,265.912985408764));
#1656=CARTESIAN_POINT('Ctrl Pts',(-63.3449626742269,53.8755529726295,265.739722996753));
#1657=CARTESIAN_POINT('Ctrl Pts',(-63.2701027279753,53.7648425820367,265.379419297786));
#1658=CARTESIAN_POINT('Ctrl Pts',(-63.25,53.7320508075689,265.19222875307));
#1659=CARTESIAN_POINT('Ctrl Pts',(-63.25,53.7320508075689,265.));
#1660=CARTESIAN_POINT('',(-68.75,0.,265.));
#1661=CARTESIAN_POINT('',(-68.75,0.,265.));
#1662=CARTESIAN_POINT('Origin',(-66.,0.,245.));
#1663=CARTESIAN_POINT('',(-63.25,42.,245.));
#1664=CARTESIAN_POINT('',(-68.75,42.,245.));
#1665=CARTESIAN_POINT('Origin',(-66.,42.,245.));
#1666=CARTESIAN_POINT('Origin',(-66.,42.,245.));
#1667=CARTESIAN_POINT('',(-68.75,0.,245.));
#1668=CARTESIAN_POINT('Origin',(-66.,0.,225.));
#1669=CARTESIAN_POINT('Origin',(-66.,42.,225.));
#1670=CARTESIAN_POINT('',(-68.75,50.2679491924311,225.));
#1671=CARTESIAN_POINT('',(-68.75,0.,225.));
#1672=CARTESIAN_POINT('',(-68.75,53.7320508075689,225.));
#1673=CARTESIAN_POINT('',(-68.75,0.,225.));
#1674=CARTESIAN_POINT('',(-68.75,0.,225.));
#1675=CARTESIAN_POINT('',(-63.25,53.7320508075689,225.));
#1676=CARTESIAN_POINT('Ctrl Pts',(-63.25,53.7320508075689,225.));
#1677=CARTESIAN_POINT('Ctrl Pts',(-63.25,53.7320508075689,224.807771246929));
#1678=CARTESIAN_POINT('Ctrl Pts',(-63.2701027279753,53.7648425820367,224.620580702214));
#1679=CARTESIAN_POINT('Ctrl Pts',(-63.3449626742269,53.8755529726295,224.260277003247));
#1680=CARTESIAN_POINT('Ctrl Pts',(-63.3997950206934,53.952934318855,224.087014591236));
#1681=CARTESIAN_POINT('Ctrl Pts',(-63.6104884995381,54.2142287671583,223.592459994124));
#1682=CARTESIAN_POINT('Ctrl Pts',(-63.8150578703665,54.4245708969497,223.295854833108));
#1683=CARTESIAN_POINT('Ctrl Pts',(-64.2850007564263,54.7754907169511,222.825911947048));
#1684=CARTESIAN_POINT('Ctrl Pts',(-64.5809523728789,54.9455680679078,222.616093244566));
#1685=CARTESIAN_POINT('Ctrl Pts',(-65.2545143844314,55.1834445639353,222.327742612401));
#1686=CARTESIAN_POINT('Ctrl Pts',(-65.6329008865931,55.25,222.25));
#1687=CARTESIAN_POINT('Ctrl Pts',(-66.3670991134069,55.25,222.25));
#1688=CARTESIAN_POINT('Ctrl Pts',(-66.7454856155686,55.1834445639353,222.327742612401));
#1689=CARTESIAN_POINT('Ctrl Pts',(-67.4190476271211,54.9455680679078,222.616093244566));
#1690=CARTESIAN_POINT('Ctrl Pts',(-67.7149992435737,54.7754907169511,222.825911947048));
#1691=CARTESIAN_POINT('Ctrl Pts',(-68.1849421296335,54.4245708969497,223.295854833108));
#1692=CARTESIAN_POINT('Ctrl Pts',(-68.3895115004619,54.2142287671583,223.592459994124));
#1693=CARTESIAN_POINT('Ctrl Pts',(-68.6002049793065,53.952934318855,224.087014591236));
#1694=CARTESIAN_POINT('Ctrl Pts',(-68.6550373257731,53.8755529726295,224.260277003247));
#1695=CARTESIAN_POINT('Ctrl Pts',(-68.7298972720247,53.7648425820368,224.620580702214));
#1696=CARTESIAN_POINT('Ctrl Pts',(-68.75,53.7320508075689,224.807771246929));
#1697=CARTESIAN_POINT('Ctrl Pts',(-68.75,53.7320508075689,225.));
#1698=CARTESIAN_POINT('',(-63.25,50.2679491924311,225.));
#1699=CARTESIAN_POINT('',(-63.25,0.,225.));
#1700=CARTESIAN_POINT('Ctrl Pts',(-68.75,50.2679491924311,225.));
#1701=CARTESIAN_POINT('Ctrl Pts',(-68.75,50.2679491924311,224.807771246929));
#1702=CARTESIAN_POINT('Ctrl Pts',(-68.7298972720247,50.2351574179632,224.620580702214));
#1703=CARTESIAN_POINT('Ctrl Pts',(-68.6550373257731,50.1244470273705,224.260277003247));
#1704=CARTESIAN_POINT('Ctrl Pts',(-68.6002049793066,50.047065681145,224.087014591236));
#1705=CARTESIAN_POINT('Ctrl Pts',(-68.3895115004619,49.7857712328417,223.592459994124));
#1706=CARTESIAN_POINT('Ctrl Pts',(-68.1849421296335,49.5754291030503,223.295854833108));
#1707=CARTESIAN_POINT('Ctrl Pts',(-67.7149992435737,49.2245092830489,222.825911947048));
#1708=CARTESIAN_POINT('Ctrl Pts',(-67.4190476271211,49.0544319320922,222.616093244566));
#1709=CARTESIAN_POINT('Ctrl Pts',(-66.7454856155686,48.8165554360647,222.327742612401));
#1710=CARTESIAN_POINT('Ctrl Pts',(-66.3670991134069,48.75,222.25));
#1711=CARTESIAN_POINT('Ctrl Pts',(-65.6329008865931,48.75,222.25));
#1712=CARTESIAN_POINT('Ctrl Pts',(-65.2545143844314,48.8165554360647,222.327742612401));
#1713=CARTESIAN_POINT('Ctrl Pts',(-64.5809523728789,49.0544319320922,222.616093244566));
#1714=CARTESIAN_POINT('Ctrl Pts',(-64.2850007564263,49.2245092830489,222.825911947048));
#1715=CARTESIAN_POINT('Ctrl Pts',(-63.8150578703665,49.5754291030503,223.295854833108));
#1716=CARTESIAN_POINT('Ctrl Pts',(-63.6104884995381,49.7857712328417,223.592459994124));
#1717=CARTESIAN_POINT('Ctrl Pts',(-63.3997950206934,50.047065681145,224.087014591236));
#1718=CARTESIAN_POINT('Ctrl Pts',(-63.3449626742269,50.1244470273705,224.260277003247));
#1719=CARTESIAN_POINT('Ctrl Pts',(-63.2701027279753,50.2351574179633,224.620580702214));
#1720=CARTESIAN_POINT('Ctrl Pts',(-63.25,50.2679491924311,224.807771246929));
#1721=CARTESIAN_POINT('Ctrl Pts',(-63.25,50.2679491924311,225.));
#1722=CARTESIAN_POINT('Origin',(-66.,0.,265.));
#1723=CARTESIAN_POINT('Origin',(-66.,-42.,265.));
#1724=CARTESIAN_POINT('Origin',(-66.,-42.,265.));
#1725=CARTESIAN_POINT('',(-68.75,-14.,265.));
#1726=CARTESIAN_POINT('',(-68.75,0.,265.));
#1727=CARTESIAN_POINT('',(-63.25,-14.,265.));
#1728=CARTESIAN_POINT('Origin',(-66.,-14.,265.));
#1729=CARTESIAN_POINT('Origin',(-66.,-14.,265.));
#1730=CARTESIAN_POINT('Origin',(-66.,0.,265.));
#1731=CARTESIAN_POINT('Origin',(-66.,-14.,265.));
#1732=CARTESIAN_POINT('Origin',(-66.,-14.,265.));
#1733=CARTESIAN_POINT('',(-68.75,14.,265.));
#1734=CARTESIAN_POINT('',(-68.75,0.,265.));
#1735=CARTESIAN_POINT('',(-63.25,14.,265.));
#1736=CARTESIAN_POINT('Origin',(-66.,14.,265.));
#1737=CARTESIAN_POINT('Origin',(-66.,14.,265.));
#1738=CARTESIAN_POINT('Origin',(-66.,0.,265.));
#1739=CARTESIAN_POINT('Origin',(-66.,14.,265.));
#1740=CARTESIAN_POINT('Origin',(-66.,14.,265.));
#1741=CARTESIAN_POINT('',(-68.75,0.,265.));
#1742=CARTESIAN_POINT('Origin',(-66.,42.,265.));
#1743=CARTESIAN_POINT('Origin',(-66.,42.,265.));
#1744=CARTESIAN_POINT('Origin',(-66.,52.,265.));
#1745=CARTESIAN_POINT('Origin',(-66.,52.,265.));
#1746=CARTESIAN_POINT('Origin',(-66.,52.,270.));
#1747=CARTESIAN_POINT('',(-69.25,52.,265.));
#1748=CARTESIAN_POINT('Origin',(-66.,52.,265.));
#1749=CARTESIAN_POINT('',(-69.25,52.,275.));
#1750=CARTESIAN_POINT('',(-69.25,52.,270.));
#1751=CARTESIAN_POINT('Origin',(-66.,52.,275.));
#1752=CARTESIAN_POINT('Origin',(-66.,52.,265.));
#1753=CARTESIAN_POINT('Origin',(-66.,-52.,265.));
#1754=CARTESIAN_POINT('Origin',(-66.,-52.,265.));
#1755=CARTESIAN_POINT('Origin',(-66.,-52.,270.));
#1756=CARTESIAN_POINT('',(-69.25,-52.,265.));
#1757=CARTESIAN_POINT('Origin',(-66.,-52.,265.));
#1758=CARTESIAN_POINT('',(-69.25,-52.,275.));
#1759=CARTESIAN_POINT('',(-69.25,-52.,270.));
#1760=CARTESIAN_POINT('Origin',(-66.,-52.,275.));
#1761=CARTESIAN_POINT('Origin',(-66.,-52.,265.));
#1762=CARTESIAN_POINT('Origin',(-66.,42.,232.));
#1763=CARTESIAN_POINT('',(-68.75,42.,275.));
#1764=CARTESIAN_POINT('',(-68.75,42.,232.));
#1765=CARTESIAN_POINT('Origin',(-66.,42.,275.));
#1766=CARTESIAN_POINT('Origin',(-66.,14.,232.));
#1767=CARTESIAN_POINT('',(-68.75,14.,275.));
#1768=CARTESIAN_POINT('',(-68.75,14.,232.));
#1769=CARTESIAN_POINT('Origin',(-66.,14.,275.));
#1770=CARTESIAN_POINT('Origin',(-66.,-14.,232.));
#1771=CARTESIAN_POINT('',(-68.75,-14.,275.));
#1772=CARTESIAN_POINT('',(-68.75,-14.,232.));
#1773=CARTESIAN_POINT('Origin',(-66.,-14.,275.));
#1774=CARTESIAN_POINT('Origin',(-66.,-42.,232.));
#1775=CARTESIAN_POINT('',(-68.75,-42.,275.));
#1776=CARTESIAN_POINT('',(-68.75,-42.,232.));
#1777=CARTESIAN_POINT('Origin',(-66.,-42.,275.));
#1778=CARTESIAN_POINT('Origin',(-66.,0.,245.));
#1779=CARTESIAN_POINT('Origin',(-66.,-42.,245.));
#1780=CARTESIAN_POINT('Origin',(-66.,-42.,245.));
#1781=CARTESIAN_POINT('',(-68.75,-14.,245.));
#1782=CARTESIAN_POINT('',(-68.75,0.,245.));
#1783=CARTESIAN_POINT('',(-63.25,-14.,245.));
#1784=CARTESIAN_POINT('Origin',(-66.,-14.,245.));
#1785=CARTESIAN_POINT('Origin',(-66.,-14.,245.));
#1786=CARTESIAN_POINT('Origin',(-66.,0.,245.));
#1787=CARTESIAN_POINT('Origin',(-66.,-14.,245.));
#1788=CARTESIAN_POINT('Origin',(-66.,-14.,245.));
#1789=CARTESIAN_POINT('',(-68.75,14.,245.));
#1790=CARTESIAN_POINT('',(-68.75,0.,245.));
#1791=CARTESIAN_POINT('',(-63.25,14.,245.));
#1792=CARTESIAN_POINT('Origin',(-66.,14.,245.));
#1793=CARTESIAN_POINT('Origin',(-66.,14.,245.));
#1794=CARTESIAN_POINT('Origin',(-66.,0.,245.));
#1795=CARTESIAN_POINT('Origin',(-66.,14.,245.));
#1796=CARTESIAN_POINT('Origin',(-66.,14.,245.));
#1797=CARTESIAN_POINT('',(-68.75,0.,245.));
#1798=CARTESIAN_POINT('Origin',(-66.,42.,245.));
#1799=CARTESIAN_POINT('Origin',(-66.,42.,245.));
#1800=CARTESIAN_POINT('Origin',(-66.,42.,232.));
#1801=CARTESIAN_POINT('',(-68.75,42.,232.));
#1802=CARTESIAN_POINT('Origin',(-66.,14.,232.));
#1803=CARTESIAN_POINT('',(-68.75,14.,232.));
#1804=CARTESIAN_POINT('Origin',(-66.,-14.,232.));
#1805=CARTESIAN_POINT('',(-68.75,-14.,232.));
#1806=CARTESIAN_POINT('Origin',(-66.,-42.,232.));
#1807=CARTESIAN_POINT('',(-68.75,-42.,232.));
#1808=CARTESIAN_POINT('Origin',(-66.,0.,225.));
#1809=CARTESIAN_POINT('Origin',(-66.,-42.,225.));
#1810=CARTESIAN_POINT('',(-68.75,0.,225.));
#1811=CARTESIAN_POINT('Origin',(-66.,-14.,225.));
#1812=CARTESIAN_POINT('Origin',(-66.,0.,225.));
#1813=CARTESIAN_POINT('Origin',(-66.,-14.,225.));
#1814=CARTESIAN_POINT('',(-68.75,0.,225.));
#1815=CARTESIAN_POINT('Origin',(-66.,14.,225.));
#1816=CARTESIAN_POINT('Origin',(-66.,0.,225.));
#1817=CARTESIAN_POINT('Origin',(-66.,14.,225.));
#1818=CARTESIAN_POINT('',(-68.75,0.,225.));
#1819=CARTESIAN_POINT('Origin',(-66.,42.,225.));
#1820=CARTESIAN_POINT('Origin',(-66.,52.,225.));
#1821=CARTESIAN_POINT('',(-69.25,52.,225.));
#1822=CARTESIAN_POINT('Origin',(-66.,52.,225.));
#1823=CARTESIAN_POINT('Origin',(-66.,52.,225.));
#1824=CARTESIAN_POINT('Origin',(-66.,52.,220.));
#1825=CARTESIAN_POINT('',(-69.25,52.,215.));
#1826=CARTESIAN_POINT('Origin',(-66.,52.,215.));
#1827=CARTESIAN_POINT('',(-69.25,52.,220.));
#1828=CARTESIAN_POINT('Origin',(-66.,52.,225.));
#1829=CARTESIAN_POINT('Origin',(-66.,52.,225.));
#1830=CARTESIAN_POINT('Origin',(-66.,52.,215.));
#1831=CARTESIAN_POINT('Origin',(-66.,-52.,225.));
#1832=CARTESIAN_POINT('',(-69.25,-52.,225.));
#1833=CARTESIAN_POINT('Origin',(-66.,-52.,225.));
#1834=CARTESIAN_POINT('Origin',(-66.,-52.,225.));
#1835=CARTESIAN_POINT('Origin',(-66.,-52.,220.));
#1836=CARTESIAN_POINT('',(-69.25,-52.,215.));
#1837=CARTESIAN_POINT('Origin',(-66.,-52.,215.));
#1838=CARTESIAN_POINT('',(-69.25,-52.,220.));
#1839=CARTESIAN_POINT('Origin',(-66.,-52.,225.));
#1840=CARTESIAN_POINT('Origin',(-66.,-52.,225.));
#1841=CARTESIAN_POINT('Origin',(-66.,-52.,215.));
#1842=CARTESIAN_POINT('Origin',(-66.,42.,232.));
#1843=CARTESIAN_POINT('',(-68.75,42.,232.));
#1844=CARTESIAN_POINT('Origin',(-66.,14.,232.));
#1845=CARTESIAN_POINT('',(-68.75,14.,232.));
#1846=CARTESIAN_POINT('Origin',(-66.,-14.,232.));
#1847=CARTESIAN_POINT('',(-68.75,-14.,232.));
#1848=CARTESIAN_POINT('Origin',(-66.,-42.,232.));
#1849=CARTESIAN_POINT('',(-68.75,-42.,232.));
#1850=CARTESIAN_POINT('Origin',(-57.,-70.,240.));
#1851=CARTESIAN_POINT('',(-57.,-70.,275.));
#1852=CARTESIAN_POINT('Origin',(-66.,-70.,275.));
#1853=CARTESIAN_POINT('',(-75.,70.,275.));
#1854=CARTESIAN_POINT('Origin',(-75.,-70.,240.));
#1855=CARTESIAN_POINT('Origin',(-66.,52.,265.));
#1856=CARTESIAN_POINT('Origin',(-66.,-52.,265.));
#1857=UNCERTAINTY_MEASURE_WITH_UNIT(LENGTH_MEASURE(0.01),#1861,
'DISTANCE_ACCURACY_VALUE',
'Maximum model space distance between geometric entities at asserted c
onnectivities');
#1858=UNCERTAINTY_MEASURE_WITH_UNIT(LENGTH_MEASURE(0.01),#1861,
'DISTANCE_ACCURACY_VALUE',
'Maximum model space distance between geometric entities at asserted c
onnectivities');
#1859=(
GEOMETRIC_REPRESENTATION_CONTEXT(3)
GLOBAL_UNCERTAINTY_ASSIGNED_CONTEXT((#1857))
GLOBAL_UNIT_ASSIGNED_CONTEXT((#1861,#1863,#1864))
REPRESENTATION_CONTEXT('','3D')
);
#1860=(
GEOMETRIC_REPRESENTATION_CONTEXT(3)
GLOBAL_UNCERTAINTY_ASSIGNED_CONTEXT((#1858))
GLOBAL_UNIT_ASSIGNED_CONTEXT((#1861,#1863,#1864))
REPRESENTATION_CONTEXT('','3D')
);
#1861=(
LENGTH_UNIT()
NAMED_UNIT(*)
SI_UNIT(.MILLI.,.METRE.)
);
#1862=(
LENGTH_UNIT()
NAMED_UNIT(*)
SI_UNIT($,.METRE.)
);
#1863=(
NAMED_UNIT(*)
PLANE_ANGLE_UNIT()
SI_UNIT($,.RADIAN.)
);
#1864=(
NAMED_UNIT(*)
SI_UNIT($,.STERADIAN.)
SOLID_ANGLE_UNIT()
);
#1865=SHAPE_DEFINITION_REPRESENTATION(#1866,#1867);
#1866=PRODUCT_DEFINITION_SHAPE('',$,#1869);
#1867=SHAPE_REPRESENTATION('',(#973),#1859);
#1868=PRODUCT_DEFINITION_CONTEXT('part definition',#1873,'design');
#1869=PRODUCT_DEFINITION('2026-08-17-10-01-05-039',
'EXPORT_TMP_PRINT_V015_P101E_RearBridge',#1870,#1868);
#1870=PRODUCT_DEFINITION_FORMATION('',$,#1875);
#1871=PRODUCT_RELATED_PRODUCT_CATEGORY(
'EXPORT_TMP_PRINT_V015_P101E_RearBridge',
'EXPORT_TMP_PRINT_V015_P101E_RearBridge',(#1875));
#1872=APPLICATION_PROTOCOL_DEFINITION('international standard',
'automotive_design',2009,#1873);
#1873=APPLICATION_CONTEXT(
'Core Data for Automotive Mechanical Design Process');
#1874=PRODUCT_CONTEXT('part definition',#1873,'mechanical');
#1875=PRODUCT('2026-08-17-10-01-05-039',
'EXPORT_TMP_PRINT_V015_P101E_RearBridge',$,(#1874));
#1876=PRESENTATION_STYLE_ASSIGNMENT((#1877));
#1877=SURFACE_STYLE_USAGE(.BOTH.,#1878);
#1878=SURFACE_SIDE_STYLE('',(#1879));
#1879=SURFACE_STYLE_FILL_AREA(#1880);
#1880=FILL_AREA_STYLE('Steel - Satin',(#1881));
#1881=FILL_AREA_STYLE_COLOUR('Steel - Satin',#1882);
#1882=COLOUR_RGB('Steel - Satin',0.627450980392157,0.627450980392157,0.627450980392157);
ENDSEC;
END-ISO-10303-21;
