ISO-10303-21;
HEADER;
/* Generated by software containing ST-Developer
 * from STEP Tools, Inc. (www.steptools.com) 
 */

FILE_DESCRIPTION(
/* description */ (''),
/* implementation_level */ '2;1');

FILE_NAME(
/* name */ 'PRINT_V015_P101C_J2Cheek_Left.step',
/* time_stamp */ '2026-08-20T15:56:47+02:00',
/* author */ (''),
/* organization */ (''),
/* preprocessor_version */ 'ST-DEVELOPER v20.1',
/* originating_system */ 'Autodesk Translation Framework v15.8.0.0',
/* authorisation */ '');

FILE_SCHEMA (('AUTOMOTIVE_DESIGN { 1 0 10303 214 3 1 1 }'));
ENDSEC;

DATA;
#10=MECHANICAL_DESIGN_GEOMETRIC_PRESENTATION_REPRESENTATION('',(#13),#2053);
#11=SHAPE_REPRESENTATION_RELATIONSHIP('SRR','None',#2060,#12);
#12=ADVANCED_BREP_SHAPE_REPRESENTATION('',(#14),#2052);
#13=STYLED_ITEM('',(#2069),#14);
#14=MANIFOLD_SOLID_BREP('PRINT_V015_P101C_J2Cheek_Left',#1181);
#15=B_SPLINE_CURVE_WITH_KNOTS('',3,(#1819,#1820,#1821,#1822,#1823,#1824),
 .UNSPECIFIED.,.F.,.F.,(4,2,4),(-0.316226221246163,-0.310978350239461,-0.215196530975562),
 .UNSPECIFIED.);
#16=CYLINDRICAL_SURFACE('',#1206,60.);
#17=CYLINDRICAL_SURFACE('',#1211,2.75);
#18=CYLINDRICAL_SURFACE('',#1213,2.75);
#19=CYLINDRICAL_SURFACE('',#1215,2.75);
#20=CYLINDRICAL_SURFACE('',#1217,2.75);
#21=CYLINDRICAL_SURFACE('',#1221,20.);
#22=CYLINDRICAL_SURFACE('',#1225,58.);
#23=CYLINDRICAL_SURFACE('',#1256,3.2);
#24=CYLINDRICAL_SURFACE('',#1259,1.8);
#25=CYLINDRICAL_SURFACE('',#1261,3.2);
#26=CYLINDRICAL_SURFACE('',#1264,1.8);
#27=CYLINDRICAL_SURFACE('',#1266,3.2);
#28=CYLINDRICAL_SURFACE('',#1269,1.8);
#29=CYLINDRICAL_SURFACE('',#1271,27.);
#30=CYLINDRICAL_SURFACE('',#1273,3.2);
#31=CYLINDRICAL_SURFACE('',#1276,1.8);
#32=CYLINDRICAL_SURFACE('',#1278,2.25);
#33=CYLINDRICAL_SURFACE('',#1280,2.25);
#34=CYLINDRICAL_SURFACE('',#1282,2.25);
#35=CYLINDRICAL_SURFACE('',#1284,2.2);
#36=CYLINDRICAL_SURFACE('',#1286,2.2);
#37=CYLINDRICAL_SURFACE('',#1288,2.2);
#38=CYLINDRICAL_SURFACE('',#1290,2.2);
#39=CYLINDRICAL_SURFACE('',#1292,23.7);
#40=CYLINDRICAL_SURFACE('',#1294,2.25);
#41=CYLINDRICAL_SURFACE('',#1320,23.7);
#42=CYLINDRICAL_SURFACE('',#1322,3.75);
#43=CYLINDRICAL_SURFACE('',#1324,3.75);
#44=CYLINDRICAL_SURFACE('',#1326,3.75);
#45=CYLINDRICAL_SURFACE('',#1328,18.);
#46=CYLINDRICAL_SURFACE('',#1330,3.75);
#47=FACE_BOUND('',#149,.T.);
#48=FACE_BOUND('',#150,.T.);
#49=FACE_BOUND('',#151,.T.);
#50=FACE_BOUND('',#152,.T.);
#51=FACE_BOUND('',#168,.T.);
#52=FACE_BOUND('',#169,.T.);
#53=FACE_BOUND('',#170,.T.);
#54=FACE_BOUND('',#171,.T.);
#55=FACE_BOUND('',#172,.T.);
#56=FACE_BOUND('',#174,.T.);
#57=FACE_BOUND('',#175,.T.);
#58=FACE_BOUND('',#176,.T.);
#59=FACE_BOUND('',#177,.T.);
#60=FACE_BOUND('',#178,.T.);
#61=FACE_BOUND('',#179,.T.);
#62=FACE_BOUND('',#180,.T.);
#63=FACE_BOUND('',#181,.T.);
#64=FACE_BOUND('',#182,.T.);
#65=FACE_BOUND('',#183,.T.);
#66=FACE_BOUND('',#184,.T.);
#67=FACE_BOUND('',#185,.T.);
#68=FACE_BOUND('',#210,.T.);
#69=FACE_BOUND('',#213,.T.);
#70=FACE_BOUND('',#216,.T.);
#71=FACE_BOUND('',#219,.T.);
#72=FACE_BOUND('',#221,.T.);
#73=FACE_BOUND('',#224,.T.);
#74=FACE_BOUND('',#226,.T.);
#75=FACE_BOUND('',#228,.T.);
#76=FACE_BOUND('',#230,.T.);
#77=FACE_BOUND('',#232,.T.);
#78=FACE_BOUND('',#244,.T.);
#79=FACE_OUTER_BOUND('',#148,.T.);
#80=FACE_OUTER_BOUND('',#153,.T.);
#81=FACE_OUTER_BOUND('',#154,.T.);
#82=FACE_OUTER_BOUND('',#155,.T.);
#83=FACE_OUTER_BOUND('',#156,.T.);
#84=FACE_OUTER_BOUND('',#157,.T.);
#85=FACE_OUTER_BOUND('',#158,.T.);
#86=FACE_OUTER_BOUND('',#159,.T.);
#87=FACE_OUTER_BOUND('',#160,.T.);
#88=FACE_OUTER_BOUND('',#161,.T.);
#89=FACE_OUTER_BOUND('',#162,.T.);
#90=FACE_OUTER_BOUND('',#163,.T.);
#91=FACE_OUTER_BOUND('',#164,.T.);
#92=FACE_OUTER_BOUND('',#165,.T.);
#93=FACE_OUTER_BOUND('',#166,.T.);
#94=FACE_OUTER_BOUND('',#167,.T.);
#95=FACE_OUTER_BOUND('',#173,.T.);
#96=FACE_OUTER_BOUND('',#186,.T.);
#97=FACE_OUTER_BOUND('',#187,.T.);
#98=FACE_OUTER_BOUND('',#188,.T.);
#99=FACE_OUTER_BOUND('',#189,.T.);
#100=FACE_OUTER_BOUND('',#190,.T.);
#101=FACE_OUTER_BOUND('',#191,.T.);
#102=FACE_OUTER_BOUND('',#192,.T.);
#103=FACE_OUTER_BOUND('',#193,.T.);
#104=FACE_OUTER_BOUND('',#194,.T.);
#105=FACE_OUTER_BOUND('',#195,.T.);
#106=FACE_OUTER_BOUND('',#196,.T.);
#107=FACE_OUTER_BOUND('',#197,.T.);
#108=FACE_OUTER_BOUND('',#198,.T.);
#109=FACE_OUTER_BOUND('',#199,.T.);
#110=FACE_OUTER_BOUND('',#200,.T.);
#111=FACE_OUTER_BOUND('',#201,.T.);
#112=FACE_OUTER_BOUND('',#202,.T.);
#113=FACE_OUTER_BOUND('',#203,.T.);
#114=FACE_OUTER_BOUND('',#204,.T.);
#115=FACE_OUTER_BOUND('',#205,.T.);
#116=FACE_OUTER_BOUND('',#206,.T.);
#117=FACE_OUTER_BOUND('',#207,.T.);
#118=FACE_OUTER_BOUND('',#208,.T.);
#119=FACE_OUTER_BOUND('',#209,.T.);
#120=FACE_OUTER_BOUND('',#211,.T.);
#121=FACE_OUTER_BOUND('',#212,.T.);
#122=FACE_OUTER_BOUND('',#214,.T.);
#123=FACE_OUTER_BOUND('',#215,.T.);
#124=FACE_OUTER_BOUND('',#217,.T.);
#125=FACE_OUTER_BOUND('',#218,.T.);
#126=FACE_OUTER_BOUND('',#220,.T.);
#127=FACE_OUTER_BOUND('',#222,.T.);
#128=FACE_OUTER_BOUND('',#223,.T.);
#129=FACE_OUTER_BOUND('',#225,.T.);
#130=FACE_OUTER_BOUND('',#227,.T.);
#131=FACE_OUTER_BOUND('',#229,.T.);
#132=FACE_OUTER_BOUND('',#231,.T.);
#133=FACE_OUTER_BOUND('',#233,.T.);
#134=FACE_OUTER_BOUND('',#234,.T.);
#135=FACE_OUTER_BOUND('',#235,.T.);
#136=FACE_OUTER_BOUND('',#236,.T.);
#137=FACE_OUTER_BOUND('',#237,.T.);
#138=FACE_OUTER_BOUND('',#238,.T.);
#139=FACE_OUTER_BOUND('',#239,.T.);
#140=FACE_OUTER_BOUND('',#240,.T.);
#141=FACE_OUTER_BOUND('',#241,.T.);
#142=FACE_OUTER_BOUND('',#242,.T.);
#143=FACE_OUTER_BOUND('',#243,.T.);
#144=FACE_OUTER_BOUND('',#245,.T.);
#145=FACE_OUTER_BOUND('',#246,.T.);
#146=FACE_OUTER_BOUND('',#247,.T.);
#147=FACE_OUTER_BOUND('',#248,.T.);
#148=EDGE_LOOP('',(#756,#757,#758,#759,#760,#761,#762,#763,#764,#765,#766,
#767,#768,#769));
#149=EDGE_LOOP('',(#770));
#150=EDGE_LOOP('',(#771));
#151=EDGE_LOOP('',(#772));
#152=EDGE_LOOP('',(#773));
#153=EDGE_LOOP('',(#774,#775,#776,#777));
#154=EDGE_LOOP('',(#778,#779,#780,#781,#782,#783,#784,#785,#786,#787));
#155=EDGE_LOOP('',(#788,#789,#790,#791));
#156=EDGE_LOOP('',(#792,#793,#794,#795));
#157=EDGE_LOOP('',(#796,#797,#798,#799,#800,#801));
#158=EDGE_LOOP('',(#802,#803,#804,#805));
#159=EDGE_LOOP('',(#806,#807,#808,#809,#810,#811,#812,#813,#814,#815));
#160=EDGE_LOOP('',(#816,#817,#818,#819));
#161=EDGE_LOOP('',(#820,#821,#822,#823));
#162=EDGE_LOOP('',(#824,#825,#826,#827));
#163=EDGE_LOOP('',(#828,#829,#830,#831,#832,#833,#834,#835,#836));
#164=EDGE_LOOP('',(#837,#838,#839,#840,#841,#842,#843));
#165=EDGE_LOOP('',(#844,#845,#846,#847));
#166=EDGE_LOOP('',(#848,#849,#850,#851));
#167=EDGE_LOOP('',(#852,#853));
#168=EDGE_LOOP('',(#854,#855,#856));
#169=EDGE_LOOP('',(#857,#858,#859));
#170=EDGE_LOOP('',(#860,#861,#862));
#171=EDGE_LOOP('',(#863));
#172=EDGE_LOOP('',(#864,#865,#866));
#173=EDGE_LOOP('',(#867,#868,#869,#870,#871,#872,#873,#874,#875));
#174=EDGE_LOOP('',(#876));
#175=EDGE_LOOP('',(#877));
#176=EDGE_LOOP('',(#878));
#177=EDGE_LOOP('',(#879));
#178=EDGE_LOOP('',(#880));
#179=EDGE_LOOP('',(#881));
#180=EDGE_LOOP('',(#882));
#181=EDGE_LOOP('',(#883));
#182=EDGE_LOOP('',(#884));
#183=EDGE_LOOP('',(#885));
#184=EDGE_LOOP('',(#886));
#185=EDGE_LOOP('',(#887));
#186=EDGE_LOOP('',(#888,#889,#890,#891));
#187=EDGE_LOOP('',(#892,#893,#894,#895,#896,#897,#898));
#188=EDGE_LOOP('',(#899,#900,#901,#902));
#189=EDGE_LOOP('',(#903,#904,#905,#906,#907,#908));
#190=EDGE_LOOP('',(#909,#910,#911,#912,#913,#914,#915,#916));
#191=EDGE_LOOP('',(#917,#918,#919,#920));
#192=EDGE_LOOP('',(#921,#922,#923,#924,#925,#926,#927,#928));
#193=EDGE_LOOP('',(#929,#930,#931,#932));
#194=EDGE_LOOP('',(#933,#934,#935,#936,#937,#938,#939,#940));
#195=EDGE_LOOP('',(#941,#942,#943,#944));
#196=EDGE_LOOP('',(#945,#946,#947,#948));
#197=EDGE_LOOP('',(#949,#950,#951,#952,#953,#954,#955,#956));
#198=EDGE_LOOP('',(#957,#958,#959,#960));
#199=EDGE_LOOP('',(#961,#962,#963,#964));
#200=EDGE_LOOP('',(#965,#966,#967,#968));
#201=EDGE_LOOP('',(#969,#970,#971,#972));
#202=EDGE_LOOP('',(#973,#974,#975,#976));
#203=EDGE_LOOP('',(#977,#978,#979,#980));
#204=EDGE_LOOP('',(#981,#982,#983,#984));
#205=EDGE_LOOP('',(#985,#986,#987,#988));
#206=EDGE_LOOP('',(#989,#990,#991,#992));
#207=EDGE_LOOP('',(#993,#994,#995,#996));
#208=EDGE_LOOP('',(#997,#998,#999));
#209=EDGE_LOOP('',(#1000));
#210=EDGE_LOOP('',(#1001));
#211=EDGE_LOOP('',(#1002,#1003));
#212=EDGE_LOOP('',(#1004));
#213=EDGE_LOOP('',(#1005));
#214=EDGE_LOOP('',(#1006,#1007));
#215=EDGE_LOOP('',(#1008));
#216=EDGE_LOOP('',(#1009));
#217=EDGE_LOOP('',(#1010,#1011));
#218=EDGE_LOOP('',(#1012));
#219=EDGE_LOOP('',(#1013));
#220=EDGE_LOOP('',(#1014));
#221=EDGE_LOOP('',(#1015));
#222=EDGE_LOOP('',(#1016,#1017));
#223=EDGE_LOOP('',(#1018));
#224=EDGE_LOOP('',(#1019));
#225=EDGE_LOOP('',(#1020));
#226=EDGE_LOOP('',(#1021));
#227=EDGE_LOOP('',(#1022));
#228=EDGE_LOOP('',(#1023));
#229=EDGE_LOOP('',(#1024));
#230=EDGE_LOOP('',(#1025));
#231=EDGE_LOOP('',(#1026));
#232=EDGE_LOOP('',(#1027));
#233=EDGE_LOOP('',(#1028,#1029,#1030,#1031));
#234=EDGE_LOOP('',(#1032,#1033,#1034,#1035));
#235=EDGE_LOOP('',(#1036,#1037,#1038,#1039));
#236=EDGE_LOOP('',(#1040,#1041,#1042,#1043));
#237=EDGE_LOOP('',(#1044,#1045,#1046,#1047));
#238=EDGE_LOOP('',(#1048,#1049,#1050,#1051));
#239=EDGE_LOOP('',(#1052,#1053,#1054,#1055));
#240=EDGE_LOOP('',(#1056,#1057,#1058,#1059));
#241=EDGE_LOOP('',(#1060,#1061,#1062,#1063));
#242=EDGE_LOOP('',(#1064,#1065,#1066,#1067));
#243=EDGE_LOOP('',(#1068));
#244=EDGE_LOOP('',(#1069));
#245=EDGE_LOOP('',(#1070));
#246=EDGE_LOOP('',(#1071));
#247=EDGE_LOOP('',(#1072));
#248=EDGE_LOOP('',(#1073));
#249=CIRCLE('',#1196,60.);
#250=CIRCLE('',#1197,2.75);
#251=CIRCLE('',#1198,2.75);
#252=CIRCLE('',#1199,2.75);
#253=CIRCLE('',#1200,2.75);
#254=CIRCLE('',#1203,20.);
#255=CIRCLE('',#1207,60.);
#256=CIRCLE('',#1208,60.);
#257=CIRCLE('',#1212,2.75);
#258=CIRCLE('',#1214,2.75);
#259=CIRCLE('',#1216,2.75);
#260=CIRCLE('',#1218,2.75);
#261=CIRCLE('',#1219,2.75);
#262=CIRCLE('',#1220,2.75);
#263=CIRCLE('',#1222,20.);
#264=CIRCLE('',#1223,20.);
#265=CIRCLE('',#1226,58.);
#266=CIRCLE('',#1227,58.);
#267=CIRCLE('',#1229,3.2);
#268=CIRCLE('',#1230,3.2);
#269=CIRCLE('',#1231,1.8);
#270=CIRCLE('',#1232,3.2);
#271=CIRCLE('',#1233,3.2);
#272=CIRCLE('',#1234,1.8);
#273=CIRCLE('',#1235,3.2);
#274=CIRCLE('',#1236,3.2);
#275=CIRCLE('',#1237,1.8);
#276=CIRCLE('',#1238,27.);
#277=CIRCLE('',#1239,3.2);
#278=CIRCLE('',#1240,3.2);
#279=CIRCLE('',#1241,1.8);
#280=CIRCLE('',#1243,2.25);
#281=CIRCLE('',#1244,2.25);
#282=CIRCLE('',#1245,2.25);
#283=CIRCLE('',#1246,2.2);
#284=CIRCLE('',#1247,2.2);
#285=CIRCLE('',#1248,2.2);
#286=CIRCLE('',#1249,2.2);
#287=CIRCLE('',#1250,23.7);
#288=CIRCLE('',#1251,2.25);
#289=CIRCLE('',#1257,3.2);
#290=CIRCLE('',#1258,3.2);
#291=CIRCLE('',#1260,1.8);
#292=CIRCLE('',#1262,3.2);
#293=CIRCLE('',#1263,3.2);
#294=CIRCLE('',#1265,1.8);
#295=CIRCLE('',#1267,3.2);
#296=CIRCLE('',#1268,3.2);
#297=CIRCLE('',#1270,1.8);
#298=CIRCLE('',#1272,27.);
#299=CIRCLE('',#1274,3.2);
#300=CIRCLE('',#1275,3.2);
#301=CIRCLE('',#1277,1.8);
#302=CIRCLE('',#1279,2.25);
#303=CIRCLE('',#1281,2.25);
#304=CIRCLE('',#1283,2.25);
#305=CIRCLE('',#1285,2.2);
#306=CIRCLE('',#1287,2.2);
#307=CIRCLE('',#1289,2.2);
#308=CIRCLE('',#1291,2.2);
#309=CIRCLE('',#1293,23.7);
#310=CIRCLE('',#1295,2.25);
#311=CIRCLE('',#1304,23.7);
#312=CIRCLE('',#1308,3.75);
#313=CIRCLE('',#1310,3.75);
#314=CIRCLE('',#1312,3.75);
#315=CIRCLE('',#1314,18.);
#316=CIRCLE('',#1316,3.75);
#317=CIRCLE('',#1321,23.7);
#318=CIRCLE('',#1323,3.75);
#319=CIRCLE('',#1325,3.75);
#320=CIRCLE('',#1327,3.75);
#321=CIRCLE('',#1329,18.);
#322=CIRCLE('',#1331,3.75);
#323=LINE('',#1714,#407);
#324=LINE('',#1716,#408);
#325=LINE('',#1720,#409);
#326=LINE('',#1722,#410);
#327=LINE('',#1724,#411);
#328=LINE('',#1726,#412);
#329=LINE('',#1728,#413);
#330=LINE('',#1730,#414);
#331=LINE('',#1732,#415);
#332=LINE('',#1734,#416);
#333=LINE('',#1736,#417);
#334=LINE('',#1738,#418);
#335=LINE('',#1739,#419);
#336=LINE('',#1750,#420);
#337=LINE('',#1752,#421);
#338=LINE('',#1753,#422);
#339=LINE('',#1756,#423);
#340=LINE('',#1758,#424);
#341=LINE('',#1760,#425);
#342=LINE('',#1762,#426);
#343=LINE('',#1765,#427);
#344=LINE('',#1766,#428);
#345=LINE('',#1769,#429);
#346=LINE('',#1770,#430);
#347=LINE('',#1773,#431);
#348=LINE('',#1774,#432);
#349=LINE('',#1777,#433);
#350=LINE('',#1782,#434);
#351=LINE('',#1783,#435);
#352=LINE('',#1786,#436);
#353=LINE('',#1788,#437);
#354=LINE('',#1790,#438);
#355=LINE('',#1792,#439);
#356=LINE('',#1794,#440);
#357=LINE('',#1796,#441);
#358=LINE('',#1798,#442);
#359=LINE('',#1799,#443);
#360=LINE('',#1803,#444);
#361=LINE('',#1807,#445);
#362=LINE('',#1811,#446);
#363=LINE('',#1817,#447);
#364=LINE('',#1828,#448);
#365=LINE('',#1830,#449);
#366=LINE('',#1832,#450);
#367=LINE('',#1836,#451);
#368=LINE('',#1840,#452);
#369=LINE('',#1841,#453);
#370=LINE('',#1873,#454);
#371=LINE('',#1875,#455);
#372=LINE('',#1876,#456);
#373=LINE('',#1896,#457);
#374=LINE('',#1899,#458);
#375=LINE('',#1901,#459);
#376=LINE('',#1905,#460);
#377=LINE('',#1907,#461);
#378=LINE('',#1910,#462);
#379=LINE('',#1916,#463);
#380=LINE('',#1918,#464);
#381=LINE('',#1921,#465);
#382=LINE('',#1927,#466);
#383=LINE('',#1929,#467);
#384=LINE('',#1932,#468);
#385=LINE('',#1938,#469);
#386=LINE('',#1942,#470);
#387=LINE('',#1944,#471);
#388=LINE('',#1947,#472);
#389=LINE('',#1952,#473);
#390=LINE('',#1956,#474);
#391=LINE('',#1960,#475);
#392=LINE('',#1964,#476);
#393=LINE('',#1968,#477);
#394=LINE('',#1972,#478);
#395=LINE('',#1976,#479);
#396=LINE('',#1980,#480);
#397=LINE('',#1984,#481);
#398=LINE('',#2016,#482);
#399=LINE('',#2017,#483);
#400=LINE('',#2019,#484);
#401=LINE('',#2023,#485);
#402=LINE('',#2026,#486);
#403=LINE('',#2030,#487);
#404=LINE('',#2034,#488);
#405=LINE('',#2038,#489);
#406=LINE('',#2042,#490);
#407=VECTOR('',#1342,10.);
#408=VECTOR('',#1343,10.);
#409=VECTOR('',#1346,10.);
#410=VECTOR('',#1347,10.);
#411=VECTOR('',#1348,10.);
#412=VECTOR('',#1349,10.);
#413=VECTOR('',#1350,10.);
#414=VECTOR('',#1351,10.);
#415=VECTOR('',#1352,10.);
#416=VECTOR('',#1353,10.);
#417=VECTOR('',#1354,10.);
#418=VECTOR('',#1355,10.);
#419=VECTOR('',#1356,10.);
#420=VECTOR('',#1367,1.);
#421=VECTOR('',#1368,1.);
#422=VECTOR('',#1369,1.);
#423=VECTOR('',#1372,1.);
#424=VECTOR('',#1373,1.);
#425=VECTOR('',#1374,1.);
#426=VECTOR('',#1375,1.);
#427=VECTOR('',#1378,1.);
#428=VECTOR('',#1379,1.);
#429=VECTOR('',#1382,1.);
#430=VECTOR('',#1383,1.);
#431=VECTOR('',#1386,1.);
#432=VECTOR('',#1387,1.);
#433=VECTOR('',#1390,1.);
#434=VECTOR('',#1397,1.);
#435=VECTOR('',#1398,1.);
#436=VECTOR('',#1401,1.);
#437=VECTOR('',#1402,1.);
#438=VECTOR('',#1403,1.);
#439=VECTOR('',#1404,1.);
#440=VECTOR('',#1405,1.);
#441=VECTOR('',#1406,1.);
#442=VECTOR('',#1407,1.);
#443=VECTOR('',#1408,1.);
#444=VECTOR('',#1413,2.75);
#445=VECTOR('',#1418,2.75);
#446=VECTOR('',#1423,2.75);
#447=VECTOR('',#1428,10.);
#448=VECTOR('',#1431,10.);
#449=VECTOR('',#1434,2.75);
#450=VECTOR('',#1437,1.);
#451=VECTOR('',#1440,1.);
#452=VECTOR('',#1445,1.);
#453=VECTOR('',#1446,1.);
#454=VECTOR('',#1483,1.);
#455=VECTOR('',#1484,1.);
#456=VECTOR('',#1485,1.);
#457=VECTOR('',#1506,1.);
#458=VECTOR('',#1511,1.);
#459=VECTOR('',#1514,1.);
#460=VECTOR('',#1519,3.2);
#461=VECTOR('',#1520,1.);
#462=VECTOR('',#1523,1.);
#463=VECTOR('',#1532,3.2);
#464=VECTOR('',#1533,1.);
#465=VECTOR('',#1536,1.);
#466=VECTOR('',#1545,3.2);
#467=VECTOR('',#1546,1.);
#468=VECTOR('',#1549,1.);
#469=VECTOR('',#1558,27.);
#470=VECTOR('',#1563,3.2);
#471=VECTOR('',#1564,1.);
#472=VECTOR('',#1567,1.);
#473=VECTOR('',#1574,2.25);
#474=VECTOR('',#1579,2.25);
#475=VECTOR('',#1584,2.25);
#476=VECTOR('',#1589,2.2);
#477=VECTOR('',#1594,2.2);
#478=VECTOR('',#1599,2.2);
#479=VECTOR('',#1604,2.2);
#480=VECTOR('',#1609,23.7);
#481=VECTOR('',#1614,2.25);
#482=VECTOR('',#1663,1.);
#483=VECTOR('',#1664,1.);
#484=VECTOR('',#1667,1.);
#485=VECTOR('',#1672,23.7);
#486=VECTOR('',#1675,3.75);
#487=VECTOR('',#1680,3.75);
#488=VECTOR('',#1685,3.75);
#489=VECTOR('',#1690,18.);
#490=VECTOR('',#1695,3.75);
#491=VERTEX_POINT('',#1712);
#492=VERTEX_POINT('',#1713);
#493=VERTEX_POINT('',#1715);
#494=VERTEX_POINT('',#1717);
#495=VERTEX_POINT('',#1719);
#496=VERTEX_POINT('',#1721);
#497=VERTEX_POINT('',#1723);
#498=VERTEX_POINT('',#1725);
#499=VERTEX_POINT('',#1727);
#500=VERTEX_POINT('',#1729);
#501=VERTEX_POINT('',#1731);
#502=VERTEX_POINT('',#1733);
#503=VERTEX_POINT('',#1735);
#504=VERTEX_POINT('',#1737);
#505=VERTEX_POINT('',#1740);
#506=VERTEX_POINT('',#1742);
#507=VERTEX_POINT('',#1744);
#508=VERTEX_POINT('',#1746);
#509=VERTEX_POINT('',#1749);
#510=VERTEX_POINT('',#1751);
#511=VERTEX_POINT('',#1755);
#512=VERTEX_POINT('',#1757);
#513=VERTEX_POINT('',#1759);
#514=VERTEX_POINT('',#1761);
#515=VERTEX_POINT('',#1764);
#516=VERTEX_POINT('',#1768);
#517=VERTEX_POINT('',#1772);
#518=VERTEX_POINT('',#1776);
#519=VERTEX_POINT('',#1781);
#520=VERTEX_POINT('',#1785);
#521=VERTEX_POINT('',#1787);
#522=VERTEX_POINT('',#1789);
#523=VERTEX_POINT('',#1791);
#524=VERTEX_POINT('',#1793);
#525=VERTEX_POINT('',#1795);
#526=VERTEX_POINT('',#1797);
#527=VERTEX_POINT('',#1801);
#528=VERTEX_POINT('',#1805);
#529=VERTEX_POINT('',#1809);
#530=VERTEX_POINT('',#1813);
#531=VERTEX_POINT('',#1814);
#532=VERTEX_POINT('',#1816);
#533=VERTEX_POINT('',#1818);
#534=VERTEX_POINT('',#1825);
#535=VERTEX_POINT('',#1827);
#536=VERTEX_POINT('',#1833);
#537=VERTEX_POINT('',#1835);
#538=VERTEX_POINT('',#1839);
#539=VERTEX_POINT('',#1846);
#540=VERTEX_POINT('',#1847);
#541=VERTEX_POINT('',#1849);
#542=VERTEX_POINT('',#1852);
#543=VERTEX_POINT('',#1853);
#544=VERTEX_POINT('',#1855);
#545=VERTEX_POINT('',#1858);
#546=VERTEX_POINT('',#1859);
#547=VERTEX_POINT('',#1861);
#548=VERTEX_POINT('',#1864);
#549=VERTEX_POINT('',#1866);
#550=VERTEX_POINT('',#1867);
#551=VERTEX_POINT('',#1869);
#552=VERTEX_POINT('',#1874);
#553=VERTEX_POINT('',#1877);
#554=VERTEX_POINT('',#1879);
#555=VERTEX_POINT('',#1881);
#556=VERTEX_POINT('',#1883);
#557=VERTEX_POINT('',#1885);
#558=VERTEX_POINT('',#1887);
#559=VERTEX_POINT('',#1889);
#560=VERTEX_POINT('',#1891);
#561=VERTEX_POINT('',#1893);
#562=VERTEX_POINT('',#1903);
#563=VERTEX_POINT('',#1906);
#564=VERTEX_POINT('',#1908);
#565=VERTEX_POINT('',#1914);
#566=VERTEX_POINT('',#1917);
#567=VERTEX_POINT('',#1919);
#568=VERTEX_POINT('',#1925);
#569=VERTEX_POINT('',#1928);
#570=VERTEX_POINT('',#1930);
#571=VERTEX_POINT('',#1936);
#572=VERTEX_POINT('',#1940);
#573=VERTEX_POINT('',#1943);
#574=VERTEX_POINT('',#1945);
#575=VERTEX_POINT('',#1951);
#576=VERTEX_POINT('',#1955);
#577=VERTEX_POINT('',#1959);
#578=VERTEX_POINT('',#1963);
#579=VERTEX_POINT('',#1967);
#580=VERTEX_POINT('',#1971);
#581=VERTEX_POINT('',#1975);
#582=VERTEX_POINT('',#1979);
#583=VERTEX_POINT('',#1983);
#584=VERTEX_POINT('',#1994);
#585=VERTEX_POINT('',#1999);
#586=VERTEX_POINT('',#2002);
#587=VERTEX_POINT('',#2005);
#588=VERTEX_POINT('',#2008);
#589=VERTEX_POINT('',#2011);
#590=VERTEX_POINT('',#2015);
#591=VERTEX_POINT('',#2021);
#592=VERTEX_POINT('',#2025);
#593=VERTEX_POINT('',#2029);
#594=VERTEX_POINT('',#2033);
#595=VERTEX_POINT('',#2037);
#596=VERTEX_POINT('',#2041);
#597=EDGE_CURVE('',#491,#492,#323,.T.);
#598=EDGE_CURVE('',#492,#493,#324,.T.);
#599=EDGE_CURVE('',#493,#494,#249,.T.);
#600=EDGE_CURVE('',#494,#495,#325,.T.);
#601=EDGE_CURVE('',#495,#496,#326,.T.);
#602=EDGE_CURVE('',#496,#497,#327,.T.);
#603=EDGE_CURVE('',#497,#498,#328,.T.);
#604=EDGE_CURVE('',#498,#499,#329,.T.);
#605=EDGE_CURVE('',#499,#500,#330,.T.);
#606=EDGE_CURVE('',#500,#501,#331,.T.);
#607=EDGE_CURVE('',#501,#502,#332,.T.);
#608=EDGE_CURVE('',#502,#503,#333,.T.);
#609=EDGE_CURVE('',#503,#504,#334,.T.);
#610=EDGE_CURVE('',#504,#491,#335,.T.);
#611=EDGE_CURVE('',#505,#505,#250,.T.);
#612=EDGE_CURVE('',#506,#506,#251,.T.);
#613=EDGE_CURVE('',#507,#507,#252,.T.);
#614=EDGE_CURVE('',#508,#508,#253,.T.);
#615=EDGE_CURVE('',#497,#509,#336,.T.);
#616=EDGE_CURVE('',#509,#510,#337,.T.);
#617=EDGE_CURVE('',#498,#510,#338,.T.);
#618=EDGE_CURVE('',#496,#511,#339,.T.);
#619=EDGE_CURVE('',#511,#512,#340,.T.);
#620=EDGE_CURVE('',#512,#513,#341,.T.);
#621=EDGE_CURVE('',#513,#514,#342,.T.);
#622=EDGE_CURVE('',#514,#501,#254,.T.);
#623=EDGE_CURVE('',#515,#500,#343,.T.);
#624=EDGE_CURVE('',#509,#515,#344,.T.);
#625=EDGE_CURVE('',#495,#516,#345,.T.);
#626=EDGE_CURVE('',#516,#511,#346,.T.);
#627=EDGE_CURVE('',#517,#494,#347,.T.);
#628=EDGE_CURVE('',#516,#517,#348,.T.);
#629=EDGE_CURVE('',#518,#493,#349,.T.);
#630=EDGE_CURVE('',#513,#518,#255,.T.);
#631=EDGE_CURVE('',#512,#517,#256,.T.);
#632=EDGE_CURVE('',#492,#519,#350,.T.);
#633=EDGE_CURVE('',#519,#518,#351,.T.);
#634=EDGE_CURVE('',#520,#491,#352,.T.);
#635=EDGE_CURVE('',#520,#521,#353,.T.);
#636=EDGE_CURVE('',#522,#521,#354,.T.);
#637=EDGE_CURVE('',#523,#522,#355,.T.);
#638=EDGE_CURVE('',#524,#523,#356,.T.);
#639=EDGE_CURVE('',#524,#525,#357,.T.);
#640=EDGE_CURVE('',#526,#525,#358,.T.);
#641=EDGE_CURVE('',#519,#526,#359,.T.);
#642=EDGE_CURVE('',#527,#527,#257,.T.);
#643=EDGE_CURVE('',#527,#508,#360,.T.);
#644=EDGE_CURVE('',#528,#528,#258,.T.);
#645=EDGE_CURVE('',#528,#507,#361,.T.);
#646=EDGE_CURVE('',#529,#529,#259,.T.);
#647=EDGE_CURVE('',#529,#506,#362,.T.);
#648=EDGE_CURVE('',#530,#531,#260,.T.);
#649=EDGE_CURVE('',#532,#530,#363,.T.);
#650=EDGE_CURVE('',#533,#532,#15,.T.);
#651=EDGE_CURVE('',#534,#533,#261,.T.);
#652=EDGE_CURVE('',#535,#534,#364,.T.);
#653=EDGE_CURVE('',#531,#535,#262,.T.);
#654=EDGE_CURVE('',#531,#505,#365,.T.);
#655=EDGE_CURVE('',#533,#514,#366,.T.);
#656=EDGE_CURVE('',#532,#536,#263,.T.);
#657=EDGE_CURVE('',#536,#537,#367,.T.);
#658=EDGE_CURVE('',#502,#537,#264,.T.);
#659=EDGE_CURVE('',#530,#538,#368,.T.);
#660=EDGE_CURVE('',#538,#536,#369,.T.);
#661=EDGE_CURVE('',#524,#521,#265,.T.);
#662=EDGE_CURVE('',#522,#523,#266,.T.);
#663=EDGE_CURVE('',#539,#540,#267,.T.);
#664=EDGE_CURVE('',#540,#541,#268,.T.);
#665=EDGE_CURVE('',#541,#539,#269,.T.);
#666=EDGE_CURVE('',#542,#543,#270,.T.);
#667=EDGE_CURVE('',#543,#544,#271,.T.);
#668=EDGE_CURVE('',#544,#542,#272,.T.);
#669=EDGE_CURVE('',#545,#546,#273,.T.);
#670=EDGE_CURVE('',#546,#547,#274,.T.);
#671=EDGE_CURVE('',#547,#545,#275,.T.);
#672=EDGE_CURVE('',#548,#548,#276,.T.);
#673=EDGE_CURVE('',#549,#550,#277,.T.);
#674=EDGE_CURVE('',#550,#551,#278,.T.);
#675=EDGE_CURVE('',#551,#549,#279,.T.);
#676=EDGE_CURVE('',#525,#535,#370,.T.);
#677=EDGE_CURVE('',#552,#520,#371,.T.);
#678=EDGE_CURVE('',#552,#538,#372,.T.);
#679=EDGE_CURVE('',#553,#553,#280,.T.);
#680=EDGE_CURVE('',#554,#554,#281,.T.);
#681=EDGE_CURVE('',#555,#555,#282,.T.);
#682=EDGE_CURVE('',#556,#556,#283,.T.);
#683=EDGE_CURVE('',#557,#557,#284,.T.);
#684=EDGE_CURVE('',#558,#558,#285,.T.);
#685=EDGE_CURVE('',#559,#559,#286,.T.);
#686=EDGE_CURVE('',#560,#560,#287,.T.);
#687=EDGE_CURVE('',#561,#561,#288,.T.);
#688=EDGE_CURVE('',#526,#534,#373,.T.);
#689=EDGE_CURVE('',#504,#552,#374,.T.);
#690=EDGE_CURVE('',#537,#503,#375,.T.);
#691=EDGE_CURVE('',#562,#562,#289,.T.);
#692=EDGE_CURVE('',#562,#540,#376,.T.);
#693=EDGE_CURVE('',#563,#539,#377,.T.);
#694=EDGE_CURVE('',#563,#564,#290,.T.);
#695=EDGE_CURVE('',#541,#564,#378,.T.);
#696=EDGE_CURVE('',#563,#564,#291,.T.);
#697=EDGE_CURVE('',#565,#565,#292,.T.);
#698=EDGE_CURVE('',#565,#543,#379,.T.);
#699=EDGE_CURVE('',#566,#542,#380,.T.);
#700=EDGE_CURVE('',#566,#567,#293,.T.);
#701=EDGE_CURVE('',#544,#567,#381,.T.);
#702=EDGE_CURVE('',#566,#567,#294,.T.);
#703=EDGE_CURVE('',#568,#568,#295,.T.);
#704=EDGE_CURVE('',#568,#546,#382,.T.);
#705=EDGE_CURVE('',#569,#545,#383,.T.);
#706=EDGE_CURVE('',#569,#570,#296,.T.);
#707=EDGE_CURVE('',#547,#570,#384,.T.);
#708=EDGE_CURVE('',#569,#570,#297,.T.);
#709=EDGE_CURVE('',#571,#571,#298,.T.);
#710=EDGE_CURVE('',#571,#548,#385,.T.);
#711=EDGE_CURVE('',#572,#572,#299,.T.);
#712=EDGE_CURVE('',#572,#550,#386,.T.);
#713=EDGE_CURVE('',#573,#549,#387,.T.);
#714=EDGE_CURVE('',#573,#574,#300,.T.);
#715=EDGE_CURVE('',#551,#574,#388,.T.);
#716=EDGE_CURVE('',#573,#574,#301,.T.);
#717=EDGE_CURVE('',#553,#575,#389,.T.);
#718=EDGE_CURVE('',#575,#575,#302,.T.);
#719=EDGE_CURVE('',#554,#576,#390,.T.);
#720=EDGE_CURVE('',#576,#576,#303,.T.);
#721=EDGE_CURVE('',#555,#577,#391,.T.);
#722=EDGE_CURVE('',#577,#577,#304,.T.);
#723=EDGE_CURVE('',#556,#578,#392,.T.);
#724=EDGE_CURVE('',#578,#578,#305,.T.);
#725=EDGE_CURVE('',#557,#579,#393,.T.);
#726=EDGE_CURVE('',#579,#579,#306,.T.);
#727=EDGE_CURVE('',#558,#580,#394,.T.);
#728=EDGE_CURVE('',#580,#580,#307,.T.);
#729=EDGE_CURVE('',#559,#581,#395,.T.);
#730=EDGE_CURVE('',#581,#581,#308,.T.);
#731=EDGE_CURVE('',#560,#582,#396,.T.);
#732=EDGE_CURVE('',#582,#582,#309,.T.);
#733=EDGE_CURVE('',#561,#583,#397,.T.);
#734=EDGE_CURVE('',#583,#583,#310,.T.);
#735=EDGE_CURVE('',#584,#584,#311,.T.);
#736=EDGE_CURVE('',#585,#585,#312,.T.);
#737=EDGE_CURVE('',#586,#586,#313,.T.);
#738=EDGE_CURVE('',#587,#587,#314,.T.);
#739=EDGE_CURVE('',#588,#588,#315,.T.);
#740=EDGE_CURVE('',#589,#589,#316,.T.);
#741=EDGE_CURVE('',#590,#499,#398,.T.);
#742=EDGE_CURVE('',#515,#590,#399,.T.);
#743=EDGE_CURVE('',#510,#590,#400,.T.);
#744=EDGE_CURVE('',#591,#591,#317,.T.);
#745=EDGE_CURVE('',#591,#584,#401,.T.);
#746=EDGE_CURVE('',#585,#592,#402,.T.);
#747=EDGE_CURVE('',#592,#592,#318,.T.);
#748=EDGE_CURVE('',#586,#593,#403,.T.);
#749=EDGE_CURVE('',#593,#593,#319,.T.);
#750=EDGE_CURVE('',#587,#594,#404,.T.);
#751=EDGE_CURVE('',#594,#594,#320,.T.);
#752=EDGE_CURVE('',#588,#595,#405,.T.);
#753=EDGE_CURVE('',#595,#595,#321,.T.);
#754=EDGE_CURVE('',#589,#596,#406,.T.);
#755=EDGE_CURVE('',#596,#596,#322,.T.);
#756=ORIENTED_EDGE('',*,*,#597,.T.);
#757=ORIENTED_EDGE('',*,*,#598,.T.);
#758=ORIENTED_EDGE('',*,*,#599,.T.);
#759=ORIENTED_EDGE('',*,*,#600,.T.);
#760=ORIENTED_EDGE('',*,*,#601,.T.);
#761=ORIENTED_EDGE('',*,*,#602,.T.);
#762=ORIENTED_EDGE('',*,*,#603,.T.);
#763=ORIENTED_EDGE('',*,*,#604,.T.);
#764=ORIENTED_EDGE('',*,*,#605,.T.);
#765=ORIENTED_EDGE('',*,*,#606,.T.);
#766=ORIENTED_EDGE('',*,*,#607,.T.);
#767=ORIENTED_EDGE('',*,*,#608,.T.);
#768=ORIENTED_EDGE('',*,*,#609,.T.);
#769=ORIENTED_EDGE('',*,*,#610,.T.);
#770=ORIENTED_EDGE('',*,*,#611,.F.);
#771=ORIENTED_EDGE('',*,*,#612,.F.);
#772=ORIENTED_EDGE('',*,*,#613,.F.);
#773=ORIENTED_EDGE('',*,*,#614,.F.);
#774=ORIENTED_EDGE('',*,*,#603,.F.);
#775=ORIENTED_EDGE('',*,*,#615,.T.);
#776=ORIENTED_EDGE('',*,*,#616,.T.);
#777=ORIENTED_EDGE('',*,*,#617,.F.);
#778=ORIENTED_EDGE('',*,*,#602,.F.);
#779=ORIENTED_EDGE('',*,*,#618,.T.);
#780=ORIENTED_EDGE('',*,*,#619,.T.);
#781=ORIENTED_EDGE('',*,*,#620,.T.);
#782=ORIENTED_EDGE('',*,*,#621,.T.);
#783=ORIENTED_EDGE('',*,*,#622,.T.);
#784=ORIENTED_EDGE('',*,*,#606,.F.);
#785=ORIENTED_EDGE('',*,*,#623,.F.);
#786=ORIENTED_EDGE('',*,*,#624,.F.);
#787=ORIENTED_EDGE('',*,*,#615,.F.);
#788=ORIENTED_EDGE('',*,*,#601,.F.);
#789=ORIENTED_EDGE('',*,*,#625,.T.);
#790=ORIENTED_EDGE('',*,*,#626,.T.);
#791=ORIENTED_EDGE('',*,*,#618,.F.);
#792=ORIENTED_EDGE('',*,*,#600,.F.);
#793=ORIENTED_EDGE('',*,*,#627,.F.);
#794=ORIENTED_EDGE('',*,*,#628,.F.);
#795=ORIENTED_EDGE('',*,*,#625,.F.);
#796=ORIENTED_EDGE('',*,*,#599,.F.);
#797=ORIENTED_EDGE('',*,*,#629,.F.);
#798=ORIENTED_EDGE('',*,*,#630,.F.);
#799=ORIENTED_EDGE('',*,*,#620,.F.);
#800=ORIENTED_EDGE('',*,*,#631,.T.);
#801=ORIENTED_EDGE('',*,*,#627,.T.);
#802=ORIENTED_EDGE('',*,*,#598,.F.);
#803=ORIENTED_EDGE('',*,*,#632,.T.);
#804=ORIENTED_EDGE('',*,*,#633,.T.);
#805=ORIENTED_EDGE('',*,*,#629,.T.);
#806=ORIENTED_EDGE('',*,*,#597,.F.);
#807=ORIENTED_EDGE('',*,*,#634,.F.);
#808=ORIENTED_EDGE('',*,*,#635,.T.);
#809=ORIENTED_EDGE('',*,*,#636,.F.);
#810=ORIENTED_EDGE('',*,*,#637,.F.);
#811=ORIENTED_EDGE('',*,*,#638,.F.);
#812=ORIENTED_EDGE('',*,*,#639,.T.);
#813=ORIENTED_EDGE('',*,*,#640,.F.);
#814=ORIENTED_EDGE('',*,*,#641,.F.);
#815=ORIENTED_EDGE('',*,*,#632,.F.);
#816=ORIENTED_EDGE('',*,*,#642,.F.);
#817=ORIENTED_EDGE('',*,*,#643,.T.);
#818=ORIENTED_EDGE('',*,*,#614,.T.);
#819=ORIENTED_EDGE('',*,*,#643,.F.);
#820=ORIENTED_EDGE('',*,*,#644,.F.);
#821=ORIENTED_EDGE('',*,*,#645,.T.);
#822=ORIENTED_EDGE('',*,*,#613,.T.);
#823=ORIENTED_EDGE('',*,*,#645,.F.);
#824=ORIENTED_EDGE('',*,*,#646,.F.);
#825=ORIENTED_EDGE('',*,*,#647,.T.);
#826=ORIENTED_EDGE('',*,*,#612,.T.);
#827=ORIENTED_EDGE('',*,*,#647,.F.);
#828=ORIENTED_EDGE('',*,*,#648,.F.);
#829=ORIENTED_EDGE('',*,*,#649,.F.);
#830=ORIENTED_EDGE('',*,*,#650,.F.);
#831=ORIENTED_EDGE('',*,*,#651,.F.);
#832=ORIENTED_EDGE('',*,*,#652,.F.);
#833=ORIENTED_EDGE('',*,*,#653,.F.);
#834=ORIENTED_EDGE('',*,*,#654,.T.);
#835=ORIENTED_EDGE('',*,*,#611,.T.);
#836=ORIENTED_EDGE('',*,*,#654,.F.);
#837=ORIENTED_EDGE('',*,*,#607,.F.);
#838=ORIENTED_EDGE('',*,*,#622,.F.);
#839=ORIENTED_EDGE('',*,*,#655,.F.);
#840=ORIENTED_EDGE('',*,*,#650,.T.);
#841=ORIENTED_EDGE('',*,*,#656,.T.);
#842=ORIENTED_EDGE('',*,*,#657,.T.);
#843=ORIENTED_EDGE('',*,*,#658,.F.);
#844=ORIENTED_EDGE('',*,*,#649,.T.);
#845=ORIENTED_EDGE('',*,*,#659,.T.);
#846=ORIENTED_EDGE('',*,*,#660,.T.);
#847=ORIENTED_EDGE('',*,*,#656,.F.);
#848=ORIENTED_EDGE('',*,*,#636,.T.);
#849=ORIENTED_EDGE('',*,*,#661,.F.);
#850=ORIENTED_EDGE('',*,*,#638,.T.);
#851=ORIENTED_EDGE('',*,*,#662,.F.);
#852=ORIENTED_EDGE('',*,*,#662,.T.);
#853=ORIENTED_EDGE('',*,*,#637,.T.);
#854=ORIENTED_EDGE('',*,*,#663,.T.);
#855=ORIENTED_EDGE('',*,*,#664,.T.);
#856=ORIENTED_EDGE('',*,*,#665,.T.);
#857=ORIENTED_EDGE('',*,*,#666,.T.);
#858=ORIENTED_EDGE('',*,*,#667,.T.);
#859=ORIENTED_EDGE('',*,*,#668,.T.);
#860=ORIENTED_EDGE('',*,*,#669,.T.);
#861=ORIENTED_EDGE('',*,*,#670,.T.);
#862=ORIENTED_EDGE('',*,*,#671,.T.);
#863=ORIENTED_EDGE('',*,*,#672,.T.);
#864=ORIENTED_EDGE('',*,*,#673,.T.);
#865=ORIENTED_EDGE('',*,*,#674,.T.);
#866=ORIENTED_EDGE('',*,*,#675,.T.);
#867=ORIENTED_EDGE('',*,*,#648,.T.);
#868=ORIENTED_EDGE('',*,*,#653,.T.);
#869=ORIENTED_EDGE('',*,*,#676,.F.);
#870=ORIENTED_EDGE('',*,*,#639,.F.);
#871=ORIENTED_EDGE('',*,*,#661,.T.);
#872=ORIENTED_EDGE('',*,*,#635,.F.);
#873=ORIENTED_EDGE('',*,*,#677,.F.);
#874=ORIENTED_EDGE('',*,*,#678,.T.);
#875=ORIENTED_EDGE('',*,*,#659,.F.);
#876=ORIENTED_EDGE('',*,*,#644,.T.);
#877=ORIENTED_EDGE('',*,*,#679,.T.);
#878=ORIENTED_EDGE('',*,*,#680,.T.);
#879=ORIENTED_EDGE('',*,*,#681,.T.);
#880=ORIENTED_EDGE('',*,*,#682,.T.);
#881=ORIENTED_EDGE('',*,*,#683,.T.);
#882=ORIENTED_EDGE('',*,*,#684,.T.);
#883=ORIENTED_EDGE('',*,*,#685,.T.);
#884=ORIENTED_EDGE('',*,*,#686,.T.);
#885=ORIENTED_EDGE('',*,*,#687,.T.);
#886=ORIENTED_EDGE('',*,*,#646,.T.);
#887=ORIENTED_EDGE('',*,*,#642,.T.);
#888=ORIENTED_EDGE('',*,*,#652,.T.);
#889=ORIENTED_EDGE('',*,*,#688,.F.);
#890=ORIENTED_EDGE('',*,*,#640,.T.);
#891=ORIENTED_EDGE('',*,*,#676,.T.);
#892=ORIENTED_EDGE('',*,*,#651,.T.);
#893=ORIENTED_EDGE('',*,*,#655,.T.);
#894=ORIENTED_EDGE('',*,*,#621,.F.);
#895=ORIENTED_EDGE('',*,*,#630,.T.);
#896=ORIENTED_EDGE('',*,*,#633,.F.);
#897=ORIENTED_EDGE('',*,*,#641,.T.);
#898=ORIENTED_EDGE('',*,*,#688,.T.);
#899=ORIENTED_EDGE('',*,*,#610,.F.);
#900=ORIENTED_EDGE('',*,*,#689,.T.);
#901=ORIENTED_EDGE('',*,*,#677,.T.);
#902=ORIENTED_EDGE('',*,*,#634,.T.);
#903=ORIENTED_EDGE('',*,*,#609,.F.);
#904=ORIENTED_EDGE('',*,*,#690,.F.);
#905=ORIENTED_EDGE('',*,*,#657,.F.);
#906=ORIENTED_EDGE('',*,*,#660,.F.);
#907=ORIENTED_EDGE('',*,*,#678,.F.);
#908=ORIENTED_EDGE('',*,*,#689,.F.);
#909=ORIENTED_EDGE('',*,*,#691,.T.);
#910=ORIENTED_EDGE('',*,*,#692,.T.);
#911=ORIENTED_EDGE('',*,*,#663,.F.);
#912=ORIENTED_EDGE('',*,*,#693,.F.);
#913=ORIENTED_EDGE('',*,*,#694,.T.);
#914=ORIENTED_EDGE('',*,*,#695,.F.);
#915=ORIENTED_EDGE('',*,*,#664,.F.);
#916=ORIENTED_EDGE('',*,*,#692,.F.);
#917=ORIENTED_EDGE('',*,*,#696,.F.);
#918=ORIENTED_EDGE('',*,*,#693,.T.);
#919=ORIENTED_EDGE('',*,*,#665,.F.);
#920=ORIENTED_EDGE('',*,*,#695,.T.);
#921=ORIENTED_EDGE('',*,*,#697,.T.);
#922=ORIENTED_EDGE('',*,*,#698,.T.);
#923=ORIENTED_EDGE('',*,*,#666,.F.);
#924=ORIENTED_EDGE('',*,*,#699,.F.);
#925=ORIENTED_EDGE('',*,*,#700,.T.);
#926=ORIENTED_EDGE('',*,*,#701,.F.);
#927=ORIENTED_EDGE('',*,*,#667,.F.);
#928=ORIENTED_EDGE('',*,*,#698,.F.);
#929=ORIENTED_EDGE('',*,*,#702,.F.);
#930=ORIENTED_EDGE('',*,*,#699,.T.);
#931=ORIENTED_EDGE('',*,*,#668,.F.);
#932=ORIENTED_EDGE('',*,*,#701,.T.);
#933=ORIENTED_EDGE('',*,*,#703,.T.);
#934=ORIENTED_EDGE('',*,*,#704,.T.);
#935=ORIENTED_EDGE('',*,*,#669,.F.);
#936=ORIENTED_EDGE('',*,*,#705,.F.);
#937=ORIENTED_EDGE('',*,*,#706,.T.);
#938=ORIENTED_EDGE('',*,*,#707,.F.);
#939=ORIENTED_EDGE('',*,*,#670,.F.);
#940=ORIENTED_EDGE('',*,*,#704,.F.);
#941=ORIENTED_EDGE('',*,*,#708,.F.);
#942=ORIENTED_EDGE('',*,*,#705,.T.);
#943=ORIENTED_EDGE('',*,*,#671,.F.);
#944=ORIENTED_EDGE('',*,*,#707,.T.);
#945=ORIENTED_EDGE('',*,*,#709,.T.);
#946=ORIENTED_EDGE('',*,*,#710,.T.);
#947=ORIENTED_EDGE('',*,*,#672,.F.);
#948=ORIENTED_EDGE('',*,*,#710,.F.);
#949=ORIENTED_EDGE('',*,*,#711,.T.);
#950=ORIENTED_EDGE('',*,*,#712,.T.);
#951=ORIENTED_EDGE('',*,*,#673,.F.);
#952=ORIENTED_EDGE('',*,*,#713,.F.);
#953=ORIENTED_EDGE('',*,*,#714,.T.);
#954=ORIENTED_EDGE('',*,*,#715,.F.);
#955=ORIENTED_EDGE('',*,*,#674,.F.);
#956=ORIENTED_EDGE('',*,*,#712,.F.);
#957=ORIENTED_EDGE('',*,*,#716,.F.);
#958=ORIENTED_EDGE('',*,*,#713,.T.);
#959=ORIENTED_EDGE('',*,*,#675,.F.);
#960=ORIENTED_EDGE('',*,*,#715,.T.);
#961=ORIENTED_EDGE('',*,*,#679,.F.);
#962=ORIENTED_EDGE('',*,*,#717,.T.);
#963=ORIENTED_EDGE('',*,*,#718,.T.);
#964=ORIENTED_EDGE('',*,*,#717,.F.);
#965=ORIENTED_EDGE('',*,*,#680,.F.);
#966=ORIENTED_EDGE('',*,*,#719,.T.);
#967=ORIENTED_EDGE('',*,*,#720,.T.);
#968=ORIENTED_EDGE('',*,*,#719,.F.);
#969=ORIENTED_EDGE('',*,*,#681,.F.);
#970=ORIENTED_EDGE('',*,*,#721,.T.);
#971=ORIENTED_EDGE('',*,*,#722,.T.);
#972=ORIENTED_EDGE('',*,*,#721,.F.);
#973=ORIENTED_EDGE('',*,*,#682,.F.);
#974=ORIENTED_EDGE('',*,*,#723,.T.);
#975=ORIENTED_EDGE('',*,*,#724,.T.);
#976=ORIENTED_EDGE('',*,*,#723,.F.);
#977=ORIENTED_EDGE('',*,*,#683,.F.);
#978=ORIENTED_EDGE('',*,*,#725,.T.);
#979=ORIENTED_EDGE('',*,*,#726,.T.);
#980=ORIENTED_EDGE('',*,*,#725,.F.);
#981=ORIENTED_EDGE('',*,*,#684,.F.);
#982=ORIENTED_EDGE('',*,*,#727,.T.);
#983=ORIENTED_EDGE('',*,*,#728,.T.);
#984=ORIENTED_EDGE('',*,*,#727,.F.);
#985=ORIENTED_EDGE('',*,*,#685,.F.);
#986=ORIENTED_EDGE('',*,*,#729,.T.);
#987=ORIENTED_EDGE('',*,*,#730,.T.);
#988=ORIENTED_EDGE('',*,*,#729,.F.);
#989=ORIENTED_EDGE('',*,*,#686,.F.);
#990=ORIENTED_EDGE('',*,*,#731,.T.);
#991=ORIENTED_EDGE('',*,*,#732,.F.);
#992=ORIENTED_EDGE('',*,*,#731,.F.);
#993=ORIENTED_EDGE('',*,*,#687,.F.);
#994=ORIENTED_EDGE('',*,*,#733,.T.);
#995=ORIENTED_EDGE('',*,*,#734,.T.);
#996=ORIENTED_EDGE('',*,*,#733,.F.);
#997=ORIENTED_EDGE('',*,*,#608,.F.);
#998=ORIENTED_EDGE('',*,*,#658,.T.);
#999=ORIENTED_EDGE('',*,*,#690,.T.);
#1000=ORIENTED_EDGE('',*,*,#691,.F.);
#1001=ORIENTED_EDGE('',*,*,#724,.F.);
#1002=ORIENTED_EDGE('',*,*,#694,.F.);
#1003=ORIENTED_EDGE('',*,*,#696,.T.);
#1004=ORIENTED_EDGE('',*,*,#697,.F.);
#1005=ORIENTED_EDGE('',*,*,#726,.F.);
#1006=ORIENTED_EDGE('',*,*,#700,.F.);
#1007=ORIENTED_EDGE('',*,*,#702,.T.);
#1008=ORIENTED_EDGE('',*,*,#703,.F.);
#1009=ORIENTED_EDGE('',*,*,#730,.F.);
#1010=ORIENTED_EDGE('',*,*,#706,.F.);
#1011=ORIENTED_EDGE('',*,*,#708,.T.);
#1012=ORIENTED_EDGE('',*,*,#709,.F.);
#1013=ORIENTED_EDGE('',*,*,#735,.F.);
#1014=ORIENTED_EDGE('',*,*,#711,.F.);
#1015=ORIENTED_EDGE('',*,*,#728,.F.);
#1016=ORIENTED_EDGE('',*,*,#714,.F.);
#1017=ORIENTED_EDGE('',*,*,#716,.T.);
#1018=ORIENTED_EDGE('',*,*,#736,.F.);
#1019=ORIENTED_EDGE('',*,*,#718,.F.);
#1020=ORIENTED_EDGE('',*,*,#737,.F.);
#1021=ORIENTED_EDGE('',*,*,#720,.F.);
#1022=ORIENTED_EDGE('',*,*,#738,.F.);
#1023=ORIENTED_EDGE('',*,*,#722,.F.);
#1024=ORIENTED_EDGE('',*,*,#732,.T.);
#1025=ORIENTED_EDGE('',*,*,#739,.T.);
#1026=ORIENTED_EDGE('',*,*,#740,.F.);
#1027=ORIENTED_EDGE('',*,*,#734,.F.);
#1028=ORIENTED_EDGE('',*,*,#631,.F.);
#1029=ORIENTED_EDGE('',*,*,#619,.F.);
#1030=ORIENTED_EDGE('',*,*,#626,.F.);
#1031=ORIENTED_EDGE('',*,*,#628,.T.);
#1032=ORIENTED_EDGE('',*,*,#605,.F.);
#1033=ORIENTED_EDGE('',*,*,#741,.F.);
#1034=ORIENTED_EDGE('',*,*,#742,.F.);
#1035=ORIENTED_EDGE('',*,*,#623,.T.);
#1036=ORIENTED_EDGE('',*,*,#624,.T.);
#1037=ORIENTED_EDGE('',*,*,#742,.T.);
#1038=ORIENTED_EDGE('',*,*,#743,.F.);
#1039=ORIENTED_EDGE('',*,*,#616,.F.);
#1040=ORIENTED_EDGE('',*,*,#744,.F.);
#1041=ORIENTED_EDGE('',*,*,#745,.T.);
#1042=ORIENTED_EDGE('',*,*,#735,.T.);
#1043=ORIENTED_EDGE('',*,*,#745,.F.);
#1044=ORIENTED_EDGE('',*,*,#736,.T.);
#1045=ORIENTED_EDGE('',*,*,#746,.T.);
#1046=ORIENTED_EDGE('',*,*,#747,.T.);
#1047=ORIENTED_EDGE('',*,*,#746,.F.);
#1048=ORIENTED_EDGE('',*,*,#737,.T.);
#1049=ORIENTED_EDGE('',*,*,#748,.T.);
#1050=ORIENTED_EDGE('',*,*,#749,.T.);
#1051=ORIENTED_EDGE('',*,*,#748,.F.);
#1052=ORIENTED_EDGE('',*,*,#738,.T.);
#1053=ORIENTED_EDGE('',*,*,#750,.T.);
#1054=ORIENTED_EDGE('',*,*,#751,.T.);
#1055=ORIENTED_EDGE('',*,*,#750,.F.);
#1056=ORIENTED_EDGE('',*,*,#739,.F.);
#1057=ORIENTED_EDGE('',*,*,#752,.T.);
#1058=ORIENTED_EDGE('',*,*,#753,.F.);
#1059=ORIENTED_EDGE('',*,*,#752,.F.);
#1060=ORIENTED_EDGE('',*,*,#740,.T.);
#1061=ORIENTED_EDGE('',*,*,#754,.T.);
#1062=ORIENTED_EDGE('',*,*,#755,.T.);
#1063=ORIENTED_EDGE('',*,*,#754,.F.);
#1064=ORIENTED_EDGE('',*,*,#604,.F.);
#1065=ORIENTED_EDGE('',*,*,#617,.T.);
#1066=ORIENTED_EDGE('',*,*,#743,.T.);
#1067=ORIENTED_EDGE('',*,*,#741,.T.);
#1068=ORIENTED_EDGE('',*,*,#744,.T.);
#1069=ORIENTED_EDGE('',*,*,#753,.T.);
#1070=ORIENTED_EDGE('',*,*,#747,.F.);
#1071=ORIENTED_EDGE('',*,*,#749,.F.);
#1072=ORIENTED_EDGE('',*,*,#751,.F.);
#1073=ORIENTED_EDGE('',*,*,#755,.F.);
#1074=PLANE('',#1195);
#1075=PLANE('',#1201);
#1076=PLANE('',#1202);
#1077=PLANE('',#1204);
#1078=PLANE('',#1205);
#1079=PLANE('',#1209);
#1080=PLANE('',#1210);
#1081=PLANE('',#1224);
#1082=PLANE('',#1228);
#1083=PLANE('',#1242);
#1084=PLANE('',#1252);
#1085=PLANE('',#1253);
#1086=PLANE('',#1254);
#1087=PLANE('',#1255);
#1088=PLANE('',#1296);
#1089=PLANE('',#1297);
#1090=PLANE('',#1298);
#1091=PLANE('',#1299);
#1092=PLANE('',#1300);
#1093=PLANE('',#1301);
#1094=PLANE('',#1302);
#1095=PLANE('',#1303);
#1096=PLANE('',#1305);
#1097=PLANE('',#1306);
#1098=PLANE('',#1307);
#1099=PLANE('',#1309);
#1100=PLANE('',#1311);
#1101=PLANE('',#1313);
#1102=PLANE('',#1315);
#1103=PLANE('',#1317);
#1104=PLANE('',#1318);
#1105=PLANE('',#1319);
#1106=PLANE('',#1332);
#1107=PLANE('',#1333);
#1108=PLANE('',#1334);
#1109=PLANE('',#1335);
#1110=PLANE('',#1336);
#1111=PLANE('',#1337);
#1112=ADVANCED_FACE('',(#79,#47,#48,#49,#50),#1074,.F.);
#1113=ADVANCED_FACE('',(#80),#1075,.F.);
#1114=ADVANCED_FACE('',(#81),#1076,.F.);
#1115=ADVANCED_FACE('',(#82),#1077,.T.);
#1116=ADVANCED_FACE('',(#83),#1078,.F.);
#1117=ADVANCED_FACE('',(#84),#16,.F.);
#1118=ADVANCED_FACE('',(#85),#1079,.T.);
#1119=ADVANCED_FACE('',(#86),#1080,.F.);
#1120=ADVANCED_FACE('',(#87),#17,.F.);
#1121=ADVANCED_FACE('',(#88),#18,.F.);
#1122=ADVANCED_FACE('',(#89),#19,.F.);
#1123=ADVANCED_FACE('',(#90),#20,.F.);
#1124=ADVANCED_FACE('',(#91),#21,.T.);
#1125=ADVANCED_FACE('',(#92),#1081,.F.);
#1126=ADVANCED_FACE('',(#93),#22,.T.);
#1127=ADVANCED_FACE('',(#94,#51,#52,#53,#54,#55),#1082,.T.);
#1128=ADVANCED_FACE('',(#95,#56,#57,#58,#59,#60,#61,#62,#63,#64,#65,#66,
#67),#1083,.T.);
#1129=ADVANCED_FACE('',(#96),#1084,.F.);
#1130=ADVANCED_FACE('',(#97),#1085,.F.);
#1131=ADVANCED_FACE('',(#98),#1086,.T.);
#1132=ADVANCED_FACE('',(#99),#1087,.F.);
#1133=ADVANCED_FACE('',(#100),#23,.F.);
#1134=ADVANCED_FACE('',(#101),#24,.T.);
#1135=ADVANCED_FACE('',(#102),#25,.F.);
#1136=ADVANCED_FACE('',(#103),#26,.T.);
#1137=ADVANCED_FACE('',(#104),#27,.F.);
#1138=ADVANCED_FACE('',(#105),#28,.T.);
#1139=ADVANCED_FACE('',(#106),#29,.T.);
#1140=ADVANCED_FACE('',(#107),#30,.F.);
#1141=ADVANCED_FACE('',(#108),#31,.T.);
#1142=ADVANCED_FACE('',(#109),#32,.F.);
#1143=ADVANCED_FACE('',(#110),#33,.F.);
#1144=ADVANCED_FACE('',(#111),#34,.F.);
#1145=ADVANCED_FACE('',(#112),#35,.F.);
#1146=ADVANCED_FACE('',(#113),#36,.F.);
#1147=ADVANCED_FACE('',(#114),#37,.F.);
#1148=ADVANCED_FACE('',(#115),#38,.F.);
#1149=ADVANCED_FACE('',(#116),#39,.F.);
#1150=ADVANCED_FACE('',(#117),#40,.F.);
#1151=ADVANCED_FACE('',(#118),#1088,.T.);
#1152=ADVANCED_FACE('',(#119,#68),#1089,.F.);
#1153=ADVANCED_FACE('',(#120),#1090,.T.);
#1154=ADVANCED_FACE('',(#121,#69),#1091,.F.);
#1155=ADVANCED_FACE('',(#122),#1092,.T.);
#1156=ADVANCED_FACE('',(#123,#70),#1093,.F.);
#1157=ADVANCED_FACE('',(#124),#1094,.T.);
#1158=ADVANCED_FACE('',(#125,#71),#1095,.T.);
#1159=ADVANCED_FACE('',(#126,#72),#1096,.F.);
#1160=ADVANCED_FACE('',(#127),#1097,.T.);
#1161=ADVANCED_FACE('',(#128,#73),#1098,.F.);
#1162=ADVANCED_FACE('',(#129,#74),#1099,.F.);
#1163=ADVANCED_FACE('',(#130,#75),#1100,.F.);
#1164=ADVANCED_FACE('',(#131,#76),#1101,.T.);
#1165=ADVANCED_FACE('',(#132,#77),#1102,.F.);
#1166=ADVANCED_FACE('',(#133),#1103,.T.);
#1167=ADVANCED_FACE('',(#134),#1104,.F.);
#1168=ADVANCED_FACE('',(#135),#1105,.F.);
#1169=ADVANCED_FACE('',(#136),#41,.T.);
#1170=ADVANCED_FACE('',(#137),#42,.F.);
#1171=ADVANCED_FACE('',(#138),#43,.F.);
#1172=ADVANCED_FACE('',(#139),#44,.F.);
#1173=ADVANCED_FACE('',(#140),#45,.F.);
#1174=ADVANCED_FACE('',(#141),#46,.F.);
#1175=ADVANCED_FACE('',(#142),#1106,.T.);
#1176=ADVANCED_FACE('',(#143,#78),#1107,.T.);
#1177=ADVANCED_FACE('',(#144),#1108,.F.);
#1178=ADVANCED_FACE('',(#145),#1109,.F.);
#1179=ADVANCED_FACE('',(#146),#1110,.F.);
#1180=ADVANCED_FACE('',(#147),#1111,.F.);
#1181=CLOSED_SHELL('',(#1112,#1113,#1114,#1115,#1116,#1117,#1118,#1119,
#1120,#1121,#1122,#1123,#1124,#1125,#1126,#1127,#1128,#1129,#1130,#1131,
#1132,#1133,#1134,#1135,#1136,#1137,#1138,#1139,#1140,#1141,#1142,#1143,
#1144,#1145,#1146,#1147,#1148,#1149,#1150,#1151,#1152,#1153,#1154,#1155,
#1156,#1157,#1158,#1159,#1160,#1161,#1162,#1163,#1164,#1165,#1166,#1167,
#1168,#1169,#1170,#1171,#1172,#1173,#1174,#1175,#1176,#1177,#1178,#1179,
#1180));
#1182=DERIVED_UNIT_ELEMENT(#1184,1.);
#1183=DERIVED_UNIT_ELEMENT(#2055,-3.);
#1184=(
MASS_UNIT()
NAMED_UNIT(*)
SI_UNIT(.KILO.,.GRAM.)
);
#1185=DERIVED_UNIT((#1182,#1183));
#1186=MEASURE_REPRESENTATION_ITEM('density measure',
POSITIVE_RATIO_MEASURE(7850.),#1185);
#1187=PROPERTY_DEFINITION_REPRESENTATION(#1192,#1189);
#1188=PROPERTY_DEFINITION_REPRESENTATION(#1193,#1190);
#1189=REPRESENTATION('material name',(#1191),#2052);
#1190=REPRESENTATION('density',(#1186),#2052);
#1191=DESCRIPTIVE_REPRESENTATION_ITEM('Steel','Steel');
#1192=PROPERTY_DEFINITION('material property','material name',#2062);
#1193=PROPERTY_DEFINITION('material property','density of part',#2062);
#1194=AXIS2_PLACEMENT_3D('',#1710,#1338,#1339);
#1195=AXIS2_PLACEMENT_3D('',#1711,#1340,#1341);
#1196=AXIS2_PLACEMENT_3D('',#1718,#1344,#1345);
#1197=AXIS2_PLACEMENT_3D('',#1741,#1357,#1358);
#1198=AXIS2_PLACEMENT_3D('',#1743,#1359,#1360);
#1199=AXIS2_PLACEMENT_3D('',#1745,#1361,#1362);
#1200=AXIS2_PLACEMENT_3D('',#1747,#1363,#1364);
#1201=AXIS2_PLACEMENT_3D('',#1748,#1365,#1366);
#1202=AXIS2_PLACEMENT_3D('',#1754,#1370,#1371);
#1203=AXIS2_PLACEMENT_3D('',#1763,#1376,#1377);
#1204=AXIS2_PLACEMENT_3D('',#1767,#1380,#1381);
#1205=AXIS2_PLACEMENT_3D('',#1771,#1384,#1385);
#1206=AXIS2_PLACEMENT_3D('',#1775,#1388,#1389);
#1207=AXIS2_PLACEMENT_3D('',#1778,#1391,#1392);
#1208=AXIS2_PLACEMENT_3D('',#1779,#1393,#1394);
#1209=AXIS2_PLACEMENT_3D('',#1780,#1395,#1396);
#1210=AXIS2_PLACEMENT_3D('',#1784,#1399,#1400);
#1211=AXIS2_PLACEMENT_3D('',#1800,#1409,#1410);
#1212=AXIS2_PLACEMENT_3D('',#1802,#1411,#1412);
#1213=AXIS2_PLACEMENT_3D('',#1804,#1414,#1415);
#1214=AXIS2_PLACEMENT_3D('',#1806,#1416,#1417);
#1215=AXIS2_PLACEMENT_3D('',#1808,#1419,#1420);
#1216=AXIS2_PLACEMENT_3D('',#1810,#1421,#1422);
#1217=AXIS2_PLACEMENT_3D('',#1812,#1424,#1425);
#1218=AXIS2_PLACEMENT_3D('',#1815,#1426,#1427);
#1219=AXIS2_PLACEMENT_3D('',#1826,#1429,#1430);
#1220=AXIS2_PLACEMENT_3D('',#1829,#1432,#1433);
#1221=AXIS2_PLACEMENT_3D('',#1831,#1435,#1436);
#1222=AXIS2_PLACEMENT_3D('',#1834,#1438,#1439);
#1223=AXIS2_PLACEMENT_3D('',#1837,#1441,#1442);
#1224=AXIS2_PLACEMENT_3D('',#1838,#1443,#1444);
#1225=AXIS2_PLACEMENT_3D('',#1842,#1447,#1448);
#1226=AXIS2_PLACEMENT_3D('',#1843,#1449,#1450);
#1227=AXIS2_PLACEMENT_3D('',#1844,#1451,#1452);
#1228=AXIS2_PLACEMENT_3D('',#1845,#1453,#1454);
#1229=AXIS2_PLACEMENT_3D('',#1848,#1455,#1456);
#1230=AXIS2_PLACEMENT_3D('',#1850,#1457,#1458);
#1231=AXIS2_PLACEMENT_3D('',#1851,#1459,#1460);
#1232=AXIS2_PLACEMENT_3D('',#1854,#1461,#1462);
#1233=AXIS2_PLACEMENT_3D('',#1856,#1463,#1464);
#1234=AXIS2_PLACEMENT_3D('',#1857,#1465,#1466);
#1235=AXIS2_PLACEMENT_3D('',#1860,#1467,#1468);
#1236=AXIS2_PLACEMENT_3D('',#1862,#1469,#1470);
#1237=AXIS2_PLACEMENT_3D('',#1863,#1471,#1472);
#1238=AXIS2_PLACEMENT_3D('',#1865,#1473,#1474);
#1239=AXIS2_PLACEMENT_3D('',#1868,#1475,#1476);
#1240=AXIS2_PLACEMENT_3D('',#1870,#1477,#1478);
#1241=AXIS2_PLACEMENT_3D('',#1871,#1479,#1480);
#1242=AXIS2_PLACEMENT_3D('',#1872,#1481,#1482);
#1243=AXIS2_PLACEMENT_3D('',#1878,#1486,#1487);
#1244=AXIS2_PLACEMENT_3D('',#1880,#1488,#1489);
#1245=AXIS2_PLACEMENT_3D('',#1882,#1490,#1491);
#1246=AXIS2_PLACEMENT_3D('',#1884,#1492,#1493);
#1247=AXIS2_PLACEMENT_3D('',#1886,#1494,#1495);
#1248=AXIS2_PLACEMENT_3D('',#1888,#1496,#1497);
#1249=AXIS2_PLACEMENT_3D('',#1890,#1498,#1499);
#1250=AXIS2_PLACEMENT_3D('',#1892,#1500,#1501);
#1251=AXIS2_PLACEMENT_3D('',#1894,#1502,#1503);
#1252=AXIS2_PLACEMENT_3D('',#1895,#1504,#1505);
#1253=AXIS2_PLACEMENT_3D('',#1897,#1507,#1508);
#1254=AXIS2_PLACEMENT_3D('',#1898,#1509,#1510);
#1255=AXIS2_PLACEMENT_3D('',#1900,#1512,#1513);
#1256=AXIS2_PLACEMENT_3D('',#1902,#1515,#1516);
#1257=AXIS2_PLACEMENT_3D('',#1904,#1517,#1518);
#1258=AXIS2_PLACEMENT_3D('',#1909,#1521,#1522);
#1259=AXIS2_PLACEMENT_3D('',#1911,#1524,#1525);
#1260=AXIS2_PLACEMENT_3D('',#1912,#1526,#1527);
#1261=AXIS2_PLACEMENT_3D('',#1913,#1528,#1529);
#1262=AXIS2_PLACEMENT_3D('',#1915,#1530,#1531);
#1263=AXIS2_PLACEMENT_3D('',#1920,#1534,#1535);
#1264=AXIS2_PLACEMENT_3D('',#1922,#1537,#1538);
#1265=AXIS2_PLACEMENT_3D('',#1923,#1539,#1540);
#1266=AXIS2_PLACEMENT_3D('',#1924,#1541,#1542);
#1267=AXIS2_PLACEMENT_3D('',#1926,#1543,#1544);
#1268=AXIS2_PLACEMENT_3D('',#1931,#1547,#1548);
#1269=AXIS2_PLACEMENT_3D('',#1933,#1550,#1551);
#1270=AXIS2_PLACEMENT_3D('',#1934,#1552,#1553);
#1271=AXIS2_PLACEMENT_3D('',#1935,#1554,#1555);
#1272=AXIS2_PLACEMENT_3D('',#1937,#1556,#1557);
#1273=AXIS2_PLACEMENT_3D('',#1939,#1559,#1560);
#1274=AXIS2_PLACEMENT_3D('',#1941,#1561,#1562);
#1275=AXIS2_PLACEMENT_3D('',#1946,#1565,#1566);
#1276=AXIS2_PLACEMENT_3D('',#1948,#1568,#1569);
#1277=AXIS2_PLACEMENT_3D('',#1949,#1570,#1571);
#1278=AXIS2_PLACEMENT_3D('',#1950,#1572,#1573);
#1279=AXIS2_PLACEMENT_3D('',#1953,#1575,#1576);
#1280=AXIS2_PLACEMENT_3D('',#1954,#1577,#1578);
#1281=AXIS2_PLACEMENT_3D('',#1957,#1580,#1581);
#1282=AXIS2_PLACEMENT_3D('',#1958,#1582,#1583);
#1283=AXIS2_PLACEMENT_3D('',#1961,#1585,#1586);
#1284=AXIS2_PLACEMENT_3D('',#1962,#1587,#1588);
#1285=AXIS2_PLACEMENT_3D('',#1965,#1590,#1591);
#1286=AXIS2_PLACEMENT_3D('',#1966,#1592,#1593);
#1287=AXIS2_PLACEMENT_3D('',#1969,#1595,#1596);
#1288=AXIS2_PLACEMENT_3D('',#1970,#1597,#1598);
#1289=AXIS2_PLACEMENT_3D('',#1973,#1600,#1601);
#1290=AXIS2_PLACEMENT_3D('',#1974,#1602,#1603);
#1291=AXIS2_PLACEMENT_3D('',#1977,#1605,#1606);
#1292=AXIS2_PLACEMENT_3D('',#1978,#1607,#1608);
#1293=AXIS2_PLACEMENT_3D('',#1981,#1610,#1611);
#1294=AXIS2_PLACEMENT_3D('',#1982,#1612,#1613);
#1295=AXIS2_PLACEMENT_3D('',#1985,#1615,#1616);
#1296=AXIS2_PLACEMENT_3D('',#1986,#1617,#1618);
#1297=AXIS2_PLACEMENT_3D('',#1987,#1619,#1620);
#1298=AXIS2_PLACEMENT_3D('',#1988,#1621,#1622);
#1299=AXIS2_PLACEMENT_3D('',#1989,#1623,#1624);
#1300=AXIS2_PLACEMENT_3D('',#1990,#1625,#1626);
#1301=AXIS2_PLACEMENT_3D('',#1991,#1627,#1628);
#1302=AXIS2_PLACEMENT_3D('',#1992,#1629,#1630);
#1303=AXIS2_PLACEMENT_3D('',#1993,#1631,#1632);
#1304=AXIS2_PLACEMENT_3D('',#1995,#1633,#1634);
#1305=AXIS2_PLACEMENT_3D('',#1996,#1635,#1636);
#1306=AXIS2_PLACEMENT_3D('',#1997,#1637,#1638);
#1307=AXIS2_PLACEMENT_3D('',#1998,#1639,#1640);
#1308=AXIS2_PLACEMENT_3D('',#2000,#1641,#1642);
#1309=AXIS2_PLACEMENT_3D('',#2001,#1643,#1644);
#1310=AXIS2_PLACEMENT_3D('',#2003,#1645,#1646);
#1311=AXIS2_PLACEMENT_3D('',#2004,#1647,#1648);
#1312=AXIS2_PLACEMENT_3D('',#2006,#1649,#1650);
#1313=AXIS2_PLACEMENT_3D('',#2007,#1651,#1652);
#1314=AXIS2_PLACEMENT_3D('',#2009,#1653,#1654);
#1315=AXIS2_PLACEMENT_3D('',#2010,#1655,#1656);
#1316=AXIS2_PLACEMENT_3D('',#2012,#1657,#1658);
#1317=AXIS2_PLACEMENT_3D('',#2013,#1659,#1660);
#1318=AXIS2_PLACEMENT_3D('',#2014,#1661,#1662);
#1319=AXIS2_PLACEMENT_3D('',#2018,#1665,#1666);
#1320=AXIS2_PLACEMENT_3D('',#2020,#1668,#1669);
#1321=AXIS2_PLACEMENT_3D('',#2022,#1670,#1671);
#1322=AXIS2_PLACEMENT_3D('',#2024,#1673,#1674);
#1323=AXIS2_PLACEMENT_3D('',#2027,#1676,#1677);
#1324=AXIS2_PLACEMENT_3D('',#2028,#1678,#1679);
#1325=AXIS2_PLACEMENT_3D('',#2031,#1681,#1682);
#1326=AXIS2_PLACEMENT_3D('',#2032,#1683,#1684);
#1327=AXIS2_PLACEMENT_3D('',#2035,#1686,#1687);
#1328=AXIS2_PLACEMENT_3D('',#2036,#1688,#1689);
#1329=AXIS2_PLACEMENT_3D('',#2039,#1691,#1692);
#1330=AXIS2_PLACEMENT_3D('',#2040,#1693,#1694);
#1331=AXIS2_PLACEMENT_3D('',#2043,#1696,#1697);
#1332=AXIS2_PLACEMENT_3D('',#2044,#1698,#1699);
#1333=AXIS2_PLACEMENT_3D('',#2045,#1700,#1701);
#1334=AXIS2_PLACEMENT_3D('',#2046,#1702,#1703);
#1335=AXIS2_PLACEMENT_3D('',#2047,#1704,#1705);
#1336=AXIS2_PLACEMENT_3D('',#2048,#1706,#1707);
#1337=AXIS2_PLACEMENT_3D('',#2049,#1708,#1709);
#1338=DIRECTION('axis',(0.,0.,1.));
#1339=DIRECTION('refdir',(1.,0.,0.));
#1340=DIRECTION('center_axis',(0.,-1.,0.));
#1341=DIRECTION('ref_axis',(0.,0.,-1.));
#1342=DIRECTION('',(0.,0.,-1.));
#1343=DIRECTION('',(1.,0.,0.));
#1344=DIRECTION('center_axis',(0.,-1.,0.));
#1345=DIRECTION('ref_axis',(1.,0.,0.));
#1346=DIRECTION('',(-1.,0.,0.));
#1347=DIRECTION('',(0.,0.,-1.));
#1348=DIRECTION('',(-1.,0.,0.));
#1349=DIRECTION('',(0.,0.,-1.));
#1350=DIRECTION('',(-1.,0.,0.));
#1351=DIRECTION('',(0.,0.,1.));
#1352=DIRECTION('',(-1.,0.,0.));
#1353=DIRECTION('',(0.,0.,1.));
#1354=DIRECTION('',(1.,0.,0.));
#1355=DIRECTION('',(0.,0.,1.));
#1356=DIRECTION('',(1.,0.,0.));
#1357=DIRECTION('center_axis',(0.,1.,0.));
#1358=DIRECTION('ref_axis',(1.,0.,0.));
#1359=DIRECTION('center_axis',(0.,1.,0.));
#1360=DIRECTION('ref_axis',(1.,0.,0.));
#1361=DIRECTION('center_axis',(0.,1.,0.));
#1362=DIRECTION('ref_axis',(1.,0.,0.));
#1363=DIRECTION('center_axis',(0.,1.,0.));
#1364=DIRECTION('ref_axis',(1.,0.,0.));
#1365=DIRECTION('center_axis',(-1.,0.,0.));
#1366=DIRECTION('ref_axis',(0.,0.,1.));
#1367=DIRECTION('',(0.,-1.,0.));
#1368=DIRECTION('',(0.,0.,-1.));
#1369=DIRECTION('',(0.,-1.,0.));
#1370=DIRECTION('center_axis',(0.,0.,1.));
#1371=DIRECTION('ref_axis',(1.,0.,0.));
#1372=DIRECTION('',(0.,-1.,0.));
#1373=DIRECTION('',(1.,0.,0.));
#1374=DIRECTION('',(0.,-1.,0.));
#1375=DIRECTION('',(-1.,0.,0.));
#1376=DIRECTION('center_axis',(0.,0.,-1.));
#1377=DIRECTION('ref_axis',(1.,0.,0.));
#1378=DIRECTION('',(0.,1.,0.));
#1379=DIRECTION('',(-1.,0.,0.));
#1380=DIRECTION('center_axis',(1.,0.,0.));
#1381=DIRECTION('ref_axis',(0.,0.,-1.));
#1382=DIRECTION('',(0.,-1.,0.));
#1383=DIRECTION('',(0.,0.,-1.));
#1384=DIRECTION('center_axis',(0.,0.,1.));
#1385=DIRECTION('ref_axis',(1.,0.,0.));
#1386=DIRECTION('',(0.,1.,0.));
#1387=DIRECTION('',(1.,0.,0.));
#1388=DIRECTION('center_axis',(0.,1.,0.));
#1389=DIRECTION('ref_axis',(1.,0.,0.));
#1390=DIRECTION('',(0.,1.,0.));
#1391=DIRECTION('center_axis',(0.,1.,0.));
#1392=DIRECTION('ref_axis',(1.,0.,0.));
#1393=DIRECTION('center_axis',(0.,1.,0.));
#1394=DIRECTION('ref_axis',(1.,0.,0.));
#1395=DIRECTION('center_axis',(0.,0.,1.));
#1396=DIRECTION('ref_axis',(1.,0.,0.));
#1397=DIRECTION('',(0.,-1.,0.));
#1398=DIRECTION('',(1.,0.,0.));
#1399=DIRECTION('center_axis',(-1.,0.,0.));
#1400=DIRECTION('ref_axis',(0.,0.,1.));
#1401=DIRECTION('',(0.,1.,0.));
#1402=DIRECTION('',(0.,0.,-1.));
#1403=DIRECTION('',(0.,-1.,0.));
#1404=DIRECTION('',(0.,0.,1.));
#1405=DIRECTION('',(0.,1.,0.));
#1406=DIRECTION('',(0.,0.,-1.));
#1407=DIRECTION('',(0.,-1.,0.));
#1408=DIRECTION('',(0.,0.,-1.));
#1409=DIRECTION('center_axis',(0.,1.,0.));
#1410=DIRECTION('ref_axis',(1.,0.,0.));
#1411=DIRECTION('center_axis',(0.,1.,0.));
#1412=DIRECTION('ref_axis',(1.,0.,0.));
#1413=DIRECTION('',(0.,1.,0.));
#1414=DIRECTION('center_axis',(0.,1.,0.));
#1415=DIRECTION('ref_axis',(1.,0.,0.));
#1416=DIRECTION('center_axis',(0.,1.,0.));
#1417=DIRECTION('ref_axis',(1.,0.,0.));
#1418=DIRECTION('',(0.,1.,0.));
#1419=DIRECTION('center_axis',(0.,1.,0.));
#1420=DIRECTION('ref_axis',(1.,0.,0.));
#1421=DIRECTION('center_axis',(0.,1.,0.));
#1422=DIRECTION('ref_axis',(1.,0.,0.));
#1423=DIRECTION('',(0.,1.,0.));
#1424=DIRECTION('center_axis',(0.,1.,0.));
#1425=DIRECTION('ref_axis',(1.,0.,0.));
#1426=DIRECTION('center_axis',(0.,1.,0.));
#1427=DIRECTION('ref_axis',(1.,0.,0.));
#1428=DIRECTION('',(0.,-1.,0.));
#1429=DIRECTION('center_axis',(0.,1.,0.));
#1430=DIRECTION('ref_axis',(1.,0.,0.));
#1431=DIRECTION('',(0.,1.,0.));
#1432=DIRECTION('center_axis',(0.,1.,0.));
#1433=DIRECTION('ref_axis',(1.,0.,0.));
#1434=DIRECTION('',(0.,1.,0.));
#1435=DIRECTION('center_axis',(0.,0.,1.));
#1436=DIRECTION('ref_axis',(1.,0.,0.));
#1437=DIRECTION('',(0.,0.,-1.));
#1438=DIRECTION('center_axis',(0.,0.,-1.));
#1439=DIRECTION('ref_axis',(1.,0.,0.));
#1440=DIRECTION('',(0.,0.,1.));
#1441=DIRECTION('center_axis',(0.,0.,1.));
#1442=DIRECTION('ref_axis',(1.,0.,0.));
#1443=DIRECTION('center_axis',(0.,0.,1.));
#1444=DIRECTION('ref_axis',(1.,0.,0.));
#1445=DIRECTION('',(-1.,0.,0.));
#1446=DIRECTION('',(0.,1.,0.));
#1447=DIRECTION('center_axis',(0.,1.,0.));
#1448=DIRECTION('ref_axis',(1.,0.,0.));
#1449=DIRECTION('center_axis',(0.,-1.,0.));
#1450=DIRECTION('ref_axis',(1.,0.,0.));
#1451=DIRECTION('center_axis',(0.,1.,0.));
#1452=DIRECTION('ref_axis',(1.,0.,0.));
#1453=DIRECTION('center_axis',(0.,1.,0.));
#1454=DIRECTION('ref_axis',(1.,0.,0.));
#1455=DIRECTION('center_axis',(0.,-1.,0.));
#1456=DIRECTION('ref_axis',(1.,0.,0.));
#1457=DIRECTION('center_axis',(0.,-1.,0.));
#1458=DIRECTION('ref_axis',(1.,0.,0.));
#1459=DIRECTION('center_axis',(0.,-1.,0.));
#1460=DIRECTION('ref_axis',(1.,0.,0.));
#1461=DIRECTION('center_axis',(0.,-1.,0.));
#1462=DIRECTION('ref_axis',(1.,0.,0.));
#1463=DIRECTION('center_axis',(0.,-1.,0.));
#1464=DIRECTION('ref_axis',(1.,0.,0.));
#1465=DIRECTION('center_axis',(0.,-1.,0.));
#1466=DIRECTION('ref_axis',(1.,0.,0.));
#1467=DIRECTION('center_axis',(0.,-1.,0.));
#1468=DIRECTION('ref_axis',(1.,0.,0.));
#1469=DIRECTION('center_axis',(0.,-1.,0.));
#1470=DIRECTION('ref_axis',(1.,0.,0.));
#1471=DIRECTION('center_axis',(0.,-1.,0.));
#1472=DIRECTION('ref_axis',(1.,0.,0.));
#1473=DIRECTION('center_axis',(0.,-1.,0.));
#1474=DIRECTION('ref_axis',(1.,0.,0.));
#1475=DIRECTION('center_axis',(0.,-1.,0.));
#1476=DIRECTION('ref_axis',(1.,0.,0.));
#1477=DIRECTION('center_axis',(0.,-1.,0.));
#1478=DIRECTION('ref_axis',(1.,0.,0.));
#1479=DIRECTION('center_axis',(0.,-1.,0.));
#1480=DIRECTION('ref_axis',(1.,0.,0.));
#1481=DIRECTION('center_axis',(0.,-1.,0.));
#1482=DIRECTION('ref_axis',(-1.,0.,0.));
#1483=DIRECTION('',(-1.,0.,0.));
#1484=DIRECTION('',(1.,0.,0.));
#1485=DIRECTION('',(0.,0.,-1.));
#1486=DIRECTION('center_axis',(0.,1.,0.));
#1487=DIRECTION('ref_axis',(1.,0.,0.));
#1488=DIRECTION('center_axis',(0.,1.,0.));
#1489=DIRECTION('ref_axis',(1.,0.,0.));
#1490=DIRECTION('center_axis',(0.,1.,0.));
#1491=DIRECTION('ref_axis',(1.,0.,0.));
#1492=DIRECTION('center_axis',(0.,1.,0.));
#1493=DIRECTION('ref_axis',(1.,0.,0.));
#1494=DIRECTION('center_axis',(0.,1.,0.));
#1495=DIRECTION('ref_axis',(1.,0.,0.));
#1496=DIRECTION('center_axis',(0.,1.,0.));
#1497=DIRECTION('ref_axis',(1.,0.,0.));
#1498=DIRECTION('center_axis',(0.,1.,0.));
#1499=DIRECTION('ref_axis',(1.,0.,0.));
#1500=DIRECTION('center_axis',(0.,1.,0.));
#1501=DIRECTION('ref_axis',(1.,0.,0.));
#1502=DIRECTION('center_axis',(0.,1.,0.));
#1503=DIRECTION('ref_axis',(1.,0.,0.));
#1504=DIRECTION('center_axis',(0.,0.,1.));
#1505=DIRECTION('ref_axis',(1.,0.,0.));
#1506=DIRECTION('',(-1.,0.,0.));
#1507=DIRECTION('center_axis',(0.,1.,0.));
#1508=DIRECTION('ref_axis',(0.,0.,1.));
#1509=DIRECTION('center_axis',(0.,0.,1.));
#1510=DIRECTION('ref_axis',(1.,0.,0.));
#1511=DIRECTION('',(0.,-1.,0.));
#1512=DIRECTION('center_axis',(1.,0.,0.));
#1513=DIRECTION('ref_axis',(0.,0.,-1.));
#1514=DIRECTION('',(0.,1.,0.));
#1515=DIRECTION('center_axis',(0.,1.,0.));
#1516=DIRECTION('ref_axis',(1.,0.,0.));
#1517=DIRECTION('center_axis',(0.,-1.,0.));
#1518=DIRECTION('ref_axis',(1.,0.,0.));
#1519=DIRECTION('',(0.,1.,0.));
#1520=DIRECTION('',(0.,-1.,0.));
#1521=DIRECTION('center_axis',(0.,1.,0.));
#1522=DIRECTION('ref_axis',(1.,0.,0.));
#1523=DIRECTION('',(0.,1.,0.));
#1524=DIRECTION('center_axis',(0.,1.,0.));
#1525=DIRECTION('ref_axis',(-0.707106781187282,0.,-0.707106781185813));
#1526=DIRECTION('center_axis',(0.,1.,0.));
#1527=DIRECTION('ref_axis',(1.,0.,0.));
#1528=DIRECTION('center_axis',(0.,1.,0.));
#1529=DIRECTION('ref_axis',(1.,0.,0.));
#1530=DIRECTION('center_axis',(0.,-1.,0.));
#1531=DIRECTION('ref_axis',(1.,0.,0.));
#1532=DIRECTION('',(0.,1.,0.));
#1533=DIRECTION('',(0.,-1.,0.));
#1534=DIRECTION('center_axis',(0.,1.,0.));
#1535=DIRECTION('ref_axis',(1.,0.,0.));
#1536=DIRECTION('',(0.,1.,0.));
#1537=DIRECTION('center_axis',(0.,1.,0.));
#1538=DIRECTION('ref_axis',(-0.707106781187278,0.,0.707106781185817));
#1539=DIRECTION('center_axis',(0.,1.,0.));
#1540=DIRECTION('ref_axis',(1.,0.,0.));
#1541=DIRECTION('center_axis',(0.,1.,0.));
#1542=DIRECTION('ref_axis',(1.,0.,0.));
#1543=DIRECTION('center_axis',(0.,-1.,0.));
#1544=DIRECTION('ref_axis',(1.,0.,0.));
#1545=DIRECTION('',(0.,1.,0.));
#1546=DIRECTION('',(0.,-1.,0.));
#1547=DIRECTION('center_axis',(0.,1.,0.));
#1548=DIRECTION('ref_axis',(1.,0.,0.));
#1549=DIRECTION('',(0.,1.,0.));
#1550=DIRECTION('center_axis',(0.,1.,0.));
#1551=DIRECTION('ref_axis',(0.707106781186547,0.,0.707106781186548));
#1552=DIRECTION('center_axis',(0.,1.,0.));
#1553=DIRECTION('ref_axis',(1.,0.,0.));
#1554=DIRECTION('center_axis',(0.,1.,0.));
#1555=DIRECTION('ref_axis',(1.,0.,0.));
#1556=DIRECTION('center_axis',(0.,-1.,0.));
#1557=DIRECTION('ref_axis',(1.,0.,0.));
#1558=DIRECTION('',(0.,-1.,0.));
#1559=DIRECTION('center_axis',(0.,1.,0.));
#1560=DIRECTION('ref_axis',(1.,0.,0.));
#1561=DIRECTION('center_axis',(0.,-1.,0.));
#1562=DIRECTION('ref_axis',(1.,0.,0.));
#1563=DIRECTION('',(0.,1.,0.));
#1564=DIRECTION('',(0.,-1.,0.));
#1565=DIRECTION('center_axis',(0.,1.,0.));
#1566=DIRECTION('ref_axis',(1.,0.,0.));
#1567=DIRECTION('',(0.,1.,0.));
#1568=DIRECTION('center_axis',(0.,1.,0.));
#1569=DIRECTION('ref_axis',(0.707106781186551,0.,-0.707106781186544));
#1570=DIRECTION('center_axis',(0.,1.,0.));
#1571=DIRECTION('ref_axis',(1.,0.,0.));
#1572=DIRECTION('center_axis',(0.,1.,0.));
#1573=DIRECTION('ref_axis',(1.,0.,0.));
#1574=DIRECTION('',(0.,1.,0.));
#1575=DIRECTION('center_axis',(0.,1.,0.));
#1576=DIRECTION('ref_axis',(1.,0.,0.));
#1577=DIRECTION('center_axis',(0.,1.,0.));
#1578=DIRECTION('ref_axis',(1.,0.,0.));
#1579=DIRECTION('',(0.,1.,0.));
#1580=DIRECTION('center_axis',(0.,1.,0.));
#1581=DIRECTION('ref_axis',(1.,0.,0.));
#1582=DIRECTION('center_axis',(0.,1.,0.));
#1583=DIRECTION('ref_axis',(1.,0.,0.));
#1584=DIRECTION('',(0.,1.,0.));
#1585=DIRECTION('center_axis',(0.,1.,0.));
#1586=DIRECTION('ref_axis',(1.,0.,0.));
#1587=DIRECTION('center_axis',(0.,1.,0.));
#1588=DIRECTION('ref_axis',(1.,0.,0.));
#1589=DIRECTION('',(0.,1.,0.));
#1590=DIRECTION('center_axis',(0.,1.,0.));
#1591=DIRECTION('ref_axis',(1.,0.,0.));
#1592=DIRECTION('center_axis',(0.,1.,0.));
#1593=DIRECTION('ref_axis',(1.,0.,0.));
#1594=DIRECTION('',(0.,1.,0.));
#1595=DIRECTION('center_axis',(0.,1.,0.));
#1596=DIRECTION('ref_axis',(1.,0.,0.));
#1597=DIRECTION('center_axis',(0.,1.,0.));
#1598=DIRECTION('ref_axis',(1.,0.,0.));
#1599=DIRECTION('',(0.,1.,0.));
#1600=DIRECTION('center_axis',(0.,1.,0.));
#1601=DIRECTION('ref_axis',(1.,0.,0.));
#1602=DIRECTION('center_axis',(0.,1.,0.));
#1603=DIRECTION('ref_axis',(1.,0.,0.));
#1604=DIRECTION('',(0.,1.,0.));
#1605=DIRECTION('center_axis',(0.,1.,0.));
#1606=DIRECTION('ref_axis',(1.,0.,0.));
#1607=DIRECTION('center_axis',(0.,1.,0.));
#1608=DIRECTION('ref_axis',(1.,0.,0.));
#1609=DIRECTION('',(0.,1.,0.));
#1610=DIRECTION('center_axis',(0.,-1.,0.));
#1611=DIRECTION('ref_axis',(1.,0.,0.));
#1612=DIRECTION('center_axis',(0.,1.,0.));
#1613=DIRECTION('ref_axis',(1.,0.,0.));
#1614=DIRECTION('',(0.,1.,0.));
#1615=DIRECTION('center_axis',(0.,1.,0.));
#1616=DIRECTION('ref_axis',(1.,0.,0.));
#1617=DIRECTION('center_axis',(0.,0.,1.));
#1618=DIRECTION('ref_axis',(1.,0.,0.));
#1619=DIRECTION('center_axis',(0.,-1.,0.));
#1620=DIRECTION('ref_axis',(-1.,0.,0.));
#1621=DIRECTION('center_axis',(0.,1.,0.));
#1622=DIRECTION('ref_axis',(0.,0.,1.));
#1623=DIRECTION('center_axis',(0.,-1.,0.));
#1624=DIRECTION('ref_axis',(-1.,0.,0.));
#1625=DIRECTION('center_axis',(0.,1.,0.));
#1626=DIRECTION('ref_axis',(0.,0.,1.));
#1627=DIRECTION('center_axis',(0.,-1.,0.));
#1628=DIRECTION('ref_axis',(-1.,0.,0.));
#1629=DIRECTION('center_axis',(0.,1.,0.));
#1630=DIRECTION('ref_axis',(0.,0.,1.));
#1631=DIRECTION('center_axis',(0.,1.,0.));
#1632=DIRECTION('ref_axis',(0.,0.,1.));
#1633=DIRECTION('center_axis',(0.,1.,0.));
#1634=DIRECTION('ref_axis',(0.893632640323716,0.,-0.448799180199857));
#1635=DIRECTION('center_axis',(0.,-1.,0.));
#1636=DIRECTION('ref_axis',(-1.,0.,0.));
#1637=DIRECTION('center_axis',(0.,1.,0.));
#1638=DIRECTION('ref_axis',(0.,0.,1.));
#1639=DIRECTION('center_axis',(0.,-1.,0.));
#1640=DIRECTION('ref_axis',(-1.,0.,0.));
#1641=DIRECTION('center_axis',(0.,-1.,0.));
#1642=DIRECTION('ref_axis',(1.,0.,0.));
#1643=DIRECTION('center_axis',(0.,-1.,0.));
#1644=DIRECTION('ref_axis',(-1.,0.,0.));
#1645=DIRECTION('center_axis',(0.,-1.,0.));
#1646=DIRECTION('ref_axis',(1.,0.,0.));
#1647=DIRECTION('center_axis',(0.,-1.,0.));
#1648=DIRECTION('ref_axis',(-1.,0.,0.));
#1649=DIRECTION('center_axis',(0.,-1.,0.));
#1650=DIRECTION('ref_axis',(1.,0.,0.));
#1651=DIRECTION('center_axis',(0.,-1.,0.));
#1652=DIRECTION('ref_axis',(-1.,0.,0.));
#1653=DIRECTION('center_axis',(0.,1.,0.));
#1654=DIRECTION('ref_axis',(1.,0.,0.));
#1655=DIRECTION('center_axis',(0.,-1.,0.));
#1656=DIRECTION('ref_axis',(-1.,0.,0.));
#1657=DIRECTION('center_axis',(0.,-1.,0.));
#1658=DIRECTION('ref_axis',(1.,0.,0.));
#1659=DIRECTION('center_axis',(0.,1.,0.));
#1660=DIRECTION('ref_axis',(0.,0.,1.));
#1661=DIRECTION('center_axis',(1.,0.,0.));
#1662=DIRECTION('ref_axis',(0.,0.,-1.));
#1663=DIRECTION('',(0.,1.,0.));
#1664=DIRECTION('',(0.,0.,-1.));
#1665=DIRECTION('center_axis',(0.,1.,0.));
#1666=DIRECTION('ref_axis',(0.,0.,1.));
#1667=DIRECTION('',(-1.,0.,0.));
#1668=DIRECTION('center_axis',(0.,1.,0.));
#1669=DIRECTION('ref_axis',(1.,0.,0.));
#1670=DIRECTION('center_axis',(0.,1.,0.));
#1671=DIRECTION('ref_axis',(1.,0.,0.));
#1672=DIRECTION('',(0.,-1.,0.));
#1673=DIRECTION('center_axis',(0.,1.,0.));
#1674=DIRECTION('ref_axis',(1.,0.,0.));
#1675=DIRECTION('',(0.,1.,0.));
#1676=DIRECTION('center_axis',(0.,1.,0.));
#1677=DIRECTION('ref_axis',(1.,0.,0.));
#1678=DIRECTION('center_axis',(0.,1.,0.));
#1679=DIRECTION('ref_axis',(1.,0.,0.));
#1680=DIRECTION('',(0.,1.,0.));
#1681=DIRECTION('center_axis',(0.,1.,0.));
#1682=DIRECTION('ref_axis',(1.,0.,0.));
#1683=DIRECTION('center_axis',(0.,1.,0.));
#1684=DIRECTION('ref_axis',(1.,0.,0.));
#1685=DIRECTION('',(0.,1.,0.));
#1686=DIRECTION('center_axis',(0.,1.,0.));
#1687=DIRECTION('ref_axis',(1.,0.,0.));
#1688=DIRECTION('center_axis',(0.,1.,0.));
#1689=DIRECTION('ref_axis',(1.,0.,0.));
#1690=DIRECTION('',(0.,1.,0.));
#1691=DIRECTION('center_axis',(0.,-1.,0.));
#1692=DIRECTION('ref_axis',(1.,0.,0.));
#1693=DIRECTION('center_axis',(0.,1.,0.));
#1694=DIRECTION('ref_axis',(1.,0.,0.));
#1695=DIRECTION('',(0.,1.,0.));
#1696=DIRECTION('center_axis',(0.,1.,0.));
#1697=DIRECTION('ref_axis',(1.,0.,0.));
#1698=DIRECTION('center_axis',(0.,0.,-1.));
#1699=DIRECTION('ref_axis',(-1.,0.,0.));
#1700=DIRECTION('center_axis',(0.,1.,0.));
#1701=DIRECTION('ref_axis',(1.,0.,0.));
#1702=DIRECTION('center_axis',(0.,1.,0.));
#1703=DIRECTION('ref_axis',(1.,0.,0.));
#1704=DIRECTION('center_axis',(0.,1.,0.));
#1705=DIRECTION('ref_axis',(1.,0.,0.));
#1706=DIRECTION('center_axis',(0.,1.,0.));
#1707=DIRECTION('ref_axis',(1.,0.,0.));
#1708=DIRECTION('center_axis',(0.,1.,0.));
#1709=DIRECTION('ref_axis',(1.,0.,0.));
#1710=CARTESIAN_POINT('',(0.,0.,0.));
#1711=CARTESIAN_POINT('Origin',(-15.,-59.,222.));
#1712=CARTESIAN_POINT('',(-57.,-59.,275.));
#1713=CARTESIAN_POINT('',(-57.,-59.,214.));
#1714=CARTESIAN_POINT('',(-57.,-59.,231.));
#1715=CARTESIAN_POINT('',(-54.07402333838,-59.,214.));
#1716=CARTESIAN_POINT('',(-7.5,-59.,214.));
#1717=CARTESIAN_POINT('',(-50.10987926547,-59.,207.));
#1718=CARTESIAN_POINT('Origin',(0.,-59.,240.));
#1719=CARTESIAN_POINT('',(-51.,-59.,207.));
#1720=CARTESIAN_POINT('',(-30.5,-59.,207.));
#1721=CARTESIAN_POINT('',(-51.,-59.,200.));
#1722=CARTESIAN_POINT('',(-51.,-59.,212.));
#1723=CARTESIAN_POINT('',(-57.,-59.,200.));
#1724=CARTESIAN_POINT('',(-7.5,-59.,200.));
#1725=CARTESIAN_POINT('',(-57.,-59.,188.2));
#1726=CARTESIAN_POINT('',(-57.,-59.,206.8));
#1727=CARTESIAN_POINT('',(-75.,-59.,188.2));
#1728=CARTESIAN_POINT('',(-7.5,-59.,188.2));
#1729=CARTESIAN_POINT('',(-75.,-59.,200.));
#1730=CARTESIAN_POINT('',(-75.,-59.,206.8));
#1731=CARTESIAN_POINT('',(-86.8997487421324,-59.,200.));
#1732=CARTESIAN_POINT('',(-7.5,-59.,200.));
#1733=CARTESIAN_POINT('',(-86.8997487421324,-59.,214.));
#1734=CARTESIAN_POINT('',(-86.8997487421324,-59.,207.));
#1735=CARTESIAN_POINT('',(-75.,-59.,214.));
#1736=CARTESIAN_POINT('',(-7.5,-59.,214.));
#1737=CARTESIAN_POINT('',(-75.,-59.,275.));
#1738=CARTESIAN_POINT('',(-75.,-59.,231.));
#1739=CARTESIAN_POINT('',(-40.5,-59.,275.));
#1740=CARTESIAN_POINT('',(-68.75,-59.,207.));
#1741=CARTESIAN_POINT('Origin',(-66.,-59.,207.));
#1742=CARTESIAN_POINT('',(-68.75,-59.,225.));
#1743=CARTESIAN_POINT('Origin',(-66.,-59.,225.));
#1744=CARTESIAN_POINT('',(-68.75,-59.,245.));
#1745=CARTESIAN_POINT('Origin',(-66.,-59.,245.));
#1746=CARTESIAN_POINT('',(-68.75,-59.,265.));
#1747=CARTESIAN_POINT('Origin',(-66.,-59.,265.));
#1748=CARTESIAN_POINT('Origin',(-57.,0.,191.6));
#1749=CARTESIAN_POINT('',(-57.,-70.,200.));
#1750=CARTESIAN_POINT('',(-57.,0.,200.));
#1751=CARTESIAN_POINT('',(-57.,-70.,188.2));
#1752=CARTESIAN_POINT('',(-57.,-70.,191.6));
#1753=CARTESIAN_POINT('',(-57.,0.,188.2));
#1754=CARTESIAN_POINT('Origin',(0.,0.,200.));
#1755=CARTESIAN_POINT('',(-51.,-62.,200.));
#1756=CARTESIAN_POINT('',(-51.,-26.,200.));
#1757=CARTESIAN_POINT('',(-44.72135954999,-62.,200.));
#1758=CARTESIAN_POINT('',(-23.,-62.,200.));
#1759=CARTESIAN_POINT('',(-44.72135954999,-77.,200.));
#1760=CARTESIAN_POINT('',(-44.72135954999,0.,200.));
#1761=CARTESIAN_POINT('',(-67.,-77.,200.));
#1762=CARTESIAN_POINT('',(0.,-77.,200.));
#1763=CARTESIAN_POINT('Origin',(-67.,-57.,200.));
#1764=CARTESIAN_POINT('',(-75.,-70.,200.));
#1765=CARTESIAN_POINT('',(-75.,0.,200.));
#1766=CARTESIAN_POINT('',(-33.,-70.,200.));
#1767=CARTESIAN_POINT('Origin',(-51.,-52.,202.));
#1768=CARTESIAN_POINT('',(-51.,-62.,207.));
#1769=CARTESIAN_POINT('',(-51.,-52.,207.));
#1770=CARTESIAN_POINT('',(-51.,-62.,202.));
#1771=CARTESIAN_POINT('Origin',(-46.,-52.,207.));
#1772=CARTESIAN_POINT('',(-50.10987926547,-62.,207.));
#1773=CARTESIAN_POINT('',(-50.10987926547,0.,207.));
#1774=CARTESIAN_POINT('',(-46.,-62.,207.));
#1775=CARTESIAN_POINT('Origin',(0.,0.,240.));
#1776=CARTESIAN_POINT('',(-54.07402333838,-77.,214.));
#1777=CARTESIAN_POINT('',(-54.07402333838,0.,214.));
#1778=CARTESIAN_POINT('Origin',(0.,-77.,240.));
#1779=CARTESIAN_POINT('Origin',(0.,-62.,240.));
#1780=CARTESIAN_POINT('Origin',(0.,0.,214.));
#1781=CARTESIAN_POINT('',(-57.,-77.,214.));
#1782=CARTESIAN_POINT('',(-57.,-35.,214.));
#1783=CARTESIAN_POINT('',(0.,-77.,214.));
#1784=CARTESIAN_POINT('Origin',(-57.,-70.,240.));
#1785=CARTESIAN_POINT('',(-57.,-78.,275.));
#1786=CARTESIAN_POINT('',(-57.,-70.,275.));
#1787=CARTESIAN_POINT('',(-57.,-78.,250.72380529476));
#1788=CARTESIAN_POINT('',(-57.,-78.,240.));
#1789=CARTESIAN_POINT('',(-57.,-62.,250.72380529476));
#1790=CARTESIAN_POINT('',(-57.,-70.,250.72380529476));
#1791=CARTESIAN_POINT('',(-57.,-62.,229.27619470523));
#1792=CARTESIAN_POINT('',(-57.,-62.,240.));
#1793=CARTESIAN_POINT('',(-57.,-78.,229.27619470523));
#1794=CARTESIAN_POINT('',(-57.,-70.,229.27619470523));
#1795=CARTESIAN_POINT('',(-57.,-78.,205.));
#1796=CARTESIAN_POINT('',(-57.,-78.,240.));
#1797=CARTESIAN_POINT('',(-57.,-77.,205.));
#1798=CARTESIAN_POINT('',(-57.,-70.,205.));
#1799=CARTESIAN_POINT('',(-57.,-77.,223.5));
#1800=CARTESIAN_POINT('Origin',(-66.,-72.,265.));
#1801=CARTESIAN_POINT('',(-68.75,-78.,265.));
#1802=CARTESIAN_POINT('Origin',(-66.,-78.,265.));
#1803=CARTESIAN_POINT('',(-68.75,-72.,265.));
#1804=CARTESIAN_POINT('Origin',(-66.,-72.,245.));
#1805=CARTESIAN_POINT('',(-68.75,-78.,245.));
#1806=CARTESIAN_POINT('Origin',(-66.,-78.,245.));
#1807=CARTESIAN_POINT('',(-68.75,-72.,245.));
#1808=CARTESIAN_POINT('Origin',(-66.,-72.,225.));
#1809=CARTESIAN_POINT('',(-68.75,-78.,225.));
#1810=CARTESIAN_POINT('Origin',(-66.,-78.,225.));
#1811=CARTESIAN_POINT('',(-68.75,-72.,225.));
#1812=CARTESIAN_POINT('Origin',(-66.,-72.,207.));
#1813=CARTESIAN_POINT('',(-67.8874586088177,-78.,205.));
#1814=CARTESIAN_POINT('',(-68.75,-78.,207.));
#1815=CARTESIAN_POINT('Origin',(-66.,-78.,207.));
#1816=CARTESIAN_POINT('',(-67.8874586088177,-76.9803007289089,205.));
#1817=CARTESIAN_POINT('',(-67.8874586088177,-72.,205.));
#1818=CARTESIAN_POINT('',(-67.,-77.,204.43826230851));
#1819=CARTESIAN_POINT('Ctrl Pts',(-67.,-77.,204.43826230851));
#1820=CARTESIAN_POINT('Ctrl Pts',(-67.0172958599261,-77.,204.445013920896));
#1821=CARTESIAN_POINT('Ctrl Pts',(-67.0345255619953,-76.9999775593193,204.451941586673));
#1822=CARTESIAN_POINT('Ctrl Pts',(-67.3648374928314,-76.9991239770123,204.588655243453));
#1823=CARTESIAN_POINT('Ctrl Pts',(-67.6531439795673,-76.9907082066401,204.778870417925));
#1824=CARTESIAN_POINT('Ctrl Pts',(-67.8874586088177,-76.9803007289089,205.));
#1825=CARTESIAN_POINT('',(-64.1125413911823,-77.,205.));
#1826=CARTESIAN_POINT('Origin',(-66.,-77.,207.));
#1827=CARTESIAN_POINT('',(-64.1125413911823,-78.,205.));
#1828=CARTESIAN_POINT('',(-64.1125413911823,-72.,205.));
#1829=CARTESIAN_POINT('Origin',(-66.,-78.,207.));
#1830=CARTESIAN_POINT('',(-68.75,-72.,207.));
#1831=CARTESIAN_POINT('Origin',(-67.,-57.,207.));
#1832=CARTESIAN_POINT('',(-67.,-77.,207.));
#1833=CARTESIAN_POINT('',(-75.,-75.33030277982,205.));
#1834=CARTESIAN_POINT('Origin',(-67.,-57.,205.));
#1835=CARTESIAN_POINT('',(-75.,-75.33030277982,214.));
#1836=CARTESIAN_POINT('',(-75.,-75.33030277982,207.));
#1837=CARTESIAN_POINT('Origin',(-67.,-57.,214.));
#1838=CARTESIAN_POINT('Origin',(-66.,-70.,205.));
#1839=CARTESIAN_POINT('',(-75.,-78.,205.));
#1840=CARTESIAN_POINT('',(-66.,-78.,205.));
#1841=CARTESIAN_POINT('',(-75.,-70.,205.));
#1842=CARTESIAN_POINT('Origin',(0.,-70.,240.));
#1843=CARTESIAN_POINT('Origin',(0.,-78.,240.));
#1844=CARTESIAN_POINT('Origin',(0.,-62.,240.));
#1845=CARTESIAN_POINT('Origin',(0.,-62.,240.));
#1846=CARTESIAN_POINT('',(31.422536813678,-62.,270.21582868777));
#1847=CARTESIAN_POINT('',(29.8,-62.,273.));
#1848=CARTESIAN_POINT('Origin',(33.,-62.,273.));
#1849=CARTESIAN_POINT('',(30.215828687778,-62.,271.42253681367));
#1850=CARTESIAN_POINT('Origin',(33.,-62.,273.));
#1851=CARTESIAN_POINT('Origin',(29.698484809835,-62.,269.69848480983));
#1852=CARTESIAN_POINT('',(30.215828687778,-62.,208.57746318632));
#1853=CARTESIAN_POINT('',(29.8,-62.,207.));
#1854=CARTESIAN_POINT('Origin',(33.,-62.,207.));
#1855=CARTESIAN_POINT('',(31.422536813678,-62.,209.78417131222));
#1856=CARTESIAN_POINT('Origin',(33.,-62.,207.));
#1857=CARTESIAN_POINT('Origin',(29.698484809835,-62.,210.30151519016));
#1858=CARTESIAN_POINT('',(-31.42253681367,-62.,209.78417131222));
#1859=CARTESIAN_POINT('',(-36.2,-62.,207.));
#1860=CARTESIAN_POINT('Origin',(-33.,-62.,207.));
#1861=CARTESIAN_POINT('',(-30.21582868777,-62.,208.57746318632));
#1862=CARTESIAN_POINT('Origin',(-33.,-62.,207.));
#1863=CARTESIAN_POINT('Origin',(-29.69848480983,-62.,210.30151519016));
#1864=CARTESIAN_POINT('',(-27.,-62.,240.));
#1865=CARTESIAN_POINT('Origin',(0.,-62.,240.));
#1866=CARTESIAN_POINT('',(-30.21582868777,-62.,271.42253681367));
#1867=CARTESIAN_POINT('',(-36.2,-62.,273.));
#1868=CARTESIAN_POINT('Origin',(-33.,-62.,273.));
#1869=CARTESIAN_POINT('',(-31.42253681367,-62.,270.21582868777));
#1870=CARTESIAN_POINT('Origin',(-33.,-62.,273.));
#1871=CARTESIAN_POINT('Origin',(-29.69848480983,-62.,269.69848480983));
#1872=CARTESIAN_POINT('Origin',(0.,-78.,240.));
#1873=CARTESIAN_POINT('',(-66.,-78.,205.));
#1874=CARTESIAN_POINT('',(-75.,-78.,275.));
#1875=CARTESIAN_POINT('',(-66.,-78.,275.));
#1876=CARTESIAN_POINT('',(-75.,-78.,240.));
#1877=CARTESIAN_POINT('',(21.32,-78.,216.43));
#1878=CARTESIAN_POINT('Origin',(23.57,-78.,216.43));
#1879=CARTESIAN_POINT('',(-25.82,-78.,263.57));
#1880=CARTESIAN_POINT('Origin',(-23.57,-78.,263.57));
#1881=CARTESIAN_POINT('',(-25.82,-78.,216.43));
#1882=CARTESIAN_POINT('Origin',(-23.57,-78.,216.43));
#1883=CARTESIAN_POINT('',(30.8,-78.,273.));
#1884=CARTESIAN_POINT('Origin',(33.,-78.,273.));
#1885=CARTESIAN_POINT('',(30.8,-78.,207.));
#1886=CARTESIAN_POINT('Origin',(33.,-78.,207.));
#1887=CARTESIAN_POINT('',(-35.2,-78.,273.));
#1888=CARTESIAN_POINT('Origin',(-33.,-78.,273.));
#1889=CARTESIAN_POINT('',(-35.2,-78.,207.));
#1890=CARTESIAN_POINT('Origin',(-33.,-78.,207.));
#1891=CARTESIAN_POINT('',(-23.7,-78.,240.));
#1892=CARTESIAN_POINT('Origin',(0.,-78.,240.));
#1893=CARTESIAN_POINT('',(21.32,-78.,263.57));
#1894=CARTESIAN_POINT('Origin',(23.57,-78.,263.57));
#1895=CARTESIAN_POINT('Origin',(-66.,-70.,205.));
#1896=CARTESIAN_POINT('',(-33.,-77.,205.));
#1897=CARTESIAN_POINT('Origin',(0.,-77.,207.));
#1898=CARTESIAN_POINT('Origin',(-66.,-70.,275.));
#1899=CARTESIAN_POINT('',(-75.,70.,275.));
#1900=CARTESIAN_POINT('Origin',(-75.,-70.,240.));
#1901=CARTESIAN_POINT('',(-75.,35.,214.));
#1902=CARTESIAN_POINT('Origin',(33.,-69.,273.));
#1903=CARTESIAN_POINT('',(29.8,-77.,273.));
#1904=CARTESIAN_POINT('Origin',(33.,-77.,273.));
#1905=CARTESIAN_POINT('',(29.8,-69.,273.));
#1906=CARTESIAN_POINT('',(31.422536813678,-61.3,270.21582868777));
#1907=CARTESIAN_POINT('',(31.422536813678,-69.,270.21582868777));
#1908=CARTESIAN_POINT('',(30.215828687778,-61.3,271.42253681367));
#1909=CARTESIAN_POINT('Origin',(33.,-61.3,273.));
#1910=CARTESIAN_POINT('',(30.215828687778,-69.,271.42253681367));
#1911=CARTESIAN_POINT('Origin',(29.698484809835,-68.,269.69848480983));
#1912=CARTESIAN_POINT('Origin',(29.698484809835,-61.3,269.69848480983));
#1913=CARTESIAN_POINT('Origin',(33.,-69.,207.));
#1914=CARTESIAN_POINT('',(29.8,-77.,207.));
#1915=CARTESIAN_POINT('Origin',(33.,-77.,207.));
#1916=CARTESIAN_POINT('',(29.8,-69.,207.));
#1917=CARTESIAN_POINT('',(30.215828687778,-61.3,208.57746318632));
#1918=CARTESIAN_POINT('',(30.215828687778,-69.,208.57746318632));
#1919=CARTESIAN_POINT('',(31.422536813678,-61.3,209.78417131222));
#1920=CARTESIAN_POINT('Origin',(33.,-61.3,207.));
#1921=CARTESIAN_POINT('',(31.422536813678,-69.,209.78417131222));
#1922=CARTESIAN_POINT('Origin',(29.698484809835,-68.,210.30151519016));
#1923=CARTESIAN_POINT('Origin',(29.698484809835,-61.3,210.30151519016));
#1924=CARTESIAN_POINT('Origin',(-33.,-69.,207.));
#1925=CARTESIAN_POINT('',(-36.2,-77.,207.));
#1926=CARTESIAN_POINT('Origin',(-33.,-77.,207.));
#1927=CARTESIAN_POINT('',(-36.2,-69.,207.));
#1928=CARTESIAN_POINT('',(-31.42253681367,-61.3,209.78417131222));
#1929=CARTESIAN_POINT('',(-31.42253681367,-69.,209.78417131222));
#1930=CARTESIAN_POINT('',(-30.21582868777,-61.3,208.57746318632));
#1931=CARTESIAN_POINT('Origin',(-33.,-61.3,207.));
#1932=CARTESIAN_POINT('',(-30.21582868777,-69.,208.57746318632));
#1933=CARTESIAN_POINT('Origin',(-29.69848480983,-68.,210.30151519016));
#1934=CARTESIAN_POINT('Origin',(-29.69848480983,-61.3,210.30151519016));
#1935=CARTESIAN_POINT('Origin',(0.,-60.5,240.));
#1936=CARTESIAN_POINT('',(-27.,-60.3,240.));
#1937=CARTESIAN_POINT('Origin',(0.,-60.3,240.));
#1938=CARTESIAN_POINT('',(-27.,-60.5,240.));
#1939=CARTESIAN_POINT('Origin',(-33.,-69.,273.));
#1940=CARTESIAN_POINT('',(-36.2,-77.,273.));
#1941=CARTESIAN_POINT('Origin',(-33.,-77.,273.));
#1942=CARTESIAN_POINT('',(-36.2,-69.,273.));
#1943=CARTESIAN_POINT('',(-30.21582868777,-61.3,271.42253681367));
#1944=CARTESIAN_POINT('',(-30.21582868777,-69.,271.42253681367));
#1945=CARTESIAN_POINT('',(-31.42253681367,-61.3,270.21582868777));
#1946=CARTESIAN_POINT('Origin',(-33.,-61.3,273.));
#1947=CARTESIAN_POINT('',(-31.42253681367,-69.,270.21582868777));
#1948=CARTESIAN_POINT('Origin',(-29.69848480983,-68.,269.69848480983));
#1949=CARTESIAN_POINT('Origin',(-29.69848480983,-61.3,269.69848480983));
#1950=CARTESIAN_POINT('Origin',(23.57,-84.,216.43));
#1951=CARTESIAN_POINT('',(21.32,-77.,216.43));
#1952=CARTESIAN_POINT('',(21.32,-84.,216.43));
#1953=CARTESIAN_POINT('Origin',(23.57,-77.,216.43));
#1954=CARTESIAN_POINT('Origin',(-23.57,-84.,263.57));
#1955=CARTESIAN_POINT('',(-25.82,-77.,263.57));
#1956=CARTESIAN_POINT('',(-25.82,-84.,263.57));
#1957=CARTESIAN_POINT('Origin',(-23.57,-77.,263.57));
#1958=CARTESIAN_POINT('Origin',(-23.57,-84.,216.43));
#1959=CARTESIAN_POINT('',(-25.82,-77.,216.43));
#1960=CARTESIAN_POINT('',(-25.82,-84.,216.43));
#1961=CARTESIAN_POINT('Origin',(-23.57,-77.,216.43));
#1962=CARTESIAN_POINT('Origin',(33.,-70.,273.));
#1963=CARTESIAN_POINT('',(30.8,-77.,273.));
#1964=CARTESIAN_POINT('',(30.8,-70.,273.));
#1965=CARTESIAN_POINT('Origin',(33.,-77.,273.));
#1966=CARTESIAN_POINT('Origin',(33.,-70.,207.));
#1967=CARTESIAN_POINT('',(30.8,-77.,207.));
#1968=CARTESIAN_POINT('',(30.8,-70.,207.));
#1969=CARTESIAN_POINT('Origin',(33.,-77.,207.));
#1970=CARTESIAN_POINT('Origin',(-33.,-70.,273.));
#1971=CARTESIAN_POINT('',(-35.2,-77.,273.));
#1972=CARTESIAN_POINT('',(-35.2,-70.,273.));
#1973=CARTESIAN_POINT('Origin',(-33.,-77.,273.));
#1974=CARTESIAN_POINT('Origin',(-33.,-70.,207.));
#1975=CARTESIAN_POINT('',(-35.2,-77.,207.));
#1976=CARTESIAN_POINT('',(-35.2,-70.,207.));
#1977=CARTESIAN_POINT('Origin',(-33.,-77.,207.));
#1978=CARTESIAN_POINT('Origin',(0.,-70.,240.));
#1979=CARTESIAN_POINT('',(-23.7,-62.,240.));
#1980=CARTESIAN_POINT('',(-23.7,-70.,240.));
#1981=CARTESIAN_POINT('Origin',(0.,-62.,240.));
#1982=CARTESIAN_POINT('Origin',(23.57,-84.,263.57));
#1983=CARTESIAN_POINT('',(21.32,-77.,263.57));
#1984=CARTESIAN_POINT('',(21.32,-84.,263.57));
#1985=CARTESIAN_POINT('Origin',(23.57,-77.,263.57));
#1986=CARTESIAN_POINT('Origin',(0.,0.,214.));
#1987=CARTESIAN_POINT('Origin',(33.,-77.,273.));
#1988=CARTESIAN_POINT('Origin',(0.,-61.3,240.));
#1989=CARTESIAN_POINT('Origin',(33.,-77.,207.));
#1990=CARTESIAN_POINT('Origin',(0.,-61.3,240.));
#1991=CARTESIAN_POINT('Origin',(-33.,-77.,207.));
#1992=CARTESIAN_POINT('Origin',(0.,-61.3,240.));
#1993=CARTESIAN_POINT('Origin',(135.,-60.3,240.));
#1994=CARTESIAN_POINT('',(-23.7,-60.3,240.));
#1995=CARTESIAN_POINT('Origin',(0.,-60.3,240.));
#1996=CARTESIAN_POINT('Origin',(-33.,-77.,273.));
#1997=CARTESIAN_POINT('Origin',(0.,-61.3,240.));
#1998=CARTESIAN_POINT('Origin',(23.57,-77.,216.43));
#1999=CARTESIAN_POINT('',(19.82,-77.,216.43));
#2000=CARTESIAN_POINT('Origin',(23.57,-77.,216.43));
#2001=CARTESIAN_POINT('Origin',(-23.57,-77.,263.57));
#2002=CARTESIAN_POINT('',(-27.32,-77.,263.57));
#2003=CARTESIAN_POINT('Origin',(-23.57,-77.,263.57));
#2004=CARTESIAN_POINT('Origin',(-23.57,-77.,216.43));
#2005=CARTESIAN_POINT('',(-27.32,-77.,216.43));
#2006=CARTESIAN_POINT('Origin',(-23.57,-77.,216.43));
#2007=CARTESIAN_POINT('Origin',(0.,-62.,240.));
#2008=CARTESIAN_POINT('',(-18.,-62.,240.));
#2009=CARTESIAN_POINT('Origin',(0.,-62.,240.));
#2010=CARTESIAN_POINT('Origin',(23.57,-77.,263.57));
#2011=CARTESIAN_POINT('',(19.82,-77.,263.57));
#2012=CARTESIAN_POINT('Origin',(23.57,-77.,263.57));
#2013=CARTESIAN_POINT('Origin',(-46.,-62.,202.));
#2014=CARTESIAN_POINT('Origin',(-75.,0.,191.6));
#2015=CARTESIAN_POINT('',(-75.,-70.,188.2));
#2016=CARTESIAN_POINT('',(-75.,0.,188.2));
#2017=CARTESIAN_POINT('',(-75.,-70.,199.5));
#2018=CARTESIAN_POINT('Origin',(-66.,-70.,191.6));
#2019=CARTESIAN_POINT('',(-66.,-70.,188.2));
#2020=CARTESIAN_POINT('Origin',(0.,-52.3,240.));
#2021=CARTESIAN_POINT('',(-23.7,-59.,240.));
#2022=CARTESIAN_POINT('Origin',(0.,-59.,240.));
#2023=CARTESIAN_POINT('',(-23.7,-52.3,240.));
#2024=CARTESIAN_POINT('Origin',(23.57,-74.5,216.43));
#2025=CARTESIAN_POINT('',(19.82,-72.,216.43));
#2026=CARTESIAN_POINT('',(19.82,-74.5,216.43));
#2027=CARTESIAN_POINT('Origin',(23.57,-72.,216.43));
#2028=CARTESIAN_POINT('Origin',(-23.57,-74.5,263.57));
#2029=CARTESIAN_POINT('',(-27.32,-72.,263.57));
#2030=CARTESIAN_POINT('',(-27.32,-74.5,263.57));
#2031=CARTESIAN_POINT('Origin',(-23.57,-72.,263.57));
#2032=CARTESIAN_POINT('Origin',(-23.57,-74.5,216.43));
#2033=CARTESIAN_POINT('',(-27.32,-72.,216.43));
#2034=CARTESIAN_POINT('',(-27.32,-74.5,216.43));
#2035=CARTESIAN_POINT('Origin',(-23.57,-72.,216.43));
#2036=CARTESIAN_POINT('Origin',(0.,-60.5,240.));
#2037=CARTESIAN_POINT('',(-18.,-59.,240.));
#2038=CARTESIAN_POINT('',(-18.,-60.5,240.));
#2039=CARTESIAN_POINT('Origin',(0.,-59.,240.));
#2040=CARTESIAN_POINT('Origin',(23.57,-74.5,263.57));
#2041=CARTESIAN_POINT('',(19.82,-72.,263.57));
#2042=CARTESIAN_POINT('',(19.82,-74.5,263.57));
#2043=CARTESIAN_POINT('Origin',(23.57,-72.,263.57));
#2044=CARTESIAN_POINT('Origin',(0.,0.,188.2));
#2045=CARTESIAN_POINT('Origin',(0.,-59.,240.));
#2046=CARTESIAN_POINT('Origin',(23.57,-72.,216.43));
#2047=CARTESIAN_POINT('Origin',(-23.57,-72.,263.57));
#2048=CARTESIAN_POINT('Origin',(-23.57,-72.,216.43));
#2049=CARTESIAN_POINT('Origin',(23.57,-72.,263.57));
#2050=UNCERTAINTY_MEASURE_WITH_UNIT(LENGTH_MEASURE(0.01),#2054,
'DISTANCE_ACCURACY_VALUE',
'Maximum model space distance between geometric entities at asserted c
onnectivities');
#2051=UNCERTAINTY_MEASURE_WITH_UNIT(LENGTH_MEASURE(0.01),#2054,
'DISTANCE_ACCURACY_VALUE',
'Maximum model space distance between geometric entities at asserted c
onnectivities');
#2052=(
GEOMETRIC_REPRESENTATION_CONTEXT(3)
GLOBAL_UNCERTAINTY_ASSIGNED_CONTEXT((#2050))
GLOBAL_UNIT_ASSIGNED_CONTEXT((#2054,#2056,#2057))
REPRESENTATION_CONTEXT('','3D')
);
#2053=(
GEOMETRIC_REPRESENTATION_CONTEXT(3)
GLOBAL_UNCERTAINTY_ASSIGNED_CONTEXT((#2051))
GLOBAL_UNIT_ASSIGNED_CONTEXT((#2054,#2056,#2057))
REPRESENTATION_CONTEXT('','3D')
);
#2054=(
LENGTH_UNIT()
NAMED_UNIT(*)
SI_UNIT(.MILLI.,.METRE.)
);
#2055=(
LENGTH_UNIT()
NAMED_UNIT(*)
SI_UNIT($,.METRE.)
);
#2056=(
NAMED_UNIT(*)
PLANE_ANGLE_UNIT()
SI_UNIT($,.RADIAN.)
);
#2057=(
NAMED_UNIT(*)
SI_UNIT($,.STERADIAN.)
SOLID_ANGLE_UNIT()
);
#2058=SHAPE_DEFINITION_REPRESENTATION(#2059,#2060);
#2059=PRODUCT_DEFINITION_SHAPE('',$,#2062);
#2060=SHAPE_REPRESENTATION('',(#1194),#2052);
#2061=PRODUCT_DEFINITION_CONTEXT('part definition',#2066,'design');
#2062=PRODUCT_DEFINITION('2026-08-20-15-56-47-573',
'EXPORT_TMP_PRINT_V015_P101C_J2Cheek_Left',#2063,#2061);
#2063=PRODUCT_DEFINITION_FORMATION('',$,#2068);
#2064=PRODUCT_RELATED_PRODUCT_CATEGORY(
'EXPORT_TMP_PRINT_V015_P101C_J2Cheek_Left',
'EXPORT_TMP_PRINT_V015_P101C_J2Cheek_Left',(#2068));
#2065=APPLICATION_PROTOCOL_DEFINITION('international standard',
'automotive_design',2009,#2066);
#2066=APPLICATION_CONTEXT(
'Core Data for Automotive Mechanical Design Process');
#2067=PRODUCT_CONTEXT('part definition',#2066,'mechanical');
#2068=PRODUCT('2026-08-20-15-56-47-573',
'EXPORT_TMP_PRINT_V015_P101C_J2Cheek_Left',$,(#2067));
#2069=PRESENTATION_STYLE_ASSIGNMENT((#2070));
#2070=SURFACE_STYLE_USAGE(.BOTH.,#2071);
#2071=SURFACE_SIDE_STYLE('',(#2072));
#2072=SURFACE_STYLE_FILL_AREA(#2073);
#2073=FILL_AREA_STYLE('Steel - Satin',(#2074));
#2074=FILL_AREA_STYLE_COLOUR('Steel - Satin',#2075);
#2075=COLOUR_RGB('Steel - Satin',0.627450980392157,0.627450980392157,0.627450980392157);
ENDSEC;
END-ISO-10303-21;
