ISO-10303-21;
HEADER;
/* Generated by software containing ST-Developer
 * from STEP Tools, Inc. (www.steptools.com) 
 */

FILE_DESCRIPTION(
/* description */ (''),
/* implementation_level */ '2;1');

FILE_NAME(
/* name */ 'PRINT_V015_P101D_J2Cheek_Right.step',
/* time_stamp */ '2026-08-20T15:56:48+02:00',
/* author */ (''),
/* organization */ (''),
/* preprocessor_version */ 'ST-DEVELOPER v20.1',
/* originating_system */ 'Autodesk Translation Framework v15.8.0.0',
/* authorisation */ '');

FILE_SCHEMA (('AUTOMOTIVE_DESIGN { 1 0 10303 214 3 1 1 }'));
ENDSEC;

DATA;
#10=MECHANICAL_DESIGN_GEOMETRIC_PRESENTATION_REPRESENTATION('',(#13),#1653);
#11=SHAPE_REPRESENTATION_RELATIONSHIP('SRR','None',#1660,#12);
#12=ADVANCED_BREP_SHAPE_REPRESENTATION('',(#14),#1652);
#13=STYLED_ITEM('',(#1669),#14);
#14=MANIFOLD_SOLID_BREP('PRINT_V015_P101D_J2Cheek_Right',#957);
#15=B_SPLINE_CURVE_WITH_KNOTS('',3,(#1435,#1436,#1437,#1438,#1439,#1440),
 .UNSPECIFIED.,.F.,.F.,(4,2,4),(0.215196530975561,0.310978350239461,0.316226221246161),
 .UNSPECIFIED.);
#16=CYLINDRICAL_SURFACE('',#980,20.);
#17=CYLINDRICAL_SURFACE('',#987,2.75);
#18=CYLINDRICAL_SURFACE('',#989,2.75);
#19=CYLINDRICAL_SURFACE('',#991,2.75);
#20=CYLINDRICAL_SURFACE('',#993,2.75);
#21=CYLINDRICAL_SURFACE('',#999,5.);
#22=CYLINDRICAL_SURFACE('',#1021,5.);
#23=CYLINDRICAL_SURFACE('',#1028,5.);
#24=CYLINDRICAL_SURFACE('',#1035,5.);
#25=CYLINDRICAL_SURFACE('',#1042,60.);
#26=CYLINDRICAL_SURFACE('',#1048,27.);
#27=CYLINDRICAL_SURFACE('',#1050,23.7);
#28=CYLINDRICAL_SURFACE('',#1060,58.);
#29=CYLINDRICAL_SURFACE('',#1061,2.2);
#30=CYLINDRICAL_SURFACE('',#1062,2.2);
#31=CYLINDRICAL_SURFACE('',#1063,2.2);
#32=CYLINDRICAL_SURFACE('',#1064,2.2);
#33=CYLINDRICAL_SURFACE('',#1065,18.);
#34=CYLINDRICAL_SURFACE('',#1071,23.7);
#35=FACE_BOUND('',#105,.T.);
#36=FACE_BOUND('',#106,.T.);
#37=FACE_BOUND('',#107,.T.);
#38=FACE_BOUND('',#108,.T.);
#39=FACE_BOUND('',#126,.T.);
#40=FACE_BOUND('',#127,.T.);
#41=FACE_BOUND('',#128,.T.);
#42=FACE_BOUND('',#129,.T.);
#43=FACE_BOUND('',#130,.T.);
#44=FACE_BOUND('',#131,.T.);
#45=FACE_BOUND('',#132,.T.);
#46=FACE_BOUND('',#133,.T.);
#47=FACE_BOUND('',#145,.T.);
#48=FACE_BOUND('',#149,.T.);
#49=FACE_BOUND('',#150,.T.);
#50=FACE_BOUND('',#151,.T.);
#51=FACE_BOUND('',#152,.T.);
#52=FACE_BOUND('',#153,.T.);
#53=FACE_BOUND('',#155,.T.);
#54=FACE_BOUND('',#165,.T.);
#55=FACE_OUTER_BOUND('',#104,.T.);
#56=FACE_OUTER_BOUND('',#109,.T.);
#57=FACE_OUTER_BOUND('',#110,.T.);
#58=FACE_OUTER_BOUND('',#111,.T.);
#59=FACE_OUTER_BOUND('',#112,.T.);
#60=FACE_OUTER_BOUND('',#113,.T.);
#61=FACE_OUTER_BOUND('',#114,.T.);
#62=FACE_OUTER_BOUND('',#115,.T.);
#63=FACE_OUTER_BOUND('',#116,.T.);
#64=FACE_OUTER_BOUND('',#117,.T.);
#65=FACE_OUTER_BOUND('',#118,.T.);
#66=FACE_OUTER_BOUND('',#119,.T.);
#67=FACE_OUTER_BOUND('',#120,.T.);
#68=FACE_OUTER_BOUND('',#121,.T.);
#69=FACE_OUTER_BOUND('',#122,.T.);
#70=FACE_OUTER_BOUND('',#123,.T.);
#71=FACE_OUTER_BOUND('',#124,.T.);
#72=FACE_OUTER_BOUND('',#125,.T.);
#73=FACE_OUTER_BOUND('',#134,.T.);
#74=FACE_OUTER_BOUND('',#135,.T.);
#75=FACE_OUTER_BOUND('',#136,.T.);
#76=FACE_OUTER_BOUND('',#137,.T.);
#77=FACE_OUTER_BOUND('',#138,.T.);
#78=FACE_OUTER_BOUND('',#139,.T.);
#79=FACE_OUTER_BOUND('',#140,.T.);
#80=FACE_OUTER_BOUND('',#141,.T.);
#81=FACE_OUTER_BOUND('',#142,.T.);
#82=FACE_OUTER_BOUND('',#143,.T.);
#83=FACE_OUTER_BOUND('',#144,.T.);
#84=FACE_OUTER_BOUND('',#146,.T.);
#85=FACE_OUTER_BOUND('',#147,.T.);
#86=FACE_OUTER_BOUND('',#148,.T.);
#87=FACE_OUTER_BOUND('',#154,.T.);
#88=FACE_OUTER_BOUND('',#156,.T.);
#89=FACE_OUTER_BOUND('',#157,.T.);
#90=FACE_OUTER_BOUND('',#158,.T.);
#91=FACE_OUTER_BOUND('',#159,.T.);
#92=FACE_OUTER_BOUND('',#160,.T.);
#93=FACE_OUTER_BOUND('',#161,.T.);
#94=FACE_OUTER_BOUND('',#162,.T.);
#95=FACE_OUTER_BOUND('',#163,.T.);
#96=FACE_OUTER_BOUND('',#164,.T.);
#97=FACE_OUTER_BOUND('',#166,.T.);
#98=FACE_OUTER_BOUND('',#167,.T.);
#99=FACE_OUTER_BOUND('',#168,.T.);
#100=FACE_OUTER_BOUND('',#169,.T.);
#101=FACE_OUTER_BOUND('',#170,.T.);
#102=FACE_OUTER_BOUND('',#171,.T.);
#103=FACE_OUTER_BOUND('',#172,.T.);
#104=EDGE_LOOP('',(#608,#609,#610,#611,#612,#613,#614,#615,#616,#617,#618,
#619,#620,#621));
#105=EDGE_LOOP('',(#622));
#106=EDGE_LOOP('',(#623));
#107=EDGE_LOOP('',(#624));
#108=EDGE_LOOP('',(#625));
#109=EDGE_LOOP('',(#626,#627,#628,#629));
#110=EDGE_LOOP('',(#630,#631,#632,#633,#634,#635,#636,#637,#638,#639));
#111=EDGE_LOOP('',(#640,#641,#642,#643,#644,#645,#646));
#112=EDGE_LOOP('',(#647,#648,#649));
#113=EDGE_LOOP('',(#650,#651,#652,#653,#654,#655));
#114=EDGE_LOOP('',(#656,#657,#658,#659));
#115=EDGE_LOOP('',(#660,#661,#662,#663,#664,#665,#666,#667,#668,#669));
#116=EDGE_LOOP('',(#670,#671,#672,#673));
#117=EDGE_LOOP('',(#674,#675,#676,#677));
#118=EDGE_LOOP('',(#678,#679,#680,#681));
#119=EDGE_LOOP('',(#682,#683,#684,#685,#686,#687,#688,#689,#690));
#120=EDGE_LOOP('',(#691,#692,#693,#694));
#121=EDGE_LOOP('',(#695,#696,#697,#698));
#122=EDGE_LOOP('',(#699,#700,#701,#702,#703,#704,#705,#706,#707,#708,#709,
#710));
#123=EDGE_LOOP('',(#711));
#124=EDGE_LOOP('',(#712));
#125=EDGE_LOOP('',(#713,#714,#715,#716,#717,#718,#719,#720,#721));
#126=EDGE_LOOP('',(#722,#723,#724));
#127=EDGE_LOOP('',(#725,#726,#727));
#128=EDGE_LOOP('',(#728,#729,#730));
#129=EDGE_LOOP('',(#731,#732,#733));
#130=EDGE_LOOP('',(#734));
#131=EDGE_LOOP('',(#735));
#132=EDGE_LOOP('',(#736));
#133=EDGE_LOOP('',(#737));
#134=EDGE_LOOP('',(#738,#739,#740,#741,#742,#743,#744,#745,#746,#747,#748,
#749));
#135=EDGE_LOOP('',(#750));
#136=EDGE_LOOP('',(#751));
#137=EDGE_LOOP('',(#752,#753,#754,#755,#756,#757,#758,#759,#760,#761,#762,
#763));
#138=EDGE_LOOP('',(#764));
#139=EDGE_LOOP('',(#765));
#140=EDGE_LOOP('',(#766,#767,#768,#769,#770,#771,#772,#773,#774,#775,#776,
#777));
#141=EDGE_LOOP('',(#778));
#142=EDGE_LOOP('',(#779));
#143=EDGE_LOOP('',(#780,#781,#782,#783,#784,#785));
#144=EDGE_LOOP('',(#786));
#145=EDGE_LOOP('',(#787));
#146=EDGE_LOOP('',(#788,#789,#790,#791));
#147=EDGE_LOOP('',(#792,#793,#794,#795));
#148=EDGE_LOOP('',(#796,#797));
#149=EDGE_LOOP('',(#798,#799,#800));
#150=EDGE_LOOP('',(#801,#802,#803));
#151=EDGE_LOOP('',(#804,#805,#806));
#152=EDGE_LOOP('',(#807));
#153=EDGE_LOOP('',(#808,#809,#810));
#154=EDGE_LOOP('',(#811));
#155=EDGE_LOOP('',(#812));
#156=EDGE_LOOP('',(#813,#814,#815,#816));
#157=EDGE_LOOP('',(#817,#818,#819,#820));
#158=EDGE_LOOP('',(#821,#822,#823,#824));
#159=EDGE_LOOP('',(#825,#826,#827,#828));
#160=EDGE_LOOP('',(#829,#830,#831,#832));
#161=EDGE_LOOP('',(#833,#834,#835,#836));
#162=EDGE_LOOP('',(#837,#838,#839,#840));
#163=EDGE_LOOP('',(#841,#842,#843,#844,#845,#846,#847));
#164=EDGE_LOOP('',(#848));
#165=EDGE_LOOP('',(#849));
#166=EDGE_LOOP('',(#850,#851,#852,#853));
#167=EDGE_LOOP('',(#854,#855,#856,#857));
#168=EDGE_LOOP('',(#858,#859,#860,#861));
#169=EDGE_LOOP('',(#862,#863,#864,#865));
#170=EDGE_LOOP('',(#866,#867,#868,#869));
#171=EDGE_LOOP('',(#870,#871,#872,#873));
#172=EDGE_LOOP('',(#874,#875,#876,#877));
#173=CIRCLE('',#972,60.);
#174=CIRCLE('',#973,2.75);
#175=CIRCLE('',#974,2.75);
#176=CIRCLE('',#975,2.75);
#177=CIRCLE('',#976,2.75);
#178=CIRCLE('',#979,20.);
#179=CIRCLE('',#981,20.);
#180=CIRCLE('',#982,20.);
#181=CIRCLE('',#988,2.75);
#182=CIRCLE('',#990,2.75);
#183=CIRCLE('',#992,2.75);
#184=CIRCLE('',#994,2.75);
#185=CIRCLE('',#995,2.75);
#186=CIRCLE('',#996,2.75);
#187=CIRCLE('',#1000,5.);
#188=CIRCLE('',#1001,5.);
#189=CIRCLE('',#1002,5.);
#190=CIRCLE('',#1003,5.);
#191=CIRCLE('',#1004,5.);
#192=CIRCLE('',#1005,5.);
#193=CIRCLE('',#1009,58.);
#194=CIRCLE('',#1010,5.);
#195=CIRCLE('',#1011,5.);
#196=CIRCLE('',#1012,2.2);
#197=CIRCLE('',#1013,5.);
#198=CIRCLE('',#1014,5.);
#199=CIRCLE('',#1015,2.2);
#200=CIRCLE('',#1016,5.);
#201=CIRCLE('',#1017,5.);
#202=CIRCLE('',#1018,2.2);
#203=CIRCLE('',#1019,2.2);
#204=CIRCLE('',#1020,23.7);
#205=CIRCLE('',#1022,5.);
#206=CIRCLE('',#1023,5.);
#207=CIRCLE('',#1024,5.);
#208=CIRCLE('',#1025,5.);
#209=CIRCLE('',#1029,5.);
#210=CIRCLE('',#1030,5.);
#211=CIRCLE('',#1031,5.);
#212=CIRCLE('',#1032,5.);
#213=CIRCLE('',#1036,5.);
#214=CIRCLE('',#1037,5.);
#215=CIRCLE('',#1038,5.);
#216=CIRCLE('',#1039,5.);
#217=CIRCLE('',#1043,60.);
#218=CIRCLE('',#1044,60.);
#219=CIRCLE('',#1046,27.);
#220=CIRCLE('',#1047,23.7);
#221=CIRCLE('',#1049,27.);
#222=CIRCLE('',#1051,23.7);
#223=CIRCLE('',#1053,58.);
#224=CIRCLE('',#1054,2.2);
#225=CIRCLE('',#1055,2.2);
#226=CIRCLE('',#1056,2.2);
#227=CIRCLE('',#1057,2.2);
#228=CIRCLE('',#1059,18.);
#229=CIRCLE('',#1066,18.);
#230=CIRCLE('',#1070,23.7);
#231=LINE('',#1374,#307);
#232=LINE('',#1376,#308);
#233=LINE('',#1378,#309);
#234=LINE('',#1380,#310);
#235=LINE('',#1382,#311);
#236=LINE('',#1384,#312);
#237=LINE('',#1386,#313);
#238=LINE('',#1388,#314);
#239=LINE('',#1390,#315);
#240=LINE('',#1392,#316);
#241=LINE('',#1394,#317);
#242=LINE('',#1396,#318);
#243=LINE('',#1399,#319);
#244=LINE('',#1410,#320);
#245=LINE('',#1412,#321);
#246=LINE('',#1413,#322);
#247=LINE('',#1418,#323);
#248=LINE('',#1420,#324);
#249=LINE('',#1422,#325);
#250=LINE('',#1423,#326);
#251=LINE('',#1425,#327);
#252=LINE('',#1426,#328);
#253=LINE('',#1431,#329);
#254=LINE('',#1441,#330);
#255=LINE('',#1443,#331);
#256=LINE('',#1446,#332);
#257=LINE('',#1448,#333);
#258=LINE('',#1449,#334);
#259=LINE('',#1452,#335);
#260=LINE('',#1453,#336);
#261=LINE('',#1456,#337);
#262=LINE('',#1458,#338);
#263=LINE('',#1460,#339);
#264=LINE('',#1462,#340);
#265=LINE('',#1464,#341);
#266=LINE('',#1466,#342);
#267=LINE('',#1468,#343);
#268=LINE('',#1469,#344);
#269=LINE('',#1472,#345);
#270=LINE('',#1476,#346);
#271=LINE('',#1480,#347);
#272=LINE('',#1484,#348);
#273=LINE('',#1488,#349);
#274=LINE('',#1491,#350);
#275=LINE('',#1494,#351);
#276=LINE('',#1495,#352);
#277=LINE('',#1497,#353);
#278=LINE('',#1502,#354);
#279=LINE('',#1506,#355);
#280=LINE('',#1510,#356);
#281=LINE('',#1515,#357);
#282=LINE('',#1545,#358);
#283=LINE('',#1547,#359);
#284=LINE('',#1551,#360);
#285=LINE('',#1555,#361);
#286=LINE('',#1561,#362);
#287=LINE('',#1563,#363);
#288=LINE('',#1567,#364);
#289=LINE('',#1571,#365);
#290=LINE('',#1577,#366);
#291=LINE('',#1579,#367);
#292=LINE('',#1583,#368);
#293=LINE('',#1587,#369);
#294=LINE('',#1592,#370);
#295=LINE('',#1596,#371);
#296=LINE('',#1605,#372);
#297=LINE('',#1608,#373);
#298=LINE('',#1626,#374);
#299=LINE('',#1629,#375);
#300=LINE('',#1635,#376);
#301=LINE('',#1638,#377);
#302=LINE('',#1639,#378);
#303=LINE('',#1641,#379);
#304=LINE('',#1644,#380);
#305=LINE('',#1645,#381);
#306=LINE('',#1647,#382);
#307=VECTOR('',#1082,10.);
#308=VECTOR('',#1083,10.);
#309=VECTOR('',#1084,10.);
#310=VECTOR('',#1085,10.);
#311=VECTOR('',#1086,10.);
#312=VECTOR('',#1087,10.);
#313=VECTOR('',#1088,10.);
#314=VECTOR('',#1089,10.);
#315=VECTOR('',#1090,10.);
#316=VECTOR('',#1091,10.);
#317=VECTOR('',#1092,10.);
#318=VECTOR('',#1093,10.);
#319=VECTOR('',#1096,10.);
#320=VECTOR('',#1107,1.);
#321=VECTOR('',#1108,1.);
#322=VECTOR('',#1109,1.);
#323=VECTOR('',#1114,1.);
#324=VECTOR('',#1115,1.);
#325=VECTOR('',#1116,1.);
#326=VECTOR('',#1117,1.);
#327=VECTOR('',#1118,1.);
#328=VECTOR('',#1119,1.);
#329=VECTOR('',#1124,1.);
#330=VECTOR('',#1127,1.);
#331=VECTOR('',#1130,1.);
#332=VECTOR('',#1133,1.);
#333=VECTOR('',#1134,1.);
#334=VECTOR('',#1135,1.);
#335=VECTOR('',#1138,1.);
#336=VECTOR('',#1139,1.);
#337=VECTOR('',#1142,1.);
#338=VECTOR('',#1143,1.);
#339=VECTOR('',#1144,1.);
#340=VECTOR('',#1145,1.);
#341=VECTOR('',#1146,1.);
#342=VECTOR('',#1147,1.);
#343=VECTOR('',#1148,1.);
#344=VECTOR('',#1149,1.);
#345=VECTOR('',#1152,2.75);
#346=VECTOR('',#1157,2.75);
#347=VECTOR('',#1162,2.75);
#348=VECTOR('',#1167,2.75);
#349=VECTOR('',#1170,10.);
#350=VECTOR('',#1173,10.);
#351=VECTOR('',#1178,1.);
#352=VECTOR('',#1179,1.);
#353=VECTOR('',#1182,1.);
#354=VECTOR('',#1187,5.);
#355=VECTOR('',#1190,10.);
#356=VECTOR('',#1193,5.);
#357=VECTOR('',#1198,10.);
#358=VECTOR('',#1235,5.);
#359=VECTOR('',#1236,10.);
#360=VECTOR('',#1239,5.);
#361=VECTOR('',#1244,10.);
#362=VECTOR('',#1253,5.);
#363=VECTOR('',#1254,10.);
#364=VECTOR('',#1257,5.);
#365=VECTOR('',#1262,10.);
#366=VECTOR('',#1271,5.);
#367=VECTOR('',#1272,10.);
#368=VECTOR('',#1275,5.);
#369=VECTOR('',#1280,10.);
#370=VECTOR('',#1287,1.);
#371=VECTOR('',#1292,1.);
#372=VECTOR('',#1303,27.);
#373=VECTOR('',#1306,23.7);
#374=VECTOR('',#1337,18.);
#375=VECTOR('',#1342,1.);
#376=VECTOR('',#1351,23.7);
#377=VECTOR('',#1354,1.);
#378=VECTOR('',#1355,1.);
#379=VECTOR('',#1358,1.);
#380=VECTOR('',#1361,1.);
#381=VECTOR('',#1362,1.);
#382=VECTOR('',#1365,1.);
#383=VERTEX_POINT('',#1372);
#384=VERTEX_POINT('',#1373);
#385=VERTEX_POINT('',#1375);
#386=VERTEX_POINT('',#1377);
#387=VERTEX_POINT('',#1379);
#388=VERTEX_POINT('',#1381);
#389=VERTEX_POINT('',#1383);
#390=VERTEX_POINT('',#1385);
#391=VERTEX_POINT('',#1387);
#392=VERTEX_POINT('',#1389);
#393=VERTEX_POINT('',#1391);
#394=VERTEX_POINT('',#1393);
#395=VERTEX_POINT('',#1395);
#396=VERTEX_POINT('',#1397);
#397=VERTEX_POINT('',#1400);
#398=VERTEX_POINT('',#1402);
#399=VERTEX_POINT('',#1404);
#400=VERTEX_POINT('',#1406);
#401=VERTEX_POINT('',#1409);
#402=VERTEX_POINT('',#1411);
#403=VERTEX_POINT('',#1415);
#404=VERTEX_POINT('',#1417);
#405=VERTEX_POINT('',#1419);
#406=VERTEX_POINT('',#1421);
#407=VERTEX_POINT('',#1424);
#408=VERTEX_POINT('',#1428);
#409=VERTEX_POINT('',#1430);
#410=VERTEX_POINT('',#1432);
#411=VERTEX_POINT('',#1434);
#412=VERTEX_POINT('',#1445);
#413=VERTEX_POINT('',#1447);
#414=VERTEX_POINT('',#1451);
#415=VERTEX_POINT('',#1455);
#416=VERTEX_POINT('',#1457);
#417=VERTEX_POINT('',#1459);
#418=VERTEX_POINT('',#1461);
#419=VERTEX_POINT('',#1463);
#420=VERTEX_POINT('',#1465);
#421=VERTEX_POINT('',#1467);
#422=VERTEX_POINT('',#1471);
#423=VERTEX_POINT('',#1475);
#424=VERTEX_POINT('',#1479);
#425=VERTEX_POINT('',#1483);
#426=VERTEX_POINT('',#1485);
#427=VERTEX_POINT('',#1487);
#428=VERTEX_POINT('',#1490);
#429=VERTEX_POINT('',#1499);
#430=VERTEX_POINT('',#1501);
#431=VERTEX_POINT('',#1503);
#432=VERTEX_POINT('',#1505);
#433=VERTEX_POINT('',#1507);
#434=VERTEX_POINT('',#1509);
#435=VERTEX_POINT('',#1512);
#436=VERTEX_POINT('',#1514);
#437=VERTEX_POINT('',#1521);
#438=VERTEX_POINT('',#1522);
#439=VERTEX_POINT('',#1524);
#440=VERTEX_POINT('',#1527);
#441=VERTEX_POINT('',#1528);
#442=VERTEX_POINT('',#1530);
#443=VERTEX_POINT('',#1533);
#444=VERTEX_POINT('',#1534);
#445=VERTEX_POINT('',#1536);
#446=VERTEX_POINT('',#1540);
#447=VERTEX_POINT('',#1543);
#448=VERTEX_POINT('',#1546);
#449=VERTEX_POINT('',#1548);
#450=VERTEX_POINT('',#1550);
#451=VERTEX_POINT('',#1553);
#452=VERTEX_POINT('',#1559);
#453=VERTEX_POINT('',#1562);
#454=VERTEX_POINT('',#1564);
#455=VERTEX_POINT('',#1566);
#456=VERTEX_POINT('',#1569);
#457=VERTEX_POINT('',#1575);
#458=VERTEX_POINT('',#1578);
#459=VERTEX_POINT('',#1580);
#460=VERTEX_POINT('',#1582);
#461=VERTEX_POINT('',#1585);
#462=VERTEX_POINT('',#1591);
#463=VERTEX_POINT('',#1594);
#464=VERTEX_POINT('',#1598);
#465=VERTEX_POINT('',#1600);
#466=VERTEX_POINT('',#1603);
#467=VERTEX_POINT('',#1607);
#468=VERTEX_POINT('',#1617);
#469=VERTEX_POINT('',#1625);
#470=VERTEX_POINT('',#1632);
#471=VERTEX_POINT('',#1637);
#472=VERTEX_POINT('',#1643);
#473=EDGE_CURVE('',#383,#384,#231,.T.);
#474=EDGE_CURVE('',#384,#385,#232,.T.);
#475=EDGE_CURVE('',#385,#386,#233,.T.);
#476=EDGE_CURVE('',#386,#387,#234,.T.);
#477=EDGE_CURVE('',#387,#388,#235,.T.);
#478=EDGE_CURVE('',#388,#389,#236,.T.);
#479=EDGE_CURVE('',#389,#390,#237,.T.);
#480=EDGE_CURVE('',#390,#391,#238,.T.);
#481=EDGE_CURVE('',#391,#392,#239,.T.);
#482=EDGE_CURVE('',#392,#393,#240,.T.);
#483=EDGE_CURVE('',#393,#394,#241,.T.);
#484=EDGE_CURVE('',#394,#395,#242,.T.);
#485=EDGE_CURVE('',#395,#396,#173,.T.);
#486=EDGE_CURVE('',#396,#383,#243,.T.);
#487=EDGE_CURVE('',#397,#397,#174,.T.);
#488=EDGE_CURVE('',#398,#398,#175,.T.);
#489=EDGE_CURVE('',#399,#399,#176,.T.);
#490=EDGE_CURVE('',#400,#400,#177,.T.);
#491=EDGE_CURVE('',#389,#401,#244,.T.);
#492=EDGE_CURVE('',#401,#402,#245,.T.);
#493=EDGE_CURVE('',#390,#402,#246,.T.);
#494=EDGE_CURVE('',#388,#403,#178,.T.);
#495=EDGE_CURVE('',#403,#404,#247,.T.);
#496=EDGE_CURVE('',#404,#405,#248,.T.);
#497=EDGE_CURVE('',#405,#406,#249,.T.);
#498=EDGE_CURVE('',#406,#393,#250,.T.);
#499=EDGE_CURVE('',#407,#392,#251,.T.);
#500=EDGE_CURVE('',#401,#407,#252,.T.);
#501=EDGE_CURVE('',#408,#387,#179,.T.);
#502=EDGE_CURVE('',#408,#409,#253,.T.);
#503=EDGE_CURVE('',#409,#410,#180,.T.);
#504=EDGE_CURVE('',#410,#411,#15,.T.);
#505=EDGE_CURVE('',#411,#403,#254,.T.);
#506=EDGE_CURVE('',#386,#408,#255,.T.);
#507=EDGE_CURVE('',#412,#385,#256,.T.);
#508=EDGE_CURVE('',#412,#413,#257,.T.);
#509=EDGE_CURVE('',#409,#413,#258,.T.);
#510=EDGE_CURVE('',#384,#414,#259,.T.);
#511=EDGE_CURVE('',#414,#412,#260,.T.);
#512=EDGE_CURVE('',#415,#383,#261,.T.);
#513=EDGE_CURVE('',#416,#415,#262,.T.);
#514=EDGE_CURVE('',#417,#416,#263,.T.);
#515=EDGE_CURVE('',#418,#417,#264,.T.);
#516=EDGE_CURVE('',#419,#418,#265,.T.);
#517=EDGE_CURVE('',#420,#419,#266,.T.);
#518=EDGE_CURVE('',#421,#420,#267,.T.);
#519=EDGE_CURVE('',#414,#421,#268,.T.);
#520=EDGE_CURVE('',#400,#422,#269,.T.);
#521=EDGE_CURVE('',#422,#422,#181,.T.);
#522=EDGE_CURVE('',#399,#423,#270,.T.);
#523=EDGE_CURVE('',#423,#423,#182,.T.);
#524=EDGE_CURVE('',#398,#424,#271,.T.);
#525=EDGE_CURVE('',#424,#424,#183,.T.);
#526=EDGE_CURVE('',#397,#425,#272,.T.);
#527=EDGE_CURVE('',#426,#425,#184,.T.);
#528=EDGE_CURVE('',#427,#426,#273,.T.);
#529=EDGE_CURVE('',#411,#427,#185,.T.);
#530=EDGE_CURVE('',#428,#410,#274,.T.);
#531=EDGE_CURVE('',#425,#428,#186,.T.);
#532=EDGE_CURVE('',#426,#417,#275,.T.);
#533=EDGE_CURVE('',#427,#416,#276,.T.);
#534=EDGE_CURVE('',#413,#428,#277,.T.);
#535=EDGE_CURVE('',#429,#429,#187,.T.);
#536=EDGE_CURVE('',#429,#430,#278,.T.);
#537=EDGE_CURVE('',#431,#430,#188,.T.);
#538=EDGE_CURVE('',#432,#431,#279,.T.);
#539=EDGE_CURVE('',#433,#432,#189,.T.);
#540=EDGE_CURVE('',#433,#434,#280,.T.);
#541=EDGE_CURVE('',#434,#434,#190,.T.);
#542=EDGE_CURVE('',#435,#433,#191,.T.);
#543=EDGE_CURVE('',#436,#435,#281,.T.);
#544=EDGE_CURVE('',#430,#436,#192,.T.);
#545=EDGE_CURVE('',#421,#418,#193,.T.);
#546=EDGE_CURVE('',#437,#438,#194,.T.);
#547=EDGE_CURVE('',#438,#439,#195,.T.);
#548=EDGE_CURVE('',#439,#437,#196,.T.);
#549=EDGE_CURVE('',#440,#441,#197,.T.);
#550=EDGE_CURVE('',#441,#442,#198,.T.);
#551=EDGE_CURVE('',#442,#440,#199,.T.);
#552=EDGE_CURVE('',#443,#444,#200,.T.);
#553=EDGE_CURVE('',#444,#445,#201,.T.);
#554=EDGE_CURVE('',#445,#443,#202,.T.);
#555=EDGE_CURVE('',#436,#431,#203,.T.);
#556=EDGE_CURVE('',#446,#446,#204,.T.);
#557=EDGE_CURVE('',#447,#447,#205,.T.);
#558=EDGE_CURVE('',#447,#441,#282,.T.);
#559=EDGE_CURVE('',#448,#440,#283,.T.);
#560=EDGE_CURVE('',#449,#448,#206,.T.);
#561=EDGE_CURVE('',#449,#450,#284,.T.);
#562=EDGE_CURVE('',#450,#450,#207,.T.);
#563=EDGE_CURVE('',#451,#449,#208,.T.);
#564=EDGE_CURVE('',#442,#451,#285,.T.);
#565=EDGE_CURVE('',#452,#452,#209,.T.);
#566=EDGE_CURVE('',#452,#444,#286,.T.);
#567=EDGE_CURVE('',#453,#443,#287,.T.);
#568=EDGE_CURVE('',#454,#453,#210,.T.);
#569=EDGE_CURVE('',#454,#455,#288,.T.);
#570=EDGE_CURVE('',#455,#455,#211,.T.);
#571=EDGE_CURVE('',#456,#454,#212,.T.);
#572=EDGE_CURVE('',#445,#456,#289,.T.);
#573=EDGE_CURVE('',#457,#457,#213,.T.);
#574=EDGE_CURVE('',#457,#438,#290,.T.);
#575=EDGE_CURVE('',#458,#437,#291,.T.);
#576=EDGE_CURVE('',#459,#458,#214,.T.);
#577=EDGE_CURVE('',#459,#460,#292,.T.);
#578=EDGE_CURVE('',#460,#460,#215,.T.);
#579=EDGE_CURVE('',#461,#459,#216,.T.);
#580=EDGE_CURVE('',#439,#461,#293,.T.);
#581=EDGE_CURVE('',#395,#462,#294,.T.);
#582=EDGE_CURVE('',#462,#405,#217,.T.);
#583=EDGE_CURVE('',#463,#404,#218,.T.);
#584=EDGE_CURVE('',#396,#463,#295,.T.);
#585=EDGE_CURVE('',#464,#464,#219,.T.);
#586=EDGE_CURVE('',#465,#465,#220,.T.);
#587=EDGE_CURVE('',#466,#466,#221,.T.);
#588=EDGE_CURVE('',#466,#464,#296,.T.);
#589=EDGE_CURVE('',#465,#467,#297,.T.);
#590=EDGE_CURVE('',#467,#467,#222,.T.);
#591=EDGE_CURVE('',#419,#420,#223,.T.);
#592=EDGE_CURVE('',#432,#435,#224,.T.);
#593=EDGE_CURVE('',#448,#451,#225,.T.);
#594=EDGE_CURVE('',#458,#461,#226,.T.);
#595=EDGE_CURVE('',#453,#456,#227,.T.);
#596=EDGE_CURVE('',#468,#468,#228,.T.);
#597=EDGE_CURVE('',#468,#469,#298,.T.);
#598=EDGE_CURVE('',#469,#469,#229,.T.);
#599=EDGE_CURVE('',#463,#415,#299,.T.);
#600=EDGE_CURVE('',#470,#470,#230,.T.);
#601=EDGE_CURVE('',#470,#446,#300,.T.);
#602=EDGE_CURVE('',#462,#471,#301,.T.);
#603=EDGE_CURVE('',#471,#406,#302,.T.);
#604=EDGE_CURVE('',#471,#394,#303,.T.);
#605=EDGE_CURVE('',#472,#391,#304,.T.);
#606=EDGE_CURVE('',#407,#472,#305,.T.);
#607=EDGE_CURVE('',#402,#472,#306,.T.);
#608=ORIENTED_EDGE('',*,*,#473,.T.);
#609=ORIENTED_EDGE('',*,*,#474,.T.);
#610=ORIENTED_EDGE('',*,*,#475,.T.);
#611=ORIENTED_EDGE('',*,*,#476,.T.);
#612=ORIENTED_EDGE('',*,*,#477,.T.);
#613=ORIENTED_EDGE('',*,*,#478,.T.);
#614=ORIENTED_EDGE('',*,*,#479,.T.);
#615=ORIENTED_EDGE('',*,*,#480,.T.);
#616=ORIENTED_EDGE('',*,*,#481,.T.);
#617=ORIENTED_EDGE('',*,*,#482,.T.);
#618=ORIENTED_EDGE('',*,*,#483,.T.);
#619=ORIENTED_EDGE('',*,*,#484,.T.);
#620=ORIENTED_EDGE('',*,*,#485,.T.);
#621=ORIENTED_EDGE('',*,*,#486,.T.);
#622=ORIENTED_EDGE('',*,*,#487,.F.);
#623=ORIENTED_EDGE('',*,*,#488,.F.);
#624=ORIENTED_EDGE('',*,*,#489,.F.);
#625=ORIENTED_EDGE('',*,*,#490,.F.);
#626=ORIENTED_EDGE('',*,*,#479,.F.);
#627=ORIENTED_EDGE('',*,*,#491,.T.);
#628=ORIENTED_EDGE('',*,*,#492,.T.);
#629=ORIENTED_EDGE('',*,*,#493,.F.);
#630=ORIENTED_EDGE('',*,*,#478,.F.);
#631=ORIENTED_EDGE('',*,*,#494,.T.);
#632=ORIENTED_EDGE('',*,*,#495,.T.);
#633=ORIENTED_EDGE('',*,*,#496,.T.);
#634=ORIENTED_EDGE('',*,*,#497,.T.);
#635=ORIENTED_EDGE('',*,*,#498,.T.);
#636=ORIENTED_EDGE('',*,*,#482,.F.);
#637=ORIENTED_EDGE('',*,*,#499,.F.);
#638=ORIENTED_EDGE('',*,*,#500,.F.);
#639=ORIENTED_EDGE('',*,*,#491,.F.);
#640=ORIENTED_EDGE('',*,*,#477,.F.);
#641=ORIENTED_EDGE('',*,*,#501,.F.);
#642=ORIENTED_EDGE('',*,*,#502,.T.);
#643=ORIENTED_EDGE('',*,*,#503,.T.);
#644=ORIENTED_EDGE('',*,*,#504,.T.);
#645=ORIENTED_EDGE('',*,*,#505,.T.);
#646=ORIENTED_EDGE('',*,*,#494,.F.);
#647=ORIENTED_EDGE('',*,*,#476,.F.);
#648=ORIENTED_EDGE('',*,*,#506,.T.);
#649=ORIENTED_EDGE('',*,*,#501,.T.);
#650=ORIENTED_EDGE('',*,*,#475,.F.);
#651=ORIENTED_EDGE('',*,*,#507,.F.);
#652=ORIENTED_EDGE('',*,*,#508,.T.);
#653=ORIENTED_EDGE('',*,*,#509,.F.);
#654=ORIENTED_EDGE('',*,*,#502,.F.);
#655=ORIENTED_EDGE('',*,*,#506,.F.);
#656=ORIENTED_EDGE('',*,*,#474,.F.);
#657=ORIENTED_EDGE('',*,*,#510,.T.);
#658=ORIENTED_EDGE('',*,*,#511,.T.);
#659=ORIENTED_EDGE('',*,*,#507,.T.);
#660=ORIENTED_EDGE('',*,*,#473,.F.);
#661=ORIENTED_EDGE('',*,*,#512,.F.);
#662=ORIENTED_EDGE('',*,*,#513,.F.);
#663=ORIENTED_EDGE('',*,*,#514,.F.);
#664=ORIENTED_EDGE('',*,*,#515,.F.);
#665=ORIENTED_EDGE('',*,*,#516,.F.);
#666=ORIENTED_EDGE('',*,*,#517,.F.);
#667=ORIENTED_EDGE('',*,*,#518,.F.);
#668=ORIENTED_EDGE('',*,*,#519,.F.);
#669=ORIENTED_EDGE('',*,*,#510,.F.);
#670=ORIENTED_EDGE('',*,*,#490,.T.);
#671=ORIENTED_EDGE('',*,*,#520,.T.);
#672=ORIENTED_EDGE('',*,*,#521,.F.);
#673=ORIENTED_EDGE('',*,*,#520,.F.);
#674=ORIENTED_EDGE('',*,*,#489,.T.);
#675=ORIENTED_EDGE('',*,*,#522,.T.);
#676=ORIENTED_EDGE('',*,*,#523,.F.);
#677=ORIENTED_EDGE('',*,*,#522,.F.);
#678=ORIENTED_EDGE('',*,*,#488,.T.);
#679=ORIENTED_EDGE('',*,*,#524,.T.);
#680=ORIENTED_EDGE('',*,*,#525,.F.);
#681=ORIENTED_EDGE('',*,*,#524,.F.);
#682=ORIENTED_EDGE('',*,*,#487,.T.);
#683=ORIENTED_EDGE('',*,*,#526,.T.);
#684=ORIENTED_EDGE('',*,*,#527,.F.);
#685=ORIENTED_EDGE('',*,*,#528,.F.);
#686=ORIENTED_EDGE('',*,*,#529,.F.);
#687=ORIENTED_EDGE('',*,*,#504,.F.);
#688=ORIENTED_EDGE('',*,*,#530,.F.);
#689=ORIENTED_EDGE('',*,*,#531,.F.);
#690=ORIENTED_EDGE('',*,*,#526,.F.);
#691=ORIENTED_EDGE('',*,*,#528,.T.);
#692=ORIENTED_EDGE('',*,*,#532,.T.);
#693=ORIENTED_EDGE('',*,*,#514,.T.);
#694=ORIENTED_EDGE('',*,*,#533,.F.);
#695=ORIENTED_EDGE('',*,*,#530,.T.);
#696=ORIENTED_EDGE('',*,*,#503,.F.);
#697=ORIENTED_EDGE('',*,*,#509,.T.);
#698=ORIENTED_EDGE('',*,*,#534,.T.);
#699=ORIENTED_EDGE('',*,*,#535,.F.);
#700=ORIENTED_EDGE('',*,*,#536,.T.);
#701=ORIENTED_EDGE('',*,*,#537,.F.);
#702=ORIENTED_EDGE('',*,*,#538,.F.);
#703=ORIENTED_EDGE('',*,*,#539,.F.);
#704=ORIENTED_EDGE('',*,*,#540,.T.);
#705=ORIENTED_EDGE('',*,*,#541,.F.);
#706=ORIENTED_EDGE('',*,*,#540,.F.);
#707=ORIENTED_EDGE('',*,*,#542,.F.);
#708=ORIENTED_EDGE('',*,*,#543,.F.);
#709=ORIENTED_EDGE('',*,*,#544,.F.);
#710=ORIENTED_EDGE('',*,*,#536,.F.);
#711=ORIENTED_EDGE('',*,*,#541,.T.);
#712=ORIENTED_EDGE('',*,*,#535,.T.);
#713=ORIENTED_EDGE('',*,*,#527,.T.);
#714=ORIENTED_EDGE('',*,*,#531,.T.);
#715=ORIENTED_EDGE('',*,*,#534,.F.);
#716=ORIENTED_EDGE('',*,*,#508,.F.);
#717=ORIENTED_EDGE('',*,*,#511,.F.);
#718=ORIENTED_EDGE('',*,*,#519,.T.);
#719=ORIENTED_EDGE('',*,*,#545,.T.);
#720=ORIENTED_EDGE('',*,*,#515,.T.);
#721=ORIENTED_EDGE('',*,*,#532,.F.);
#722=ORIENTED_EDGE('',*,*,#546,.T.);
#723=ORIENTED_EDGE('',*,*,#547,.T.);
#724=ORIENTED_EDGE('',*,*,#548,.T.);
#725=ORIENTED_EDGE('',*,*,#549,.T.);
#726=ORIENTED_EDGE('',*,*,#550,.T.);
#727=ORIENTED_EDGE('',*,*,#551,.T.);
#728=ORIENTED_EDGE('',*,*,#552,.T.);
#729=ORIENTED_EDGE('',*,*,#553,.T.);
#730=ORIENTED_EDGE('',*,*,#554,.T.);
#731=ORIENTED_EDGE('',*,*,#537,.T.);
#732=ORIENTED_EDGE('',*,*,#544,.T.);
#733=ORIENTED_EDGE('',*,*,#555,.T.);
#734=ORIENTED_EDGE('',*,*,#556,.T.);
#735=ORIENTED_EDGE('',*,*,#525,.T.);
#736=ORIENTED_EDGE('',*,*,#523,.T.);
#737=ORIENTED_EDGE('',*,*,#521,.T.);
#738=ORIENTED_EDGE('',*,*,#557,.F.);
#739=ORIENTED_EDGE('',*,*,#558,.T.);
#740=ORIENTED_EDGE('',*,*,#549,.F.);
#741=ORIENTED_EDGE('',*,*,#559,.F.);
#742=ORIENTED_EDGE('',*,*,#560,.F.);
#743=ORIENTED_EDGE('',*,*,#561,.T.);
#744=ORIENTED_EDGE('',*,*,#562,.F.);
#745=ORIENTED_EDGE('',*,*,#561,.F.);
#746=ORIENTED_EDGE('',*,*,#563,.F.);
#747=ORIENTED_EDGE('',*,*,#564,.F.);
#748=ORIENTED_EDGE('',*,*,#550,.F.);
#749=ORIENTED_EDGE('',*,*,#558,.F.);
#750=ORIENTED_EDGE('',*,*,#562,.T.);
#751=ORIENTED_EDGE('',*,*,#557,.T.);
#752=ORIENTED_EDGE('',*,*,#565,.F.);
#753=ORIENTED_EDGE('',*,*,#566,.T.);
#754=ORIENTED_EDGE('',*,*,#552,.F.);
#755=ORIENTED_EDGE('',*,*,#567,.F.);
#756=ORIENTED_EDGE('',*,*,#568,.F.);
#757=ORIENTED_EDGE('',*,*,#569,.T.);
#758=ORIENTED_EDGE('',*,*,#570,.F.);
#759=ORIENTED_EDGE('',*,*,#569,.F.);
#760=ORIENTED_EDGE('',*,*,#571,.F.);
#761=ORIENTED_EDGE('',*,*,#572,.F.);
#762=ORIENTED_EDGE('',*,*,#553,.F.);
#763=ORIENTED_EDGE('',*,*,#566,.F.);
#764=ORIENTED_EDGE('',*,*,#570,.T.);
#765=ORIENTED_EDGE('',*,*,#565,.T.);
#766=ORIENTED_EDGE('',*,*,#573,.F.);
#767=ORIENTED_EDGE('',*,*,#574,.T.);
#768=ORIENTED_EDGE('',*,*,#546,.F.);
#769=ORIENTED_EDGE('',*,*,#575,.F.);
#770=ORIENTED_EDGE('',*,*,#576,.F.);
#771=ORIENTED_EDGE('',*,*,#577,.T.);
#772=ORIENTED_EDGE('',*,*,#578,.F.);
#773=ORIENTED_EDGE('',*,*,#577,.F.);
#774=ORIENTED_EDGE('',*,*,#579,.F.);
#775=ORIENTED_EDGE('',*,*,#580,.F.);
#776=ORIENTED_EDGE('',*,*,#547,.F.);
#777=ORIENTED_EDGE('',*,*,#574,.F.);
#778=ORIENTED_EDGE('',*,*,#578,.T.);
#779=ORIENTED_EDGE('',*,*,#573,.T.);
#780=ORIENTED_EDGE('',*,*,#485,.F.);
#781=ORIENTED_EDGE('',*,*,#581,.T.);
#782=ORIENTED_EDGE('',*,*,#582,.T.);
#783=ORIENTED_EDGE('',*,*,#496,.F.);
#784=ORIENTED_EDGE('',*,*,#583,.F.);
#785=ORIENTED_EDGE('',*,*,#584,.F.);
#786=ORIENTED_EDGE('',*,*,#585,.F.);
#787=ORIENTED_EDGE('',*,*,#586,.F.);
#788=ORIENTED_EDGE('',*,*,#587,.F.);
#789=ORIENTED_EDGE('',*,*,#588,.T.);
#790=ORIENTED_EDGE('',*,*,#585,.T.);
#791=ORIENTED_EDGE('',*,*,#588,.F.);
#792=ORIENTED_EDGE('',*,*,#586,.T.);
#793=ORIENTED_EDGE('',*,*,#589,.T.);
#794=ORIENTED_EDGE('',*,*,#590,.F.);
#795=ORIENTED_EDGE('',*,*,#589,.F.);
#796=ORIENTED_EDGE('',*,*,#591,.T.);
#797=ORIENTED_EDGE('',*,*,#517,.T.);
#798=ORIENTED_EDGE('',*,*,#542,.T.);
#799=ORIENTED_EDGE('',*,*,#539,.T.);
#800=ORIENTED_EDGE('',*,*,#592,.T.);
#801=ORIENTED_EDGE('',*,*,#563,.T.);
#802=ORIENTED_EDGE('',*,*,#560,.T.);
#803=ORIENTED_EDGE('',*,*,#593,.T.);
#804=ORIENTED_EDGE('',*,*,#579,.T.);
#805=ORIENTED_EDGE('',*,*,#576,.T.);
#806=ORIENTED_EDGE('',*,*,#594,.T.);
#807=ORIENTED_EDGE('',*,*,#587,.T.);
#808=ORIENTED_EDGE('',*,*,#571,.T.);
#809=ORIENTED_EDGE('',*,*,#568,.T.);
#810=ORIENTED_EDGE('',*,*,#595,.T.);
#811=ORIENTED_EDGE('',*,*,#590,.T.);
#812=ORIENTED_EDGE('',*,*,#596,.T.);
#813=ORIENTED_EDGE('',*,*,#518,.T.);
#814=ORIENTED_EDGE('',*,*,#591,.F.);
#815=ORIENTED_EDGE('',*,*,#516,.T.);
#816=ORIENTED_EDGE('',*,*,#545,.F.);
#817=ORIENTED_EDGE('',*,*,#538,.T.);
#818=ORIENTED_EDGE('',*,*,#555,.F.);
#819=ORIENTED_EDGE('',*,*,#543,.T.);
#820=ORIENTED_EDGE('',*,*,#592,.F.);
#821=ORIENTED_EDGE('',*,*,#567,.T.);
#822=ORIENTED_EDGE('',*,*,#554,.F.);
#823=ORIENTED_EDGE('',*,*,#572,.T.);
#824=ORIENTED_EDGE('',*,*,#595,.F.);
#825=ORIENTED_EDGE('',*,*,#559,.T.);
#826=ORIENTED_EDGE('',*,*,#551,.F.);
#827=ORIENTED_EDGE('',*,*,#564,.T.);
#828=ORIENTED_EDGE('',*,*,#593,.F.);
#829=ORIENTED_EDGE('',*,*,#575,.T.);
#830=ORIENTED_EDGE('',*,*,#548,.F.);
#831=ORIENTED_EDGE('',*,*,#580,.T.);
#832=ORIENTED_EDGE('',*,*,#594,.F.);
#833=ORIENTED_EDGE('',*,*,#596,.F.);
#834=ORIENTED_EDGE('',*,*,#597,.T.);
#835=ORIENTED_EDGE('',*,*,#598,.F.);
#836=ORIENTED_EDGE('',*,*,#597,.F.);
#837=ORIENTED_EDGE('',*,*,#486,.F.);
#838=ORIENTED_EDGE('',*,*,#584,.T.);
#839=ORIENTED_EDGE('',*,*,#599,.T.);
#840=ORIENTED_EDGE('',*,*,#512,.T.);
#841=ORIENTED_EDGE('',*,*,#529,.T.);
#842=ORIENTED_EDGE('',*,*,#533,.T.);
#843=ORIENTED_EDGE('',*,*,#513,.T.);
#844=ORIENTED_EDGE('',*,*,#599,.F.);
#845=ORIENTED_EDGE('',*,*,#583,.T.);
#846=ORIENTED_EDGE('',*,*,#495,.F.);
#847=ORIENTED_EDGE('',*,*,#505,.F.);
#848=ORIENTED_EDGE('',*,*,#600,.T.);
#849=ORIENTED_EDGE('',*,*,#598,.T.);
#850=ORIENTED_EDGE('',*,*,#600,.F.);
#851=ORIENTED_EDGE('',*,*,#601,.T.);
#852=ORIENTED_EDGE('',*,*,#556,.F.);
#853=ORIENTED_EDGE('',*,*,#601,.F.);
#854=ORIENTED_EDGE('',*,*,#582,.F.);
#855=ORIENTED_EDGE('',*,*,#602,.T.);
#856=ORIENTED_EDGE('',*,*,#603,.T.);
#857=ORIENTED_EDGE('',*,*,#497,.F.);
#858=ORIENTED_EDGE('',*,*,#483,.F.);
#859=ORIENTED_EDGE('',*,*,#498,.F.);
#860=ORIENTED_EDGE('',*,*,#603,.F.);
#861=ORIENTED_EDGE('',*,*,#604,.T.);
#862=ORIENTED_EDGE('',*,*,#481,.F.);
#863=ORIENTED_EDGE('',*,*,#605,.F.);
#864=ORIENTED_EDGE('',*,*,#606,.F.);
#865=ORIENTED_EDGE('',*,*,#499,.T.);
#866=ORIENTED_EDGE('',*,*,#500,.T.);
#867=ORIENTED_EDGE('',*,*,#606,.T.);
#868=ORIENTED_EDGE('',*,*,#607,.F.);
#869=ORIENTED_EDGE('',*,*,#492,.F.);
#870=ORIENTED_EDGE('',*,*,#484,.F.);
#871=ORIENTED_EDGE('',*,*,#604,.F.);
#872=ORIENTED_EDGE('',*,*,#602,.F.);
#873=ORIENTED_EDGE('',*,*,#581,.F.);
#874=ORIENTED_EDGE('',*,*,#480,.F.);
#875=ORIENTED_EDGE('',*,*,#493,.T.);
#876=ORIENTED_EDGE('',*,*,#607,.T.);
#877=ORIENTED_EDGE('',*,*,#605,.T.);
#878=PLANE('',#971);
#879=PLANE('',#977);
#880=PLANE('',#978);
#881=PLANE('',#983);
#882=PLANE('',#984);
#883=PLANE('',#985);
#884=PLANE('',#986);
#885=PLANE('',#997);
#886=PLANE('',#998);
#887=PLANE('',#1006);
#888=PLANE('',#1007);
#889=PLANE('',#1008);
#890=PLANE('',#1026);
#891=PLANE('',#1027);
#892=PLANE('',#1033);
#893=PLANE('',#1034);
#894=PLANE('',#1040);
#895=PLANE('',#1041);
#896=PLANE('',#1045);
#897=PLANE('',#1052);
#898=PLANE('',#1058);
#899=PLANE('',#1067);
#900=PLANE('',#1068);
#901=PLANE('',#1069);
#902=PLANE('',#1072);
#903=PLANE('',#1073);
#904=PLANE('',#1074);
#905=PLANE('',#1075);
#906=PLANE('',#1076);
#907=PLANE('',#1077);
#908=ADVANCED_FACE('',(#55,#35,#36,#37,#38),#878,.F.);
#909=ADVANCED_FACE('',(#56),#879,.F.);
#910=ADVANCED_FACE('',(#57),#880,.F.);
#911=ADVANCED_FACE('',(#58),#16,.T.);
#912=ADVANCED_FACE('',(#59),#881,.T.);
#913=ADVANCED_FACE('',(#60),#882,.F.);
#914=ADVANCED_FACE('',(#61),#883,.T.);
#915=ADVANCED_FACE('',(#62),#884,.F.);
#916=ADVANCED_FACE('',(#63),#17,.F.);
#917=ADVANCED_FACE('',(#64),#18,.F.);
#918=ADVANCED_FACE('',(#65),#19,.F.);
#919=ADVANCED_FACE('',(#66),#20,.F.);
#920=ADVANCED_FACE('',(#67),#885,.F.);
#921=ADVANCED_FACE('',(#68),#886,.F.);
#922=ADVANCED_FACE('',(#69),#21,.T.);
#923=ADVANCED_FACE('',(#70),#887,.T.);
#924=ADVANCED_FACE('',(#71),#888,.T.);
#925=ADVANCED_FACE('',(#72,#39,#40,#41,#42,#43,#44,#45,#46),#889,.T.);
#926=ADVANCED_FACE('',(#73),#22,.T.);
#927=ADVANCED_FACE('',(#74),#890,.T.);
#928=ADVANCED_FACE('',(#75),#891,.T.);
#929=ADVANCED_FACE('',(#76),#23,.T.);
#930=ADVANCED_FACE('',(#77),#892,.T.);
#931=ADVANCED_FACE('',(#78),#893,.T.);
#932=ADVANCED_FACE('',(#79),#24,.T.);
#933=ADVANCED_FACE('',(#80),#894,.T.);
#934=ADVANCED_FACE('',(#81),#895,.T.);
#935=ADVANCED_FACE('',(#82),#25,.F.);
#936=ADVANCED_FACE('',(#83,#47),#896,.T.);
#937=ADVANCED_FACE('',(#84),#26,.T.);
#938=ADVANCED_FACE('',(#85),#27,.T.);
#939=ADVANCED_FACE('',(#86,#48,#49,#50,#51,#52),#897,.T.);
#940=ADVANCED_FACE('',(#87,#53),#898,.T.);
#941=ADVANCED_FACE('',(#88),#28,.T.);
#942=ADVANCED_FACE('',(#89),#29,.F.);
#943=ADVANCED_FACE('',(#90),#30,.F.);
#944=ADVANCED_FACE('',(#91),#31,.F.);
#945=ADVANCED_FACE('',(#92),#32,.F.);
#946=ADVANCED_FACE('',(#93),#33,.F.);
#947=ADVANCED_FACE('',(#94),#899,.T.);
#948=ADVANCED_FACE('',(#95),#900,.F.);
#949=ADVANCED_FACE('',(#96,#54),#901,.T.);
#950=ADVANCED_FACE('',(#97),#34,.F.);
#951=ADVANCED_FACE('',(#98),#902,.T.);
#952=ADVANCED_FACE('',(#99),#903,.T.);
#953=ADVANCED_FACE('',(#100),#904,.F.);
#954=ADVANCED_FACE('',(#101),#905,.F.);
#955=ADVANCED_FACE('',(#102),#906,.F.);
#956=ADVANCED_FACE('',(#103),#907,.T.);
#957=CLOSED_SHELL('',(#908,#909,#910,#911,#912,#913,#914,#915,#916,#917,
#918,#919,#920,#921,#922,#923,#924,#925,#926,#927,#928,#929,#930,#931,#932,
#933,#934,#935,#936,#937,#938,#939,#940,#941,#942,#943,#944,#945,#946,#947,
#948,#949,#950,#951,#952,#953,#954,#955,#956));
#958=DERIVED_UNIT_ELEMENT(#960,1.);
#959=DERIVED_UNIT_ELEMENT(#1655,-3.);
#960=(
MASS_UNIT()
NAMED_UNIT(*)
SI_UNIT(.KILO.,.GRAM.)
);
#961=DERIVED_UNIT((#958,#959));
#962=MEASURE_REPRESENTATION_ITEM('density measure',
POSITIVE_RATIO_MEASURE(7850.),#961);
#963=PROPERTY_DEFINITION_REPRESENTATION(#968,#965);
#964=PROPERTY_DEFINITION_REPRESENTATION(#969,#966);
#965=REPRESENTATION('material name',(#967),#1652);
#966=REPRESENTATION('density',(#962),#1652);
#967=DESCRIPTIVE_REPRESENTATION_ITEM('Steel','Steel');
#968=PROPERTY_DEFINITION('material property','material name',#1662);
#969=PROPERTY_DEFINITION('material property','density of part',#1662);
#970=AXIS2_PLACEMENT_3D('',#1370,#1078,#1079);
#971=AXIS2_PLACEMENT_3D('',#1371,#1080,#1081);
#972=AXIS2_PLACEMENT_3D('',#1398,#1094,#1095);
#973=AXIS2_PLACEMENT_3D('',#1401,#1097,#1098);
#974=AXIS2_PLACEMENT_3D('',#1403,#1099,#1100);
#975=AXIS2_PLACEMENT_3D('',#1405,#1101,#1102);
#976=AXIS2_PLACEMENT_3D('',#1407,#1103,#1104);
#977=AXIS2_PLACEMENT_3D('',#1408,#1105,#1106);
#978=AXIS2_PLACEMENT_3D('',#1414,#1110,#1111);
#979=AXIS2_PLACEMENT_3D('',#1416,#1112,#1113);
#980=AXIS2_PLACEMENT_3D('',#1427,#1120,#1121);
#981=AXIS2_PLACEMENT_3D('',#1429,#1122,#1123);
#982=AXIS2_PLACEMENT_3D('',#1433,#1125,#1126);
#983=AXIS2_PLACEMENT_3D('',#1442,#1128,#1129);
#984=AXIS2_PLACEMENT_3D('',#1444,#1131,#1132);
#985=AXIS2_PLACEMENT_3D('',#1450,#1136,#1137);
#986=AXIS2_PLACEMENT_3D('',#1454,#1140,#1141);
#987=AXIS2_PLACEMENT_3D('',#1470,#1150,#1151);
#988=AXIS2_PLACEMENT_3D('',#1473,#1153,#1154);
#989=AXIS2_PLACEMENT_3D('',#1474,#1155,#1156);
#990=AXIS2_PLACEMENT_3D('',#1477,#1158,#1159);
#991=AXIS2_PLACEMENT_3D('',#1478,#1160,#1161);
#992=AXIS2_PLACEMENT_3D('',#1481,#1163,#1164);
#993=AXIS2_PLACEMENT_3D('',#1482,#1165,#1166);
#994=AXIS2_PLACEMENT_3D('',#1486,#1168,#1169);
#995=AXIS2_PLACEMENT_3D('',#1489,#1171,#1172);
#996=AXIS2_PLACEMENT_3D('',#1492,#1174,#1175);
#997=AXIS2_PLACEMENT_3D('',#1493,#1176,#1177);
#998=AXIS2_PLACEMENT_3D('',#1496,#1180,#1181);
#999=AXIS2_PLACEMENT_3D('',#1498,#1183,#1184);
#1000=AXIS2_PLACEMENT_3D('',#1500,#1185,#1186);
#1001=AXIS2_PLACEMENT_3D('',#1504,#1188,#1189);
#1002=AXIS2_PLACEMENT_3D('',#1508,#1191,#1192);
#1003=AXIS2_PLACEMENT_3D('',#1511,#1194,#1195);
#1004=AXIS2_PLACEMENT_3D('',#1513,#1196,#1197);
#1005=AXIS2_PLACEMENT_3D('',#1516,#1199,#1200);
#1006=AXIS2_PLACEMENT_3D('',#1517,#1201,#1202);
#1007=AXIS2_PLACEMENT_3D('',#1518,#1203,#1204);
#1008=AXIS2_PLACEMENT_3D('',#1519,#1205,#1206);
#1009=AXIS2_PLACEMENT_3D('',#1520,#1207,#1208);
#1010=AXIS2_PLACEMENT_3D('',#1523,#1209,#1210);
#1011=AXIS2_PLACEMENT_3D('',#1525,#1211,#1212);
#1012=AXIS2_PLACEMENT_3D('',#1526,#1213,#1214);
#1013=AXIS2_PLACEMENT_3D('',#1529,#1215,#1216);
#1014=AXIS2_PLACEMENT_3D('',#1531,#1217,#1218);
#1015=AXIS2_PLACEMENT_3D('',#1532,#1219,#1220);
#1016=AXIS2_PLACEMENT_3D('',#1535,#1221,#1222);
#1017=AXIS2_PLACEMENT_3D('',#1537,#1223,#1224);
#1018=AXIS2_PLACEMENT_3D('',#1538,#1225,#1226);
#1019=AXIS2_PLACEMENT_3D('',#1539,#1227,#1228);
#1020=AXIS2_PLACEMENT_3D('',#1541,#1229,#1230);
#1021=AXIS2_PLACEMENT_3D('',#1542,#1231,#1232);
#1022=AXIS2_PLACEMENT_3D('',#1544,#1233,#1234);
#1023=AXIS2_PLACEMENT_3D('',#1549,#1237,#1238);
#1024=AXIS2_PLACEMENT_3D('',#1552,#1240,#1241);
#1025=AXIS2_PLACEMENT_3D('',#1554,#1242,#1243);
#1026=AXIS2_PLACEMENT_3D('',#1556,#1245,#1246);
#1027=AXIS2_PLACEMENT_3D('',#1557,#1247,#1248);
#1028=AXIS2_PLACEMENT_3D('',#1558,#1249,#1250);
#1029=AXIS2_PLACEMENT_3D('',#1560,#1251,#1252);
#1030=AXIS2_PLACEMENT_3D('',#1565,#1255,#1256);
#1031=AXIS2_PLACEMENT_3D('',#1568,#1258,#1259);
#1032=AXIS2_PLACEMENT_3D('',#1570,#1260,#1261);
#1033=AXIS2_PLACEMENT_3D('',#1572,#1263,#1264);
#1034=AXIS2_PLACEMENT_3D('',#1573,#1265,#1266);
#1035=AXIS2_PLACEMENT_3D('',#1574,#1267,#1268);
#1036=AXIS2_PLACEMENT_3D('',#1576,#1269,#1270);
#1037=AXIS2_PLACEMENT_3D('',#1581,#1273,#1274);
#1038=AXIS2_PLACEMENT_3D('',#1584,#1276,#1277);
#1039=AXIS2_PLACEMENT_3D('',#1586,#1278,#1279);
#1040=AXIS2_PLACEMENT_3D('',#1588,#1281,#1282);
#1041=AXIS2_PLACEMENT_3D('',#1589,#1283,#1284);
#1042=AXIS2_PLACEMENT_3D('',#1590,#1285,#1286);
#1043=AXIS2_PLACEMENT_3D('',#1593,#1288,#1289);
#1044=AXIS2_PLACEMENT_3D('',#1595,#1290,#1291);
#1045=AXIS2_PLACEMENT_3D('',#1597,#1293,#1294);
#1046=AXIS2_PLACEMENT_3D('',#1599,#1295,#1296);
#1047=AXIS2_PLACEMENT_3D('',#1601,#1297,#1298);
#1048=AXIS2_PLACEMENT_3D('',#1602,#1299,#1300);
#1049=AXIS2_PLACEMENT_3D('',#1604,#1301,#1302);
#1050=AXIS2_PLACEMENT_3D('',#1606,#1304,#1305);
#1051=AXIS2_PLACEMENT_3D('',#1609,#1307,#1308);
#1052=AXIS2_PLACEMENT_3D('',#1610,#1309,#1310);
#1053=AXIS2_PLACEMENT_3D('',#1611,#1311,#1312);
#1054=AXIS2_PLACEMENT_3D('',#1612,#1313,#1314);
#1055=AXIS2_PLACEMENT_3D('',#1613,#1315,#1316);
#1056=AXIS2_PLACEMENT_3D('',#1614,#1317,#1318);
#1057=AXIS2_PLACEMENT_3D('',#1615,#1319,#1320);
#1058=AXIS2_PLACEMENT_3D('',#1616,#1321,#1322);
#1059=AXIS2_PLACEMENT_3D('',#1618,#1323,#1324);
#1060=AXIS2_PLACEMENT_3D('',#1619,#1325,#1326);
#1061=AXIS2_PLACEMENT_3D('',#1620,#1327,#1328);
#1062=AXIS2_PLACEMENT_3D('',#1621,#1329,#1330);
#1063=AXIS2_PLACEMENT_3D('',#1622,#1331,#1332);
#1064=AXIS2_PLACEMENT_3D('',#1623,#1333,#1334);
#1065=AXIS2_PLACEMENT_3D('',#1624,#1335,#1336);
#1066=AXIS2_PLACEMENT_3D('',#1627,#1338,#1339);
#1067=AXIS2_PLACEMENT_3D('',#1628,#1340,#1341);
#1068=AXIS2_PLACEMENT_3D('',#1630,#1343,#1344);
#1069=AXIS2_PLACEMENT_3D('',#1631,#1345,#1346);
#1070=AXIS2_PLACEMENT_3D('',#1633,#1347,#1348);
#1071=AXIS2_PLACEMENT_3D('',#1634,#1349,#1350);
#1072=AXIS2_PLACEMENT_3D('',#1636,#1352,#1353);
#1073=AXIS2_PLACEMENT_3D('',#1640,#1356,#1357);
#1074=AXIS2_PLACEMENT_3D('',#1642,#1359,#1360);
#1075=AXIS2_PLACEMENT_3D('',#1646,#1363,#1364);
#1076=AXIS2_PLACEMENT_3D('',#1648,#1366,#1367);
#1077=AXIS2_PLACEMENT_3D('',#1649,#1368,#1369);
#1078=DIRECTION('axis',(0.,0.,1.));
#1079=DIRECTION('refdir',(1.,0.,0.));
#1080=DIRECTION('center_axis',(0.,1.,0.));
#1081=DIRECTION('ref_axis',(0.,0.,1.));
#1082=DIRECTION('',(0.,0.,1.));
#1083=DIRECTION('',(-1.,0.,0.));
#1084=DIRECTION('',(0.,0.,-1.));
#1085=DIRECTION('',(-1.,0.,0.));
#1086=DIRECTION('',(0.,0.,-1.));
#1087=DIRECTION('',(1.,0.,0.));
#1088=DIRECTION('',(0.,0.,-1.));
#1089=DIRECTION('',(1.,0.,0.));
#1090=DIRECTION('',(0.,0.,1.));
#1091=DIRECTION('',(1.,0.,0.));
#1092=DIRECTION('',(0.,0.,1.));
#1093=DIRECTION('',(1.,0.,0.));
#1094=DIRECTION('center_axis',(0.,1.,0.));
#1095=DIRECTION('ref_axis',(1.,0.,0.));
#1096=DIRECTION('',(-1.,0.,0.));
#1097=DIRECTION('center_axis',(0.,-1.,0.));
#1098=DIRECTION('ref_axis',(1.,0.,0.));
#1099=DIRECTION('center_axis',(0.,-1.,0.));
#1100=DIRECTION('ref_axis',(1.,0.,0.));
#1101=DIRECTION('center_axis',(0.,-1.,0.));
#1102=DIRECTION('ref_axis',(1.,0.,0.));
#1103=DIRECTION('center_axis',(0.,-1.,0.));
#1104=DIRECTION('ref_axis',(1.,0.,0.));
#1105=DIRECTION('center_axis',(1.,0.,0.));
#1106=DIRECTION('ref_axis',(0.,0.,-1.));
#1107=DIRECTION('',(0.,1.,0.));
#1108=DIRECTION('',(0.,0.,-1.));
#1109=DIRECTION('',(0.,1.,0.));
#1110=DIRECTION('center_axis',(0.,0.,1.));
#1111=DIRECTION('ref_axis',(1.,0.,0.));
#1112=DIRECTION('center_axis',(0.,0.,-1.));
#1113=DIRECTION('ref_axis',(1.,0.,0.));
#1114=DIRECTION('',(1.,0.,0.));
#1115=DIRECTION('',(0.,-1.,0.));
#1116=DIRECTION('',(-1.,0.,0.));
#1117=DIRECTION('',(0.,-1.,0.));
#1118=DIRECTION('',(0.,-1.,0.));
#1119=DIRECTION('',(1.,0.,0.));
#1120=DIRECTION('center_axis',(0.,0.,1.));
#1121=DIRECTION('ref_axis',(1.,0.,0.));
#1122=DIRECTION('center_axis',(0.,0.,1.));
#1123=DIRECTION('ref_axis',(1.,0.,0.));
#1124=DIRECTION('',(0.,0.,-1.));
#1125=DIRECTION('center_axis',(0.,0.,-1.));
#1126=DIRECTION('ref_axis',(1.,0.,0.));
#1127=DIRECTION('',(0.,0.,-1.));
#1128=DIRECTION('center_axis',(0.,0.,1.));
#1129=DIRECTION('ref_axis',(1.,0.,0.));
#1130=DIRECTION('',(0.,1.,0.));
#1131=DIRECTION('center_axis',(1.,0.,0.));
#1132=DIRECTION('ref_axis',(0.,0.,-1.));
#1133=DIRECTION('',(0.,-1.,0.));
#1134=DIRECTION('',(0.,0.,-1.));
#1135=DIRECTION('',(0.,1.,0.));
#1136=DIRECTION('center_axis',(0.,0.,1.));
#1137=DIRECTION('ref_axis',(1.,0.,0.));
#1138=DIRECTION('',(0.,1.,0.));
#1139=DIRECTION('',(-1.,0.,0.));
#1140=DIRECTION('center_axis',(-1.,0.,0.));
#1141=DIRECTION('ref_axis',(0.,0.,1.));
#1142=DIRECTION('',(0.,-1.,0.));
#1143=DIRECTION('',(0.,0.,1.));
#1144=DIRECTION('',(0.,-1.,0.));
#1145=DIRECTION('',(0.,0.,-1.));
#1146=DIRECTION('',(0.,1.,0.));
#1147=DIRECTION('',(0.,0.,-1.));
#1148=DIRECTION('',(0.,-1.,0.));
#1149=DIRECTION('',(0.,0.,-1.));
#1150=DIRECTION('center_axis',(0.,1.,0.));
#1151=DIRECTION('ref_axis',(1.,0.,0.));
#1152=DIRECTION('',(0.,1.,0.));
#1153=DIRECTION('center_axis',(0.,-1.,0.));
#1154=DIRECTION('ref_axis',(1.,0.,0.));
#1155=DIRECTION('center_axis',(0.,1.,0.));
#1156=DIRECTION('ref_axis',(1.,0.,0.));
#1157=DIRECTION('',(0.,1.,0.));
#1158=DIRECTION('center_axis',(0.,-1.,0.));
#1159=DIRECTION('ref_axis',(1.,0.,0.));
#1160=DIRECTION('center_axis',(0.,1.,0.));
#1161=DIRECTION('ref_axis',(1.,0.,0.));
#1162=DIRECTION('',(0.,1.,0.));
#1163=DIRECTION('center_axis',(0.,-1.,0.));
#1164=DIRECTION('ref_axis',(1.,0.,0.));
#1165=DIRECTION('center_axis',(0.,1.,0.));
#1166=DIRECTION('ref_axis',(1.,0.,0.));
#1167=DIRECTION('',(0.,1.,0.));
#1168=DIRECTION('center_axis',(0.,-1.,0.));
#1169=DIRECTION('ref_axis',(1.,0.,0.));
#1170=DIRECTION('',(0.,1.,0.));
#1171=DIRECTION('center_axis',(0.,-1.,0.));
#1172=DIRECTION('ref_axis',(1.,0.,0.));
#1173=DIRECTION('',(0.,-1.,0.));
#1174=DIRECTION('center_axis',(0.,-1.,0.));
#1175=DIRECTION('ref_axis',(1.,0.,0.));
#1176=DIRECTION('center_axis',(0.,0.,1.));
#1177=DIRECTION('ref_axis',(1.,0.,0.));
#1178=DIRECTION('',(1.,0.,0.));
#1179=DIRECTION('',(1.,0.,0.));
#1180=DIRECTION('center_axis',(0.,0.,1.));
#1181=DIRECTION('ref_axis',(1.,0.,0.));
#1182=DIRECTION('',(1.,0.,0.));
#1183=DIRECTION('center_axis',(0.,1.,0.));
#1184=DIRECTION('ref_axis',(1.,0.,0.));
#1185=DIRECTION('center_axis',(0.,1.,0.));
#1186=DIRECTION('ref_axis',(1.,0.,0.));
#1187=DIRECTION('',(0.,-1.,0.));
#1188=DIRECTION('center_axis',(0.,-1.,0.));
#1189=DIRECTION('ref_axis',(1.,0.,0.));
#1190=DIRECTION('',(0.,1.,0.));
#1191=DIRECTION('center_axis',(0.,1.,0.));
#1192=DIRECTION('ref_axis',(1.,0.,0.));
#1193=DIRECTION('',(0.,-1.,0.));
#1194=DIRECTION('center_axis',(0.,-1.,0.));
#1195=DIRECTION('ref_axis',(1.,0.,0.));
#1196=DIRECTION('center_axis',(0.,1.,0.));
#1197=DIRECTION('ref_axis',(1.,0.,0.));
#1198=DIRECTION('',(0.,-1.,0.));
#1199=DIRECTION('center_axis',(0.,-1.,0.));
#1200=DIRECTION('ref_axis',(1.,0.,0.));
#1201=DIRECTION('center_axis',(0.,-1.,0.));
#1202=DIRECTION('ref_axis',(-1.,0.,0.));
#1203=DIRECTION('center_axis',(0.,1.,0.));
#1204=DIRECTION('ref_axis',(1.,0.,0.));
#1205=DIRECTION('center_axis',(0.,1.,0.));
#1206=DIRECTION('ref_axis',(1.,0.,0.));
#1207=DIRECTION('center_axis',(0.,1.,0.));
#1208=DIRECTION('ref_axis',(1.,0.,0.));
#1209=DIRECTION('center_axis',(0.,-1.,0.));
#1210=DIRECTION('ref_axis',(1.,0.,0.));
#1211=DIRECTION('center_axis',(0.,-1.,0.));
#1212=DIRECTION('ref_axis',(1.,0.,0.));
#1213=DIRECTION('center_axis',(0.,-1.,0.));
#1214=DIRECTION('ref_axis',(1.,0.,0.));
#1215=DIRECTION('center_axis',(0.,-1.,0.));
#1216=DIRECTION('ref_axis',(1.,0.,0.));
#1217=DIRECTION('center_axis',(0.,-1.,0.));
#1218=DIRECTION('ref_axis',(1.,0.,0.));
#1219=DIRECTION('center_axis',(0.,-1.,0.));
#1220=DIRECTION('ref_axis',(1.,0.,0.));
#1221=DIRECTION('center_axis',(0.,-1.,0.));
#1222=DIRECTION('ref_axis',(1.,0.,0.));
#1223=DIRECTION('center_axis',(0.,-1.,0.));
#1224=DIRECTION('ref_axis',(1.,0.,0.));
#1225=DIRECTION('center_axis',(0.,-1.,0.));
#1226=DIRECTION('ref_axis',(1.,0.,0.));
#1227=DIRECTION('center_axis',(0.,-1.,0.));
#1228=DIRECTION('ref_axis',(1.,0.,0.));
#1229=DIRECTION('center_axis',(0.,-1.,0.));
#1230=DIRECTION('ref_axis',(1.,0.,0.));
#1231=DIRECTION('center_axis',(0.,1.,0.));
#1232=DIRECTION('ref_axis',(1.,0.,0.));
#1233=DIRECTION('center_axis',(0.,1.,0.));
#1234=DIRECTION('ref_axis',(1.,0.,0.));
#1235=DIRECTION('',(0.,-1.,0.));
#1236=DIRECTION('',(0.,1.,0.));
#1237=DIRECTION('center_axis',(0.,1.,0.));
#1238=DIRECTION('ref_axis',(1.,0.,0.));
#1239=DIRECTION('',(0.,-1.,0.));
#1240=DIRECTION('center_axis',(0.,-1.,0.));
#1241=DIRECTION('ref_axis',(1.,0.,0.));
#1242=DIRECTION('center_axis',(0.,1.,0.));
#1243=DIRECTION('ref_axis',(1.,0.,0.));
#1244=DIRECTION('',(0.,-1.,0.));
#1245=DIRECTION('center_axis',(0.,-1.,0.));
#1246=DIRECTION('ref_axis',(-1.,0.,0.));
#1247=DIRECTION('center_axis',(0.,1.,0.));
#1248=DIRECTION('ref_axis',(1.,0.,0.));
#1249=DIRECTION('center_axis',(0.,1.,0.));
#1250=DIRECTION('ref_axis',(1.,0.,0.));
#1251=DIRECTION('center_axis',(0.,1.,0.));
#1252=DIRECTION('ref_axis',(1.,0.,0.));
#1253=DIRECTION('',(0.,-1.,0.));
#1254=DIRECTION('',(0.,1.,0.));
#1255=DIRECTION('center_axis',(0.,1.,0.));
#1256=DIRECTION('ref_axis',(1.,0.,0.));
#1257=DIRECTION('',(0.,-1.,0.));
#1258=DIRECTION('center_axis',(0.,-1.,0.));
#1259=DIRECTION('ref_axis',(1.,0.,0.));
#1260=DIRECTION('center_axis',(0.,1.,0.));
#1261=DIRECTION('ref_axis',(1.,0.,0.));
#1262=DIRECTION('',(0.,-1.,0.));
#1263=DIRECTION('center_axis',(0.,-1.,0.));
#1264=DIRECTION('ref_axis',(-1.,0.,0.));
#1265=DIRECTION('center_axis',(0.,1.,0.));
#1266=DIRECTION('ref_axis',(1.,0.,0.));
#1267=DIRECTION('center_axis',(0.,1.,0.));
#1268=DIRECTION('ref_axis',(1.,0.,0.));
#1269=DIRECTION('center_axis',(0.,1.,0.));
#1270=DIRECTION('ref_axis',(1.,0.,0.));
#1271=DIRECTION('',(0.,-1.,0.));
#1272=DIRECTION('',(0.,1.,0.));
#1273=DIRECTION('center_axis',(0.,1.,0.));
#1274=DIRECTION('ref_axis',(1.,0.,0.));
#1275=DIRECTION('',(0.,-1.,0.));
#1276=DIRECTION('center_axis',(0.,-1.,0.));
#1277=DIRECTION('ref_axis',(1.,0.,0.));
#1278=DIRECTION('center_axis',(0.,1.,0.));
#1279=DIRECTION('ref_axis',(1.,0.,0.));
#1280=DIRECTION('',(0.,-1.,0.));
#1281=DIRECTION('center_axis',(0.,-1.,0.));
#1282=DIRECTION('ref_axis',(-1.,0.,0.));
#1283=DIRECTION('center_axis',(0.,1.,0.));
#1284=DIRECTION('ref_axis',(1.,0.,0.));
#1285=DIRECTION('center_axis',(0.,1.,0.));
#1286=DIRECTION('ref_axis',(1.,0.,0.));
#1287=DIRECTION('',(0.,1.,0.));
#1288=DIRECTION('center_axis',(0.,-1.,0.));
#1289=DIRECTION('ref_axis',(1.,0.,0.));
#1290=DIRECTION('center_axis',(0.,-1.,0.));
#1291=DIRECTION('ref_axis',(1.,0.,0.));
#1292=DIRECTION('',(0.,1.,0.));
#1293=DIRECTION('center_axis',(0.,-1.,0.));
#1294=DIRECTION('ref_axis',(0.,0.,-1.));
#1295=DIRECTION('center_axis',(0.,1.,0.));
#1296=DIRECTION('ref_axis',(1.,0.,0.));
#1297=DIRECTION('center_axis',(0.,-1.,0.));
#1298=DIRECTION('ref_axis',(0.835487811412867,0.,-0.549508978070912));
#1299=DIRECTION('center_axis',(0.,1.,0.));
#1300=DIRECTION('ref_axis',(1.,0.,0.));
#1301=DIRECTION('center_axis',(0.,1.,0.));
#1302=DIRECTION('ref_axis',(1.,0.,0.));
#1303=DIRECTION('',(0.,-1.,0.));
#1304=DIRECTION('center_axis',(0.,1.,0.));
#1305=DIRECTION('ref_axis',(1.,0.,0.));
#1306=DIRECTION('',(0.,-1.,0.));
#1307=DIRECTION('center_axis',(0.,-1.,0.));
#1308=DIRECTION('ref_axis',(1.,0.,0.));
#1309=DIRECTION('center_axis',(0.,-1.,0.));
#1310=DIRECTION('ref_axis',(-1.,0.,0.));
#1311=DIRECTION('center_axis',(0.,-1.,0.));
#1312=DIRECTION('ref_axis',(1.,0.,0.));
#1313=DIRECTION('center_axis',(0.,1.,0.));
#1314=DIRECTION('ref_axis',(1.,0.,0.));
#1315=DIRECTION('center_axis',(0.,1.,0.));
#1316=DIRECTION('ref_axis',(1.,0.,0.));
#1317=DIRECTION('center_axis',(0.,1.,0.));
#1318=DIRECTION('ref_axis',(1.,0.,0.));
#1319=DIRECTION('center_axis',(0.,1.,0.));
#1320=DIRECTION('ref_axis',(1.,0.,0.));
#1321=DIRECTION('center_axis',(0.,-1.,0.));
#1322=DIRECTION('ref_axis',(-1.,0.,0.));
#1323=DIRECTION('center_axis',(0.,1.,0.));
#1324=DIRECTION('ref_axis',(1.,0.,0.));
#1325=DIRECTION('center_axis',(0.,1.,0.));
#1326=DIRECTION('ref_axis',(1.,0.,0.));
#1327=DIRECTION('center_axis',(0.,1.,0.));
#1328=DIRECTION('ref_axis',(-0.707106781186545,0.,-0.70710678118655));
#1329=DIRECTION('center_axis',(0.,1.,0.));
#1330=DIRECTION('ref_axis',(-0.707106781186544,0.,0.707106781186551));
#1331=DIRECTION('center_axis',(0.,1.,0.));
#1332=DIRECTION('ref_axis',(1.,0.,0.));
#1333=DIRECTION('center_axis',(0.,1.,0.));
#1334=DIRECTION('ref_axis',(1.,0.,0.));
#1335=DIRECTION('center_axis',(0.,1.,0.));
#1336=DIRECTION('ref_axis',(1.,0.,0.));
#1337=DIRECTION('',(0.,1.,0.));
#1338=DIRECTION('center_axis',(0.,-1.,0.));
#1339=DIRECTION('ref_axis',(1.,0.,0.));
#1340=DIRECTION('center_axis',(0.,0.,1.));
#1341=DIRECTION('ref_axis',(1.,0.,0.));
#1342=DIRECTION('',(-1.,0.,0.));
#1343=DIRECTION('center_axis',(0.,-1.,0.));
#1344=DIRECTION('ref_axis',(0.,0.,-1.));
#1345=DIRECTION('center_axis',(0.,1.,0.));
#1346=DIRECTION('ref_axis',(1.,0.,0.));
#1347=DIRECTION('center_axis',(0.,1.,0.));
#1348=DIRECTION('ref_axis',(1.,0.,0.));
#1349=DIRECTION('center_axis',(0.,1.,0.));
#1350=DIRECTION('ref_axis',(1.,0.,0.));
#1351=DIRECTION('',(0.,1.,0.));
#1352=DIRECTION('center_axis',(0.,-1.,0.));
#1353=DIRECTION('ref_axis',(0.,0.,-1.));
#1354=DIRECTION('',(-1.,0.,0.));
#1355=DIRECTION('',(0.,0.,-1.));
#1356=DIRECTION('center_axis',(1.,0.,0.));
#1357=DIRECTION('ref_axis',(0.,0.,-1.));
#1358=DIRECTION('',(0.,-1.,0.));
#1359=DIRECTION('center_axis',(-1.,0.,0.));
#1360=DIRECTION('ref_axis',(0.,0.,1.));
#1361=DIRECTION('',(0.,-1.,0.));
#1362=DIRECTION('',(0.,0.,-1.));
#1363=DIRECTION('center_axis',(0.,-1.,0.));
#1364=DIRECTION('ref_axis',(0.,0.,-1.));
#1365=DIRECTION('',(1.,0.,0.));
#1366=DIRECTION('center_axis',(0.,0.,1.));
#1367=DIRECTION('ref_axis',(1.,0.,0.));
#1368=DIRECTION('center_axis',(0.,0.,-1.));
#1369=DIRECTION('ref_axis',(-1.,0.,0.));
#1370=CARTESIAN_POINT('',(0.,0.,0.));
#1371=CARTESIAN_POINT('Origin',(-15.,59.,222.));
#1372=CARTESIAN_POINT('',(-57.,59.,214.));
#1373=CARTESIAN_POINT('',(-57.,59.,275.));
#1374=CARTESIAN_POINT('',(-57.,59.,231.));
#1375=CARTESIAN_POINT('',(-75.,59.,275.));
#1376=CARTESIAN_POINT('',(-40.5,59.,275.));
#1377=CARTESIAN_POINT('',(-75.,59.,214.));
#1378=CARTESIAN_POINT('',(-75.,59.,231.));
#1379=CARTESIAN_POINT('',(-86.8997487421324,59.,214.));
#1380=CARTESIAN_POINT('',(-7.5,59.,214.));
#1381=CARTESIAN_POINT('',(-86.8997487421324,59.,200.));
#1382=CARTESIAN_POINT('',(-86.8997487421324,59.,207.));
#1383=CARTESIAN_POINT('',(-75.,59.,200.));
#1384=CARTESIAN_POINT('',(-7.5,59.,200.));
#1385=CARTESIAN_POINT('',(-75.,59.,188.2));
#1386=CARTESIAN_POINT('',(-75.,59.,206.8));
#1387=CARTESIAN_POINT('',(-57.,59.,188.2));
#1388=CARTESIAN_POINT('',(-7.5,59.,188.2));
#1389=CARTESIAN_POINT('',(-57.,59.,200.));
#1390=CARTESIAN_POINT('',(-57.,59.,206.8));
#1391=CARTESIAN_POINT('',(-51.,59.,200.));
#1392=CARTESIAN_POINT('',(-7.5,59.,200.));
#1393=CARTESIAN_POINT('',(-51.,59.,207.));
#1394=CARTESIAN_POINT('',(-51.,59.,212.));
#1395=CARTESIAN_POINT('',(-50.10987926547,59.,207.));
#1396=CARTESIAN_POINT('',(-30.5,59.,207.));
#1397=CARTESIAN_POINT('',(-54.07402333838,59.,214.));
#1398=CARTESIAN_POINT('Origin',(0.,59.,240.));
#1399=CARTESIAN_POINT('',(-7.5,59.,214.));
#1400=CARTESIAN_POINT('',(-68.75,59.,207.));
#1401=CARTESIAN_POINT('Origin',(-66.,59.,207.));
#1402=CARTESIAN_POINT('',(-68.75,59.,225.));
#1403=CARTESIAN_POINT('Origin',(-66.,59.,225.));
#1404=CARTESIAN_POINT('',(-68.75,59.,245.));
#1405=CARTESIAN_POINT('Origin',(-66.,59.,245.));
#1406=CARTESIAN_POINT('',(-68.75,59.,265.));
#1407=CARTESIAN_POINT('Origin',(-66.,59.,265.));
#1408=CARTESIAN_POINT('Origin',(-75.,0.,191.6));
#1409=CARTESIAN_POINT('',(-75.,70.,200.));
#1410=CARTESIAN_POINT('',(-75.,0.,200.));
#1411=CARTESIAN_POINT('',(-75.,70.,188.2));
#1412=CARTESIAN_POINT('',(-75.,70.,199.5));
#1413=CARTESIAN_POINT('',(-75.,0.,188.2));
#1414=CARTESIAN_POINT('Origin',(0.,0.,200.));
#1415=CARTESIAN_POINT('',(-67.,77.,200.));
#1416=CARTESIAN_POINT('Origin',(-67.,57.,200.));
#1417=CARTESIAN_POINT('',(-44.72135954999,77.,200.));
#1418=CARTESIAN_POINT('',(0.,77.,200.));
#1419=CARTESIAN_POINT('',(-44.72135954999,62.,200.));
#1420=CARTESIAN_POINT('',(-44.72135954999,0.,200.));
#1421=CARTESIAN_POINT('',(-51.,62.,200.));
#1422=CARTESIAN_POINT('',(-23.,62.,200.));
#1423=CARTESIAN_POINT('',(-51.,26.,200.));
#1424=CARTESIAN_POINT('',(-57.,70.,200.));
#1425=CARTESIAN_POINT('',(-57.,0.,200.));
#1426=CARTESIAN_POINT('',(-33.,70.,200.));
#1427=CARTESIAN_POINT('Origin',(-67.,57.,207.));
#1428=CARTESIAN_POINT('',(-75.,75.330302779823,214.));
#1429=CARTESIAN_POINT('Origin',(-67.,57.,214.));
#1430=CARTESIAN_POINT('',(-75.,75.330302779823,205.));
#1431=CARTESIAN_POINT('',(-75.,75.330302779823,207.));
#1432=CARTESIAN_POINT('',(-67.8874586088177,76.9803007289089,205.));
#1433=CARTESIAN_POINT('Origin',(-67.,57.,205.));
#1434=CARTESIAN_POINT('',(-67.,77.,204.43826230851));
#1435=CARTESIAN_POINT('Ctrl Pts',(-67.8874586088177,76.9803007289089,205.));
#1436=CARTESIAN_POINT('Ctrl Pts',(-67.6531439795673,76.9907082066401,204.778870417925));
#1437=CARTESIAN_POINT('Ctrl Pts',(-67.3648374928314,76.9991239770123,204.588655243453));
#1438=CARTESIAN_POINT('Ctrl Pts',(-67.0345255619953,76.9999775593193,204.451941586673));
#1439=CARTESIAN_POINT('Ctrl Pts',(-67.0172958599261,77.,204.445013920896));
#1440=CARTESIAN_POINT('Ctrl Pts',(-67.,77.,204.43826230851));
#1441=CARTESIAN_POINT('',(-67.,77.,207.));
#1442=CARTESIAN_POINT('Origin',(0.,0.,214.));
#1443=CARTESIAN_POINT('',(-75.,35.,214.));
#1444=CARTESIAN_POINT('Origin',(-75.,-70.,240.));
#1445=CARTESIAN_POINT('',(-75.,78.,275.));
#1446=CARTESIAN_POINT('',(-75.,70.,275.));
#1447=CARTESIAN_POINT('',(-75.,78.,205.));
#1448=CARTESIAN_POINT('',(-75.,78.,240.));
#1449=CARTESIAN_POINT('',(-75.,70.,205.));
#1450=CARTESIAN_POINT('Origin',(-66.,-70.,275.));
#1451=CARTESIAN_POINT('',(-57.,78.,275.));
#1452=CARTESIAN_POINT('',(-57.,-70.,275.));
#1453=CARTESIAN_POINT('',(-66.,78.,275.));
#1454=CARTESIAN_POINT('Origin',(-57.,-70.,240.));
#1455=CARTESIAN_POINT('',(-57.,77.,214.));
#1456=CARTESIAN_POINT('',(-57.,-35.,214.));
#1457=CARTESIAN_POINT('',(-57.,77.,205.));
#1458=CARTESIAN_POINT('',(-57.,77.,223.5));
#1459=CARTESIAN_POINT('',(-57.,78.,205.));
#1460=CARTESIAN_POINT('',(-57.,70.,205.));
#1461=CARTESIAN_POINT('',(-57.,78.,229.27619470523));
#1462=CARTESIAN_POINT('',(-57.,78.,240.));
#1463=CARTESIAN_POINT('',(-57.,62.,229.27619470523));
#1464=CARTESIAN_POINT('',(-57.,70.,229.27619470523));
#1465=CARTESIAN_POINT('',(-57.,62.,250.72380529476));
#1466=CARTESIAN_POINT('',(-57.,62.,240.));
#1467=CARTESIAN_POINT('',(-57.,78.,250.72380529476));
#1468=CARTESIAN_POINT('',(-57.,70.,250.72380529476));
#1469=CARTESIAN_POINT('',(-57.,78.,240.));
#1470=CARTESIAN_POINT('Origin',(-66.,72.,265.));
#1471=CARTESIAN_POINT('',(-68.75,78.,265.));
#1472=CARTESIAN_POINT('',(-68.75,72.,265.));
#1473=CARTESIAN_POINT('Origin',(-66.,78.,265.));
#1474=CARTESIAN_POINT('Origin',(-66.,72.,245.));
#1475=CARTESIAN_POINT('',(-68.75,78.,245.));
#1476=CARTESIAN_POINT('',(-68.75,72.,245.));
#1477=CARTESIAN_POINT('Origin',(-66.,78.,245.));
#1478=CARTESIAN_POINT('Origin',(-66.,72.,225.));
#1479=CARTESIAN_POINT('',(-68.75,78.,225.));
#1480=CARTESIAN_POINT('',(-68.75,72.,225.));
#1481=CARTESIAN_POINT('Origin',(-66.,78.,225.));
#1482=CARTESIAN_POINT('Origin',(-66.,72.,207.));
#1483=CARTESIAN_POINT('',(-68.75,78.,207.));
#1484=CARTESIAN_POINT('',(-68.75,72.,207.));
#1485=CARTESIAN_POINT('',(-64.1125413911823,78.,205.));
#1486=CARTESIAN_POINT('Origin',(-66.,78.,207.));
#1487=CARTESIAN_POINT('',(-64.1125413911823,77.,205.));
#1488=CARTESIAN_POINT('',(-64.1125413911823,72.,205.));
#1489=CARTESIAN_POINT('Origin',(-66.,77.,207.));
#1490=CARTESIAN_POINT('',(-67.8874586088177,78.,205.));
#1491=CARTESIAN_POINT('',(-67.8874586088177,72.,205.));
#1492=CARTESIAN_POINT('Origin',(-66.,78.,207.));
#1493=CARTESIAN_POINT('Origin',(-66.,70.,205.));
#1494=CARTESIAN_POINT('',(-66.,78.,205.));
#1495=CARTESIAN_POINT('',(-33.,77.,205.));
#1496=CARTESIAN_POINT('Origin',(-66.,70.,205.));
#1497=CARTESIAN_POINT('',(-66.,78.,205.));
#1498=CARTESIAN_POINT('Origin',(-29.7,69.5,210.3));
#1499=CARTESIAN_POINT('',(-34.7,80.,210.3));
#1500=CARTESIAN_POINT('Origin',(-29.7,80.,210.3));
#1501=CARTESIAN_POINT('',(-34.7,78.,210.3));
#1502=CARTESIAN_POINT('',(-34.7,69.5,210.3));
#1503=CARTESIAN_POINT('',(-31.3264864697476,78.,205.571941015202));
#1504=CARTESIAN_POINT('Origin',(-29.7,78.,210.3));
#1505=CARTESIAN_POINT('',(-31.3264864697476,62.,205.571941015202));
#1506=CARTESIAN_POINT('',(-31.3264864697476,69.5,205.571941015202));
#1507=CARTESIAN_POINT('',(-34.7,62.,210.3));
#1508=CARTESIAN_POINT('Origin',(-29.7,62.,210.3));
#1509=CARTESIAN_POINT('',(-34.7,59.,210.3));
#1510=CARTESIAN_POINT('',(-34.7,69.5,210.3));
#1511=CARTESIAN_POINT('Origin',(-29.7,59.,210.3));
#1512=CARTESIAN_POINT('',(-34.4280589847979,62.,208.673513530252));
#1513=CARTESIAN_POINT('Origin',(-29.7,62.,210.3));
#1514=CARTESIAN_POINT('',(-34.4280589847979,78.,208.673513530252));
#1515=CARTESIAN_POINT('',(-34.4280589847979,69.5,208.673513530252));
#1516=CARTESIAN_POINT('Origin',(-29.7,78.,210.3));
#1517=CARTESIAN_POINT('Origin',(-29.7,59.,210.3));
#1518=CARTESIAN_POINT('Origin',(-29.7,80.,210.3));
#1519=CARTESIAN_POINT('Origin',(0.,78.,240.));
#1520=CARTESIAN_POINT('Origin',(0.,78.,240.));
#1521=CARTESIAN_POINT('',(31.3264864697475,78.,274.428058984798));
#1522=CARTESIAN_POINT('',(24.7,78.,269.7));
#1523=CARTESIAN_POINT('Origin',(29.7,78.,269.7));
#1524=CARTESIAN_POINT('',(34.4280589847979,78.,271.326486469748));
#1525=CARTESIAN_POINT('Origin',(29.7,78.,269.7));
#1526=CARTESIAN_POINT('Origin',(33.,78.,273.));
#1527=CARTESIAN_POINT('',(34.4280589847979,78.,208.673513530252));
#1528=CARTESIAN_POINT('',(24.7,78.,210.3));
#1529=CARTESIAN_POINT('Origin',(29.7,78.,210.3));
#1530=CARTESIAN_POINT('',(31.3264864697476,78.,205.571941015202));
#1531=CARTESIAN_POINT('Origin',(29.7,78.,210.3));
#1532=CARTESIAN_POINT('Origin',(33.,78.,207.));
#1533=CARTESIAN_POINT('',(-34.4280589847979,78.,271.326486469748));
#1534=CARTESIAN_POINT('',(-34.7,78.,269.7));
#1535=CARTESIAN_POINT('Origin',(-29.7,78.,269.7));
#1536=CARTESIAN_POINT('',(-31.3264864697475,78.,274.428058984798));
#1537=CARTESIAN_POINT('Origin',(-29.7,78.,269.7));
#1538=CARTESIAN_POINT('Origin',(-33.,78.,273.));
#1539=CARTESIAN_POINT('Origin',(-33.,78.,207.));
#1540=CARTESIAN_POINT('',(-23.7,78.,240.));
#1541=CARTESIAN_POINT('Origin',(0.,78.,240.));
#1542=CARTESIAN_POINT('Origin',(29.7,69.5,210.3));
#1543=CARTESIAN_POINT('',(24.7,80.,210.3));
#1544=CARTESIAN_POINT('Origin',(29.7,80.,210.3));
#1545=CARTESIAN_POINT('',(24.7,69.5,210.3));
#1546=CARTESIAN_POINT('',(34.4280589847979,62.,208.673513530252));
#1547=CARTESIAN_POINT('',(34.4280589847979,69.5,208.673513530252));
#1548=CARTESIAN_POINT('',(24.7,62.,210.3));
#1549=CARTESIAN_POINT('Origin',(29.7,62.,210.3));
#1550=CARTESIAN_POINT('',(24.7,59.,210.3));
#1551=CARTESIAN_POINT('',(24.7,69.5,210.3));
#1552=CARTESIAN_POINT('Origin',(29.7,59.,210.3));
#1553=CARTESIAN_POINT('',(31.3264864697476,62.,205.571941015202));
#1554=CARTESIAN_POINT('Origin',(29.7,62.,210.3));
#1555=CARTESIAN_POINT('',(31.3264864697476,69.5,205.571941015202));
#1556=CARTESIAN_POINT('Origin',(29.7,59.,210.3));
#1557=CARTESIAN_POINT('Origin',(29.7,80.,210.3));
#1558=CARTESIAN_POINT('Origin',(-29.7,69.5,269.7));
#1559=CARTESIAN_POINT('',(-34.7,80.,269.7));
#1560=CARTESIAN_POINT('Origin',(-29.7,80.,269.7));
#1561=CARTESIAN_POINT('',(-34.7,69.5,269.7));
#1562=CARTESIAN_POINT('',(-34.4280589847979,62.,271.326486469748));
#1563=CARTESIAN_POINT('',(-34.4280589847979,69.5,271.326486469748));
#1564=CARTESIAN_POINT('',(-34.7,62.,269.7));
#1565=CARTESIAN_POINT('Origin',(-29.7,62.,269.7));
#1566=CARTESIAN_POINT('',(-34.7,59.,269.7));
#1567=CARTESIAN_POINT('',(-34.7,69.5,269.7));
#1568=CARTESIAN_POINT('Origin',(-29.7,59.,269.7));
#1569=CARTESIAN_POINT('',(-31.3264864697475,62.,274.428058984798));
#1570=CARTESIAN_POINT('Origin',(-29.7,62.,269.7));
#1571=CARTESIAN_POINT('',(-31.3264864697475,69.5,274.428058984798));
#1572=CARTESIAN_POINT('Origin',(-29.7,59.,269.7));
#1573=CARTESIAN_POINT('Origin',(-29.7,80.,269.7));
#1574=CARTESIAN_POINT('Origin',(29.7,69.5,269.7));
#1575=CARTESIAN_POINT('',(24.7,80.,269.7));
#1576=CARTESIAN_POINT('Origin',(29.7,80.,269.7));
#1577=CARTESIAN_POINT('',(24.7,69.5,269.7));
#1578=CARTESIAN_POINT('',(31.3264864697475,62.,274.428058984798));
#1579=CARTESIAN_POINT('',(31.3264864697475,69.5,274.428058984798));
#1580=CARTESIAN_POINT('',(24.7,62.,269.7));
#1581=CARTESIAN_POINT('Origin',(29.7,62.,269.7));
#1582=CARTESIAN_POINT('',(24.7,59.,269.7));
#1583=CARTESIAN_POINT('',(24.7,69.5,269.7));
#1584=CARTESIAN_POINT('Origin',(29.7,59.,269.7));
#1585=CARTESIAN_POINT('',(34.4280589847979,62.,271.326486469748));
#1586=CARTESIAN_POINT('Origin',(29.7,62.,269.7));
#1587=CARTESIAN_POINT('',(34.4280589847979,69.5,271.326486469748));
#1588=CARTESIAN_POINT('Origin',(29.7,59.,269.7));
#1589=CARTESIAN_POINT('Origin',(29.7,80.,269.7));
#1590=CARTESIAN_POINT('Origin',(0.,0.,240.));
#1591=CARTESIAN_POINT('',(-50.10987926547,62.,207.));
#1592=CARTESIAN_POINT('',(-50.10987926547,0.,207.));
#1593=CARTESIAN_POINT('Origin',(0.,62.,240.));
#1594=CARTESIAN_POINT('',(-54.07402333838,77.,214.));
#1595=CARTESIAN_POINT('Origin',(0.,77.,240.));
#1596=CARTESIAN_POINT('',(-54.07402333838,0.,214.));
#1597=CARTESIAN_POINT('Origin',(135.,60.3,240.));
#1598=CARTESIAN_POINT('',(-27.,60.3,240.));
#1599=CARTESIAN_POINT('Origin',(0.,60.3,240.));
#1600=CARTESIAN_POINT('',(-23.7,60.3,240.));
#1601=CARTESIAN_POINT('Origin',(0.,60.3,240.));
#1602=CARTESIAN_POINT('Origin',(0.,60.5,240.));
#1603=CARTESIAN_POINT('',(-27.,62.,240.));
#1604=CARTESIAN_POINT('Origin',(0.,62.,240.));
#1605=CARTESIAN_POINT('',(-27.,60.5,240.));
#1606=CARTESIAN_POINT('Origin',(0.,52.3,240.));
#1607=CARTESIAN_POINT('',(-23.7,59.,240.));
#1608=CARTESIAN_POINT('',(-23.7,52.3,240.));
#1609=CARTESIAN_POINT('Origin',(0.,59.,240.));
#1610=CARTESIAN_POINT('Origin',(0.,62.,240.));
#1611=CARTESIAN_POINT('Origin',(0.,62.,240.));
#1612=CARTESIAN_POINT('Origin',(-33.,62.,207.));
#1613=CARTESIAN_POINT('Origin',(33.,62.,207.));
#1614=CARTESIAN_POINT('Origin',(33.,62.,273.));
#1615=CARTESIAN_POINT('Origin',(-33.,62.,273.));
#1616=CARTESIAN_POINT('Origin',(0.,59.,240.));
#1617=CARTESIAN_POINT('',(-18.,59.,240.));
#1618=CARTESIAN_POINT('Origin',(0.,59.,240.));
#1619=CARTESIAN_POINT('Origin',(0.,70.,240.));
#1620=CARTESIAN_POINT('Origin',(-33.,70.,207.));
#1621=CARTESIAN_POINT('Origin',(-33.,70.,273.));
#1622=CARTESIAN_POINT('Origin',(33.,70.,207.));
#1623=CARTESIAN_POINT('Origin',(33.,70.,273.));
#1624=CARTESIAN_POINT('Origin',(0.,60.5,240.));
#1625=CARTESIAN_POINT('',(-18.,62.,240.));
#1626=CARTESIAN_POINT('',(-18.,60.5,240.));
#1627=CARTESIAN_POINT('Origin',(0.,62.,240.));
#1628=CARTESIAN_POINT('Origin',(0.,0.,214.));
#1629=CARTESIAN_POINT('',(0.,77.,214.));
#1630=CARTESIAN_POINT('Origin',(0.,77.,207.));
#1631=CARTESIAN_POINT('Origin',(0.,62.,240.));
#1632=CARTESIAN_POINT('',(-23.7,62.,240.));
#1633=CARTESIAN_POINT('Origin',(0.,62.,240.));
#1634=CARTESIAN_POINT('Origin',(0.,70.,240.));
#1635=CARTESIAN_POINT('',(-23.7,70.,240.));
#1636=CARTESIAN_POINT('Origin',(-46.,62.,202.));
#1637=CARTESIAN_POINT('',(-51.,62.,207.));
#1638=CARTESIAN_POINT('',(-46.,62.,207.));
#1639=CARTESIAN_POINT('',(-51.,62.,202.));
#1640=CARTESIAN_POINT('Origin',(-51.,52.,202.));
#1641=CARTESIAN_POINT('',(-51.,52.,207.));
#1642=CARTESIAN_POINT('Origin',(-57.,0.,191.6));
#1643=CARTESIAN_POINT('',(-57.,70.,188.2));
#1644=CARTESIAN_POINT('',(-57.,0.,188.2));
#1645=CARTESIAN_POINT('',(-57.,70.,199.5));
#1646=CARTESIAN_POINT('Origin',(-66.,70.,191.6));
#1647=CARTESIAN_POINT('',(-66.,70.,188.2));
#1648=CARTESIAN_POINT('Origin',(-46.,52.,207.));
#1649=CARTESIAN_POINT('Origin',(0.,0.,188.2));
#1650=UNCERTAINTY_MEASURE_WITH_UNIT(LENGTH_MEASURE(0.01),#1654,
'DISTANCE_ACCURACY_VALUE',
'Maximum model space distance between geometric entities at asserted c
onnectivities');
#1651=UNCERTAINTY_MEASURE_WITH_UNIT(LENGTH_MEASURE(0.01),#1654,
'DISTANCE_ACCURACY_VALUE',
'Maximum model space distance between geometric entities at asserted c
onnectivities');
#1652=(
GEOMETRIC_REPRESENTATION_CONTEXT(3)
GLOBAL_UNCERTAINTY_ASSIGNED_CONTEXT((#1650))
GLOBAL_UNIT_ASSIGNED_CONTEXT((#1654,#1656,#1657))
REPRESENTATION_CONTEXT('','3D')
);
#1653=(
GEOMETRIC_REPRESENTATION_CONTEXT(3)
GLOBAL_UNCERTAINTY_ASSIGNED_CONTEXT((#1651))
GLOBAL_UNIT_ASSIGNED_CONTEXT((#1654,#1656,#1657))
REPRESENTATION_CONTEXT('','3D')
);
#1654=(
LENGTH_UNIT()
NAMED_UNIT(*)
SI_UNIT(.MILLI.,.METRE.)
);
#1655=(
LENGTH_UNIT()
NAMED_UNIT(*)
SI_UNIT($,.METRE.)
);
#1656=(
NAMED_UNIT(*)
PLANE_ANGLE_UNIT()
SI_UNIT($,.RADIAN.)
);
#1657=(
NAMED_UNIT(*)
SI_UNIT($,.STERADIAN.)
SOLID_ANGLE_UNIT()
);
#1658=SHAPE_DEFINITION_REPRESENTATION(#1659,#1660);
#1659=PRODUCT_DEFINITION_SHAPE('',$,#1662);
#1660=SHAPE_REPRESENTATION('',(#970),#1652);
#1661=PRODUCT_DEFINITION_CONTEXT('part definition',#1666,'design');
#1662=PRODUCT_DEFINITION('2026-08-20-15-56-48-289',
'EXPORT_TMP_PRINT_V015_P101D_J2Cheek_Right',#1663,#1661);
#1663=PRODUCT_DEFINITION_FORMATION('',$,#1668);
#1664=PRODUCT_RELATED_PRODUCT_CATEGORY(
'EXPORT_TMP_PRINT_V015_P101D_J2Cheek_Right',
'EXPORT_TMP_PRINT_V015_P101D_J2Cheek_Right',(#1668));
#1665=APPLICATION_PROTOCOL_DEFINITION('international standard',
'automotive_design',2009,#1666);
#1666=APPLICATION_CONTEXT(
'Core Data for Automotive Mechanical Design Process');
#1667=PRODUCT_CONTEXT('part definition',#1666,'mechanical');
#1668=PRODUCT('2026-08-20-15-56-48-289',
'EXPORT_TMP_PRINT_V015_P101D_J2Cheek_Right',$,(#1667));
#1669=PRESENTATION_STYLE_ASSIGNMENT((#1670));
#1670=SURFACE_STYLE_USAGE(.BOTH.,#1671);
#1671=SURFACE_SIDE_STYLE('',(#1672));
#1672=SURFACE_STYLE_FILL_AREA(#1673);
#1673=FILL_AREA_STYLE('Steel - Satin',(#1674));
#1674=FILL_AREA_STYLE_COLOUR('Steel - Satin',#1675);
#1675=COLOUR_RGB('Steel - Satin',0.627450980392157,0.627450980392157,0.627450980392157);
ENDSEC;
END-ISO-10303-21;
