ISO-10303-21;
HEADER;
/* Generated by software containing ST-Developer
 * from STEP Tools, Inc. (www.steptools.com) 
 */

FILE_DESCRIPTION(
/* description */ (''),
/* implementation_level */ '2;1');

FILE_NAME(
/* name */ 'PRINT_V007B_P406_ForearmDorsalLid_Aligned.step',
/* time_stamp */ '2026-08-31T16:24:11+02:00',
/* author */ (''),
/* organization */ (''),
/* preprocessor_version */ 'ST-DEVELOPER v20.1',
/* originating_system */ 'Autodesk Translation Framework v15.8.0.0',
/* authorisation */ '');

FILE_SCHEMA (('AUTOMOTIVE_DESIGN { 1 0 10303 214 3 1 1 }'));
ENDSEC;

DATA;
#10=MECHANICAL_DESIGN_GEOMETRIC_PRESENTATION_REPRESENTATION('',(#13),#621);
#11=SHAPE_REPRESENTATION_RELATIONSHIP('SRR','None',#628,#12);
#12=ADVANCED_BREP_SHAPE_REPRESENTATION('',(#14),#620);
#13=STYLED_ITEM('',(#637),#14);
#14=MANIFOLD_SOLID_BREP('Body1',#365);
#15=FACE_BOUND('',#57,.T.);
#16=FACE_BOUND('',#58,.T.);
#17=FACE_BOUND('',#59,.T.);
#18=FACE_BOUND('',#60,.T.);
#19=FACE_BOUND('',#61,.T.);
#20=FACE_BOUND('',#62,.T.);
#21=FACE_BOUND('',#73,.T.);
#22=FACE_BOUND('',#74,.T.);
#23=FACE_BOUND('',#75,.T.);
#24=FACE_BOUND('',#76,.T.);
#25=FACE_BOUND('',#77,.T.);
#26=FACE_BOUND('',#78,.T.);
#27=CYLINDRICAL_SURFACE('',#383,2.65);
#28=CYLINDRICAL_SURFACE('',#392,2.65);
#29=CYLINDRICAL_SURFACE('',#398,2.2);
#30=CYLINDRICAL_SURFACE('',#400,2.2);
#31=CYLINDRICAL_SURFACE('',#402,2.2);
#32=CYLINDRICAL_SURFACE('',#404,2.2);
#33=CYLINDRICAL_SURFACE('',#406,2.2);
#34=CYLINDRICAL_SURFACE('',#408,2.2);
#35=FACE_OUTER_BOUND('',#53,.T.);
#36=FACE_OUTER_BOUND('',#54,.T.);
#37=FACE_OUTER_BOUND('',#55,.T.);
#38=FACE_OUTER_BOUND('',#56,.T.);
#39=FACE_OUTER_BOUND('',#63,.T.);
#40=FACE_OUTER_BOUND('',#64,.T.);
#41=FACE_OUTER_BOUND('',#65,.T.);
#42=FACE_OUTER_BOUND('',#66,.T.);
#43=FACE_OUTER_BOUND('',#67,.T.);
#44=FACE_OUTER_BOUND('',#68,.T.);
#45=FACE_OUTER_BOUND('',#69,.T.);
#46=FACE_OUTER_BOUND('',#70,.T.);
#47=FACE_OUTER_BOUND('',#71,.T.);
#48=FACE_OUTER_BOUND('',#72,.T.);
#49=FACE_OUTER_BOUND('',#79,.T.);
#50=FACE_OUTER_BOUND('',#80,.T.);
#51=FACE_OUTER_BOUND('',#81,.T.);
#52=FACE_OUTER_BOUND('',#82,.T.);
#53=EDGE_LOOP('',(#241,#242));
#54=EDGE_LOOP('',(#243,#244,#245,#246));
#55=EDGE_LOOP('',(#247,#248,#249,#250));
#56=EDGE_LOOP('',(#251,#252,#253,#254,#255,#256,#257,#258,#259,#260,#261,
#262,#263,#264,#265,#266));
#57=EDGE_LOOP('',(#267));
#58=EDGE_LOOP('',(#268));
#59=EDGE_LOOP('',(#269));
#60=EDGE_LOOP('',(#270));
#61=EDGE_LOOP('',(#271));
#62=EDGE_LOOP('',(#272));
#63=EDGE_LOOP('',(#273,#274,#275,#276));
#64=EDGE_LOOP('',(#277,#278,#279,#280));
#65=EDGE_LOOP('',(#281,#282));
#66=EDGE_LOOP('',(#283,#284,#285,#286));
#67=EDGE_LOOP('',(#287,#288,#289,#290));
#68=EDGE_LOOP('',(#291,#292,#293,#294));
#69=EDGE_LOOP('',(#295,#296,#297,#298));
#70=EDGE_LOOP('',(#299,#300,#301,#302));
#71=EDGE_LOOP('',(#303,#304,#305,#306));
#72=EDGE_LOOP('',(#307,#308,#309,#310));
#73=EDGE_LOOP('',(#311));
#74=EDGE_LOOP('',(#312));
#75=EDGE_LOOP('',(#313));
#76=EDGE_LOOP('',(#314));
#77=EDGE_LOOP('',(#315));
#78=EDGE_LOOP('',(#316));
#79=EDGE_LOOP('',(#317,#318,#319,#320,#321,#322));
#80=EDGE_LOOP('',(#323,#324,#325,#326));
#81=EDGE_LOOP('',(#327,#328,#329,#330,#331,#332));
#82=EDGE_LOOP('',(#333,#334,#335,#336));
#83=CIRCLE('',#380,2.5);
#84=CIRCLE('',#382,2.65);
#85=CIRCLE('',#384,2.65);
#86=CIRCLE('',#386,2.2);
#87=CIRCLE('',#387,2.2);
#88=CIRCLE('',#388,2.2);
#89=CIRCLE('',#389,2.2);
#90=CIRCLE('',#390,2.2);
#91=CIRCLE('',#391,2.2);
#92=CIRCLE('',#393,2.65);
#93=CIRCLE('',#394,2.65);
#94=CIRCLE('',#396,2.5);
#95=CIRCLE('',#399,2.2);
#96=CIRCLE('',#401,2.2);
#97=CIRCLE('',#403,2.2);
#98=CIRCLE('',#405,2.2);
#99=CIRCLE('',#407,2.2);
#100=CIRCLE('',#409,2.2);
#101=LINE('',#523,#131);
#102=LINE('',#527,#132);
#103=LINE('',#529,#133);
#104=LINE('',#533,#134);
#105=LINE('',#536,#135);
#106=LINE('',#539,#136);
#107=LINE('',#541,#137);
#108=LINE('',#543,#138);
#109=LINE('',#545,#139);
#110=LINE('',#547,#140);
#111=LINE('',#549,#141);
#112=LINE('',#551,#142);
#113=LINE('',#553,#143);
#114=LINE('',#555,#144);
#115=LINE('',#557,#145);
#116=LINE('',#558,#146);
#117=LINE('',#579,#147);
#118=LINE('',#583,#148);
#119=LINE('',#587,#149);
#120=LINE('',#591,#150);
#121=LINE('',#595,#151);
#122=LINE('',#599,#152);
#123=LINE('',#604,#153);
#124=LINE('',#606,#154);
#125=LINE('',#608,#155);
#126=LINE('',#609,#156);
#127=LINE('',#611,#157);
#128=LINE('',#612,#158);
#129=LINE('',#614,#159);
#130=LINE('',#616,#160);
#131=VECTOR('',#419,10.);
#132=VECTOR('',#424,10.);
#133=VECTOR('',#425,10.);
#134=VECTOR('',#430,10.);
#135=VECTOR('',#433,10.);
#136=VECTOR('',#436,10.);
#137=VECTOR('',#437,10.);
#138=VECTOR('',#438,10.);
#139=VECTOR('',#439,10.);
#140=VECTOR('',#440,10.);
#141=VECTOR('',#441,10.);
#142=VECTOR('',#442,10.);
#143=VECTOR('',#443,10.);
#144=VECTOR('',#444,10.);
#145=VECTOR('',#445,10.);
#146=VECTOR('',#446,10.);
#147=VECTOR('',#473,2.2);
#148=VECTOR('',#478,2.2);
#149=VECTOR('',#483,2.2);
#150=VECTOR('',#488,2.2);
#151=VECTOR('',#493,2.2);
#152=VECTOR('',#498,2.2);
#153=VECTOR('',#503,10.);
#154=VECTOR('',#504,10.);
#155=VECTOR('',#505,10.);
#156=VECTOR('',#506,10.);
#157=VECTOR('',#509,10.);
#158=VECTOR('',#510,10.);
#159=VECTOR('',#513,10.);
#160=VECTOR('',#516,10.);
#161=VERTEX_POINT('',#521);
#162=VERTEX_POINT('',#522);
#163=VERTEX_POINT('',#526);
#164=VERTEX_POINT('',#528);
#165=VERTEX_POINT('',#532);
#166=VERTEX_POINT('',#534);
#167=VERTEX_POINT('',#538);
#168=VERTEX_POINT('',#540);
#169=VERTEX_POINT('',#542);
#170=VERTEX_POINT('',#544);
#171=VERTEX_POINT('',#546);
#172=VERTEX_POINT('',#548);
#173=VERTEX_POINT('',#550);
#174=VERTEX_POINT('',#552);
#175=VERTEX_POINT('',#554);
#176=VERTEX_POINT('',#556);
#177=VERTEX_POINT('',#559);
#178=VERTEX_POINT('',#561);
#179=VERTEX_POINT('',#563);
#180=VERTEX_POINT('',#565);
#181=VERTEX_POINT('',#567);
#182=VERTEX_POINT('',#569);
#183=VERTEX_POINT('',#578);
#184=VERTEX_POINT('',#582);
#185=VERTEX_POINT('',#586);
#186=VERTEX_POINT('',#590);
#187=VERTEX_POINT('',#594);
#188=VERTEX_POINT('',#598);
#189=VERTEX_POINT('',#602);
#190=VERTEX_POINT('',#603);
#191=VERTEX_POINT('',#605);
#192=VERTEX_POINT('',#607);
#193=EDGE_CURVE('',#161,#162,#101,.T.);
#194=EDGE_CURVE('',#162,#161,#83,.T.);
#195=EDGE_CURVE('',#162,#163,#102,.T.);
#196=EDGE_CURVE('',#164,#161,#103,.T.);
#197=EDGE_CURVE('',#163,#164,#84,.T.);
#198=EDGE_CURVE('',#165,#164,#104,.T.);
#199=EDGE_CURVE('',#166,#165,#85,.T.);
#200=EDGE_CURVE('',#163,#166,#105,.T.);
#201=EDGE_CURVE('',#166,#167,#106,.T.);
#202=EDGE_CURVE('',#167,#168,#107,.T.);
#203=EDGE_CURVE('',#168,#169,#108,.T.);
#204=EDGE_CURVE('',#169,#170,#109,.T.);
#205=EDGE_CURVE('',#170,#171,#110,.T.);
#206=EDGE_CURVE('',#171,#172,#111,.T.);
#207=EDGE_CURVE('',#172,#173,#112,.T.);
#208=EDGE_CURVE('',#173,#174,#113,.T.);
#209=EDGE_CURVE('',#174,#175,#114,.T.);
#210=EDGE_CURVE('',#175,#176,#115,.T.);
#211=EDGE_CURVE('',#176,#165,#116,.T.);
#212=EDGE_CURVE('',#177,#177,#86,.T.);
#213=EDGE_CURVE('',#178,#178,#87,.T.);
#214=EDGE_CURVE('',#179,#179,#88,.T.);
#215=EDGE_CURVE('',#180,#180,#89,.T.);
#216=EDGE_CURVE('',#181,#181,#90,.T.);
#217=EDGE_CURVE('',#182,#182,#91,.T.);
#218=EDGE_CURVE('',#174,#169,#92,.T.);
#219=EDGE_CURVE('',#170,#173,#93,.T.);
#220=EDGE_CURVE('',#171,#172,#94,.T.);
#221=EDGE_CURVE('',#179,#183,#117,.T.);
#222=EDGE_CURVE('',#183,#183,#95,.T.);
#223=EDGE_CURVE('',#180,#184,#118,.T.);
#224=EDGE_CURVE('',#184,#184,#96,.T.);
#225=EDGE_CURVE('',#182,#185,#119,.T.);
#226=EDGE_CURVE('',#185,#185,#97,.T.);
#227=EDGE_CURVE('',#177,#186,#120,.T.);
#228=EDGE_CURVE('',#186,#186,#98,.T.);
#229=EDGE_CURVE('',#181,#187,#121,.T.);
#230=EDGE_CURVE('',#187,#187,#99,.T.);
#231=EDGE_CURVE('',#178,#188,#122,.T.);
#232=EDGE_CURVE('',#188,#188,#100,.T.);
#233=EDGE_CURVE('',#189,#190,#123,.T.);
#234=EDGE_CURVE('',#190,#191,#124,.T.);
#235=EDGE_CURVE('',#191,#192,#125,.T.);
#236=EDGE_CURVE('',#192,#189,#126,.T.);
#237=EDGE_CURVE('',#189,#176,#127,.T.);
#238=EDGE_CURVE('',#192,#167,#128,.T.);
#239=EDGE_CURVE('',#191,#168,#129,.T.);
#240=EDGE_CURVE('',#190,#175,#130,.T.);
#241=ORIENTED_EDGE('',*,*,#193,.F.);
#242=ORIENTED_EDGE('',*,*,#194,.F.);
#243=ORIENTED_EDGE('',*,*,#195,.F.);
#244=ORIENTED_EDGE('',*,*,#194,.T.);
#245=ORIENTED_EDGE('',*,*,#196,.F.);
#246=ORIENTED_EDGE('',*,*,#197,.F.);
#247=ORIENTED_EDGE('',*,*,#198,.F.);
#248=ORIENTED_EDGE('',*,*,#199,.F.);
#249=ORIENTED_EDGE('',*,*,#200,.F.);
#250=ORIENTED_EDGE('',*,*,#197,.T.);
#251=ORIENTED_EDGE('',*,*,#193,.T.);
#252=ORIENTED_EDGE('',*,*,#195,.T.);
#253=ORIENTED_EDGE('',*,*,#200,.T.);
#254=ORIENTED_EDGE('',*,*,#201,.T.);
#255=ORIENTED_EDGE('',*,*,#202,.T.);
#256=ORIENTED_EDGE('',*,*,#203,.T.);
#257=ORIENTED_EDGE('',*,*,#204,.T.);
#258=ORIENTED_EDGE('',*,*,#205,.T.);
#259=ORIENTED_EDGE('',*,*,#206,.T.);
#260=ORIENTED_EDGE('',*,*,#207,.T.);
#261=ORIENTED_EDGE('',*,*,#208,.T.);
#262=ORIENTED_EDGE('',*,*,#209,.T.);
#263=ORIENTED_EDGE('',*,*,#210,.T.);
#264=ORIENTED_EDGE('',*,*,#211,.T.);
#265=ORIENTED_EDGE('',*,*,#198,.T.);
#266=ORIENTED_EDGE('',*,*,#196,.T.);
#267=ORIENTED_EDGE('',*,*,#212,.T.);
#268=ORIENTED_EDGE('',*,*,#213,.T.);
#269=ORIENTED_EDGE('',*,*,#214,.T.);
#270=ORIENTED_EDGE('',*,*,#215,.T.);
#271=ORIENTED_EDGE('',*,*,#216,.T.);
#272=ORIENTED_EDGE('',*,*,#217,.T.);
#273=ORIENTED_EDGE('',*,*,#204,.F.);
#274=ORIENTED_EDGE('',*,*,#218,.F.);
#275=ORIENTED_EDGE('',*,*,#208,.F.);
#276=ORIENTED_EDGE('',*,*,#219,.F.);
#277=ORIENTED_EDGE('',*,*,#205,.F.);
#278=ORIENTED_EDGE('',*,*,#219,.T.);
#279=ORIENTED_EDGE('',*,*,#207,.F.);
#280=ORIENTED_EDGE('',*,*,#220,.F.);
#281=ORIENTED_EDGE('',*,*,#206,.F.);
#282=ORIENTED_EDGE('',*,*,#220,.T.);
#283=ORIENTED_EDGE('',*,*,#214,.F.);
#284=ORIENTED_EDGE('',*,*,#221,.T.);
#285=ORIENTED_EDGE('',*,*,#222,.F.);
#286=ORIENTED_EDGE('',*,*,#221,.F.);
#287=ORIENTED_EDGE('',*,*,#215,.F.);
#288=ORIENTED_EDGE('',*,*,#223,.T.);
#289=ORIENTED_EDGE('',*,*,#224,.F.);
#290=ORIENTED_EDGE('',*,*,#223,.F.);
#291=ORIENTED_EDGE('',*,*,#217,.F.);
#292=ORIENTED_EDGE('',*,*,#225,.T.);
#293=ORIENTED_EDGE('',*,*,#226,.F.);
#294=ORIENTED_EDGE('',*,*,#225,.F.);
#295=ORIENTED_EDGE('',*,*,#212,.F.);
#296=ORIENTED_EDGE('',*,*,#227,.T.);
#297=ORIENTED_EDGE('',*,*,#228,.F.);
#298=ORIENTED_EDGE('',*,*,#227,.F.);
#299=ORIENTED_EDGE('',*,*,#216,.F.);
#300=ORIENTED_EDGE('',*,*,#229,.T.);
#301=ORIENTED_EDGE('',*,*,#230,.F.);
#302=ORIENTED_EDGE('',*,*,#229,.F.);
#303=ORIENTED_EDGE('',*,*,#213,.F.);
#304=ORIENTED_EDGE('',*,*,#231,.T.);
#305=ORIENTED_EDGE('',*,*,#232,.F.);
#306=ORIENTED_EDGE('',*,*,#231,.F.);
#307=ORIENTED_EDGE('',*,*,#233,.T.);
#308=ORIENTED_EDGE('',*,*,#234,.T.);
#309=ORIENTED_EDGE('',*,*,#235,.T.);
#310=ORIENTED_EDGE('',*,*,#236,.T.);
#311=ORIENTED_EDGE('',*,*,#222,.T.);
#312=ORIENTED_EDGE('',*,*,#224,.T.);
#313=ORIENTED_EDGE('',*,*,#226,.T.);
#314=ORIENTED_EDGE('',*,*,#228,.T.);
#315=ORIENTED_EDGE('',*,*,#230,.T.);
#316=ORIENTED_EDGE('',*,*,#232,.T.);
#317=ORIENTED_EDGE('',*,*,#199,.T.);
#318=ORIENTED_EDGE('',*,*,#211,.F.);
#319=ORIENTED_EDGE('',*,*,#237,.F.);
#320=ORIENTED_EDGE('',*,*,#236,.F.);
#321=ORIENTED_EDGE('',*,*,#238,.T.);
#322=ORIENTED_EDGE('',*,*,#201,.F.);
#323=ORIENTED_EDGE('',*,*,#239,.T.);
#324=ORIENTED_EDGE('',*,*,#202,.F.);
#325=ORIENTED_EDGE('',*,*,#238,.F.);
#326=ORIENTED_EDGE('',*,*,#235,.F.);
#327=ORIENTED_EDGE('',*,*,#218,.T.);
#328=ORIENTED_EDGE('',*,*,#203,.F.);
#329=ORIENTED_EDGE('',*,*,#239,.F.);
#330=ORIENTED_EDGE('',*,*,#234,.F.);
#331=ORIENTED_EDGE('',*,*,#240,.T.);
#332=ORIENTED_EDGE('',*,*,#209,.F.);
#333=ORIENTED_EDGE('',*,*,#237,.T.);
#334=ORIENTED_EDGE('',*,*,#210,.F.);
#335=ORIENTED_EDGE('',*,*,#240,.F.);
#336=ORIENTED_EDGE('',*,*,#233,.F.);
#337=PLANE('',#379);
#338=PLANE('',#381);
#339=PLANE('',#385);
#340=PLANE('',#395);
#341=PLANE('',#397);
#342=PLANE('',#410);
#343=PLANE('',#411);
#344=PLANE('',#412);
#345=PLANE('',#413);
#346=PLANE('',#414);
#347=ADVANCED_FACE('',(#35),#337,.F.);
#348=ADVANCED_FACE('',(#36),#338,.F.);
#349=ADVANCED_FACE('',(#37),#27,.F.);
#350=ADVANCED_FACE('',(#38,#15,#16,#17,#18,#19,#20),#339,.F.);
#351=ADVANCED_FACE('',(#39),#28,.F.);
#352=ADVANCED_FACE('',(#40),#340,.T.);
#353=ADVANCED_FACE('',(#41),#341,.T.);
#354=ADVANCED_FACE('',(#42),#29,.F.);
#355=ADVANCED_FACE('',(#43),#30,.F.);
#356=ADVANCED_FACE('',(#44),#31,.F.);
#357=ADVANCED_FACE('',(#45),#32,.F.);
#358=ADVANCED_FACE('',(#46),#33,.F.);
#359=ADVANCED_FACE('',(#47),#34,.F.);
#360=ADVANCED_FACE('',(#48,#21,#22,#23,#24,#25,#26),#342,.T.);
#361=ADVANCED_FACE('',(#49),#343,.F.);
#362=ADVANCED_FACE('',(#50),#344,.F.);
#363=ADVANCED_FACE('',(#51),#345,.F.);
#364=ADVANCED_FACE('',(#52),#346,.F.);
#365=CLOSED_SHELL('',(#347,#348,#349,#350,#351,#352,#353,#354,#355,#356,
#357,#358,#359,#360,#361,#362,#363,#364));
#366=DERIVED_UNIT_ELEMENT(#368,1.);
#367=DERIVED_UNIT_ELEMENT(#623,-3.);
#368=(
MASS_UNIT()
NAMED_UNIT(*)
SI_UNIT(.KILO.,.GRAM.)
);
#369=DERIVED_UNIT((#366,#367));
#370=MEASURE_REPRESENTATION_ITEM('density measure',
POSITIVE_RATIO_MEASURE(7850.),#369);
#371=PROPERTY_DEFINITION_REPRESENTATION(#376,#373);
#372=PROPERTY_DEFINITION_REPRESENTATION(#377,#374);
#373=REPRESENTATION('material name',(#375),#620);
#374=REPRESENTATION('density',(#370),#620);
#375=DESCRIPTIVE_REPRESENTATION_ITEM('Steel','Steel');
#376=PROPERTY_DEFINITION('material property','material name',#630);
#377=PROPERTY_DEFINITION('material property','density of part',#630);
#378=AXIS2_PLACEMENT_3D('',#519,#415,#416);
#379=AXIS2_PLACEMENT_3D('',#520,#417,#418);
#380=AXIS2_PLACEMENT_3D('',#524,#420,#421);
#381=AXIS2_PLACEMENT_3D('',#525,#422,#423);
#382=AXIS2_PLACEMENT_3D('',#530,#426,#427);
#383=AXIS2_PLACEMENT_3D('',#531,#428,#429);
#384=AXIS2_PLACEMENT_3D('',#535,#431,#432);
#385=AXIS2_PLACEMENT_3D('',#537,#434,#435);
#386=AXIS2_PLACEMENT_3D('',#560,#447,#448);
#387=AXIS2_PLACEMENT_3D('',#562,#449,#450);
#388=AXIS2_PLACEMENT_3D('',#564,#451,#452);
#389=AXIS2_PLACEMENT_3D('',#566,#453,#454);
#390=AXIS2_PLACEMENT_3D('',#568,#455,#456);
#391=AXIS2_PLACEMENT_3D('',#570,#457,#458);
#392=AXIS2_PLACEMENT_3D('',#571,#459,#460);
#393=AXIS2_PLACEMENT_3D('',#572,#461,#462);
#394=AXIS2_PLACEMENT_3D('',#573,#463,#464);
#395=AXIS2_PLACEMENT_3D('',#574,#465,#466);
#396=AXIS2_PLACEMENT_3D('',#575,#467,#468);
#397=AXIS2_PLACEMENT_3D('',#576,#469,#470);
#398=AXIS2_PLACEMENT_3D('',#577,#471,#472);
#399=AXIS2_PLACEMENT_3D('',#580,#474,#475);
#400=AXIS2_PLACEMENT_3D('',#581,#476,#477);
#401=AXIS2_PLACEMENT_3D('',#584,#479,#480);
#402=AXIS2_PLACEMENT_3D('',#585,#481,#482);
#403=AXIS2_PLACEMENT_3D('',#588,#484,#485);
#404=AXIS2_PLACEMENT_3D('',#589,#486,#487);
#405=AXIS2_PLACEMENT_3D('',#592,#489,#490);
#406=AXIS2_PLACEMENT_3D('',#593,#491,#492);
#407=AXIS2_PLACEMENT_3D('',#596,#494,#495);
#408=AXIS2_PLACEMENT_3D('',#597,#496,#497);
#409=AXIS2_PLACEMENT_3D('',#600,#499,#500);
#410=AXIS2_PLACEMENT_3D('',#601,#501,#502);
#411=AXIS2_PLACEMENT_3D('',#610,#507,#508);
#412=AXIS2_PLACEMENT_3D('',#613,#511,#512);
#413=AXIS2_PLACEMENT_3D('',#615,#514,#515);
#414=AXIS2_PLACEMENT_3D('',#617,#517,#518);
#415=DIRECTION('axis',(0.,0.,1.));
#416=DIRECTION('refdir',(1.,0.,0.));
#417=DIRECTION('center_axis',(0.,1.,0.));
#418=DIRECTION('ref_axis',(0.,0.,1.));
#419=DIRECTION('',(-1.,0.,0.));
#420=DIRECTION('center_axis',(0.,1.,0.));
#421=DIRECTION('ref_axis',(0.,0.,1.));
#422=DIRECTION('center_axis',(0.,1.,0.));
#423=DIRECTION('ref_axis',(0.,0.,1.));
#424=DIRECTION('',(-1.,0.,0.));
#425=DIRECTION('',(-1.,0.,0.));
#426=DIRECTION('center_axis',(0.,1.,0.));
#427=DIRECTION('ref_axis',(0.,0.,1.));
#428=DIRECTION('center_axis',(0.,1.,0.));
#429=DIRECTION('ref_axis',(0.,0.,1.));
#430=DIRECTION('',(0.,1.,0.));
#431=DIRECTION('center_axis',(0.,1.,0.));
#432=DIRECTION('ref_axis',(0.,0.,1.));
#433=DIRECTION('',(0.,-1.,0.));
#434=DIRECTION('center_axis',(0.,0.,1.));
#435=DIRECTION('ref_axis',(1.,0.,0.));
#436=DIRECTION('',(-1.,0.,0.));
#437=DIRECTION('',(0.,1.,0.));
#438=DIRECTION('',(1.,0.,0.));
#439=DIRECTION('',(0.,-1.,0.));
#440=DIRECTION('',(1.,0.,0.));
#441=DIRECTION('',(1.,0.,0.));
#442=DIRECTION('',(1.,0.,0.));
#443=DIRECTION('',(0.,1.,0.));
#444=DIRECTION('',(1.,0.,0.));
#445=DIRECTION('',(0.,-1.,0.));
#446=DIRECTION('',(-1.,0.,0.));
#447=DIRECTION('center_axis',(0.,0.,1.));
#448=DIRECTION('ref_axis',(1.,0.,0.));
#449=DIRECTION('center_axis',(0.,0.,1.));
#450=DIRECTION('ref_axis',(1.,0.,0.));
#451=DIRECTION('center_axis',(0.,0.,1.));
#452=DIRECTION('ref_axis',(1.,0.,0.));
#453=DIRECTION('center_axis',(0.,0.,1.));
#454=DIRECTION('ref_axis',(1.,0.,0.));
#455=DIRECTION('center_axis',(0.,0.,1.));
#456=DIRECTION('ref_axis',(1.,0.,0.));
#457=DIRECTION('center_axis',(0.,0.,1.));
#458=DIRECTION('ref_axis',(1.,0.,0.));
#459=DIRECTION('center_axis',(0.,1.,0.));
#460=DIRECTION('ref_axis',(0.,0.,1.));
#461=DIRECTION('center_axis',(0.,-1.,0.));
#462=DIRECTION('ref_axis',(0.,0.,1.));
#463=DIRECTION('center_axis',(0.,1.,0.));
#464=DIRECTION('ref_axis',(0.,0.,1.));
#465=DIRECTION('center_axis',(0.,1.,0.));
#466=DIRECTION('ref_axis',(0.,0.,1.));
#467=DIRECTION('center_axis',(0.,1.,0.));
#468=DIRECTION('ref_axis',(0.,0.,1.));
#469=DIRECTION('center_axis',(0.,1.,0.));
#470=DIRECTION('ref_axis',(0.,0.,1.));
#471=DIRECTION('center_axis',(0.,0.,1.));
#472=DIRECTION('ref_axis',(1.,0.,0.));
#473=DIRECTION('',(0.,0.,1.));
#474=DIRECTION('center_axis',(0.,0.,-1.));
#475=DIRECTION('ref_axis',(1.,0.,0.));
#476=DIRECTION('center_axis',(0.,0.,1.));
#477=DIRECTION('ref_axis',(1.,0.,0.));
#478=DIRECTION('',(0.,0.,1.));
#479=DIRECTION('center_axis',(0.,0.,-1.));
#480=DIRECTION('ref_axis',(1.,0.,0.));
#481=DIRECTION('center_axis',(0.,0.,1.));
#482=DIRECTION('ref_axis',(1.,0.,0.));
#483=DIRECTION('',(0.,0.,1.));
#484=DIRECTION('center_axis',(0.,0.,-1.));
#485=DIRECTION('ref_axis',(1.,0.,0.));
#486=DIRECTION('center_axis',(0.,0.,1.));
#487=DIRECTION('ref_axis',(1.,0.,0.));
#488=DIRECTION('',(0.,0.,1.));
#489=DIRECTION('center_axis',(0.,0.,-1.));
#490=DIRECTION('ref_axis',(1.,0.,0.));
#491=DIRECTION('center_axis',(0.,0.,1.));
#492=DIRECTION('ref_axis',(1.,0.,0.));
#493=DIRECTION('',(0.,0.,1.));
#494=DIRECTION('center_axis',(0.,0.,-1.));
#495=DIRECTION('ref_axis',(1.,0.,0.));
#496=DIRECTION('center_axis',(0.,0.,1.));
#497=DIRECTION('ref_axis',(1.,0.,0.));
#498=DIRECTION('',(0.,0.,1.));
#499=DIRECTION('center_axis',(0.,0.,-1.));
#500=DIRECTION('ref_axis',(1.,0.,0.));
#501=DIRECTION('center_axis',(0.,0.,1.));
#502=DIRECTION('ref_axis',(1.,0.,0.));
#503=DIRECTION('',(0.,1.,0.));
#504=DIRECTION('',(-1.,0.,0.));
#505=DIRECTION('',(0.,-1.,0.));
#506=DIRECTION('',(1.,0.,0.));
#507=DIRECTION('center_axis',(0.,1.,0.));
#508=DIRECTION('ref_axis',(0.,0.,1.));
#509=DIRECTION('',(0.,0.,-1.));
#510=DIRECTION('',(0.,0.,-1.));
#511=DIRECTION('center_axis',(1.,0.,0.));
#512=DIRECTION('ref_axis',(0.,0.,-1.));
#513=DIRECTION('',(0.,0.,-1.));
#514=DIRECTION('center_axis',(0.,-1.,0.));
#515=DIRECTION('ref_axis',(0.,0.,-1.));
#516=DIRECTION('',(0.,0.,-1.));
#517=DIRECTION('center_axis',(-1.,0.,0.));
#518=DIRECTION('ref_axis',(0.,0.,1.));
#519=CARTESIAN_POINT('',(0.,0.,0.));
#520=CARTESIAN_POINT('Origin',(480.,-34.,274.));
#521=CARTESIAN_POINT('',(482.5,-34.,274.));
#522=CARTESIAN_POINT('',(477.5,-34.,274.));
#523=CARTESIAN_POINT('',(471.25,-34.,274.));
#524=CARTESIAN_POINT('Origin',(480.,-34.,274.));
#525=CARTESIAN_POINT('Origin',(480.,-34.,274.));
#526=CARTESIAN_POINT('',(477.35,-34.,274.));
#527=CARTESIAN_POINT('',(471.25,-34.,274.));
#528=CARTESIAN_POINT('',(482.65,-34.,274.));
#529=CARTESIAN_POINT('',(471.25,-34.,274.));
#530=CARTESIAN_POINT('Origin',(480.,-34.,274.));
#531=CARTESIAN_POINT('Origin',(480.,-39.,274.));
#532=CARTESIAN_POINT('',(482.65,-38.,274.));
#533=CARTESIAN_POINT('',(482.65,-39.,274.));
#534=CARTESIAN_POINT('',(477.35,-38.,274.));
#535=CARTESIAN_POINT('Origin',(480.,-38.,274.));
#536=CARTESIAN_POINT('',(477.35,-39.,274.));
#537=CARTESIAN_POINT('Origin',(462.5,0.,274.));
#538=CARTESIAN_POINT('',(425.,-38.,274.));
#539=CARTESIAN_POINT('',(462.5,-38.,274.));
#540=CARTESIAN_POINT('',(425.,38.,274.));
#541=CARTESIAN_POINT('',(425.,0.,274.));
#542=CARTESIAN_POINT('',(477.35,38.,274.));
#543=CARTESIAN_POINT('',(462.5,38.,274.));
#544=CARTESIAN_POINT('',(477.35,34.,274.));
#545=CARTESIAN_POINT('',(477.35,34.,274.));
#546=CARTESIAN_POINT('',(477.5,34.,274.));
#547=CARTESIAN_POINT('',(471.25,34.,274.));
#548=CARTESIAN_POINT('',(482.5,34.,274.));
#549=CARTESIAN_POINT('',(471.25,34.,274.));
#550=CARTESIAN_POINT('',(482.65,34.,274.));
#551=CARTESIAN_POINT('',(471.25,34.,274.));
#552=CARTESIAN_POINT('',(482.65,38.,274.));
#553=CARTESIAN_POINT('',(482.65,34.,274.));
#554=CARTESIAN_POINT('',(500.,38.,274.));
#555=CARTESIAN_POINT('',(462.5,38.,274.));
#556=CARTESIAN_POINT('',(500.,-38.,274.));
#557=CARTESIAN_POINT('',(500.,0.,274.));
#558=CARTESIAN_POINT('',(462.5,-38.,274.));
#559=CARTESIAN_POINT('',(459.8,-34.,274.));
#560=CARTESIAN_POINT('Origin',(462.,-34.,274.));
#561=CARTESIAN_POINT('',(427.8,-34.,274.));
#562=CARTESIAN_POINT('Origin',(430.,-34.,274.));
#563=CARTESIAN_POINT('',(492.8,34.,274.));
#564=CARTESIAN_POINT('Origin',(495.,34.,274.));
#565=CARTESIAN_POINT('',(492.8,-34.,274.));
#566=CARTESIAN_POINT('Origin',(495.,-34.,274.));
#567=CARTESIAN_POINT('',(427.8,34.,274.));
#568=CARTESIAN_POINT('Origin',(430.,34.,274.));
#569=CARTESIAN_POINT('',(459.8,34.,274.));
#570=CARTESIAN_POINT('Origin',(462.,34.,274.));
#571=CARTESIAN_POINT('Origin',(480.,34.,274.));
#572=CARTESIAN_POINT('Origin',(480.,38.,274.));
#573=CARTESIAN_POINT('Origin',(480.,34.,274.));
#574=CARTESIAN_POINT('Origin',(480.,34.,274.));
#575=CARTESIAN_POINT('Origin',(480.,34.,274.));
#576=CARTESIAN_POINT('Origin',(480.,34.,274.));
#577=CARTESIAN_POINT('Origin',(495.,34.,276.5));
#578=CARTESIAN_POINT('',(492.8,34.,279.));
#579=CARTESIAN_POINT('',(492.8,34.,276.5));
#580=CARTESIAN_POINT('Origin',(495.,34.,279.));
#581=CARTESIAN_POINT('Origin',(495.,-34.,276.5));
#582=CARTESIAN_POINT('',(492.8,-34.,279.));
#583=CARTESIAN_POINT('',(492.8,-34.,276.5));
#584=CARTESIAN_POINT('Origin',(495.,-34.,279.));
#585=CARTESIAN_POINT('Origin',(462.,34.,276.5));
#586=CARTESIAN_POINT('',(459.8,34.,279.));
#587=CARTESIAN_POINT('',(459.8,34.,276.5));
#588=CARTESIAN_POINT('Origin',(462.,34.,279.));
#589=CARTESIAN_POINT('Origin',(462.,-34.,276.5));
#590=CARTESIAN_POINT('',(459.8,-34.,279.));
#591=CARTESIAN_POINT('',(459.8,-34.,276.5));
#592=CARTESIAN_POINT('Origin',(462.,-34.,279.));
#593=CARTESIAN_POINT('Origin',(430.,34.,276.5));
#594=CARTESIAN_POINT('',(427.8,34.,279.));
#595=CARTESIAN_POINT('',(427.8,34.,276.5));
#596=CARTESIAN_POINT('Origin',(430.,34.,279.));
#597=CARTESIAN_POINT('Origin',(430.,-34.,276.5));
#598=CARTESIAN_POINT('',(427.8,-34.,279.));
#599=CARTESIAN_POINT('',(427.8,-34.,276.5));
#600=CARTESIAN_POINT('Origin',(430.,-34.,279.));
#601=CARTESIAN_POINT('Origin',(462.5,0.,279.));
#602=CARTESIAN_POINT('',(500.,-38.,279.));
#603=CARTESIAN_POINT('',(500.,38.,279.));
#604=CARTESIAN_POINT('',(500.,0.,279.));
#605=CARTESIAN_POINT('',(425.,38.,279.));
#606=CARTESIAN_POINT('',(462.5,38.,279.));
#607=CARTESIAN_POINT('',(425.,-38.,279.));
#608=CARTESIAN_POINT('',(425.,0.,279.));
#609=CARTESIAN_POINT('',(462.5,-38.,279.));
#610=CARTESIAN_POINT('Origin',(462.5,-38.,276.5));
#611=CARTESIAN_POINT('',(500.,-38.,276.5));
#612=CARTESIAN_POINT('',(425.,-38.,276.5));
#613=CARTESIAN_POINT('Origin',(425.,0.,276.5));
#614=CARTESIAN_POINT('',(425.,38.,276.5));
#615=CARTESIAN_POINT('Origin',(462.5,38.,276.5));
#616=CARTESIAN_POINT('',(500.,38.,276.5));
#617=CARTESIAN_POINT('Origin',(500.,0.,276.5));
#618=UNCERTAINTY_MEASURE_WITH_UNIT(LENGTH_MEASURE(0.01),#622,
'DISTANCE_ACCURACY_VALUE',
'Maximum model space distance between geometric entities at asserted c
onnectivities');
#619=UNCERTAINTY_MEASURE_WITH_UNIT(LENGTH_MEASURE(0.01),#622,
'DISTANCE_ACCURACY_VALUE',
'Maximum model space distance between geometric entities at asserted c
onnectivities');
#620=(
GEOMETRIC_REPRESENTATION_CONTEXT(3)
GLOBAL_UNCERTAINTY_ASSIGNED_CONTEXT((#618))
GLOBAL_UNIT_ASSIGNED_CONTEXT((#622,#624,#625))
REPRESENTATION_CONTEXT('','3D')
);
#621=(
GEOMETRIC_REPRESENTATION_CONTEXT(3)
GLOBAL_UNCERTAINTY_ASSIGNED_CONTEXT((#619))
GLOBAL_UNIT_ASSIGNED_CONTEXT((#622,#624,#625))
REPRESENTATION_CONTEXT('','3D')
);
#622=(
LENGTH_UNIT()
NAMED_UNIT(*)
SI_UNIT(.MILLI.,.METRE.)
);
#623=(
LENGTH_UNIT()
NAMED_UNIT(*)
SI_UNIT($,.METRE.)
);
#624=(
NAMED_UNIT(*)
PLANE_ANGLE_UNIT()
SI_UNIT($,.RADIAN.)
);
#625=(
NAMED_UNIT(*)
SI_UNIT($,.STERADIAN.)
SOLID_ANGLE_UNIT()
);
#626=SHAPE_DEFINITION_REPRESENTATION(#627,#628);
#627=PRODUCT_DEFINITION_SHAPE('',$,#630);
#628=SHAPE_REPRESENTATION('',(#378),#620);
#629=PRODUCT_DEFINITION_CONTEXT('part definition',#634,'design');
#630=PRODUCT_DEFINITION('2026-08-31-16-24-11-164','EXPORT_TMP',#631,#629);
#631=PRODUCT_DEFINITION_FORMATION('',$,#636);
#632=PRODUCT_RELATED_PRODUCT_CATEGORY('EXPORT_TMP','EXPORT_TMP',(#636));
#633=APPLICATION_PROTOCOL_DEFINITION('international standard',
'automotive_design',2009,#634);
#634=APPLICATION_CONTEXT(
'Core Data for Automotive Mechanical Design Process');
#635=PRODUCT_CONTEXT('part definition',#634,'mechanical');
#636=PRODUCT('2026-08-31-16-24-11-164','EXPORT_TMP',$,(#635));
#637=PRESENTATION_STYLE_ASSIGNMENT((#638));
#638=SURFACE_STYLE_USAGE(.BOTH.,#639);
#639=SURFACE_SIDE_STYLE('',(#640));
#640=SURFACE_STYLE_FILL_AREA(#641);
#641=FILL_AREA_STYLE('Steel - Satin',(#642));
#642=FILL_AREA_STYLE_COLOUR('Steel - Satin',#643);
#643=COLOUR_RGB('Steel - Satin',0.627450980392157,0.627450980392157,0.627450980392157);
ENDSEC;
END-ISO-10303-21;
