ISO-10303-21;
HEADER;
/* Generated by software containing ST-Developer
 * from STEP Tools, Inc. (www.steptools.com) 
 */

FILE_DESCRIPTION(
/* description */ (''),
/* implementation_level */ '2;1');

FILE_NAME(
/* name */ 'PRINT_V010P_P418_DiffInputClampCollar_A.step',
/* time_stamp */ '2026-08-31T16:24:23+02:00',
/* author */ (''),
/* organization */ (''),
/* preprocessor_version */ 'ST-DEVELOPER v20.1',
/* originating_system */ 'Autodesk Translation Framework v15.8.0.0',
/* authorisation */ '');

FILE_SCHEMA (('AUTOMOTIVE_DESIGN { 1 0 10303 214 3 1 1 }'));
ENDSEC;

DATA;
#10=MECHANICAL_DESIGN_GEOMETRIC_PRESENTATION_REPRESENTATION('',(#13),#697);
#11=SHAPE_REPRESENTATION_RELATIONSHIP('SRR','None',#704,#12);
#12=ADVANCED_BREP_SHAPE_REPRESENTATION('',(#14),#696);
#13=STYLED_ITEM('',(#713),#14);
#14=MANIFOLD_SOLID_BREP('Body1',#395);
#15=B_SPLINE_CURVE_WITH_KNOTS('',3,(#619,#620,#621,#622,#623,#624,#625,
#626,#627,#628,#629,#630,#631,#632,#633,#634,#635,#636,#637,#638,#639,#640,
#641,#642,#643,#644,#645,#646,#647,#648,#649,#650,#651,#652),
 .UNSPECIFIED.,.T.,.F.,(4,2,2,2,2,2,2,2,2,2,2,2,2,2,2,2,4),(0.,0.0565436733045448,
0.11308734660909,0.169630827452676,0.226174308296262,0.282717789139849,
0.339261269983435,0.39580494328798,0.452348616592525,0.50889228989707,0.565435963201615,
0.621979444045201,0.678522924888788,0.735066405732374,0.79160988657596,
0.848153559880505,0.90469723318505),.UNSPECIFIED.);
#16=FACE_BOUND('',#65,.T.);
#17=FACE_BOUND('',#76,.T.);
#18=FACE_BOUND('',#79,.T.);
#19=FACE_BOUND('',#81,.T.);
#20=CIRCLE('',#411,9.9);
#21=CIRCLE('',#412,9.9);
#22=CIRCLE('',#413,9.9);
#23=CIRCLE('',#415,9.9);
#24=CIRCLE('',#416,9.9);
#25=CIRCLE('',#417,9.9);
#26=CIRCLE('',#419,10.05);
#27=CIRCLE('',#420,10.05);
#28=CIRCLE('',#424,1.5);
#29=CIRCLE('',#435,15.);
#30=CIRCLE('',#436,10.05);
#31=CIRCLE('',#438,10.05);
#32=CIRCLE('',#440,15.);
#33=CYLINDRICAL_SURFACE('',#410,9.9);
#34=CYLINDRICAL_SURFACE('',#414,9.9);
#35=CYLINDRICAL_SURFACE('',#425,1.5);
#36=CYLINDRICAL_SURFACE('',#437,10.05);
#37=CYLINDRICAL_SURFACE('',#439,15.);
#38=FACE_OUTER_BOUND('',#58,.T.);
#39=FACE_OUTER_BOUND('',#59,.T.);
#40=FACE_OUTER_BOUND('',#60,.T.);
#41=FACE_OUTER_BOUND('',#61,.T.);
#42=FACE_OUTER_BOUND('',#62,.T.);
#43=FACE_OUTER_BOUND('',#63,.T.);
#44=FACE_OUTER_BOUND('',#64,.T.);
#45=FACE_OUTER_BOUND('',#66,.T.);
#46=FACE_OUTER_BOUND('',#67,.T.);
#47=FACE_OUTER_BOUND('',#68,.T.);
#48=FACE_OUTER_BOUND('',#69,.T.);
#49=FACE_OUTER_BOUND('',#70,.T.);
#50=FACE_OUTER_BOUND('',#71,.T.);
#51=FACE_OUTER_BOUND('',#72,.T.);
#52=FACE_OUTER_BOUND('',#73,.T.);
#53=FACE_OUTER_BOUND('',#74,.T.);
#54=FACE_OUTER_BOUND('',#75,.T.);
#55=FACE_OUTER_BOUND('',#77,.T.);
#56=FACE_OUTER_BOUND('',#78,.T.);
#57=FACE_OUTER_BOUND('',#80,.T.);
#58=EDGE_LOOP('',(#252,#253,#254,#255));
#59=EDGE_LOOP('',(#256,#257,#258,#259,#260,#261));
#60=EDGE_LOOP('',(#262,#263,#264,#265,#266,#267));
#61=EDGE_LOOP('',(#268,#269,#270,#271,#272,#273));
#62=EDGE_LOOP('',(#274,#275,#276,#277,#278,#279,#280,#281));
#63=EDGE_LOOP('',(#282,#283,#284,#285));
#64=EDGE_LOOP('',(#286,#287,#288,#289,#290,#291,#292,#293));
#65=EDGE_LOOP('',(#294));
#66=EDGE_LOOP('',(#295,#296,#297,#298));
#67=EDGE_LOOP('',(#299,#300,#301,#302));
#68=EDGE_LOOP('',(#303,#304,#305,#306));
#69=EDGE_LOOP('',(#307,#308,#309,#310));
#70=EDGE_LOOP('',(#311,#312,#313,#314));
#71=EDGE_LOOP('',(#315,#316,#317,#318));
#72=EDGE_LOOP('',(#319,#320,#321,#322));
#73=EDGE_LOOP('',(#323,#324,#325,#326));
#74=EDGE_LOOP('',(#327,#328,#329,#330));
#75=EDGE_LOOP('',(#331));
#76=EDGE_LOOP('',(#332,#333,#334,#335,#336,#337));
#77=EDGE_LOOP('',(#338,#339,#340,#341,#342,#343,#344,#345));
#78=EDGE_LOOP('',(#346,#347,#348,#349));
#79=EDGE_LOOP('',(#350));
#80=EDGE_LOOP('',(#351));
#81=EDGE_LOOP('',(#352,#353,#354,#355,#356,#357,#358,#359));
#82=LINE('',#554,#122);
#83=LINE('',#556,#123);
#84=LINE('',#558,#124);
#85=LINE('',#559,#125);
#86=LINE('',#566,#126);
#87=LINE('',#569,#127);
#88=LINE('',#574,#128);
#89=LINE('',#578,#129);
#90=LINE('',#584,#130);
#91=LINE('',#588,#131);
#92=LINE('',#590,#132);
#93=LINE('',#592,#133);
#94=LINE('',#594,#134);
#95=LINE('',#595,#135);
#96=LINE('',#598,#136);
#97=LINE('',#599,#137);
#98=LINE('',#602,#138);
#99=LINE('',#604,#139);
#100=LINE('',#606,#140);
#101=LINE('',#608,#141);
#102=LINE('',#610,#142);
#103=LINE('',#612,#143);
#104=LINE('',#613,#144);
#105=LINE('',#618,#145);
#106=LINE('',#655,#146);
#107=LINE('',#657,#147);
#108=LINE('',#658,#148);
#109=LINE('',#661,#149);
#110=LINE('',#662,#150);
#111=LINE('',#665,#151);
#112=LINE('',#667,#152);
#113=LINE('',#668,#153);
#114=LINE('',#671,#154);
#115=LINE('',#672,#155);
#116=LINE('',#674,#156);
#117=LINE('',#675,#157);
#118=LINE('',#678,#158);
#119=LINE('',#679,#159);
#120=LINE('',#681,#160);
#121=LINE('',#691,#161);
#122=VECTOR('',#446,10.);
#123=VECTOR('',#447,10.);
#124=VECTOR('',#448,10.);
#125=VECTOR('',#449,10.);
#126=VECTOR('',#456,10.);
#127=VECTOR('',#459,10.);
#128=VECTOR('',#464,10.);
#129=VECTOR('',#467,10.);
#130=VECTOR('',#474,10.);
#131=VECTOR('',#479,10.);
#132=VECTOR('',#480,10.);
#133=VECTOR('',#481,10.);
#134=VECTOR('',#482,10.);
#135=VECTOR('',#483,10.);
#136=VECTOR('',#486,10.);
#137=VECTOR('',#487,10.);
#138=VECTOR('',#490,10.);
#139=VECTOR('',#491,10.);
#140=VECTOR('',#492,10.);
#141=VECTOR('',#493,10.);
#142=VECTOR('',#494,10.);
#143=VECTOR('',#495,10.);
#144=VECTOR('',#496,10.);
#145=VECTOR('',#501,1.5);
#146=VECTOR('',#504,10.);
#147=VECTOR('',#505,10.);
#148=VECTOR('',#506,10.);
#149=VECTOR('',#509,10.);
#150=VECTOR('',#510,10.);
#151=VECTOR('',#513,10.);
#152=VECTOR('',#514,10.);
#153=VECTOR('',#515,10.);
#154=VECTOR('',#518,10.);
#155=VECTOR('',#519,10.);
#156=VECTOR('',#522,10.);
#157=VECTOR('',#523,10.);
#158=VECTOR('',#526,10.);
#159=VECTOR('',#527,10.);
#160=VECTOR('',#530,10.);
#161=VECTOR('',#545,15.);
#162=VERTEX_POINT('',#552);
#163=VERTEX_POINT('',#553);
#164=VERTEX_POINT('',#555);
#165=VERTEX_POINT('',#557);
#166=VERTEX_POINT('',#561);
#167=VERTEX_POINT('',#563);
#168=VERTEX_POINT('',#565);
#169=VERTEX_POINT('',#567);
#170=VERTEX_POINT('',#571);
#171=VERTEX_POINT('',#573);
#172=VERTEX_POINT('',#575);
#173=VERTEX_POINT('',#577);
#174=VERTEX_POINT('',#581);
#175=VERTEX_POINT('',#583);
#176=VERTEX_POINT('',#587);
#177=VERTEX_POINT('',#589);
#178=VERTEX_POINT('',#591);
#179=VERTEX_POINT('',#593);
#180=VERTEX_POINT('',#597);
#181=VERTEX_POINT('',#601);
#182=VERTEX_POINT('',#603);
#183=VERTEX_POINT('',#605);
#184=VERTEX_POINT('',#607);
#185=VERTEX_POINT('',#609);
#186=VERTEX_POINT('',#611);
#187=VERTEX_POINT('',#614);
#188=VERTEX_POINT('',#617);
#189=VERTEX_POINT('',#654);
#190=VERTEX_POINT('',#656);
#191=VERTEX_POINT('',#660);
#192=VERTEX_POINT('',#664);
#193=VERTEX_POINT('',#666);
#194=VERTEX_POINT('',#670);
#195=VERTEX_POINT('',#677);
#196=VERTEX_POINT('',#684);
#197=VERTEX_POINT('',#690);
#198=EDGE_CURVE('',#162,#163,#82,.T.);
#199=EDGE_CURVE('',#162,#164,#83,.T.);
#200=EDGE_CURVE('',#164,#165,#84,.T.);
#201=EDGE_CURVE('',#165,#163,#85,.T.);
#202=EDGE_CURVE('',#163,#166,#20,.T.);
#203=EDGE_CURVE('',#165,#167,#21,.T.);
#204=EDGE_CURVE('',#168,#167,#86,.T.);
#205=EDGE_CURVE('',#169,#168,#22,.T.);
#206=EDGE_CURVE('',#166,#169,#87,.T.);
#207=EDGE_CURVE('',#170,#162,#23,.T.);
#208=EDGE_CURVE('',#171,#170,#88,.T.);
#209=EDGE_CURVE('',#172,#171,#24,.T.);
#210=EDGE_CURVE('',#173,#172,#89,.T.);
#211=EDGE_CURVE('',#173,#164,#25,.T.);
#212=EDGE_CURVE('',#174,#173,#26,.T.);
#213=EDGE_CURVE('',#175,#174,#90,.T.);
#214=EDGE_CURVE('',#167,#175,#27,.T.);
#215=EDGE_CURVE('',#176,#166,#91,.T.);
#216=EDGE_CURVE('',#177,#176,#92,.T.);
#217=EDGE_CURVE('',#178,#177,#93,.T.);
#218=EDGE_CURVE('',#178,#179,#94,.T.);
#219=EDGE_CURVE('',#170,#179,#95,.T.);
#220=EDGE_CURVE('',#180,#169,#96,.T.);
#221=EDGE_CURVE('',#180,#176,#97,.T.);
#222=EDGE_CURVE('',#181,#174,#98,.T.);
#223=EDGE_CURVE('',#182,#181,#99,.T.);
#224=EDGE_CURVE('',#182,#183,#100,.T.);
#225=EDGE_CURVE('',#183,#184,#101,.T.);
#226=EDGE_CURVE('',#184,#185,#102,.T.);
#227=EDGE_CURVE('',#186,#185,#103,.T.);
#228=EDGE_CURVE('',#175,#186,#104,.T.);
#229=EDGE_CURVE('',#187,#187,#28,.T.);
#230=EDGE_CURVE('',#187,#188,#105,.T.);
#231=EDGE_CURVE('',#188,#188,#15,.T.);
#232=EDGE_CURVE('',#185,#189,#106,.T.);
#233=EDGE_CURVE('',#190,#184,#107,.T.);
#234=EDGE_CURVE('',#189,#190,#108,.T.);
#235=EDGE_CURVE('',#191,#180,#109,.T.);
#236=EDGE_CURVE('',#177,#191,#110,.T.);
#237=EDGE_CURVE('',#189,#192,#111,.T.);
#238=EDGE_CURVE('',#190,#193,#112,.T.);
#239=EDGE_CURVE('',#193,#192,#113,.T.);
#240=EDGE_CURVE('',#194,#191,#114,.T.);
#241=EDGE_CURVE('',#194,#178,#115,.T.);
#242=EDGE_CURVE('',#192,#182,#116,.T.);
#243=EDGE_CURVE('',#193,#183,#117,.T.);
#244=EDGE_CURVE('',#195,#194,#118,.T.);
#245=EDGE_CURVE('',#179,#195,#119,.T.);
#246=EDGE_CURVE('',#171,#195,#120,.T.);
#247=EDGE_CURVE('',#196,#196,#29,.T.);
#248=EDGE_CURVE('',#181,#186,#30,.T.);
#249=EDGE_CURVE('',#168,#172,#31,.T.);
#250=EDGE_CURVE('',#196,#197,#121,.T.);
#251=EDGE_CURVE('',#197,#197,#32,.T.);
#252=ORIENTED_EDGE('',*,*,#198,.F.);
#253=ORIENTED_EDGE('',*,*,#199,.T.);
#254=ORIENTED_EDGE('',*,*,#200,.T.);
#255=ORIENTED_EDGE('',*,*,#201,.T.);
#256=ORIENTED_EDGE('',*,*,#202,.F.);
#257=ORIENTED_EDGE('',*,*,#201,.F.);
#258=ORIENTED_EDGE('',*,*,#203,.T.);
#259=ORIENTED_EDGE('',*,*,#204,.F.);
#260=ORIENTED_EDGE('',*,*,#205,.F.);
#261=ORIENTED_EDGE('',*,*,#206,.F.);
#262=ORIENTED_EDGE('',*,*,#207,.F.);
#263=ORIENTED_EDGE('',*,*,#208,.F.);
#264=ORIENTED_EDGE('',*,*,#209,.F.);
#265=ORIENTED_EDGE('',*,*,#210,.F.);
#266=ORIENTED_EDGE('',*,*,#211,.T.);
#267=ORIENTED_EDGE('',*,*,#199,.F.);
#268=ORIENTED_EDGE('',*,*,#212,.F.);
#269=ORIENTED_EDGE('',*,*,#213,.F.);
#270=ORIENTED_EDGE('',*,*,#214,.F.);
#271=ORIENTED_EDGE('',*,*,#203,.F.);
#272=ORIENTED_EDGE('',*,*,#200,.F.);
#273=ORIENTED_EDGE('',*,*,#211,.F.);
#274=ORIENTED_EDGE('',*,*,#207,.T.);
#275=ORIENTED_EDGE('',*,*,#198,.T.);
#276=ORIENTED_EDGE('',*,*,#202,.T.);
#277=ORIENTED_EDGE('',*,*,#215,.F.);
#278=ORIENTED_EDGE('',*,*,#216,.F.);
#279=ORIENTED_EDGE('',*,*,#217,.F.);
#280=ORIENTED_EDGE('',*,*,#218,.T.);
#281=ORIENTED_EDGE('',*,*,#219,.F.);
#282=ORIENTED_EDGE('',*,*,#206,.T.);
#283=ORIENTED_EDGE('',*,*,#220,.F.);
#284=ORIENTED_EDGE('',*,*,#221,.T.);
#285=ORIENTED_EDGE('',*,*,#215,.T.);
#286=ORIENTED_EDGE('',*,*,#213,.T.);
#287=ORIENTED_EDGE('',*,*,#222,.F.);
#288=ORIENTED_EDGE('',*,*,#223,.F.);
#289=ORIENTED_EDGE('',*,*,#224,.T.);
#290=ORIENTED_EDGE('',*,*,#225,.T.);
#291=ORIENTED_EDGE('',*,*,#226,.T.);
#292=ORIENTED_EDGE('',*,*,#227,.F.);
#293=ORIENTED_EDGE('',*,*,#228,.F.);
#294=ORIENTED_EDGE('',*,*,#229,.T.);
#295=ORIENTED_EDGE('',*,*,#229,.F.);
#296=ORIENTED_EDGE('',*,*,#230,.T.);
#297=ORIENTED_EDGE('',*,*,#231,.F.);
#298=ORIENTED_EDGE('',*,*,#230,.F.);
#299=ORIENTED_EDGE('',*,*,#232,.F.);
#300=ORIENTED_EDGE('',*,*,#226,.F.);
#301=ORIENTED_EDGE('',*,*,#233,.F.);
#302=ORIENTED_EDGE('',*,*,#234,.F.);
#303=ORIENTED_EDGE('',*,*,#235,.F.);
#304=ORIENTED_EDGE('',*,*,#236,.F.);
#305=ORIENTED_EDGE('',*,*,#216,.T.);
#306=ORIENTED_EDGE('',*,*,#221,.F.);
#307=ORIENTED_EDGE('',*,*,#237,.F.);
#308=ORIENTED_EDGE('',*,*,#234,.T.);
#309=ORIENTED_EDGE('',*,*,#238,.T.);
#310=ORIENTED_EDGE('',*,*,#239,.T.);
#311=ORIENTED_EDGE('',*,*,#240,.F.);
#312=ORIENTED_EDGE('',*,*,#241,.T.);
#313=ORIENTED_EDGE('',*,*,#217,.T.);
#314=ORIENTED_EDGE('',*,*,#236,.T.);
#315=ORIENTED_EDGE('',*,*,#242,.F.);
#316=ORIENTED_EDGE('',*,*,#239,.F.);
#317=ORIENTED_EDGE('',*,*,#243,.T.);
#318=ORIENTED_EDGE('',*,*,#224,.F.);
#319=ORIENTED_EDGE('',*,*,#244,.F.);
#320=ORIENTED_EDGE('',*,*,#245,.F.);
#321=ORIENTED_EDGE('',*,*,#218,.F.);
#322=ORIENTED_EDGE('',*,*,#241,.F.);
#323=ORIENTED_EDGE('',*,*,#208,.T.);
#324=ORIENTED_EDGE('',*,*,#219,.T.);
#325=ORIENTED_EDGE('',*,*,#245,.T.);
#326=ORIENTED_EDGE('',*,*,#246,.F.);
#327=ORIENTED_EDGE('',*,*,#233,.T.);
#328=ORIENTED_EDGE('',*,*,#225,.F.);
#329=ORIENTED_EDGE('',*,*,#243,.F.);
#330=ORIENTED_EDGE('',*,*,#238,.F.);
#331=ORIENTED_EDGE('',*,*,#247,.T.);
#332=ORIENTED_EDGE('',*,*,#227,.T.);
#333=ORIENTED_EDGE('',*,*,#232,.T.);
#334=ORIENTED_EDGE('',*,*,#237,.T.);
#335=ORIENTED_EDGE('',*,*,#242,.T.);
#336=ORIENTED_EDGE('',*,*,#223,.T.);
#337=ORIENTED_EDGE('',*,*,#248,.T.);
#338=ORIENTED_EDGE('',*,*,#210,.T.);
#339=ORIENTED_EDGE('',*,*,#249,.F.);
#340=ORIENTED_EDGE('',*,*,#204,.T.);
#341=ORIENTED_EDGE('',*,*,#214,.T.);
#342=ORIENTED_EDGE('',*,*,#228,.T.);
#343=ORIENTED_EDGE('',*,*,#248,.F.);
#344=ORIENTED_EDGE('',*,*,#222,.T.);
#345=ORIENTED_EDGE('',*,*,#212,.T.);
#346=ORIENTED_EDGE('',*,*,#247,.F.);
#347=ORIENTED_EDGE('',*,*,#250,.T.);
#348=ORIENTED_EDGE('',*,*,#251,.F.);
#349=ORIENTED_EDGE('',*,*,#250,.F.);
#350=ORIENTED_EDGE('',*,*,#231,.T.);
#351=ORIENTED_EDGE('',*,*,#251,.T.);
#352=ORIENTED_EDGE('',*,*,#209,.T.);
#353=ORIENTED_EDGE('',*,*,#246,.T.);
#354=ORIENTED_EDGE('',*,*,#244,.T.);
#355=ORIENTED_EDGE('',*,*,#240,.T.);
#356=ORIENTED_EDGE('',*,*,#235,.T.);
#357=ORIENTED_EDGE('',*,*,#220,.T.);
#358=ORIENTED_EDGE('',*,*,#205,.T.);
#359=ORIENTED_EDGE('',*,*,#249,.T.);
#360=PLANE('',#409);
#361=PLANE('',#418);
#362=PLANE('',#421);
#363=PLANE('',#422);
#364=PLANE('',#423);
#365=PLANE('',#426);
#366=PLANE('',#427);
#367=PLANE('',#428);
#368=PLANE('',#429);
#369=PLANE('',#430);
#370=PLANE('',#431);
#371=PLANE('',#432);
#372=PLANE('',#433);
#373=PLANE('',#434);
#374=PLANE('',#441);
#375=ADVANCED_FACE('',(#38),#360,.F.);
#376=ADVANCED_FACE('',(#39),#33,.F.);
#377=ADVANCED_FACE('',(#40),#34,.F.);
#378=ADVANCED_FACE('',(#41),#361,.F.);
#379=ADVANCED_FACE('',(#42),#362,.F.);
#380=ADVANCED_FACE('',(#43),#363,.F.);
#381=ADVANCED_FACE('',(#44,#16),#364,.F.);
#382=ADVANCED_FACE('',(#45),#35,.F.);
#383=ADVANCED_FACE('',(#46),#365,.F.);
#384=ADVANCED_FACE('',(#47),#366,.F.);
#385=ADVANCED_FACE('',(#48),#367,.T.);
#386=ADVANCED_FACE('',(#49),#368,.T.);
#387=ADVANCED_FACE('',(#50),#369,.F.);
#388=ADVANCED_FACE('',(#51),#370,.F.);
#389=ADVANCED_FACE('',(#52),#371,.F.);
#390=ADVANCED_FACE('',(#53),#372,.F.);
#391=ADVANCED_FACE('',(#54,#17),#373,.T.);
#392=ADVANCED_FACE('',(#55),#36,.F.);
#393=ADVANCED_FACE('',(#56,#18),#37,.T.);
#394=ADVANCED_FACE('',(#57,#19),#374,.T.);
#395=CLOSED_SHELL('',(#375,#376,#377,#378,#379,#380,#381,#382,#383,#384,
#385,#386,#387,#388,#389,#390,#391,#392,#393,#394));
#396=DERIVED_UNIT_ELEMENT(#398,1.);
#397=DERIVED_UNIT_ELEMENT(#699,-3.);
#398=(
MASS_UNIT()
NAMED_UNIT(*)
SI_UNIT(.KILO.,.GRAM.)
);
#399=DERIVED_UNIT((#396,#397));
#400=MEASURE_REPRESENTATION_ITEM('density measure',
POSITIVE_RATIO_MEASURE(7850.),#399);
#401=PROPERTY_DEFINITION_REPRESENTATION(#406,#403);
#402=PROPERTY_DEFINITION_REPRESENTATION(#407,#404);
#403=REPRESENTATION('material name',(#405),#696);
#404=REPRESENTATION('density',(#400),#696);
#405=DESCRIPTIVE_REPRESENTATION_ITEM('Steel','Steel');
#406=PROPERTY_DEFINITION('material property','material name',#706);
#407=PROPERTY_DEFINITION('material property','density of part',#706);
#408=AXIS2_PLACEMENT_3D('',#550,#442,#443);
#409=AXIS2_PLACEMENT_3D('',#551,#444,#445);
#410=AXIS2_PLACEMENT_3D('',#560,#450,#451);
#411=AXIS2_PLACEMENT_3D('',#562,#452,#453);
#412=AXIS2_PLACEMENT_3D('',#564,#454,#455);
#413=AXIS2_PLACEMENT_3D('',#568,#457,#458);
#414=AXIS2_PLACEMENT_3D('',#570,#460,#461);
#415=AXIS2_PLACEMENT_3D('',#572,#462,#463);
#416=AXIS2_PLACEMENT_3D('',#576,#465,#466);
#417=AXIS2_PLACEMENT_3D('',#579,#468,#469);
#418=AXIS2_PLACEMENT_3D('',#580,#470,#471);
#419=AXIS2_PLACEMENT_3D('',#582,#472,#473);
#420=AXIS2_PLACEMENT_3D('',#585,#475,#476);
#421=AXIS2_PLACEMENT_3D('',#586,#477,#478);
#422=AXIS2_PLACEMENT_3D('',#596,#484,#485);
#423=AXIS2_PLACEMENT_3D('',#600,#488,#489);
#424=AXIS2_PLACEMENT_3D('',#615,#497,#498);
#425=AXIS2_PLACEMENT_3D('',#616,#499,#500);
#426=AXIS2_PLACEMENT_3D('',#653,#502,#503);
#427=AXIS2_PLACEMENT_3D('',#659,#507,#508);
#428=AXIS2_PLACEMENT_3D('',#663,#511,#512);
#429=AXIS2_PLACEMENT_3D('',#669,#516,#517);
#430=AXIS2_PLACEMENT_3D('',#673,#520,#521);
#431=AXIS2_PLACEMENT_3D('',#676,#524,#525);
#432=AXIS2_PLACEMENT_3D('',#680,#528,#529);
#433=AXIS2_PLACEMENT_3D('',#682,#531,#532);
#434=AXIS2_PLACEMENT_3D('',#683,#533,#534);
#435=AXIS2_PLACEMENT_3D('',#685,#535,#536);
#436=AXIS2_PLACEMENT_3D('',#686,#537,#538);
#437=AXIS2_PLACEMENT_3D('',#687,#539,#540);
#438=AXIS2_PLACEMENT_3D('',#688,#541,#542);
#439=AXIS2_PLACEMENT_3D('',#689,#543,#544);
#440=AXIS2_PLACEMENT_3D('',#692,#546,#547);
#441=AXIS2_PLACEMENT_3D('',#693,#548,#549);
#442=DIRECTION('axis',(0.,0.,1.));
#443=DIRECTION('refdir',(1.,0.,0.));
#444=DIRECTION('center_axis',(0.,0.,1.));
#445=DIRECTION('ref_axis',(1.,0.,0.));
#446=DIRECTION('',(-1.,0.,0.));
#447=DIRECTION('',(0.,-1.,0.));
#448=DIRECTION('',(-1.,0.,0.));
#449=DIRECTION('',(0.,1.,0.));
#450=DIRECTION('center_axis',(0.,1.,0.));
#451=DIRECTION('ref_axis',(1.,0.,0.));
#452=DIRECTION('center_axis',(0.,-1.,0.));
#453=DIRECTION('ref_axis',(1.,0.,0.));
#454=DIRECTION('center_axis',(0.,-1.,0.));
#455=DIRECTION('ref_axis',(1.,0.,0.));
#456=DIRECTION('',(0.,-1.,0.));
#457=DIRECTION('center_axis',(0.,-1.,0.));
#458=DIRECTION('ref_axis',(1.,0.,0.));
#459=DIRECTION('',(0.,-1.,0.));
#460=DIRECTION('center_axis',(0.,1.,0.));
#461=DIRECTION('ref_axis',(1.,0.,0.));
#462=DIRECTION('center_axis',(0.,-1.,0.));
#463=DIRECTION('ref_axis',(1.,0.,0.));
#464=DIRECTION('',(0.,1.,0.));
#465=DIRECTION('center_axis',(0.,-1.,0.));
#466=DIRECTION('ref_axis',(1.,0.,0.));
#467=DIRECTION('',(0.,1.,0.));
#468=DIRECTION('center_axis',(0.,-1.,0.));
#469=DIRECTION('ref_axis',(1.,0.,0.));
#470=DIRECTION('center_axis',(0.,-1.,0.));
#471=DIRECTION('ref_axis',(-1.,0.,0.));
#472=DIRECTION('center_axis',(0.,1.,0.));
#473=DIRECTION('ref_axis',(1.,0.,0.));
#474=DIRECTION('',(1.,0.,0.));
#475=DIRECTION('center_axis',(0.,1.,0.));
#476=DIRECTION('ref_axis',(1.,0.,0.));
#477=DIRECTION('center_axis',(0.,-1.,0.));
#478=DIRECTION('ref_axis',(0.,0.,-1.));
#479=DIRECTION('',(1.,0.,0.));
#480=DIRECTION('',(0.,0.,-1.));
#481=DIRECTION('',(-1.,0.,0.));
#482=DIRECTION('',(0.,0.,-1.));
#483=DIRECTION('',(1.,0.,0.));
#484=DIRECTION('center_axis',(0.,0.,1.));
#485=DIRECTION('ref_axis',(1.,0.,0.));
#486=DIRECTION('',(1.,0.,0.));
#487=DIRECTION('',(0.,1.,0.));
#488=DIRECTION('center_axis',(0.,0.,1.));
#489=DIRECTION('ref_axis',(1.,0.,0.));
#490=DIRECTION('',(0.,1.,0.));
#491=DIRECTION('',(-1.,0.,0.));
#492=DIRECTION('',(0.,-1.,0.));
#493=DIRECTION('',(-1.,0.,0.));
#494=DIRECTION('',(0.,1.,0.));
#495=DIRECTION('',(-1.,0.,0.));
#496=DIRECTION('',(0.,-1.,0.));
#497=DIRECTION('center_axis',(0.,0.,1.));
#498=DIRECTION('ref_axis',(1.,0.,0.));
#499=DIRECTION('center_axis',(0.,0.,1.));
#500=DIRECTION('ref_axis',(1.,0.,0.));
#501=DIRECTION('',(0.,0.,1.));
#502=DIRECTION('center_axis',(1.,0.,0.));
#503=DIRECTION('ref_axis',(0.,0.,-1.));
#504=DIRECTION('',(0.,0.,1.));
#505=DIRECTION('',(0.,0.,-1.));
#506=DIRECTION('',(0.,-1.,0.));
#507=DIRECTION('center_axis',(1.,0.,0.));
#508=DIRECTION('ref_axis',(0.,0.,-1.));
#509=DIRECTION('',(0.,0.,-1.));
#510=DIRECTION('',(0.,-1.,0.));
#511=DIRECTION('center_axis',(0.,0.,1.));
#512=DIRECTION('ref_axis',(1.,0.,0.));
#513=DIRECTION('',(1.,0.,0.));
#514=DIRECTION('',(1.,0.,0.));
#515=DIRECTION('',(0.,1.,0.));
#516=DIRECTION('center_axis',(0.,0.,1.));
#517=DIRECTION('ref_axis',(1.,0.,0.));
#518=DIRECTION('',(-1.,0.,0.));
#519=DIRECTION('',(0.,1.,0.));
#520=DIRECTION('center_axis',(-1.,0.,0.));
#521=DIRECTION('ref_axis',(0.,0.,1.));
#522=DIRECTION('',(0.,0.,-1.));
#523=DIRECTION('',(0.,0.,-1.));
#524=DIRECTION('center_axis',(-1.,0.,0.));
#525=DIRECTION('ref_axis',(0.,0.,1.));
#526=DIRECTION('',(0.,0.,1.));
#527=DIRECTION('',(0.,-1.,0.));
#528=DIRECTION('center_axis',(0.,0.,1.));
#529=DIRECTION('ref_axis',(1.,0.,0.));
#530=DIRECTION('',(1.,0.,0.));
#531=DIRECTION('center_axis',(0.,1.,0.));
#532=DIRECTION('ref_axis',(0.,0.,1.));
#533=DIRECTION('center_axis',(0.,-1.,0.));
#534=DIRECTION('ref_axis',(1.,0.,0.));
#535=DIRECTION('center_axis',(0.,-1.,0.));
#536=DIRECTION('ref_axis',(1.,0.,0.));
#537=DIRECTION('center_axis',(0.,1.,0.));
#538=DIRECTION('ref_axis',(1.,0.,0.));
#539=DIRECTION('center_axis',(0.,-1.,0.));
#540=DIRECTION('ref_axis',(6.12323399573677E-17,0.,-1.));
#541=DIRECTION('center_axis',(0.,-1.,0.));
#542=DIRECTION('ref_axis',(1.,0.,0.));
#543=DIRECTION('center_axis',(0.,-1.,0.));
#544=DIRECTION('ref_axis',(1.,0.,0.));
#545=DIRECTION('',(0.,1.,0.));
#546=DIRECTION('center_axis',(0.,1.,0.));
#547=DIRECTION('ref_axis',(1.,0.,0.));
#548=DIRECTION('center_axis',(0.,1.,0.));
#549=DIRECTION('ref_axis',(-1.,0.,0.));
#550=CARTESIAN_POINT('',(0.,0.,0.));
#551=CARTESIAN_POINT('Origin',(555.,-42.5,248.4));
#552=CARTESIAN_POINT('',(560.239274758972,-72.25,248.4));
#553=CARTESIAN_POINT('',(549.760725241028,-72.25,248.4));
#554=CARTESIAN_POINT('',(555.,-72.25,248.4));
#555=CARTESIAN_POINT('',(560.239274758972,-73.,248.4));
#556=CARTESIAN_POINT('',(560.239274758972,-42.5,248.4));
#557=CARTESIAN_POINT('',(549.760725241028,-73.,248.4));
#558=CARTESIAN_POINT('',(555.,-73.,248.4));
#559=CARTESIAN_POINT('',(549.760725241028,-42.5,248.4));
#560=CARTESIAN_POINT('Origin',(555.,-42.5,240.));
#561=CARTESIAN_POINT('',(548.90327957013,-72.25,247.8));
#562=CARTESIAN_POINT('Origin',(555.,-72.25,240.));
#563=CARTESIAN_POINT('',(545.2334448243,-73.,241.62));
#564=CARTESIAN_POINT('Origin',(555.,-73.,240.));
#565=CARTESIAN_POINT('',(545.2334448243,-72.75,241.62));
#566=CARTESIAN_POINT('',(545.2334448243,-42.5,241.62));
#567=CARTESIAN_POINT('',(548.90327957013,-72.75,247.8));
#568=CARTESIAN_POINT('Origin',(555.,-72.75,240.));
#569=CARTESIAN_POINT('',(548.90327957013,-42.5,247.8));
#570=CARTESIAN_POINT('Origin',(555.,-42.5,240.));
#571=CARTESIAN_POINT('',(561.09672042987,-72.25,247.8));
#572=CARTESIAN_POINT('Origin',(555.,-72.25,240.));
#573=CARTESIAN_POINT('',(561.09672042987,-72.75,247.8));
#574=CARTESIAN_POINT('',(561.09672042987,-42.5,247.8));
#575=CARTESIAN_POINT('',(564.7665551757,-72.75,241.62));
#576=CARTESIAN_POINT('Origin',(555.,-72.75,240.));
#577=CARTESIAN_POINT('',(564.7665551757,-73.,241.62));
#578=CARTESIAN_POINT('',(564.7665551757,-42.5,241.62));
#579=CARTESIAN_POINT('Origin',(555.,-73.,240.));
#580=CARTESIAN_POINT('Origin',(555.,-73.,240.));
#581=CARTESIAN_POINT('',(560.282045058498,-73.,247.8));
#582=CARTESIAN_POINT('Origin',(555.,-73.,239.25));
#583=CARTESIAN_POINT('',(549.717954941502,-73.,247.8));
#584=CARTESIAN_POINT('',(555.,-73.,247.8));
#585=CARTESIAN_POINT('Origin',(555.,-73.,239.25));
#586=CARTESIAN_POINT('Origin',(555.,-72.25,248.725));
#587=CARTESIAN_POINT('',(544.6,-72.25,247.8));
#588=CARTESIAN_POINT('',(555.,-72.25,247.8));
#589=CARTESIAN_POINT('',(544.6,-72.25,249.65));
#590=CARTESIAN_POINT('',(544.6,-72.25,248.725));
#591=CARTESIAN_POINT('',(565.4,-72.25,249.65));
#592=CARTESIAN_POINT('',(555.,-72.25,249.65));
#593=CARTESIAN_POINT('',(565.4,-72.25,247.8));
#594=CARTESIAN_POINT('',(565.4,-72.25,248.725));
#595=CARTESIAN_POINT('',(555.,-72.25,247.8));
#596=CARTESIAN_POINT('Origin',(555.,-76.5,247.8));
#597=CARTESIAN_POINT('',(544.6,-72.75,247.8));
#598=CARTESIAN_POINT('',(555.,-72.75,247.8));
#599=CARTESIAN_POINT('',(544.6,-76.5,247.8));
#600=CARTESIAN_POINT('Origin',(555.,-76.5,247.8));
#601=CARTESIAN_POINT('',(560.282045058498,-80.25,247.8));
#602=CARTESIAN_POINT('',(560.282045058498,-76.5,247.8));
#603=CARTESIAN_POINT('',(565.4,-80.25,247.8));
#604=CARTESIAN_POINT('',(555.,-80.25,247.8));
#605=CARTESIAN_POINT('',(565.4,-80.75,247.8));
#606=CARTESIAN_POINT('',(565.4,-76.5,247.8));
#607=CARTESIAN_POINT('',(544.6,-80.75,247.8));
#608=CARTESIAN_POINT('',(555.,-80.75,247.8));
#609=CARTESIAN_POINT('',(544.6,-80.25,247.8));
#610=CARTESIAN_POINT('',(544.6,-76.5,247.8));
#611=CARTESIAN_POINT('',(549.717954941502,-80.25,247.8));
#612=CARTESIAN_POINT('',(555.,-80.25,247.8));
#613=CARTESIAN_POINT('',(549.717954941502,-76.5,247.8));
#614=CARTESIAN_POINT('',(553.5,-76.5,247.8));
#615=CARTESIAN_POINT('Origin',(555.,-76.5,247.8));
#616=CARTESIAN_POINT('Origin',(555.,-76.5,251.525));
#617=CARTESIAN_POINT('',(553.5,-76.5,254.174811556599));
#618=CARTESIAN_POINT('',(553.5,-76.5,251.525));
#619=CARTESIAN_POINT('Ctrl Pts',(553.5,-76.5,254.174811556599));
#620=CARTESIAN_POINT('Ctrl Pts',(553.5,-76.3115210889848,254.174811556599));
#621=CARTESIAN_POINT('Ctrl Pts',(553.537693366239,-76.1105657126426,254.178749819613));
#622=CARTESIAN_POINT('Ctrl Pts',(553.690812919165,-75.7410342743152,254.192956234611));
#623=CARTESIAN_POINT('Ctrl Pts',(553.806232227828,-75.5724474286124,254.203017259829));
#624=CARTESIAN_POINT('Ctrl Pts',(554.072446975546,-75.3062326808939,254.221888722944));
#625=CARTESIAN_POINT('Ctrl Pts',(554.24103401989,-75.1908130187038,254.231927754258));
#626=CARTESIAN_POINT('Ctrl Pts',(554.610566123535,-75.0376932018663,254.246083817049));
#627=CARTESIAN_POINT('Ctrl Pts',(554.811521730521,-75.,254.25));
#628=CARTESIAN_POINT('Ctrl Pts',(555.188478269479,-75.,254.25));
#629=CARTESIAN_POINT('Ctrl Pts',(555.389433876465,-75.0376932018663,254.246083817049));
#630=CARTESIAN_POINT('Ctrl Pts',(555.75896598011,-75.1908130187038,254.231927754258));
#631=CARTESIAN_POINT('Ctrl Pts',(555.927553024454,-75.3062326808939,254.221888722944));
#632=CARTESIAN_POINT('Ctrl Pts',(556.193767772172,-75.5724474286124,254.203017259829));
#633=CARTESIAN_POINT('Ctrl Pts',(556.309187080835,-75.7410342743152,254.192956234611));
#634=CARTESIAN_POINT('Ctrl Pts',(556.462306633761,-76.1105657126426,254.178749819613));
#635=CARTESIAN_POINT('Ctrl Pts',(556.5,-76.3115210889848,254.174811556599));
#636=CARTESIAN_POINT('Ctrl Pts',(556.5,-76.6884789110152,254.174811556599));
#637=CARTESIAN_POINT('Ctrl Pts',(556.462306633761,-76.8894342873573,254.178749819613));
#638=CARTESIAN_POINT('Ctrl Pts',(556.309187080835,-77.2589657256848,254.192956234611));
#639=CARTESIAN_POINT('Ctrl Pts',(556.193767772172,-77.4275525713875,254.203017259829));
#640=CARTESIAN_POINT('Ctrl Pts',(555.927553024454,-77.6937673191061,254.221888722944));
#641=CARTESIAN_POINT('Ctrl Pts',(555.75896598011,-77.8091869812962,254.231927754258));
#642=CARTESIAN_POINT('Ctrl Pts',(555.389433876465,-77.9623067981337,254.246083817049));
#643=CARTESIAN_POINT('Ctrl Pts',(555.188478269479,-78.,254.25));
#644=CARTESIAN_POINT('Ctrl Pts',(554.811521730521,-78.,254.25));
#645=CARTESIAN_POINT('Ctrl Pts',(554.610566123535,-77.9623067981337,254.246083817049));
#646=CARTESIAN_POINT('Ctrl Pts',(554.24103401989,-77.8091869812962,254.231927754258));
#647=CARTESIAN_POINT('Ctrl Pts',(554.072446975546,-77.6937673191061,254.221888722944));
#648=CARTESIAN_POINT('Ctrl Pts',(553.806232227828,-77.4275525713875,254.203017259829));
#649=CARTESIAN_POINT('Ctrl Pts',(553.690812919165,-77.2589657256848,254.192956234611));
#650=CARTESIAN_POINT('Ctrl Pts',(553.537693366239,-76.8894342873573,254.178749819613));
#651=CARTESIAN_POINT('Ctrl Pts',(553.5,-76.6884789110152,254.174811556599));
#652=CARTESIAN_POINT('Ctrl Pts',(553.5,-76.5,254.174811556599));
#653=CARTESIAN_POINT('Origin',(544.6,-76.5,248.725));
#654=CARTESIAN_POINT('',(544.6,-80.25,249.65));
#655=CARTESIAN_POINT('',(544.6,-80.25,243.9875));
#656=CARTESIAN_POINT('',(544.6,-80.75,249.65));
#657=CARTESIAN_POINT('',(544.6,-80.75,248.725));
#658=CARTESIAN_POINT('',(544.6,-76.5,249.65));
#659=CARTESIAN_POINT('Origin',(544.6,-76.5,248.725));
#660=CARTESIAN_POINT('',(544.6,-72.75,249.65));
#661=CARTESIAN_POINT('',(544.6,-72.75,243.9875));
#662=CARTESIAN_POINT('',(544.6,-76.5,249.65));
#663=CARTESIAN_POINT('Origin',(555.,-76.5,249.65));
#664=CARTESIAN_POINT('',(565.4,-80.25,249.65));
#665=CARTESIAN_POINT('',(555.,-80.25,249.65));
#666=CARTESIAN_POINT('',(565.4,-80.75,249.65));
#667=CARTESIAN_POINT('',(555.,-80.75,249.65));
#668=CARTESIAN_POINT('',(565.4,-76.5,249.65));
#669=CARTESIAN_POINT('Origin',(555.,-76.5,249.65));
#670=CARTESIAN_POINT('',(565.4,-72.75,249.65));
#671=CARTESIAN_POINT('',(555.,-72.75,249.65));
#672=CARTESIAN_POINT('',(565.4,-76.5,249.65));
#673=CARTESIAN_POINT('Origin',(565.4,-76.5,248.725));
#674=CARTESIAN_POINT('',(565.4,-80.25,243.9875));
#675=CARTESIAN_POINT('',(565.4,-80.75,248.725));
#676=CARTESIAN_POINT('Origin',(565.4,-76.5,248.725));
#677=CARTESIAN_POINT('',(565.4,-72.75,247.8));
#678=CARTESIAN_POINT('',(565.4,-72.75,243.9875));
#679=CARTESIAN_POINT('',(565.4,-76.5,247.8));
#680=CARTESIAN_POINT('Origin',(555.,-76.5,247.8));
#681=CARTESIAN_POINT('',(555.,-72.75,247.8));
#682=CARTESIAN_POINT('Origin',(555.,-80.75,248.725));
#683=CARTESIAN_POINT('Origin',(555.,-80.25,239.25));
#684=CARTESIAN_POINT('',(540.,-80.25,239.25));
#685=CARTESIAN_POINT('Origin',(555.,-80.25,239.25));
#686=CARTESIAN_POINT('Origin',(555.,-80.25,239.25));
#687=CARTESIAN_POINT('Origin',(555.,-76.5,239.25));
#688=CARTESIAN_POINT('Origin',(555.,-72.75,239.25));
#689=CARTESIAN_POINT('Origin',(555.,-76.5,239.25));
#690=CARTESIAN_POINT('',(540.,-72.75,239.25));
#691=CARTESIAN_POINT('',(540.,-76.5,239.25));
#692=CARTESIAN_POINT('Origin',(555.,-72.75,239.25));
#693=CARTESIAN_POINT('Origin',(555.,-72.75,239.25));
#694=UNCERTAINTY_MEASURE_WITH_UNIT(LENGTH_MEASURE(0.01),#698,
'DISTANCE_ACCURACY_VALUE',
'Maximum model space distance between geometric entities at asserted c
onnectivities');
#695=UNCERTAINTY_MEASURE_WITH_UNIT(LENGTH_MEASURE(0.01),#698,
'DISTANCE_ACCURACY_VALUE',
'Maximum model space distance between geometric entities at asserted c
onnectivities');
#696=(
GEOMETRIC_REPRESENTATION_CONTEXT(3)
GLOBAL_UNCERTAINTY_ASSIGNED_CONTEXT((#694))
GLOBAL_UNIT_ASSIGNED_CONTEXT((#698,#700,#701))
REPRESENTATION_CONTEXT('','3D')
);
#697=(
GEOMETRIC_REPRESENTATION_CONTEXT(3)
GLOBAL_UNCERTAINTY_ASSIGNED_CONTEXT((#695))
GLOBAL_UNIT_ASSIGNED_CONTEXT((#698,#700,#701))
REPRESENTATION_CONTEXT('','3D')
);
#698=(
LENGTH_UNIT()
NAMED_UNIT(*)
SI_UNIT(.MILLI.,.METRE.)
);
#699=(
LENGTH_UNIT()
NAMED_UNIT(*)
SI_UNIT($,.METRE.)
);
#700=(
NAMED_UNIT(*)
PLANE_ANGLE_UNIT()
SI_UNIT($,.RADIAN.)
);
#701=(
NAMED_UNIT(*)
SI_UNIT($,.STERADIAN.)
SOLID_ANGLE_UNIT()
);
#702=SHAPE_DEFINITION_REPRESENTATION(#703,#704);
#703=PRODUCT_DEFINITION_SHAPE('',$,#706);
#704=SHAPE_REPRESENTATION('',(#408),#696);
#705=PRODUCT_DEFINITION_CONTEXT('part definition',#710,'design');
#706=PRODUCT_DEFINITION('2026-08-31-16-24-22-953','EXPORT_TMP',#707,#705);
#707=PRODUCT_DEFINITION_FORMATION('',$,#712);
#708=PRODUCT_RELATED_PRODUCT_CATEGORY('EXPORT_TMP','EXPORT_TMP',(#712));
#709=APPLICATION_PROTOCOL_DEFINITION('international standard',
'automotive_design',2009,#710);
#710=APPLICATION_CONTEXT(
'Core Data for Automotive Mechanical Design Process');
#711=PRODUCT_CONTEXT('part definition',#710,'mechanical');
#712=PRODUCT('2026-08-31-16-24-22-953','EXPORT_TMP',$,(#711));
#713=PRESENTATION_STYLE_ASSIGNMENT((#714));
#714=SURFACE_STYLE_USAGE(.BOTH.,#715);
#715=SURFACE_SIDE_STYLE('',(#716));
#716=SURFACE_STYLE_FILL_AREA(#717);
#717=FILL_AREA_STYLE('Steel - Satin',(#718));
#718=FILL_AREA_STYLE_COLOUR('Steel - Satin',#719);
#719=COLOUR_RGB('Steel - Satin',0.627450980392157,0.627450980392157,0.627450980392157);
ENDSEC;
END-ISO-10303-21;
