ISO-10303-21;
HEADER;
/* Generated by software containing ST-Developer
 * from STEP Tools, Inc. (www.steptools.com) 
 */

FILE_DESCRIPTION(
/* description */ (''),
/* implementation_level */ '2;1');

FILE_NAME(
/* name */ 'PRINT_V010P_P418_DiffInputClampCollar_B.step',
/* time_stamp */ '2026-08-12T23:05:32+02:00',
/* author */ (''),
/* organization */ (''),
/* preprocessor_version */ 'ST-DEVELOPER v20.1',
/* originating_system */ 'Autodesk Translation Framework v15.8.0.0',
/* authorisation */ '');

FILE_SCHEMA (('AUTOMOTIVE_DESIGN { 1 0 10303 214 3 1 1 }'));
ENDSEC;

DATA;
#10=MECHANICAL_DESIGN_GEOMETRIC_PRESENTATION_REPRESENTATION('',(#13),#499);
#11=SHAPE_REPRESENTATION_RELATIONSHIP('SRR','None',#506,#12);
#12=ADVANCED_BREP_SHAPE_REPRESENTATION('',(#14),#498);
#13=STYLED_ITEM('',(#515),#14);
#14=MANIFOLD_SOLID_BREP('PRINT_V010P_P418_DiffInputClampCollar_B',#282);
#15=FACE_BOUND('',#52,.T.);
#16=FACE_BOUND('',#56,.T.);
#17=FACE_BOUND('',#59,.T.);
#18=FACE_BOUND('',#61,.T.);
#19=PLANE('',#298);
#20=PLANE('',#299);
#21=PLANE('',#300);
#22=PLANE('',#301);
#23=PLANE('',#302);
#24=PLANE('',#303);
#25=PLANE('',#304);
#26=PLANE('',#305);
#27=PLANE('',#306);
#28=PLANE('',#307);
#29=PLANE('',#314);
#30=FACE_OUTER_BOUND('',#44,.T.);
#31=FACE_OUTER_BOUND('',#45,.T.);
#32=FACE_OUTER_BOUND('',#46,.T.);
#33=FACE_OUTER_BOUND('',#47,.T.);
#34=FACE_OUTER_BOUND('',#48,.T.);
#35=FACE_OUTER_BOUND('',#49,.T.);
#36=FACE_OUTER_BOUND('',#50,.T.);
#37=FACE_OUTER_BOUND('',#51,.T.);
#38=FACE_OUTER_BOUND('',#53,.T.);
#39=FACE_OUTER_BOUND('',#54,.T.);
#40=FACE_OUTER_BOUND('',#55,.T.);
#41=FACE_OUTER_BOUND('',#57,.T.);
#42=FACE_OUTER_BOUND('',#58,.T.);
#43=FACE_OUTER_BOUND('',#60,.T.);
#44=EDGE_LOOP('',(#191,#192,#193,#194,#195));
#45=EDGE_LOOP('',(#196,#197,#198,#199));
#46=EDGE_LOOP('',(#200,#201,#202,#203));
#47=EDGE_LOOP('',(#204,#205,#206,#207));
#48=EDGE_LOOP('',(#208,#209,#210,#211));
#49=EDGE_LOOP('',(#212,#213,#214,#215));
#50=EDGE_LOOP('',(#216,#217,#218,#219));
#51=EDGE_LOOP('',(#220,#221,#222,#223,#224,#225,#226,#227,#228,#229,#230,
#231));
#52=EDGE_LOOP('',(#232));
#53=EDGE_LOOP('',(#233,#234,#235,#236));
#54=EDGE_LOOP('',(#237,#238,#239,#240));
#55=EDGE_LOOP('',(#241));
#56=EDGE_LOOP('',(#242,#243,#244,#245,#246,#247));
#57=EDGE_LOOP('',(#248,#249,#250,#251));
#58=EDGE_LOOP('',(#252,#253,#254,#255));
#59=EDGE_LOOP('',(#256,#257));
#60=EDGE_LOOP('',(#258));
#61=EDGE_LOOP('',(#259,#260,#261,#262,#263,#264));
#62=B_SPLINE_CURVE_WITH_KNOTS('',3,(#392,#393,#394,#395,#396,#397,#398,
#399,#400,#401,#402,#403,#404,#405,#406,#407,#408,#409),.UNSPECIFIED.,.F.,
 .F.,(4,2,2,2,2,2,2,2,4),(0.,0.0565436733045448,0.11308734660909,0.169630827452676,
0.226174308296262,0.282717789139849,0.339261269983435,0.39580494328798,
0.452348616592525),.UNSPECIFIED.);
#63=B_SPLINE_CURVE_WITH_KNOTS('',3,(#410,#411,#412,#413,#414,#415,#416,
#417,#418,#419,#420,#421,#422,#423,#424,#425,#426,#427),.UNSPECIFIED.,.F.,
 .F.,(4,2,2,2,2,2,2,2,4),(0.452348616592525,0.50889228989707,0.565435963201614,
0.621979444045201,0.678522924888787,0.735066405732373,0.79160988657596,
0.848153559880505,0.90469723318505),.UNSPECIFIED.);
#64=LINE('',#390,#94);
#65=LINE('',#431,#95);
#66=LINE('',#433,#96);
#67=LINE('',#435,#97);
#68=LINE('',#436,#98);
#69=LINE('',#440,#99);
#70=LINE('',#442,#100);
#71=LINE('',#444,#101);
#72=LINE('',#445,#102);
#73=LINE('',#448,#103);
#74=LINE('',#450,#104);
#75=LINE('',#451,#105);
#76=LINE('',#454,#106);
#77=LINE('',#456,#107);
#78=LINE('',#457,#108);
#79=LINE('',#460,#109);
#80=LINE('',#462,#110);
#81=LINE('',#463,#111);
#82=LINE('',#466,#112);
#83=LINE('',#468,#113);
#84=LINE('',#469,#114);
#85=LINE('',#472,#115);
#86=LINE('',#473,#116);
#87=LINE('',#475,#117);
#88=LINE('',#477,#118);
#89=LINE('',#478,#119);
#90=LINE('',#479,#120);
#91=LINE('',#481,#121);
#92=LINE('',#482,#122);
#93=LINE('',#493,#123);
#94=VECTOR('',#321,1.5);
#95=VECTOR('',#324,10.);
#96=VECTOR('',#325,10.);
#97=VECTOR('',#326,10.);
#98=VECTOR('',#327,10.);
#99=VECTOR('',#330,10.);
#100=VECTOR('',#331,10.);
#101=VECTOR('',#332,10.);
#102=VECTOR('',#333,10.);
#103=VECTOR('',#336,10.);
#104=VECTOR('',#337,10.);
#105=VECTOR('',#338,10.);
#106=VECTOR('',#341,10.);
#107=VECTOR('',#342,10.);
#108=VECTOR('',#343,10.);
#109=VECTOR('',#346,10.);
#110=VECTOR('',#347,10.);
#111=VECTOR('',#348,10.);
#112=VECTOR('',#351,10.);
#113=VECTOR('',#352,10.);
#114=VECTOR('',#353,10.);
#115=VECTOR('',#356,10.);
#116=VECTOR('',#357,10.);
#117=VECTOR('',#358,10.);
#118=VECTOR('',#359,10.);
#119=VECTOR('',#360,10.);
#120=VECTOR('',#361,10.);
#121=VECTOR('',#362,10.);
#122=VECTOR('',#363,10.);
#123=VECTOR('',#380,15.);
#124=CIRCLE('',#297,1.5);
#125=CIRCLE('',#308,15.);
#126=CIRCLE('',#309,10.05);
#127=CIRCLE('',#311,10.05);
#128=CIRCLE('',#313,15.);
#129=VERTEX_POINT('',#387);
#130=VERTEX_POINT('',#389);
#131=VERTEX_POINT('',#391);
#132=VERTEX_POINT('',#429);
#133=VERTEX_POINT('',#430);
#134=VERTEX_POINT('',#432);
#135=VERTEX_POINT('',#434);
#136=VERTEX_POINT('',#438);
#137=VERTEX_POINT('',#439);
#138=VERTEX_POINT('',#441);
#139=VERTEX_POINT('',#443);
#140=VERTEX_POINT('',#447);
#141=VERTEX_POINT('',#449);
#142=VERTEX_POINT('',#453);
#143=VERTEX_POINT('',#455);
#144=VERTEX_POINT('',#459);
#145=VERTEX_POINT('',#461);
#146=VERTEX_POINT('',#465);
#147=VERTEX_POINT('',#467);
#148=VERTEX_POINT('',#471);
#149=VERTEX_POINT('',#474);
#150=VERTEX_POINT('',#476);
#151=VERTEX_POINT('',#480);
#152=VERTEX_POINT('',#486);
#153=VERTEX_POINT('',#492);
#154=EDGE_CURVE('',#129,#129,#124,.T.);
#155=EDGE_CURVE('',#129,#130,#64,.T.);
#156=EDGE_CURVE('',#131,#130,#62,.T.);
#157=EDGE_CURVE('',#130,#131,#63,.T.);
#158=EDGE_CURVE('',#132,#133,#65,.T.);
#159=EDGE_CURVE('',#134,#132,#66,.T.);
#160=EDGE_CURVE('',#135,#134,#67,.T.);
#161=EDGE_CURVE('',#133,#135,#68,.T.);
#162=EDGE_CURVE('',#136,#137,#69,.T.);
#163=EDGE_CURVE('',#138,#136,#70,.T.);
#164=EDGE_CURVE('',#138,#139,#71,.T.);
#165=EDGE_CURVE('',#137,#139,#72,.T.);
#166=EDGE_CURVE('',#133,#140,#73,.T.);
#167=EDGE_CURVE('',#135,#141,#74,.T.);
#168=EDGE_CURVE('',#141,#140,#75,.T.);
#169=EDGE_CURVE('',#142,#136,#76,.T.);
#170=EDGE_CURVE('',#142,#143,#77,.T.);
#171=EDGE_CURVE('',#143,#138,#78,.T.);
#172=EDGE_CURVE('',#140,#144,#79,.T.);
#173=EDGE_CURVE('',#141,#145,#80,.T.);
#174=EDGE_CURVE('',#144,#145,#81,.T.);
#175=EDGE_CURVE('',#146,#142,#82,.T.);
#176=EDGE_CURVE('',#147,#146,#83,.T.);
#177=EDGE_CURVE('',#143,#147,#84,.T.);
#178=EDGE_CURVE('',#137,#148,#85,.T.);
#179=EDGE_CURVE('',#139,#147,#86,.T.);
#180=EDGE_CURVE('',#149,#146,#87,.T.);
#181=EDGE_CURVE('',#150,#149,#88,.T.);
#182=EDGE_CURVE('',#144,#150,#89,.T.);
#183=EDGE_CURVE('',#145,#134,#90,.T.);
#184=EDGE_CURVE('',#151,#132,#91,.T.);
#185=EDGE_CURVE('',#148,#151,#92,.T.);
#186=EDGE_CURVE('',#152,#152,#125,.T.);
#187=EDGE_CURVE('',#150,#151,#126,.T.);
#188=EDGE_CURVE('',#148,#149,#127,.T.);
#189=EDGE_CURVE('',#152,#153,#93,.T.);
#190=EDGE_CURVE('',#153,#153,#128,.T.);
#191=ORIENTED_EDGE('',*,*,#154,.F.);
#192=ORIENTED_EDGE('',*,*,#155,.T.);
#193=ORIENTED_EDGE('',*,*,#156,.F.);
#194=ORIENTED_EDGE('',*,*,#157,.F.);
#195=ORIENTED_EDGE('',*,*,#155,.F.);
#196=ORIENTED_EDGE('',*,*,#158,.F.);
#197=ORIENTED_EDGE('',*,*,#159,.F.);
#198=ORIENTED_EDGE('',*,*,#160,.F.);
#199=ORIENTED_EDGE('',*,*,#161,.F.);
#200=ORIENTED_EDGE('',*,*,#162,.F.);
#201=ORIENTED_EDGE('',*,*,#163,.F.);
#202=ORIENTED_EDGE('',*,*,#164,.T.);
#203=ORIENTED_EDGE('',*,*,#165,.F.);
#204=ORIENTED_EDGE('',*,*,#166,.F.);
#205=ORIENTED_EDGE('',*,*,#161,.T.);
#206=ORIENTED_EDGE('',*,*,#167,.T.);
#207=ORIENTED_EDGE('',*,*,#168,.T.);
#208=ORIENTED_EDGE('',*,*,#169,.F.);
#209=ORIENTED_EDGE('',*,*,#170,.T.);
#210=ORIENTED_EDGE('',*,*,#171,.T.);
#211=ORIENTED_EDGE('',*,*,#163,.T.);
#212=ORIENTED_EDGE('',*,*,#172,.F.);
#213=ORIENTED_EDGE('',*,*,#168,.F.);
#214=ORIENTED_EDGE('',*,*,#173,.T.);
#215=ORIENTED_EDGE('',*,*,#174,.F.);
#216=ORIENTED_EDGE('',*,*,#175,.F.);
#217=ORIENTED_EDGE('',*,*,#176,.F.);
#218=ORIENTED_EDGE('',*,*,#177,.F.);
#219=ORIENTED_EDGE('',*,*,#170,.F.);
#220=ORIENTED_EDGE('',*,*,#178,.F.);
#221=ORIENTED_EDGE('',*,*,#165,.T.);
#222=ORIENTED_EDGE('',*,*,#179,.T.);
#223=ORIENTED_EDGE('',*,*,#176,.T.);
#224=ORIENTED_EDGE('',*,*,#180,.F.);
#225=ORIENTED_EDGE('',*,*,#181,.F.);
#226=ORIENTED_EDGE('',*,*,#182,.F.);
#227=ORIENTED_EDGE('',*,*,#174,.T.);
#228=ORIENTED_EDGE('',*,*,#183,.T.);
#229=ORIENTED_EDGE('',*,*,#159,.T.);
#230=ORIENTED_EDGE('',*,*,#184,.F.);
#231=ORIENTED_EDGE('',*,*,#185,.F.);
#232=ORIENTED_EDGE('',*,*,#154,.T.);
#233=ORIENTED_EDGE('',*,*,#177,.T.);
#234=ORIENTED_EDGE('',*,*,#179,.F.);
#235=ORIENTED_EDGE('',*,*,#164,.F.);
#236=ORIENTED_EDGE('',*,*,#171,.F.);
#237=ORIENTED_EDGE('',*,*,#160,.T.);
#238=ORIENTED_EDGE('',*,*,#183,.F.);
#239=ORIENTED_EDGE('',*,*,#173,.F.);
#240=ORIENTED_EDGE('',*,*,#167,.F.);
#241=ORIENTED_EDGE('',*,*,#186,.T.);
#242=ORIENTED_EDGE('',*,*,#184,.T.);
#243=ORIENTED_EDGE('',*,*,#158,.T.);
#244=ORIENTED_EDGE('',*,*,#166,.T.);
#245=ORIENTED_EDGE('',*,*,#172,.T.);
#246=ORIENTED_EDGE('',*,*,#182,.T.);
#247=ORIENTED_EDGE('',*,*,#187,.T.);
#248=ORIENTED_EDGE('',*,*,#185,.T.);
#249=ORIENTED_EDGE('',*,*,#187,.F.);
#250=ORIENTED_EDGE('',*,*,#181,.T.);
#251=ORIENTED_EDGE('',*,*,#188,.F.);
#252=ORIENTED_EDGE('',*,*,#186,.F.);
#253=ORIENTED_EDGE('',*,*,#189,.T.);
#254=ORIENTED_EDGE('',*,*,#190,.F.);
#255=ORIENTED_EDGE('',*,*,#189,.F.);
#256=ORIENTED_EDGE('',*,*,#156,.T.);
#257=ORIENTED_EDGE('',*,*,#157,.T.);
#258=ORIENTED_EDGE('',*,*,#190,.T.);
#259=ORIENTED_EDGE('',*,*,#178,.T.);
#260=ORIENTED_EDGE('',*,*,#188,.T.);
#261=ORIENTED_EDGE('',*,*,#180,.T.);
#262=ORIENTED_EDGE('',*,*,#175,.T.);
#263=ORIENTED_EDGE('',*,*,#169,.T.);
#264=ORIENTED_EDGE('',*,*,#162,.T.);
#265=CYLINDRICAL_SURFACE('',#296,1.5);
#266=CYLINDRICAL_SURFACE('',#310,10.05);
#267=CYLINDRICAL_SURFACE('',#312,15.);
#268=ADVANCED_FACE('',(#30),#265,.F.);
#269=ADVANCED_FACE('',(#31),#19,.F.);
#270=ADVANCED_FACE('',(#32),#20,.F.);
#271=ADVANCED_FACE('',(#33),#21,.T.);
#272=ADVANCED_FACE('',(#34),#22,.T.);
#273=ADVANCED_FACE('',(#35),#23,.F.);
#274=ADVANCED_FACE('',(#36),#24,.F.);
#275=ADVANCED_FACE('',(#37,#15),#25,.F.);
#276=ADVANCED_FACE('',(#38),#26,.F.);
#277=ADVANCED_FACE('',(#39),#27,.F.);
#278=ADVANCED_FACE('',(#40,#16),#28,.T.);
#279=ADVANCED_FACE('',(#41),#266,.F.);
#280=ADVANCED_FACE('',(#42,#17),#267,.T.);
#281=ADVANCED_FACE('',(#43,#18),#29,.T.);
#282=CLOSED_SHELL('',(#268,#269,#270,#271,#272,#273,#274,#275,#276,#277,
#278,#279,#280,#281));
#283=DERIVED_UNIT_ELEMENT(#285,1.);
#284=DERIVED_UNIT_ELEMENT(#501,-3.);
#285=(
MASS_UNIT()
NAMED_UNIT(*)
SI_UNIT(.KILO.,.GRAM.)
);
#286=DERIVED_UNIT((#283,#284));
#287=MEASURE_REPRESENTATION_ITEM('density measure',
POSITIVE_RATIO_MEASURE(7850.),#286);
#288=PROPERTY_DEFINITION_REPRESENTATION(#293,#290);
#289=PROPERTY_DEFINITION_REPRESENTATION(#294,#291);
#290=REPRESENTATION('material name',(#292),#498);
#291=REPRESENTATION('density',(#287),#498);
#292=DESCRIPTIVE_REPRESENTATION_ITEM('Steel','Steel');
#293=PROPERTY_DEFINITION('material property','material name',#508);
#294=PROPERTY_DEFINITION('material property','density of part',#508);
#295=AXIS2_PLACEMENT_3D('',#385,#315,#316);
#296=AXIS2_PLACEMENT_3D('',#386,#317,#318);
#297=AXIS2_PLACEMENT_3D('',#388,#319,#320);
#298=AXIS2_PLACEMENT_3D('',#428,#322,#323);
#299=AXIS2_PLACEMENT_3D('',#437,#328,#329);
#300=AXIS2_PLACEMENT_3D('',#446,#334,#335);
#301=AXIS2_PLACEMENT_3D('',#452,#339,#340);
#302=AXIS2_PLACEMENT_3D('',#458,#344,#345);
#303=AXIS2_PLACEMENT_3D('',#464,#349,#350);
#304=AXIS2_PLACEMENT_3D('',#470,#354,#355);
#305=AXIS2_PLACEMENT_3D('',#483,#364,#365);
#306=AXIS2_PLACEMENT_3D('',#484,#366,#367);
#307=AXIS2_PLACEMENT_3D('',#485,#368,#369);
#308=AXIS2_PLACEMENT_3D('',#487,#370,#371);
#309=AXIS2_PLACEMENT_3D('',#488,#372,#373);
#310=AXIS2_PLACEMENT_3D('',#489,#374,#375);
#311=AXIS2_PLACEMENT_3D('',#490,#376,#377);
#312=AXIS2_PLACEMENT_3D('',#491,#378,#379);
#313=AXIS2_PLACEMENT_3D('',#494,#381,#382);
#314=AXIS2_PLACEMENT_3D('',#495,#383,#384);
#315=DIRECTION('axis',(0.,0.,1.));
#316=DIRECTION('refdir',(1.,0.,0.));
#317=DIRECTION('center_axis',(0.,0.,1.));
#318=DIRECTION('ref_axis',(1.,0.,0.));
#319=DIRECTION('center_axis',(0.,0.,1.));
#320=DIRECTION('ref_axis',(1.,0.,0.));
#321=DIRECTION('',(0.,0.,1.));
#322=DIRECTION('center_axis',(-1.,0.,0.));
#323=DIRECTION('ref_axis',(0.,0.,1.));
#324=DIRECTION('',(0.,0.,1.));
#325=DIRECTION('',(0.,-1.,0.));
#326=DIRECTION('',(0.,0.,-1.));
#327=DIRECTION('',(0.,1.,0.));
#328=DIRECTION('center_axis',(-1.,0.,0.));
#329=DIRECTION('ref_axis',(0.,0.,1.));
#330=DIRECTION('',(0.,0.,-1.));
#331=DIRECTION('',(0.,1.,0.));
#332=DIRECTION('',(0.,0.,-1.));
#333=DIRECTION('',(0.,-1.,0.));
#334=DIRECTION('center_axis',(0.,0.,1.));
#335=DIRECTION('ref_axis',(1.,0.,0.));
#336=DIRECTION('',(-1.,0.,0.));
#337=DIRECTION('',(-1.,0.,0.));
#338=DIRECTION('',(0.,-1.,0.));
#339=DIRECTION('center_axis',(0.,0.,1.));
#340=DIRECTION('ref_axis',(1.,0.,0.));
#341=DIRECTION('',(1.,0.,0.));
#342=DIRECTION('',(0.,-1.,0.));
#343=DIRECTION('',(1.,0.,0.));
#344=DIRECTION('center_axis',(1.,0.,0.));
#345=DIRECTION('ref_axis',(0.,0.,-1.));
#346=DIRECTION('',(0.,0.,-1.));
#347=DIRECTION('',(0.,0.,-1.));
#348=DIRECTION('',(0.,1.,0.));
#349=DIRECTION('center_axis',(1.,0.,0.));
#350=DIRECTION('ref_axis',(0.,0.,-1.));
#351=DIRECTION('',(0.,0.,1.));
#352=DIRECTION('',(0.,1.,0.));
#353=DIRECTION('',(0.,0.,-1.));
#354=DIRECTION('center_axis',(0.,0.,1.));
#355=DIRECTION('ref_axis',(1.,0.,0.));
#356=DIRECTION('',(-1.,0.,0.));
#357=DIRECTION('',(-1.,0.,0.));
#358=DIRECTION('',(-1.,0.,0.));
#359=DIRECTION('',(0.,-1.,0.));
#360=DIRECTION('',(1.,0.,0.));
#361=DIRECTION('',(1.,0.,0.));
#362=DIRECTION('',(1.,0.,0.));
#363=DIRECTION('',(0.,1.,0.));
#364=DIRECTION('center_axis',(0.,1.,0.));
#365=DIRECTION('ref_axis',(0.,0.,1.));
#366=DIRECTION('center_axis',(0.,-1.,0.));
#367=DIRECTION('ref_axis',(0.,0.,-1.));
#368=DIRECTION('center_axis',(0.,1.,0.));
#369=DIRECTION('ref_axis',(1.,0.,0.));
#370=DIRECTION('center_axis',(0.,1.,0.));
#371=DIRECTION('ref_axis',(1.,0.,0.));
#372=DIRECTION('center_axis',(0.,-1.,0.));
#373=DIRECTION('ref_axis',(1.,0.,0.));
#374=DIRECTION('center_axis',(0.,1.,0.));
#375=DIRECTION('ref_axis',(6.12323399573677E-17,0.,-1.));
#376=DIRECTION('center_axis',(0.,1.,0.));
#377=DIRECTION('ref_axis',(1.,0.,0.));
#378=DIRECTION('center_axis',(0.,1.,0.));
#379=DIRECTION('ref_axis',(1.,0.,0.));
#380=DIRECTION('',(0.,-1.,0.));
#381=DIRECTION('center_axis',(0.,-1.,0.));
#382=DIRECTION('ref_axis',(1.,0.,0.));
#383=DIRECTION('center_axis',(0.,-1.,0.));
#384=DIRECTION('ref_axis',(-1.,0.,0.));
#385=CARTESIAN_POINT('',(0.,0.,0.));
#386=CARTESIAN_POINT('Origin',(555.,76.5,251.525));
#387=CARTESIAN_POINT('',(553.5,76.5,247.8));
#388=CARTESIAN_POINT('Origin',(555.,76.5,247.8));
#389=CARTESIAN_POINT('',(553.5,76.5,254.174811556599));
#390=CARTESIAN_POINT('',(553.5,76.5,251.525));
#391=CARTESIAN_POINT('',(556.5,76.5,254.174811556599));
#392=CARTESIAN_POINT('Ctrl Pts',(556.5,76.5,254.174811556599));
#393=CARTESIAN_POINT('Ctrl Pts',(556.5,76.3115210889848,254.174811556599));
#394=CARTESIAN_POINT('Ctrl Pts',(556.462306633761,76.1105657126426,254.178749819613));
#395=CARTESIAN_POINT('Ctrl Pts',(556.309187080835,75.7410342743152,254.192956234611));
#396=CARTESIAN_POINT('Ctrl Pts',(556.193767772172,75.5724474286124,254.203017259829));
#397=CARTESIAN_POINT('Ctrl Pts',(555.927553024454,75.3062326808939,254.221888722944));
#398=CARTESIAN_POINT('Ctrl Pts',(555.75896598011,75.1908130187038,254.231927754258));
#399=CARTESIAN_POINT('Ctrl Pts',(555.389433876465,75.0376932018663,254.246083817049));
#400=CARTESIAN_POINT('Ctrl Pts',(555.188478269479,75.,254.25));
#401=CARTESIAN_POINT('Ctrl Pts',(554.811521730521,75.,254.25));
#402=CARTESIAN_POINT('Ctrl Pts',(554.610566123535,75.0376932018663,254.246083817049));
#403=CARTESIAN_POINT('Ctrl Pts',(554.24103401989,75.1908130187038,254.231927754258));
#404=CARTESIAN_POINT('Ctrl Pts',(554.072446975546,75.3062326808939,254.221888722944));
#405=CARTESIAN_POINT('Ctrl Pts',(553.806232227828,75.5724474286124,254.203017259829));
#406=CARTESIAN_POINT('Ctrl Pts',(553.690812919165,75.7410342743152,254.192956234611));
#407=CARTESIAN_POINT('Ctrl Pts',(553.537693366239,76.1105657126426,254.178749819613));
#408=CARTESIAN_POINT('Ctrl Pts',(553.5,76.3115210889848,254.174811556599));
#409=CARTESIAN_POINT('Ctrl Pts',(553.5,76.5,254.174811556599));
#410=CARTESIAN_POINT('Ctrl Pts',(553.5,76.5,254.174811556599));
#411=CARTESIAN_POINT('Ctrl Pts',(553.5,76.6884789110152,254.174811556599));
#412=CARTESIAN_POINT('Ctrl Pts',(553.537693366239,76.8894342873573,254.178749819613));
#413=CARTESIAN_POINT('Ctrl Pts',(553.690812919165,77.2589657256848,254.192956234611));
#414=CARTESIAN_POINT('Ctrl Pts',(553.806232227828,77.4275525713875,254.203017259829));
#415=CARTESIAN_POINT('Ctrl Pts',(554.072446975546,77.6937673191061,254.221888722944));
#416=CARTESIAN_POINT('Ctrl Pts',(554.24103401989,77.8091869812962,254.231927754258));
#417=CARTESIAN_POINT('Ctrl Pts',(554.610566123535,77.9623067981337,254.246083817049));
#418=CARTESIAN_POINT('Ctrl Pts',(554.811521730521,78.,254.25));
#419=CARTESIAN_POINT('Ctrl Pts',(555.188478269479,78.,254.25));
#420=CARTESIAN_POINT('Ctrl Pts',(555.389433876465,77.9623067981337,254.246083817049));
#421=CARTESIAN_POINT('Ctrl Pts',(555.75896598011,77.8091869812962,254.231927754258));
#422=CARTESIAN_POINT('Ctrl Pts',(555.927553024454,77.6937673191061,254.221888722944));
#423=CARTESIAN_POINT('Ctrl Pts',(556.193767772172,77.4275525713876,254.203017259829));
#424=CARTESIAN_POINT('Ctrl Pts',(556.309187080835,77.2589657256848,254.192956234611));
#425=CARTESIAN_POINT('Ctrl Pts',(556.462306633761,76.8894342873573,254.178749819613));
#426=CARTESIAN_POINT('Ctrl Pts',(556.5,76.6884789110152,254.174811556599));
#427=CARTESIAN_POINT('Ctrl Pts',(556.5,76.5,254.174811556599));
#428=CARTESIAN_POINT('Origin',(565.4,76.5,248.725));
#429=CARTESIAN_POINT('',(565.4,80.25,247.8));
#430=CARTESIAN_POINT('',(565.4,80.25,249.65));
#431=CARTESIAN_POINT('',(565.4,80.25,243.9875));
#432=CARTESIAN_POINT('',(565.4,80.75,247.8));
#433=CARTESIAN_POINT('',(565.4,76.5,247.8));
#434=CARTESIAN_POINT('',(565.4,80.75,249.65));
#435=CARTESIAN_POINT('',(565.4,80.75,248.725));
#436=CARTESIAN_POINT('',(565.4,76.5,249.65));
#437=CARTESIAN_POINT('Origin',(565.4,76.5,248.725));
#438=CARTESIAN_POINT('',(565.4,72.75,249.65));
#439=CARTESIAN_POINT('',(565.4,72.75,247.8));
#440=CARTESIAN_POINT('',(565.4,72.75,243.9875));
#441=CARTESIAN_POINT('',(565.4,72.25,249.65));
#442=CARTESIAN_POINT('',(565.4,76.5,249.65));
#443=CARTESIAN_POINT('',(565.4,72.25,247.8));
#444=CARTESIAN_POINT('',(565.4,72.25,248.725));
#445=CARTESIAN_POINT('',(565.4,76.5,247.8));
#446=CARTESIAN_POINT('Origin',(555.,76.5,249.65));
#447=CARTESIAN_POINT('',(544.6,80.25,249.65));
#448=CARTESIAN_POINT('',(555.,80.25,249.65));
#449=CARTESIAN_POINT('',(544.6,80.75,249.65));
#450=CARTESIAN_POINT('',(555.,80.75,249.65));
#451=CARTESIAN_POINT('',(544.6,76.5,249.65));
#452=CARTESIAN_POINT('Origin',(555.,76.5,249.65));
#453=CARTESIAN_POINT('',(544.6,72.75,249.65));
#454=CARTESIAN_POINT('',(555.,72.75,249.65));
#455=CARTESIAN_POINT('',(544.6,72.25,249.65));
#456=CARTESIAN_POINT('',(544.6,76.5,249.65));
#457=CARTESIAN_POINT('',(555.,72.25,249.65));
#458=CARTESIAN_POINT('Origin',(544.6,76.5,248.725));
#459=CARTESIAN_POINT('',(544.6,80.25,247.8));
#460=CARTESIAN_POINT('',(544.6,80.25,243.9875));
#461=CARTESIAN_POINT('',(544.6,80.75,247.8));
#462=CARTESIAN_POINT('',(544.6,80.75,248.725));
#463=CARTESIAN_POINT('',(544.6,76.5,247.8));
#464=CARTESIAN_POINT('Origin',(544.6,76.5,248.725));
#465=CARTESIAN_POINT('',(544.6,72.75,247.8));
#466=CARTESIAN_POINT('',(544.6,72.75,243.9875));
#467=CARTESIAN_POINT('',(544.6,72.25,247.8));
#468=CARTESIAN_POINT('',(544.6,76.5,247.8));
#469=CARTESIAN_POINT('',(544.6,72.25,248.725));
#470=CARTESIAN_POINT('Origin',(555.,76.5,247.8));
#471=CARTESIAN_POINT('',(560.282045058498,72.75,247.8));
#472=CARTESIAN_POINT('',(555.,72.75,247.8));
#473=CARTESIAN_POINT('',(555.,72.25,247.8));
#474=CARTESIAN_POINT('',(549.717954941502,72.75,247.8));
#475=CARTESIAN_POINT('',(555.,72.75,247.8));
#476=CARTESIAN_POINT('',(549.717954941502,80.25,247.8));
#477=CARTESIAN_POINT('',(549.717954941502,76.5,247.8));
#478=CARTESIAN_POINT('',(555.,80.25,247.8));
#479=CARTESIAN_POINT('',(555.,80.75,247.8));
#480=CARTESIAN_POINT('',(560.282045058498,80.25,247.8));
#481=CARTESIAN_POINT('',(555.,80.25,247.8));
#482=CARTESIAN_POINT('',(560.282045058498,76.5,247.8));
#483=CARTESIAN_POINT('Origin',(555.,72.25,248.725));
#484=CARTESIAN_POINT('Origin',(555.,80.75,248.725));
#485=CARTESIAN_POINT('Origin',(555.,80.25,239.25));
#486=CARTESIAN_POINT('',(540.,80.25,239.25));
#487=CARTESIAN_POINT('Origin',(555.,80.25,239.25));
#488=CARTESIAN_POINT('Origin',(555.,80.25,239.25));
#489=CARTESIAN_POINT('Origin',(555.,76.5,239.25));
#490=CARTESIAN_POINT('Origin',(555.,72.75,239.25));
#491=CARTESIAN_POINT('Origin',(555.,76.5,239.25));
#492=CARTESIAN_POINT('',(540.,72.75,239.25));
#493=CARTESIAN_POINT('',(540.,76.5,239.25));
#494=CARTESIAN_POINT('Origin',(555.,72.75,239.25));
#495=CARTESIAN_POINT('Origin',(555.,72.75,239.25));
#496=UNCERTAINTY_MEASURE_WITH_UNIT(LENGTH_MEASURE(0.01),#500,
'DISTANCE_ACCURACY_VALUE',
'Maximum model space distance between geometric entities at asserted c
onnectivities');
#497=UNCERTAINTY_MEASURE_WITH_UNIT(LENGTH_MEASURE(0.01),#500,
'DISTANCE_ACCURACY_VALUE',
'Maximum model space distance between geometric entities at asserted c
onnectivities');
#498=(
GEOMETRIC_REPRESENTATION_CONTEXT(3)
GLOBAL_UNCERTAINTY_ASSIGNED_CONTEXT((#496))
GLOBAL_UNIT_ASSIGNED_CONTEXT((#500,#502,#503))
REPRESENTATION_CONTEXT('','3D')
);
#499=(
GEOMETRIC_REPRESENTATION_CONTEXT(3)
GLOBAL_UNCERTAINTY_ASSIGNED_CONTEXT((#497))
GLOBAL_UNIT_ASSIGNED_CONTEXT((#500,#502,#503))
REPRESENTATION_CONTEXT('','3D')
);
#500=(
LENGTH_UNIT()
NAMED_UNIT(*)
SI_UNIT(.MILLI.,.METRE.)
);
#501=(
LENGTH_UNIT()
NAMED_UNIT(*)
SI_UNIT($,.METRE.)
);
#502=(
NAMED_UNIT(*)
PLANE_ANGLE_UNIT()
SI_UNIT($,.RADIAN.)
);
#503=(
NAMED_UNIT(*)
SI_UNIT($,.STERADIAN.)
SOLID_ANGLE_UNIT()
);
#504=SHAPE_DEFINITION_REPRESENTATION(#505,#506);
#505=PRODUCT_DEFINITION_SHAPE('',$,#508);
#506=SHAPE_REPRESENTATION('',(#295),#498);
#507=PRODUCT_DEFINITION_CONTEXT('part definition',#512,'design');
#508=PRODUCT_DEFINITION('2026-08-12-23-05-32-341',
'EXPORT_TMP_PRINT_V010P_P418_DiffInputClampCollar_B',#509,#507);
#509=PRODUCT_DEFINITION_FORMATION('',$,#514);
#510=PRODUCT_RELATED_PRODUCT_CATEGORY(
'EXPORT_TMP_PRINT_V010P_P418_DiffInputClampCollar_B',
'EXPORT_TMP_PRINT_V010P_P418_DiffInputClampCollar_B',(#514));
#511=APPLICATION_PROTOCOL_DEFINITION('international standard',
'automotive_design',2009,#512);
#512=APPLICATION_CONTEXT(
'Core Data for Automotive Mechanical Design Process');
#513=PRODUCT_CONTEXT('part definition',#512,'mechanical');
#514=PRODUCT('2026-08-12-23-05-32-341',
'EXPORT_TMP_PRINT_V010P_P418_DiffInputClampCollar_B',$,(#513));
#515=PRESENTATION_STYLE_ASSIGNMENT((#516));
#516=SURFACE_STYLE_USAGE(.BOTH.,#517);
#517=SURFACE_SIDE_STYLE('',(#518));
#518=SURFACE_STYLE_FILL_AREA(#519);
#519=FILL_AREA_STYLE('Steel - Satin',(#520));
#520=FILL_AREA_STYLE_COLOUR('Steel - Satin',#521);
#521=COLOUR_RGB('Steel - Satin',0.627450980392157,0.627450980392157,0.627450980392157);
ENDSEC;
END-ISO-10303-21;
