ISO-10303-21;
HEADER;
/* Generated by software containing ST-Developer
 * from STEP Tools, Inc. (www.steptools.com) 
 */

FILE_DESCRIPTION(
/* description */ (''),
/* implementation_level */ '2;1');

FILE_NAME(
/* name */ 'PRINT_V004_P409_DifferentialFork_Right.step',
/* time_stamp */ '2026-08-12T23:09:15+02:00',
/* author */ (''),
/* organization */ (''),
/* preprocessor_version */ 'ST-DEVELOPER v20.1',
/* originating_system */ 'Autodesk Translation Framework v15.8.0.0',
/* authorisation */ '');

FILE_SCHEMA (('AUTOMOTIVE_DESIGN { 1 0 10303 214 3 1 1 }'));
ENDSEC;

DATA;
#10=MECHANICAL_DESIGN_GEOMETRIC_PRESENTATION_REPRESENTATION('',(#13),#604);
#11=SHAPE_REPRESENTATION_RELATIONSHIP('SRR','None',#611,#12);
#12=ADVANCED_BREP_SHAPE_REPRESENTATION('',(#14),#603);
#13=STYLED_ITEM('',(#620),#14);
#14=MANIFOLD_SOLID_BREP('PRINT_V004_P409_DifferentialFork_Right',#352);
#15=FACE_BOUND('',#70,.T.);
#16=FACE_BOUND('',#71,.T.);
#17=FACE_BOUND('',#72,.T.);
#18=FACE_BOUND('',#73,.T.);
#19=FACE_BOUND('',#74,.T.);
#20=FACE_BOUND('',#75,.T.);
#21=FACE_BOUND('',#76,.T.);
#22=FACE_BOUND('',#80,.T.);
#23=FACE_BOUND('',#81,.T.);
#24=FACE_BOUND('',#82,.T.);
#25=FACE_BOUND('',#83,.T.);
#26=FACE_BOUND('',#84,.T.);
#27=PLANE('',#369);
#28=PLANE('',#373);
#29=PLANE('',#395);
#30=PLANE('',#396);
#31=PLANE('',#397);
#32=PLANE('',#398);
#33=PLANE('',#399);
#34=PLANE('',#400);
#35=PLANE('',#401);
#36=PLANE('',#402);
#37=FACE_OUTER_BOUND('',#56,.T.);
#38=FACE_OUTER_BOUND('',#57,.T.);
#39=FACE_OUTER_BOUND('',#58,.T.);
#40=FACE_OUTER_BOUND('',#59,.T.);
#41=FACE_OUTER_BOUND('',#60,.T.);
#42=FACE_OUTER_BOUND('',#61,.T.);
#43=FACE_OUTER_BOUND('',#62,.T.);
#44=FACE_OUTER_BOUND('',#63,.T.);
#45=FACE_OUTER_BOUND('',#64,.T.);
#46=FACE_OUTER_BOUND('',#65,.T.);
#47=FACE_OUTER_BOUND('',#66,.T.);
#48=FACE_OUTER_BOUND('',#67,.T.);
#49=FACE_OUTER_BOUND('',#68,.T.);
#50=FACE_OUTER_BOUND('',#69,.T.);
#51=FACE_OUTER_BOUND('',#77,.T.);
#52=FACE_OUTER_BOUND('',#78,.T.);
#53=FACE_OUTER_BOUND('',#79,.T.);
#54=FACE_OUTER_BOUND('',#85,.T.);
#55=FACE_OUTER_BOUND('',#86,.T.);
#56=EDGE_LOOP('',(#234,#235,#236,#237));
#57=EDGE_LOOP('',(#238));
#58=EDGE_LOOP('',(#239,#240,#241,#242));
#59=EDGE_LOOP('',(#243));
#60=EDGE_LOOP('',(#244,#245,#246,#247));
#61=EDGE_LOOP('',(#248,#249,#250,#251));
#62=EDGE_LOOP('',(#252,#253,#254,#255));
#63=EDGE_LOOP('',(#256,#257,#258,#259));
#64=EDGE_LOOP('',(#260,#261,#262,#263));
#65=EDGE_LOOP('',(#264,#265,#266,#267));
#66=EDGE_LOOP('',(#268,#269,#270,#271));
#67=EDGE_LOOP('',(#272,#273,#274,#275));
#68=EDGE_LOOP('',(#276,#277,#278,#279));
#69=EDGE_LOOP('',(#280,#281,#282,#283,#284,#285,#286,#287));
#70=EDGE_LOOP('',(#288));
#71=EDGE_LOOP('',(#289));
#72=EDGE_LOOP('',(#290));
#73=EDGE_LOOP('',(#291));
#74=EDGE_LOOP('',(#292));
#75=EDGE_LOOP('',(#293));
#76=EDGE_LOOP('',(#294));
#77=EDGE_LOOP('',(#295,#296,#297,#298));
#78=EDGE_LOOP('',(#299,#300,#301,#302));
#79=EDGE_LOOP('',(#303,#304,#305,#306,#307,#308,#309,#310));
#80=EDGE_LOOP('',(#311));
#81=EDGE_LOOP('',(#312));
#82=EDGE_LOOP('',(#313));
#83=EDGE_LOOP('',(#314));
#84=EDGE_LOOP('',(#315));
#85=EDGE_LOOP('',(#316,#317,#318,#319));
#86=EDGE_LOOP('',(#320,#321,#322,#323));
#87=LINE('',#511,#114);
#88=LINE('',#518,#115);
#89=LINE('',#525,#116);
#90=LINE('',#531,#117);
#91=LINE('',#537,#118);
#92=LINE('',#543,#119);
#93=LINE('',#549,#120);
#94=LINE('',#554,#121);
#95=LINE('',#558,#122);
#96=LINE('',#563,#123);
#97=LINE('',#567,#124);
#98=LINE('',#571,#125);
#99=LINE('',#573,#126);
#100=LINE('',#574,#127);
#101=LINE('',#577,#128);
#102=LINE('',#579,#129);
#103=LINE('',#580,#130);
#104=LINE('',#583,#131);
#105=LINE('',#585,#132);
#106=LINE('',#586,#133);
#107=LINE('',#587,#134);
#108=LINE('',#590,#135);
#109=LINE('',#592,#136);
#110=LINE('',#593,#137);
#111=LINE('',#595,#138);
#112=LINE('',#597,#139);
#113=LINE('',#598,#140);
#114=VECTOR('',#409,2.2);
#115=VECTOR('',#418,2.2);
#116=VECTOR('',#427,2.2);
#117=VECTOR('',#434,2.2);
#118=VECTOR('',#441,2.2);
#119=VECTOR('',#448,2.2);
#120=VECTOR('',#455,16.15);
#121=VECTOR('',#460,10.);
#122=VECTOR('',#463,10.);
#123=VECTOR('',#468,10.);
#124=VECTOR('',#471,10.);
#125=VECTOR('',#476,10.);
#126=VECTOR('',#477,10.);
#127=VECTOR('',#478,10.);
#128=VECTOR('',#481,10.);
#129=VECTOR('',#482,10.);
#130=VECTOR('',#483,10.);
#131=VECTOR('',#486,10.);
#132=VECTOR('',#487,10.);
#133=VECTOR('',#488,10.);
#134=VECTOR('',#489,10.);
#135=VECTOR('',#492,10.);
#136=VECTOR('',#493,10.);
#137=VECTOR('',#494,10.);
#138=VECTOR('',#497,10.);
#139=VECTOR('',#500,10.);
#140=VECTOR('',#501,10.);
#141=CIRCLE('',#367,2.2);
#142=CIRCLE('',#368,2.2);
#143=CIRCLE('',#371,2.2);
#144=CIRCLE('',#372,2.2);
#145=CIRCLE('',#375,2.2);
#146=CIRCLE('',#376,2.2);
#147=CIRCLE('',#378,2.2);
#148=CIRCLE('',#379,2.2);
#149=CIRCLE('',#381,2.2);
#150=CIRCLE('',#382,2.2);
#151=CIRCLE('',#384,2.2);
#152=CIRCLE('',#385,2.2);
#153=CIRCLE('',#387,16.15);
#154=CIRCLE('',#388,16.15);
#155=CIRCLE('',#390,54.);
#156=CIRCLE('',#391,54.);
#157=CIRCLE('',#393,54.);
#158=CIRCLE('',#394,54.);
#159=VERTEX_POINT('',#508);
#160=VERTEX_POINT('',#510);
#161=VERTEX_POINT('',#515);
#162=VERTEX_POINT('',#517);
#163=VERTEX_POINT('',#522);
#164=VERTEX_POINT('',#524);
#165=VERTEX_POINT('',#528);
#166=VERTEX_POINT('',#530);
#167=VERTEX_POINT('',#534);
#168=VERTEX_POINT('',#536);
#169=VERTEX_POINT('',#540);
#170=VERTEX_POINT('',#542);
#171=VERTEX_POINT('',#546);
#172=VERTEX_POINT('',#548);
#173=VERTEX_POINT('',#552);
#174=VERTEX_POINT('',#553);
#175=VERTEX_POINT('',#555);
#176=VERTEX_POINT('',#557);
#177=VERTEX_POINT('',#561);
#178=VERTEX_POINT('',#562);
#179=VERTEX_POINT('',#564);
#180=VERTEX_POINT('',#566);
#181=VERTEX_POINT('',#570);
#182=VERTEX_POINT('',#572);
#183=VERTEX_POINT('',#576);
#184=VERTEX_POINT('',#578);
#185=VERTEX_POINT('',#582);
#186=VERTEX_POINT('',#584);
#187=VERTEX_POINT('',#589);
#188=VERTEX_POINT('',#591);
#189=EDGE_CURVE('',#159,#159,#141,.T.);
#190=EDGE_CURVE('',#159,#160,#87,.T.);
#191=EDGE_CURVE('',#160,#160,#142,.T.);
#192=EDGE_CURVE('',#161,#161,#143,.T.);
#193=EDGE_CURVE('',#161,#162,#88,.T.);
#194=EDGE_CURVE('',#162,#162,#144,.T.);
#195=EDGE_CURVE('',#163,#163,#145,.T.);
#196=EDGE_CURVE('',#163,#164,#89,.T.);
#197=EDGE_CURVE('',#164,#164,#146,.T.);
#198=EDGE_CURVE('',#165,#165,#147,.T.);
#199=EDGE_CURVE('',#165,#166,#90,.T.);
#200=EDGE_CURVE('',#166,#166,#148,.T.);
#201=EDGE_CURVE('',#167,#167,#149,.T.);
#202=EDGE_CURVE('',#167,#168,#91,.T.);
#203=EDGE_CURVE('',#168,#168,#150,.T.);
#204=EDGE_CURVE('',#169,#169,#151,.T.);
#205=EDGE_CURVE('',#169,#170,#92,.T.);
#206=EDGE_CURVE('',#170,#170,#152,.T.);
#207=EDGE_CURVE('',#171,#171,#153,.T.);
#208=EDGE_CURVE('',#171,#172,#93,.T.);
#209=EDGE_CURVE('',#172,#172,#154,.T.);
#210=EDGE_CURVE('',#173,#174,#94,.T.);
#211=EDGE_CURVE('',#175,#173,#155,.T.);
#212=EDGE_CURVE('',#176,#175,#95,.T.);
#213=EDGE_CURVE('',#174,#176,#156,.T.);
#214=EDGE_CURVE('',#177,#178,#96,.T.);
#215=EDGE_CURVE('',#179,#177,#157,.T.);
#216=EDGE_CURVE('',#180,#179,#97,.T.);
#217=EDGE_CURVE('',#178,#180,#158,.T.);
#218=EDGE_CURVE('',#179,#181,#98,.T.);
#219=EDGE_CURVE('',#182,#181,#99,.T.);
#220=EDGE_CURVE('',#180,#182,#100,.T.);
#221=EDGE_CURVE('',#175,#183,#101,.T.);
#222=EDGE_CURVE('',#184,#183,#102,.T.);
#223=EDGE_CURVE('',#176,#184,#103,.T.);
#224=EDGE_CURVE('',#185,#177,#104,.T.);
#225=EDGE_CURVE('',#186,#185,#105,.T.);
#226=EDGE_CURVE('',#186,#174,#106,.T.);
#227=EDGE_CURVE('',#181,#184,#107,.T.);
#228=EDGE_CURVE('',#185,#187,#108,.T.);
#229=EDGE_CURVE('',#187,#188,#109,.T.);
#230=EDGE_CURVE('',#188,#186,#110,.T.);
#231=EDGE_CURVE('',#183,#182,#111,.T.);
#232=EDGE_CURVE('',#187,#178,#112,.T.);
#233=EDGE_CURVE('',#188,#173,#113,.T.);
#234=ORIENTED_EDGE('',*,*,#189,.T.);
#235=ORIENTED_EDGE('',*,*,#190,.T.);
#236=ORIENTED_EDGE('',*,*,#191,.F.);
#237=ORIENTED_EDGE('',*,*,#190,.F.);
#238=ORIENTED_EDGE('',*,*,#189,.F.);
#239=ORIENTED_EDGE('',*,*,#192,.T.);
#240=ORIENTED_EDGE('',*,*,#193,.T.);
#241=ORIENTED_EDGE('',*,*,#194,.F.);
#242=ORIENTED_EDGE('',*,*,#193,.F.);
#243=ORIENTED_EDGE('',*,*,#192,.F.);
#244=ORIENTED_EDGE('',*,*,#195,.F.);
#245=ORIENTED_EDGE('',*,*,#196,.T.);
#246=ORIENTED_EDGE('',*,*,#197,.F.);
#247=ORIENTED_EDGE('',*,*,#196,.F.);
#248=ORIENTED_EDGE('',*,*,#198,.F.);
#249=ORIENTED_EDGE('',*,*,#199,.T.);
#250=ORIENTED_EDGE('',*,*,#200,.F.);
#251=ORIENTED_EDGE('',*,*,#199,.F.);
#252=ORIENTED_EDGE('',*,*,#201,.F.);
#253=ORIENTED_EDGE('',*,*,#202,.T.);
#254=ORIENTED_EDGE('',*,*,#203,.F.);
#255=ORIENTED_EDGE('',*,*,#202,.F.);
#256=ORIENTED_EDGE('',*,*,#204,.F.);
#257=ORIENTED_EDGE('',*,*,#205,.T.);
#258=ORIENTED_EDGE('',*,*,#206,.F.);
#259=ORIENTED_EDGE('',*,*,#205,.F.);
#260=ORIENTED_EDGE('',*,*,#207,.F.);
#261=ORIENTED_EDGE('',*,*,#208,.T.);
#262=ORIENTED_EDGE('',*,*,#209,.F.);
#263=ORIENTED_EDGE('',*,*,#208,.F.);
#264=ORIENTED_EDGE('',*,*,#210,.F.);
#265=ORIENTED_EDGE('',*,*,#211,.F.);
#266=ORIENTED_EDGE('',*,*,#212,.F.);
#267=ORIENTED_EDGE('',*,*,#213,.F.);
#268=ORIENTED_EDGE('',*,*,#214,.F.);
#269=ORIENTED_EDGE('',*,*,#215,.F.);
#270=ORIENTED_EDGE('',*,*,#216,.F.);
#271=ORIENTED_EDGE('',*,*,#217,.F.);
#272=ORIENTED_EDGE('',*,*,#216,.T.);
#273=ORIENTED_EDGE('',*,*,#218,.T.);
#274=ORIENTED_EDGE('',*,*,#219,.F.);
#275=ORIENTED_EDGE('',*,*,#220,.F.);
#276=ORIENTED_EDGE('',*,*,#212,.T.);
#277=ORIENTED_EDGE('',*,*,#221,.T.);
#278=ORIENTED_EDGE('',*,*,#222,.F.);
#279=ORIENTED_EDGE('',*,*,#223,.F.);
#280=ORIENTED_EDGE('',*,*,#224,.F.);
#281=ORIENTED_EDGE('',*,*,#225,.F.);
#282=ORIENTED_EDGE('',*,*,#226,.T.);
#283=ORIENTED_EDGE('',*,*,#213,.T.);
#284=ORIENTED_EDGE('',*,*,#223,.T.);
#285=ORIENTED_EDGE('',*,*,#227,.F.);
#286=ORIENTED_EDGE('',*,*,#218,.F.);
#287=ORIENTED_EDGE('',*,*,#215,.T.);
#288=ORIENTED_EDGE('',*,*,#191,.T.);
#289=ORIENTED_EDGE('',*,*,#194,.T.);
#290=ORIENTED_EDGE('',*,*,#197,.T.);
#291=ORIENTED_EDGE('',*,*,#200,.T.);
#292=ORIENTED_EDGE('',*,*,#203,.T.);
#293=ORIENTED_EDGE('',*,*,#206,.T.);
#294=ORIENTED_EDGE('',*,*,#209,.T.);
#295=ORIENTED_EDGE('',*,*,#225,.T.);
#296=ORIENTED_EDGE('',*,*,#228,.T.);
#297=ORIENTED_EDGE('',*,*,#229,.T.);
#298=ORIENTED_EDGE('',*,*,#230,.T.);
#299=ORIENTED_EDGE('',*,*,#227,.T.);
#300=ORIENTED_EDGE('',*,*,#222,.T.);
#301=ORIENTED_EDGE('',*,*,#231,.T.);
#302=ORIENTED_EDGE('',*,*,#219,.T.);
#303=ORIENTED_EDGE('',*,*,#229,.F.);
#304=ORIENTED_EDGE('',*,*,#232,.T.);
#305=ORIENTED_EDGE('',*,*,#217,.T.);
#306=ORIENTED_EDGE('',*,*,#220,.T.);
#307=ORIENTED_EDGE('',*,*,#231,.F.);
#308=ORIENTED_EDGE('',*,*,#221,.F.);
#309=ORIENTED_EDGE('',*,*,#211,.T.);
#310=ORIENTED_EDGE('',*,*,#233,.F.);
#311=ORIENTED_EDGE('',*,*,#195,.T.);
#312=ORIENTED_EDGE('',*,*,#198,.T.);
#313=ORIENTED_EDGE('',*,*,#201,.T.);
#314=ORIENTED_EDGE('',*,*,#204,.T.);
#315=ORIENTED_EDGE('',*,*,#207,.T.);
#316=ORIENTED_EDGE('',*,*,#214,.T.);
#317=ORIENTED_EDGE('',*,*,#232,.F.);
#318=ORIENTED_EDGE('',*,*,#228,.F.);
#319=ORIENTED_EDGE('',*,*,#224,.T.);
#320=ORIENTED_EDGE('',*,*,#210,.T.);
#321=ORIENTED_EDGE('',*,*,#226,.F.);
#322=ORIENTED_EDGE('',*,*,#230,.F.);
#323=ORIENTED_EDGE('',*,*,#233,.T.);
#324=CYLINDRICAL_SURFACE('',#366,2.2);
#325=CYLINDRICAL_SURFACE('',#370,2.2);
#326=CYLINDRICAL_SURFACE('',#374,2.2);
#327=CYLINDRICAL_SURFACE('',#377,2.2);
#328=CYLINDRICAL_SURFACE('',#380,2.2);
#329=CYLINDRICAL_SURFACE('',#383,2.2);
#330=CYLINDRICAL_SURFACE('',#386,16.15);
#331=CYLINDRICAL_SURFACE('',#389,54.);
#332=CYLINDRICAL_SURFACE('',#392,54.);
#333=ADVANCED_FACE('',(#37),#324,.F.);
#334=ADVANCED_FACE('',(#38),#27,.F.);
#335=ADVANCED_FACE('',(#39),#325,.F.);
#336=ADVANCED_FACE('',(#40),#28,.F.);
#337=ADVANCED_FACE('',(#41),#326,.F.);
#338=ADVANCED_FACE('',(#42),#327,.F.);
#339=ADVANCED_FACE('',(#43),#328,.F.);
#340=ADVANCED_FACE('',(#44),#329,.F.);
#341=ADVANCED_FACE('',(#45),#330,.F.);
#342=ADVANCED_FACE('',(#46),#331,.T.);
#343=ADVANCED_FACE('',(#47),#332,.T.);
#344=ADVANCED_FACE('',(#48),#29,.F.);
#345=ADVANCED_FACE('',(#49),#30,.F.);
#346=ADVANCED_FACE('',(#50,#15,#16,#17,#18,#19,#20,#21),#31,.F.);
#347=ADVANCED_FACE('',(#51),#32,.T.);
#348=ADVANCED_FACE('',(#52),#33,.F.);
#349=ADVANCED_FACE('',(#53,#22,#23,#24,#25,#26),#34,.F.);
#350=ADVANCED_FACE('',(#54),#35,.F.);
#351=ADVANCED_FACE('',(#55),#36,.F.);
#352=CLOSED_SHELL('',(#333,#334,#335,#336,#337,#338,#339,#340,#341,#342,
#343,#344,#345,#346,#347,#348,#349,#350,#351));
#353=DERIVED_UNIT_ELEMENT(#355,1.);
#354=DERIVED_UNIT_ELEMENT(#606,-3.);
#355=(
MASS_UNIT()
NAMED_UNIT(*)
SI_UNIT(.KILO.,.GRAM.)
);
#356=DERIVED_UNIT((#353,#354));
#357=MEASURE_REPRESENTATION_ITEM('density measure',
POSITIVE_RATIO_MEASURE(7850.),#356);
#358=PROPERTY_DEFINITION_REPRESENTATION(#363,#360);
#359=PROPERTY_DEFINITION_REPRESENTATION(#364,#361);
#360=REPRESENTATION('material name',(#362),#603);
#361=REPRESENTATION('density',(#357),#603);
#362=DESCRIPTIVE_REPRESENTATION_ITEM('Steel','Steel');
#363=PROPERTY_DEFINITION('material property','material name',#613);
#364=PROPERTY_DEFINITION('material property','density of part',#613);
#365=AXIS2_PLACEMENT_3D('',#506,#403,#404);
#366=AXIS2_PLACEMENT_3D('',#507,#405,#406);
#367=AXIS2_PLACEMENT_3D('',#509,#407,#408);
#368=AXIS2_PLACEMENT_3D('',#512,#410,#411);
#369=AXIS2_PLACEMENT_3D('',#513,#412,#413);
#370=AXIS2_PLACEMENT_3D('',#514,#414,#415);
#371=AXIS2_PLACEMENT_3D('',#516,#416,#417);
#372=AXIS2_PLACEMENT_3D('',#519,#419,#420);
#373=AXIS2_PLACEMENT_3D('',#520,#421,#422);
#374=AXIS2_PLACEMENT_3D('',#521,#423,#424);
#375=AXIS2_PLACEMENT_3D('',#523,#425,#426);
#376=AXIS2_PLACEMENT_3D('',#526,#428,#429);
#377=AXIS2_PLACEMENT_3D('',#527,#430,#431);
#378=AXIS2_PLACEMENT_3D('',#529,#432,#433);
#379=AXIS2_PLACEMENT_3D('',#532,#435,#436);
#380=AXIS2_PLACEMENT_3D('',#533,#437,#438);
#381=AXIS2_PLACEMENT_3D('',#535,#439,#440);
#382=AXIS2_PLACEMENT_3D('',#538,#442,#443);
#383=AXIS2_PLACEMENT_3D('',#539,#444,#445);
#384=AXIS2_PLACEMENT_3D('',#541,#446,#447);
#385=AXIS2_PLACEMENT_3D('',#544,#449,#450);
#386=AXIS2_PLACEMENT_3D('',#545,#451,#452);
#387=AXIS2_PLACEMENT_3D('',#547,#453,#454);
#388=AXIS2_PLACEMENT_3D('',#550,#456,#457);
#389=AXIS2_PLACEMENT_3D('',#551,#458,#459);
#390=AXIS2_PLACEMENT_3D('',#556,#461,#462);
#391=AXIS2_PLACEMENT_3D('',#559,#464,#465);
#392=AXIS2_PLACEMENT_3D('',#560,#466,#467);
#393=AXIS2_PLACEMENT_3D('',#565,#469,#470);
#394=AXIS2_PLACEMENT_3D('',#568,#472,#473);
#395=AXIS2_PLACEMENT_3D('',#569,#474,#475);
#396=AXIS2_PLACEMENT_3D('',#575,#479,#480);
#397=AXIS2_PLACEMENT_3D('',#581,#484,#485);
#398=AXIS2_PLACEMENT_3D('',#588,#490,#491);
#399=AXIS2_PLACEMENT_3D('',#594,#495,#496);
#400=AXIS2_PLACEMENT_3D('',#596,#498,#499);
#401=AXIS2_PLACEMENT_3D('',#599,#502,#503);
#402=AXIS2_PLACEMENT_3D('',#600,#504,#505);
#403=DIRECTION('axis',(0.,0.,1.));
#404=DIRECTION('refdir',(1.,0.,0.));
#405=DIRECTION('center_axis',(0.,1.,0.));
#406=DIRECTION('ref_axis',(1.,0.,0.));
#407=DIRECTION('center_axis',(0.,-1.,0.));
#408=DIRECTION('ref_axis',(1.,0.,0.));
#409=DIRECTION('',(0.,1.,0.));
#410=DIRECTION('center_axis',(0.,-1.,0.));
#411=DIRECTION('ref_axis',(1.,0.,0.));
#412=DIRECTION('center_axis',(0.,-1.,0.));
#413=DIRECTION('ref_axis',(-1.,0.,0.));
#414=DIRECTION('center_axis',(0.,1.,0.));
#415=DIRECTION('ref_axis',(1.,0.,0.));
#416=DIRECTION('center_axis',(0.,-1.,0.));
#417=DIRECTION('ref_axis',(1.,0.,0.));
#418=DIRECTION('',(0.,1.,0.));
#419=DIRECTION('center_axis',(0.,-1.,0.));
#420=DIRECTION('ref_axis',(1.,0.,0.));
#421=DIRECTION('center_axis',(0.,-1.,0.));
#422=DIRECTION('ref_axis',(-1.,0.,0.));
#423=DIRECTION('center_axis',(0.,1.,0.));
#424=DIRECTION('ref_axis',(1.,0.,0.));
#425=DIRECTION('center_axis',(0.,1.,0.));
#426=DIRECTION('ref_axis',(1.,0.,0.));
#427=DIRECTION('',(0.,1.,0.));
#428=DIRECTION('center_axis',(0.,-1.,0.));
#429=DIRECTION('ref_axis',(1.,0.,0.));
#430=DIRECTION('center_axis',(0.,1.,0.));
#431=DIRECTION('ref_axis',(1.,0.,0.));
#432=DIRECTION('center_axis',(0.,1.,0.));
#433=DIRECTION('ref_axis',(1.,0.,0.));
#434=DIRECTION('',(0.,1.,0.));
#435=DIRECTION('center_axis',(0.,-1.,0.));
#436=DIRECTION('ref_axis',(1.,0.,0.));
#437=DIRECTION('center_axis',(0.,1.,0.));
#438=DIRECTION('ref_axis',(1.,0.,0.));
#439=DIRECTION('center_axis',(0.,1.,0.));
#440=DIRECTION('ref_axis',(1.,0.,0.));
#441=DIRECTION('',(0.,1.,0.));
#442=DIRECTION('center_axis',(0.,-1.,0.));
#443=DIRECTION('ref_axis',(1.,0.,0.));
#444=DIRECTION('center_axis',(0.,1.,0.));
#445=DIRECTION('ref_axis',(1.,0.,0.));
#446=DIRECTION('center_axis',(0.,1.,0.));
#447=DIRECTION('ref_axis',(1.,0.,0.));
#448=DIRECTION('',(0.,1.,0.));
#449=DIRECTION('center_axis',(0.,-1.,0.));
#450=DIRECTION('ref_axis',(1.,0.,0.));
#451=DIRECTION('center_axis',(0.,1.,0.));
#452=DIRECTION('ref_axis',(1.,0.,0.));
#453=DIRECTION('center_axis',(0.,1.,0.));
#454=DIRECTION('ref_axis',(1.,0.,0.));
#455=DIRECTION('',(0.,1.,0.));
#456=DIRECTION('center_axis',(0.,-1.,0.));
#457=DIRECTION('ref_axis',(1.,0.,0.));
#458=DIRECTION('center_axis',(0.,1.,0.));
#459=DIRECTION('ref_axis',(1.,0.,0.));
#460=DIRECTION('',(0.,1.,0.));
#461=DIRECTION('center_axis',(0.,-1.,0.));
#462=DIRECTION('ref_axis',(1.,0.,0.));
#463=DIRECTION('',(0.,-1.,0.));
#464=DIRECTION('center_axis',(0.,1.,0.));
#465=DIRECTION('ref_axis',(1.,0.,0.));
#466=DIRECTION('center_axis',(0.,1.,0.));
#467=DIRECTION('ref_axis',(-1.,0.,1.22464679914735E-16));
#468=DIRECTION('',(0.,-1.,0.));
#469=DIRECTION('center_axis',(0.,1.,0.));
#470=DIRECTION('ref_axis',(1.,0.,0.));
#471=DIRECTION('',(0.,1.,0.));
#472=DIRECTION('center_axis',(0.,-1.,0.));
#473=DIRECTION('ref_axis',(1.,0.,0.));
#474=DIRECTION('center_axis',(1.,0.,0.));
#475=DIRECTION('ref_axis',(0.,0.,-1.));
#476=DIRECTION('',(0.,0.,-1.));
#477=DIRECTION('',(0.,1.,0.));
#478=DIRECTION('',(0.,0.,-1.));
#479=DIRECTION('center_axis',(-1.,0.,0.));
#480=DIRECTION('ref_axis',(0.,0.,1.));
#481=DIRECTION('',(0.,0.,-1.));
#482=DIRECTION('',(0.,-1.,0.));
#483=DIRECTION('',(0.,0.,-1.));
#484=DIRECTION('center_axis',(0.,-1.,0.));
#485=DIRECTION('ref_axis',(0.,0.,-1.));
#486=DIRECTION('',(0.,0.,-1.));
#487=DIRECTION('',(-1.,0.,0.));
#488=DIRECTION('',(0.,0.,-1.));
#489=DIRECTION('',(1.,0.,0.));
#490=DIRECTION('center_axis',(0.,0.,1.));
#491=DIRECTION('ref_axis',(1.,0.,0.));
#492=DIRECTION('',(0.,-1.,0.));
#493=DIRECTION('',(1.,0.,0.));
#494=DIRECTION('',(0.,1.,0.));
#495=DIRECTION('center_axis',(0.,0.,1.));
#496=DIRECTION('ref_axis',(1.,0.,0.));
#497=DIRECTION('',(-1.,0.,0.));
#498=DIRECTION('center_axis',(0.,1.,0.));
#499=DIRECTION('ref_axis',(0.,0.,1.));
#500=DIRECTION('',(0.,0.,-1.));
#501=DIRECTION('',(0.,0.,-1.));
#502=DIRECTION('center_axis',(1.,0.,0.));
#503=DIRECTION('ref_axis',(0.,0.,-1.));
#504=DIRECTION('center_axis',(-1.,0.,0.));
#505=DIRECTION('ref_axis',(0.,0.,1.));
#506=CARTESIAN_POINT('',(0.,0.,0.));
#507=CARTESIAN_POINT('Origin',(526.,62.,282.));
#508=CARTESIAN_POINT('',(523.8,56.,282.));
#509=CARTESIAN_POINT('Origin',(526.,56.,282.));
#510=CARTESIAN_POINT('',(523.8,58.,282.));
#511=CARTESIAN_POINT('',(523.8,62.,282.));
#512=CARTESIAN_POINT('Origin',(526.,58.,282.));
#513=CARTESIAN_POINT('Origin',(526.,56.,282.));
#514=CARTESIAN_POINT('Origin',(526.,62.,198.));
#515=CARTESIAN_POINT('',(523.8,56.,198.));
#516=CARTESIAN_POINT('Origin',(526.,56.,198.));
#517=CARTESIAN_POINT('',(523.8,58.,198.));
#518=CARTESIAN_POINT('',(523.8,62.,198.));
#519=CARTESIAN_POINT('Origin',(526.,58.,198.));
#520=CARTESIAN_POINT('Origin',(526.,56.,198.));
#521=CARTESIAN_POINT('Origin',(580.,54.,276.));
#522=CARTESIAN_POINT('',(577.8,50.,276.));
#523=CARTESIAN_POINT('Origin',(580.,50.,276.));
#524=CARTESIAN_POINT('',(577.8,58.,276.));
#525=CARTESIAN_POINT('',(577.8,54.,276.));
#526=CARTESIAN_POINT('Origin',(580.,58.,276.));
#527=CARTESIAN_POINT('Origin',(530.,54.,276.));
#528=CARTESIAN_POINT('',(527.8,50.,276.));
#529=CARTESIAN_POINT('Origin',(530.,50.,276.));
#530=CARTESIAN_POINT('',(527.8,58.,276.));
#531=CARTESIAN_POINT('',(527.8,54.,276.));
#532=CARTESIAN_POINT('Origin',(530.,58.,276.));
#533=CARTESIAN_POINT('Origin',(580.,54.,204.));
#534=CARTESIAN_POINT('',(577.8,50.,204.));
#535=CARTESIAN_POINT('Origin',(580.,50.,204.));
#536=CARTESIAN_POINT('',(577.8,58.,204.));
#537=CARTESIAN_POINT('',(577.8,54.,204.));
#538=CARTESIAN_POINT('Origin',(580.,58.,204.));
#539=CARTESIAN_POINT('Origin',(530.,54.,204.));
#540=CARTESIAN_POINT('',(527.8,50.,204.));
#541=CARTESIAN_POINT('Origin',(530.,50.,204.));
#542=CARTESIAN_POINT('',(527.8,58.,204.));
#543=CARTESIAN_POINT('',(527.8,54.,204.));
#544=CARTESIAN_POINT('Origin',(530.,58.,204.));
#545=CARTESIAN_POINT('Origin',(555.,54.,240.));
#546=CARTESIAN_POINT('',(538.85,50.,240.));
#547=CARTESIAN_POINT('Origin',(555.,50.,240.));
#548=CARTESIAN_POINT('',(538.85,58.,240.));
#549=CARTESIAN_POINT('',(538.85,54.,240.));
#550=CARTESIAN_POINT('Origin',(555.,58.,240.));
#551=CARTESIAN_POINT('Origin',(555.,54.,240.));
#552=CARTESIAN_POINT('',(590.,50.,281.121770389904));
#553=CARTESIAN_POINT('',(590.,58.,281.121770389904));
#554=CARTESIAN_POINT('',(590.,54.,281.121770389904));
#555=CARTESIAN_POINT('',(590.,50.,198.878229610096));
#556=CARTESIAN_POINT('Origin',(555.,50.,240.));
#557=CARTESIAN_POINT('',(590.,58.,198.878229610096));
#558=CARTESIAN_POINT('',(590.,54.,198.878229610096));
#559=CARTESIAN_POINT('Origin',(555.,58.,240.));
#560=CARTESIAN_POINT('Origin',(555.,54.,240.));
#561=CARTESIAN_POINT('',(520.,58.,281.121770389904));
#562=CARTESIAN_POINT('',(520.,50.,281.121770389904));
#563=CARTESIAN_POINT('',(520.,54.,281.121770389904));
#564=CARTESIAN_POINT('',(520.,58.,198.878229610096));
#565=CARTESIAN_POINT('Origin',(555.,58.,240.));
#566=CARTESIAN_POINT('',(520.,50.,198.878229610096));
#567=CARTESIAN_POINT('',(520.,54.,198.878229610096));
#568=CARTESIAN_POINT('Origin',(555.,50.,240.));
#569=CARTESIAN_POINT('Origin',(520.,54.,240.));
#570=CARTESIAN_POINT('',(520.,58.,186.));
#571=CARTESIAN_POINT('',(520.,58.,240.));
#572=CARTESIAN_POINT('',(520.,50.,186.));
#573=CARTESIAN_POINT('',(520.,54.,186.));
#574=CARTESIAN_POINT('',(520.,50.,240.));
#575=CARTESIAN_POINT('Origin',(590.,54.,240.));
#576=CARTESIAN_POINT('',(590.,50.,186.));
#577=CARTESIAN_POINT('',(590.,50.,240.));
#578=CARTESIAN_POINT('',(590.,58.,186.));
#579=CARTESIAN_POINT('',(590.,54.,186.));
#580=CARTESIAN_POINT('',(590.,58.,240.));
#581=CARTESIAN_POINT('Origin',(555.,58.,240.));
#582=CARTESIAN_POINT('',(520.,58.,294.));
#583=CARTESIAN_POINT('',(520.,58.,240.));
#584=CARTESIAN_POINT('',(590.,58.,294.));
#585=CARTESIAN_POINT('',(555.,58.,294.));
#586=CARTESIAN_POINT('',(590.,58.,240.));
#587=CARTESIAN_POINT('',(555.,58.,186.));
#588=CARTESIAN_POINT('Origin',(555.,54.,294.));
#589=CARTESIAN_POINT('',(520.,50.,294.));
#590=CARTESIAN_POINT('',(520.,54.,294.));
#591=CARTESIAN_POINT('',(590.,50.,294.));
#592=CARTESIAN_POINT('',(555.,50.,294.));
#593=CARTESIAN_POINT('',(590.,54.,294.));
#594=CARTESIAN_POINT('Origin',(555.,54.,186.));
#595=CARTESIAN_POINT('',(555.,50.,186.));
#596=CARTESIAN_POINT('Origin',(555.,50.,240.));
#597=CARTESIAN_POINT('',(520.,50.,240.));
#598=CARTESIAN_POINT('',(590.,50.,240.));
#599=CARTESIAN_POINT('Origin',(520.,54.,240.));
#600=CARTESIAN_POINT('Origin',(590.,54.,240.));
#601=UNCERTAINTY_MEASURE_WITH_UNIT(LENGTH_MEASURE(0.01),#605,
'DISTANCE_ACCURACY_VALUE',
'Maximum model space distance between geometric entities at asserted c
onnectivities');
#602=UNCERTAINTY_MEASURE_WITH_UNIT(LENGTH_MEASURE(0.01),#605,
'DISTANCE_ACCURACY_VALUE',
'Maximum model space distance between geometric entities at asserted c
onnectivities');
#603=(
GEOMETRIC_REPRESENTATION_CONTEXT(3)
GLOBAL_UNCERTAINTY_ASSIGNED_CONTEXT((#601))
GLOBAL_UNIT_ASSIGNED_CONTEXT((#605,#607,#608))
REPRESENTATION_CONTEXT('','3D')
);
#604=(
GEOMETRIC_REPRESENTATION_CONTEXT(3)
GLOBAL_UNCERTAINTY_ASSIGNED_CONTEXT((#602))
GLOBAL_UNIT_ASSIGNED_CONTEXT((#605,#607,#608))
REPRESENTATION_CONTEXT('','3D')
);
#605=(
LENGTH_UNIT()
NAMED_UNIT(*)
SI_UNIT(.MILLI.,.METRE.)
);
#606=(
LENGTH_UNIT()
NAMED_UNIT(*)
SI_UNIT($,.METRE.)
);
#607=(
NAMED_UNIT(*)
PLANE_ANGLE_UNIT()
SI_UNIT($,.RADIAN.)
);
#608=(
NAMED_UNIT(*)
SI_UNIT($,.STERADIAN.)
SOLID_ANGLE_UNIT()
);
#609=SHAPE_DEFINITION_REPRESENTATION(#610,#611);
#610=PRODUCT_DEFINITION_SHAPE('',$,#613);
#611=SHAPE_REPRESENTATION('',(#365),#603);
#612=PRODUCT_DEFINITION_CONTEXT('part definition',#617,'design');
#613=PRODUCT_DEFINITION('2026-08-12-23-09-14-930',
'EXPORT_TMP_PRINT_V004_P409_DifferentialFork_Right',#614,#612);
#614=PRODUCT_DEFINITION_FORMATION('',$,#619);
#615=PRODUCT_RELATED_PRODUCT_CATEGORY(
'EXPORT_TMP_PRINT_V004_P409_DifferentialFork_Right',
'EXPORT_TMP_PRINT_V004_P409_DifferentialFork_Right',(#619));
#616=APPLICATION_PROTOCOL_DEFINITION('international standard',
'automotive_design',2009,#617);
#617=APPLICATION_CONTEXT(
'Core Data for Automotive Mechanical Design Process');
#618=PRODUCT_CONTEXT('part definition',#617,'mechanical');
#619=PRODUCT('2026-08-12-23-09-14-930',
'EXPORT_TMP_PRINT_V004_P409_DifferentialFork_Right',$,(#618));
#620=PRESENTATION_STYLE_ASSIGNMENT((#621));
#621=SURFACE_STYLE_USAGE(.BOTH.,#622);
#622=SURFACE_SIDE_STYLE('',(#623));
#623=SURFACE_STYLE_FILL_AREA(#624);
#624=FILL_AREA_STYLE('Steel - Satin',(#625));
#625=FILL_AREA_STYLE_COLOUR('Steel - Satin',#626);
#626=COLOUR_RGB('Steel - Satin',0.627450980392157,0.627450980392157,0.627450980392157);
ENDSEC;
END-ISO-10303-21;
