ISO-10303-21;
HEADER;
/* Generated by software containing ST-Developer
 * from STEP Tools, Inc. (www.steptools.com) 
 */

FILE_DESCRIPTION(
/* description */ (''),
/* implementation_level */ '2;1');

FILE_NAME(
/* name */ 'PRINT_V009B_P414_J5_PitchBearingHousing_A.step',
/* time_stamp */ '2026-08-12T23:09:48+02:00',
/* author */ (''),
/* organization */ (''),
/* preprocessor_version */ 'ST-DEVELOPER v20.1',
/* originating_system */ 'Autodesk Translation Framework v15.8.0.0',
/* authorisation */ '');

FILE_SCHEMA (('AUTOMOTIVE_DESIGN { 1 0 10303 214 3 1 1 }'));
ENDSEC;

DATA;
#10=MECHANICAL_DESIGN_GEOMETRIC_PRESENTATION_REPRESENTATION('',(#13),#371);
#11=SHAPE_REPRESENTATION_RELATIONSHIP('SRR','None',#378,#12);
#12=ADVANCED_BREP_SHAPE_REPRESENTATION('',(#14),#370);
#13=STYLED_ITEM('',(#387),#14);
#14=MANIFOLD_SOLID_BREP('PRINT_V009B_P414_J5_PitchBearingHousing_A',#207);
#15=FACE_BOUND('',#48,.T.);
#16=FACE_BOUND('',#51,.T.);
#17=FACE_BOUND('',#56,.T.);
#18=FACE_BOUND('',#57,.T.);
#19=FACE_BOUND('',#58,.T.);
#20=FACE_BOUND('',#59,.T.);
#21=FACE_BOUND('',#60,.T.);
#22=FACE_BOUND('',#62,.T.);
#23=FACE_BOUND('',#63,.T.);
#24=FACE_BOUND('',#64,.T.);
#25=FACE_BOUND('',#65,.T.);
#26=FACE_BOUND('',#66,.T.);
#27=PLANE('',#233);
#28=PLANE('',#238);
#29=PLANE('',#247);
#30=PLANE('',#248);
#31=FACE_OUTER_BOUND('',#43,.T.);
#32=FACE_OUTER_BOUND('',#44,.T.);
#33=FACE_OUTER_BOUND('',#45,.T.);
#34=FACE_OUTER_BOUND('',#46,.T.);
#35=FACE_OUTER_BOUND('',#47,.T.);
#36=FACE_OUTER_BOUND('',#49,.T.);
#37=FACE_OUTER_BOUND('',#50,.T.);
#38=FACE_OUTER_BOUND('',#52,.T.);
#39=FACE_OUTER_BOUND('',#53,.T.);
#40=FACE_OUTER_BOUND('',#54,.T.);
#41=FACE_OUTER_BOUND('',#55,.T.);
#42=FACE_OUTER_BOUND('',#61,.T.);
#43=EDGE_LOOP('',(#139,#140,#141,#142));
#44=EDGE_LOOP('',(#143,#144,#145,#146));
#45=EDGE_LOOP('',(#147,#148,#149,#150));
#46=EDGE_LOOP('',(#151,#152,#153,#154));
#47=EDGE_LOOP('',(#155));
#48=EDGE_LOOP('',(#156));
#49=EDGE_LOOP('',(#157,#158,#159,#160));
#50=EDGE_LOOP('',(#161));
#51=EDGE_LOOP('',(#162));
#52=EDGE_LOOP('',(#163,#164,#165,#166));
#53=EDGE_LOOP('',(#167,#168,#169,#170));
#54=EDGE_LOOP('',(#171,#172,#173,#174));
#55=EDGE_LOOP('',(#175));
#56=EDGE_LOOP('',(#176));
#57=EDGE_LOOP('',(#177));
#58=EDGE_LOOP('',(#178));
#59=EDGE_LOOP('',(#179));
#60=EDGE_LOOP('',(#180));
#61=EDGE_LOOP('',(#181));
#62=EDGE_LOOP('',(#182));
#63=EDGE_LOOP('',(#183));
#64=EDGE_LOOP('',(#184));
#65=EDGE_LOOP('',(#185));
#66=EDGE_LOOP('',(#186));
#67=LINE('',#320,#75);
#68=LINE('',#326,#76);
#69=LINE('',#332,#77);
#70=LINE('',#338,#78);
#71=LINE('',#347,#79);
#72=LINE('',#357,#80);
#73=LINE('',#359,#81);
#74=LINE('',#364,#82);
#75=VECTOR('',#255,1.7);
#76=VECTOR('',#262,1.7);
#77=VECTOR('',#269,1.7);
#78=VECTOR('',#276,1.7);
#79=VECTOR('',#287,12.6);
#80=VECTOR('',#300,12.6);
#81=VECTOR('',#303,16.1);
#82=VECTOR('',#308,22.5);
#83=CIRCLE('',#222,1.7);
#84=CIRCLE('',#223,1.7);
#85=CIRCLE('',#225,1.7);
#86=CIRCLE('',#226,1.7);
#87=CIRCLE('',#228,1.7);
#88=CIRCLE('',#229,1.7);
#89=CIRCLE('',#231,1.7);
#90=CIRCLE('',#232,1.7);
#91=CIRCLE('',#234,16.1);
#92=CIRCLE('',#235,12.6);
#93=CIRCLE('',#237,12.6);
#94=CIRCLE('',#239,16.1);
#95=CIRCLE('',#240,12.6);
#96=CIRCLE('',#242,12.6);
#97=CIRCLE('',#245,22.5);
#98=CIRCLE('',#246,22.5);
#99=VERTEX_POINT('',#317);
#100=VERTEX_POINT('',#319);
#101=VERTEX_POINT('',#323);
#102=VERTEX_POINT('',#325);
#103=VERTEX_POINT('',#329);
#104=VERTEX_POINT('',#331);
#105=VERTEX_POINT('',#335);
#106=VERTEX_POINT('',#337);
#107=VERTEX_POINT('',#341);
#108=VERTEX_POINT('',#343);
#109=VERTEX_POINT('',#346);
#110=VERTEX_POINT('',#350);
#111=VERTEX_POINT('',#352);
#112=VERTEX_POINT('',#355);
#113=VERTEX_POINT('',#361);
#114=VERTEX_POINT('',#363);
#115=EDGE_CURVE('',#99,#99,#83,.T.);
#116=EDGE_CURVE('',#99,#100,#67,.T.);
#117=EDGE_CURVE('',#100,#100,#84,.T.);
#118=EDGE_CURVE('',#101,#101,#85,.T.);
#119=EDGE_CURVE('',#101,#102,#68,.T.);
#120=EDGE_CURVE('',#102,#102,#86,.T.);
#121=EDGE_CURVE('',#103,#103,#87,.T.);
#122=EDGE_CURVE('',#103,#104,#69,.T.);
#123=EDGE_CURVE('',#104,#104,#88,.T.);
#124=EDGE_CURVE('',#105,#105,#89,.T.);
#125=EDGE_CURVE('',#105,#106,#70,.T.);
#126=EDGE_CURVE('',#106,#106,#90,.T.);
#127=EDGE_CURVE('',#107,#107,#91,.T.);
#128=EDGE_CURVE('',#108,#108,#92,.T.);
#129=EDGE_CURVE('',#108,#109,#71,.T.);
#130=EDGE_CURVE('',#109,#109,#93,.T.);
#131=EDGE_CURVE('',#110,#110,#94,.T.);
#132=EDGE_CURVE('',#111,#111,#95,.T.);
#133=EDGE_CURVE('',#112,#112,#96,.T.);
#134=EDGE_CURVE('',#112,#111,#72,.T.);
#135=EDGE_CURVE('',#110,#107,#73,.T.);
#136=EDGE_CURVE('',#113,#113,#97,.T.);
#137=EDGE_CURVE('',#113,#114,#74,.T.);
#138=EDGE_CURVE('',#114,#114,#98,.T.);
#139=ORIENTED_EDGE('',*,*,#115,.F.);
#140=ORIENTED_EDGE('',*,*,#116,.T.);
#141=ORIENTED_EDGE('',*,*,#117,.F.);
#142=ORIENTED_EDGE('',*,*,#116,.F.);
#143=ORIENTED_EDGE('',*,*,#118,.F.);
#144=ORIENTED_EDGE('',*,*,#119,.T.);
#145=ORIENTED_EDGE('',*,*,#120,.F.);
#146=ORIENTED_EDGE('',*,*,#119,.F.);
#147=ORIENTED_EDGE('',*,*,#121,.F.);
#148=ORIENTED_EDGE('',*,*,#122,.T.);
#149=ORIENTED_EDGE('',*,*,#123,.F.);
#150=ORIENTED_EDGE('',*,*,#122,.F.);
#151=ORIENTED_EDGE('',*,*,#124,.F.);
#152=ORIENTED_EDGE('',*,*,#125,.T.);
#153=ORIENTED_EDGE('',*,*,#126,.F.);
#154=ORIENTED_EDGE('',*,*,#125,.F.);
#155=ORIENTED_EDGE('',*,*,#127,.F.);
#156=ORIENTED_EDGE('',*,*,#128,.T.);
#157=ORIENTED_EDGE('',*,*,#128,.F.);
#158=ORIENTED_EDGE('',*,*,#129,.T.);
#159=ORIENTED_EDGE('',*,*,#130,.F.);
#160=ORIENTED_EDGE('',*,*,#129,.F.);
#161=ORIENTED_EDGE('',*,*,#131,.F.);
#162=ORIENTED_EDGE('',*,*,#132,.T.);
#163=ORIENTED_EDGE('',*,*,#133,.F.);
#164=ORIENTED_EDGE('',*,*,#134,.T.);
#165=ORIENTED_EDGE('',*,*,#132,.F.);
#166=ORIENTED_EDGE('',*,*,#134,.F.);
#167=ORIENTED_EDGE('',*,*,#131,.T.);
#168=ORIENTED_EDGE('',*,*,#135,.T.);
#169=ORIENTED_EDGE('',*,*,#127,.T.);
#170=ORIENTED_EDGE('',*,*,#135,.F.);
#171=ORIENTED_EDGE('',*,*,#136,.F.);
#172=ORIENTED_EDGE('',*,*,#137,.T.);
#173=ORIENTED_EDGE('',*,*,#138,.F.);
#174=ORIENTED_EDGE('',*,*,#137,.F.);
#175=ORIENTED_EDGE('',*,*,#138,.T.);
#176=ORIENTED_EDGE('',*,*,#117,.T.);
#177=ORIENTED_EDGE('',*,*,#120,.T.);
#178=ORIENTED_EDGE('',*,*,#123,.T.);
#179=ORIENTED_EDGE('',*,*,#126,.T.);
#180=ORIENTED_EDGE('',*,*,#133,.T.);
#181=ORIENTED_EDGE('',*,*,#136,.T.);
#182=ORIENTED_EDGE('',*,*,#115,.T.);
#183=ORIENTED_EDGE('',*,*,#118,.T.);
#184=ORIENTED_EDGE('',*,*,#121,.T.);
#185=ORIENTED_EDGE('',*,*,#124,.T.);
#186=ORIENTED_EDGE('',*,*,#130,.T.);
#187=CYLINDRICAL_SURFACE('',#221,1.7);
#188=CYLINDRICAL_SURFACE('',#224,1.7);
#189=CYLINDRICAL_SURFACE('',#227,1.7);
#190=CYLINDRICAL_SURFACE('',#230,1.7);
#191=CYLINDRICAL_SURFACE('',#236,12.6);
#192=CYLINDRICAL_SURFACE('',#241,12.6);
#193=CYLINDRICAL_SURFACE('',#243,16.1);
#194=CYLINDRICAL_SURFACE('',#244,22.5);
#195=ADVANCED_FACE('',(#31),#187,.F.);
#196=ADVANCED_FACE('',(#32),#188,.F.);
#197=ADVANCED_FACE('',(#33),#189,.F.);
#198=ADVANCED_FACE('',(#34),#190,.F.);
#199=ADVANCED_FACE('',(#35,#15),#27,.T.);
#200=ADVANCED_FACE('',(#36),#191,.F.);
#201=ADVANCED_FACE('',(#37,#16),#28,.T.);
#202=ADVANCED_FACE('',(#38),#192,.F.);
#203=ADVANCED_FACE('',(#39),#193,.F.);
#204=ADVANCED_FACE('',(#40),#194,.T.);
#205=ADVANCED_FACE('',(#41,#17,#18,#19,#20,#21),#29,.T.);
#206=ADVANCED_FACE('',(#42,#22,#23,#24,#25,#26),#30,.T.);
#207=CLOSED_SHELL('',(#195,#196,#197,#198,#199,#200,#201,#202,#203,#204,
#205,#206));
#208=DERIVED_UNIT_ELEMENT(#210,1.);
#209=DERIVED_UNIT_ELEMENT(#373,-3.);
#210=(
MASS_UNIT()
NAMED_UNIT(*)
SI_UNIT(.KILO.,.GRAM.)
);
#211=DERIVED_UNIT((#208,#209));
#212=MEASURE_REPRESENTATION_ITEM('density measure',
POSITIVE_RATIO_MEASURE(7850.),#211);
#213=PROPERTY_DEFINITION_REPRESENTATION(#218,#215);
#214=PROPERTY_DEFINITION_REPRESENTATION(#219,#216);
#215=REPRESENTATION('material name',(#217),#370);
#216=REPRESENTATION('density',(#212),#370);
#217=DESCRIPTIVE_REPRESENTATION_ITEM('Steel','Steel');
#218=PROPERTY_DEFINITION('material property','material name',#380);
#219=PROPERTY_DEFINITION('material property','density of part',#380);
#220=AXIS2_PLACEMENT_3D('',#315,#249,#250);
#221=AXIS2_PLACEMENT_3D('',#316,#251,#252);
#222=AXIS2_PLACEMENT_3D('',#318,#253,#254);
#223=AXIS2_PLACEMENT_3D('',#321,#256,#257);
#224=AXIS2_PLACEMENT_3D('',#322,#258,#259);
#225=AXIS2_PLACEMENT_3D('',#324,#260,#261);
#226=AXIS2_PLACEMENT_3D('',#327,#263,#264);
#227=AXIS2_PLACEMENT_3D('',#328,#265,#266);
#228=AXIS2_PLACEMENT_3D('',#330,#267,#268);
#229=AXIS2_PLACEMENT_3D('',#333,#270,#271);
#230=AXIS2_PLACEMENT_3D('',#334,#272,#273);
#231=AXIS2_PLACEMENT_3D('',#336,#274,#275);
#232=AXIS2_PLACEMENT_3D('',#339,#277,#278);
#233=AXIS2_PLACEMENT_3D('',#340,#279,#280);
#234=AXIS2_PLACEMENT_3D('',#342,#281,#282);
#235=AXIS2_PLACEMENT_3D('',#344,#283,#284);
#236=AXIS2_PLACEMENT_3D('',#345,#285,#286);
#237=AXIS2_PLACEMENT_3D('',#348,#288,#289);
#238=AXIS2_PLACEMENT_3D('',#349,#290,#291);
#239=AXIS2_PLACEMENT_3D('',#351,#292,#293);
#240=AXIS2_PLACEMENT_3D('',#353,#294,#295);
#241=AXIS2_PLACEMENT_3D('',#354,#296,#297);
#242=AXIS2_PLACEMENT_3D('',#356,#298,#299);
#243=AXIS2_PLACEMENT_3D('',#358,#301,#302);
#244=AXIS2_PLACEMENT_3D('',#360,#304,#305);
#245=AXIS2_PLACEMENT_3D('',#362,#306,#307);
#246=AXIS2_PLACEMENT_3D('',#365,#309,#310);
#247=AXIS2_PLACEMENT_3D('',#366,#311,#312);
#248=AXIS2_PLACEMENT_3D('',#367,#313,#314);
#249=DIRECTION('axis',(0.,0.,1.));
#250=DIRECTION('refdir',(1.,0.,0.));
#251=DIRECTION('center_axis',(0.,-1.,0.));
#252=DIRECTION('ref_axis',(1.,0.,0.));
#253=DIRECTION('center_axis',(0.,-1.,0.));
#254=DIRECTION('ref_axis',(1.,0.,0.));
#255=DIRECTION('',(0.,-1.,0.));
#256=DIRECTION('center_axis',(0.,1.,0.));
#257=DIRECTION('ref_axis',(1.,0.,0.));
#258=DIRECTION('center_axis',(0.,-1.,0.));
#259=DIRECTION('ref_axis',(1.,0.,0.));
#260=DIRECTION('center_axis',(0.,-1.,0.));
#261=DIRECTION('ref_axis',(1.,0.,0.));
#262=DIRECTION('',(0.,-1.,0.));
#263=DIRECTION('center_axis',(0.,1.,0.));
#264=DIRECTION('ref_axis',(1.,0.,0.));
#265=DIRECTION('center_axis',(0.,-1.,0.));
#266=DIRECTION('ref_axis',(1.,0.,0.));
#267=DIRECTION('center_axis',(0.,-1.,0.));
#268=DIRECTION('ref_axis',(1.,0.,0.));
#269=DIRECTION('',(0.,-1.,0.));
#270=DIRECTION('center_axis',(0.,1.,0.));
#271=DIRECTION('ref_axis',(1.,0.,0.));
#272=DIRECTION('center_axis',(0.,-1.,0.));
#273=DIRECTION('ref_axis',(1.,0.,0.));
#274=DIRECTION('center_axis',(0.,-1.,0.));
#275=DIRECTION('ref_axis',(1.,0.,0.));
#276=DIRECTION('',(0.,-1.,0.));
#277=DIRECTION('center_axis',(0.,1.,0.));
#278=DIRECTION('ref_axis',(1.,0.,0.));
#279=DIRECTION('center_axis',(0.,-1.,0.));
#280=DIRECTION('ref_axis',(-1.,0.,0.));
#281=DIRECTION('center_axis',(0.,1.,0.));
#282=DIRECTION('ref_axis',(1.,0.,0.));
#283=DIRECTION('center_axis',(0.,1.,0.));
#284=DIRECTION('ref_axis',(1.,0.,0.));
#285=DIRECTION('center_axis',(0.,1.,0.));
#286=DIRECTION('ref_axis',(1.,0.,0.));
#287=DIRECTION('',(0.,1.,0.));
#288=DIRECTION('center_axis',(0.,-1.,0.));
#289=DIRECTION('ref_axis',(1.,0.,0.));
#290=DIRECTION('center_axis',(0.,1.,0.));
#291=DIRECTION('ref_axis',(1.,0.,0.));
#292=DIRECTION('center_axis',(0.,-1.,0.));
#293=DIRECTION('ref_axis',(1.,0.,0.));
#294=DIRECTION('center_axis',(0.,-1.,0.));
#295=DIRECTION('ref_axis',(1.,0.,0.));
#296=DIRECTION('center_axis',(0.,1.,0.));
#297=DIRECTION('ref_axis',(1.,0.,0.));
#298=DIRECTION('center_axis',(0.,1.,0.));
#299=DIRECTION('ref_axis',(1.,0.,0.));
#300=DIRECTION('',(0.,1.,0.));
#301=DIRECTION('center_axis',(0.,1.,0.));
#302=DIRECTION('ref_axis',(1.,0.,0.));
#303=DIRECTION('',(0.,1.,0.));
#304=DIRECTION('center_axis',(0.,1.,0.));
#305=DIRECTION('ref_axis',(1.,0.,0.));
#306=DIRECTION('center_axis',(0.,1.,0.));
#307=DIRECTION('ref_axis',(1.,0.,0.));
#308=DIRECTION('',(0.,-1.,0.));
#309=DIRECTION('center_axis',(0.,-1.,0.));
#310=DIRECTION('ref_axis',(1.,0.,0.));
#311=DIRECTION('center_axis',(0.,-1.,0.));
#312=DIRECTION('ref_axis',(-1.,0.,0.));
#313=DIRECTION('center_axis',(0.,1.,0.));
#314=DIRECTION('ref_axis',(1.,0.,0.));
#315=CARTESIAN_POINT('',(0.,0.,0.));
#316=CARTESIAN_POINT('Origin',(568.788582233138,-49.,226.211417766862));
#317=CARTESIAN_POINT('',(567.088582233138,-42.,226.211417766862));
#318=CARTESIAN_POINT('Origin',(568.788582233138,-42.,226.211417766862));
#319=CARTESIAN_POINT('',(567.088582233138,-50.,226.211417766862));
#320=CARTESIAN_POINT('',(567.088582233138,-49.,226.211417766862));
#321=CARTESIAN_POINT('Origin',(568.788582233138,-50.,226.211417766862));
#322=CARTESIAN_POINT('Origin',(541.211417766862,-49.,226.211417766862));
#323=CARTESIAN_POINT('',(539.511417766862,-42.,226.211417766862));
#324=CARTESIAN_POINT('Origin',(541.211417766862,-42.,226.211417766862));
#325=CARTESIAN_POINT('',(539.511417766862,-50.,226.211417766862));
#326=CARTESIAN_POINT('',(539.511417766862,-49.,226.211417766862));
#327=CARTESIAN_POINT('Origin',(541.211417766862,-50.,226.211417766862));
#328=CARTESIAN_POINT('Origin',(541.211417766862,-49.,253.788582233138));
#329=CARTESIAN_POINT('',(539.511417766862,-42.,253.788582233138));
#330=CARTESIAN_POINT('Origin',(541.211417766862,-42.,253.788582233138));
#331=CARTESIAN_POINT('',(539.511417766862,-50.,253.788582233138));
#332=CARTESIAN_POINT('',(539.511417766862,-49.,253.788582233138));
#333=CARTESIAN_POINT('Origin',(541.211417766862,-50.,253.788582233138));
#334=CARTESIAN_POINT('Origin',(568.788582233138,-49.,253.788582233138));
#335=CARTESIAN_POINT('',(567.088582233138,-42.,253.788582233138));
#336=CARTESIAN_POINT('Origin',(568.788582233138,-42.,253.788582233138));
#337=CARTESIAN_POINT('',(567.088582233138,-50.,253.788582233138));
#338=CARTESIAN_POINT('',(567.088582233138,-49.,253.788582233138));
#339=CARTESIAN_POINT('Origin',(568.788582233138,-50.,253.788582233138));
#340=CARTESIAN_POINT('Origin',(555.,-44.,240.));
#341=CARTESIAN_POINT('',(538.9,-44.,240.));
#342=CARTESIAN_POINT('Origin',(555.,-44.,240.));
#343=CARTESIAN_POINT('',(542.4,-44.,240.));
#344=CARTESIAN_POINT('Origin',(555.,-44.,240.));
#345=CARTESIAN_POINT('Origin',(555.,-43.,240.));
#346=CARTESIAN_POINT('',(542.4,-42.,240.));
#347=CARTESIAN_POINT('',(542.4,-43.,240.));
#348=CARTESIAN_POINT('Origin',(555.,-42.,240.));
#349=CARTESIAN_POINT('Origin',(555.,-48.,240.));
#350=CARTESIAN_POINT('',(538.9,-48.,240.));
#351=CARTESIAN_POINT('Origin',(555.,-48.,240.));
#352=CARTESIAN_POINT('',(542.4,-48.,240.));
#353=CARTESIAN_POINT('Origin',(555.,-48.,240.));
#354=CARTESIAN_POINT('Origin',(555.,-49.,240.));
#355=CARTESIAN_POINT('',(542.4,-50.,240.));
#356=CARTESIAN_POINT('Origin',(555.,-50.,240.));
#357=CARTESIAN_POINT('',(542.4,-49.,240.));
#358=CARTESIAN_POINT('Origin',(555.,-46.,240.));
#359=CARTESIAN_POINT('',(538.9,-46.,240.));
#360=CARTESIAN_POINT('Origin',(555.,-46.,240.));
#361=CARTESIAN_POINT('',(532.5,-42.,240.));
#362=CARTESIAN_POINT('Origin',(555.,-42.,240.));
#363=CARTESIAN_POINT('',(532.5,-50.,240.));
#364=CARTESIAN_POINT('',(532.5,-46.,240.));
#365=CARTESIAN_POINT('Origin',(555.,-50.,240.));
#366=CARTESIAN_POINT('Origin',(555.,-50.,240.));
#367=CARTESIAN_POINT('Origin',(555.,-42.,240.));
#368=UNCERTAINTY_MEASURE_WITH_UNIT(LENGTH_MEASURE(0.01),#372,
'DISTANCE_ACCURACY_VALUE',
'Maximum model space distance between geometric entities at asserted c
onnectivities');
#369=UNCERTAINTY_MEASURE_WITH_UNIT(LENGTH_MEASURE(0.01),#372,
'DISTANCE_ACCURACY_VALUE',
'Maximum model space distance between geometric entities at asserted c
onnectivities');
#370=(
GEOMETRIC_REPRESENTATION_CONTEXT(3)
GLOBAL_UNCERTAINTY_ASSIGNED_CONTEXT((#368))
GLOBAL_UNIT_ASSIGNED_CONTEXT((#372,#374,#375))
REPRESENTATION_CONTEXT('','3D')
);
#371=(
GEOMETRIC_REPRESENTATION_CONTEXT(3)
GLOBAL_UNCERTAINTY_ASSIGNED_CONTEXT((#369))
GLOBAL_UNIT_ASSIGNED_CONTEXT((#372,#374,#375))
REPRESENTATION_CONTEXT('','3D')
);
#372=(
LENGTH_UNIT()
NAMED_UNIT(*)
SI_UNIT(.MILLI.,.METRE.)
);
#373=(
LENGTH_UNIT()
NAMED_UNIT(*)
SI_UNIT($,.METRE.)
);
#374=(
NAMED_UNIT(*)
PLANE_ANGLE_UNIT()
SI_UNIT($,.RADIAN.)
);
#375=(
NAMED_UNIT(*)
SI_UNIT($,.STERADIAN.)
SOLID_ANGLE_UNIT()
);
#376=SHAPE_DEFINITION_REPRESENTATION(#377,#378);
#377=PRODUCT_DEFINITION_SHAPE('',$,#380);
#378=SHAPE_REPRESENTATION('',(#220),#370);
#379=PRODUCT_DEFINITION_CONTEXT('part definition',#384,'design');
#380=PRODUCT_DEFINITION('2026-08-12-23-09-48-124',
'EXPORT_TMP_PRINT_V009B_P414_J5_PitchBearingHousing_',#381,#379);
#381=PRODUCT_DEFINITION_FORMATION('',$,#386);
#382=PRODUCT_RELATED_PRODUCT_CATEGORY(
'EXPORT_TMP_PRINT_V009B_P414_J5_PitchBearingHousing_',
'EXPORT_TMP_PRINT_V009B_P414_J5_PitchBearingHousing_',(#386));
#383=APPLICATION_PROTOCOL_DEFINITION('international standard',
'automotive_design',2009,#384);
#384=APPLICATION_CONTEXT(
'Core Data for Automotive Mechanical Design Process');
#385=PRODUCT_CONTEXT('part definition',#384,'mechanical');
#386=PRODUCT('2026-08-12-23-09-48-124',
'EXPORT_TMP_PRINT_V009B_P414_J5_PitchBearingHousing_',$,(#385));
#387=PRESENTATION_STYLE_ASSIGNMENT((#388));
#388=SURFACE_STYLE_USAGE(.BOTH.,#389);
#389=SURFACE_SIDE_STYLE('',(#390));
#390=SURFACE_STYLE_FILL_AREA(#391);
#391=FILL_AREA_STYLE('Steel - Satin',(#392));
#392=FILL_AREA_STYLE_COLOUR('Steel - Satin',#393);
#393=COLOUR_RGB('Steel - Satin',0.627450980392157,0.627450980392157,0.627450980392157);
ENDSEC;
END-ISO-10303-21;
