ISO-10303-21;
HEADER;
/* Generated by software containing ST-Developer
 * from STEP Tools, Inc. (www.steptools.com) 
 */

FILE_DESCRIPTION(
/* description */ (''),
/* implementation_level */ '2;1');

FILE_NAME(
/* name */ 
'PRINT_V009B_P601_DifferentialCarrier_SeparatedBearingStack.step',
/* time_stamp */ '2026-08-12T23:10:08+02:00',
/* author */ (''),
/* organization */ (''),
/* preprocessor_version */ 'ST-DEVELOPER v20.1',
/* originating_system */ 'Autodesk Translation Framework v15.8.0.0',
/* authorisation */ '');

FILE_SCHEMA (('AUTOMOTIVE_DESIGN { 1 0 10303 214 3 1 1 }'));
ENDSEC;

DATA;
#10=MECHANICAL_DESIGN_GEOMETRIC_PRESENTATION_REPRESENTATION('',(#13),#2057);
#11=SHAPE_REPRESENTATION_RELATIONSHIP('SRR','None',#2064,#12);
#12=ADVANCED_BREP_SHAPE_REPRESENTATION('',(#14),#2056);
#13=STYLED_ITEM('',(#2073),#14);
#14=MANIFOLD_SOLID_BREP(
'PRINT_V009B_P601_DifferentialCarrier_SeparatedBearingStack',#1253);
#15=FACE_BOUND('',#152,.T.);
#16=FACE_BOUND('',#156,.T.);
#17=FACE_BOUND('',#157,.T.);
#18=FACE_BOUND('',#158,.T.);
#19=FACE_BOUND('',#159,.T.);
#20=FACE_BOUND('',#160,.T.);
#21=FACE_BOUND('',#161,.T.);
#22=FACE_BOUND('',#162,.T.);
#23=FACE_BOUND('',#164,.T.);
#24=FACE_BOUND('',#168,.T.);
#25=FACE_BOUND('',#169,.T.);
#26=FACE_BOUND('',#170,.T.);
#27=FACE_BOUND('',#171,.T.);
#28=FACE_BOUND('',#172,.T.);
#29=FACE_BOUND('',#174,.T.);
#30=FACE_BOUND('',#175,.T.);
#31=FACE_BOUND('',#176,.T.);
#32=FACE_BOUND('',#177,.T.);
#33=FACE_BOUND('',#178,.T.);
#34=FACE_BOUND('',#179,.T.);
#35=FACE_BOUND('',#180,.T.);
#36=FACE_BOUND('',#192,.T.);
#37=FACE_BOUND('',#193,.T.);
#38=FACE_BOUND('',#194,.T.);
#39=FACE_BOUND('',#195,.T.);
#40=FACE_BOUND('',#196,.T.);
#41=FACE_BOUND('',#204,.T.);
#42=FACE_BOUND('',#206,.T.);
#43=FACE_BOUND('',#209,.T.);
#44=FACE_BOUND('',#218,.T.);
#45=FACE_BOUND('',#220,.T.);
#46=FACE_BOUND('',#225,.T.);
#47=PLANE('',#1297);
#48=PLANE('',#1305);
#49=PLANE('',#1307);
#50=PLANE('',#1315);
#51=PLANE('',#1317);
#52=PLANE('',#1322);
#53=PLANE('',#1323);
#54=PLANE('',#1324);
#55=PLANE('',#1325);
#56=PLANE('',#1330);
#57=PLANE('',#1331);
#58=PLANE('',#1332);
#59=PLANE('',#1333);
#60=PLANE('',#1334);
#61=PLANE('',#1335);
#62=PLANE('',#1336);
#63=PLANE('',#1343);
#64=PLANE('',#1344);
#65=PLANE('',#1345);
#66=PLANE('',#1346);
#67=PLANE('',#1347);
#68=PLANE('',#1348);
#69=PLANE('',#1349);
#70=PLANE('',#1350);
#71=PLANE('',#1351);
#72=PLANE('',#1358);
#73=PLANE('',#1359);
#74=PLANE('',#1360);
#75=PLANE('',#1361);
#76=PLANE('',#1362);
#77=PLANE('',#1363);
#78=PLANE('',#1364);
#79=PLANE('',#1365);
#80=PLANE('',#1366);
#81=PLANE('',#1367);
#82=PLANE('',#1368);
#83=FACE_OUTER_BOUND('',#141,.T.);
#84=FACE_OUTER_BOUND('',#142,.T.);
#85=FACE_OUTER_BOUND('',#143,.T.);
#86=FACE_OUTER_BOUND('',#144,.T.);
#87=FACE_OUTER_BOUND('',#145,.T.);
#88=FACE_OUTER_BOUND('',#146,.T.);
#89=FACE_OUTER_BOUND('',#147,.T.);
#90=FACE_OUTER_BOUND('',#148,.T.);
#91=FACE_OUTER_BOUND('',#149,.T.);
#92=FACE_OUTER_BOUND('',#150,.T.);
#93=FACE_OUTER_BOUND('',#151,.T.);
#94=FACE_OUTER_BOUND('',#153,.T.);
#95=FACE_OUTER_BOUND('',#154,.T.);
#96=FACE_OUTER_BOUND('',#155,.T.);
#97=FACE_OUTER_BOUND('',#163,.T.);
#98=FACE_OUTER_BOUND('',#165,.T.);
#99=FACE_OUTER_BOUND('',#166,.T.);
#100=FACE_OUTER_BOUND('',#167,.T.);
#101=FACE_OUTER_BOUND('',#173,.T.);
#102=FACE_OUTER_BOUND('',#181,.T.);
#103=FACE_OUTER_BOUND('',#182,.T.);
#104=FACE_OUTER_BOUND('',#183,.T.);
#105=FACE_OUTER_BOUND('',#184,.T.);
#106=FACE_OUTER_BOUND('',#185,.T.);
#107=FACE_OUTER_BOUND('',#186,.T.);
#108=FACE_OUTER_BOUND('',#187,.T.);
#109=FACE_OUTER_BOUND('',#188,.T.);
#110=FACE_OUTER_BOUND('',#189,.T.);
#111=FACE_OUTER_BOUND('',#190,.T.);
#112=FACE_OUTER_BOUND('',#191,.T.);
#113=FACE_OUTER_BOUND('',#197,.T.);
#114=FACE_OUTER_BOUND('',#198,.T.);
#115=FACE_OUTER_BOUND('',#199,.T.);
#116=FACE_OUTER_BOUND('',#200,.T.);
#117=FACE_OUTER_BOUND('',#201,.T.);
#118=FACE_OUTER_BOUND('',#202,.T.);
#119=FACE_OUTER_BOUND('',#203,.T.);
#120=FACE_OUTER_BOUND('',#205,.T.);
#121=FACE_OUTER_BOUND('',#207,.T.);
#122=FACE_OUTER_BOUND('',#208,.T.);
#123=FACE_OUTER_BOUND('',#210,.T.);
#124=FACE_OUTER_BOUND('',#211,.T.);
#125=FACE_OUTER_BOUND('',#212,.T.);
#126=FACE_OUTER_BOUND('',#213,.T.);
#127=FACE_OUTER_BOUND('',#214,.T.);
#128=FACE_OUTER_BOUND('',#215,.T.);
#129=FACE_OUTER_BOUND('',#216,.T.);
#130=FACE_OUTER_BOUND('',#217,.T.);
#131=FACE_OUTER_BOUND('',#219,.T.);
#132=FACE_OUTER_BOUND('',#221,.T.);
#133=FACE_OUTER_BOUND('',#222,.T.);
#134=FACE_OUTER_BOUND('',#223,.T.);
#135=FACE_OUTER_BOUND('',#224,.T.);
#136=FACE_OUTER_BOUND('',#226,.T.);
#137=FACE_OUTER_BOUND('',#227,.T.);
#138=FACE_OUTER_BOUND('',#228,.T.);
#139=FACE_OUTER_BOUND('',#229,.T.);
#140=FACE_OUTER_BOUND('',#230,.T.);
#141=EDGE_LOOP('',(#825,#826,#827,#828));
#142=EDGE_LOOP('',(#829,#830,#831,#832));
#143=EDGE_LOOP('',(#833,#834,#835,#836));
#144=EDGE_LOOP('',(#837,#838,#839,#840));
#145=EDGE_LOOP('',(#841,#842,#843,#844));
#146=EDGE_LOOP('',(#845,#846,#847,#848));
#147=EDGE_LOOP('',(#849,#850,#851,#852));
#148=EDGE_LOOP('',(#853,#854,#855,#856));
#149=EDGE_LOOP('',(#857,#858,#859,#860));
#150=EDGE_LOOP('',(#861,#862,#863,#864));
#151=EDGE_LOOP('',(#865));
#152=EDGE_LOOP('',(#866));
#153=EDGE_LOOP('',(#867,#868,#869,#870));
#154=EDGE_LOOP('',(#871,#872,#873,#874));
#155=EDGE_LOOP('',(#875,#876,#877,#878,#879,#880,#881,#882));
#156=EDGE_LOOP('',(#883));
#157=EDGE_LOOP('',(#884));
#158=EDGE_LOOP('',(#885));
#159=EDGE_LOOP('',(#886));
#160=EDGE_LOOP('',(#887));
#161=EDGE_LOOP('',(#888));
#162=EDGE_LOOP('',(#889));
#163=EDGE_LOOP('',(#890));
#164=EDGE_LOOP('',(#891));
#165=EDGE_LOOP('',(#892,#893,#894,#895));
#166=EDGE_LOOP('',(#896,#897,#898,#899));
#167=EDGE_LOOP('',(#900,#901,#902,#903,#904,#905,#906,#907));
#168=EDGE_LOOP('',(#908));
#169=EDGE_LOOP('',(#909));
#170=EDGE_LOOP('',(#910));
#171=EDGE_LOOP('',(#911));
#172=EDGE_LOOP('',(#912));
#173=EDGE_LOOP('',(#913,#914,#915,#916,#917,#918,#919,#920,#921,#922,#923,
#924,#925,#926,#927,#928));
#174=EDGE_LOOP('',(#929));
#175=EDGE_LOOP('',(#930));
#176=EDGE_LOOP('',(#931));
#177=EDGE_LOOP('',(#932));
#178=EDGE_LOOP('',(#933));
#179=EDGE_LOOP('',(#934));
#180=EDGE_LOOP('',(#935));
#181=EDGE_LOOP('',(#936,#937,#938,#939));
#182=EDGE_LOOP('',(#940,#941,#942,#943));
#183=EDGE_LOOP('',(#944,#945,#946,#947));
#184=EDGE_LOOP('',(#948,#949,#950,#951));
#185=EDGE_LOOP('',(#952,#953,#954,#955));
#186=EDGE_LOOP('',(#956,#957,#958,#959));
#187=EDGE_LOOP('',(#960,#961,#962,#963));
#188=EDGE_LOOP('',(#964,#965,#966,#967));
#189=EDGE_LOOP('',(#968,#969,#970,#971));
#190=EDGE_LOOP('',(#972,#973,#974,#975));
#191=EDGE_LOOP('',(#976,#977,#978,#979,#980,#981,#982,#983,#984,#985,#986,
#987,#988,#989,#990,#991));
#192=EDGE_LOOP('',(#992));
#193=EDGE_LOOP('',(#993));
#194=EDGE_LOOP('',(#994));
#195=EDGE_LOOP('',(#995));
#196=EDGE_LOOP('',(#996));
#197=EDGE_LOOP('',(#997,#998,#999,#1000));
#198=EDGE_LOOP('',(#1001,#1002,#1003,#1004));
#199=EDGE_LOOP('',(#1005,#1006,#1007,#1008,#1009,#1010,#1011,#1012,#1013,
#1014,#1015,#1016,#1017,#1018,#1019,#1020,#1021,#1022,#1023,#1024));
#200=EDGE_LOOP('',(#1025,#1026,#1027,#1028,#1029,#1030,#1031,#1032,#1033,
#1034,#1035,#1036,#1037,#1038,#1039,#1040,#1041,#1042,#1043,#1044));
#201=EDGE_LOOP('',(#1045,#1046,#1047,#1048));
#202=EDGE_LOOP('',(#1049,#1050,#1051,#1052));
#203=EDGE_LOOP('',(#1053));
#204=EDGE_LOOP('',(#1054));
#205=EDGE_LOOP('',(#1055,#1056,#1057,#1058));
#206=EDGE_LOOP('',(#1059));
#207=EDGE_LOOP('',(#1060,#1061,#1062,#1063,#1064,#1065,#1066,#1067));
#208=EDGE_LOOP('',(#1068,#1069,#1070,#1071));
#209=EDGE_LOOP('',(#1072));
#210=EDGE_LOOP('',(#1073,#1074,#1075,#1076));
#211=EDGE_LOOP('',(#1077,#1078,#1079,#1080));
#212=EDGE_LOOP('',(#1081,#1082,#1083,#1084,#1085,#1086,#1087,#1088));
#213=EDGE_LOOP('',(#1089,#1090,#1091,#1092,#1093,#1094,#1095,#1096));
#214=EDGE_LOOP('',(#1097,#1098,#1099,#1100,#1101,#1102,#1103,#1104));
#215=EDGE_LOOP('',(#1105,#1106,#1107,#1108));
#216=EDGE_LOOP('',(#1109,#1110,#1111,#1112));
#217=EDGE_LOOP('',(#1113));
#218=EDGE_LOOP('',(#1114));
#219=EDGE_LOOP('',(#1115,#1116,#1117,#1118));
#220=EDGE_LOOP('',(#1119));
#221=EDGE_LOOP('',(#1120,#1121,#1122,#1123));
#222=EDGE_LOOP('',(#1124,#1125,#1126,#1127,#1128,#1129,#1130,#1131));
#223=EDGE_LOOP('',(#1132,#1133,#1134,#1135));
#224=EDGE_LOOP('',(#1136,#1137,#1138,#1139));
#225=EDGE_LOOP('',(#1140));
#226=EDGE_LOOP('',(#1141,#1142,#1143,#1144,#1145,#1146,#1147,#1148));
#227=EDGE_LOOP('',(#1149,#1150,#1151,#1152,#1153,#1154,#1155,#1156));
#228=EDGE_LOOP('',(#1157,#1158,#1159,#1160));
#229=EDGE_LOOP('',(#1161,#1162,#1163,#1164));
#230=EDGE_LOOP('',(#1165,#1166,#1167,#1168,#1169,#1170,#1171,#1172));
#231=LINE('',#1710,#361);
#232=LINE('',#1716,#362);
#233=LINE('',#1722,#363);
#234=LINE('',#1728,#364);
#235=LINE('',#1734,#365);
#236=LINE('',#1740,#366);
#237=LINE('',#1746,#367);
#238=LINE('',#1752,#368);
#239=LINE('',#1758,#369);
#240=LINE('',#1764,#370);
#241=LINE('',#1774,#371);
#242=LINE('',#1778,#372);
#243=LINE('',#1782,#373);
#244=LINE('',#1787,#374);
#245=LINE('',#1789,#375);
#246=LINE('',#1790,#376);
#247=LINE('',#1792,#377);
#248=LINE('',#1794,#378);
#249=LINE('',#1796,#379);
#250=LINE('',#1805,#380);
#251=LINE('',#1810,#381);
#252=LINE('',#1814,#382);
#253=LINE('',#1819,#383);
#254=LINE('',#1821,#384);
#255=LINE('',#1822,#385);
#256=LINE('',#1824,#386);
#257=LINE('',#1826,#387);
#258=LINE('',#1828,#388);
#259=LINE('',#1835,#389);
#260=LINE('',#1837,#390);
#261=LINE('',#1839,#391);
#262=LINE('',#1841,#392);
#263=LINE('',#1843,#393);
#264=LINE('',#1845,#394);
#265=LINE('',#1846,#395);
#266=LINE('',#1848,#396);
#267=LINE('',#1850,#397);
#268=LINE('',#1852,#398);
#269=LINE('',#1854,#399);
#270=LINE('',#1856,#400);
#271=LINE('',#1858,#401);
#272=LINE('',#1859,#402);
#273=LINE('',#1863,#403);
#274=LINE('',#1865,#404);
#275=LINE('',#1866,#405);
#276=LINE('',#1868,#406);
#277=LINE('',#1870,#407);
#278=LINE('',#1872,#408);
#279=LINE('',#1874,#409);
#280=LINE('',#1878,#410);
#281=LINE('',#1881,#411);
#282=LINE('',#1884,#412);
#283=LINE('',#1887,#413);
#284=LINE('',#1888,#414);
#285=LINE('',#1891,#415);
#286=LINE('',#1892,#416);
#287=LINE('',#1895,#417);
#288=LINE('',#1897,#418);
#289=LINE('',#1899,#419);
#290=LINE('',#1901,#420);
#291=LINE('',#1903,#421);
#292=LINE('',#1904,#422);
#293=LINE('',#1906,#423);
#294=LINE('',#1908,#424);
#295=LINE('',#1910,#425);
#296=LINE('',#1912,#426);
#297=LINE('',#1914,#427);
#298=LINE('',#1915,#428);
#299=LINE('',#1917,#429);
#300=LINE('',#1919,#430);
#301=LINE('',#1922,#431);
#302=LINE('',#1924,#432);
#303=LINE('',#1926,#433);
#304=LINE('',#1928,#434);
#305=LINE('',#1929,#435);
#306=LINE('',#1931,#436);
#307=LINE('',#1933,#437);
#308=LINE('',#1935,#438);
#309=LINE('',#1937,#439);
#310=LINE('',#1938,#440);
#311=LINE('',#1941,#441);
#312=LINE('',#1943,#442);
#313=LINE('',#1945,#443);
#314=LINE('',#1947,#444);
#315=LINE('',#1948,#445);
#316=LINE('',#1950,#446);
#317=LINE('',#1952,#447);
#318=LINE('',#1954,#448);
#319=LINE('',#1956,#449);
#320=LINE('',#1957,#450);
#321=LINE('',#1962,#451);
#322=LINE('',#1968,#452);
#323=LINE('',#1974,#453);
#324=LINE('',#1976,#454);
#325=LINE('',#1978,#455);
#326=LINE('',#1979,#456);
#327=LINE('',#1982,#457);
#328=LINE('',#1983,#458);
#329=LINE('',#1985,#459);
#330=LINE('',#1986,#460);
#331=LINE('',#1987,#461);
#332=LINE('',#1989,#462);
#333=LINE('',#1992,#463);
#334=LINE('',#1993,#464);
#335=LINE('',#1996,#465);
#336=LINE('',#1997,#466);
#337=LINE('',#1999,#467);
#338=LINE('',#2000,#468);
#339=LINE('',#2002,#469);
#340=LINE('',#2004,#470);
#341=LINE('',#2009,#471);
#342=LINE('',#2015,#472);
#343=LINE('',#2021,#473);
#344=LINE('',#2023,#474);
#345=LINE('',#2025,#475);
#346=LINE('',#2026,#476);
#347=LINE('',#2030,#477);
#348=LINE('',#2031,#478);
#349=LINE('',#2032,#479);
#350=LINE('',#2034,#480);
#351=LINE('',#2035,#481);
#352=LINE('',#2037,#482);
#353=LINE('',#2038,#483);
#354=LINE('',#2041,#484);
#355=LINE('',#2042,#485);
#356=LINE('',#2044,#486);
#357=LINE('',#2046,#487);
#358=LINE('',#2047,#488);
#359=LINE('',#2049,#489);
#360=LINE('',#2052,#490);
#361=VECTOR('',#1375,1.7);
#362=VECTOR('',#1382,1.7);
#363=VECTOR('',#1389,1.7);
#364=VECTOR('',#1396,1.7);
#365=VECTOR('',#1403,1.7);
#366=VECTOR('',#1410,1.7);
#367=VECTOR('',#1417,1.7);
#368=VECTOR('',#1424,1.7);
#369=VECTOR('',#1431,1.7);
#370=VECTOR('',#1438,1.7);
#371=VECTOR('',#1451,7.4);
#372=VECTOR('',#1454,10.);
#373=VECTOR('',#1457,10.);
#374=VECTOR('',#1462,10.);
#375=VECTOR('',#1463,10.);
#376=VECTOR('',#1464,10.);
#377=VECTOR('',#1465,10.);
#378=VECTOR('',#1466,10.);
#379=VECTOR('',#1467,10.);
#380=VECTOR('',#1478,7.4);
#381=VECTOR('',#1483,10.);
#382=VECTOR('',#1486,10.);
#383=VECTOR('',#1491,10.);
#384=VECTOR('',#1492,10.);
#385=VECTOR('',#1493,10.);
#386=VECTOR('',#1494,10.);
#387=VECTOR('',#1495,10.);
#388=VECTOR('',#1496,10.);
#389=VECTOR('',#1503,10.);
#390=VECTOR('',#1504,10.);
#391=VECTOR('',#1505,10.);
#392=VECTOR('',#1506,10.);
#393=VECTOR('',#1507,10.);
#394=VECTOR('',#1508,10.);
#395=VECTOR('',#1509,10.);
#396=VECTOR('',#1510,10.);
#397=VECTOR('',#1511,10.);
#398=VECTOR('',#1512,10.);
#399=VECTOR('',#1513,10.);
#400=VECTOR('',#1514,10.);
#401=VECTOR('',#1515,10.);
#402=VECTOR('',#1516,10.);
#403=VECTOR('',#1521,9.15);
#404=VECTOR('',#1524,10.);
#405=VECTOR('',#1525,10.);
#406=VECTOR('',#1528,10.);
#407=VECTOR('',#1531,10.);
#408=VECTOR('',#1534,10.);
#409=VECTOR('',#1537,10.);
#410=VECTOR('',#1542,9.15);
#411=VECTOR('',#1545,10.);
#412=VECTOR('',#1548,10.);
#413=VECTOR('',#1551,10.);
#414=VECTOR('',#1552,10.);
#415=VECTOR('',#1555,10.);
#416=VECTOR('',#1556,10.);
#417=VECTOR('',#1559,10.);
#418=VECTOR('',#1560,10.);
#419=VECTOR('',#1561,10.);
#420=VECTOR('',#1562,10.);
#421=VECTOR('',#1563,10.);
#422=VECTOR('',#1564,10.);
#423=VECTOR('',#1565,10.);
#424=VECTOR('',#1566,10.);
#425=VECTOR('',#1567,10.);
#426=VECTOR('',#1568,10.);
#427=VECTOR('',#1569,10.);
#428=VECTOR('',#1570,10.);
#429=VECTOR('',#1573,10.);
#430=VECTOR('',#1576,10.);
#431=VECTOR('',#1579,10.);
#432=VECTOR('',#1580,10.);
#433=VECTOR('',#1581,10.);
#434=VECTOR('',#1582,10.);
#435=VECTOR('',#1583,10.);
#436=VECTOR('',#1584,10.);
#437=VECTOR('',#1585,10.);
#438=VECTOR('',#1586,10.);
#439=VECTOR('',#1587,10.);
#440=VECTOR('',#1588,10.);
#441=VECTOR('',#1591,10.);
#442=VECTOR('',#1592,10.);
#443=VECTOR('',#1593,10.);
#444=VECTOR('',#1594,10.);
#445=VECTOR('',#1595,10.);
#446=VECTOR('',#1596,10.);
#447=VECTOR('',#1597,10.);
#448=VECTOR('',#1598,10.);
#449=VECTOR('',#1599,10.);
#450=VECTOR('',#1600,10.);
#451=VECTOR('',#1605,10.2);
#452=VECTOR('',#1612,12.4);
#453=VECTOR('',#1619,10.);
#454=VECTOR('',#1620,10.);
#455=VECTOR('',#1621,10.);
#456=VECTOR('',#1622,10.);
#457=VECTOR('',#1625,10.);
#458=VECTOR('',#1626,10.);
#459=VECTOR('',#1627,10.);
#460=VECTOR('',#1628,10.);
#461=VECTOR('',#1629,10.);
#462=VECTOR('',#1632,10.);
#463=VECTOR('',#1635,10.);
#464=VECTOR('',#1636,10.);
#465=VECTOR('',#1639,10.);
#466=VECTOR('',#1640,10.);
#467=VECTOR('',#1643,10.);
#468=VECTOR('',#1644,10.);
#469=VECTOR('',#1647,10.);
#470=VECTOR('',#1650,10.);
#471=VECTOR('',#1655,10.2);
#472=VECTOR('',#1662,12.4);
#473=VECTOR('',#1669,10.);
#474=VECTOR('',#1670,10.);
#475=VECTOR('',#1671,10.);
#476=VECTOR('',#1672,10.);
#477=VECTOR('',#1675,10.);
#478=VECTOR('',#1676,10.);
#479=VECTOR('',#1677,10.);
#480=VECTOR('',#1680,10.);
#481=VECTOR('',#1681,10.);
#482=VECTOR('',#1682,10.);
#483=VECTOR('',#1683,10.);
#484=VECTOR('',#1686,10.);
#485=VECTOR('',#1687,10.);
#486=VECTOR('',#1690,10.);
#487=VECTOR('',#1693,10.);
#488=VECTOR('',#1694,10.);
#489=VECTOR('',#1697,10.);
#490=VECTOR('',#1702,10.);
#491=CIRCLE('',#1268,1.7);
#492=CIRCLE('',#1269,1.7);
#493=CIRCLE('',#1271,1.7);
#494=CIRCLE('',#1272,1.7);
#495=CIRCLE('',#1274,1.7);
#496=CIRCLE('',#1275,1.7);
#497=CIRCLE('',#1277,1.7);
#498=CIRCLE('',#1278,1.7);
#499=CIRCLE('',#1280,1.7);
#500=CIRCLE('',#1281,1.7);
#501=CIRCLE('',#1283,1.7);
#502=CIRCLE('',#1284,1.7);
#503=CIRCLE('',#1286,1.7);
#504=CIRCLE('',#1287,1.7);
#505=CIRCLE('',#1289,1.7);
#506=CIRCLE('',#1290,1.7);
#507=CIRCLE('',#1292,1.7);
#508=CIRCLE('',#1293,1.7);
#509=CIRCLE('',#1295,1.7);
#510=CIRCLE('',#1296,1.7);
#511=CIRCLE('',#1298,9.15);
#512=CIRCLE('',#1299,7.4);
#513=CIRCLE('',#1301,7.4);
#514=CIRCLE('',#1303,16.);
#515=CIRCLE('',#1304,16.);
#516=CIRCLE('',#1306,16.);
#517=CIRCLE('',#1308,9.15);
#518=CIRCLE('',#1309,7.4);
#519=CIRCLE('',#1311,7.4);
#520=CIRCLE('',#1313,16.);
#521=CIRCLE('',#1314,16.);
#522=CIRCLE('',#1316,16.);
#523=CIRCLE('',#1318,16.);
#524=CIRCLE('',#1319,9.15);
#525=CIRCLE('',#1327,9.15);
#526=CIRCLE('',#1329,16.);
#527=CIRCLE('',#1338,10.2);
#528=CIRCLE('',#1339,10.2);
#529=CIRCLE('',#1341,12.4);
#530=CIRCLE('',#1342,12.4);
#531=CIRCLE('',#1353,10.2);
#532=CIRCLE('',#1354,10.2);
#533=CIRCLE('',#1356,12.4);
#534=CIRCLE('',#1357,12.4);
#535=VERTEX_POINT('',#1707);
#536=VERTEX_POINT('',#1709);
#537=VERTEX_POINT('',#1713);
#538=VERTEX_POINT('',#1715);
#539=VERTEX_POINT('',#1719);
#540=VERTEX_POINT('',#1721);
#541=VERTEX_POINT('',#1725);
#542=VERTEX_POINT('',#1727);
#543=VERTEX_POINT('',#1731);
#544=VERTEX_POINT('',#1733);
#545=VERTEX_POINT('',#1737);
#546=VERTEX_POINT('',#1739);
#547=VERTEX_POINT('',#1743);
#548=VERTEX_POINT('',#1745);
#549=VERTEX_POINT('',#1749);
#550=VERTEX_POINT('',#1751);
#551=VERTEX_POINT('',#1755);
#552=VERTEX_POINT('',#1757);
#553=VERTEX_POINT('',#1761);
#554=VERTEX_POINT('',#1763);
#555=VERTEX_POINT('',#1767);
#556=VERTEX_POINT('',#1769);
#557=VERTEX_POINT('',#1772);
#558=VERTEX_POINT('',#1776);
#559=VERTEX_POINT('',#1777);
#560=VERTEX_POINT('',#1779);
#561=VERTEX_POINT('',#1781);
#562=VERTEX_POINT('',#1785);
#563=VERTEX_POINT('',#1786);
#564=VERTEX_POINT('',#1788);
#565=VERTEX_POINT('',#1791);
#566=VERTEX_POINT('',#1793);
#567=VERTEX_POINT('',#1795);
#568=VERTEX_POINT('',#1799);
#569=VERTEX_POINT('',#1801);
#570=VERTEX_POINT('',#1804);
#571=VERTEX_POINT('',#1808);
#572=VERTEX_POINT('',#1809);
#573=VERTEX_POINT('',#1811);
#574=VERTEX_POINT('',#1813);
#575=VERTEX_POINT('',#1817);
#576=VERTEX_POINT('',#1818);
#577=VERTEX_POINT('',#1820);
#578=VERTEX_POINT('',#1823);
#579=VERTEX_POINT('',#1825);
#580=VERTEX_POINT('',#1827);
#581=VERTEX_POINT('',#1831);
#582=VERTEX_POINT('',#1832);
#583=VERTEX_POINT('',#1834);
#584=VERTEX_POINT('',#1836);
#585=VERTEX_POINT('',#1838);
#586=VERTEX_POINT('',#1840);
#587=VERTEX_POINT('',#1842);
#588=VERTEX_POINT('',#1844);
#589=VERTEX_POINT('',#1847);
#590=VERTEX_POINT('',#1849);
#591=VERTEX_POINT('',#1851);
#592=VERTEX_POINT('',#1853);
#593=VERTEX_POINT('',#1855);
#594=VERTEX_POINT('',#1857);
#595=VERTEX_POINT('',#1860);
#596=VERTEX_POINT('',#1876);
#597=VERTEX_POINT('',#1880);
#598=VERTEX_POINT('',#1882);
#599=VERTEX_POINT('',#1886);
#600=VERTEX_POINT('',#1890);
#601=VERTEX_POINT('',#1894);
#602=VERTEX_POINT('',#1896);
#603=VERTEX_POINT('',#1898);
#604=VERTEX_POINT('',#1900);
#605=VERTEX_POINT('',#1902);
#606=VERTEX_POINT('',#1905);
#607=VERTEX_POINT('',#1907);
#608=VERTEX_POINT('',#1909);
#609=VERTEX_POINT('',#1911);
#610=VERTEX_POINT('',#1913);
#611=VERTEX_POINT('',#1921);
#612=VERTEX_POINT('',#1923);
#613=VERTEX_POINT('',#1925);
#614=VERTEX_POINT('',#1927);
#615=VERTEX_POINT('',#1930);
#616=VERTEX_POINT('',#1932);
#617=VERTEX_POINT('',#1934);
#618=VERTEX_POINT('',#1936);
#619=VERTEX_POINT('',#1940);
#620=VERTEX_POINT('',#1942);
#621=VERTEX_POINT('',#1944);
#622=VERTEX_POINT('',#1946);
#623=VERTEX_POINT('',#1949);
#624=VERTEX_POINT('',#1951);
#625=VERTEX_POINT('',#1953);
#626=VERTEX_POINT('',#1955);
#627=VERTEX_POINT('',#1959);
#628=VERTEX_POINT('',#1961);
#629=VERTEX_POINT('',#1965);
#630=VERTEX_POINT('',#1967);
#631=VERTEX_POINT('',#1972);
#632=VERTEX_POINT('',#1973);
#633=VERTEX_POINT('',#1975);
#634=VERTEX_POINT('',#1977);
#635=VERTEX_POINT('',#1981);
#636=VERTEX_POINT('',#1984);
#637=VERTEX_POINT('',#1991);
#638=VERTEX_POINT('',#1995);
#639=VERTEX_POINT('',#2006);
#640=VERTEX_POINT('',#2008);
#641=VERTEX_POINT('',#2012);
#642=VERTEX_POINT('',#2014);
#643=VERTEX_POINT('',#2019);
#644=VERTEX_POINT('',#2020);
#645=VERTEX_POINT('',#2022);
#646=VERTEX_POINT('',#2024);
#647=VERTEX_POINT('',#2028);
#648=VERTEX_POINT('',#2029);
#649=VERTEX_POINT('',#2036);
#650=VERTEX_POINT('',#2040);
#651=EDGE_CURVE('',#535,#535,#491,.T.);
#652=EDGE_CURVE('',#535,#536,#231,.T.);
#653=EDGE_CURVE('',#536,#536,#492,.T.);
#654=EDGE_CURVE('',#537,#537,#493,.T.);
#655=EDGE_CURVE('',#537,#538,#232,.T.);
#656=EDGE_CURVE('',#538,#538,#494,.T.);
#657=EDGE_CURVE('',#539,#539,#495,.T.);
#658=EDGE_CURVE('',#539,#540,#233,.T.);
#659=EDGE_CURVE('',#540,#540,#496,.T.);
#660=EDGE_CURVE('',#541,#541,#497,.T.);
#661=EDGE_CURVE('',#541,#542,#234,.T.);
#662=EDGE_CURVE('',#542,#542,#498,.T.);
#663=EDGE_CURVE('',#543,#543,#499,.T.);
#664=EDGE_CURVE('',#543,#544,#235,.T.);
#665=EDGE_CURVE('',#544,#544,#500,.T.);
#666=EDGE_CURVE('',#545,#545,#501,.T.);
#667=EDGE_CURVE('',#545,#546,#236,.T.);
#668=EDGE_CURVE('',#546,#546,#502,.T.);
#669=EDGE_CURVE('',#547,#547,#503,.T.);
#670=EDGE_CURVE('',#547,#548,#237,.T.);
#671=EDGE_CURVE('',#548,#548,#504,.T.);
#672=EDGE_CURVE('',#549,#549,#505,.T.);
#673=EDGE_CURVE('',#549,#550,#238,.T.);
#674=EDGE_CURVE('',#550,#550,#506,.T.);
#675=EDGE_CURVE('',#551,#551,#507,.T.);
#676=EDGE_CURVE('',#551,#552,#239,.T.);
#677=EDGE_CURVE('',#552,#552,#508,.T.);
#678=EDGE_CURVE('',#553,#553,#509,.T.);
#679=EDGE_CURVE('',#553,#554,#240,.T.);
#680=EDGE_CURVE('',#554,#554,#510,.T.);
#681=EDGE_CURVE('',#555,#555,#511,.T.);
#682=EDGE_CURVE('',#556,#556,#512,.T.);
#683=EDGE_CURVE('',#557,#557,#513,.T.);
#684=EDGE_CURVE('',#557,#556,#241,.T.);
#685=EDGE_CURVE('',#558,#559,#242,.T.);
#686=EDGE_CURVE('',#560,#558,#514,.T.);
#687=EDGE_CURVE('',#561,#560,#243,.T.);
#688=EDGE_CURVE('',#559,#561,#515,.T.);
#689=EDGE_CURVE('',#562,#563,#244,.T.);
#690=EDGE_CURVE('',#564,#562,#245,.T.);
#691=EDGE_CURVE('',#564,#559,#246,.T.);
#692=EDGE_CURVE('',#561,#565,#247,.T.);
#693=EDGE_CURVE('',#566,#565,#248,.T.);
#694=EDGE_CURVE('',#567,#566,#249,.T.);
#695=EDGE_CURVE('',#567,#563,#516,.T.);
#696=EDGE_CURVE('',#568,#568,#517,.T.);
#697=EDGE_CURVE('',#569,#569,#518,.T.);
#698=EDGE_CURVE('',#569,#570,#250,.T.);
#699=EDGE_CURVE('',#570,#570,#519,.T.);
#700=EDGE_CURVE('',#571,#572,#251,.T.);
#701=EDGE_CURVE('',#573,#571,#520,.T.);
#702=EDGE_CURVE('',#574,#573,#252,.T.);
#703=EDGE_CURVE('',#572,#574,#521,.T.);
#704=EDGE_CURVE('',#575,#576,#253,.T.);
#705=EDGE_CURVE('',#577,#575,#254,.T.);
#706=EDGE_CURVE('',#577,#572,#255,.T.);
#707=EDGE_CURVE('',#574,#578,#256,.T.);
#708=EDGE_CURVE('',#579,#578,#257,.T.);
#709=EDGE_CURVE('',#580,#579,#258,.T.);
#710=EDGE_CURVE('',#580,#576,#522,.T.);
#711=EDGE_CURVE('',#581,#582,#523,.T.);
#712=EDGE_CURVE('',#582,#583,#259,.T.);
#713=EDGE_CURVE('',#584,#583,#260,.T.);
#714=EDGE_CURVE('',#584,#585,#261,.T.);
#715=EDGE_CURVE('',#586,#585,#262,.T.);
#716=EDGE_CURVE('',#587,#586,#263,.T.);
#717=EDGE_CURVE('',#588,#587,#264,.T.);
#718=EDGE_CURVE('',#560,#588,#265,.T.);
#719=EDGE_CURVE('',#589,#558,#266,.T.);
#720=EDGE_CURVE('',#590,#589,#267,.T.);
#721=EDGE_CURVE('',#591,#590,#268,.T.);
#722=EDGE_CURVE('',#592,#591,#269,.T.);
#723=EDGE_CURVE('',#592,#593,#270,.T.);
#724=EDGE_CURVE('',#594,#593,#271,.T.);
#725=EDGE_CURVE('',#594,#581,#272,.T.);
#726=EDGE_CURVE('',#595,#595,#524,.T.);
#727=EDGE_CURVE('',#555,#595,#273,.T.);
#728=EDGE_CURVE('',#582,#567,#274,.T.);
#729=EDGE_CURVE('',#563,#581,#275,.T.);
#730=EDGE_CURVE('',#565,#588,#276,.T.);
#731=EDGE_CURVE('',#589,#564,#277,.T.);
#732=EDGE_CURVE('',#583,#566,#278,.T.);
#733=EDGE_CURVE('',#562,#594,#279,.T.);
#734=EDGE_CURVE('',#596,#596,#525,.T.);
#735=EDGE_CURVE('',#596,#568,#280,.T.);
#736=EDGE_CURVE('',#597,#580,#281,.T.);
#737=EDGE_CURVE('',#598,#597,#526,.T.);
#738=EDGE_CURVE('',#576,#598,#282,.T.);
#739=EDGE_CURVE('',#573,#599,#283,.T.);
#740=EDGE_CURVE('',#578,#599,#284,.T.);
#741=EDGE_CURVE('',#600,#577,#285,.T.);
#742=EDGE_CURVE('',#600,#571,#286,.T.);
#743=EDGE_CURVE('',#601,#600,#287,.T.);
#744=EDGE_CURVE('',#602,#601,#288,.T.);
#745=EDGE_CURVE('',#603,#602,#289,.T.);
#746=EDGE_CURVE('',#603,#604,#290,.T.);
#747=EDGE_CURVE('',#605,#604,#291,.T.);
#748=EDGE_CURVE('',#605,#598,#292,.T.);
#749=EDGE_CURVE('',#597,#606,#293,.T.);
#750=EDGE_CURVE('',#607,#606,#294,.T.);
#751=EDGE_CURVE('',#607,#608,#295,.T.);
#752=EDGE_CURVE('',#609,#608,#296,.T.);
#753=EDGE_CURVE('',#610,#609,#297,.T.);
#754=EDGE_CURVE('',#599,#610,#298,.T.);
#755=EDGE_CURVE('',#606,#579,#299,.T.);
#756=EDGE_CURVE('',#575,#605,#300,.T.);
#757=EDGE_CURVE('',#593,#611,#301,.T.);
#758=EDGE_CURVE('',#611,#612,#302,.T.);
#759=EDGE_CURVE('',#612,#613,#303,.T.);
#760=EDGE_CURVE('',#613,#614,#304,.T.);
#761=EDGE_CURVE('',#614,#601,#305,.T.);
#762=EDGE_CURVE('',#604,#615,#306,.T.);
#763=EDGE_CURVE('',#615,#616,#307,.T.);
#764=EDGE_CURVE('',#616,#617,#308,.T.);
#765=EDGE_CURVE('',#617,#618,#309,.T.);
#766=EDGE_CURVE('',#618,#590,#310,.T.);
#767=EDGE_CURVE('',#587,#619,#311,.T.);
#768=EDGE_CURVE('',#619,#620,#312,.T.);
#769=EDGE_CURVE('',#620,#621,#313,.T.);
#770=EDGE_CURVE('',#621,#622,#314,.T.);
#771=EDGE_CURVE('',#622,#607,#315,.T.);
#772=EDGE_CURVE('',#610,#623,#316,.T.);
#773=EDGE_CURVE('',#623,#624,#317,.T.);
#774=EDGE_CURVE('',#624,#625,#318,.T.);
#775=EDGE_CURVE('',#625,#626,#319,.T.);
#776=EDGE_CURVE('',#626,#584,#320,.T.);
#777=EDGE_CURVE('',#627,#627,#527,.T.);
#778=EDGE_CURVE('',#627,#628,#321,.T.);
#779=EDGE_CURVE('',#628,#628,#528,.T.);
#780=EDGE_CURVE('',#629,#629,#529,.T.);
#781=EDGE_CURVE('',#629,#630,#322,.T.);
#782=EDGE_CURVE('',#630,#630,#530,.T.);
#783=EDGE_CURVE('',#631,#632,#323,.T.);
#784=EDGE_CURVE('',#633,#632,#324,.T.);
#785=EDGE_CURVE('',#634,#633,#325,.T.);
#786=EDGE_CURVE('',#631,#634,#326,.T.);
#787=EDGE_CURVE('',#622,#635,#327,.T.);
#788=EDGE_CURVE('',#616,#621,#328,.T.);
#789=EDGE_CURVE('',#636,#615,#329,.T.);
#790=EDGE_CURVE('',#634,#636,#330,.T.);
#791=EDGE_CURVE('',#635,#633,#331,.T.);
#792=EDGE_CURVE('',#617,#620,#332,.T.);
#793=EDGE_CURVE('',#637,#636,#333,.T.);
#794=EDGE_CURVE('',#637,#631,#334,.T.);
#795=EDGE_CURVE('',#635,#638,#335,.T.);
#796=EDGE_CURVE('',#632,#638,#336,.T.);
#797=EDGE_CURVE('',#638,#619,#337,.T.);
#798=EDGE_CURVE('',#618,#637,#338,.T.);
#799=EDGE_CURVE('',#608,#586,#339,.T.);
#800=EDGE_CURVE('',#591,#603,#340,.T.);
#801=EDGE_CURVE('',#639,#639,#531,.T.);
#802=EDGE_CURVE('',#639,#640,#341,.T.);
#803=EDGE_CURVE('',#640,#640,#532,.T.);
#804=EDGE_CURVE('',#641,#641,#533,.T.);
#805=EDGE_CURVE('',#641,#642,#342,.T.);
#806=EDGE_CURVE('',#642,#642,#534,.T.);
#807=EDGE_CURVE('',#643,#644,#343,.T.);
#808=EDGE_CURVE('',#645,#644,#344,.T.);
#809=EDGE_CURVE('',#646,#645,#345,.T.);
#810=EDGE_CURVE('',#643,#646,#346,.T.);
#811=EDGE_CURVE('',#647,#648,#347,.T.);
#812=EDGE_CURVE('',#647,#643,#348,.T.);
#813=EDGE_CURVE('',#646,#648,#349,.T.);
#814=EDGE_CURVE('',#614,#647,#350,.T.);
#815=EDGE_CURVE('',#613,#624,#351,.T.);
#816=EDGE_CURVE('',#649,#623,#352,.T.);
#817=EDGE_CURVE('',#644,#649,#353,.T.);
#818=EDGE_CURVE('',#650,#649,#354,.T.);
#819=EDGE_CURVE('',#650,#645,#355,.T.);
#820=EDGE_CURVE('',#612,#625,#356,.T.);
#821=EDGE_CURVE('',#648,#611,#357,.T.);
#822=EDGE_CURVE('',#626,#650,#358,.T.);
#823=EDGE_CURVE('',#585,#609,#359,.T.);
#824=EDGE_CURVE('',#602,#592,#360,.T.);
#825=ORIENTED_EDGE('',*,*,#651,.F.);
#826=ORIENTED_EDGE('',*,*,#652,.T.);
#827=ORIENTED_EDGE('',*,*,#653,.F.);
#828=ORIENTED_EDGE('',*,*,#652,.F.);
#829=ORIENTED_EDGE('',*,*,#654,.F.);
#830=ORIENTED_EDGE('',*,*,#655,.T.);
#831=ORIENTED_EDGE('',*,*,#656,.F.);
#832=ORIENTED_EDGE('',*,*,#655,.F.);
#833=ORIENTED_EDGE('',*,*,#657,.F.);
#834=ORIENTED_EDGE('',*,*,#658,.T.);
#835=ORIENTED_EDGE('',*,*,#659,.F.);
#836=ORIENTED_EDGE('',*,*,#658,.F.);
#837=ORIENTED_EDGE('',*,*,#660,.F.);
#838=ORIENTED_EDGE('',*,*,#661,.T.);
#839=ORIENTED_EDGE('',*,*,#662,.F.);
#840=ORIENTED_EDGE('',*,*,#661,.F.);
#841=ORIENTED_EDGE('',*,*,#663,.F.);
#842=ORIENTED_EDGE('',*,*,#664,.T.);
#843=ORIENTED_EDGE('',*,*,#665,.F.);
#844=ORIENTED_EDGE('',*,*,#664,.F.);
#845=ORIENTED_EDGE('',*,*,#666,.F.);
#846=ORIENTED_EDGE('',*,*,#667,.T.);
#847=ORIENTED_EDGE('',*,*,#668,.F.);
#848=ORIENTED_EDGE('',*,*,#667,.F.);
#849=ORIENTED_EDGE('',*,*,#669,.F.);
#850=ORIENTED_EDGE('',*,*,#670,.T.);
#851=ORIENTED_EDGE('',*,*,#671,.F.);
#852=ORIENTED_EDGE('',*,*,#670,.F.);
#853=ORIENTED_EDGE('',*,*,#672,.F.);
#854=ORIENTED_EDGE('',*,*,#673,.T.);
#855=ORIENTED_EDGE('',*,*,#674,.F.);
#856=ORIENTED_EDGE('',*,*,#673,.F.);
#857=ORIENTED_EDGE('',*,*,#675,.F.);
#858=ORIENTED_EDGE('',*,*,#676,.T.);
#859=ORIENTED_EDGE('',*,*,#677,.F.);
#860=ORIENTED_EDGE('',*,*,#676,.F.);
#861=ORIENTED_EDGE('',*,*,#678,.F.);
#862=ORIENTED_EDGE('',*,*,#679,.T.);
#863=ORIENTED_EDGE('',*,*,#680,.F.);
#864=ORIENTED_EDGE('',*,*,#679,.F.);
#865=ORIENTED_EDGE('',*,*,#681,.F.);
#866=ORIENTED_EDGE('',*,*,#682,.T.);
#867=ORIENTED_EDGE('',*,*,#683,.F.);
#868=ORIENTED_EDGE('',*,*,#684,.T.);
#869=ORIENTED_EDGE('',*,*,#682,.F.);
#870=ORIENTED_EDGE('',*,*,#684,.F.);
#871=ORIENTED_EDGE('',*,*,#685,.F.);
#872=ORIENTED_EDGE('',*,*,#686,.F.);
#873=ORIENTED_EDGE('',*,*,#687,.F.);
#874=ORIENTED_EDGE('',*,*,#688,.F.);
#875=ORIENTED_EDGE('',*,*,#689,.F.);
#876=ORIENTED_EDGE('',*,*,#690,.F.);
#877=ORIENTED_EDGE('',*,*,#691,.T.);
#878=ORIENTED_EDGE('',*,*,#688,.T.);
#879=ORIENTED_EDGE('',*,*,#692,.T.);
#880=ORIENTED_EDGE('',*,*,#693,.F.);
#881=ORIENTED_EDGE('',*,*,#694,.F.);
#882=ORIENTED_EDGE('',*,*,#695,.T.);
#883=ORIENTED_EDGE('',*,*,#651,.T.);
#884=ORIENTED_EDGE('',*,*,#654,.T.);
#885=ORIENTED_EDGE('',*,*,#657,.T.);
#886=ORIENTED_EDGE('',*,*,#660,.T.);
#887=ORIENTED_EDGE('',*,*,#663,.T.);
#888=ORIENTED_EDGE('',*,*,#666,.T.);
#889=ORIENTED_EDGE('',*,*,#683,.T.);
#890=ORIENTED_EDGE('',*,*,#696,.F.);
#891=ORIENTED_EDGE('',*,*,#697,.T.);
#892=ORIENTED_EDGE('',*,*,#697,.F.);
#893=ORIENTED_EDGE('',*,*,#698,.T.);
#894=ORIENTED_EDGE('',*,*,#699,.F.);
#895=ORIENTED_EDGE('',*,*,#698,.F.);
#896=ORIENTED_EDGE('',*,*,#700,.F.);
#897=ORIENTED_EDGE('',*,*,#701,.F.);
#898=ORIENTED_EDGE('',*,*,#702,.F.);
#899=ORIENTED_EDGE('',*,*,#703,.F.);
#900=ORIENTED_EDGE('',*,*,#704,.F.);
#901=ORIENTED_EDGE('',*,*,#705,.F.);
#902=ORIENTED_EDGE('',*,*,#706,.T.);
#903=ORIENTED_EDGE('',*,*,#703,.T.);
#904=ORIENTED_EDGE('',*,*,#707,.T.);
#905=ORIENTED_EDGE('',*,*,#708,.F.);
#906=ORIENTED_EDGE('',*,*,#709,.F.);
#907=ORIENTED_EDGE('',*,*,#710,.T.);
#908=ORIENTED_EDGE('',*,*,#671,.T.);
#909=ORIENTED_EDGE('',*,*,#674,.T.);
#910=ORIENTED_EDGE('',*,*,#677,.T.);
#911=ORIENTED_EDGE('',*,*,#680,.T.);
#912=ORIENTED_EDGE('',*,*,#699,.T.);
#913=ORIENTED_EDGE('',*,*,#711,.T.);
#914=ORIENTED_EDGE('',*,*,#712,.T.);
#915=ORIENTED_EDGE('',*,*,#713,.F.);
#916=ORIENTED_EDGE('',*,*,#714,.T.);
#917=ORIENTED_EDGE('',*,*,#715,.F.);
#918=ORIENTED_EDGE('',*,*,#716,.F.);
#919=ORIENTED_EDGE('',*,*,#717,.F.);
#920=ORIENTED_EDGE('',*,*,#718,.F.);
#921=ORIENTED_EDGE('',*,*,#686,.T.);
#922=ORIENTED_EDGE('',*,*,#719,.F.);
#923=ORIENTED_EDGE('',*,*,#720,.F.);
#924=ORIENTED_EDGE('',*,*,#721,.F.);
#925=ORIENTED_EDGE('',*,*,#722,.F.);
#926=ORIENTED_EDGE('',*,*,#723,.T.);
#927=ORIENTED_EDGE('',*,*,#724,.F.);
#928=ORIENTED_EDGE('',*,*,#725,.T.);
#929=ORIENTED_EDGE('',*,*,#653,.T.);
#930=ORIENTED_EDGE('',*,*,#656,.T.);
#931=ORIENTED_EDGE('',*,*,#659,.T.);
#932=ORIENTED_EDGE('',*,*,#662,.T.);
#933=ORIENTED_EDGE('',*,*,#665,.T.);
#934=ORIENTED_EDGE('',*,*,#668,.T.);
#935=ORIENTED_EDGE('',*,*,#726,.T.);
#936=ORIENTED_EDGE('',*,*,#681,.T.);
#937=ORIENTED_EDGE('',*,*,#727,.T.);
#938=ORIENTED_EDGE('',*,*,#726,.F.);
#939=ORIENTED_EDGE('',*,*,#727,.F.);
#940=ORIENTED_EDGE('',*,*,#728,.F.);
#941=ORIENTED_EDGE('',*,*,#711,.F.);
#942=ORIENTED_EDGE('',*,*,#729,.F.);
#943=ORIENTED_EDGE('',*,*,#695,.F.);
#944=ORIENTED_EDGE('',*,*,#687,.T.);
#945=ORIENTED_EDGE('',*,*,#718,.T.);
#946=ORIENTED_EDGE('',*,*,#730,.F.);
#947=ORIENTED_EDGE('',*,*,#692,.F.);
#948=ORIENTED_EDGE('',*,*,#685,.T.);
#949=ORIENTED_EDGE('',*,*,#691,.F.);
#950=ORIENTED_EDGE('',*,*,#731,.F.);
#951=ORIENTED_EDGE('',*,*,#719,.T.);
#952=ORIENTED_EDGE('',*,*,#728,.T.);
#953=ORIENTED_EDGE('',*,*,#694,.T.);
#954=ORIENTED_EDGE('',*,*,#732,.F.);
#955=ORIENTED_EDGE('',*,*,#712,.F.);
#956=ORIENTED_EDGE('',*,*,#729,.T.);
#957=ORIENTED_EDGE('',*,*,#725,.F.);
#958=ORIENTED_EDGE('',*,*,#733,.F.);
#959=ORIENTED_EDGE('',*,*,#689,.T.);
#960=ORIENTED_EDGE('',*,*,#734,.F.);
#961=ORIENTED_EDGE('',*,*,#735,.T.);
#962=ORIENTED_EDGE('',*,*,#696,.T.);
#963=ORIENTED_EDGE('',*,*,#735,.F.);
#964=ORIENTED_EDGE('',*,*,#736,.F.);
#965=ORIENTED_EDGE('',*,*,#737,.F.);
#966=ORIENTED_EDGE('',*,*,#738,.F.);
#967=ORIENTED_EDGE('',*,*,#710,.F.);
#968=ORIENTED_EDGE('',*,*,#702,.T.);
#969=ORIENTED_EDGE('',*,*,#739,.T.);
#970=ORIENTED_EDGE('',*,*,#740,.F.);
#971=ORIENTED_EDGE('',*,*,#707,.F.);
#972=ORIENTED_EDGE('',*,*,#700,.T.);
#973=ORIENTED_EDGE('',*,*,#706,.F.);
#974=ORIENTED_EDGE('',*,*,#741,.F.);
#975=ORIENTED_EDGE('',*,*,#742,.T.);
#976=ORIENTED_EDGE('',*,*,#742,.F.);
#977=ORIENTED_EDGE('',*,*,#743,.F.);
#978=ORIENTED_EDGE('',*,*,#744,.F.);
#979=ORIENTED_EDGE('',*,*,#745,.F.);
#980=ORIENTED_EDGE('',*,*,#746,.T.);
#981=ORIENTED_EDGE('',*,*,#747,.F.);
#982=ORIENTED_EDGE('',*,*,#748,.T.);
#983=ORIENTED_EDGE('',*,*,#737,.T.);
#984=ORIENTED_EDGE('',*,*,#749,.T.);
#985=ORIENTED_EDGE('',*,*,#750,.F.);
#986=ORIENTED_EDGE('',*,*,#751,.T.);
#987=ORIENTED_EDGE('',*,*,#752,.F.);
#988=ORIENTED_EDGE('',*,*,#753,.F.);
#989=ORIENTED_EDGE('',*,*,#754,.F.);
#990=ORIENTED_EDGE('',*,*,#739,.F.);
#991=ORIENTED_EDGE('',*,*,#701,.T.);
#992=ORIENTED_EDGE('',*,*,#669,.T.);
#993=ORIENTED_EDGE('',*,*,#672,.T.);
#994=ORIENTED_EDGE('',*,*,#675,.T.);
#995=ORIENTED_EDGE('',*,*,#678,.T.);
#996=ORIENTED_EDGE('',*,*,#734,.T.);
#997=ORIENTED_EDGE('',*,*,#736,.T.);
#998=ORIENTED_EDGE('',*,*,#709,.T.);
#999=ORIENTED_EDGE('',*,*,#755,.F.);
#1000=ORIENTED_EDGE('',*,*,#749,.F.);
#1001=ORIENTED_EDGE('',*,*,#738,.T.);
#1002=ORIENTED_EDGE('',*,*,#748,.F.);
#1003=ORIENTED_EDGE('',*,*,#756,.F.);
#1004=ORIENTED_EDGE('',*,*,#704,.T.);
#1005=ORIENTED_EDGE('',*,*,#731,.T.);
#1006=ORIENTED_EDGE('',*,*,#690,.T.);
#1007=ORIENTED_EDGE('',*,*,#733,.T.);
#1008=ORIENTED_EDGE('',*,*,#724,.T.);
#1009=ORIENTED_EDGE('',*,*,#757,.T.);
#1010=ORIENTED_EDGE('',*,*,#758,.T.);
#1011=ORIENTED_EDGE('',*,*,#759,.T.);
#1012=ORIENTED_EDGE('',*,*,#760,.T.);
#1013=ORIENTED_EDGE('',*,*,#761,.T.);
#1014=ORIENTED_EDGE('',*,*,#743,.T.);
#1015=ORIENTED_EDGE('',*,*,#741,.T.);
#1016=ORIENTED_EDGE('',*,*,#705,.T.);
#1017=ORIENTED_EDGE('',*,*,#756,.T.);
#1018=ORIENTED_EDGE('',*,*,#747,.T.);
#1019=ORIENTED_EDGE('',*,*,#762,.T.);
#1020=ORIENTED_EDGE('',*,*,#763,.T.);
#1021=ORIENTED_EDGE('',*,*,#764,.T.);
#1022=ORIENTED_EDGE('',*,*,#765,.T.);
#1023=ORIENTED_EDGE('',*,*,#766,.T.);
#1024=ORIENTED_EDGE('',*,*,#720,.T.);
#1025=ORIENTED_EDGE('',*,*,#730,.T.);
#1026=ORIENTED_EDGE('',*,*,#717,.T.);
#1027=ORIENTED_EDGE('',*,*,#767,.T.);
#1028=ORIENTED_EDGE('',*,*,#768,.T.);
#1029=ORIENTED_EDGE('',*,*,#769,.T.);
#1030=ORIENTED_EDGE('',*,*,#770,.T.);
#1031=ORIENTED_EDGE('',*,*,#771,.T.);
#1032=ORIENTED_EDGE('',*,*,#750,.T.);
#1033=ORIENTED_EDGE('',*,*,#755,.T.);
#1034=ORIENTED_EDGE('',*,*,#708,.T.);
#1035=ORIENTED_EDGE('',*,*,#740,.T.);
#1036=ORIENTED_EDGE('',*,*,#754,.T.);
#1037=ORIENTED_EDGE('',*,*,#772,.T.);
#1038=ORIENTED_EDGE('',*,*,#773,.T.);
#1039=ORIENTED_EDGE('',*,*,#774,.T.);
#1040=ORIENTED_EDGE('',*,*,#775,.T.);
#1041=ORIENTED_EDGE('',*,*,#776,.T.);
#1042=ORIENTED_EDGE('',*,*,#713,.T.);
#1043=ORIENTED_EDGE('',*,*,#732,.T.);
#1044=ORIENTED_EDGE('',*,*,#693,.T.);
#1045=ORIENTED_EDGE('',*,*,#777,.F.);
#1046=ORIENTED_EDGE('',*,*,#778,.T.);
#1047=ORIENTED_EDGE('',*,*,#779,.F.);
#1048=ORIENTED_EDGE('',*,*,#778,.F.);
#1049=ORIENTED_EDGE('',*,*,#780,.F.);
#1050=ORIENTED_EDGE('',*,*,#781,.T.);
#1051=ORIENTED_EDGE('',*,*,#782,.F.);
#1052=ORIENTED_EDGE('',*,*,#781,.F.);
#1053=ORIENTED_EDGE('',*,*,#780,.T.);
#1054=ORIENTED_EDGE('',*,*,#779,.T.);
#1055=ORIENTED_EDGE('',*,*,#783,.T.);
#1056=ORIENTED_EDGE('',*,*,#784,.F.);
#1057=ORIENTED_EDGE('',*,*,#785,.F.);
#1058=ORIENTED_EDGE('',*,*,#786,.F.);
#1059=ORIENTED_EDGE('',*,*,#782,.T.);
#1060=ORIENTED_EDGE('',*,*,#787,.F.);
#1061=ORIENTED_EDGE('',*,*,#770,.F.);
#1062=ORIENTED_EDGE('',*,*,#788,.F.);
#1063=ORIENTED_EDGE('',*,*,#763,.F.);
#1064=ORIENTED_EDGE('',*,*,#789,.F.);
#1065=ORIENTED_EDGE('',*,*,#790,.F.);
#1066=ORIENTED_EDGE('',*,*,#785,.T.);
#1067=ORIENTED_EDGE('',*,*,#791,.F.);
#1068=ORIENTED_EDGE('',*,*,#769,.F.);
#1069=ORIENTED_EDGE('',*,*,#792,.F.);
#1070=ORIENTED_EDGE('',*,*,#764,.F.);
#1071=ORIENTED_EDGE('',*,*,#788,.T.);
#1072=ORIENTED_EDGE('',*,*,#777,.T.);
#1073=ORIENTED_EDGE('',*,*,#793,.F.);
#1074=ORIENTED_EDGE('',*,*,#794,.T.);
#1075=ORIENTED_EDGE('',*,*,#786,.T.);
#1076=ORIENTED_EDGE('',*,*,#790,.T.);
#1077=ORIENTED_EDGE('',*,*,#795,.F.);
#1078=ORIENTED_EDGE('',*,*,#791,.T.);
#1079=ORIENTED_EDGE('',*,*,#784,.T.);
#1080=ORIENTED_EDGE('',*,*,#796,.T.);
#1081=ORIENTED_EDGE('',*,*,#797,.F.);
#1082=ORIENTED_EDGE('',*,*,#796,.F.);
#1083=ORIENTED_EDGE('',*,*,#783,.F.);
#1084=ORIENTED_EDGE('',*,*,#794,.F.);
#1085=ORIENTED_EDGE('',*,*,#798,.F.);
#1086=ORIENTED_EDGE('',*,*,#765,.F.);
#1087=ORIENTED_EDGE('',*,*,#792,.T.);
#1088=ORIENTED_EDGE('',*,*,#768,.F.);
#1089=ORIENTED_EDGE('',*,*,#787,.T.);
#1090=ORIENTED_EDGE('',*,*,#795,.T.);
#1091=ORIENTED_EDGE('',*,*,#797,.T.);
#1092=ORIENTED_EDGE('',*,*,#767,.F.);
#1093=ORIENTED_EDGE('',*,*,#716,.T.);
#1094=ORIENTED_EDGE('',*,*,#799,.F.);
#1095=ORIENTED_EDGE('',*,*,#751,.F.);
#1096=ORIENTED_EDGE('',*,*,#771,.F.);
#1097=ORIENTED_EDGE('',*,*,#798,.T.);
#1098=ORIENTED_EDGE('',*,*,#793,.T.);
#1099=ORIENTED_EDGE('',*,*,#789,.T.);
#1100=ORIENTED_EDGE('',*,*,#762,.F.);
#1101=ORIENTED_EDGE('',*,*,#746,.F.);
#1102=ORIENTED_EDGE('',*,*,#800,.F.);
#1103=ORIENTED_EDGE('',*,*,#721,.T.);
#1104=ORIENTED_EDGE('',*,*,#766,.F.);
#1105=ORIENTED_EDGE('',*,*,#801,.F.);
#1106=ORIENTED_EDGE('',*,*,#802,.T.);
#1107=ORIENTED_EDGE('',*,*,#803,.F.);
#1108=ORIENTED_EDGE('',*,*,#802,.F.);
#1109=ORIENTED_EDGE('',*,*,#804,.F.);
#1110=ORIENTED_EDGE('',*,*,#805,.T.);
#1111=ORIENTED_EDGE('',*,*,#806,.F.);
#1112=ORIENTED_EDGE('',*,*,#805,.F.);
#1113=ORIENTED_EDGE('',*,*,#806,.T.);
#1114=ORIENTED_EDGE('',*,*,#801,.T.);
#1115=ORIENTED_EDGE('',*,*,#807,.T.);
#1116=ORIENTED_EDGE('',*,*,#808,.F.);
#1117=ORIENTED_EDGE('',*,*,#809,.F.);
#1118=ORIENTED_EDGE('',*,*,#810,.F.);
#1119=ORIENTED_EDGE('',*,*,#804,.T.);
#1120=ORIENTED_EDGE('',*,*,#811,.F.);
#1121=ORIENTED_EDGE('',*,*,#812,.T.);
#1122=ORIENTED_EDGE('',*,*,#810,.T.);
#1123=ORIENTED_EDGE('',*,*,#813,.T.);
#1124=ORIENTED_EDGE('',*,*,#814,.F.);
#1125=ORIENTED_EDGE('',*,*,#760,.F.);
#1126=ORIENTED_EDGE('',*,*,#815,.T.);
#1127=ORIENTED_EDGE('',*,*,#773,.F.);
#1128=ORIENTED_EDGE('',*,*,#816,.F.);
#1129=ORIENTED_EDGE('',*,*,#817,.F.);
#1130=ORIENTED_EDGE('',*,*,#807,.F.);
#1131=ORIENTED_EDGE('',*,*,#812,.F.);
#1132=ORIENTED_EDGE('',*,*,#818,.F.);
#1133=ORIENTED_EDGE('',*,*,#819,.T.);
#1134=ORIENTED_EDGE('',*,*,#808,.T.);
#1135=ORIENTED_EDGE('',*,*,#817,.T.);
#1136=ORIENTED_EDGE('',*,*,#759,.F.);
#1137=ORIENTED_EDGE('',*,*,#820,.T.);
#1138=ORIENTED_EDGE('',*,*,#774,.F.);
#1139=ORIENTED_EDGE('',*,*,#815,.F.);
#1140=ORIENTED_EDGE('',*,*,#803,.T.);
#1141=ORIENTED_EDGE('',*,*,#821,.F.);
#1142=ORIENTED_EDGE('',*,*,#813,.F.);
#1143=ORIENTED_EDGE('',*,*,#809,.T.);
#1144=ORIENTED_EDGE('',*,*,#819,.F.);
#1145=ORIENTED_EDGE('',*,*,#822,.F.);
#1146=ORIENTED_EDGE('',*,*,#775,.F.);
#1147=ORIENTED_EDGE('',*,*,#820,.F.);
#1148=ORIENTED_EDGE('',*,*,#758,.F.);
#1149=ORIENTED_EDGE('',*,*,#822,.T.);
#1150=ORIENTED_EDGE('',*,*,#818,.T.);
#1151=ORIENTED_EDGE('',*,*,#816,.T.);
#1152=ORIENTED_EDGE('',*,*,#772,.F.);
#1153=ORIENTED_EDGE('',*,*,#753,.T.);
#1154=ORIENTED_EDGE('',*,*,#823,.F.);
#1155=ORIENTED_EDGE('',*,*,#714,.F.);
#1156=ORIENTED_EDGE('',*,*,#776,.F.);
#1157=ORIENTED_EDGE('',*,*,#715,.T.);
#1158=ORIENTED_EDGE('',*,*,#823,.T.);
#1159=ORIENTED_EDGE('',*,*,#752,.T.);
#1160=ORIENTED_EDGE('',*,*,#799,.T.);
#1161=ORIENTED_EDGE('',*,*,#722,.T.);
#1162=ORIENTED_EDGE('',*,*,#800,.T.);
#1163=ORIENTED_EDGE('',*,*,#745,.T.);
#1164=ORIENTED_EDGE('',*,*,#824,.T.);
#1165=ORIENTED_EDGE('',*,*,#821,.T.);
#1166=ORIENTED_EDGE('',*,*,#757,.F.);
#1167=ORIENTED_EDGE('',*,*,#723,.F.);
#1168=ORIENTED_EDGE('',*,*,#824,.F.);
#1169=ORIENTED_EDGE('',*,*,#744,.T.);
#1170=ORIENTED_EDGE('',*,*,#761,.F.);
#1171=ORIENTED_EDGE('',*,*,#814,.T.);
#1172=ORIENTED_EDGE('',*,*,#811,.T.);
#1173=CYLINDRICAL_SURFACE('',#1267,1.7);
#1174=CYLINDRICAL_SURFACE('',#1270,1.7);
#1175=CYLINDRICAL_SURFACE('',#1273,1.7);
#1176=CYLINDRICAL_SURFACE('',#1276,1.7);
#1177=CYLINDRICAL_SURFACE('',#1279,1.7);
#1178=CYLINDRICAL_SURFACE('',#1282,1.7);
#1179=CYLINDRICAL_SURFACE('',#1285,1.7);
#1180=CYLINDRICAL_SURFACE('',#1288,1.7);
#1181=CYLINDRICAL_SURFACE('',#1291,1.7);
#1182=CYLINDRICAL_SURFACE('',#1294,1.7);
#1183=CYLINDRICAL_SURFACE('',#1300,7.4);
#1184=CYLINDRICAL_SURFACE('',#1302,16.);
#1185=CYLINDRICAL_SURFACE('',#1310,7.4);
#1186=CYLINDRICAL_SURFACE('',#1312,16.);
#1187=CYLINDRICAL_SURFACE('',#1320,9.15);
#1188=CYLINDRICAL_SURFACE('',#1321,16.);
#1189=CYLINDRICAL_SURFACE('',#1326,9.15);
#1190=CYLINDRICAL_SURFACE('',#1328,16.);
#1191=CYLINDRICAL_SURFACE('',#1337,10.2);
#1192=CYLINDRICAL_SURFACE('',#1340,12.4);
#1193=CYLINDRICAL_SURFACE('',#1352,10.2);
#1194=CYLINDRICAL_SURFACE('',#1355,12.4);
#1195=ADVANCED_FACE('',(#83),#1173,.F.);
#1196=ADVANCED_FACE('',(#84),#1174,.F.);
#1197=ADVANCED_FACE('',(#85),#1175,.F.);
#1198=ADVANCED_FACE('',(#86),#1176,.F.);
#1199=ADVANCED_FACE('',(#87),#1177,.F.);
#1200=ADVANCED_FACE('',(#88),#1178,.F.);
#1201=ADVANCED_FACE('',(#89),#1179,.F.);
#1202=ADVANCED_FACE('',(#90),#1180,.F.);
#1203=ADVANCED_FACE('',(#91),#1181,.F.);
#1204=ADVANCED_FACE('',(#92),#1182,.F.);
#1205=ADVANCED_FACE('',(#93,#15),#47,.T.);
#1206=ADVANCED_FACE('',(#94),#1183,.F.);
#1207=ADVANCED_FACE('',(#95),#1184,.T.);
#1208=ADVANCED_FACE('',(#96,#16,#17,#18,#19,#20,#21,#22),#48,.F.);
#1209=ADVANCED_FACE('',(#97,#23),#49,.T.);
#1210=ADVANCED_FACE('',(#98),#1185,.F.);
#1211=ADVANCED_FACE('',(#99),#1186,.T.);
#1212=ADVANCED_FACE('',(#100,#24,#25,#26,#27,#28),#50,.F.);
#1213=ADVANCED_FACE('',(#101,#29,#30,#31,#32,#33,#34,#35),#51,.F.);
#1214=ADVANCED_FACE('',(#102),#1187,.F.);
#1215=ADVANCED_FACE('',(#103),#1188,.T.);
#1216=ADVANCED_FACE('',(#104),#52,.F.);
#1217=ADVANCED_FACE('',(#105),#53,.F.);
#1218=ADVANCED_FACE('',(#106),#54,.F.);
#1219=ADVANCED_FACE('',(#107),#55,.F.);
#1220=ADVANCED_FACE('',(#108),#1189,.F.);
#1221=ADVANCED_FACE('',(#109),#1190,.T.);
#1222=ADVANCED_FACE('',(#110),#56,.F.);
#1223=ADVANCED_FACE('',(#111),#57,.F.);
#1224=ADVANCED_FACE('',(#112,#36,#37,#38,#39,#40),#58,.F.);
#1225=ADVANCED_FACE('',(#113),#59,.F.);
#1226=ADVANCED_FACE('',(#114),#60,.F.);
#1227=ADVANCED_FACE('',(#115),#61,.F.);
#1228=ADVANCED_FACE('',(#116),#62,.T.);
#1229=ADVANCED_FACE('',(#117),#1191,.F.);
#1230=ADVANCED_FACE('',(#118),#1192,.T.);
#1231=ADVANCED_FACE('',(#119,#41),#63,.T.);
#1232=ADVANCED_FACE('',(#120,#42),#64,.F.);
#1233=ADVANCED_FACE('',(#121),#65,.F.);
#1234=ADVANCED_FACE('',(#122,#43),#66,.F.);
#1235=ADVANCED_FACE('',(#123),#67,.T.);
#1236=ADVANCED_FACE('',(#124),#68,.F.);
#1237=ADVANCED_FACE('',(#125),#69,.F.);
#1238=ADVANCED_FACE('',(#126),#70,.F.);
#1239=ADVANCED_FACE('',(#127),#71,.F.);
#1240=ADVANCED_FACE('',(#128),#1193,.F.);
#1241=ADVANCED_FACE('',(#129),#1194,.T.);
#1242=ADVANCED_FACE('',(#130,#44),#72,.T.);
#1243=ADVANCED_FACE('',(#131,#45),#73,.F.);
#1244=ADVANCED_FACE('',(#132),#74,.T.);
#1245=ADVANCED_FACE('',(#133),#75,.F.);
#1246=ADVANCED_FACE('',(#134),#76,.F.);
#1247=ADVANCED_FACE('',(#135,#46),#77,.F.);
#1248=ADVANCED_FACE('',(#136),#78,.F.);
#1249=ADVANCED_FACE('',(#137),#79,.F.);
#1250=ADVANCED_FACE('',(#138),#80,.F.);
#1251=ADVANCED_FACE('',(#139),#81,.T.);
#1252=ADVANCED_FACE('',(#140),#82,.F.);
#1253=CLOSED_SHELL('',(#1195,#1196,#1197,#1198,#1199,#1200,#1201,#1202,
#1203,#1204,#1205,#1206,#1207,#1208,#1209,#1210,#1211,#1212,#1213,#1214,
#1215,#1216,#1217,#1218,#1219,#1220,#1221,#1222,#1223,#1224,#1225,#1226,
#1227,#1228,#1229,#1230,#1231,#1232,#1233,#1234,#1235,#1236,#1237,#1238,
#1239,#1240,#1241,#1242,#1243,#1244,#1245,#1246,#1247,#1248,#1249,#1250,
#1251,#1252));
#1254=DERIVED_UNIT_ELEMENT(#1256,1.);
#1255=DERIVED_UNIT_ELEMENT(#2059,-3.);
#1256=(
MASS_UNIT()
NAMED_UNIT(*)
SI_UNIT(.KILO.,.GRAM.)
);
#1257=DERIVED_UNIT((#1254,#1255));
#1258=MEASURE_REPRESENTATION_ITEM('density measure',
POSITIVE_RATIO_MEASURE(7850.),#1257);
#1259=PROPERTY_DEFINITION_REPRESENTATION(#1264,#1261);
#1260=PROPERTY_DEFINITION_REPRESENTATION(#1265,#1262);
#1261=REPRESENTATION('material name',(#1263),#2056);
#1262=REPRESENTATION('density',(#1258),#2056);
#1263=DESCRIPTIVE_REPRESENTATION_ITEM('Steel','Steel');
#1264=PROPERTY_DEFINITION('material property','material name',#2066);
#1265=PROPERTY_DEFINITION('material property','density of part',#2066);
#1266=AXIS2_PLACEMENT_3D('',#1705,#1369,#1370);
#1267=AXIS2_PLACEMENT_3D('',#1706,#1371,#1372);
#1268=AXIS2_PLACEMENT_3D('',#1708,#1373,#1374);
#1269=AXIS2_PLACEMENT_3D('',#1711,#1376,#1377);
#1270=AXIS2_PLACEMENT_3D('',#1712,#1378,#1379);
#1271=AXIS2_PLACEMENT_3D('',#1714,#1380,#1381);
#1272=AXIS2_PLACEMENT_3D('',#1717,#1383,#1384);
#1273=AXIS2_PLACEMENT_3D('',#1718,#1385,#1386);
#1274=AXIS2_PLACEMENT_3D('',#1720,#1387,#1388);
#1275=AXIS2_PLACEMENT_3D('',#1723,#1390,#1391);
#1276=AXIS2_PLACEMENT_3D('',#1724,#1392,#1393);
#1277=AXIS2_PLACEMENT_3D('',#1726,#1394,#1395);
#1278=AXIS2_PLACEMENT_3D('',#1729,#1397,#1398);
#1279=AXIS2_PLACEMENT_3D('',#1730,#1399,#1400);
#1280=AXIS2_PLACEMENT_3D('',#1732,#1401,#1402);
#1281=AXIS2_PLACEMENT_3D('',#1735,#1404,#1405);
#1282=AXIS2_PLACEMENT_3D('',#1736,#1406,#1407);
#1283=AXIS2_PLACEMENT_3D('',#1738,#1408,#1409);
#1284=AXIS2_PLACEMENT_3D('',#1741,#1411,#1412);
#1285=AXIS2_PLACEMENT_3D('',#1742,#1413,#1414);
#1286=AXIS2_PLACEMENT_3D('',#1744,#1415,#1416);
#1287=AXIS2_PLACEMENT_3D('',#1747,#1418,#1419);
#1288=AXIS2_PLACEMENT_3D('',#1748,#1420,#1421);
#1289=AXIS2_PLACEMENT_3D('',#1750,#1422,#1423);
#1290=AXIS2_PLACEMENT_3D('',#1753,#1425,#1426);
#1291=AXIS2_PLACEMENT_3D('',#1754,#1427,#1428);
#1292=AXIS2_PLACEMENT_3D('',#1756,#1429,#1430);
#1293=AXIS2_PLACEMENT_3D('',#1759,#1432,#1433);
#1294=AXIS2_PLACEMENT_3D('',#1760,#1434,#1435);
#1295=AXIS2_PLACEMENT_3D('',#1762,#1436,#1437);
#1296=AXIS2_PLACEMENT_3D('',#1765,#1439,#1440);
#1297=AXIS2_PLACEMENT_3D('',#1766,#1441,#1442);
#1298=AXIS2_PLACEMENT_3D('',#1768,#1443,#1444);
#1299=AXIS2_PLACEMENT_3D('',#1770,#1445,#1446);
#1300=AXIS2_PLACEMENT_3D('',#1771,#1447,#1448);
#1301=AXIS2_PLACEMENT_3D('',#1773,#1449,#1450);
#1302=AXIS2_PLACEMENT_3D('',#1775,#1452,#1453);
#1303=AXIS2_PLACEMENT_3D('',#1780,#1455,#1456);
#1304=AXIS2_PLACEMENT_3D('',#1783,#1458,#1459);
#1305=AXIS2_PLACEMENT_3D('',#1784,#1460,#1461);
#1306=AXIS2_PLACEMENT_3D('',#1797,#1468,#1469);
#1307=AXIS2_PLACEMENT_3D('',#1798,#1470,#1471);
#1308=AXIS2_PLACEMENT_3D('',#1800,#1472,#1473);
#1309=AXIS2_PLACEMENT_3D('',#1802,#1474,#1475);
#1310=AXIS2_PLACEMENT_3D('',#1803,#1476,#1477);
#1311=AXIS2_PLACEMENT_3D('',#1806,#1479,#1480);
#1312=AXIS2_PLACEMENT_3D('',#1807,#1481,#1482);
#1313=AXIS2_PLACEMENT_3D('',#1812,#1484,#1485);
#1314=AXIS2_PLACEMENT_3D('',#1815,#1487,#1488);
#1315=AXIS2_PLACEMENT_3D('',#1816,#1489,#1490);
#1316=AXIS2_PLACEMENT_3D('',#1829,#1497,#1498);
#1317=AXIS2_PLACEMENT_3D('',#1830,#1499,#1500);
#1318=AXIS2_PLACEMENT_3D('',#1833,#1501,#1502);
#1319=AXIS2_PLACEMENT_3D('',#1861,#1517,#1518);
#1320=AXIS2_PLACEMENT_3D('',#1862,#1519,#1520);
#1321=AXIS2_PLACEMENT_3D('',#1864,#1522,#1523);
#1322=AXIS2_PLACEMENT_3D('',#1867,#1526,#1527);
#1323=AXIS2_PLACEMENT_3D('',#1869,#1529,#1530);
#1324=AXIS2_PLACEMENT_3D('',#1871,#1532,#1533);
#1325=AXIS2_PLACEMENT_3D('',#1873,#1535,#1536);
#1326=AXIS2_PLACEMENT_3D('',#1875,#1538,#1539);
#1327=AXIS2_PLACEMENT_3D('',#1877,#1540,#1541);
#1328=AXIS2_PLACEMENT_3D('',#1879,#1543,#1544);
#1329=AXIS2_PLACEMENT_3D('',#1883,#1546,#1547);
#1330=AXIS2_PLACEMENT_3D('',#1885,#1549,#1550);
#1331=AXIS2_PLACEMENT_3D('',#1889,#1553,#1554);
#1332=AXIS2_PLACEMENT_3D('',#1893,#1557,#1558);
#1333=AXIS2_PLACEMENT_3D('',#1916,#1571,#1572);
#1334=AXIS2_PLACEMENT_3D('',#1918,#1574,#1575);
#1335=AXIS2_PLACEMENT_3D('',#1920,#1577,#1578);
#1336=AXIS2_PLACEMENT_3D('',#1939,#1589,#1590);
#1337=AXIS2_PLACEMENT_3D('',#1958,#1601,#1602);
#1338=AXIS2_PLACEMENT_3D('',#1960,#1603,#1604);
#1339=AXIS2_PLACEMENT_3D('',#1963,#1606,#1607);
#1340=AXIS2_PLACEMENT_3D('',#1964,#1608,#1609);
#1341=AXIS2_PLACEMENT_3D('',#1966,#1610,#1611);
#1342=AXIS2_PLACEMENT_3D('',#1969,#1613,#1614);
#1343=AXIS2_PLACEMENT_3D('',#1970,#1615,#1616);
#1344=AXIS2_PLACEMENT_3D('',#1971,#1617,#1618);
#1345=AXIS2_PLACEMENT_3D('',#1980,#1623,#1624);
#1346=AXIS2_PLACEMENT_3D('',#1988,#1630,#1631);
#1347=AXIS2_PLACEMENT_3D('',#1990,#1633,#1634);
#1348=AXIS2_PLACEMENT_3D('',#1994,#1637,#1638);
#1349=AXIS2_PLACEMENT_3D('',#1998,#1641,#1642);
#1350=AXIS2_PLACEMENT_3D('',#2001,#1645,#1646);
#1351=AXIS2_PLACEMENT_3D('',#2003,#1648,#1649);
#1352=AXIS2_PLACEMENT_3D('',#2005,#1651,#1652);
#1353=AXIS2_PLACEMENT_3D('',#2007,#1653,#1654);
#1354=AXIS2_PLACEMENT_3D('',#2010,#1656,#1657);
#1355=AXIS2_PLACEMENT_3D('',#2011,#1658,#1659);
#1356=AXIS2_PLACEMENT_3D('',#2013,#1660,#1661);
#1357=AXIS2_PLACEMENT_3D('',#2016,#1663,#1664);
#1358=AXIS2_PLACEMENT_3D('',#2017,#1665,#1666);
#1359=AXIS2_PLACEMENT_3D('',#2018,#1667,#1668);
#1360=AXIS2_PLACEMENT_3D('',#2027,#1673,#1674);
#1361=AXIS2_PLACEMENT_3D('',#2033,#1678,#1679);
#1362=AXIS2_PLACEMENT_3D('',#2039,#1684,#1685);
#1363=AXIS2_PLACEMENT_3D('',#2043,#1688,#1689);
#1364=AXIS2_PLACEMENT_3D('',#2045,#1691,#1692);
#1365=AXIS2_PLACEMENT_3D('',#2048,#1695,#1696);
#1366=AXIS2_PLACEMENT_3D('',#2050,#1698,#1699);
#1367=AXIS2_PLACEMENT_3D('',#2051,#1700,#1701);
#1368=AXIS2_PLACEMENT_3D('',#2053,#1703,#1704);
#1369=DIRECTION('axis',(0.,0.,1.));
#1370=DIRECTION('refdir',(1.,0.,0.));
#1371=DIRECTION('center_axis',(1.,0.,0.));
#1372=DIRECTION('ref_axis',(0.,0.,-1.));
#1373=DIRECTION('center_axis',(1.,0.,0.));
#1374=DIRECTION('ref_axis',(0.,0.,-1.));
#1375=DIRECTION('',(1.,0.,0.));
#1376=DIRECTION('center_axis',(-1.,0.,0.));
#1377=DIRECTION('ref_axis',(0.,0.,-1.));
#1378=DIRECTION('center_axis',(1.,0.,0.));
#1379=DIRECTION('ref_axis',(0.,0.,-1.));
#1380=DIRECTION('center_axis',(1.,0.,0.));
#1381=DIRECTION('ref_axis',(0.,0.,-1.));
#1382=DIRECTION('',(1.,0.,0.));
#1383=DIRECTION('center_axis',(-1.,0.,0.));
#1384=DIRECTION('ref_axis',(0.,0.,-1.));
#1385=DIRECTION('center_axis',(1.,0.,0.));
#1386=DIRECTION('ref_axis',(0.,0.,-1.));
#1387=DIRECTION('center_axis',(1.,0.,0.));
#1388=DIRECTION('ref_axis',(0.,0.,-1.));
#1389=DIRECTION('',(1.,0.,0.));
#1390=DIRECTION('center_axis',(-1.,0.,0.));
#1391=DIRECTION('ref_axis',(0.,0.,-1.));
#1392=DIRECTION('center_axis',(1.,0.,0.));
#1393=DIRECTION('ref_axis',(0.,0.,-1.));
#1394=DIRECTION('center_axis',(1.,0.,0.));
#1395=DIRECTION('ref_axis',(0.,0.,-1.));
#1396=DIRECTION('',(1.,0.,0.));
#1397=DIRECTION('center_axis',(-1.,0.,0.));
#1398=DIRECTION('ref_axis',(0.,0.,-1.));
#1399=DIRECTION('center_axis',(1.,0.,0.));
#1400=DIRECTION('ref_axis',(0.,0.,-1.));
#1401=DIRECTION('center_axis',(1.,0.,0.));
#1402=DIRECTION('ref_axis',(0.,0.,-1.));
#1403=DIRECTION('',(1.,0.,0.));
#1404=DIRECTION('center_axis',(-1.,0.,0.));
#1405=DIRECTION('ref_axis',(0.,0.,-1.));
#1406=DIRECTION('center_axis',(1.,0.,0.));
#1407=DIRECTION('ref_axis',(0.,0.,-1.));
#1408=DIRECTION('center_axis',(1.,0.,0.));
#1409=DIRECTION('ref_axis',(0.,0.,-1.));
#1410=DIRECTION('',(1.,0.,0.));
#1411=DIRECTION('center_axis',(-1.,0.,0.));
#1412=DIRECTION('ref_axis',(0.,0.,-1.));
#1413=DIRECTION('center_axis',(1.,0.,0.));
#1414=DIRECTION('ref_axis',(0.,0.,-1.));
#1415=DIRECTION('center_axis',(1.,0.,0.));
#1416=DIRECTION('ref_axis',(0.,0.,-1.));
#1417=DIRECTION('',(1.,0.,0.));
#1418=DIRECTION('center_axis',(-1.,0.,0.));
#1419=DIRECTION('ref_axis',(0.,0.,-1.));
#1420=DIRECTION('center_axis',(1.,0.,0.));
#1421=DIRECTION('ref_axis',(0.,0.,-1.));
#1422=DIRECTION('center_axis',(1.,0.,0.));
#1423=DIRECTION('ref_axis',(0.,0.,-1.));
#1424=DIRECTION('',(1.,0.,0.));
#1425=DIRECTION('center_axis',(-1.,0.,0.));
#1426=DIRECTION('ref_axis',(0.,0.,-1.));
#1427=DIRECTION('center_axis',(1.,0.,0.));
#1428=DIRECTION('ref_axis',(0.,0.,-1.));
#1429=DIRECTION('center_axis',(1.,0.,0.));
#1430=DIRECTION('ref_axis',(0.,0.,-1.));
#1431=DIRECTION('',(1.,0.,0.));
#1432=DIRECTION('center_axis',(-1.,0.,0.));
#1433=DIRECTION('ref_axis',(0.,0.,-1.));
#1434=DIRECTION('center_axis',(1.,0.,0.));
#1435=DIRECTION('ref_axis',(0.,0.,-1.));
#1436=DIRECTION('center_axis',(1.,0.,0.));
#1437=DIRECTION('ref_axis',(0.,0.,-1.));
#1438=DIRECTION('',(1.,0.,0.));
#1439=DIRECTION('center_axis',(-1.,0.,0.));
#1440=DIRECTION('ref_axis',(0.,0.,-1.));
#1441=DIRECTION('center_axis',(1.,0.,0.));
#1442=DIRECTION('ref_axis',(0.,0.,-1.));
#1443=DIRECTION('center_axis',(-1.,0.,0.));
#1444=DIRECTION('ref_axis',(0.,0.,-1.));
#1445=DIRECTION('center_axis',(-1.,0.,0.));
#1446=DIRECTION('ref_axis',(0.,0.,-1.));
#1447=DIRECTION('center_axis',(1.,0.,0.));
#1448=DIRECTION('ref_axis',(0.,0.,-1.));
#1449=DIRECTION('center_axis',(1.,0.,0.));
#1450=DIRECTION('ref_axis',(0.,0.,-1.));
#1451=DIRECTION('',(1.,0.,0.));
#1452=DIRECTION('center_axis',(1.,0.,0.));
#1453=DIRECTION('ref_axis',(0.,0.,-1.));
#1454=DIRECTION('',(-1.,0.,0.));
#1455=DIRECTION('center_axis',(1.,0.,0.));
#1456=DIRECTION('ref_axis',(0.,0.,-1.));
#1457=DIRECTION('',(1.,0.,0.));
#1458=DIRECTION('center_axis',(-1.,0.,0.));
#1459=DIRECTION('ref_axis',(0.,0.,-1.));
#1460=DIRECTION('center_axis',(1.,0.,0.));
#1461=DIRECTION('ref_axis',(0.,0.,-1.));
#1462=DIRECTION('',(0.,0.,-1.));
#1463=DIRECTION('',(0.,-1.,0.));
#1464=DIRECTION('',(0.,0.,-1.));
#1465=DIRECTION('',(0.,0.,-1.));
#1466=DIRECTION('',(0.,1.,0.));
#1467=DIRECTION('',(0.,0.,-1.));
#1468=DIRECTION('center_axis',(-1.,0.,0.));
#1469=DIRECTION('ref_axis',(0.,0.,-1.));
#1470=DIRECTION('center_axis',(-1.,0.,0.));
#1471=DIRECTION('ref_axis',(0.,0.,1.));
#1472=DIRECTION('center_axis',(1.,0.,0.));
#1473=DIRECTION('ref_axis',(0.,0.,-1.));
#1474=DIRECTION('center_axis',(1.,0.,0.));
#1475=DIRECTION('ref_axis',(0.,0.,-1.));
#1476=DIRECTION('center_axis',(1.,0.,0.));
#1477=DIRECTION('ref_axis',(0.,0.,-1.));
#1478=DIRECTION('',(1.,0.,0.));
#1479=DIRECTION('center_axis',(-1.,0.,0.));
#1480=DIRECTION('ref_axis',(0.,0.,-1.));
#1481=DIRECTION('center_axis',(1.,0.,0.));
#1482=DIRECTION('ref_axis',(0.,0.,-1.));
#1483=DIRECTION('',(1.,0.,0.));
#1484=DIRECTION('center_axis',(-1.,0.,0.));
#1485=DIRECTION('ref_axis',(0.,0.,-1.));
#1486=DIRECTION('',(-1.,0.,0.));
#1487=DIRECTION('center_axis',(1.,0.,0.));
#1488=DIRECTION('ref_axis',(0.,0.,-1.));
#1489=DIRECTION('center_axis',(-1.,0.,0.));
#1490=DIRECTION('ref_axis',(0.,0.,1.));
#1491=DIRECTION('',(0.,0.,-1.));
#1492=DIRECTION('',(0.,1.,0.));
#1493=DIRECTION('',(0.,0.,-1.));
#1494=DIRECTION('',(0.,0.,-1.));
#1495=DIRECTION('',(0.,-1.,0.));
#1496=DIRECTION('',(0.,0.,-1.));
#1497=DIRECTION('center_axis',(1.,0.,0.));
#1498=DIRECTION('ref_axis',(0.,0.,-1.));
#1499=DIRECTION('center_axis',(-1.,0.,0.));
#1500=DIRECTION('ref_axis',(0.,0.,1.));
#1501=DIRECTION('center_axis',(1.,0.,0.));
#1502=DIRECTION('ref_axis',(0.,0.,-1.));
#1503=DIRECTION('',(0.,0.,-1.));
#1504=DIRECTION('',(0.,1.,0.));
#1505=DIRECTION('',(0.,0.,-1.));
#1506=DIRECTION('',(0.,-1.,0.));
#1507=DIRECTION('',(0.,0.,-1.));
#1508=DIRECTION('',(0.,1.,0.));
#1509=DIRECTION('',(0.,0.,-1.));
#1510=DIRECTION('',(0.,0.,-1.));
#1511=DIRECTION('',(0.,-1.,0.));
#1512=DIRECTION('',(0.,0.,-1.));
#1513=DIRECTION('',(0.,1.,0.));
#1514=DIRECTION('',(0.,0.,-1.));
#1515=DIRECTION('',(0.,-1.,0.));
#1516=DIRECTION('',(0.,0.,-1.));
#1517=DIRECTION('center_axis',(-1.,0.,0.));
#1518=DIRECTION('ref_axis',(0.,0.,-1.));
#1519=DIRECTION('center_axis',(1.,0.,0.));
#1520=DIRECTION('ref_axis',(0.,0.,-1.));
#1521=DIRECTION('',(1.,0.,0.));
#1522=DIRECTION('center_axis',(1.,0.,0.));
#1523=DIRECTION('ref_axis',(0.,0.,-1.));
#1524=DIRECTION('',(-1.,0.,0.));
#1525=DIRECTION('',(1.,0.,0.));
#1526=DIRECTION('center_axis',(0.,-1.,0.));
#1527=DIRECTION('ref_axis',(0.,0.,-1.));
#1528=DIRECTION('',(1.,0.,0.));
#1529=DIRECTION('center_axis',(0.,-1.,0.));
#1530=DIRECTION('ref_axis',(0.,0.,-1.));
#1531=DIRECTION('',(-1.,0.,0.));
#1532=DIRECTION('center_axis',(0.,1.,0.));
#1533=DIRECTION('ref_axis',(0.,0.,1.));
#1534=DIRECTION('',(-1.,0.,0.));
#1535=DIRECTION('center_axis',(0.,1.,0.));
#1536=DIRECTION('ref_axis',(0.,0.,1.));
#1537=DIRECTION('',(1.,0.,0.));
#1538=DIRECTION('center_axis',(1.,0.,0.));
#1539=DIRECTION('ref_axis',(0.,0.,-1.));
#1540=DIRECTION('center_axis',(1.,0.,0.));
#1541=DIRECTION('ref_axis',(0.,0.,-1.));
#1542=DIRECTION('',(1.,0.,0.));
#1543=DIRECTION('center_axis',(1.,0.,0.));
#1544=DIRECTION('ref_axis',(0.,0.,-1.));
#1545=DIRECTION('',(1.,0.,0.));
#1546=DIRECTION('center_axis',(-1.,0.,0.));
#1547=DIRECTION('ref_axis',(0.,0.,-1.));
#1548=DIRECTION('',(-1.,0.,0.));
#1549=DIRECTION('center_axis',(0.,1.,0.));
#1550=DIRECTION('ref_axis',(0.,0.,1.));
#1551=DIRECTION('',(0.,0.,-1.));
#1552=DIRECTION('',(-1.,0.,0.));
#1553=DIRECTION('center_axis',(0.,1.,0.));
#1554=DIRECTION('ref_axis',(0.,0.,1.));
#1555=DIRECTION('',(1.,0.,0.));
#1556=DIRECTION('',(0.,0.,-1.));
#1557=DIRECTION('center_axis',(1.,0.,0.));
#1558=DIRECTION('ref_axis',(0.,0.,-1.));
#1559=DIRECTION('',(0.,1.,0.));
#1560=DIRECTION('',(0.,0.,-1.));
#1561=DIRECTION('',(0.,-1.,0.));
#1562=DIRECTION('',(0.,0.,-1.));
#1563=DIRECTION('',(0.,1.,0.));
#1564=DIRECTION('',(0.,0.,-1.));
#1565=DIRECTION('',(0.,0.,-1.));
#1566=DIRECTION('',(0.,-1.,0.));
#1567=DIRECTION('',(0.,0.,-1.));
#1568=DIRECTION('',(0.,1.,0.));
#1569=DIRECTION('',(0.,0.,-1.));
#1570=DIRECTION('',(0.,-1.,0.));
#1571=DIRECTION('center_axis',(0.,-1.,0.));
#1572=DIRECTION('ref_axis',(0.,0.,-1.));
#1573=DIRECTION('',(1.,0.,0.));
#1574=DIRECTION('center_axis',(0.,-1.,0.));
#1575=DIRECTION('ref_axis',(0.,0.,-1.));
#1576=DIRECTION('',(-1.,0.,0.));
#1577=DIRECTION('center_axis',(0.,0.,1.));
#1578=DIRECTION('ref_axis',(1.,0.,0.));
#1579=DIRECTION('',(-1.,0.,0.));
#1580=DIRECTION('',(0.,1.,0.));
#1581=DIRECTION('',(-1.,0.,0.));
#1582=DIRECTION('',(0.,-1.,0.));
#1583=DIRECTION('',(-1.,0.,0.));
#1584=DIRECTION('',(1.,0.,0.));
#1585=DIRECTION('',(0.,-1.,0.));
#1586=DIRECTION('',(1.,0.,0.));
#1587=DIRECTION('',(0.,1.,0.));
#1588=DIRECTION('',(1.,0.,0.));
#1589=DIRECTION('center_axis',(0.,0.,1.));
#1590=DIRECTION('ref_axis',(1.,0.,0.));
#1591=DIRECTION('',(-1.,0.,0.));
#1592=DIRECTION('',(0.,-1.,0.));
#1593=DIRECTION('',(-1.,0.,0.));
#1594=DIRECTION('',(0.,1.,0.));
#1595=DIRECTION('',(-1.,0.,0.));
#1596=DIRECTION('',(1.,0.,0.));
#1597=DIRECTION('',(0.,1.,0.));
#1598=DIRECTION('',(1.,0.,0.));
#1599=DIRECTION('',(0.,-1.,0.));
#1600=DIRECTION('',(1.,0.,0.));
#1601=DIRECTION('center_axis',(0.,1.,0.));
#1602=DIRECTION('ref_axis',(1.,0.,0.));
#1603=DIRECTION('center_axis',(0.,1.,0.));
#1604=DIRECTION('ref_axis',(1.,0.,0.));
#1605=DIRECTION('',(0.,1.,0.));
#1606=DIRECTION('center_axis',(0.,-1.,0.));
#1607=DIRECTION('ref_axis',(1.,0.,0.));
#1608=DIRECTION('center_axis',(0.,1.,0.));
#1609=DIRECTION('ref_axis',(1.,0.,0.));
#1610=DIRECTION('center_axis',(0.,1.,0.));
#1611=DIRECTION('ref_axis',(1.,0.,0.));
#1612=DIRECTION('',(0.,-1.,0.));
#1613=DIRECTION('center_axis',(0.,-1.,0.));
#1614=DIRECTION('ref_axis',(1.,0.,0.));
#1615=DIRECTION('center_axis',(0.,1.,0.));
#1616=DIRECTION('ref_axis',(1.,0.,0.));
#1617=DIRECTION('center_axis',(0.,-1.,0.));
#1618=DIRECTION('ref_axis',(0.,0.,-1.));
#1619=DIRECTION('',(0.,0.,-1.));
#1620=DIRECTION('',(1.,0.,0.));
#1621=DIRECTION('',(0.,0.,-1.));
#1622=DIRECTION('',(-1.,0.,0.));
#1623=DIRECTION('center_axis',(1.,0.,0.));
#1624=DIRECTION('ref_axis',(0.,0.,-1.));
#1625=DIRECTION('',(0.,0.,-1.));
#1626=DIRECTION('',(0.,0.,-1.));
#1627=DIRECTION('',(0.,0.,-1.));
#1628=DIRECTION('',(0.,-1.,0.));
#1629=DIRECTION('',(0.,1.,0.));
#1630=DIRECTION('center_axis',(0.,1.,0.));
#1631=DIRECTION('ref_axis',(0.,0.,1.));
#1632=DIRECTION('',(0.,0.,-1.));
#1633=DIRECTION('center_axis',(0.,0.,1.));
#1634=DIRECTION('ref_axis',(1.,0.,0.));
#1635=DIRECTION('',(-1.,0.,0.));
#1636=DIRECTION('',(0.,1.,0.));
#1637=DIRECTION('center_axis',(0.,0.,1.));
#1638=DIRECTION('ref_axis',(1.,0.,0.));
#1639=DIRECTION('',(1.,0.,0.));
#1640=DIRECTION('',(0.,-1.,0.));
#1641=DIRECTION('center_axis',(-1.,0.,0.));
#1642=DIRECTION('ref_axis',(0.,0.,1.));
#1643=DIRECTION('',(0.,0.,1.));
#1644=DIRECTION('',(0.,0.,1.));
#1645=DIRECTION('center_axis',(0.,-1.,0.));
#1646=DIRECTION('ref_axis',(0.,0.,-1.));
#1647=DIRECTION('',(1.,0.,0.));
#1648=DIRECTION('center_axis',(0.,-1.,0.));
#1649=DIRECTION('ref_axis',(0.,0.,-1.));
#1650=DIRECTION('',(-1.,0.,0.));
#1651=DIRECTION('center_axis',(0.,1.,0.));
#1652=DIRECTION('ref_axis',(1.,0.,0.));
#1653=DIRECTION('center_axis',(0.,1.,0.));
#1654=DIRECTION('ref_axis',(1.,0.,0.));
#1655=DIRECTION('',(0.,1.,0.));
#1656=DIRECTION('center_axis',(0.,-1.,0.));
#1657=DIRECTION('ref_axis',(1.,0.,0.));
#1658=DIRECTION('center_axis',(0.,1.,0.));
#1659=DIRECTION('ref_axis',(1.,0.,0.));
#1660=DIRECTION('center_axis',(0.,1.,0.));
#1661=DIRECTION('ref_axis',(1.,0.,0.));
#1662=DIRECTION('',(0.,-1.,0.));
#1663=DIRECTION('center_axis',(0.,-1.,0.));
#1664=DIRECTION('ref_axis',(1.,0.,0.));
#1665=DIRECTION('center_axis',(0.,-1.,0.));
#1666=DIRECTION('ref_axis',(-1.,0.,0.));
#1667=DIRECTION('center_axis',(0.,1.,0.));
#1668=DIRECTION('ref_axis',(0.,0.,1.));
#1669=DIRECTION('',(0.,0.,-1.));
#1670=DIRECTION('',(-1.,0.,0.));
#1671=DIRECTION('',(0.,0.,-1.));
#1672=DIRECTION('',(1.,0.,0.));
#1673=DIRECTION('center_axis',(0.,0.,1.));
#1674=DIRECTION('ref_axis',(1.,0.,0.));
#1675=DIRECTION('',(1.,0.,0.));
#1676=DIRECTION('',(0.,-1.,0.));
#1677=DIRECTION('',(0.,1.,0.));
#1678=DIRECTION('center_axis',(1.,0.,0.));
#1679=DIRECTION('ref_axis',(0.,0.,-1.));
#1680=DIRECTION('',(0.,0.,1.));
#1681=DIRECTION('',(0.,0.,-1.));
#1682=DIRECTION('',(0.,0.,1.));
#1683=DIRECTION('',(0.,1.,0.));
#1684=DIRECTION('center_axis',(0.,0.,1.));
#1685=DIRECTION('ref_axis',(1.,0.,0.));
#1686=DIRECTION('',(-1.,0.,0.));
#1687=DIRECTION('',(0.,-1.,0.));
#1688=DIRECTION('center_axis',(0.,-1.,0.));
#1689=DIRECTION('ref_axis',(0.,0.,-1.));
#1690=DIRECTION('',(0.,0.,-1.));
#1691=DIRECTION('center_axis',(-1.,0.,0.));
#1692=DIRECTION('ref_axis',(0.,0.,1.));
#1693=DIRECTION('',(0.,0.,-1.));
#1694=DIRECTION('',(0.,0.,-1.));
#1695=DIRECTION('center_axis',(0.,1.,0.));
#1696=DIRECTION('ref_axis',(0.,0.,1.));
#1697=DIRECTION('',(-1.,0.,0.));
#1698=DIRECTION('center_axis',(0.,0.,1.));
#1699=DIRECTION('ref_axis',(1.,0.,0.));
#1700=DIRECTION('center_axis',(0.,0.,1.));
#1701=DIRECTION('ref_axis',(1.,0.,0.));
#1702=DIRECTION('',(1.,0.,0.));
#1703=DIRECTION('center_axis',(0.,1.,0.));
#1704=DIRECTION('ref_axis',(0.,0.,1.));
#1705=CARTESIAN_POINT('',(0.,0.,0.));
#1706=CARTESIAN_POINT('Origin',(610.,0.,257.));
#1707=CARTESIAN_POINT('',(607.,-2.0818995585505E-16,258.7));
#1708=CARTESIAN_POINT('Origin',(607.,0.,257.));
#1709=CARTESIAN_POINT('',(615.,2.0818995585505E-16,258.7));
#1710=CARTESIAN_POINT('',(610.,-2.0818995585505E-16,258.7));
#1711=CARTESIAN_POINT('Origin',(615.,0.,257.));
#1712=CARTESIAN_POINT('Origin',(610.,0.,223.));
#1713=CARTESIAN_POINT('',(607.,-2.0818995585505E-16,224.7));
#1714=CARTESIAN_POINT('Origin',(607.,0.,223.));
#1715=CARTESIAN_POINT('',(615.,2.0818995585505E-16,224.7));
#1716=CARTESIAN_POINT('',(610.,-2.0818995585505E-16,224.7));
#1717=CARTESIAN_POINT('Origin',(615.,0.,223.));
#1718=CARTESIAN_POINT('Origin',(612.,8.48528137423857,231.514718625761));
#1719=CARTESIAN_POINT('',(607.,8.48528137423857,233.214718625761));
#1720=CARTESIAN_POINT('Origin',(607.,8.48528137423857,231.514718625761));
#1721=CARTESIAN_POINT('',(615.,8.48528137423857,233.214718625761));
#1722=CARTESIAN_POINT('',(612.,8.48528137423857,233.214718625761));
#1723=CARTESIAN_POINT('Origin',(615.,8.48528137423857,231.514718625761));
#1724=CARTESIAN_POINT('Origin',(612.,-8.48528137423857,231.514718625761));
#1725=CARTESIAN_POINT('',(607.,-8.48528137423857,233.214718625761));
#1726=CARTESIAN_POINT('Origin',(607.,-8.48528137423857,231.514718625761));
#1727=CARTESIAN_POINT('',(615.,-8.48528137423857,233.214718625761));
#1728=CARTESIAN_POINT('',(612.,-8.48528137423857,233.214718625761));
#1729=CARTESIAN_POINT('Origin',(615.,-8.48528137423857,231.514718625761));
#1730=CARTESIAN_POINT('Origin',(612.,-8.48528137423857,248.485281374239));
#1731=CARTESIAN_POINT('',(607.,-8.48528137423857,250.185281374239));
#1732=CARTESIAN_POINT('Origin',(607.,-8.48528137423857,248.485281374239));
#1733=CARTESIAN_POINT('',(615.,-8.48528137423857,250.185281374239));
#1734=CARTESIAN_POINT('',(612.,-8.48528137423857,250.185281374239));
#1735=CARTESIAN_POINT('Origin',(615.,-8.48528137423857,248.485281374239));
#1736=CARTESIAN_POINT('Origin',(612.,8.48528137423857,248.485281374239));
#1737=CARTESIAN_POINT('',(607.,8.48528137423857,250.185281374239));
#1738=CARTESIAN_POINT('Origin',(607.,8.48528137423857,248.485281374239));
#1739=CARTESIAN_POINT('',(615.,8.48528137423857,250.185281374239));
#1740=CARTESIAN_POINT('',(612.,8.48528137423857,250.185281374239));
#1741=CARTESIAN_POINT('Origin',(615.,8.48528137423857,248.485281374239));
#1742=CARTESIAN_POINT('Origin',(515.,8.48528137423857,231.514718625761));
#1743=CARTESIAN_POINT('',(512.,8.48528137423857,233.214718625761));
#1744=CARTESIAN_POINT('Origin',(512.,8.48528137423857,231.514718625761));
#1745=CARTESIAN_POINT('',(520.,8.48528137423857,233.214718625761));
#1746=CARTESIAN_POINT('',(515.,8.48528137423857,233.214718625761));
#1747=CARTESIAN_POINT('Origin',(520.,8.48528137423857,231.514718625761));
#1748=CARTESIAN_POINT('Origin',(515.,-8.48528137423857,231.514718625761));
#1749=CARTESIAN_POINT('',(512.,-8.48528137423857,233.214718625761));
#1750=CARTESIAN_POINT('Origin',(512.,-8.48528137423857,231.514718625761));
#1751=CARTESIAN_POINT('',(520.,-8.48528137423857,233.214718625761));
#1752=CARTESIAN_POINT('',(515.,-8.48528137423857,233.214718625761));
#1753=CARTESIAN_POINT('Origin',(520.,-8.48528137423857,231.514718625761));
#1754=CARTESIAN_POINT('Origin',(515.,-8.48528137423857,248.485281374239));
#1755=CARTESIAN_POINT('',(512.,-8.48528137423857,250.185281374239));
#1756=CARTESIAN_POINT('Origin',(512.,-8.48528137423857,248.485281374239));
#1757=CARTESIAN_POINT('',(520.,-8.48528137423857,250.185281374239));
#1758=CARTESIAN_POINT('',(515.,-8.48528137423857,250.185281374239));
#1759=CARTESIAN_POINT('Origin',(520.,-8.48528137423857,248.485281374239));
#1760=CARTESIAN_POINT('Origin',(515.,8.48528137423857,248.485281374239));
#1761=CARTESIAN_POINT('',(512.,8.48528137423857,250.185281374239));
#1762=CARTESIAN_POINT('Origin',(512.,8.48528137423857,248.485281374239));
#1763=CARTESIAN_POINT('',(520.,8.48528137423857,250.185281374239));
#1764=CARTESIAN_POINT('',(515.,8.48528137423857,250.185281374239));
#1765=CARTESIAN_POINT('Origin',(520.,8.48528137423857,248.485281374239));
#1766=CARTESIAN_POINT('Origin',(611.,0.,240.));
#1767=CARTESIAN_POINT('',(611.,1.12055182121983E-15,249.15));
#1768=CARTESIAN_POINT('Origin',(611.,0.,240.));
#1769=CARTESIAN_POINT('',(611.,9.06238631369041E-16,247.4));
#1770=CARTESIAN_POINT('Origin',(611.,0.,240.));
#1771=CARTESIAN_POINT('Origin',(609.,0.,240.));
#1772=CARTESIAN_POINT('',(607.,-9.06238631369041E-16,247.4));
#1773=CARTESIAN_POINT('Origin',(607.,0.,240.));
#1774=CARTESIAN_POINT('',(609.,-9.06238631369041E-16,247.4));
#1775=CARTESIAN_POINT('Origin',(611.,0.,240.));
#1776=CARTESIAN_POINT('',(615.,9.,253.228756555323));
#1777=CARTESIAN_POINT('',(607.,9.,253.228756555323));
#1778=CARTESIAN_POINT('',(611.,9.,253.228756555323));
#1779=CARTESIAN_POINT('',(615.,9.,226.771243444677));
#1780=CARTESIAN_POINT('Origin',(615.,0.,240.));
#1781=CARTESIAN_POINT('',(607.,9.,226.771243444677));
#1782=CARTESIAN_POINT('',(611.,9.,226.771243444677));
#1783=CARTESIAN_POINT('Origin',(607.,0.,240.));
#1784=CARTESIAN_POINT('Origin',(607.,0.,240.));
#1785=CARTESIAN_POINT('',(607.,-9.,276.));
#1786=CARTESIAN_POINT('',(607.,-9.,253.228756555323));
#1787=CARTESIAN_POINT('',(607.,-9.,240.));
#1788=CARTESIAN_POINT('',(607.,9.,276.));
#1789=CARTESIAN_POINT('',(607.,0.,276.));
#1790=CARTESIAN_POINT('',(607.,9.,240.));
#1791=CARTESIAN_POINT('',(607.,9.,204.));
#1792=CARTESIAN_POINT('',(607.,9.,240.));
#1793=CARTESIAN_POINT('',(607.,-9.,204.));
#1794=CARTESIAN_POINT('',(607.,0.,204.));
#1795=CARTESIAN_POINT('',(607.,-9.,226.771243444677));
#1796=CARTESIAN_POINT('',(607.,-9.,240.));
#1797=CARTESIAN_POINT('Origin',(607.,0.,240.));
#1798=CARTESIAN_POINT('Origin',(516.,0.,240.));
#1799=CARTESIAN_POINT('',(516.,-1.12055182121983E-15,249.15));
#1800=CARTESIAN_POINT('Origin',(516.,0.,240.));
#1801=CARTESIAN_POINT('',(516.,-9.06238631369041E-16,247.4));
#1802=CARTESIAN_POINT('Origin',(516.,0.,240.));
#1803=CARTESIAN_POINT('Origin',(518.,0.,240.));
#1804=CARTESIAN_POINT('',(520.,9.06238631369041E-16,247.4));
#1805=CARTESIAN_POINT('',(518.,-9.06238631369041E-16,247.4));
#1806=CARTESIAN_POINT('Origin',(520.,0.,240.));
#1807=CARTESIAN_POINT('Origin',(516.,0.,240.));
#1808=CARTESIAN_POINT('',(512.,-9.,253.228756555323));
#1809=CARTESIAN_POINT('',(520.,-9.,253.228756555323));
#1810=CARTESIAN_POINT('',(516.,-9.,253.228756555323));
#1811=CARTESIAN_POINT('',(512.,-9.,226.771243444677));
#1812=CARTESIAN_POINT('Origin',(512.,0.,240.));
#1813=CARTESIAN_POINT('',(520.,-9.,226.771243444677));
#1814=CARTESIAN_POINT('',(516.,-9.,226.771243444677));
#1815=CARTESIAN_POINT('Origin',(520.,0.,240.));
#1816=CARTESIAN_POINT('Origin',(520.,0.,240.));
#1817=CARTESIAN_POINT('',(520.,9.,276.));
#1818=CARTESIAN_POINT('',(520.,9.,253.228756555323));
#1819=CARTESIAN_POINT('',(520.,9.,240.));
#1820=CARTESIAN_POINT('',(520.,-9.,276.));
#1821=CARTESIAN_POINT('',(520.,0.,276.));
#1822=CARTESIAN_POINT('',(520.,-9.,240.));
#1823=CARTESIAN_POINT('',(520.,-9.,204.));
#1824=CARTESIAN_POINT('',(520.,-9.,240.));
#1825=CARTESIAN_POINT('',(520.,9.,204.));
#1826=CARTESIAN_POINT('',(520.,0.,204.));
#1827=CARTESIAN_POINT('',(520.,9.,226.771243444677));
#1828=CARTESIAN_POINT('',(520.,9.,240.));
#1829=CARTESIAN_POINT('Origin',(520.,0.,240.));
#1830=CARTESIAN_POINT('Origin',(615.,0.,200.));
#1831=CARTESIAN_POINT('',(615.,-9.,253.228756555323));
#1832=CARTESIAN_POINT('',(615.,-9.,226.771243444677));
#1833=CARTESIAN_POINT('Origin',(615.,0.,240.));
#1834=CARTESIAN_POINT('',(615.,-9.,204.));
#1835=CARTESIAN_POINT('',(615.,-9.,240.));
#1836=CARTESIAN_POINT('',(615.,-40.,204.));
#1837=CARTESIAN_POINT('',(615.,0.,204.));
#1838=CARTESIAN_POINT('',(615.,-40.,196.));
#1839=CARTESIAN_POINT('',(615.,-40.,200.));
#1840=CARTESIAN_POINT('',(615.,40.,196.));
#1841=CARTESIAN_POINT('',(615.,0.,196.));
#1842=CARTESIAN_POINT('',(615.,40.,204.));
#1843=CARTESIAN_POINT('',(615.,40.,200.));
#1844=CARTESIAN_POINT('',(615.,9.,204.));
#1845=CARTESIAN_POINT('',(615.,0.,204.));
#1846=CARTESIAN_POINT('',(615.,9.,240.));
#1847=CARTESIAN_POINT('',(615.,9.,276.));
#1848=CARTESIAN_POINT('',(615.,9.,240.));
#1849=CARTESIAN_POINT('',(615.,40.,276.));
#1850=CARTESIAN_POINT('',(615.,0.,276.));
#1851=CARTESIAN_POINT('',(615.,40.,284.));
#1852=CARTESIAN_POINT('',(615.,40.,280.));
#1853=CARTESIAN_POINT('',(615.,-40.,284.));
#1854=CARTESIAN_POINT('',(615.,0.,284.));
#1855=CARTESIAN_POINT('',(615.,-40.,276.));
#1856=CARTESIAN_POINT('',(615.,-40.,280.));
#1857=CARTESIAN_POINT('',(615.,-9.,276.));
#1858=CARTESIAN_POINT('',(615.,0.,276.));
#1859=CARTESIAN_POINT('',(615.,-9.,240.));
#1860=CARTESIAN_POINT('',(615.,-1.12055182121983E-15,249.15));
#1861=CARTESIAN_POINT('Origin',(615.,0.,240.));
#1862=CARTESIAN_POINT('Origin',(611.,0.,240.));
#1863=CARTESIAN_POINT('',(611.,-1.12055182121983E-15,249.15));
#1864=CARTESIAN_POINT('Origin',(611.,0.,240.));
#1865=CARTESIAN_POINT('',(611.,-9.,226.771243444677));
#1866=CARTESIAN_POINT('',(611.,-9.,253.228756555323));
#1867=CARTESIAN_POINT('Origin',(611.,9.,240.));
#1868=CARTESIAN_POINT('',(587.25,9.,204.));
#1869=CARTESIAN_POINT('Origin',(611.,9.,240.));
#1870=CARTESIAN_POINT('',(587.25,9.,276.));
#1871=CARTESIAN_POINT('Origin',(611.,-9.,240.));
#1872=CARTESIAN_POINT('',(587.25,-9.,204.));
#1873=CARTESIAN_POINT('Origin',(611.,-9.,240.));
#1874=CARTESIAN_POINT('',(587.25,-9.,276.));
#1875=CARTESIAN_POINT('Origin',(516.,0.,240.));
#1876=CARTESIAN_POINT('',(512.,-1.12055182121983E-15,249.15));
#1877=CARTESIAN_POINT('Origin',(512.,0.,240.));
#1878=CARTESIAN_POINT('',(516.,-1.12055182121983E-15,249.15));
#1879=CARTESIAN_POINT('Origin',(516.,0.,240.));
#1880=CARTESIAN_POINT('',(512.,9.,226.771243444677));
#1881=CARTESIAN_POINT('',(516.,9.,226.771243444677));
#1882=CARTESIAN_POINT('',(512.,9.,253.228756555323));
#1883=CARTESIAN_POINT('Origin',(512.,0.,240.));
#1884=CARTESIAN_POINT('',(516.,9.,253.228756555323));
#1885=CARTESIAN_POINT('Origin',(516.,-9.,240.));
#1886=CARTESIAN_POINT('',(512.,-9.,204.));
#1887=CARTESIAN_POINT('',(512.,-9.,240.));
#1888=CARTESIAN_POINT('',(539.75,-9.,204.));
#1889=CARTESIAN_POINT('Origin',(516.,-9.,240.));
#1890=CARTESIAN_POINT('',(512.,-9.,276.));
#1891=CARTESIAN_POINT('',(539.75,-9.,276.));
#1892=CARTESIAN_POINT('',(512.,-9.,240.));
#1893=CARTESIAN_POINT('Origin',(512.,0.,200.));
#1894=CARTESIAN_POINT('',(512.,-40.,276.));
#1895=CARTESIAN_POINT('',(512.,0.,276.));
#1896=CARTESIAN_POINT('',(512.,-40.,284.));
#1897=CARTESIAN_POINT('',(512.,-40.,280.));
#1898=CARTESIAN_POINT('',(512.,40.,284.));
#1899=CARTESIAN_POINT('',(512.,0.,284.));
#1900=CARTESIAN_POINT('',(512.,40.,276.));
#1901=CARTESIAN_POINT('',(512.,40.,280.));
#1902=CARTESIAN_POINT('',(512.,9.,276.));
#1903=CARTESIAN_POINT('',(512.,0.,276.));
#1904=CARTESIAN_POINT('',(512.,9.,240.));
#1905=CARTESIAN_POINT('',(512.,9.,204.));
#1906=CARTESIAN_POINT('',(512.,9.,240.));
#1907=CARTESIAN_POINT('',(512.,40.,204.));
#1908=CARTESIAN_POINT('',(512.,0.,204.));
#1909=CARTESIAN_POINT('',(512.,40.,196.));
#1910=CARTESIAN_POINT('',(512.,40.,200.));
#1911=CARTESIAN_POINT('',(512.,-40.,196.));
#1912=CARTESIAN_POINT('',(512.,0.,196.));
#1913=CARTESIAN_POINT('',(512.,-40.,204.));
#1914=CARTESIAN_POINT('',(512.,-40.,200.));
#1915=CARTESIAN_POINT('',(512.,0.,204.));
#1916=CARTESIAN_POINT('Origin',(516.,9.,240.));
#1917=CARTESIAN_POINT('',(539.75,9.,204.));
#1918=CARTESIAN_POINT('Origin',(516.,9.,240.));
#1919=CARTESIAN_POINT('',(539.75,9.,276.));
#1920=CARTESIAN_POINT('Origin',(563.5,0.,276.));
#1921=CARTESIAN_POINT('',(580.,-40.,276.));
#1922=CARTESIAN_POINT('',(563.5,-40.,276.));
#1923=CARTESIAN_POINT('',(580.,-34.,276.));
#1924=CARTESIAN_POINT('',(580.,-19.,276.));
#1925=CARTESIAN_POINT('',(530.,-34.,276.));
#1926=CARTESIAN_POINT('',(559.25,-34.,276.));
#1927=CARTESIAN_POINT('',(530.,-40.,276.));
#1928=CARTESIAN_POINT('',(530.,-19.,276.));
#1929=CARTESIAN_POINT('',(563.5,-40.,276.));
#1930=CARTESIAN_POINT('',(530.,40.,276.));
#1931=CARTESIAN_POINT('',(563.5,40.,276.));
#1932=CARTESIAN_POINT('',(530.,34.,276.));
#1933=CARTESIAN_POINT('',(530.,19.,276.));
#1934=CARTESIAN_POINT('',(580.,34.,276.));
#1935=CARTESIAN_POINT('',(559.25,34.,276.));
#1936=CARTESIAN_POINT('',(580.,40.,276.));
#1937=CARTESIAN_POINT('',(580.,19.,276.));
#1938=CARTESIAN_POINT('',(563.5,40.,276.));
#1939=CARTESIAN_POINT('Origin',(563.5,0.,204.));
#1940=CARTESIAN_POINT('',(580.,40.,204.));
#1941=CARTESIAN_POINT('',(563.5,40.,204.));
#1942=CARTESIAN_POINT('',(580.,34.,204.));
#1943=CARTESIAN_POINT('',(580.,19.,204.));
#1944=CARTESIAN_POINT('',(530.,34.,204.));
#1945=CARTESIAN_POINT('',(559.25,34.,204.));
#1946=CARTESIAN_POINT('',(530.,40.,204.));
#1947=CARTESIAN_POINT('',(530.,19.,204.));
#1948=CARTESIAN_POINT('',(563.5,40.,204.));
#1949=CARTESIAN_POINT('',(530.,-40.,204.));
#1950=CARTESIAN_POINT('',(563.5,-40.,204.));
#1951=CARTESIAN_POINT('',(530.,-34.,204.));
#1952=CARTESIAN_POINT('',(530.,-19.,204.));
#1953=CARTESIAN_POINT('',(580.,-34.,204.));
#1954=CARTESIAN_POINT('',(559.25,-34.,204.));
#1955=CARTESIAN_POINT('',(580.,-40.,204.));
#1956=CARTESIAN_POINT('',(580.,-19.,204.));
#1957=CARTESIAN_POINT('',(563.5,-40.,204.));
#1958=CARTESIAN_POINT('Origin',(555.,45.,240.));
#1959=CARTESIAN_POINT('',(544.8,34.,240.));
#1960=CARTESIAN_POINT('Origin',(555.,34.,240.));
#1961=CARTESIAN_POINT('',(544.8,48.,240.));
#1962=CARTESIAN_POINT('',(544.8,45.,240.));
#1963=CARTESIAN_POINT('Origin',(555.,48.,240.));
#1964=CARTESIAN_POINT('Origin',(555.,45.,240.));
#1965=CARTESIAN_POINT('',(542.6,48.,240.));
#1966=CARTESIAN_POINT('Origin',(555.,48.,240.));
#1967=CARTESIAN_POINT('',(542.6,42.,240.));
#1968=CARTESIAN_POINT('',(542.6,45.,240.));
#1969=CARTESIAN_POINT('Origin',(555.,42.,240.));
#1970=CARTESIAN_POINT('Origin',(555.,48.,240.));
#1971=CARTESIAN_POINT('Origin',(555.,42.,240.));
#1972=CARTESIAN_POINT('',(580.,42.,280.));
#1973=CARTESIAN_POINT('',(580.,42.,200.));
#1974=CARTESIAN_POINT('',(580.,42.,240.));
#1975=CARTESIAN_POINT('',(530.,42.,200.));
#1976=CARTESIAN_POINT('',(555.,42.,200.));
#1977=CARTESIAN_POINT('',(530.,42.,280.));
#1978=CARTESIAN_POINT('',(530.,42.,240.));
#1979=CARTESIAN_POINT('',(555.,42.,280.));
#1980=CARTESIAN_POINT('Origin',(530.,38.,240.));
#1981=CARTESIAN_POINT('',(530.,40.,200.));
#1982=CARTESIAN_POINT('',(530.,40.,220.));
#1983=CARTESIAN_POINT('',(530.,34.,240.));
#1984=CARTESIAN_POINT('',(530.,40.,280.));
#1985=CARTESIAN_POINT('',(530.,40.,260.));
#1986=CARTESIAN_POINT('',(530.,38.,280.));
#1987=CARTESIAN_POINT('',(530.,38.,200.));
#1988=CARTESIAN_POINT('Origin',(555.,34.,240.));
#1989=CARTESIAN_POINT('',(580.,34.,240.));
#1990=CARTESIAN_POINT('Origin',(555.,38.,280.));
#1991=CARTESIAN_POINT('',(580.,40.,280.));
#1992=CARTESIAN_POINT('',(559.25,40.,280.));
#1993=CARTESIAN_POINT('',(580.,38.,280.));
#1994=CARTESIAN_POINT('Origin',(555.,38.,200.));
#1995=CARTESIAN_POINT('',(580.,40.,200.));
#1996=CARTESIAN_POINT('',(559.25,40.,200.));
#1997=CARTESIAN_POINT('',(580.,38.,200.));
#1998=CARTESIAN_POINT('Origin',(580.,38.,240.));
#1999=CARTESIAN_POINT('',(580.,40.,220.));
#2000=CARTESIAN_POINT('',(580.,40.,260.));
#2001=CARTESIAN_POINT('Origin',(563.5,40.,200.));
#2002=CARTESIAN_POINT('',(563.5,40.,196.));
#2003=CARTESIAN_POINT('Origin',(563.5,40.,280.));
#2004=CARTESIAN_POINT('',(563.5,40.,284.));
#2005=CARTESIAN_POINT('Origin',(555.,-45.,240.));
#2006=CARTESIAN_POINT('',(544.8,-48.,240.));
#2007=CARTESIAN_POINT('Origin',(555.,-48.,240.));
#2008=CARTESIAN_POINT('',(544.8,-34.,240.));
#2009=CARTESIAN_POINT('',(544.8,-45.,240.));
#2010=CARTESIAN_POINT('Origin',(555.,-34.,240.));
#2011=CARTESIAN_POINT('Origin',(555.,-45.,240.));
#2012=CARTESIAN_POINT('',(542.6,-42.,240.));
#2013=CARTESIAN_POINT('Origin',(555.,-42.,240.));
#2014=CARTESIAN_POINT('',(542.6,-48.,240.));
#2015=CARTESIAN_POINT('',(542.6,-45.,240.));
#2016=CARTESIAN_POINT('Origin',(555.,-48.,240.));
#2017=CARTESIAN_POINT('Origin',(555.,-48.,240.));
#2018=CARTESIAN_POINT('Origin',(555.,-42.,240.));
#2019=CARTESIAN_POINT('',(530.,-42.,280.));
#2020=CARTESIAN_POINT('',(530.,-42.,200.));
#2021=CARTESIAN_POINT('',(530.,-42.,240.));
#2022=CARTESIAN_POINT('',(580.,-42.,200.));
#2023=CARTESIAN_POINT('',(555.,-42.,200.));
#2024=CARTESIAN_POINT('',(580.,-42.,280.));
#2025=CARTESIAN_POINT('',(580.,-42.,240.));
#2026=CARTESIAN_POINT('',(555.,-42.,280.));
#2027=CARTESIAN_POINT('Origin',(555.,-38.,280.));
#2028=CARTESIAN_POINT('',(530.,-40.,280.));
#2029=CARTESIAN_POINT('',(580.,-40.,280.));
#2030=CARTESIAN_POINT('',(559.25,-40.,280.));
#2031=CARTESIAN_POINT('',(530.,-38.,280.));
#2032=CARTESIAN_POINT('',(580.,-38.,280.));
#2033=CARTESIAN_POINT('Origin',(530.,-38.,240.));
#2034=CARTESIAN_POINT('',(530.,-40.,260.));
#2035=CARTESIAN_POINT('',(530.,-34.,240.));
#2036=CARTESIAN_POINT('',(530.,-40.,200.));
#2037=CARTESIAN_POINT('',(530.,-40.,220.));
#2038=CARTESIAN_POINT('',(530.,-38.,200.));
#2039=CARTESIAN_POINT('Origin',(555.,-38.,200.));
#2040=CARTESIAN_POINT('',(580.,-40.,200.));
#2041=CARTESIAN_POINT('',(559.25,-40.,200.));
#2042=CARTESIAN_POINT('',(580.,-38.,200.));
#2043=CARTESIAN_POINT('Origin',(555.,-34.,240.));
#2044=CARTESIAN_POINT('',(580.,-34.,240.));
#2045=CARTESIAN_POINT('Origin',(580.,-38.,240.));
#2046=CARTESIAN_POINT('',(580.,-40.,260.));
#2047=CARTESIAN_POINT('',(580.,-40.,220.));
#2048=CARTESIAN_POINT('Origin',(563.5,-40.,200.));
#2049=CARTESIAN_POINT('',(563.5,-40.,196.));
#2050=CARTESIAN_POINT('Origin',(563.5,0.,196.));
#2051=CARTESIAN_POINT('Origin',(563.5,0.,284.));
#2052=CARTESIAN_POINT('',(563.5,-40.,284.));
#2053=CARTESIAN_POINT('Origin',(563.5,-40.,280.));
#2054=UNCERTAINTY_MEASURE_WITH_UNIT(LENGTH_MEASURE(0.01),#2058,
'DISTANCE_ACCURACY_VALUE',
'Maximum model space distance between geometric entities at asserted c
onnectivities');
#2055=UNCERTAINTY_MEASURE_WITH_UNIT(LENGTH_MEASURE(0.01),#2058,
'DISTANCE_ACCURACY_VALUE',
'Maximum model space distance between geometric entities at asserted c
onnectivities');
#2056=(
GEOMETRIC_REPRESENTATION_CONTEXT(3)
GLOBAL_UNCERTAINTY_ASSIGNED_CONTEXT((#2054))
GLOBAL_UNIT_ASSIGNED_CONTEXT((#2058,#2060,#2061))
REPRESENTATION_CONTEXT('','3D')
);
#2057=(
GEOMETRIC_REPRESENTATION_CONTEXT(3)
GLOBAL_UNCERTAINTY_ASSIGNED_CONTEXT((#2055))
GLOBAL_UNIT_ASSIGNED_CONTEXT((#2058,#2060,#2061))
REPRESENTATION_CONTEXT('','3D')
);
#2058=(
LENGTH_UNIT()
NAMED_UNIT(*)
SI_UNIT(.MILLI.,.METRE.)
);
#2059=(
LENGTH_UNIT()
NAMED_UNIT(*)
SI_UNIT($,.METRE.)
);
#2060=(
NAMED_UNIT(*)
PLANE_ANGLE_UNIT()
SI_UNIT($,.RADIAN.)
);
#2061=(
NAMED_UNIT(*)
SI_UNIT($,.STERADIAN.)
SOLID_ANGLE_UNIT()
);
#2062=SHAPE_DEFINITION_REPRESENTATION(#2063,#2064);
#2063=PRODUCT_DEFINITION_SHAPE('',$,#2066);
#2064=SHAPE_REPRESENTATION('',(#1266),#2056);
#2065=PRODUCT_DEFINITION_CONTEXT('part definition',#2070,'design');
#2066=PRODUCT_DEFINITION('2026-08-12-23-10-08-239',
'EXPORT_TMP_PRINT_V009B_P601_DifferentialCarrier_Sep',#2067,#2065);
#2067=PRODUCT_DEFINITION_FORMATION('',$,#2072);
#2068=PRODUCT_RELATED_PRODUCT_CATEGORY(
'EXPORT_TMP_PRINT_V009B_P601_DifferentialCarrier_Sep',
'EXPORT_TMP_PRINT_V009B_P601_DifferentialCarrier_Sep',(#2072));
#2069=APPLICATION_PROTOCOL_DEFINITION('international standard',
'automotive_design',2009,#2070);
#2070=APPLICATION_CONTEXT(
'Core Data for Automotive Mechanical Design Process');
#2071=PRODUCT_CONTEXT('part definition',#2070,'mechanical');
#2072=PRODUCT('2026-08-12-23-10-08-239',
'EXPORT_TMP_PRINT_V009B_P601_DifferentialCarrier_Sep',$,(#2071));
#2073=PRESENTATION_STYLE_ASSIGNMENT((#2074));
#2074=SURFACE_STYLE_USAGE(.BOTH.,#2075);
#2075=SURFACE_SIDE_STYLE('',(#2076));
#2076=SURFACE_STYLE_FILL_AREA(#2077);
#2077=FILL_AREA_STYLE('Steel - Satin',(#2078));
#2078=FILL_AREA_STYLE_COLOUR('Steel - Satin',#2079);
#2079=COLOUR_RGB('Steel - Satin',0.627450980392157,0.627450980392157,0.627450980392157);
ENDSEC;
END-ISO-10303-21;
