ISO-10303-21;
HEADER;
/* Generated by software containing ST-Developer
 * from STEP Tools, Inc. (www.steptools.com) 
 */

FILE_DESCRIPTION(
/* description */ (''),
/* implementation_level */ '2;1');

FILE_NAME(
/* name */ 'PRINT_V009C_P702_J6_HollowD12_DFlatShaft_8mmBore.step',
/* time_stamp */ '2026-08-12T23:10:33+02:00',
/* author */ (''),
/* organization */ (''),
/* preprocessor_version */ 'ST-DEVELOPER v20.1',
/* originating_system */ 'Autodesk Translation Framework v15.8.0.0',
/* authorisation */ '');

FILE_SCHEMA (('AUTOMOTIVE_DESIGN { 1 0 10303 214 3 1 1 }'));
ENDSEC;

DATA;
#10=MECHANICAL_DESIGN_GEOMETRIC_PRESENTATION_REPRESENTATION('',(#13),#399);
#11=SHAPE_REPRESENTATION_RELATIONSHIP('SRR','None',#406,#12);
#12=ADVANCED_BREP_SHAPE_REPRESENTATION('',(#14),#398);
#13=STYLED_ITEM('',(#415),#14);
#14=MANIFOLD_SOLID_BREP(
'PRINT_V009C_P702_J6_HollowD12_DFlatShaft_8mmBore',#223);
#15=CYLINDRICAL_SURFACE('',#258,4.);
#16=CYLINDRICAL_SURFACE('',#260,5.95);
#17=FACE_BOUND('',#48,.T.);
#18=FACE_BOUND('',#58,.T.);
#19=CIRCLE('',#239,5.95);
#20=CIRCLE('',#240,5.95);
#21=CIRCLE('',#242,5.95);
#22=CIRCLE('',#243,4.);
#23=CIRCLE('',#245,5.95);
#24=CIRCLE('',#246,5.95);
#25=CIRCLE('',#249,5.95);
#26=CIRCLE('',#250,5.95);
#27=CIRCLE('',#252,5.95);
#28=CIRCLE('',#253,5.95);
#29=CIRCLE('',#256,5.95);
#30=CIRCLE('',#257,5.95);
#31=CIRCLE('',#259,4.);
#32=CIRCLE('',#261,5.95);
#33=FACE_OUTER_BOUND('',#45,.T.);
#34=FACE_OUTER_BOUND('',#46,.T.);
#35=FACE_OUTER_BOUND('',#47,.T.);
#36=FACE_OUTER_BOUND('',#49,.T.);
#37=FACE_OUTER_BOUND('',#50,.T.);
#38=FACE_OUTER_BOUND('',#51,.T.);
#39=FACE_OUTER_BOUND('',#52,.T.);
#40=FACE_OUTER_BOUND('',#53,.T.);
#41=FACE_OUTER_BOUND('',#54,.T.);
#42=FACE_OUTER_BOUND('',#55,.T.);
#43=FACE_OUTER_BOUND('',#56,.T.);
#44=FACE_OUTER_BOUND('',#57,.T.);
#45=EDGE_LOOP('',(#141,#142,#143,#144));
#46=EDGE_LOOP('',(#145,#146,#147));
#47=EDGE_LOOP('',(#148,#149));
#48=EDGE_LOOP('',(#150));
#49=EDGE_LOOP('',(#151,#152,#153));
#50=EDGE_LOOP('',(#154,#155,#156,#157));
#51=EDGE_LOOP('',(#158,#159,#160));
#52=EDGE_LOOP('',(#161,#162,#163));
#53=EDGE_LOOP('',(#164,#165,#166,#167));
#54=EDGE_LOOP('',(#168,#169,#170));
#55=EDGE_LOOP('',(#171,#172,#173,#174));
#56=EDGE_LOOP('',(#175,#176,#177,#178,#179,#180,#181,#182,#183,#184,#185,
#186,#187,#188,#189,#190,#191,#192,#193,#194,#195,#196,#197,#198));
#57=EDGE_LOOP('',(#199));
#58=EDGE_LOOP('',(#200));
#59=LINE('',#337,#75);
#60=LINE('',#339,#76);
#61=LINE('',#341,#77);
#62=LINE('',#342,#78);
#63=LINE('',#356,#79);
#64=LINE('',#360,#80);
#65=LINE('',#362,#81);
#66=LINE('',#363,#82);
#67=LINE('',#373,#83);
#68=LINE('',#377,#84);
#69=LINE('',#379,#85);
#70=LINE('',#380,#86);
#71=LINE('',#388,#87);
#72=LINE('',#390,#88);
#73=LINE('',#391,#89);
#74=LINE('',#393,#90);
#75=VECTOR('',#267,10.);
#76=VECTOR('',#268,10.);
#77=VECTOR('',#269,10.);
#78=VECTOR('',#270,10.);
#79=VECTOR('',#287,10.);
#80=VECTOR('',#292,10.);
#81=VECTOR('',#293,10.);
#82=VECTOR('',#294,10.);
#83=VECTOR('',#305,10.);
#84=VECTOR('',#310,10.);
#85=VECTOR('',#311,10.);
#86=VECTOR('',#312,10.);
#87=VECTOR('',#323,4.);
#88=VECTOR('',#326,5.95);
#89=VECTOR('',#327,5.95);
#90=VECTOR('',#328,5.95);
#91=VERTEX_POINT('',#335);
#92=VERTEX_POINT('',#336);
#93=VERTEX_POINT('',#338);
#94=VERTEX_POINT('',#340);
#95=VERTEX_POINT('',#344);
#96=VERTEX_POINT('',#349);
#97=VERTEX_POINT('',#352);
#98=VERTEX_POINT('',#353);
#99=VERTEX_POINT('',#355);
#100=VERTEX_POINT('',#359);
#101=VERTEX_POINT('',#361);
#102=VERTEX_POINT('',#365);
#103=VERTEX_POINT('',#369);
#104=VERTEX_POINT('',#370);
#105=VERTEX_POINT('',#372);
#106=VERTEX_POINT('',#376);
#107=VERTEX_POINT('',#378);
#108=VERTEX_POINT('',#382);
#109=VERTEX_POINT('',#386);
#110=VERTEX_POINT('',#392);
#111=EDGE_CURVE('',#91,#92,#59,.T.);
#112=EDGE_CURVE('',#93,#91,#60,.T.);
#113=EDGE_CURVE('',#94,#93,#61,.T.);
#114=EDGE_CURVE('',#92,#94,#62,.T.);
#115=EDGE_CURVE('',#93,#95,#19,.T.);
#116=EDGE_CURVE('',#95,#91,#20,.T.);
#117=EDGE_CURVE('',#94,#92,#21,.T.);
#118=EDGE_CURVE('',#96,#96,#22,.T.);
#119=EDGE_CURVE('',#97,#98,#23,.T.);
#120=EDGE_CURVE('',#97,#99,#63,.T.);
#121=EDGE_CURVE('',#98,#99,#24,.T.);
#122=EDGE_CURVE('',#100,#97,#64,.T.);
#123=EDGE_CURVE('',#101,#100,#65,.T.);
#124=EDGE_CURVE('',#99,#101,#66,.T.);
#125=EDGE_CURVE('',#101,#102,#25,.T.);
#126=EDGE_CURVE('',#102,#100,#26,.T.);
#127=EDGE_CURVE('',#103,#104,#27,.T.);
#128=EDGE_CURVE('',#103,#105,#67,.T.);
#129=EDGE_CURVE('',#104,#105,#28,.T.);
#130=EDGE_CURVE('',#106,#103,#68,.T.);
#131=EDGE_CURVE('',#107,#106,#69,.T.);
#132=EDGE_CURVE('',#105,#107,#70,.T.);
#133=EDGE_CURVE('',#107,#108,#29,.T.);
#134=EDGE_CURVE('',#108,#106,#30,.T.);
#135=EDGE_CURVE('',#109,#109,#31,.T.);
#136=EDGE_CURVE('',#109,#96,#71,.T.);
#137=EDGE_CURVE('',#95,#98,#72,.T.);
#138=EDGE_CURVE('',#102,#104,#73,.T.);
#139=EDGE_CURVE('',#108,#110,#74,.T.);
#140=EDGE_CURVE('',#110,#110,#32,.T.);
#141=ORIENTED_EDGE('',*,*,#111,.F.);
#142=ORIENTED_EDGE('',*,*,#112,.F.);
#143=ORIENTED_EDGE('',*,*,#113,.F.);
#144=ORIENTED_EDGE('',*,*,#114,.F.);
#145=ORIENTED_EDGE('',*,*,#115,.F.);
#146=ORIENTED_EDGE('',*,*,#112,.T.);
#147=ORIENTED_EDGE('',*,*,#116,.F.);
#148=ORIENTED_EDGE('',*,*,#114,.T.);
#149=ORIENTED_EDGE('',*,*,#117,.T.);
#150=ORIENTED_EDGE('',*,*,#118,.T.);
#151=ORIENTED_EDGE('',*,*,#119,.F.);
#152=ORIENTED_EDGE('',*,*,#120,.T.);
#153=ORIENTED_EDGE('',*,*,#121,.F.);
#154=ORIENTED_EDGE('',*,*,#122,.F.);
#155=ORIENTED_EDGE('',*,*,#123,.F.);
#156=ORIENTED_EDGE('',*,*,#124,.F.);
#157=ORIENTED_EDGE('',*,*,#120,.F.);
#158=ORIENTED_EDGE('',*,*,#125,.F.);
#159=ORIENTED_EDGE('',*,*,#123,.T.);
#160=ORIENTED_EDGE('',*,*,#126,.F.);
#161=ORIENTED_EDGE('',*,*,#127,.F.);
#162=ORIENTED_EDGE('',*,*,#128,.T.);
#163=ORIENTED_EDGE('',*,*,#129,.F.);
#164=ORIENTED_EDGE('',*,*,#130,.F.);
#165=ORIENTED_EDGE('',*,*,#131,.F.);
#166=ORIENTED_EDGE('',*,*,#132,.F.);
#167=ORIENTED_EDGE('',*,*,#128,.F.);
#168=ORIENTED_EDGE('',*,*,#133,.F.);
#169=ORIENTED_EDGE('',*,*,#131,.T.);
#170=ORIENTED_EDGE('',*,*,#134,.F.);
#171=ORIENTED_EDGE('',*,*,#135,.F.);
#172=ORIENTED_EDGE('',*,*,#136,.T.);
#173=ORIENTED_EDGE('',*,*,#118,.F.);
#174=ORIENTED_EDGE('',*,*,#136,.F.);
#175=ORIENTED_EDGE('',*,*,#111,.T.);
#176=ORIENTED_EDGE('',*,*,#117,.F.);
#177=ORIENTED_EDGE('',*,*,#113,.T.);
#178=ORIENTED_EDGE('',*,*,#115,.T.);
#179=ORIENTED_EDGE('',*,*,#137,.T.);
#180=ORIENTED_EDGE('',*,*,#121,.T.);
#181=ORIENTED_EDGE('',*,*,#124,.T.);
#182=ORIENTED_EDGE('',*,*,#125,.T.);
#183=ORIENTED_EDGE('',*,*,#138,.T.);
#184=ORIENTED_EDGE('',*,*,#129,.T.);
#185=ORIENTED_EDGE('',*,*,#132,.T.);
#186=ORIENTED_EDGE('',*,*,#133,.T.);
#187=ORIENTED_EDGE('',*,*,#139,.T.);
#188=ORIENTED_EDGE('',*,*,#140,.F.);
#189=ORIENTED_EDGE('',*,*,#139,.F.);
#190=ORIENTED_EDGE('',*,*,#134,.T.);
#191=ORIENTED_EDGE('',*,*,#130,.T.);
#192=ORIENTED_EDGE('',*,*,#127,.T.);
#193=ORIENTED_EDGE('',*,*,#138,.F.);
#194=ORIENTED_EDGE('',*,*,#126,.T.);
#195=ORIENTED_EDGE('',*,*,#122,.T.);
#196=ORIENTED_EDGE('',*,*,#119,.T.);
#197=ORIENTED_EDGE('',*,*,#137,.F.);
#198=ORIENTED_EDGE('',*,*,#116,.T.);
#199=ORIENTED_EDGE('',*,*,#140,.T.);
#200=ORIENTED_EDGE('',*,*,#135,.T.);
#201=PLANE('',#237);
#202=PLANE('',#238);
#203=PLANE('',#241);
#204=PLANE('',#244);
#205=PLANE('',#247);
#206=PLANE('',#248);
#207=PLANE('',#251);
#208=PLANE('',#254);
#209=PLANE('',#255);
#210=PLANE('',#262);
#211=ADVANCED_FACE('',(#33),#201,.T.);
#212=ADVANCED_FACE('',(#34),#202,.T.);
#213=ADVANCED_FACE('',(#35,#17),#203,.T.);
#214=ADVANCED_FACE('',(#36),#204,.T.);
#215=ADVANCED_FACE('',(#37),#205,.T.);
#216=ADVANCED_FACE('',(#38),#206,.T.);
#217=ADVANCED_FACE('',(#39),#207,.T.);
#218=ADVANCED_FACE('',(#40),#208,.T.);
#219=ADVANCED_FACE('',(#41),#209,.T.);
#220=ADVANCED_FACE('',(#42),#15,.F.);
#221=ADVANCED_FACE('',(#43),#16,.T.);
#222=ADVANCED_FACE('',(#44,#18),#210,.T.);
#223=CLOSED_SHELL('',(#211,#212,#213,#214,#215,#216,#217,#218,#219,#220,
#221,#222));
#224=DERIVED_UNIT_ELEMENT(#226,1.);
#225=DERIVED_UNIT_ELEMENT(#401,-3.);
#226=(
MASS_UNIT()
NAMED_UNIT(*)
SI_UNIT(.KILO.,.GRAM.)
);
#227=DERIVED_UNIT((#224,#225));
#228=MEASURE_REPRESENTATION_ITEM('density measure',
POSITIVE_RATIO_MEASURE(7850.),#227);
#229=PROPERTY_DEFINITION_REPRESENTATION(#234,#231);
#230=PROPERTY_DEFINITION_REPRESENTATION(#235,#232);
#231=REPRESENTATION('material name',(#233),#398);
#232=REPRESENTATION('density',(#228),#398);
#233=DESCRIPTIVE_REPRESENTATION_ITEM('Steel','Steel');
#234=PROPERTY_DEFINITION('material property','material name',#408);
#235=PROPERTY_DEFINITION('material property','density of part',#408);
#236=AXIS2_PLACEMENT_3D('',#333,#263,#264);
#237=AXIS2_PLACEMENT_3D('',#334,#265,#266);
#238=AXIS2_PLACEMENT_3D('',#343,#271,#272);
#239=AXIS2_PLACEMENT_3D('',#345,#273,#274);
#240=AXIS2_PLACEMENT_3D('',#346,#275,#276);
#241=AXIS2_PLACEMENT_3D('',#347,#277,#278);
#242=AXIS2_PLACEMENT_3D('',#348,#279,#280);
#243=AXIS2_PLACEMENT_3D('',#350,#281,#282);
#244=AXIS2_PLACEMENT_3D('',#351,#283,#284);
#245=AXIS2_PLACEMENT_3D('',#354,#285,#286);
#246=AXIS2_PLACEMENT_3D('',#357,#288,#289);
#247=AXIS2_PLACEMENT_3D('',#358,#290,#291);
#248=AXIS2_PLACEMENT_3D('',#364,#295,#296);
#249=AXIS2_PLACEMENT_3D('',#366,#297,#298);
#250=AXIS2_PLACEMENT_3D('',#367,#299,#300);
#251=AXIS2_PLACEMENT_3D('',#368,#301,#302);
#252=AXIS2_PLACEMENT_3D('',#371,#303,#304);
#253=AXIS2_PLACEMENT_3D('',#374,#306,#307);
#254=AXIS2_PLACEMENT_3D('',#375,#308,#309);
#255=AXIS2_PLACEMENT_3D('',#381,#313,#314);
#256=AXIS2_PLACEMENT_3D('',#383,#315,#316);
#257=AXIS2_PLACEMENT_3D('',#384,#317,#318);
#258=AXIS2_PLACEMENT_3D('',#385,#319,#320);
#259=AXIS2_PLACEMENT_3D('',#387,#321,#322);
#260=AXIS2_PLACEMENT_3D('',#389,#324,#325);
#261=AXIS2_PLACEMENT_3D('',#394,#329,#330);
#262=AXIS2_PLACEMENT_3D('',#395,#331,#332);
#263=DIRECTION('axis',(0.,0.,1.));
#264=DIRECTION('refdir',(1.,0.,0.));
#265=DIRECTION('center_axis',(0.,0.,1.));
#266=DIRECTION('ref_axis',(1.,0.,0.));
#267=DIRECTION('',(1.,0.,0.));
#268=DIRECTION('',(0.,1.,0.));
#269=DIRECTION('',(-1.,0.,0.));
#270=DIRECTION('',(0.,-1.,0.));
#271=DIRECTION('center_axis',(1.,0.,0.));
#272=DIRECTION('ref_axis',(0.,0.,-1.));
#273=DIRECTION('center_axis',(-1.,0.,0.));
#274=DIRECTION('ref_axis',(0.,0.,-1.));
#275=DIRECTION('center_axis',(-1.,0.,0.));
#276=DIRECTION('ref_axis',(0.,0.,-1.));
#277=DIRECTION('center_axis',(1.,0.,0.));
#278=DIRECTION('ref_axis',(0.,0.,-1.));
#279=DIRECTION('center_axis',(1.,0.,0.));
#280=DIRECTION('ref_axis',(0.,0.,-1.));
#281=DIRECTION('center_axis',(-1.,0.,0.));
#282=DIRECTION('ref_axis',(0.,0.,-1.));
#283=DIRECTION('center_axis',(-1.,0.,0.));
#284=DIRECTION('ref_axis',(0.,0.,1.));
#285=DIRECTION('center_axis',(1.,0.,0.));
#286=DIRECTION('ref_axis',(0.,0.,-1.));
#287=DIRECTION('',(0.,-1.,0.));
#288=DIRECTION('center_axis',(1.,0.,0.));
#289=DIRECTION('ref_axis',(0.,0.,-1.));
#290=DIRECTION('center_axis',(0.,0.,1.));
#291=DIRECTION('ref_axis',(1.,0.,0.));
#292=DIRECTION('',(1.,0.,0.));
#293=DIRECTION('',(0.,1.,0.));
#294=DIRECTION('',(-1.,0.,0.));
#295=DIRECTION('center_axis',(1.,0.,0.));
#296=DIRECTION('ref_axis',(0.,0.,-1.));
#297=DIRECTION('center_axis',(-1.,0.,0.));
#298=DIRECTION('ref_axis',(0.,0.,-1.));
#299=DIRECTION('center_axis',(-1.,0.,0.));
#300=DIRECTION('ref_axis',(0.,0.,-1.));
#301=DIRECTION('center_axis',(-1.,0.,0.));
#302=DIRECTION('ref_axis',(0.,0.,1.));
#303=DIRECTION('center_axis',(1.,0.,0.));
#304=DIRECTION('ref_axis',(0.,0.,-1.));
#305=DIRECTION('',(0.,-1.,0.));
#306=DIRECTION('center_axis',(1.,0.,0.));
#307=DIRECTION('ref_axis',(0.,0.,-1.));
#308=DIRECTION('center_axis',(0.,0.,1.));
#309=DIRECTION('ref_axis',(1.,0.,0.));
#310=DIRECTION('',(1.,0.,0.));
#311=DIRECTION('',(0.,1.,0.));
#312=DIRECTION('',(-1.,0.,0.));
#313=DIRECTION('center_axis',(1.,0.,0.));
#314=DIRECTION('ref_axis',(0.,0.,-1.));
#315=DIRECTION('center_axis',(-1.,0.,0.));
#316=DIRECTION('ref_axis',(0.,0.,-1.));
#317=DIRECTION('center_axis',(-1.,0.,0.));
#318=DIRECTION('ref_axis',(0.,0.,-1.));
#319=DIRECTION('center_axis',(1.,0.,0.));
#320=DIRECTION('ref_axis',(0.,0.,-1.));
#321=DIRECTION('center_axis',(1.,0.,0.));
#322=DIRECTION('ref_axis',(0.,0.,-1.));
#323=DIRECTION('',(1.,0.,0.));
#324=DIRECTION('center_axis',(1.,0.,0.));
#325=DIRECTION('ref_axis',(0.,0.,-1.));
#326=DIRECTION('',(-1.,0.,0.));
#327=DIRECTION('',(-1.,0.,0.));
#328=DIRECTION('',(-1.,0.,0.));
#329=DIRECTION('center_axis',(-1.,0.,0.));
#330=DIRECTION('ref_axis',(0.,0.,-1.));
#331=DIRECTION('center_axis',(-1.,0.,0.));
#332=DIRECTION('ref_axis',(0.,0.,1.));
#333=CARTESIAN_POINT('',(0.,0.,0.));
#334=CARTESIAN_POINT('Origin',(622.25,0.,245.));
#335=CARTESIAN_POINT('',(615.5,3.22529068457403,245.));
#336=CARTESIAN_POINT('',(627.4,3.22529068457403,245.));
#337=CARTESIAN_POINT('',(568.7,3.22529068457403,245.));
#338=CARTESIAN_POINT('',(615.5,-3.22529068457403,245.));
#339=CARTESIAN_POINT('',(615.5,0.,245.));
#340=CARTESIAN_POINT('',(627.4,-3.22529068457403,245.));
#341=CARTESIAN_POINT('',(568.7,-3.22529068457403,245.));
#342=CARTESIAN_POINT('',(627.4,0.,245.));
#343=CARTESIAN_POINT('Origin',(615.5,0.,255.));
#344=CARTESIAN_POINT('',(615.5,-7.28664845492676E-16,245.95));
#345=CARTESIAN_POINT('Origin',(615.5,0.,240.));
#346=CARTESIAN_POINT('Origin',(615.5,0.,240.));
#347=CARTESIAN_POINT('Origin',(627.4,0.,240.));
#348=CARTESIAN_POINT('Origin',(627.4,0.,240.));
#349=CARTESIAN_POINT('',(627.4,4.89858719658941E-16,244.));
#350=CARTESIAN_POINT('Origin',(627.4,0.,240.));
#351=CARTESIAN_POINT('Origin',(609.,0.,255.));
#352=CARTESIAN_POINT('',(609.,3.22529068457403,245.));
#353=CARTESIAN_POINT('',(609.,-7.28664845492676E-16,245.95));
#354=CARTESIAN_POINT('Origin',(609.,0.,240.));
#355=CARTESIAN_POINT('',(609.,-3.22529068457403,245.));
#356=CARTESIAN_POINT('',(609.,0.,245.));
#357=CARTESIAN_POINT('Origin',(609.,0.,240.));
#358=CARTESIAN_POINT('Origin',(606.,0.,245.));
#359=CARTESIAN_POINT('',(603.,3.22529068457403,245.));
#360=CARTESIAN_POINT('',(568.7,3.22529068457403,245.));
#361=CARTESIAN_POINT('',(603.,-3.22529068457403,245.));
#362=CARTESIAN_POINT('',(603.,0.,245.));
#363=CARTESIAN_POINT('',(568.7,-3.22529068457403,245.));
#364=CARTESIAN_POINT('Origin',(603.,0.,255.));
#365=CARTESIAN_POINT('',(603.,-7.28664845492676E-16,245.95));
#366=CARTESIAN_POINT('Origin',(603.,0.,240.));
#367=CARTESIAN_POINT('Origin',(603.,0.,240.));
#368=CARTESIAN_POINT('Origin',(544.,0.,255.));
#369=CARTESIAN_POINT('',(544.,3.22529068457403,245.));
#370=CARTESIAN_POINT('',(544.,-7.28664845492676E-16,245.95));
#371=CARTESIAN_POINT('Origin',(544.,0.,240.));
#372=CARTESIAN_POINT('',(544.,-3.22529068457403,245.));
#373=CARTESIAN_POINT('',(544.,0.,245.));
#374=CARTESIAN_POINT('Origin',(544.,0.,240.));
#375=CARTESIAN_POINT('Origin',(531.25,0.,245.));
#376=CARTESIAN_POINT('',(518.5,3.22529068457403,245.));
#377=CARTESIAN_POINT('',(568.7,3.22529068457403,245.));
#378=CARTESIAN_POINT('',(518.5,-3.22529068457403,245.));
#379=CARTESIAN_POINT('',(518.5,0.,245.));
#380=CARTESIAN_POINT('',(568.7,-3.22529068457403,245.));
#381=CARTESIAN_POINT('Origin',(518.5,0.,255.));
#382=CARTESIAN_POINT('',(518.5,-7.28664845492676E-16,245.95));
#383=CARTESIAN_POINT('Origin',(518.5,0.,240.));
#384=CARTESIAN_POINT('Origin',(518.5,0.,240.));
#385=CARTESIAN_POINT('Origin',(568.7,0.,240.));
#386=CARTESIAN_POINT('',(510.,-4.89858719658941E-16,244.));
#387=CARTESIAN_POINT('Origin',(510.,0.,240.));
#388=CARTESIAN_POINT('',(568.7,-4.89858719658941E-16,244.));
#389=CARTESIAN_POINT('Origin',(568.7,0.,240.));
#390=CARTESIAN_POINT('',(568.7,-7.28664845492675E-16,245.95));
#391=CARTESIAN_POINT('',(568.7,-7.28664845492675E-16,245.95));
#392=CARTESIAN_POINT('',(510.,-7.28664845492675E-16,245.95));
#393=CARTESIAN_POINT('',(568.7,-7.28664845492675E-16,245.95));
#394=CARTESIAN_POINT('Origin',(510.,0.,240.));
#395=CARTESIAN_POINT('Origin',(510.,0.,240.));
#396=UNCERTAINTY_MEASURE_WITH_UNIT(LENGTH_MEASURE(0.01),#400,
'DISTANCE_ACCURACY_VALUE',
'Maximum model space distance between geometric entities at asserted c
onnectivities');
#397=UNCERTAINTY_MEASURE_WITH_UNIT(LENGTH_MEASURE(0.01),#400,
'DISTANCE_ACCURACY_VALUE',
'Maximum model space distance between geometric entities at asserted c
onnectivities');
#398=(
GEOMETRIC_REPRESENTATION_CONTEXT(3)
GLOBAL_UNCERTAINTY_ASSIGNED_CONTEXT((#396))
GLOBAL_UNIT_ASSIGNED_CONTEXT((#400,#402,#403))
REPRESENTATION_CONTEXT('','3D')
);
#399=(
GEOMETRIC_REPRESENTATION_CONTEXT(3)
GLOBAL_UNCERTAINTY_ASSIGNED_CONTEXT((#397))
GLOBAL_UNIT_ASSIGNED_CONTEXT((#400,#402,#403))
REPRESENTATION_CONTEXT('','3D')
);
#400=(
LENGTH_UNIT()
NAMED_UNIT(*)
SI_UNIT(.MILLI.,.METRE.)
);
#401=(
LENGTH_UNIT()
NAMED_UNIT(*)
SI_UNIT($,.METRE.)
);
#402=(
NAMED_UNIT(*)
PLANE_ANGLE_UNIT()
SI_UNIT($,.RADIAN.)
);
#403=(
NAMED_UNIT(*)
SI_UNIT($,.STERADIAN.)
SOLID_ANGLE_UNIT()
);
#404=SHAPE_DEFINITION_REPRESENTATION(#405,#406);
#405=PRODUCT_DEFINITION_SHAPE('',$,#408);
#406=SHAPE_REPRESENTATION('',(#236),#398);
#407=PRODUCT_DEFINITION_CONTEXT('part definition',#412,'design');
#408=PRODUCT_DEFINITION('2026-08-12-23-10-33-477',
'EXPORT_TMP_PRINT_V009C_P702_J6_HollowD12_DFlatShaft',#409,#407);
#409=PRODUCT_DEFINITION_FORMATION('',$,#414);
#410=PRODUCT_RELATED_PRODUCT_CATEGORY(
'EXPORT_TMP_PRINT_V009C_P702_J6_HollowD12_DFlatShaft',
'EXPORT_TMP_PRINT_V009C_P702_J6_HollowD12_DFlatShaft',(#414));
#411=APPLICATION_PROTOCOL_DEFINITION('international standard',
'automotive_design',2009,#412);
#412=APPLICATION_CONTEXT(
'Core Data for Automotive Mechanical Design Process');
#413=PRODUCT_CONTEXT('part definition',#412,'mechanical');
#414=PRODUCT('2026-08-12-23-10-33-477',
'EXPORT_TMP_PRINT_V009C_P702_J6_HollowD12_DFlatShaft',$,(#413));
#415=PRESENTATION_STYLE_ASSIGNMENT((#416));
#416=SURFACE_STYLE_USAGE(.BOTH.,#417);
#417=SURFACE_SIDE_STYLE('',(#418));
#418=SURFACE_STYLE_FILL_AREA(#419);
#419=FILL_AREA_STYLE('Steel - Satin',(#420));
#420=FILL_AREA_STYLE_COLOUR('Steel - Satin',#421);
#421=COLOUR_RGB('Steel - Satin',0.627450980392157,0.627450980392157,0.627450980392157);
ENDSEC;
END-ISO-10303-21;
