ISO-10303-21;
HEADER;
/* Generated by software containing ST-Developer
 * from STEP Tools, Inc. (www.steptools.com) 
 */

FILE_DESCRIPTION(
/* description */ (''),
/* implementation_level */ '2;1');

FILE_NAME(
/* name */ 'PRINT_V010X_P16_HomeFlag_J6.step',
/* time_stamp */ '2026-08-12T23:10:42+02:00',
/* author */ (''),
/* organization */ (''),
/* preprocessor_version */ 'ST-DEVELOPER v20.1',
/* originating_system */ 'Autodesk Translation Framework v15.8.0.0',
/* authorisation */ '');

FILE_SCHEMA (('AUTOMOTIVE_DESIGN { 1 0 10303 214 3 1 1 }'));
ENDSEC;

DATA;
#10=MECHANICAL_DESIGN_GEOMETRIC_PRESENTATION_REPRESENTATION('',(#13),#294);
#11=SHAPE_REPRESENTATION_RELATIONSHIP('SRR','None',#301,#12);
#12=ADVANCED_BREP_SHAPE_REPRESENTATION('',(#14),#293);
#13=STYLED_ITEM('',(#310),#14);
#14=MANIFOLD_SOLID_BREP('PRINT_V010X_P16_HomeFlag_J6',#166);
#15=FACE_BOUND('',#44,.T.);
#16=FACE_BOUND('',#46,.T.);
#17=CYLINDRICAL_SURFACE('',#189,6.);
#18=CYLINDRICAL_SURFACE('',#192,9.);
#19=CIRCLE('',#182,9.);
#20=CIRCLE('',#183,9.);
#21=CIRCLE('',#185,9.);
#22=CIRCLE('',#186,9.);
#23=CIRCLE('',#190,6.);
#24=CIRCLE('',#191,6.);
#25=CIRCLE('',#193,9.);
#26=CIRCLE('',#194,9.);
#27=FACE_OUTER_BOUND('',#36,.T.);
#28=FACE_OUTER_BOUND('',#37,.T.);
#29=FACE_OUTER_BOUND('',#38,.T.);
#30=FACE_OUTER_BOUND('',#39,.T.);
#31=FACE_OUTER_BOUND('',#40,.T.);
#32=FACE_OUTER_BOUND('',#41,.T.);
#33=FACE_OUTER_BOUND('',#42,.T.);
#34=FACE_OUTER_BOUND('',#43,.T.);
#35=FACE_OUTER_BOUND('',#45,.T.);
#36=EDGE_LOOP('',(#108,#109,#110,#111));
#37=EDGE_LOOP('',(#112,#113,#114,#115,#116));
#38=EDGE_LOOP('',(#117,#118,#119,#120,#121));
#39=EDGE_LOOP('',(#122,#123,#124,#125));
#40=EDGE_LOOP('',(#126,#127,#128,#129));
#41=EDGE_LOOP('',(#130,#131,#132,#133));
#42=EDGE_LOOP('',(#134,#135,#136,#137,#138,#139,#140,#141,#142,#143,#144,
#145));
#43=EDGE_LOOP('',(#146));
#44=EDGE_LOOP('',(#147));
#45=EDGE_LOOP('',(#148));
#46=EDGE_LOOP('',(#149));
#47=LINE('',#250,#60);
#48=LINE('',#252,#61);
#49=LINE('',#254,#62);
#50=LINE('',#255,#63);
#51=LINE('',#261,#64);
#52=LINE('',#262,#65);
#53=LINE('',#268,#66);
#54=LINE('',#270,#67);
#55=LINE('',#273,#68);
#56=LINE('',#274,#69);
#57=LINE('',#280,#70);
#58=LINE('',#285,#71);
#59=LINE('',#287,#72);
#60=VECTOR('',#201,10.);
#61=VECTOR('',#202,10.);
#62=VECTOR('',#203,10.);
#63=VECTOR('',#204,10.);
#64=VECTOR('',#209,10.);
#65=VECTOR('',#210,10.);
#66=VECTOR('',#217,10.);
#67=VECTOR('',#218,10.);
#68=VECTOR('',#223,10.);
#69=VECTOR('',#224,10.);
#70=VECTOR('',#231,6.);
#71=VECTOR('',#238,9.);
#72=VECTOR('',#239,9.);
#73=VERTEX_POINT('',#248);
#74=VERTEX_POINT('',#249);
#75=VERTEX_POINT('',#251);
#76=VERTEX_POINT('',#253);
#77=VERTEX_POINT('',#257);
#78=VERTEX_POINT('',#258);
#79=VERTEX_POINT('',#260);
#80=VERTEX_POINT('',#265);
#81=VERTEX_POINT('',#267);
#82=VERTEX_POINT('',#269);
#83=VERTEX_POINT('',#277);
#84=VERTEX_POINT('',#279);
#85=VERTEX_POINT('',#283);
#86=VERTEX_POINT('',#286);
#87=EDGE_CURVE('',#73,#74,#47,.T.);
#88=EDGE_CURVE('',#75,#73,#48,.T.);
#89=EDGE_CURVE('',#76,#75,#49,.T.);
#90=EDGE_CURVE('',#74,#76,#50,.T.);
#91=EDGE_CURVE('',#77,#78,#19,.T.);
#92=EDGE_CURVE('',#77,#79,#51,.T.);
#93=EDGE_CURVE('',#79,#75,#52,.T.);
#94=EDGE_CURVE('',#78,#73,#20,.T.);
#95=EDGE_CURVE('',#74,#80,#21,.T.);
#96=EDGE_CURVE('',#76,#81,#53,.T.);
#97=EDGE_CURVE('',#81,#82,#54,.T.);
#98=EDGE_CURVE('',#80,#82,#22,.T.);
#99=EDGE_CURVE('',#82,#77,#55,.T.);
#100=EDGE_CURVE('',#81,#79,#56,.T.);
#101=EDGE_CURVE('',#83,#83,#23,.T.);
#102=EDGE_CURVE('',#83,#84,#57,.T.);
#103=EDGE_CURVE('',#84,#84,#24,.T.);
#104=EDGE_CURVE('',#85,#85,#25,.T.);
#105=EDGE_CURVE('',#85,#80,#58,.T.);
#106=EDGE_CURVE('',#78,#86,#59,.T.);
#107=EDGE_CURVE('',#86,#86,#26,.T.);
#108=ORIENTED_EDGE('',*,*,#87,.F.);
#109=ORIENTED_EDGE('',*,*,#88,.F.);
#110=ORIENTED_EDGE('',*,*,#89,.F.);
#111=ORIENTED_EDGE('',*,*,#90,.F.);
#112=ORIENTED_EDGE('',*,*,#91,.F.);
#113=ORIENTED_EDGE('',*,*,#92,.T.);
#114=ORIENTED_EDGE('',*,*,#93,.T.);
#115=ORIENTED_EDGE('',*,*,#88,.T.);
#116=ORIENTED_EDGE('',*,*,#94,.F.);
#117=ORIENTED_EDGE('',*,*,#95,.F.);
#118=ORIENTED_EDGE('',*,*,#90,.T.);
#119=ORIENTED_EDGE('',*,*,#96,.T.);
#120=ORIENTED_EDGE('',*,*,#97,.T.);
#121=ORIENTED_EDGE('',*,*,#98,.F.);
#122=ORIENTED_EDGE('',*,*,#99,.F.);
#123=ORIENTED_EDGE('',*,*,#97,.F.);
#124=ORIENTED_EDGE('',*,*,#100,.T.);
#125=ORIENTED_EDGE('',*,*,#92,.F.);
#126=ORIENTED_EDGE('',*,*,#89,.T.);
#127=ORIENTED_EDGE('',*,*,#93,.F.);
#128=ORIENTED_EDGE('',*,*,#100,.F.);
#129=ORIENTED_EDGE('',*,*,#96,.F.);
#130=ORIENTED_EDGE('',*,*,#101,.F.);
#131=ORIENTED_EDGE('',*,*,#102,.T.);
#132=ORIENTED_EDGE('',*,*,#103,.F.);
#133=ORIENTED_EDGE('',*,*,#102,.F.);
#134=ORIENTED_EDGE('',*,*,#104,.F.);
#135=ORIENTED_EDGE('',*,*,#105,.T.);
#136=ORIENTED_EDGE('',*,*,#98,.T.);
#137=ORIENTED_EDGE('',*,*,#99,.T.);
#138=ORIENTED_EDGE('',*,*,#91,.T.);
#139=ORIENTED_EDGE('',*,*,#106,.T.);
#140=ORIENTED_EDGE('',*,*,#107,.F.);
#141=ORIENTED_EDGE('',*,*,#106,.F.);
#142=ORIENTED_EDGE('',*,*,#94,.T.);
#143=ORIENTED_EDGE('',*,*,#87,.T.);
#144=ORIENTED_EDGE('',*,*,#95,.T.);
#145=ORIENTED_EDGE('',*,*,#105,.F.);
#146=ORIENTED_EDGE('',*,*,#107,.T.);
#147=ORIENTED_EDGE('',*,*,#101,.T.);
#148=ORIENTED_EDGE('',*,*,#104,.T.);
#149=ORIENTED_EDGE('',*,*,#103,.T.);
#150=PLANE('',#180);
#151=PLANE('',#181);
#152=PLANE('',#184);
#153=PLANE('',#187);
#154=PLANE('',#188);
#155=PLANE('',#195);
#156=PLANE('',#196);
#157=ADVANCED_FACE('',(#27),#150,.F.);
#158=ADVANCED_FACE('',(#28),#151,.F.);
#159=ADVANCED_FACE('',(#29),#152,.T.);
#160=ADVANCED_FACE('',(#30),#153,.F.);
#161=ADVANCED_FACE('',(#31),#154,.F.);
#162=ADVANCED_FACE('',(#32),#17,.F.);
#163=ADVANCED_FACE('',(#33),#18,.T.);
#164=ADVANCED_FACE('',(#34,#15),#155,.T.);
#165=ADVANCED_FACE('',(#35,#16),#156,.T.);
#166=CLOSED_SHELL('',(#157,#158,#159,#160,#161,#162,#163,#164,#165));
#167=DERIVED_UNIT_ELEMENT(#169,1.);
#168=DERIVED_UNIT_ELEMENT(#296,-3.);
#169=(
MASS_UNIT()
NAMED_UNIT(*)
SI_UNIT(.KILO.,.GRAM.)
);
#170=DERIVED_UNIT((#167,#168));
#171=MEASURE_REPRESENTATION_ITEM('density measure',
POSITIVE_RATIO_MEASURE(7850.),#170);
#172=PROPERTY_DEFINITION_REPRESENTATION(#177,#174);
#173=PROPERTY_DEFINITION_REPRESENTATION(#178,#175);
#174=REPRESENTATION('material name',(#176),#293);
#175=REPRESENTATION('density',(#171),#293);
#176=DESCRIPTIVE_REPRESENTATION_ITEM('Steel','Steel');
#177=PROPERTY_DEFINITION('material property','material name',#303);
#178=PROPERTY_DEFINITION('material property','density of part',#303);
#179=AXIS2_PLACEMENT_3D('',#246,#197,#198);
#180=AXIS2_PLACEMENT_3D('',#247,#199,#200);
#181=AXIS2_PLACEMENT_3D('',#256,#205,#206);
#182=AXIS2_PLACEMENT_3D('',#259,#207,#208);
#183=AXIS2_PLACEMENT_3D('',#263,#211,#212);
#184=AXIS2_PLACEMENT_3D('',#264,#213,#214);
#185=AXIS2_PLACEMENT_3D('',#266,#215,#216);
#186=AXIS2_PLACEMENT_3D('',#271,#219,#220);
#187=AXIS2_PLACEMENT_3D('',#272,#221,#222);
#188=AXIS2_PLACEMENT_3D('',#275,#225,#226);
#189=AXIS2_PLACEMENT_3D('',#276,#227,#228);
#190=AXIS2_PLACEMENT_3D('',#278,#229,#230);
#191=AXIS2_PLACEMENT_3D('',#281,#232,#233);
#192=AXIS2_PLACEMENT_3D('',#282,#234,#235);
#193=AXIS2_PLACEMENT_3D('',#284,#236,#237);
#194=AXIS2_PLACEMENT_3D('',#288,#240,#241);
#195=AXIS2_PLACEMENT_3D('',#289,#242,#243);
#196=AXIS2_PLACEMENT_3D('',#290,#244,#245);
#197=DIRECTION('axis',(0.,0.,1.));
#198=DIRECTION('refdir',(1.,0.,0.));
#199=DIRECTION('center_axis',(0.,-1.,6.12323399573677E-17));
#200=DIRECTION('ref_axis',(1.,0.,0.));
#201=DIRECTION('',(1.,0.,0.));
#202=DIRECTION('',(0.,-6.12323399573677E-17,-1.));
#203=DIRECTION('',(-1.,0.,0.));
#204=DIRECTION('',(0.,6.12323399573677E-17,1.));
#205=DIRECTION('center_axis',(1.,0.,0.));
#206=DIRECTION('ref_axis',(0.,6.12323399573677E-17,1.));
#207=DIRECTION('center_axis',(-1.,0.,0.));
#208=DIRECTION('ref_axis',(0.,0.,-1.));
#209=DIRECTION('',(0.,6.12323399573677E-17,1.));
#210=DIRECTION('',(0.,1.,-6.12323399573677E-17));
#211=DIRECTION('center_axis',(-1.,0.,0.));
#212=DIRECTION('ref_axis',(0.,0.,-1.));
#213=DIRECTION('center_axis',(1.,0.,0.));
#214=DIRECTION('ref_axis',(0.,6.12323399573677E-17,1.));
#215=DIRECTION('center_axis',(1.,0.,0.));
#216=DIRECTION('ref_axis',(0.,0.,-1.));
#217=DIRECTION('',(0.,-1.,6.12323399573677E-17));
#218=DIRECTION('',(0.,-6.12323399573677E-17,-1.));
#219=DIRECTION('center_axis',(1.,0.,0.));
#220=DIRECTION('ref_axis',(0.,0.,-1.));
#221=DIRECTION('center_axis',(0.,1.,-6.12323399573677E-17));
#222=DIRECTION('ref_axis',(-1.,0.,0.));
#223=DIRECTION('',(-1.,0.,0.));
#224=DIRECTION('',(-1.,0.,0.));
#225=DIRECTION('center_axis',(0.,-6.12323399573677E-17,-1.));
#226=DIRECTION('ref_axis',(1.,0.,0.));
#227=DIRECTION('center_axis',(1.,0.,0.));
#228=DIRECTION('ref_axis',(0.,0.,-1.));
#229=DIRECTION('center_axis',(1.,0.,0.));
#230=DIRECTION('ref_axis',(0.,0.,-1.));
#231=DIRECTION('',(1.,0.,0.));
#232=DIRECTION('center_axis',(-1.,0.,0.));
#233=DIRECTION('ref_axis',(0.,0.,-1.));
#234=DIRECTION('center_axis',(1.,0.,0.));
#235=DIRECTION('ref_axis',(0.,0.,-1.));
#236=DIRECTION('center_axis',(1.,0.,0.));
#237=DIRECTION('ref_axis',(0.,0.,-1.));
#238=DIRECTION('',(-1.,0.,0.));
#239=DIRECTION('',(-1.,0.,0.));
#240=DIRECTION('center_axis',(-1.,0.,0.));
#241=DIRECTION('ref_axis',(0.,0.,-1.));
#242=DIRECTION('center_axis',(-1.,0.,0.));
#243=DIRECTION('ref_axis',(0.,0.,1.));
#244=DIRECTION('center_axis',(1.,0.,0.));
#245=DIRECTION('ref_axis',(0.,0.,-1.));
#246=CARTESIAN_POINT('',(0.,0.,0.));
#247=CARTESIAN_POINT('Origin',(560.,4.,249.6));
#248=CARTESIAN_POINT('',(556.,4.,248.062257748299));
#249=CARTESIAN_POINT('',(564.,4.,248.062257748299));
#250=CARTESIAN_POINT('',(560.,4.,248.062257748299));
#251=CARTESIAN_POINT('',(556.,4.,251.2));
#252=CARTESIAN_POINT('',(556.,4.,249.6));
#253=CARTESIAN_POINT('',(564.,4.,251.2));
#254=CARTESIAN_POINT('',(560.,4.,251.2));
#255=CARTESIAN_POINT('',(564.,4.,249.6));
#256=CARTESIAN_POINT('Origin',(556.,5.87830463590729E-16,249.6));
#257=CARTESIAN_POINT('',(556.,-4.,248.062257748299));
#258=CARTESIAN_POINT('',(556.,-1.10218211923262E-15,249.));
#259=CARTESIAN_POINT('Origin',(556.,0.,240.));
#260=CARTESIAN_POINT('',(556.,-4.,251.2));
#261=CARTESIAN_POINT('',(556.,-4.,249.6));
#262=CARTESIAN_POINT('',(556.,6.85802207522518E-16,251.2));
#263=CARTESIAN_POINT('Origin',(556.,0.,240.));
#264=CARTESIAN_POINT('Origin',(564.,5.87830463590729E-16,249.6));
#265=CARTESIAN_POINT('',(564.,-1.10218211923262E-15,249.));
#266=CARTESIAN_POINT('Origin',(564.,0.,240.));
#267=CARTESIAN_POINT('',(564.,-4.,251.2));
#268=CARTESIAN_POINT('',(564.,6.85802207522518E-16,251.2));
#269=CARTESIAN_POINT('',(564.,-4.,248.062257748299));
#270=CARTESIAN_POINT('',(564.,-4.,249.6));
#271=CARTESIAN_POINT('Origin',(564.,0.,240.));
#272=CARTESIAN_POINT('Origin',(560.,-4.,249.6));
#273=CARTESIAN_POINT('',(560.,-4.,248.062257748299));
#274=CARTESIAN_POINT('',(560.,-4.,251.2));
#275=CARTESIAN_POINT('Origin',(560.,6.85802207522518E-16,251.2));
#276=CARTESIAN_POINT('Origin',(560.,0.,240.));
#277=CARTESIAN_POINT('',(555.,-7.34788079488412E-16,246.));
#278=CARTESIAN_POINT('Origin',(555.,0.,240.));
#279=CARTESIAN_POINT('',(565.,7.34788079488412E-16,246.));
#280=CARTESIAN_POINT('',(560.,-7.34788079488412E-16,246.));
#281=CARTESIAN_POINT('Origin',(565.,0.,240.));
#282=CARTESIAN_POINT('Origin',(560.,0.,240.));
#283=CARTESIAN_POINT('',(565.,-1.10218211923262E-15,249.));
#284=CARTESIAN_POINT('Origin',(565.,0.,240.));
#285=CARTESIAN_POINT('',(560.,-1.10218211923262E-15,249.));
#286=CARTESIAN_POINT('',(555.,-1.10218211923262E-15,249.));
#287=CARTESIAN_POINT('',(560.,-1.10218211923262E-15,249.));
#288=CARTESIAN_POINT('Origin',(555.,0.,240.));
#289=CARTESIAN_POINT('Origin',(555.,0.,240.));
#290=CARTESIAN_POINT('Origin',(565.,0.,240.));
#291=UNCERTAINTY_MEASURE_WITH_UNIT(LENGTH_MEASURE(0.01),#295,
'DISTANCE_ACCURACY_VALUE',
'Maximum model space distance between geometric entities at asserted c
onnectivities');
#292=UNCERTAINTY_MEASURE_WITH_UNIT(LENGTH_MEASURE(0.01),#295,
'DISTANCE_ACCURACY_VALUE',
'Maximum model space distance between geometric entities at asserted c
onnectivities');
#293=(
GEOMETRIC_REPRESENTATION_CONTEXT(3)
GLOBAL_UNCERTAINTY_ASSIGNED_CONTEXT((#291))
GLOBAL_UNIT_ASSIGNED_CONTEXT((#295,#297,#298))
REPRESENTATION_CONTEXT('','3D')
);
#294=(
GEOMETRIC_REPRESENTATION_CONTEXT(3)
GLOBAL_UNCERTAINTY_ASSIGNED_CONTEXT((#292))
GLOBAL_UNIT_ASSIGNED_CONTEXT((#295,#297,#298))
REPRESENTATION_CONTEXT('','3D')
);
#295=(
LENGTH_UNIT()
NAMED_UNIT(*)
SI_UNIT(.MILLI.,.METRE.)
);
#296=(
LENGTH_UNIT()
NAMED_UNIT(*)
SI_UNIT($,.METRE.)
);
#297=(
NAMED_UNIT(*)
PLANE_ANGLE_UNIT()
SI_UNIT($,.RADIAN.)
);
#298=(
NAMED_UNIT(*)
SI_UNIT($,.STERADIAN.)
SOLID_ANGLE_UNIT()
);
#299=SHAPE_DEFINITION_REPRESENTATION(#300,#301);
#300=PRODUCT_DEFINITION_SHAPE('',$,#303);
#301=SHAPE_REPRESENTATION('',(#179),#293);
#302=PRODUCT_DEFINITION_CONTEXT('part definition',#307,'design');
#303=PRODUCT_DEFINITION('2026-08-12-23-10-42-609',
'EXPORT_TMP_PRINT_V010X_P16_HomeFlag_J6',#304,#302);
#304=PRODUCT_DEFINITION_FORMATION('',$,#309);
#305=PRODUCT_RELATED_PRODUCT_CATEGORY(
'EXPORT_TMP_PRINT_V010X_P16_HomeFlag_J6',
'EXPORT_TMP_PRINT_V010X_P16_HomeFlag_J6',(#309));
#306=APPLICATION_PROTOCOL_DEFINITION('international standard',
'automotive_design',2009,#307);
#307=APPLICATION_CONTEXT(
'Core Data for Automotive Mechanical Design Process');
#308=PRODUCT_CONTEXT('part definition',#307,'mechanical');
#309=PRODUCT('2026-08-12-23-10-42-609',
'EXPORT_TMP_PRINT_V010X_P16_HomeFlag_J6',$,(#308));
#310=PRESENTATION_STYLE_ASSIGNMENT((#311));
#311=SURFACE_STYLE_USAGE(.BOTH.,#312);
#312=SURFACE_SIDE_STYLE('',(#313));
#313=SURFACE_STYLE_FILL_AREA(#314);
#314=FILL_AREA_STYLE('Steel - Satin',(#315));
#315=FILL_AREA_STYLE_COLOUR('Steel - Satin',#316);
#316=COLOUR_RGB('Steel - Satin',0.627450980392157,0.627450980392157,0.627450980392157);
ENDSEC;
END-ISO-10303-21;
