ISO-10303-21;
HEADER;
/* Generated by software containing ST-Developer
 * from STEP Tools, Inc. (www.steptools.com) 
 */

FILE_DESCRIPTION(
/* description */ (''),
/* implementation_level */ '2;1');

FILE_NAME(
/* name */ 'PRINT_V009C_P703_J6_DFlatToolHub_R28.step',
/* time_stamp */ '2026-08-12T23:10:36+02:00',
/* author */ (''),
/* organization */ (''),
/* preprocessor_version */ 'ST-DEVELOPER v20.1',
/* originating_system */ 'Autodesk Translation Framework v15.8.0.0',
/* authorisation */ '');

FILE_SCHEMA (('AUTOMOTIVE_DESIGN { 1 0 10303 214 3 1 1 }'));
ENDSEC;

DATA;
#10=MECHANICAL_DESIGN_GEOMETRIC_PRESENTATION_REPRESENTATION('',(#13),#527);
#11=SHAPE_REPRESENTATION_RELATIONSHIP('SRR','None',#534,#12);
#12=ADVANCED_BREP_SHAPE_REPRESENTATION('',(#14),#526);
#13=STYLED_ITEM('',(#543),#14);
#14=MANIFOLD_SOLID_BREP('PRINT_V009C_P703_J6_DFlatToolHub_R28',#285);
#15=FACE_BOUND('',#55,.T.);
#16=FACE_BOUND('',#64,.T.);
#17=FACE_BOUND('',#67,.T.);
#18=FACE_BOUND('',#68,.T.);
#19=FACE_BOUND('',#69,.T.);
#20=FACE_BOUND('',#70,.T.);
#21=FACE_BOUND('',#71,.T.);
#22=FACE_BOUND('',#72,.T.);
#23=FACE_BOUND('',#73,.T.);
#24=FACE_BOUND('',#75,.T.);
#25=FACE_BOUND('',#76,.T.);
#26=FACE_BOUND('',#77,.T.);
#27=FACE_BOUND('',#78,.T.);
#28=FACE_BOUND('',#79,.T.);
#29=FACE_BOUND('',#80,.T.);
#30=FACE_BOUND('',#81,.T.);
#31=PLANE('',#304);
#32=PLANE('',#326);
#33=PLANE('',#330);
#34=PLANE('',#331);
#35=B_SPLINE_CURVE_WITH_KNOTS('',3,(#424,#425,#426,#427,#428,#429,#430,
#431,#432,#433),.UNSPECIFIED.,.F.,.F.,(4,2,2,2,4),(0.,0.135769322624498,
0.271538645248996,0.407306697271228,0.543074749293461),.UNSPECIFIED.);
#36=B_SPLINE_CURVE_WITH_KNOTS('',3,(#435,#436,#437,#438,#439,#440,#441,
#442,#443,#444),.UNSPECIFIED.,.F.,.F.,(4,2,2,2,4),(1.62922424788038,1.76499229990261,
1.90076035192485,2.03652967454935,2.17229899717384),.UNSPECIFIED.);
#37=B_SPLINE_CURVE_WITH_KNOTS('',3,(#448,#449,#450,#451,#452,#453,#454,
#455,#456,#457,#458,#459,#460,#461,#462,#463,#464,#465),.UNSPECIFIED.,.F.,
 .F.,(4,2,2,2,2,2,2,2,4),(0.543074749293461,0.678842801315693,0.814610853337926,
0.950380175962424,1.08614949858692,1.22191882121142,1.35768814383592,1.49345619585815,
1.62922424788038),.UNSPECIFIED.);
#38=FACE_OUTER_BOUND('',#52,.T.);
#39=FACE_OUTER_BOUND('',#53,.T.);
#40=FACE_OUTER_BOUND('',#54,.T.);
#41=FACE_OUTER_BOUND('',#56,.T.);
#42=FACE_OUTER_BOUND('',#57,.T.);
#43=FACE_OUTER_BOUND('',#58,.T.);
#44=FACE_OUTER_BOUND('',#59,.T.);
#45=FACE_OUTER_BOUND('',#60,.T.);
#46=FACE_OUTER_BOUND('',#61,.T.);
#47=FACE_OUTER_BOUND('',#62,.T.);
#48=FACE_OUTER_BOUND('',#63,.T.);
#49=FACE_OUTER_BOUND('',#65,.T.);
#50=FACE_OUTER_BOUND('',#66,.T.);
#51=FACE_OUTER_BOUND('',#74,.T.);
#52=EDGE_LOOP('',(#189,#190,#191,#192));
#53=EDGE_LOOP('',(#193,#194,#195,#196,#197,#198));
#54=EDGE_LOOP('',(#199));
#55=EDGE_LOOP('',(#200));
#56=EDGE_LOOP('',(#201,#202,#203,#204));
#57=EDGE_LOOP('',(#205,#206,#207,#208));
#58=EDGE_LOOP('',(#209,#210,#211,#212));
#59=EDGE_LOOP('',(#213,#214,#215,#216));
#60=EDGE_LOOP('',(#217,#218,#219,#220));
#61=EDGE_LOOP('',(#221,#222,#223,#224));
#62=EDGE_LOOP('',(#225,#226,#227,#228));
#63=EDGE_LOOP('',(#229,#230,#231,#232));
#64=EDGE_LOOP('',(#233));
#65=EDGE_LOOP('',(#234,#235,#236,#237,#238,#239,#240,#241,#242));
#66=EDGE_LOOP('',(#243));
#67=EDGE_LOOP('',(#244));
#68=EDGE_LOOP('',(#245));
#69=EDGE_LOOP('',(#246));
#70=EDGE_LOOP('',(#247));
#71=EDGE_LOOP('',(#248));
#72=EDGE_LOOP('',(#249));
#73=EDGE_LOOP('',(#250,#251));
#74=EDGE_LOOP('',(#252));
#75=EDGE_LOOP('',(#253));
#76=EDGE_LOOP('',(#254));
#77=EDGE_LOOP('',(#255));
#78=EDGE_LOOP('',(#256));
#79=EDGE_LOOP('',(#257));
#80=EDGE_LOOP('',(#258));
#81=EDGE_LOOP('',(#259,#260));
#82=LINE('',#419,#96);
#83=LINE('',#446,#97);
#84=LINE('',#471,#98);
#85=LINE('',#477,#99);
#86=LINE('',#483,#100);
#87=LINE('',#489,#101);
#88=LINE('',#495,#102);
#89=LINE('',#501,#103);
#90=LINE('',#508,#104);
#91=LINE('',#511,#105);
#92=LINE('',#513,#106);
#93=LINE('',#514,#107);
#94=LINE('',#518,#108);
#95=LINE('',#520,#109);
#96=VECTOR('',#338,1.7);
#97=VECTOR('',#343,3.6);
#98=VECTOR('',#352,1.7);
#99=VECTOR('',#359,1.7);
#100=VECTOR('',#366,1.7);
#101=VECTOR('',#373,1.7);
#102=VECTOR('',#380,1.7);
#103=VECTOR('',#387,1.7);
#104=VECTOR('',#394,10.);
#105=VECTOR('',#397,10.);
#106=VECTOR('',#400,10.);
#107=VECTOR('',#401,10.);
#108=VECTOR('',#406,28.);
#109=VECTOR('',#407,28.);
#110=CIRCLE('',#300,1.7);
#111=CIRCLE('',#301,1.7);
#112=CIRCLE('',#303,3.6);
#113=CIRCLE('',#306,1.7);
#114=CIRCLE('',#307,1.7);
#115=CIRCLE('',#309,1.7);
#116=CIRCLE('',#310,1.7);
#117=CIRCLE('',#312,1.7);
#118=CIRCLE('',#313,1.7);
#119=CIRCLE('',#315,1.7);
#120=CIRCLE('',#316,1.7);
#121=CIRCLE('',#318,1.7);
#122=CIRCLE('',#319,1.7);
#123=CIRCLE('',#321,1.7);
#124=CIRCLE('',#322,1.7);
#125=CIRCLE('',#324,6.05);
#126=CIRCLE('',#325,6.05);
#127=CIRCLE('',#328,28.);
#128=CIRCLE('',#329,28.);
#129=VERTEX_POINT('',#416);
#130=VERTEX_POINT('',#418);
#131=VERTEX_POINT('',#422);
#132=VERTEX_POINT('',#423);
#133=VERTEX_POINT('',#434);
#134=VERTEX_POINT('',#445);
#135=VERTEX_POINT('',#468);
#136=VERTEX_POINT('',#470);
#137=VERTEX_POINT('',#474);
#138=VERTEX_POINT('',#476);
#139=VERTEX_POINT('',#480);
#140=VERTEX_POINT('',#482);
#141=VERTEX_POINT('',#486);
#142=VERTEX_POINT('',#488);
#143=VERTEX_POINT('',#492);
#144=VERTEX_POINT('',#494);
#145=VERTEX_POINT('',#498);
#146=VERTEX_POINT('',#500);
#147=VERTEX_POINT('',#504);
#148=VERTEX_POINT('',#505);
#149=VERTEX_POINT('',#507);
#150=VERTEX_POINT('',#509);
#151=VERTEX_POINT('',#516);
#152=VERTEX_POINT('',#519);
#153=EDGE_CURVE('',#129,#129,#110,.T.);
#154=EDGE_CURVE('',#129,#130,#82,.T.);
#155=EDGE_CURVE('',#130,#130,#111,.T.);
#156=EDGE_CURVE('',#131,#132,#35,.T.);
#157=EDGE_CURVE('',#133,#131,#36,.T.);
#158=EDGE_CURVE('',#133,#134,#83,.T.);
#159=EDGE_CURVE('',#134,#134,#112,.T.);
#160=EDGE_CURVE('',#132,#133,#37,.T.);
#161=EDGE_CURVE('',#135,#135,#113,.T.);
#162=EDGE_CURVE('',#135,#136,#84,.T.);
#163=EDGE_CURVE('',#136,#136,#114,.T.);
#164=EDGE_CURVE('',#137,#137,#115,.T.);
#165=EDGE_CURVE('',#137,#138,#85,.T.);
#166=EDGE_CURVE('',#138,#138,#116,.T.);
#167=EDGE_CURVE('',#139,#139,#117,.T.);
#168=EDGE_CURVE('',#139,#140,#86,.T.);
#169=EDGE_CURVE('',#140,#140,#118,.T.);
#170=EDGE_CURVE('',#141,#141,#119,.T.);
#171=EDGE_CURVE('',#141,#142,#87,.T.);
#172=EDGE_CURVE('',#142,#142,#120,.T.);
#173=EDGE_CURVE('',#143,#143,#121,.T.);
#174=EDGE_CURVE('',#143,#144,#88,.T.);
#175=EDGE_CURVE('',#144,#144,#122,.T.);
#176=EDGE_CURVE('',#145,#145,#123,.T.);
#177=EDGE_CURVE('',#145,#146,#89,.T.);
#178=EDGE_CURVE('',#146,#146,#124,.T.);
#179=EDGE_CURVE('',#147,#148,#125,.T.);
#180=EDGE_CURVE('',#149,#147,#90,.T.);
#181=EDGE_CURVE('',#150,#149,#126,.T.);
#182=EDGE_CURVE('',#148,#150,#91,.T.);
#183=EDGE_CURVE('',#148,#147,#92,.T.);
#184=EDGE_CURVE('',#149,#150,#93,.T.);
#185=EDGE_CURVE('',#151,#151,#127,.T.);
#186=EDGE_CURVE('',#151,#132,#94,.T.);
#187=EDGE_CURVE('',#133,#152,#95,.T.);
#188=EDGE_CURVE('',#152,#152,#128,.T.);
#189=ORIENTED_EDGE('',*,*,#153,.F.);
#190=ORIENTED_EDGE('',*,*,#154,.T.);
#191=ORIENTED_EDGE('',*,*,#155,.F.);
#192=ORIENTED_EDGE('',*,*,#154,.F.);
#193=ORIENTED_EDGE('',*,*,#156,.F.);
#194=ORIENTED_EDGE('',*,*,#157,.F.);
#195=ORIENTED_EDGE('',*,*,#158,.T.);
#196=ORIENTED_EDGE('',*,*,#159,.T.);
#197=ORIENTED_EDGE('',*,*,#158,.F.);
#198=ORIENTED_EDGE('',*,*,#160,.F.);
#199=ORIENTED_EDGE('',*,*,#159,.F.);
#200=ORIENTED_EDGE('',*,*,#153,.T.);
#201=ORIENTED_EDGE('',*,*,#161,.F.);
#202=ORIENTED_EDGE('',*,*,#162,.T.);
#203=ORIENTED_EDGE('',*,*,#163,.F.);
#204=ORIENTED_EDGE('',*,*,#162,.F.);
#205=ORIENTED_EDGE('',*,*,#164,.F.);
#206=ORIENTED_EDGE('',*,*,#165,.T.);
#207=ORIENTED_EDGE('',*,*,#166,.F.);
#208=ORIENTED_EDGE('',*,*,#165,.F.);
#209=ORIENTED_EDGE('',*,*,#167,.F.);
#210=ORIENTED_EDGE('',*,*,#168,.T.);
#211=ORIENTED_EDGE('',*,*,#169,.F.);
#212=ORIENTED_EDGE('',*,*,#168,.F.);
#213=ORIENTED_EDGE('',*,*,#170,.F.);
#214=ORIENTED_EDGE('',*,*,#171,.T.);
#215=ORIENTED_EDGE('',*,*,#172,.F.);
#216=ORIENTED_EDGE('',*,*,#171,.F.);
#217=ORIENTED_EDGE('',*,*,#173,.F.);
#218=ORIENTED_EDGE('',*,*,#174,.T.);
#219=ORIENTED_EDGE('',*,*,#175,.F.);
#220=ORIENTED_EDGE('',*,*,#174,.F.);
#221=ORIENTED_EDGE('',*,*,#176,.F.);
#222=ORIENTED_EDGE('',*,*,#177,.T.);
#223=ORIENTED_EDGE('',*,*,#178,.F.);
#224=ORIENTED_EDGE('',*,*,#177,.F.);
#225=ORIENTED_EDGE('',*,*,#179,.F.);
#226=ORIENTED_EDGE('',*,*,#180,.F.);
#227=ORIENTED_EDGE('',*,*,#181,.F.);
#228=ORIENTED_EDGE('',*,*,#182,.F.);
#229=ORIENTED_EDGE('',*,*,#183,.F.);
#230=ORIENTED_EDGE('',*,*,#182,.T.);
#231=ORIENTED_EDGE('',*,*,#184,.F.);
#232=ORIENTED_EDGE('',*,*,#180,.T.);
#233=ORIENTED_EDGE('',*,*,#155,.T.);
#234=ORIENTED_EDGE('',*,*,#185,.F.);
#235=ORIENTED_EDGE('',*,*,#186,.T.);
#236=ORIENTED_EDGE('',*,*,#160,.T.);
#237=ORIENTED_EDGE('',*,*,#187,.T.);
#238=ORIENTED_EDGE('',*,*,#188,.F.);
#239=ORIENTED_EDGE('',*,*,#187,.F.);
#240=ORIENTED_EDGE('',*,*,#157,.T.);
#241=ORIENTED_EDGE('',*,*,#156,.T.);
#242=ORIENTED_EDGE('',*,*,#186,.F.);
#243=ORIENTED_EDGE('',*,*,#188,.T.);
#244=ORIENTED_EDGE('',*,*,#161,.T.);
#245=ORIENTED_EDGE('',*,*,#164,.T.);
#246=ORIENTED_EDGE('',*,*,#167,.T.);
#247=ORIENTED_EDGE('',*,*,#170,.T.);
#248=ORIENTED_EDGE('',*,*,#173,.T.);
#249=ORIENTED_EDGE('',*,*,#176,.T.);
#250=ORIENTED_EDGE('',*,*,#183,.T.);
#251=ORIENTED_EDGE('',*,*,#179,.T.);
#252=ORIENTED_EDGE('',*,*,#185,.T.);
#253=ORIENTED_EDGE('',*,*,#163,.T.);
#254=ORIENTED_EDGE('',*,*,#166,.T.);
#255=ORIENTED_EDGE('',*,*,#169,.T.);
#256=ORIENTED_EDGE('',*,*,#172,.T.);
#257=ORIENTED_EDGE('',*,*,#175,.T.);
#258=ORIENTED_EDGE('',*,*,#178,.T.);
#259=ORIENTED_EDGE('',*,*,#184,.T.);
#260=ORIENTED_EDGE('',*,*,#181,.T.);
#261=CYLINDRICAL_SURFACE('',#299,1.7);
#262=CYLINDRICAL_SURFACE('',#302,3.6);
#263=CYLINDRICAL_SURFACE('',#305,1.7);
#264=CYLINDRICAL_SURFACE('',#308,1.7);
#265=CYLINDRICAL_SURFACE('',#311,1.7);
#266=CYLINDRICAL_SURFACE('',#314,1.7);
#267=CYLINDRICAL_SURFACE('',#317,1.7);
#268=CYLINDRICAL_SURFACE('',#320,1.7);
#269=CYLINDRICAL_SURFACE('',#323,6.05);
#270=CYLINDRICAL_SURFACE('',#327,28.);
#271=ADVANCED_FACE('',(#38),#261,.F.);
#272=ADVANCED_FACE('',(#39),#262,.F.);
#273=ADVANCED_FACE('',(#40,#15),#31,.F.);
#274=ADVANCED_FACE('',(#41),#263,.F.);
#275=ADVANCED_FACE('',(#42),#264,.F.);
#276=ADVANCED_FACE('',(#43),#265,.F.);
#277=ADVANCED_FACE('',(#44),#266,.F.);
#278=ADVANCED_FACE('',(#45),#267,.F.);
#279=ADVANCED_FACE('',(#46),#268,.F.);
#280=ADVANCED_FACE('',(#47),#269,.F.);
#281=ADVANCED_FACE('',(#48,#16),#32,.F.);
#282=ADVANCED_FACE('',(#49),#270,.T.);
#283=ADVANCED_FACE('',(#50,#17,#18,#19,#20,#21,#22,#23),#33,.T.);
#284=ADVANCED_FACE('',(#51,#24,#25,#26,#27,#28,#29,#30),#34,.T.);
#285=CLOSED_SHELL('',(#271,#272,#273,#274,#275,#276,#277,#278,#279,#280,
#281,#282,#283,#284));
#286=DERIVED_UNIT_ELEMENT(#288,1.);
#287=DERIVED_UNIT_ELEMENT(#529,-3.);
#288=(
MASS_UNIT()
NAMED_UNIT(*)
SI_UNIT(.KILO.,.GRAM.)
);
#289=DERIVED_UNIT((#286,#287));
#290=MEASURE_REPRESENTATION_ITEM('density measure',
POSITIVE_RATIO_MEASURE(7850.),#289);
#291=PROPERTY_DEFINITION_REPRESENTATION(#296,#293);
#292=PROPERTY_DEFINITION_REPRESENTATION(#297,#294);
#293=REPRESENTATION('material name',(#295),#526);
#294=REPRESENTATION('density',(#290),#526);
#295=DESCRIPTIVE_REPRESENTATION_ITEM('Steel','Steel');
#296=PROPERTY_DEFINITION('material property','material name',#536);
#297=PROPERTY_DEFINITION('material property','density of part',#536);
#298=AXIS2_PLACEMENT_3D('',#414,#332,#333);
#299=AXIS2_PLACEMENT_3D('',#415,#334,#335);
#300=AXIS2_PLACEMENT_3D('',#417,#336,#337);
#301=AXIS2_PLACEMENT_3D('',#420,#339,#340);
#302=AXIS2_PLACEMENT_3D('',#421,#341,#342);
#303=AXIS2_PLACEMENT_3D('',#447,#344,#345);
#304=AXIS2_PLACEMENT_3D('',#466,#346,#347);
#305=AXIS2_PLACEMENT_3D('',#467,#348,#349);
#306=AXIS2_PLACEMENT_3D('',#469,#350,#351);
#307=AXIS2_PLACEMENT_3D('',#472,#353,#354);
#308=AXIS2_PLACEMENT_3D('',#473,#355,#356);
#309=AXIS2_PLACEMENT_3D('',#475,#357,#358);
#310=AXIS2_PLACEMENT_3D('',#478,#360,#361);
#311=AXIS2_PLACEMENT_3D('',#479,#362,#363);
#312=AXIS2_PLACEMENT_3D('',#481,#364,#365);
#313=AXIS2_PLACEMENT_3D('',#484,#367,#368);
#314=AXIS2_PLACEMENT_3D('',#485,#369,#370);
#315=AXIS2_PLACEMENT_3D('',#487,#371,#372);
#316=AXIS2_PLACEMENT_3D('',#490,#374,#375);
#317=AXIS2_PLACEMENT_3D('',#491,#376,#377);
#318=AXIS2_PLACEMENT_3D('',#493,#378,#379);
#319=AXIS2_PLACEMENT_3D('',#496,#381,#382);
#320=AXIS2_PLACEMENT_3D('',#497,#383,#384);
#321=AXIS2_PLACEMENT_3D('',#499,#385,#386);
#322=AXIS2_PLACEMENT_3D('',#502,#388,#389);
#323=AXIS2_PLACEMENT_3D('',#503,#390,#391);
#324=AXIS2_PLACEMENT_3D('',#506,#392,#393);
#325=AXIS2_PLACEMENT_3D('',#510,#395,#396);
#326=AXIS2_PLACEMENT_3D('',#512,#398,#399);
#327=AXIS2_PLACEMENT_3D('',#515,#402,#403);
#328=AXIS2_PLACEMENT_3D('',#517,#404,#405);
#329=AXIS2_PLACEMENT_3D('',#521,#408,#409);
#330=AXIS2_PLACEMENT_3D('',#522,#410,#411);
#331=AXIS2_PLACEMENT_3D('',#523,#412,#413);
#332=DIRECTION('axis',(0.,0.,1.));
#333=DIRECTION('refdir',(1.,0.,0.));
#334=DIRECTION('center_axis',(0.,0.,-1.));
#335=DIRECTION('ref_axis',(1.,0.,0.));
#336=DIRECTION('center_axis',(0.,0.,-1.));
#337=DIRECTION('ref_axis',(1.,0.,0.));
#338=DIRECTION('',(0.,0.,-1.));
#339=DIRECTION('center_axis',(0.,0.,1.));
#340=DIRECTION('ref_axis',(1.,0.,0.));
#341=DIRECTION('center_axis',(0.,0.,-1.));
#342=DIRECTION('ref_axis',(1.,0.,0.));
#343=DIRECTION('',(0.,0.,-1.));
#344=DIRECTION('center_axis',(0.,0.,-1.));
#345=DIRECTION('ref_axis',(1.,0.,0.));
#346=DIRECTION('center_axis',(0.,0.,-1.));
#347=DIRECTION('ref_axis',(1.,0.,0.));
#348=DIRECTION('center_axis',(1.,0.,0.));
#349=DIRECTION('ref_axis',(0.,0.,-1.));
#350=DIRECTION('center_axis',(1.,0.,0.));
#351=DIRECTION('ref_axis',(0.,0.,-1.));
#352=DIRECTION('',(1.,0.,0.));
#353=DIRECTION('center_axis',(-1.,0.,0.));
#354=DIRECTION('ref_axis',(0.,0.,-1.));
#355=DIRECTION('center_axis',(1.,0.,0.));
#356=DIRECTION('ref_axis',(0.,0.,-1.));
#357=DIRECTION('center_axis',(1.,0.,0.));
#358=DIRECTION('ref_axis',(0.,0.,-1.));
#359=DIRECTION('',(1.,0.,0.));
#360=DIRECTION('center_axis',(-1.,0.,0.));
#361=DIRECTION('ref_axis',(0.,0.,-1.));
#362=DIRECTION('center_axis',(1.,0.,0.));
#363=DIRECTION('ref_axis',(0.,0.,-1.));
#364=DIRECTION('center_axis',(1.,0.,0.));
#365=DIRECTION('ref_axis',(0.,0.,-1.));
#366=DIRECTION('',(1.,0.,0.));
#367=DIRECTION('center_axis',(-1.,0.,0.));
#368=DIRECTION('ref_axis',(0.,0.,-1.));
#369=DIRECTION('center_axis',(1.,0.,0.));
#370=DIRECTION('ref_axis',(0.,0.,-1.));
#371=DIRECTION('center_axis',(1.,0.,0.));
#372=DIRECTION('ref_axis',(0.,0.,-1.));
#373=DIRECTION('',(1.,0.,0.));
#374=DIRECTION('center_axis',(-1.,0.,0.));
#375=DIRECTION('ref_axis',(0.,0.,-1.));
#376=DIRECTION('center_axis',(1.,0.,0.));
#377=DIRECTION('ref_axis',(0.,0.,-1.));
#378=DIRECTION('center_axis',(1.,0.,0.));
#379=DIRECTION('ref_axis',(0.,0.,-1.));
#380=DIRECTION('',(1.,0.,0.));
#381=DIRECTION('center_axis',(-1.,0.,0.));
#382=DIRECTION('ref_axis',(0.,0.,-1.));
#383=DIRECTION('center_axis',(1.,0.,0.));
#384=DIRECTION('ref_axis',(0.,0.,-1.));
#385=DIRECTION('center_axis',(1.,0.,0.));
#386=DIRECTION('ref_axis',(0.,0.,-1.));
#387=DIRECTION('',(1.,0.,0.));
#388=DIRECTION('center_axis',(-1.,0.,0.));
#389=DIRECTION('ref_axis',(0.,0.,-1.));
#390=DIRECTION('center_axis',(1.,0.,0.));
#391=DIRECTION('ref_axis',(0.,0.,-1.));
#392=DIRECTION('center_axis',(1.,0.,0.));
#393=DIRECTION('ref_axis',(0.,0.,-1.));
#394=DIRECTION('',(-1.,0.,0.));
#395=DIRECTION('center_axis',(-1.,0.,0.));
#396=DIRECTION('ref_axis',(0.,0.,-1.));
#397=DIRECTION('',(1.,0.,0.));
#398=DIRECTION('center_axis',(0.,0.,1.));
#399=DIRECTION('ref_axis',(1.,0.,0.));
#400=DIRECTION('',(0.,-1.,0.));
#401=DIRECTION('',(0.,1.,0.));
#402=DIRECTION('center_axis',(1.,0.,0.));
#403=DIRECTION('ref_axis',(0.,0.,-1.));
#404=DIRECTION('center_axis',(1.,0.,0.));
#405=DIRECTION('ref_axis',(0.,0.,-1.));
#406=DIRECTION('',(-1.,0.,0.));
#407=DIRECTION('',(-1.,0.,0.));
#408=DIRECTION('center_axis',(-1.,0.,0.));
#409=DIRECTION('ref_axis',(0.,0.,-1.));
#410=DIRECTION('center_axis',(-1.,0.,0.));
#411=DIRECTION('ref_axis',(0.,0.,1.));
#412=DIRECTION('center_axis',(1.,0.,0.));
#413=DIRECTION('ref_axis',(0.,0.,-1.));
#414=CARTESIAN_POINT('',(0.,0.,0.));
#415=CARTESIAN_POINT('Origin',(622.,0.,252.25));
#416=CARTESIAN_POINT('',(620.3,2.0818995585505E-16,260.));
#417=CARTESIAN_POINT('Origin',(622.,0.,260.));
#418=CARTESIAN_POINT('',(620.3,-2.0818995585505E-16,245.1));
#419=CARTESIAN_POINT('',(620.3,2.0818995585505E-16,252.25));
#420=CARTESIAN_POINT('Origin',(622.,0.,245.1));
#421=CARTESIAN_POINT('Origin',(622.,0.,265.));
#422=CARTESIAN_POINT('',(622.,3.6,267.767607026894));
#423=CARTESIAN_POINT('',(625.6,-4.6982298974864E-15,268.));
#424=CARTESIAN_POINT('Ctrl Pts',(622.,3.6,267.767607026894));
#425=CARTESIAN_POINT('Ctrl Pts',(622.452564408748,3.6,267.767607026894));
#426=CARTESIAN_POINT('Ctrl Pts',(622.934948230543,3.50945220435496,267.77981284131));
#427=CARTESIAN_POINT('Ctrl Pts',(623.821763262829,3.14190417929409,267.823779293171));
#428=CARTESIAN_POINT('Ctrl Pts',(624.226237732231,2.86493109231242,267.854891887751));
#429=CARTESIAN_POINT('Ctrl Pts',(624.864928103695,2.22624072084853,267.913199074455));
#430=CARTESIAN_POINT('Ctrl Pts',(625.141903532798,1.82176495359284,267.944199080312));
#431=CARTESIAN_POINT('Ctrl Pts',(625.509453273136,0.934945520896261,267.987907507585));
#432=CARTESIAN_POINT('Ctrl Pts',(625.6,0.45256017340745,268.));
#433=CARTESIAN_POINT('Ctrl Pts',(625.6,8.32667268468867E-15,268.));
#434=CARTESIAN_POINT('',(618.4,4.40872847693047E-16,268.));
#435=CARTESIAN_POINT('Ctrl Pts',(618.4,4.85722573273506E-16,268.));
#436=CARTESIAN_POINT('Ctrl Pts',(618.4,0.452560173407442,268.));
#437=CARTESIAN_POINT('Ctrl Pts',(618.490546726864,0.934945520896273,267.987907507585));
#438=CARTESIAN_POINT('Ctrl Pts',(618.858096467203,1.82176495359287,267.944199080312));
#439=CARTESIAN_POINT('Ctrl Pts',(619.135071896305,2.22624072084853,267.913199074455));
#440=CARTESIAN_POINT('Ctrl Pts',(619.773762267769,2.86493109231242,267.854891887751));
#441=CARTESIAN_POINT('Ctrl Pts',(620.178236737171,3.14190417929417,267.823779293171));
#442=CARTESIAN_POINT('Ctrl Pts',(621.065051769457,3.50945220435499,267.77981284131));
#443=CARTESIAN_POINT('Ctrl Pts',(621.547435591252,3.6,267.767607026894));
#444=CARTESIAN_POINT('Ctrl Pts',(622.,3.6,267.767607026894));
#445=CARTESIAN_POINT('',(618.4,4.40872847693047E-16,260.));
#446=CARTESIAN_POINT('',(618.4,4.40872847693047E-16,265.));
#447=CARTESIAN_POINT('Origin',(622.,0.,260.));
#448=CARTESIAN_POINT('Ctrl Pts',(625.6,-5.68989300120393E-15,268.));
#449=CARTESIAN_POINT('Ctrl Pts',(625.6,-0.452560173407447,268.));
#450=CARTESIAN_POINT('Ctrl Pts',(625.509453273136,-0.934945520896261,267.987907507585));
#451=CARTESIAN_POINT('Ctrl Pts',(625.141903532798,-1.82176495359284,267.944199080312));
#452=CARTESIAN_POINT('Ctrl Pts',(624.864928103695,-2.22624072084853,267.913199074455));
#453=CARTESIAN_POINT('Ctrl Pts',(624.226237732231,-2.86493109231242,267.854891887751));
#454=CARTESIAN_POINT('Ctrl Pts',(623.821763262829,-3.14190417929409,267.823779293171));
#455=CARTESIAN_POINT('Ctrl Pts',(622.934948230543,-3.50945220435496,267.77981284131));
#456=CARTESIAN_POINT('Ctrl Pts',(622.452564408748,-3.6,267.767607026894));
#457=CARTESIAN_POINT('Ctrl Pts',(621.547435591252,-3.6,267.767607026894));
#458=CARTESIAN_POINT('Ctrl Pts',(621.065051769457,-3.50945220435499,267.77981284131));
#459=CARTESIAN_POINT('Ctrl Pts',(620.178236737171,-3.14190417929417,267.823779293171));
#460=CARTESIAN_POINT('Ctrl Pts',(619.773762267769,-2.86493109231242,267.854891887751));
#461=CARTESIAN_POINT('Ctrl Pts',(619.135071896305,-2.22624072084853,267.913199074455));
#462=CARTESIAN_POINT('Ctrl Pts',(618.858096467202,-1.82176495359284,267.944199080312));
#463=CARTESIAN_POINT('Ctrl Pts',(618.490546726864,-0.934945520896261,267.987907507585));
#464=CARTESIAN_POINT('Ctrl Pts',(618.4,-0.452560173407443,268.));
#465=CARTESIAN_POINT('Ctrl Pts',(618.4,-1.52655665885959E-15,268.));
#466=CARTESIAN_POINT('Origin',(622.,0.,260.));
#467=CARTESIAN_POINT('Origin',(622.5,11.5,220.081415712958));
#468=CARTESIAN_POINT('',(617.4,11.5,221.781415712958));
#469=CARTESIAN_POINT('Origin',(617.4,11.5,220.081415712958));
#470=CARTESIAN_POINT('',(627.4,11.5,221.781415712958));
#471=CARTESIAN_POINT('',(622.5,11.5,221.781415712958));
#472=CARTESIAN_POINT('Origin',(627.4,11.5,220.081415712958));
#473=CARTESIAN_POINT('Origin',(622.5,-11.5,220.081415712958));
#474=CARTESIAN_POINT('',(617.4,-11.5,221.781415712958));
#475=CARTESIAN_POINT('Origin',(617.4,-11.5,220.081415712958));
#476=CARTESIAN_POINT('',(627.4,-11.5,221.781415712958));
#477=CARTESIAN_POINT('',(622.5,-11.5,221.781415712958));
#478=CARTESIAN_POINT('Origin',(627.4,-11.5,220.081415712958));
#479=CARTESIAN_POINT('Origin',(622.5,-23.,240.));
#480=CARTESIAN_POINT('',(617.4,-23.,241.7));
#481=CARTESIAN_POINT('Origin',(617.4,-23.,240.));
#482=CARTESIAN_POINT('',(627.4,-23.,241.7));
#483=CARTESIAN_POINT('',(622.5,-23.,241.7));
#484=CARTESIAN_POINT('Origin',(627.4,-23.,240.));
#485=CARTESIAN_POINT('Origin',(622.5,-11.5,259.918584287042));
#486=CARTESIAN_POINT('',(617.4,-11.5,261.618584287042));
#487=CARTESIAN_POINT('Origin',(617.4,-11.5,259.918584287042));
#488=CARTESIAN_POINT('',(627.4,-11.5,261.618584287042));
#489=CARTESIAN_POINT('',(622.5,-11.5,261.618584287042));
#490=CARTESIAN_POINT('Origin',(627.4,-11.5,259.918584287042));
#491=CARTESIAN_POINT('Origin',(622.5,11.5,259.918584287042));
#492=CARTESIAN_POINT('',(617.4,11.5,261.618584287042));
#493=CARTESIAN_POINT('Origin',(617.4,11.5,259.918584287042));
#494=CARTESIAN_POINT('',(627.4,11.5,261.618584287042));
#495=CARTESIAN_POINT('',(622.5,11.5,261.618584287042));
#496=CARTESIAN_POINT('Origin',(627.4,11.5,259.918584287042));
#497=CARTESIAN_POINT('Origin',(622.5,23.,240.));
#498=CARTESIAN_POINT('',(617.4,23.,241.7));
#499=CARTESIAN_POINT('Origin',(617.4,23.,240.));
#500=CARTESIAN_POINT('',(627.4,23.,241.7));
#501=CARTESIAN_POINT('',(622.5,23.,241.7));
#502=CARTESIAN_POINT('Origin',(627.4,23.,240.));
#503=CARTESIAN_POINT('Origin',(622.4,0.,240.));
#504=CARTESIAN_POINT('',(617.4,-3.254612112065,245.1));
#505=CARTESIAN_POINT('',(617.4,3.254612112065,245.1));
#506=CARTESIAN_POINT('Origin',(617.4,0.,240.));
#507=CARTESIAN_POINT('',(627.4,-3.254612112065,245.1));
#508=CARTESIAN_POINT('',(622.4,-3.254612112065,245.1));
#509=CARTESIAN_POINT('',(627.4,3.254612112065,245.1));
#510=CARTESIAN_POINT('Origin',(627.4,0.,240.));
#511=CARTESIAN_POINT('',(622.4,3.254612112065,245.1));
#512=CARTESIAN_POINT('Origin',(622.4,0.,245.1));
#513=CARTESIAN_POINT('',(617.4,0.,245.1));
#514=CARTESIAN_POINT('',(627.4,0.,245.1));
#515=CARTESIAN_POINT('Origin',(622.4,0.,240.));
#516=CARTESIAN_POINT('',(627.4,-3.42901103761259E-15,268.));
#517=CARTESIAN_POINT('Origin',(627.4,0.,240.));
#518=CARTESIAN_POINT('',(622.4,-3.42901103761259E-15,268.));
#519=CARTESIAN_POINT('',(617.4,-3.42901103761259E-15,268.));
#520=CARTESIAN_POINT('',(622.4,-3.42901103761259E-15,268.));
#521=CARTESIAN_POINT('Origin',(617.4,0.,240.));
#522=CARTESIAN_POINT('Origin',(617.4,0.,240.));
#523=CARTESIAN_POINT('Origin',(627.4,0.,240.));
#524=UNCERTAINTY_MEASURE_WITH_UNIT(LENGTH_MEASURE(0.01),#528,
'DISTANCE_ACCURACY_VALUE',
'Maximum model space distance between geometric entities at asserted c
onnectivities');
#525=UNCERTAINTY_MEASURE_WITH_UNIT(LENGTH_MEASURE(0.01),#528,
'DISTANCE_ACCURACY_VALUE',
'Maximum model space distance between geometric entities at asserted c
onnectivities');
#526=(
GEOMETRIC_REPRESENTATION_CONTEXT(3)
GLOBAL_UNCERTAINTY_ASSIGNED_CONTEXT((#524))
GLOBAL_UNIT_ASSIGNED_CONTEXT((#528,#530,#531))
REPRESENTATION_CONTEXT('','3D')
);
#527=(
GEOMETRIC_REPRESENTATION_CONTEXT(3)
GLOBAL_UNCERTAINTY_ASSIGNED_CONTEXT((#525))
GLOBAL_UNIT_ASSIGNED_CONTEXT((#528,#530,#531))
REPRESENTATION_CONTEXT('','3D')
);
#528=(
LENGTH_UNIT()
NAMED_UNIT(*)
SI_UNIT(.MILLI.,.METRE.)
);
#529=(
LENGTH_UNIT()
NAMED_UNIT(*)
SI_UNIT($,.METRE.)
);
#530=(
NAMED_UNIT(*)
PLANE_ANGLE_UNIT()
SI_UNIT($,.RADIAN.)
);
#531=(
NAMED_UNIT(*)
SI_UNIT($,.STERADIAN.)
SOLID_ANGLE_UNIT()
);
#532=SHAPE_DEFINITION_REPRESENTATION(#533,#534);
#533=PRODUCT_DEFINITION_SHAPE('',$,#536);
#534=SHAPE_REPRESENTATION('',(#298),#526);
#535=PRODUCT_DEFINITION_CONTEXT('part definition',#540,'design');
#536=PRODUCT_DEFINITION('2026-08-12-23-10-36-481',
'EXPORT_TMP_PRINT_V009C_P703_J6_DFlatToolHub_R28',#537,#535);
#537=PRODUCT_DEFINITION_FORMATION('',$,#542);
#538=PRODUCT_RELATED_PRODUCT_CATEGORY(
'EXPORT_TMP_PRINT_V009C_P703_J6_DFlatToolHub_R28',
'EXPORT_TMP_PRINT_V009C_P703_J6_DFlatToolHub_R28',(#542));
#539=APPLICATION_PROTOCOL_DEFINITION('international standard',
'automotive_design',2009,#540);
#540=APPLICATION_CONTEXT(
'Core Data for Automotive Mechanical Design Process');
#541=PRODUCT_CONTEXT('part definition',#540,'mechanical');
#542=PRODUCT('2026-08-12-23-10-36-481',
'EXPORT_TMP_PRINT_V009C_P703_J6_DFlatToolHub_R28',$,(#541));
#543=PRESENTATION_STYLE_ASSIGNMENT((#544));
#544=SURFACE_STYLE_USAGE(.BOTH.,#545);
#545=SURFACE_SIDE_STYLE('',(#546));
#546=SURFACE_STYLE_FILL_AREA(#547);
#547=FILL_AREA_STYLE('Steel - Satin',(#548));
#548=FILL_AREA_STYLE_COLOUR('Steel - Satin',#549);
#549=COLOUR_RGB('Steel - Satin',0.627450980392157,0.627450980392157,0.627450980392157);
ENDSEC;
END-ISO-10303-21;
