ISO-10303-21;
HEADER;
/* Generated by software containing ST-Developer
 * from STEP Tools, Inc. (www.steptools.com) 
 */

FILE_DESCRIPTION(
/* description */ (''),
/* implementation_level */ '2;1');

FILE_NAME(
/* name */ 'PRINT_V009C_P704_ISO50_ToolFlange_Counterbored.step',
/* time_stamp */ '2026-08-12T23:10:39+02:00',
/* author */ (''),
/* organization */ (''),
/* preprocessor_version */ 'ST-DEVELOPER v20.1',
/* originating_system */ 'Autodesk Translation Framework v15.8.0.0',
/* authorisation */ '');

FILE_SCHEMA (('AUTOMOTIVE_DESIGN { 1 0 10303 214 3 1 1 }'));
ENDSEC;

DATA;
#10=MECHANICAL_DESIGN_GEOMETRIC_PRESENTATION_REPRESENTATION('',(#13),#629);
#11=SHAPE_REPRESENTATION_RELATIONSHIP('SRR','None',#636,#12);
#12=ADVANCED_BREP_SHAPE_REPRESENTATION('',(#14),#628);
#13=STYLED_ITEM('',(#645),#14);
#14=MANIFOLD_SOLID_BREP(
'PRINT_V009C_P704_ISO50_ToolFlange_Counterbored',#353);
#15=FACE_BOUND('',#67,.T.);
#16=FACE_BOUND('',#71,.T.);
#17=FACE_BOUND('',#75,.T.);
#18=FACE_BOUND('',#79,.T.);
#19=FACE_BOUND('',#83,.T.);
#20=FACE_BOUND('',#87,.T.);
#21=FACE_BOUND('',#92,.T.);
#22=FACE_BOUND('',#93,.T.);
#23=FACE_BOUND('',#94,.T.);
#24=FACE_BOUND('',#95,.T.);
#25=FACE_BOUND('',#96,.T.);
#26=FACE_BOUND('',#97,.T.);
#27=FACE_BOUND('',#98,.T.);
#28=FACE_BOUND('',#100,.T.);
#29=FACE_BOUND('',#101,.T.);
#30=FACE_BOUND('',#102,.T.);
#31=FACE_BOUND('',#103,.T.);
#32=FACE_BOUND('',#104,.T.);
#33=FACE_BOUND('',#105,.T.);
#34=FACE_BOUND('',#106,.T.);
#35=PLANE('',#370);
#36=PLANE('',#377);
#37=PLANE('',#384);
#38=PLANE('',#391);
#39=PLANE('',#398);
#40=PLANE('',#405);
#41=PLANE('',#415);
#42=PLANE('',#416);
#43=FACE_OUTER_BOUND('',#65,.T.);
#44=FACE_OUTER_BOUND('',#66,.T.);
#45=FACE_OUTER_BOUND('',#68,.T.);
#46=FACE_OUTER_BOUND('',#69,.T.);
#47=FACE_OUTER_BOUND('',#70,.T.);
#48=FACE_OUTER_BOUND('',#72,.T.);
#49=FACE_OUTER_BOUND('',#73,.T.);
#50=FACE_OUTER_BOUND('',#74,.T.);
#51=FACE_OUTER_BOUND('',#76,.T.);
#52=FACE_OUTER_BOUND('',#77,.T.);
#53=FACE_OUTER_BOUND('',#78,.T.);
#54=FACE_OUTER_BOUND('',#80,.T.);
#55=FACE_OUTER_BOUND('',#81,.T.);
#56=FACE_OUTER_BOUND('',#82,.T.);
#57=FACE_OUTER_BOUND('',#84,.T.);
#58=FACE_OUTER_BOUND('',#85,.T.);
#59=FACE_OUTER_BOUND('',#86,.T.);
#60=FACE_OUTER_BOUND('',#88,.T.);
#61=FACE_OUTER_BOUND('',#89,.T.);
#62=FACE_OUTER_BOUND('',#90,.T.);
#63=FACE_OUTER_BOUND('',#91,.T.);
#64=FACE_OUTER_BOUND('',#99,.T.);
#65=EDGE_LOOP('',(#233,#234,#235,#236));
#66=EDGE_LOOP('',(#237));
#67=EDGE_LOOP('',(#238));
#68=EDGE_LOOP('',(#239,#240,#241,#242));
#69=EDGE_LOOP('',(#243,#244,#245,#246));
#70=EDGE_LOOP('',(#247));
#71=EDGE_LOOP('',(#248));
#72=EDGE_LOOP('',(#249,#250,#251,#252));
#73=EDGE_LOOP('',(#253,#254,#255,#256));
#74=EDGE_LOOP('',(#257));
#75=EDGE_LOOP('',(#258));
#76=EDGE_LOOP('',(#259,#260,#261,#262));
#77=EDGE_LOOP('',(#263,#264,#265,#266));
#78=EDGE_LOOP('',(#267));
#79=EDGE_LOOP('',(#268));
#80=EDGE_LOOP('',(#269,#270,#271,#272));
#81=EDGE_LOOP('',(#273,#274,#275,#276));
#82=EDGE_LOOP('',(#277));
#83=EDGE_LOOP('',(#278));
#84=EDGE_LOOP('',(#279,#280,#281,#282));
#85=EDGE_LOOP('',(#283,#284,#285,#286));
#86=EDGE_LOOP('',(#287));
#87=EDGE_LOOP('',(#288));
#88=EDGE_LOOP('',(#289,#290,#291,#292));
#89=EDGE_LOOP('',(#293,#294,#295,#296));
#90=EDGE_LOOP('',(#297,#298,#299,#300));
#91=EDGE_LOOP('',(#301));
#92=EDGE_LOOP('',(#302));
#93=EDGE_LOOP('',(#303));
#94=EDGE_LOOP('',(#304));
#95=EDGE_LOOP('',(#305));
#96=EDGE_LOOP('',(#306));
#97=EDGE_LOOP('',(#307));
#98=EDGE_LOOP('',(#308));
#99=EDGE_LOOP('',(#309));
#100=EDGE_LOOP('',(#310));
#101=EDGE_LOOP('',(#311));
#102=EDGE_LOOP('',(#312));
#103=EDGE_LOOP('',(#313));
#104=EDGE_LOOP('',(#314));
#105=EDGE_LOOP('',(#315));
#106=EDGE_LOOP('',(#316));
#107=LINE('',#538,#121);
#108=LINE('',#546,#122);
#109=LINE('',#551,#123);
#110=LINE('',#559,#124);
#111=LINE('',#564,#125);
#112=LINE('',#572,#126);
#113=LINE('',#577,#127);
#114=LINE('',#585,#128);
#115=LINE('',#590,#129);
#116=LINE('',#598,#130);
#117=LINE('',#603,#131);
#118=LINE('',#611,#132);
#119=LINE('',#616,#133);
#120=LINE('',#622,#134);
#121=VECTOR('',#423,3.6);
#122=VECTOR('',#434,2.2);
#123=VECTOR('',#439,3.6);
#124=VECTOR('',#450,2.2);
#125=VECTOR('',#455,3.6);
#126=VECTOR('',#466,2.2);
#127=VECTOR('',#471,3.6);
#128=VECTOR('',#482,2.2);
#129=VECTOR('',#487,3.6);
#130=VECTOR('',#498,2.2);
#131=VECTOR('',#503,3.6);
#132=VECTOR('',#514,2.2);
#133=VECTOR('',#519,8.);
#134=VECTOR('',#526,31.);
#135=CIRCLE('',#368,3.6);
#136=CIRCLE('',#369,3.6);
#137=CIRCLE('',#371,2.2);
#138=CIRCLE('',#373,2.2);
#139=CIRCLE('',#375,3.6);
#140=CIRCLE('',#376,3.6);
#141=CIRCLE('',#378,2.2);
#142=CIRCLE('',#380,2.2);
#143=CIRCLE('',#382,3.6);
#144=CIRCLE('',#383,3.6);
#145=CIRCLE('',#385,2.2);
#146=CIRCLE('',#387,2.2);
#147=CIRCLE('',#389,3.6);
#148=CIRCLE('',#390,3.6);
#149=CIRCLE('',#392,2.2);
#150=CIRCLE('',#394,2.2);
#151=CIRCLE('',#396,3.6);
#152=CIRCLE('',#397,3.6);
#153=CIRCLE('',#399,2.2);
#154=CIRCLE('',#401,2.2);
#155=CIRCLE('',#403,3.6);
#156=CIRCLE('',#404,3.6);
#157=CIRCLE('',#406,2.2);
#158=CIRCLE('',#408,2.2);
#159=CIRCLE('',#410,8.);
#160=CIRCLE('',#411,8.);
#161=CIRCLE('',#413,31.);
#162=CIRCLE('',#414,31.);
#163=VERTEX_POINT('',#535);
#164=VERTEX_POINT('',#537);
#165=VERTEX_POINT('',#541);
#166=VERTEX_POINT('',#544);
#167=VERTEX_POINT('',#548);
#168=VERTEX_POINT('',#550);
#169=VERTEX_POINT('',#554);
#170=VERTEX_POINT('',#557);
#171=VERTEX_POINT('',#561);
#172=VERTEX_POINT('',#563);
#173=VERTEX_POINT('',#567);
#174=VERTEX_POINT('',#570);
#175=VERTEX_POINT('',#574);
#176=VERTEX_POINT('',#576);
#177=VERTEX_POINT('',#580);
#178=VERTEX_POINT('',#583);
#179=VERTEX_POINT('',#587);
#180=VERTEX_POINT('',#589);
#181=VERTEX_POINT('',#593);
#182=VERTEX_POINT('',#596);
#183=VERTEX_POINT('',#600);
#184=VERTEX_POINT('',#602);
#185=VERTEX_POINT('',#606);
#186=VERTEX_POINT('',#609);
#187=VERTEX_POINT('',#613);
#188=VERTEX_POINT('',#615);
#189=VERTEX_POINT('',#619);
#190=VERTEX_POINT('',#621);
#191=EDGE_CURVE('',#163,#163,#135,.T.);
#192=EDGE_CURVE('',#163,#164,#107,.T.);
#193=EDGE_CURVE('',#164,#164,#136,.T.);
#194=EDGE_CURVE('',#165,#165,#137,.T.);
#195=EDGE_CURVE('',#166,#166,#138,.T.);
#196=EDGE_CURVE('',#166,#165,#108,.T.);
#197=EDGE_CURVE('',#167,#167,#139,.T.);
#198=EDGE_CURVE('',#167,#168,#109,.T.);
#199=EDGE_CURVE('',#168,#168,#140,.T.);
#200=EDGE_CURVE('',#169,#169,#141,.T.);
#201=EDGE_CURVE('',#170,#170,#142,.T.);
#202=EDGE_CURVE('',#170,#169,#110,.T.);
#203=EDGE_CURVE('',#171,#171,#143,.T.);
#204=EDGE_CURVE('',#171,#172,#111,.T.);
#205=EDGE_CURVE('',#172,#172,#144,.T.);
#206=EDGE_CURVE('',#173,#173,#145,.T.);
#207=EDGE_CURVE('',#174,#174,#146,.T.);
#208=EDGE_CURVE('',#174,#173,#112,.T.);
#209=EDGE_CURVE('',#175,#175,#147,.T.);
#210=EDGE_CURVE('',#175,#176,#113,.T.);
#211=EDGE_CURVE('',#176,#176,#148,.T.);
#212=EDGE_CURVE('',#177,#177,#149,.T.);
#213=EDGE_CURVE('',#178,#178,#150,.T.);
#214=EDGE_CURVE('',#178,#177,#114,.T.);
#215=EDGE_CURVE('',#179,#179,#151,.T.);
#216=EDGE_CURVE('',#179,#180,#115,.T.);
#217=EDGE_CURVE('',#180,#180,#152,.T.);
#218=EDGE_CURVE('',#181,#181,#153,.T.);
#219=EDGE_CURVE('',#182,#182,#154,.T.);
#220=EDGE_CURVE('',#182,#181,#116,.T.);
#221=EDGE_CURVE('',#183,#183,#155,.T.);
#222=EDGE_CURVE('',#183,#184,#117,.T.);
#223=EDGE_CURVE('',#184,#184,#156,.T.);
#224=EDGE_CURVE('',#185,#185,#157,.T.);
#225=EDGE_CURVE('',#186,#186,#158,.T.);
#226=EDGE_CURVE('',#186,#185,#118,.T.);
#227=EDGE_CURVE('',#187,#187,#159,.T.);
#228=EDGE_CURVE('',#187,#188,#119,.T.);
#229=EDGE_CURVE('',#188,#188,#160,.T.);
#230=EDGE_CURVE('',#189,#189,#161,.T.);
#231=EDGE_CURVE('',#189,#190,#120,.T.);
#232=EDGE_CURVE('',#190,#190,#162,.T.);
#233=ORIENTED_EDGE('',*,*,#191,.T.);
#234=ORIENTED_EDGE('',*,*,#192,.T.);
#235=ORIENTED_EDGE('',*,*,#193,.F.);
#236=ORIENTED_EDGE('',*,*,#192,.F.);
#237=ORIENTED_EDGE('',*,*,#191,.F.);
#238=ORIENTED_EDGE('',*,*,#194,.F.);
#239=ORIENTED_EDGE('',*,*,#195,.F.);
#240=ORIENTED_EDGE('',*,*,#196,.T.);
#241=ORIENTED_EDGE('',*,*,#194,.T.);
#242=ORIENTED_EDGE('',*,*,#196,.F.);
#243=ORIENTED_EDGE('',*,*,#197,.T.);
#244=ORIENTED_EDGE('',*,*,#198,.T.);
#245=ORIENTED_EDGE('',*,*,#199,.F.);
#246=ORIENTED_EDGE('',*,*,#198,.F.);
#247=ORIENTED_EDGE('',*,*,#197,.F.);
#248=ORIENTED_EDGE('',*,*,#200,.F.);
#249=ORIENTED_EDGE('',*,*,#201,.F.);
#250=ORIENTED_EDGE('',*,*,#202,.T.);
#251=ORIENTED_EDGE('',*,*,#200,.T.);
#252=ORIENTED_EDGE('',*,*,#202,.F.);
#253=ORIENTED_EDGE('',*,*,#203,.T.);
#254=ORIENTED_EDGE('',*,*,#204,.T.);
#255=ORIENTED_EDGE('',*,*,#205,.F.);
#256=ORIENTED_EDGE('',*,*,#204,.F.);
#257=ORIENTED_EDGE('',*,*,#203,.F.);
#258=ORIENTED_EDGE('',*,*,#206,.F.);
#259=ORIENTED_EDGE('',*,*,#207,.F.);
#260=ORIENTED_EDGE('',*,*,#208,.T.);
#261=ORIENTED_EDGE('',*,*,#206,.T.);
#262=ORIENTED_EDGE('',*,*,#208,.F.);
#263=ORIENTED_EDGE('',*,*,#209,.T.);
#264=ORIENTED_EDGE('',*,*,#210,.T.);
#265=ORIENTED_EDGE('',*,*,#211,.F.);
#266=ORIENTED_EDGE('',*,*,#210,.F.);
#267=ORIENTED_EDGE('',*,*,#209,.F.);
#268=ORIENTED_EDGE('',*,*,#212,.F.);
#269=ORIENTED_EDGE('',*,*,#213,.F.);
#270=ORIENTED_EDGE('',*,*,#214,.T.);
#271=ORIENTED_EDGE('',*,*,#212,.T.);
#272=ORIENTED_EDGE('',*,*,#214,.F.);
#273=ORIENTED_EDGE('',*,*,#215,.T.);
#274=ORIENTED_EDGE('',*,*,#216,.T.);
#275=ORIENTED_EDGE('',*,*,#217,.F.);
#276=ORIENTED_EDGE('',*,*,#216,.F.);
#277=ORIENTED_EDGE('',*,*,#215,.F.);
#278=ORIENTED_EDGE('',*,*,#218,.F.);
#279=ORIENTED_EDGE('',*,*,#219,.F.);
#280=ORIENTED_EDGE('',*,*,#220,.T.);
#281=ORIENTED_EDGE('',*,*,#218,.T.);
#282=ORIENTED_EDGE('',*,*,#220,.F.);
#283=ORIENTED_EDGE('',*,*,#221,.T.);
#284=ORIENTED_EDGE('',*,*,#222,.T.);
#285=ORIENTED_EDGE('',*,*,#223,.F.);
#286=ORIENTED_EDGE('',*,*,#222,.F.);
#287=ORIENTED_EDGE('',*,*,#221,.F.);
#288=ORIENTED_EDGE('',*,*,#224,.F.);
#289=ORIENTED_EDGE('',*,*,#225,.F.);
#290=ORIENTED_EDGE('',*,*,#226,.T.);
#291=ORIENTED_EDGE('',*,*,#224,.T.);
#292=ORIENTED_EDGE('',*,*,#226,.F.);
#293=ORIENTED_EDGE('',*,*,#227,.F.);
#294=ORIENTED_EDGE('',*,*,#228,.T.);
#295=ORIENTED_EDGE('',*,*,#229,.F.);
#296=ORIENTED_EDGE('',*,*,#228,.F.);
#297=ORIENTED_EDGE('',*,*,#230,.F.);
#298=ORIENTED_EDGE('',*,*,#231,.T.);
#299=ORIENTED_EDGE('',*,*,#232,.F.);
#300=ORIENTED_EDGE('',*,*,#231,.F.);
#301=ORIENTED_EDGE('',*,*,#232,.T.);
#302=ORIENTED_EDGE('',*,*,#195,.T.);
#303=ORIENTED_EDGE('',*,*,#201,.T.);
#304=ORIENTED_EDGE('',*,*,#207,.T.);
#305=ORIENTED_EDGE('',*,*,#213,.T.);
#306=ORIENTED_EDGE('',*,*,#219,.T.);
#307=ORIENTED_EDGE('',*,*,#225,.T.);
#308=ORIENTED_EDGE('',*,*,#227,.T.);
#309=ORIENTED_EDGE('',*,*,#230,.T.);
#310=ORIENTED_EDGE('',*,*,#229,.T.);
#311=ORIENTED_EDGE('',*,*,#223,.T.);
#312=ORIENTED_EDGE('',*,*,#217,.T.);
#313=ORIENTED_EDGE('',*,*,#211,.T.);
#314=ORIENTED_EDGE('',*,*,#205,.T.);
#315=ORIENTED_EDGE('',*,*,#199,.T.);
#316=ORIENTED_EDGE('',*,*,#193,.T.);
#317=CYLINDRICAL_SURFACE('',#367,3.6);
#318=CYLINDRICAL_SURFACE('',#372,2.2);
#319=CYLINDRICAL_SURFACE('',#374,3.6);
#320=CYLINDRICAL_SURFACE('',#379,2.2);
#321=CYLINDRICAL_SURFACE('',#381,3.6);
#322=CYLINDRICAL_SURFACE('',#386,2.2);
#323=CYLINDRICAL_SURFACE('',#388,3.6);
#324=CYLINDRICAL_SURFACE('',#393,2.2);
#325=CYLINDRICAL_SURFACE('',#395,3.6);
#326=CYLINDRICAL_SURFACE('',#400,2.2);
#327=CYLINDRICAL_SURFACE('',#402,3.6);
#328=CYLINDRICAL_SURFACE('',#407,2.2);
#329=CYLINDRICAL_SURFACE('',#409,8.);
#330=CYLINDRICAL_SURFACE('',#412,31.);
#331=ADVANCED_FACE('',(#43),#317,.F.);
#332=ADVANCED_FACE('',(#44,#15),#35,.F.);
#333=ADVANCED_FACE('',(#45),#318,.F.);
#334=ADVANCED_FACE('',(#46),#319,.F.);
#335=ADVANCED_FACE('',(#47,#16),#36,.F.);
#336=ADVANCED_FACE('',(#48),#320,.F.);
#337=ADVANCED_FACE('',(#49),#321,.F.);
#338=ADVANCED_FACE('',(#50,#17),#37,.F.);
#339=ADVANCED_FACE('',(#51),#322,.F.);
#340=ADVANCED_FACE('',(#52),#323,.F.);
#341=ADVANCED_FACE('',(#53,#18),#38,.F.);
#342=ADVANCED_FACE('',(#54),#324,.F.);
#343=ADVANCED_FACE('',(#55),#325,.F.);
#344=ADVANCED_FACE('',(#56,#19),#39,.F.);
#345=ADVANCED_FACE('',(#57),#326,.F.);
#346=ADVANCED_FACE('',(#58),#327,.F.);
#347=ADVANCED_FACE('',(#59,#20),#40,.F.);
#348=ADVANCED_FACE('',(#60),#328,.F.);
#349=ADVANCED_FACE('',(#61),#329,.F.);
#350=ADVANCED_FACE('',(#62),#330,.T.);
#351=ADVANCED_FACE('',(#63,#21,#22,#23,#24,#25,#26,#27),#41,.T.);
#352=ADVANCED_FACE('',(#64,#28,#29,#30,#31,#32,#33,#34),#42,.T.);
#353=CLOSED_SHELL('',(#331,#332,#333,#334,#335,#336,#337,#338,#339,#340,
#341,#342,#343,#344,#345,#346,#347,#348,#349,#350,#351,#352));
#354=DERIVED_UNIT_ELEMENT(#356,1.);
#355=DERIVED_UNIT_ELEMENT(#631,-3.);
#356=(
MASS_UNIT()
NAMED_UNIT(*)
SI_UNIT(.KILO.,.GRAM.)
);
#357=DERIVED_UNIT((#354,#355));
#358=MEASURE_REPRESENTATION_ITEM('density measure',
POSITIVE_RATIO_MEASURE(7850.),#357);
#359=PROPERTY_DEFINITION_REPRESENTATION(#364,#361);
#360=PROPERTY_DEFINITION_REPRESENTATION(#365,#362);
#361=REPRESENTATION('material name',(#363),#628);
#362=REPRESENTATION('density',(#358),#628);
#363=DESCRIPTIVE_REPRESENTATION_ITEM('Steel','Steel');
#364=PROPERTY_DEFINITION('material property','material name',#638);
#365=PROPERTY_DEFINITION('material property','density of part',#638);
#366=AXIS2_PLACEMENT_3D('',#533,#417,#418);
#367=AXIS2_PLACEMENT_3D('',#534,#419,#420);
#368=AXIS2_PLACEMENT_3D('',#536,#421,#422);
#369=AXIS2_PLACEMENT_3D('',#539,#424,#425);
#370=AXIS2_PLACEMENT_3D('',#540,#426,#427);
#371=AXIS2_PLACEMENT_3D('',#542,#428,#429);
#372=AXIS2_PLACEMENT_3D('',#543,#430,#431);
#373=AXIS2_PLACEMENT_3D('',#545,#432,#433);
#374=AXIS2_PLACEMENT_3D('',#547,#435,#436);
#375=AXIS2_PLACEMENT_3D('',#549,#437,#438);
#376=AXIS2_PLACEMENT_3D('',#552,#440,#441);
#377=AXIS2_PLACEMENT_3D('',#553,#442,#443);
#378=AXIS2_PLACEMENT_3D('',#555,#444,#445);
#379=AXIS2_PLACEMENT_3D('',#556,#446,#447);
#380=AXIS2_PLACEMENT_3D('',#558,#448,#449);
#381=AXIS2_PLACEMENT_3D('',#560,#451,#452);
#382=AXIS2_PLACEMENT_3D('',#562,#453,#454);
#383=AXIS2_PLACEMENT_3D('',#565,#456,#457);
#384=AXIS2_PLACEMENT_3D('',#566,#458,#459);
#385=AXIS2_PLACEMENT_3D('',#568,#460,#461);
#386=AXIS2_PLACEMENT_3D('',#569,#462,#463);
#387=AXIS2_PLACEMENT_3D('',#571,#464,#465);
#388=AXIS2_PLACEMENT_3D('',#573,#467,#468);
#389=AXIS2_PLACEMENT_3D('',#575,#469,#470);
#390=AXIS2_PLACEMENT_3D('',#578,#472,#473);
#391=AXIS2_PLACEMENT_3D('',#579,#474,#475);
#392=AXIS2_PLACEMENT_3D('',#581,#476,#477);
#393=AXIS2_PLACEMENT_3D('',#582,#478,#479);
#394=AXIS2_PLACEMENT_3D('',#584,#480,#481);
#395=AXIS2_PLACEMENT_3D('',#586,#483,#484);
#396=AXIS2_PLACEMENT_3D('',#588,#485,#486);
#397=AXIS2_PLACEMENT_3D('',#591,#488,#489);
#398=AXIS2_PLACEMENT_3D('',#592,#490,#491);
#399=AXIS2_PLACEMENT_3D('',#594,#492,#493);
#400=AXIS2_PLACEMENT_3D('',#595,#494,#495);
#401=AXIS2_PLACEMENT_3D('',#597,#496,#497);
#402=AXIS2_PLACEMENT_3D('',#599,#499,#500);
#403=AXIS2_PLACEMENT_3D('',#601,#501,#502);
#404=AXIS2_PLACEMENT_3D('',#604,#504,#505);
#405=AXIS2_PLACEMENT_3D('',#605,#506,#507);
#406=AXIS2_PLACEMENT_3D('',#607,#508,#509);
#407=AXIS2_PLACEMENT_3D('',#608,#510,#511);
#408=AXIS2_PLACEMENT_3D('',#610,#512,#513);
#409=AXIS2_PLACEMENT_3D('',#612,#515,#516);
#410=AXIS2_PLACEMENT_3D('',#614,#517,#518);
#411=AXIS2_PLACEMENT_3D('',#617,#520,#521);
#412=AXIS2_PLACEMENT_3D('',#618,#522,#523);
#413=AXIS2_PLACEMENT_3D('',#620,#524,#525);
#414=AXIS2_PLACEMENT_3D('',#623,#527,#528);
#415=AXIS2_PLACEMENT_3D('',#624,#529,#530);
#416=AXIS2_PLACEMENT_3D('',#625,#531,#532);
#417=DIRECTION('axis',(0.,0.,1.));
#418=DIRECTION('refdir',(1.,0.,0.));
#419=DIRECTION('center_axis',(1.,0.,0.));
#420=DIRECTION('ref_axis',(0.,0.,-1.));
#421=DIRECTION('center_axis',(-1.,0.,0.));
#422=DIRECTION('ref_axis',(0.,0.,-1.));
#423=DIRECTION('',(1.,0.,0.));
#424=DIRECTION('center_axis',(-1.,0.,0.));
#425=DIRECTION('ref_axis',(0.,0.,-1.));
#426=DIRECTION('center_axis',(-1.,0.,0.));
#427=DIRECTION('ref_axis',(0.,0.,1.));
#428=DIRECTION('center_axis',(1.,0.,0.));
#429=DIRECTION('ref_axis',(0.,0.,-1.));
#430=DIRECTION('center_axis',(1.,0.,0.));
#431=DIRECTION('ref_axis',(0.,0.,-1.));
#432=DIRECTION('center_axis',(1.,0.,0.));
#433=DIRECTION('ref_axis',(0.,0.,-1.));
#434=DIRECTION('',(1.,0.,0.));
#435=DIRECTION('center_axis',(1.,0.,0.));
#436=DIRECTION('ref_axis',(0.,0.,-1.));
#437=DIRECTION('center_axis',(-1.,0.,0.));
#438=DIRECTION('ref_axis',(0.,0.,-1.));
#439=DIRECTION('',(1.,0.,0.));
#440=DIRECTION('center_axis',(-1.,0.,0.));
#441=DIRECTION('ref_axis',(0.,0.,-1.));
#442=DIRECTION('center_axis',(-1.,0.,0.));
#443=DIRECTION('ref_axis',(0.,0.,1.));
#444=DIRECTION('center_axis',(1.,0.,0.));
#445=DIRECTION('ref_axis',(0.,0.,-1.));
#446=DIRECTION('center_axis',(1.,0.,0.));
#447=DIRECTION('ref_axis',(0.,0.,-1.));
#448=DIRECTION('center_axis',(1.,0.,0.));
#449=DIRECTION('ref_axis',(0.,0.,-1.));
#450=DIRECTION('',(1.,0.,0.));
#451=DIRECTION('center_axis',(1.,0.,0.));
#452=DIRECTION('ref_axis',(0.,0.,-1.));
#453=DIRECTION('center_axis',(-1.,0.,0.));
#454=DIRECTION('ref_axis',(0.,0.,-1.));
#455=DIRECTION('',(1.,0.,0.));
#456=DIRECTION('center_axis',(-1.,0.,0.));
#457=DIRECTION('ref_axis',(0.,0.,-1.));
#458=DIRECTION('center_axis',(-1.,0.,0.));
#459=DIRECTION('ref_axis',(0.,0.,1.));
#460=DIRECTION('center_axis',(1.,0.,0.));
#461=DIRECTION('ref_axis',(0.,0.,-1.));
#462=DIRECTION('center_axis',(1.,0.,0.));
#463=DIRECTION('ref_axis',(0.,0.,-1.));
#464=DIRECTION('center_axis',(1.,0.,0.));
#465=DIRECTION('ref_axis',(0.,0.,-1.));
#466=DIRECTION('',(1.,0.,0.));
#467=DIRECTION('center_axis',(1.,0.,0.));
#468=DIRECTION('ref_axis',(0.,0.,-1.));
#469=DIRECTION('center_axis',(-1.,0.,0.));
#470=DIRECTION('ref_axis',(0.,0.,-1.));
#471=DIRECTION('',(1.,0.,0.));
#472=DIRECTION('center_axis',(-1.,0.,0.));
#473=DIRECTION('ref_axis',(0.,0.,-1.));
#474=DIRECTION('center_axis',(-1.,0.,0.));
#475=DIRECTION('ref_axis',(0.,0.,1.));
#476=DIRECTION('center_axis',(1.,0.,0.));
#477=DIRECTION('ref_axis',(0.,0.,-1.));
#478=DIRECTION('center_axis',(1.,0.,0.));
#479=DIRECTION('ref_axis',(0.,0.,-1.));
#480=DIRECTION('center_axis',(1.,0.,0.));
#481=DIRECTION('ref_axis',(0.,0.,-1.));
#482=DIRECTION('',(1.,0.,0.));
#483=DIRECTION('center_axis',(1.,0.,0.));
#484=DIRECTION('ref_axis',(0.,0.,-1.));
#485=DIRECTION('center_axis',(-1.,0.,0.));
#486=DIRECTION('ref_axis',(0.,0.,-1.));
#487=DIRECTION('',(1.,0.,0.));
#488=DIRECTION('center_axis',(-1.,0.,0.));
#489=DIRECTION('ref_axis',(0.,0.,-1.));
#490=DIRECTION('center_axis',(-1.,0.,0.));
#491=DIRECTION('ref_axis',(0.,0.,1.));
#492=DIRECTION('center_axis',(1.,0.,0.));
#493=DIRECTION('ref_axis',(0.,0.,-1.));
#494=DIRECTION('center_axis',(1.,0.,0.));
#495=DIRECTION('ref_axis',(0.,0.,-1.));
#496=DIRECTION('center_axis',(1.,0.,0.));
#497=DIRECTION('ref_axis',(0.,0.,-1.));
#498=DIRECTION('',(1.,0.,0.));
#499=DIRECTION('center_axis',(1.,0.,0.));
#500=DIRECTION('ref_axis',(0.,0.,-1.));
#501=DIRECTION('center_axis',(-1.,0.,0.));
#502=DIRECTION('ref_axis',(0.,0.,-1.));
#503=DIRECTION('',(1.,0.,0.));
#504=DIRECTION('center_axis',(-1.,0.,0.));
#505=DIRECTION('ref_axis',(0.,0.,-1.));
#506=DIRECTION('center_axis',(-1.,0.,0.));
#507=DIRECTION('ref_axis',(0.,0.,1.));
#508=DIRECTION('center_axis',(1.,0.,0.));
#509=DIRECTION('ref_axis',(0.,0.,-1.));
#510=DIRECTION('center_axis',(1.,0.,0.));
#511=DIRECTION('ref_axis',(0.,0.,-1.));
#512=DIRECTION('center_axis',(1.,0.,0.));
#513=DIRECTION('ref_axis',(0.,0.,-1.));
#514=DIRECTION('',(1.,0.,0.));
#515=DIRECTION('center_axis',(1.,0.,0.));
#516=DIRECTION('ref_axis',(0.,0.,-1.));
#517=DIRECTION('center_axis',(1.,0.,0.));
#518=DIRECTION('ref_axis',(0.,0.,-1.));
#519=DIRECTION('',(1.,0.,0.));
#520=DIRECTION('center_axis',(-1.,0.,0.));
#521=DIRECTION('ref_axis',(0.,0.,-1.));
#522=DIRECTION('center_axis',(1.,0.,0.));
#523=DIRECTION('ref_axis',(0.,0.,-1.));
#524=DIRECTION('center_axis',(1.,0.,0.));
#525=DIRECTION('ref_axis',(0.,0.,-1.));
#526=DIRECTION('',(-1.,0.,0.));
#527=DIRECTION('center_axis',(-1.,0.,0.));
#528=DIRECTION('ref_axis',(0.,0.,-1.));
#529=DIRECTION('center_axis',(-1.,0.,0.));
#530=DIRECTION('ref_axis',(0.,0.,1.));
#531=DIRECTION('center_axis',(1.,0.,0.));
#532=DIRECTION('ref_axis',(0.,0.,-1.));
#533=CARTESIAN_POINT('',(0.,0.,0.));
#534=CARTESIAN_POINT('Origin',(636.5,11.5,220.081415712958));
#535=CARTESIAN_POINT('',(634.,11.5,223.681415712958));
#536=CARTESIAN_POINT('Origin',(634.,11.5,220.081415712958));
#537=CARTESIAN_POINT('',(637.4,11.5,223.681415712958));
#538=CARTESIAN_POINT('',(636.5,11.5,223.681415712958));
#539=CARTESIAN_POINT('Origin',(637.4,11.5,220.081415712958));
#540=CARTESIAN_POINT('Origin',(634.,11.5,220.081415712958));
#541=CARTESIAN_POINT('',(634.,11.5,222.281415712958));
#542=CARTESIAN_POINT('Origin',(634.,11.5,220.081415712958));
#543=CARTESIAN_POINT('Origin',(632.5,11.5,220.081415712958));
#544=CARTESIAN_POINT('',(627.4,11.5,222.281415712958));
#545=CARTESIAN_POINT('Origin',(627.4,11.5,220.081415712958));
#546=CARTESIAN_POINT('',(632.5,11.5,222.281415712958));
#547=CARTESIAN_POINT('Origin',(636.5,-11.5,220.081415712958));
#548=CARTESIAN_POINT('',(634.,-11.5,223.681415712958));
#549=CARTESIAN_POINT('Origin',(634.,-11.5,220.081415712958));
#550=CARTESIAN_POINT('',(637.4,-11.5,223.681415712958));
#551=CARTESIAN_POINT('',(636.5,-11.5,223.681415712958));
#552=CARTESIAN_POINT('Origin',(637.4,-11.5,220.081415712958));
#553=CARTESIAN_POINT('Origin',(634.,-11.5,220.081415712958));
#554=CARTESIAN_POINT('',(634.,-11.5,222.281415712958));
#555=CARTESIAN_POINT('Origin',(634.,-11.5,220.081415712958));
#556=CARTESIAN_POINT('Origin',(632.5,-11.5,220.081415712958));
#557=CARTESIAN_POINT('',(627.4,-11.5,222.281415712958));
#558=CARTESIAN_POINT('Origin',(627.4,-11.5,220.081415712958));
#559=CARTESIAN_POINT('',(632.5,-11.5,222.281415712958));
#560=CARTESIAN_POINT('Origin',(636.5,-23.,240.));
#561=CARTESIAN_POINT('',(634.,-23.,243.6));
#562=CARTESIAN_POINT('Origin',(634.,-23.,240.));
#563=CARTESIAN_POINT('',(637.4,-23.,243.6));
#564=CARTESIAN_POINT('',(636.5,-23.,243.6));
#565=CARTESIAN_POINT('Origin',(637.4,-23.,240.));
#566=CARTESIAN_POINT('Origin',(634.,-23.,240.));
#567=CARTESIAN_POINT('',(634.,-23.,242.2));
#568=CARTESIAN_POINT('Origin',(634.,-23.,240.));
#569=CARTESIAN_POINT('Origin',(632.5,-23.,240.));
#570=CARTESIAN_POINT('',(627.4,-23.,242.2));
#571=CARTESIAN_POINT('Origin',(627.4,-23.,240.));
#572=CARTESIAN_POINT('',(632.5,-23.,242.2));
#573=CARTESIAN_POINT('Origin',(636.5,-11.5,259.918584287042));
#574=CARTESIAN_POINT('',(634.,-11.5,263.518584287042));
#575=CARTESIAN_POINT('Origin',(634.,-11.5,259.918584287042));
#576=CARTESIAN_POINT('',(637.4,-11.5,263.518584287042));
#577=CARTESIAN_POINT('',(636.5,-11.5,263.518584287042));
#578=CARTESIAN_POINT('Origin',(637.4,-11.5,259.918584287042));
#579=CARTESIAN_POINT('Origin',(634.,-11.5,259.918584287042));
#580=CARTESIAN_POINT('',(634.,-11.5,262.118584287042));
#581=CARTESIAN_POINT('Origin',(634.,-11.5,259.918584287042));
#582=CARTESIAN_POINT('Origin',(632.5,-11.5,259.918584287042));
#583=CARTESIAN_POINT('',(627.4,-11.5,262.118584287042));
#584=CARTESIAN_POINT('Origin',(627.4,-11.5,259.918584287042));
#585=CARTESIAN_POINT('',(632.5,-11.5,262.118584287042));
#586=CARTESIAN_POINT('Origin',(636.5,11.5,259.918584287042));
#587=CARTESIAN_POINT('',(634.,11.5,263.518584287042));
#588=CARTESIAN_POINT('Origin',(634.,11.5,259.918584287042));
#589=CARTESIAN_POINT('',(637.4,11.5,263.518584287042));
#590=CARTESIAN_POINT('',(636.5,11.5,263.518584287042));
#591=CARTESIAN_POINT('Origin',(637.4,11.5,259.918584287042));
#592=CARTESIAN_POINT('Origin',(634.,11.5,259.918584287042));
#593=CARTESIAN_POINT('',(634.,11.5,262.118584287042));
#594=CARTESIAN_POINT('Origin',(634.,11.5,259.918584287042));
#595=CARTESIAN_POINT('Origin',(632.5,11.5,259.918584287042));
#596=CARTESIAN_POINT('',(627.4,11.5,262.118584287042));
#597=CARTESIAN_POINT('Origin',(627.4,11.5,259.918584287042));
#598=CARTESIAN_POINT('',(632.5,11.5,262.118584287042));
#599=CARTESIAN_POINT('Origin',(636.5,23.,240.));
#600=CARTESIAN_POINT('',(634.,23.,243.6));
#601=CARTESIAN_POINT('Origin',(634.,23.,240.));
#602=CARTESIAN_POINT('',(637.4,23.,243.6));
#603=CARTESIAN_POINT('',(636.5,23.,243.6));
#604=CARTESIAN_POINT('Origin',(637.4,23.,240.));
#605=CARTESIAN_POINT('Origin',(634.,23.,240.));
#606=CARTESIAN_POINT('',(634.,23.,242.2));
#607=CARTESIAN_POINT('Origin',(634.,23.,240.));
#608=CARTESIAN_POINT('Origin',(632.5,23.,240.));
#609=CARTESIAN_POINT('',(627.4,23.,242.2));
#610=CARTESIAN_POINT('Origin',(627.4,23.,240.));
#611=CARTESIAN_POINT('',(632.5,23.,242.2));
#612=CARTESIAN_POINT('Origin',(632.5,0.,240.));
#613=CARTESIAN_POINT('',(627.4,-9.79717439317883E-16,248.));
#614=CARTESIAN_POINT('Origin',(627.4,0.,240.));
#615=CARTESIAN_POINT('',(637.4,9.79717439317883E-16,248.));
#616=CARTESIAN_POINT('',(632.5,-9.79717439317883E-16,248.));
#617=CARTESIAN_POINT('Origin',(637.4,0.,240.));
#618=CARTESIAN_POINT('Origin',(632.4,0.,240.));
#619=CARTESIAN_POINT('',(637.4,-3.7964050773568E-15,271.));
#620=CARTESIAN_POINT('Origin',(637.4,0.,240.));
#621=CARTESIAN_POINT('',(627.4,-3.7964050773568E-15,271.));
#622=CARTESIAN_POINT('',(632.4,-3.7964050773568E-15,271.));
#623=CARTESIAN_POINT('Origin',(627.4,0.,240.));
#624=CARTESIAN_POINT('Origin',(627.4,0.,240.));
#625=CARTESIAN_POINT('Origin',(637.4,0.,240.));
#626=UNCERTAINTY_MEASURE_WITH_UNIT(LENGTH_MEASURE(0.01),#630,
'DISTANCE_ACCURACY_VALUE',
'Maximum model space distance between geometric entities at asserted c
onnectivities');
#627=UNCERTAINTY_MEASURE_WITH_UNIT(LENGTH_MEASURE(0.01),#630,
'DISTANCE_ACCURACY_VALUE',
'Maximum model space distance between geometric entities at asserted c
onnectivities');
#628=(
GEOMETRIC_REPRESENTATION_CONTEXT(3)
GLOBAL_UNCERTAINTY_ASSIGNED_CONTEXT((#626))
GLOBAL_UNIT_ASSIGNED_CONTEXT((#630,#632,#633))
REPRESENTATION_CONTEXT('','3D')
);
#629=(
GEOMETRIC_REPRESENTATION_CONTEXT(3)
GLOBAL_UNCERTAINTY_ASSIGNED_CONTEXT((#627))
GLOBAL_UNIT_ASSIGNED_CONTEXT((#630,#632,#633))
REPRESENTATION_CONTEXT('','3D')
);
#630=(
LENGTH_UNIT()
NAMED_UNIT(*)
SI_UNIT(.MILLI.,.METRE.)
);
#631=(
LENGTH_UNIT()
NAMED_UNIT(*)
SI_UNIT($,.METRE.)
);
#632=(
NAMED_UNIT(*)
PLANE_ANGLE_UNIT()
SI_UNIT($,.RADIAN.)
);
#633=(
NAMED_UNIT(*)
SI_UNIT($,.STERADIAN.)
SOLID_ANGLE_UNIT()
);
#634=SHAPE_DEFINITION_REPRESENTATION(#635,#636);
#635=PRODUCT_DEFINITION_SHAPE('',$,#638);
#636=SHAPE_REPRESENTATION('',(#366),#628);
#637=PRODUCT_DEFINITION_CONTEXT('part definition',#642,'design');
#638=PRODUCT_DEFINITION('2026-08-12-23-10-39-580',
'EXPORT_TMP_PRINT_V009C_P704_ISO50_ToolFlange_Counte',#639,#637);
#639=PRODUCT_DEFINITION_FORMATION('',$,#644);
#640=PRODUCT_RELATED_PRODUCT_CATEGORY(
'EXPORT_TMP_PRINT_V009C_P704_ISO50_ToolFlange_Counte',
'EXPORT_TMP_PRINT_V009C_P704_ISO50_ToolFlange_Counte',(#644));
#641=APPLICATION_PROTOCOL_DEFINITION('international standard',
'automotive_design',2009,#642);
#642=APPLICATION_CONTEXT(
'Core Data for Automotive Mechanical Design Process');
#643=PRODUCT_CONTEXT('part definition',#642,'mechanical');
#644=PRODUCT('2026-08-12-23-10-39-580',
'EXPORT_TMP_PRINT_V009C_P704_ISO50_ToolFlange_Counte',$,(#643));
#645=PRESENTATION_STYLE_ASSIGNMENT((#646));
#646=SURFACE_STYLE_USAGE(.BOTH.,#647);
#647=SURFACE_SIDE_STYLE('',(#648));
#648=SURFACE_STYLE_FILL_AREA(#649);
#649=FILL_AREA_STYLE('Steel - Satin',(#650));
#650=FILL_AREA_STYLE_COLOUR('Steel - Satin',#651);
#651=COLOUR_RGB('Steel - Satin',0.627450980392157,0.627450980392157,0.627450980392157);
ENDSEC;
END-ISO-10303-21;
