ISO-10303-21;
HEADER;
/* Generated by software containing ST-Developer
 * from STEP Tools, Inc. (www.steptools.com) 
 */

FILE_DESCRIPTION(
/* description */ (''),
/* implementation_level */ '2;1');

FILE_NAME(
/* name */ 'PRINT_V009A_P410_NEMA17_LoadMount_A_CoverBosses.step',
/* time_stamp */ '2026-09-09T16:32:15+02:00',
/* author */ (''),
/* organization */ (''),
/* preprocessor_version */ 'ST-DEVELOPER v20.1',
/* originating_system */ 'Autodesk Translation Framework v15.8.0.0',
/* authorisation */ '');

FILE_SCHEMA (('AUTOMOTIVE_DESIGN { 1 0 10303 214 3 1 1 }'));
ENDSEC;

DATA;
#10=MECHANICAL_DESIGN_GEOMETRIC_PRESENTATION_REPRESENTATION('',(#13),#1500);
#11=SHAPE_REPRESENTATION_RELATIONSHIP('SRR','None',#1507,#12);
#12=ADVANCED_BREP_SHAPE_REPRESENTATION('',(#14),#1499);
#13=STYLED_ITEM('',(#1516),#14);
#14=MANIFOLD_SOLID_BREP(
'PRINT_V009A_P410_NEMA17_LoadMount_A_CoverBosses',#896);
#15=FACE_BOUND('',#119,.T.);
#16=FACE_BOUND('',#120,.T.);
#17=FACE_BOUND('',#126,.T.);
#18=FACE_BOUND('',#127,.T.);
#19=FACE_BOUND('',#133,.T.);
#20=FACE_BOUND('',#134,.T.);
#21=FACE_BOUND('',#140,.T.);
#22=FACE_BOUND('',#141,.T.);
#23=FACE_BOUND('',#152,.T.);
#24=FACE_BOUND('',#153,.T.);
#25=FACE_BOUND('',#154,.T.);
#26=FACE_BOUND('',#155,.T.);
#27=FACE_BOUND('',#156,.T.);
#28=FACE_BOUND('',#161,.T.);
#29=FACE_BOUND('',#165,.T.);
#30=FACE_BOUND('',#170,.T.);
#31=FACE_BOUND('',#171,.T.);
#32=FACE_BOUND('',#172,.T.);
#33=FACE_BOUND('',#173,.T.);
#34=FACE_BOUND('',#174,.T.);
#35=FACE_BOUND('',#175,.T.);
#36=FACE_BOUND('',#176,.T.);
#37=FACE_BOUND('',#177,.T.);
#38=FACE_BOUND('',#178,.T.);
#39=PLANE('',#922);
#40=PLANE('',#923);
#41=PLANE('',#926);
#42=PLANE('',#927);
#43=PLANE('',#928);
#44=PLANE('',#929);
#45=PLANE('',#930);
#46=PLANE('',#931);
#47=PLANE('',#935);
#48=PLANE('',#937);
#49=PLANE('',#938);
#50=PLANE('',#941);
#51=PLANE('',#942);
#52=PLANE('',#943);
#53=PLANE('',#944);
#54=PLANE('',#945);
#55=PLANE('',#946);
#56=PLANE('',#973);
#57=PLANE('',#979);
#58=PLANE('',#983);
#59=PLANE('',#984);
#60=PLANE('',#988);
#61=PLANE('',#989);
#62=PLANE('',#990);
#63=PLANE('',#991);
#64=PLANE('',#992);
#65=PLANE('',#993);
#66=PLANE('',#994);
#67=FACE_OUTER_BOUND('',#112,.T.);
#68=FACE_OUTER_BOUND('',#113,.T.);
#69=FACE_OUTER_BOUND('',#114,.T.);
#70=FACE_OUTER_BOUND('',#115,.T.);
#71=FACE_OUTER_BOUND('',#116,.T.);
#72=FACE_OUTER_BOUND('',#117,.T.);
#73=FACE_OUTER_BOUND('',#118,.T.);
#74=FACE_OUTER_BOUND('',#121,.T.);
#75=FACE_OUTER_BOUND('',#122,.T.);
#76=FACE_OUTER_BOUND('',#123,.T.);
#77=FACE_OUTER_BOUND('',#124,.T.);
#78=FACE_OUTER_BOUND('',#125,.T.);
#79=FACE_OUTER_BOUND('',#128,.T.);
#80=FACE_OUTER_BOUND('',#129,.T.);
#81=FACE_OUTER_BOUND('',#130,.T.);
#82=FACE_OUTER_BOUND('',#131,.T.);
#83=FACE_OUTER_BOUND('',#132,.T.);
#84=FACE_OUTER_BOUND('',#135,.T.);
#85=FACE_OUTER_BOUND('',#136,.T.);
#86=FACE_OUTER_BOUND('',#137,.T.);
#87=FACE_OUTER_BOUND('',#138,.T.);
#88=FACE_OUTER_BOUND('',#139,.T.);
#89=FACE_OUTER_BOUND('',#142,.T.);
#90=FACE_OUTER_BOUND('',#143,.T.);
#91=FACE_OUTER_BOUND('',#144,.T.);
#92=FACE_OUTER_BOUND('',#145,.T.);
#93=FACE_OUTER_BOUND('',#146,.T.);
#94=FACE_OUTER_BOUND('',#147,.T.);
#95=FACE_OUTER_BOUND('',#148,.T.);
#96=FACE_OUTER_BOUND('',#149,.T.);
#97=FACE_OUTER_BOUND('',#150,.T.);
#98=FACE_OUTER_BOUND('',#151,.T.);
#99=FACE_OUTER_BOUND('',#157,.T.);
#100=FACE_OUTER_BOUND('',#158,.T.);
#101=FACE_OUTER_BOUND('',#159,.T.);
#102=FACE_OUTER_BOUND('',#160,.T.);
#103=FACE_OUTER_BOUND('',#162,.T.);
#104=FACE_OUTER_BOUND('',#163,.T.);
#105=FACE_OUTER_BOUND('',#164,.T.);
#106=FACE_OUTER_BOUND('',#166,.T.);
#107=FACE_OUTER_BOUND('',#167,.T.);
#108=FACE_OUTER_BOUND('',#168,.T.);
#109=FACE_OUTER_BOUND('',#169,.T.);
#110=FACE_OUTER_BOUND('',#179,.T.);
#111=FACE_OUTER_BOUND('',#180,.T.);
#112=EDGE_LOOP('',(#588,#589,#590,#591));
#113=EDGE_LOOP('',(#592,#593,#594,#595));
#114=EDGE_LOOP('',(#596,#597,#598,#599));
#115=EDGE_LOOP('',(#600,#601,#602,#603));
#116=EDGE_LOOP('',(#604,#605,#606,#607,#608,#609,#610));
#117=EDGE_LOOP('',(#611,#612,#613));
#118=EDGE_LOOP('',(#614,#615,#616,#617,#618,#619));
#119=EDGE_LOOP('',(#620));
#120=EDGE_LOOP('',(#621));
#121=EDGE_LOOP('',(#622,#623,#624,#625,#626,#627,#628,#629,#630,#631));
#122=EDGE_LOOP('',(#632,#633,#634,#635));
#123=EDGE_LOOP('',(#636,#637,#638,#639));
#124=EDGE_LOOP('',(#640,#641,#642,#643));
#125=EDGE_LOOP('',(#644,#645,#646,#647,#648));
#126=EDGE_LOOP('',(#649));
#127=EDGE_LOOP('',(#650));
#128=EDGE_LOOP('',(#651,#652,#653,#654,#655,#656,#657,#658));
#129=EDGE_LOOP('',(#659,#660,#661,#662,#663));
#130=EDGE_LOOP('',(#664,#665,#666,#667,#668,#669,#670,#671,#672,#673));
#131=EDGE_LOOP('',(#674,#675,#676));
#132=EDGE_LOOP('',(#677,#678,#679,#680,#681,#682));
#133=EDGE_LOOP('',(#683));
#134=EDGE_LOOP('',(#684));
#135=EDGE_LOOP('',(#685,#686,#687,#688));
#136=EDGE_LOOP('',(#689,#690,#691,#692));
#137=EDGE_LOOP('',(#693,#694,#695,#696));
#138=EDGE_LOOP('',(#697,#698,#699,#700,#701,#702,#703));
#139=EDGE_LOOP('',(#704,#705,#706,#707,#708));
#140=EDGE_LOOP('',(#709));
#141=EDGE_LOOP('',(#710));
#142=EDGE_LOOP('',(#711,#712,#713,#714,#715,#716,#717,#718));
#143=EDGE_LOOP('',(#719,#720,#721,#722));
#144=EDGE_LOOP('',(#723,#724,#725,#726));
#145=EDGE_LOOP('',(#727,#728,#729,#730));
#146=EDGE_LOOP('',(#731,#732,#733,#734));
#147=EDGE_LOOP('',(#735,#736,#737,#738));
#148=EDGE_LOOP('',(#739,#740,#741,#742));
#149=EDGE_LOOP('',(#743,#744,#745,#746));
#150=EDGE_LOOP('',(#747,#748,#749,#750));
#151=EDGE_LOOP('',(#751,#752,#753,#754,#755,#756,#757,#758,#759,#760,#761,
#762));
#152=EDGE_LOOP('',(#763));
#153=EDGE_LOOP('',(#764));
#154=EDGE_LOOP('',(#765));
#155=EDGE_LOOP('',(#766));
#156=EDGE_LOOP('',(#767));
#157=EDGE_LOOP('',(#768,#769,#770,#771));
#158=EDGE_LOOP('',(#772,#773,#774,#775,#776));
#159=EDGE_LOOP('',(#777,#778,#779,#780,#781));
#160=EDGE_LOOP('',(#782));
#161=EDGE_LOOP('',(#783));
#162=EDGE_LOOP('',(#784,#785,#786));
#163=EDGE_LOOP('',(#787,#788,#789,#790,#791));
#164=EDGE_LOOP('',(#792));
#165=EDGE_LOOP('',(#793));
#166=EDGE_LOOP('',(#794,#795,#796));
#167=EDGE_LOOP('',(#797,#798,#799,#800,#801,#802));
#168=EDGE_LOOP('',(#803,#804,#805,#806,#807,#808));
#169=EDGE_LOOP('',(#809,#810,#811,#812));
#170=EDGE_LOOP('',(#813));
#171=EDGE_LOOP('',(#814));
#172=EDGE_LOOP('',(#815));
#173=EDGE_LOOP('',(#816));
#174=EDGE_LOOP('',(#817));
#175=EDGE_LOOP('',(#818));
#176=EDGE_LOOP('',(#819));
#177=EDGE_LOOP('',(#820));
#178=EDGE_LOOP('',(#821));
#179=EDGE_LOOP('',(#822,#823,#824,#825,#826,#827));
#180=EDGE_LOOP('',(#828,#829,#830,#831,#832,#833));
#181=LINE('',#1255,#264);
#182=LINE('',#1261,#265);
#183=LINE('',#1267,#266);
#184=LINE('',#1273,#267);
#185=LINE('',#1278,#268);
#186=LINE('',#1280,#269);
#187=LINE('',#1282,#270);
#188=LINE('',#1284,#271);
#189=LINE('',#1286,#272);
#190=LINE('',#1288,#273);
#191=LINE('',#1289,#274);
#192=LINE('',#1295,#275);
#193=LINE('',#1299,#276);
#194=LINE('',#1301,#277);
#195=LINE('',#1303,#278);
#196=LINE('',#1305,#279);
#197=LINE('',#1306,#280);
#198=LINE('',#1309,#281);
#199=LINE('',#1311,#282);
#200=LINE('',#1312,#283);
#201=LINE('',#1314,#284);
#202=LINE('',#1316,#285);
#203=LINE('',#1318,#286);
#204=LINE('',#1319,#287);
#205=LINE('',#1320,#288);
#206=LINE('',#1323,#289);
#207=LINE('',#1324,#290);
#208=LINE('',#1327,#291);
#209=LINE('',#1328,#292);
#210=LINE('',#1330,#293);
#211=LINE('',#1334,#294);
#212=LINE('',#1342,#295);
#213=LINE('',#1344,#296);
#214=LINE('',#1346,#297);
#215=LINE('',#1348,#298);
#216=LINE('',#1350,#299);
#217=LINE('',#1352,#300);
#218=LINE('',#1354,#301);
#219=LINE('',#1356,#302);
#220=LINE('',#1358,#303);
#221=LINE('',#1359,#304);
#222=LINE('',#1366,#305);
#223=LINE('',#1368,#306);
#224=LINE('',#1370,#307);
#225=LINE('',#1372,#308);
#226=LINE('',#1374,#309);
#227=LINE('',#1375,#310);
#228=LINE('',#1378,#311);
#229=LINE('',#1380,#312);
#230=LINE('',#1381,#313);
#231=LINE('',#1384,#314);
#232=LINE('',#1385,#315);
#233=LINE('',#1387,#316);
#234=LINE('',#1390,#317);
#235=LINE('',#1391,#318);
#236=LINE('',#1393,#319);
#237=LINE('',#1394,#320);
#238=LINE('',#1398,#321);
#239=LINE('',#1405,#322);
#240=LINE('',#1411,#323);
#241=LINE('',#1417,#324);
#242=LINE('',#1423,#325);
#243=LINE('',#1429,#326);
#244=LINE('',#1435,#327);
#245=LINE('',#1441,#328);
#246=LINE('',#1446,#329);
#247=LINE('',#1449,#330);
#248=LINE('',#1453,#331);
#249=LINE('',#1456,#332);
#250=LINE('',#1463,#333);
#251=LINE('',#1468,#334);
#252=LINE('',#1469,#335);
#253=LINE('',#1473,#336);
#254=LINE('',#1478,#337);
#255=LINE('',#1479,#338);
#256=LINE('',#1482,#339);
#257=LINE('',#1484,#340);
#258=LINE('',#1485,#341);
#259=LINE('',#1488,#342);
#260=LINE('',#1490,#343);
#261=LINE('',#1491,#344);
#262=LINE('',#1493,#345);
#263=LINE('',#1494,#346);
#264=VECTOR('',#1001,2.15000000000003);
#265=VECTOR('',#1008,2.15000000000003);
#266=VECTOR('',#1015,2.15000000000003);
#267=VECTOR('',#1022,2.15000000000003);
#268=VECTOR('',#1027,10.);
#269=VECTOR('',#1028,10.);
#270=VECTOR('',#1029,10.);
#271=VECTOR('',#1030,10.);
#272=VECTOR('',#1031,10.);
#273=VECTOR('',#1032,10.);
#274=VECTOR('',#1033,10.);
#275=VECTOR('',#1038,10.);
#276=VECTOR('',#1043,10.);
#277=VECTOR('',#1044,10.);
#278=VECTOR('',#1045,10.);
#279=VECTOR('',#1046,10.);
#280=VECTOR('',#1047,10.);
#281=VECTOR('',#1050,10.);
#282=VECTOR('',#1051,10.);
#283=VECTOR('',#1052,10.);
#284=VECTOR('',#1053,10.);
#285=VECTOR('',#1054,10.);
#286=VECTOR('',#1055,10.);
#287=VECTOR('',#1056,10.);
#288=VECTOR('',#1057,10.);
#289=VECTOR('',#1060,10.);
#290=VECTOR('',#1061,10.);
#291=VECTOR('',#1064,10.);
#292=VECTOR('',#1065,10.);
#293=VECTOR('',#1068,10.);
#294=VECTOR('',#1073,1.7);
#295=VECTOR('',#1084,10.);
#296=VECTOR('',#1085,10.);
#297=VECTOR('',#1086,10.);
#298=VECTOR('',#1087,10.);
#299=VECTOR('',#1088,10.);
#300=VECTOR('',#1089,10.);
#301=VECTOR('',#1090,10.);
#302=VECTOR('',#1091,10.);
#303=VECTOR('',#1092,10.);
#304=VECTOR('',#1093,10.);
#305=VECTOR('',#1102,10.);
#306=VECTOR('',#1103,10.);
#307=VECTOR('',#1104,10.);
#308=VECTOR('',#1105,10.);
#309=VECTOR('',#1106,10.);
#310=VECTOR('',#1107,10.);
#311=VECTOR('',#1110,10.);
#312=VECTOR('',#1111,10.);
#313=VECTOR('',#1112,10.);
#314=VECTOR('',#1115,10.);
#315=VECTOR('',#1116,10.);
#316=VECTOR('',#1119,10.);
#317=VECTOR('',#1122,10.);
#318=VECTOR('',#1123,10.);
#319=VECTOR('',#1124,10.);
#320=VECTOR('',#1125,10.);
#321=VECTOR('',#1130,1.7);
#322=VECTOR('',#1139,1.7);
#323=VECTOR('',#1146,1.7);
#324=VECTOR('',#1153,1.7);
#325=VECTOR('',#1160,1.7);
#326=VECTOR('',#1167,1.7);
#327=VECTOR('',#1174,1.7);
#328=VECTOR('',#1181,11.2);
#329=VECTOR('',#1190,10.);
#330=VECTOR('',#1193,10.);
#331=VECTOR('',#1196,10.);
#332=VECTOR('',#1199,10.);
#333=VECTOR('',#1210,5.);
#334=VECTOR('',#1217,10.);
#335=VECTOR('',#1218,10.);
#336=VECTOR('',#1223,5.);
#337=VECTOR('',#1230,10.);
#338=VECTOR('',#1231,10.);
#339=VECTOR('',#1234,10.);
#340=VECTOR('',#1235,10.);
#341=VECTOR('',#1236,10.);
#342=VECTOR('',#1239,10.);
#343=VECTOR('',#1240,10.);
#344=VECTOR('',#1241,10.);
#345=VECTOR('',#1244,10.);
#346=VECTOR('',#1245,10.);
#347=CIRCLE('',#911,2.15000000000003);
#348=CIRCLE('',#912,2.15000000000003);
#349=CIRCLE('',#914,2.15000000000003);
#350=CIRCLE('',#915,2.15000000000003);
#351=CIRCLE('',#917,2.15000000000003);
#352=CIRCLE('',#918,2.15000000000003);
#353=CIRCLE('',#920,2.15000000000003);
#354=CIRCLE('',#921,2.15000000000003);
#355=CIRCLE('',#924,1.7);
#356=CIRCLE('',#925,1.7);
#357=CIRCLE('',#933,1.7);
#358=CIRCLE('',#934,1.7);
#359=CIRCLE('',#936,5.);
#360=CIRCLE('',#939,1.7);
#361=CIRCLE('',#940,1.7);
#362=CIRCLE('',#948,1.7);
#363=CIRCLE('',#949,1.7);
#364=CIRCLE('',#951,1.7);
#365=CIRCLE('',#952,1.7);
#366=CIRCLE('',#954,1.7);
#367=CIRCLE('',#955,1.7);
#368=CIRCLE('',#957,1.7);
#369=CIRCLE('',#958,1.7);
#370=CIRCLE('',#960,1.7);
#371=CIRCLE('',#961,1.7);
#372=CIRCLE('',#963,1.7);
#373=CIRCLE('',#964,1.7);
#374=CIRCLE('',#966,1.7);
#375=CIRCLE('',#967,1.7);
#376=CIRCLE('',#969,11.2);
#377=CIRCLE('',#970,11.2);
#378=CIRCLE('',#972,5.);
#379=CIRCLE('',#974,5.);
#380=CIRCLE('',#975,5.);
#381=CIRCLE('',#976,5.);
#382=CIRCLE('',#978,5.);
#383=CIRCLE('',#981,5.);
#384=CIRCLE('',#982,5.);
#385=CIRCLE('',#986,5.);
#386=CIRCLE('',#987,5.);
#387=VERTEX_POINT('',#1252);
#388=VERTEX_POINT('',#1254);
#389=VERTEX_POINT('',#1258);
#390=VERTEX_POINT('',#1260);
#391=VERTEX_POINT('',#1264);
#392=VERTEX_POINT('',#1266);
#393=VERTEX_POINT('',#1270);
#394=VERTEX_POINT('',#1272);
#395=VERTEX_POINT('',#1276);
#396=VERTEX_POINT('',#1277);
#397=VERTEX_POINT('',#1279);
#398=VERTEX_POINT('',#1281);
#399=VERTEX_POINT('',#1283);
#400=VERTEX_POINT('',#1285);
#401=VERTEX_POINT('',#1287);
#402=VERTEX_POINT('',#1291);
#403=VERTEX_POINT('',#1292);
#404=VERTEX_POINT('',#1294);
#405=VERTEX_POINT('',#1298);
#406=VERTEX_POINT('',#1300);
#407=VERTEX_POINT('',#1302);
#408=VERTEX_POINT('',#1304);
#409=VERTEX_POINT('',#1308);
#410=VERTEX_POINT('',#1310);
#411=VERTEX_POINT('',#1313);
#412=VERTEX_POINT('',#1315);
#413=VERTEX_POINT('',#1317);
#414=VERTEX_POINT('',#1322);
#415=VERTEX_POINT('',#1326);
#416=VERTEX_POINT('',#1333);
#417=VERTEX_POINT('',#1340);
#418=VERTEX_POINT('',#1341);
#419=VERTEX_POINT('',#1343);
#420=VERTEX_POINT('',#1345);
#421=VERTEX_POINT('',#1347);
#422=VERTEX_POINT('',#1349);
#423=VERTEX_POINT('',#1351);
#424=VERTEX_POINT('',#1353);
#425=VERTEX_POINT('',#1355);
#426=VERTEX_POINT('',#1357);
#427=VERTEX_POINT('',#1361);
#428=VERTEX_POINT('',#1365);
#429=VERTEX_POINT('',#1367);
#430=VERTEX_POINT('',#1369);
#431=VERTEX_POINT('',#1371);
#432=VERTEX_POINT('',#1373);
#433=VERTEX_POINT('',#1377);
#434=VERTEX_POINT('',#1379);
#435=VERTEX_POINT('',#1383);
#436=VERTEX_POINT('',#1389);
#437=VERTEX_POINT('',#1392);
#438=VERTEX_POINT('',#1397);
#439=VERTEX_POINT('',#1402);
#440=VERTEX_POINT('',#1404);
#441=VERTEX_POINT('',#1408);
#442=VERTEX_POINT('',#1410);
#443=VERTEX_POINT('',#1414);
#444=VERTEX_POINT('',#1416);
#445=VERTEX_POINT('',#1420);
#446=VERTEX_POINT('',#1422);
#447=VERTEX_POINT('',#1426);
#448=VERTEX_POINT('',#1428);
#449=VERTEX_POINT('',#1432);
#450=VERTEX_POINT('',#1434);
#451=VERTEX_POINT('',#1438);
#452=VERTEX_POINT('',#1440);
#453=VERTEX_POINT('',#1448);
#454=VERTEX_POINT('',#1450);
#455=VERTEX_POINT('',#1452);
#456=VERTEX_POINT('',#1454);
#457=VERTEX_POINT('',#1461);
#458=VERTEX_POINT('',#1467);
#459=VERTEX_POINT('',#1471);
#460=VERTEX_POINT('',#1477);
#461=VERTEX_POINT('',#1481);
#462=VERTEX_POINT('',#1483);
#463=VERTEX_POINT('',#1487);
#464=VERTEX_POINT('',#1489);
#465=EDGE_CURVE('',#387,#387,#347,.T.);
#466=EDGE_CURVE('',#387,#388,#181,.T.);
#467=EDGE_CURVE('',#388,#388,#348,.T.);
#468=EDGE_CURVE('',#389,#389,#349,.T.);
#469=EDGE_CURVE('',#389,#390,#182,.T.);
#470=EDGE_CURVE('',#390,#390,#350,.T.);
#471=EDGE_CURVE('',#391,#391,#351,.T.);
#472=EDGE_CURVE('',#391,#392,#183,.T.);
#473=EDGE_CURVE('',#392,#392,#352,.T.);
#474=EDGE_CURVE('',#393,#393,#353,.T.);
#475=EDGE_CURVE('',#393,#394,#184,.T.);
#476=EDGE_CURVE('',#394,#394,#354,.T.);
#477=EDGE_CURVE('',#395,#396,#185,.T.);
#478=EDGE_CURVE('',#397,#395,#186,.T.);
#479=EDGE_CURVE('',#398,#397,#187,.T.);
#480=EDGE_CURVE('',#399,#398,#188,.T.);
#481=EDGE_CURVE('',#399,#400,#189,.T.);
#482=EDGE_CURVE('',#401,#400,#190,.T.);
#483=EDGE_CURVE('',#396,#401,#191,.T.);
#484=EDGE_CURVE('',#402,#403,#355,.T.);
#485=EDGE_CURVE('',#402,#404,#192,.T.);
#486=EDGE_CURVE('',#403,#404,#356,.T.);
#487=EDGE_CURVE('',#405,#398,#193,.T.);
#488=EDGE_CURVE('',#405,#406,#194,.T.);
#489=EDGE_CURVE('',#406,#407,#195,.T.);
#490=EDGE_CURVE('',#407,#408,#196,.T.);
#491=EDGE_CURVE('',#408,#399,#197,.T.);
#492=EDGE_CURVE('',#396,#409,#198,.T.);
#493=EDGE_CURVE('',#410,#401,#199,.T.);
#494=EDGE_CURVE('',#406,#410,#200,.T.);
#495=EDGE_CURVE('',#411,#406,#201,.T.);
#496=EDGE_CURVE('',#412,#411,#202,.T.);
#497=EDGE_CURVE('',#413,#412,#203,.T.);
#498=EDGE_CURVE('',#404,#413,#204,.T.);
#499=EDGE_CURVE('',#409,#402,#205,.T.);
#500=EDGE_CURVE('',#414,#410,#206,.T.);
#501=EDGE_CURVE('',#407,#414,#207,.T.);
#502=EDGE_CURVE('',#415,#414,#208,.T.);
#503=EDGE_CURVE('',#408,#415,#209,.T.);
#504=EDGE_CURVE('',#400,#415,#210,.T.);
#505=EDGE_CURVE('',#403,#416,#211,.T.);
#506=EDGE_CURVE('',#416,#416,#357,.T.);
#507=EDGE_CURVE('',#409,#413,#358,.T.);
#508=EDGE_CURVE('',#412,#395,#359,.T.);
#509=EDGE_CURVE('',#417,#418,#212,.T.);
#510=EDGE_CURVE('',#419,#417,#213,.T.);
#511=EDGE_CURVE('',#420,#419,#214,.T.);
#512=EDGE_CURVE('',#421,#420,#215,.T.);
#513=EDGE_CURVE('',#421,#422,#216,.T.);
#514=EDGE_CURVE('',#423,#422,#217,.T.);
#515=EDGE_CURVE('',#424,#423,#218,.T.);
#516=EDGE_CURVE('',#425,#424,#219,.T.);
#517=EDGE_CURVE('',#426,#425,#220,.T.);
#518=EDGE_CURVE('',#426,#418,#221,.T.);
#519=EDGE_CURVE('',#418,#427,#360,.T.);
#520=EDGE_CURVE('',#427,#426,#361,.T.);
#521=EDGE_CURVE('',#421,#428,#222,.T.);
#522=EDGE_CURVE('',#429,#428,#223,.T.);
#523=EDGE_CURVE('',#430,#429,#224,.T.);
#524=EDGE_CURVE('',#431,#430,#225,.T.);
#525=EDGE_CURVE('',#432,#431,#226,.T.);
#526=EDGE_CURVE('',#421,#432,#227,.T.);
#527=EDGE_CURVE('',#430,#433,#228,.T.);
#528=EDGE_CURVE('',#434,#433,#229,.T.);
#529=EDGE_CURVE('',#431,#434,#230,.T.);
#530=EDGE_CURVE('',#435,#434,#231,.T.);
#531=EDGE_CURVE('',#432,#435,#232,.T.);
#532=EDGE_CURVE('',#422,#435,#233,.T.);
#533=EDGE_CURVE('',#424,#436,#234,.T.);
#534=EDGE_CURVE('',#433,#423,#235,.T.);
#535=EDGE_CURVE('',#437,#429,#236,.T.);
#536=EDGE_CURVE('',#436,#437,#237,.T.);
#537=EDGE_CURVE('',#427,#438,#238,.T.);
#538=EDGE_CURVE('',#438,#438,#362,.T.);
#539=EDGE_CURVE('',#417,#425,#363,.T.);
#540=EDGE_CURVE('',#439,#439,#364,.T.);
#541=EDGE_CURVE('',#439,#440,#239,.T.);
#542=EDGE_CURVE('',#440,#440,#365,.T.);
#543=EDGE_CURVE('',#441,#441,#366,.T.);
#544=EDGE_CURVE('',#441,#442,#240,.T.);
#545=EDGE_CURVE('',#442,#442,#367,.T.);
#546=EDGE_CURVE('',#443,#443,#368,.T.);
#547=EDGE_CURVE('',#443,#444,#241,.T.);
#548=EDGE_CURVE('',#444,#444,#369,.T.);
#549=EDGE_CURVE('',#445,#445,#370,.T.);
#550=EDGE_CURVE('',#445,#446,#242,.T.);
#551=EDGE_CURVE('',#446,#446,#371,.T.);
#552=EDGE_CURVE('',#447,#447,#372,.T.);
#553=EDGE_CURVE('',#447,#448,#243,.T.);
#554=EDGE_CURVE('',#448,#448,#373,.T.);
#555=EDGE_CURVE('',#449,#449,#374,.T.);
#556=EDGE_CURVE('',#449,#450,#244,.T.);
#557=EDGE_CURVE('',#450,#450,#375,.T.);
#558=EDGE_CURVE('',#451,#451,#376,.T.);
#559=EDGE_CURVE('',#451,#452,#245,.T.);
#560=EDGE_CURVE('',#452,#452,#377,.T.);
#561=EDGE_CURVE('',#397,#411,#378,.T.);
#562=EDGE_CURVE('',#406,#421,#246,.T.);
#563=EDGE_CURVE('',#420,#437,#379,.T.);
#564=EDGE_CURVE('',#453,#429,#247,.T.);
#565=EDGE_CURVE('',#453,#454,#380,.T.);
#566=EDGE_CURVE('',#455,#454,#248,.T.);
#567=EDGE_CURVE('',#455,#456,#381,.T.);
#568=EDGE_CURVE('',#398,#456,#249,.T.);
#569=EDGE_CURVE('',#436,#419,#382,.T.);
#570=EDGE_CURVE('',#457,#457,#383,.T.);
#571=EDGE_CURVE('',#457,#455,#250,.T.);
#572=EDGE_CURVE('',#456,#455,#384,.T.);
#573=EDGE_CURVE('',#458,#455,#251,.T.);
#574=EDGE_CURVE('',#456,#458,#252,.T.);
#575=EDGE_CURVE('',#459,#459,#385,.T.);
#576=EDGE_CURVE('',#459,#454,#253,.T.);
#577=EDGE_CURVE('',#454,#453,#386,.T.);
#578=EDGE_CURVE('',#460,#453,#254,.T.);
#579=EDGE_CURVE('',#454,#460,#255,.T.);
#580=EDGE_CURVE('',#461,#405,#256,.T.);
#581=EDGE_CURVE('',#458,#462,#257,.T.);
#582=EDGE_CURVE('',#462,#461,#258,.T.);
#583=EDGE_CURVE('',#428,#463,#259,.T.);
#584=EDGE_CURVE('',#463,#464,#260,.T.);
#585=EDGE_CURVE('',#464,#460,#261,.T.);
#586=EDGE_CURVE('',#462,#464,#262,.T.);
#587=EDGE_CURVE('',#461,#463,#263,.T.);
#588=ORIENTED_EDGE('',*,*,#465,.F.);
#589=ORIENTED_EDGE('',*,*,#466,.T.);
#590=ORIENTED_EDGE('',*,*,#467,.F.);
#591=ORIENTED_EDGE('',*,*,#466,.F.);
#592=ORIENTED_EDGE('',*,*,#468,.F.);
#593=ORIENTED_EDGE('',*,*,#469,.T.);
#594=ORIENTED_EDGE('',*,*,#470,.F.);
#595=ORIENTED_EDGE('',*,*,#469,.F.);
#596=ORIENTED_EDGE('',*,*,#471,.F.);
#597=ORIENTED_EDGE('',*,*,#472,.T.);
#598=ORIENTED_EDGE('',*,*,#473,.F.);
#599=ORIENTED_EDGE('',*,*,#472,.F.);
#600=ORIENTED_EDGE('',*,*,#474,.F.);
#601=ORIENTED_EDGE('',*,*,#475,.T.);
#602=ORIENTED_EDGE('',*,*,#476,.F.);
#603=ORIENTED_EDGE('',*,*,#475,.F.);
#604=ORIENTED_EDGE('',*,*,#477,.F.);
#605=ORIENTED_EDGE('',*,*,#478,.F.);
#606=ORIENTED_EDGE('',*,*,#479,.F.);
#607=ORIENTED_EDGE('',*,*,#480,.F.);
#608=ORIENTED_EDGE('',*,*,#481,.T.);
#609=ORIENTED_EDGE('',*,*,#482,.F.);
#610=ORIENTED_EDGE('',*,*,#483,.F.);
#611=ORIENTED_EDGE('',*,*,#484,.F.);
#612=ORIENTED_EDGE('',*,*,#485,.T.);
#613=ORIENTED_EDGE('',*,*,#486,.F.);
#614=ORIENTED_EDGE('',*,*,#487,.F.);
#615=ORIENTED_EDGE('',*,*,#488,.T.);
#616=ORIENTED_EDGE('',*,*,#489,.T.);
#617=ORIENTED_EDGE('',*,*,#490,.T.);
#618=ORIENTED_EDGE('',*,*,#491,.T.);
#619=ORIENTED_EDGE('',*,*,#480,.T.);
#620=ORIENTED_EDGE('',*,*,#465,.T.);
#621=ORIENTED_EDGE('',*,*,#474,.T.);
#622=ORIENTED_EDGE('',*,*,#492,.F.);
#623=ORIENTED_EDGE('',*,*,#483,.T.);
#624=ORIENTED_EDGE('',*,*,#493,.F.);
#625=ORIENTED_EDGE('',*,*,#494,.F.);
#626=ORIENTED_EDGE('',*,*,#495,.F.);
#627=ORIENTED_EDGE('',*,*,#496,.F.);
#628=ORIENTED_EDGE('',*,*,#497,.F.);
#629=ORIENTED_EDGE('',*,*,#498,.F.);
#630=ORIENTED_EDGE('',*,*,#485,.F.);
#631=ORIENTED_EDGE('',*,*,#499,.F.);
#632=ORIENTED_EDGE('',*,*,#489,.F.);
#633=ORIENTED_EDGE('',*,*,#494,.T.);
#634=ORIENTED_EDGE('',*,*,#500,.F.);
#635=ORIENTED_EDGE('',*,*,#501,.F.);
#636=ORIENTED_EDGE('',*,*,#490,.F.);
#637=ORIENTED_EDGE('',*,*,#501,.T.);
#638=ORIENTED_EDGE('',*,*,#502,.F.);
#639=ORIENTED_EDGE('',*,*,#503,.F.);
#640=ORIENTED_EDGE('',*,*,#491,.F.);
#641=ORIENTED_EDGE('',*,*,#503,.T.);
#642=ORIENTED_EDGE('',*,*,#504,.F.);
#643=ORIENTED_EDGE('',*,*,#481,.F.);
#644=ORIENTED_EDGE('',*,*,#504,.T.);
#645=ORIENTED_EDGE('',*,*,#502,.T.);
#646=ORIENTED_EDGE('',*,*,#500,.T.);
#647=ORIENTED_EDGE('',*,*,#493,.T.);
#648=ORIENTED_EDGE('',*,*,#482,.T.);
#649=ORIENTED_EDGE('',*,*,#467,.T.);
#650=ORIENTED_EDGE('',*,*,#476,.T.);
#651=ORIENTED_EDGE('',*,*,#499,.T.);
#652=ORIENTED_EDGE('',*,*,#484,.T.);
#653=ORIENTED_EDGE('',*,*,#505,.T.);
#654=ORIENTED_EDGE('',*,*,#506,.F.);
#655=ORIENTED_EDGE('',*,*,#505,.F.);
#656=ORIENTED_EDGE('',*,*,#486,.T.);
#657=ORIENTED_EDGE('',*,*,#498,.T.);
#658=ORIENTED_EDGE('',*,*,#507,.F.);
#659=ORIENTED_EDGE('',*,*,#477,.T.);
#660=ORIENTED_EDGE('',*,*,#492,.T.);
#661=ORIENTED_EDGE('',*,*,#507,.T.);
#662=ORIENTED_EDGE('',*,*,#497,.T.);
#663=ORIENTED_EDGE('',*,*,#508,.T.);
#664=ORIENTED_EDGE('',*,*,#509,.F.);
#665=ORIENTED_EDGE('',*,*,#510,.F.);
#666=ORIENTED_EDGE('',*,*,#511,.F.);
#667=ORIENTED_EDGE('',*,*,#512,.F.);
#668=ORIENTED_EDGE('',*,*,#513,.T.);
#669=ORIENTED_EDGE('',*,*,#514,.F.);
#670=ORIENTED_EDGE('',*,*,#515,.F.);
#671=ORIENTED_EDGE('',*,*,#516,.F.);
#672=ORIENTED_EDGE('',*,*,#517,.F.);
#673=ORIENTED_EDGE('',*,*,#518,.T.);
#674=ORIENTED_EDGE('',*,*,#519,.F.);
#675=ORIENTED_EDGE('',*,*,#518,.F.);
#676=ORIENTED_EDGE('',*,*,#520,.F.);
#677=ORIENTED_EDGE('',*,*,#521,.T.);
#678=ORIENTED_EDGE('',*,*,#522,.F.);
#679=ORIENTED_EDGE('',*,*,#523,.F.);
#680=ORIENTED_EDGE('',*,*,#524,.F.);
#681=ORIENTED_EDGE('',*,*,#525,.F.);
#682=ORIENTED_EDGE('',*,*,#526,.F.);
#683=ORIENTED_EDGE('',*,*,#468,.T.);
#684=ORIENTED_EDGE('',*,*,#471,.T.);
#685=ORIENTED_EDGE('',*,*,#524,.T.);
#686=ORIENTED_EDGE('',*,*,#527,.T.);
#687=ORIENTED_EDGE('',*,*,#528,.F.);
#688=ORIENTED_EDGE('',*,*,#529,.F.);
#689=ORIENTED_EDGE('',*,*,#525,.T.);
#690=ORIENTED_EDGE('',*,*,#529,.T.);
#691=ORIENTED_EDGE('',*,*,#530,.F.);
#692=ORIENTED_EDGE('',*,*,#531,.F.);
#693=ORIENTED_EDGE('',*,*,#526,.T.);
#694=ORIENTED_EDGE('',*,*,#531,.T.);
#695=ORIENTED_EDGE('',*,*,#532,.F.);
#696=ORIENTED_EDGE('',*,*,#513,.F.);
#697=ORIENTED_EDGE('',*,*,#533,.F.);
#698=ORIENTED_EDGE('',*,*,#515,.T.);
#699=ORIENTED_EDGE('',*,*,#534,.F.);
#700=ORIENTED_EDGE('',*,*,#527,.F.);
#701=ORIENTED_EDGE('',*,*,#523,.T.);
#702=ORIENTED_EDGE('',*,*,#535,.F.);
#703=ORIENTED_EDGE('',*,*,#536,.F.);
#704=ORIENTED_EDGE('',*,*,#534,.T.);
#705=ORIENTED_EDGE('',*,*,#514,.T.);
#706=ORIENTED_EDGE('',*,*,#532,.T.);
#707=ORIENTED_EDGE('',*,*,#530,.T.);
#708=ORIENTED_EDGE('',*,*,#528,.T.);
#709=ORIENTED_EDGE('',*,*,#470,.T.);
#710=ORIENTED_EDGE('',*,*,#473,.T.);
#711=ORIENTED_EDGE('',*,*,#509,.T.);
#712=ORIENTED_EDGE('',*,*,#519,.T.);
#713=ORIENTED_EDGE('',*,*,#537,.T.);
#714=ORIENTED_EDGE('',*,*,#538,.F.);
#715=ORIENTED_EDGE('',*,*,#537,.F.);
#716=ORIENTED_EDGE('',*,*,#520,.T.);
#717=ORIENTED_EDGE('',*,*,#517,.T.);
#718=ORIENTED_EDGE('',*,*,#539,.F.);
#719=ORIENTED_EDGE('',*,*,#540,.F.);
#720=ORIENTED_EDGE('',*,*,#541,.T.);
#721=ORIENTED_EDGE('',*,*,#542,.F.);
#722=ORIENTED_EDGE('',*,*,#541,.F.);
#723=ORIENTED_EDGE('',*,*,#543,.F.);
#724=ORIENTED_EDGE('',*,*,#544,.T.);
#725=ORIENTED_EDGE('',*,*,#545,.F.);
#726=ORIENTED_EDGE('',*,*,#544,.F.);
#727=ORIENTED_EDGE('',*,*,#546,.F.);
#728=ORIENTED_EDGE('',*,*,#547,.T.);
#729=ORIENTED_EDGE('',*,*,#548,.F.);
#730=ORIENTED_EDGE('',*,*,#547,.F.);
#731=ORIENTED_EDGE('',*,*,#549,.F.);
#732=ORIENTED_EDGE('',*,*,#550,.T.);
#733=ORIENTED_EDGE('',*,*,#551,.F.);
#734=ORIENTED_EDGE('',*,*,#550,.F.);
#735=ORIENTED_EDGE('',*,*,#552,.F.);
#736=ORIENTED_EDGE('',*,*,#553,.T.);
#737=ORIENTED_EDGE('',*,*,#554,.F.);
#738=ORIENTED_EDGE('',*,*,#553,.F.);
#739=ORIENTED_EDGE('',*,*,#555,.F.);
#740=ORIENTED_EDGE('',*,*,#556,.T.);
#741=ORIENTED_EDGE('',*,*,#557,.F.);
#742=ORIENTED_EDGE('',*,*,#556,.F.);
#743=ORIENTED_EDGE('',*,*,#558,.F.);
#744=ORIENTED_EDGE('',*,*,#559,.T.);
#745=ORIENTED_EDGE('',*,*,#560,.F.);
#746=ORIENTED_EDGE('',*,*,#559,.F.);
#747=ORIENTED_EDGE('',*,*,#478,.T.);
#748=ORIENTED_EDGE('',*,*,#508,.F.);
#749=ORIENTED_EDGE('',*,*,#496,.T.);
#750=ORIENTED_EDGE('',*,*,#561,.F.);
#751=ORIENTED_EDGE('',*,*,#479,.T.);
#752=ORIENTED_EDGE('',*,*,#561,.T.);
#753=ORIENTED_EDGE('',*,*,#495,.T.);
#754=ORIENTED_EDGE('',*,*,#562,.T.);
#755=ORIENTED_EDGE('',*,*,#512,.T.);
#756=ORIENTED_EDGE('',*,*,#563,.T.);
#757=ORIENTED_EDGE('',*,*,#535,.T.);
#758=ORIENTED_EDGE('',*,*,#564,.F.);
#759=ORIENTED_EDGE('',*,*,#565,.T.);
#760=ORIENTED_EDGE('',*,*,#566,.F.);
#761=ORIENTED_EDGE('',*,*,#567,.T.);
#762=ORIENTED_EDGE('',*,*,#568,.F.);
#763=ORIENTED_EDGE('',*,*,#546,.T.);
#764=ORIENTED_EDGE('',*,*,#549,.T.);
#765=ORIENTED_EDGE('',*,*,#552,.T.);
#766=ORIENTED_EDGE('',*,*,#555,.T.);
#767=ORIENTED_EDGE('',*,*,#558,.T.);
#768=ORIENTED_EDGE('',*,*,#511,.T.);
#769=ORIENTED_EDGE('',*,*,#569,.F.);
#770=ORIENTED_EDGE('',*,*,#536,.T.);
#771=ORIENTED_EDGE('',*,*,#563,.F.);
#772=ORIENTED_EDGE('',*,*,#510,.T.);
#773=ORIENTED_EDGE('',*,*,#539,.T.);
#774=ORIENTED_EDGE('',*,*,#516,.T.);
#775=ORIENTED_EDGE('',*,*,#533,.T.);
#776=ORIENTED_EDGE('',*,*,#569,.T.);
#777=ORIENTED_EDGE('',*,*,#570,.F.);
#778=ORIENTED_EDGE('',*,*,#571,.T.);
#779=ORIENTED_EDGE('',*,*,#572,.F.);
#780=ORIENTED_EDGE('',*,*,#567,.F.);
#781=ORIENTED_EDGE('',*,*,#571,.F.);
#782=ORIENTED_EDGE('',*,*,#570,.T.);
#783=ORIENTED_EDGE('',*,*,#540,.T.);
#784=ORIENTED_EDGE('',*,*,#572,.T.);
#785=ORIENTED_EDGE('',*,*,#573,.F.);
#786=ORIENTED_EDGE('',*,*,#574,.F.);
#787=ORIENTED_EDGE('',*,*,#575,.F.);
#788=ORIENTED_EDGE('',*,*,#576,.T.);
#789=ORIENTED_EDGE('',*,*,#565,.F.);
#790=ORIENTED_EDGE('',*,*,#577,.F.);
#791=ORIENTED_EDGE('',*,*,#576,.F.);
#792=ORIENTED_EDGE('',*,*,#575,.T.);
#793=ORIENTED_EDGE('',*,*,#543,.T.);
#794=ORIENTED_EDGE('',*,*,#577,.T.);
#795=ORIENTED_EDGE('',*,*,#578,.F.);
#796=ORIENTED_EDGE('',*,*,#579,.F.);
#797=ORIENTED_EDGE('',*,*,#580,.T.);
#798=ORIENTED_EDGE('',*,*,#487,.T.);
#799=ORIENTED_EDGE('',*,*,#568,.T.);
#800=ORIENTED_EDGE('',*,*,#574,.T.);
#801=ORIENTED_EDGE('',*,*,#581,.T.);
#802=ORIENTED_EDGE('',*,*,#582,.T.);
#803=ORIENTED_EDGE('',*,*,#583,.T.);
#804=ORIENTED_EDGE('',*,*,#584,.T.);
#805=ORIENTED_EDGE('',*,*,#585,.T.);
#806=ORIENTED_EDGE('',*,*,#578,.T.);
#807=ORIENTED_EDGE('',*,*,#564,.T.);
#808=ORIENTED_EDGE('',*,*,#522,.T.);
#809=ORIENTED_EDGE('',*,*,#586,.T.);
#810=ORIENTED_EDGE('',*,*,#584,.F.);
#811=ORIENTED_EDGE('',*,*,#587,.F.);
#812=ORIENTED_EDGE('',*,*,#582,.F.);
#813=ORIENTED_EDGE('',*,*,#538,.T.);
#814=ORIENTED_EDGE('',*,*,#542,.T.);
#815=ORIENTED_EDGE('',*,*,#545,.T.);
#816=ORIENTED_EDGE('',*,*,#548,.T.);
#817=ORIENTED_EDGE('',*,*,#551,.T.);
#818=ORIENTED_EDGE('',*,*,#554,.T.);
#819=ORIENTED_EDGE('',*,*,#557,.T.);
#820=ORIENTED_EDGE('',*,*,#560,.T.);
#821=ORIENTED_EDGE('',*,*,#506,.T.);
#822=ORIENTED_EDGE('',*,*,#573,.T.);
#823=ORIENTED_EDGE('',*,*,#566,.T.);
#824=ORIENTED_EDGE('',*,*,#579,.T.);
#825=ORIENTED_EDGE('',*,*,#585,.F.);
#826=ORIENTED_EDGE('',*,*,#586,.F.);
#827=ORIENTED_EDGE('',*,*,#581,.F.);
#828=ORIENTED_EDGE('',*,*,#587,.T.);
#829=ORIENTED_EDGE('',*,*,#583,.F.);
#830=ORIENTED_EDGE('',*,*,#521,.F.);
#831=ORIENTED_EDGE('',*,*,#562,.F.);
#832=ORIENTED_EDGE('',*,*,#488,.F.);
#833=ORIENTED_EDGE('',*,*,#580,.F.);
#834=CYLINDRICAL_SURFACE('',#910,2.15000000000003);
#835=CYLINDRICAL_SURFACE('',#913,2.15000000000003);
#836=CYLINDRICAL_SURFACE('',#916,2.15000000000003);
#837=CYLINDRICAL_SURFACE('',#919,2.15000000000003);
#838=CYLINDRICAL_SURFACE('',#932,1.7);
#839=CYLINDRICAL_SURFACE('',#947,1.7);
#840=CYLINDRICAL_SURFACE('',#950,1.7);
#841=CYLINDRICAL_SURFACE('',#953,1.7);
#842=CYLINDRICAL_SURFACE('',#956,1.7);
#843=CYLINDRICAL_SURFACE('',#959,1.7);
#844=CYLINDRICAL_SURFACE('',#962,1.7);
#845=CYLINDRICAL_SURFACE('',#965,1.7);
#846=CYLINDRICAL_SURFACE('',#968,11.2);
#847=CYLINDRICAL_SURFACE('',#971,5.);
#848=CYLINDRICAL_SURFACE('',#977,5.);
#849=CYLINDRICAL_SURFACE('',#980,5.);
#850=CYLINDRICAL_SURFACE('',#985,5.);
#851=ADVANCED_FACE('',(#67),#834,.F.);
#852=ADVANCED_FACE('',(#68),#835,.F.);
#853=ADVANCED_FACE('',(#69),#836,.F.);
#854=ADVANCED_FACE('',(#70),#837,.F.);
#855=ADVANCED_FACE('',(#71),#39,.T.);
#856=ADVANCED_FACE('',(#72),#40,.F.);
#857=ADVANCED_FACE('',(#73,#15,#16),#41,.F.);
#858=ADVANCED_FACE('',(#74),#42,.T.);
#859=ADVANCED_FACE('',(#75),#43,.T.);
#860=ADVANCED_FACE('',(#76),#44,.T.);
#861=ADVANCED_FACE('',(#77),#45,.T.);
#862=ADVANCED_FACE('',(#78,#17,#18),#46,.T.);
#863=ADVANCED_FACE('',(#79),#838,.F.);
#864=ADVANCED_FACE('',(#80),#47,.T.);
#865=ADVANCED_FACE('',(#81),#48,.T.);
#866=ADVANCED_FACE('',(#82),#49,.F.);
#867=ADVANCED_FACE('',(#83,#19,#20),#50,.F.);
#868=ADVANCED_FACE('',(#84),#51,.T.);
#869=ADVANCED_FACE('',(#85),#52,.T.);
#870=ADVANCED_FACE('',(#86),#53,.T.);
#871=ADVANCED_FACE('',(#87),#54,.T.);
#872=ADVANCED_FACE('',(#88,#21,#22),#55,.T.);
#873=ADVANCED_FACE('',(#89),#839,.F.);
#874=ADVANCED_FACE('',(#90),#840,.F.);
#875=ADVANCED_FACE('',(#91),#841,.F.);
#876=ADVANCED_FACE('',(#92),#842,.F.);
#877=ADVANCED_FACE('',(#93),#843,.F.);
#878=ADVANCED_FACE('',(#94),#844,.F.);
#879=ADVANCED_FACE('',(#95),#845,.F.);
#880=ADVANCED_FACE('',(#96),#846,.F.);
#881=ADVANCED_FACE('',(#97),#847,.T.);
#882=ADVANCED_FACE('',(#98,#23,#24,#25,#26,#27),#56,.F.);
#883=ADVANCED_FACE('',(#99),#848,.T.);
#884=ADVANCED_FACE('',(#100),#57,.T.);
#885=ADVANCED_FACE('',(#101),#849,.T.);
#886=ADVANCED_FACE('',(#102,#28),#58,.T.);
#887=ADVANCED_FACE('',(#103),#59,.F.);
#888=ADVANCED_FACE('',(#104),#850,.T.);
#889=ADVANCED_FACE('',(#105,#29),#60,.T.);
#890=ADVANCED_FACE('',(#106),#61,.F.);
#891=ADVANCED_FACE('',(#107),#62,.T.);
#892=ADVANCED_FACE('',(#108),#63,.F.);
#893=ADVANCED_FACE('',(#109,#30,#31,#32,#33,#34,#35,#36,#37,#38),#64,.F.);
#894=ADVANCED_FACE('',(#110),#65,.F.);
#895=ADVANCED_FACE('',(#111),#66,.F.);
#896=CLOSED_SHELL('',(#851,#852,#853,#854,#855,#856,#857,#858,#859,#860,
#861,#862,#863,#864,#865,#866,#867,#868,#869,#870,#871,#872,#873,#874,#875,
#876,#877,#878,#879,#880,#881,#882,#883,#884,#885,#886,#887,#888,#889,#890,
#891,#892,#893,#894,#895));
#897=DERIVED_UNIT_ELEMENT(#899,1.);
#898=DERIVED_UNIT_ELEMENT(#1502,-3.);
#899=(
MASS_UNIT()
NAMED_UNIT(*)
SI_UNIT(.KILO.,.GRAM.)
);
#900=DERIVED_UNIT((#897,#898));
#901=MEASURE_REPRESENTATION_ITEM('density measure',
POSITIVE_RATIO_MEASURE(7850.),#900);
#902=PROPERTY_DEFINITION_REPRESENTATION(#907,#904);
#903=PROPERTY_DEFINITION_REPRESENTATION(#908,#905);
#904=REPRESENTATION('material name',(#906),#1499);
#905=REPRESENTATION('density',(#901),#1499);
#906=DESCRIPTIVE_REPRESENTATION_ITEM('Steel','Steel');
#907=PROPERTY_DEFINITION('material property','material name',#1509);
#908=PROPERTY_DEFINITION('material property','density of part',#1509);
#909=AXIS2_PLACEMENT_3D('',#1250,#995,#996);
#910=AXIS2_PLACEMENT_3D('',#1251,#997,#998);
#911=AXIS2_PLACEMENT_3D('',#1253,#999,#1000);
#912=AXIS2_PLACEMENT_3D('',#1256,#1002,#1003);
#913=AXIS2_PLACEMENT_3D('',#1257,#1004,#1005);
#914=AXIS2_PLACEMENT_3D('',#1259,#1006,#1007);
#915=AXIS2_PLACEMENT_3D('',#1262,#1009,#1010);
#916=AXIS2_PLACEMENT_3D('',#1263,#1011,#1012);
#917=AXIS2_PLACEMENT_3D('',#1265,#1013,#1014);
#918=AXIS2_PLACEMENT_3D('',#1268,#1016,#1017);
#919=AXIS2_PLACEMENT_3D('',#1269,#1018,#1019);
#920=AXIS2_PLACEMENT_3D('',#1271,#1020,#1021);
#921=AXIS2_PLACEMENT_3D('',#1274,#1023,#1024);
#922=AXIS2_PLACEMENT_3D('',#1275,#1025,#1026);
#923=AXIS2_PLACEMENT_3D('',#1290,#1034,#1035);
#924=AXIS2_PLACEMENT_3D('',#1293,#1036,#1037);
#925=AXIS2_PLACEMENT_3D('',#1296,#1039,#1040);
#926=AXIS2_PLACEMENT_3D('',#1297,#1041,#1042);
#927=AXIS2_PLACEMENT_3D('',#1307,#1048,#1049);
#928=AXIS2_PLACEMENT_3D('',#1321,#1058,#1059);
#929=AXIS2_PLACEMENT_3D('',#1325,#1062,#1063);
#930=AXIS2_PLACEMENT_3D('',#1329,#1066,#1067);
#931=AXIS2_PLACEMENT_3D('',#1331,#1069,#1070);
#932=AXIS2_PLACEMENT_3D('',#1332,#1071,#1072);
#933=AXIS2_PLACEMENT_3D('',#1335,#1074,#1075);
#934=AXIS2_PLACEMENT_3D('',#1336,#1076,#1077);
#935=AXIS2_PLACEMENT_3D('',#1337,#1078,#1079);
#936=AXIS2_PLACEMENT_3D('',#1338,#1080,#1081);
#937=AXIS2_PLACEMENT_3D('',#1339,#1082,#1083);
#938=AXIS2_PLACEMENT_3D('',#1360,#1094,#1095);
#939=AXIS2_PLACEMENT_3D('',#1362,#1096,#1097);
#940=AXIS2_PLACEMENT_3D('',#1363,#1098,#1099);
#941=AXIS2_PLACEMENT_3D('',#1364,#1100,#1101);
#942=AXIS2_PLACEMENT_3D('',#1376,#1108,#1109);
#943=AXIS2_PLACEMENT_3D('',#1382,#1113,#1114);
#944=AXIS2_PLACEMENT_3D('',#1386,#1117,#1118);
#945=AXIS2_PLACEMENT_3D('',#1388,#1120,#1121);
#946=AXIS2_PLACEMENT_3D('',#1395,#1126,#1127);
#947=AXIS2_PLACEMENT_3D('',#1396,#1128,#1129);
#948=AXIS2_PLACEMENT_3D('',#1399,#1131,#1132);
#949=AXIS2_PLACEMENT_3D('',#1400,#1133,#1134);
#950=AXIS2_PLACEMENT_3D('',#1401,#1135,#1136);
#951=AXIS2_PLACEMENT_3D('',#1403,#1137,#1138);
#952=AXIS2_PLACEMENT_3D('',#1406,#1140,#1141);
#953=AXIS2_PLACEMENT_3D('',#1407,#1142,#1143);
#954=AXIS2_PLACEMENT_3D('',#1409,#1144,#1145);
#955=AXIS2_PLACEMENT_3D('',#1412,#1147,#1148);
#956=AXIS2_PLACEMENT_3D('',#1413,#1149,#1150);
#957=AXIS2_PLACEMENT_3D('',#1415,#1151,#1152);
#958=AXIS2_PLACEMENT_3D('',#1418,#1154,#1155);
#959=AXIS2_PLACEMENT_3D('',#1419,#1156,#1157);
#960=AXIS2_PLACEMENT_3D('',#1421,#1158,#1159);
#961=AXIS2_PLACEMENT_3D('',#1424,#1161,#1162);
#962=AXIS2_PLACEMENT_3D('',#1425,#1163,#1164);
#963=AXIS2_PLACEMENT_3D('',#1427,#1165,#1166);
#964=AXIS2_PLACEMENT_3D('',#1430,#1168,#1169);
#965=AXIS2_PLACEMENT_3D('',#1431,#1170,#1171);
#966=AXIS2_PLACEMENT_3D('',#1433,#1172,#1173);
#967=AXIS2_PLACEMENT_3D('',#1436,#1175,#1176);
#968=AXIS2_PLACEMENT_3D('',#1437,#1177,#1178);
#969=AXIS2_PLACEMENT_3D('',#1439,#1179,#1180);
#970=AXIS2_PLACEMENT_3D('',#1442,#1182,#1183);
#971=AXIS2_PLACEMENT_3D('',#1443,#1184,#1185);
#972=AXIS2_PLACEMENT_3D('',#1444,#1186,#1187);
#973=AXIS2_PLACEMENT_3D('',#1445,#1188,#1189);
#974=AXIS2_PLACEMENT_3D('',#1447,#1191,#1192);
#975=AXIS2_PLACEMENT_3D('',#1451,#1194,#1195);
#976=AXIS2_PLACEMENT_3D('',#1455,#1197,#1198);
#977=AXIS2_PLACEMENT_3D('',#1457,#1200,#1201);
#978=AXIS2_PLACEMENT_3D('',#1458,#1202,#1203);
#979=AXIS2_PLACEMENT_3D('',#1459,#1204,#1205);
#980=AXIS2_PLACEMENT_3D('',#1460,#1206,#1207);
#981=AXIS2_PLACEMENT_3D('',#1462,#1208,#1209);
#982=AXIS2_PLACEMENT_3D('',#1464,#1211,#1212);
#983=AXIS2_PLACEMENT_3D('',#1465,#1213,#1214);
#984=AXIS2_PLACEMENT_3D('',#1466,#1215,#1216);
#985=AXIS2_PLACEMENT_3D('',#1470,#1219,#1220);
#986=AXIS2_PLACEMENT_3D('',#1472,#1221,#1222);
#987=AXIS2_PLACEMENT_3D('',#1474,#1224,#1225);
#988=AXIS2_PLACEMENT_3D('',#1475,#1226,#1227);
#989=AXIS2_PLACEMENT_3D('',#1476,#1228,#1229);
#990=AXIS2_PLACEMENT_3D('',#1480,#1232,#1233);
#991=AXIS2_PLACEMENT_3D('',#1486,#1237,#1238);
#992=AXIS2_PLACEMENT_3D('',#1492,#1242,#1243);
#993=AXIS2_PLACEMENT_3D('',#1495,#1246,#1247);
#994=AXIS2_PLACEMENT_3D('',#1496,#1248,#1249);
#995=DIRECTION('axis',(0.,0.,1.));
#996=DIRECTION('refdir',(1.,0.,0.));
#997=DIRECTION('center_axis',(0.,1.,0.));
#998=DIRECTION('ref_axis',(1.,0.,0.));
#999=DIRECTION('center_axis',(0.,1.,0.));
#1000=DIRECTION('ref_axis',(1.,0.,0.));
#1001=DIRECTION('',(0.,1.,0.));
#1002=DIRECTION('center_axis',(0.,-1.,0.));
#1003=DIRECTION('ref_axis',(1.,0.,0.));
#1004=DIRECTION('center_axis',(0.,1.,0.));
#1005=DIRECTION('ref_axis',(1.,0.,0.));
#1006=DIRECTION('center_axis',(0.,1.,0.));
#1007=DIRECTION('ref_axis',(1.,0.,0.));
#1008=DIRECTION('',(0.,1.,0.));
#1009=DIRECTION('center_axis',(0.,-1.,0.));
#1010=DIRECTION('ref_axis',(1.,0.,0.));
#1011=DIRECTION('center_axis',(0.,1.,0.));
#1012=DIRECTION('ref_axis',(1.,0.,0.));
#1013=DIRECTION('center_axis',(0.,1.,0.));
#1014=DIRECTION('ref_axis',(1.,0.,0.));
#1015=DIRECTION('',(0.,1.,0.));
#1016=DIRECTION('center_axis',(0.,-1.,0.));
#1017=DIRECTION('ref_axis',(1.,0.,0.));
#1018=DIRECTION('center_axis',(0.,1.,0.));
#1019=DIRECTION('ref_axis',(1.,0.,0.));
#1020=DIRECTION('center_axis',(0.,1.,0.));
#1021=DIRECTION('ref_axis',(1.,0.,0.));
#1022=DIRECTION('',(0.,1.,0.));
#1023=DIRECTION('center_axis',(0.,-1.,0.));
#1024=DIRECTION('ref_axis',(1.,0.,0.));
#1025=DIRECTION('center_axis',(-1.,0.,0.));
#1026=DIRECTION('ref_axis',(0.,0.,1.));
#1027=DIRECTION('',(0.,0.,-1.));
#1028=DIRECTION('',(0.,1.,0.));
#1029=DIRECTION('',(0.,0.,-1.));
#1030=DIRECTION('',(0.,0.,-1.));
#1031=DIRECTION('',(0.,1.,0.));
#1032=DIRECTION('',(0.,0.,1.));
#1033=DIRECTION('',(0.,1.,0.));
#1034=DIRECTION('center_axis',(0.,1.,0.));
#1035=DIRECTION('ref_axis',(1.,0.,0.));
#1036=DIRECTION('center_axis',(0.,1.,0.));
#1037=DIRECTION('ref_axis',(1.,0.,0.));
#1038=DIRECTION('',(1.,0.,0.));
#1039=DIRECTION('center_axis',(0.,1.,0.));
#1040=DIRECTION('ref_axis',(1.,0.,0.));
#1041=DIRECTION('center_axis',(0.,1.,0.));
#1042=DIRECTION('ref_axis',(1.,0.,0.));
#1043=DIRECTION('',(-1.,0.,0.));
#1044=DIRECTION('',(0.,0.,-1.));
#1045=DIRECTION('',(0.991111329804974,0.,0.133035077826171));
#1046=DIRECTION('',(0.,0.,1.));
#1047=DIRECTION('',(-1.,0.,0.));
#1048=DIRECTION('center_axis',(0.,0.,-1.));
#1049=DIRECTION('ref_axis',(-1.,0.,0.));
#1050=DIRECTION('',(1.,0.,0.));
#1051=DIRECTION('',(-1.,0.,0.));
#1052=DIRECTION('',(0.,1.,0.));
#1053=DIRECTION('',(1.,0.,0.));
#1054=DIRECTION('',(0.,-1.,0.));
#1055=DIRECTION('',(1.,0.,0.));
#1056=DIRECTION('',(0.,1.,0.));
#1057=DIRECTION('',(0.,-1.,0.));
#1058=DIRECTION('center_axis',(0.133035077826171,0.,-0.991111329804974));
#1059=DIRECTION('ref_axis',(-0.991111329804974,0.,-0.133035077826171));
#1060=DIRECTION('',(-0.991111329804974,0.,-0.133035077826171));
#1061=DIRECTION('',(0.,1.,0.));
#1062=DIRECTION('center_axis',(1.,0.,0.));
#1063=DIRECTION('ref_axis',(0.,0.,-1.));
#1064=DIRECTION('',(0.,0.,-1.));
#1065=DIRECTION('',(0.,1.,0.));
#1066=DIRECTION('center_axis',(0.,0.,1.));
#1067=DIRECTION('ref_axis',(1.,0.,0.));
#1068=DIRECTION('',(1.,0.,0.));
#1069=DIRECTION('center_axis',(0.,1.,0.));
#1070=DIRECTION('ref_axis',(0.,0.,1.));
#1071=DIRECTION('center_axis',(0.,-1.,0.));
#1072=DIRECTION('ref_axis',(1.,0.,0.));
#1073=DIRECTION('',(0.,-1.,0.));
#1074=DIRECTION('center_axis',(0.,1.,0.));
#1075=DIRECTION('ref_axis',(1.,0.,0.));
#1076=DIRECTION('center_axis',(0.,-1.,0.));
#1077=DIRECTION('ref_axis',(1.,0.,0.));
#1078=DIRECTION('center_axis',(0.,1.,0.));
#1079=DIRECTION('ref_axis',(1.,0.,0.));
#1080=DIRECTION('center_axis',(0.,1.,0.));
#1081=DIRECTION('ref_axis',(1.,0.,0.));
#1082=DIRECTION('center_axis',(0.,0.,1.));
#1083=DIRECTION('ref_axis',(1.,0.,0.));
#1084=DIRECTION('',(0.,-1.,0.));
#1085=DIRECTION('',(-1.,0.,0.));
#1086=DIRECTION('',(0.,1.,0.));
#1087=DIRECTION('',(-1.,0.,0.));
#1088=DIRECTION('',(0.,1.,0.));
#1089=DIRECTION('',(1.,0.,0.));
#1090=DIRECTION('',(0.,1.,0.));
#1091=DIRECTION('',(-1.,0.,0.));
#1092=DIRECTION('',(0.,1.,0.));
#1093=DIRECTION('',(1.,0.,0.));
#1094=DIRECTION('center_axis',(0.,1.,0.));
#1095=DIRECTION('ref_axis',(1.,0.,0.));
#1096=DIRECTION('center_axis',(0.,1.,0.));
#1097=DIRECTION('ref_axis',(1.,0.,0.));
#1098=DIRECTION('center_axis',(0.,1.,0.));
#1099=DIRECTION('ref_axis',(1.,0.,0.));
#1100=DIRECTION('center_axis',(0.,1.,0.));
#1101=DIRECTION('ref_axis',(1.,0.,0.));
#1102=DIRECTION('',(0.,0.,-1.));
#1103=DIRECTION('',(1.,0.,0.));
#1104=DIRECTION('',(0.,0.,1.));
#1105=DIRECTION('',(-1.,0.,0.));
#1106=DIRECTION('',(0.,0.,-1.));
#1107=DIRECTION('',(0.991111329804974,0.,-0.133035077826171));
#1108=DIRECTION('center_axis',(0.,0.,-1.));
#1109=DIRECTION('ref_axis',(-1.,0.,0.));
#1110=DIRECTION('',(0.,1.,0.));
#1111=DIRECTION('',(-1.,0.,0.));
#1112=DIRECTION('',(0.,1.,0.));
#1113=DIRECTION('center_axis',(1.,0.,0.));
#1114=DIRECTION('ref_axis',(0.,0.,-1.));
#1115=DIRECTION('',(0.,0.,-1.));
#1116=DIRECTION('',(0.,1.,0.));
#1117=DIRECTION('center_axis',(0.133035077826171,0.,0.991111329804974));
#1118=DIRECTION('ref_axis',(0.991111329804974,0.,-0.133035077826171));
#1119=DIRECTION('',(0.991111329804974,0.,-0.133035077826171));
#1120=DIRECTION('center_axis',(-1.,0.,0.));
#1121=DIRECTION('ref_axis',(0.,0.,1.));
#1122=DIRECTION('',(0.,0.,-1.));
#1123=DIRECTION('',(0.,0.,1.));
#1124=DIRECTION('',(0.,0.,-1.));
#1125=DIRECTION('',(0.,-1.,0.));
#1126=DIRECTION('center_axis',(0.,1.,0.));
#1127=DIRECTION('ref_axis',(0.,0.,1.));
#1128=DIRECTION('center_axis',(0.,-1.,0.));
#1129=DIRECTION('ref_axis',(1.,0.,0.));
#1130=DIRECTION('',(0.,-1.,0.));
#1131=DIRECTION('center_axis',(0.,1.,0.));
#1132=DIRECTION('ref_axis',(1.,0.,0.));
#1133=DIRECTION('center_axis',(0.,-1.,0.));
#1134=DIRECTION('ref_axis',(1.,0.,0.));
#1135=DIRECTION('center_axis',(0.,-1.,0.));
#1136=DIRECTION('ref_axis',(1.,0.,0.));
#1137=DIRECTION('center_axis',(0.,-1.,0.));
#1138=DIRECTION('ref_axis',(1.,0.,0.));
#1139=DIRECTION('',(0.,-1.,0.));
#1140=DIRECTION('center_axis',(0.,1.,0.));
#1141=DIRECTION('ref_axis',(1.,0.,0.));
#1142=DIRECTION('center_axis',(0.,-1.,0.));
#1143=DIRECTION('ref_axis',(1.,0.,0.));
#1144=DIRECTION('center_axis',(0.,-1.,0.));
#1145=DIRECTION('ref_axis',(1.,0.,0.));
#1146=DIRECTION('',(0.,-1.,0.));
#1147=DIRECTION('center_axis',(0.,1.,0.));
#1148=DIRECTION('ref_axis',(1.,0.,0.));
#1149=DIRECTION('center_axis',(0.,-1.,0.));
#1150=DIRECTION('ref_axis',(1.,0.,0.));
#1151=DIRECTION('center_axis',(0.,-1.,0.));
#1152=DIRECTION('ref_axis',(1.,0.,0.));
#1153=DIRECTION('',(0.,-1.,0.));
#1154=DIRECTION('center_axis',(0.,1.,0.));
#1155=DIRECTION('ref_axis',(1.,0.,0.));
#1156=DIRECTION('center_axis',(0.,-1.,0.));
#1157=DIRECTION('ref_axis',(1.,0.,0.));
#1158=DIRECTION('center_axis',(0.,-1.,0.));
#1159=DIRECTION('ref_axis',(1.,0.,0.));
#1160=DIRECTION('',(0.,-1.,0.));
#1161=DIRECTION('center_axis',(0.,1.,0.));
#1162=DIRECTION('ref_axis',(1.,0.,0.));
#1163=DIRECTION('center_axis',(0.,-1.,0.));
#1164=DIRECTION('ref_axis',(1.,0.,0.));
#1165=DIRECTION('center_axis',(0.,-1.,0.));
#1166=DIRECTION('ref_axis',(1.,0.,0.));
#1167=DIRECTION('',(0.,-1.,0.));
#1168=DIRECTION('center_axis',(0.,1.,0.));
#1169=DIRECTION('ref_axis',(1.,0.,0.));
#1170=DIRECTION('center_axis',(0.,-1.,0.));
#1171=DIRECTION('ref_axis',(1.,0.,0.));
#1172=DIRECTION('center_axis',(0.,-1.,0.));
#1173=DIRECTION('ref_axis',(1.,0.,0.));
#1174=DIRECTION('',(0.,-1.,0.));
#1175=DIRECTION('center_axis',(0.,1.,0.));
#1176=DIRECTION('ref_axis',(1.,0.,0.));
#1177=DIRECTION('center_axis',(0.,-1.,0.));
#1178=DIRECTION('ref_axis',(1.,0.,0.));
#1179=DIRECTION('center_axis',(0.,-1.,0.));
#1180=DIRECTION('ref_axis',(1.,0.,0.));
#1181=DIRECTION('',(0.,-1.,0.));
#1182=DIRECTION('center_axis',(0.,1.,0.));
#1183=DIRECTION('ref_axis',(1.,0.,0.));
#1184=DIRECTION('center_axis',(0.,1.,0.));
#1185=DIRECTION('ref_axis',(-0.501790707204302,0.,-0.864989067077386));
#1186=DIRECTION('center_axis',(0.,-1.,0.));
#1187=DIRECTION('ref_axis',(1.,0.,0.));
#1188=DIRECTION('center_axis',(0.,-1.,0.));
#1189=DIRECTION('ref_axis',(0.,0.,-1.));
#1190=DIRECTION('',(0.,0.,-1.));
#1191=DIRECTION('center_axis',(0.,-1.,0.));
#1192=DIRECTION('ref_axis',(1.,0.,0.));
#1193=DIRECTION('',(1.,0.,0.));
#1194=DIRECTION('center_axis',(0.,-1.,0.));
#1195=DIRECTION('ref_axis',(1.,0.,0.));
#1196=DIRECTION('',(0.,0.,-1.));
#1197=DIRECTION('center_axis',(0.,-1.,0.));
#1198=DIRECTION('ref_axis',(1.,0.,0.));
#1199=DIRECTION('',(-1.,0.,0.));
#1200=DIRECTION('center_axis',(0.,1.,0.));
#1201=DIRECTION('ref_axis',(-0.501790707204304,0.,0.864989067077384));
#1202=DIRECTION('center_axis',(0.,1.,0.));
#1203=DIRECTION('ref_axis',(1.,0.,0.));
#1204=DIRECTION('center_axis',(0.,1.,0.));
#1205=DIRECTION('ref_axis',(1.,0.,0.));
#1206=DIRECTION('center_axis',(0.,1.,0.));
#1207=DIRECTION('ref_axis',(1.,0.,0.));
#1208=DIRECTION('center_axis',(0.,1.,0.));
#1209=DIRECTION('ref_axis',(1.,0.,0.));
#1210=DIRECTION('',(0.,-1.,0.));
#1211=DIRECTION('center_axis',(0.,-1.,0.));
#1212=DIRECTION('ref_axis',(1.,0.,0.));
#1213=DIRECTION('center_axis',(0.,1.,0.));
#1214=DIRECTION('ref_axis',(1.,0.,0.));
#1215=DIRECTION('center_axis',(0.,-1.,0.));
#1216=DIRECTION('ref_axis',(0.,0.,-1.));
#1217=DIRECTION('',(0.,0.,-1.));
#1218=DIRECTION('',(-1.,0.,0.));
#1219=DIRECTION('center_axis',(0.,1.,0.));
#1220=DIRECTION('ref_axis',(1.,0.,0.));
#1221=DIRECTION('center_axis',(0.,1.,0.));
#1222=DIRECTION('ref_axis',(1.,0.,0.));
#1223=DIRECTION('',(0.,-1.,0.));
#1224=DIRECTION('center_axis',(0.,-1.,0.));
#1225=DIRECTION('ref_axis',(1.,0.,0.));
#1226=DIRECTION('center_axis',(0.,1.,0.));
#1227=DIRECTION('ref_axis',(1.,0.,0.));
#1228=DIRECTION('center_axis',(0.,-1.,0.));
#1229=DIRECTION('ref_axis',(0.,0.,-1.));
#1230=DIRECTION('',(1.,0.,0.));
#1231=DIRECTION('',(0.,0.,-1.));
#1232=DIRECTION('center_axis',(0.,0.,1.));
#1233=DIRECTION('ref_axis',(1.,0.,0.));
#1234=DIRECTION('',(0.,1.,0.));
#1235=DIRECTION('',(0.,-1.,0.));
#1236=DIRECTION('',(1.,0.,0.));
#1237=DIRECTION('center_axis',(0.,0.,1.));
#1238=DIRECTION('ref_axis',(1.,0.,0.));
#1239=DIRECTION('',(0.,-1.,0.));
#1240=DIRECTION('',(-1.,0.,0.));
#1241=DIRECTION('',(0.,1.,0.));
#1242=DIRECTION('center_axis',(0.,1.,0.));
#1243=DIRECTION('ref_axis',(0.,0.,1.));
#1244=DIRECTION('',(0.,0.,-1.));
#1245=DIRECTION('',(0.,0.,-1.));
#1246=DIRECTION('center_axis',(1.,0.,0.));
#1247=DIRECTION('ref_axis',(0.,0.,-1.));
#1248=DIRECTION('center_axis',(-1.,0.,0.));
#1249=DIRECTION('ref_axis',(0.,0.,1.));
#1250=CARTESIAN_POINT('',(0.,0.,0.));
#1251=CARTESIAN_POINT('Origin',(501.,-72.,282.));
#1252=CARTESIAN_POINT('',(498.85,-72.,282.));
#1253=CARTESIAN_POINT('Origin',(501.,-72.,282.));
#1254=CARTESIAN_POINT('',(498.85,-65.5,282.));
#1255=CARTESIAN_POINT('',(498.85,-72.,282.));
#1256=CARTESIAN_POINT('Origin',(501.,-65.5,282.));
#1257=CARTESIAN_POINT('Origin',(510.,-72.,198.));
#1258=CARTESIAN_POINT('',(507.85,-72.,198.));
#1259=CARTESIAN_POINT('Origin',(510.,-72.,198.));
#1260=CARTESIAN_POINT('',(507.85,-65.5,198.));
#1261=CARTESIAN_POINT('',(507.85,-72.,198.));
#1262=CARTESIAN_POINT('Origin',(510.,-65.5,198.));
#1263=CARTESIAN_POINT('Origin',(501.,-72.,198.));
#1264=CARTESIAN_POINT('',(498.85,-72.,198.));
#1265=CARTESIAN_POINT('Origin',(501.,-72.,198.));
#1266=CARTESIAN_POINT('',(498.85,-65.5,198.));
#1267=CARTESIAN_POINT('',(498.85,-72.,198.));
#1268=CARTESIAN_POINT('Origin',(501.,-65.5,198.));
#1269=CARTESIAN_POINT('Origin',(510.,-72.,282.));
#1270=CARTESIAN_POINT('',(507.85,-72.,282.));
#1271=CARTESIAN_POINT('Origin',(510.,-72.,282.));
#1272=CARTESIAN_POINT('',(507.85,-65.5,282.));
#1273=CARTESIAN_POINT('',(507.85,-72.,282.));
#1274=CARTESIAN_POINT('Origin',(510.,-65.5,282.));
#1275=CARTESIAN_POINT('Origin',(462.,-72.,264.));
#1276=CARTESIAN_POINT('',(462.,-68.,268.756327994199));
#1277=CARTESIAN_POINT('',(462.,-68.,264.));
#1278=CARTESIAN_POINT('',(462.,-68.,264.5));
#1279=CARTESIAN_POINT('',(462.,-72.,268.756327994199));
#1280=CARTESIAN_POINT('',(462.,-70.,268.756327994199));
#1281=CARTESIAN_POINT('',(462.,-72.,270.));
#1282=CARTESIAN_POINT('',(462.,-72.,252.));
#1283=CARTESIAN_POINT('',(462.,-72.,288.));
#1284=CARTESIAN_POINT('',(462.,-72.,288.));
#1285=CARTESIAN_POINT('',(462.,-65.5,288.));
#1286=CARTESIAN_POINT('',(462.,-72.,288.));
#1287=CARTESIAN_POINT('',(462.,-65.5,264.));
#1288=CARTESIAN_POINT('',(462.,-65.5,288.));
#1289=CARTESIAN_POINT('',(462.,-72.,264.));
#1290=CARTESIAN_POINT('Origin',(488.5,-72.,276.));
#1291=CARTESIAN_POINT('',(463.925227291513,-72.,264.));
#1292=CARTESIAN_POINT('',(463.6,-72.,265.));
#1293=CARTESIAN_POINT('Origin',(465.3,-72.,265.));
#1294=CARTESIAN_POINT('',(466.674772708487,-72.,264.));
#1295=CARTESIAN_POINT('',(462.,-72.,264.));
#1296=CARTESIAN_POINT('Origin',(465.3,-72.,265.));
#1297=CARTESIAN_POINT('Origin',(488.5,-72.,276.));
#1298=CARTESIAN_POINT('',(470.3,-72.,270.));
#1299=CARTESIAN_POINT('',(440.3,-72.,270.));
#1300=CARTESIAN_POINT('',(470.3,-72.,264.));
#1301=CARTESIAN_POINT('',(470.3,-72.,240.));
#1302=CARTESIAN_POINT('',(515.,-72.,270.));
#1303=CARTESIAN_POINT('',(470.3,-72.,264.));
#1304=CARTESIAN_POINT('',(515.,-72.,288.));
#1305=CARTESIAN_POINT('',(515.,-72.,270.));
#1306=CARTESIAN_POINT('',(515.,-72.,288.));
#1307=CARTESIAN_POINT('Origin',(470.3,-72.,264.));
#1308=CARTESIAN_POINT('',(463.925227291513,-68.,264.));
#1309=CARTESIAN_POINT('',(467.8,-68.,264.));
#1310=CARTESIAN_POINT('',(470.3,-65.5,264.));
#1311=CARTESIAN_POINT('',(462.,-65.5,264.));
#1312=CARTESIAN_POINT('',(470.3,-72.,264.));
#1313=CARTESIAN_POINT('',(470.198979485566,-72.,264.));
#1314=CARTESIAN_POINT('',(455.3,-72.,264.));
#1315=CARTESIAN_POINT('',(470.198979485566,-68.,264.));
#1316=CARTESIAN_POINT('',(470.198979485566,-70.,264.));
#1317=CARTESIAN_POINT('',(466.674772708487,-68.,264.));
#1318=CARTESIAN_POINT('',(467.8,-68.,264.));
#1319=CARTESIAN_POINT('',(466.674772708487,-74.,264.));
#1320=CARTESIAN_POINT('',(463.925227291513,-74.,264.));
#1321=CARTESIAN_POINT('Origin',(515.,-72.,270.));
#1322=CARTESIAN_POINT('',(515.,-65.5,270.));
#1323=CARTESIAN_POINT('',(470.3,-65.5,264.));
#1324=CARTESIAN_POINT('',(515.,-72.,270.));
#1325=CARTESIAN_POINT('Origin',(515.,-72.,288.));
#1326=CARTESIAN_POINT('',(515.,-65.5,288.));
#1327=CARTESIAN_POINT('',(515.,-65.5,270.));
#1328=CARTESIAN_POINT('',(515.,-72.,288.));
#1329=CARTESIAN_POINT('Origin',(462.,-72.,288.));
#1330=CARTESIAN_POINT('',(515.,-65.5,288.));
#1331=CARTESIAN_POINT('Origin',(488.5,-65.5,276.));
#1332=CARTESIAN_POINT('Origin',(465.3,-74.,265.));
#1333=CARTESIAN_POINT('',(463.6,-76.,265.));
#1334=CARTESIAN_POINT('',(463.6,-74.,265.));
#1335=CARTESIAN_POINT('Origin',(465.3,-76.,265.));
#1336=CARTESIAN_POINT('Origin',(465.3,-68.,265.));
#1337=CARTESIAN_POINT('Origin',(465.3,-68.,265.));
#1338=CARTESIAN_POINT('Origin',(465.3,-68.,265.));
#1339=CARTESIAN_POINT('Origin',(462.,-72.,216.));
#1340=CARTESIAN_POINT('',(466.674772708487,-68.,216.));
#1341=CARTESIAN_POINT('',(466.674772708487,-72.,216.));
#1342=CARTESIAN_POINT('',(466.674772708487,-74.,216.));
#1343=CARTESIAN_POINT('',(470.198979485566,-68.,216.));
#1344=CARTESIAN_POINT('',(463.65,-68.,216.));
#1345=CARTESIAN_POINT('',(470.198979485566,-72.,216.));
#1346=CARTESIAN_POINT('',(470.198979485566,-70.,216.));
#1347=CARTESIAN_POINT('',(470.3,-72.,216.));
#1348=CARTESIAN_POINT('',(451.15,-72.,216.));
#1349=CARTESIAN_POINT('',(470.3,-65.5,216.));
#1350=CARTESIAN_POINT('',(470.3,-72.,216.));
#1351=CARTESIAN_POINT('',(462.,-65.5,216.));
#1352=CARTESIAN_POINT('',(462.,-65.5,216.));
#1353=CARTESIAN_POINT('',(462.,-68.,216.));
#1354=CARTESIAN_POINT('',(462.,-72.,216.));
#1355=CARTESIAN_POINT('',(463.925227291513,-68.,216.));
#1356=CARTESIAN_POINT('',(463.65,-68.,216.));
#1357=CARTESIAN_POINT('',(463.925227291513,-72.,216.));
#1358=CARTESIAN_POINT('',(463.925227291513,-74.,216.));
#1359=CARTESIAN_POINT('',(462.,-72.,216.));
#1360=CARTESIAN_POINT('Origin',(488.5,-72.,204.));
#1361=CARTESIAN_POINT('',(463.6,-72.,215.));
#1362=CARTESIAN_POINT('Origin',(465.3,-72.,215.));
#1363=CARTESIAN_POINT('Origin',(465.3,-72.,215.));
#1364=CARTESIAN_POINT('Origin',(488.5,-72.,204.));
#1365=CARTESIAN_POINT('',(470.3,-72.,210.));
#1366=CARTESIAN_POINT('',(470.3,-72.,240.));
#1367=CARTESIAN_POINT('',(462.,-72.,210.));
#1368=CARTESIAN_POINT('',(440.3,-72.,210.));
#1369=CARTESIAN_POINT('',(462.,-72.,192.));
#1370=CARTESIAN_POINT('',(462.,-72.,192.));
#1371=CARTESIAN_POINT('',(515.,-72.,192.));
#1372=CARTESIAN_POINT('',(515.,-72.,192.));
#1373=CARTESIAN_POINT('',(515.,-72.,210.));
#1374=CARTESIAN_POINT('',(515.,-72.,210.));
#1375=CARTESIAN_POINT('',(470.3,-72.,216.));
#1376=CARTESIAN_POINT('Origin',(515.,-72.,192.));
#1377=CARTESIAN_POINT('',(462.,-65.5,192.));
#1378=CARTESIAN_POINT('',(462.,-72.,192.));
#1379=CARTESIAN_POINT('',(515.,-65.5,192.));
#1380=CARTESIAN_POINT('',(515.,-65.5,192.));
#1381=CARTESIAN_POINT('',(515.,-72.,192.));
#1382=CARTESIAN_POINT('Origin',(515.,-72.,210.));
#1383=CARTESIAN_POINT('',(515.,-65.5,210.));
#1384=CARTESIAN_POINT('',(515.,-65.5,210.));
#1385=CARTESIAN_POINT('',(515.,-72.,210.));
#1386=CARTESIAN_POINT('Origin',(470.3,-72.,216.));
#1387=CARTESIAN_POINT('',(470.3,-65.5,216.));
#1388=CARTESIAN_POINT('Origin',(462.,-72.,192.));
#1389=CARTESIAN_POINT('',(462.,-68.,211.243672005801));
#1390=CARTESIAN_POINT('',(462.,-68.,203.5));
#1391=CARTESIAN_POINT('',(462.,-65.5,192.));
#1392=CARTESIAN_POINT('',(462.,-72.,211.243672005801));
#1393=CARTESIAN_POINT('',(462.,-72.,216.));
#1394=CARTESIAN_POINT('',(462.,-70.,211.243672005801));
#1395=CARTESIAN_POINT('Origin',(488.5,-65.5,204.));
#1396=CARTESIAN_POINT('Origin',(465.3,-74.,215.));
#1397=CARTESIAN_POINT('',(463.6,-76.,215.));
#1398=CARTESIAN_POINT('',(463.6,-74.,215.));
#1399=CARTESIAN_POINT('Origin',(465.3,-76.,215.));
#1400=CARTESIAN_POINT('Origin',(465.3,-68.,215.));
#1401=CARTESIAN_POINT('Origin',(415.3,-74.,265.));
#1402=CARTESIAN_POINT('',(413.6,-68.,265.));
#1403=CARTESIAN_POINT('Origin',(415.3,-68.,265.));
#1404=CARTESIAN_POINT('',(413.6,-76.,265.));
#1405=CARTESIAN_POINT('',(413.6,-74.,265.));
#1406=CARTESIAN_POINT('Origin',(415.3,-76.,265.));
#1407=CARTESIAN_POINT('Origin',(415.3,-74.,215.));
#1408=CARTESIAN_POINT('',(413.6,-68.,215.));
#1409=CARTESIAN_POINT('Origin',(415.3,-68.,215.));
#1410=CARTESIAN_POINT('',(413.6,-76.,215.));
#1411=CARTESIAN_POINT('',(413.6,-74.,215.));
#1412=CARTESIAN_POINT('Origin',(415.3,-76.,215.));
#1413=CARTESIAN_POINT('Origin',(455.8,-73.,255.5));
#1414=CARTESIAN_POINT('',(454.1,-72.,255.5));
#1415=CARTESIAN_POINT('Origin',(455.8,-72.,255.5));
#1416=CARTESIAN_POINT('',(454.1,-76.,255.5));
#1417=CARTESIAN_POINT('',(454.1,-73.,255.5));
#1418=CARTESIAN_POINT('Origin',(455.8,-76.,255.5));
#1419=CARTESIAN_POINT('Origin',(455.8,-73.,224.5));
#1420=CARTESIAN_POINT('',(454.1,-72.,224.5));
#1421=CARTESIAN_POINT('Origin',(455.8,-72.,224.5));
#1422=CARTESIAN_POINT('',(454.1,-76.,224.5));
#1423=CARTESIAN_POINT('',(454.1,-73.,224.5));
#1424=CARTESIAN_POINT('Origin',(455.8,-76.,224.5));
#1425=CARTESIAN_POINT('Origin',(424.8,-73.,255.5));
#1426=CARTESIAN_POINT('',(423.1,-72.,255.5));
#1427=CARTESIAN_POINT('Origin',(424.8,-72.,255.5));
#1428=CARTESIAN_POINT('',(423.1,-76.,255.5));
#1429=CARTESIAN_POINT('',(423.1,-73.,255.5));
#1430=CARTESIAN_POINT('Origin',(424.8,-76.,255.5));
#1431=CARTESIAN_POINT('Origin',(424.8,-73.,224.5));
#1432=CARTESIAN_POINT('',(423.1,-72.,224.5));
#1433=CARTESIAN_POINT('Origin',(424.8,-72.,224.5));
#1434=CARTESIAN_POINT('',(423.1,-76.,224.5));
#1435=CARTESIAN_POINT('',(423.1,-73.,224.5));
#1436=CARTESIAN_POINT('Origin',(424.8,-76.,224.5));
#1437=CARTESIAN_POINT('Origin',(440.3,-73.,240.));
#1438=CARTESIAN_POINT('',(429.1,-72.,240.));
#1439=CARTESIAN_POINT('Origin',(440.3,-72.,240.));
#1440=CARTESIAN_POINT('',(429.1,-76.,240.));
#1441=CARTESIAN_POINT('',(429.1,-73.,240.));
#1442=CARTESIAN_POINT('Origin',(440.3,-76.,240.));
#1443=CARTESIAN_POINT('Origin',(465.3,-70.,265.));
#1444=CARTESIAN_POINT('Origin',(465.3,-72.,265.));
#1445=CARTESIAN_POINT('Origin',(440.3,-72.,240.));
#1446=CARTESIAN_POINT('',(470.3,-72.,240.));
#1447=CARTESIAN_POINT('Origin',(465.3,-72.,215.));
#1448=CARTESIAN_POINT('',(415.3,-72.,210.));
#1449=CARTESIAN_POINT('',(440.3,-72.,210.));
#1450=CARTESIAN_POINT('',(410.3,-72.,215.));
#1451=CARTESIAN_POINT('Origin',(415.3,-72.,215.));
#1452=CARTESIAN_POINT('',(410.3,-72.,265.));
#1453=CARTESIAN_POINT('',(410.3,-72.,240.));
#1454=CARTESIAN_POINT('',(415.3,-72.,270.));
#1455=CARTESIAN_POINT('Origin',(415.3,-72.,265.));
#1456=CARTESIAN_POINT('',(440.3,-72.,270.));
#1457=CARTESIAN_POINT('Origin',(465.3,-70.,215.));
#1458=CARTESIAN_POINT('Origin',(465.3,-68.,215.));
#1459=CARTESIAN_POINT('Origin',(465.3,-68.,215.));
#1460=CARTESIAN_POINT('Origin',(415.3,-70.,265.));
#1461=CARTESIAN_POINT('',(410.3,-68.,265.));
#1462=CARTESIAN_POINT('Origin',(415.3,-68.,265.));
#1463=CARTESIAN_POINT('',(410.3,-70.,265.));
#1464=CARTESIAN_POINT('Origin',(415.3,-72.,265.));
#1465=CARTESIAN_POINT('Origin',(415.3,-68.,265.));
#1466=CARTESIAN_POINT('Origin',(440.3,-72.,240.));
#1467=CARTESIAN_POINT('',(410.3,-72.,270.));
#1468=CARTESIAN_POINT('',(410.3,-72.,240.));
#1469=CARTESIAN_POINT('',(440.3,-72.,270.));
#1470=CARTESIAN_POINT('Origin',(415.3,-70.,215.));
#1471=CARTESIAN_POINT('',(410.3,-68.,215.));
#1472=CARTESIAN_POINT('Origin',(415.3,-68.,215.));
#1473=CARTESIAN_POINT('',(410.3,-70.,215.));
#1474=CARTESIAN_POINT('Origin',(415.3,-72.,215.));
#1475=CARTESIAN_POINT('Origin',(415.3,-68.,215.));
#1476=CARTESIAN_POINT('Origin',(440.3,-72.,240.));
#1477=CARTESIAN_POINT('',(410.3,-72.,210.));
#1478=CARTESIAN_POINT('',(440.3,-72.,210.));
#1479=CARTESIAN_POINT('',(410.3,-72.,240.));
#1480=CARTESIAN_POINT('Origin',(440.3,-74.,270.));
#1481=CARTESIAN_POINT('',(470.3,-76.,270.));
#1482=CARTESIAN_POINT('',(470.3,-74.,270.));
#1483=CARTESIAN_POINT('',(410.3,-76.,270.));
#1484=CARTESIAN_POINT('',(410.3,-74.,270.));
#1485=CARTESIAN_POINT('',(440.3,-76.,270.));
#1486=CARTESIAN_POINT('Origin',(440.3,-74.,210.));
#1487=CARTESIAN_POINT('',(470.3,-76.,210.));
#1488=CARTESIAN_POINT('',(470.3,-74.,210.));
#1489=CARTESIAN_POINT('',(410.3,-76.,210.));
#1490=CARTESIAN_POINT('',(440.3,-76.,210.));
#1491=CARTESIAN_POINT('',(410.3,-74.,210.));
#1492=CARTESIAN_POINT('Origin',(440.3,-76.,240.));
#1493=CARTESIAN_POINT('',(410.3,-76.,240.));
#1494=CARTESIAN_POINT('',(470.3,-76.,240.));
#1495=CARTESIAN_POINT('Origin',(410.3,-74.,240.));
#1496=CARTESIAN_POINT('Origin',(470.3,-74.,240.));
#1497=UNCERTAINTY_MEASURE_WITH_UNIT(LENGTH_MEASURE(0.01),#1501,
'DISTANCE_ACCURACY_VALUE',
'Maximum model space distance between geometric entities at asserted c
onnectivities');
#1498=UNCERTAINTY_MEASURE_WITH_UNIT(LENGTH_MEASURE(0.01),#1501,
'DISTANCE_ACCURACY_VALUE',
'Maximum model space distance between geometric entities at asserted c
onnectivities');
#1499=(
GEOMETRIC_REPRESENTATION_CONTEXT(3)
GLOBAL_UNCERTAINTY_ASSIGNED_CONTEXT((#1497))
GLOBAL_UNIT_ASSIGNED_CONTEXT((#1501,#1503,#1504))
REPRESENTATION_CONTEXT('','3D')
);
#1500=(
GEOMETRIC_REPRESENTATION_CONTEXT(3)
GLOBAL_UNCERTAINTY_ASSIGNED_CONTEXT((#1498))
GLOBAL_UNIT_ASSIGNED_CONTEXT((#1501,#1503,#1504))
REPRESENTATION_CONTEXT('','3D')
);
#1501=(
LENGTH_UNIT()
NAMED_UNIT(*)
SI_UNIT(.MILLI.,.METRE.)
);
#1502=(
LENGTH_UNIT()
NAMED_UNIT(*)
SI_UNIT($,.METRE.)
);
#1503=(
NAMED_UNIT(*)
PLANE_ANGLE_UNIT()
SI_UNIT($,.RADIAN.)
);
#1504=(
NAMED_UNIT(*)
SI_UNIT($,.STERADIAN.)
SOLID_ANGLE_UNIT()
);
#1505=SHAPE_DEFINITION_REPRESENTATION(#1506,#1507);
#1506=PRODUCT_DEFINITION_SHAPE('',$,#1509);
#1507=SHAPE_REPRESENTATION('',(#909),#1499);
#1508=PRODUCT_DEFINITION_CONTEXT('part definition',#1513,'design');
#1509=PRODUCT_DEFINITION('2026-09-09-16-32-14-834','TMP_V034_EXPORT',#1510,
#1508);
#1510=PRODUCT_DEFINITION_FORMATION('',$,#1515);
#1511=PRODUCT_RELATED_PRODUCT_CATEGORY('TMP_V034_EXPORT',
'TMP_V034_EXPORT',(#1515));
#1512=APPLICATION_PROTOCOL_DEFINITION('international standard',
'automotive_design',2009,#1513);
#1513=APPLICATION_CONTEXT(
'Core Data for Automotive Mechanical Design Process');
#1514=PRODUCT_CONTEXT('part definition',#1513,'mechanical');
#1515=PRODUCT('2026-09-09-16-32-14-834','TMP_V034_EXPORT',$,(#1514));
#1516=PRESENTATION_STYLE_ASSIGNMENT((#1517));
#1517=SURFACE_STYLE_USAGE(.BOTH.,#1518);
#1518=SURFACE_SIDE_STYLE('',(#1519));
#1519=SURFACE_STYLE_FILL_AREA(#1520);
#1520=FILL_AREA_STYLE('Steel - Satin',(#1521));
#1521=FILL_AREA_STYLE_COLOUR('Steel - Satin',#1522);
#1522=COLOUR_RGB('Steel - Satin',0.627450980392157,0.627450980392157,0.627450980392157);
ENDSEC;
END-ISO-10303-21;
