ISO-10303-21;
HEADER;
/* Generated by software containing ST-Developer
 * from STEP Tools, Inc. (www.steptools.com) 
 */

FILE_DESCRIPTION(
/* description */ (''),
/* implementation_level */ '2;1');

FILE_NAME(
/* name */ 'PRINT_V009C_P602_J6_RearBearingRetainer_CSK.step',
/* time_stamp */ '2026-08-12T23:10:13+02:00',
/* author */ (''),
/* organization */ (''),
/* preprocessor_version */ 'ST-DEVELOPER v20.1',
/* originating_system */ 'Autodesk Translation Framework v15.8.0.0',
/* authorisation */ '');

FILE_SCHEMA (('AUTOMOTIVE_DESIGN { 1 0 10303 214 3 1 1 }'));
ENDSEC;

DATA;
#10=MECHANICAL_DESIGN_GEOMETRIC_PRESENTATION_REPRESENTATION('',(#13),#445);
#11=SHAPE_REPRESENTATION_RELATIONSHIP('SRR','None',#452,#12);
#12=ADVANCED_BREP_SHAPE_REPRESENTATION('',(#14),#444);
#13=STYLED_ITEM('',(#461),#14);
#14=MANIFOLD_SOLID_BREP('PRINT_V009C_P602_J6_RearBearingRetainer_CSK',#241);
#15=CYLINDRICAL_SURFACE('',#272,1.7);
#16=CYLINDRICAL_SURFACE('',#276,1.7);
#17=CYLINDRICAL_SURFACE('',#280,1.7);
#18=CYLINDRICAL_SURFACE('',#284,1.7);
#19=CYLINDRICAL_SURFACE('',#286,7.4);
#20=CYLINDRICAL_SURFACE('',#288,15.);
#21=FACE_BOUND('',#43,.T.);
#22=FACE_BOUND('',#54,.T.);
#23=FACE_BOUND('',#55,.T.);
#24=FACE_BOUND('',#56,.T.);
#25=FACE_BOUND('',#57,.T.);
#26=FACE_BOUND('',#58,.T.);
#27=PLANE('',#259);
#28=PLANE('',#290);
#29=FACE_OUTER_BOUND('',#41,.T.);
#30=FACE_OUTER_BOUND('',#42,.T.);
#31=FACE_OUTER_BOUND('',#44,.T.);
#32=FACE_OUTER_BOUND('',#45,.T.);
#33=FACE_OUTER_BOUND('',#46,.T.);
#34=FACE_OUTER_BOUND('',#47,.T.);
#35=FACE_OUTER_BOUND('',#48,.T.);
#36=FACE_OUTER_BOUND('',#49,.T.);
#37=FACE_OUTER_BOUND('',#50,.T.);
#38=FACE_OUTER_BOUND('',#51,.T.);
#39=FACE_OUTER_BOUND('',#52,.T.);
#40=FACE_OUTER_BOUND('',#53,.T.);
#41=EDGE_LOOP('',(#157,#158,#159,#160,#161));
#42=EDGE_LOOP('',(#162,#163,#164,#165,#166,#167,#168,#169,#170,#171,#172,
#173,#174));
#43=EDGE_LOOP('',(#175));
#44=EDGE_LOOP('',(#176,#177,#178,#179));
#45=EDGE_LOOP('',(#180,#181,#182,#183,#184));
#46=EDGE_LOOP('',(#185,#186,#187,#188));
#47=EDGE_LOOP('',(#189,#190,#191,#192,#193));
#48=EDGE_LOOP('',(#194,#195,#196,#197));
#49=EDGE_LOOP('',(#198,#199,#200,#201,#202));
#50=EDGE_LOOP('',(#203,#204,#205,#206));
#51=EDGE_LOOP('',(#207,#208,#209,#210));
#52=EDGE_LOOP('',(#211,#212,#213,#214,#215,#216,#217,#218));
#53=EDGE_LOOP('',(#219));
#54=EDGE_LOOP('',(#220));
#55=EDGE_LOOP('',(#221));
#56=EDGE_LOOP('',(#222));
#57=EDGE_LOOP('',(#223));
#58=EDGE_LOOP('',(#224));
#59=LINE('',#382,#69);
#60=LINE('',#407,#70);
#61=LINE('',#411,#71);
#62=LINE('',#415,#72);
#63=LINE('',#419,#73);
#64=LINE('',#423,#74);
#65=LINE('',#427,#75);
#66=LINE('',#431,#76);
#67=LINE('',#435,#77);
#68=LINE('',#440,#78);
#69=VECTOR('',#299,2.35);
#70=VECTOR('',#330,1.7);
#71=VECTOR('',#335,2.35);
#72=VECTOR('',#340,1.7);
#73=VECTOR('',#345,2.35);
#74=VECTOR('',#350,1.7);
#75=VECTOR('',#355,2.35);
#76=VECTOR('',#360,1.7);
#77=VECTOR('',#365,7.4);
#78=VECTOR('',#372,15.);
#79=CIRCLE('',#256,3.00000000000003);
#80=CIRCLE('',#257,3.00000000000003);
#81=CIRCLE('',#258,1.7);
#82=CIRCLE('',#260,15.);
#83=CIRCLE('',#261,15.);
#84=CIRCLE('',#262,3.00000000000003);
#85=CIRCLE('',#263,3.00000000000003);
#86=CIRCLE('',#264,15.);
#87=CIRCLE('',#265,3.00000000000003);
#88=CIRCLE('',#266,3.00000000000003);
#89=CIRCLE('',#267,15.);
#90=CIRCLE('',#268,15.);
#91=CIRCLE('',#269,3.00000000000003);
#92=CIRCLE('',#270,3.00000000000003);
#93=CIRCLE('',#271,7.4);
#94=CIRCLE('',#273,1.7);
#95=CIRCLE('',#275,1.7);
#96=CIRCLE('',#277,1.7);
#97=CIRCLE('',#279,1.7);
#98=CIRCLE('',#281,1.7);
#99=CIRCLE('',#283,1.7);
#100=CIRCLE('',#285,1.7);
#101=CIRCLE('',#287,7.4);
#102=CIRCLE('',#289,15.);
#103=VERTEX_POINT('',#377);
#104=VERTEX_POINT('',#378);
#105=VERTEX_POINT('',#381);
#106=VERTEX_POINT('',#385);
#107=VERTEX_POINT('',#387);
#108=VERTEX_POINT('',#389);
#109=VERTEX_POINT('',#392);
#110=VERTEX_POINT('',#394);
#111=VERTEX_POINT('',#397);
#112=VERTEX_POINT('',#400);
#113=VERTEX_POINT('',#403);
#114=VERTEX_POINT('',#406);
#115=VERTEX_POINT('',#410);
#116=VERTEX_POINT('',#414);
#117=VERTEX_POINT('',#418);
#118=VERTEX_POINT('',#422);
#119=VERTEX_POINT('',#426);
#120=VERTEX_POINT('',#430);
#121=VERTEX_POINT('',#434);
#122=VERTEX_POINT('',#438);
#123=EDGE_CURVE('',#103,#104,#79,.T.);
#124=EDGE_CURVE('',#104,#103,#80,.T.);
#125=EDGE_CURVE('',#104,#105,#59,.T.);
#126=EDGE_CURVE('',#105,#105,#81,.T.);
#127=EDGE_CURVE('',#106,#103,#82,.T.);
#128=EDGE_CURVE('',#103,#107,#83,.T.);
#129=EDGE_CURVE('',#107,#108,#84,.T.);
#130=EDGE_CURVE('',#108,#107,#85,.T.);
#131=EDGE_CURVE('',#107,#109,#86,.T.);
#132=EDGE_CURVE('',#109,#110,#87,.T.);
#133=EDGE_CURVE('',#110,#109,#88,.T.);
#134=EDGE_CURVE('',#109,#111,#89,.T.);
#135=EDGE_CURVE('',#111,#106,#90,.T.);
#136=EDGE_CURVE('',#106,#112,#91,.T.);
#137=EDGE_CURVE('',#112,#106,#92,.T.);
#138=EDGE_CURVE('',#113,#113,#93,.T.);
#139=EDGE_CURVE('',#105,#114,#60,.T.);
#140=EDGE_CURVE('',#114,#114,#94,.T.);
#141=EDGE_CURVE('',#108,#115,#61,.T.);
#142=EDGE_CURVE('',#115,#115,#95,.T.);
#143=EDGE_CURVE('',#115,#116,#62,.T.);
#144=EDGE_CURVE('',#116,#116,#96,.T.);
#145=EDGE_CURVE('',#110,#117,#63,.T.);
#146=EDGE_CURVE('',#117,#117,#97,.T.);
#147=EDGE_CURVE('',#117,#118,#64,.T.);
#148=EDGE_CURVE('',#118,#118,#98,.T.);
#149=EDGE_CURVE('',#112,#119,#65,.T.);
#150=EDGE_CURVE('',#119,#119,#99,.T.);
#151=EDGE_CURVE('',#119,#120,#66,.T.);
#152=EDGE_CURVE('',#120,#120,#100,.T.);
#153=EDGE_CURVE('',#113,#121,#67,.T.);
#154=EDGE_CURVE('',#121,#121,#101,.T.);
#155=EDGE_CURVE('',#122,#122,#102,.T.);
#156=EDGE_CURVE('',#122,#111,#68,.T.);
#157=ORIENTED_EDGE('',*,*,#123,.F.);
#158=ORIENTED_EDGE('',*,*,#124,.F.);
#159=ORIENTED_EDGE('',*,*,#125,.T.);
#160=ORIENTED_EDGE('',*,*,#126,.F.);
#161=ORIENTED_EDGE('',*,*,#125,.F.);
#162=ORIENTED_EDGE('',*,*,#127,.T.);
#163=ORIENTED_EDGE('',*,*,#123,.T.);
#164=ORIENTED_EDGE('',*,*,#124,.T.);
#165=ORIENTED_EDGE('',*,*,#128,.T.);
#166=ORIENTED_EDGE('',*,*,#129,.T.);
#167=ORIENTED_EDGE('',*,*,#130,.T.);
#168=ORIENTED_EDGE('',*,*,#131,.T.);
#169=ORIENTED_EDGE('',*,*,#132,.T.);
#170=ORIENTED_EDGE('',*,*,#133,.T.);
#171=ORIENTED_EDGE('',*,*,#134,.T.);
#172=ORIENTED_EDGE('',*,*,#135,.T.);
#173=ORIENTED_EDGE('',*,*,#136,.T.);
#174=ORIENTED_EDGE('',*,*,#137,.T.);
#175=ORIENTED_EDGE('',*,*,#138,.T.);
#176=ORIENTED_EDGE('',*,*,#126,.T.);
#177=ORIENTED_EDGE('',*,*,#139,.T.);
#178=ORIENTED_EDGE('',*,*,#140,.F.);
#179=ORIENTED_EDGE('',*,*,#139,.F.);
#180=ORIENTED_EDGE('',*,*,#129,.F.);
#181=ORIENTED_EDGE('',*,*,#130,.F.);
#182=ORIENTED_EDGE('',*,*,#141,.T.);
#183=ORIENTED_EDGE('',*,*,#142,.F.);
#184=ORIENTED_EDGE('',*,*,#141,.F.);
#185=ORIENTED_EDGE('',*,*,#142,.T.);
#186=ORIENTED_EDGE('',*,*,#143,.T.);
#187=ORIENTED_EDGE('',*,*,#144,.F.);
#188=ORIENTED_EDGE('',*,*,#143,.F.);
#189=ORIENTED_EDGE('',*,*,#132,.F.);
#190=ORIENTED_EDGE('',*,*,#133,.F.);
#191=ORIENTED_EDGE('',*,*,#145,.T.);
#192=ORIENTED_EDGE('',*,*,#146,.F.);
#193=ORIENTED_EDGE('',*,*,#145,.F.);
#194=ORIENTED_EDGE('',*,*,#146,.T.);
#195=ORIENTED_EDGE('',*,*,#147,.T.);
#196=ORIENTED_EDGE('',*,*,#148,.F.);
#197=ORIENTED_EDGE('',*,*,#147,.F.);
#198=ORIENTED_EDGE('',*,*,#136,.F.);
#199=ORIENTED_EDGE('',*,*,#137,.F.);
#200=ORIENTED_EDGE('',*,*,#149,.T.);
#201=ORIENTED_EDGE('',*,*,#150,.F.);
#202=ORIENTED_EDGE('',*,*,#149,.F.);
#203=ORIENTED_EDGE('',*,*,#150,.T.);
#204=ORIENTED_EDGE('',*,*,#151,.T.);
#205=ORIENTED_EDGE('',*,*,#152,.F.);
#206=ORIENTED_EDGE('',*,*,#151,.F.);
#207=ORIENTED_EDGE('',*,*,#138,.F.);
#208=ORIENTED_EDGE('',*,*,#153,.T.);
#209=ORIENTED_EDGE('',*,*,#154,.F.);
#210=ORIENTED_EDGE('',*,*,#153,.F.);
#211=ORIENTED_EDGE('',*,*,#155,.F.);
#212=ORIENTED_EDGE('',*,*,#156,.T.);
#213=ORIENTED_EDGE('',*,*,#134,.F.);
#214=ORIENTED_EDGE('',*,*,#131,.F.);
#215=ORIENTED_EDGE('',*,*,#128,.F.);
#216=ORIENTED_EDGE('',*,*,#127,.F.);
#217=ORIENTED_EDGE('',*,*,#135,.F.);
#218=ORIENTED_EDGE('',*,*,#156,.F.);
#219=ORIENTED_EDGE('',*,*,#155,.T.);
#220=ORIENTED_EDGE('',*,*,#140,.T.);
#221=ORIENTED_EDGE('',*,*,#144,.T.);
#222=ORIENTED_EDGE('',*,*,#148,.T.);
#223=ORIENTED_EDGE('',*,*,#152,.T.);
#224=ORIENTED_EDGE('',*,*,#154,.T.);
#225=CONICAL_SURFACE('',#255,2.35,0.714090698612163);
#226=CONICAL_SURFACE('',#274,2.35,0.714090698612163);
#227=CONICAL_SURFACE('',#278,2.35,0.714090698612163);
#228=CONICAL_SURFACE('',#282,2.35,0.714090698612163);
#229=ADVANCED_FACE('',(#29),#225,.F.);
#230=ADVANCED_FACE('',(#30,#21),#27,.T.);
#231=ADVANCED_FACE('',(#31),#15,.F.);
#232=ADVANCED_FACE('',(#32),#226,.F.);
#233=ADVANCED_FACE('',(#33),#16,.F.);
#234=ADVANCED_FACE('',(#34),#227,.F.);
#235=ADVANCED_FACE('',(#35),#17,.F.);
#236=ADVANCED_FACE('',(#36),#228,.F.);
#237=ADVANCED_FACE('',(#37),#18,.F.);
#238=ADVANCED_FACE('',(#38),#19,.F.);
#239=ADVANCED_FACE('',(#39),#20,.T.);
#240=ADVANCED_FACE('',(#40,#22,#23,#24,#25,#26),#28,.T.);
#241=CLOSED_SHELL('',(#229,#230,#231,#232,#233,#234,#235,#236,#237,#238,
#239,#240));
#242=DERIVED_UNIT_ELEMENT(#244,1.);
#243=DERIVED_UNIT_ELEMENT(#447,-3.);
#244=(
MASS_UNIT()
NAMED_UNIT(*)
SI_UNIT(.KILO.,.GRAM.)
);
#245=DERIVED_UNIT((#242,#243));
#246=MEASURE_REPRESENTATION_ITEM('density measure',
POSITIVE_RATIO_MEASURE(7850.),#245);
#247=PROPERTY_DEFINITION_REPRESENTATION(#252,#249);
#248=PROPERTY_DEFINITION_REPRESENTATION(#253,#250);
#249=REPRESENTATION('material name',(#251),#444);
#250=REPRESENTATION('density',(#246),#444);
#251=DESCRIPTIVE_REPRESENTATION_ITEM('Steel','Steel');
#252=PROPERTY_DEFINITION('material property','material name',#454);
#253=PROPERTY_DEFINITION('material property','density of part',#454);
#254=AXIS2_PLACEMENT_3D('',#375,#291,#292);
#255=AXIS2_PLACEMENT_3D('',#376,#293,#294);
#256=AXIS2_PLACEMENT_3D('',#379,#295,#296);
#257=AXIS2_PLACEMENT_3D('',#380,#297,#298);
#258=AXIS2_PLACEMENT_3D('',#383,#300,#301);
#259=AXIS2_PLACEMENT_3D('',#384,#302,#303);
#260=AXIS2_PLACEMENT_3D('',#386,#304,#305);
#261=AXIS2_PLACEMENT_3D('',#388,#306,#307);
#262=AXIS2_PLACEMENT_3D('',#390,#308,#309);
#263=AXIS2_PLACEMENT_3D('',#391,#310,#311);
#264=AXIS2_PLACEMENT_3D('',#393,#312,#313);
#265=AXIS2_PLACEMENT_3D('',#395,#314,#315);
#266=AXIS2_PLACEMENT_3D('',#396,#316,#317);
#267=AXIS2_PLACEMENT_3D('',#398,#318,#319);
#268=AXIS2_PLACEMENT_3D('',#399,#320,#321);
#269=AXIS2_PLACEMENT_3D('',#401,#322,#323);
#270=AXIS2_PLACEMENT_3D('',#402,#324,#325);
#271=AXIS2_PLACEMENT_3D('',#404,#326,#327);
#272=AXIS2_PLACEMENT_3D('',#405,#328,#329);
#273=AXIS2_PLACEMENT_3D('',#408,#331,#332);
#274=AXIS2_PLACEMENT_3D('',#409,#333,#334);
#275=AXIS2_PLACEMENT_3D('',#412,#336,#337);
#276=AXIS2_PLACEMENT_3D('',#413,#338,#339);
#277=AXIS2_PLACEMENT_3D('',#416,#341,#342);
#278=AXIS2_PLACEMENT_3D('',#417,#343,#344);
#279=AXIS2_PLACEMENT_3D('',#420,#346,#347);
#280=AXIS2_PLACEMENT_3D('',#421,#348,#349);
#281=AXIS2_PLACEMENT_3D('',#424,#351,#352);
#282=AXIS2_PLACEMENT_3D('',#425,#353,#354);
#283=AXIS2_PLACEMENT_3D('',#428,#356,#357);
#284=AXIS2_PLACEMENT_3D('',#429,#358,#359);
#285=AXIS2_PLACEMENT_3D('',#432,#361,#362);
#286=AXIS2_PLACEMENT_3D('',#433,#363,#364);
#287=AXIS2_PLACEMENT_3D('',#436,#366,#367);
#288=AXIS2_PLACEMENT_3D('',#437,#368,#369);
#289=AXIS2_PLACEMENT_3D('',#439,#370,#371);
#290=AXIS2_PLACEMENT_3D('',#441,#373,#374);
#291=DIRECTION('axis',(0.,0.,1.));
#292=DIRECTION('refdir',(1.,0.,0.));
#293=DIRECTION('center_axis',(-1.,0.,0.));
#294=DIRECTION('ref_axis',(0.,0.,-1.));
#295=DIRECTION('center_axis',(1.,0.,0.));
#296=DIRECTION('ref_axis',(0.,0.,-1.));
#297=DIRECTION('center_axis',(1.,0.,0.));
#298=DIRECTION('ref_axis',(0.,0.,-1.));
#299=DIRECTION('',(0.755689082789814,8.02058587537267E-17,-0.654930538417846));
#300=DIRECTION('center_axis',(-1.,0.,0.));
#301=DIRECTION('ref_axis',(0.,0.,-1.));
#302=DIRECTION('center_axis',(-1.,0.,0.));
#303=DIRECTION('ref_axis',(0.,0.,1.));
#304=DIRECTION('center_axis',(-1.,0.,0.));
#305=DIRECTION('ref_axis',(0.,0.,-1.));
#306=DIRECTION('center_axis',(-1.,0.,0.));
#307=DIRECTION('ref_axis',(0.,0.,-1.));
#308=DIRECTION('center_axis',(1.,0.,0.));
#309=DIRECTION('ref_axis',(0.,0.,-1.));
#310=DIRECTION('center_axis',(1.,0.,0.));
#311=DIRECTION('ref_axis',(0.,0.,-1.));
#312=DIRECTION('center_axis',(-1.,0.,0.));
#313=DIRECTION('ref_axis',(0.,0.,-1.));
#314=DIRECTION('center_axis',(1.,0.,0.));
#315=DIRECTION('ref_axis',(0.,0.,-1.));
#316=DIRECTION('center_axis',(1.,0.,0.));
#317=DIRECTION('ref_axis',(0.,0.,-1.));
#318=DIRECTION('center_axis',(-1.,0.,0.));
#319=DIRECTION('ref_axis',(0.,0.,-1.));
#320=DIRECTION('center_axis',(-1.,0.,0.));
#321=DIRECTION('ref_axis',(0.,0.,-1.));
#322=DIRECTION('center_axis',(1.,0.,0.));
#323=DIRECTION('ref_axis',(0.,0.,-1.));
#324=DIRECTION('center_axis',(1.,0.,0.));
#325=DIRECTION('ref_axis',(0.,0.,-1.));
#326=DIRECTION('center_axis',(1.,0.,0.));
#327=DIRECTION('ref_axis',(0.,0.,-1.));
#328=DIRECTION('center_axis',(1.,0.,0.));
#329=DIRECTION('ref_axis',(0.,0.,-1.));
#330=DIRECTION('',(1.,0.,0.));
#331=DIRECTION('center_axis',(-1.,0.,0.));
#332=DIRECTION('ref_axis',(0.,0.,-1.));
#333=DIRECTION('center_axis',(-1.,0.,0.));
#334=DIRECTION('ref_axis',(0.,0.,-1.));
#335=DIRECTION('',(0.755689082789814,8.02058587537267E-17,-0.654930538417846));
#336=DIRECTION('center_axis',(-1.,0.,0.));
#337=DIRECTION('ref_axis',(0.,0.,-1.));
#338=DIRECTION('center_axis',(1.,0.,0.));
#339=DIRECTION('ref_axis',(0.,0.,-1.));
#340=DIRECTION('',(1.,0.,0.));
#341=DIRECTION('center_axis',(-1.,0.,0.));
#342=DIRECTION('ref_axis',(0.,0.,-1.));
#343=DIRECTION('center_axis',(-1.,0.,0.));
#344=DIRECTION('ref_axis',(0.,0.,-1.));
#345=DIRECTION('',(0.755689082789814,8.02058587537267E-17,-0.654930538417846));
#346=DIRECTION('center_axis',(-1.,0.,0.));
#347=DIRECTION('ref_axis',(0.,0.,-1.));
#348=DIRECTION('center_axis',(1.,0.,0.));
#349=DIRECTION('ref_axis',(0.,0.,-1.));
#350=DIRECTION('',(1.,0.,0.));
#351=DIRECTION('center_axis',(-1.,0.,0.));
#352=DIRECTION('ref_axis',(0.,0.,-1.));
#353=DIRECTION('center_axis',(-1.,0.,0.));
#354=DIRECTION('ref_axis',(0.,0.,-1.));
#355=DIRECTION('',(0.755689082789814,8.02058587537267E-17,-0.654930538417846));
#356=DIRECTION('center_axis',(-1.,0.,0.));
#357=DIRECTION('ref_axis',(0.,0.,-1.));
#358=DIRECTION('center_axis',(1.,0.,0.));
#359=DIRECTION('ref_axis',(0.,0.,-1.));
#360=DIRECTION('',(1.,0.,0.));
#361=DIRECTION('center_axis',(-1.,0.,0.));
#362=DIRECTION('ref_axis',(0.,0.,-1.));
#363=DIRECTION('center_axis',(1.,0.,0.));
#364=DIRECTION('ref_axis',(0.,0.,-1.));
#365=DIRECTION('',(1.,0.,0.));
#366=DIRECTION('center_axis',(-1.,0.,0.));
#367=DIRECTION('ref_axis',(0.,0.,-1.));
#368=DIRECTION('center_axis',(1.,0.,0.));
#369=DIRECTION('ref_axis',(0.,0.,-1.));
#370=DIRECTION('center_axis',(1.,0.,0.));
#371=DIRECTION('ref_axis',(0.,0.,-1.));
#372=DIRECTION('',(-1.,0.,0.));
#373=DIRECTION('center_axis',(1.,0.,0.));
#374=DIRECTION('ref_axis',(0.,0.,-1.));
#375=CARTESIAN_POINT('',(0.,0.,0.));
#376=CARTESIAN_POINT('Origin',(510.75,8.48528137423857,231.514718625761));
#377=CARTESIAN_POINT('',(510.,10.6066017177982,229.393398282202));
#378=CARTESIAN_POINT('',(510.,8.48528137423857,234.514718625761));
#379=CARTESIAN_POINT('Origin',(510.,8.48528137423857,231.514718625761));
#380=CARTESIAN_POINT('Origin',(510.,8.48528137423857,231.514718625761));
#381=CARTESIAN_POINT('',(511.5,8.48528137423857,233.214718625761));
#382=CARTESIAN_POINT('',(510.75,8.48528137423857,233.864718625761));
#383=CARTESIAN_POINT('Origin',(511.5,8.48528137423857,231.514718625761));
#384=CARTESIAN_POINT('Origin',(510.,0.,240.));
#385=CARTESIAN_POINT('',(510.,10.6066017177982,250.606601717798));
#386=CARTESIAN_POINT('Origin',(510.,0.,240.));
#387=CARTESIAN_POINT('',(510.,-10.6066017177982,229.393398282202));
#388=CARTESIAN_POINT('Origin',(510.,0.,240.));
#389=CARTESIAN_POINT('',(510.,-8.48528137423857,234.514718625761));
#390=CARTESIAN_POINT('Origin',(510.,-8.48528137423857,231.514718625761));
#391=CARTESIAN_POINT('Origin',(510.,-8.48528137423857,231.514718625761));
#392=CARTESIAN_POINT('',(510.,-10.6066017177982,250.606601717798));
#393=CARTESIAN_POINT('Origin',(510.,0.,240.));
#394=CARTESIAN_POINT('',(510.,-8.48528137423857,251.485281374239));
#395=CARTESIAN_POINT('Origin',(510.,-8.48528137423857,248.485281374239));
#396=CARTESIAN_POINT('Origin',(510.,-8.48528137423857,248.485281374239));
#397=CARTESIAN_POINT('',(510.,-1.83697019872103E-15,255.));
#398=CARTESIAN_POINT('Origin',(510.,0.,240.));
#399=CARTESIAN_POINT('Origin',(510.,0.,240.));
#400=CARTESIAN_POINT('',(510.,8.48528137423857,251.485281374239));
#401=CARTESIAN_POINT('Origin',(510.,8.48528137423857,248.485281374239));
#402=CARTESIAN_POINT('Origin',(510.,8.48528137423857,248.485281374239));
#403=CARTESIAN_POINT('',(510.,-9.06238631369041E-16,247.4));
#404=CARTESIAN_POINT('Origin',(510.,0.,240.));
#405=CARTESIAN_POINT('Origin',(511.,8.48528137423857,231.514718625761));
#406=CARTESIAN_POINT('',(512.,8.48528137423857,233.214718625761));
#407=CARTESIAN_POINT('',(511.,8.48528137423857,233.214718625761));
#408=CARTESIAN_POINT('Origin',(512.,8.48528137423857,231.514718625761));
#409=CARTESIAN_POINT('Origin',(510.75,-8.48528137423857,231.514718625761));
#410=CARTESIAN_POINT('',(511.5,-8.48528137423857,233.214718625761));
#411=CARTESIAN_POINT('',(510.75,-8.48528137423857,233.864718625761));
#412=CARTESIAN_POINT('Origin',(511.5,-8.48528137423857,231.514718625761));
#413=CARTESIAN_POINT('Origin',(511.,-8.48528137423857,231.514718625761));
#414=CARTESIAN_POINT('',(512.,-8.48528137423857,233.214718625761));
#415=CARTESIAN_POINT('',(511.,-8.48528137423857,233.214718625761));
#416=CARTESIAN_POINT('Origin',(512.,-8.48528137423857,231.514718625761));
#417=CARTESIAN_POINT('Origin',(510.75,-8.48528137423857,248.485281374239));
#418=CARTESIAN_POINT('',(511.5,-8.48528137423857,250.185281374239));
#419=CARTESIAN_POINT('',(510.75,-8.48528137423857,250.835281374239));
#420=CARTESIAN_POINT('Origin',(511.5,-8.48528137423857,248.485281374239));
#421=CARTESIAN_POINT('Origin',(511.,-8.48528137423857,248.485281374239));
#422=CARTESIAN_POINT('',(512.,-8.48528137423857,250.185281374239));
#423=CARTESIAN_POINT('',(511.,-8.48528137423857,250.185281374239));
#424=CARTESIAN_POINT('Origin',(512.,-8.48528137423857,248.485281374239));
#425=CARTESIAN_POINT('Origin',(510.75,8.48528137423857,248.485281374239));
#426=CARTESIAN_POINT('',(511.5,8.48528137423857,250.185281374239));
#427=CARTESIAN_POINT('',(510.75,8.48528137423857,250.835281374239));
#428=CARTESIAN_POINT('Origin',(511.5,8.48528137423857,248.485281374239));
#429=CARTESIAN_POINT('Origin',(511.,8.48528137423857,248.485281374239));
#430=CARTESIAN_POINT('',(512.,8.48528137423857,250.185281374239));
#431=CARTESIAN_POINT('',(511.,8.48528137423857,250.185281374239));
#432=CARTESIAN_POINT('Origin',(512.,8.48528137423857,248.485281374239));
#433=CARTESIAN_POINT('Origin',(511.,0.,240.));
#434=CARTESIAN_POINT('',(512.,9.06238631369041E-16,247.4));
#435=CARTESIAN_POINT('',(511.,-9.06238631369041E-16,247.4));
#436=CARTESIAN_POINT('Origin',(512.,0.,240.));
#437=CARTESIAN_POINT('Origin',(511.,0.,240.));
#438=CARTESIAN_POINT('',(512.,-1.83697019872103E-15,255.));
#439=CARTESIAN_POINT('Origin',(512.,0.,240.));
#440=CARTESIAN_POINT('',(511.,-1.83697019872103E-15,255.));
#441=CARTESIAN_POINT('Origin',(512.,0.,240.));
#442=UNCERTAINTY_MEASURE_WITH_UNIT(LENGTH_MEASURE(0.01),#446,
'DISTANCE_ACCURACY_VALUE',
'Maximum model space distance between geometric entities at asserted c
onnectivities');
#443=UNCERTAINTY_MEASURE_WITH_UNIT(LENGTH_MEASURE(0.01),#446,
'DISTANCE_ACCURACY_VALUE',
'Maximum model space distance between geometric entities at asserted c
onnectivities');
#444=(
GEOMETRIC_REPRESENTATION_CONTEXT(3)
GLOBAL_UNCERTAINTY_ASSIGNED_CONTEXT((#442))
GLOBAL_UNIT_ASSIGNED_CONTEXT((#446,#448,#449))
REPRESENTATION_CONTEXT('','3D')
);
#445=(
GEOMETRIC_REPRESENTATION_CONTEXT(3)
GLOBAL_UNCERTAINTY_ASSIGNED_CONTEXT((#443))
GLOBAL_UNIT_ASSIGNED_CONTEXT((#446,#448,#449))
REPRESENTATION_CONTEXT('','3D')
);
#446=(
LENGTH_UNIT()
NAMED_UNIT(*)
SI_UNIT(.MILLI.,.METRE.)
);
#447=(
LENGTH_UNIT()
NAMED_UNIT(*)
SI_UNIT($,.METRE.)
);
#448=(
NAMED_UNIT(*)
PLANE_ANGLE_UNIT()
SI_UNIT($,.RADIAN.)
);
#449=(
NAMED_UNIT(*)
SI_UNIT($,.STERADIAN.)
SOLID_ANGLE_UNIT()
);
#450=SHAPE_DEFINITION_REPRESENTATION(#451,#452);
#451=PRODUCT_DEFINITION_SHAPE('',$,#454);
#452=SHAPE_REPRESENTATION('',(#254),#444);
#453=PRODUCT_DEFINITION_CONTEXT('part definition',#458,'design');
#454=PRODUCT_DEFINITION('2026-08-12-23-10-13-820',
'EXPORT_TMP_PRINT_V009C_P602_J6_RearBearingRetainer_',#455,#453);
#455=PRODUCT_DEFINITION_FORMATION('',$,#460);
#456=PRODUCT_RELATED_PRODUCT_CATEGORY(
'EXPORT_TMP_PRINT_V009C_P602_J6_RearBearingRetainer_',
'EXPORT_TMP_PRINT_V009C_P602_J6_RearBearingRetainer_',(#460));
#457=APPLICATION_PROTOCOL_DEFINITION('international standard',
'automotive_design',2009,#458);
#458=APPLICATION_CONTEXT(
'Core Data for Automotive Mechanical Design Process');
#459=PRODUCT_CONTEXT('part definition',#458,'mechanical');
#460=PRODUCT('2026-08-12-23-10-13-820',
'EXPORT_TMP_PRINT_V009C_P602_J6_RearBearingRetainer_',$,(#459));
#461=PRESENTATION_STYLE_ASSIGNMENT((#462));
#462=SURFACE_STYLE_USAGE(.BOTH.,#463);
#463=SURFACE_SIDE_STYLE('',(#464));
#464=SURFACE_STYLE_FILL_AREA(#465);
#465=FILL_AREA_STYLE('Steel - Satin',(#466));
#466=FILL_AREA_STYLE_COLOUR('Steel - Satin',#467);
#467=COLOUR_RGB('Steel - Satin',0.627450980392157,0.627450980392157,0.627450980392157);
ENDSEC;
END-ISO-10303-21;
