ISO-10303-21;
HEADER;
/* Generated by software containing ST-Developer
 * from STEP Tools, Inc. (www.steptools.com) 
 */

FILE_DESCRIPTION(
/* description */ (''),
/* implementation_level */ '2;1');

FILE_NAME(
/* name */ 'PRINT_V012_P605_CapsuleSlipRingClamp_M125.step',
/* time_stamp */ '2026-08-13T18:20:14+02:00',
/* author */ (''),
/* organization */ (''),
/* preprocessor_version */ 'ST-DEVELOPER v20.1',
/* originating_system */ 'Autodesk Translation Framework v15.8.0.0',
/* authorisation */ '');

FILE_SCHEMA (('AUTOMOTIVE_DESIGN { 1 0 10303 214 3 1 1 }'));
ENDSEC;

DATA;
#10=MECHANICAL_DESIGN_GEOMETRIC_PRESENTATION_REPRESENTATION('',(#13),#512);
#11=SHAPE_REPRESENTATION_RELATIONSHIP('SRR','None',#519,#12);
#12=ADVANCED_BREP_SHAPE_REPRESENTATION('',(#14),#511);
#13=STYLED_ITEM('',(#528),#14);
#14=MANIFOLD_SOLID_BREP('PRINT_V012_P605_CapsuleSlipRingClamp_M125',#256);
#15=FACE_BOUND('',#67,.T.);
#16=FACE_BOUND('',#70,.T.);
#17=FACE_BOUND('',#71,.T.);
#18=FACE_BOUND('',#72,.T.);
#19=FACE_BOUND('',#73,.T.);
#20=FACE_BOUND('',#74,.T.);
#21=FACE_BOUND('',#77,.T.);
#22=FACE_BOUND('',#78,.T.);
#23=FACE_BOUND('',#79,.T.);
#24=FACE_BOUND('',#80,.T.);
#25=FACE_BOUND('',#81,.T.);
#26=FACE_BOUND('',#84,.T.);
#27=PLANE('',#286);
#28=PLANE('',#290);
#29=PLANE('',#295);
#30=PLANE('',#298);
#31=CIRCLE('',#272,1.7);
#32=CIRCLE('',#273,1.7);
#33=CIRCLE('',#275,1.7);
#34=CIRCLE('',#276,1.7);
#35=CIRCLE('',#278,1.7);
#36=CIRCLE('',#279,1.7);
#37=CIRCLE('',#281,1.7);
#38=CIRCLE('',#282,1.7);
#39=CIRCLE('',#284,6.5);
#40=CIRCLE('',#285,6.5);
#41=CIRCLE('',#287,6.3);
#42=CIRCLE('',#289,6.3);
#43=CIRCLE('',#291,15.);
#44=CIRCLE('',#292,9.);
#45=CIRCLE('',#294,15.);
#46=CIRCLE('',#297,9.);
#47=FACE_OUTER_BOUND('',#60,.T.);
#48=FACE_OUTER_BOUND('',#61,.T.);
#49=FACE_OUTER_BOUND('',#62,.T.);
#50=FACE_OUTER_BOUND('',#63,.T.);
#51=FACE_OUTER_BOUND('',#64,.T.);
#52=FACE_OUTER_BOUND('',#65,.T.);
#53=FACE_OUTER_BOUND('',#66,.T.);
#54=FACE_OUTER_BOUND('',#68,.T.);
#55=FACE_OUTER_BOUND('',#69,.T.);
#56=FACE_OUTER_BOUND('',#75,.T.);
#57=FACE_OUTER_BOUND('',#76,.T.);
#58=FACE_OUTER_BOUND('',#82,.T.);
#59=FACE_OUTER_BOUND('',#83,.T.);
#60=EDGE_LOOP('',(#168,#169,#170,#171,#172,#173,#174,#175));
#61=EDGE_LOOP('',(#176,#177,#178,#179));
#62=EDGE_LOOP('',(#180,#181,#182,#183));
#63=EDGE_LOOP('',(#184,#185,#186,#187));
#64=EDGE_LOOP('',(#188,#189,#190,#191));
#65=EDGE_LOOP('',(#192,#193,#194,#195));
#66=EDGE_LOOP('',(#196));
#67=EDGE_LOOP('',(#197));
#68=EDGE_LOOP('',(#198,#199,#200,#201,#202,#203,#204,#205,#206));
#69=EDGE_LOOP('',(#207));
#70=EDGE_LOOP('',(#208));
#71=EDGE_LOOP('',(#209));
#72=EDGE_LOOP('',(#210));
#73=EDGE_LOOP('',(#211));
#74=EDGE_LOOP('',(#212));
#75=EDGE_LOOP('',(#213,#214,#215,#216));
#76=EDGE_LOOP('',(#217));
#77=EDGE_LOOP('',(#218));
#78=EDGE_LOOP('',(#219));
#79=EDGE_LOOP('',(#220));
#80=EDGE_LOOP('',(#221));
#81=EDGE_LOOP('',(#222));
#82=EDGE_LOOP('',(#223,#224,#225,#226,#227,#228,#229,#230,#231));
#83=EDGE_LOOP('',(#232));
#84=EDGE_LOOP('',(#233));
#85=LINE('',#396,#96);
#86=LINE('',#459,#97);
#87=LINE('',#465,#98);
#88=LINE('',#471,#99);
#89=LINE('',#477,#100);
#90=LINE('',#483,#101);
#91=LINE('',#491,#102);
#92=LINE('',#492,#103);
#93=LINE('',#501,#104);
#94=LINE('',#504,#105);
#95=LINE('',#506,#106);
#96=VECTOR('',#303,1.5);
#97=VECTOR('',#308,1.7);
#98=VECTOR('',#315,1.7);
#99=VECTOR('',#322,1.7);
#100=VECTOR('',#329,1.7);
#101=VECTOR('',#336,6.5);
#102=VECTOR('',#347,6.3);
#103=VECTOR('',#348,6.3);
#104=VECTOR('',#359,15.);
#105=VECTOR('',#364,9.);
#106=VECTOR('',#365,9.);
#107=B_SPLINE_CURVE_WITH_KNOTS('',3,(#374,#375,#376,#377,#378,#379,#380,
#381,#382,#383),.UNSPECIFIED.,.F.,.F.,(4,2,2,2,4),(0.,0.0567416216334335,
0.113483243266867,0.170218374863234,0.226953506459602),.UNSPECIFIED.);
#108=B_SPLINE_CURVE_WITH_KNOTS('',3,(#385,#386,#387,#388,#389,#390,#391,
#392,#393,#394),.UNSPECIFIED.,.F.,.F.,(4,2,2,2,4),(0.680860519378806,0.737595650975173,
0.794330782571541,0.851072404204974,0.907814025838408),.UNSPECIFIED.);
#109=B_SPLINE_CURVE_WITH_KNOTS('',3,(#398,#399,#400,#401,#402,#403,#404,
#405,#406,#407),.UNSPECIFIED.,.F.,.F.,(4,2,2,2,4),(0.,0.0566174438918373,
0.113234887783675,0.169850819486306,0.226466751188937),.UNSPECIFIED.);
#110=B_SPLINE_CURVE_WITH_KNOTS('',3,(#409,#410,#411,#412,#413,#414,#415,
#416,#417,#418),.UNSPECIFIED.,.F.,.F.,(4,2,2,2,4),(0.679400253566812,0.736016185269444,
0.792632116972075,0.849249560863912,0.90586700475575),.UNSPECIFIED.);
#111=B_SPLINE_CURVE_WITH_KNOTS('',3,(#419,#420,#421,#422,#423,#424,#425,
#426,#427,#428,#429,#430,#431,#432,#433,#434,#435,#436),.UNSPECIFIED.,.F.,
 .F.,(4,2,2,2,2,2,2,2,4),(0.226466751188937,0.283082682891569,0.3396986145942,
0.396316058486038,0.452933502377875,0.509550946269712,0.566168390161549,
0.622784321864181,0.679400253566812),.UNSPECIFIED.);
#112=B_SPLINE_CURVE_WITH_KNOTS('',3,(#437,#438,#439,#440,#441,#442,#443,
#444,#445,#446,#447,#448,#449,#450,#451,#452,#453,#454),.UNSPECIFIED.,.F.,
 .F.,(4,2,2,2,2,2,2,2,4),(0.226953506459602,0.283688638055969,0.340423769652337,
0.39716539128577,0.453907012919204,0.510648634552637,0.567390256186071,
0.624125387782438,0.680860519378806),.UNSPECIFIED.);
#113=VERTEX_POINT('',#372);
#114=VERTEX_POINT('',#373);
#115=VERTEX_POINT('',#384);
#116=VERTEX_POINT('',#395);
#117=VERTEX_POINT('',#397);
#118=VERTEX_POINT('',#408);
#119=VERTEX_POINT('',#456);
#120=VERTEX_POINT('',#458);
#121=VERTEX_POINT('',#462);
#122=VERTEX_POINT('',#464);
#123=VERTEX_POINT('',#468);
#124=VERTEX_POINT('',#470);
#125=VERTEX_POINT('',#474);
#126=VERTEX_POINT('',#476);
#127=VERTEX_POINT('',#480);
#128=VERTEX_POINT('',#482);
#129=VERTEX_POINT('',#486);
#130=VERTEX_POINT('',#489);
#131=VERTEX_POINT('',#494);
#132=VERTEX_POINT('',#496);
#133=VERTEX_POINT('',#499);
#134=VERTEX_POINT('',#505);
#135=EDGE_CURVE('',#113,#114,#107,.T.);
#136=EDGE_CURVE('',#115,#113,#108,.T.);
#137=EDGE_CURVE('',#115,#116,#85,.T.);
#138=EDGE_CURVE('',#117,#116,#109,.T.);
#139=EDGE_CURVE('',#118,#117,#110,.T.);
#140=EDGE_CURVE('',#116,#118,#111,.T.);
#141=EDGE_CURVE('',#114,#115,#112,.T.);
#142=EDGE_CURVE('',#119,#119,#31,.T.);
#143=EDGE_CURVE('',#119,#120,#86,.T.);
#144=EDGE_CURVE('',#120,#120,#32,.T.);
#145=EDGE_CURVE('',#121,#121,#33,.T.);
#146=EDGE_CURVE('',#121,#122,#87,.T.);
#147=EDGE_CURVE('',#122,#122,#34,.T.);
#148=EDGE_CURVE('',#123,#123,#35,.T.);
#149=EDGE_CURVE('',#123,#124,#88,.T.);
#150=EDGE_CURVE('',#124,#124,#36,.T.);
#151=EDGE_CURVE('',#125,#125,#37,.T.);
#152=EDGE_CURVE('',#125,#126,#89,.T.);
#153=EDGE_CURVE('',#126,#126,#38,.T.);
#154=EDGE_CURVE('',#127,#127,#39,.T.);
#155=EDGE_CURVE('',#127,#128,#90,.T.);
#156=EDGE_CURVE('',#128,#128,#40,.T.);
#157=EDGE_CURVE('',#129,#129,#41,.T.);
#158=EDGE_CURVE('',#130,#130,#42,.T.);
#159=EDGE_CURVE('',#130,#115,#91,.T.);
#160=EDGE_CURVE('',#114,#129,#92,.T.);
#161=EDGE_CURVE('',#131,#131,#43,.T.);
#162=EDGE_CURVE('',#132,#132,#44,.T.);
#163=EDGE_CURVE('',#133,#133,#45,.T.);
#164=EDGE_CURVE('',#133,#131,#93,.T.);
#165=EDGE_CURVE('',#132,#118,#94,.T.);
#166=EDGE_CURVE('',#116,#134,#95,.T.);
#167=EDGE_CURVE('',#134,#134,#46,.T.);
#168=ORIENTED_EDGE('',*,*,#135,.F.);
#169=ORIENTED_EDGE('',*,*,#136,.F.);
#170=ORIENTED_EDGE('',*,*,#137,.T.);
#171=ORIENTED_EDGE('',*,*,#138,.F.);
#172=ORIENTED_EDGE('',*,*,#139,.F.);
#173=ORIENTED_EDGE('',*,*,#140,.F.);
#174=ORIENTED_EDGE('',*,*,#137,.F.);
#175=ORIENTED_EDGE('',*,*,#141,.F.);
#176=ORIENTED_EDGE('',*,*,#142,.F.);
#177=ORIENTED_EDGE('',*,*,#143,.T.);
#178=ORIENTED_EDGE('',*,*,#144,.F.);
#179=ORIENTED_EDGE('',*,*,#143,.F.);
#180=ORIENTED_EDGE('',*,*,#145,.F.);
#181=ORIENTED_EDGE('',*,*,#146,.T.);
#182=ORIENTED_EDGE('',*,*,#147,.F.);
#183=ORIENTED_EDGE('',*,*,#146,.F.);
#184=ORIENTED_EDGE('',*,*,#148,.F.);
#185=ORIENTED_EDGE('',*,*,#149,.T.);
#186=ORIENTED_EDGE('',*,*,#150,.F.);
#187=ORIENTED_EDGE('',*,*,#149,.F.);
#188=ORIENTED_EDGE('',*,*,#151,.F.);
#189=ORIENTED_EDGE('',*,*,#152,.T.);
#190=ORIENTED_EDGE('',*,*,#153,.F.);
#191=ORIENTED_EDGE('',*,*,#152,.F.);
#192=ORIENTED_EDGE('',*,*,#154,.T.);
#193=ORIENTED_EDGE('',*,*,#155,.T.);
#194=ORIENTED_EDGE('',*,*,#156,.F.);
#195=ORIENTED_EDGE('',*,*,#155,.F.);
#196=ORIENTED_EDGE('',*,*,#154,.F.);
#197=ORIENTED_EDGE('',*,*,#157,.F.);
#198=ORIENTED_EDGE('',*,*,#158,.F.);
#199=ORIENTED_EDGE('',*,*,#159,.T.);
#200=ORIENTED_EDGE('',*,*,#136,.T.);
#201=ORIENTED_EDGE('',*,*,#135,.T.);
#202=ORIENTED_EDGE('',*,*,#160,.T.);
#203=ORIENTED_EDGE('',*,*,#157,.T.);
#204=ORIENTED_EDGE('',*,*,#160,.F.);
#205=ORIENTED_EDGE('',*,*,#141,.T.);
#206=ORIENTED_EDGE('',*,*,#159,.F.);
#207=ORIENTED_EDGE('',*,*,#161,.T.);
#208=ORIENTED_EDGE('',*,*,#142,.T.);
#209=ORIENTED_EDGE('',*,*,#145,.T.);
#210=ORIENTED_EDGE('',*,*,#148,.T.);
#211=ORIENTED_EDGE('',*,*,#151,.T.);
#212=ORIENTED_EDGE('',*,*,#162,.T.);
#213=ORIENTED_EDGE('',*,*,#163,.F.);
#214=ORIENTED_EDGE('',*,*,#164,.T.);
#215=ORIENTED_EDGE('',*,*,#161,.F.);
#216=ORIENTED_EDGE('',*,*,#164,.F.);
#217=ORIENTED_EDGE('',*,*,#163,.T.);
#218=ORIENTED_EDGE('',*,*,#144,.T.);
#219=ORIENTED_EDGE('',*,*,#147,.T.);
#220=ORIENTED_EDGE('',*,*,#150,.T.);
#221=ORIENTED_EDGE('',*,*,#153,.T.);
#222=ORIENTED_EDGE('',*,*,#156,.T.);
#223=ORIENTED_EDGE('',*,*,#162,.F.);
#224=ORIENTED_EDGE('',*,*,#165,.T.);
#225=ORIENTED_EDGE('',*,*,#139,.T.);
#226=ORIENTED_EDGE('',*,*,#138,.T.);
#227=ORIENTED_EDGE('',*,*,#166,.T.);
#228=ORIENTED_EDGE('',*,*,#167,.F.);
#229=ORIENTED_EDGE('',*,*,#166,.F.);
#230=ORIENTED_EDGE('',*,*,#140,.T.);
#231=ORIENTED_EDGE('',*,*,#165,.F.);
#232=ORIENTED_EDGE('',*,*,#167,.T.);
#233=ORIENTED_EDGE('',*,*,#158,.T.);
#234=CYLINDRICAL_SURFACE('',#270,1.5);
#235=CYLINDRICAL_SURFACE('',#271,1.7);
#236=CYLINDRICAL_SURFACE('',#274,1.7);
#237=CYLINDRICAL_SURFACE('',#277,1.7);
#238=CYLINDRICAL_SURFACE('',#280,1.7);
#239=CYLINDRICAL_SURFACE('',#283,6.5);
#240=CYLINDRICAL_SURFACE('',#288,6.3);
#241=CYLINDRICAL_SURFACE('',#293,15.);
#242=CYLINDRICAL_SURFACE('',#296,9.);
#243=ADVANCED_FACE('',(#47),#234,.F.);
#244=ADVANCED_FACE('',(#48),#235,.F.);
#245=ADVANCED_FACE('',(#49),#236,.F.);
#246=ADVANCED_FACE('',(#50),#237,.F.);
#247=ADVANCED_FACE('',(#51),#238,.F.);
#248=ADVANCED_FACE('',(#52),#239,.F.);
#249=ADVANCED_FACE('',(#53,#15),#27,.F.);
#250=ADVANCED_FACE('',(#54),#240,.F.);
#251=ADVANCED_FACE('',(#55,#16,#17,#18,#19,#20),#28,.T.);
#252=ADVANCED_FACE('',(#56),#241,.T.);
#253=ADVANCED_FACE('',(#57,#21,#22,#23,#24,#25),#29,.T.);
#254=ADVANCED_FACE('',(#58),#242,.T.);
#255=ADVANCED_FACE('',(#59,#26),#30,.T.);
#256=CLOSED_SHELL('',(#243,#244,#245,#246,#247,#248,#249,#250,#251,#252,
#253,#254,#255));
#257=DERIVED_UNIT_ELEMENT(#259,1.);
#258=DERIVED_UNIT_ELEMENT(#514,-3.);
#259=(
MASS_UNIT()
NAMED_UNIT(*)
SI_UNIT(.KILO.,.GRAM.)
);
#260=DERIVED_UNIT((#257,#258));
#261=MEASURE_REPRESENTATION_ITEM('density measure',
POSITIVE_RATIO_MEASURE(7850.),#260);
#262=PROPERTY_DEFINITION_REPRESENTATION(#267,#264);
#263=PROPERTY_DEFINITION_REPRESENTATION(#268,#265);
#264=REPRESENTATION('material name',(#266),#511);
#265=REPRESENTATION('density',(#261),#511);
#266=DESCRIPTIVE_REPRESENTATION_ITEM('Steel','Steel');
#267=PROPERTY_DEFINITION('material property','material name',#521);
#268=PROPERTY_DEFINITION('material property','density of part',#521);
#269=AXIS2_PLACEMENT_3D('',#370,#299,#300);
#270=AXIS2_PLACEMENT_3D('',#371,#301,#302);
#271=AXIS2_PLACEMENT_3D('',#455,#304,#305);
#272=AXIS2_PLACEMENT_3D('',#457,#306,#307);
#273=AXIS2_PLACEMENT_3D('',#460,#309,#310);
#274=AXIS2_PLACEMENT_3D('',#461,#311,#312);
#275=AXIS2_PLACEMENT_3D('',#463,#313,#314);
#276=AXIS2_PLACEMENT_3D('',#466,#316,#317);
#277=AXIS2_PLACEMENT_3D('',#467,#318,#319);
#278=AXIS2_PLACEMENT_3D('',#469,#320,#321);
#279=AXIS2_PLACEMENT_3D('',#472,#323,#324);
#280=AXIS2_PLACEMENT_3D('',#473,#325,#326);
#281=AXIS2_PLACEMENT_3D('',#475,#327,#328);
#282=AXIS2_PLACEMENT_3D('',#478,#330,#331);
#283=AXIS2_PLACEMENT_3D('',#479,#332,#333);
#284=AXIS2_PLACEMENT_3D('',#481,#334,#335);
#285=AXIS2_PLACEMENT_3D('',#484,#337,#338);
#286=AXIS2_PLACEMENT_3D('',#485,#339,#340);
#287=AXIS2_PLACEMENT_3D('',#487,#341,#342);
#288=AXIS2_PLACEMENT_3D('',#488,#343,#344);
#289=AXIS2_PLACEMENT_3D('',#490,#345,#346);
#290=AXIS2_PLACEMENT_3D('',#493,#349,#350);
#291=AXIS2_PLACEMENT_3D('',#495,#351,#352);
#292=AXIS2_PLACEMENT_3D('',#497,#353,#354);
#293=AXIS2_PLACEMENT_3D('',#498,#355,#356);
#294=AXIS2_PLACEMENT_3D('',#500,#357,#358);
#295=AXIS2_PLACEMENT_3D('',#502,#360,#361);
#296=AXIS2_PLACEMENT_3D('',#503,#362,#363);
#297=AXIS2_PLACEMENT_3D('',#507,#366,#367);
#298=AXIS2_PLACEMENT_3D('',#508,#368,#369);
#299=DIRECTION('axis',(0.,0.,1.));
#300=DIRECTION('refdir',(1.,0.,0.));
#301=DIRECTION('center_axis',(0.,0.,1.));
#302=DIRECTION('ref_axis',(1.,0.,0.));
#303=DIRECTION('',(0.,0.,1.));
#304=DIRECTION('center_axis',(1.,0.,0.));
#305=DIRECTION('ref_axis',(0.,0.,-1.));
#306=DIRECTION('center_axis',(1.,0.,0.));
#307=DIRECTION('ref_axis',(0.,0.,-1.));
#308=DIRECTION('',(1.,0.,0.));
#309=DIRECTION('center_axis',(-1.,0.,0.));
#310=DIRECTION('ref_axis',(0.,0.,-1.));
#311=DIRECTION('center_axis',(1.,0.,0.));
#312=DIRECTION('ref_axis',(0.,0.,-1.));
#313=DIRECTION('center_axis',(1.,0.,0.));
#314=DIRECTION('ref_axis',(0.,0.,-1.));
#315=DIRECTION('',(1.,0.,0.));
#316=DIRECTION('center_axis',(-1.,0.,0.));
#317=DIRECTION('ref_axis',(0.,0.,-1.));
#318=DIRECTION('center_axis',(1.,0.,0.));
#319=DIRECTION('ref_axis',(0.,0.,-1.));
#320=DIRECTION('center_axis',(1.,0.,0.));
#321=DIRECTION('ref_axis',(0.,0.,-1.));
#322=DIRECTION('',(1.,0.,0.));
#323=DIRECTION('center_axis',(-1.,0.,0.));
#324=DIRECTION('ref_axis',(0.,0.,-1.));
#325=DIRECTION('center_axis',(1.,0.,0.));
#326=DIRECTION('ref_axis',(0.,0.,-1.));
#327=DIRECTION('center_axis',(1.,0.,0.));
#328=DIRECTION('ref_axis',(0.,0.,-1.));
#329=DIRECTION('',(1.,0.,0.));
#330=DIRECTION('center_axis',(-1.,0.,0.));
#331=DIRECTION('ref_axis',(0.,0.,-1.));
#332=DIRECTION('center_axis',(1.,0.,0.));
#333=DIRECTION('ref_axis',(0.,0.,-1.));
#334=DIRECTION('center_axis',(-1.,0.,0.));
#335=DIRECTION('ref_axis',(0.,0.,-1.));
#336=DIRECTION('',(1.,0.,0.));
#337=DIRECTION('center_axis',(-1.,0.,0.));
#338=DIRECTION('ref_axis',(0.,0.,-1.));
#339=DIRECTION('center_axis',(-1.,0.,0.));
#340=DIRECTION('ref_axis',(0.,0.,1.));
#341=DIRECTION('center_axis',(1.,0.,0.));
#342=DIRECTION('ref_axis',(0.,0.,-1.));
#343=DIRECTION('center_axis',(1.,0.,0.));
#344=DIRECTION('ref_axis',(0.,0.,-1.));
#345=DIRECTION('center_axis',(1.,0.,0.));
#346=DIRECTION('ref_axis',(0.,0.,-1.));
#347=DIRECTION('',(1.,0.,0.));
#348=DIRECTION('',(1.,0.,0.));
#349=DIRECTION('center_axis',(-1.,0.,0.));
#350=DIRECTION('ref_axis',(0.,0.,1.));
#351=DIRECTION('center_axis',(-1.,0.,0.));
#352=DIRECTION('ref_axis',(0.,0.,-1.));
#353=DIRECTION('center_axis',(1.,0.,0.));
#354=DIRECTION('ref_axis',(0.,0.,-1.));
#355=DIRECTION('center_axis',(1.,0.,0.));
#356=DIRECTION('ref_axis',(0.,0.,-1.));
#357=DIRECTION('center_axis',(1.,0.,0.));
#358=DIRECTION('ref_axis',(0.,0.,-1.));
#359=DIRECTION('',(-1.,0.,0.));
#360=DIRECTION('center_axis',(1.,0.,0.));
#361=DIRECTION('ref_axis',(0.,0.,-1.));
#362=DIRECTION('center_axis',(1.,0.,0.));
#363=DIRECTION('ref_axis',(0.,0.,-1.));
#364=DIRECTION('',(-1.,0.,0.));
#365=DIRECTION('',(-1.,0.,0.));
#366=DIRECTION('center_axis',(-1.,0.,0.));
#367=DIRECTION('ref_axis',(0.,0.,-1.));
#368=DIRECTION('center_axis',(-1.,0.,0.));
#369=DIRECTION('ref_axis',(0.,0.,1.));
#370=CARTESIAN_POINT('',(0.,0.,0.));
#371=CARTESIAN_POINT('Origin',(499.,0.,247.5));
#372=CARTESIAN_POINT('',(499.,-1.5,246.118823416311));
#373=CARTESIAN_POINT('',(500.5,-1.91232040059101E-15,246.3));
#374=CARTESIAN_POINT('Ctrl Pts',(499.,-1.5,246.118823416311));
#375=CARTESIAN_POINT('Ctrl Pts',(499.189138738778,-1.5,246.118823416311));
#376=CARTESIAN_POINT('Ctrl Pts',(499.390363854063,-1.46205133934863,246.128505507862));
#377=CARTESIAN_POINT('Ctrl Pts',(499.759703266143,-1.30875100275775,246.163062918543));
#378=CARTESIAN_POINT('Ctrl Pts',(499.927883704716,-1.19343663884362,246.18739467477));
#379=CARTESIAN_POINT('Ctrl Pts',(500.193421452034,-0.927898891525429,246.232747658063));
#380=CARTESIAN_POINT('Ctrl Pts',(500.30874767236,-0.759712095837001,246.256774816968));
#381=CARTESIAN_POINT('Ctrl Pts',(500.462056648066,-0.390350258085502,246.29062955932));
#382=CARTESIAN_POINT('Ctrl Pts',(500.5,-0.189117105321222,246.3));
#383=CARTESIAN_POINT('Ctrl Pts',(500.5,2.42861286636753E-15,246.3));
#384=CARTESIAN_POINT('',(497.5,-5.11233613721112E-18,246.3));
#385=CARTESIAN_POINT('Ctrl Pts',(497.5,-1.73472347597681E-16,246.3));
#386=CARTESIAN_POINT('Ctrl Pts',(497.5,-0.189117105321225,246.3));
#387=CARTESIAN_POINT('Ctrl Pts',(497.537943351934,-0.390350258085494,246.29062955932));
#388=CARTESIAN_POINT('Ctrl Pts',(497.69125232764,-0.759712095836975,246.256774816968));
#389=CARTESIAN_POINT('Ctrl Pts',(497.806578547966,-0.927898891525429,246.232747658063));
#390=CARTESIAN_POINT('Ctrl Pts',(498.072116295284,-1.19343663884362,246.18739467477));
#391=CARTESIAN_POINT('Ctrl Pts',(498.240296733857,-1.30875100275775,246.163062918543));
#392=CARTESIAN_POINT('Ctrl Pts',(498.609636145937,-1.46205133934863,246.128505507862));
#393=CARTESIAN_POINT('Ctrl Pts',(498.810861261222,-1.50000000000001,246.118823416311));
#394=CARTESIAN_POINT('Ctrl Pts',(499.,-1.50000000000001,246.118823416311));
#395=CARTESIAN_POINT('',(497.5,-1.83697019872103E-16,249.));
#396=CARTESIAN_POINT('',(497.5,-1.83697019872103E-16,247.5));
#397=CARTESIAN_POINT('',(499.,-1.5,248.874119674649));
#398=CARTESIAN_POINT('Ctrl Pts',(499.,-1.5,248.874119674649));
#399=CARTESIAN_POINT('Ctrl Pts',(498.811275187027,-1.5,248.874119674649));
#400=CARTESIAN_POINT('Ctrl Pts',(498.610216778547,-1.46221105653827,248.880762804709));
#401=CARTESIAN_POINT('Ctrl Pts',(498.240755120574,-1.30902231930517,248.904631921768));
#402=CARTESIAN_POINT('Ctrl Pts',(498.072321001167,-1.1936413447268,248.921499504166));
#403=CARTESIAN_POINT('Ctrl Pts',(497.806362207053,-0.927682550612659,248.953063006035));
#404=CARTESIAN_POINT('Ctrl Pts',(497.690978446565,-0.759246906363135,248.969827769426));
#405=CARTESIAN_POINT('Ctrl Pts',(497.5377876865,-0.389780010097473,248.993460825518));
#406=CARTESIAN_POINT('Ctrl Pts',(497.5,-0.188719772342101,249.));
#407=CARTESIAN_POINT('Ctrl Pts',(497.5,3.46944695195361E-15,249.));
#408=CARTESIAN_POINT('',(500.5,8.19340486405369E-16,249.));
#409=CARTESIAN_POINT('Ctrl Pts',(500.5,2.74086309204336E-15,249.));
#410=CARTESIAN_POINT('Ctrl Pts',(500.5,-0.188719772342102,249.));
#411=CARTESIAN_POINT('Ctrl Pts',(500.4622123135,-0.38978001009748,248.993460825518));
#412=CARTESIAN_POINT('Ctrl Pts',(500.309021553435,-0.75924690636314,248.969827769426));
#413=CARTESIAN_POINT('Ctrl Pts',(500.193637792947,-0.92768255061266,248.953063006035));
#414=CARTESIAN_POINT('Ctrl Pts',(499.927678998833,-1.1936413447268,248.921499504166));
#415=CARTESIAN_POINT('Ctrl Pts',(499.759244879426,-1.30902231930517,248.904631921768));
#416=CARTESIAN_POINT('Ctrl Pts',(499.389783221453,-1.46221105653827,248.880762804709));
#417=CARTESIAN_POINT('Ctrl Pts',(499.188724812973,-1.5,248.874119674649));
#418=CARTESIAN_POINT('Ctrl Pts',(499.,-1.5,248.874119674649));
#419=CARTESIAN_POINT('Ctrl Pts',(497.5,-1.21430643318376E-15,249.));
#420=CARTESIAN_POINT('Ctrl Pts',(497.5,0.188719772342104,249.));
#421=CARTESIAN_POINT('Ctrl Pts',(497.5377876865,0.389780010097473,248.993460825518));
#422=CARTESIAN_POINT('Ctrl Pts',(497.690978446565,0.759246906363135,248.969827769426));
#423=CARTESIAN_POINT('Ctrl Pts',(497.806362207053,0.927682550612659,248.953063006035));
#424=CARTESIAN_POINT('Ctrl Pts',(498.072321001167,1.1936413447268,248.921499504166));
#425=CARTESIAN_POINT('Ctrl Pts',(498.240755120574,1.30902231930517,248.904631921768));
#426=CARTESIAN_POINT('Ctrl Pts',(498.610216778547,1.46221105653827,248.880762804709));
#427=CARTESIAN_POINT('Ctrl Pts',(498.811275187027,1.5,248.874119674649));
#428=CARTESIAN_POINT('Ctrl Pts',(499.188724812973,1.5,248.874119674649));
#429=CARTESIAN_POINT('Ctrl Pts',(499.389783221453,1.4622110565383,248.880762804709));
#430=CARTESIAN_POINT('Ctrl Pts',(499.759244879426,1.30902231930524,248.904631921768));
#431=CARTESIAN_POINT('Ctrl Pts',(499.927678998833,1.1936413447268,248.921499504166));
#432=CARTESIAN_POINT('Ctrl Pts',(500.193637792947,0.92768255061266,248.953063006035));
#433=CARTESIAN_POINT('Ctrl Pts',(500.309021553435,0.75924690636314,248.969827769426));
#434=CARTESIAN_POINT('Ctrl Pts',(500.4622123135,0.389780010097481,248.993460825518));
#435=CARTESIAN_POINT('Ctrl Pts',(500.5,0.188719772342104,249.));
#436=CARTESIAN_POINT('Ctrl Pts',(500.5,-1.11022302462516E-15,249.));
#437=CARTESIAN_POINT('Ctrl Pts',(500.5,-2.04697370165263E-15,246.3));
#438=CARTESIAN_POINT('Ctrl Pts',(500.5,0.189117105321223,246.3));
#439=CARTESIAN_POINT('Ctrl Pts',(500.462056648066,0.390350258085498,246.29062955932));
#440=CARTESIAN_POINT('Ctrl Pts',(500.30874767236,0.75971209583698,246.256774816968));
#441=CARTESIAN_POINT('Ctrl Pts',(500.193421452034,0.927898891525429,246.232747658063));
#442=CARTESIAN_POINT('Ctrl Pts',(499.927883704716,1.19343663884362,246.18739467477));
#443=CARTESIAN_POINT('Ctrl Pts',(499.759703266143,1.30875100275775,246.163062918543));
#444=CARTESIAN_POINT('Ctrl Pts',(499.390363854063,1.46205133934863,246.128505507862));
#445=CARTESIAN_POINT('Ctrl Pts',(499.189138738778,1.5,246.118823416311));
#446=CARTESIAN_POINT('Ctrl Pts',(498.810861261222,1.5,246.118823416311));
#447=CARTESIAN_POINT('Ctrl Pts',(498.609636145937,1.46205133934863,246.128505507862));
#448=CARTESIAN_POINT('Ctrl Pts',(498.240296733857,1.30875100275775,246.163062918543));
#449=CARTESIAN_POINT('Ctrl Pts',(498.072116295284,1.19343663884362,246.18739467477));
#450=CARTESIAN_POINT('Ctrl Pts',(497.806578547966,0.927898891525429,246.232747658063));
#451=CARTESIAN_POINT('Ctrl Pts',(497.69125232764,0.75971209583698,246.256774816968));
#452=CARTESIAN_POINT('Ctrl Pts',(497.537943351934,0.390350258085499,246.29062955932));
#453=CARTESIAN_POINT('Ctrl Pts',(497.5,0.189117105321226,246.3));
#454=CARTESIAN_POINT('Ctrl Pts',(497.5,7.28583859910259E-16,246.3));
#455=CARTESIAN_POINT('Origin',(508.5,8.48528137423857,231.514718625761));
#456=CARTESIAN_POINT('',(507.,8.48528137423857,233.214718625761));
#457=CARTESIAN_POINT('Origin',(507.,8.48528137423857,231.514718625761));
#458=CARTESIAN_POINT('',(510.,8.48528137423857,233.214718625761));
#459=CARTESIAN_POINT('',(508.5,8.48528137423857,233.214718625761));
#460=CARTESIAN_POINT('Origin',(510.,8.48528137423857,231.514718625761));
#461=CARTESIAN_POINT('Origin',(508.5,-8.48528137423857,231.514718625761));
#462=CARTESIAN_POINT('',(507.,-8.48528137423857,233.214718625761));
#463=CARTESIAN_POINT('Origin',(507.,-8.48528137423857,231.514718625761));
#464=CARTESIAN_POINT('',(510.,-8.48528137423857,233.214718625761));
#465=CARTESIAN_POINT('',(508.5,-8.48528137423857,233.214718625761));
#466=CARTESIAN_POINT('Origin',(510.,-8.48528137423857,231.514718625761));
#467=CARTESIAN_POINT('Origin',(508.5,-8.48528137423857,248.485281374239));
#468=CARTESIAN_POINT('',(507.,-8.48528137423857,250.185281374239));
#469=CARTESIAN_POINT('Origin',(507.,-8.48528137423857,248.485281374239));
#470=CARTESIAN_POINT('',(510.,-8.48528137423857,250.185281374239));
#471=CARTESIAN_POINT('',(508.5,-8.48528137423857,250.185281374239));
#472=CARTESIAN_POINT('Origin',(510.,-8.48528137423857,248.485281374239));
#473=CARTESIAN_POINT('Origin',(508.5,8.48528137423857,248.485281374239));
#474=CARTESIAN_POINT('',(507.,8.48528137423857,250.185281374239));
#475=CARTESIAN_POINT('Origin',(507.,8.48528137423857,248.485281374239));
#476=CARTESIAN_POINT('',(510.,8.48528137423857,250.185281374239));
#477=CARTESIAN_POINT('',(508.5,8.48528137423857,250.185281374239));
#478=CARTESIAN_POINT('Origin',(510.,8.48528137423857,248.485281374239));
#479=CARTESIAN_POINT('Origin',(509.,0.,240.));
#480=CARTESIAN_POINT('',(507.,-7.9602041944578E-16,246.5));
#481=CARTESIAN_POINT('Origin',(507.,0.,240.));
#482=CARTESIAN_POINT('',(510.,7.9602041944578E-16,246.5));
#483=CARTESIAN_POINT('',(509.,-7.9602041944578E-16,246.5));
#484=CARTESIAN_POINT('Origin',(510.,0.,240.));
#485=CARTESIAN_POINT('Origin',(507.,0.,240.));
#486=CARTESIAN_POINT('',(507.,-7.71527483462833E-16,246.3));
#487=CARTESIAN_POINT('Origin',(507.,0.,240.));
#488=CARTESIAN_POINT('Origin',(499.,0.,240.));
#489=CARTESIAN_POINT('',(492.,-7.71527483462833E-16,246.3));
#490=CARTESIAN_POINT('Origin',(492.,0.,240.));
#491=CARTESIAN_POINT('',(499.,-7.71527483462833E-16,246.3));
#492=CARTESIAN_POINT('',(499.,-7.71527483462833E-16,246.3));
#493=CARTESIAN_POINT('Origin',(507.,0.,240.));
#494=CARTESIAN_POINT('',(507.,-1.83697019872103E-15,255.));
#495=CARTESIAN_POINT('Origin',(507.,0.,240.));
#496=CARTESIAN_POINT('',(507.,-1.10218211923262E-15,249.));
#497=CARTESIAN_POINT('Origin',(507.,0.,240.));
#498=CARTESIAN_POINT('Origin',(508.5,0.,240.));
#499=CARTESIAN_POINT('',(510.,-1.83697019872103E-15,255.));
#500=CARTESIAN_POINT('Origin',(510.,0.,240.));
#501=CARTESIAN_POINT('',(508.5,-1.83697019872103E-15,255.));
#502=CARTESIAN_POINT('Origin',(510.,0.,240.));
#503=CARTESIAN_POINT('Origin',(499.5,0.,240.));
#504=CARTESIAN_POINT('',(499.5,-1.10218211923262E-15,249.));
#505=CARTESIAN_POINT('',(492.,-1.10218211923262E-15,249.));
#506=CARTESIAN_POINT('',(499.5,-1.10218211923262E-15,249.));
#507=CARTESIAN_POINT('Origin',(492.,0.,240.));
#508=CARTESIAN_POINT('Origin',(492.,0.,240.));
#509=UNCERTAINTY_MEASURE_WITH_UNIT(LENGTH_MEASURE(0.01),#513,
'DISTANCE_ACCURACY_VALUE',
'Maximum model space distance between geometric entities at asserted c
onnectivities');
#510=UNCERTAINTY_MEASURE_WITH_UNIT(LENGTH_MEASURE(0.01),#513,
'DISTANCE_ACCURACY_VALUE',
'Maximum model space distance between geometric entities at asserted c
onnectivities');
#511=(
GEOMETRIC_REPRESENTATION_CONTEXT(3)
GLOBAL_UNCERTAINTY_ASSIGNED_CONTEXT((#509))
GLOBAL_UNIT_ASSIGNED_CONTEXT((#513,#515,#516))
REPRESENTATION_CONTEXT('','3D')
);
#512=(
GEOMETRIC_REPRESENTATION_CONTEXT(3)
GLOBAL_UNCERTAINTY_ASSIGNED_CONTEXT((#510))
GLOBAL_UNIT_ASSIGNED_CONTEXT((#513,#515,#516))
REPRESENTATION_CONTEXT('','3D')
);
#513=(
LENGTH_UNIT()
NAMED_UNIT(*)
SI_UNIT(.MILLI.,.METRE.)
);
#514=(
LENGTH_UNIT()
NAMED_UNIT(*)
SI_UNIT($,.METRE.)
);
#515=(
NAMED_UNIT(*)
PLANE_ANGLE_UNIT()
SI_UNIT($,.RADIAN.)
);
#516=(
NAMED_UNIT(*)
SI_UNIT($,.STERADIAN.)
SOLID_ANGLE_UNIT()
);
#517=SHAPE_DEFINITION_REPRESENTATION(#518,#519);
#518=PRODUCT_DEFINITION_SHAPE('',$,#521);
#519=SHAPE_REPRESENTATION('',(#269),#511);
#520=PRODUCT_DEFINITION_CONTEXT('part definition',#525,'design');
#521=PRODUCT_DEFINITION('2026-08-13-18-20-14-269',
'EXPORT_TMP_PRINT_V012_P605_CapsuleSlipRingClamp_M12',#522,#520);
#522=PRODUCT_DEFINITION_FORMATION('',$,#527);
#523=PRODUCT_RELATED_PRODUCT_CATEGORY(
'EXPORT_TMP_PRINT_V012_P605_CapsuleSlipRingClamp_M12',
'EXPORT_TMP_PRINT_V012_P605_CapsuleSlipRingClamp_M12',(#527));
#524=APPLICATION_PROTOCOL_DEFINITION('international standard',
'automotive_design',2009,#525);
#525=APPLICATION_CONTEXT(
'Core Data for Automotive Mechanical Design Process');
#526=PRODUCT_CONTEXT('part definition',#525,'mechanical');
#527=PRODUCT('2026-08-13-18-20-14-269',
'EXPORT_TMP_PRINT_V012_P605_CapsuleSlipRingClamp_M12',$,(#526));
#528=PRESENTATION_STYLE_ASSIGNMENT((#529));
#529=SURFACE_STYLE_USAGE(.BOTH.,#530);
#530=SURFACE_SIDE_STYLE('',(#531));
#531=SURFACE_STYLE_FILL_AREA(#532);
#532=FILL_AREA_STYLE('Steel - Satin',(#533));
#533=FILL_AREA_STYLE_COLOUR('Steel - Satin',#534);
#534=COLOUR_RGB('Steel - Satin',0.627450980392157,0.627450980392157,0.627450980392157);
ENDSEC;
END-ISO-10303-21;
