ISO-10303-21;
HEADER;
/* Generated by software containing ST-Developer
 * from STEP Tools, Inc. (www.steptools.com) 
 */

FILE_DESCRIPTION(
/* description */ (''),
/* implementation_level */ '2;1');

FILE_NAME(
/* name */ 'PRINT_V009A_P411_NEMA17_LoadMount_B_CoverBosses.step',
/* time_stamp */ '2026-09-09T17:44:06+02:00',
/* author */ (''),
/* organization */ (''),
/* preprocessor_version */ 'ST-DEVELOPER v20.1',
/* originating_system */ 'Autodesk Translation Framework v15.8.0.0',
/* authorisation */ '');

FILE_SCHEMA (('AUTOMOTIVE_DESIGN { 1 0 10303 214 3 1 1 }'));
ENDSEC;

DATA;
#10=MECHANICAL_DESIGN_GEOMETRIC_PRESENTATION_REPRESENTATION('',(#13),#2087);
#11=SHAPE_REPRESENTATION_RELATIONSHIP('SRR','None',#2094,#12);
#12=ADVANCED_BREP_SHAPE_REPRESENTATION('',(#14),#2086);
#13=STYLED_ITEM('',(#2103),#14);
#14=MANIFOLD_SOLID_BREP(
'PRINT_V009A_P411_NEMA17_LoadMount_B_CoverBosses',#1260);
#15=FACE_BOUND('',#157,.T.);
#16=FACE_BOUND('',#158,.T.);
#17=FACE_BOUND('',#160,.T.);
#18=FACE_BOUND('',#161,.T.);
#19=FACE_BOUND('',#166,.T.);
#20=FACE_BOUND('',#168,.T.);
#21=FACE_BOUND('',#182,.T.);
#22=FACE_BOUND('',#183,.T.);
#23=FACE_BOUND('',#188,.T.);
#24=FACE_BOUND('',#189,.T.);
#25=FACE_BOUND('',#194,.T.);
#26=FACE_BOUND('',#195,.T.);
#27=FACE_BOUND('',#201,.T.);
#28=FACE_BOUND('',#202,.T.);
#29=FACE_BOUND('',#206,.T.);
#30=FACE_BOUND('',#207,.T.);
#31=FACE_BOUND('',#208,.T.);
#32=FACE_BOUND('',#209,.T.);
#33=FACE_BOUND('',#210,.T.);
#34=FACE_BOUND('',#223,.T.);
#35=FACE_BOUND('',#227,.T.);
#36=FACE_BOUND('',#233,.T.);
#37=FACE_BOUND('',#234,.T.);
#38=FACE_BOUND('',#235,.T.);
#39=FACE_BOUND('',#236,.T.);
#40=FACE_BOUND('',#237,.T.);
#41=FACE_BOUND('',#238,.T.);
#42=FACE_BOUND('',#239,.T.);
#43=FACE_BOUND('',#240,.T.);
#44=FACE_BOUND('',#241,.T.);
#45=PLANE('',#1280);
#46=PLANE('',#1281);
#47=PLANE('',#1282);
#48=PLANE('',#1283);
#49=PLANE('',#1284);
#50=PLANE('',#1285);
#51=PLANE('',#1292);
#52=PLANE('',#1293);
#53=PLANE('',#1294);
#54=PLANE('',#1295);
#55=PLANE('',#1296);
#56=PLANE('',#1297);
#57=PLANE('',#1298);
#58=PLANE('',#1299);
#59=PLANE('',#1300);
#60=PLANE('',#1313);
#61=PLANE('',#1314);
#62=PLANE('',#1317);
#63=PLANE('',#1318);
#64=PLANE('',#1319);
#65=PLANE('',#1320);
#66=PLANE('',#1321);
#67=PLANE('',#1325);
#68=PLANE('',#1326);
#69=PLANE('',#1329);
#70=PLANE('',#1330);
#71=PLANE('',#1331);
#72=PLANE('',#1332);
#73=PLANE('',#1333);
#74=PLANE('',#1334);
#75=PLANE('',#1335);
#76=PLANE('',#1340);
#77=PLANE('',#1369);
#78=PLANE('',#1373);
#79=PLANE('',#1374);
#80=PLANE('',#1378);
#81=PLANE('',#1379);
#82=PLANE('',#1380);
#83=PLANE('',#1381);
#84=PLANE('',#1382);
#85=PLANE('',#1383);
#86=PLANE('',#1384);
#87=FACE_OUTER_BOUND('',#150,.T.);
#88=FACE_OUTER_BOUND('',#151,.T.);
#89=FACE_OUTER_BOUND('',#152,.T.);
#90=FACE_OUTER_BOUND('',#153,.T.);
#91=FACE_OUTER_BOUND('',#154,.T.);
#92=FACE_OUTER_BOUND('',#155,.T.);
#93=FACE_OUTER_BOUND('',#156,.T.);
#94=FACE_OUTER_BOUND('',#159,.T.);
#95=FACE_OUTER_BOUND('',#162,.T.);
#96=FACE_OUTER_BOUND('',#163,.T.);
#97=FACE_OUTER_BOUND('',#164,.T.);
#98=FACE_OUTER_BOUND('',#165,.T.);
#99=FACE_OUTER_BOUND('',#167,.T.);
#100=FACE_OUTER_BOUND('',#169,.T.);
#101=FACE_OUTER_BOUND('',#170,.T.);
#102=FACE_OUTER_BOUND('',#171,.T.);
#103=FACE_OUTER_BOUND('',#172,.T.);
#104=FACE_OUTER_BOUND('',#173,.T.);
#105=FACE_OUTER_BOUND('',#174,.T.);
#106=FACE_OUTER_BOUND('',#175,.T.);
#107=FACE_OUTER_BOUND('',#176,.T.);
#108=FACE_OUTER_BOUND('',#177,.T.);
#109=FACE_OUTER_BOUND('',#178,.T.);
#110=FACE_OUTER_BOUND('',#179,.T.);
#111=FACE_OUTER_BOUND('',#180,.T.);
#112=FACE_OUTER_BOUND('',#181,.T.);
#113=FACE_OUTER_BOUND('',#184,.T.);
#114=FACE_OUTER_BOUND('',#185,.T.);
#115=FACE_OUTER_BOUND('',#186,.T.);
#116=FACE_OUTER_BOUND('',#187,.T.);
#117=FACE_OUTER_BOUND('',#190,.T.);
#118=FACE_OUTER_BOUND('',#191,.T.);
#119=FACE_OUTER_BOUND('',#192,.T.);
#120=FACE_OUTER_BOUND('',#193,.T.);
#121=FACE_OUTER_BOUND('',#196,.T.);
#122=FACE_OUTER_BOUND('',#197,.T.);
#123=FACE_OUTER_BOUND('',#198,.T.);
#124=FACE_OUTER_BOUND('',#199,.T.);
#125=FACE_OUTER_BOUND('',#200,.T.);
#126=FACE_OUTER_BOUND('',#203,.T.);
#127=FACE_OUTER_BOUND('',#204,.T.);
#128=FACE_OUTER_BOUND('',#205,.T.);
#129=FACE_OUTER_BOUND('',#211,.T.);
#130=FACE_OUTER_BOUND('',#212,.T.);
#131=FACE_OUTER_BOUND('',#213,.T.);
#132=FACE_OUTER_BOUND('',#214,.T.);
#133=FACE_OUTER_BOUND('',#215,.T.);
#134=FACE_OUTER_BOUND('',#216,.T.);
#135=FACE_OUTER_BOUND('',#217,.T.);
#136=FACE_OUTER_BOUND('',#218,.T.);
#137=FACE_OUTER_BOUND('',#219,.T.);
#138=FACE_OUTER_BOUND('',#220,.T.);
#139=FACE_OUTER_BOUND('',#221,.T.);
#140=FACE_OUTER_BOUND('',#222,.T.);
#141=FACE_OUTER_BOUND('',#224,.T.);
#142=FACE_OUTER_BOUND('',#225,.T.);
#143=FACE_OUTER_BOUND('',#226,.T.);
#144=FACE_OUTER_BOUND('',#228,.T.);
#145=FACE_OUTER_BOUND('',#229,.T.);
#146=FACE_OUTER_BOUND('',#230,.T.);
#147=FACE_OUTER_BOUND('',#231,.T.);
#148=FACE_OUTER_BOUND('',#232,.T.);
#149=FACE_OUTER_BOUND('',#242,.T.);
#150=EDGE_LOOP('',(#828,#829,#830,#831));
#151=EDGE_LOOP('',(#832,#833,#834,#835));
#152=EDGE_LOOP('',(#836,#837,#838,#839,#840));
#153=EDGE_LOOP('',(#841,#842,#843,#844));
#154=EDGE_LOOP('',(#845,#846,#847,#848,#849));
#155=EDGE_LOOP('',(#850,#851,#852,#853));
#156=EDGE_LOOP('',(#854,#855,#856,#857));
#157=EDGE_LOOP('',(#858));
#158=EDGE_LOOP('',(#859));
#159=EDGE_LOOP('',(#860,#861,#862,#863));
#160=EDGE_LOOP('',(#864));
#161=EDGE_LOOP('',(#865));
#162=EDGE_LOOP('',(#866,#867,#868,#869));
#163=EDGE_LOOP('',(#870,#871,#872,#873));
#164=EDGE_LOOP('',(#874,#875,#876,#877,#878,#879));
#165=EDGE_LOOP('',(#880,#881,#882,#883,#884,#885));
#166=EDGE_LOOP('',(#886));
#167=EDGE_LOOP('',(#887,#888,#889,#890,#891,#892));
#168=EDGE_LOOP('',(#893));
#169=EDGE_LOOP('',(#894,#895,#896,#897));
#170=EDGE_LOOP('',(#898,#899,#900,#901));
#171=EDGE_LOOP('',(#902,#903,#904,#905));
#172=EDGE_LOOP('',(#906,#907,#908,#909,#910,#911));
#173=EDGE_LOOP('',(#912,#913,#914,#915,#916));
#174=EDGE_LOOP('',(#917,#918,#919,#920,#921,#922));
#175=EDGE_LOOP('',(#923,#924,#925,#926));
#176=EDGE_LOOP('',(#927,#928,#929,#930));
#177=EDGE_LOOP('',(#931,#932,#933,#934));
#178=EDGE_LOOP('',(#935,#936,#937,#938));
#179=EDGE_LOOP('',(#939,#940,#941,#942,#943,#944,#945,#946,#947,#948));
#180=EDGE_LOOP('',(#949,#950,#951));
#181=EDGE_LOOP('',(#952,#953,#954,#955,#956,#957,#958,#959,#960,#961));
#182=EDGE_LOOP('',(#962));
#183=EDGE_LOOP('',(#963));
#184=EDGE_LOOP('',(#964,#965,#966,#967,#968));
#185=EDGE_LOOP('',(#969,#970,#971,#972));
#186=EDGE_LOOP('',(#973,#974,#975,#976,#977,#978,#979));
#187=EDGE_LOOP('',(#980,#981,#982,#983,#984));
#188=EDGE_LOOP('',(#985));
#189=EDGE_LOOP('',(#986));
#190=EDGE_LOOP('',(#987,#988,#989,#990,#991,#992,#993,#994));
#191=EDGE_LOOP('',(#995,#996,#997,#998,#999,#1000,#1001));
#192=EDGE_LOOP('',(#1002,#1003,#1004));
#193=EDGE_LOOP('',(#1005,#1006,#1007,#1008,#1009,#1010));
#194=EDGE_LOOP('',(#1011));
#195=EDGE_LOOP('',(#1012));
#196=EDGE_LOOP('',(#1013,#1014,#1015,#1016,#1017,#1018,#1019,#1020,#1021,
#1022));
#197=EDGE_LOOP('',(#1023,#1024,#1025,#1026));
#198=EDGE_LOOP('',(#1027,#1028,#1029,#1030));
#199=EDGE_LOOP('',(#1031,#1032,#1033,#1034));
#200=EDGE_LOOP('',(#1035,#1036,#1037,#1038,#1039));
#201=EDGE_LOOP('',(#1040));
#202=EDGE_LOOP('',(#1041));
#203=EDGE_LOOP('',(#1042,#1043,#1044,#1045,#1046));
#204=EDGE_LOOP('',(#1047,#1048,#1049,#1050));
#205=EDGE_LOOP('',(#1051,#1052,#1053,#1054,#1055,#1056,#1057,#1058,#1059,
#1060,#1061,#1062,#1063,#1064,#1065,#1066));
#206=EDGE_LOOP('',(#1067));
#207=EDGE_LOOP('',(#1068));
#208=EDGE_LOOP('',(#1069));
#209=EDGE_LOOP('',(#1070));
#210=EDGE_LOOP('',(#1071));
#211=EDGE_LOOP('',(#1072,#1073,#1074,#1075,#1076,#1077,#1078,#1079));
#212=EDGE_LOOP('',(#1080,#1081,#1082,#1083));
#213=EDGE_LOOP('',(#1084,#1085,#1086,#1087));
#214=EDGE_LOOP('',(#1088,#1089,#1090,#1091));
#215=EDGE_LOOP('',(#1092,#1093,#1094,#1095));
#216=EDGE_LOOP('',(#1096,#1097,#1098,#1099));
#217=EDGE_LOOP('',(#1100,#1101,#1102,#1103));
#218=EDGE_LOOP('',(#1104,#1105,#1106,#1107));
#219=EDGE_LOOP('',(#1108,#1109,#1110,#1111));
#220=EDGE_LOOP('',(#1112,#1113,#1114,#1115,#1116));
#221=EDGE_LOOP('',(#1117,#1118,#1119,#1120,#1121));
#222=EDGE_LOOP('',(#1122));
#223=EDGE_LOOP('',(#1123));
#224=EDGE_LOOP('',(#1124,#1125,#1126));
#225=EDGE_LOOP('',(#1127,#1128,#1129,#1130,#1131));
#226=EDGE_LOOP('',(#1132));
#227=EDGE_LOOP('',(#1133));
#228=EDGE_LOOP('',(#1134,#1135,#1136));
#229=EDGE_LOOP('',(#1137,#1138,#1139,#1140,#1141,#1142));
#230=EDGE_LOOP('',(#1143,#1144,#1145,#1146,#1147,#1148));
#231=EDGE_LOOP('',(#1149,#1150,#1151,#1152,#1153,#1154,#1155,#1156));
#232=EDGE_LOOP('',(#1157,#1158,#1159,#1160));
#233=EDGE_LOOP('',(#1161));
#234=EDGE_LOOP('',(#1162));
#235=EDGE_LOOP('',(#1163));
#236=EDGE_LOOP('',(#1164));
#237=EDGE_LOOP('',(#1165));
#238=EDGE_LOOP('',(#1166));
#239=EDGE_LOOP('',(#1167));
#240=EDGE_LOOP('',(#1168));
#241=EDGE_LOOP('',(#1169));
#242=EDGE_LOOP('',(#1170,#1171,#1172,#1173,#1174,#1175));
#243=LINE('',#1740,#369);
#244=LINE('',#1746,#370);
#245=LINE('',#1751,#371);
#246=LINE('',#1753,#372);
#247=LINE('',#1755,#373);
#248=LINE('',#1757,#374);
#249=LINE('',#1758,#375);
#250=LINE('',#1761,#376);
#251=LINE('',#1763,#377);
#252=LINE('',#1764,#378);
#253=LINE('',#1767,#379);
#254=LINE('',#1769,#380);
#255=LINE('',#1771,#381);
#256=LINE('',#1772,#382);
#257=LINE('',#1774,#383);
#258=LINE('',#1775,#384);
#259=LINE('',#1777,#385);
#260=LINE('',#1783,#386);
#261=LINE('',#1790,#387);
#262=LINE('',#1793,#388);
#263=LINE('',#1796,#389);
#264=LINE('',#1798,#390);
#265=LINE('',#1800,#391);
#266=LINE('',#1802,#392);
#267=LINE('',#1803,#393);
#268=LINE('',#1806,#394);
#269=LINE('',#1808,#395);
#270=LINE('',#1810,#396);
#271=LINE('',#1811,#397);
#272=LINE('',#1814,#398);
#273=LINE('',#1816,#399);
#274=LINE('',#1818,#400);
#275=LINE('',#1819,#401);
#276=LINE('',#1821,#402);
#277=LINE('',#1822,#403);
#278=LINE('',#1826,#404);
#279=LINE('',#1827,#405);
#280=LINE('',#1828,#406);
#281=LINE('',#1832,#407);
#282=LINE('',#1834,#408);
#283=LINE('',#1835,#409);
#284=LINE('',#1837,#410);
#285=LINE('',#1840,#411);
#286=LINE('',#1842,#412);
#287=LINE('',#1844,#413);
#288=LINE('',#1845,#414);
#289=LINE('',#1850,#415);
#290=LINE('',#1856,#416);
#291=LINE('',#1862,#417);
#292=LINE('',#1868,#418);
#293=LINE('',#1873,#419);
#294=LINE('',#1875,#420);
#295=LINE('',#1877,#421);
#296=LINE('',#1879,#422);
#297=LINE('',#1881,#423);
#298=LINE('',#1883,#424);
#299=LINE('',#1885,#425);
#300=LINE('',#1887,#426);
#301=LINE('',#1889,#427);
#302=LINE('',#1890,#428);
#303=LINE('',#1897,#429);
#304=LINE('',#1899,#430);
#305=LINE('',#1900,#431);
#306=LINE('',#1902,#432);
#307=LINE('',#1903,#433);
#308=LINE('',#1906,#434);
#309=LINE('',#1907,#435);
#310=LINE('',#1909,#436);
#311=LINE('',#1912,#437);
#312=LINE('',#1913,#438);
#313=LINE('',#1915,#439);
#314=LINE('',#1916,#440);
#315=LINE('',#1920,#441);
#316=LINE('',#1926,#442);
#317=LINE('',#1928,#443);
#318=LINE('',#1930,#444);
#319=LINE('',#1932,#445);
#320=LINE('',#1934,#446);
#321=LINE('',#1936,#447);
#322=LINE('',#1937,#448);
#323=LINE('',#1943,#449);
#324=LINE('',#1948,#450);
#325=LINE('',#1950,#451);
#326=LINE('',#1952,#452);
#327=LINE('',#1953,#453);
#328=LINE('',#1954,#454);
#329=LINE('',#1957,#455);
#330=LINE('',#1959,#456);
#331=LINE('',#1960,#457);
#332=LINE('',#1962,#458);
#333=LINE('',#1963,#459);
#334=LINE('',#1965,#460);
#335=LINE('',#1967,#461);
#336=LINE('',#1968,#462);
#337=LINE('',#1971,#463);
#338=LINE('',#1972,#464);
#339=LINE('',#1975,#465);
#340=LINE('',#1976,#466);
#341=LINE('',#1978,#467);
#342=LINE('',#1987,#468);
#343=LINE('',#1990,#469);
#344=LINE('',#1991,#470);
#345=LINE('',#1994,#471);
#346=LINE('',#1997,#472);
#347=LINE('',#2010,#473);
#348=LINE('',#2016,#474);
#349=LINE('',#2022,#475);
#350=LINE('',#2026,#476);
#351=LINE('',#2030,#477);
#352=LINE('',#2034,#478);
#353=LINE('',#2038,#479);
#354=LINE('',#2042,#480);
#355=LINE('',#2050,#481);
#356=LINE('',#2055,#482);
#357=LINE('',#2056,#483);
#358=LINE('',#2060,#484);
#359=LINE('',#2065,#485);
#360=LINE('',#2066,#486);
#361=LINE('',#2069,#487);
#362=LINE('',#2071,#488);
#363=LINE('',#2072,#489);
#364=LINE('',#2075,#490);
#365=LINE('',#2077,#491);
#366=LINE('',#2078,#492);
#367=LINE('',#2080,#493);
#368=LINE('',#2082,#494);
#369=VECTOR('',#1391,2.15);
#370=VECTOR('',#1398,2.15);
#371=VECTOR('',#1403,10.);
#372=VECTOR('',#1404,10.);
#373=VECTOR('',#1405,10.);
#374=VECTOR('',#1406,10.);
#375=VECTOR('',#1407,10.);
#376=VECTOR('',#1410,10.);
#377=VECTOR('',#1411,10.);
#378=VECTOR('',#1412,10.);
#379=VECTOR('',#1415,10.);
#380=VECTOR('',#1416,10.);
#381=VECTOR('',#1417,10.);
#382=VECTOR('',#1418,10.);
#383=VECTOR('',#1421,10.);
#384=VECTOR('',#1422,10.);
#385=VECTOR('',#1425,10.);
#386=VECTOR('',#1432,2.15000000000003);
#387=VECTOR('',#1439,10.);
#388=VECTOR('',#1442,10.);
#389=VECTOR('',#1445,10.);
#390=VECTOR('',#1446,10.);
#391=VECTOR('',#1447,10.);
#392=VECTOR('',#1448,10.);
#393=VECTOR('',#1449,10.);
#394=VECTOR('',#1452,10.);
#395=VECTOR('',#1453,10.);
#396=VECTOR('',#1454,10.);
#397=VECTOR('',#1455,10.);
#398=VECTOR('',#1458,10.);
#399=VECTOR('',#1459,10.);
#400=VECTOR('',#1460,10.);
#401=VECTOR('',#1461,10.);
#402=VECTOR('',#1464,10.);
#403=VECTOR('',#1465,10.);
#404=VECTOR('',#1468,10.);
#405=VECTOR('',#1469,10.);
#406=VECTOR('',#1470,10.);
#407=VECTOR('',#1475,10.);
#408=VECTOR('',#1476,10.);
#409=VECTOR('',#1477,10.);
#410=VECTOR('',#1480,10.);
#411=VECTOR('',#1483,10.);
#412=VECTOR('',#1484,10.);
#413=VECTOR('',#1485,10.);
#414=VECTOR('',#1486,10.);
#415=VECTOR('',#1491,2.15000000000003);
#416=VECTOR('',#1498,2.15000000000003);
#417=VECTOR('',#1505,2.15000000000003);
#418=VECTOR('',#1512,2.15000000000003);
#419=VECTOR('',#1517,10.);
#420=VECTOR('',#1518,10.);
#421=VECTOR('',#1519,10.);
#422=VECTOR('',#1520,10.);
#423=VECTOR('',#1521,10.);
#424=VECTOR('',#1522,10.);
#425=VECTOR('',#1523,10.);
#426=VECTOR('',#1524,10.);
#427=VECTOR('',#1525,10.);
#428=VECTOR('',#1526,10.);
#429=VECTOR('',#1535,10.);
#430=VECTOR('',#1536,10.);
#431=VECTOR('',#1537,10.);
#432=VECTOR('',#1538,10.);
#433=VECTOR('',#1539,10.);
#434=VECTOR('',#1542,10.);
#435=VECTOR('',#1543,10.);
#436=VECTOR('',#1546,10.);
#437=VECTOR('',#1549,10.);
#438=VECTOR('',#1550,10.);
#439=VECTOR('',#1551,10.);
#440=VECTOR('',#1552,10.);
#441=VECTOR('',#1557,1.7);
#442=VECTOR('',#1564,10.);
#443=VECTOR('',#1565,10.);
#444=VECTOR('',#1566,10.);
#445=VECTOR('',#1567,10.);
#446=VECTOR('',#1568,10.);
#447=VECTOR('',#1569,10.);
#448=VECTOR('',#1570,10.);
#449=VECTOR('',#1575,10.);
#450=VECTOR('',#1580,10.);
#451=VECTOR('',#1581,10.);
#452=VECTOR('',#1582,10.);
#453=VECTOR('',#1583,10.);
#454=VECTOR('',#1584,10.);
#455=VECTOR('',#1587,10.);
#456=VECTOR('',#1588,10.);
#457=VECTOR('',#1589,10.);
#458=VECTOR('',#1590,10.);
#459=VECTOR('',#1591,10.);
#460=VECTOR('',#1592,10.);
#461=VECTOR('',#1593,10.);
#462=VECTOR('',#1594,10.);
#463=VECTOR('',#1597,10.);
#464=VECTOR('',#1598,10.);
#465=VECTOR('',#1601,10.);
#466=VECTOR('',#1602,10.);
#467=VECTOR('',#1605,10.);
#468=VECTOR('',#1620,10.);
#469=VECTOR('',#1623,10.);
#470=VECTOR('',#1624,10.);
#471=VECTOR('',#1627,10.);
#472=VECTOR('',#1630,10.);
#473=VECTOR('',#1643,1.7);
#474=VECTOR('',#1650,1.7);
#475=VECTOR('',#1657,1.7);
#476=VECTOR('',#1662,1.7);
#477=VECTOR('',#1667,1.7);
#478=VECTOR('',#1672,1.7);
#479=VECTOR('',#1677,1.7);
#480=VECTOR('',#1682,11.2);
#481=VECTOR('',#1695,5.);
#482=VECTOR('',#1702,10.);
#483=VECTOR('',#1703,10.);
#484=VECTOR('',#1708,5.);
#485=VECTOR('',#1715,10.);
#486=VECTOR('',#1716,10.);
#487=VECTOR('',#1719,10.);
#488=VECTOR('',#1720,10.);
#489=VECTOR('',#1721,10.);
#490=VECTOR('',#1724,10.);
#491=VECTOR('',#1725,10.);
#492=VECTOR('',#1726,10.);
#493=VECTOR('',#1729,10.);
#494=VECTOR('',#1732,10.);
#495=CIRCLE('',#1275,2.15);
#496=CIRCLE('',#1276,2.15);
#497=CIRCLE('',#1278,2.15);
#498=CIRCLE('',#1279,2.15);
#499=CIRCLE('',#1287,2.15000000000003);
#500=CIRCLE('',#1288,2.15000000000003);
#501=CIRCLE('',#1290,2.15000000000003);
#502=CIRCLE('',#1291,2.15000000000003);
#503=CIRCLE('',#1302,2.15000000000003);
#504=CIRCLE('',#1303,2.15000000000003);
#505=CIRCLE('',#1305,2.15000000000003);
#506=CIRCLE('',#1306,2.15000000000003);
#507=CIRCLE('',#1308,2.15000000000003);
#508=CIRCLE('',#1309,2.15000000000003);
#509=CIRCLE('',#1311,2.15000000000003);
#510=CIRCLE('',#1312,2.15000000000003);
#511=CIRCLE('',#1315,1.7);
#512=CIRCLE('',#1316,1.7);
#513=CIRCLE('',#1323,1.7);
#514=CIRCLE('',#1324,1.7);
#515=CIRCLE('',#1327,1.7);
#516=CIRCLE('',#1328,1.7);
#517=CIRCLE('',#1336,5.);
#518=CIRCLE('',#1337,1.7);
#519=CIRCLE('',#1339,5.);
#520=CIRCLE('',#1341,5.);
#521=CIRCLE('',#1342,5.);
#522=CIRCLE('',#1343,5.);
#523=CIRCLE('',#1344,11.2);
#524=CIRCLE('',#1345,1.7);
#525=CIRCLE('',#1346,1.7);
#526=CIRCLE('',#1347,1.7);
#527=CIRCLE('',#1348,1.7);
#528=CIRCLE('',#1350,1.7);
#529=CIRCLE('',#1352,1.7);
#530=CIRCLE('',#1353,1.7);
#531=CIRCLE('',#1355,1.7);
#532=CIRCLE('',#1356,1.7);
#533=CIRCLE('',#1358,1.7);
#534=CIRCLE('',#1360,1.7);
#535=CIRCLE('',#1362,1.7);
#536=CIRCLE('',#1364,1.7);
#537=CIRCLE('',#1366,11.2);
#538=CIRCLE('',#1368,5.);
#539=CIRCLE('',#1371,5.);
#540=CIRCLE('',#1372,5.);
#541=CIRCLE('',#1376,5.);
#542=CIRCLE('',#1377,5.);
#543=VERTEX_POINT('',#1737);
#544=VERTEX_POINT('',#1739);
#545=VERTEX_POINT('',#1743);
#546=VERTEX_POINT('',#1745);
#547=VERTEX_POINT('',#1749);
#548=VERTEX_POINT('',#1750);
#549=VERTEX_POINT('',#1752);
#550=VERTEX_POINT('',#1754);
#551=VERTEX_POINT('',#1756);
#552=VERTEX_POINT('',#1760);
#553=VERTEX_POINT('',#1762);
#554=VERTEX_POINT('',#1766);
#555=VERTEX_POINT('',#1768);
#556=VERTEX_POINT('',#1770);
#557=VERTEX_POINT('',#1780);
#558=VERTEX_POINT('',#1782);
#559=VERTEX_POINT('',#1786);
#560=VERTEX_POINT('',#1787);
#561=VERTEX_POINT('',#1789);
#562=VERTEX_POINT('',#1791);
#563=VERTEX_POINT('',#1795);
#564=VERTEX_POINT('',#1797);
#565=VERTEX_POINT('',#1799);
#566=VERTEX_POINT('',#1801);
#567=VERTEX_POINT('',#1805);
#568=VERTEX_POINT('',#1807);
#569=VERTEX_POINT('',#1809);
#570=VERTEX_POINT('',#1813);
#571=VERTEX_POINT('',#1815);
#572=VERTEX_POINT('',#1817);
#573=VERTEX_POINT('',#1824);
#574=VERTEX_POINT('',#1825);
#575=VERTEX_POINT('',#1831);
#576=VERTEX_POINT('',#1833);
#577=VERTEX_POINT('',#1839);
#578=VERTEX_POINT('',#1841);
#579=VERTEX_POINT('',#1843);
#580=VERTEX_POINT('',#1847);
#581=VERTEX_POINT('',#1849);
#582=VERTEX_POINT('',#1853);
#583=VERTEX_POINT('',#1855);
#584=VERTEX_POINT('',#1859);
#585=VERTEX_POINT('',#1861);
#586=VERTEX_POINT('',#1865);
#587=VERTEX_POINT('',#1867);
#588=VERTEX_POINT('',#1871);
#589=VERTEX_POINT('',#1872);
#590=VERTEX_POINT('',#1874);
#591=VERTEX_POINT('',#1876);
#592=VERTEX_POINT('',#1878);
#593=VERTEX_POINT('',#1880);
#594=VERTEX_POINT('',#1882);
#595=VERTEX_POINT('',#1884);
#596=VERTEX_POINT('',#1886);
#597=VERTEX_POINT('',#1888);
#598=VERTEX_POINT('',#1892);
#599=VERTEX_POINT('',#1896);
#600=VERTEX_POINT('',#1898);
#601=VERTEX_POINT('',#1901);
#602=VERTEX_POINT('',#1905);
#603=VERTEX_POINT('',#1911);
#604=VERTEX_POINT('',#1914);
#605=VERTEX_POINT('',#1919);
#606=VERTEX_POINT('',#1924);
#607=VERTEX_POINT('',#1925);
#608=VERTEX_POINT('',#1927);
#609=VERTEX_POINT('',#1929);
#610=VERTEX_POINT('',#1931);
#611=VERTEX_POINT('',#1933);
#612=VERTEX_POINT('',#1935);
#613=VERTEX_POINT('',#1939);
#614=VERTEX_POINT('',#1940);
#615=VERTEX_POINT('',#1942);
#616=VERTEX_POINT('',#1946);
#617=VERTEX_POINT('',#1947);
#618=VERTEX_POINT('',#1949);
#619=VERTEX_POINT('',#1951);
#620=VERTEX_POINT('',#1956);
#621=VERTEX_POINT('',#1958);
#622=VERTEX_POINT('',#1961);
#623=VERTEX_POINT('',#1964);
#624=VERTEX_POINT('',#1966);
#625=VERTEX_POINT('',#1970);
#626=VERTEX_POINT('',#1974);
#627=VERTEX_POINT('',#1986);
#628=VERTEX_POINT('',#1988);
#629=VERTEX_POINT('',#1993);
#630=VERTEX_POINT('',#1995);
#631=VERTEX_POINT('',#1998);
#632=VERTEX_POINT('',#2000);
#633=VERTEX_POINT('',#2002);
#634=VERTEX_POINT('',#2004);
#635=VERTEX_POINT('',#2006);
#636=VERTEX_POINT('',#2009);
#637=VERTEX_POINT('',#2013);
#638=VERTEX_POINT('',#2015);
#639=VERTEX_POINT('',#2019);
#640=VERTEX_POINT('',#2021);
#641=VERTEX_POINT('',#2025);
#642=VERTEX_POINT('',#2029);
#643=VERTEX_POINT('',#2033);
#644=VERTEX_POINT('',#2037);
#645=VERTEX_POINT('',#2041);
#646=VERTEX_POINT('',#2048);
#647=VERTEX_POINT('',#2054);
#648=VERTEX_POINT('',#2058);
#649=VERTEX_POINT('',#2064);
#650=VERTEX_POINT('',#2068);
#651=VERTEX_POINT('',#2070);
#652=VERTEX_POINT('',#2074);
#653=VERTEX_POINT('',#2076);
#654=EDGE_CURVE('',#543,#543,#495,.T.);
#655=EDGE_CURVE('',#543,#544,#243,.T.);
#656=EDGE_CURVE('',#544,#544,#496,.T.);
#657=EDGE_CURVE('',#545,#545,#497,.T.);
#658=EDGE_CURVE('',#545,#546,#244,.T.);
#659=EDGE_CURVE('',#546,#546,#498,.T.);
#660=EDGE_CURVE('',#547,#548,#245,.T.);
#661=EDGE_CURVE('',#548,#549,#246,.T.);
#662=EDGE_CURVE('',#550,#549,#247,.T.);
#663=EDGE_CURVE('',#551,#550,#248,.T.);
#664=EDGE_CURVE('',#547,#551,#249,.T.);
#665=EDGE_CURVE('',#551,#552,#250,.T.);
#666=EDGE_CURVE('',#553,#552,#251,.T.);
#667=EDGE_CURVE('',#553,#547,#252,.T.);
#668=EDGE_CURVE('',#554,#553,#253,.T.);
#669=EDGE_CURVE('',#555,#552,#254,.T.);
#670=EDGE_CURVE('',#556,#555,#255,.T.);
#671=EDGE_CURVE('',#554,#556,#256,.T.);
#672=EDGE_CURVE('',#548,#554,#257,.T.);
#673=EDGE_CURVE('',#549,#556,#258,.T.);
#674=EDGE_CURVE('',#550,#555,#259,.T.);
#675=EDGE_CURVE('',#557,#557,#499,.T.);
#676=EDGE_CURVE('',#557,#558,#260,.T.);
#677=EDGE_CURVE('',#558,#558,#500,.T.);
#678=EDGE_CURVE('',#559,#560,#501,.T.);
#679=EDGE_CURVE('',#561,#559,#261,.T.);
#680=EDGE_CURVE('',#562,#561,#502,.T.);
#681=EDGE_CURVE('',#560,#562,#262,.T.);
#682=EDGE_CURVE('',#563,#559,#263,.T.);
#683=EDGE_CURVE('',#564,#563,#264,.T.);
#684=EDGE_CURVE('',#565,#564,#265,.T.);
#685=EDGE_CURVE('',#565,#566,#266,.T.);
#686=EDGE_CURVE('',#566,#561,#267,.T.);
#687=EDGE_CURVE('',#566,#567,#268,.T.);
#688=EDGE_CURVE('',#567,#568,#269,.T.);
#689=EDGE_CURVE('',#569,#568,#270,.T.);
#690=EDGE_CURVE('',#562,#569,#271,.T.);
#691=EDGE_CURVE('',#560,#570,#272,.T.);
#692=EDGE_CURVE('',#571,#570,#273,.T.);
#693=EDGE_CURVE('',#572,#571,#274,.T.);
#694=EDGE_CURVE('',#563,#572,#275,.T.);
#695=EDGE_CURVE('',#568,#571,#276,.T.);
#696=EDGE_CURVE('',#570,#569,#277,.T.);
#697=EDGE_CURVE('',#573,#574,#278,.T.);
#698=EDGE_CURVE('',#573,#565,#279,.T.);
#699=EDGE_CURVE('',#574,#564,#280,.T.);
#700=EDGE_CURVE('',#567,#575,#281,.T.);
#701=EDGE_CURVE('',#576,#575,#282,.T.);
#702=EDGE_CURVE('',#572,#576,#283,.T.);
#703=EDGE_CURVE('',#574,#576,#284,.T.);
#704=EDGE_CURVE('',#575,#577,#285,.T.);
#705=EDGE_CURVE('',#577,#578,#286,.T.);
#706=EDGE_CURVE('',#579,#578,#287,.T.);
#707=EDGE_CURVE('',#574,#579,#288,.T.);
#708=EDGE_CURVE('',#580,#580,#503,.T.);
#709=EDGE_CURVE('',#580,#581,#289,.T.);
#710=EDGE_CURVE('',#581,#581,#504,.T.);
#711=EDGE_CURVE('',#582,#582,#505,.T.);
#712=EDGE_CURVE('',#582,#583,#290,.T.);
#713=EDGE_CURVE('',#583,#583,#506,.T.);
#714=EDGE_CURVE('',#584,#584,#507,.T.);
#715=EDGE_CURVE('',#584,#585,#291,.T.);
#716=EDGE_CURVE('',#585,#585,#508,.T.);
#717=EDGE_CURVE('',#586,#586,#509,.T.);
#718=EDGE_CURVE('',#586,#587,#292,.T.);
#719=EDGE_CURVE('',#587,#587,#510,.T.);
#720=EDGE_CURVE('',#588,#589,#293,.T.);
#721=EDGE_CURVE('',#590,#588,#294,.T.);
#722=EDGE_CURVE('',#591,#590,#295,.T.);
#723=EDGE_CURVE('',#592,#591,#296,.T.);
#724=EDGE_CURVE('',#592,#593,#297,.T.);
#725=EDGE_CURVE('',#594,#593,#298,.T.);
#726=EDGE_CURVE('',#595,#594,#299,.T.);
#727=EDGE_CURVE('',#596,#595,#300,.T.);
#728=EDGE_CURVE('',#597,#596,#301,.T.);
#729=EDGE_CURVE('',#597,#589,#302,.T.);
#730=EDGE_CURVE('',#589,#598,#511,.T.);
#731=EDGE_CURVE('',#598,#597,#512,.T.);
#732=EDGE_CURVE('',#599,#592,#303,.T.);
#733=EDGE_CURVE('',#600,#599,#304,.T.);
#734=EDGE_CURVE('',#577,#600,#305,.T.);
#735=EDGE_CURVE('',#601,#573,#306,.T.);
#736=EDGE_CURVE('',#592,#601,#307,.T.);
#737=EDGE_CURVE('',#602,#579,#308,.T.);
#738=EDGE_CURVE('',#601,#602,#309,.T.);
#739=EDGE_CURVE('',#593,#602,#310,.T.);
#740=EDGE_CURVE('',#595,#603,#311,.T.);
#741=EDGE_CURVE('',#578,#594,#312,.T.);
#742=EDGE_CURVE('',#604,#600,#313,.T.);
#743=EDGE_CURVE('',#603,#604,#314,.T.);
#744=EDGE_CURVE('',#598,#605,#315,.T.);
#745=EDGE_CURVE('',#605,#605,#513,.T.);
#746=EDGE_CURVE('',#588,#596,#514,.T.);
#747=EDGE_CURVE('',#606,#607,#316,.T.);
#748=EDGE_CURVE('',#608,#606,#317,.T.);
#749=EDGE_CURVE('',#609,#608,#318,.T.);
#750=EDGE_CURVE('',#610,#609,#319,.T.);
#751=EDGE_CURVE('',#610,#611,#320,.T.);
#752=EDGE_CURVE('',#612,#611,#321,.T.);
#753=EDGE_CURVE('',#607,#612,#322,.T.);
#754=EDGE_CURVE('',#613,#614,#515,.T.);
#755=EDGE_CURVE('',#613,#615,#323,.T.);
#756=EDGE_CURVE('',#614,#615,#516,.T.);
#757=EDGE_CURVE('',#616,#617,#324,.T.);
#758=EDGE_CURVE('',#616,#618,#325,.T.);
#759=EDGE_CURVE('',#618,#619,#326,.T.);
#760=EDGE_CURVE('',#619,#610,#327,.T.);
#761=EDGE_CURVE('',#617,#609,#328,.T.);
#762=EDGE_CURVE('',#615,#620,#329,.T.);
#763=EDGE_CURVE('',#621,#613,#330,.T.);
#764=EDGE_CURVE('',#607,#621,#331,.T.);
#765=EDGE_CURVE('',#622,#612,#332,.T.);
#766=EDGE_CURVE('',#616,#622,#333,.T.);
#767=EDGE_CURVE('',#623,#616,#334,.T.);
#768=EDGE_CURVE('',#624,#623,#335,.T.);
#769=EDGE_CURVE('',#620,#624,#336,.T.);
#770=EDGE_CURVE('',#625,#622,#337,.T.);
#771=EDGE_CURVE('',#618,#625,#338,.T.);
#772=EDGE_CURVE('',#626,#625,#339,.T.);
#773=EDGE_CURVE('',#619,#626,#340,.T.);
#774=EDGE_CURVE('',#611,#626,#341,.T.);
#775=EDGE_CURVE('',#624,#606,#517,.T.);
#776=EDGE_CURVE('',#621,#620,#518,.T.);
#777=EDGE_CURVE('',#608,#623,#519,.T.);
#778=EDGE_CURVE('',#552,#627,#342,.T.);
#779=EDGE_CURVE('',#627,#628,#520,.T.);
#780=EDGE_CURVE('',#609,#628,#343,.T.);
#781=EDGE_CURVE('',#592,#616,#344,.T.);
#782=EDGE_CURVE('',#591,#604,#521,.T.);
#783=EDGE_CURVE('',#629,#600,#345,.T.);
#784=EDGE_CURVE('',#629,#630,#522,.T.);
#785=EDGE_CURVE('',#630,#551,#346,.T.);
#786=EDGE_CURVE('',#631,#631,#523,.T.);
#787=EDGE_CURVE('',#632,#632,#524,.T.);
#788=EDGE_CURVE('',#633,#633,#525,.T.);
#789=EDGE_CURVE('',#634,#634,#526,.T.);
#790=EDGE_CURVE('',#635,#635,#527,.T.);
#791=EDGE_CURVE('',#614,#636,#347,.T.);
#792=EDGE_CURVE('',#636,#636,#528,.T.);
#793=EDGE_CURVE('',#637,#637,#529,.T.);
#794=EDGE_CURVE('',#637,#638,#348,.T.);
#795=EDGE_CURVE('',#638,#638,#530,.T.);
#796=EDGE_CURVE('',#639,#639,#531,.T.);
#797=EDGE_CURVE('',#639,#640,#349,.T.);
#798=EDGE_CURVE('',#640,#640,#532,.T.);
#799=EDGE_CURVE('',#635,#641,#350,.T.);
#800=EDGE_CURVE('',#641,#641,#533,.T.);
#801=EDGE_CURVE('',#634,#642,#351,.T.);
#802=EDGE_CURVE('',#642,#642,#534,.T.);
#803=EDGE_CURVE('',#633,#643,#352,.T.);
#804=EDGE_CURVE('',#643,#643,#535,.T.);
#805=EDGE_CURVE('',#632,#644,#353,.T.);
#806=EDGE_CURVE('',#644,#644,#536,.T.);
#807=EDGE_CURVE('',#631,#645,#354,.T.);
#808=EDGE_CURVE('',#645,#645,#537,.T.);
#809=EDGE_CURVE('',#603,#590,#538,.T.);
#810=EDGE_CURVE('',#646,#646,#539,.T.);
#811=EDGE_CURVE('',#646,#630,#355,.T.);
#812=EDGE_CURVE('',#630,#629,#540,.T.);
#813=EDGE_CURVE('',#647,#629,#356,.T.);
#814=EDGE_CURVE('',#647,#630,#357,.T.);
#815=EDGE_CURVE('',#648,#648,#541,.T.);
#816=EDGE_CURVE('',#648,#627,#358,.T.);
#817=EDGE_CURVE('',#628,#627,#542,.T.);
#818=EDGE_CURVE('',#627,#649,#359,.T.);
#819=EDGE_CURVE('',#628,#649,#360,.T.);
#820=EDGE_CURVE('',#599,#650,#361,.T.);
#821=EDGE_CURVE('',#650,#651,#362,.T.);
#822=EDGE_CURVE('',#651,#647,#363,.T.);
#823=EDGE_CURVE('',#652,#617,#364,.T.);
#824=EDGE_CURVE('',#649,#653,#365,.T.);
#825=EDGE_CURVE('',#653,#652,#366,.T.);
#826=EDGE_CURVE('',#651,#653,#367,.T.);
#827=EDGE_CURVE('',#650,#652,#368,.T.);
#828=ORIENTED_EDGE('',*,*,#654,.F.);
#829=ORIENTED_EDGE('',*,*,#655,.T.);
#830=ORIENTED_EDGE('',*,*,#656,.F.);
#831=ORIENTED_EDGE('',*,*,#655,.F.);
#832=ORIENTED_EDGE('',*,*,#657,.F.);
#833=ORIENTED_EDGE('',*,*,#658,.T.);
#834=ORIENTED_EDGE('',*,*,#659,.F.);
#835=ORIENTED_EDGE('',*,*,#658,.F.);
#836=ORIENTED_EDGE('',*,*,#660,.T.);
#837=ORIENTED_EDGE('',*,*,#661,.T.);
#838=ORIENTED_EDGE('',*,*,#662,.F.);
#839=ORIENTED_EDGE('',*,*,#663,.F.);
#840=ORIENTED_EDGE('',*,*,#664,.F.);
#841=ORIENTED_EDGE('',*,*,#665,.T.);
#842=ORIENTED_EDGE('',*,*,#666,.F.);
#843=ORIENTED_EDGE('',*,*,#667,.T.);
#844=ORIENTED_EDGE('',*,*,#664,.T.);
#845=ORIENTED_EDGE('',*,*,#668,.T.);
#846=ORIENTED_EDGE('',*,*,#666,.T.);
#847=ORIENTED_EDGE('',*,*,#669,.F.);
#848=ORIENTED_EDGE('',*,*,#670,.F.);
#849=ORIENTED_EDGE('',*,*,#671,.F.);
#850=ORIENTED_EDGE('',*,*,#672,.T.);
#851=ORIENTED_EDGE('',*,*,#671,.T.);
#852=ORIENTED_EDGE('',*,*,#673,.F.);
#853=ORIENTED_EDGE('',*,*,#661,.F.);
#854=ORIENTED_EDGE('',*,*,#673,.T.);
#855=ORIENTED_EDGE('',*,*,#670,.T.);
#856=ORIENTED_EDGE('',*,*,#674,.F.);
#857=ORIENTED_EDGE('',*,*,#662,.T.);
#858=ORIENTED_EDGE('',*,*,#656,.T.);
#859=ORIENTED_EDGE('',*,*,#659,.T.);
#860=ORIENTED_EDGE('',*,*,#672,.F.);
#861=ORIENTED_EDGE('',*,*,#660,.F.);
#862=ORIENTED_EDGE('',*,*,#667,.F.);
#863=ORIENTED_EDGE('',*,*,#668,.F.);
#864=ORIENTED_EDGE('',*,*,#654,.T.);
#865=ORIENTED_EDGE('',*,*,#657,.T.);
#866=ORIENTED_EDGE('',*,*,#675,.F.);
#867=ORIENTED_EDGE('',*,*,#676,.T.);
#868=ORIENTED_EDGE('',*,*,#677,.F.);
#869=ORIENTED_EDGE('',*,*,#676,.F.);
#870=ORIENTED_EDGE('',*,*,#678,.F.);
#871=ORIENTED_EDGE('',*,*,#679,.F.);
#872=ORIENTED_EDGE('',*,*,#680,.F.);
#873=ORIENTED_EDGE('',*,*,#681,.F.);
#874=ORIENTED_EDGE('',*,*,#679,.T.);
#875=ORIENTED_EDGE('',*,*,#682,.F.);
#876=ORIENTED_EDGE('',*,*,#683,.F.);
#877=ORIENTED_EDGE('',*,*,#684,.F.);
#878=ORIENTED_EDGE('',*,*,#685,.T.);
#879=ORIENTED_EDGE('',*,*,#686,.T.);
#880=ORIENTED_EDGE('',*,*,#680,.T.);
#881=ORIENTED_EDGE('',*,*,#686,.F.);
#882=ORIENTED_EDGE('',*,*,#687,.T.);
#883=ORIENTED_EDGE('',*,*,#688,.T.);
#884=ORIENTED_EDGE('',*,*,#689,.F.);
#885=ORIENTED_EDGE('',*,*,#690,.F.);
#886=ORIENTED_EDGE('',*,*,#675,.T.);
#887=ORIENTED_EDGE('',*,*,#678,.T.);
#888=ORIENTED_EDGE('',*,*,#691,.T.);
#889=ORIENTED_EDGE('',*,*,#692,.F.);
#890=ORIENTED_EDGE('',*,*,#693,.F.);
#891=ORIENTED_EDGE('',*,*,#694,.F.);
#892=ORIENTED_EDGE('',*,*,#682,.T.);
#893=ORIENTED_EDGE('',*,*,#677,.T.);
#894=ORIENTED_EDGE('',*,*,#689,.T.);
#895=ORIENTED_EDGE('',*,*,#695,.T.);
#896=ORIENTED_EDGE('',*,*,#692,.T.);
#897=ORIENTED_EDGE('',*,*,#696,.T.);
#898=ORIENTED_EDGE('',*,*,#697,.F.);
#899=ORIENTED_EDGE('',*,*,#698,.T.);
#900=ORIENTED_EDGE('',*,*,#684,.T.);
#901=ORIENTED_EDGE('',*,*,#699,.F.);
#902=ORIENTED_EDGE('',*,*,#681,.T.);
#903=ORIENTED_EDGE('',*,*,#690,.T.);
#904=ORIENTED_EDGE('',*,*,#696,.F.);
#905=ORIENTED_EDGE('',*,*,#691,.F.);
#906=ORIENTED_EDGE('',*,*,#700,.T.);
#907=ORIENTED_EDGE('',*,*,#701,.F.);
#908=ORIENTED_EDGE('',*,*,#702,.F.);
#909=ORIENTED_EDGE('',*,*,#693,.T.);
#910=ORIENTED_EDGE('',*,*,#695,.F.);
#911=ORIENTED_EDGE('',*,*,#688,.F.);
#912=ORIENTED_EDGE('',*,*,#694,.T.);
#913=ORIENTED_EDGE('',*,*,#702,.T.);
#914=ORIENTED_EDGE('',*,*,#703,.F.);
#915=ORIENTED_EDGE('',*,*,#699,.T.);
#916=ORIENTED_EDGE('',*,*,#683,.T.);
#917=ORIENTED_EDGE('',*,*,#703,.T.);
#918=ORIENTED_EDGE('',*,*,#701,.T.);
#919=ORIENTED_EDGE('',*,*,#704,.T.);
#920=ORIENTED_EDGE('',*,*,#705,.T.);
#921=ORIENTED_EDGE('',*,*,#706,.F.);
#922=ORIENTED_EDGE('',*,*,#707,.F.);
#923=ORIENTED_EDGE('',*,*,#708,.F.);
#924=ORIENTED_EDGE('',*,*,#709,.T.);
#925=ORIENTED_EDGE('',*,*,#710,.F.);
#926=ORIENTED_EDGE('',*,*,#709,.F.);
#927=ORIENTED_EDGE('',*,*,#711,.F.);
#928=ORIENTED_EDGE('',*,*,#712,.T.);
#929=ORIENTED_EDGE('',*,*,#713,.F.);
#930=ORIENTED_EDGE('',*,*,#712,.F.);
#931=ORIENTED_EDGE('',*,*,#714,.F.);
#932=ORIENTED_EDGE('',*,*,#715,.T.);
#933=ORIENTED_EDGE('',*,*,#716,.F.);
#934=ORIENTED_EDGE('',*,*,#715,.F.);
#935=ORIENTED_EDGE('',*,*,#717,.F.);
#936=ORIENTED_EDGE('',*,*,#718,.T.);
#937=ORIENTED_EDGE('',*,*,#719,.F.);
#938=ORIENTED_EDGE('',*,*,#718,.F.);
#939=ORIENTED_EDGE('',*,*,#720,.F.);
#940=ORIENTED_EDGE('',*,*,#721,.F.);
#941=ORIENTED_EDGE('',*,*,#722,.F.);
#942=ORIENTED_EDGE('',*,*,#723,.F.);
#943=ORIENTED_EDGE('',*,*,#724,.T.);
#944=ORIENTED_EDGE('',*,*,#725,.F.);
#945=ORIENTED_EDGE('',*,*,#726,.F.);
#946=ORIENTED_EDGE('',*,*,#727,.F.);
#947=ORIENTED_EDGE('',*,*,#728,.F.);
#948=ORIENTED_EDGE('',*,*,#729,.T.);
#949=ORIENTED_EDGE('',*,*,#730,.F.);
#950=ORIENTED_EDGE('',*,*,#729,.F.);
#951=ORIENTED_EDGE('',*,*,#731,.F.);
#952=ORIENTED_EDGE('',*,*,#732,.F.);
#953=ORIENTED_EDGE('',*,*,#733,.F.);
#954=ORIENTED_EDGE('',*,*,#734,.F.);
#955=ORIENTED_EDGE('',*,*,#704,.F.);
#956=ORIENTED_EDGE('',*,*,#700,.F.);
#957=ORIENTED_EDGE('',*,*,#687,.F.);
#958=ORIENTED_EDGE('',*,*,#685,.F.);
#959=ORIENTED_EDGE('',*,*,#698,.F.);
#960=ORIENTED_EDGE('',*,*,#735,.F.);
#961=ORIENTED_EDGE('',*,*,#736,.F.);
#962=ORIENTED_EDGE('',*,*,#708,.T.);
#963=ORIENTED_EDGE('',*,*,#717,.T.);
#964=ORIENTED_EDGE('',*,*,#735,.T.);
#965=ORIENTED_EDGE('',*,*,#697,.T.);
#966=ORIENTED_EDGE('',*,*,#707,.T.);
#967=ORIENTED_EDGE('',*,*,#737,.F.);
#968=ORIENTED_EDGE('',*,*,#738,.F.);
#969=ORIENTED_EDGE('',*,*,#736,.T.);
#970=ORIENTED_EDGE('',*,*,#738,.T.);
#971=ORIENTED_EDGE('',*,*,#739,.F.);
#972=ORIENTED_EDGE('',*,*,#724,.F.);
#973=ORIENTED_EDGE('',*,*,#740,.F.);
#974=ORIENTED_EDGE('',*,*,#726,.T.);
#975=ORIENTED_EDGE('',*,*,#741,.F.);
#976=ORIENTED_EDGE('',*,*,#705,.F.);
#977=ORIENTED_EDGE('',*,*,#734,.T.);
#978=ORIENTED_EDGE('',*,*,#742,.F.);
#979=ORIENTED_EDGE('',*,*,#743,.F.);
#980=ORIENTED_EDGE('',*,*,#706,.T.);
#981=ORIENTED_EDGE('',*,*,#741,.T.);
#982=ORIENTED_EDGE('',*,*,#725,.T.);
#983=ORIENTED_EDGE('',*,*,#739,.T.);
#984=ORIENTED_EDGE('',*,*,#737,.T.);
#985=ORIENTED_EDGE('',*,*,#710,.T.);
#986=ORIENTED_EDGE('',*,*,#719,.T.);
#987=ORIENTED_EDGE('',*,*,#720,.T.);
#988=ORIENTED_EDGE('',*,*,#730,.T.);
#989=ORIENTED_EDGE('',*,*,#744,.T.);
#990=ORIENTED_EDGE('',*,*,#745,.F.);
#991=ORIENTED_EDGE('',*,*,#744,.F.);
#992=ORIENTED_EDGE('',*,*,#731,.T.);
#993=ORIENTED_EDGE('',*,*,#728,.T.);
#994=ORIENTED_EDGE('',*,*,#746,.F.);
#995=ORIENTED_EDGE('',*,*,#747,.F.);
#996=ORIENTED_EDGE('',*,*,#748,.F.);
#997=ORIENTED_EDGE('',*,*,#749,.F.);
#998=ORIENTED_EDGE('',*,*,#750,.F.);
#999=ORIENTED_EDGE('',*,*,#751,.T.);
#1000=ORIENTED_EDGE('',*,*,#752,.F.);
#1001=ORIENTED_EDGE('',*,*,#753,.F.);
#1002=ORIENTED_EDGE('',*,*,#754,.F.);
#1003=ORIENTED_EDGE('',*,*,#755,.T.);
#1004=ORIENTED_EDGE('',*,*,#756,.F.);
#1005=ORIENTED_EDGE('',*,*,#757,.F.);
#1006=ORIENTED_EDGE('',*,*,#758,.T.);
#1007=ORIENTED_EDGE('',*,*,#759,.T.);
#1008=ORIENTED_EDGE('',*,*,#760,.T.);
#1009=ORIENTED_EDGE('',*,*,#750,.T.);
#1010=ORIENTED_EDGE('',*,*,#761,.F.);
#1011=ORIENTED_EDGE('',*,*,#711,.T.);
#1012=ORIENTED_EDGE('',*,*,#714,.T.);
#1013=ORIENTED_EDGE('',*,*,#762,.F.);
#1014=ORIENTED_EDGE('',*,*,#755,.F.);
#1015=ORIENTED_EDGE('',*,*,#763,.F.);
#1016=ORIENTED_EDGE('',*,*,#764,.F.);
#1017=ORIENTED_EDGE('',*,*,#753,.T.);
#1018=ORIENTED_EDGE('',*,*,#765,.F.);
#1019=ORIENTED_EDGE('',*,*,#766,.F.);
#1020=ORIENTED_EDGE('',*,*,#767,.F.);
#1021=ORIENTED_EDGE('',*,*,#768,.F.);
#1022=ORIENTED_EDGE('',*,*,#769,.F.);
#1023=ORIENTED_EDGE('',*,*,#758,.F.);
#1024=ORIENTED_EDGE('',*,*,#766,.T.);
#1025=ORIENTED_EDGE('',*,*,#770,.F.);
#1026=ORIENTED_EDGE('',*,*,#771,.F.);
#1027=ORIENTED_EDGE('',*,*,#759,.F.);
#1028=ORIENTED_EDGE('',*,*,#771,.T.);
#1029=ORIENTED_EDGE('',*,*,#772,.F.);
#1030=ORIENTED_EDGE('',*,*,#773,.F.);
#1031=ORIENTED_EDGE('',*,*,#760,.F.);
#1032=ORIENTED_EDGE('',*,*,#773,.T.);
#1033=ORIENTED_EDGE('',*,*,#774,.F.);
#1034=ORIENTED_EDGE('',*,*,#751,.F.);
#1035=ORIENTED_EDGE('',*,*,#752,.T.);
#1036=ORIENTED_EDGE('',*,*,#774,.T.);
#1037=ORIENTED_EDGE('',*,*,#772,.T.);
#1038=ORIENTED_EDGE('',*,*,#770,.T.);
#1039=ORIENTED_EDGE('',*,*,#765,.T.);
#1040=ORIENTED_EDGE('',*,*,#713,.T.);
#1041=ORIENTED_EDGE('',*,*,#716,.T.);
#1042=ORIENTED_EDGE('',*,*,#769,.T.);
#1043=ORIENTED_EDGE('',*,*,#775,.T.);
#1044=ORIENTED_EDGE('',*,*,#747,.T.);
#1045=ORIENTED_EDGE('',*,*,#764,.T.);
#1046=ORIENTED_EDGE('',*,*,#776,.T.);
#1047=ORIENTED_EDGE('',*,*,#768,.T.);
#1048=ORIENTED_EDGE('',*,*,#777,.F.);
#1049=ORIENTED_EDGE('',*,*,#748,.T.);
#1050=ORIENTED_EDGE('',*,*,#775,.F.);
#1051=ORIENTED_EDGE('',*,*,#669,.T.);
#1052=ORIENTED_EDGE('',*,*,#778,.T.);
#1053=ORIENTED_EDGE('',*,*,#779,.T.);
#1054=ORIENTED_EDGE('',*,*,#780,.F.);
#1055=ORIENTED_EDGE('',*,*,#749,.T.);
#1056=ORIENTED_EDGE('',*,*,#777,.T.);
#1057=ORIENTED_EDGE('',*,*,#767,.T.);
#1058=ORIENTED_EDGE('',*,*,#781,.F.);
#1059=ORIENTED_EDGE('',*,*,#723,.T.);
#1060=ORIENTED_EDGE('',*,*,#782,.T.);
#1061=ORIENTED_EDGE('',*,*,#742,.T.);
#1062=ORIENTED_EDGE('',*,*,#783,.F.);
#1063=ORIENTED_EDGE('',*,*,#784,.T.);
#1064=ORIENTED_EDGE('',*,*,#785,.T.);
#1065=ORIENTED_EDGE('',*,*,#663,.T.);
#1066=ORIENTED_EDGE('',*,*,#674,.T.);
#1067=ORIENTED_EDGE('',*,*,#786,.T.);
#1068=ORIENTED_EDGE('',*,*,#787,.T.);
#1069=ORIENTED_EDGE('',*,*,#788,.T.);
#1070=ORIENTED_EDGE('',*,*,#789,.T.);
#1071=ORIENTED_EDGE('',*,*,#790,.T.);
#1072=ORIENTED_EDGE('',*,*,#762,.T.);
#1073=ORIENTED_EDGE('',*,*,#776,.F.);
#1074=ORIENTED_EDGE('',*,*,#763,.T.);
#1075=ORIENTED_EDGE('',*,*,#754,.T.);
#1076=ORIENTED_EDGE('',*,*,#791,.T.);
#1077=ORIENTED_EDGE('',*,*,#792,.F.);
#1078=ORIENTED_EDGE('',*,*,#791,.F.);
#1079=ORIENTED_EDGE('',*,*,#756,.T.);
#1080=ORIENTED_EDGE('',*,*,#793,.F.);
#1081=ORIENTED_EDGE('',*,*,#794,.T.);
#1082=ORIENTED_EDGE('',*,*,#795,.F.);
#1083=ORIENTED_EDGE('',*,*,#794,.F.);
#1084=ORIENTED_EDGE('',*,*,#796,.F.);
#1085=ORIENTED_EDGE('',*,*,#797,.T.);
#1086=ORIENTED_EDGE('',*,*,#798,.F.);
#1087=ORIENTED_EDGE('',*,*,#797,.F.);
#1088=ORIENTED_EDGE('',*,*,#790,.F.);
#1089=ORIENTED_EDGE('',*,*,#799,.T.);
#1090=ORIENTED_EDGE('',*,*,#800,.F.);
#1091=ORIENTED_EDGE('',*,*,#799,.F.);
#1092=ORIENTED_EDGE('',*,*,#789,.F.);
#1093=ORIENTED_EDGE('',*,*,#801,.T.);
#1094=ORIENTED_EDGE('',*,*,#802,.F.);
#1095=ORIENTED_EDGE('',*,*,#801,.F.);
#1096=ORIENTED_EDGE('',*,*,#788,.F.);
#1097=ORIENTED_EDGE('',*,*,#803,.T.);
#1098=ORIENTED_EDGE('',*,*,#804,.F.);
#1099=ORIENTED_EDGE('',*,*,#803,.F.);
#1100=ORIENTED_EDGE('',*,*,#787,.F.);
#1101=ORIENTED_EDGE('',*,*,#805,.T.);
#1102=ORIENTED_EDGE('',*,*,#806,.F.);
#1103=ORIENTED_EDGE('',*,*,#805,.F.);
#1104=ORIENTED_EDGE('',*,*,#786,.F.);
#1105=ORIENTED_EDGE('',*,*,#807,.T.);
#1106=ORIENTED_EDGE('',*,*,#808,.F.);
#1107=ORIENTED_EDGE('',*,*,#807,.F.);
#1108=ORIENTED_EDGE('',*,*,#722,.T.);
#1109=ORIENTED_EDGE('',*,*,#809,.F.);
#1110=ORIENTED_EDGE('',*,*,#743,.T.);
#1111=ORIENTED_EDGE('',*,*,#782,.F.);
#1112=ORIENTED_EDGE('',*,*,#721,.T.);
#1113=ORIENTED_EDGE('',*,*,#746,.T.);
#1114=ORIENTED_EDGE('',*,*,#727,.T.);
#1115=ORIENTED_EDGE('',*,*,#740,.T.);
#1116=ORIENTED_EDGE('',*,*,#809,.T.);
#1117=ORIENTED_EDGE('',*,*,#810,.F.);
#1118=ORIENTED_EDGE('',*,*,#811,.T.);
#1119=ORIENTED_EDGE('',*,*,#784,.F.);
#1120=ORIENTED_EDGE('',*,*,#812,.F.);
#1121=ORIENTED_EDGE('',*,*,#811,.F.);
#1122=ORIENTED_EDGE('',*,*,#810,.T.);
#1123=ORIENTED_EDGE('',*,*,#793,.T.);
#1124=ORIENTED_EDGE('',*,*,#812,.T.);
#1125=ORIENTED_EDGE('',*,*,#813,.F.);
#1126=ORIENTED_EDGE('',*,*,#814,.T.);
#1127=ORIENTED_EDGE('',*,*,#815,.F.);
#1128=ORIENTED_EDGE('',*,*,#816,.T.);
#1129=ORIENTED_EDGE('',*,*,#817,.F.);
#1130=ORIENTED_EDGE('',*,*,#779,.F.);
#1131=ORIENTED_EDGE('',*,*,#816,.F.);
#1132=ORIENTED_EDGE('',*,*,#815,.T.);
#1133=ORIENTED_EDGE('',*,*,#796,.T.);
#1134=ORIENTED_EDGE('',*,*,#817,.T.);
#1135=ORIENTED_EDGE('',*,*,#818,.T.);
#1136=ORIENTED_EDGE('',*,*,#819,.F.);
#1137=ORIENTED_EDGE('',*,*,#820,.T.);
#1138=ORIENTED_EDGE('',*,*,#821,.T.);
#1139=ORIENTED_EDGE('',*,*,#822,.T.);
#1140=ORIENTED_EDGE('',*,*,#813,.T.);
#1141=ORIENTED_EDGE('',*,*,#783,.T.);
#1142=ORIENTED_EDGE('',*,*,#733,.T.);
#1143=ORIENTED_EDGE('',*,*,#823,.T.);
#1144=ORIENTED_EDGE('',*,*,#761,.T.);
#1145=ORIENTED_EDGE('',*,*,#780,.T.);
#1146=ORIENTED_EDGE('',*,*,#819,.T.);
#1147=ORIENTED_EDGE('',*,*,#824,.T.);
#1148=ORIENTED_EDGE('',*,*,#825,.T.);
#1149=ORIENTED_EDGE('',*,*,#826,.T.);
#1150=ORIENTED_EDGE('',*,*,#824,.F.);
#1151=ORIENTED_EDGE('',*,*,#818,.F.);
#1152=ORIENTED_EDGE('',*,*,#778,.F.);
#1153=ORIENTED_EDGE('',*,*,#665,.F.);
#1154=ORIENTED_EDGE('',*,*,#785,.F.);
#1155=ORIENTED_EDGE('',*,*,#814,.F.);
#1156=ORIENTED_EDGE('',*,*,#822,.F.);
#1157=ORIENTED_EDGE('',*,*,#827,.T.);
#1158=ORIENTED_EDGE('',*,*,#825,.F.);
#1159=ORIENTED_EDGE('',*,*,#826,.F.);
#1160=ORIENTED_EDGE('',*,*,#821,.F.);
#1161=ORIENTED_EDGE('',*,*,#792,.T.);
#1162=ORIENTED_EDGE('',*,*,#795,.T.);
#1163=ORIENTED_EDGE('',*,*,#798,.T.);
#1164=ORIENTED_EDGE('',*,*,#800,.T.);
#1165=ORIENTED_EDGE('',*,*,#802,.T.);
#1166=ORIENTED_EDGE('',*,*,#804,.T.);
#1167=ORIENTED_EDGE('',*,*,#806,.T.);
#1168=ORIENTED_EDGE('',*,*,#808,.T.);
#1169=ORIENTED_EDGE('',*,*,#745,.T.);
#1170=ORIENTED_EDGE('',*,*,#732,.T.);
#1171=ORIENTED_EDGE('',*,*,#781,.T.);
#1172=ORIENTED_EDGE('',*,*,#757,.T.);
#1173=ORIENTED_EDGE('',*,*,#823,.F.);
#1174=ORIENTED_EDGE('',*,*,#827,.F.);
#1175=ORIENTED_EDGE('',*,*,#820,.F.);
#1176=CYLINDRICAL_SURFACE('',#1274,2.15);
#1177=CYLINDRICAL_SURFACE('',#1277,2.15);
#1178=CYLINDRICAL_SURFACE('',#1286,2.15000000000003);
#1179=CYLINDRICAL_SURFACE('',#1289,2.15000000000003);
#1180=CYLINDRICAL_SURFACE('',#1301,2.15000000000003);
#1181=CYLINDRICAL_SURFACE('',#1304,2.15000000000003);
#1182=CYLINDRICAL_SURFACE('',#1307,2.15000000000003);
#1183=CYLINDRICAL_SURFACE('',#1310,2.15000000000003);
#1184=CYLINDRICAL_SURFACE('',#1322,1.7);
#1185=CYLINDRICAL_SURFACE('',#1338,5.);
#1186=CYLINDRICAL_SURFACE('',#1349,1.7);
#1187=CYLINDRICAL_SURFACE('',#1351,1.7);
#1188=CYLINDRICAL_SURFACE('',#1354,1.7);
#1189=CYLINDRICAL_SURFACE('',#1357,1.7);
#1190=CYLINDRICAL_SURFACE('',#1359,1.7);
#1191=CYLINDRICAL_SURFACE('',#1361,1.7);
#1192=CYLINDRICAL_SURFACE('',#1363,1.7);
#1193=CYLINDRICAL_SURFACE('',#1365,11.2);
#1194=CYLINDRICAL_SURFACE('',#1367,5.);
#1195=CYLINDRICAL_SURFACE('',#1370,5.);
#1196=CYLINDRICAL_SURFACE('',#1375,5.);
#1197=ADVANCED_FACE('',(#87),#1176,.F.);
#1198=ADVANCED_FACE('',(#88),#1177,.F.);
#1199=ADVANCED_FACE('',(#89),#45,.T.);
#1200=ADVANCED_FACE('',(#90),#46,.T.);
#1201=ADVANCED_FACE('',(#91),#47,.T.);
#1202=ADVANCED_FACE('',(#92),#48,.T.);
#1203=ADVANCED_FACE('',(#93,#15,#16),#49,.T.);
#1204=ADVANCED_FACE('',(#94,#17,#18),#50,.F.);
#1205=ADVANCED_FACE('',(#95),#1178,.F.);
#1206=ADVANCED_FACE('',(#96),#1179,.F.);
#1207=ADVANCED_FACE('',(#97),#51,.T.);
#1208=ADVANCED_FACE('',(#98,#19),#52,.T.);
#1209=ADVANCED_FACE('',(#99,#20),#53,.T.);
#1210=ADVANCED_FACE('',(#100),#54,.T.);
#1211=ADVANCED_FACE('',(#101),#55,.T.);
#1212=ADVANCED_FACE('',(#102),#56,.T.);
#1213=ADVANCED_FACE('',(#103),#57,.T.);
#1214=ADVANCED_FACE('',(#104),#58,.T.);
#1215=ADVANCED_FACE('',(#105),#59,.T.);
#1216=ADVANCED_FACE('',(#106),#1180,.F.);
#1217=ADVANCED_FACE('',(#107),#1181,.F.);
#1218=ADVANCED_FACE('',(#108),#1182,.F.);
#1219=ADVANCED_FACE('',(#109),#1183,.F.);
#1220=ADVANCED_FACE('',(#110),#60,.T.);
#1221=ADVANCED_FACE('',(#111),#61,.T.);
#1222=ADVANCED_FACE('',(#112,#21,#22),#62,.T.);
#1223=ADVANCED_FACE('',(#113),#63,.T.);
#1224=ADVANCED_FACE('',(#114),#64,.T.);
#1225=ADVANCED_FACE('',(#115),#65,.T.);
#1226=ADVANCED_FACE('',(#116,#23,#24),#66,.T.);
#1227=ADVANCED_FACE('',(#117),#1184,.F.);
#1228=ADVANCED_FACE('',(#118),#67,.T.);
#1229=ADVANCED_FACE('',(#119),#68,.T.);
#1230=ADVANCED_FACE('',(#120,#25,#26),#69,.T.);
#1231=ADVANCED_FACE('',(#121),#70,.T.);
#1232=ADVANCED_FACE('',(#122),#71,.T.);
#1233=ADVANCED_FACE('',(#123),#72,.T.);
#1234=ADVANCED_FACE('',(#124),#73,.T.);
#1235=ADVANCED_FACE('',(#125,#27,#28),#74,.T.);
#1236=ADVANCED_FACE('',(#126),#75,.T.);
#1237=ADVANCED_FACE('',(#127),#1185,.T.);
#1238=ADVANCED_FACE('',(#128,#29,#30,#31,#32,#33),#76,.F.);
#1239=ADVANCED_FACE('',(#129),#1186,.F.);
#1240=ADVANCED_FACE('',(#130),#1187,.F.);
#1241=ADVANCED_FACE('',(#131),#1188,.F.);
#1242=ADVANCED_FACE('',(#132),#1189,.F.);
#1243=ADVANCED_FACE('',(#133),#1190,.F.);
#1244=ADVANCED_FACE('',(#134),#1191,.F.);
#1245=ADVANCED_FACE('',(#135),#1192,.F.);
#1246=ADVANCED_FACE('',(#136),#1193,.F.);
#1247=ADVANCED_FACE('',(#137),#1194,.T.);
#1248=ADVANCED_FACE('',(#138),#77,.T.);
#1249=ADVANCED_FACE('',(#139),#1195,.T.);
#1250=ADVANCED_FACE('',(#140,#34),#78,.T.);
#1251=ADVANCED_FACE('',(#141),#79,.F.);
#1252=ADVANCED_FACE('',(#142),#1196,.T.);
#1253=ADVANCED_FACE('',(#143,#35),#80,.T.);
#1254=ADVANCED_FACE('',(#144),#81,.F.);
#1255=ADVANCED_FACE('',(#145),#82,.T.);
#1256=ADVANCED_FACE('',(#146),#83,.F.);
#1257=ADVANCED_FACE('',(#147),#84,.F.);
#1258=ADVANCED_FACE('',(#148,#36,#37,#38,#39,#40,#41,#42,#43,#44),#85,.F.);
#1259=ADVANCED_FACE('',(#149),#86,.F.);
#1260=CLOSED_SHELL('',(#1197,#1198,#1199,#1200,#1201,#1202,#1203,#1204,
#1205,#1206,#1207,#1208,#1209,#1210,#1211,#1212,#1213,#1214,#1215,#1216,
#1217,#1218,#1219,#1220,#1221,#1222,#1223,#1224,#1225,#1226,#1227,#1228,
#1229,#1230,#1231,#1232,#1233,#1234,#1235,#1236,#1237,#1238,#1239,#1240,
#1241,#1242,#1243,#1244,#1245,#1246,#1247,#1248,#1249,#1250,#1251,#1252,
#1253,#1254,#1255,#1256,#1257,#1258,#1259));
#1261=DERIVED_UNIT_ELEMENT(#1263,1.);
#1262=DERIVED_UNIT_ELEMENT(#2089,-3.);
#1263=(
MASS_UNIT()
NAMED_UNIT(*)
SI_UNIT(.KILO.,.GRAM.)
);
#1264=DERIVED_UNIT((#1261,#1262));
#1265=MEASURE_REPRESENTATION_ITEM('density measure',
POSITIVE_RATIO_MEASURE(7850.),#1264);
#1266=PROPERTY_DEFINITION_REPRESENTATION(#1271,#1268);
#1267=PROPERTY_DEFINITION_REPRESENTATION(#1272,#1269);
#1268=REPRESENTATION('material name',(#1270),#2086);
#1269=REPRESENTATION('density',(#1265),#2086);
#1270=DESCRIPTIVE_REPRESENTATION_ITEM('Steel','Steel');
#1271=PROPERTY_DEFINITION('material property','material name',#2096);
#1272=PROPERTY_DEFINITION('material property','density of part',#2096);
#1273=AXIS2_PLACEMENT_3D('',#1735,#1385,#1386);
#1274=AXIS2_PLACEMENT_3D('',#1736,#1387,#1388);
#1275=AXIS2_PLACEMENT_3D('',#1738,#1389,#1390);
#1276=AXIS2_PLACEMENT_3D('',#1741,#1392,#1393);
#1277=AXIS2_PLACEMENT_3D('',#1742,#1394,#1395);
#1278=AXIS2_PLACEMENT_3D('',#1744,#1396,#1397);
#1279=AXIS2_PLACEMENT_3D('',#1747,#1399,#1400);
#1280=AXIS2_PLACEMENT_3D('',#1748,#1401,#1402);
#1281=AXIS2_PLACEMENT_3D('',#1759,#1408,#1409);
#1282=AXIS2_PLACEMENT_3D('',#1765,#1413,#1414);
#1283=AXIS2_PLACEMENT_3D('',#1773,#1419,#1420);
#1284=AXIS2_PLACEMENT_3D('',#1776,#1423,#1424);
#1285=AXIS2_PLACEMENT_3D('',#1778,#1426,#1427);
#1286=AXIS2_PLACEMENT_3D('',#1779,#1428,#1429);
#1287=AXIS2_PLACEMENT_3D('',#1781,#1430,#1431);
#1288=AXIS2_PLACEMENT_3D('',#1784,#1433,#1434);
#1289=AXIS2_PLACEMENT_3D('',#1785,#1435,#1436);
#1290=AXIS2_PLACEMENT_3D('',#1788,#1437,#1438);
#1291=AXIS2_PLACEMENT_3D('',#1792,#1440,#1441);
#1292=AXIS2_PLACEMENT_3D('',#1794,#1443,#1444);
#1293=AXIS2_PLACEMENT_3D('',#1804,#1450,#1451);
#1294=AXIS2_PLACEMENT_3D('',#1812,#1456,#1457);
#1295=AXIS2_PLACEMENT_3D('',#1820,#1462,#1463);
#1296=AXIS2_PLACEMENT_3D('',#1823,#1466,#1467);
#1297=AXIS2_PLACEMENT_3D('',#1829,#1471,#1472);
#1298=AXIS2_PLACEMENT_3D('',#1830,#1473,#1474);
#1299=AXIS2_PLACEMENT_3D('',#1836,#1478,#1479);
#1300=AXIS2_PLACEMENT_3D('',#1838,#1481,#1482);
#1301=AXIS2_PLACEMENT_3D('',#1846,#1487,#1488);
#1302=AXIS2_PLACEMENT_3D('',#1848,#1489,#1490);
#1303=AXIS2_PLACEMENT_3D('',#1851,#1492,#1493);
#1304=AXIS2_PLACEMENT_3D('',#1852,#1494,#1495);
#1305=AXIS2_PLACEMENT_3D('',#1854,#1496,#1497);
#1306=AXIS2_PLACEMENT_3D('',#1857,#1499,#1500);
#1307=AXIS2_PLACEMENT_3D('',#1858,#1501,#1502);
#1308=AXIS2_PLACEMENT_3D('',#1860,#1503,#1504);
#1309=AXIS2_PLACEMENT_3D('',#1863,#1506,#1507);
#1310=AXIS2_PLACEMENT_3D('',#1864,#1508,#1509);
#1311=AXIS2_PLACEMENT_3D('',#1866,#1510,#1511);
#1312=AXIS2_PLACEMENT_3D('',#1869,#1513,#1514);
#1313=AXIS2_PLACEMENT_3D('',#1870,#1515,#1516);
#1314=AXIS2_PLACEMENT_3D('',#1891,#1527,#1528);
#1315=AXIS2_PLACEMENT_3D('',#1893,#1529,#1530);
#1316=AXIS2_PLACEMENT_3D('',#1894,#1531,#1532);
#1317=AXIS2_PLACEMENT_3D('',#1895,#1533,#1534);
#1318=AXIS2_PLACEMENT_3D('',#1904,#1540,#1541);
#1319=AXIS2_PLACEMENT_3D('',#1908,#1544,#1545);
#1320=AXIS2_PLACEMENT_3D('',#1910,#1547,#1548);
#1321=AXIS2_PLACEMENT_3D('',#1917,#1553,#1554);
#1322=AXIS2_PLACEMENT_3D('',#1918,#1555,#1556);
#1323=AXIS2_PLACEMENT_3D('',#1921,#1558,#1559);
#1324=AXIS2_PLACEMENT_3D('',#1922,#1560,#1561);
#1325=AXIS2_PLACEMENT_3D('',#1923,#1562,#1563);
#1326=AXIS2_PLACEMENT_3D('',#1938,#1571,#1572);
#1327=AXIS2_PLACEMENT_3D('',#1941,#1573,#1574);
#1328=AXIS2_PLACEMENT_3D('',#1944,#1576,#1577);
#1329=AXIS2_PLACEMENT_3D('',#1945,#1578,#1579);
#1330=AXIS2_PLACEMENT_3D('',#1955,#1585,#1586);
#1331=AXIS2_PLACEMENT_3D('',#1969,#1595,#1596);
#1332=AXIS2_PLACEMENT_3D('',#1973,#1599,#1600);
#1333=AXIS2_PLACEMENT_3D('',#1977,#1603,#1604);
#1334=AXIS2_PLACEMENT_3D('',#1979,#1606,#1607);
#1335=AXIS2_PLACEMENT_3D('',#1980,#1608,#1609);
#1336=AXIS2_PLACEMENT_3D('',#1981,#1610,#1611);
#1337=AXIS2_PLACEMENT_3D('',#1982,#1612,#1613);
#1338=AXIS2_PLACEMENT_3D('',#1983,#1614,#1615);
#1339=AXIS2_PLACEMENT_3D('',#1984,#1616,#1617);
#1340=AXIS2_PLACEMENT_3D('',#1985,#1618,#1619);
#1341=AXIS2_PLACEMENT_3D('',#1989,#1621,#1622);
#1342=AXIS2_PLACEMENT_3D('',#1992,#1625,#1626);
#1343=AXIS2_PLACEMENT_3D('',#1996,#1628,#1629);
#1344=AXIS2_PLACEMENT_3D('',#1999,#1631,#1632);
#1345=AXIS2_PLACEMENT_3D('',#2001,#1633,#1634);
#1346=AXIS2_PLACEMENT_3D('',#2003,#1635,#1636);
#1347=AXIS2_PLACEMENT_3D('',#2005,#1637,#1638);
#1348=AXIS2_PLACEMENT_3D('',#2007,#1639,#1640);
#1349=AXIS2_PLACEMENT_3D('',#2008,#1641,#1642);
#1350=AXIS2_PLACEMENT_3D('',#2011,#1644,#1645);
#1351=AXIS2_PLACEMENT_3D('',#2012,#1646,#1647);
#1352=AXIS2_PLACEMENT_3D('',#2014,#1648,#1649);
#1353=AXIS2_PLACEMENT_3D('',#2017,#1651,#1652);
#1354=AXIS2_PLACEMENT_3D('',#2018,#1653,#1654);
#1355=AXIS2_PLACEMENT_3D('',#2020,#1655,#1656);
#1356=AXIS2_PLACEMENT_3D('',#2023,#1658,#1659);
#1357=AXIS2_PLACEMENT_3D('',#2024,#1660,#1661);
#1358=AXIS2_PLACEMENT_3D('',#2027,#1663,#1664);
#1359=AXIS2_PLACEMENT_3D('',#2028,#1665,#1666);
#1360=AXIS2_PLACEMENT_3D('',#2031,#1668,#1669);
#1361=AXIS2_PLACEMENT_3D('',#2032,#1670,#1671);
#1362=AXIS2_PLACEMENT_3D('',#2035,#1673,#1674);
#1363=AXIS2_PLACEMENT_3D('',#2036,#1675,#1676);
#1364=AXIS2_PLACEMENT_3D('',#2039,#1678,#1679);
#1365=AXIS2_PLACEMENT_3D('',#2040,#1680,#1681);
#1366=AXIS2_PLACEMENT_3D('',#2043,#1683,#1684);
#1367=AXIS2_PLACEMENT_3D('',#2044,#1685,#1686);
#1368=AXIS2_PLACEMENT_3D('',#2045,#1687,#1688);
#1369=AXIS2_PLACEMENT_3D('',#2046,#1689,#1690);
#1370=AXIS2_PLACEMENT_3D('',#2047,#1691,#1692);
#1371=AXIS2_PLACEMENT_3D('',#2049,#1693,#1694);
#1372=AXIS2_PLACEMENT_3D('',#2051,#1696,#1697);
#1373=AXIS2_PLACEMENT_3D('',#2052,#1698,#1699);
#1374=AXIS2_PLACEMENT_3D('',#2053,#1700,#1701);
#1375=AXIS2_PLACEMENT_3D('',#2057,#1704,#1705);
#1376=AXIS2_PLACEMENT_3D('',#2059,#1706,#1707);
#1377=AXIS2_PLACEMENT_3D('',#2061,#1709,#1710);
#1378=AXIS2_PLACEMENT_3D('',#2062,#1711,#1712);
#1379=AXIS2_PLACEMENT_3D('',#2063,#1713,#1714);
#1380=AXIS2_PLACEMENT_3D('',#2067,#1717,#1718);
#1381=AXIS2_PLACEMENT_3D('',#2073,#1722,#1723);
#1382=AXIS2_PLACEMENT_3D('',#2079,#1727,#1728);
#1383=AXIS2_PLACEMENT_3D('',#2081,#1730,#1731);
#1384=AXIS2_PLACEMENT_3D('',#2083,#1733,#1734);
#1385=DIRECTION('axis',(0.,0.,1.));
#1386=DIRECTION('refdir',(1.,0.,0.));
#1387=DIRECTION('center_axis',(1.,0.,0.));
#1388=DIRECTION('ref_axis',(0.,0.,-1.));
#1389=DIRECTION('center_axis',(1.,0.,0.));
#1390=DIRECTION('ref_axis',(0.,0.,-1.));
#1391=DIRECTION('',(1.,0.,0.));
#1392=DIRECTION('center_axis',(-1.,0.,0.));
#1393=DIRECTION('ref_axis',(0.,0.,-1.));
#1394=DIRECTION('center_axis',(1.,0.,0.));
#1395=DIRECTION('ref_axis',(0.,0.,-1.));
#1396=DIRECTION('center_axis',(1.,0.,0.));
#1397=DIRECTION('ref_axis',(0.,0.,-1.));
#1398=DIRECTION('',(1.,0.,0.));
#1399=DIRECTION('center_axis',(-1.,0.,0.));
#1400=DIRECTION('ref_axis',(0.,0.,-1.));
#1401=DIRECTION('center_axis',(0.,0.,1.));
#1402=DIRECTION('ref_axis',(0.,-1.,0.));
#1403=DIRECTION('',(0.,-1.,0.));
#1404=DIRECTION('',(1.,0.,0.));
#1405=DIRECTION('',(0.,-1.,0.));
#1406=DIRECTION('',(1.,0.,0.));
#1407=DIRECTION('',(1.,0.,0.));
#1408=DIRECTION('center_axis',(0.,1.,0.));
#1409=DIRECTION('ref_axis',(0.,0.,1.));
#1410=DIRECTION('',(0.,0.,-1.));
#1411=DIRECTION('',(1.,0.,0.));
#1412=DIRECTION('',(0.,0.,1.));
#1413=DIRECTION('center_axis',(0.,0.,-1.));
#1414=DIRECTION('ref_axis',(0.,1.,0.));
#1415=DIRECTION('',(0.,1.,0.));
#1416=DIRECTION('',(-1.,0.,0.));
#1417=DIRECTION('',(0.,1.,0.));
#1418=DIRECTION('',(1.,0.,0.));
#1419=DIRECTION('center_axis',(0.,-1.,0.));
#1420=DIRECTION('ref_axis',(0.,0.,-1.));
#1421=DIRECTION('',(0.,0.,-1.));
#1422=DIRECTION('',(0.,0.,-1.));
#1423=DIRECTION('center_axis',(1.,0.,0.));
#1424=DIRECTION('ref_axis',(0.,0.,-1.));
#1425=DIRECTION('',(0.,0.,-1.));
#1426=DIRECTION('center_axis',(1.,0.,0.));
#1427=DIRECTION('ref_axis',(0.,0.,-1.));
#1428=DIRECTION('center_axis',(0.,0.,-1.));
#1429=DIRECTION('ref_axis',(1.,0.,0.));
#1430=DIRECTION('center_axis',(0.,0.,-1.));
#1431=DIRECTION('ref_axis',(1.,0.,0.));
#1432=DIRECTION('',(0.,0.,-1.));
#1433=DIRECTION('center_axis',(0.,0.,1.));
#1434=DIRECTION('ref_axis',(1.,0.,0.));
#1435=DIRECTION('center_axis',(0.,0.,-1.));
#1436=DIRECTION('ref_axis',(-1.,-1.22464679914735E-16,0.));
#1437=DIRECTION('center_axis',(0.,0.,1.));
#1438=DIRECTION('ref_axis',(1.,0.,0.));
#1439=DIRECTION('',(0.,0.,-1.));
#1440=DIRECTION('center_axis',(0.,0.,-1.));
#1441=DIRECTION('ref_axis',(1.,0.,0.));
#1442=DIRECTION('',(0.,0.,1.));
#1443=DIRECTION('center_axis',(1.,0.,0.));
#1444=DIRECTION('ref_axis',(0.,0.,1.));
#1445=DIRECTION('',(0.,-1.,0.));
#1446=DIRECTION('',(0.,0.,1.));
#1447=DIRECTION('',(0.,-1.,0.));
#1448=DIRECTION('',(0.,0.,1.));
#1449=DIRECTION('',(0.,-1.,0.));
#1450=DIRECTION('center_axis',(0.,0.,1.));
#1451=DIRECTION('ref_axis',(-1.,0.,0.));
#1452=DIRECTION('',(-1.,0.,0.));
#1453=DIRECTION('',(0.,-1.,0.));
#1454=DIRECTION('',(-1.,0.,0.));
#1455=DIRECTION('',(0.,-1.,0.));
#1456=DIRECTION('center_axis',(0.,0.,-1.));
#1457=DIRECTION('ref_axis',(1.,0.,0.));
#1458=DIRECTION('',(0.,-1.,0.));
#1459=DIRECTION('',(1.,0.,0.));
#1460=DIRECTION('',(0.,-1.,0.));
#1461=DIRECTION('',(-1.,0.,0.));
#1462=DIRECTION('center_axis',(0.,-1.,0.));
#1463=DIRECTION('ref_axis',(0.,0.,-1.));
#1464=DIRECTION('',(0.,0.,-1.));
#1465=DIRECTION('',(0.,0.,1.));
#1466=DIRECTION('center_axis',(0.,0.,-1.));
#1467=DIRECTION('ref_axis',(1.,0.,0.));
#1468=DIRECTION('',(0.,-1.,0.));
#1469=DIRECTION('',(1.,0.,0.));
#1470=DIRECTION('',(1.,0.,0.));
#1471=DIRECTION('center_axis',(1.,0.,0.));
#1472=DIRECTION('ref_axis',(0.,0.,1.));
#1473=DIRECTION('center_axis',(-1.,0.,0.));
#1474=DIRECTION('ref_axis',(0.,0.,-1.));
#1475=DIRECTION('',(0.,0.,-1.));
#1476=DIRECTION('',(0.,1.,0.));
#1477=DIRECTION('',(0.,0.,-1.));
#1478=DIRECTION('center_axis',(0.,-1.,0.));
#1479=DIRECTION('ref_axis',(0.,0.,-1.));
#1480=DIRECTION('',(-1.,0.,0.));
#1481=DIRECTION('center_axis',(0.,0.,1.));
#1482=DIRECTION('ref_axis',(-1.,0.,0.));
#1483=DIRECTION('',(-1.,0.,0.));
#1484=DIRECTION('',(0.,-1.,0.));
#1485=DIRECTION('',(-1.,0.,0.));
#1486=DIRECTION('',(0.,-1.,0.));
#1487=DIRECTION('center_axis',(0.,-1.,0.));
#1488=DIRECTION('ref_axis',(1.,0.,0.));
#1489=DIRECTION('center_axis',(0.,-1.,0.));
#1490=DIRECTION('ref_axis',(1.,0.,0.));
#1491=DIRECTION('',(0.,-1.,0.));
#1492=DIRECTION('center_axis',(0.,1.,0.));
#1493=DIRECTION('ref_axis',(1.,0.,0.));
#1494=DIRECTION('center_axis',(0.,-1.,0.));
#1495=DIRECTION('ref_axis',(1.,0.,0.));
#1496=DIRECTION('center_axis',(0.,-1.,0.));
#1497=DIRECTION('ref_axis',(1.,0.,0.));
#1498=DIRECTION('',(0.,-1.,0.));
#1499=DIRECTION('center_axis',(0.,1.,0.));
#1500=DIRECTION('ref_axis',(1.,0.,0.));
#1501=DIRECTION('center_axis',(0.,-1.,0.));
#1502=DIRECTION('ref_axis',(1.,0.,0.));
#1503=DIRECTION('center_axis',(0.,-1.,0.));
#1504=DIRECTION('ref_axis',(1.,0.,0.));
#1505=DIRECTION('',(0.,-1.,0.));
#1506=DIRECTION('center_axis',(0.,1.,0.));
#1507=DIRECTION('ref_axis',(1.,0.,0.));
#1508=DIRECTION('center_axis',(0.,-1.,0.));
#1509=DIRECTION('ref_axis',(1.,0.,0.));
#1510=DIRECTION('center_axis',(0.,-1.,0.));
#1511=DIRECTION('ref_axis',(1.,0.,0.));
#1512=DIRECTION('',(0.,-1.,0.));
#1513=DIRECTION('center_axis',(0.,1.,0.));
#1514=DIRECTION('ref_axis',(1.,0.,0.));
#1515=DIRECTION('center_axis',(0.,0.,-1.));
#1516=DIRECTION('ref_axis',(1.,0.,0.));
#1517=DIRECTION('',(0.,1.,0.));
#1518=DIRECTION('',(-1.,0.,0.));
#1519=DIRECTION('',(0.,-1.,0.));
#1520=DIRECTION('',(-1.,0.,0.));
#1521=DIRECTION('',(0.,-1.,0.));
#1522=DIRECTION('',(1.,0.,0.));
#1523=DIRECTION('',(0.,-1.,0.));
#1524=DIRECTION('',(-1.,0.,0.));
#1525=DIRECTION('',(0.,-1.,0.));
#1526=DIRECTION('',(1.,0.,0.));
#1527=DIRECTION('center_axis',(0.,1.,0.));
#1528=DIRECTION('ref_axis',(1.,0.,0.));
#1529=DIRECTION('center_axis',(0.,-1.,0.));
#1530=DIRECTION('ref_axis',(1.,0.,0.));
#1531=DIRECTION('center_axis',(0.,-1.,0.));
#1532=DIRECTION('ref_axis',(1.,0.,0.));
#1533=DIRECTION('center_axis',(0.,1.,0.));
#1534=DIRECTION('ref_axis',(1.,0.,0.));
#1535=DIRECTION('',(0.,0.,-1.));
#1536=DIRECTION('',(1.,0.,0.));
#1537=DIRECTION('',(0.,0.,-1.));
#1538=DIRECTION('',(0.,0.,1.));
#1539=DIRECTION('',(0.991111329804974,0.,0.133035077826171));
#1540=DIRECTION('center_axis',(1.,0.,0.));
#1541=DIRECTION('ref_axis',(0.,0.,1.));
#1542=DIRECTION('',(0.,0.,1.));
#1543=DIRECTION('',(0.,-1.,0.));
#1544=DIRECTION('center_axis',(0.133035077826171,0.,-0.991111329804974));
#1545=DIRECTION('ref_axis',(0.991111329804974,0.,0.133035077826171));
#1546=DIRECTION('',(0.991111329804974,0.,0.133035077826171));
#1547=DIRECTION('center_axis',(-1.,0.,0.));
#1548=DIRECTION('ref_axis',(0.,0.,-1.));
#1549=DIRECTION('',(0.,0.,1.));
#1550=DIRECTION('',(0.,0.,-1.));
#1551=DIRECTION('',(0.,0.,1.));
#1552=DIRECTION('',(0.,1.,0.));
#1553=DIRECTION('center_axis',(0.,-1.,0.));
#1554=DIRECTION('ref_axis',(0.,0.,-1.));
#1555=DIRECTION('center_axis',(0.,1.,0.));
#1556=DIRECTION('ref_axis',(1.,0.,0.));
#1557=DIRECTION('',(0.,1.,0.));
#1558=DIRECTION('center_axis',(0.,-1.,0.));
#1559=DIRECTION('ref_axis',(1.,0.,0.));
#1560=DIRECTION('center_axis',(0.,1.,0.));
#1561=DIRECTION('ref_axis',(1.,0.,0.));
#1562=DIRECTION('center_axis',(-1.,0.,0.));
#1563=DIRECTION('ref_axis',(0.,0.,-1.));
#1564=DIRECTION('',(0.,0.,1.));
#1565=DIRECTION('',(0.,-1.,0.));
#1566=DIRECTION('',(0.,0.,1.));
#1567=DIRECTION('',(0.,0.,1.));
#1568=DIRECTION('',(0.,-1.,0.));
#1569=DIRECTION('',(0.,0.,-1.));
#1570=DIRECTION('',(0.,-1.,0.));
#1571=DIRECTION('center_axis',(0.,1.,0.));
#1572=DIRECTION('ref_axis',(1.,0.,0.));
#1573=DIRECTION('center_axis',(0.,-1.,0.));
#1574=DIRECTION('ref_axis',(1.,0.,0.));
#1575=DIRECTION('',(1.,0.,0.));
#1576=DIRECTION('center_axis',(0.,-1.,0.));
#1577=DIRECTION('ref_axis',(1.,0.,0.));
#1578=DIRECTION('center_axis',(0.,1.,0.));
#1579=DIRECTION('ref_axis',(1.,0.,0.));
#1580=DIRECTION('',(0.,0.,-1.));
#1581=DIRECTION('',(0.991111329804974,0.,-0.133035077826171));
#1582=DIRECTION('',(0.,0.,-1.));
#1583=DIRECTION('',(-1.,0.,0.));
#1584=DIRECTION('',(-1.,0.,0.));
#1585=DIRECTION('center_axis',(0.,0.,1.));
#1586=DIRECTION('ref_axis',(-1.,0.,0.));
#1587=DIRECTION('',(0.,-1.,0.));
#1588=DIRECTION('',(0.,1.,0.));
#1589=DIRECTION('',(1.,0.,0.));
#1590=DIRECTION('',(-1.,0.,0.));
#1591=DIRECTION('',(0.,-1.,0.));
#1592=DIRECTION('',(1.,0.,0.));
#1593=DIRECTION('',(0.,1.,0.));
#1594=DIRECTION('',(1.,0.,0.));
#1595=DIRECTION('center_axis',(0.133035077826171,0.,0.991111329804974));
#1596=DIRECTION('ref_axis',(-0.991111329804974,0.,0.133035077826171));
#1597=DIRECTION('',(-0.991111329804974,0.,0.133035077826171));
#1598=DIRECTION('',(0.,-1.,0.));
#1599=DIRECTION('center_axis',(1.,0.,0.));
#1600=DIRECTION('ref_axis',(0.,0.,1.));
#1601=DIRECTION('',(0.,0.,1.));
#1602=DIRECTION('',(0.,-1.,0.));
#1603=DIRECTION('center_axis',(0.,0.,-1.));
#1604=DIRECTION('ref_axis',(1.,0.,0.));
#1605=DIRECTION('',(1.,0.,0.));
#1606=DIRECTION('center_axis',(0.,-1.,0.));
#1607=DIRECTION('ref_axis',(0.,0.,-1.));
#1608=DIRECTION('center_axis',(0.,-1.,0.));
#1609=DIRECTION('ref_axis',(1.,0.,0.));
#1610=DIRECTION('center_axis',(0.,-1.,0.));
#1611=DIRECTION('ref_axis',(1.,0.,0.));
#1612=DIRECTION('center_axis',(0.,1.,0.));
#1613=DIRECTION('ref_axis',(1.,0.,0.));
#1614=DIRECTION('center_axis',(0.,-1.,0.));
#1615=DIRECTION('ref_axis',(-0.501790707204304,0.,0.864989067077385));
#1616=DIRECTION('center_axis',(0.,1.,0.));
#1617=DIRECTION('ref_axis',(1.,0.,0.));
#1618=DIRECTION('center_axis',(0.,1.,0.));
#1619=DIRECTION('ref_axis',(0.,0.,1.));
#1620=DIRECTION('',(0.,0.,-1.));
#1621=DIRECTION('center_axis',(0.,1.,0.));
#1622=DIRECTION('ref_axis',(1.,0.,0.));
#1623=DIRECTION('',(-1.,0.,0.));
#1624=DIRECTION('',(0.,0.,-1.));
#1625=DIRECTION('center_axis',(0.,1.,0.));
#1626=DIRECTION('ref_axis',(1.,0.,0.));
#1627=DIRECTION('',(1.,0.,0.));
#1628=DIRECTION('center_axis',(0.,1.,0.));
#1629=DIRECTION('ref_axis',(1.,0.,0.));
#1630=DIRECTION('',(0.,0.,-1.));
#1631=DIRECTION('center_axis',(0.,1.,0.));
#1632=DIRECTION('ref_axis',(1.,0.,0.));
#1633=DIRECTION('center_axis',(0.,1.,0.));
#1634=DIRECTION('ref_axis',(1.,0.,0.));
#1635=DIRECTION('center_axis',(0.,1.,0.));
#1636=DIRECTION('ref_axis',(1.,0.,0.));
#1637=DIRECTION('center_axis',(0.,1.,0.));
#1638=DIRECTION('ref_axis',(1.,0.,0.));
#1639=DIRECTION('center_axis',(0.,1.,0.));
#1640=DIRECTION('ref_axis',(1.,0.,0.));
#1641=DIRECTION('center_axis',(0.,1.,0.));
#1642=DIRECTION('ref_axis',(1.,0.,0.));
#1643=DIRECTION('',(0.,1.,0.));
#1644=DIRECTION('center_axis',(0.,-1.,0.));
#1645=DIRECTION('ref_axis',(1.,0.,0.));
#1646=DIRECTION('center_axis',(0.,1.,0.));
#1647=DIRECTION('ref_axis',(1.,0.,0.));
#1648=DIRECTION('center_axis',(0.,1.,0.));
#1649=DIRECTION('ref_axis',(1.,0.,0.));
#1650=DIRECTION('',(0.,1.,0.));
#1651=DIRECTION('center_axis',(0.,-1.,0.));
#1652=DIRECTION('ref_axis',(1.,0.,0.));
#1653=DIRECTION('center_axis',(0.,1.,0.));
#1654=DIRECTION('ref_axis',(1.,0.,0.));
#1655=DIRECTION('center_axis',(0.,1.,0.));
#1656=DIRECTION('ref_axis',(1.,0.,0.));
#1657=DIRECTION('',(0.,1.,0.));
#1658=DIRECTION('center_axis',(0.,-1.,0.));
#1659=DIRECTION('ref_axis',(1.,0.,0.));
#1660=DIRECTION('center_axis',(0.,1.,0.));
#1661=DIRECTION('ref_axis',(1.,0.,0.));
#1662=DIRECTION('',(0.,1.,0.));
#1663=DIRECTION('center_axis',(0.,-1.,0.));
#1664=DIRECTION('ref_axis',(1.,0.,0.));
#1665=DIRECTION('center_axis',(0.,1.,0.));
#1666=DIRECTION('ref_axis',(1.,0.,0.));
#1667=DIRECTION('',(0.,1.,0.));
#1668=DIRECTION('center_axis',(0.,-1.,0.));
#1669=DIRECTION('ref_axis',(1.,0.,0.));
#1670=DIRECTION('center_axis',(0.,1.,0.));
#1671=DIRECTION('ref_axis',(1.,0.,0.));
#1672=DIRECTION('',(0.,1.,0.));
#1673=DIRECTION('center_axis',(0.,-1.,0.));
#1674=DIRECTION('ref_axis',(1.,0.,0.));
#1675=DIRECTION('center_axis',(0.,1.,0.));
#1676=DIRECTION('ref_axis',(1.,0.,0.));
#1677=DIRECTION('',(0.,1.,0.));
#1678=DIRECTION('center_axis',(0.,-1.,0.));
#1679=DIRECTION('ref_axis',(1.,0.,0.));
#1680=DIRECTION('center_axis',(0.,1.,0.));
#1681=DIRECTION('ref_axis',(1.,0.,0.));
#1682=DIRECTION('',(0.,1.,0.));
#1683=DIRECTION('center_axis',(0.,-1.,0.));
#1684=DIRECTION('ref_axis',(1.,0.,0.));
#1685=DIRECTION('center_axis',(0.,-1.,0.));
#1686=DIRECTION('ref_axis',(-0.501790707204301,0.,-0.864989067077386));
#1687=DIRECTION('center_axis',(0.,-1.,0.));
#1688=DIRECTION('ref_axis',(1.,0.,0.));
#1689=DIRECTION('center_axis',(0.,-1.,0.));
#1690=DIRECTION('ref_axis',(1.,0.,0.));
#1691=DIRECTION('center_axis',(0.,-1.,0.));
#1692=DIRECTION('ref_axis',(1.,0.,0.));
#1693=DIRECTION('center_axis',(0.,-1.,0.));
#1694=DIRECTION('ref_axis',(1.,0.,0.));
#1695=DIRECTION('',(0.,1.,0.));
#1696=DIRECTION('center_axis',(0.,1.,0.));
#1697=DIRECTION('ref_axis',(1.,0.,0.));
#1698=DIRECTION('center_axis',(0.,-1.,0.));
#1699=DIRECTION('ref_axis',(1.,0.,0.));
#1700=DIRECTION('center_axis',(0.,1.,0.));
#1701=DIRECTION('ref_axis',(0.,0.,1.));
#1702=DIRECTION('',(1.,0.,0.));
#1703=DIRECTION('',(0.,0.,-1.));
#1704=DIRECTION('center_axis',(0.,-1.,0.));
#1705=DIRECTION('ref_axis',(1.,0.,0.));
#1706=DIRECTION('center_axis',(0.,-1.,0.));
#1707=DIRECTION('ref_axis',(1.,0.,0.));
#1708=DIRECTION('',(0.,1.,0.));
#1709=DIRECTION('center_axis',(0.,1.,0.));
#1710=DIRECTION('ref_axis',(1.,0.,0.));
#1711=DIRECTION('center_axis',(0.,-1.,0.));
#1712=DIRECTION('ref_axis',(1.,0.,0.));
#1713=DIRECTION('center_axis',(0.,1.,0.));
#1714=DIRECTION('ref_axis',(0.,0.,1.));
#1715=DIRECTION('',(0.,0.,-1.));
#1716=DIRECTION('',(-1.,0.,0.));
#1717=DIRECTION('center_axis',(0.,0.,1.));
#1718=DIRECTION('ref_axis',(1.,0.,0.));
#1719=DIRECTION('',(0.,1.,0.));
#1720=DIRECTION('',(-1.,0.,0.));
#1721=DIRECTION('',(0.,-1.,0.));
#1722=DIRECTION('center_axis',(0.,0.,1.));
#1723=DIRECTION('ref_axis',(1.,0.,0.));
#1724=DIRECTION('',(0.,-1.,0.));
#1725=DIRECTION('',(0.,1.,0.));
#1726=DIRECTION('',(1.,0.,0.));
#1727=DIRECTION('center_axis',(1.,0.,0.));
#1728=DIRECTION('ref_axis',(0.,0.,-1.));
#1729=DIRECTION('',(0.,0.,-1.));
#1730=DIRECTION('center_axis',(0.,-1.,0.));
#1731=DIRECTION('ref_axis',(0.,0.,-1.));
#1732=DIRECTION('',(0.,0.,-1.));
#1733=DIRECTION('center_axis',(-1.,0.,0.));
#1734=DIRECTION('ref_axis',(0.,0.,1.));
#1735=CARTESIAN_POINT('',(0.,0.,0.));
#1736=CARTESIAN_POINT('Origin',(407.,45.,232.));
#1737=CARTESIAN_POINT('',(407.,45.,234.15));
#1738=CARTESIAN_POINT('Origin',(407.,45.,232.));
#1739=CARTESIAN_POINT('',(412.75,45.,234.15));
#1740=CARTESIAN_POINT('',(407.,45.,234.15));
#1741=CARTESIAN_POINT('Origin',(412.75,45.,232.));
#1742=CARTESIAN_POINT('Origin',(407.,45.,248.));
#1743=CARTESIAN_POINT('',(407.,45.,250.15));
#1744=CARTESIAN_POINT('Origin',(407.,45.,248.));
#1745=CARTESIAN_POINT('',(412.75,45.,250.15));
#1746=CARTESIAN_POINT('',(407.,45.,250.15));
#1747=CARTESIAN_POINT('Origin',(412.75,45.,248.));
#1748=CARTESIAN_POINT('Origin',(407.,72.,258.));
#1749=CARTESIAN_POINT('',(407.,72.,258.));
#1750=CARTESIAN_POINT('',(407.,40.,258.));
#1751=CARTESIAN_POINT('',(407.,72.,258.));
#1752=CARTESIAN_POINT('',(412.75,40.,258.));
#1753=CARTESIAN_POINT('',(407.,40.,258.));
#1754=CARTESIAN_POINT('',(412.75,72.,258.));
#1755=CARTESIAN_POINT('',(412.75,72.,258.));
#1756=CARTESIAN_POINT('',(410.3,72.,258.));
#1757=CARTESIAN_POINT('',(423.65,72.,258.));
#1758=CARTESIAN_POINT('',(407.,72.,258.));
#1759=CARTESIAN_POINT('Origin',(407.,72.,222.));
#1760=CARTESIAN_POINT('',(410.3,72.,222.));
#1761=CARTESIAN_POINT('',(410.3,72.,240.));
#1762=CARTESIAN_POINT('',(407.,72.,222.));
#1763=CARTESIAN_POINT('',(407.,72.,222.));
#1764=CARTESIAN_POINT('',(407.,72.,222.));
#1765=CARTESIAN_POINT('Origin',(407.,40.,222.));
#1766=CARTESIAN_POINT('',(407.,40.,222.));
#1767=CARTESIAN_POINT('',(407.,40.,222.));
#1768=CARTESIAN_POINT('',(412.75,72.,222.));
#1769=CARTESIAN_POINT('',(423.65,72.,222.));
#1770=CARTESIAN_POINT('',(412.75,40.,222.));
#1771=CARTESIAN_POINT('',(412.75,40.,222.));
#1772=CARTESIAN_POINT('',(407.,40.,222.));
#1773=CARTESIAN_POINT('Origin',(407.,40.,258.));
#1774=CARTESIAN_POINT('',(407.,40.,258.));
#1775=CARTESIAN_POINT('',(412.75,40.,258.));
#1776=CARTESIAN_POINT('Origin',(412.75,56.,240.));
#1777=CARTESIAN_POINT('',(412.75,72.,240.));
#1778=CARTESIAN_POINT('Origin',(407.,56.,240.));
#1779=CARTESIAN_POINT('Origin',(505.,62.,296.));
#1780=CARTESIAN_POINT('',(502.85,62.,295.75));
#1781=CARTESIAN_POINT('Origin',(505.,62.,295.75));
#1782=CARTESIAN_POINT('',(502.85,62.,289.75));
#1783=CARTESIAN_POINT('',(502.85,62.,296.));
#1784=CARTESIAN_POINT('Origin',(505.,62.,289.75));
#1785=CARTESIAN_POINT('Origin',(518.,62.,296.));
#1786=CARTESIAN_POINT('',(520.,62.7889866919032,289.75));
#1787=CARTESIAN_POINT('',(520.,61.2110133080968,289.75));
#1788=CARTESIAN_POINT('Origin',(518.,62.,289.75));
#1789=CARTESIAN_POINT('',(520.,62.7889866919032,295.75));
#1790=CARTESIAN_POINT('',(520.,62.7889866919032,296.));
#1791=CARTESIAN_POINT('',(520.,61.2110133080968,295.75));
#1792=CARTESIAN_POINT('Origin',(518.,62.,295.75));
#1793=CARTESIAN_POINT('',(520.,61.2110133080968,296.));
#1794=CARTESIAN_POINT('Origin',(520.,72.,288.));
#1795=CARTESIAN_POINT('',(520.,65.75,289.75));
#1796=CARTESIAN_POINT('',(520.,65.75,289.75));
#1797=CARTESIAN_POINT('',(520.,65.75,288.));
#1798=CARTESIAN_POINT('',(520.,65.75,288.));
#1799=CARTESIAN_POINT('',(520.,72.,288.));
#1800=CARTESIAN_POINT('',(520.,72.,288.));
#1801=CARTESIAN_POINT('',(520.,72.,295.75));
#1802=CARTESIAN_POINT('',(520.,72.,288.));
#1803=CARTESIAN_POINT('',(520.,72.,295.75));
#1804=CARTESIAN_POINT('Origin',(520.,72.,295.75));
#1805=CARTESIAN_POINT('',(498.,72.,295.75));
#1806=CARTESIAN_POINT('',(520.,72.,295.75));
#1807=CARTESIAN_POINT('',(498.,58.25,295.75));
#1808=CARTESIAN_POINT('',(498.,72.,295.75));
#1809=CARTESIAN_POINT('',(520.,58.25,295.75));
#1810=CARTESIAN_POINT('',(520.,58.25,295.75));
#1811=CARTESIAN_POINT('',(520.,72.,295.75));
#1812=CARTESIAN_POINT('Origin',(498.,65.75,289.75));
#1813=CARTESIAN_POINT('',(520.,58.25,289.75));
#1814=CARTESIAN_POINT('',(520.,65.75,289.75));
#1815=CARTESIAN_POINT('',(498.,58.25,289.75));
#1816=CARTESIAN_POINT('',(498.,58.25,289.75));
#1817=CARTESIAN_POINT('',(498.,65.75,289.75));
#1818=CARTESIAN_POINT('',(498.,65.75,289.75));
#1819=CARTESIAN_POINT('',(503.5,65.75,289.75));
#1820=CARTESIAN_POINT('Origin',(509.,58.25,292.75));
#1821=CARTESIAN_POINT('',(498.,58.25,295.75));
#1822=CARTESIAN_POINT('',(520.,58.25,289.75));
#1823=CARTESIAN_POINT('Origin',(498.,72.,288.));
#1824=CARTESIAN_POINT('',(515.,72.,288.));
#1825=CARTESIAN_POINT('',(515.,65.75,288.));
#1826=CARTESIAN_POINT('',(515.,72.,288.));
#1827=CARTESIAN_POINT('',(498.,72.,288.));
#1828=CARTESIAN_POINT('',(498.,65.75,288.));
#1829=CARTESIAN_POINT('Origin',(520.,72.,288.));
#1830=CARTESIAN_POINT('Origin',(498.,72.,295.75));
#1831=CARTESIAN_POINT('',(498.,72.,288.));
#1832=CARTESIAN_POINT('',(498.,72.,295.75));
#1833=CARTESIAN_POINT('',(498.,65.75,288.));
#1834=CARTESIAN_POINT('',(498.,72.,288.));
#1835=CARTESIAN_POINT('',(498.,65.75,295.75));
#1836=CARTESIAN_POINT('Origin',(509.,65.75,291.875));
#1837=CARTESIAN_POINT('',(512.,65.75,288.));
#1838=CARTESIAN_POINT('Origin',(515.,72.,288.));
#1839=CARTESIAN_POINT('',(462.,72.,288.));
#1840=CARTESIAN_POINT('',(515.,72.,288.));
#1841=CARTESIAN_POINT('',(462.,65.5,288.));
#1842=CARTESIAN_POINT('',(462.,72.,288.));
#1843=CARTESIAN_POINT('',(515.,65.5,288.));
#1844=CARTESIAN_POINT('',(515.,65.5,288.));
#1845=CARTESIAN_POINT('',(515.,72.,288.));
#1846=CARTESIAN_POINT('Origin',(501.,72.,282.));
#1847=CARTESIAN_POINT('',(498.85,72.,282.));
#1848=CARTESIAN_POINT('Origin',(501.,72.,282.));
#1849=CARTESIAN_POINT('',(498.85,65.5,282.));
#1850=CARTESIAN_POINT('',(498.85,72.,282.));
#1851=CARTESIAN_POINT('Origin',(501.,65.5,282.));
#1852=CARTESIAN_POINT('Origin',(510.,72.,198.));
#1853=CARTESIAN_POINT('',(507.85,72.,198.));
#1854=CARTESIAN_POINT('Origin',(510.,72.,198.));
#1855=CARTESIAN_POINT('',(507.85,65.5,198.));
#1856=CARTESIAN_POINT('',(507.85,72.,198.));
#1857=CARTESIAN_POINT('Origin',(510.,65.5,198.));
#1858=CARTESIAN_POINT('Origin',(501.,72.,198.));
#1859=CARTESIAN_POINT('',(498.85,72.,198.));
#1860=CARTESIAN_POINT('Origin',(501.,72.,198.));
#1861=CARTESIAN_POINT('',(498.85,65.5,198.));
#1862=CARTESIAN_POINT('',(498.85,72.,198.));
#1863=CARTESIAN_POINT('Origin',(501.,65.5,198.));
#1864=CARTESIAN_POINT('Origin',(510.,72.,282.));
#1865=CARTESIAN_POINT('',(507.85,72.,282.));
#1866=CARTESIAN_POINT('Origin',(510.,72.,282.));
#1867=CARTESIAN_POINT('',(507.85,65.5,282.));
#1868=CARTESIAN_POINT('',(507.85,72.,282.));
#1869=CARTESIAN_POINT('Origin',(510.,65.5,282.));
#1870=CARTESIAN_POINT('Origin',(462.,72.,264.));
#1871=CARTESIAN_POINT('',(466.674772708487,68.,264.));
#1872=CARTESIAN_POINT('',(466.674772708487,72.,264.));
#1873=CARTESIAN_POINT('',(466.674772708487,74.,264.));
#1874=CARTESIAN_POINT('',(470.198979485566,68.,264.));
#1875=CARTESIAN_POINT('',(463.65,68.,264.));
#1876=CARTESIAN_POINT('',(470.198979485566,72.,264.));
#1877=CARTESIAN_POINT('',(470.198979485566,70.,264.));
#1878=CARTESIAN_POINT('',(470.3,72.,264.));
#1879=CARTESIAN_POINT('',(451.15,72.,264.));
#1880=CARTESIAN_POINT('',(470.3,65.5,264.));
#1881=CARTESIAN_POINT('',(470.3,72.,264.));
#1882=CARTESIAN_POINT('',(462.,65.5,264.));
#1883=CARTESIAN_POINT('',(462.,65.5,264.));
#1884=CARTESIAN_POINT('',(462.,68.,264.));
#1885=CARTESIAN_POINT('',(462.,72.,264.));
#1886=CARTESIAN_POINT('',(463.925227291513,68.,264.));
#1887=CARTESIAN_POINT('',(463.65,68.,264.));
#1888=CARTESIAN_POINT('',(463.925227291513,72.,264.));
#1889=CARTESIAN_POINT('',(463.925227291513,74.,264.));
#1890=CARTESIAN_POINT('',(462.,72.,264.));
#1891=CARTESIAN_POINT('Origin',(488.5,72.,276.));
#1892=CARTESIAN_POINT('',(463.6,72.,265.));
#1893=CARTESIAN_POINT('Origin',(465.3,72.,265.));
#1894=CARTESIAN_POINT('Origin',(465.3,72.,265.));
#1895=CARTESIAN_POINT('Origin',(488.5,72.,276.));
#1896=CARTESIAN_POINT('',(470.3,72.,270.));
#1897=CARTESIAN_POINT('',(470.3,72.,240.));
#1898=CARTESIAN_POINT('',(462.,72.,270.));
#1899=CARTESIAN_POINT('',(440.3,72.,270.));
#1900=CARTESIAN_POINT('',(462.,72.,288.));
#1901=CARTESIAN_POINT('',(515.,72.,270.));
#1902=CARTESIAN_POINT('',(515.,72.,270.));
#1903=CARTESIAN_POINT('',(470.3,72.,264.));
#1904=CARTESIAN_POINT('Origin',(515.,72.,270.));
#1905=CARTESIAN_POINT('',(515.,65.5,270.));
#1906=CARTESIAN_POINT('',(515.,65.5,270.));
#1907=CARTESIAN_POINT('',(515.,72.,270.));
#1908=CARTESIAN_POINT('Origin',(470.3,72.,264.));
#1909=CARTESIAN_POINT('',(470.3,65.5,264.));
#1910=CARTESIAN_POINT('Origin',(462.,72.,288.));
#1911=CARTESIAN_POINT('',(462.,68.,268.756327994199));
#1912=CARTESIAN_POINT('',(462.,68.,276.5));
#1913=CARTESIAN_POINT('',(462.,65.5,288.));
#1914=CARTESIAN_POINT('',(462.,72.,268.756327994199));
#1915=CARTESIAN_POINT('',(462.,72.,264.));
#1916=CARTESIAN_POINT('',(462.,70.,268.756327994199));
#1917=CARTESIAN_POINT('Origin',(488.5,65.5,276.));
#1918=CARTESIAN_POINT('Origin',(465.3,74.,265.));
#1919=CARTESIAN_POINT('',(463.6,76.,265.));
#1920=CARTESIAN_POINT('',(463.6,74.,265.));
#1921=CARTESIAN_POINT('Origin',(465.3,76.,265.));
#1922=CARTESIAN_POINT('Origin',(465.3,68.,265.));
#1923=CARTESIAN_POINT('Origin',(462.,72.,216.));
#1924=CARTESIAN_POINT('',(462.,68.,211.243672005801));
#1925=CARTESIAN_POINT('',(462.,68.,216.));
#1926=CARTESIAN_POINT('',(462.,68.,215.5));
#1927=CARTESIAN_POINT('',(462.,72.,211.243672005801));
#1928=CARTESIAN_POINT('',(462.,70.,211.243672005801));
#1929=CARTESIAN_POINT('',(462.,72.,210.));
#1930=CARTESIAN_POINT('',(462.,72.,228.));
#1931=CARTESIAN_POINT('',(462.,72.,192.));
#1932=CARTESIAN_POINT('',(462.,72.,192.));
#1933=CARTESIAN_POINT('',(462.,65.5,192.));
#1934=CARTESIAN_POINT('',(462.,72.,192.));
#1935=CARTESIAN_POINT('',(462.,65.5,216.));
#1936=CARTESIAN_POINT('',(462.,65.5,192.));
#1937=CARTESIAN_POINT('',(462.,72.,216.));
#1938=CARTESIAN_POINT('Origin',(488.5,72.,204.));
#1939=CARTESIAN_POINT('',(463.925227291513,72.,216.));
#1940=CARTESIAN_POINT('',(463.6,72.,215.));
#1941=CARTESIAN_POINT('Origin',(465.3,72.,215.));
#1942=CARTESIAN_POINT('',(466.674772708487,72.,216.));
#1943=CARTESIAN_POINT('',(462.,72.,216.));
#1944=CARTESIAN_POINT('Origin',(465.3,72.,215.));
#1945=CARTESIAN_POINT('Origin',(488.5,72.,204.));
#1946=CARTESIAN_POINT('',(470.3,72.,216.));
#1947=CARTESIAN_POINT('',(470.3,72.,210.));
#1948=CARTESIAN_POINT('',(470.3,72.,240.));
#1949=CARTESIAN_POINT('',(515.,72.,210.));
#1950=CARTESIAN_POINT('',(470.3,72.,216.));
#1951=CARTESIAN_POINT('',(515.,72.,192.));
#1952=CARTESIAN_POINT('',(515.,72.,210.));
#1953=CARTESIAN_POINT('',(515.,72.,192.));
#1954=CARTESIAN_POINT('',(440.3,72.,210.));
#1955=CARTESIAN_POINT('Origin',(470.3,72.,216.));
#1956=CARTESIAN_POINT('',(466.674772708487,68.,216.));
#1957=CARTESIAN_POINT('',(466.674772708487,74.,216.));
#1958=CARTESIAN_POINT('',(463.925227291513,68.,216.));
#1959=CARTESIAN_POINT('',(463.925227291513,74.,216.));
#1960=CARTESIAN_POINT('',(467.8,68.,216.));
#1961=CARTESIAN_POINT('',(470.3,65.5,216.));
#1962=CARTESIAN_POINT('',(462.,65.5,216.));
#1963=CARTESIAN_POINT('',(470.3,72.,216.));
#1964=CARTESIAN_POINT('',(470.198979485566,72.,216.));
#1965=CARTESIAN_POINT('',(455.3,72.,216.));
#1966=CARTESIAN_POINT('',(470.198979485566,68.,216.));
#1967=CARTESIAN_POINT('',(470.198979485566,70.,216.));
#1968=CARTESIAN_POINT('',(467.8,68.,216.));
#1969=CARTESIAN_POINT('Origin',(515.,72.,210.));
#1970=CARTESIAN_POINT('',(515.,65.5,210.));
#1971=CARTESIAN_POINT('',(470.3,65.5,216.));
#1972=CARTESIAN_POINT('',(515.,72.,210.));
#1973=CARTESIAN_POINT('Origin',(515.,72.,192.));
#1974=CARTESIAN_POINT('',(515.,65.5,192.));
#1975=CARTESIAN_POINT('',(515.,65.5,210.));
#1976=CARTESIAN_POINT('',(515.,72.,192.));
#1977=CARTESIAN_POINT('Origin',(462.,72.,192.));
#1978=CARTESIAN_POINT('',(515.,65.5,192.));
#1979=CARTESIAN_POINT('Origin',(488.5,65.5,204.));
#1980=CARTESIAN_POINT('Origin',(465.3,68.,215.));
#1981=CARTESIAN_POINT('Origin',(465.3,68.,215.));
#1982=CARTESIAN_POINT('Origin',(465.3,68.,215.));
#1983=CARTESIAN_POINT('Origin',(465.3,70.,215.));
#1984=CARTESIAN_POINT('Origin',(465.3,72.,215.));
#1985=CARTESIAN_POINT('Origin',(440.3,72.,240.));
#1986=CARTESIAN_POINT('',(410.3,72.,215.));
#1987=CARTESIAN_POINT('',(410.3,72.,240.));
#1988=CARTESIAN_POINT('',(415.3,72.,210.));
#1989=CARTESIAN_POINT('Origin',(415.3,72.,215.));
#1990=CARTESIAN_POINT('',(440.3,72.,210.));
#1991=CARTESIAN_POINT('',(470.3,72.,240.));
#1992=CARTESIAN_POINT('Origin',(465.3,72.,265.));
#1993=CARTESIAN_POINT('',(415.3,72.,270.));
#1994=CARTESIAN_POINT('',(440.3,72.,270.));
#1995=CARTESIAN_POINT('',(410.3,72.,265.));
#1996=CARTESIAN_POINT('Origin',(415.3,72.,265.));
#1997=CARTESIAN_POINT('',(410.3,72.,240.));
#1998=CARTESIAN_POINT('',(429.1,72.,240.));
#1999=CARTESIAN_POINT('Origin',(440.3,72.,240.));
#2000=CARTESIAN_POINT('',(423.1,72.,224.5));
#2001=CARTESIAN_POINT('Origin',(424.8,72.,224.5));
#2002=CARTESIAN_POINT('',(423.1,72.,255.5));
#2003=CARTESIAN_POINT('Origin',(424.8,72.,255.5));
#2004=CARTESIAN_POINT('',(454.1,72.,224.5));
#2005=CARTESIAN_POINT('Origin',(455.8,72.,224.5));
#2006=CARTESIAN_POINT('',(454.1,72.,255.5));
#2007=CARTESIAN_POINT('Origin',(455.8,72.,255.5));
#2008=CARTESIAN_POINT('Origin',(465.3,74.,215.));
#2009=CARTESIAN_POINT('',(463.6,76.,215.));
#2010=CARTESIAN_POINT('',(463.6,74.,215.));
#2011=CARTESIAN_POINT('Origin',(465.3,76.,215.));
#2012=CARTESIAN_POINT('Origin',(415.3,74.,265.));
#2013=CARTESIAN_POINT('',(413.6,68.,265.));
#2014=CARTESIAN_POINT('Origin',(415.3,68.,265.));
#2015=CARTESIAN_POINT('',(413.6,76.,265.));
#2016=CARTESIAN_POINT('',(413.6,74.,265.));
#2017=CARTESIAN_POINT('Origin',(415.3,76.,265.));
#2018=CARTESIAN_POINT('Origin',(415.3,74.,215.));
#2019=CARTESIAN_POINT('',(413.6,68.,215.));
#2020=CARTESIAN_POINT('Origin',(415.3,68.,215.));
#2021=CARTESIAN_POINT('',(413.6,76.,215.));
#2022=CARTESIAN_POINT('',(413.6,74.,215.));
#2023=CARTESIAN_POINT('Origin',(415.3,76.,215.));
#2024=CARTESIAN_POINT('Origin',(455.8,73.,255.5));
#2025=CARTESIAN_POINT('',(454.1,76.,255.5));
#2026=CARTESIAN_POINT('',(454.1,73.,255.5));
#2027=CARTESIAN_POINT('Origin',(455.8,76.,255.5));
#2028=CARTESIAN_POINT('Origin',(455.8,73.,224.5));
#2029=CARTESIAN_POINT('',(454.1,76.,224.5));
#2030=CARTESIAN_POINT('',(454.1,73.,224.5));
#2031=CARTESIAN_POINT('Origin',(455.8,76.,224.5));
#2032=CARTESIAN_POINT('Origin',(424.8,73.,255.5));
#2033=CARTESIAN_POINT('',(423.1,76.,255.5));
#2034=CARTESIAN_POINT('',(423.1,73.,255.5));
#2035=CARTESIAN_POINT('Origin',(424.8,76.,255.5));
#2036=CARTESIAN_POINT('Origin',(424.8,73.,224.5));
#2037=CARTESIAN_POINT('',(423.1,76.,224.5));
#2038=CARTESIAN_POINT('',(423.1,73.,224.5));
#2039=CARTESIAN_POINT('Origin',(424.8,76.,224.5));
#2040=CARTESIAN_POINT('Origin',(440.3,73.,240.));
#2041=CARTESIAN_POINT('',(429.1,76.,240.));
#2042=CARTESIAN_POINT('',(429.1,73.,240.));
#2043=CARTESIAN_POINT('Origin',(440.3,76.,240.));
#2044=CARTESIAN_POINT('Origin',(465.3,70.,265.));
#2045=CARTESIAN_POINT('Origin',(465.3,68.,265.));
#2046=CARTESIAN_POINT('Origin',(465.3,68.,265.));
#2047=CARTESIAN_POINT('Origin',(415.3,70.,265.));
#2048=CARTESIAN_POINT('',(410.3,68.,265.));
#2049=CARTESIAN_POINT('Origin',(415.3,68.,265.));
#2050=CARTESIAN_POINT('',(410.3,70.,265.));
#2051=CARTESIAN_POINT('Origin',(415.3,72.,265.));
#2052=CARTESIAN_POINT('Origin',(415.3,68.,265.));
#2053=CARTESIAN_POINT('Origin',(440.3,72.,240.));
#2054=CARTESIAN_POINT('',(410.3,72.,270.));
#2055=CARTESIAN_POINT('',(440.3,72.,270.));
#2056=CARTESIAN_POINT('',(410.3,72.,240.));
#2057=CARTESIAN_POINT('Origin',(415.3,70.,215.));
#2058=CARTESIAN_POINT('',(410.3,68.,215.));
#2059=CARTESIAN_POINT('Origin',(415.3,68.,215.));
#2060=CARTESIAN_POINT('',(410.3,70.,215.));
#2061=CARTESIAN_POINT('Origin',(415.3,72.,215.));
#2062=CARTESIAN_POINT('Origin',(415.3,68.,215.));
#2063=CARTESIAN_POINT('Origin',(440.3,72.,240.));
#2064=CARTESIAN_POINT('',(410.3,72.,210.));
#2065=CARTESIAN_POINT('',(410.3,72.,240.));
#2066=CARTESIAN_POINT('',(440.3,72.,210.));
#2067=CARTESIAN_POINT('Origin',(440.3,74.,270.));
#2068=CARTESIAN_POINT('',(470.3,76.,270.));
#2069=CARTESIAN_POINT('',(470.3,74.,270.));
#2070=CARTESIAN_POINT('',(410.3,76.,270.));
#2071=CARTESIAN_POINT('',(440.3,76.,270.));
#2072=CARTESIAN_POINT('',(410.3,74.,270.));
#2073=CARTESIAN_POINT('Origin',(440.3,74.,210.));
#2074=CARTESIAN_POINT('',(470.3,76.,210.));
#2075=CARTESIAN_POINT('',(470.3,74.,210.));
#2076=CARTESIAN_POINT('',(410.3,76.,210.));
#2077=CARTESIAN_POINT('',(410.3,74.,210.));
#2078=CARTESIAN_POINT('',(440.3,76.,210.));
#2079=CARTESIAN_POINT('Origin',(410.3,74.,240.));
#2080=CARTESIAN_POINT('',(410.3,76.,240.));
#2081=CARTESIAN_POINT('Origin',(440.3,76.,240.));
#2082=CARTESIAN_POINT('',(470.3,76.,240.));
#2083=CARTESIAN_POINT('Origin',(470.3,74.,240.));
#2084=UNCERTAINTY_MEASURE_WITH_UNIT(LENGTH_MEASURE(0.01),#2088,
'DISTANCE_ACCURACY_VALUE',
'Maximum model space distance between geometric entities at asserted c
onnectivities');
#2085=UNCERTAINTY_MEASURE_WITH_UNIT(LENGTH_MEASURE(0.01),#2088,
'DISTANCE_ACCURACY_VALUE',
'Maximum model space distance between geometric entities at asserted c
onnectivities');
#2086=(
GEOMETRIC_REPRESENTATION_CONTEXT(3)
GLOBAL_UNCERTAINTY_ASSIGNED_CONTEXT((#2084))
GLOBAL_UNIT_ASSIGNED_CONTEXT((#2088,#2090,#2091))
REPRESENTATION_CONTEXT('','3D')
);
#2087=(
GEOMETRIC_REPRESENTATION_CONTEXT(3)
GLOBAL_UNCERTAINTY_ASSIGNED_CONTEXT((#2085))
GLOBAL_UNIT_ASSIGNED_CONTEXT((#2088,#2090,#2091))
REPRESENTATION_CONTEXT('','3D')
);
#2088=(
LENGTH_UNIT()
NAMED_UNIT(*)
SI_UNIT(.MILLI.,.METRE.)
);
#2089=(
LENGTH_UNIT()
NAMED_UNIT(*)
SI_UNIT($,.METRE.)
);
#2090=(
NAMED_UNIT(*)
PLANE_ANGLE_UNIT()
SI_UNIT($,.RADIAN.)
);
#2091=(
NAMED_UNIT(*)
SI_UNIT($,.STERADIAN.)
SOLID_ANGLE_UNIT()
);
#2092=SHAPE_DEFINITION_REPRESENTATION(#2093,#2094);
#2093=PRODUCT_DEFINITION_SHAPE('',$,#2096);
#2094=SHAPE_REPRESENTATION('',(#1273),#2086);
#2095=PRODUCT_DEFINITION_CONTEXT('part definition',#2100,'design');
#2096=PRODUCT_DEFINITION('2026-09-09-17-44-06-080','TMP_V036',#2097,#2095);
#2097=PRODUCT_DEFINITION_FORMATION('',$,#2102);
#2098=PRODUCT_RELATED_PRODUCT_CATEGORY('TMP_V036','TMP_V036',(#2102));
#2099=APPLICATION_PROTOCOL_DEFINITION('international standard',
'automotive_design',2009,#2100);
#2100=APPLICATION_CONTEXT(
'Core Data for Automotive Mechanical Design Process');
#2101=PRODUCT_CONTEXT('part definition',#2100,'mechanical');
#2102=PRODUCT('2026-09-09-17-44-06-080','TMP_V036',$,(#2101));
#2103=PRESENTATION_STYLE_ASSIGNMENT((#2104));
#2104=SURFACE_STYLE_USAGE(.BOTH.,#2105);
#2105=SURFACE_SIDE_STYLE('',(#2106));
#2106=SURFACE_STYLE_FILL_AREA(#2107);
#2107=FILL_AREA_STYLE('Steel - Satin',(#2108));
#2108=FILL_AREA_STYLE_COLOUR('Steel - Satin',#2109);
#2109=COLOUR_RGB('Steel - Satin',0.627450980392157,0.627450980392157,0.627450980392157);
ENDSEC;
END-ISO-10303-21;
