ISO-10303-21;
HEADER;
/* Generated by software containing ST-Developer
 * from STEP Tools, Inc. (www.steptools.com) 
 */

FILE_DESCRIPTION(
/* description */ (''),
/* implementation_level */ '2;1');

FILE_NAME(
/* name */ 'PRINT_V009C_P603_J6_FrontBearingRetainer_CSK.step',
/* time_stamp */ '2026-08-12T23:10:16+02:00',
/* author */ (''),
/* organization */ (''),
/* preprocessor_version */ 'ST-DEVELOPER v20.1',
/* originating_system */ 'Autodesk Translation Framework v15.8.0.0',
/* authorisation */ '');

FILE_SCHEMA (('AUTOMOTIVE_DESIGN { 1 0 10303 214 3 1 1 }'));
ENDSEC;

DATA;
#10=MECHANICAL_DESIGN_GEOMETRIC_PRESENTATION_REPRESENTATION('',(#13),#485);
#11=SHAPE_REPRESENTATION_RELATIONSHIP('SRR','None',#492,#12);
#12=ADVANCED_BREP_SHAPE_REPRESENTATION('',(#14),#484);
#13=STYLED_ITEM('',(#501),#14);
#14=MANIFOLD_SOLID_BREP('PRINT_V009C_P603_J6_FrontBearingRetainer_CSK',
#261);
#15=CYLINDRICAL_SURFACE('',#293,1.7);
#16=CYLINDRICAL_SURFACE('',#298,1.7);
#17=CYLINDRICAL_SURFACE('',#303,1.7);
#18=CYLINDRICAL_SURFACE('',#308,1.7);
#19=CYLINDRICAL_SURFACE('',#310,7.4);
#20=CYLINDRICAL_SURFACE('',#312,15.);
#21=FACE_BOUND('',#43,.T.);
#22=FACE_BOUND('',#54,.T.);
#23=FACE_BOUND('',#55,.T.);
#24=FACE_BOUND('',#56,.T.);
#25=FACE_BOUND('',#57,.T.);
#26=FACE_BOUND('',#58,.T.);
#27=PLANE('',#280);
#28=PLANE('',#314);
#29=FACE_OUTER_BOUND('',#41,.T.);
#30=FACE_OUTER_BOUND('',#42,.T.);
#31=FACE_OUTER_BOUND('',#44,.T.);
#32=FACE_OUTER_BOUND('',#45,.T.);
#33=FACE_OUTER_BOUND('',#46,.T.);
#34=FACE_OUTER_BOUND('',#47,.T.);
#35=FACE_OUTER_BOUND('',#48,.T.);
#36=FACE_OUTER_BOUND('',#49,.T.);
#37=FACE_OUTER_BOUND('',#50,.T.);
#38=FACE_OUTER_BOUND('',#51,.T.);
#39=FACE_OUTER_BOUND('',#52,.T.);
#40=FACE_OUTER_BOUND('',#53,.T.);
#41=EDGE_LOOP('',(#169,#170,#171,#172,#173,#174));
#42=EDGE_LOOP('',(#175,#176,#177,#178,#179,#180,#181,#182,#183,#184,#185,
#186,#187));
#43=EDGE_LOOP('',(#188));
#44=EDGE_LOOP('',(#189,#190,#191,#192,#193));
#45=EDGE_LOOP('',(#194,#195,#196,#197,#198,#199));
#46=EDGE_LOOP('',(#200,#201,#202,#203,#204));
#47=EDGE_LOOP('',(#205,#206,#207,#208,#209,#210));
#48=EDGE_LOOP('',(#211,#212,#213,#214,#215));
#49=EDGE_LOOP('',(#216,#217,#218,#219,#220,#221));
#50=EDGE_LOOP('',(#222,#223,#224,#225,#226));
#51=EDGE_LOOP('',(#227,#228,#229,#230));
#52=EDGE_LOOP('',(#231,#232,#233,#234,#235,#236,#237,#238));
#53=EDGE_LOOP('',(#239));
#54=EDGE_LOOP('',(#240));
#55=EDGE_LOOP('',(#241));
#56=EDGE_LOOP('',(#242));
#57=EDGE_LOOP('',(#243));
#58=EDGE_LOOP('',(#244));
#59=LINE('',#414,#69);
#60=LINE('',#442,#70);
#61=LINE('',#445,#71);
#62=LINE('',#452,#72);
#63=LINE('',#455,#73);
#64=LINE('',#462,#74);
#65=LINE('',#465,#75);
#66=LINE('',#472,#76);
#67=LINE('',#476,#77);
#68=LINE('',#479,#78);
#69=VECTOR('',#323,2.35);
#70=VECTOR('',#358,1.7);
#71=VECTOR('',#361,2.35);
#72=VECTOR('',#370,1.7);
#73=VECTOR('',#373,2.35);
#74=VECTOR('',#382,1.7);
#75=VECTOR('',#385,2.35);
#76=VECTOR('',#394,1.7);
#77=VECTOR('',#399,7.4);
#78=VECTOR('',#402,15.);
#79=CIRCLE('',#276,3.);
#80=CIRCLE('',#277,3.);
#81=CIRCLE('',#278,1.7);
#82=CIRCLE('',#279,1.7);
#83=CIRCLE('',#281,15.);
#84=CIRCLE('',#282,15.);
#85=CIRCLE('',#283,3.);
#86=CIRCLE('',#284,3.);
#87=CIRCLE('',#285,15.);
#88=CIRCLE('',#286,3.);
#89=CIRCLE('',#287,3.);
#90=CIRCLE('',#288,15.);
#91=CIRCLE('',#289,15.);
#92=CIRCLE('',#290,3.);
#93=CIRCLE('',#291,3.);
#94=CIRCLE('',#292,7.4);
#95=CIRCLE('',#294,1.7);
#96=CIRCLE('',#296,1.7);
#97=CIRCLE('',#297,1.7);
#98=CIRCLE('',#299,1.7);
#99=CIRCLE('',#301,1.7);
#100=CIRCLE('',#302,1.7);
#101=CIRCLE('',#304,1.7);
#102=CIRCLE('',#306,1.7);
#103=CIRCLE('',#307,1.7);
#104=CIRCLE('',#309,1.7);
#105=CIRCLE('',#311,7.4);
#106=CIRCLE('',#313,15.);
#107=VERTEX_POINT('',#409);
#108=VERTEX_POINT('',#410);
#109=VERTEX_POINT('',#413);
#110=VERTEX_POINT('',#415);
#111=VERTEX_POINT('',#419);
#112=VERTEX_POINT('',#420);
#113=VERTEX_POINT('',#422);
#114=VERTEX_POINT('',#424);
#115=VERTEX_POINT('',#427);
#116=VERTEX_POINT('',#429);
#117=VERTEX_POINT('',#434);
#118=VERTEX_POINT('',#437);
#119=VERTEX_POINT('',#440);
#120=VERTEX_POINT('',#444);
#121=VERTEX_POINT('',#446);
#122=VERTEX_POINT('',#450);
#123=VERTEX_POINT('',#454);
#124=VERTEX_POINT('',#456);
#125=VERTEX_POINT('',#460);
#126=VERTEX_POINT('',#464);
#127=VERTEX_POINT('',#466);
#128=VERTEX_POINT('',#470);
#129=VERTEX_POINT('',#474);
#130=VERTEX_POINT('',#478);
#131=EDGE_CURVE('',#107,#108,#79,.T.);
#132=EDGE_CURVE('',#108,#107,#80,.T.);
#133=EDGE_CURVE('',#108,#109,#59,.T.);
#134=EDGE_CURVE('',#110,#109,#81,.T.);
#135=EDGE_CURVE('',#109,#110,#82,.T.);
#136=EDGE_CURVE('',#111,#112,#83,.T.);
#137=EDGE_CURVE('',#112,#113,#84,.T.);
#138=EDGE_CURVE('',#113,#114,#85,.T.);
#139=EDGE_CURVE('',#114,#113,#86,.T.);
#140=EDGE_CURVE('',#113,#115,#87,.T.);
#141=EDGE_CURVE('',#115,#116,#88,.T.);
#142=EDGE_CURVE('',#116,#115,#89,.T.);
#143=EDGE_CURVE('',#115,#107,#90,.T.);
#144=EDGE_CURVE('',#107,#111,#91,.T.);
#145=EDGE_CURVE('',#111,#117,#92,.T.);
#146=EDGE_CURVE('',#117,#111,#93,.T.);
#147=EDGE_CURVE('',#118,#118,#94,.T.);
#148=EDGE_CURVE('',#119,#119,#95,.T.);
#149=EDGE_CURVE('',#119,#110,#60,.T.);
#150=EDGE_CURVE('',#116,#120,#61,.T.);
#151=EDGE_CURVE('',#121,#120,#96,.T.);
#152=EDGE_CURVE('',#120,#121,#97,.T.);
#153=EDGE_CURVE('',#122,#122,#98,.T.);
#154=EDGE_CURVE('',#122,#121,#62,.T.);
#155=EDGE_CURVE('',#114,#123,#63,.T.);
#156=EDGE_CURVE('',#124,#123,#99,.T.);
#157=EDGE_CURVE('',#123,#124,#100,.T.);
#158=EDGE_CURVE('',#125,#125,#101,.T.);
#159=EDGE_CURVE('',#125,#124,#64,.T.);
#160=EDGE_CURVE('',#117,#126,#65,.T.);
#161=EDGE_CURVE('',#127,#126,#102,.T.);
#162=EDGE_CURVE('',#126,#127,#103,.T.);
#163=EDGE_CURVE('',#128,#128,#104,.T.);
#164=EDGE_CURVE('',#128,#127,#66,.T.);
#165=EDGE_CURVE('',#129,#129,#105,.T.);
#166=EDGE_CURVE('',#129,#118,#67,.T.);
#167=EDGE_CURVE('',#112,#130,#68,.T.);
#168=EDGE_CURVE('',#130,#130,#106,.T.);
#169=ORIENTED_EDGE('',*,*,#131,.F.);
#170=ORIENTED_EDGE('',*,*,#132,.F.);
#171=ORIENTED_EDGE('',*,*,#133,.T.);
#172=ORIENTED_EDGE('',*,*,#134,.F.);
#173=ORIENTED_EDGE('',*,*,#135,.F.);
#174=ORIENTED_EDGE('',*,*,#133,.F.);
#175=ORIENTED_EDGE('',*,*,#136,.T.);
#176=ORIENTED_EDGE('',*,*,#137,.T.);
#177=ORIENTED_EDGE('',*,*,#138,.T.);
#178=ORIENTED_EDGE('',*,*,#139,.T.);
#179=ORIENTED_EDGE('',*,*,#140,.T.);
#180=ORIENTED_EDGE('',*,*,#141,.T.);
#181=ORIENTED_EDGE('',*,*,#142,.T.);
#182=ORIENTED_EDGE('',*,*,#143,.T.);
#183=ORIENTED_EDGE('',*,*,#131,.T.);
#184=ORIENTED_EDGE('',*,*,#132,.T.);
#185=ORIENTED_EDGE('',*,*,#144,.T.);
#186=ORIENTED_EDGE('',*,*,#145,.T.);
#187=ORIENTED_EDGE('',*,*,#146,.T.);
#188=ORIENTED_EDGE('',*,*,#147,.T.);
#189=ORIENTED_EDGE('',*,*,#148,.F.);
#190=ORIENTED_EDGE('',*,*,#149,.T.);
#191=ORIENTED_EDGE('',*,*,#134,.T.);
#192=ORIENTED_EDGE('',*,*,#135,.T.);
#193=ORIENTED_EDGE('',*,*,#149,.F.);
#194=ORIENTED_EDGE('',*,*,#141,.F.);
#195=ORIENTED_EDGE('',*,*,#142,.F.);
#196=ORIENTED_EDGE('',*,*,#150,.T.);
#197=ORIENTED_EDGE('',*,*,#151,.F.);
#198=ORIENTED_EDGE('',*,*,#152,.F.);
#199=ORIENTED_EDGE('',*,*,#150,.F.);
#200=ORIENTED_EDGE('',*,*,#153,.F.);
#201=ORIENTED_EDGE('',*,*,#154,.T.);
#202=ORIENTED_EDGE('',*,*,#151,.T.);
#203=ORIENTED_EDGE('',*,*,#152,.T.);
#204=ORIENTED_EDGE('',*,*,#154,.F.);
#205=ORIENTED_EDGE('',*,*,#138,.F.);
#206=ORIENTED_EDGE('',*,*,#139,.F.);
#207=ORIENTED_EDGE('',*,*,#155,.T.);
#208=ORIENTED_EDGE('',*,*,#156,.F.);
#209=ORIENTED_EDGE('',*,*,#157,.F.);
#210=ORIENTED_EDGE('',*,*,#155,.F.);
#211=ORIENTED_EDGE('',*,*,#158,.F.);
#212=ORIENTED_EDGE('',*,*,#159,.T.);
#213=ORIENTED_EDGE('',*,*,#156,.T.);
#214=ORIENTED_EDGE('',*,*,#157,.T.);
#215=ORIENTED_EDGE('',*,*,#159,.F.);
#216=ORIENTED_EDGE('',*,*,#145,.F.);
#217=ORIENTED_EDGE('',*,*,#146,.F.);
#218=ORIENTED_EDGE('',*,*,#160,.T.);
#219=ORIENTED_EDGE('',*,*,#161,.F.);
#220=ORIENTED_EDGE('',*,*,#162,.F.);
#221=ORIENTED_EDGE('',*,*,#160,.F.);
#222=ORIENTED_EDGE('',*,*,#163,.F.);
#223=ORIENTED_EDGE('',*,*,#164,.T.);
#224=ORIENTED_EDGE('',*,*,#161,.T.);
#225=ORIENTED_EDGE('',*,*,#162,.T.);
#226=ORIENTED_EDGE('',*,*,#164,.F.);
#227=ORIENTED_EDGE('',*,*,#165,.F.);
#228=ORIENTED_EDGE('',*,*,#166,.T.);
#229=ORIENTED_EDGE('',*,*,#147,.F.);
#230=ORIENTED_EDGE('',*,*,#166,.F.);
#231=ORIENTED_EDGE('',*,*,#136,.F.);
#232=ORIENTED_EDGE('',*,*,#144,.F.);
#233=ORIENTED_EDGE('',*,*,#143,.F.);
#234=ORIENTED_EDGE('',*,*,#140,.F.);
#235=ORIENTED_EDGE('',*,*,#137,.F.);
#236=ORIENTED_EDGE('',*,*,#167,.T.);
#237=ORIENTED_EDGE('',*,*,#168,.F.);
#238=ORIENTED_EDGE('',*,*,#167,.F.);
#239=ORIENTED_EDGE('',*,*,#168,.T.);
#240=ORIENTED_EDGE('',*,*,#148,.T.);
#241=ORIENTED_EDGE('',*,*,#153,.T.);
#242=ORIENTED_EDGE('',*,*,#158,.T.);
#243=ORIENTED_EDGE('',*,*,#163,.T.);
#244=ORIENTED_EDGE('',*,*,#165,.T.);
#245=CONICAL_SURFACE('',#275,2.35,0.714090698612139);
#246=CONICAL_SURFACE('',#295,2.35,0.714090698612139);
#247=CONICAL_SURFACE('',#300,2.35,0.714090698612139);
#248=CONICAL_SURFACE('',#305,2.35,0.714090698612139);
#249=ADVANCED_FACE('',(#29),#245,.F.);
#250=ADVANCED_FACE('',(#30,#21),#27,.T.);
#251=ADVANCED_FACE('',(#31),#15,.F.);
#252=ADVANCED_FACE('',(#32),#246,.F.);
#253=ADVANCED_FACE('',(#33),#16,.F.);
#254=ADVANCED_FACE('',(#34),#247,.F.);
#255=ADVANCED_FACE('',(#35),#17,.F.);
#256=ADVANCED_FACE('',(#36),#248,.F.);
#257=ADVANCED_FACE('',(#37),#18,.F.);
#258=ADVANCED_FACE('',(#38),#19,.F.);
#259=ADVANCED_FACE('',(#39),#20,.T.);
#260=ADVANCED_FACE('',(#40,#22,#23,#24,#25,#26),#28,.T.);
#261=CLOSED_SHELL('',(#249,#250,#251,#252,#253,#254,#255,#256,#257,#258,
#259,#260));
#262=DERIVED_UNIT_ELEMENT(#264,1.);
#263=DERIVED_UNIT_ELEMENT(#487,-3.);
#264=(
MASS_UNIT()
NAMED_UNIT(*)
SI_UNIT(.KILO.,.GRAM.)
);
#265=DERIVED_UNIT((#262,#263));
#266=MEASURE_REPRESENTATION_ITEM('density measure',
POSITIVE_RATIO_MEASURE(7850.),#265);
#267=PROPERTY_DEFINITION_REPRESENTATION(#272,#269);
#268=PROPERTY_DEFINITION_REPRESENTATION(#273,#270);
#269=REPRESENTATION('material name',(#271),#484);
#270=REPRESENTATION('density',(#266),#484);
#271=DESCRIPTIVE_REPRESENTATION_ITEM('Steel','Steel');
#272=PROPERTY_DEFINITION('material property','material name',#494);
#273=PROPERTY_DEFINITION('material property','density of part',#494);
#274=AXIS2_PLACEMENT_3D('',#407,#315,#316);
#275=AXIS2_PLACEMENT_3D('',#408,#317,#318);
#276=AXIS2_PLACEMENT_3D('',#411,#319,#320);
#277=AXIS2_PLACEMENT_3D('',#412,#321,#322);
#278=AXIS2_PLACEMENT_3D('',#416,#324,#325);
#279=AXIS2_PLACEMENT_3D('',#417,#326,#327);
#280=AXIS2_PLACEMENT_3D('',#418,#328,#329);
#281=AXIS2_PLACEMENT_3D('',#421,#330,#331);
#282=AXIS2_PLACEMENT_3D('',#423,#332,#333);
#283=AXIS2_PLACEMENT_3D('',#425,#334,#335);
#284=AXIS2_PLACEMENT_3D('',#426,#336,#337);
#285=AXIS2_PLACEMENT_3D('',#428,#338,#339);
#286=AXIS2_PLACEMENT_3D('',#430,#340,#341);
#287=AXIS2_PLACEMENT_3D('',#431,#342,#343);
#288=AXIS2_PLACEMENT_3D('',#432,#344,#345);
#289=AXIS2_PLACEMENT_3D('',#433,#346,#347);
#290=AXIS2_PLACEMENT_3D('',#435,#348,#349);
#291=AXIS2_PLACEMENT_3D('',#436,#350,#351);
#292=AXIS2_PLACEMENT_3D('',#438,#352,#353);
#293=AXIS2_PLACEMENT_3D('',#439,#354,#355);
#294=AXIS2_PLACEMENT_3D('',#441,#356,#357);
#295=AXIS2_PLACEMENT_3D('',#443,#359,#360);
#296=AXIS2_PLACEMENT_3D('',#447,#362,#363);
#297=AXIS2_PLACEMENT_3D('',#448,#364,#365);
#298=AXIS2_PLACEMENT_3D('',#449,#366,#367);
#299=AXIS2_PLACEMENT_3D('',#451,#368,#369);
#300=AXIS2_PLACEMENT_3D('',#453,#371,#372);
#301=AXIS2_PLACEMENT_3D('',#457,#374,#375);
#302=AXIS2_PLACEMENT_3D('',#458,#376,#377);
#303=AXIS2_PLACEMENT_3D('',#459,#378,#379);
#304=AXIS2_PLACEMENT_3D('',#461,#380,#381);
#305=AXIS2_PLACEMENT_3D('',#463,#383,#384);
#306=AXIS2_PLACEMENT_3D('',#467,#386,#387);
#307=AXIS2_PLACEMENT_3D('',#468,#388,#389);
#308=AXIS2_PLACEMENT_3D('',#469,#390,#391);
#309=AXIS2_PLACEMENT_3D('',#471,#392,#393);
#310=AXIS2_PLACEMENT_3D('',#473,#395,#396);
#311=AXIS2_PLACEMENT_3D('',#475,#397,#398);
#312=AXIS2_PLACEMENT_3D('',#477,#400,#401);
#313=AXIS2_PLACEMENT_3D('',#480,#403,#404);
#314=AXIS2_PLACEMENT_3D('',#481,#405,#406);
#315=DIRECTION('axis',(0.,0.,1.));
#316=DIRECTION('refdir',(1.,0.,0.));
#317=DIRECTION('center_axis',(1.,0.,0.));
#318=DIRECTION('ref_axis',(0.,0.,1.));
#319=DIRECTION('center_axis',(-1.,0.,0.));
#320=DIRECTION('ref_axis',(0.,0.,1.));
#321=DIRECTION('center_axis',(-1.,0.,0.));
#322=DIRECTION('ref_axis',(0.,0.,1.));
#323=DIRECTION('',(-0.75568908278983,8.02058587537246E-17,0.654930538417828));
#324=DIRECTION('center_axis',(1.,0.,0.));
#325=DIRECTION('ref_axis',(0.,0.,-1.));
#326=DIRECTION('center_axis',(1.,0.,0.));
#327=DIRECTION('ref_axis',(0.,0.,-1.));
#328=DIRECTION('center_axis',(1.,0.,0.));
#329=DIRECTION('ref_axis',(0.,0.,-1.));
#330=DIRECTION('center_axis',(1.,0.,0.));
#331=DIRECTION('ref_axis',(0.,0.,-1.));
#332=DIRECTION('center_axis',(1.,0.,0.));
#333=DIRECTION('ref_axis',(0.,0.,-1.));
#334=DIRECTION('center_axis',(-1.,0.,0.));
#335=DIRECTION('ref_axis',(0.,0.,1.));
#336=DIRECTION('center_axis',(-1.,0.,0.));
#337=DIRECTION('ref_axis',(0.,0.,1.));
#338=DIRECTION('center_axis',(1.,0.,0.));
#339=DIRECTION('ref_axis',(0.,0.,-1.));
#340=DIRECTION('center_axis',(-1.,0.,0.));
#341=DIRECTION('ref_axis',(0.,0.,1.));
#342=DIRECTION('center_axis',(-1.,0.,0.));
#343=DIRECTION('ref_axis',(0.,0.,1.));
#344=DIRECTION('center_axis',(1.,0.,0.));
#345=DIRECTION('ref_axis',(0.,0.,-1.));
#346=DIRECTION('center_axis',(1.,0.,0.));
#347=DIRECTION('ref_axis',(0.,0.,-1.));
#348=DIRECTION('center_axis',(-1.,0.,0.));
#349=DIRECTION('ref_axis',(0.,0.,1.));
#350=DIRECTION('center_axis',(-1.,0.,0.));
#351=DIRECTION('ref_axis',(0.,0.,1.));
#352=DIRECTION('center_axis',(-1.,0.,0.));
#353=DIRECTION('ref_axis',(0.,0.,-1.));
#354=DIRECTION('center_axis',(1.,0.,0.));
#355=DIRECTION('ref_axis',(0.,0.,-1.));
#356=DIRECTION('center_axis',(1.,0.,0.));
#357=DIRECTION('ref_axis',(0.,0.,-1.));
#358=DIRECTION('',(1.,0.,0.));
#359=DIRECTION('center_axis',(1.,0.,0.));
#360=DIRECTION('ref_axis',(0.,0.,1.));
#361=DIRECTION('',(-0.75568908278983,8.02058587537246E-17,0.654930538417828));
#362=DIRECTION('center_axis',(1.,0.,0.));
#363=DIRECTION('ref_axis',(0.,0.,-1.));
#364=DIRECTION('center_axis',(1.,0.,0.));
#365=DIRECTION('ref_axis',(0.,0.,-1.));
#366=DIRECTION('center_axis',(1.,0.,0.));
#367=DIRECTION('ref_axis',(0.,0.,-1.));
#368=DIRECTION('center_axis',(1.,0.,0.));
#369=DIRECTION('ref_axis',(0.,0.,-1.));
#370=DIRECTION('',(1.,0.,0.));
#371=DIRECTION('center_axis',(1.,0.,0.));
#372=DIRECTION('ref_axis',(0.,0.,1.));
#373=DIRECTION('',(-0.75568908278983,8.02058587537246E-17,0.654930538417828));
#374=DIRECTION('center_axis',(1.,0.,0.));
#375=DIRECTION('ref_axis',(0.,0.,-1.));
#376=DIRECTION('center_axis',(1.,0.,0.));
#377=DIRECTION('ref_axis',(0.,0.,-1.));
#378=DIRECTION('center_axis',(1.,0.,0.));
#379=DIRECTION('ref_axis',(0.,0.,-1.));
#380=DIRECTION('center_axis',(1.,0.,0.));
#381=DIRECTION('ref_axis',(0.,0.,-1.));
#382=DIRECTION('',(1.,0.,0.));
#383=DIRECTION('center_axis',(1.,0.,0.));
#384=DIRECTION('ref_axis',(0.,0.,1.));
#385=DIRECTION('',(-0.75568908278983,8.02058587537246E-17,0.654930538417828));
#386=DIRECTION('center_axis',(1.,0.,0.));
#387=DIRECTION('ref_axis',(0.,0.,-1.));
#388=DIRECTION('center_axis',(1.,0.,0.));
#389=DIRECTION('ref_axis',(0.,0.,-1.));
#390=DIRECTION('center_axis',(1.,0.,0.));
#391=DIRECTION('ref_axis',(0.,0.,-1.));
#392=DIRECTION('center_axis',(1.,0.,0.));
#393=DIRECTION('ref_axis',(0.,0.,-1.));
#394=DIRECTION('',(1.,0.,0.));
#395=DIRECTION('center_axis',(1.,0.,0.));
#396=DIRECTION('ref_axis',(0.,0.,-1.));
#397=DIRECTION('center_axis',(1.,0.,0.));
#398=DIRECTION('ref_axis',(0.,0.,-1.));
#399=DIRECTION('',(1.,0.,0.));
#400=DIRECTION('center_axis',(1.,0.,0.));
#401=DIRECTION('ref_axis',(0.,0.,-1.));
#402=DIRECTION('',(-1.,0.,0.));
#403=DIRECTION('center_axis',(-1.,0.,0.));
#404=DIRECTION('ref_axis',(0.,0.,-1.));
#405=DIRECTION('center_axis',(-1.,0.,0.));
#406=DIRECTION('ref_axis',(0.,0.,1.));
#407=CARTESIAN_POINT('',(0.,0.,0.));
#408=CARTESIAN_POINT('Origin',(616.25,8.48528137423857,231.514718625761));
#409=CARTESIAN_POINT('',(617.,10.6066017177982,229.393398282202));
#410=CARTESIAN_POINT('',(617.,8.48528137423857,228.514718625761));
#411=CARTESIAN_POINT('Origin',(617.,8.48528137423857,231.514718625761));
#412=CARTESIAN_POINT('Origin',(617.,8.48528137423857,231.514718625761));
#413=CARTESIAN_POINT('',(615.5,8.48528137423857,229.814718625761));
#414=CARTESIAN_POINT('',(616.25,8.48528137423857,229.164718625761));
#415=CARTESIAN_POINT('',(615.5,8.48528137423857,233.214718625761));
#416=CARTESIAN_POINT('Origin',(615.5,8.48528137423857,231.514718625761));
#417=CARTESIAN_POINT('Origin',(615.5,8.48528137423857,231.514718625761));
#418=CARTESIAN_POINT('Origin',(617.,0.,240.));
#419=CARTESIAN_POINT('',(617.,10.6066017177982,250.606601717798));
#420=CARTESIAN_POINT('',(617.,-1.83697019872103E-15,255.));
#421=CARTESIAN_POINT('Origin',(617.,0.,240.));
#422=CARTESIAN_POINT('',(617.,-10.6066017177982,250.606601717798));
#423=CARTESIAN_POINT('Origin',(617.,0.,240.));
#424=CARTESIAN_POINT('',(617.,-8.48528137423857,245.485281374239));
#425=CARTESIAN_POINT('Origin',(617.,-8.48528137423857,248.485281374239));
#426=CARTESIAN_POINT('Origin',(617.,-8.48528137423857,248.485281374239));
#427=CARTESIAN_POINT('',(617.,-10.6066017177982,229.393398282202));
#428=CARTESIAN_POINT('Origin',(617.,0.,240.));
#429=CARTESIAN_POINT('',(617.,-8.48528137423857,228.514718625761));
#430=CARTESIAN_POINT('Origin',(617.,-8.48528137423857,231.514718625761));
#431=CARTESIAN_POINT('Origin',(617.,-8.48528137423857,231.514718625761));
#432=CARTESIAN_POINT('Origin',(617.,0.,240.));
#433=CARTESIAN_POINT('Origin',(617.,0.,240.));
#434=CARTESIAN_POINT('',(617.,8.48528137423857,245.485281374239));
#435=CARTESIAN_POINT('Origin',(617.,8.48528137423857,248.485281374239));
#436=CARTESIAN_POINT('Origin',(617.,8.48528137423857,248.485281374239));
#437=CARTESIAN_POINT('',(617.,9.06238631369041E-16,247.4));
#438=CARTESIAN_POINT('Origin',(617.,0.,240.));
#439=CARTESIAN_POINT('Origin',(616.,8.48528137423857,231.514718625761));
#440=CARTESIAN_POINT('',(615.,8.48528137423857,233.214718625761));
#441=CARTESIAN_POINT('Origin',(615.,8.48528137423857,231.514718625761));
#442=CARTESIAN_POINT('',(616.,8.48528137423857,233.214718625761));
#443=CARTESIAN_POINT('Origin',(616.25,-8.48528137423857,231.514718625761));
#444=CARTESIAN_POINT('',(615.5,-8.48528137423857,229.814718625761));
#445=CARTESIAN_POINT('',(616.25,-8.48528137423857,229.164718625761));
#446=CARTESIAN_POINT('',(615.5,-8.48528137423857,233.214718625761));
#447=CARTESIAN_POINT('Origin',(615.5,-8.48528137423857,231.514718625761));
#448=CARTESIAN_POINT('Origin',(615.5,-8.48528137423857,231.514718625761));
#449=CARTESIAN_POINT('Origin',(616.,-8.48528137423857,231.514718625761));
#450=CARTESIAN_POINT('',(615.,-8.48528137423857,233.214718625761));
#451=CARTESIAN_POINT('Origin',(615.,-8.48528137423857,231.514718625761));
#452=CARTESIAN_POINT('',(616.,-8.48528137423857,233.214718625761));
#453=CARTESIAN_POINT('Origin',(616.25,-8.48528137423857,248.485281374239));
#454=CARTESIAN_POINT('',(615.5,-8.48528137423857,246.785281374239));
#455=CARTESIAN_POINT('',(616.25,-8.48528137423857,246.135281374239));
#456=CARTESIAN_POINT('',(615.5,-8.48528137423857,250.185281374239));
#457=CARTESIAN_POINT('Origin',(615.5,-8.48528137423857,248.485281374239));
#458=CARTESIAN_POINT('Origin',(615.5,-8.48528137423857,248.485281374239));
#459=CARTESIAN_POINT('Origin',(616.,-8.48528137423857,248.485281374239));
#460=CARTESIAN_POINT('',(615.,-8.48528137423857,250.185281374239));
#461=CARTESIAN_POINT('Origin',(615.,-8.48528137423857,248.485281374239));
#462=CARTESIAN_POINT('',(616.,-8.48528137423857,250.185281374239));
#463=CARTESIAN_POINT('Origin',(616.25,8.48528137423857,248.485281374239));
#464=CARTESIAN_POINT('',(615.5,8.48528137423857,246.785281374239));
#465=CARTESIAN_POINT('',(616.25,8.48528137423857,246.135281374239));
#466=CARTESIAN_POINT('',(615.5,8.48528137423857,250.185281374239));
#467=CARTESIAN_POINT('Origin',(615.5,8.48528137423857,248.485281374239));
#468=CARTESIAN_POINT('Origin',(615.5,8.48528137423857,248.485281374239));
#469=CARTESIAN_POINT('Origin',(616.,8.48528137423857,248.485281374239));
#470=CARTESIAN_POINT('',(615.,8.48528137423857,250.185281374239));
#471=CARTESIAN_POINT('Origin',(615.,8.48528137423857,248.485281374239));
#472=CARTESIAN_POINT('',(616.,8.48528137423857,250.185281374239));
#473=CARTESIAN_POINT('Origin',(616.,0.,240.));
#474=CARTESIAN_POINT('',(615.,-9.06238631369041E-16,247.4));
#475=CARTESIAN_POINT('Origin',(615.,0.,240.));
#476=CARTESIAN_POINT('',(616.,-9.06238631369041E-16,247.4));
#477=CARTESIAN_POINT('Origin',(616.,0.,240.));
#478=CARTESIAN_POINT('',(615.,-1.83697019872103E-15,255.));
#479=CARTESIAN_POINT('',(616.,-1.83697019872103E-15,255.));
#480=CARTESIAN_POINT('Origin',(615.,0.,240.));
#481=CARTESIAN_POINT('Origin',(615.,0.,240.));
#482=UNCERTAINTY_MEASURE_WITH_UNIT(LENGTH_MEASURE(0.01),#486,
'DISTANCE_ACCURACY_VALUE',
'Maximum model space distance between geometric entities at asserted c
onnectivities');
#483=UNCERTAINTY_MEASURE_WITH_UNIT(LENGTH_MEASURE(0.01),#486,
'DISTANCE_ACCURACY_VALUE',
'Maximum model space distance between geometric entities at asserted c
onnectivities');
#484=(
GEOMETRIC_REPRESENTATION_CONTEXT(3)
GLOBAL_UNCERTAINTY_ASSIGNED_CONTEXT((#482))
GLOBAL_UNIT_ASSIGNED_CONTEXT((#486,#488,#489))
REPRESENTATION_CONTEXT('','3D')
);
#485=(
GEOMETRIC_REPRESENTATION_CONTEXT(3)
GLOBAL_UNCERTAINTY_ASSIGNED_CONTEXT((#483))
GLOBAL_UNIT_ASSIGNED_CONTEXT((#486,#488,#489))
REPRESENTATION_CONTEXT('','3D')
);
#486=(
LENGTH_UNIT()
NAMED_UNIT(*)
SI_UNIT(.MILLI.,.METRE.)
);
#487=(
LENGTH_UNIT()
NAMED_UNIT(*)
SI_UNIT($,.METRE.)
);
#488=(
NAMED_UNIT(*)
PLANE_ANGLE_UNIT()
SI_UNIT($,.RADIAN.)
);
#489=(
NAMED_UNIT(*)
SI_UNIT($,.STERADIAN.)
SOLID_ANGLE_UNIT()
);
#490=SHAPE_DEFINITION_REPRESENTATION(#491,#492);
#491=PRODUCT_DEFINITION_SHAPE('',$,#494);
#492=SHAPE_REPRESENTATION('',(#274),#484);
#493=PRODUCT_DEFINITION_CONTEXT('part definition',#498,'design');
#494=PRODUCT_DEFINITION('2026-08-12-23-10-16-778',
'EXPORT_TMP_PRINT_V009C_P603_J6_FrontBearingRetainer',#495,#493);
#495=PRODUCT_DEFINITION_FORMATION('',$,#500);
#496=PRODUCT_RELATED_PRODUCT_CATEGORY(
'EXPORT_TMP_PRINT_V009C_P603_J6_FrontBearingRetainer',
'EXPORT_TMP_PRINT_V009C_P603_J6_FrontBearingRetainer',(#500));
#497=APPLICATION_PROTOCOL_DEFINITION('international standard',
'automotive_design',2009,#498);
#498=APPLICATION_CONTEXT(
'Core Data for Automotive Mechanical Design Process');
#499=PRODUCT_CONTEXT('part definition',#498,'mechanical');
#500=PRODUCT('2026-08-12-23-10-16-778',
'EXPORT_TMP_PRINT_V009C_P603_J6_FrontBearingRetainer',$,(#499));
#501=PRESENTATION_STYLE_ASSIGNMENT((#502));
#502=SURFACE_STYLE_USAGE(.BOTH.,#503);
#503=SURFACE_SIDE_STYLE('',(#504));
#504=SURFACE_STYLE_FILL_AREA(#505);
#505=FILL_AREA_STYLE('Steel - Satin',(#506));
#506=FILL_AREA_STYLE_COLOUR('Steel - Satin',#507);
#507=COLOUR_RGB('Steel - Satin',0.627450980392157,0.627450980392157,0.627450980392157);
ENDSEC;
END-ISO-10303-21;
