ISO-10303-21;
HEADER;
/* Generated by software containing ST-Developer
 * from STEP Tools, Inc. (www.steptools.com) 
 */

FILE_DESCRIPTION(
/* description */ (''),
/* implementation_level */ '2;1');

FILE_NAME(
/* name */ 'PRINT_V014_P607_OV5693_CameraClamp_Lower.step',
/* time_stamp */ '2026-08-16T23:11:37+02:00',
/* author */ (''),
/* organization */ (''),
/* preprocessor_version */ 'ST-DEVELOPER v20.1',
/* originating_system */ 'Autodesk Translation Framework v15.8.0.0',
/* authorisation */ '');

FILE_SCHEMA (('AUTOMOTIVE_DESIGN { 1 0 10303 214 3 1 1 }'));
ENDSEC;

DATA;
#10=MECHANICAL_DESIGN_GEOMETRIC_PRESENTATION_REPRESENTATION('',(#13),#483);
#11=SHAPE_REPRESENTATION_RELATIONSHIP('SRR','None',#490,#12);
#12=ADVANCED_BREP_SHAPE_REPRESENTATION('',(#14),#482);
#13=STYLED_ITEM('',(#499),#14);
#14=MANIFOLD_SOLID_BREP('PRINT_V014_P607_OV5693_CameraClamp_Lower',#287);
#15=FACE_BOUND('',#51,.T.);
#16=FACE_BOUND('',#55,.T.);
#17=FACE_BOUND('',#61,.T.);
#18=FACE_BOUND('',#62,.T.);
#19=FACE_BOUND('',#66,.T.);
#20=FACE_BOUND('',#67,.T.);
#21=PLANE('',#304);
#22=PLANE('',#311);
#23=PLANE('',#315);
#24=PLANE('',#316);
#25=PLANE('',#317);
#26=PLANE('',#318);
#27=PLANE('',#319);
#28=PLANE('',#320);
#29=PLANE('',#321);
#30=PLANE('',#322);
#31=PLANE('',#323);
#32=PLANE('',#324);
#33=FACE_OUTER_BOUND('',#49,.T.);
#34=FACE_OUTER_BOUND('',#50,.T.);
#35=FACE_OUTER_BOUND('',#52,.T.);
#36=FACE_OUTER_BOUND('',#53,.T.);
#37=FACE_OUTER_BOUND('',#54,.T.);
#38=FACE_OUTER_BOUND('',#56,.T.);
#39=FACE_OUTER_BOUND('',#57,.T.);
#40=FACE_OUTER_BOUND('',#58,.T.);
#41=FACE_OUTER_BOUND('',#59,.T.);
#42=FACE_OUTER_BOUND('',#60,.T.);
#43=FACE_OUTER_BOUND('',#63,.T.);
#44=FACE_OUTER_BOUND('',#64,.T.);
#45=FACE_OUTER_BOUND('',#65,.T.);
#46=FACE_OUTER_BOUND('',#68,.T.);
#47=FACE_OUTER_BOUND('',#69,.T.);
#48=FACE_OUTER_BOUND('',#70,.T.);
#49=EDGE_LOOP('',(#195,#196,#197,#198));
#50=EDGE_LOOP('',(#199));
#51=EDGE_LOOP('',(#200));
#52=EDGE_LOOP('',(#201,#202,#203,#204));
#53=EDGE_LOOP('',(#205,#206,#207,#208));
#54=EDGE_LOOP('',(#209));
#55=EDGE_LOOP('',(#210));
#56=EDGE_LOOP('',(#211,#212,#213,#214));
#57=EDGE_LOOP('',(#215,#216,#217,#218));
#58=EDGE_LOOP('',(#219,#220,#221,#222));
#59=EDGE_LOOP('',(#223,#224,#225,#226));
#60=EDGE_LOOP('',(#227,#228,#229,#230,#231,#232,#233,#234));
#61=EDGE_LOOP('',(#235));
#62=EDGE_LOOP('',(#236));
#63=EDGE_LOOP('',(#237,#238,#239,#240));
#64=EDGE_LOOP('',(#241,#242,#243,#244));
#65=EDGE_LOOP('',(#245,#246,#247,#248,#249,#250,#251,#252));
#66=EDGE_LOOP('',(#253));
#67=EDGE_LOOP('',(#254));
#68=EDGE_LOOP('',(#255,#256,#257,#258));
#69=EDGE_LOOP('',(#259,#260,#261,#262));
#70=EDGE_LOOP('',(#263,#264,#265,#266));
#71=LINE('',#408,#99);
#72=LINE('',#415,#100);
#73=LINE('',#421,#101);
#74=LINE('',#428,#102);
#75=LINE('',#433,#103);
#76=LINE('',#435,#104);
#77=LINE('',#437,#105);
#78=LINE('',#438,#106);
#79=LINE('',#442,#107);
#80=LINE('',#444,#108);
#81=LINE('',#446,#109);
#82=LINE('',#447,#110);
#83=LINE('',#449,#111);
#84=LINE('',#450,#112);
#85=LINE('',#453,#113);
#86=LINE('',#455,#114);
#87=LINE('',#457,#115);
#88=LINE('',#459,#116);
#89=LINE('',#460,#117);
#90=LINE('',#463,#118);
#91=LINE('',#464,#119);
#92=LINE('',#467,#120);
#93=LINE('',#468,#121);
#94=LINE('',#471,#122);
#95=LINE('',#473,#123);
#96=LINE('',#474,#124);
#97=LINE('',#476,#125);
#98=LINE('',#478,#126);
#99=VECTOR('',#331,2.35);
#100=VECTOR('',#340,1.7);
#101=VECTOR('',#347,2.35);
#102=VECTOR('',#356,1.7);
#103=VECTOR('',#361,10.);
#104=VECTOR('',#362,10.);
#105=VECTOR('',#363,10.);
#106=VECTOR('',#364,10.);
#107=VECTOR('',#367,10.);
#108=VECTOR('',#368,10.);
#109=VECTOR('',#369,10.);
#110=VECTOR('',#370,10.);
#111=VECTOR('',#373,10.);
#112=VECTOR('',#374,10.);
#113=VECTOR('',#377,10.);
#114=VECTOR('',#378,10.);
#115=VECTOR('',#379,10.);
#116=VECTOR('',#380,10.);
#117=VECTOR('',#381,10.);
#118=VECTOR('',#384,10.);
#119=VECTOR('',#385,10.);
#120=VECTOR('',#388,10.);
#121=VECTOR('',#389,10.);
#122=VECTOR('',#392,10.);
#123=VECTOR('',#393,10.);
#124=VECTOR('',#394,10.);
#125=VECTOR('',#397,10.);
#126=VECTOR('',#400,10.);
#127=CIRCLE('',#302,2.35);
#128=CIRCLE('',#303,2.35);
#129=CIRCLE('',#305,1.7);
#130=CIRCLE('',#307,1.7);
#131=CIRCLE('',#309,2.35);
#132=CIRCLE('',#310,2.35);
#133=CIRCLE('',#312,1.7);
#134=CIRCLE('',#314,1.7);
#135=VERTEX_POINT('',#405);
#136=VERTEX_POINT('',#407);
#137=VERTEX_POINT('',#411);
#138=VERTEX_POINT('',#414);
#139=VERTEX_POINT('',#418);
#140=VERTEX_POINT('',#420);
#141=VERTEX_POINT('',#424);
#142=VERTEX_POINT('',#427);
#143=VERTEX_POINT('',#431);
#144=VERTEX_POINT('',#432);
#145=VERTEX_POINT('',#434);
#146=VERTEX_POINT('',#436);
#147=VERTEX_POINT('',#440);
#148=VERTEX_POINT('',#441);
#149=VERTEX_POINT('',#443);
#150=VERTEX_POINT('',#445);
#151=VERTEX_POINT('',#452);
#152=VERTEX_POINT('',#454);
#153=VERTEX_POINT('',#456);
#154=VERTEX_POINT('',#458);
#155=VERTEX_POINT('',#462);
#156=VERTEX_POINT('',#466);
#157=VERTEX_POINT('',#470);
#158=VERTEX_POINT('',#472);
#159=EDGE_CURVE('',#135,#135,#127,.T.);
#160=EDGE_CURVE('',#135,#136,#71,.T.);
#161=EDGE_CURVE('',#136,#136,#128,.T.);
#162=EDGE_CURVE('',#137,#137,#129,.T.);
#163=EDGE_CURVE('',#137,#138,#72,.T.);
#164=EDGE_CURVE('',#138,#138,#130,.T.);
#165=EDGE_CURVE('',#139,#139,#131,.T.);
#166=EDGE_CURVE('',#139,#140,#73,.T.);
#167=EDGE_CURVE('',#140,#140,#132,.T.);
#168=EDGE_CURVE('',#141,#141,#133,.T.);
#169=EDGE_CURVE('',#141,#142,#74,.T.);
#170=EDGE_CURVE('',#142,#142,#134,.T.);
#171=EDGE_CURVE('',#143,#144,#75,.T.);
#172=EDGE_CURVE('',#143,#145,#76,.T.);
#173=EDGE_CURVE('',#146,#145,#77,.T.);
#174=EDGE_CURVE('',#144,#146,#78,.T.);
#175=EDGE_CURVE('',#147,#148,#79,.T.);
#176=EDGE_CURVE('',#149,#147,#80,.T.);
#177=EDGE_CURVE('',#150,#149,#81,.T.);
#178=EDGE_CURVE('',#148,#150,#82,.T.);
#179=EDGE_CURVE('',#148,#143,#83,.T.);
#180=EDGE_CURVE('',#145,#150,#84,.T.);
#181=EDGE_CURVE('',#149,#151,#85,.T.);
#182=EDGE_CURVE('',#151,#152,#86,.T.);
#183=EDGE_CURVE('',#152,#153,#87,.T.);
#184=EDGE_CURVE('',#153,#154,#88,.T.);
#185=EDGE_CURVE('',#154,#146,#89,.T.);
#186=EDGE_CURVE('',#155,#147,#90,.T.);
#187=EDGE_CURVE('',#155,#151,#91,.T.);
#188=EDGE_CURVE('',#156,#154,#92,.T.);
#189=EDGE_CURVE('',#144,#156,#93,.T.);
#190=EDGE_CURVE('',#156,#157,#94,.T.);
#191=EDGE_CURVE('',#157,#158,#95,.T.);
#192=EDGE_CURVE('',#158,#155,#96,.T.);
#193=EDGE_CURVE('',#158,#152,#97,.T.);
#194=EDGE_CURVE('',#157,#153,#98,.T.);
#195=ORIENTED_EDGE('',*,*,#159,.F.);
#196=ORIENTED_EDGE('',*,*,#160,.T.);
#197=ORIENTED_EDGE('',*,*,#161,.T.);
#198=ORIENTED_EDGE('',*,*,#160,.F.);
#199=ORIENTED_EDGE('',*,*,#161,.F.);
#200=ORIENTED_EDGE('',*,*,#162,.F.);
#201=ORIENTED_EDGE('',*,*,#162,.T.);
#202=ORIENTED_EDGE('',*,*,#163,.T.);
#203=ORIENTED_EDGE('',*,*,#164,.F.);
#204=ORIENTED_EDGE('',*,*,#163,.F.);
#205=ORIENTED_EDGE('',*,*,#165,.F.);
#206=ORIENTED_EDGE('',*,*,#166,.T.);
#207=ORIENTED_EDGE('',*,*,#167,.T.);
#208=ORIENTED_EDGE('',*,*,#166,.F.);
#209=ORIENTED_EDGE('',*,*,#167,.F.);
#210=ORIENTED_EDGE('',*,*,#168,.F.);
#211=ORIENTED_EDGE('',*,*,#168,.T.);
#212=ORIENTED_EDGE('',*,*,#169,.T.);
#213=ORIENTED_EDGE('',*,*,#170,.F.);
#214=ORIENTED_EDGE('',*,*,#169,.F.);
#215=ORIENTED_EDGE('',*,*,#171,.F.);
#216=ORIENTED_EDGE('',*,*,#172,.T.);
#217=ORIENTED_EDGE('',*,*,#173,.F.);
#218=ORIENTED_EDGE('',*,*,#174,.F.);
#219=ORIENTED_EDGE('',*,*,#175,.F.);
#220=ORIENTED_EDGE('',*,*,#176,.F.);
#221=ORIENTED_EDGE('',*,*,#177,.F.);
#222=ORIENTED_EDGE('',*,*,#178,.F.);
#223=ORIENTED_EDGE('',*,*,#179,.F.);
#224=ORIENTED_EDGE('',*,*,#178,.T.);
#225=ORIENTED_EDGE('',*,*,#180,.F.);
#226=ORIENTED_EDGE('',*,*,#172,.F.);
#227=ORIENTED_EDGE('',*,*,#173,.T.);
#228=ORIENTED_EDGE('',*,*,#180,.T.);
#229=ORIENTED_EDGE('',*,*,#177,.T.);
#230=ORIENTED_EDGE('',*,*,#181,.T.);
#231=ORIENTED_EDGE('',*,*,#182,.T.);
#232=ORIENTED_EDGE('',*,*,#183,.T.);
#233=ORIENTED_EDGE('',*,*,#184,.T.);
#234=ORIENTED_EDGE('',*,*,#185,.T.);
#235=ORIENTED_EDGE('',*,*,#159,.T.);
#236=ORIENTED_EDGE('',*,*,#165,.T.);
#237=ORIENTED_EDGE('',*,*,#176,.T.);
#238=ORIENTED_EDGE('',*,*,#186,.F.);
#239=ORIENTED_EDGE('',*,*,#187,.T.);
#240=ORIENTED_EDGE('',*,*,#181,.F.);
#241=ORIENTED_EDGE('',*,*,#174,.T.);
#242=ORIENTED_EDGE('',*,*,#185,.F.);
#243=ORIENTED_EDGE('',*,*,#188,.F.);
#244=ORIENTED_EDGE('',*,*,#189,.F.);
#245=ORIENTED_EDGE('',*,*,#171,.T.);
#246=ORIENTED_EDGE('',*,*,#189,.T.);
#247=ORIENTED_EDGE('',*,*,#190,.T.);
#248=ORIENTED_EDGE('',*,*,#191,.T.);
#249=ORIENTED_EDGE('',*,*,#192,.T.);
#250=ORIENTED_EDGE('',*,*,#186,.T.);
#251=ORIENTED_EDGE('',*,*,#175,.T.);
#252=ORIENTED_EDGE('',*,*,#179,.T.);
#253=ORIENTED_EDGE('',*,*,#164,.T.);
#254=ORIENTED_EDGE('',*,*,#170,.T.);
#255=ORIENTED_EDGE('',*,*,#193,.T.);
#256=ORIENTED_EDGE('',*,*,#182,.F.);
#257=ORIENTED_EDGE('',*,*,#187,.F.);
#258=ORIENTED_EDGE('',*,*,#192,.F.);
#259=ORIENTED_EDGE('',*,*,#194,.T.);
#260=ORIENTED_EDGE('',*,*,#183,.F.);
#261=ORIENTED_EDGE('',*,*,#193,.F.);
#262=ORIENTED_EDGE('',*,*,#191,.F.);
#263=ORIENTED_EDGE('',*,*,#188,.T.);
#264=ORIENTED_EDGE('',*,*,#184,.F.);
#265=ORIENTED_EDGE('',*,*,#194,.F.);
#266=ORIENTED_EDGE('',*,*,#190,.F.);
#267=CYLINDRICAL_SURFACE('',#301,2.35);
#268=CYLINDRICAL_SURFACE('',#306,1.7);
#269=CYLINDRICAL_SURFACE('',#308,2.35);
#270=CYLINDRICAL_SURFACE('',#313,1.7);
#271=ADVANCED_FACE('',(#33),#267,.F.);
#272=ADVANCED_FACE('',(#34,#15),#21,.F.);
#273=ADVANCED_FACE('',(#35),#268,.F.);
#274=ADVANCED_FACE('',(#36),#269,.F.);
#275=ADVANCED_FACE('',(#37,#16),#22,.F.);
#276=ADVANCED_FACE('',(#38),#270,.F.);
#277=ADVANCED_FACE('',(#39),#23,.T.);
#278=ADVANCED_FACE('',(#40),#24,.T.);
#279=ADVANCED_FACE('',(#41),#25,.T.);
#280=ADVANCED_FACE('',(#42,#17,#18),#26,.F.);
#281=ADVANCED_FACE('',(#43),#27,.F.);
#282=ADVANCED_FACE('',(#44),#28,.F.);
#283=ADVANCED_FACE('',(#45,#19,#20),#29,.T.);
#284=ADVANCED_FACE('',(#46),#30,.F.);
#285=ADVANCED_FACE('',(#47),#31,.F.);
#286=ADVANCED_FACE('',(#48),#32,.F.);
#287=CLOSED_SHELL('',(#271,#272,#273,#274,#275,#276,#277,#278,#279,#280,
#281,#282,#283,#284,#285,#286));
#288=DERIVED_UNIT_ELEMENT(#290,1.);
#289=DERIVED_UNIT_ELEMENT(#485,-3.);
#290=(
MASS_UNIT()
NAMED_UNIT(*)
SI_UNIT(.KILO.,.GRAM.)
);
#291=DERIVED_UNIT((#288,#289));
#292=MEASURE_REPRESENTATION_ITEM('density measure',
POSITIVE_RATIO_MEASURE(7850.),#291);
#293=PROPERTY_DEFINITION_REPRESENTATION(#298,#295);
#294=PROPERTY_DEFINITION_REPRESENTATION(#299,#296);
#295=REPRESENTATION('material name',(#297),#482);
#296=REPRESENTATION('density',(#292),#482);
#297=DESCRIPTIVE_REPRESENTATION_ITEM('Steel','Steel');
#298=PROPERTY_DEFINITION('material property','material name',#492);
#299=PROPERTY_DEFINITION('material property','density of part',#492);
#300=AXIS2_PLACEMENT_3D('',#403,#325,#326);
#301=AXIS2_PLACEMENT_3D('',#404,#327,#328);
#302=AXIS2_PLACEMENT_3D('',#406,#329,#330);
#303=AXIS2_PLACEMENT_3D('',#409,#332,#333);
#304=AXIS2_PLACEMENT_3D('',#410,#334,#335);
#305=AXIS2_PLACEMENT_3D('',#412,#336,#337);
#306=AXIS2_PLACEMENT_3D('',#413,#338,#339);
#307=AXIS2_PLACEMENT_3D('',#416,#341,#342);
#308=AXIS2_PLACEMENT_3D('',#417,#343,#344);
#309=AXIS2_PLACEMENT_3D('',#419,#345,#346);
#310=AXIS2_PLACEMENT_3D('',#422,#348,#349);
#311=AXIS2_PLACEMENT_3D('',#423,#350,#351);
#312=AXIS2_PLACEMENT_3D('',#425,#352,#353);
#313=AXIS2_PLACEMENT_3D('',#426,#354,#355);
#314=AXIS2_PLACEMENT_3D('',#429,#357,#358);
#315=AXIS2_PLACEMENT_3D('',#430,#359,#360);
#316=AXIS2_PLACEMENT_3D('',#439,#365,#366);
#317=AXIS2_PLACEMENT_3D('',#448,#371,#372);
#318=AXIS2_PLACEMENT_3D('',#451,#375,#376);
#319=AXIS2_PLACEMENT_3D('',#461,#382,#383);
#320=AXIS2_PLACEMENT_3D('',#465,#386,#387);
#321=AXIS2_PLACEMENT_3D('',#469,#390,#391);
#322=AXIS2_PLACEMENT_3D('',#475,#395,#396);
#323=AXIS2_PLACEMENT_3D('',#477,#398,#399);
#324=AXIS2_PLACEMENT_3D('',#479,#401,#402);
#325=DIRECTION('axis',(0.,0.,1.));
#326=DIRECTION('refdir',(1.,0.,0.));
#327=DIRECTION('center_axis',(0.,0.,1.));
#328=DIRECTION('ref_axis',(1.,0.,0.));
#329=DIRECTION('center_axis',(0.,0.,1.));
#330=DIRECTION('ref_axis',(1.,0.,0.));
#331=DIRECTION('',(0.,0.,1.));
#332=DIRECTION('center_axis',(0.,0.,1.));
#333=DIRECTION('ref_axis',(1.,0.,0.));
#334=DIRECTION('center_axis',(0.,0.,1.));
#335=DIRECTION('ref_axis',(1.,0.,0.));
#336=DIRECTION('center_axis',(0.,0.,-1.));
#337=DIRECTION('ref_axis',(1.,0.,0.));
#338=DIRECTION('center_axis',(0.,0.,1.));
#339=DIRECTION('ref_axis',(1.,0.,0.));
#340=DIRECTION('',(0.,0.,1.));
#341=DIRECTION('center_axis',(0.,0.,-1.));
#342=DIRECTION('ref_axis',(1.,0.,0.));
#343=DIRECTION('center_axis',(0.,0.,1.));
#344=DIRECTION('ref_axis',(1.,0.,0.));
#345=DIRECTION('center_axis',(0.,0.,1.));
#346=DIRECTION('ref_axis',(1.,0.,0.));
#347=DIRECTION('',(0.,0.,1.));
#348=DIRECTION('center_axis',(0.,0.,1.));
#349=DIRECTION('ref_axis',(1.,0.,0.));
#350=DIRECTION('center_axis',(0.,0.,1.));
#351=DIRECTION('ref_axis',(1.,0.,0.));
#352=DIRECTION('center_axis',(0.,0.,-1.));
#353=DIRECTION('ref_axis',(1.,0.,0.));
#354=DIRECTION('center_axis',(0.,0.,1.));
#355=DIRECTION('ref_axis',(1.,0.,0.));
#356=DIRECTION('',(0.,0.,1.));
#357=DIRECTION('center_axis',(0.,0.,-1.));
#358=DIRECTION('ref_axis',(1.,0.,0.));
#359=DIRECTION('center_axis',(0.,-1.,0.));
#360=DIRECTION('ref_axis',(0.,0.,-1.));
#361=DIRECTION('',(1.,0.,0.));
#362=DIRECTION('',(0.,0.,-1.));
#363=DIRECTION('',(-1.,0.,0.));
#364=DIRECTION('',(0.,0.,-1.));
#365=DIRECTION('center_axis',(0.,1.,0.));
#366=DIRECTION('ref_axis',(0.,0.,1.));
#367=DIRECTION('',(-1.,0.,0.));
#368=DIRECTION('',(0.,0.,1.));
#369=DIRECTION('',(1.,0.,0.));
#370=DIRECTION('',(0.,0.,-1.));
#371=DIRECTION('center_axis',(1.,0.,0.));
#372=DIRECTION('ref_axis',(0.,0.,-1.));
#373=DIRECTION('',(0.,1.,0.));
#374=DIRECTION('',(0.,-1.,0.));
#375=DIRECTION('center_axis',(0.,0.,1.));
#376=DIRECTION('ref_axis',(1.,0.,0.));
#377=DIRECTION('',(0.,-1.,0.));
#378=DIRECTION('',(-1.,0.,0.));
#379=DIRECTION('',(0.,1.,0.));
#380=DIRECTION('',(1.,0.,0.));
#381=DIRECTION('',(0.,-1.,0.));
#382=DIRECTION('center_axis',(-1.,0.,0.));
#383=DIRECTION('ref_axis',(0.,0.,1.));
#384=DIRECTION('',(0.,1.,0.));
#385=DIRECTION('',(0.,0.,-1.));
#386=DIRECTION('center_axis',(-1.,0.,0.));
#387=DIRECTION('ref_axis',(0.,0.,1.));
#388=DIRECTION('',(0.,0.,-1.));
#389=DIRECTION('',(0.,1.,0.));
#390=DIRECTION('center_axis',(0.,0.,1.));
#391=DIRECTION('ref_axis',(1.,0.,0.));
#392=DIRECTION('',(-1.,0.,0.));
#393=DIRECTION('',(0.,-1.,0.));
#394=DIRECTION('',(1.,0.,0.));
#395=DIRECTION('center_axis',(0.,1.,0.));
#396=DIRECTION('ref_axis',(0.,0.,1.));
#397=DIRECTION('',(0.,0.,-1.));
#398=DIRECTION('center_axis',(1.,0.,0.));
#399=DIRECTION('ref_axis',(0.,0.,-1.));
#400=DIRECTION('',(0.,0.,-1.));
#401=DIRECTION('center_axis',(0.,-1.,0.));
#402=DIRECTION('ref_axis',(0.,0.,-1.));
#403=CARTESIAN_POINT('',(0.,0.,0.));
#404=CARTESIAN_POINT('Origin',(618.5,20.,272.1));
#405=CARTESIAN_POINT('',(616.15,20.,269.5));
#406=CARTESIAN_POINT('Origin',(618.5,20.,269.5));
#407=CARTESIAN_POINT('',(616.15,20.,275.2));
#408=CARTESIAN_POINT('',(616.15,20.,272.1));
#409=CARTESIAN_POINT('Origin',(618.5,20.,275.2));
#410=CARTESIAN_POINT('Origin',(618.5,20.,275.2));
#411=CARTESIAN_POINT('',(616.8,20.,275.2));
#412=CARTESIAN_POINT('Origin',(618.5,20.,275.2));
#413=CARTESIAN_POINT('Origin',(618.5,20.,272.75));
#414=CARTESIAN_POINT('',(616.8,20.,276.));
#415=CARTESIAN_POINT('',(616.8,20.,272.75));
#416=CARTESIAN_POINT('Origin',(618.5,20.,276.));
#417=CARTESIAN_POINT('Origin',(618.5,-20.,272.1));
#418=CARTESIAN_POINT('',(616.15,-20.,269.5));
#419=CARTESIAN_POINT('Origin',(618.5,-20.,269.5));
#420=CARTESIAN_POINT('',(616.15,-20.,275.2));
#421=CARTESIAN_POINT('',(616.15,-20.,272.1));
#422=CARTESIAN_POINT('Origin',(618.5,-20.,275.2));
#423=CARTESIAN_POINT('Origin',(618.5,-20.,275.2));
#424=CARTESIAN_POINT('',(616.8,-20.,275.2));
#425=CARTESIAN_POINT('Origin',(618.5,-20.,275.2));
#426=CARTESIAN_POINT('Origin',(618.5,-20.,272.75));
#427=CARTESIAN_POINT('',(616.8,-20.,276.));
#428=CARTESIAN_POINT('',(616.8,-20.,272.75));
#429=CARTESIAN_POINT('Origin',(618.5,-20.,276.));
#430=CARTESIAN_POINT('Origin',(606.25,15.5,272.75));
#431=CARTESIAN_POINT('',(590.,15.5,276.));
#432=CARTESIAN_POINT('',(622.,15.5,276.));
#433=CARTESIAN_POINT('',(604.125,15.5,276.));
#434=CARTESIAN_POINT('',(590.,15.5,269.5));
#435=CARTESIAN_POINT('',(590.,15.5,272.75));
#436=CARTESIAN_POINT('',(622.,15.5,269.5));
#437=CARTESIAN_POINT('',(604.125,15.5,269.5));
#438=CARTESIAN_POINT('',(622.,15.5,272.75));
#439=CARTESIAN_POINT('Origin',(606.25,-15.5,272.75));
#440=CARTESIAN_POINT('',(622.,-15.5,276.));
#441=CARTESIAN_POINT('',(590.,-15.5,276.));
#442=CARTESIAN_POINT('',(604.125,-15.5,276.));
#443=CARTESIAN_POINT('',(622.,-15.5,269.5));
#444=CARTESIAN_POINT('',(622.,-15.5,272.75));
#445=CARTESIAN_POINT('',(590.,-15.5,269.5));
#446=CARTESIAN_POINT('',(604.125,-15.5,269.5));
#447=CARTESIAN_POINT('',(590.,-15.5,272.75));
#448=CARTESIAN_POINT('Origin',(590.,0.,272.75));
#449=CARTESIAN_POINT('',(590.,0.,276.));
#450=CARTESIAN_POINT('',(590.,0.,269.5));
#451=CARTESIAN_POINT('Origin',(602.,0.,269.5));
#452=CARTESIAN_POINT('',(622.,-26.5,269.5));
#453=CARTESIAN_POINT('',(622.,0.,269.5));
#454=CARTESIAN_POINT('',(582.,-26.5,269.5));
#455=CARTESIAN_POINT('',(602.,-26.5,269.5));
#456=CARTESIAN_POINT('',(582.,26.5,269.5));
#457=CARTESIAN_POINT('',(582.,0.,269.5));
#458=CARTESIAN_POINT('',(622.,26.5,269.5));
#459=CARTESIAN_POINT('',(602.,26.5,269.5));
#460=CARTESIAN_POINT('',(622.,0.,269.5));
#461=CARTESIAN_POINT('Origin',(622.,0.,272.75));
#462=CARTESIAN_POINT('',(622.,-26.5,276.));
#463=CARTESIAN_POINT('',(622.,0.,276.));
#464=CARTESIAN_POINT('',(622.,-26.5,272.75));
#465=CARTESIAN_POINT('Origin',(622.,0.,272.75));
#466=CARTESIAN_POINT('',(622.,26.5,276.));
#467=CARTESIAN_POINT('',(622.,26.5,272.75));
#468=CARTESIAN_POINT('',(622.,0.,276.));
#469=CARTESIAN_POINT('Origin',(602.,0.,276.));
#470=CARTESIAN_POINT('',(582.,26.5,276.));
#471=CARTESIAN_POINT('',(602.,26.5,276.));
#472=CARTESIAN_POINT('',(582.,-26.5,276.));
#473=CARTESIAN_POINT('',(582.,0.,276.));
#474=CARTESIAN_POINT('',(602.,-26.5,276.));
#475=CARTESIAN_POINT('Origin',(602.,-26.5,272.75));
#476=CARTESIAN_POINT('',(582.,-26.5,272.75));
#477=CARTESIAN_POINT('Origin',(582.,0.,272.75));
#478=CARTESIAN_POINT('',(582.,26.5,272.75));
#479=CARTESIAN_POINT('Origin',(602.,26.5,272.75));
#480=UNCERTAINTY_MEASURE_WITH_UNIT(LENGTH_MEASURE(0.01),#484,
'DISTANCE_ACCURACY_VALUE',
'Maximum model space distance between geometric entities at asserted c
onnectivities');
#481=UNCERTAINTY_MEASURE_WITH_UNIT(LENGTH_MEASURE(0.01),#484,
'DISTANCE_ACCURACY_VALUE',
'Maximum model space distance between geometric entities at asserted c
onnectivities');
#482=(
GEOMETRIC_REPRESENTATION_CONTEXT(3)
GLOBAL_UNCERTAINTY_ASSIGNED_CONTEXT((#480))
GLOBAL_UNIT_ASSIGNED_CONTEXT((#484,#486,#487))
REPRESENTATION_CONTEXT('','3D')
);
#483=(
GEOMETRIC_REPRESENTATION_CONTEXT(3)
GLOBAL_UNCERTAINTY_ASSIGNED_CONTEXT((#481))
GLOBAL_UNIT_ASSIGNED_CONTEXT((#484,#486,#487))
REPRESENTATION_CONTEXT('','3D')
);
#484=(
LENGTH_UNIT()
NAMED_UNIT(*)
SI_UNIT(.MILLI.,.METRE.)
);
#485=(
LENGTH_UNIT()
NAMED_UNIT(*)
SI_UNIT($,.METRE.)
);
#486=(
NAMED_UNIT(*)
PLANE_ANGLE_UNIT()
SI_UNIT($,.RADIAN.)
);
#487=(
NAMED_UNIT(*)
SI_UNIT($,.STERADIAN.)
SOLID_ANGLE_UNIT()
);
#488=SHAPE_DEFINITION_REPRESENTATION(#489,#490);
#489=PRODUCT_DEFINITION_SHAPE('',$,#492);
#490=SHAPE_REPRESENTATION('',(#300),#482);
#491=PRODUCT_DEFINITION_CONTEXT('part definition',#496,'design');
#492=PRODUCT_DEFINITION('2026-08-16-23-11-37-677',
'EXPORT_TMP_PRINT_V014_P607_OV5693_CameraClamp_Lower',#493,#491);
#493=PRODUCT_DEFINITION_FORMATION('',$,#498);
#494=PRODUCT_RELATED_PRODUCT_CATEGORY(
'EXPORT_TMP_PRINT_V014_P607_OV5693_CameraClamp_Lower',
'EXPORT_TMP_PRINT_V014_P607_OV5693_CameraClamp_Lower',(#498));
#495=APPLICATION_PROTOCOL_DEFINITION('international standard',
'automotive_design',2009,#496);
#496=APPLICATION_CONTEXT(
'Core Data for Automotive Mechanical Design Process');
#497=PRODUCT_CONTEXT('part definition',#496,'mechanical');
#498=PRODUCT('2026-08-16-23-11-37-677',
'EXPORT_TMP_PRINT_V014_P607_OV5693_CameraClamp_Lower',$,(#497));
#499=PRESENTATION_STYLE_ASSIGNMENT((#500));
#500=SURFACE_STYLE_USAGE(.BOTH.,#501);
#501=SURFACE_SIDE_STYLE('',(#502));
#502=SURFACE_STYLE_FILL_AREA(#503);
#503=FILL_AREA_STYLE('Steel - Satin',(#504));
#504=FILL_AREA_STYLE_COLOUR('Steel - Satin',#505);
#505=COLOUR_RGB('Steel - Satin',0.627450980392157,0.627450980392157,0.627450980392157);
ENDSEC;
END-ISO-10303-21;
