ISO-10303-21;
HEADER;
/* Generated by software containing ST-Developer
 * from STEP Tools, Inc. (www.steptools.com) 
 */

FILE_DESCRIPTION(
/* description */ (''),
/* implementation_level */ '2;1');

FILE_NAME(
/* name */ 'PRINT_V014_P608_OV5693_CameraGuard.step',
/* time_stamp */ '2026-08-31T16:24:01+02:00',
/* author */ (''),
/* organization */ (''),
/* preprocessor_version */ 'ST-DEVELOPER v20.1',
/* originating_system */ 'Autodesk Translation Framework v15.8.0.0',
/* authorisation */ '');

FILE_SCHEMA (('AUTOMOTIVE_DESIGN { 1 0 10303 214 3 1 1 }'));
ENDSEC;

DATA;
#10=MECHANICAL_DESIGN_GEOMETRIC_PRESENTATION_REPRESENTATION('',(#13),#1897);
#11=SHAPE_REPRESENTATION_RELATIONSHIP('SRR','None',#1904,#12);
#12=ADVANCED_BREP_SHAPE_REPRESENTATION('',(#14),#1896);
#13=STYLED_ITEM('',(#1913),#14);
#14=MANIFOLD_SOLID_BREP('Body1',#1163);
#15=FACE_BOUND('',#142,.T.);
#16=FACE_BOUND('',#144,.T.);
#17=FACE_BOUND('',#151,.T.);
#18=FACE_BOUND('',#154,.T.);
#19=FACE_BOUND('',#164,.T.);
#20=FACE_BOUND('',#182,.T.);
#21=FACE_BOUND('',#183,.T.);
#22=FACE_BOUND('',#184,.T.);
#23=FACE_BOUND('',#185,.T.);
#24=FACE_BOUND('',#186,.T.);
#25=PLANE('',#1183);
#26=PLANE('',#1184);
#27=PLANE('',#1185);
#28=PLANE('',#1186);
#29=PLANE('',#1187);
#30=PLANE('',#1188);
#31=PLANE('',#1195);
#32=PLANE('',#1196);
#33=PLANE('',#1197);
#34=PLANE('',#1198);
#35=PLANE('',#1199);
#36=PLANE('',#1200);
#37=PLANE('',#1201);
#38=PLANE('',#1202);
#39=PLANE('',#1203);
#40=PLANE('',#1205);
#41=PLANE('',#1207);
#42=PLANE('',#1208);
#43=PLANE('',#1209);
#44=PLANE('',#1210);
#45=PLANE('',#1211);
#46=PLANE('',#1212);
#47=PLANE('',#1214);
#48=PLANE('',#1215);
#49=PLANE('',#1217);
#50=PLANE('',#1218);
#51=PLANE('',#1219);
#52=PLANE('',#1220);
#53=PLANE('',#1221);
#54=PLANE('',#1222);
#55=PLANE('',#1228);
#56=PLANE('',#1229);
#57=PLANE('',#1236);
#58=PLANE('',#1240);
#59=PLANE('',#1247);
#60=PLANE('',#1250);
#61=PLANE('',#1251);
#62=PLANE('',#1252);
#63=PLANE('',#1253);
#64=PLANE('',#1254);
#65=PLANE('',#1255);
#66=PLANE('',#1256);
#67=PLANE('',#1257);
#68=PLANE('',#1258);
#69=FACE_OUTER_BOUND('',#123,.T.);
#70=FACE_OUTER_BOUND('',#124,.T.);
#71=FACE_OUTER_BOUND('',#125,.T.);
#72=FACE_OUTER_BOUND('',#126,.T.);
#73=FACE_OUTER_BOUND('',#127,.T.);
#74=FACE_OUTER_BOUND('',#128,.T.);
#75=FACE_OUTER_BOUND('',#129,.T.);
#76=FACE_OUTER_BOUND('',#130,.T.);
#77=FACE_OUTER_BOUND('',#131,.T.);
#78=FACE_OUTER_BOUND('',#132,.T.);
#79=FACE_OUTER_BOUND('',#133,.T.);
#80=FACE_OUTER_BOUND('',#134,.T.);
#81=FACE_OUTER_BOUND('',#135,.T.);
#82=FACE_OUTER_BOUND('',#136,.T.);
#83=FACE_OUTER_BOUND('',#137,.T.);
#84=FACE_OUTER_BOUND('',#138,.T.);
#85=FACE_OUTER_BOUND('',#139,.T.);
#86=FACE_OUTER_BOUND('',#140,.T.);
#87=FACE_OUTER_BOUND('',#141,.T.);
#88=FACE_OUTER_BOUND('',#143,.T.);
#89=FACE_OUTER_BOUND('',#145,.T.);
#90=FACE_OUTER_BOUND('',#146,.T.);
#91=FACE_OUTER_BOUND('',#147,.T.);
#92=FACE_OUTER_BOUND('',#148,.T.);
#93=FACE_OUTER_BOUND('',#149,.T.);
#94=FACE_OUTER_BOUND('',#150,.T.);
#95=FACE_OUTER_BOUND('',#152,.T.);
#96=FACE_OUTER_BOUND('',#153,.T.);
#97=FACE_OUTER_BOUND('',#155,.T.);
#98=FACE_OUTER_BOUND('',#156,.T.);
#99=FACE_OUTER_BOUND('',#157,.T.);
#100=FACE_OUTER_BOUND('',#158,.T.);
#101=FACE_OUTER_BOUND('',#159,.T.);
#102=FACE_OUTER_BOUND('',#160,.T.);
#103=FACE_OUTER_BOUND('',#161,.T.);
#104=FACE_OUTER_BOUND('',#162,.T.);
#105=FACE_OUTER_BOUND('',#163,.T.);
#106=FACE_OUTER_BOUND('',#165,.T.);
#107=FACE_OUTER_BOUND('',#166,.T.);
#108=FACE_OUTER_BOUND('',#167,.T.);
#109=FACE_OUTER_BOUND('',#168,.T.);
#110=FACE_OUTER_BOUND('',#169,.T.);
#111=FACE_OUTER_BOUND('',#170,.T.);
#112=FACE_OUTER_BOUND('',#171,.T.);
#113=FACE_OUTER_BOUND('',#172,.T.);
#114=FACE_OUTER_BOUND('',#173,.T.);
#115=FACE_OUTER_BOUND('',#174,.T.);
#116=FACE_OUTER_BOUND('',#175,.T.);
#117=FACE_OUTER_BOUND('',#176,.T.);
#118=FACE_OUTER_BOUND('',#177,.T.);
#119=FACE_OUTER_BOUND('',#178,.T.);
#120=FACE_OUTER_BOUND('',#179,.T.);
#121=FACE_OUTER_BOUND('',#180,.T.);
#122=FACE_OUTER_BOUND('',#181,.T.);
#123=EDGE_LOOP('',(#767,#768,#769,#770));
#124=EDGE_LOOP('',(#771,#772,#773,#774));
#125=EDGE_LOOP('',(#775,#776,#777,#778));
#126=EDGE_LOOP('',(#779,#780,#781,#782));
#127=EDGE_LOOP('',(#783,#784,#785,#786,#787,#788,#789,#790));
#128=EDGE_LOOP('',(#791,#792,#793,#794));
#129=EDGE_LOOP('',(#795,#796,#797,#798));
#130=EDGE_LOOP('',(#799,#800,#801,#802));
#131=EDGE_LOOP('',(#803,#804,#805,#806));
#132=EDGE_LOOP('',(#807,#808,#809,#810));
#133=EDGE_LOOP('',(#811,#812,#813,#814));
#134=EDGE_LOOP('',(#815,#816,#817,#818,#819,#820,#821,#822));
#135=EDGE_LOOP('',(#823,#824,#825,#826));
#136=EDGE_LOOP('',(#827,#828,#829,#830));
#137=EDGE_LOOP('',(#831,#832,#833,#834));
#138=EDGE_LOOP('',(#835,#836,#837,#838));
#139=EDGE_LOOP('',(#839,#840,#841,#842));
#140=EDGE_LOOP('',(#843,#844,#845,#846));
#141=EDGE_LOOP('',(#847,#848,#849,#850));
#142=EDGE_LOOP('',(#851));
#143=EDGE_LOOP('',(#852,#853,#854,#855));
#144=EDGE_LOOP('',(#856));
#145=EDGE_LOOP('',(#857,#858,#859,#860));
#146=EDGE_LOOP('',(#861,#862,#863,#864));
#147=EDGE_LOOP('',(#865,#866,#867,#868));
#148=EDGE_LOOP('',(#869,#870,#871,#872));
#149=EDGE_LOOP('',(#873,#874,#875,#876,#877,#878,#879,#880,#881,#882,#883,
#884,#885,#886));
#150=EDGE_LOOP('',(#887,#888,#889,#890,#891,#892,#893,#894,#895,#896,#897,
#898,#899,#900,#901,#902,#903,#904,#905,#906,#907));
#151=EDGE_LOOP('',(#908));
#152=EDGE_LOOP('',(#909,#910,#911,#912,#913,#914,#915,#916));
#153=EDGE_LOOP('',(#917,#918,#919,#920,#921,#922,#923,#924,#925,#926,#927,
#928,#929,#930,#931,#932,#933,#934,#935,#936,#937));
#154=EDGE_LOOP('',(#938));
#155=EDGE_LOOP('',(#939,#940,#941,#942,#943,#944,#945,#946,#947,#948,#949,
#950));
#156=EDGE_LOOP('',(#951,#952,#953,#954,#955,#956));
#157=EDGE_LOOP('',(#957,#958,#959,#960));
#158=EDGE_LOOP('',(#961,#962,#963,#964,#965,#966));
#159=EDGE_LOOP('',(#967,#968,#969,#970,#971,#972,#973,#974));
#160=EDGE_LOOP('',(#975,#976,#977,#978,#979,#980,#981,#982));
#161=EDGE_LOOP('',(#983,#984,#985,#986,#987,#988,#989,#990));
#162=EDGE_LOOP('',(#991,#992));
#163=EDGE_LOOP('',(#993,#994,#995,#996,#997,#998,#999,#1000,#1001,#1002,
#1003,#1004,#1005,#1006,#1007,#1008));
#164=EDGE_LOOP('',(#1009,#1010,#1011,#1012));
#165=EDGE_LOOP('',(#1013,#1014));
#166=EDGE_LOOP('',(#1015,#1016,#1017,#1018,#1019,#1020,#1021,#1022));
#167=EDGE_LOOP('',(#1023,#1024));
#168=EDGE_LOOP('',(#1025,#1026,#1027,#1028,#1029,#1030,#1031,#1032));
#169=EDGE_LOOP('',(#1033,#1034,#1035,#1036,#1037,#1038,#1039,#1040));
#170=EDGE_LOOP('',(#1041,#1042));
#171=EDGE_LOOP('',(#1043,#1044,#1045,#1046));
#172=EDGE_LOOP('',(#1047,#1048,#1049,#1050));
#173=EDGE_LOOP('',(#1051,#1052,#1053,#1054));
#174=EDGE_LOOP('',(#1055,#1056,#1057,#1058));
#175=EDGE_LOOP('',(#1059,#1060,#1061,#1062));
#176=EDGE_LOOP('',(#1063,#1064,#1065,#1066));
#177=EDGE_LOOP('',(#1067,#1068,#1069,#1070));
#178=EDGE_LOOP('',(#1071,#1072,#1073,#1074));
#179=EDGE_LOOP('',(#1075,#1076,#1077,#1078));
#180=EDGE_LOOP('',(#1079,#1080,#1081,#1082,#1083,#1084,#1085,#1086));
#181=EDGE_LOOP('',(#1087,#1088,#1089,#1090));
#182=EDGE_LOOP('',(#1091));
#183=EDGE_LOOP('',(#1092));
#184=EDGE_LOOP('',(#1093));
#185=EDGE_LOOP('',(#1094));
#186=EDGE_LOOP('',(#1095,#1096,#1097,#1098));
#187=CIRCLE('',#1178,2.35);
#188=CIRCLE('',#1179,2.35);
#189=CIRCLE('',#1181,2.35);
#190=CIRCLE('',#1182,2.35);
#191=CIRCLE('',#1190,2.35);
#192=CIRCLE('',#1191,2.35);
#193=CIRCLE('',#1193,2.35);
#194=CIRCLE('',#1194,2.35);
#195=CIRCLE('',#1204,1.7);
#196=CIRCLE('',#1206,1.7);
#197=CIRCLE('',#1213,1.7);
#198=CIRCLE('',#1216,1.7);
#199=CIRCLE('',#1224,2.4);
#200=CIRCLE('',#1225,2.4);
#201=CIRCLE('',#1226,2.4);
#202=CIRCLE('',#1227,2.4);
#203=CIRCLE('',#1230,2.4);
#204=CIRCLE('',#1231,2.4);
#205=CIRCLE('',#1232,2.4);
#206=CIRCLE('',#1233,2.4);
#207=CIRCLE('',#1234,2.4);
#208=CIRCLE('',#1235,2.4);
#209=CIRCLE('',#1237,2.4);
#210=CIRCLE('',#1239,2.4);
#211=CIRCLE('',#1241,2.4);
#212=CIRCLE('',#1243,2.4);
#213=CIRCLE('',#1245,2.4);
#214=CIRCLE('',#1246,2.4);
#215=LINE('',#1567,#353);
#216=LINE('',#1571,#354);
#217=LINE('',#1576,#355);
#218=LINE('',#1580,#356);
#219=LINE('',#1585,#357);
#220=LINE('',#1587,#358);
#221=LINE('',#1589,#359);
#222=LINE('',#1590,#360);
#223=LINE('',#1593,#361);
#224=LINE('',#1595,#362);
#225=LINE('',#1596,#363);
#226=LINE('',#1599,#364);
#227=LINE('',#1600,#365);
#228=LINE('',#1602,#366);
#229=LINE('',#1604,#367);
#230=LINE('',#1606,#368);
#231=LINE('',#1607,#369);
#232=LINE('',#1610,#370);
#233=LINE('',#1612,#371);
#234=LINE('',#1613,#372);
#235=LINE('',#1617,#373);
#236=LINE('',#1619,#374);
#237=LINE('',#1621,#375);
#238=LINE('',#1622,#376);
#239=LINE('',#1625,#377);
#240=LINE('',#1627,#378);
#241=LINE('',#1628,#379);
#242=LINE('',#1632,#380);
#243=LINE('',#1636,#381);
#244=LINE('',#1641,#382);
#245=LINE('',#1645,#383);
#246=LINE('',#1649,#384);
#247=LINE('',#1651,#385);
#248=LINE('',#1652,#386);
#249=LINE('',#1655,#387);
#250=LINE('',#1656,#388);
#251=LINE('',#1658,#389);
#252=LINE('',#1660,#390);
#253=LINE('',#1662,#391);
#254=LINE('',#1663,#392);
#255=LINE('',#1667,#393);
#256=LINE('',#1669,#394);
#257=LINE('',#1671,#395);
#258=LINE('',#1672,#396);
#259=LINE('',#1675,#397);
#260=LINE('',#1677,#398);
#261=LINE('',#1678,#399);
#262=LINE('',#1681,#400);
#263=LINE('',#1682,#401);
#264=LINE('',#1685,#402);
#265=LINE('',#1686,#403);
#266=LINE('',#1690,#404);
#267=LINE('',#1692,#405);
#268=LINE('',#1694,#406);
#269=LINE('',#1695,#407);
#270=LINE('',#1697,#408);
#271=LINE('',#1699,#409);
#272=LINE('',#1703,#410);
#273=LINE('',#1708,#411);
#274=LINE('',#1710,#412);
#275=LINE('',#1711,#413);
#276=LINE('',#1714,#414);
#277=LINE('',#1716,#415);
#278=LINE('',#1717,#416);
#279=LINE('',#1720,#417);
#280=LINE('',#1722,#418);
#281=LINE('',#1723,#419);
#282=LINE('',#1727,#420);
#283=LINE('',#1728,#421);
#284=LINE('',#1729,#422);
#285=LINE('',#1731,#423);
#286=LINE('',#1732,#424);
#287=LINE('',#1733,#425);
#288=LINE('',#1734,#426);
#289=LINE('',#1736,#427);
#290=LINE('',#1738,#428);
#291=LINE('',#1740,#429);
#292=LINE('',#1742,#430);
#293=LINE('',#1744,#431);
#294=LINE('',#1746,#432);
#295=LINE('',#1748,#433);
#296=LINE('',#1750,#434);
#297=LINE('',#1752,#435);
#298=LINE('',#1754,#436);
#299=LINE('',#1756,#437);
#300=LINE('',#1758,#438);
#301=LINE('',#1759,#439);
#302=LINE('',#1760,#440);
#303=LINE('',#1765,#441);
#304=LINE('',#1767,#442);
#305=LINE('',#1769,#443);
#306=LINE('',#1771,#444);
#307=LINE('',#1772,#445);
#308=LINE('',#1775,#446);
#309=LINE('',#1777,#447);
#310=LINE('',#1779,#448);
#311=LINE('',#1781,#449);
#312=LINE('',#1783,#450);
#313=LINE('',#1785,#451);
#314=LINE('',#1787,#452);
#315=LINE('',#1789,#453);
#316=LINE('',#1791,#454);
#317=LINE('',#1793,#455);
#318=LINE('',#1795,#456);
#319=LINE('',#1796,#457);
#320=LINE('',#1797,#458);
#321=LINE('',#1798,#459);
#322=LINE('',#1802,#460);
#323=LINE('',#1805,#461);
#324=LINE('',#1806,#462);
#325=LINE('',#1809,#463);
#326=LINE('',#1811,#464);
#327=LINE('',#1813,#465);
#328=LINE('',#1814,#466);
#329=LINE('',#1817,#467);
#330=LINE('',#1819,#468);
#331=LINE('',#1820,#469);
#332=LINE('',#1826,#470);
#333=LINE('',#1840,#471);
#334=LINE('',#1843,#472);
#335=LINE('',#1845,#473);
#336=LINE('',#1847,#474);
#337=LINE('',#1848,#475);
#338=LINE('',#1853,#476);
#339=LINE('',#1859,#477);
#340=LINE('',#1864,#478);
#341=LINE('',#1868,#479);
#342=LINE('',#1870,#480);
#343=LINE('',#1875,#481);
#344=LINE('',#1877,#482);
#345=LINE('',#1878,#483);
#346=LINE('',#1881,#484);
#347=LINE('',#1882,#485);
#348=LINE('',#1885,#486);
#349=LINE('',#1886,#487);
#350=LINE('',#1888,#488);
#351=LINE('',#1890,#489);
#352=LINE('',#1892,#490);
#353=VECTOR('',#1263,10.);
#354=VECTOR('',#1266,10.);
#355=VECTOR('',#1271,10.);
#356=VECTOR('',#1274,10.);
#357=VECTOR('',#1279,10.);
#358=VECTOR('',#1280,10.);
#359=VECTOR('',#1281,10.);
#360=VECTOR('',#1282,10.);
#361=VECTOR('',#1285,10.);
#362=VECTOR('',#1286,10.);
#363=VECTOR('',#1287,10.);
#364=VECTOR('',#1290,10.);
#365=VECTOR('',#1291,10.);
#366=VECTOR('',#1292,10.);
#367=VECTOR('',#1293,10.);
#368=VECTOR('',#1294,10.);
#369=VECTOR('',#1295,10.);
#370=VECTOR('',#1298,10.);
#371=VECTOR('',#1299,10.);
#372=VECTOR('',#1300,10.);
#373=VECTOR('',#1303,10.);
#374=VECTOR('',#1304,10.);
#375=VECTOR('',#1305,10.);
#376=VECTOR('',#1306,10.);
#377=VECTOR('',#1309,10.);
#378=VECTOR('',#1310,10.);
#379=VECTOR('',#1311,10.);
#380=VECTOR('',#1314,10.);
#381=VECTOR('',#1317,10.);
#382=VECTOR('',#1322,10.);
#383=VECTOR('',#1325,10.);
#384=VECTOR('',#1330,10.);
#385=VECTOR('',#1331,10.);
#386=VECTOR('',#1332,10.);
#387=VECTOR('',#1335,10.);
#388=VECTOR('',#1336,10.);
#389=VECTOR('',#1337,10.);
#390=VECTOR('',#1338,10.);
#391=VECTOR('',#1339,10.);
#392=VECTOR('',#1340,10.);
#393=VECTOR('',#1343,10.);
#394=VECTOR('',#1344,10.);
#395=VECTOR('',#1345,10.);
#396=VECTOR('',#1346,10.);
#397=VECTOR('',#1349,10.);
#398=VECTOR('',#1350,10.);
#399=VECTOR('',#1351,10.);
#400=VECTOR('',#1354,10.);
#401=VECTOR('',#1355,10.);
#402=VECTOR('',#1358,10.);
#403=VECTOR('',#1359,10.);
#404=VECTOR('',#1362,10.);
#405=VECTOR('',#1363,10.);
#406=VECTOR('',#1364,10.);
#407=VECTOR('',#1365,10.);
#408=VECTOR('',#1368,10.);
#409=VECTOR('',#1371,10.);
#410=VECTOR('',#1376,10.);
#411=VECTOR('',#1381,10.);
#412=VECTOR('',#1382,10.);
#413=VECTOR('',#1383,10.);
#414=VECTOR('',#1386,10.);
#415=VECTOR('',#1387,10.);
#416=VECTOR('',#1388,10.);
#417=VECTOR('',#1391,10.);
#418=VECTOR('',#1392,10.);
#419=VECTOR('',#1393,10.);
#420=VECTOR('',#1396,10.);
#421=VECTOR('',#1397,10.);
#422=VECTOR('',#1398,10.);
#423=VECTOR('',#1401,10.);
#424=VECTOR('',#1402,10.);
#425=VECTOR('',#1403,10.);
#426=VECTOR('',#1404,10.);
#427=VECTOR('',#1407,10.);
#428=VECTOR('',#1408,10.);
#429=VECTOR('',#1409,10.);
#430=VECTOR('',#1410,10.);
#431=VECTOR('',#1411,10.);
#432=VECTOR('',#1412,10.);
#433=VECTOR('',#1413,10.);
#434=VECTOR('',#1414,10.);
#435=VECTOR('',#1415,10.);
#436=VECTOR('',#1416,10.);
#437=VECTOR('',#1417,10.);
#438=VECTOR('',#1418,10.);
#439=VECTOR('',#1419,10.);
#440=VECTOR('',#1420,10.);
#441=VECTOR('',#1425,10.);
#442=VECTOR('',#1426,10.);
#443=VECTOR('',#1427,10.);
#444=VECTOR('',#1428,10.);
#445=VECTOR('',#1429,10.);
#446=VECTOR('',#1432,10.);
#447=VECTOR('',#1433,10.);
#448=VECTOR('',#1434,10.);
#449=VECTOR('',#1435,10.);
#450=VECTOR('',#1436,10.);
#451=VECTOR('',#1437,10.);
#452=VECTOR('',#1438,10.);
#453=VECTOR('',#1439,10.);
#454=VECTOR('',#1440,10.);
#455=VECTOR('',#1441,10.);
#456=VECTOR('',#1442,10.);
#457=VECTOR('',#1443,10.);
#458=VECTOR('',#1444,10.);
#459=VECTOR('',#1445,10.);
#460=VECTOR('',#1450,10.);
#461=VECTOR('',#1453,10.);
#462=VECTOR('',#1454,10.);
#463=VECTOR('',#1459,10.);
#464=VECTOR('',#1462,10.);
#465=VECTOR('',#1463,10.);
#466=VECTOR('',#1464,10.);
#467=VECTOR('',#1467,10.);
#468=VECTOR('',#1468,10.);
#469=VECTOR('',#1469,10.);
#470=VECTOR('',#1476,2.4);
#471=VECTOR('',#1497,10.);
#472=VECTOR('',#1498,10.);
#473=VECTOR('',#1499,10.);
#474=VECTOR('',#1500,10.);
#475=VECTOR('',#1501,10.);
#476=VECTOR('',#1508,2.4);
#477=VECTOR('',#1517,2.4);
#478=VECTOR('',#1524,2.4);
#479=VECTOR('',#1531,1.7);
#480=VECTOR('',#1534,1.7);
#481=VECTOR('',#1541,10.);
#482=VECTOR('',#1542,10.);
#483=VECTOR('',#1543,10.);
#484=VECTOR('',#1546,10.);
#485=VECTOR('',#1547,10.);
#486=VECTOR('',#1550,10.);
#487=VECTOR('',#1551,10.);
#488=VECTOR('',#1554,10.);
#489=VECTOR('',#1557,10.);
#490=VECTOR('',#1560,10.);
#491=VERTEX_POINT('',#1565);
#492=VERTEX_POINT('',#1566);
#493=VERTEX_POINT('',#1568);
#494=VERTEX_POINT('',#1570);
#495=VERTEX_POINT('',#1574);
#496=VERTEX_POINT('',#1575);
#497=VERTEX_POINT('',#1577);
#498=VERTEX_POINT('',#1579);
#499=VERTEX_POINT('',#1583);
#500=VERTEX_POINT('',#1584);
#501=VERTEX_POINT('',#1586);
#502=VERTEX_POINT('',#1588);
#503=VERTEX_POINT('',#1592);
#504=VERTEX_POINT('',#1594);
#505=VERTEX_POINT('',#1598);
#506=VERTEX_POINT('',#1601);
#507=VERTEX_POINT('',#1603);
#508=VERTEX_POINT('',#1605);
#509=VERTEX_POINT('',#1609);
#510=VERTEX_POINT('',#1611);
#511=VERTEX_POINT('',#1615);
#512=VERTEX_POINT('',#1616);
#513=VERTEX_POINT('',#1618);
#514=VERTEX_POINT('',#1620);
#515=VERTEX_POINT('',#1624);
#516=VERTEX_POINT('',#1626);
#517=VERTEX_POINT('',#1630);
#518=VERTEX_POINT('',#1631);
#519=VERTEX_POINT('',#1633);
#520=VERTEX_POINT('',#1635);
#521=VERTEX_POINT('',#1639);
#522=VERTEX_POINT('',#1640);
#523=VERTEX_POINT('',#1642);
#524=VERTEX_POINT('',#1644);
#525=VERTEX_POINT('',#1648);
#526=VERTEX_POINT('',#1650);
#527=VERTEX_POINT('',#1654);
#528=VERTEX_POINT('',#1657);
#529=VERTEX_POINT('',#1659);
#530=VERTEX_POINT('',#1661);
#531=VERTEX_POINT('',#1665);
#532=VERTEX_POINT('',#1666);
#533=VERTEX_POINT('',#1668);
#534=VERTEX_POINT('',#1670);
#535=VERTEX_POINT('',#1674);
#536=VERTEX_POINT('',#1676);
#537=VERTEX_POINT('',#1680);
#538=VERTEX_POINT('',#1684);
#539=VERTEX_POINT('',#1688);
#540=VERTEX_POINT('',#1689);
#541=VERTEX_POINT('',#1691);
#542=VERTEX_POINT('',#1693);
#543=VERTEX_POINT('',#1700);
#544=VERTEX_POINT('',#1704);
#545=VERTEX_POINT('',#1707);
#546=VERTEX_POINT('',#1709);
#547=VERTEX_POINT('',#1713);
#548=VERTEX_POINT('',#1715);
#549=VERTEX_POINT('',#1719);
#550=VERTEX_POINT('',#1721);
#551=VERTEX_POINT('',#1725);
#552=VERTEX_POINT('',#1726);
#553=VERTEX_POINT('',#1737);
#554=VERTEX_POINT('',#1739);
#555=VERTEX_POINT('',#1741);
#556=VERTEX_POINT('',#1743);
#557=VERTEX_POINT('',#1745);
#558=VERTEX_POINT('',#1747);
#559=VERTEX_POINT('',#1749);
#560=VERTEX_POINT('',#1751);
#561=VERTEX_POINT('',#1753);
#562=VERTEX_POINT('',#1755);
#563=VERTEX_POINT('',#1757);
#564=VERTEX_POINT('',#1761);
#565=VERTEX_POINT('',#1764);
#566=VERTEX_POINT('',#1766);
#567=VERTEX_POINT('',#1768);
#568=VERTEX_POINT('',#1770);
#569=VERTEX_POINT('',#1774);
#570=VERTEX_POINT('',#1776);
#571=VERTEX_POINT('',#1778);
#572=VERTEX_POINT('',#1780);
#573=VERTEX_POINT('',#1782);
#574=VERTEX_POINT('',#1784);
#575=VERTEX_POINT('',#1786);
#576=VERTEX_POINT('',#1788);
#577=VERTEX_POINT('',#1790);
#578=VERTEX_POINT('',#1792);
#579=VERTEX_POINT('',#1794);
#580=VERTEX_POINT('',#1799);
#581=VERTEX_POINT('',#1804);
#582=VERTEX_POINT('',#1812);
#583=VERTEX_POINT('',#1816);
#584=VERTEX_POINT('',#1818);
#585=VERTEX_POINT('',#1823);
#586=VERTEX_POINT('',#1825);
#587=VERTEX_POINT('',#1831);
#588=VERTEX_POINT('',#1834);
#589=VERTEX_POINT('',#1837);
#590=VERTEX_POINT('',#1841);
#591=VERTEX_POINT('',#1842);
#592=VERTEX_POINT('',#1844);
#593=VERTEX_POINT('',#1846);
#594=VERTEX_POINT('',#1852);
#595=VERTEX_POINT('',#1858);
#596=VERTEX_POINT('',#1863);
#597=VERTEX_POINT('',#1874);
#598=VERTEX_POINT('',#1876);
#599=VERTEX_POINT('',#1880);
#600=VERTEX_POINT('',#1884);
#601=EDGE_CURVE('',#491,#492,#215,.T.);
#602=EDGE_CURVE('',#493,#491,#187,.T.);
#603=EDGE_CURVE('',#493,#494,#216,.T.);
#604=EDGE_CURVE('',#492,#494,#188,.T.);
#605=EDGE_CURVE('',#495,#496,#217,.T.);
#606=EDGE_CURVE('',#497,#495,#189,.T.);
#607=EDGE_CURVE('',#497,#498,#218,.T.);
#608=EDGE_CURVE('',#496,#498,#190,.T.);
#609=EDGE_CURVE('',#499,#500,#219,.T.);
#610=EDGE_CURVE('',#499,#501,#220,.T.);
#611=EDGE_CURVE('',#501,#502,#221,.T.);
#612=EDGE_CURVE('',#500,#502,#222,.T.);
#613=EDGE_CURVE('',#500,#503,#223,.T.);
#614=EDGE_CURVE('',#502,#504,#224,.T.);
#615=EDGE_CURVE('',#504,#503,#225,.T.);
#616=EDGE_CURVE('',#498,#505,#226,.T.);
#617=EDGE_CURVE('',#494,#497,#227,.T.);
#618=EDGE_CURVE('',#506,#493,#228,.T.);
#619=EDGE_CURVE('',#506,#507,#229,.T.);
#620=EDGE_CURVE('',#508,#507,#230,.T.);
#621=EDGE_CURVE('',#508,#505,#231,.T.);
#622=EDGE_CURVE('',#505,#509,#232,.T.);
#623=EDGE_CURVE('',#510,#508,#233,.T.);
#624=EDGE_CURVE('',#509,#510,#234,.T.);
#625=EDGE_CURVE('',#511,#512,#235,.T.);
#626=EDGE_CURVE('',#511,#513,#236,.T.);
#627=EDGE_CURVE('',#513,#514,#237,.T.);
#628=EDGE_CURVE('',#512,#514,#238,.T.);
#629=EDGE_CURVE('',#512,#515,#239,.T.);
#630=EDGE_CURVE('',#514,#516,#240,.T.);
#631=EDGE_CURVE('',#515,#516,#241,.T.);
#632=EDGE_CURVE('',#517,#518,#242,.T.);
#633=EDGE_CURVE('',#519,#517,#191,.T.);
#634=EDGE_CURVE('',#519,#520,#243,.T.);
#635=EDGE_CURVE('',#518,#520,#192,.T.);
#636=EDGE_CURVE('',#521,#522,#244,.T.);
#637=EDGE_CURVE('',#523,#521,#193,.T.);
#638=EDGE_CURVE('',#523,#524,#245,.T.);
#639=EDGE_CURVE('',#522,#524,#194,.T.);
#640=EDGE_CURVE('',#515,#525,#246,.T.);
#641=EDGE_CURVE('',#516,#526,#247,.T.);
#642=EDGE_CURVE('',#526,#525,#248,.T.);
#643=EDGE_CURVE('',#524,#527,#249,.T.);
#644=EDGE_CURVE('',#520,#523,#250,.T.);
#645=EDGE_CURVE('',#528,#519,#251,.T.);
#646=EDGE_CURVE('',#528,#529,#252,.T.);
#647=EDGE_CURVE('',#530,#529,#253,.T.);
#648=EDGE_CURVE('',#530,#527,#254,.T.);
#649=EDGE_CURVE('',#531,#532,#255,.T.);
#650=EDGE_CURVE('',#533,#531,#256,.T.);
#651=EDGE_CURVE('',#534,#533,#257,.T.);
#652=EDGE_CURVE('',#532,#534,#258,.T.);
#653=EDGE_CURVE('',#527,#535,#259,.T.);
#654=EDGE_CURVE('',#536,#530,#260,.T.);
#655=EDGE_CURVE('',#535,#536,#261,.T.);
#656=EDGE_CURVE('',#537,#504,#262,.T.);
#657=EDGE_CURVE('',#537,#501,#263,.T.);
#658=EDGE_CURVE('',#538,#499,#264,.T.);
#659=EDGE_CURVE('',#538,#537,#265,.T.);
#660=EDGE_CURVE('',#539,#540,#266,.T.);
#661=EDGE_CURVE('',#541,#539,#267,.T.);
#662=EDGE_CURVE('',#542,#541,#268,.T.);
#663=EDGE_CURVE('',#540,#542,#269,.T.);
#664=EDGE_CURVE('',#513,#526,#270,.T.);
#665=EDGE_CURVE('',#492,#495,#271,.T.);
#666=EDGE_CURVE('',#543,#543,#195,.T.);
#667=EDGE_CURVE('',#518,#521,#272,.T.);
#668=EDGE_CURVE('',#544,#544,#196,.T.);
#669=EDGE_CURVE('',#545,#506,#273,.T.);
#670=EDGE_CURVE('',#546,#545,#274,.T.);
#671=EDGE_CURVE('',#507,#546,#275,.T.);
#672=EDGE_CURVE('',#547,#541,#276,.T.);
#673=EDGE_CURVE('',#548,#547,#277,.T.);
#674=EDGE_CURVE('',#542,#548,#278,.T.);
#675=EDGE_CURVE('',#549,#528,#279,.T.);
#676=EDGE_CURVE('',#550,#549,#280,.T.);
#677=EDGE_CURVE('',#529,#550,#281,.T.);
#678=EDGE_CURVE('',#551,#552,#282,.T.);
#679=EDGE_CURVE('',#534,#551,#283,.T.);
#680=EDGE_CURVE('',#533,#552,#284,.T.);
#681=EDGE_CURVE('',#552,#548,#285,.T.);
#682=EDGE_CURVE('',#525,#531,#286,.T.);
#683=EDGE_CURVE('',#503,#511,#287,.T.);
#684=EDGE_CURVE('',#540,#538,#288,.T.);
#685=EDGE_CURVE('',#509,#539,#289,.T.);
#686=EDGE_CURVE('',#540,#553,#290,.T.);
#687=EDGE_CURVE('',#554,#553,#291,.T.);
#688=EDGE_CURVE('',#554,#555,#292,.T.);
#689=EDGE_CURVE('',#555,#556,#293,.T.);
#690=EDGE_CURVE('',#556,#557,#294,.T.);
#691=EDGE_CURVE('',#558,#557,#295,.T.);
#692=EDGE_CURVE('',#558,#559,#296,.T.);
#693=EDGE_CURVE('',#559,#560,#297,.T.);
#694=EDGE_CURVE('',#560,#561,#298,.T.);
#695=EDGE_CURVE('',#562,#561,#299,.T.);
#696=EDGE_CURVE('',#562,#563,#300,.T.);
#697=EDGE_CURVE('',#563,#545,#301,.T.);
#698=EDGE_CURVE('',#491,#496,#302,.T.);
#699=EDGE_CURVE('',#564,#564,#197,.T.);
#700=EDGE_CURVE('',#565,#546,#303,.T.);
#701=EDGE_CURVE('',#566,#565,#304,.T.);
#702=EDGE_CURVE('',#566,#567,#305,.T.);
#703=EDGE_CURVE('',#568,#567,#306,.T.);
#704=EDGE_CURVE('',#510,#568,#307,.T.);
#705=EDGE_CURVE('',#569,#535,#308,.T.);
#706=EDGE_CURVE('',#569,#570,#309,.T.);
#707=EDGE_CURVE('',#571,#570,#310,.T.);
#708=EDGE_CURVE('',#571,#572,#311,.T.);
#709=EDGE_CURVE('',#572,#573,#312,.T.);
#710=EDGE_CURVE('',#573,#574,#313,.T.);
#711=EDGE_CURVE('',#575,#574,#314,.T.);
#712=EDGE_CURVE('',#575,#576,#315,.T.);
#713=EDGE_CURVE('',#576,#577,#316,.T.);
#714=EDGE_CURVE('',#577,#578,#317,.T.);
#715=EDGE_CURVE('',#579,#578,#318,.T.);
#716=EDGE_CURVE('',#579,#531,#319,.T.);
#717=EDGE_CURVE('',#549,#532,#320,.T.);
#718=EDGE_CURVE('',#522,#517,#321,.T.);
#719=EDGE_CURVE('',#580,#580,#198,.T.);
#720=EDGE_CURVE('',#553,#579,#322,.T.);
#721=EDGE_CURVE('',#581,#551,#323,.T.);
#722=EDGE_CURVE('',#550,#581,#324,.T.);
#723=EDGE_CURVE('',#547,#568,#325,.T.);
#724=EDGE_CURVE('',#569,#563,#326,.T.);
#725=EDGE_CURVE('',#582,#536,#327,.T.);
#726=EDGE_CURVE('',#565,#582,#328,.T.);
#727=EDGE_CURVE('',#583,#581,#329,.T.);
#728=EDGE_CURVE('',#584,#583,#330,.T.);
#729=EDGE_CURVE('',#582,#584,#331,.T.);
#730=EDGE_CURVE('',#560,#559,#199,.T.);
#731=EDGE_CURVE('',#585,#558,#200,.T.);
#732=EDGE_CURVE('',#585,#586,#332,.T.);
#733=EDGE_CURVE('',#586,#586,#201,.T.);
#734=EDGE_CURVE('',#561,#585,#202,.T.);
#735=EDGE_CURVE('',#557,#587,#203,.T.);
#736=EDGE_CURVE('',#587,#554,#204,.T.);
#737=EDGE_CURVE('',#578,#588,#205,.T.);
#738=EDGE_CURVE('',#588,#575,#206,.T.);
#739=EDGE_CURVE('',#574,#589,#207,.T.);
#740=EDGE_CURVE('',#589,#571,#208,.T.);
#741=EDGE_CURVE('',#570,#562,#333,.T.);
#742=EDGE_CURVE('',#590,#591,#334,.T.);
#743=EDGE_CURVE('',#591,#592,#335,.T.);
#744=EDGE_CURVE('',#592,#593,#336,.T.);
#745=EDGE_CURVE('',#593,#590,#337,.T.);
#746=EDGE_CURVE('',#556,#555,#209,.T.);
#747=EDGE_CURVE('',#587,#594,#338,.T.);
#748=EDGE_CURVE('',#594,#594,#210,.T.);
#749=EDGE_CURVE('',#573,#572,#211,.T.);
#750=EDGE_CURVE('',#589,#595,#339,.T.);
#751=EDGE_CURVE('',#595,#595,#212,.T.);
#752=EDGE_CURVE('',#577,#576,#213,.T.);
#753=EDGE_CURVE('',#588,#596,#340,.T.);
#754=EDGE_CURVE('',#596,#596,#214,.T.);
#755=EDGE_CURVE('',#564,#543,#341,.T.);
#756=EDGE_CURVE('',#544,#580,#342,.T.);
#757=EDGE_CURVE('',#597,#592,#343,.T.);
#758=EDGE_CURVE('',#598,#597,#344,.T.);
#759=EDGE_CURVE('',#593,#598,#345,.T.);
#760=EDGE_CURVE('',#599,#598,#346,.T.);
#761=EDGE_CURVE('',#599,#590,#347,.T.);
#762=EDGE_CURVE('',#600,#599,#348,.T.);
#763=EDGE_CURVE('',#591,#600,#349,.T.);
#764=EDGE_CURVE('',#597,#600,#350,.T.);
#765=EDGE_CURVE('',#584,#566,#351,.T.);
#766=EDGE_CURVE('',#567,#583,#352,.T.);
#767=ORIENTED_EDGE('',*,*,#601,.F.);
#768=ORIENTED_EDGE('',*,*,#602,.F.);
#769=ORIENTED_EDGE('',*,*,#603,.T.);
#770=ORIENTED_EDGE('',*,*,#604,.F.);
#771=ORIENTED_EDGE('',*,*,#605,.F.);
#772=ORIENTED_EDGE('',*,*,#606,.F.);
#773=ORIENTED_EDGE('',*,*,#607,.T.);
#774=ORIENTED_EDGE('',*,*,#608,.F.);
#775=ORIENTED_EDGE('',*,*,#609,.F.);
#776=ORIENTED_EDGE('',*,*,#610,.T.);
#777=ORIENTED_EDGE('',*,*,#611,.T.);
#778=ORIENTED_EDGE('',*,*,#612,.F.);
#779=ORIENTED_EDGE('',*,*,#613,.F.);
#780=ORIENTED_EDGE('',*,*,#612,.T.);
#781=ORIENTED_EDGE('',*,*,#614,.T.);
#782=ORIENTED_EDGE('',*,*,#615,.T.);
#783=ORIENTED_EDGE('',*,*,#616,.F.);
#784=ORIENTED_EDGE('',*,*,#607,.F.);
#785=ORIENTED_EDGE('',*,*,#617,.F.);
#786=ORIENTED_EDGE('',*,*,#603,.F.);
#787=ORIENTED_EDGE('',*,*,#618,.F.);
#788=ORIENTED_EDGE('',*,*,#619,.T.);
#789=ORIENTED_EDGE('',*,*,#620,.F.);
#790=ORIENTED_EDGE('',*,*,#621,.T.);
#791=ORIENTED_EDGE('',*,*,#622,.F.);
#792=ORIENTED_EDGE('',*,*,#621,.F.);
#793=ORIENTED_EDGE('',*,*,#623,.F.);
#794=ORIENTED_EDGE('',*,*,#624,.F.);
#795=ORIENTED_EDGE('',*,*,#625,.F.);
#796=ORIENTED_EDGE('',*,*,#626,.T.);
#797=ORIENTED_EDGE('',*,*,#627,.T.);
#798=ORIENTED_EDGE('',*,*,#628,.F.);
#799=ORIENTED_EDGE('',*,*,#629,.F.);
#800=ORIENTED_EDGE('',*,*,#628,.T.);
#801=ORIENTED_EDGE('',*,*,#630,.T.);
#802=ORIENTED_EDGE('',*,*,#631,.F.);
#803=ORIENTED_EDGE('',*,*,#632,.F.);
#804=ORIENTED_EDGE('',*,*,#633,.F.);
#805=ORIENTED_EDGE('',*,*,#634,.T.);
#806=ORIENTED_EDGE('',*,*,#635,.F.);
#807=ORIENTED_EDGE('',*,*,#636,.F.);
#808=ORIENTED_EDGE('',*,*,#637,.F.);
#809=ORIENTED_EDGE('',*,*,#638,.T.);
#810=ORIENTED_EDGE('',*,*,#639,.F.);
#811=ORIENTED_EDGE('',*,*,#640,.F.);
#812=ORIENTED_EDGE('',*,*,#631,.T.);
#813=ORIENTED_EDGE('',*,*,#641,.T.);
#814=ORIENTED_EDGE('',*,*,#642,.T.);
#815=ORIENTED_EDGE('',*,*,#643,.F.);
#816=ORIENTED_EDGE('',*,*,#638,.F.);
#817=ORIENTED_EDGE('',*,*,#644,.F.);
#818=ORIENTED_EDGE('',*,*,#634,.F.);
#819=ORIENTED_EDGE('',*,*,#645,.F.);
#820=ORIENTED_EDGE('',*,*,#646,.T.);
#821=ORIENTED_EDGE('',*,*,#647,.F.);
#822=ORIENTED_EDGE('',*,*,#648,.T.);
#823=ORIENTED_EDGE('',*,*,#649,.F.);
#824=ORIENTED_EDGE('',*,*,#650,.F.);
#825=ORIENTED_EDGE('',*,*,#651,.F.);
#826=ORIENTED_EDGE('',*,*,#652,.F.);
#827=ORIENTED_EDGE('',*,*,#653,.F.);
#828=ORIENTED_EDGE('',*,*,#648,.F.);
#829=ORIENTED_EDGE('',*,*,#654,.F.);
#830=ORIENTED_EDGE('',*,*,#655,.F.);
#831=ORIENTED_EDGE('',*,*,#656,.T.);
#832=ORIENTED_EDGE('',*,*,#614,.F.);
#833=ORIENTED_EDGE('',*,*,#611,.F.);
#834=ORIENTED_EDGE('',*,*,#657,.F.);
#835=ORIENTED_EDGE('',*,*,#658,.F.);
#836=ORIENTED_EDGE('',*,*,#659,.T.);
#837=ORIENTED_EDGE('',*,*,#657,.T.);
#838=ORIENTED_EDGE('',*,*,#610,.F.);
#839=ORIENTED_EDGE('',*,*,#660,.F.);
#840=ORIENTED_EDGE('',*,*,#661,.F.);
#841=ORIENTED_EDGE('',*,*,#662,.F.);
#842=ORIENTED_EDGE('',*,*,#663,.F.);
#843=ORIENTED_EDGE('',*,*,#664,.T.);
#844=ORIENTED_EDGE('',*,*,#641,.F.);
#845=ORIENTED_EDGE('',*,*,#630,.F.);
#846=ORIENTED_EDGE('',*,*,#627,.F.);
#847=ORIENTED_EDGE('',*,*,#665,.F.);
#848=ORIENTED_EDGE('',*,*,#604,.T.);
#849=ORIENTED_EDGE('',*,*,#617,.T.);
#850=ORIENTED_EDGE('',*,*,#606,.T.);
#851=ORIENTED_EDGE('',*,*,#666,.F.);
#852=ORIENTED_EDGE('',*,*,#667,.F.);
#853=ORIENTED_EDGE('',*,*,#635,.T.);
#854=ORIENTED_EDGE('',*,*,#644,.T.);
#855=ORIENTED_EDGE('',*,*,#637,.T.);
#856=ORIENTED_EDGE('',*,*,#668,.F.);
#857=ORIENTED_EDGE('',*,*,#669,.F.);
#858=ORIENTED_EDGE('',*,*,#670,.F.);
#859=ORIENTED_EDGE('',*,*,#671,.F.);
#860=ORIENTED_EDGE('',*,*,#619,.F.);
#861=ORIENTED_EDGE('',*,*,#672,.F.);
#862=ORIENTED_EDGE('',*,*,#673,.F.);
#863=ORIENTED_EDGE('',*,*,#674,.F.);
#864=ORIENTED_EDGE('',*,*,#662,.T.);
#865=ORIENTED_EDGE('',*,*,#675,.F.);
#866=ORIENTED_EDGE('',*,*,#676,.F.);
#867=ORIENTED_EDGE('',*,*,#677,.F.);
#868=ORIENTED_EDGE('',*,*,#646,.F.);
#869=ORIENTED_EDGE('',*,*,#678,.F.);
#870=ORIENTED_EDGE('',*,*,#679,.F.);
#871=ORIENTED_EDGE('',*,*,#651,.T.);
#872=ORIENTED_EDGE('',*,*,#680,.T.);
#873=ORIENTED_EDGE('',*,*,#681,.F.);
#874=ORIENTED_EDGE('',*,*,#680,.F.);
#875=ORIENTED_EDGE('',*,*,#650,.T.);
#876=ORIENTED_EDGE('',*,*,#682,.F.);
#877=ORIENTED_EDGE('',*,*,#642,.F.);
#878=ORIENTED_EDGE('',*,*,#664,.F.);
#879=ORIENTED_EDGE('',*,*,#626,.F.);
#880=ORIENTED_EDGE('',*,*,#683,.F.);
#881=ORIENTED_EDGE('',*,*,#615,.F.);
#882=ORIENTED_EDGE('',*,*,#656,.F.);
#883=ORIENTED_EDGE('',*,*,#659,.F.);
#884=ORIENTED_EDGE('',*,*,#684,.F.);
#885=ORIENTED_EDGE('',*,*,#663,.T.);
#886=ORIENTED_EDGE('',*,*,#674,.T.);
#887=ORIENTED_EDGE('',*,*,#608,.T.);
#888=ORIENTED_EDGE('',*,*,#616,.T.);
#889=ORIENTED_EDGE('',*,*,#622,.T.);
#890=ORIENTED_EDGE('',*,*,#685,.T.);
#891=ORIENTED_EDGE('',*,*,#660,.T.);
#892=ORIENTED_EDGE('',*,*,#686,.T.);
#893=ORIENTED_EDGE('',*,*,#687,.F.);
#894=ORIENTED_EDGE('',*,*,#688,.T.);
#895=ORIENTED_EDGE('',*,*,#689,.T.);
#896=ORIENTED_EDGE('',*,*,#690,.T.);
#897=ORIENTED_EDGE('',*,*,#691,.F.);
#898=ORIENTED_EDGE('',*,*,#692,.T.);
#899=ORIENTED_EDGE('',*,*,#693,.T.);
#900=ORIENTED_EDGE('',*,*,#694,.T.);
#901=ORIENTED_EDGE('',*,*,#695,.F.);
#902=ORIENTED_EDGE('',*,*,#696,.T.);
#903=ORIENTED_EDGE('',*,*,#697,.T.);
#904=ORIENTED_EDGE('',*,*,#669,.T.);
#905=ORIENTED_EDGE('',*,*,#618,.T.);
#906=ORIENTED_EDGE('',*,*,#602,.T.);
#907=ORIENTED_EDGE('',*,*,#698,.T.);
#908=ORIENTED_EDGE('',*,*,#699,.T.);
#909=ORIENTED_EDGE('',*,*,#623,.T.);
#910=ORIENTED_EDGE('',*,*,#620,.T.);
#911=ORIENTED_EDGE('',*,*,#671,.T.);
#912=ORIENTED_EDGE('',*,*,#700,.F.);
#913=ORIENTED_EDGE('',*,*,#701,.F.);
#914=ORIENTED_EDGE('',*,*,#702,.T.);
#915=ORIENTED_EDGE('',*,*,#703,.F.);
#916=ORIENTED_EDGE('',*,*,#704,.F.);
#917=ORIENTED_EDGE('',*,*,#639,.T.);
#918=ORIENTED_EDGE('',*,*,#643,.T.);
#919=ORIENTED_EDGE('',*,*,#653,.T.);
#920=ORIENTED_EDGE('',*,*,#705,.F.);
#921=ORIENTED_EDGE('',*,*,#706,.T.);
#922=ORIENTED_EDGE('',*,*,#707,.F.);
#923=ORIENTED_EDGE('',*,*,#708,.T.);
#924=ORIENTED_EDGE('',*,*,#709,.T.);
#925=ORIENTED_EDGE('',*,*,#710,.T.);
#926=ORIENTED_EDGE('',*,*,#711,.F.);
#927=ORIENTED_EDGE('',*,*,#712,.T.);
#928=ORIENTED_EDGE('',*,*,#713,.T.);
#929=ORIENTED_EDGE('',*,*,#714,.T.);
#930=ORIENTED_EDGE('',*,*,#715,.F.);
#931=ORIENTED_EDGE('',*,*,#716,.T.);
#932=ORIENTED_EDGE('',*,*,#649,.T.);
#933=ORIENTED_EDGE('',*,*,#717,.F.);
#934=ORIENTED_EDGE('',*,*,#675,.T.);
#935=ORIENTED_EDGE('',*,*,#645,.T.);
#936=ORIENTED_EDGE('',*,*,#633,.T.);
#937=ORIENTED_EDGE('',*,*,#718,.F.);
#938=ORIENTED_EDGE('',*,*,#719,.T.);
#939=ORIENTED_EDGE('',*,*,#684,.T.);
#940=ORIENTED_EDGE('',*,*,#658,.T.);
#941=ORIENTED_EDGE('',*,*,#609,.T.);
#942=ORIENTED_EDGE('',*,*,#613,.T.);
#943=ORIENTED_EDGE('',*,*,#683,.T.);
#944=ORIENTED_EDGE('',*,*,#625,.T.);
#945=ORIENTED_EDGE('',*,*,#629,.T.);
#946=ORIENTED_EDGE('',*,*,#640,.T.);
#947=ORIENTED_EDGE('',*,*,#682,.T.);
#948=ORIENTED_EDGE('',*,*,#716,.F.);
#949=ORIENTED_EDGE('',*,*,#720,.F.);
#950=ORIENTED_EDGE('',*,*,#686,.F.);
#951=ORIENTED_EDGE('',*,*,#717,.T.);
#952=ORIENTED_EDGE('',*,*,#652,.T.);
#953=ORIENTED_EDGE('',*,*,#679,.T.);
#954=ORIENTED_EDGE('',*,*,#721,.F.);
#955=ORIENTED_EDGE('',*,*,#722,.F.);
#956=ORIENTED_EDGE('',*,*,#676,.T.);
#957=ORIENTED_EDGE('',*,*,#636,.T.);
#958=ORIENTED_EDGE('',*,*,#718,.T.);
#959=ORIENTED_EDGE('',*,*,#632,.T.);
#960=ORIENTED_EDGE('',*,*,#667,.T.);
#961=ORIENTED_EDGE('',*,*,#685,.F.);
#962=ORIENTED_EDGE('',*,*,#624,.T.);
#963=ORIENTED_EDGE('',*,*,#704,.T.);
#964=ORIENTED_EDGE('',*,*,#723,.F.);
#965=ORIENTED_EDGE('',*,*,#672,.T.);
#966=ORIENTED_EDGE('',*,*,#661,.T.);
#967=ORIENTED_EDGE('',*,*,#724,.F.);
#968=ORIENTED_EDGE('',*,*,#705,.T.);
#969=ORIENTED_EDGE('',*,*,#655,.T.);
#970=ORIENTED_EDGE('',*,*,#725,.F.);
#971=ORIENTED_EDGE('',*,*,#726,.F.);
#972=ORIENTED_EDGE('',*,*,#700,.T.);
#973=ORIENTED_EDGE('',*,*,#670,.T.);
#974=ORIENTED_EDGE('',*,*,#697,.F.);
#975=ORIENTED_EDGE('',*,*,#654,.T.);
#976=ORIENTED_EDGE('',*,*,#647,.T.);
#977=ORIENTED_EDGE('',*,*,#677,.T.);
#978=ORIENTED_EDGE('',*,*,#722,.T.);
#979=ORIENTED_EDGE('',*,*,#727,.F.);
#980=ORIENTED_EDGE('',*,*,#728,.F.);
#981=ORIENTED_EDGE('',*,*,#729,.F.);
#982=ORIENTED_EDGE('',*,*,#725,.T.);
#983=ORIENTED_EDGE('',*,*,#694,.F.);
#984=ORIENTED_EDGE('',*,*,#730,.T.);
#985=ORIENTED_EDGE('',*,*,#692,.F.);
#986=ORIENTED_EDGE('',*,*,#731,.F.);
#987=ORIENTED_EDGE('',*,*,#732,.T.);
#988=ORIENTED_EDGE('',*,*,#733,.F.);
#989=ORIENTED_EDGE('',*,*,#732,.F.);
#990=ORIENTED_EDGE('',*,*,#734,.F.);
#991=ORIENTED_EDGE('',*,*,#693,.F.);
#992=ORIENTED_EDGE('',*,*,#730,.F.);
#993=ORIENTED_EDGE('',*,*,#734,.T.);
#994=ORIENTED_EDGE('',*,*,#731,.T.);
#995=ORIENTED_EDGE('',*,*,#691,.T.);
#996=ORIENTED_EDGE('',*,*,#735,.T.);
#997=ORIENTED_EDGE('',*,*,#736,.T.);
#998=ORIENTED_EDGE('',*,*,#687,.T.);
#999=ORIENTED_EDGE('',*,*,#720,.T.);
#1000=ORIENTED_EDGE('',*,*,#715,.T.);
#1001=ORIENTED_EDGE('',*,*,#737,.T.);
#1002=ORIENTED_EDGE('',*,*,#738,.T.);
#1003=ORIENTED_EDGE('',*,*,#711,.T.);
#1004=ORIENTED_EDGE('',*,*,#739,.T.);
#1005=ORIENTED_EDGE('',*,*,#740,.T.);
#1006=ORIENTED_EDGE('',*,*,#707,.T.);
#1007=ORIENTED_EDGE('',*,*,#741,.T.);
#1008=ORIENTED_EDGE('',*,*,#695,.T.);
#1009=ORIENTED_EDGE('',*,*,#742,.T.);
#1010=ORIENTED_EDGE('',*,*,#743,.T.);
#1011=ORIENTED_EDGE('',*,*,#744,.T.);
#1012=ORIENTED_EDGE('',*,*,#745,.T.);
#1013=ORIENTED_EDGE('',*,*,#689,.F.);
#1014=ORIENTED_EDGE('',*,*,#746,.F.);
#1015=ORIENTED_EDGE('',*,*,#688,.F.);
#1016=ORIENTED_EDGE('',*,*,#736,.F.);
#1017=ORIENTED_EDGE('',*,*,#747,.T.);
#1018=ORIENTED_EDGE('',*,*,#748,.F.);
#1019=ORIENTED_EDGE('',*,*,#747,.F.);
#1020=ORIENTED_EDGE('',*,*,#735,.F.);
#1021=ORIENTED_EDGE('',*,*,#690,.F.);
#1022=ORIENTED_EDGE('',*,*,#746,.T.);
#1023=ORIENTED_EDGE('',*,*,#709,.F.);
#1024=ORIENTED_EDGE('',*,*,#749,.F.);
#1025=ORIENTED_EDGE('',*,*,#708,.F.);
#1026=ORIENTED_EDGE('',*,*,#740,.F.);
#1027=ORIENTED_EDGE('',*,*,#750,.T.);
#1028=ORIENTED_EDGE('',*,*,#751,.F.);
#1029=ORIENTED_EDGE('',*,*,#750,.F.);
#1030=ORIENTED_EDGE('',*,*,#739,.F.);
#1031=ORIENTED_EDGE('',*,*,#710,.F.);
#1032=ORIENTED_EDGE('',*,*,#749,.T.);
#1033=ORIENTED_EDGE('',*,*,#714,.F.);
#1034=ORIENTED_EDGE('',*,*,#752,.T.);
#1035=ORIENTED_EDGE('',*,*,#712,.F.);
#1036=ORIENTED_EDGE('',*,*,#738,.F.);
#1037=ORIENTED_EDGE('',*,*,#753,.T.);
#1038=ORIENTED_EDGE('',*,*,#754,.F.);
#1039=ORIENTED_EDGE('',*,*,#753,.F.);
#1040=ORIENTED_EDGE('',*,*,#737,.F.);
#1041=ORIENTED_EDGE('',*,*,#713,.F.);
#1042=ORIENTED_EDGE('',*,*,#752,.F.);
#1043=ORIENTED_EDGE('',*,*,#699,.F.);
#1044=ORIENTED_EDGE('',*,*,#755,.T.);
#1045=ORIENTED_EDGE('',*,*,#666,.T.);
#1046=ORIENTED_EDGE('',*,*,#755,.F.);
#1047=ORIENTED_EDGE('',*,*,#668,.T.);
#1048=ORIENTED_EDGE('',*,*,#756,.T.);
#1049=ORIENTED_EDGE('',*,*,#719,.F.);
#1050=ORIENTED_EDGE('',*,*,#756,.F.);
#1051=ORIENTED_EDGE('',*,*,#741,.F.);
#1052=ORIENTED_EDGE('',*,*,#706,.F.);
#1053=ORIENTED_EDGE('',*,*,#724,.T.);
#1054=ORIENTED_EDGE('',*,*,#696,.F.);
#1055=ORIENTED_EDGE('',*,*,#605,.T.);
#1056=ORIENTED_EDGE('',*,*,#698,.F.);
#1057=ORIENTED_EDGE('',*,*,#601,.T.);
#1058=ORIENTED_EDGE('',*,*,#665,.T.);
#1059=ORIENTED_EDGE('',*,*,#744,.F.);
#1060=ORIENTED_EDGE('',*,*,#757,.F.);
#1061=ORIENTED_EDGE('',*,*,#758,.F.);
#1062=ORIENTED_EDGE('',*,*,#759,.F.);
#1063=ORIENTED_EDGE('',*,*,#745,.F.);
#1064=ORIENTED_EDGE('',*,*,#759,.T.);
#1065=ORIENTED_EDGE('',*,*,#760,.F.);
#1066=ORIENTED_EDGE('',*,*,#761,.T.);
#1067=ORIENTED_EDGE('',*,*,#742,.F.);
#1068=ORIENTED_EDGE('',*,*,#761,.F.);
#1069=ORIENTED_EDGE('',*,*,#762,.F.);
#1070=ORIENTED_EDGE('',*,*,#763,.F.);
#1071=ORIENTED_EDGE('',*,*,#743,.F.);
#1072=ORIENTED_EDGE('',*,*,#763,.T.);
#1073=ORIENTED_EDGE('',*,*,#764,.F.);
#1074=ORIENTED_EDGE('',*,*,#757,.T.);
#1075=ORIENTED_EDGE('',*,*,#765,.T.);
#1076=ORIENTED_EDGE('',*,*,#701,.T.);
#1077=ORIENTED_EDGE('',*,*,#726,.T.);
#1078=ORIENTED_EDGE('',*,*,#729,.T.);
#1079=ORIENTED_EDGE('',*,*,#673,.T.);
#1080=ORIENTED_EDGE('',*,*,#723,.T.);
#1081=ORIENTED_EDGE('',*,*,#703,.T.);
#1082=ORIENTED_EDGE('',*,*,#766,.T.);
#1083=ORIENTED_EDGE('',*,*,#727,.T.);
#1084=ORIENTED_EDGE('',*,*,#721,.T.);
#1085=ORIENTED_EDGE('',*,*,#678,.T.);
#1086=ORIENTED_EDGE('',*,*,#681,.T.);
#1087=ORIENTED_EDGE('',*,*,#728,.T.);
#1088=ORIENTED_EDGE('',*,*,#766,.F.);
#1089=ORIENTED_EDGE('',*,*,#702,.F.);
#1090=ORIENTED_EDGE('',*,*,#765,.F.);
#1091=ORIENTED_EDGE('',*,*,#733,.T.);
#1092=ORIENTED_EDGE('',*,*,#748,.T.);
#1093=ORIENTED_EDGE('',*,*,#751,.T.);
#1094=ORIENTED_EDGE('',*,*,#754,.T.);
#1095=ORIENTED_EDGE('',*,*,#762,.T.);
#1096=ORIENTED_EDGE('',*,*,#760,.T.);
#1097=ORIENTED_EDGE('',*,*,#758,.T.);
#1098=ORIENTED_EDGE('',*,*,#764,.T.);
#1099=CYLINDRICAL_SURFACE('',#1177,2.35);
#1100=CYLINDRICAL_SURFACE('',#1180,2.35);
#1101=CYLINDRICAL_SURFACE('',#1189,2.35);
#1102=CYLINDRICAL_SURFACE('',#1192,2.35);
#1103=CYLINDRICAL_SURFACE('',#1223,2.4);
#1104=CYLINDRICAL_SURFACE('',#1238,2.4);
#1105=CYLINDRICAL_SURFACE('',#1242,2.4);
#1106=CYLINDRICAL_SURFACE('',#1244,2.4);
#1107=CYLINDRICAL_SURFACE('',#1248,1.7);
#1108=CYLINDRICAL_SURFACE('',#1249,1.7);
#1109=ADVANCED_FACE('',(#69),#1099,.T.);
#1110=ADVANCED_FACE('',(#70),#1100,.T.);
#1111=ADVANCED_FACE('',(#71),#25,.T.);
#1112=ADVANCED_FACE('',(#72),#26,.T.);
#1113=ADVANCED_FACE('',(#73),#27,.T.);
#1114=ADVANCED_FACE('',(#74),#28,.T.);
#1115=ADVANCED_FACE('',(#75),#29,.T.);
#1116=ADVANCED_FACE('',(#76),#30,.T.);
#1117=ADVANCED_FACE('',(#77),#1101,.T.);
#1118=ADVANCED_FACE('',(#78),#1102,.T.);
#1119=ADVANCED_FACE('',(#79),#31,.T.);
#1120=ADVANCED_FACE('',(#80),#32,.T.);
#1121=ADVANCED_FACE('',(#81),#33,.F.);
#1122=ADVANCED_FACE('',(#82),#34,.F.);
#1123=ADVANCED_FACE('',(#83),#35,.T.);
#1124=ADVANCED_FACE('',(#84),#36,.T.);
#1125=ADVANCED_FACE('',(#85),#37,.F.);
#1126=ADVANCED_FACE('',(#86),#38,.T.);
#1127=ADVANCED_FACE('',(#87,#15),#39,.T.);
#1128=ADVANCED_FACE('',(#88,#16),#40,.T.);
#1129=ADVANCED_FACE('',(#89),#41,.F.);
#1130=ADVANCED_FACE('',(#90),#42,.T.);
#1131=ADVANCED_FACE('',(#91),#43,.T.);
#1132=ADVANCED_FACE('',(#92),#44,.T.);
#1133=ADVANCED_FACE('',(#93),#45,.T.);
#1134=ADVANCED_FACE('',(#94,#17),#46,.F.);
#1135=ADVANCED_FACE('',(#95),#47,.F.);
#1136=ADVANCED_FACE('',(#96,#18),#48,.F.);
#1137=ADVANCED_FACE('',(#97),#49,.T.);
#1138=ADVANCED_FACE('',(#98),#50,.F.);
#1139=ADVANCED_FACE('',(#99),#51,.F.);
#1140=ADVANCED_FACE('',(#100),#52,.F.);
#1141=ADVANCED_FACE('',(#101),#53,.F.);
#1142=ADVANCED_FACE('',(#102),#54,.F.);
#1143=ADVANCED_FACE('',(#103),#1103,.F.);
#1144=ADVANCED_FACE('',(#104),#55,.F.);
#1145=ADVANCED_FACE('',(#105,#19),#56,.F.);
#1146=ADVANCED_FACE('',(#106),#57,.F.);
#1147=ADVANCED_FACE('',(#107),#1104,.F.);
#1148=ADVANCED_FACE('',(#108),#58,.F.);
#1149=ADVANCED_FACE('',(#109),#1105,.F.);
#1150=ADVANCED_FACE('',(#110),#1106,.F.);
#1151=ADVANCED_FACE('',(#111),#59,.F.);
#1152=ADVANCED_FACE('',(#112),#1107,.F.);
#1153=ADVANCED_FACE('',(#113),#1108,.F.);
#1154=ADVANCED_FACE('',(#114),#60,.F.);
#1155=ADVANCED_FACE('',(#115),#61,.F.);
#1156=ADVANCED_FACE('',(#116),#62,.F.);
#1157=ADVANCED_FACE('',(#117),#63,.T.);
#1158=ADVANCED_FACE('',(#118),#64,.T.);
#1159=ADVANCED_FACE('',(#119),#65,.T.);
#1160=ADVANCED_FACE('',(#120),#66,.T.);
#1161=ADVANCED_FACE('',(#121),#67,.F.);
#1162=ADVANCED_FACE('',(#122,#20,#21,#22,#23,#24),#68,.F.);
#1163=CLOSED_SHELL('',(#1109,#1110,#1111,#1112,#1113,#1114,#1115,#1116,
#1117,#1118,#1119,#1120,#1121,#1122,#1123,#1124,#1125,#1126,#1127,#1128,
#1129,#1130,#1131,#1132,#1133,#1134,#1135,#1136,#1137,#1138,#1139,#1140,
#1141,#1142,#1143,#1144,#1145,#1146,#1147,#1148,#1149,#1150,#1151,#1152,
#1153,#1154,#1155,#1156,#1157,#1158,#1159,#1160,#1161,#1162));
#1164=DERIVED_UNIT_ELEMENT(#1166,1.);
#1165=DERIVED_UNIT_ELEMENT(#1899,-3.);
#1166=(
MASS_UNIT()
NAMED_UNIT(*)
SI_UNIT(.KILO.,.GRAM.)
);
#1167=DERIVED_UNIT((#1164,#1165));
#1168=MEASURE_REPRESENTATION_ITEM('density measure',
POSITIVE_RATIO_MEASURE(7850.),#1167);
#1169=PROPERTY_DEFINITION_REPRESENTATION(#1174,#1171);
#1170=PROPERTY_DEFINITION_REPRESENTATION(#1175,#1172);
#1171=REPRESENTATION('material name',(#1173),#1896);
#1172=REPRESENTATION('density',(#1168),#1896);
#1173=DESCRIPTIVE_REPRESENTATION_ITEM('Steel','Steel');
#1174=PROPERTY_DEFINITION('material property','material name',#1906);
#1175=PROPERTY_DEFINITION('material property','density of part',#1906);
#1176=AXIS2_PLACEMENT_3D('',#1563,#1259,#1260);
#1177=AXIS2_PLACEMENT_3D('',#1564,#1261,#1262);
#1178=AXIS2_PLACEMENT_3D('',#1569,#1264,#1265);
#1179=AXIS2_PLACEMENT_3D('',#1572,#1267,#1268);
#1180=AXIS2_PLACEMENT_3D('',#1573,#1269,#1270);
#1181=AXIS2_PLACEMENT_3D('',#1578,#1272,#1273);
#1182=AXIS2_PLACEMENT_3D('',#1581,#1275,#1276);
#1183=AXIS2_PLACEMENT_3D('',#1582,#1277,#1278);
#1184=AXIS2_PLACEMENT_3D('',#1591,#1283,#1284);
#1185=AXIS2_PLACEMENT_3D('',#1597,#1288,#1289);
#1186=AXIS2_PLACEMENT_3D('',#1608,#1296,#1297);
#1187=AXIS2_PLACEMENT_3D('',#1614,#1301,#1302);
#1188=AXIS2_PLACEMENT_3D('',#1623,#1307,#1308);
#1189=AXIS2_PLACEMENT_3D('',#1629,#1312,#1313);
#1190=AXIS2_PLACEMENT_3D('',#1634,#1315,#1316);
#1191=AXIS2_PLACEMENT_3D('',#1637,#1318,#1319);
#1192=AXIS2_PLACEMENT_3D('',#1638,#1320,#1321);
#1193=AXIS2_PLACEMENT_3D('',#1643,#1323,#1324);
#1194=AXIS2_PLACEMENT_3D('',#1646,#1326,#1327);
#1195=AXIS2_PLACEMENT_3D('',#1647,#1328,#1329);
#1196=AXIS2_PLACEMENT_3D('',#1653,#1333,#1334);
#1197=AXIS2_PLACEMENT_3D('',#1664,#1341,#1342);
#1198=AXIS2_PLACEMENT_3D('',#1673,#1347,#1348);
#1199=AXIS2_PLACEMENT_3D('',#1679,#1352,#1353);
#1200=AXIS2_PLACEMENT_3D('',#1683,#1356,#1357);
#1201=AXIS2_PLACEMENT_3D('',#1687,#1360,#1361);
#1202=AXIS2_PLACEMENT_3D('',#1696,#1366,#1367);
#1203=AXIS2_PLACEMENT_3D('',#1698,#1369,#1370);
#1204=AXIS2_PLACEMENT_3D('',#1701,#1372,#1373);
#1205=AXIS2_PLACEMENT_3D('',#1702,#1374,#1375);
#1206=AXIS2_PLACEMENT_3D('',#1705,#1377,#1378);
#1207=AXIS2_PLACEMENT_3D('',#1706,#1379,#1380);
#1208=AXIS2_PLACEMENT_3D('',#1712,#1384,#1385);
#1209=AXIS2_PLACEMENT_3D('',#1718,#1389,#1390);
#1210=AXIS2_PLACEMENT_3D('',#1724,#1394,#1395);
#1211=AXIS2_PLACEMENT_3D('',#1730,#1399,#1400);
#1212=AXIS2_PLACEMENT_3D('',#1735,#1405,#1406);
#1213=AXIS2_PLACEMENT_3D('',#1762,#1421,#1422);
#1214=AXIS2_PLACEMENT_3D('',#1763,#1423,#1424);
#1215=AXIS2_PLACEMENT_3D('',#1773,#1430,#1431);
#1216=AXIS2_PLACEMENT_3D('',#1800,#1446,#1447);
#1217=AXIS2_PLACEMENT_3D('',#1801,#1448,#1449);
#1218=AXIS2_PLACEMENT_3D('',#1803,#1451,#1452);
#1219=AXIS2_PLACEMENT_3D('',#1807,#1455,#1456);
#1220=AXIS2_PLACEMENT_3D('',#1808,#1457,#1458);
#1221=AXIS2_PLACEMENT_3D('',#1810,#1460,#1461);
#1222=AXIS2_PLACEMENT_3D('',#1815,#1465,#1466);
#1223=AXIS2_PLACEMENT_3D('',#1821,#1470,#1471);
#1224=AXIS2_PLACEMENT_3D('',#1822,#1472,#1473);
#1225=AXIS2_PLACEMENT_3D('',#1824,#1474,#1475);
#1226=AXIS2_PLACEMENT_3D('',#1827,#1477,#1478);
#1227=AXIS2_PLACEMENT_3D('',#1828,#1479,#1480);
#1228=AXIS2_PLACEMENT_3D('',#1829,#1481,#1482);
#1229=AXIS2_PLACEMENT_3D('',#1830,#1483,#1484);
#1230=AXIS2_PLACEMENT_3D('',#1832,#1485,#1486);
#1231=AXIS2_PLACEMENT_3D('',#1833,#1487,#1488);
#1232=AXIS2_PLACEMENT_3D('',#1835,#1489,#1490);
#1233=AXIS2_PLACEMENT_3D('',#1836,#1491,#1492);
#1234=AXIS2_PLACEMENT_3D('',#1838,#1493,#1494);
#1235=AXIS2_PLACEMENT_3D('',#1839,#1495,#1496);
#1236=AXIS2_PLACEMENT_3D('',#1849,#1502,#1503);
#1237=AXIS2_PLACEMENT_3D('',#1850,#1504,#1505);
#1238=AXIS2_PLACEMENT_3D('',#1851,#1506,#1507);
#1239=AXIS2_PLACEMENT_3D('',#1854,#1509,#1510);
#1240=AXIS2_PLACEMENT_3D('',#1855,#1511,#1512);
#1241=AXIS2_PLACEMENT_3D('',#1856,#1513,#1514);
#1242=AXIS2_PLACEMENT_3D('',#1857,#1515,#1516);
#1243=AXIS2_PLACEMENT_3D('',#1860,#1518,#1519);
#1244=AXIS2_PLACEMENT_3D('',#1861,#1520,#1521);
#1245=AXIS2_PLACEMENT_3D('',#1862,#1522,#1523);
#1246=AXIS2_PLACEMENT_3D('',#1865,#1525,#1526);
#1247=AXIS2_PLACEMENT_3D('',#1866,#1527,#1528);
#1248=AXIS2_PLACEMENT_3D('',#1867,#1529,#1530);
#1249=AXIS2_PLACEMENT_3D('',#1869,#1532,#1533);
#1250=AXIS2_PLACEMENT_3D('',#1871,#1535,#1536);
#1251=AXIS2_PLACEMENT_3D('',#1872,#1537,#1538);
#1252=AXIS2_PLACEMENT_3D('',#1873,#1539,#1540);
#1253=AXIS2_PLACEMENT_3D('',#1879,#1544,#1545);
#1254=AXIS2_PLACEMENT_3D('',#1883,#1548,#1549);
#1255=AXIS2_PLACEMENT_3D('',#1887,#1552,#1553);
#1256=AXIS2_PLACEMENT_3D('',#1889,#1555,#1556);
#1257=AXIS2_PLACEMENT_3D('',#1891,#1558,#1559);
#1258=AXIS2_PLACEMENT_3D('',#1893,#1561,#1562);
#1259=DIRECTION('axis',(0.,0.,1.));
#1260=DIRECTION('refdir',(1.,0.,0.));
#1261=DIRECTION('center_axis',(0.,1.,0.));
#1262=DIRECTION('ref_axis',(1.,0.,0.));
#1263=DIRECTION('',(0.,1.,0.));
#1264=DIRECTION('center_axis',(0.,-1.,0.));
#1265=DIRECTION('ref_axis',(1.,0.,0.));
#1266=DIRECTION('',(0.,1.,0.));
#1267=DIRECTION('center_axis',(0.,1.,0.));
#1268=DIRECTION('ref_axis',(1.,0.,0.));
#1269=DIRECTION('center_axis',(0.,1.,0.));
#1270=DIRECTION('ref_axis',(1.,0.,0.));
#1271=DIRECTION('',(0.,-1.,0.));
#1272=DIRECTION('center_axis',(0.,1.,0.));
#1273=DIRECTION('ref_axis',(1.,0.,0.));
#1274=DIRECTION('',(0.,-1.,0.));
#1275=DIRECTION('center_axis',(0.,-1.,0.));
#1276=DIRECTION('ref_axis',(1.,0.,0.));
#1277=DIRECTION('center_axis',(-1.,0.,0.));
#1278=DIRECTION('ref_axis',(0.,0.,1.));
#1279=DIRECTION('',(0.,-1.,0.));
#1280=DIRECTION('',(0.,0.,-1.));
#1281=DIRECTION('',(0.,-1.,0.));
#1282=DIRECTION('',(0.,0.,-1.));
#1283=DIRECTION('center_axis',(0.,1.,0.));
#1284=DIRECTION('ref_axis',(0.,0.,1.));
#1285=DIRECTION('',(-1.,0.,0.));
#1286=DIRECTION('',(-1.,0.,0.));
#1287=DIRECTION('',(0.,0.,1.));
#1288=DIRECTION('center_axis',(-1.,0.,0.));
#1289=DIRECTION('ref_axis',(0.,0.,1.));
#1290=DIRECTION('',(0.,0.,-1.));
#1291=DIRECTION('',(0.,0.,-1.));
#1292=DIRECTION('',(0.,0.,-1.));
#1293=DIRECTION('',(0.,1.,0.));
#1294=DIRECTION('',(0.,0.,1.));
#1295=DIRECTION('',(0.,-1.,0.));
#1296=DIRECTION('center_axis',(0.,0.,1.));
#1297=DIRECTION('ref_axis',(1.,0.,0.));
#1298=DIRECTION('',(-1.,0.,0.));
#1299=DIRECTION('',(1.,0.,0.));
#1300=DIRECTION('',(0.,1.,0.));
#1301=DIRECTION('center_axis',(0.,-1.,0.));
#1302=DIRECTION('ref_axis',(0.,0.,-1.));
#1303=DIRECTION('',(1.,0.,0.));
#1304=DIRECTION('',(0.,0.,-1.));
#1305=DIRECTION('',(1.,0.,0.));
#1306=DIRECTION('',(0.,0.,-1.));
#1307=DIRECTION('center_axis',(-1.,0.,0.));
#1308=DIRECTION('ref_axis',(0.,0.,1.));
#1309=DIRECTION('',(0.,-1.,0.));
#1310=DIRECTION('',(0.,-1.,0.));
#1311=DIRECTION('',(0.,0.,-1.));
#1312=DIRECTION('center_axis',(0.,1.,0.));
#1313=DIRECTION('ref_axis',(1.,0.,0.));
#1314=DIRECTION('',(0.,-1.,0.));
#1315=DIRECTION('center_axis',(0.,1.,0.));
#1316=DIRECTION('ref_axis',(1.,0.,0.));
#1317=DIRECTION('',(0.,-1.,0.));
#1318=DIRECTION('center_axis',(0.,-1.,0.));
#1319=DIRECTION('ref_axis',(1.,0.,0.));
#1320=DIRECTION('center_axis',(0.,1.,0.));
#1321=DIRECTION('ref_axis',(1.,0.,0.));
#1322=DIRECTION('',(0.,1.,0.));
#1323=DIRECTION('center_axis',(0.,-1.,0.));
#1324=DIRECTION('ref_axis',(1.,0.,0.));
#1325=DIRECTION('',(0.,1.,0.));
#1326=DIRECTION('center_axis',(0.,1.,0.));
#1327=DIRECTION('ref_axis',(1.,0.,0.));
#1328=DIRECTION('center_axis',(0.,1.,0.));
#1329=DIRECTION('ref_axis',(0.,0.,1.));
#1330=DIRECTION('',(-1.,0.,0.));
#1331=DIRECTION('',(-1.,0.,0.));
#1332=DIRECTION('',(0.,0.,1.));
#1333=DIRECTION('center_axis',(-1.,0.,0.));
#1334=DIRECTION('ref_axis',(0.,0.,1.));
#1335=DIRECTION('',(0.,0.,1.));
#1336=DIRECTION('',(0.,0.,1.));
#1337=DIRECTION('',(0.,0.,1.));
#1338=DIRECTION('',(0.,-1.,0.));
#1339=DIRECTION('',(0.,0.,-1.));
#1340=DIRECTION('',(0.,1.,0.));
#1341=DIRECTION('center_axis',(0.,0.,1.));
#1342=DIRECTION('ref_axis',(1.,0.,0.));
#1343=DIRECTION('',(-1.,0.,0.));
#1344=DIRECTION('',(0.,1.,0.));
#1345=DIRECTION('',(1.,0.,0.));
#1346=DIRECTION('',(0.,-1.,0.));
#1347=DIRECTION('center_axis',(0.,0.,1.));
#1348=DIRECTION('ref_axis',(1.,0.,0.));
#1349=DIRECTION('',(-1.,0.,0.));
#1350=DIRECTION('',(1.,0.,0.));
#1351=DIRECTION('',(0.,-1.,0.));
#1352=DIRECTION('center_axis',(0.,0.,1.));
#1353=DIRECTION('ref_axis',(1.,0.,0.));
#1354=DIRECTION('',(0.,-1.,0.));
#1355=DIRECTION('',(1.,0.,0.));
#1356=DIRECTION('center_axis',(0.,-1.,0.));
#1357=DIRECTION('ref_axis',(0.,0.,-1.));
#1358=DIRECTION('',(1.,0.,0.));
#1359=DIRECTION('',(0.,0.,-1.));
#1360=DIRECTION('center_axis',(0.,0.,1.));
#1361=DIRECTION('ref_axis',(1.,0.,0.));
#1362=DIRECTION('',(1.,0.,0.));
#1363=DIRECTION('',(0.,-1.,0.));
#1364=DIRECTION('',(-1.,0.,0.));
#1365=DIRECTION('',(0.,1.,0.));
#1366=DIRECTION('center_axis',(0.,0.,1.));
#1367=DIRECTION('ref_axis',(1.,0.,0.));
#1368=DIRECTION('',(0.,-1.,0.));
#1369=DIRECTION('center_axis',(0.,1.,0.));
#1370=DIRECTION('ref_axis',(1.,0.,0.));
#1371=DIRECTION('',(0.,0.,-1.));
#1372=DIRECTION('center_axis',(0.,1.,0.));
#1373=DIRECTION('ref_axis',(1.,0.,0.));
#1374=DIRECTION('center_axis',(0.,-1.,0.));
#1375=DIRECTION('ref_axis',(-1.,0.,0.));
#1376=DIRECTION('',(0.,0.,1.));
#1377=DIRECTION('center_axis',(0.,-1.,0.));
#1378=DIRECTION('ref_axis',(1.,0.,0.));
#1379=DIRECTION('center_axis',(0.,0.,1.));
#1380=DIRECTION('ref_axis',(1.,0.,0.));
#1381=DIRECTION('',(1.,0.,0.));
#1382=DIRECTION('',(0.,-1.,0.));
#1383=DIRECTION('',(-1.,0.,0.));
#1384=DIRECTION('center_axis',(0.,-1.,0.));
#1385=DIRECTION('ref_axis',(0.,0.,-1.));
#1386=DIRECTION('',(0.,0.,1.));
#1387=DIRECTION('',(-1.,0.,0.));
#1388=DIRECTION('',(0.,0.,-1.));
#1389=DIRECTION('center_axis',(0.,0.,1.));
#1390=DIRECTION('ref_axis',(1.,0.,0.));
#1391=DIRECTION('',(1.,0.,0.));
#1392=DIRECTION('',(0.,1.,0.));
#1393=DIRECTION('',(-1.,0.,0.));
#1394=DIRECTION('center_axis',(0.,1.,0.));
#1395=DIRECTION('ref_axis',(0.,0.,1.));
#1396=DIRECTION('',(1.,0.,0.));
#1397=DIRECTION('',(0.,0.,-1.));
#1398=DIRECTION('',(0.,0.,-1.));
#1399=DIRECTION('center_axis',(-1.,0.,0.));
#1400=DIRECTION('ref_axis',(0.,0.,1.));
#1401=DIRECTION('',(0.,1.,0.));
#1402=DIRECTION('',(0.,-1.,0.));
#1403=DIRECTION('',(0.,-1.,0.));
#1404=DIRECTION('',(0.,-1.,0.));
#1405=DIRECTION('center_axis',(0.,1.,0.));
#1406=DIRECTION('ref_axis',(0.,0.,1.));
#1407=DIRECTION('',(0.,0.,-1.));
#1408=DIRECTION('',(1.,0.,0.));
#1409=DIRECTION('',(0.,0.,-1.));
#1410=DIRECTION('',(-1.,0.,0.));
#1411=DIRECTION('',(0.,0.,1.));
#1412=DIRECTION('',(1.,0.,0.));
#1413=DIRECTION('',(0.,0.,-1.));
#1414=DIRECTION('',(-1.,0.,0.));
#1415=DIRECTION('',(0.,0.,1.));
#1416=DIRECTION('',(1.,0.,0.));
#1417=DIRECTION('',(0.,0.,-1.));
#1418=DIRECTION('',(-1.,0.,0.));
#1419=DIRECTION('',(0.,0.,-1.));
#1420=DIRECTION('',(0.,0.,-1.));
#1421=DIRECTION('center_axis',(0.,1.,0.));
#1422=DIRECTION('ref_axis',(1.,0.,0.));
#1423=DIRECTION('center_axis',(0.,-1.,0.));
#1424=DIRECTION('ref_axis',(0.,0.,-1.));
#1425=DIRECTION('',(0.,0.,-1.));
#1426=DIRECTION('',(-1.,0.,0.));
#1427=DIRECTION('',(0.,0.,-1.));
#1428=DIRECTION('',(1.,0.,0.));
#1429=DIRECTION('',(0.,0.,-1.));
#1430=DIRECTION('center_axis',(0.,-1.,0.));
#1431=DIRECTION('ref_axis',(0.,0.,-1.));
#1432=DIRECTION('',(0.,0.,-1.));
#1433=DIRECTION('',(1.,0.,0.));
#1434=DIRECTION('',(0.,0.,1.));
#1435=DIRECTION('',(-1.,0.,0.));
#1436=DIRECTION('',(0.,0.,-1.));
#1437=DIRECTION('',(1.,0.,0.));
#1438=DIRECTION('',(0.,0.,1.));
#1439=DIRECTION('',(-1.,0.,0.));
#1440=DIRECTION('',(0.,0.,-1.));
#1441=DIRECTION('',(1.,0.,0.));
#1442=DIRECTION('',(0.,0.,1.));
#1443=DIRECTION('',(-1.,0.,0.));
#1444=DIRECTION('',(0.,0.,-1.));
#1445=DIRECTION('',(0.,0.,-1.));
#1446=DIRECTION('center_axis',(0.,-1.,0.));
#1447=DIRECTION('ref_axis',(1.,0.,0.));
#1448=DIRECTION('center_axis',(0.,0.,1.));
#1449=DIRECTION('ref_axis',(1.,0.,0.));
#1450=DIRECTION('',(0.,-1.,0.));
#1451=DIRECTION('center_axis',(1.,0.,0.));
#1452=DIRECTION('ref_axis',(0.,0.,-1.));
#1453=DIRECTION('',(0.,1.,0.));
#1454=DIRECTION('',(0.,0.,-1.));
#1455=DIRECTION('center_axis',(1.,0.,0.));
#1456=DIRECTION('ref_axis',(0.,0.,-1.));
#1457=DIRECTION('center_axis',(1.,0.,0.));
#1458=DIRECTION('ref_axis',(0.,0.,-1.));
#1459=DIRECTION('',(0.,1.,0.));
#1460=DIRECTION('center_axis',(1.,0.,0.));
#1461=DIRECTION('ref_axis',(0.,0.,-1.));
#1462=DIRECTION('',(0.,1.,0.));
#1463=DIRECTION('',(0.,0.,-1.));
#1464=DIRECTION('',(0.,-1.,0.));
#1465=DIRECTION('center_axis',(0.,1.,0.));
#1466=DIRECTION('ref_axis',(0.,0.,1.));
#1467=DIRECTION('',(-1.,0.,0.));
#1468=DIRECTION('',(0.,0.,-1.));
#1469=DIRECTION('',(1.,0.,0.));
#1470=DIRECTION('center_axis',(1.,0.,0.));
#1471=DIRECTION('ref_axis',(0.,0.,-1.));
#1472=DIRECTION('center_axis',(-1.,0.,0.));
#1473=DIRECTION('ref_axis',(0.,0.,-1.));
#1474=DIRECTION('center_axis',(1.,0.,0.));
#1475=DIRECTION('ref_axis',(0.,0.,-1.));
#1476=DIRECTION('',(1.,0.,0.));
#1477=DIRECTION('center_axis',(-1.,0.,0.));
#1478=DIRECTION('ref_axis',(0.,0.,-1.));
#1479=DIRECTION('center_axis',(1.,0.,0.));
#1480=DIRECTION('ref_axis',(0.,0.,-1.));
#1481=DIRECTION('center_axis',(-1.,0.,0.));
#1482=DIRECTION('ref_axis',(0.,0.,1.));
#1483=DIRECTION('center_axis',(1.,0.,0.));
#1484=DIRECTION('ref_axis',(0.,0.,-1.));
#1485=DIRECTION('center_axis',(1.,0.,0.));
#1486=DIRECTION('ref_axis',(0.,0.,-1.));
#1487=DIRECTION('center_axis',(1.,0.,0.));
#1488=DIRECTION('ref_axis',(0.,0.,-1.));
#1489=DIRECTION('center_axis',(1.,0.,0.));
#1490=DIRECTION('ref_axis',(0.,0.,-1.));
#1491=DIRECTION('center_axis',(1.,0.,0.));
#1492=DIRECTION('ref_axis',(0.,0.,-1.));
#1493=DIRECTION('center_axis',(1.,0.,0.));
#1494=DIRECTION('ref_axis',(0.,0.,-1.));
#1495=DIRECTION('center_axis',(1.,0.,0.));
#1496=DIRECTION('ref_axis',(0.,0.,-1.));
#1497=DIRECTION('',(0.,1.,0.));
#1498=DIRECTION('',(0.,1.,0.));
#1499=DIRECTION('',(0.,0.,1.));
#1500=DIRECTION('',(0.,-1.,0.));
#1501=DIRECTION('',(0.,0.,-1.));
#1502=DIRECTION('center_axis',(-1.,0.,0.));
#1503=DIRECTION('ref_axis',(0.,0.,1.));
#1504=DIRECTION('center_axis',(-1.,0.,0.));
#1505=DIRECTION('ref_axis',(0.,0.,-1.));
#1506=DIRECTION('center_axis',(1.,0.,0.));
#1507=DIRECTION('ref_axis',(0.,0.,-1.));
#1508=DIRECTION('',(1.,0.,0.));
#1509=DIRECTION('center_axis',(-1.,0.,0.));
#1510=DIRECTION('ref_axis',(0.,0.,-1.));
#1511=DIRECTION('center_axis',(-1.,0.,0.));
#1512=DIRECTION('ref_axis',(0.,0.,1.));
#1513=DIRECTION('center_axis',(-1.,0.,0.));
#1514=DIRECTION('ref_axis',(0.,0.,-1.));
#1515=DIRECTION('center_axis',(1.,0.,0.));
#1516=DIRECTION('ref_axis',(0.,0.,-1.));
#1517=DIRECTION('',(1.,0.,0.));
#1518=DIRECTION('center_axis',(-1.,0.,0.));
#1519=DIRECTION('ref_axis',(0.,0.,-1.));
#1520=DIRECTION('center_axis',(1.,0.,0.));
#1521=DIRECTION('ref_axis',(0.,0.,-1.));
#1522=DIRECTION('center_axis',(-1.,0.,0.));
#1523=DIRECTION('ref_axis',(0.,0.,-1.));
#1524=DIRECTION('',(1.,0.,0.));
#1525=DIRECTION('center_axis',(-1.,0.,0.));
#1526=DIRECTION('ref_axis',(0.,0.,-1.));
#1527=DIRECTION('center_axis',(-1.,0.,0.));
#1528=DIRECTION('ref_axis',(0.,0.,1.));
#1529=DIRECTION('center_axis',(0.,1.,0.));
#1530=DIRECTION('ref_axis',(1.,0.,0.));
#1531=DIRECTION('',(0.,1.,0.));
#1532=DIRECTION('center_axis',(0.,1.,0.));
#1533=DIRECTION('ref_axis',(1.,0.,0.));
#1534=DIRECTION('',(0.,1.,0.));
#1535=DIRECTION('center_axis',(0.,0.,1.));
#1536=DIRECTION('ref_axis',(1.,0.,0.));
#1537=DIRECTION('center_axis',(1.,0.,0.));
#1538=DIRECTION('ref_axis',(0.,0.,-1.));
#1539=DIRECTION('center_axis',(0.,0.,1.));
#1540=DIRECTION('ref_axis',(1.,0.,0.));
#1541=DIRECTION('',(-1.,0.,0.));
#1542=DIRECTION('',(0.,1.,0.));
#1543=DIRECTION('',(1.,0.,0.));
#1544=DIRECTION('center_axis',(0.,1.,0.));
#1545=DIRECTION('ref_axis',(0.,0.,1.));
#1546=DIRECTION('',(0.,0.,1.));
#1547=DIRECTION('',(-1.,0.,0.));
#1548=DIRECTION('center_axis',(0.,0.,1.));
#1549=DIRECTION('ref_axis',(1.,0.,0.));
#1550=DIRECTION('',(0.,-1.,0.));
#1551=DIRECTION('',(1.,0.,0.));
#1552=DIRECTION('center_axis',(0.,-1.,0.));
#1553=DIRECTION('ref_axis',(0.,0.,-1.));
#1554=DIRECTION('',(0.,0.,-1.));
#1555=DIRECTION('center_axis',(0.,0.,1.));
#1556=DIRECTION('ref_axis',(1.,0.,0.));
#1557=DIRECTION('',(0.,1.,0.));
#1558=DIRECTION('center_axis',(0.,0.,1.));
#1559=DIRECTION('ref_axis',(1.,0.,0.));
#1560=DIRECTION('',(0.,-1.,0.));
#1561=DIRECTION('center_axis',(-1.,0.,0.));
#1562=DIRECTION('ref_axis',(0.,0.,1.));
#1563=CARTESIAN_POINT('',(0.,0.,0.));
#1564=CARTESIAN_POINT('Origin',(623.,20.9,334.));
#1565=CARTESIAN_POINT('',(621.,19.,335.233896267925));
#1566=CARTESIAN_POINT('',(621.,23.8,335.233896267925));
#1567=CARTESIAN_POINT('',(621.,20.9,335.233896267925));
#1568=CARTESIAN_POINT('',(625.,19.,335.233896267925));
#1569=CARTESIAN_POINT('Origin',(623.,19.,334.));
#1570=CARTESIAN_POINT('',(625.,23.8,335.233896267925));
#1571=CARTESIAN_POINT('',(625.,20.9,335.233896267925));
#1572=CARTESIAN_POINT('Origin',(623.,23.8,334.));
#1573=CARTESIAN_POINT('Origin',(623.,20.9,334.));
#1574=CARTESIAN_POINT('',(621.,23.8,332.766103732075));
#1575=CARTESIAN_POINT('',(621.,19.,332.766103732075));
#1576=CARTESIAN_POINT('',(621.,20.9,332.766103732075));
#1577=CARTESIAN_POINT('',(625.,23.8,332.766103732075));
#1578=CARTESIAN_POINT('Origin',(623.,23.8,334.));
#1579=CARTESIAN_POINT('',(625.,19.,332.766103732075));
#1580=CARTESIAN_POINT('',(625.,20.9,332.766103732075));
#1581=CARTESIAN_POINT('Origin',(623.,19.,334.));
#1582=CARTESIAN_POINT('Origin',(622.5,15.5,313.75));
#1583=CARTESIAN_POINT('',(622.5,17.,314.));
#1584=CARTESIAN_POINT('',(622.5,14.,314.));
#1585=CARTESIAN_POINT('',(622.5,7.75,314.));
#1586=CARTESIAN_POINT('',(622.5,17.,312.5));
#1587=CARTESIAN_POINT('',(622.5,17.,313.75));
#1588=CARTESIAN_POINT('',(622.5,14.,312.5));
#1589=CARTESIAN_POINT('',(622.5,15.5,312.5));
#1590=CARTESIAN_POINT('',(622.5,14.,313.75));
#1591=CARTESIAN_POINT('Origin',(621.25,14.,313.75));
#1592=CARTESIAN_POINT('',(622.,14.,314.));
#1593=CARTESIAN_POINT('',(623.375,14.,314.));
#1594=CARTESIAN_POINT('',(622.,14.,312.5));
#1595=CARTESIAN_POINT('',(621.25,14.,312.5));
#1596=CARTESIAN_POINT('',(622.,14.,307.875));
#1597=CARTESIAN_POINT('Origin',(625.,21.5,334.));
#1598=CARTESIAN_POINT('',(625.,19.,330.));
#1599=CARTESIAN_POINT('',(625.,19.,334.));
#1600=CARTESIAN_POINT('',(625.,23.8,334.));
#1601=CARTESIAN_POINT('',(625.,19.,338.));
#1602=CARTESIAN_POINT('',(625.,19.,334.));
#1603=CARTESIAN_POINT('',(625.,25.,338.));
#1604=CARTESIAN_POINT('',(625.,21.5,338.));
#1605=CARTESIAN_POINT('',(625.,25.,330.));
#1606=CARTESIAN_POINT('',(625.,25.,334.));
#1607=CARTESIAN_POINT('',(625.,21.5,330.));
#1608=CARTESIAN_POINT('Origin',(621.5,21.5,330.));
#1609=CARTESIAN_POINT('',(621.,19.,330.));
#1610=CARTESIAN_POINT('',(623.5,19.,330.));
#1611=CARTESIAN_POINT('',(621.,25.,330.));
#1612=CARTESIAN_POINT('',(626.5,25.,330.));
#1613=CARTESIAN_POINT('',(621.,-0.250000000000001,330.));
#1614=CARTESIAN_POINT('Origin',(621.25,-14.,313.75));
#1615=CARTESIAN_POINT('',(622.,-14.,314.));
#1616=CARTESIAN_POINT('',(622.5,-14.,314.));
#1617=CARTESIAN_POINT('',(623.375,-14.,314.));
#1618=CARTESIAN_POINT('',(622.,-14.,312.5));
#1619=CARTESIAN_POINT('',(622.,-14.,307.875));
#1620=CARTESIAN_POINT('',(622.5,-14.,312.5));
#1621=CARTESIAN_POINT('',(621.25,-14.,312.5));
#1622=CARTESIAN_POINT('',(622.5,-14.,313.75));
#1623=CARTESIAN_POINT('Origin',(622.5,-15.5,313.75));
#1624=CARTESIAN_POINT('',(622.5,-17.,314.));
#1625=CARTESIAN_POINT('',(622.5,-7.75,314.));
#1626=CARTESIAN_POINT('',(622.5,-17.,312.5));
#1627=CARTESIAN_POINT('',(622.5,-15.5,312.5));
#1628=CARTESIAN_POINT('',(622.5,-17.,313.75));
#1629=CARTESIAN_POINT('Origin',(623.,-20.9,334.));
#1630=CARTESIAN_POINT('',(621.,-19.,332.766103732075));
#1631=CARTESIAN_POINT('',(621.,-23.8,332.766103732075));
#1632=CARTESIAN_POINT('',(621.,-20.9,332.766103732075));
#1633=CARTESIAN_POINT('',(625.,-19.,332.766103732075));
#1634=CARTESIAN_POINT('Origin',(623.,-19.,334.));
#1635=CARTESIAN_POINT('',(625.,-23.8,332.766103732075));
#1636=CARTESIAN_POINT('',(625.,-20.9,332.766103732075));
#1637=CARTESIAN_POINT('Origin',(623.,-23.8,334.));
#1638=CARTESIAN_POINT('Origin',(623.,-20.9,334.));
#1639=CARTESIAN_POINT('',(621.,-23.8,335.233896267925));
#1640=CARTESIAN_POINT('',(621.,-19.,335.233896267925));
#1641=CARTESIAN_POINT('',(621.,-20.9,335.233896267925));
#1642=CARTESIAN_POINT('',(625.,-23.8,335.233896267925));
#1643=CARTESIAN_POINT('Origin',(623.,-23.8,334.));
#1644=CARTESIAN_POINT('',(625.,-19.,335.233896267925));
#1645=CARTESIAN_POINT('',(625.,-20.9,335.233896267925));
#1646=CARTESIAN_POINT('Origin',(623.,-19.,334.));
#1647=CARTESIAN_POINT('Origin',(621.25,-17.,313.75));
#1648=CARTESIAN_POINT('',(622.,-17.,314.));
#1649=CARTESIAN_POINT('',(623.375,-17.,314.));
#1650=CARTESIAN_POINT('',(622.,-17.,312.5));
#1651=CARTESIAN_POINT('',(621.25,-17.,312.5));
#1652=CARTESIAN_POINT('',(622.,-17.,307.875));
#1653=CARTESIAN_POINT('Origin',(625.,-21.5,334.));
#1654=CARTESIAN_POINT('',(625.,-19.,338.));
#1655=CARTESIAN_POINT('',(625.,-19.,334.));
#1656=CARTESIAN_POINT('',(625.,-23.8,334.));
#1657=CARTESIAN_POINT('',(625.,-19.,330.));
#1658=CARTESIAN_POINT('',(625.,-19.,334.));
#1659=CARTESIAN_POINT('',(625.,-25.,330.));
#1660=CARTESIAN_POINT('',(625.,-21.5,330.));
#1661=CARTESIAN_POINT('',(625.,-25.,338.));
#1662=CARTESIAN_POINT('',(625.,-25.,334.));
#1663=CARTESIAN_POINT('',(625.,-21.5,338.));
#1664=CARTESIAN_POINT('Origin',(617.,0.,314.));
#1665=CARTESIAN_POINT('',(622.,-19.,314.));
#1666=CARTESIAN_POINT('',(621.,-19.,314.));
#1667=CARTESIAN_POINT('',(625.5,-19.,314.));
#1668=CARTESIAN_POINT('',(622.,-24.,314.));
#1669=CARTESIAN_POINT('',(622.,0.,314.));
#1670=CARTESIAN_POINT('',(621.,-24.,314.));
#1671=CARTESIAN_POINT('',(615.,-24.,314.));
#1672=CARTESIAN_POINT('',(621.,-11.,314.));
#1673=CARTESIAN_POINT('Origin',(621.5,-21.5,338.));
#1674=CARTESIAN_POINT('',(621.,-19.,338.));
#1675=CARTESIAN_POINT('',(623.5,-19.,338.));
#1676=CARTESIAN_POINT('',(621.,-25.,338.));
#1677=CARTESIAN_POINT('',(626.5,-25.,338.));
#1678=CARTESIAN_POINT('',(621.,-21.75,338.));
#1679=CARTESIAN_POINT('Origin',(621.25,15.5,312.5));
#1680=CARTESIAN_POINT('',(622.,17.,312.5));
#1681=CARTESIAN_POINT('',(622.,7.75,312.5));
#1682=CARTESIAN_POINT('',(621.25,17.,312.5));
#1683=CARTESIAN_POINT('Origin',(621.25,17.,313.75));
#1684=CARTESIAN_POINT('',(622.,17.,314.));
#1685=CARTESIAN_POINT('',(623.375,17.,314.));
#1686=CARTESIAN_POINT('',(622.,17.,307.875));
#1687=CARTESIAN_POINT('Origin',(617.,0.,314.));
#1688=CARTESIAN_POINT('',(621.,19.,314.));
#1689=CARTESIAN_POINT('',(622.,19.,314.));
#1690=CARTESIAN_POINT('',(625.5,19.,314.));
#1691=CARTESIAN_POINT('',(621.,24.,314.));
#1692=CARTESIAN_POINT('',(621.,-11.,314.));
#1693=CARTESIAN_POINT('',(622.,24.,314.));
#1694=CARTESIAN_POINT('',(615.,24.,314.));
#1695=CARTESIAN_POINT('',(622.,0.,314.));
#1696=CARTESIAN_POINT('Origin',(621.25,-15.5,312.5));
#1697=CARTESIAN_POINT('',(622.,-7.75,312.5));
#1698=CARTESIAN_POINT('Origin',(623.,23.8,334.));
#1699=CARTESIAN_POINT('',(621.,23.8,334.));
#1700=CARTESIAN_POINT('',(621.3,23.8,334.));
#1701=CARTESIAN_POINT('Origin',(623.,23.8,334.));
#1702=CARTESIAN_POINT('Origin',(623.,-23.8,334.));
#1703=CARTESIAN_POINT('',(621.,-23.8,334.));
#1704=CARTESIAN_POINT('',(621.3,-23.8,334.));
#1705=CARTESIAN_POINT('Origin',(623.,-23.8,334.));
#1706=CARTESIAN_POINT('Origin',(621.5,21.5,338.));
#1707=CARTESIAN_POINT('',(621.,19.,338.));
#1708=CARTESIAN_POINT('',(623.5,19.,338.));
#1709=CARTESIAN_POINT('',(621.,25.,338.));
#1710=CARTESIAN_POINT('',(621.,-0.250000000000001,338.));
#1711=CARTESIAN_POINT('',(626.5,25.,338.));
#1712=CARTESIAN_POINT('Origin',(618.5,24.,353.5));
#1713=CARTESIAN_POINT('',(621.,24.,308.));
#1714=CARTESIAN_POINT('',(621.,24.,343.75));
#1715=CARTESIAN_POINT('',(622.,24.,308.));
#1716=CARTESIAN_POINT('',(625.,24.,308.));
#1717=CARTESIAN_POINT('',(622.,24.,309.));
#1718=CARTESIAN_POINT('Origin',(621.5,-21.5,330.));
#1719=CARTESIAN_POINT('',(621.,-19.,330.));
#1720=CARTESIAN_POINT('',(623.5,-19.,330.));
#1721=CARTESIAN_POINT('',(621.,-25.,330.));
#1722=CARTESIAN_POINT('',(621.,-21.75,330.));
#1723=CARTESIAN_POINT('',(626.5,-25.,330.));
#1724=CARTESIAN_POINT('Origin',(615.,-24.,309.));
#1725=CARTESIAN_POINT('',(621.,-24.,308.));
#1726=CARTESIAN_POINT('',(622.,-24.,308.));
#1727=CARTESIAN_POINT('',(623.25,-24.,308.));
#1728=CARTESIAN_POINT('',(621.,-24.,321.5));
#1729=CARTESIAN_POINT('',(622.,-24.,309.));
#1730=CARTESIAN_POINT('Origin',(622.,0.,302.));
#1731=CARTESIAN_POINT('',(622.,0.,308.));
#1732=CARTESIAN_POINT('',(622.,0.,314.));
#1733=CARTESIAN_POINT('',(622.,0.,314.));
#1734=CARTESIAN_POINT('',(622.,0.,314.));
#1735=CARTESIAN_POINT('Origin',(625.5,19.,334.));
#1736=CARTESIAN_POINT('',(621.,19.,334.));
#1737=CARTESIAN_POINT('',(630.,19.,314.));
#1738=CARTESIAN_POINT('',(625.5,19.,314.));
#1739=CARTESIAN_POINT('',(630.,19.,315.673350083858));
#1740=CARTESIAN_POINT('',(630.,19.,334.));
#1741=CARTESIAN_POINT('',(629.5,19.,315.673350083858));
#1742=CARTESIAN_POINT('',(631.5,19.,315.673350083858));
#1743=CARTESIAN_POINT('',(629.5,19.,318.326649916142));
#1744=CARTESIAN_POINT('',(629.5,19.,325.5));
#1745=CARTESIAN_POINT('',(630.,19.,318.326649916142));
#1746=CARTESIAN_POINT('',(631.5,19.,318.326649916142));
#1747=CARTESIAN_POINT('',(630.,19.,349.673350083858));
#1748=CARTESIAN_POINT('',(630.,19.,334.));
#1749=CARTESIAN_POINT('',(629.5,19.,349.673350083858));
#1750=CARTESIAN_POINT('',(631.5,19.,349.673350083858));
#1751=CARTESIAN_POINT('',(629.5,19.,352.326649916142));
#1752=CARTESIAN_POINT('',(629.5,19.,342.5));
#1753=CARTESIAN_POINT('',(630.,19.,352.326649916142));
#1754=CARTESIAN_POINT('',(631.5,19.,352.326649916142));
#1755=CARTESIAN_POINT('',(630.,19.,354.));
#1756=CARTESIAN_POINT('',(630.,19.,334.));
#1757=CARTESIAN_POINT('',(621.,19.,354.));
#1758=CARTESIAN_POINT('',(625.5,19.,354.));
#1759=CARTESIAN_POINT('',(621.,19.,334.));
#1760=CARTESIAN_POINT('',(621.,19.,334.));
#1761=CARTESIAN_POINT('',(621.3,19.,334.));
#1762=CARTESIAN_POINT('Origin',(623.,19.,334.));
#1763=CARTESIAN_POINT('Origin',(631.5,25.,334.));
#1764=CARTESIAN_POINT('',(621.,25.,360.));
#1765=CARTESIAN_POINT('',(621.,25.,334.));
#1766=CARTESIAN_POINT('',(633.,25.,360.));
#1767=CARTESIAN_POINT('',(631.5,25.,360.));
#1768=CARTESIAN_POINT('',(633.,25.,308.));
#1769=CARTESIAN_POINT('',(633.,25.,334.));
#1770=CARTESIAN_POINT('',(621.,25.,308.));
#1771=CARTESIAN_POINT('',(631.5,25.,308.));
#1772=CARTESIAN_POINT('',(621.,25.,334.));
#1773=CARTESIAN_POINT('Origin',(625.5,-19.,334.));
#1774=CARTESIAN_POINT('',(621.,-19.,354.));
#1775=CARTESIAN_POINT('',(621.,-19.,334.));
#1776=CARTESIAN_POINT('',(630.,-19.,354.));
#1777=CARTESIAN_POINT('',(625.5,-19.,354.));
#1778=CARTESIAN_POINT('',(630.,-19.,352.326649916142));
#1779=CARTESIAN_POINT('',(630.,-19.,334.));
#1780=CARTESIAN_POINT('',(629.5,-19.,352.326649916142));
#1781=CARTESIAN_POINT('',(631.5,-19.,352.326649916142));
#1782=CARTESIAN_POINT('',(629.5,-19.,349.673350083858));
#1783=CARTESIAN_POINT('',(629.5,-19.,342.5));
#1784=CARTESIAN_POINT('',(630.,-19.,349.673350083858));
#1785=CARTESIAN_POINT('',(631.5,-19.,349.673350083858));
#1786=CARTESIAN_POINT('',(630.,-19.,318.326649916142));
#1787=CARTESIAN_POINT('',(630.,-19.,334.));
#1788=CARTESIAN_POINT('',(629.5,-19.,318.326649916142));
#1789=CARTESIAN_POINT('',(631.5,-19.,318.326649916142));
#1790=CARTESIAN_POINT('',(629.5,-19.,315.673350083858));
#1791=CARTESIAN_POINT('',(629.5,-19.,325.5));
#1792=CARTESIAN_POINT('',(630.,-19.,315.673350083858));
#1793=CARTESIAN_POINT('',(631.5,-19.,315.673350083858));
#1794=CARTESIAN_POINT('',(630.,-19.,314.));
#1795=CARTESIAN_POINT('',(630.,-19.,334.));
#1796=CARTESIAN_POINT('',(625.5,-19.,314.));
#1797=CARTESIAN_POINT('',(621.,-19.,334.));
#1798=CARTESIAN_POINT('',(621.,-19.,334.));
#1799=CARTESIAN_POINT('',(621.3,-19.,334.));
#1800=CARTESIAN_POINT('Origin',(623.,-19.,334.));
#1801=CARTESIAN_POINT('Origin',(625.5,0.,314.));
#1802=CARTESIAN_POINT('',(630.,0.,314.));
#1803=CARTESIAN_POINT('Origin',(621.,-22.,334.));
#1804=CARTESIAN_POINT('',(621.,-25.,308.));
#1805=CARTESIAN_POINT('',(621.,22.,308.));
#1806=CARTESIAN_POINT('',(621.,-25.,334.));
#1807=CARTESIAN_POINT('Origin',(621.,-22.,334.));
#1808=CARTESIAN_POINT('Origin',(621.,-22.,334.));
#1809=CARTESIAN_POINT('',(621.,22.,308.));
#1810=CARTESIAN_POINT('Origin',(621.,-22.,334.));
#1811=CARTESIAN_POINT('',(621.,0.,354.));
#1812=CARTESIAN_POINT('',(621.,-25.,360.));
#1813=CARTESIAN_POINT('',(621.,-25.,334.));
#1814=CARTESIAN_POINT('',(621.,-22.,360.));
#1815=CARTESIAN_POINT('Origin',(631.5,-25.,334.));
#1816=CARTESIAN_POINT('',(633.,-25.,308.));
#1817=CARTESIAN_POINT('',(625.5,-25.,308.));
#1818=CARTESIAN_POINT('',(633.,-25.,360.));
#1819=CARTESIAN_POINT('',(633.,-25.,334.));
#1820=CARTESIAN_POINT('',(631.5,-25.,360.));
#1821=CARTESIAN_POINT('Origin',(631.5,17.,351.));
#1822=CARTESIAN_POINT('Origin',(629.5,17.,351.));
#1823=CARTESIAN_POINT('',(630.,17.,353.4));
#1824=CARTESIAN_POINT('Origin',(630.,17.,351.));
#1825=CARTESIAN_POINT('',(633.,17.,353.4));
#1826=CARTESIAN_POINT('',(631.5,17.,353.4));
#1827=CARTESIAN_POINT('Origin',(633.,17.,351.));
#1828=CARTESIAN_POINT('Origin',(630.,17.,351.));
#1829=CARTESIAN_POINT('Origin',(629.5,17.,351.));
#1830=CARTESIAN_POINT('Origin',(630.,0.,334.));
#1831=CARTESIAN_POINT('',(630.,17.,319.4));
#1832=CARTESIAN_POINT('Origin',(630.,17.,317.));
#1833=CARTESIAN_POINT('Origin',(630.,17.,317.));
#1834=CARTESIAN_POINT('',(630.,-17.,319.4));
#1835=CARTESIAN_POINT('Origin',(630.,-17.,317.));
#1836=CARTESIAN_POINT('Origin',(630.,-17.,317.));
#1837=CARTESIAN_POINT('',(630.,-17.,353.4));
#1838=CARTESIAN_POINT('Origin',(630.,-17.,351.));
#1839=CARTESIAN_POINT('Origin',(630.,-17.,351.));
#1840=CARTESIAN_POINT('',(630.,0.,354.));
#1841=CARTESIAN_POINT('',(630.,-13.,319.));
#1842=CARTESIAN_POINT('',(630.,13.,319.));
#1843=CARTESIAN_POINT('',(630.,0.,319.));
#1844=CARTESIAN_POINT('',(630.,13.,349.));
#1845=CARTESIAN_POINT('',(630.,13.,334.));
#1846=CARTESIAN_POINT('',(630.,-13.,349.));
#1847=CARTESIAN_POINT('',(630.,0.,349.));
#1848=CARTESIAN_POINT('',(630.,-13.,334.));
#1849=CARTESIAN_POINT('Origin',(629.5,17.,317.));
#1850=CARTESIAN_POINT('Origin',(629.5,17.,317.));
#1851=CARTESIAN_POINT('Origin',(631.5,17.,317.));
#1852=CARTESIAN_POINT('',(633.,17.,319.4));
#1853=CARTESIAN_POINT('',(631.5,17.,319.4));
#1854=CARTESIAN_POINT('Origin',(633.,17.,317.));
#1855=CARTESIAN_POINT('Origin',(629.5,-17.,351.));
#1856=CARTESIAN_POINT('Origin',(629.5,-17.,351.));
#1857=CARTESIAN_POINT('Origin',(631.5,-17.,351.));
#1858=CARTESIAN_POINT('',(633.,-17.,353.4));
#1859=CARTESIAN_POINT('',(631.5,-17.,353.4));
#1860=CARTESIAN_POINT('Origin',(633.,-17.,351.));
#1861=CARTESIAN_POINT('Origin',(631.5,-17.,317.));
#1862=CARTESIAN_POINT('Origin',(629.5,-17.,317.));
#1863=CARTESIAN_POINT('',(633.,-17.,319.4));
#1864=CARTESIAN_POINT('',(631.5,-17.,319.4));
#1865=CARTESIAN_POINT('Origin',(633.,-17.,317.));
#1866=CARTESIAN_POINT('Origin',(629.5,-17.,317.));
#1867=CARTESIAN_POINT('Origin',(623.,21.75,334.));
#1868=CARTESIAN_POINT('',(621.3,21.75,334.));
#1869=CARTESIAN_POINT('Origin',(623.,-21.75,334.));
#1870=CARTESIAN_POINT('',(621.3,-21.75,334.));
#1871=CARTESIAN_POINT('Origin',(625.5,0.,354.));
#1872=CARTESIAN_POINT('Origin',(621.,-22.,334.));
#1873=CARTESIAN_POINT('Origin',(631.5,0.,349.));
#1874=CARTESIAN_POINT('',(633.,13.,349.));
#1875=CARTESIAN_POINT('',(631.5,13.,349.));
#1876=CARTESIAN_POINT('',(633.,-13.,349.));
#1877=CARTESIAN_POINT('',(633.,0.,349.));
#1878=CARTESIAN_POINT('',(631.5,-13.,349.));
#1879=CARTESIAN_POINT('Origin',(631.5,-13.,334.));
#1880=CARTESIAN_POINT('',(633.,-13.,319.));
#1881=CARTESIAN_POINT('',(633.,-13.,334.));
#1882=CARTESIAN_POINT('',(631.5,-13.,319.));
#1883=CARTESIAN_POINT('Origin',(631.5,0.,319.));
#1884=CARTESIAN_POINT('',(633.,13.,319.));
#1885=CARTESIAN_POINT('',(633.,0.,319.));
#1886=CARTESIAN_POINT('',(631.5,13.,319.));
#1887=CARTESIAN_POINT('Origin',(631.5,13.,334.));
#1888=CARTESIAN_POINT('',(633.,13.,334.));
#1889=CARTESIAN_POINT('Origin',(631.5,0.,360.));
#1890=CARTESIAN_POINT('',(633.,0.,360.));
#1891=CARTESIAN_POINT('Origin',(631.5,0.,308.));
#1892=CARTESIAN_POINT('',(633.,0.,308.));
#1893=CARTESIAN_POINT('Origin',(633.,0.,334.));
#1894=UNCERTAINTY_MEASURE_WITH_UNIT(LENGTH_MEASURE(0.01),#1898,
'DISTANCE_ACCURACY_VALUE',
'Maximum model space distance between geometric entities at asserted c
onnectivities');
#1895=UNCERTAINTY_MEASURE_WITH_UNIT(LENGTH_MEASURE(0.01),#1898,
'DISTANCE_ACCURACY_VALUE',
'Maximum model space distance between geometric entities at asserted c
onnectivities');
#1896=(
GEOMETRIC_REPRESENTATION_CONTEXT(3)
GLOBAL_UNCERTAINTY_ASSIGNED_CONTEXT((#1894))
GLOBAL_UNIT_ASSIGNED_CONTEXT((#1898,#1900,#1901))
REPRESENTATION_CONTEXT('','3D')
);
#1897=(
GEOMETRIC_REPRESENTATION_CONTEXT(3)
GLOBAL_UNCERTAINTY_ASSIGNED_CONTEXT((#1895))
GLOBAL_UNIT_ASSIGNED_CONTEXT((#1898,#1900,#1901))
REPRESENTATION_CONTEXT('','3D')
);
#1898=(
LENGTH_UNIT()
NAMED_UNIT(*)
SI_UNIT(.MILLI.,.METRE.)
);
#1899=(
LENGTH_UNIT()
NAMED_UNIT(*)
SI_UNIT($,.METRE.)
);
#1900=(
NAMED_UNIT(*)
PLANE_ANGLE_UNIT()
SI_UNIT($,.RADIAN.)
);
#1901=(
NAMED_UNIT(*)
SI_UNIT($,.STERADIAN.)
SOLID_ANGLE_UNIT()
);
#1902=SHAPE_DEFINITION_REPRESENTATION(#1903,#1904);
#1903=PRODUCT_DEFINITION_SHAPE('',$,#1906);
#1904=SHAPE_REPRESENTATION('',(#1176),#1896);
#1905=PRODUCT_DEFINITION_CONTEXT('part definition',#1910,'design');
#1906=PRODUCT_DEFINITION('2026-08-31-16-24-01-041','EXPORT_TMP',#1907,#1905);
#1907=PRODUCT_DEFINITION_FORMATION('',$,#1912);
#1908=PRODUCT_RELATED_PRODUCT_CATEGORY('EXPORT_TMP','EXPORT_TMP',(#1912));
#1909=APPLICATION_PROTOCOL_DEFINITION('international standard',
'automotive_design',2009,#1910);
#1910=APPLICATION_CONTEXT(
'Core Data for Automotive Mechanical Design Process');
#1911=PRODUCT_CONTEXT('part definition',#1910,'mechanical');
#1912=PRODUCT('2026-08-31-16-24-01-041','EXPORT_TMP',$,(#1911));
#1913=PRESENTATION_STYLE_ASSIGNMENT((#1914));
#1914=SURFACE_STYLE_USAGE(.BOTH.,#1915);
#1915=SURFACE_SIDE_STYLE('',(#1916));
#1916=SURFACE_STYLE_FILL_AREA(#1917);
#1917=FILL_AREA_STYLE('Steel - Satin',(#1918));
#1918=FILL_AREA_STYLE_COLOUR('Steel - Satin',#1919);
#1919=COLOUR_RGB('Steel - Satin',0.627450980392157,0.627450980392157,0.627450980392157);
ENDSEC;
END-ISO-10303-21;
