ISO-10303-21;
HEADER;
/* Generated by software containing ST-Developer
 * from STEP Tools, Inc. (www.steptools.com) 
 */

FILE_DESCRIPTION(
/* description */ (''),
/* implementation_level */ '2;1');

FILE_NAME(
/* name */ 'PRINT_V010Q_P801_GripperPalm.step',
/* time_stamp */ '2026-09-05T17:15:25+02:00',
/* author */ (''),
/* organization */ (''),
/* preprocessor_version */ 'ST-DEVELOPER v20.1',
/* originating_system */ 'Autodesk Translation Framework v15.8.0.0',
/* authorisation */ '');

FILE_SCHEMA (('AUTOMOTIVE_DESIGN { 1 0 10303 214 3 1 1 }'));
ENDSEC;

DATA;
#10=MECHANICAL_DESIGN_GEOMETRIC_PRESENTATION_REPRESENTATION('',(#13),#1771);
#11=SHAPE_REPRESENTATION_RELATIONSHIP('SRR','None',#1778,#12);
#12=ADVANCED_BREP_SHAPE_REPRESENTATION('',(#14),#1770);
#13=STYLED_ITEM('',(#1787),#14);
#14=MANIFOLD_SOLID_BREP('PRINT_V010Q_P801_GripperPalm',#1075);
#15=FACE_BOUND('',#122,.T.);
#16=FACE_BOUND('',#154,.T.);
#17=FACE_BOUND('',#155,.T.);
#18=FACE_BOUND('',#156,.T.);
#19=FACE_BOUND('',#157,.T.);
#20=FACE_BOUND('',#158,.T.);
#21=FACE_BOUND('',#159,.T.);
#22=FACE_BOUND('',#160,.T.);
#23=FACE_BOUND('',#161,.T.);
#24=FACE_BOUND('',#162,.T.);
#25=FACE_BOUND('',#163,.T.);
#26=FACE_BOUND('',#164,.T.);
#27=FACE_BOUND('',#167,.T.);
#28=FACE_BOUND('',#169,.T.);
#29=FACE_BOUND('',#170,.T.);
#30=FACE_BOUND('',#171,.T.);
#31=FACE_BOUND('',#172,.T.);
#32=FACE_BOUND('',#173,.T.);
#33=FACE_BOUND('',#174,.T.);
#34=FACE_BOUND('',#175,.T.);
#35=FACE_BOUND('',#176,.T.);
#36=FACE_BOUND('',#177,.T.);
#37=FACE_BOUND('',#178,.T.);
#38=FACE_BOUND('',#179,.T.);
#39=CYLINDRICAL_SURFACE('',#1098,3.05);
#40=CYLINDRICAL_SURFACE('',#1100,3.05);
#41=CYLINDRICAL_SURFACE('',#1111,3.05);
#42=CYLINDRICAL_SURFACE('',#1126,3.05);
#43=CYLINDRICAL_SURFACE('',#1130,3.05);
#44=CYLINDRICAL_SURFACE('',#1133,3.05);
#45=CYLINDRICAL_SURFACE('',#1139,1.7);
#46=CYLINDRICAL_SURFACE('',#1142,1.7);
#47=CYLINDRICAL_SURFACE('',#1145,1.7);
#48=CYLINDRICAL_SURFACE('',#1148,1.7);
#49=CYLINDRICAL_SURFACE('',#1151,2.3);
#50=CYLINDRICAL_SURFACE('',#1154,2.3);
#51=CYLINDRICAL_SURFACE('',#1157,2.3);
#52=CYLINDRICAL_SURFACE('',#1160,2.3);
#53=CYLINDRICAL_SURFACE('',#1163,2.3);
#54=CYLINDRICAL_SURFACE('',#1166,2.3);
#55=CYLINDRICAL_SURFACE('',#1169,9.);
#56=FACE_OUTER_BOUND('',#106,.T.);
#57=FACE_OUTER_BOUND('',#107,.T.);
#58=FACE_OUTER_BOUND('',#108,.T.);
#59=FACE_OUTER_BOUND('',#109,.T.);
#60=FACE_OUTER_BOUND('',#110,.T.);
#61=FACE_OUTER_BOUND('',#111,.T.);
#62=FACE_OUTER_BOUND('',#112,.T.);
#63=FACE_OUTER_BOUND('',#113,.T.);
#64=FACE_OUTER_BOUND('',#114,.T.);
#65=FACE_OUTER_BOUND('',#115,.T.);
#66=FACE_OUTER_BOUND('',#116,.T.);
#67=FACE_OUTER_BOUND('',#117,.T.);
#68=FACE_OUTER_BOUND('',#118,.T.);
#69=FACE_OUTER_BOUND('',#119,.T.);
#70=FACE_OUTER_BOUND('',#120,.T.);
#71=FACE_OUTER_BOUND('',#121,.T.);
#72=FACE_OUTER_BOUND('',#123,.T.);
#73=FACE_OUTER_BOUND('',#124,.T.);
#74=FACE_OUTER_BOUND('',#125,.T.);
#75=FACE_OUTER_BOUND('',#126,.T.);
#76=FACE_OUTER_BOUND('',#127,.T.);
#77=FACE_OUTER_BOUND('',#128,.T.);
#78=FACE_OUTER_BOUND('',#129,.T.);
#79=FACE_OUTER_BOUND('',#130,.T.);
#80=FACE_OUTER_BOUND('',#131,.T.);
#81=FACE_OUTER_BOUND('',#132,.T.);
#82=FACE_OUTER_BOUND('',#133,.T.);
#83=FACE_OUTER_BOUND('',#134,.T.);
#84=FACE_OUTER_BOUND('',#135,.T.);
#85=FACE_OUTER_BOUND('',#136,.T.);
#86=FACE_OUTER_BOUND('',#137,.T.);
#87=FACE_OUTER_BOUND('',#138,.T.);
#88=FACE_OUTER_BOUND('',#139,.T.);
#89=FACE_OUTER_BOUND('',#140,.T.);
#90=FACE_OUTER_BOUND('',#141,.T.);
#91=FACE_OUTER_BOUND('',#142,.T.);
#92=FACE_OUTER_BOUND('',#143,.T.);
#93=FACE_OUTER_BOUND('',#144,.T.);
#94=FACE_OUTER_BOUND('',#145,.T.);
#95=FACE_OUTER_BOUND('',#146,.T.);
#96=FACE_OUTER_BOUND('',#147,.T.);
#97=FACE_OUTER_BOUND('',#148,.T.);
#98=FACE_OUTER_BOUND('',#149,.T.);
#99=FACE_OUTER_BOUND('',#150,.T.);
#100=FACE_OUTER_BOUND('',#151,.T.);
#101=FACE_OUTER_BOUND('',#152,.T.);
#102=FACE_OUTER_BOUND('',#153,.T.);
#103=FACE_OUTER_BOUND('',#165,.T.);
#104=FACE_OUTER_BOUND('',#166,.T.);
#105=FACE_OUTER_BOUND('',#168,.T.);
#106=EDGE_LOOP('',(#692,#693,#694,#695,#696,#697));
#107=EDGE_LOOP('',(#698,#699,#700,#701,#702,#703));
#108=EDGE_LOOP('',(#704,#705,#706,#707));
#109=EDGE_LOOP('',(#708,#709,#710,#711));
#110=EDGE_LOOP('',(#712,#713,#714,#715));
#111=EDGE_LOOP('',(#716,#717,#718,#719));
#112=EDGE_LOOP('',(#720,#721,#722,#723,#724,#725,#726,#727));
#113=EDGE_LOOP('',(#728,#729,#730,#731));
#114=EDGE_LOOP('',(#732,#733,#734,#735));
#115=EDGE_LOOP('',(#736,#737,#738,#739,#740,#741,#742,#743));
#116=EDGE_LOOP('',(#744,#745,#746,#747,#748,#749,#750,#751,#752,#753));
#117=EDGE_LOOP('',(#754,#755,#756,#757));
#118=EDGE_LOOP('',(#758,#759,#760,#761));
#119=EDGE_LOOP('',(#762,#763,#764,#765,#766,#767,#768,#769));
#120=EDGE_LOOP('',(#770,#771,#772,#773));
#121=EDGE_LOOP('',(#774,#775,#776,#777,#778,#779,#780,#781));
#122=EDGE_LOOP('',(#782));
#123=EDGE_LOOP('',(#783,#784,#785,#786));
#124=EDGE_LOOP('',(#787,#788,#789,#790,#791,#792,#793,#794,#795,#796,#797,
#798));
#125=EDGE_LOOP('',(#799,#800,#801,#802));
#126=EDGE_LOOP('',(#803,#804,#805,#806,#807,#808));
#127=EDGE_LOOP('',(#809,#810,#811,#812));
#128=EDGE_LOOP('',(#813,#814,#815,#816,#817,#818));
#129=EDGE_LOOP('',(#819,#820,#821,#822));
#130=EDGE_LOOP('',(#823,#824,#825,#826));
#131=EDGE_LOOP('',(#827,#828,#829,#830,#831,#832));
#132=EDGE_LOOP('',(#833,#834,#835,#836));
#133=EDGE_LOOP('',(#837,#838,#839,#840,#841,#842));
#134=EDGE_LOOP('',(#843,#844,#845,#846));
#135=EDGE_LOOP('',(#847,#848,#849,#850));
#136=EDGE_LOOP('',(#851,#852,#853,#854,#855,#856,#857,#858,#859,#860,#861,
#862,#863,#864,#865,#866));
#137=EDGE_LOOP('',(#867,#868,#869,#870,#871,#872,#873,#874));
#138=EDGE_LOOP('',(#875,#876,#877,#878,#879,#880,#881,#882));
#139=EDGE_LOOP('',(#883,#884,#885,#886,#887,#888,#889,#890,#891));
#140=EDGE_LOOP('',(#892,#893,#894,#895,#896,#897,#898,#899,#900));
#141=EDGE_LOOP('',(#901,#902,#903,#904));
#142=EDGE_LOOP('',(#905,#906,#907,#908));
#143=EDGE_LOOP('',(#909,#910,#911,#912));
#144=EDGE_LOOP('',(#913,#914,#915,#916));
#145=EDGE_LOOP('',(#917,#918,#919,#920));
#146=EDGE_LOOP('',(#921,#922,#923,#924));
#147=EDGE_LOOP('',(#925,#926,#927,#928));
#148=EDGE_LOOP('',(#929,#930,#931,#932));
#149=EDGE_LOOP('',(#933,#934,#935,#936));
#150=EDGE_LOOP('',(#937,#938,#939,#940));
#151=EDGE_LOOP('',(#941,#942,#943,#944));
#152=EDGE_LOOP('',(#945,#946,#947,#948));
#153=EDGE_LOOP('',(#949,#950,#951,#952));
#154=EDGE_LOOP('',(#953));
#155=EDGE_LOOP('',(#954));
#156=EDGE_LOOP('',(#955));
#157=EDGE_LOOP('',(#956));
#158=EDGE_LOOP('',(#957));
#159=EDGE_LOOP('',(#958));
#160=EDGE_LOOP('',(#959));
#161=EDGE_LOOP('',(#960));
#162=EDGE_LOOP('',(#961));
#163=EDGE_LOOP('',(#962));
#164=EDGE_LOOP('',(#963));
#165=EDGE_LOOP('',(#964,#965,#966,#967));
#166=EDGE_LOOP('',(#968,#969,#970,#971,#972,#973,#974,#975));
#167=EDGE_LOOP('',(#976));
#168=EDGE_LOOP('',(#977,#978,#979,#980));
#169=EDGE_LOOP('',(#981));
#170=EDGE_LOOP('',(#982));
#171=EDGE_LOOP('',(#983));
#172=EDGE_LOOP('',(#984));
#173=EDGE_LOOP('',(#985));
#174=EDGE_LOOP('',(#986));
#175=EDGE_LOOP('',(#987));
#176=EDGE_LOOP('',(#988));
#177=EDGE_LOOP('',(#989));
#178=EDGE_LOOP('',(#990));
#179=EDGE_LOOP('',(#991));
#180=CIRCLE('',#1090,3.05);
#181=CIRCLE('',#1097,3.05);
#182=CIRCLE('',#1099,3.05);
#183=CIRCLE('',#1101,3.05);
#184=CIRCLE('',#1109,3.05);
#185=CIRCLE('',#1110,3.05);
#186=CIRCLE('',#1112,3.05);
#187=CIRCLE('',#1118,3.05);
#188=CIRCLE('',#1122,3.05);
#189=CIRCLE('',#1127,3.05);
#190=CIRCLE('',#1128,3.05);
#191=CIRCLE('',#1131,3.05);
#192=CIRCLE('',#1132,3.05);
#193=CIRCLE('',#1134,3.05);
#194=CIRCLE('',#1135,3.05);
#195=CIRCLE('',#1136,3.05);
#196=CIRCLE('',#1140,1.70000000000002);
#197=CIRCLE('',#1141,1.7);
#198=CIRCLE('',#1143,1.70000000000002);
#199=CIRCLE('',#1144,1.7);
#200=CIRCLE('',#1146,1.70000000000002);
#201=CIRCLE('',#1147,1.7);
#202=CIRCLE('',#1149,1.70000000000002);
#203=CIRCLE('',#1150,1.7);
#204=CIRCLE('',#1152,2.3);
#205=CIRCLE('',#1153,2.3);
#206=CIRCLE('',#1155,2.3);
#207=CIRCLE('',#1156,2.3);
#208=CIRCLE('',#1158,2.3);
#209=CIRCLE('',#1159,2.3);
#210=CIRCLE('',#1161,2.3);
#211=CIRCLE('',#1162,2.3);
#212=CIRCLE('',#1164,2.3);
#213=CIRCLE('',#1165,2.3);
#214=CIRCLE('',#1167,2.3);
#215=CIRCLE('',#1168,2.3);
#216=CIRCLE('',#1170,9.);
#217=CIRCLE('',#1171,9.);
#218=LINE('',#1471,#330);
#219=LINE('',#1473,#331);
#220=LINE('',#1475,#332);
#221=LINE('',#1477,#333);
#222=LINE('',#1479,#334);
#223=LINE('',#1483,#335);
#224=LINE('',#1485,#336);
#225=LINE('',#1487,#337);
#226=LINE('',#1489,#338);
#227=LINE('',#1490,#339);
#228=LINE('',#1493,#340);
#229=LINE('',#1495,#341);
#230=LINE('',#1496,#342);
#231=LINE('',#1499,#343);
#232=LINE('',#1500,#344);
#233=LINE('',#1503,#345);
#234=LINE('',#1504,#346);
#235=LINE('',#1507,#347);
#236=LINE('',#1508,#348);
#237=LINE('',#1511,#349);
#238=LINE('',#1515,#350);
#239=LINE('',#1516,#351);
#240=LINE('',#1519,#352);
#241=LINE('',#1522,#353);
#242=LINE('',#1525,#354);
#243=LINE('',#1528,#355);
#244=LINE('',#1531,#356);
#245=LINE('',#1533,#357);
#246=LINE('',#1535,#358);
#247=LINE('',#1537,#359);
#248=LINE('',#1539,#360);
#249=LINE('',#1540,#361);
#250=LINE('',#1543,#362);
#251=LINE('',#1545,#363);
#252=LINE('',#1547,#364);
#253=LINE('',#1549,#365);
#254=LINE('',#1551,#366);
#255=LINE('',#1552,#367);
#256=LINE('',#1556,#368);
#257=LINE('',#1558,#369);
#258=LINE('',#1560,#370);
#259=LINE('',#1561,#371);
#260=LINE('',#1565,#372);
#261=LINE('',#1567,#373);
#262=LINE('',#1569,#374);
#263=LINE('',#1570,#375);
#264=LINE('',#1574,#376);
#265=LINE('',#1576,#377);
#266=LINE('',#1578,#378);
#267=LINE('',#1580,#379);
#268=LINE('',#1582,#380);
#269=LINE('',#1584,#381);
#270=LINE('',#1586,#382);
#271=LINE('',#1587,#383);
#272=LINE('',#1590,#384);
#273=LINE('',#1592,#385);
#274=LINE('',#1593,#386);
#275=LINE('',#1597,#387);
#276=LINE('',#1599,#388);
#277=LINE('',#1601,#389);
#278=LINE('',#1602,#390);
#279=LINE('',#1608,#391);
#280=LINE('',#1610,#392);
#281=LINE('',#1611,#393);
#282=LINE('',#1612,#394);
#283=LINE('',#1615,#395);
#284=LINE('',#1617,#396);
#285=LINE('',#1618,#397);
#286=LINE('',#1621,#398);
#287=LINE('',#1623,#399);
#288=LINE('',#1624,#400);
#289=LINE('',#1627,#401);
#290=LINE('',#1628,#402);
#291=LINE('',#1631,#403);
#292=LINE('',#1633,#404);
#293=LINE('',#1636,#405);
#294=LINE('',#1639,#406);
#295=LINE('',#1641,#407);
#296=LINE('',#1642,#408);
#297=LINE('',#1647,#409);
#298=LINE('',#1649,#410);
#299=LINE('',#1650,#411);
#300=LINE('',#1653,#412);
#301=LINE('',#1654,#413);
#302=LINE('',#1657,#414);
#303=LINE('',#1658,#415);
#304=LINE('',#1660,#416);
#305=LINE('',#1666,#417);
#306=LINE('',#1668,#418);
#307=LINE('',#1670,#419);
#308=LINE('',#1672,#420);
#309=LINE('',#1673,#421);
#310=LINE('',#1677,#422);
#311=LINE('',#1683,#423);
#312=LINE('',#1687,#424);
#313=LINE('',#1689,#425);
#314=LINE('',#1694,#426);
#315=LINE('',#1700,#427);
#316=LINE('',#1706,#428);
#317=LINE('',#1712,#429);
#318=LINE('',#1718,#430);
#319=LINE('',#1724,#431);
#320=LINE('',#1730,#432);
#321=LINE('',#1736,#433);
#322=LINE('',#1742,#434);
#323=LINE('',#1748,#435);
#324=LINE('',#1754,#436);
#325=LINE('',#1758,#437);
#326=LINE('',#1759,#438);
#327=LINE('',#1763,#439);
#328=LINE('',#1764,#440);
#329=LINE('',#1766,#441);
#330=VECTOR('',#1181,10.);
#331=VECTOR('',#1182,10.);
#332=VECTOR('',#1183,10.);
#333=VECTOR('',#1184,10.);
#334=VECTOR('',#1185,10.);
#335=VECTOR('',#1190,10.);
#336=VECTOR('',#1191,10.);
#337=VECTOR('',#1192,10.);
#338=VECTOR('',#1193,10.);
#339=VECTOR('',#1194,10.);
#340=VECTOR('',#1197,10.);
#341=VECTOR('',#1198,10.);
#342=VECTOR('',#1199,10.);
#343=VECTOR('',#1202,10.);
#344=VECTOR('',#1203,10.);
#345=VECTOR('',#1206,10.);
#346=VECTOR('',#1207,10.);
#347=VECTOR('',#1210,10.);
#348=VECTOR('',#1211,10.);
#349=VECTOR('',#1214,10.);
#350=VECTOR('',#1217,10.);
#351=VECTOR('',#1218,10.);
#352=VECTOR('',#1221,10.);
#353=VECTOR('',#1224,10.);
#354=VECTOR('',#1227,10.);
#355=VECTOR('',#1230,10.);
#356=VECTOR('',#1233,10.);
#357=VECTOR('',#1234,10.);
#358=VECTOR('',#1235,10.);
#359=VECTOR('',#1236,10.);
#360=VECTOR('',#1237,10.);
#361=VECTOR('',#1238,10.);
#362=VECTOR('',#1241,10.);
#363=VECTOR('',#1242,10.);
#364=VECTOR('',#1243,10.);
#365=VECTOR('',#1244,10.);
#366=VECTOR('',#1245,10.);
#367=VECTOR('',#1246,10.);
#368=VECTOR('',#1249,10.);
#369=VECTOR('',#1250,10.);
#370=VECTOR('',#1251,10.);
#371=VECTOR('',#1252,10.);
#372=VECTOR('',#1255,10.);
#373=VECTOR('',#1256,10.);
#374=VECTOR('',#1257,10.);
#375=VECTOR('',#1258,10.);
#376=VECTOR('',#1261,10.);
#377=VECTOR('',#1262,10.);
#378=VECTOR('',#1263,10.);
#379=VECTOR('',#1264,10.);
#380=VECTOR('',#1265,10.);
#381=VECTOR('',#1266,10.);
#382=VECTOR('',#1267,10.);
#383=VECTOR('',#1268,10.);
#384=VECTOR('',#1271,10.);
#385=VECTOR('',#1272,10.);
#386=VECTOR('',#1273,10.);
#387=VECTOR('',#1278,10.);
#388=VECTOR('',#1279,10.);
#389=VECTOR('',#1280,10.);
#390=VECTOR('',#1281,10.);
#391=VECTOR('',#1290,10.);
#392=VECTOR('',#1291,10.);
#393=VECTOR('',#1292,10.);
#394=VECTOR('',#1293,10.);
#395=VECTOR('',#1296,10.);
#396=VECTOR('',#1297,10.);
#397=VECTOR('',#1298,10.);
#398=VECTOR('',#1301,10.);
#399=VECTOR('',#1302,10.);
#400=VECTOR('',#1303,10.);
#401=VECTOR('',#1306,10.);
#402=VECTOR('',#1307,10.);
#403=VECTOR('',#1310,10.);
#404=VECTOR('',#1311,10.);
#405=VECTOR('',#1316,10.);
#406=VECTOR('',#1319,10.);
#407=VECTOR('',#1320,10.);
#408=VECTOR('',#1321,10.);
#409=VECTOR('',#1326,10.);
#410=VECTOR('',#1327,10.);
#411=VECTOR('',#1328,10.);
#412=VECTOR('',#1331,10.);
#413=VECTOR('',#1332,10.);
#414=VECTOR('',#1335,10.);
#415=VECTOR('',#1336,10.);
#416=VECTOR('',#1339,10.);
#417=VECTOR('',#1348,10.);
#418=VECTOR('',#1349,10.);
#419=VECTOR('',#1350,10.);
#420=VECTOR('',#1351,10.);
#421=VECTOR('',#1352,10.);
#422=VECTOR('',#1357,3.05);
#423=VECTOR('',#1364,3.05);
#424=VECTOR('',#1371,10.);
#425=VECTOR('',#1374,10.);
#426=VECTOR('',#1379,1.7);
#427=VECTOR('',#1386,1.7);
#428=VECTOR('',#1393,1.7);
#429=VECTOR('',#1400,1.7);
#430=VECTOR('',#1407,2.3);
#431=VECTOR('',#1414,2.3);
#432=VECTOR('',#1421,2.3);
#433=VECTOR('',#1428,2.3);
#434=VECTOR('',#1435,2.3);
#435=VECTOR('',#1442,2.3);
#436=VECTOR('',#1449,9.);
#437=VECTOR('',#1454,10.);
#438=VECTOR('',#1455,10.);
#439=VECTOR('',#1460,10.);
#440=VECTOR('',#1461,10.);
#441=VECTOR('',#1464,10.);
#442=VERTEX_POINT('',#1469);
#443=VERTEX_POINT('',#1470);
#444=VERTEX_POINT('',#1472);
#445=VERTEX_POINT('',#1474);
#446=VERTEX_POINT('',#1476);
#447=VERTEX_POINT('',#1478);
#448=VERTEX_POINT('',#1482);
#449=VERTEX_POINT('',#1484);
#450=VERTEX_POINT('',#1486);
#451=VERTEX_POINT('',#1488);
#452=VERTEX_POINT('',#1492);
#453=VERTEX_POINT('',#1494);
#454=VERTEX_POINT('',#1498);
#455=VERTEX_POINT('',#1502);
#456=VERTEX_POINT('',#1506);
#457=VERTEX_POINT('',#1510);
#458=VERTEX_POINT('',#1512);
#459=VERTEX_POINT('',#1514);
#460=VERTEX_POINT('',#1518);
#461=VERTEX_POINT('',#1520);
#462=VERTEX_POINT('',#1524);
#463=VERTEX_POINT('',#1526);
#464=VERTEX_POINT('',#1530);
#465=VERTEX_POINT('',#1532);
#466=VERTEX_POINT('',#1534);
#467=VERTEX_POINT('',#1536);
#468=VERTEX_POINT('',#1538);
#469=VERTEX_POINT('',#1542);
#470=VERTEX_POINT('',#1544);
#471=VERTEX_POINT('',#1546);
#472=VERTEX_POINT('',#1548);
#473=VERTEX_POINT('',#1550);
#474=VERTEX_POINT('',#1554);
#475=VERTEX_POINT('',#1555);
#476=VERTEX_POINT('',#1557);
#477=VERTEX_POINT('',#1559);
#478=VERTEX_POINT('',#1563);
#479=VERTEX_POINT('',#1564);
#480=VERTEX_POINT('',#1566);
#481=VERTEX_POINT('',#1568);
#482=VERTEX_POINT('',#1572);
#483=VERTEX_POINT('',#1573);
#484=VERTEX_POINT('',#1575);
#485=VERTEX_POINT('',#1577);
#486=VERTEX_POINT('',#1579);
#487=VERTEX_POINT('',#1581);
#488=VERTEX_POINT('',#1583);
#489=VERTEX_POINT('',#1585);
#490=VERTEX_POINT('',#1589);
#491=VERTEX_POINT('',#1591);
#492=VERTEX_POINT('',#1596);
#493=VERTEX_POINT('',#1598);
#494=VERTEX_POINT('',#1600);
#495=VERTEX_POINT('',#1603);
#496=VERTEX_POINT('',#1609);
#497=VERTEX_POINT('',#1614);
#498=VERTEX_POINT('',#1616);
#499=VERTEX_POINT('',#1620);
#500=VERTEX_POINT('',#1622);
#501=VERTEX_POINT('',#1626);
#502=VERTEX_POINT('',#1630);
#503=VERTEX_POINT('',#1632);
#504=VERTEX_POINT('',#1638);
#505=VERTEX_POINT('',#1640);
#506=VERTEX_POINT('',#1644);
#507=VERTEX_POINT('',#1646);
#508=VERTEX_POINT('',#1648);
#509=VERTEX_POINT('',#1652);
#510=VERTEX_POINT('',#1656);
#511=VERTEX_POINT('',#1665);
#512=VERTEX_POINT('',#1667);
#513=VERTEX_POINT('',#1669);
#514=VERTEX_POINT('',#1671);
#515=VERTEX_POINT('',#1675);
#516=VERTEX_POINT('',#1680);
#517=VERTEX_POINT('',#1682);
#518=VERTEX_POINT('',#1691);
#519=VERTEX_POINT('',#1693);
#520=VERTEX_POINT('',#1697);
#521=VERTEX_POINT('',#1699);
#522=VERTEX_POINT('',#1703);
#523=VERTEX_POINT('',#1705);
#524=VERTEX_POINT('',#1709);
#525=VERTEX_POINT('',#1711);
#526=VERTEX_POINT('',#1715);
#527=VERTEX_POINT('',#1717);
#528=VERTEX_POINT('',#1721);
#529=VERTEX_POINT('',#1723);
#530=VERTEX_POINT('',#1727);
#531=VERTEX_POINT('',#1729);
#532=VERTEX_POINT('',#1733);
#533=VERTEX_POINT('',#1735);
#534=VERTEX_POINT('',#1739);
#535=VERTEX_POINT('',#1741);
#536=VERTEX_POINT('',#1745);
#537=VERTEX_POINT('',#1747);
#538=VERTEX_POINT('',#1751);
#539=VERTEX_POINT('',#1753);
#540=VERTEX_POINT('',#1757);
#541=VERTEX_POINT('',#1762);
#542=EDGE_CURVE('',#442,#443,#218,.T.);
#543=EDGE_CURVE('',#442,#444,#219,.T.);
#544=EDGE_CURVE('',#444,#445,#220,.T.);
#545=EDGE_CURVE('',#446,#445,#221,.T.);
#546=EDGE_CURVE('',#447,#446,#222,.T.);
#547=EDGE_CURVE('',#443,#447,#180,.T.);
#548=EDGE_CURVE('',#446,#448,#223,.T.);
#549=EDGE_CURVE('',#445,#449,#224,.T.);
#550=EDGE_CURVE('',#450,#449,#225,.T.);
#551=EDGE_CURVE('',#450,#451,#226,.T.);
#552=EDGE_CURVE('',#451,#448,#227,.T.);
#553=EDGE_CURVE('',#448,#452,#228,.T.);
#554=EDGE_CURVE('',#451,#453,#229,.T.);
#555=EDGE_CURVE('',#452,#453,#230,.T.);
#556=EDGE_CURVE('',#454,#444,#231,.T.);
#557=EDGE_CURVE('',#449,#454,#232,.T.);
#558=EDGE_CURVE('',#455,#442,#233,.T.);
#559=EDGE_CURVE('',#455,#454,#234,.T.);
#560=EDGE_CURVE('',#453,#456,#235,.T.);
#561=EDGE_CURVE('',#456,#450,#236,.T.);
#562=EDGE_CURVE('',#457,#455,#237,.T.);
#563=EDGE_CURVE('',#458,#457,#181,.T.);
#564=EDGE_CURVE('',#459,#458,#238,.T.);
#565=EDGE_CURVE('',#456,#459,#239,.T.);
#566=EDGE_CURVE('',#460,#447,#240,.T.);
#567=EDGE_CURVE('',#460,#461,#182,.T.);
#568=EDGE_CURVE('',#443,#461,#241,.T.);
#569=EDGE_CURVE('',#462,#457,#242,.T.);
#570=EDGE_CURVE('',#462,#463,#183,.T.);
#571=EDGE_CURVE('',#458,#463,#243,.T.);
#572=EDGE_CURVE('',#463,#464,#244,.T.);
#573=EDGE_CURVE('',#464,#465,#245,.T.);
#574=EDGE_CURVE('',#465,#466,#246,.T.);
#575=EDGE_CURVE('',#466,#467,#247,.T.);
#576=EDGE_CURVE('',#468,#467,#248,.T.);
#577=EDGE_CURVE('',#468,#459,#249,.T.);
#578=EDGE_CURVE('',#452,#469,#250,.T.);
#579=EDGE_CURVE('',#470,#469,#251,.T.);
#580=EDGE_CURVE('',#470,#471,#252,.T.);
#581=EDGE_CURVE('',#471,#472,#253,.T.);
#582=EDGE_CURVE('',#472,#473,#254,.T.);
#583=EDGE_CURVE('',#473,#460,#255,.T.);
#584=EDGE_CURVE('',#474,#475,#256,.T.);
#585=EDGE_CURVE('',#476,#474,#257,.T.);
#586=EDGE_CURVE('',#477,#476,#258,.T.);
#587=EDGE_CURVE('',#475,#477,#259,.T.);
#588=EDGE_CURVE('',#478,#479,#260,.T.);
#589=EDGE_CURVE('',#480,#478,#261,.T.);
#590=EDGE_CURVE('',#481,#480,#262,.T.);
#591=EDGE_CURVE('',#479,#481,#263,.T.);
#592=EDGE_CURVE('',#482,#483,#264,.T.);
#593=EDGE_CURVE('',#484,#482,#265,.T.);
#594=EDGE_CURVE('',#485,#484,#266,.T.);
#595=EDGE_CURVE('',#486,#485,#267,.T.);
#596=EDGE_CURVE('',#487,#486,#268,.T.);
#597=EDGE_CURVE('',#488,#487,#269,.T.);
#598=EDGE_CURVE('',#489,#488,#270,.T.);
#599=EDGE_CURVE('',#483,#489,#271,.T.);
#600=EDGE_CURVE('',#490,#482,#272,.T.);
#601=EDGE_CURVE('',#491,#490,#273,.T.);
#602=EDGE_CURVE('',#484,#491,#274,.T.);
#603=EDGE_CURVE('',#483,#475,#184,.T.);
#604=EDGE_CURVE('',#477,#492,#275,.T.);
#605=EDGE_CURVE('',#493,#492,#276,.T.);
#606=EDGE_CURVE('',#494,#493,#277,.T.);
#607=EDGE_CURVE('',#490,#494,#278,.T.);
#608=EDGE_CURVE('',#495,#495,#185,.T.);
#609=EDGE_CURVE('',#474,#489,#186,.T.);
#610=EDGE_CURVE('',#478,#468,#279,.T.);
#611=EDGE_CURVE('',#479,#496,#280,.T.);
#612=EDGE_CURVE('',#492,#496,#281,.T.);
#613=EDGE_CURVE('',#476,#469,#282,.T.);
#614=EDGE_CURVE('',#497,#464,#283,.T.);
#615=EDGE_CURVE('',#498,#497,#284,.T.);
#616=EDGE_CURVE('',#498,#465,#285,.T.);
#617=EDGE_CURVE('',#499,#462,#286,.T.);
#618=EDGE_CURVE('',#500,#499,#287,.T.);
#619=EDGE_CURVE('',#497,#500,#288,.T.);
#620=EDGE_CURVE('',#500,#501,#289,.T.);
#621=EDGE_CURVE('',#501,#498,#290,.T.);
#622=EDGE_CURVE('',#501,#502,#291,.T.);
#623=EDGE_CURVE('',#503,#502,#292,.T.);
#624=EDGE_CURVE('',#466,#503,#187,.T.);
#625=EDGE_CURVE('',#502,#499,#293,.T.);
#626=EDGE_CURVE('',#504,#472,#294,.T.);
#627=EDGE_CURVE('',#505,#504,#295,.T.);
#628=EDGE_CURVE('',#505,#473,#296,.T.);
#629=EDGE_CURVE('',#506,#471,#188,.T.);
#630=EDGE_CURVE('',#507,#506,#297,.T.);
#631=EDGE_CURVE('',#508,#507,#298,.T.);
#632=EDGE_CURVE('',#504,#508,#299,.T.);
#633=EDGE_CURVE('',#508,#509,#300,.T.);
#634=EDGE_CURVE('',#509,#505,#301,.T.);
#635=EDGE_CURVE('',#509,#510,#302,.T.);
#636=EDGE_CURVE('',#461,#510,#303,.T.);
#637=EDGE_CURVE('',#510,#507,#304,.T.);
#638=EDGE_CURVE('',#481,#485,#189,.T.);
#639=EDGE_CURVE('',#486,#480,#190,.T.);
#640=EDGE_CURVE('',#506,#511,#305,.T.);
#641=EDGE_CURVE('',#512,#511,#306,.T.);
#642=EDGE_CURVE('',#513,#512,#307,.T.);
#643=EDGE_CURVE('',#514,#513,#308,.T.);
#644=EDGE_CURVE('',#514,#503,#309,.T.);
#645=EDGE_CURVE('',#515,#470,#191,.T.);
#646=EDGE_CURVE('',#515,#495,#310,.T.);
#647=EDGE_CURVE('',#511,#515,#192,.T.);
#648=EDGE_CURVE('',#516,#516,#193,.T.);
#649=EDGE_CURVE('',#516,#517,#311,.T.);
#650=EDGE_CURVE('',#467,#517,#194,.T.);
#651=EDGE_CURVE('',#517,#514,#195,.T.);
#652=EDGE_CURVE('',#487,#513,#312,.T.);
#653=EDGE_CURVE('',#512,#488,#313,.T.);
#654=EDGE_CURVE('',#518,#518,#196,.T.);
#655=EDGE_CURVE('',#518,#519,#314,.T.);
#656=EDGE_CURVE('',#519,#519,#197,.T.);
#657=EDGE_CURVE('',#520,#520,#198,.T.);
#658=EDGE_CURVE('',#520,#521,#315,.T.);
#659=EDGE_CURVE('',#521,#521,#199,.T.);
#660=EDGE_CURVE('',#522,#522,#200,.T.);
#661=EDGE_CURVE('',#522,#523,#316,.T.);
#662=EDGE_CURVE('',#523,#523,#201,.T.);
#663=EDGE_CURVE('',#524,#524,#202,.T.);
#664=EDGE_CURVE('',#524,#525,#317,.T.);
#665=EDGE_CURVE('',#525,#525,#203,.T.);
#666=EDGE_CURVE('',#526,#526,#204,.T.);
#667=EDGE_CURVE('',#526,#527,#318,.T.);
#668=EDGE_CURVE('',#527,#527,#205,.T.);
#669=EDGE_CURVE('',#528,#528,#206,.T.);
#670=EDGE_CURVE('',#528,#529,#319,.T.);
#671=EDGE_CURVE('',#529,#529,#207,.T.);
#672=EDGE_CURVE('',#530,#530,#208,.T.);
#673=EDGE_CURVE('',#530,#531,#320,.T.);
#674=EDGE_CURVE('',#531,#531,#209,.T.);
#675=EDGE_CURVE('',#532,#532,#210,.T.);
#676=EDGE_CURVE('',#532,#533,#321,.T.);
#677=EDGE_CURVE('',#533,#533,#211,.T.);
#678=EDGE_CURVE('',#534,#534,#212,.T.);
#679=EDGE_CURVE('',#534,#535,#322,.T.);
#680=EDGE_CURVE('',#535,#535,#213,.T.);
#681=EDGE_CURVE('',#536,#536,#214,.T.);
#682=EDGE_CURVE('',#536,#537,#323,.T.);
#683=EDGE_CURVE('',#537,#537,#215,.T.);
#684=EDGE_CURVE('',#538,#538,#216,.T.);
#685=EDGE_CURVE('',#538,#539,#324,.T.);
#686=EDGE_CURVE('',#539,#539,#217,.T.);
#687=EDGE_CURVE('',#496,#540,#325,.T.);
#688=EDGE_CURVE('',#540,#493,#326,.T.);
#689=EDGE_CURVE('',#494,#541,#327,.T.);
#690=EDGE_CURVE('',#541,#491,#328,.T.);
#691=EDGE_CURVE('',#541,#540,#329,.T.);
#692=ORIENTED_EDGE('',*,*,#542,.F.);
#693=ORIENTED_EDGE('',*,*,#543,.T.);
#694=ORIENTED_EDGE('',*,*,#544,.T.);
#695=ORIENTED_EDGE('',*,*,#545,.F.);
#696=ORIENTED_EDGE('',*,*,#546,.F.);
#697=ORIENTED_EDGE('',*,*,#547,.F.);
#698=ORIENTED_EDGE('',*,*,#548,.F.);
#699=ORIENTED_EDGE('',*,*,#545,.T.);
#700=ORIENTED_EDGE('',*,*,#549,.T.);
#701=ORIENTED_EDGE('',*,*,#550,.F.);
#702=ORIENTED_EDGE('',*,*,#551,.T.);
#703=ORIENTED_EDGE('',*,*,#552,.T.);
#704=ORIENTED_EDGE('',*,*,#553,.F.);
#705=ORIENTED_EDGE('',*,*,#552,.F.);
#706=ORIENTED_EDGE('',*,*,#554,.T.);
#707=ORIENTED_EDGE('',*,*,#555,.F.);
#708=ORIENTED_EDGE('',*,*,#549,.F.);
#709=ORIENTED_EDGE('',*,*,#544,.F.);
#710=ORIENTED_EDGE('',*,*,#556,.F.);
#711=ORIENTED_EDGE('',*,*,#557,.F.);
#712=ORIENTED_EDGE('',*,*,#558,.F.);
#713=ORIENTED_EDGE('',*,*,#559,.T.);
#714=ORIENTED_EDGE('',*,*,#556,.T.);
#715=ORIENTED_EDGE('',*,*,#543,.F.);
#716=ORIENTED_EDGE('',*,*,#560,.F.);
#717=ORIENTED_EDGE('',*,*,#554,.F.);
#718=ORIENTED_EDGE('',*,*,#551,.F.);
#719=ORIENTED_EDGE('',*,*,#561,.F.);
#720=ORIENTED_EDGE('',*,*,#562,.F.);
#721=ORIENTED_EDGE('',*,*,#563,.F.);
#722=ORIENTED_EDGE('',*,*,#564,.F.);
#723=ORIENTED_EDGE('',*,*,#565,.F.);
#724=ORIENTED_EDGE('',*,*,#561,.T.);
#725=ORIENTED_EDGE('',*,*,#550,.T.);
#726=ORIENTED_EDGE('',*,*,#557,.T.);
#727=ORIENTED_EDGE('',*,*,#559,.F.);
#728=ORIENTED_EDGE('',*,*,#547,.T.);
#729=ORIENTED_EDGE('',*,*,#566,.F.);
#730=ORIENTED_EDGE('',*,*,#567,.T.);
#731=ORIENTED_EDGE('',*,*,#568,.F.);
#732=ORIENTED_EDGE('',*,*,#563,.T.);
#733=ORIENTED_EDGE('',*,*,#569,.F.);
#734=ORIENTED_EDGE('',*,*,#570,.T.);
#735=ORIENTED_EDGE('',*,*,#571,.F.);
#736=ORIENTED_EDGE('',*,*,#564,.T.);
#737=ORIENTED_EDGE('',*,*,#571,.T.);
#738=ORIENTED_EDGE('',*,*,#572,.T.);
#739=ORIENTED_EDGE('',*,*,#573,.T.);
#740=ORIENTED_EDGE('',*,*,#574,.T.);
#741=ORIENTED_EDGE('',*,*,#575,.T.);
#742=ORIENTED_EDGE('',*,*,#576,.F.);
#743=ORIENTED_EDGE('',*,*,#577,.T.);
#744=ORIENTED_EDGE('',*,*,#546,.T.);
#745=ORIENTED_EDGE('',*,*,#548,.T.);
#746=ORIENTED_EDGE('',*,*,#553,.T.);
#747=ORIENTED_EDGE('',*,*,#578,.T.);
#748=ORIENTED_EDGE('',*,*,#579,.F.);
#749=ORIENTED_EDGE('',*,*,#580,.T.);
#750=ORIENTED_EDGE('',*,*,#581,.T.);
#751=ORIENTED_EDGE('',*,*,#582,.T.);
#752=ORIENTED_EDGE('',*,*,#583,.T.);
#753=ORIENTED_EDGE('',*,*,#566,.T.);
#754=ORIENTED_EDGE('',*,*,#584,.F.);
#755=ORIENTED_EDGE('',*,*,#585,.F.);
#756=ORIENTED_EDGE('',*,*,#586,.F.);
#757=ORIENTED_EDGE('',*,*,#587,.F.);
#758=ORIENTED_EDGE('',*,*,#588,.F.);
#759=ORIENTED_EDGE('',*,*,#589,.F.);
#760=ORIENTED_EDGE('',*,*,#590,.F.);
#761=ORIENTED_EDGE('',*,*,#591,.F.);
#762=ORIENTED_EDGE('',*,*,#592,.F.);
#763=ORIENTED_EDGE('',*,*,#593,.F.);
#764=ORIENTED_EDGE('',*,*,#594,.F.);
#765=ORIENTED_EDGE('',*,*,#595,.F.);
#766=ORIENTED_EDGE('',*,*,#596,.F.);
#767=ORIENTED_EDGE('',*,*,#597,.F.);
#768=ORIENTED_EDGE('',*,*,#598,.F.);
#769=ORIENTED_EDGE('',*,*,#599,.F.);
#770=ORIENTED_EDGE('',*,*,#600,.F.);
#771=ORIENTED_EDGE('',*,*,#601,.F.);
#772=ORIENTED_EDGE('',*,*,#602,.F.);
#773=ORIENTED_EDGE('',*,*,#593,.T.);
#774=ORIENTED_EDGE('',*,*,#600,.T.);
#775=ORIENTED_EDGE('',*,*,#592,.T.);
#776=ORIENTED_EDGE('',*,*,#603,.T.);
#777=ORIENTED_EDGE('',*,*,#587,.T.);
#778=ORIENTED_EDGE('',*,*,#604,.T.);
#779=ORIENTED_EDGE('',*,*,#605,.F.);
#780=ORIENTED_EDGE('',*,*,#606,.F.);
#781=ORIENTED_EDGE('',*,*,#607,.F.);
#782=ORIENTED_EDGE('',*,*,#608,.T.);
#783=ORIENTED_EDGE('',*,*,#599,.T.);
#784=ORIENTED_EDGE('',*,*,#609,.F.);
#785=ORIENTED_EDGE('',*,*,#584,.T.);
#786=ORIENTED_EDGE('',*,*,#603,.F.);
#787=ORIENTED_EDGE('',*,*,#565,.T.);
#788=ORIENTED_EDGE('',*,*,#577,.F.);
#789=ORIENTED_EDGE('',*,*,#610,.F.);
#790=ORIENTED_EDGE('',*,*,#588,.T.);
#791=ORIENTED_EDGE('',*,*,#611,.T.);
#792=ORIENTED_EDGE('',*,*,#612,.F.);
#793=ORIENTED_EDGE('',*,*,#604,.F.);
#794=ORIENTED_EDGE('',*,*,#586,.T.);
#795=ORIENTED_EDGE('',*,*,#613,.T.);
#796=ORIENTED_EDGE('',*,*,#578,.F.);
#797=ORIENTED_EDGE('',*,*,#555,.T.);
#798=ORIENTED_EDGE('',*,*,#560,.T.);
#799=ORIENTED_EDGE('',*,*,#573,.F.);
#800=ORIENTED_EDGE('',*,*,#614,.F.);
#801=ORIENTED_EDGE('',*,*,#615,.F.);
#802=ORIENTED_EDGE('',*,*,#616,.T.);
#803=ORIENTED_EDGE('',*,*,#572,.F.);
#804=ORIENTED_EDGE('',*,*,#570,.F.);
#805=ORIENTED_EDGE('',*,*,#617,.F.);
#806=ORIENTED_EDGE('',*,*,#618,.F.);
#807=ORIENTED_EDGE('',*,*,#619,.F.);
#808=ORIENTED_EDGE('',*,*,#614,.T.);
#809=ORIENTED_EDGE('',*,*,#615,.T.);
#810=ORIENTED_EDGE('',*,*,#619,.T.);
#811=ORIENTED_EDGE('',*,*,#620,.T.);
#812=ORIENTED_EDGE('',*,*,#621,.T.);
#813=ORIENTED_EDGE('',*,*,#574,.F.);
#814=ORIENTED_EDGE('',*,*,#616,.F.);
#815=ORIENTED_EDGE('',*,*,#621,.F.);
#816=ORIENTED_EDGE('',*,*,#622,.T.);
#817=ORIENTED_EDGE('',*,*,#623,.F.);
#818=ORIENTED_EDGE('',*,*,#624,.F.);
#819=ORIENTED_EDGE('',*,*,#625,.F.);
#820=ORIENTED_EDGE('',*,*,#622,.F.);
#821=ORIENTED_EDGE('',*,*,#620,.F.);
#822=ORIENTED_EDGE('',*,*,#618,.T.);
#823=ORIENTED_EDGE('',*,*,#582,.F.);
#824=ORIENTED_EDGE('',*,*,#626,.F.);
#825=ORIENTED_EDGE('',*,*,#627,.F.);
#826=ORIENTED_EDGE('',*,*,#628,.T.);
#827=ORIENTED_EDGE('',*,*,#581,.F.);
#828=ORIENTED_EDGE('',*,*,#629,.F.);
#829=ORIENTED_EDGE('',*,*,#630,.F.);
#830=ORIENTED_EDGE('',*,*,#631,.F.);
#831=ORIENTED_EDGE('',*,*,#632,.F.);
#832=ORIENTED_EDGE('',*,*,#626,.T.);
#833=ORIENTED_EDGE('',*,*,#627,.T.);
#834=ORIENTED_EDGE('',*,*,#632,.T.);
#835=ORIENTED_EDGE('',*,*,#633,.T.);
#836=ORIENTED_EDGE('',*,*,#634,.T.);
#837=ORIENTED_EDGE('',*,*,#583,.F.);
#838=ORIENTED_EDGE('',*,*,#628,.F.);
#839=ORIENTED_EDGE('',*,*,#634,.F.);
#840=ORIENTED_EDGE('',*,*,#635,.T.);
#841=ORIENTED_EDGE('',*,*,#636,.F.);
#842=ORIENTED_EDGE('',*,*,#567,.F.);
#843=ORIENTED_EDGE('',*,*,#637,.F.);
#844=ORIENTED_EDGE('',*,*,#635,.F.);
#845=ORIENTED_EDGE('',*,*,#633,.F.);
#846=ORIENTED_EDGE('',*,*,#631,.T.);
#847=ORIENTED_EDGE('',*,*,#595,.T.);
#848=ORIENTED_EDGE('',*,*,#638,.F.);
#849=ORIENTED_EDGE('',*,*,#590,.T.);
#850=ORIENTED_EDGE('',*,*,#639,.F.);
#851=ORIENTED_EDGE('',*,*,#542,.T.);
#852=ORIENTED_EDGE('',*,*,#568,.T.);
#853=ORIENTED_EDGE('',*,*,#636,.T.);
#854=ORIENTED_EDGE('',*,*,#637,.T.);
#855=ORIENTED_EDGE('',*,*,#630,.T.);
#856=ORIENTED_EDGE('',*,*,#640,.T.);
#857=ORIENTED_EDGE('',*,*,#641,.F.);
#858=ORIENTED_EDGE('',*,*,#642,.F.);
#859=ORIENTED_EDGE('',*,*,#643,.F.);
#860=ORIENTED_EDGE('',*,*,#644,.T.);
#861=ORIENTED_EDGE('',*,*,#623,.T.);
#862=ORIENTED_EDGE('',*,*,#625,.T.);
#863=ORIENTED_EDGE('',*,*,#617,.T.);
#864=ORIENTED_EDGE('',*,*,#569,.T.);
#865=ORIENTED_EDGE('',*,*,#562,.T.);
#866=ORIENTED_EDGE('',*,*,#558,.T.);
#867=ORIENTED_EDGE('',*,*,#629,.T.);
#868=ORIENTED_EDGE('',*,*,#580,.F.);
#869=ORIENTED_EDGE('',*,*,#645,.F.);
#870=ORIENTED_EDGE('',*,*,#646,.T.);
#871=ORIENTED_EDGE('',*,*,#608,.F.);
#872=ORIENTED_EDGE('',*,*,#646,.F.);
#873=ORIENTED_EDGE('',*,*,#647,.F.);
#874=ORIENTED_EDGE('',*,*,#640,.F.);
#875=ORIENTED_EDGE('',*,*,#648,.F.);
#876=ORIENTED_EDGE('',*,*,#649,.T.);
#877=ORIENTED_EDGE('',*,*,#650,.F.);
#878=ORIENTED_EDGE('',*,*,#575,.F.);
#879=ORIENTED_EDGE('',*,*,#624,.T.);
#880=ORIENTED_EDGE('',*,*,#644,.F.);
#881=ORIENTED_EDGE('',*,*,#651,.F.);
#882=ORIENTED_EDGE('',*,*,#649,.F.);
#883=ORIENTED_EDGE('',*,*,#650,.T.);
#884=ORIENTED_EDGE('',*,*,#651,.T.);
#885=ORIENTED_EDGE('',*,*,#643,.T.);
#886=ORIENTED_EDGE('',*,*,#652,.F.);
#887=ORIENTED_EDGE('',*,*,#596,.T.);
#888=ORIENTED_EDGE('',*,*,#639,.T.);
#889=ORIENTED_EDGE('',*,*,#589,.T.);
#890=ORIENTED_EDGE('',*,*,#610,.T.);
#891=ORIENTED_EDGE('',*,*,#576,.T.);
#892=ORIENTED_EDGE('',*,*,#647,.T.);
#893=ORIENTED_EDGE('',*,*,#645,.T.);
#894=ORIENTED_EDGE('',*,*,#579,.T.);
#895=ORIENTED_EDGE('',*,*,#613,.F.);
#896=ORIENTED_EDGE('',*,*,#585,.T.);
#897=ORIENTED_EDGE('',*,*,#609,.T.);
#898=ORIENTED_EDGE('',*,*,#598,.T.);
#899=ORIENTED_EDGE('',*,*,#653,.F.);
#900=ORIENTED_EDGE('',*,*,#641,.T.);
#901=ORIENTED_EDGE('',*,*,#654,.F.);
#902=ORIENTED_EDGE('',*,*,#655,.T.);
#903=ORIENTED_EDGE('',*,*,#656,.F.);
#904=ORIENTED_EDGE('',*,*,#655,.F.);
#905=ORIENTED_EDGE('',*,*,#657,.F.);
#906=ORIENTED_EDGE('',*,*,#658,.T.);
#907=ORIENTED_EDGE('',*,*,#659,.F.);
#908=ORIENTED_EDGE('',*,*,#658,.F.);
#909=ORIENTED_EDGE('',*,*,#660,.F.);
#910=ORIENTED_EDGE('',*,*,#661,.T.);
#911=ORIENTED_EDGE('',*,*,#662,.F.);
#912=ORIENTED_EDGE('',*,*,#661,.F.);
#913=ORIENTED_EDGE('',*,*,#663,.F.);
#914=ORIENTED_EDGE('',*,*,#664,.T.);
#915=ORIENTED_EDGE('',*,*,#665,.F.);
#916=ORIENTED_EDGE('',*,*,#664,.F.);
#917=ORIENTED_EDGE('',*,*,#666,.F.);
#918=ORIENTED_EDGE('',*,*,#667,.T.);
#919=ORIENTED_EDGE('',*,*,#668,.F.);
#920=ORIENTED_EDGE('',*,*,#667,.F.);
#921=ORIENTED_EDGE('',*,*,#669,.F.);
#922=ORIENTED_EDGE('',*,*,#670,.T.);
#923=ORIENTED_EDGE('',*,*,#671,.F.);
#924=ORIENTED_EDGE('',*,*,#670,.F.);
#925=ORIENTED_EDGE('',*,*,#672,.F.);
#926=ORIENTED_EDGE('',*,*,#673,.T.);
#927=ORIENTED_EDGE('',*,*,#674,.F.);
#928=ORIENTED_EDGE('',*,*,#673,.F.);
#929=ORIENTED_EDGE('',*,*,#675,.F.);
#930=ORIENTED_EDGE('',*,*,#676,.T.);
#931=ORIENTED_EDGE('',*,*,#677,.F.);
#932=ORIENTED_EDGE('',*,*,#676,.F.);
#933=ORIENTED_EDGE('',*,*,#678,.F.);
#934=ORIENTED_EDGE('',*,*,#679,.T.);
#935=ORIENTED_EDGE('',*,*,#680,.F.);
#936=ORIENTED_EDGE('',*,*,#679,.F.);
#937=ORIENTED_EDGE('',*,*,#681,.F.);
#938=ORIENTED_EDGE('',*,*,#682,.T.);
#939=ORIENTED_EDGE('',*,*,#683,.F.);
#940=ORIENTED_EDGE('',*,*,#682,.F.);
#941=ORIENTED_EDGE('',*,*,#684,.F.);
#942=ORIENTED_EDGE('',*,*,#685,.T.);
#943=ORIENTED_EDGE('',*,*,#686,.F.);
#944=ORIENTED_EDGE('',*,*,#685,.F.);
#945=ORIENTED_EDGE('',*,*,#612,.T.);
#946=ORIENTED_EDGE('',*,*,#687,.T.);
#947=ORIENTED_EDGE('',*,*,#688,.T.);
#948=ORIENTED_EDGE('',*,*,#605,.T.);
#949=ORIENTED_EDGE('',*,*,#642,.T.);
#950=ORIENTED_EDGE('',*,*,#653,.T.);
#951=ORIENTED_EDGE('',*,*,#597,.T.);
#952=ORIENTED_EDGE('',*,*,#652,.T.);
#953=ORIENTED_EDGE('',*,*,#659,.T.);
#954=ORIENTED_EDGE('',*,*,#665,.T.);
#955=ORIENTED_EDGE('',*,*,#668,.T.);
#956=ORIENTED_EDGE('',*,*,#671,.T.);
#957=ORIENTED_EDGE('',*,*,#674,.T.);
#958=ORIENTED_EDGE('',*,*,#677,.T.);
#959=ORIENTED_EDGE('',*,*,#680,.T.);
#960=ORIENTED_EDGE('',*,*,#683,.T.);
#961=ORIENTED_EDGE('',*,*,#686,.T.);
#962=ORIENTED_EDGE('',*,*,#662,.T.);
#963=ORIENTED_EDGE('',*,*,#656,.T.);
#964=ORIENTED_EDGE('',*,*,#601,.T.);
#965=ORIENTED_EDGE('',*,*,#607,.T.);
#966=ORIENTED_EDGE('',*,*,#689,.T.);
#967=ORIENTED_EDGE('',*,*,#690,.T.);
#968=ORIENTED_EDGE('',*,*,#602,.T.);
#969=ORIENTED_EDGE('',*,*,#690,.F.);
#970=ORIENTED_EDGE('',*,*,#691,.T.);
#971=ORIENTED_EDGE('',*,*,#687,.F.);
#972=ORIENTED_EDGE('',*,*,#611,.F.);
#973=ORIENTED_EDGE('',*,*,#591,.T.);
#974=ORIENTED_EDGE('',*,*,#638,.T.);
#975=ORIENTED_EDGE('',*,*,#594,.T.);
#976=ORIENTED_EDGE('',*,*,#648,.T.);
#977=ORIENTED_EDGE('',*,*,#606,.T.);
#978=ORIENTED_EDGE('',*,*,#688,.F.);
#979=ORIENTED_EDGE('',*,*,#691,.F.);
#980=ORIENTED_EDGE('',*,*,#689,.F.);
#981=ORIENTED_EDGE('',*,*,#684,.T.);
#982=ORIENTED_EDGE('',*,*,#681,.T.);
#983=ORIENTED_EDGE('',*,*,#678,.T.);
#984=ORIENTED_EDGE('',*,*,#675,.T.);
#985=ORIENTED_EDGE('',*,*,#672,.T.);
#986=ORIENTED_EDGE('',*,*,#669,.T.);
#987=ORIENTED_EDGE('',*,*,#666,.T.);
#988=ORIENTED_EDGE('',*,*,#654,.T.);
#989=ORIENTED_EDGE('',*,*,#663,.T.);
#990=ORIENTED_EDGE('',*,*,#660,.T.);
#991=ORIENTED_EDGE('',*,*,#657,.T.);
#992=PLANE('',#1089);
#993=PLANE('',#1091);
#994=PLANE('',#1092);
#995=PLANE('',#1093);
#996=PLANE('',#1094);
#997=PLANE('',#1095);
#998=PLANE('',#1096);
#999=PLANE('',#1102);
#1000=PLANE('',#1103);
#1001=PLANE('',#1104);
#1002=PLANE('',#1105);
#1003=PLANE('',#1106);
#1004=PLANE('',#1107);
#1005=PLANE('',#1108);
#1006=PLANE('',#1113);
#1007=PLANE('',#1114);
#1008=PLANE('',#1115);
#1009=PLANE('',#1116);
#1010=PLANE('',#1117);
#1011=PLANE('',#1119);
#1012=PLANE('',#1120);
#1013=PLANE('',#1121);
#1014=PLANE('',#1123);
#1015=PLANE('',#1124);
#1016=PLANE('',#1125);
#1017=PLANE('',#1129);
#1018=PLANE('',#1137);
#1019=PLANE('',#1138);
#1020=PLANE('',#1172);
#1021=PLANE('',#1173);
#1022=PLANE('',#1174);
#1023=PLANE('',#1175);
#1024=PLANE('',#1176);
#1025=ADVANCED_FACE('',(#56),#992,.F.);
#1026=ADVANCED_FACE('',(#57),#993,.T.);
#1027=ADVANCED_FACE('',(#58),#994,.T.);
#1028=ADVANCED_FACE('',(#59),#995,.T.);
#1029=ADVANCED_FACE('',(#60),#996,.T.);
#1030=ADVANCED_FACE('',(#61),#997,.T.);
#1031=ADVANCED_FACE('',(#62),#998,.F.);
#1032=ADVANCED_FACE('',(#63),#39,.F.);
#1033=ADVANCED_FACE('',(#64),#40,.F.);
#1034=ADVANCED_FACE('',(#65),#999,.T.);
#1035=ADVANCED_FACE('',(#66),#1000,.T.);
#1036=ADVANCED_FACE('',(#67),#1001,.T.);
#1037=ADVANCED_FACE('',(#68),#1002,.T.);
#1038=ADVANCED_FACE('',(#69),#1003,.T.);
#1039=ADVANCED_FACE('',(#70),#1004,.T.);
#1040=ADVANCED_FACE('',(#71,#15),#1005,.F.);
#1041=ADVANCED_FACE('',(#72),#41,.F.);
#1042=ADVANCED_FACE('',(#73),#1006,.F.);
#1043=ADVANCED_FACE('',(#74),#1007,.F.);
#1044=ADVANCED_FACE('',(#75),#1008,.F.);
#1045=ADVANCED_FACE('',(#76),#1009,.T.);
#1046=ADVANCED_FACE('',(#77),#1010,.F.);
#1047=ADVANCED_FACE('',(#78),#1011,.F.);
#1048=ADVANCED_FACE('',(#79),#1012,.F.);
#1049=ADVANCED_FACE('',(#80),#1013,.F.);
#1050=ADVANCED_FACE('',(#81),#1014,.T.);
#1051=ADVANCED_FACE('',(#82),#1015,.F.);
#1052=ADVANCED_FACE('',(#83),#1016,.F.);
#1053=ADVANCED_FACE('',(#84),#42,.F.);
#1054=ADVANCED_FACE('',(#85),#1017,.T.);
#1055=ADVANCED_FACE('',(#86),#43,.F.);
#1056=ADVANCED_FACE('',(#87),#44,.F.);
#1057=ADVANCED_FACE('',(#88),#1018,.F.);
#1058=ADVANCED_FACE('',(#89),#1019,.F.);
#1059=ADVANCED_FACE('',(#90),#45,.F.);
#1060=ADVANCED_FACE('',(#91),#46,.F.);
#1061=ADVANCED_FACE('',(#92),#47,.F.);
#1062=ADVANCED_FACE('',(#93),#48,.F.);
#1063=ADVANCED_FACE('',(#94),#49,.F.);
#1064=ADVANCED_FACE('',(#95),#50,.F.);
#1065=ADVANCED_FACE('',(#96),#51,.F.);
#1066=ADVANCED_FACE('',(#97),#52,.F.);
#1067=ADVANCED_FACE('',(#98),#53,.F.);
#1068=ADVANCED_FACE('',(#99),#54,.F.);
#1069=ADVANCED_FACE('',(#100),#55,.F.);
#1070=ADVANCED_FACE('',(#101),#1020,.F.);
#1071=ADVANCED_FACE('',(#102,#16,#17,#18,#19,#20,#21,#22,#23,#24,#25,#26),
#1021,.F.);
#1072=ADVANCED_FACE('',(#103),#1022,.T.);
#1073=ADVANCED_FACE('',(#104,#27),#1023,.F.);
#1074=ADVANCED_FACE('',(#105,#28,#29,#30,#31,#32,#33,#34,#35,#36,#37,#38),
#1024,.F.);
#1075=CLOSED_SHELL('',(#1025,#1026,#1027,#1028,#1029,#1030,#1031,#1032,
#1033,#1034,#1035,#1036,#1037,#1038,#1039,#1040,#1041,#1042,#1043,#1044,
#1045,#1046,#1047,#1048,#1049,#1050,#1051,#1052,#1053,#1054,#1055,#1056,
#1057,#1058,#1059,#1060,#1061,#1062,#1063,#1064,#1065,#1066,#1067,#1068,
#1069,#1070,#1071,#1072,#1073,#1074));
#1076=DERIVED_UNIT_ELEMENT(#1078,1.);
#1077=DERIVED_UNIT_ELEMENT(#1773,-3.);
#1078=(
MASS_UNIT()
NAMED_UNIT(*)
SI_UNIT(.KILO.,.GRAM.)
);
#1079=DERIVED_UNIT((#1076,#1077));
#1080=MEASURE_REPRESENTATION_ITEM('density measure',
POSITIVE_RATIO_MEASURE(7850.),#1079);
#1081=PROPERTY_DEFINITION_REPRESENTATION(#1086,#1083);
#1082=PROPERTY_DEFINITION_REPRESENTATION(#1087,#1084);
#1083=REPRESENTATION('material name',(#1085),#1770);
#1084=REPRESENTATION('density',(#1080),#1770);
#1085=DESCRIPTIVE_REPRESENTATION_ITEM('Steel','Steel');
#1086=PROPERTY_DEFINITION('material property','material name',#1780);
#1087=PROPERTY_DEFINITION('material property','density of part',#1780);
#1088=AXIS2_PLACEMENT_3D('',#1467,#1177,#1178);
#1089=AXIS2_PLACEMENT_3D('',#1468,#1179,#1180);
#1090=AXIS2_PLACEMENT_3D('',#1480,#1186,#1187);
#1091=AXIS2_PLACEMENT_3D('',#1481,#1188,#1189);
#1092=AXIS2_PLACEMENT_3D('',#1491,#1195,#1196);
#1093=AXIS2_PLACEMENT_3D('',#1497,#1200,#1201);
#1094=AXIS2_PLACEMENT_3D('',#1501,#1204,#1205);
#1095=AXIS2_PLACEMENT_3D('',#1505,#1208,#1209);
#1096=AXIS2_PLACEMENT_3D('',#1509,#1212,#1213);
#1097=AXIS2_PLACEMENT_3D('',#1513,#1215,#1216);
#1098=AXIS2_PLACEMENT_3D('',#1517,#1219,#1220);
#1099=AXIS2_PLACEMENT_3D('',#1521,#1222,#1223);
#1100=AXIS2_PLACEMENT_3D('',#1523,#1225,#1226);
#1101=AXIS2_PLACEMENT_3D('',#1527,#1228,#1229);
#1102=AXIS2_PLACEMENT_3D('',#1529,#1231,#1232);
#1103=AXIS2_PLACEMENT_3D('',#1541,#1239,#1240);
#1104=AXIS2_PLACEMENT_3D('',#1553,#1247,#1248);
#1105=AXIS2_PLACEMENT_3D('',#1562,#1253,#1254);
#1106=AXIS2_PLACEMENT_3D('',#1571,#1259,#1260);
#1107=AXIS2_PLACEMENT_3D('',#1588,#1269,#1270);
#1108=AXIS2_PLACEMENT_3D('',#1594,#1274,#1275);
#1109=AXIS2_PLACEMENT_3D('',#1595,#1276,#1277);
#1110=AXIS2_PLACEMENT_3D('',#1604,#1282,#1283);
#1111=AXIS2_PLACEMENT_3D('',#1605,#1284,#1285);
#1112=AXIS2_PLACEMENT_3D('',#1606,#1286,#1287);
#1113=AXIS2_PLACEMENT_3D('',#1607,#1288,#1289);
#1114=AXIS2_PLACEMENT_3D('',#1613,#1294,#1295);
#1115=AXIS2_PLACEMENT_3D('',#1619,#1299,#1300);
#1116=AXIS2_PLACEMENT_3D('',#1625,#1304,#1305);
#1117=AXIS2_PLACEMENT_3D('',#1629,#1308,#1309);
#1118=AXIS2_PLACEMENT_3D('',#1634,#1312,#1313);
#1119=AXIS2_PLACEMENT_3D('',#1635,#1314,#1315);
#1120=AXIS2_PLACEMENT_3D('',#1637,#1317,#1318);
#1121=AXIS2_PLACEMENT_3D('',#1643,#1322,#1323);
#1122=AXIS2_PLACEMENT_3D('',#1645,#1324,#1325);
#1123=AXIS2_PLACEMENT_3D('',#1651,#1329,#1330);
#1124=AXIS2_PLACEMENT_3D('',#1655,#1333,#1334);
#1125=AXIS2_PLACEMENT_3D('',#1659,#1337,#1338);
#1126=AXIS2_PLACEMENT_3D('',#1661,#1340,#1341);
#1127=AXIS2_PLACEMENT_3D('',#1662,#1342,#1343);
#1128=AXIS2_PLACEMENT_3D('',#1663,#1344,#1345);
#1129=AXIS2_PLACEMENT_3D('',#1664,#1346,#1347);
#1130=AXIS2_PLACEMENT_3D('',#1674,#1353,#1354);
#1131=AXIS2_PLACEMENT_3D('',#1676,#1355,#1356);
#1132=AXIS2_PLACEMENT_3D('',#1678,#1358,#1359);
#1133=AXIS2_PLACEMENT_3D('',#1679,#1360,#1361);
#1134=AXIS2_PLACEMENT_3D('',#1681,#1362,#1363);
#1135=AXIS2_PLACEMENT_3D('',#1684,#1365,#1366);
#1136=AXIS2_PLACEMENT_3D('',#1685,#1367,#1368);
#1137=AXIS2_PLACEMENT_3D('',#1686,#1369,#1370);
#1138=AXIS2_PLACEMENT_3D('',#1688,#1372,#1373);
#1139=AXIS2_PLACEMENT_3D('',#1690,#1375,#1376);
#1140=AXIS2_PLACEMENT_3D('',#1692,#1377,#1378);
#1141=AXIS2_PLACEMENT_3D('',#1695,#1380,#1381);
#1142=AXIS2_PLACEMENT_3D('',#1696,#1382,#1383);
#1143=AXIS2_PLACEMENT_3D('',#1698,#1384,#1385);
#1144=AXIS2_PLACEMENT_3D('',#1701,#1387,#1388);
#1145=AXIS2_PLACEMENT_3D('',#1702,#1389,#1390);
#1146=AXIS2_PLACEMENT_3D('',#1704,#1391,#1392);
#1147=AXIS2_PLACEMENT_3D('',#1707,#1394,#1395);
#1148=AXIS2_PLACEMENT_3D('',#1708,#1396,#1397);
#1149=AXIS2_PLACEMENT_3D('',#1710,#1398,#1399);
#1150=AXIS2_PLACEMENT_3D('',#1713,#1401,#1402);
#1151=AXIS2_PLACEMENT_3D('',#1714,#1403,#1404);
#1152=AXIS2_PLACEMENT_3D('',#1716,#1405,#1406);
#1153=AXIS2_PLACEMENT_3D('',#1719,#1408,#1409);
#1154=AXIS2_PLACEMENT_3D('',#1720,#1410,#1411);
#1155=AXIS2_PLACEMENT_3D('',#1722,#1412,#1413);
#1156=AXIS2_PLACEMENT_3D('',#1725,#1415,#1416);
#1157=AXIS2_PLACEMENT_3D('',#1726,#1417,#1418);
#1158=AXIS2_PLACEMENT_3D('',#1728,#1419,#1420);
#1159=AXIS2_PLACEMENT_3D('',#1731,#1422,#1423);
#1160=AXIS2_PLACEMENT_3D('',#1732,#1424,#1425);
#1161=AXIS2_PLACEMENT_3D('',#1734,#1426,#1427);
#1162=AXIS2_PLACEMENT_3D('',#1737,#1429,#1430);
#1163=AXIS2_PLACEMENT_3D('',#1738,#1431,#1432);
#1164=AXIS2_PLACEMENT_3D('',#1740,#1433,#1434);
#1165=AXIS2_PLACEMENT_3D('',#1743,#1436,#1437);
#1166=AXIS2_PLACEMENT_3D('',#1744,#1438,#1439);
#1167=AXIS2_PLACEMENT_3D('',#1746,#1440,#1441);
#1168=AXIS2_PLACEMENT_3D('',#1749,#1443,#1444);
#1169=AXIS2_PLACEMENT_3D('',#1750,#1445,#1446);
#1170=AXIS2_PLACEMENT_3D('',#1752,#1447,#1448);
#1171=AXIS2_PLACEMENT_3D('',#1755,#1450,#1451);
#1172=AXIS2_PLACEMENT_3D('',#1756,#1452,#1453);
#1173=AXIS2_PLACEMENT_3D('',#1760,#1456,#1457);
#1174=AXIS2_PLACEMENT_3D('',#1761,#1458,#1459);
#1175=AXIS2_PLACEMENT_3D('',#1765,#1462,#1463);
#1176=AXIS2_PLACEMENT_3D('',#1767,#1465,#1466);
#1177=DIRECTION('axis',(0.,0.,1.));
#1178=DIRECTION('refdir',(1.,0.,0.));
#1179=DIRECTION('center_axis',(1.14105152169467E-30,1.,6.32297869215646E-61));
#1180=DIRECTION('ref_axis',(-1.18329135783152E-30,7.17898535246161E-61,
1.));
#1181=DIRECTION('',(1.,-1.14105152169467E-30,0.));
#1182=DIRECTION('',(1.18329135783152E-30,-7.17898535246161E-61,-1.));
#1183=DIRECTION('',(1.,-1.14105152169467E-30,1.18329135783152E-30));
#1184=DIRECTION('',(1.18329135783152E-30,-7.17898535246161E-61,-1.));
#1185=DIRECTION('',(1.,-1.14105152169467E-30,0.));
#1186=DIRECTION('center_axis',(-1.14105152169467E-30,-1.,-6.32297869215646E-61));
#1187=DIRECTION('ref_axis',(1.,0.,0.));
#1188=DIRECTION('center_axis',(-1.,1.14105152169467E-30,-1.18329135783152E-30));
#1189=DIRECTION('ref_axis',(-1.18329135783152E-30,7.17898535246161E-61,
1.));
#1190=DIRECTION('',(-1.14105152169467E-30,-1.,0.));
#1191=DIRECTION('',(-1.14105152169467E-30,-1.,-6.32297869215646E-61));
#1192=DIRECTION('',(1.18329135783152E-30,-7.17898535246161E-61,-1.));
#1193=DIRECTION('',(1.14105152169467E-30,1.,6.32297869215646E-61));
#1194=DIRECTION('',(-1.18329135783152E-30,7.17898535246161E-61,1.));
#1195=DIRECTION('center_axis',(-1.14105152169467E-30,-1.,-6.32297869215646E-61));
#1196=DIRECTION('ref_axis',(1.18329135783152E-30,-7.17898535246161E-61,
-1.));
#1197=DIRECTION('',(1.,-1.14105152169467E-30,0.));
#1198=DIRECTION('',(1.,-1.14105152169467E-30,1.18329135783152E-30));
#1199=DIRECTION('',(0.,6.32297869215646E-61,-1.));
#1200=DIRECTION('center_axis',(-1.18329135783152E-30,7.17898535246161E-61,
1.));
#1201=DIRECTION('ref_axis',(1.,-1.14105152169467E-30,1.18329135783152E-30));
#1202=DIRECTION('',(1.14105152169467E-30,1.,6.32297869215646E-61));
#1203=DIRECTION('',(-1.,1.14105152169467E-30,-1.18329135783152E-30));
#1204=DIRECTION('center_axis',(1.,-1.14105152169467E-30,1.18329135783152E-30));
#1205=DIRECTION('ref_axis',(1.18329135783152E-30,-7.17898535246161E-61,
-1.));
#1206=DIRECTION('',(1.14105152169467E-30,1.,0.));
#1207=DIRECTION('',(1.18329135783152E-30,-7.17898535246161E-61,-1.));
#1208=DIRECTION('center_axis',(-1.18329135783152E-30,7.17898535246161E-61,
1.));
#1209=DIRECTION('ref_axis',(1.,-1.14105152169467E-30,1.18329135783152E-30));
#1210=DIRECTION('',(0.,-1.,7.17898535246161E-61));
#1211=DIRECTION('',(-1.,1.14105152169467E-30,-1.18329135783152E-30));
#1212=DIRECTION('center_axis',(-1.14105152169467E-30,-1.,-6.32297869215646E-61));
#1213=DIRECTION('ref_axis',(1.18329135783152E-30,-7.17898535246161E-61,
-1.));
#1214=DIRECTION('',(-1.,1.14105152169467E-30,0.));
#1215=DIRECTION('center_axis',(1.14105152169467E-30,1.,6.32297869215646E-61));
#1216=DIRECTION('ref_axis',(1.,0.,0.));
#1217=DIRECTION('',(-1.,1.14105152169467E-30,0.));
#1218=DIRECTION('',(0.,-6.32297869215646E-61,1.));
#1219=DIRECTION('center_axis',(0.,1.,0.));
#1220=DIRECTION('ref_axis',(1.,0.,0.));
#1221=DIRECTION('',(0.,-1.,0.));
#1222=DIRECTION('center_axis',(0.,1.,0.));
#1223=DIRECTION('ref_axis',(1.,0.,0.));
#1224=DIRECTION('',(0.,1.,0.));
#1225=DIRECTION('center_axis',(0.,1.,0.));
#1226=DIRECTION('ref_axis',(1.,0.,0.));
#1227=DIRECTION('',(0.,1.,0.));
#1228=DIRECTION('center_axis',(0.,-1.,0.));
#1229=DIRECTION('ref_axis',(1.,0.,0.));
#1230=DIRECTION('',(0.,-1.,0.));
#1231=DIRECTION('center_axis',(0.,0.,1.));
#1232=DIRECTION('ref_axis',(1.,0.,0.));
#1233=DIRECTION('',(1.,0.,0.));
#1234=DIRECTION('',(0.,-1.,0.));
#1235=DIRECTION('',(-1.,0.,0.));
#1236=DIRECTION('',(0.,-1.,0.));
#1237=DIRECTION('',(-1.,0.,0.));
#1238=DIRECTION('',(0.,1.,0.));
#1239=DIRECTION('center_axis',(0.,0.,1.));
#1240=DIRECTION('ref_axis',(1.,0.,0.));
#1241=DIRECTION('',(0.,1.,0.));
#1242=DIRECTION('',(1.,0.,0.));
#1243=DIRECTION('',(0.,-1.,0.));
#1244=DIRECTION('',(1.,0.,0.));
#1245=DIRECTION('',(0.,-1.,0.));
#1246=DIRECTION('',(-1.,0.,0.));
#1247=DIRECTION('center_axis',(0.,0.,1.));
#1248=DIRECTION('ref_axis',(1.,0.,0.));
#1249=DIRECTION('',(0.,1.,0.));
#1250=DIRECTION('',(-1.,0.,0.));
#1251=DIRECTION('',(0.,-1.,0.));
#1252=DIRECTION('',(1.,0.,0.));
#1253=DIRECTION('center_axis',(0.,0.,1.));
#1254=DIRECTION('ref_axis',(1.,0.,0.));
#1255=DIRECTION('',(0.,-1.,0.));
#1256=DIRECTION('',(1.,0.,0.));
#1257=DIRECTION('',(0.,1.,0.));
#1258=DIRECTION('',(-1.,0.,0.));
#1259=DIRECTION('center_axis',(0.,0.,1.));
#1260=DIRECTION('ref_axis',(1.,0.,0.));
#1261=DIRECTION('',(1.,0.,0.));
#1262=DIRECTION('',(0.,1.,0.));
#1263=DIRECTION('',(-1.,0.,0.));
#1264=DIRECTION('',(0.,-1.,0.));
#1265=DIRECTION('',(1.,0.,0.));
#1266=DIRECTION('',(0.,-1.,0.));
#1267=DIRECTION('',(-1.,0.,0.));
#1268=DIRECTION('',(0.,-1.,0.));
#1269=DIRECTION('center_axis',(1.,0.,0.));
#1270=DIRECTION('ref_axis',(0.,0.,-1.));
#1271=DIRECTION('',(0.,0.,-1.));
#1272=DIRECTION('',(0.,1.,0.));
#1273=DIRECTION('',(0.,0.,1.));
#1274=DIRECTION('center_axis',(0.,-1.,0.));
#1275=DIRECTION('ref_axis',(0.,0.,-1.));
#1276=DIRECTION('center_axis',(0.,-1.,0.));
#1277=DIRECTION('ref_axis',(1.,0.,0.));
#1278=DIRECTION('',(0.,0.,-1.));
#1279=DIRECTION('',(1.,0.,0.));
#1280=DIRECTION('',(0.,0.,-1.));
#1281=DIRECTION('',(-1.,0.,0.));
#1282=DIRECTION('center_axis',(0.,-1.,0.));
#1283=DIRECTION('ref_axis',(1.,0.,0.));
#1284=DIRECTION('center_axis',(0.,1.,0.));
#1285=DIRECTION('ref_axis',(-1.83697019872103E-16,0.,-1.));
#1286=DIRECTION('center_axis',(0.,1.,0.));
#1287=DIRECTION('ref_axis',(1.,0.,0.));
#1288=DIRECTION('center_axis',(-1.,0.,0.));
#1289=DIRECTION('ref_axis',(0.,0.,1.));
#1290=DIRECTION('',(0.,0.,-1.));
#1291=DIRECTION('',(0.,0.,-1.));
#1292=DIRECTION('',(0.,-1.,0.));
#1293=DIRECTION('',(0.,0.,-1.));
#1294=DIRECTION('center_axis',(-1.,0.,0.));
#1295=DIRECTION('ref_axis',(0.,0.,1.));
#1296=DIRECTION('',(0.,0.,-1.));
#1297=DIRECTION('',(0.,1.,0.));
#1298=DIRECTION('',(0.,0.,-1.));
#1299=DIRECTION('center_axis',(0.,-1.,0.));
#1300=DIRECTION('ref_axis',(0.,0.,-1.));
#1301=DIRECTION('',(1.,0.,0.));
#1302=DIRECTION('',(0.,0.,-1.));
#1303=DIRECTION('',(-1.,0.,0.));
#1304=DIRECTION('center_axis',(0.,0.,1.));
#1305=DIRECTION('ref_axis',(1.,0.,0.));
#1306=DIRECTION('',(0.,-1.,0.));
#1307=DIRECTION('',(1.,0.,0.));
#1308=DIRECTION('center_axis',(0.,1.,0.));
#1309=DIRECTION('ref_axis',(0.,0.,1.));
#1310=DIRECTION('',(0.,0.,-1.));
#1311=DIRECTION('',(-1.,0.,0.));
#1312=DIRECTION('center_axis',(0.,1.,0.));
#1313=DIRECTION('ref_axis',(1.,0.,0.));
#1314=DIRECTION('center_axis',(1.,0.,0.));
#1315=DIRECTION('ref_axis',(0.,0.,-1.));
#1316=DIRECTION('',(0.,1.,0.));
#1317=DIRECTION('center_axis',(-1.,0.,0.));
#1318=DIRECTION('ref_axis',(0.,0.,1.));
#1319=DIRECTION('',(0.,0.,-1.));
#1320=DIRECTION('',(0.,1.,0.));
#1321=DIRECTION('',(0.,0.,-1.));
#1322=DIRECTION('center_axis',(0.,-1.,0.));
#1323=DIRECTION('ref_axis',(0.,0.,-1.));
#1324=DIRECTION('center_axis',(0.,-1.,0.));
#1325=DIRECTION('ref_axis',(1.,0.,0.));
#1326=DIRECTION('',(1.,0.,0.));
#1327=DIRECTION('',(0.,0.,-1.));
#1328=DIRECTION('',(-1.,0.,0.));
#1329=DIRECTION('center_axis',(0.,0.,1.));
#1330=DIRECTION('ref_axis',(1.,0.,0.));
#1331=DIRECTION('',(0.,-1.,0.));
#1332=DIRECTION('',(1.,0.,0.));
#1333=DIRECTION('center_axis',(0.,1.,0.));
#1334=DIRECTION('ref_axis',(0.,0.,1.));
#1335=DIRECTION('',(0.,0.,-1.));
#1336=DIRECTION('',(-1.,0.,0.));
#1337=DIRECTION('center_axis',(1.,0.,0.));
#1338=DIRECTION('ref_axis',(0.,0.,-1.));
#1339=DIRECTION('',(0.,1.,0.));
#1340=DIRECTION('center_axis',(0.,1.,0.));
#1341=DIRECTION('ref_axis',(-1.83697019872103E-16,0.,-1.));
#1342=DIRECTION('center_axis',(0.,1.,0.));
#1343=DIRECTION('ref_axis',(1.,0.,0.));
#1344=DIRECTION('center_axis',(0.,-1.,0.));
#1345=DIRECTION('ref_axis',(1.,0.,0.));
#1346=DIRECTION('center_axis',(0.,0.,1.));
#1347=DIRECTION('ref_axis',(1.,0.,0.));
#1348=DIRECTION('',(0.,1.,0.));
#1349=DIRECTION('',(1.,0.,0.));
#1350=DIRECTION('',(0.,1.,0.));
#1351=DIRECTION('',(-1.,0.,0.));
#1352=DIRECTION('',(0.,1.,0.));
#1353=DIRECTION('center_axis',(0.,1.,0.));
#1354=DIRECTION('ref_axis',(1.,0.,0.));
#1355=DIRECTION('center_axis',(0.,1.,0.));
#1356=DIRECTION('ref_axis',(1.,0.,0.));
#1357=DIRECTION('',(0.,1.,0.));
#1358=DIRECTION('center_axis',(0.,1.,0.));
#1359=DIRECTION('ref_axis',(1.,0.,0.));
#1360=DIRECTION('center_axis',(0.,1.,0.));
#1361=DIRECTION('ref_axis',(1.,0.,0.));
#1362=DIRECTION('center_axis',(0.,1.,0.));
#1363=DIRECTION('ref_axis',(1.,0.,0.));
#1364=DIRECTION('',(0.,1.,0.));
#1365=DIRECTION('center_axis',(0.,-1.,0.));
#1366=DIRECTION('ref_axis',(1.,0.,0.));
#1367=DIRECTION('center_axis',(0.,-1.,0.));
#1368=DIRECTION('ref_axis',(1.,0.,0.));
#1369=DIRECTION('center_axis',(0.,-1.,0.));
#1370=DIRECTION('ref_axis',(0.,0.,-1.));
#1371=DIRECTION('',(0.,0.,-1.));
#1372=DIRECTION('center_axis',(0.,1.,0.));
#1373=DIRECTION('ref_axis',(0.,0.,1.));
#1374=DIRECTION('',(0.,0.,1.));
#1375=DIRECTION('center_axis',(1.,0.,0.));
#1376=DIRECTION('ref_axis',(0.,0.,-1.));
#1377=DIRECTION('center_axis',(1.,0.,0.));
#1378=DIRECTION('ref_axis',(0.,0.,-1.));
#1379=DIRECTION('',(1.,0.,0.));
#1380=DIRECTION('center_axis',(-1.,0.,0.));
#1381=DIRECTION('ref_axis',(0.,0.,-1.));
#1382=DIRECTION('center_axis',(1.,0.,0.));
#1383=DIRECTION('ref_axis',(0.,0.,-1.));
#1384=DIRECTION('center_axis',(1.,0.,0.));
#1385=DIRECTION('ref_axis',(0.,0.,-1.));
#1386=DIRECTION('',(1.,0.,0.));
#1387=DIRECTION('center_axis',(-1.,0.,0.));
#1388=DIRECTION('ref_axis',(0.,0.,-1.));
#1389=DIRECTION('center_axis',(1.,0.,0.));
#1390=DIRECTION('ref_axis',(0.,0.,-1.));
#1391=DIRECTION('center_axis',(1.,0.,0.));
#1392=DIRECTION('ref_axis',(0.,0.,-1.));
#1393=DIRECTION('',(1.,0.,0.));
#1394=DIRECTION('center_axis',(-1.,0.,0.));
#1395=DIRECTION('ref_axis',(0.,0.,-1.));
#1396=DIRECTION('center_axis',(1.,0.,0.));
#1397=DIRECTION('ref_axis',(0.,0.,-1.));
#1398=DIRECTION('center_axis',(1.,0.,0.));
#1399=DIRECTION('ref_axis',(0.,0.,-1.));
#1400=DIRECTION('',(1.,0.,0.));
#1401=DIRECTION('center_axis',(-1.,0.,0.));
#1402=DIRECTION('ref_axis',(0.,0.,-1.));
#1403=DIRECTION('center_axis',(1.,0.,0.));
#1404=DIRECTION('ref_axis',(0.,0.,-1.));
#1405=DIRECTION('center_axis',(1.,0.,0.));
#1406=DIRECTION('ref_axis',(0.,0.,-1.));
#1407=DIRECTION('',(1.,0.,0.));
#1408=DIRECTION('center_axis',(-1.,0.,0.));
#1409=DIRECTION('ref_axis',(0.,0.,-1.));
#1410=DIRECTION('center_axis',(1.,0.,0.));
#1411=DIRECTION('ref_axis',(0.,0.,-1.));
#1412=DIRECTION('center_axis',(1.,0.,0.));
#1413=DIRECTION('ref_axis',(0.,0.,-1.));
#1414=DIRECTION('',(1.,0.,0.));
#1415=DIRECTION('center_axis',(-1.,0.,0.));
#1416=DIRECTION('ref_axis',(0.,0.,-1.));
#1417=DIRECTION('center_axis',(1.,0.,0.));
#1418=DIRECTION('ref_axis',(0.,0.,-1.));
#1419=DIRECTION('center_axis',(1.,0.,0.));
#1420=DIRECTION('ref_axis',(0.,0.,-1.));
#1421=DIRECTION('',(1.,0.,0.));
#1422=DIRECTION('center_axis',(-1.,0.,0.));
#1423=DIRECTION('ref_axis',(0.,0.,-1.));
#1424=DIRECTION('center_axis',(1.,0.,0.));
#1425=DIRECTION('ref_axis',(0.,0.,-1.));
#1426=DIRECTION('center_axis',(1.,0.,0.));
#1427=DIRECTION('ref_axis',(0.,0.,-1.));
#1428=DIRECTION('',(1.,0.,0.));
#1429=DIRECTION('center_axis',(-1.,0.,0.));
#1430=DIRECTION('ref_axis',(0.,0.,-1.));
#1431=DIRECTION('center_axis',(1.,0.,0.));
#1432=DIRECTION('ref_axis',(0.,0.,-1.));
#1433=DIRECTION('center_axis',(1.,0.,0.));
#1434=DIRECTION('ref_axis',(0.,0.,-1.));
#1435=DIRECTION('',(1.,0.,0.));
#1436=DIRECTION('center_axis',(-1.,0.,0.));
#1437=DIRECTION('ref_axis',(0.,0.,-1.));
#1438=DIRECTION('center_axis',(1.,0.,0.));
#1439=DIRECTION('ref_axis',(0.,0.,-1.));
#1440=DIRECTION('center_axis',(1.,0.,0.));
#1441=DIRECTION('ref_axis',(0.,0.,-1.));
#1442=DIRECTION('',(1.,0.,0.));
#1443=DIRECTION('center_axis',(-1.,0.,0.));
#1444=DIRECTION('ref_axis',(0.,0.,-1.));
#1445=DIRECTION('center_axis',(1.,0.,0.));
#1446=DIRECTION('ref_axis',(0.,0.,-1.));
#1447=DIRECTION('center_axis',(1.,0.,0.));
#1448=DIRECTION('ref_axis',(0.,0.,-1.));
#1449=DIRECTION('',(1.,0.,0.));
#1450=DIRECTION('center_axis',(-1.,0.,0.));
#1451=DIRECTION('ref_axis',(0.,0.,-1.));
#1452=DIRECTION('center_axis',(0.,0.,1.));
#1453=DIRECTION('ref_axis',(1.,0.,0.));
#1454=DIRECTION('',(-1.,0.,0.));
#1455=DIRECTION('',(0.,1.,0.));
#1456=DIRECTION('center_axis',(-1.,0.,0.));
#1457=DIRECTION('ref_axis',(0.,0.,1.));
#1458=DIRECTION('center_axis',(0.,0.,1.));
#1459=DIRECTION('ref_axis',(1.,0.,0.));
#1460=DIRECTION('',(0.,-1.,0.));
#1461=DIRECTION('',(1.,0.,0.));
#1462=DIRECTION('center_axis',(0.,1.,0.));
#1463=DIRECTION('ref_axis',(0.,0.,1.));
#1464=DIRECTION('',(0.,0.,-1.));
#1465=DIRECTION('center_axis',(1.,0.,0.));
#1466=DIRECTION('ref_axis',(0.,0.,-1.));
#1467=CARTESIAN_POINT('',(0.,0.,0.));
#1468=CARTESIAN_POINT('Origin',(674.,22.,220.));
#1469=CARTESIAN_POINT('',(671.,22.,212.));
#1470=CARTESIAN_POINT('',(677.449999999999,22.,212.));
#1471=CARTESIAN_POINT('',(671.35,22.,212.));
#1472=CARTESIAN_POINT('',(671.,22.,208.));
#1473=CARTESIAN_POINT('',(671.,22.,215.));
#1474=CARTESIAN_POINT('',(685.,22.,208.));
#1475=CARTESIAN_POINT('',(678.,22.,208.));
#1476=CARTESIAN_POINT('',(685.,22.,212.));
#1477=CARTESIAN_POINT('',(685.,22.,215.));
#1478=CARTESIAN_POINT('',(678.550000000001,22.,212.));
#1479=CARTESIAN_POINT('',(671.35,22.,212.));
#1480=CARTESIAN_POINT('Origin',(678.,22.,215.));
#1481=CARTESIAN_POINT('Origin',(685.,0.,215.));
#1482=CARTESIAN_POINT('',(685.,-16.,212.));
#1483=CARTESIAN_POINT('',(685.,-9.29956990181155E-30,212.));
#1484=CARTESIAN_POINT('',(685.,-22.,208.));
#1485=CARTESIAN_POINT('',(685.,0.,208.));
#1486=CARTESIAN_POINT('',(685.,-22.,209.));
#1487=CARTESIAN_POINT('',(685.,-22.,215.));
#1488=CARTESIAN_POINT('',(685.,-16.,209.));
#1489=CARTESIAN_POINT('',(685.,-9.5,209.));
#1490=CARTESIAN_POINT('',(685.,-16.,216.25));
#1491=CARTESIAN_POINT('Origin',(687.,-16.,217.5));
#1492=CARTESIAN_POINT('',(692.,-16.,212.));
#1493=CARTESIAN_POINT('',(677.85,-16.,212.));
#1494=CARTESIAN_POINT('',(692.,-16.,209.));
#1495=CARTESIAN_POINT('',(687.,-16.,209.));
#1496=CARTESIAN_POINT('',(692.,-16.,228.75));
#1497=CARTESIAN_POINT('Origin',(678.,0.,208.));
#1498=CARTESIAN_POINT('',(671.,-22.,208.));
#1499=CARTESIAN_POINT('',(671.,0.,208.));
#1500=CARTESIAN_POINT('',(678.,-22.,208.));
#1501=CARTESIAN_POINT('Origin',(671.,0.,215.));
#1502=CARTESIAN_POINT('',(671.,-22.,212.));
#1503=CARTESIAN_POINT('',(671.,-1.31220924994881E-30,212.));
#1504=CARTESIAN_POINT('',(671.,-22.,215.));
#1505=CARTESIAN_POINT('Origin',(687.,-19.,209.));
#1506=CARTESIAN_POINT('',(692.,-22.,209.));
#1507=CARTESIAN_POINT('',(692.,14.,209.));
#1508=CARTESIAN_POINT('',(687.,-22.,209.));
#1509=CARTESIAN_POINT('Origin',(674.,-22.,226.125));
#1510=CARTESIAN_POINT('',(677.45,-22.,212.));
#1511=CARTESIAN_POINT('',(671.35,-22.,212.));
#1512=CARTESIAN_POINT('',(678.55,-22.,212.));
#1513=CARTESIAN_POINT('Origin',(678.,-22.,215.));
#1514=CARTESIAN_POINT('',(692.,-22.,212.));
#1515=CARTESIAN_POINT('',(671.35,-22.,212.));
#1516=CARTESIAN_POINT('',(692.,-22.,233.0625));
#1517=CARTESIAN_POINT('Origin',(678.,0.,215.));
#1518=CARTESIAN_POINT('',(678.55,33.,212.));
#1519=CARTESIAN_POINT('',(678.55,0.,212.));
#1520=CARTESIAN_POINT('',(677.45,33.,212.));
#1521=CARTESIAN_POINT('Origin',(678.,33.,215.));
#1522=CARTESIAN_POINT('',(677.45,0.,212.));
#1523=CARTESIAN_POINT('Origin',(678.,0.,215.));
#1524=CARTESIAN_POINT('',(677.45,-33.,212.));
#1525=CARTESIAN_POINT('',(677.45,0.,212.));
#1526=CARTESIAN_POINT('',(678.55,-33.,212.));
#1527=CARTESIAN_POINT('Origin',(678.,-33.,215.));
#1528=CARTESIAN_POINT('',(678.55,0.,212.));
#1529=CARTESIAN_POINT('Origin',(668.7,0.,212.));
#1530=CARTESIAN_POINT('',(686.,-33.,212.));
#1531=CARTESIAN_POINT('',(673.85,-33.,212.));
#1532=CARTESIAN_POINT('',(686.,-38.,212.));
#1533=CARTESIAN_POINT('',(686.,-17.75,212.));
#1534=CARTESIAN_POINT('',(678.55,-38.,212.));
#1535=CARTESIAN_POINT('',(673.85,-38.,212.));
#1536=CARTESIAN_POINT('',(678.55,-44.,212.));
#1537=CARTESIAN_POINT('',(678.55,0.,212.));
#1538=CARTESIAN_POINT('',(692.,-44.,212.));
#1539=CARTESIAN_POINT('',(668.7,-44.,212.));
#1540=CARTESIAN_POINT('',(692.,0.,212.));
#1541=CARTESIAN_POINT('Origin',(668.7,0.,212.));
#1542=CARTESIAN_POINT('',(692.,44.,212.));
#1543=CARTESIAN_POINT('',(692.,0.,212.));
#1544=CARTESIAN_POINT('',(678.55,44.,212.));
#1545=CARTESIAN_POINT('',(668.7,44.,212.));
#1546=CARTESIAN_POINT('',(678.55,38.,212.));
#1547=CARTESIAN_POINT('',(678.55,0.,212.));
#1548=CARTESIAN_POINT('',(686.,38.,212.));
#1549=CARTESIAN_POINT('',(673.85,38.,212.));
#1550=CARTESIAN_POINT('',(686.,33.,212.));
#1551=CARTESIAN_POINT('',(686.,17.75,212.));
#1552=CARTESIAN_POINT('',(673.85,33.,212.));
#1553=CARTESIAN_POINT('Origin',(668.7,0.,268.));
#1554=CARTESIAN_POINT('',(678.55,44.,268.));
#1555=CARTESIAN_POINT('',(678.55,50.,268.));
#1556=CARTESIAN_POINT('',(678.55,0.,268.));
#1557=CARTESIAN_POINT('',(692.,44.,268.));
#1558=CARTESIAN_POINT('',(668.7,44.,268.));
#1559=CARTESIAN_POINT('',(692.,50.,268.));
#1560=CARTESIAN_POINT('',(692.,23.5,268.));
#1561=CARTESIAN_POINT('',(655.05,50.,268.));
#1562=CARTESIAN_POINT('Origin',(668.7,0.,268.));
#1563=CARTESIAN_POINT('',(692.,-44.,268.));
#1564=CARTESIAN_POINT('',(692.,-50.,268.));
#1565=CARTESIAN_POINT('',(692.,23.5,268.));
#1566=CARTESIAN_POINT('',(678.55,-44.,268.));
#1567=CARTESIAN_POINT('',(668.7,-44.,268.));
#1568=CARTESIAN_POINT('',(678.55,-50.,268.));
#1569=CARTESIAN_POINT('',(678.55,0.,268.));
#1570=CARTESIAN_POINT('',(655.05,-50.,268.));
#1571=CARTESIAN_POINT('Origin',(668.7,0.,268.));
#1572=CARTESIAN_POINT('',(644.9,50.,268.));
#1573=CARTESIAN_POINT('',(677.45,50.,268.));
#1574=CARTESIAN_POINT('',(655.05,50.,268.));
#1575=CARTESIAN_POINT('',(644.9,-50.,268.));
#1576=CARTESIAN_POINT('',(644.9,0.,268.));
#1577=CARTESIAN_POINT('',(677.45,-50.,268.));
#1578=CARTESIAN_POINT('',(655.05,-50.,268.));
#1579=CARTESIAN_POINT('',(677.45,-44.,268.));
#1580=CARTESIAN_POINT('',(677.45,0.,268.));
#1581=CARTESIAN_POINT('',(645.4,-44.,268.));
#1582=CARTESIAN_POINT('',(668.7,-44.,268.));
#1583=CARTESIAN_POINT('',(645.4,44.,268.));
#1584=CARTESIAN_POINT('',(645.4,0.,268.));
#1585=CARTESIAN_POINT('',(677.45,44.,268.));
#1586=CARTESIAN_POINT('',(668.7,44.,268.));
#1587=CARTESIAN_POINT('',(677.45,0.,268.));
#1588=CARTESIAN_POINT('Origin',(644.9,0.,271.25));
#1589=CARTESIAN_POINT('',(644.9,50.,274.));
#1590=CARTESIAN_POINT('',(644.9,50.,255.625));
#1591=CARTESIAN_POINT('',(644.9,-50.,274.));
#1592=CARTESIAN_POINT('',(644.9,0.,274.));
#1593=CARTESIAN_POINT('',(644.9,-50.,255.625));
#1594=CARTESIAN_POINT('Origin',(641.4,50.,240.));
#1595=CARTESIAN_POINT('Origin',(678.,50.,265.));
#1596=CARTESIAN_POINT('',(692.,50.,206.));
#1597=CARTESIAN_POINT('',(692.,50.,240.));
#1598=CARTESIAN_POINT('',(637.4,50.,206.));
#1599=CARTESIAN_POINT('',(668.7,50.,206.));
#1600=CARTESIAN_POINT('',(637.4,50.,274.));
#1601=CARTESIAN_POINT('',(637.4,50.,240.));
#1602=CARTESIAN_POINT('',(641.4,50.,274.));
#1603=CARTESIAN_POINT('',(674.95,50.,215.));
#1604=CARTESIAN_POINT('Origin',(678.,50.,215.));
#1605=CARTESIAN_POINT('Origin',(678.,0.,265.));
#1606=CARTESIAN_POINT('Origin',(678.,44.,265.));
#1607=CARTESIAN_POINT('Origin',(692.,47.,240.));
#1608=CARTESIAN_POINT('',(692.,-44.,240.));
#1609=CARTESIAN_POINT('',(692.,-50.,206.));
#1610=CARTESIAN_POINT('',(692.,-50.,240.));
#1611=CARTESIAN_POINT('',(692.,47.,206.));
#1612=CARTESIAN_POINT('',(692.,44.,240.));
#1613=CARTESIAN_POINT('Origin',(686.,-35.5,215.));
#1614=CARTESIAN_POINT('',(686.,-33.,224.));
#1615=CARTESIAN_POINT('',(686.,-33.,215.));
#1616=CARTESIAN_POINT('',(686.,-38.,224.));
#1617=CARTESIAN_POINT('',(686.,-35.5,224.));
#1618=CARTESIAN_POINT('',(686.,-38.,215.));
#1619=CARTESIAN_POINT('Origin',(679.,-33.,215.));
#1620=CARTESIAN_POINT('',(672.,-33.,212.));
#1621=CARTESIAN_POINT('',(673.85,-33.,212.));
#1622=CARTESIAN_POINT('',(672.,-33.,224.));
#1623=CARTESIAN_POINT('',(672.,-33.,215.));
#1624=CARTESIAN_POINT('',(679.,-33.,224.));
#1625=CARTESIAN_POINT('Origin',(679.,-35.5,224.));
#1626=CARTESIAN_POINT('',(672.,-38.,224.));
#1627=CARTESIAN_POINT('',(672.,-35.5,224.));
#1628=CARTESIAN_POINT('',(679.,-38.,224.));
#1629=CARTESIAN_POINT('Origin',(679.,-38.,215.));
#1630=CARTESIAN_POINT('',(672.,-38.,212.));
#1631=CARTESIAN_POINT('',(672.,-38.,215.));
#1632=CARTESIAN_POINT('',(677.45,-38.,212.));
#1633=CARTESIAN_POINT('',(673.85,-38.,212.));
#1634=CARTESIAN_POINT('Origin',(678.,-38.,215.));
#1635=CARTESIAN_POINT('Origin',(672.,-35.5,215.));
#1636=CARTESIAN_POINT('',(672.,-17.75,212.));
#1637=CARTESIAN_POINT('Origin',(686.,35.5,215.));
#1638=CARTESIAN_POINT('',(686.,38.,224.));
#1639=CARTESIAN_POINT('',(686.,38.,215.));
#1640=CARTESIAN_POINT('',(686.,33.,224.));
#1641=CARTESIAN_POINT('',(686.,35.5,224.));
#1642=CARTESIAN_POINT('',(686.,33.,215.));
#1643=CARTESIAN_POINT('Origin',(679.,38.,215.));
#1644=CARTESIAN_POINT('',(677.45,38.,212.));
#1645=CARTESIAN_POINT('Origin',(678.,38.,215.));
#1646=CARTESIAN_POINT('',(672.,38.,212.));
#1647=CARTESIAN_POINT('',(673.85,38.,212.));
#1648=CARTESIAN_POINT('',(672.,38.,224.));
#1649=CARTESIAN_POINT('',(672.,38.,215.));
#1650=CARTESIAN_POINT('',(679.,38.,224.));
#1651=CARTESIAN_POINT('Origin',(679.,35.5,224.));
#1652=CARTESIAN_POINT('',(672.,33.,224.));
#1653=CARTESIAN_POINT('',(672.,35.5,224.));
#1654=CARTESIAN_POINT('',(679.,33.,224.));
#1655=CARTESIAN_POINT('Origin',(679.,33.,215.));
#1656=CARTESIAN_POINT('',(672.,33.,212.));
#1657=CARTESIAN_POINT('',(672.,33.,215.));
#1658=CARTESIAN_POINT('',(673.85,33.,212.));
#1659=CARTESIAN_POINT('Origin',(672.,35.5,215.));
#1660=CARTESIAN_POINT('',(672.,17.75,212.));
#1661=CARTESIAN_POINT('Origin',(678.,0.,265.));
#1662=CARTESIAN_POINT('Origin',(678.,-50.,265.));
#1663=CARTESIAN_POINT('Origin',(678.,-44.,265.));
#1664=CARTESIAN_POINT('Origin',(668.7,0.,212.));
#1665=CARTESIAN_POINT('',(677.45,44.,212.));
#1666=CARTESIAN_POINT('',(677.45,0.,212.));
#1667=CARTESIAN_POINT('',(645.4,44.,212.));
#1668=CARTESIAN_POINT('',(668.7,44.,212.));
#1669=CARTESIAN_POINT('',(645.4,-44.,212.));
#1670=CARTESIAN_POINT('',(645.4,0.,212.));
#1671=CARTESIAN_POINT('',(677.45,-44.,212.));
#1672=CARTESIAN_POINT('',(668.7,-44.,212.));
#1673=CARTESIAN_POINT('',(677.45,0.,212.));
#1674=CARTESIAN_POINT('Origin',(678.,0.,215.));
#1675=CARTESIAN_POINT('',(674.95,44.,215.));
#1676=CARTESIAN_POINT('Origin',(678.,44.,215.));
#1677=CARTESIAN_POINT('',(674.95,0.,215.));
#1678=CARTESIAN_POINT('Origin',(678.,44.,215.));
#1679=CARTESIAN_POINT('Origin',(678.,0.,215.));
#1680=CARTESIAN_POINT('',(674.95,-50.,215.));
#1681=CARTESIAN_POINT('Origin',(678.,-50.,215.));
#1682=CARTESIAN_POINT('',(674.95,-44.,215.));
#1683=CARTESIAN_POINT('',(674.95,0.,215.));
#1684=CARTESIAN_POINT('Origin',(678.,-44.,215.));
#1685=CARTESIAN_POINT('Origin',(678.,-44.,215.));
#1686=CARTESIAN_POINT('Origin',(668.7,-44.,240.));
#1687=CARTESIAN_POINT('',(645.4,-44.,240.));
#1688=CARTESIAN_POINT('Origin',(668.7,44.,240.));
#1689=CARTESIAN_POINT('',(645.4,44.,240.));
#1690=CARTESIAN_POINT('Origin',(643.4,15.5,255.5));
#1691=CARTESIAN_POINT('',(637.4,15.5,257.2));
#1692=CARTESIAN_POINT('Origin',(637.4,15.5,255.5));
#1693=CARTESIAN_POINT('',(645.4,15.5,257.2));
#1694=CARTESIAN_POINT('',(643.4,15.5,257.2));
#1695=CARTESIAN_POINT('Origin',(645.4,15.5,255.5));
#1696=CARTESIAN_POINT('Origin',(643.4,15.5,224.5));
#1697=CARTESIAN_POINT('',(637.4,15.5,226.2));
#1698=CARTESIAN_POINT('Origin',(637.4,15.5,224.5));
#1699=CARTESIAN_POINT('',(645.4,15.5,226.2));
#1700=CARTESIAN_POINT('',(643.4,15.5,226.2));
#1701=CARTESIAN_POINT('Origin',(645.4,15.5,224.5));
#1702=CARTESIAN_POINT('Origin',(643.4,-15.5,255.5));
#1703=CARTESIAN_POINT('',(637.4,-15.5,257.2));
#1704=CARTESIAN_POINT('Origin',(637.4,-15.5,255.5));
#1705=CARTESIAN_POINT('',(645.4,-15.5,257.2));
#1706=CARTESIAN_POINT('',(643.4,-15.5,257.2));
#1707=CARTESIAN_POINT('Origin',(645.4,-15.5,255.5));
#1708=CARTESIAN_POINT('Origin',(643.4,-15.5,224.5));
#1709=CARTESIAN_POINT('',(637.4,-15.5,226.2));
#1710=CARTESIAN_POINT('Origin',(637.4,-15.5,224.5));
#1711=CARTESIAN_POINT('',(645.4,-15.5,226.2));
#1712=CARTESIAN_POINT('',(643.4,-15.5,226.2));
#1713=CARTESIAN_POINT('Origin',(645.4,-15.5,224.5));
#1714=CARTESIAN_POINT('Origin',(641.4,11.5,220.081415712958));
#1715=CARTESIAN_POINT('',(637.4,11.5,222.381415712958));
#1716=CARTESIAN_POINT('Origin',(637.4,11.5,220.081415712958));
#1717=CARTESIAN_POINT('',(645.4,11.5,222.381415712958));
#1718=CARTESIAN_POINT('',(641.4,11.5,222.381415712958));
#1719=CARTESIAN_POINT('Origin',(645.4,11.5,220.081415712958));
#1720=CARTESIAN_POINT('Origin',(641.4,-11.5,220.081415712958));
#1721=CARTESIAN_POINT('',(637.4,-11.5,222.381415712958));
#1722=CARTESIAN_POINT('Origin',(637.4,-11.5,220.081415712958));
#1723=CARTESIAN_POINT('',(645.4,-11.5,222.381415712958));
#1724=CARTESIAN_POINT('',(641.4,-11.5,222.381415712958));
#1725=CARTESIAN_POINT('Origin',(645.4,-11.5,220.081415712958));
#1726=CARTESIAN_POINT('Origin',(641.4,-23.,240.));
#1727=CARTESIAN_POINT('',(637.4,-23.,242.3));
#1728=CARTESIAN_POINT('Origin',(637.4,-23.,240.));
#1729=CARTESIAN_POINT('',(645.4,-23.,242.3));
#1730=CARTESIAN_POINT('',(641.4,-23.,242.3));
#1731=CARTESIAN_POINT('Origin',(645.4,-23.,240.));
#1732=CARTESIAN_POINT('Origin',(641.4,-11.5,259.918584287042));
#1733=CARTESIAN_POINT('',(637.4,-11.5,262.218584287042));
#1734=CARTESIAN_POINT('Origin',(637.4,-11.5,259.918584287042));
#1735=CARTESIAN_POINT('',(645.4,-11.5,262.218584287042));
#1736=CARTESIAN_POINT('',(641.4,-11.5,262.218584287042));
#1737=CARTESIAN_POINT('Origin',(645.4,-11.5,259.918584287042));
#1738=CARTESIAN_POINT('Origin',(641.4,11.5,259.918584287042));
#1739=CARTESIAN_POINT('',(637.4,11.5,262.218584287042));
#1740=CARTESIAN_POINT('Origin',(637.4,11.5,259.918584287042));
#1741=CARTESIAN_POINT('',(645.4,11.5,262.218584287042));
#1742=CARTESIAN_POINT('',(641.4,11.5,262.218584287042));
#1743=CARTESIAN_POINT('Origin',(645.4,11.5,259.918584287042));
#1744=CARTESIAN_POINT('Origin',(641.4,23.,240.));
#1745=CARTESIAN_POINT('',(637.4,23.,242.3));
#1746=CARTESIAN_POINT('Origin',(637.4,23.,240.));
#1747=CARTESIAN_POINT('',(645.4,23.,242.3));
#1748=CARTESIAN_POINT('',(641.4,23.,242.3));
#1749=CARTESIAN_POINT('Origin',(645.4,23.,240.));
#1750=CARTESIAN_POINT('Origin',(641.4,0.,240.));
#1751=CARTESIAN_POINT('',(637.4,-1.10218211923262E-15,249.));
#1752=CARTESIAN_POINT('Origin',(637.4,0.,240.));
#1753=CARTESIAN_POINT('',(645.4,1.10218211923262E-15,249.));
#1754=CARTESIAN_POINT('',(641.4,-1.10218211923262E-15,249.));
#1755=CARTESIAN_POINT('Origin',(645.4,0.,240.));
#1756=CARTESIAN_POINT('Origin',(641.4,0.,206.));
#1757=CARTESIAN_POINT('',(637.4,-50.,206.));
#1758=CARTESIAN_POINT('',(668.7,-50.,206.));
#1759=CARTESIAN_POINT('',(637.4,0.,206.));
#1760=CARTESIAN_POINT('Origin',(645.4,0.,240.));
#1761=CARTESIAN_POINT('Origin',(641.4,0.,274.));
#1762=CARTESIAN_POINT('',(637.4,-50.,274.));
#1763=CARTESIAN_POINT('',(637.4,0.,274.));
#1764=CARTESIAN_POINT('',(668.7,-50.,274.));
#1765=CARTESIAN_POINT('Origin',(641.4,-50.,240.));
#1766=CARTESIAN_POINT('',(637.4,-50.,240.));
#1767=CARTESIAN_POINT('Origin',(637.4,0.,240.));
#1768=UNCERTAINTY_MEASURE_WITH_UNIT(LENGTH_MEASURE(0.01),#1772,
'DISTANCE_ACCURACY_VALUE',
'Maximum model space distance between geometric entities at asserted c
onnectivities');
#1769=UNCERTAINTY_MEASURE_WITH_UNIT(LENGTH_MEASURE(0.01),#1772,
'DISTANCE_ACCURACY_VALUE',
'Maximum model space distance between geometric entities at asserted c
onnectivities');
#1770=(
GEOMETRIC_REPRESENTATION_CONTEXT(3)
GLOBAL_UNCERTAINTY_ASSIGNED_CONTEXT((#1768))
GLOBAL_UNIT_ASSIGNED_CONTEXT((#1772,#1774,#1775))
REPRESENTATION_CONTEXT('','3D')
);
#1771=(
GEOMETRIC_REPRESENTATION_CONTEXT(3)
GLOBAL_UNCERTAINTY_ASSIGNED_CONTEXT((#1769))
GLOBAL_UNIT_ASSIGNED_CONTEXT((#1772,#1774,#1775))
REPRESENTATION_CONTEXT('','3D')
);
#1772=(
LENGTH_UNIT()
NAMED_UNIT(*)
SI_UNIT(.MILLI.,.METRE.)
);
#1773=(
LENGTH_UNIT()
NAMED_UNIT(*)
SI_UNIT($,.METRE.)
);
#1774=(
NAMED_UNIT(*)
PLANE_ANGLE_UNIT()
SI_UNIT($,.RADIAN.)
);
#1775=(
NAMED_UNIT(*)
SI_UNIT($,.STERADIAN.)
SOLID_ANGLE_UNIT()
);
#1776=SHAPE_DEFINITION_REPRESENTATION(#1777,#1778);
#1777=PRODUCT_DEFINITION_SHAPE('',$,#1780);
#1778=SHAPE_REPRESENTATION('',(#1088),#1770);
#1779=PRODUCT_DEFINITION_CONTEXT('part definition',#1784,'design');
#1780=PRODUCT_DEFINITION('2026-09-05-17-15-24-870',
'TMP_V033_P801_EXPORT',#1781,#1779);
#1781=PRODUCT_DEFINITION_FORMATION('',$,#1786);
#1782=PRODUCT_RELATED_PRODUCT_CATEGORY('TMP_V033_P801_EXPORT',
'TMP_V033_P801_EXPORT',(#1786));
#1783=APPLICATION_PROTOCOL_DEFINITION('international standard',
'automotive_design',2009,#1784);
#1784=APPLICATION_CONTEXT(
'Core Data for Automotive Mechanical Design Process');
#1785=PRODUCT_CONTEXT('part definition',#1784,'mechanical');
#1786=PRODUCT('2026-09-05-17-15-24-870','TMP_V033_P801_EXPORT',$,(#1785));
#1787=PRESENTATION_STYLE_ASSIGNMENT((#1788));
#1788=SURFACE_STYLE_USAGE(.BOTH.,#1789);
#1789=SURFACE_SIDE_STYLE('',(#1790));
#1790=SURFACE_STYLE_FILL_AREA(#1791);
#1791=FILL_AREA_STYLE('Steel - Satin',(#1792));
#1792=FILL_AREA_STYLE_COLOUR('Steel - Satin',#1793);
#1793=COLOUR_RGB('Steel - Satin',0.627450980392157,0.627450980392157,0.627450980392157);
ENDSEC;
END-ISO-10303-21;
