ISO-10303-21;
HEADER;
/* Generated by software containing ST-Developer
 * from STEP Tools, Inc. (www.steptools.com) 
 */

FILE_DESCRIPTION(
/* description */ (''),
/* implementation_level */ '2;1');

FILE_NAME(
/* name */ 'PRINT_V010Q_P803_JawCarriage_A.step',
/* time_stamp */ '2026-08-12T23:05:57+02:00',
/* author */ (''),
/* organization */ (''),
/* preprocessor_version */ 'ST-DEVELOPER v20.1',
/* originating_system */ 'Autodesk Translation Framework v15.8.0.0',
/* authorisation */ '');

FILE_SCHEMA (('AUTOMOTIVE_DESIGN { 1 0 10303 214 3 1 1 }'));
ENDSEC;

DATA;
#10=MECHANICAL_DESIGN_GEOMETRIC_PRESENTATION_REPRESENTATION('',(#13),#2095);
#11=SHAPE_REPRESENTATION_RELATIONSHIP('SRR','None',#2102,#12);
#12=ADVANCED_BREP_SHAPE_REPRESENTATION('',(#14),#2094);
#13=STYLED_ITEM('',(#2111),#14);
#14=MANIFOLD_SOLID_BREP('PRINT_V010Q_P803_JawCarriage_A',#1313);
#15=FACE_BOUND('',#108,.T.);
#16=FACE_BOUND('',#118,.T.);
#17=FACE_BOUND('',#119,.T.);
#18=FACE_BOUND('',#160,.T.);
#19=CYLINDRICAL_SURFACE('',#1338,1.7);
#20=CYLINDRICAL_SURFACE('',#1342,1.7);
#21=CYLINDRICAL_SURFACE('',#1351,3.05);
#22=CIRCLE('',#1336,1.7);
#23=CIRCLE('',#1337,1.7);
#24=CIRCLE('',#1339,1.7);
#25=CIRCLE('',#1340,1.7);
#26=CIRCLE('',#1343,1.7);
#27=CIRCLE('',#1344,1.7);
#28=CIRCLE('',#1349,3.05);
#29=CIRCLE('',#1352,3.05);
#30=FACE_OUTER_BOUND('',#94,.T.);
#31=FACE_OUTER_BOUND('',#95,.T.);
#32=FACE_OUTER_BOUND('',#96,.T.);
#33=FACE_OUTER_BOUND('',#97,.T.);
#34=FACE_OUTER_BOUND('',#98,.T.);
#35=FACE_OUTER_BOUND('',#99,.T.);
#36=FACE_OUTER_BOUND('',#100,.T.);
#37=FACE_OUTER_BOUND('',#101,.T.);
#38=FACE_OUTER_BOUND('',#102,.T.);
#39=FACE_OUTER_BOUND('',#103,.T.);
#40=FACE_OUTER_BOUND('',#104,.T.);
#41=FACE_OUTER_BOUND('',#105,.T.);
#42=FACE_OUTER_BOUND('',#106,.T.);
#43=FACE_OUTER_BOUND('',#107,.T.);
#44=FACE_OUTER_BOUND('',#109,.T.);
#45=FACE_OUTER_BOUND('',#110,.T.);
#46=FACE_OUTER_BOUND('',#111,.T.);
#47=FACE_OUTER_BOUND('',#112,.T.);
#48=FACE_OUTER_BOUND('',#113,.T.);
#49=FACE_OUTER_BOUND('',#114,.T.);
#50=FACE_OUTER_BOUND('',#115,.T.);
#51=FACE_OUTER_BOUND('',#116,.T.);
#52=FACE_OUTER_BOUND('',#117,.T.);
#53=FACE_OUTER_BOUND('',#120,.T.);
#54=FACE_OUTER_BOUND('',#121,.T.);
#55=FACE_OUTER_BOUND('',#122,.T.);
#56=FACE_OUTER_BOUND('',#123,.T.);
#57=FACE_OUTER_BOUND('',#124,.T.);
#58=FACE_OUTER_BOUND('',#125,.T.);
#59=FACE_OUTER_BOUND('',#126,.T.);
#60=FACE_OUTER_BOUND('',#127,.T.);
#61=FACE_OUTER_BOUND('',#128,.T.);
#62=FACE_OUTER_BOUND('',#129,.T.);
#63=FACE_OUTER_BOUND('',#130,.T.);
#64=FACE_OUTER_BOUND('',#131,.T.);
#65=FACE_OUTER_BOUND('',#132,.T.);
#66=FACE_OUTER_BOUND('',#133,.T.);
#67=FACE_OUTER_BOUND('',#134,.T.);
#68=FACE_OUTER_BOUND('',#135,.T.);
#69=FACE_OUTER_BOUND('',#136,.T.);
#70=FACE_OUTER_BOUND('',#137,.T.);
#71=FACE_OUTER_BOUND('',#138,.T.);
#72=FACE_OUTER_BOUND('',#139,.T.);
#73=FACE_OUTER_BOUND('',#140,.T.);
#74=FACE_OUTER_BOUND('',#141,.T.);
#75=FACE_OUTER_BOUND('',#142,.T.);
#76=FACE_OUTER_BOUND('',#143,.T.);
#77=FACE_OUTER_BOUND('',#144,.T.);
#78=FACE_OUTER_BOUND('',#145,.T.);
#79=FACE_OUTER_BOUND('',#146,.T.);
#80=FACE_OUTER_BOUND('',#147,.T.);
#81=FACE_OUTER_BOUND('',#148,.T.);
#82=FACE_OUTER_BOUND('',#149,.T.);
#83=FACE_OUTER_BOUND('',#150,.T.);
#84=FACE_OUTER_BOUND('',#151,.T.);
#85=FACE_OUTER_BOUND('',#152,.T.);
#86=FACE_OUTER_BOUND('',#153,.T.);
#87=FACE_OUTER_BOUND('',#154,.T.);
#88=FACE_OUTER_BOUND('',#155,.T.);
#89=FACE_OUTER_BOUND('',#156,.T.);
#90=FACE_OUTER_BOUND('',#157,.T.);
#91=FACE_OUTER_BOUND('',#158,.T.);
#92=FACE_OUTER_BOUND('',#159,.T.);
#93=FACE_OUTER_BOUND('',#161,.T.);
#94=EDGE_LOOP('',(#820,#821,#822,#823));
#95=EDGE_LOOP('',(#824,#825,#826,#827));
#96=EDGE_LOOP('',(#828,#829,#830,#831,#832,#833));
#97=EDGE_LOOP('',(#834,#835,#836,#837,#838));
#98=EDGE_LOOP('',(#839,#840,#841,#842));
#99=EDGE_LOOP('',(#843,#844,#845,#846,#847));
#100=EDGE_LOOP('',(#848,#849,#850,#851));
#101=EDGE_LOOP('',(#852,#853,#854,#855));
#102=EDGE_LOOP('',(#856,#857,#858));
#103=EDGE_LOOP('',(#859,#860,#861,#862,#863,#864,#865,#866));
#104=EDGE_LOOP('',(#867,#868,#869,#870,#871,#872,#873,#874,#875));
#105=EDGE_LOOP('',(#876,#877,#878,#879));
#106=EDGE_LOOP('',(#880,#881,#882,#883));
#107=EDGE_LOOP('',(#884,#885,#886,#887,#888,#889));
#108=EDGE_LOOP('',(#890));
#109=EDGE_LOOP('',(#891,#892,#893,#894));
#110=EDGE_LOOP('',(#895,#896));
#111=EDGE_LOOP('',(#897,#898,#899,#900,#901,#902));
#112=EDGE_LOOP('',(#903,#904,#905,#906));
#113=EDGE_LOOP('',(#907,#908,#909,#910));
#114=EDGE_LOOP('',(#911,#912,#913,#914));
#115=EDGE_LOOP('',(#915,#916,#917,#918));
#116=EDGE_LOOP('',(#919,#920,#921,#922,#923,#924,#925,#926));
#117=EDGE_LOOP('',(#927,#928,#929,#930));
#118=EDGE_LOOP('',(#931));
#119=EDGE_LOOP('',(#932));
#120=EDGE_LOOP('',(#933,#934,#935,#936,#937,#938,#939,#940,#941,#942,#943,
#944,#945,#946));
#121=EDGE_LOOP('',(#947,#948,#949,#950,#951,#952,#953,#954,#955,#956,#957,
#958,#959,#960,#961,#962,#963,#964,#965,#966,#967,#968,#969,#970,#971,#972,
#973,#974,#975,#976,#977,#978,#979,#980,#981,#982,#983,#984,#985,#986,#987,
#988));
#122=EDGE_LOOP('',(#989,#990,#991,#992,#993));
#123=EDGE_LOOP('',(#994,#995,#996,#997));
#124=EDGE_LOOP('',(#998,#999,#1000,#1001));
#125=EDGE_LOOP('',(#1002,#1003,#1004,#1005));
#126=EDGE_LOOP('',(#1006,#1007,#1008,#1009));
#127=EDGE_LOOP('',(#1010,#1011,#1012,#1013));
#128=EDGE_LOOP('',(#1014,#1015,#1016,#1017));
#129=EDGE_LOOP('',(#1018,#1019,#1020,#1021));
#130=EDGE_LOOP('',(#1022,#1023,#1024,#1025));
#131=EDGE_LOOP('',(#1026,#1027,#1028,#1029));
#132=EDGE_LOOP('',(#1030,#1031,#1032,#1033));
#133=EDGE_LOOP('',(#1034,#1035,#1036,#1037));
#134=EDGE_LOOP('',(#1038,#1039,#1040,#1041));
#135=EDGE_LOOP('',(#1042,#1043,#1044,#1045));
#136=EDGE_LOOP('',(#1046,#1047,#1048,#1049));
#137=EDGE_LOOP('',(#1050,#1051,#1052,#1053));
#138=EDGE_LOOP('',(#1054,#1055,#1056,#1057));
#139=EDGE_LOOP('',(#1058,#1059,#1060,#1061));
#140=EDGE_LOOP('',(#1062,#1063,#1064,#1065));
#141=EDGE_LOOP('',(#1066,#1067,#1068,#1069));
#142=EDGE_LOOP('',(#1070,#1071,#1072,#1073));
#143=EDGE_LOOP('',(#1074,#1075,#1076,#1077));
#144=EDGE_LOOP('',(#1078,#1079,#1080,#1081));
#145=EDGE_LOOP('',(#1082,#1083,#1084,#1085));
#146=EDGE_LOOP('',(#1086,#1087,#1088,#1089));
#147=EDGE_LOOP('',(#1090,#1091,#1092,#1093));
#148=EDGE_LOOP('',(#1094,#1095,#1096,#1097));
#149=EDGE_LOOP('',(#1098,#1099,#1100,#1101));
#150=EDGE_LOOP('',(#1102,#1103,#1104,#1105));
#151=EDGE_LOOP('',(#1106,#1107,#1108,#1109));
#152=EDGE_LOOP('',(#1110,#1111,#1112,#1113));
#153=EDGE_LOOP('',(#1114,#1115,#1116,#1117));
#154=EDGE_LOOP('',(#1118,#1119,#1120,#1121));
#155=EDGE_LOOP('',(#1122,#1123,#1124,#1125));
#156=EDGE_LOOP('',(#1126,#1127,#1128,#1129));
#157=EDGE_LOOP('',(#1130,#1131,#1132,#1133));
#158=EDGE_LOOP('',(#1134,#1135,#1136,#1137));
#159=EDGE_LOOP('',(#1138,#1139,#1140,#1141,#1142,#1143,#1144,#1145));
#160=EDGE_LOOP('',(#1146,#1147));
#161=EDGE_LOOP('',(#1148,#1149,#1150,#1151,#1152,#1153,#1154,#1155,#1156,
#1157,#1158,#1159,#1160,#1161,#1162,#1163,#1164,#1165,#1166,#1167,#1168,
#1169,#1170,#1171,#1172,#1173,#1174,#1175,#1176,#1177,#1178,#1179,#1180,
#1181,#1182,#1183,#1184,#1185,#1186,#1187));
#162=LINE('',#1725,#338);
#163=LINE('',#1727,#339);
#164=LINE('',#1729,#340);
#165=LINE('',#1730,#341);
#166=LINE('',#1734,#342);
#167=LINE('',#1736,#343);
#168=LINE('',#1738,#344);
#169=LINE('',#1739,#345);
#170=LINE('',#1743,#346);
#171=LINE('',#1744,#347);
#172=LINE('',#1746,#348);
#173=LINE('',#1748,#349);
#174=LINE('',#1749,#350);
#175=LINE('',#1751,#351);
#176=LINE('',#1752,#352);
#177=LINE('',#1754,#353);
#178=LINE('',#1756,#354);
#179=LINE('',#1760,#355);
#180=LINE('',#1762,#356);
#181=LINE('',#1764,#357);
#182=LINE('',#1765,#358);
#183=LINE('',#1769,#359);
#184=LINE('',#1771,#360);
#185=LINE('',#1773,#361);
#186=LINE('',#1774,#362);
#187=LINE('',#1778,#363);
#188=LINE('',#1784,#364);
#189=LINE('',#1787,#365);
#190=LINE('',#1789,#366);
#191=LINE('',#1793,#367);
#192=LINE('',#1795,#368);
#193=LINE('',#1796,#369);
#194=LINE('',#1798,#370);
#195=LINE('',#1799,#371);
#196=LINE('',#1804,#372);
#197=LINE('',#1809,#373);
#198=LINE('',#1811,#374);
#199=LINE('',#1813,#375);
#200=LINE('',#1814,#376);
#201=LINE('',#1816,#377);
#202=LINE('',#1817,#378);
#203=LINE('',#1821,#379);
#204=LINE('',#1823,#380);
#205=LINE('',#1825,#381);
#206=LINE('',#1826,#382);
#207=LINE('',#1831,#383);
#208=LINE('',#1833,#384);
#209=LINE('',#1835,#385);
#210=LINE('',#1837,#386);
#211=LINE('',#1838,#387);
#212=LINE('',#1843,#388);
#213=LINE('',#1845,#389);
#214=LINE('',#1846,#390);
#215=LINE('',#1848,#391);
#216=LINE('',#1849,#392);
#217=LINE('',#1852,#393);
#218=LINE('',#1854,#394);
#219=LINE('',#1855,#395);
#220=LINE('',#1857,#396);
#221=LINE('',#1858,#397);
#222=LINE('',#1860,#398);
#223=LINE('',#1863,#399);
#224=LINE('',#1864,#400);
#225=LINE('',#1867,#401);
#226=LINE('',#1869,#402);
#227=LINE('',#1871,#403);
#228=LINE('',#1873,#404);
#229=LINE('',#1875,#405);
#230=LINE('',#1877,#406);
#231=LINE('',#1879,#407);
#232=LINE('',#1881,#408);
#233=LINE('',#1883,#409);
#234=LINE('',#1885,#410);
#235=LINE('',#1887,#411);
#236=LINE('',#1889,#412);
#237=LINE('',#1891,#413);
#238=LINE('',#1893,#414);
#239=LINE('',#1895,#415);
#240=LINE('',#1897,#416);
#241=LINE('',#1899,#417);
#242=LINE('',#1901,#418);
#243=LINE('',#1903,#419);
#244=LINE('',#1905,#420);
#245=LINE('',#1907,#421);
#246=LINE('',#1909,#422);
#247=LINE('',#1911,#423);
#248=LINE('',#1913,#424);
#249=LINE('',#1915,#425);
#250=LINE('',#1917,#426);
#251=LINE('',#1919,#427);
#252=LINE('',#1921,#428);
#253=LINE('',#1923,#429);
#254=LINE('',#1925,#430);
#255=LINE('',#1927,#431);
#256=LINE('',#1929,#432);
#257=LINE('',#1931,#433);
#258=LINE('',#1933,#434);
#259=LINE('',#1935,#435);
#260=LINE('',#1937,#436);
#261=LINE('',#1939,#437);
#262=LINE('',#1940,#438);
#263=LINE('',#1943,#439);
#264=LINE('',#1944,#440);
#265=LINE('',#1947,#441);
#266=LINE('',#1948,#442);
#267=LINE('',#1951,#443);
#268=LINE('',#1952,#444);
#269=LINE('',#1955,#445);
#270=LINE('',#1956,#446);
#271=LINE('',#1959,#447);
#272=LINE('',#1960,#448);
#273=LINE('',#1963,#449);
#274=LINE('',#1964,#450);
#275=LINE('',#1967,#451);
#276=LINE('',#1968,#452);
#277=LINE('',#1971,#453);
#278=LINE('',#1972,#454);
#279=LINE('',#1975,#455);
#280=LINE('',#1976,#456);
#281=LINE('',#1979,#457);
#282=LINE('',#1980,#458);
#283=LINE('',#1983,#459);
#284=LINE('',#1984,#460);
#285=LINE('',#1987,#461);
#286=LINE('',#1988,#462);
#287=LINE('',#1991,#463);
#288=LINE('',#1992,#464);
#289=LINE('',#1995,#465);
#290=LINE('',#1996,#466);
#291=LINE('',#1999,#467);
#292=LINE('',#2000,#468);
#293=LINE('',#2003,#469);
#294=LINE('',#2004,#470);
#295=LINE('',#2007,#471);
#296=LINE('',#2008,#472);
#297=LINE('',#2011,#473);
#298=LINE('',#2012,#474);
#299=LINE('',#2015,#475);
#300=LINE('',#2016,#476);
#301=LINE('',#2019,#477);
#302=LINE('',#2020,#478);
#303=LINE('',#2023,#479);
#304=LINE('',#2024,#480);
#305=LINE('',#2027,#481);
#306=LINE('',#2028,#482);
#307=LINE('',#2031,#483);
#308=LINE('',#2032,#484);
#309=LINE('',#2035,#485);
#310=LINE('',#2036,#486);
#311=LINE('',#2039,#487);
#312=LINE('',#2040,#488);
#313=LINE('',#2043,#489);
#314=LINE('',#2044,#490);
#315=LINE('',#2047,#491);
#316=LINE('',#2048,#492);
#317=LINE('',#2051,#493);
#318=LINE('',#2052,#494);
#319=LINE('',#2055,#495);
#320=LINE('',#2056,#496);
#321=LINE('',#2059,#497);
#322=LINE('',#2060,#498);
#323=LINE('',#2063,#499);
#324=LINE('',#2064,#500);
#325=LINE('',#2067,#501);
#326=LINE('',#2068,#502);
#327=LINE('',#2071,#503);
#328=LINE('',#2072,#504);
#329=LINE('',#2075,#505);
#330=LINE('',#2076,#506);
#331=LINE('',#2079,#507);
#332=LINE('',#2080,#508);
#333=LINE('',#2083,#509);
#334=LINE('',#2084,#510);
#335=LINE('',#2087,#511);
#336=LINE('',#2088,#512);
#337=LINE('',#2090,#513);
#338=VECTOR('',#1403,10.);
#339=VECTOR('',#1404,10.);
#340=VECTOR('',#1405,10.);
#341=VECTOR('',#1406,10.);
#342=VECTOR('',#1409,10.);
#343=VECTOR('',#1410,10.);
#344=VECTOR('',#1411,10.);
#345=VECTOR('',#1412,10.);
#346=VECTOR('',#1415,10.);
#347=VECTOR('',#1416,10.);
#348=VECTOR('',#1417,10.);
#349=VECTOR('',#1418,10.);
#350=VECTOR('',#1419,10.);
#351=VECTOR('',#1422,10.);
#352=VECTOR('',#1423,10.);
#353=VECTOR('',#1426,10.);
#354=VECTOR('',#1429,10.);
#355=VECTOR('',#1432,10.);
#356=VECTOR('',#1433,10.);
#357=VECTOR('',#1434,10.);
#358=VECTOR('',#1435,10.);
#359=VECTOR('',#1438,10.);
#360=VECTOR('',#1439,10.);
#361=VECTOR('',#1440,10.);
#362=VECTOR('',#1441,10.);
#363=VECTOR('',#1444,10.);
#364=VECTOR('',#1451,10.);
#365=VECTOR('',#1454,10.);
#366=VECTOR('',#1455,1.7);
#367=VECTOR('',#1460,10.);
#368=VECTOR('',#1461,10.);
#369=VECTOR('',#1462,10.);
#370=VECTOR('',#1463,10.);
#371=VECTOR('',#1464,10.);
#372=VECTOR('',#1469,1.7);
#373=VECTOR('',#1474,10.);
#374=VECTOR('',#1475,10.);
#375=VECTOR('',#1476,10.);
#376=VECTOR('',#1477,10.);
#377=VECTOR('',#1480,10.);
#378=VECTOR('',#1481,10.);
#379=VECTOR('',#1484,10.);
#380=VECTOR('',#1485,10.);
#381=VECTOR('',#1486,10.);
#382=VECTOR('',#1487,10.);
#383=VECTOR('',#1494,10.);
#384=VECTOR('',#1495,10.);
#385=VECTOR('',#1496,10.);
#386=VECTOR('',#1497,10.);
#387=VECTOR('',#1498,10.);
#388=VECTOR('',#1505,10.);
#389=VECTOR('',#1506,10.);
#390=VECTOR('',#1507,10.);
#391=VECTOR('',#1510,10.);
#392=VECTOR('',#1511,10.);
#393=VECTOR('',#1514,10.);
#394=VECTOR('',#1515,10.);
#395=VECTOR('',#1516,10.);
#396=VECTOR('',#1519,10.);
#397=VECTOR('',#1520,10.);
#398=VECTOR('',#1523,10.);
#399=VECTOR('',#1526,10.);
#400=VECTOR('',#1527,10.);
#401=VECTOR('',#1530,10.);
#402=VECTOR('',#1531,10.);
#403=VECTOR('',#1532,10.);
#404=VECTOR('',#1533,10.);
#405=VECTOR('',#1534,10.);
#406=VECTOR('',#1535,10.);
#407=VECTOR('',#1536,10.);
#408=VECTOR('',#1537,10.);
#409=VECTOR('',#1538,10.);
#410=VECTOR('',#1539,10.);
#411=VECTOR('',#1540,10.);
#412=VECTOR('',#1541,10.);
#413=VECTOR('',#1542,10.);
#414=VECTOR('',#1543,10.);
#415=VECTOR('',#1544,10.);
#416=VECTOR('',#1545,10.);
#417=VECTOR('',#1546,10.);
#418=VECTOR('',#1547,10.);
#419=VECTOR('',#1548,10.);
#420=VECTOR('',#1549,10.);
#421=VECTOR('',#1550,10.);
#422=VECTOR('',#1551,10.);
#423=VECTOR('',#1552,10.);
#424=VECTOR('',#1553,10.);
#425=VECTOR('',#1554,10.);
#426=VECTOR('',#1555,10.);
#427=VECTOR('',#1556,10.);
#428=VECTOR('',#1557,10.);
#429=VECTOR('',#1558,10.);
#430=VECTOR('',#1559,10.);
#431=VECTOR('',#1560,10.);
#432=VECTOR('',#1561,10.);
#433=VECTOR('',#1562,10.);
#434=VECTOR('',#1563,10.);
#435=VECTOR('',#1564,10.);
#436=VECTOR('',#1565,10.);
#437=VECTOR('',#1566,10.);
#438=VECTOR('',#1567,10.);
#439=VECTOR('',#1570,10.);
#440=VECTOR('',#1571,10.);
#441=VECTOR('',#1574,10.);
#442=VECTOR('',#1575,10.);
#443=VECTOR('',#1578,10.);
#444=VECTOR('',#1579,10.);
#445=VECTOR('',#1582,10.);
#446=VECTOR('',#1583,10.);
#447=VECTOR('',#1586,10.);
#448=VECTOR('',#1587,10.);
#449=VECTOR('',#1590,10.);
#450=VECTOR('',#1591,10.);
#451=VECTOR('',#1594,10.);
#452=VECTOR('',#1595,10.);
#453=VECTOR('',#1598,10.);
#454=VECTOR('',#1599,10.);
#455=VECTOR('',#1602,10.);
#456=VECTOR('',#1603,10.);
#457=VECTOR('',#1606,10.);
#458=VECTOR('',#1607,10.);
#459=VECTOR('',#1610,10.);
#460=VECTOR('',#1611,10.);
#461=VECTOR('',#1614,10.);
#462=VECTOR('',#1615,10.);
#463=VECTOR('',#1618,10.);
#464=VECTOR('',#1619,10.);
#465=VECTOR('',#1622,10.);
#466=VECTOR('',#1623,10.);
#467=VECTOR('',#1626,10.);
#468=VECTOR('',#1627,10.);
#469=VECTOR('',#1630,10.);
#470=VECTOR('',#1631,10.);
#471=VECTOR('',#1634,10.);
#472=VECTOR('',#1635,10.);
#473=VECTOR('',#1638,10.);
#474=VECTOR('',#1639,10.);
#475=VECTOR('',#1642,10.);
#476=VECTOR('',#1643,10.);
#477=VECTOR('',#1646,10.);
#478=VECTOR('',#1647,10.);
#479=VECTOR('',#1650,10.);
#480=VECTOR('',#1651,10.);
#481=VECTOR('',#1654,10.);
#482=VECTOR('',#1655,10.);
#483=VECTOR('',#1658,10.);
#484=VECTOR('',#1659,10.);
#485=VECTOR('',#1662,10.);
#486=VECTOR('',#1663,10.);
#487=VECTOR('',#1666,10.);
#488=VECTOR('',#1667,10.);
#489=VECTOR('',#1670,10.);
#490=VECTOR('',#1671,10.);
#491=VECTOR('',#1674,10.);
#492=VECTOR('',#1675,10.);
#493=VECTOR('',#1678,10.);
#494=VECTOR('',#1679,10.);
#495=VECTOR('',#1682,10.);
#496=VECTOR('',#1683,10.);
#497=VECTOR('',#1686,10.);
#498=VECTOR('',#1687,10.);
#499=VECTOR('',#1690,10.);
#500=VECTOR('',#1691,10.);
#501=VECTOR('',#1694,10.);
#502=VECTOR('',#1695,10.);
#503=VECTOR('',#1698,10.);
#504=VECTOR('',#1699,10.);
#505=VECTOR('',#1702,10.);
#506=VECTOR('',#1703,10.);
#507=VECTOR('',#1706,10.);
#508=VECTOR('',#1707,10.);
#509=VECTOR('',#1710,10.);
#510=VECTOR('',#1711,10.);
#511=VECTOR('',#1714,10.);
#512=VECTOR('',#1715,10.);
#513=VECTOR('',#1718,10.);
#514=VERTEX_POINT('',#1723);
#515=VERTEX_POINT('',#1724);
#516=VERTEX_POINT('',#1726);
#517=VERTEX_POINT('',#1728);
#518=VERTEX_POINT('',#1732);
#519=VERTEX_POINT('',#1733);
#520=VERTEX_POINT('',#1735);
#521=VERTEX_POINT('',#1737);
#522=VERTEX_POINT('',#1741);
#523=VERTEX_POINT('',#1742);
#524=VERTEX_POINT('',#1745);
#525=VERTEX_POINT('',#1747);
#526=VERTEX_POINT('',#1758);
#527=VERTEX_POINT('',#1759);
#528=VERTEX_POINT('',#1761);
#529=VERTEX_POINT('',#1763);
#530=VERTEX_POINT('',#1767);
#531=VERTEX_POINT('',#1768);
#532=VERTEX_POINT('',#1770);
#533=VERTEX_POINT('',#1772);
#534=VERTEX_POINT('',#1776);
#535=VERTEX_POINT('',#1777);
#536=VERTEX_POINT('',#1779);
#537=VERTEX_POINT('',#1783);
#538=VERTEX_POINT('',#1785);
#539=VERTEX_POINT('',#1788);
#540=VERTEX_POINT('',#1792);
#541=VERTEX_POINT('',#1794);
#542=VERTEX_POINT('',#1797);
#543=VERTEX_POINT('',#1801);
#544=VERTEX_POINT('',#1803);
#545=VERTEX_POINT('',#1807);
#546=VERTEX_POINT('',#1808);
#547=VERTEX_POINT('',#1810);
#548=VERTEX_POINT('',#1812);
#549=VERTEX_POINT('',#1819);
#550=VERTEX_POINT('',#1820);
#551=VERTEX_POINT('',#1822);
#552=VERTEX_POINT('',#1824);
#553=VERTEX_POINT('',#1830);
#554=VERTEX_POINT('',#1832);
#555=VERTEX_POINT('',#1834);
#556=VERTEX_POINT('',#1836);
#557=VERTEX_POINT('',#1842);
#558=VERTEX_POINT('',#1844);
#559=VERTEX_POINT('',#1851);
#560=VERTEX_POINT('',#1853);
#561=VERTEX_POINT('',#1862);
#562=VERTEX_POINT('',#1866);
#563=VERTEX_POINT('',#1868);
#564=VERTEX_POINT('',#1870);
#565=VERTEX_POINT('',#1872);
#566=VERTEX_POINT('',#1874);
#567=VERTEX_POINT('',#1876);
#568=VERTEX_POINT('',#1878);
#569=VERTEX_POINT('',#1880);
#570=VERTEX_POINT('',#1882);
#571=VERTEX_POINT('',#1884);
#572=VERTEX_POINT('',#1886);
#573=VERTEX_POINT('',#1888);
#574=VERTEX_POINT('',#1890);
#575=VERTEX_POINT('',#1892);
#576=VERTEX_POINT('',#1894);
#577=VERTEX_POINT('',#1896);
#578=VERTEX_POINT('',#1898);
#579=VERTEX_POINT('',#1900);
#580=VERTEX_POINT('',#1902);
#581=VERTEX_POINT('',#1904);
#582=VERTEX_POINT('',#1906);
#583=VERTEX_POINT('',#1908);
#584=VERTEX_POINT('',#1910);
#585=VERTEX_POINT('',#1912);
#586=VERTEX_POINT('',#1914);
#587=VERTEX_POINT('',#1916);
#588=VERTEX_POINT('',#1918);
#589=VERTEX_POINT('',#1920);
#590=VERTEX_POINT('',#1922);
#591=VERTEX_POINT('',#1924);
#592=VERTEX_POINT('',#1926);
#593=VERTEX_POINT('',#1928);
#594=VERTEX_POINT('',#1930);
#595=VERTEX_POINT('',#1932);
#596=VERTEX_POINT('',#1934);
#597=VERTEX_POINT('',#1936);
#598=VERTEX_POINT('',#1938);
#599=VERTEX_POINT('',#1942);
#600=VERTEX_POINT('',#1946);
#601=VERTEX_POINT('',#1950);
#602=VERTEX_POINT('',#1954);
#603=VERTEX_POINT('',#1958);
#604=VERTEX_POINT('',#1962);
#605=VERTEX_POINT('',#1966);
#606=VERTEX_POINT('',#1970);
#607=VERTEX_POINT('',#1974);
#608=VERTEX_POINT('',#1978);
#609=VERTEX_POINT('',#1982);
#610=VERTEX_POINT('',#1986);
#611=VERTEX_POINT('',#1990);
#612=VERTEX_POINT('',#1994);
#613=VERTEX_POINT('',#1998);
#614=VERTEX_POINT('',#2002);
#615=VERTEX_POINT('',#2006);
#616=VERTEX_POINT('',#2010);
#617=VERTEX_POINT('',#2014);
#618=VERTEX_POINT('',#2018);
#619=VERTEX_POINT('',#2022);
#620=VERTEX_POINT('',#2026);
#621=VERTEX_POINT('',#2030);
#622=VERTEX_POINT('',#2034);
#623=VERTEX_POINT('',#2038);
#624=VERTEX_POINT('',#2042);
#625=VERTEX_POINT('',#2046);
#626=VERTEX_POINT('',#2050);
#627=VERTEX_POINT('',#2054);
#628=VERTEX_POINT('',#2058);
#629=VERTEX_POINT('',#2062);
#630=VERTEX_POINT('',#2066);
#631=VERTEX_POINT('',#2070);
#632=VERTEX_POINT('',#2074);
#633=VERTEX_POINT('',#2078);
#634=VERTEX_POINT('',#2082);
#635=VERTEX_POINT('',#2086);
#636=EDGE_CURVE('',#514,#515,#162,.T.);
#637=EDGE_CURVE('',#515,#516,#163,.T.);
#638=EDGE_CURVE('',#516,#517,#164,.T.);
#639=EDGE_CURVE('',#514,#517,#165,.T.);
#640=EDGE_CURVE('',#518,#519,#166,.T.);
#641=EDGE_CURVE('',#519,#520,#167,.T.);
#642=EDGE_CURVE('',#520,#521,#168,.T.);
#643=EDGE_CURVE('',#521,#518,#169,.T.);
#644=EDGE_CURVE('',#522,#523,#170,.T.);
#645=EDGE_CURVE('',#522,#520,#171,.T.);
#646=EDGE_CURVE('',#524,#519,#172,.T.);
#647=EDGE_CURVE('',#525,#524,#173,.T.);
#648=EDGE_CURVE('',#523,#525,#174,.T.);
#649=EDGE_CURVE('',#516,#521,#175,.T.);
#650=EDGE_CURVE('',#517,#522,#176,.T.);
#651=EDGE_CURVE('',#515,#518,#177,.T.);
#652=EDGE_CURVE('',#524,#514,#178,.T.);
#653=EDGE_CURVE('',#526,#527,#179,.T.);
#654=EDGE_CURVE('',#528,#526,#180,.T.);
#655=EDGE_CURVE('',#528,#529,#181,.T.);
#656=EDGE_CURVE('',#529,#527,#182,.T.);
#657=EDGE_CURVE('',#530,#531,#183,.T.);
#658=EDGE_CURVE('',#530,#532,#184,.T.);
#659=EDGE_CURVE('',#532,#533,#185,.T.);
#660=EDGE_CURVE('',#533,#531,#186,.T.);
#661=EDGE_CURVE('',#534,#535,#187,.T.);
#662=EDGE_CURVE('',#536,#534,#22,.T.);
#663=EDGE_CURVE('',#535,#536,#23,.T.);
#664=EDGE_CURVE('',#537,#534,#188,.T.);
#665=EDGE_CURVE('',#538,#537,#24,.T.);
#666=EDGE_CURVE('',#535,#538,#189,.T.);
#667=EDGE_CURVE('',#536,#539,#190,.T.);
#668=EDGE_CURVE('',#539,#539,#25,.T.);
#669=EDGE_CURVE('',#525,#540,#191,.T.);
#670=EDGE_CURVE('',#524,#541,#192,.T.);
#671=EDGE_CURVE('',#541,#537,#193,.T.);
#672=EDGE_CURVE('',#538,#542,#194,.T.);
#673=EDGE_CURVE('',#542,#540,#195,.T.);
#674=EDGE_CURVE('',#543,#543,#26,.T.);
#675=EDGE_CURVE('',#543,#544,#196,.T.);
#676=EDGE_CURVE('',#544,#544,#27,.T.);
#677=EDGE_CURVE('',#545,#546,#197,.T.);
#678=EDGE_CURVE('',#546,#547,#198,.T.);
#679=EDGE_CURVE('',#547,#548,#199,.T.);
#680=EDGE_CURVE('',#548,#545,#200,.T.);
#681=EDGE_CURVE('',#541,#548,#201,.T.);
#682=EDGE_CURVE('',#542,#547,#202,.T.);
#683=EDGE_CURVE('',#549,#550,#203,.T.);
#684=EDGE_CURVE('',#549,#551,#204,.T.);
#685=EDGE_CURVE('',#552,#551,#205,.T.);
#686=EDGE_CURVE('',#550,#552,#206,.T.);
#687=EDGE_CURVE('',#552,#550,#28,.T.);
#688=EDGE_CURVE('',#553,#528,#207,.T.);
#689=EDGE_CURVE('',#554,#553,#208,.T.);
#690=EDGE_CURVE('',#555,#554,#209,.T.);
#691=EDGE_CURVE('',#556,#555,#210,.T.);
#692=EDGE_CURVE('',#556,#529,#211,.T.);
#693=EDGE_CURVE('',#549,#551,#29,.T.);
#694=EDGE_CURVE('',#555,#557,#212,.T.);
#695=EDGE_CURVE('',#557,#558,#213,.T.);
#696=EDGE_CURVE('',#558,#556,#214,.T.);
#697=EDGE_CURVE('',#557,#533,#215,.T.);
#698=EDGE_CURVE('',#558,#532,#216,.T.);
#699=EDGE_CURVE('',#553,#559,#217,.T.);
#700=EDGE_CURVE('',#559,#560,#218,.T.);
#701=EDGE_CURVE('',#560,#554,#219,.T.);
#702=EDGE_CURVE('',#540,#526,#220,.T.);
#703=EDGE_CURVE('',#559,#546,#221,.T.);
#704=EDGE_CURVE('',#560,#545,#222,.T.);
#705=EDGE_CURVE('',#561,#522,#223,.T.);
#706=EDGE_CURVE('',#561,#531,#224,.T.);
#707=EDGE_CURVE('',#527,#562,#225,.T.);
#708=EDGE_CURVE('',#562,#563,#226,.T.);
#709=EDGE_CURVE('',#563,#564,#227,.T.);
#710=EDGE_CURVE('',#564,#565,#228,.T.);
#711=EDGE_CURVE('',#565,#566,#229,.T.);
#712=EDGE_CURVE('',#566,#567,#230,.T.);
#713=EDGE_CURVE('',#567,#568,#231,.T.);
#714=EDGE_CURVE('',#568,#569,#232,.T.);
#715=EDGE_CURVE('',#569,#570,#233,.T.);
#716=EDGE_CURVE('',#570,#571,#234,.T.);
#717=EDGE_CURVE('',#571,#572,#235,.T.);
#718=EDGE_CURVE('',#572,#573,#236,.T.);
#719=EDGE_CURVE('',#573,#574,#237,.T.);
#720=EDGE_CURVE('',#574,#575,#238,.T.);
#721=EDGE_CURVE('',#575,#576,#239,.T.);
#722=EDGE_CURVE('',#576,#577,#240,.T.);
#723=EDGE_CURVE('',#577,#578,#241,.T.);
#724=EDGE_CURVE('',#578,#579,#242,.T.);
#725=EDGE_CURVE('',#579,#580,#243,.T.);
#726=EDGE_CURVE('',#580,#581,#244,.T.);
#727=EDGE_CURVE('',#581,#582,#245,.T.);
#728=EDGE_CURVE('',#582,#583,#246,.T.);
#729=EDGE_CURVE('',#583,#584,#247,.T.);
#730=EDGE_CURVE('',#584,#585,#248,.T.);
#731=EDGE_CURVE('',#585,#586,#249,.T.);
#732=EDGE_CURVE('',#586,#587,#250,.T.);
#733=EDGE_CURVE('',#587,#588,#251,.T.);
#734=EDGE_CURVE('',#588,#589,#252,.T.);
#735=EDGE_CURVE('',#589,#590,#253,.T.);
#736=EDGE_CURVE('',#590,#591,#254,.T.);
#737=EDGE_CURVE('',#591,#592,#255,.T.);
#738=EDGE_CURVE('',#592,#593,#256,.T.);
#739=EDGE_CURVE('',#593,#594,#257,.T.);
#740=EDGE_CURVE('',#594,#595,#258,.T.);
#741=EDGE_CURVE('',#595,#596,#259,.T.);
#742=EDGE_CURVE('',#596,#597,#260,.T.);
#743=EDGE_CURVE('',#597,#598,#261,.T.);
#744=EDGE_CURVE('',#598,#523,#262,.T.);
#745=EDGE_CURVE('',#599,#561,#263,.T.);
#746=EDGE_CURVE('',#599,#598,#264,.T.);
#747=EDGE_CURVE('',#600,#599,#265,.T.);
#748=EDGE_CURVE('',#600,#597,#266,.T.);
#749=EDGE_CURVE('',#601,#600,#267,.T.);
#750=EDGE_CURVE('',#601,#596,#268,.T.);
#751=EDGE_CURVE('',#602,#601,#269,.T.);
#752=EDGE_CURVE('',#602,#595,#270,.T.);
#753=EDGE_CURVE('',#603,#602,#271,.T.);
#754=EDGE_CURVE('',#603,#594,#272,.T.);
#755=EDGE_CURVE('',#604,#603,#273,.T.);
#756=EDGE_CURVE('',#604,#593,#274,.T.);
#757=EDGE_CURVE('',#605,#604,#275,.T.);
#758=EDGE_CURVE('',#605,#592,#276,.T.);
#759=EDGE_CURVE('',#606,#605,#277,.T.);
#760=EDGE_CURVE('',#606,#591,#278,.T.);
#761=EDGE_CURVE('',#607,#606,#279,.T.);
#762=EDGE_CURVE('',#607,#590,#280,.T.);
#763=EDGE_CURVE('',#608,#607,#281,.T.);
#764=EDGE_CURVE('',#608,#589,#282,.T.);
#765=EDGE_CURVE('',#609,#608,#283,.T.);
#766=EDGE_CURVE('',#609,#588,#284,.T.);
#767=EDGE_CURVE('',#610,#609,#285,.T.);
#768=EDGE_CURVE('',#610,#587,#286,.T.);
#769=EDGE_CURVE('',#611,#610,#287,.T.);
#770=EDGE_CURVE('',#611,#586,#288,.T.);
#771=EDGE_CURVE('',#612,#611,#289,.T.);
#772=EDGE_CURVE('',#612,#585,#290,.T.);
#773=EDGE_CURVE('',#613,#612,#291,.T.);
#774=EDGE_CURVE('',#613,#584,#292,.T.);
#775=EDGE_CURVE('',#614,#613,#293,.T.);
#776=EDGE_CURVE('',#614,#583,#294,.T.);
#777=EDGE_CURVE('',#615,#614,#295,.T.);
#778=EDGE_CURVE('',#615,#582,#296,.T.);
#779=EDGE_CURVE('',#616,#615,#297,.T.);
#780=EDGE_CURVE('',#616,#581,#298,.T.);
#781=EDGE_CURVE('',#617,#616,#299,.T.);
#782=EDGE_CURVE('',#617,#580,#300,.T.);
#783=EDGE_CURVE('',#618,#617,#301,.T.);
#784=EDGE_CURVE('',#618,#579,#302,.T.);
#785=EDGE_CURVE('',#619,#618,#303,.T.);
#786=EDGE_CURVE('',#619,#578,#304,.T.);
#787=EDGE_CURVE('',#620,#619,#305,.T.);
#788=EDGE_CURVE('',#620,#577,#306,.T.);
#789=EDGE_CURVE('',#621,#620,#307,.T.);
#790=EDGE_CURVE('',#621,#576,#308,.T.);
#791=EDGE_CURVE('',#622,#621,#309,.T.);
#792=EDGE_CURVE('',#622,#575,#310,.T.);
#793=EDGE_CURVE('',#623,#622,#311,.T.);
#794=EDGE_CURVE('',#623,#574,#312,.T.);
#795=EDGE_CURVE('',#624,#623,#313,.T.);
#796=EDGE_CURVE('',#624,#573,#314,.T.);
#797=EDGE_CURVE('',#625,#624,#315,.T.);
#798=EDGE_CURVE('',#625,#572,#316,.T.);
#799=EDGE_CURVE('',#626,#625,#317,.T.);
#800=EDGE_CURVE('',#626,#571,#318,.T.);
#801=EDGE_CURVE('',#627,#626,#319,.T.);
#802=EDGE_CURVE('',#627,#570,#320,.T.);
#803=EDGE_CURVE('',#628,#627,#321,.T.);
#804=EDGE_CURVE('',#628,#569,#322,.T.);
#805=EDGE_CURVE('',#629,#628,#323,.T.);
#806=EDGE_CURVE('',#629,#568,#324,.T.);
#807=EDGE_CURVE('',#630,#629,#325,.T.);
#808=EDGE_CURVE('',#630,#567,#326,.T.);
#809=EDGE_CURVE('',#631,#630,#327,.T.);
#810=EDGE_CURVE('',#631,#566,#328,.T.);
#811=EDGE_CURVE('',#632,#631,#329,.T.);
#812=EDGE_CURVE('',#632,#565,#330,.T.);
#813=EDGE_CURVE('',#633,#632,#331,.T.);
#814=EDGE_CURVE('',#633,#564,#332,.T.);
#815=EDGE_CURVE('',#634,#633,#333,.T.);
#816=EDGE_CURVE('',#634,#563,#334,.T.);
#817=EDGE_CURVE('',#635,#634,#335,.T.);
#818=EDGE_CURVE('',#635,#562,#336,.T.);
#819=EDGE_CURVE('',#530,#635,#337,.T.);
#820=ORIENTED_EDGE('',*,*,#636,.T.);
#821=ORIENTED_EDGE('',*,*,#637,.T.);
#822=ORIENTED_EDGE('',*,*,#638,.T.);
#823=ORIENTED_EDGE('',*,*,#639,.F.);
#824=ORIENTED_EDGE('',*,*,#640,.T.);
#825=ORIENTED_EDGE('',*,*,#641,.T.);
#826=ORIENTED_EDGE('',*,*,#642,.T.);
#827=ORIENTED_EDGE('',*,*,#643,.T.);
#828=ORIENTED_EDGE('',*,*,#644,.F.);
#829=ORIENTED_EDGE('',*,*,#645,.T.);
#830=ORIENTED_EDGE('',*,*,#641,.F.);
#831=ORIENTED_EDGE('',*,*,#646,.F.);
#832=ORIENTED_EDGE('',*,*,#647,.F.);
#833=ORIENTED_EDGE('',*,*,#648,.F.);
#834=ORIENTED_EDGE('',*,*,#649,.T.);
#835=ORIENTED_EDGE('',*,*,#642,.F.);
#836=ORIENTED_EDGE('',*,*,#645,.F.);
#837=ORIENTED_EDGE('',*,*,#650,.F.);
#838=ORIENTED_EDGE('',*,*,#638,.F.);
#839=ORIENTED_EDGE('',*,*,#651,.T.);
#840=ORIENTED_EDGE('',*,*,#643,.F.);
#841=ORIENTED_EDGE('',*,*,#649,.F.);
#842=ORIENTED_EDGE('',*,*,#637,.F.);
#843=ORIENTED_EDGE('',*,*,#652,.F.);
#844=ORIENTED_EDGE('',*,*,#646,.T.);
#845=ORIENTED_EDGE('',*,*,#640,.F.);
#846=ORIENTED_EDGE('',*,*,#651,.F.);
#847=ORIENTED_EDGE('',*,*,#636,.F.);
#848=ORIENTED_EDGE('',*,*,#653,.F.);
#849=ORIENTED_EDGE('',*,*,#654,.F.);
#850=ORIENTED_EDGE('',*,*,#655,.T.);
#851=ORIENTED_EDGE('',*,*,#656,.T.);
#852=ORIENTED_EDGE('',*,*,#657,.F.);
#853=ORIENTED_EDGE('',*,*,#658,.T.);
#854=ORIENTED_EDGE('',*,*,#659,.T.);
#855=ORIENTED_EDGE('',*,*,#660,.T.);
#856=ORIENTED_EDGE('',*,*,#661,.F.);
#857=ORIENTED_EDGE('',*,*,#662,.F.);
#858=ORIENTED_EDGE('',*,*,#663,.F.);
#859=ORIENTED_EDGE('',*,*,#664,.F.);
#860=ORIENTED_EDGE('',*,*,#665,.F.);
#861=ORIENTED_EDGE('',*,*,#666,.F.);
#862=ORIENTED_EDGE('',*,*,#663,.T.);
#863=ORIENTED_EDGE('',*,*,#667,.T.);
#864=ORIENTED_EDGE('',*,*,#668,.F.);
#865=ORIENTED_EDGE('',*,*,#667,.F.);
#866=ORIENTED_EDGE('',*,*,#662,.T.);
#867=ORIENTED_EDGE('',*,*,#669,.F.);
#868=ORIENTED_EDGE('',*,*,#647,.T.);
#869=ORIENTED_EDGE('',*,*,#670,.T.);
#870=ORIENTED_EDGE('',*,*,#671,.T.);
#871=ORIENTED_EDGE('',*,*,#664,.T.);
#872=ORIENTED_EDGE('',*,*,#661,.T.);
#873=ORIENTED_EDGE('',*,*,#666,.T.);
#874=ORIENTED_EDGE('',*,*,#672,.T.);
#875=ORIENTED_EDGE('',*,*,#673,.T.);
#876=ORIENTED_EDGE('',*,*,#674,.F.);
#877=ORIENTED_EDGE('',*,*,#675,.T.);
#878=ORIENTED_EDGE('',*,*,#676,.F.);
#879=ORIENTED_EDGE('',*,*,#675,.F.);
#880=ORIENTED_EDGE('',*,*,#677,.T.);
#881=ORIENTED_EDGE('',*,*,#678,.T.);
#882=ORIENTED_EDGE('',*,*,#679,.T.);
#883=ORIENTED_EDGE('',*,*,#680,.T.);
#884=ORIENTED_EDGE('',*,*,#665,.T.);
#885=ORIENTED_EDGE('',*,*,#671,.F.);
#886=ORIENTED_EDGE('',*,*,#681,.T.);
#887=ORIENTED_EDGE('',*,*,#679,.F.);
#888=ORIENTED_EDGE('',*,*,#682,.F.);
#889=ORIENTED_EDGE('',*,*,#672,.F.);
#890=ORIENTED_EDGE('',*,*,#674,.T.);
#891=ORIENTED_EDGE('',*,*,#683,.F.);
#892=ORIENTED_EDGE('',*,*,#684,.T.);
#893=ORIENTED_EDGE('',*,*,#685,.F.);
#894=ORIENTED_EDGE('',*,*,#686,.F.);
#895=ORIENTED_EDGE('',*,*,#686,.T.);
#896=ORIENTED_EDGE('',*,*,#687,.T.);
#897=ORIENTED_EDGE('',*,*,#688,.F.);
#898=ORIENTED_EDGE('',*,*,#689,.F.);
#899=ORIENTED_EDGE('',*,*,#690,.F.);
#900=ORIENTED_EDGE('',*,*,#691,.F.);
#901=ORIENTED_EDGE('',*,*,#692,.T.);
#902=ORIENTED_EDGE('',*,*,#655,.F.);
#903=ORIENTED_EDGE('',*,*,#683,.T.);
#904=ORIENTED_EDGE('',*,*,#687,.F.);
#905=ORIENTED_EDGE('',*,*,#685,.T.);
#906=ORIENTED_EDGE('',*,*,#693,.F.);
#907=ORIENTED_EDGE('',*,*,#691,.T.);
#908=ORIENTED_EDGE('',*,*,#694,.T.);
#909=ORIENTED_EDGE('',*,*,#695,.T.);
#910=ORIENTED_EDGE('',*,*,#696,.T.);
#911=ORIENTED_EDGE('',*,*,#697,.T.);
#912=ORIENTED_EDGE('',*,*,#659,.F.);
#913=ORIENTED_EDGE('',*,*,#698,.F.);
#914=ORIENTED_EDGE('',*,*,#695,.F.);
#915=ORIENTED_EDGE('',*,*,#689,.T.);
#916=ORIENTED_EDGE('',*,*,#699,.T.);
#917=ORIENTED_EDGE('',*,*,#700,.T.);
#918=ORIENTED_EDGE('',*,*,#701,.T.);
#919=ORIENTED_EDGE('',*,*,#702,.F.);
#920=ORIENTED_EDGE('',*,*,#673,.F.);
#921=ORIENTED_EDGE('',*,*,#682,.T.);
#922=ORIENTED_EDGE('',*,*,#678,.F.);
#923=ORIENTED_EDGE('',*,*,#703,.F.);
#924=ORIENTED_EDGE('',*,*,#699,.F.);
#925=ORIENTED_EDGE('',*,*,#688,.T.);
#926=ORIENTED_EDGE('',*,*,#654,.T.);
#927=ORIENTED_EDGE('',*,*,#704,.F.);
#928=ORIENTED_EDGE('',*,*,#700,.F.);
#929=ORIENTED_EDGE('',*,*,#703,.T.);
#930=ORIENTED_EDGE('',*,*,#677,.F.);
#931=ORIENTED_EDGE('',*,*,#668,.T.);
#932=ORIENTED_EDGE('',*,*,#676,.T.);
#933=ORIENTED_EDGE('',*,*,#650,.T.);
#934=ORIENTED_EDGE('',*,*,#705,.F.);
#935=ORIENTED_EDGE('',*,*,#706,.T.);
#936=ORIENTED_EDGE('',*,*,#660,.F.);
#937=ORIENTED_EDGE('',*,*,#697,.F.);
#938=ORIENTED_EDGE('',*,*,#694,.F.);
#939=ORIENTED_EDGE('',*,*,#690,.T.);
#940=ORIENTED_EDGE('',*,*,#701,.F.);
#941=ORIENTED_EDGE('',*,*,#704,.T.);
#942=ORIENTED_EDGE('',*,*,#680,.F.);
#943=ORIENTED_EDGE('',*,*,#681,.F.);
#944=ORIENTED_EDGE('',*,*,#670,.F.);
#945=ORIENTED_EDGE('',*,*,#652,.T.);
#946=ORIENTED_EDGE('',*,*,#639,.T.);
#947=ORIENTED_EDGE('',*,*,#669,.T.);
#948=ORIENTED_EDGE('',*,*,#702,.T.);
#949=ORIENTED_EDGE('',*,*,#653,.T.);
#950=ORIENTED_EDGE('',*,*,#707,.T.);
#951=ORIENTED_EDGE('',*,*,#708,.T.);
#952=ORIENTED_EDGE('',*,*,#709,.T.);
#953=ORIENTED_EDGE('',*,*,#710,.T.);
#954=ORIENTED_EDGE('',*,*,#711,.T.);
#955=ORIENTED_EDGE('',*,*,#712,.T.);
#956=ORIENTED_EDGE('',*,*,#713,.T.);
#957=ORIENTED_EDGE('',*,*,#714,.T.);
#958=ORIENTED_EDGE('',*,*,#715,.T.);
#959=ORIENTED_EDGE('',*,*,#716,.T.);
#960=ORIENTED_EDGE('',*,*,#717,.T.);
#961=ORIENTED_EDGE('',*,*,#718,.T.);
#962=ORIENTED_EDGE('',*,*,#719,.T.);
#963=ORIENTED_EDGE('',*,*,#720,.T.);
#964=ORIENTED_EDGE('',*,*,#721,.T.);
#965=ORIENTED_EDGE('',*,*,#722,.T.);
#966=ORIENTED_EDGE('',*,*,#723,.T.);
#967=ORIENTED_EDGE('',*,*,#724,.T.);
#968=ORIENTED_EDGE('',*,*,#725,.T.);
#969=ORIENTED_EDGE('',*,*,#726,.T.);
#970=ORIENTED_EDGE('',*,*,#727,.T.);
#971=ORIENTED_EDGE('',*,*,#728,.T.);
#972=ORIENTED_EDGE('',*,*,#729,.T.);
#973=ORIENTED_EDGE('',*,*,#730,.T.);
#974=ORIENTED_EDGE('',*,*,#731,.T.);
#975=ORIENTED_EDGE('',*,*,#732,.T.);
#976=ORIENTED_EDGE('',*,*,#733,.T.);
#977=ORIENTED_EDGE('',*,*,#734,.T.);
#978=ORIENTED_EDGE('',*,*,#735,.T.);
#979=ORIENTED_EDGE('',*,*,#736,.T.);
#980=ORIENTED_EDGE('',*,*,#737,.T.);
#981=ORIENTED_EDGE('',*,*,#738,.T.);
#982=ORIENTED_EDGE('',*,*,#739,.T.);
#983=ORIENTED_EDGE('',*,*,#740,.T.);
#984=ORIENTED_EDGE('',*,*,#741,.T.);
#985=ORIENTED_EDGE('',*,*,#742,.T.);
#986=ORIENTED_EDGE('',*,*,#743,.T.);
#987=ORIENTED_EDGE('',*,*,#744,.T.);
#988=ORIENTED_EDGE('',*,*,#648,.T.);
#989=ORIENTED_EDGE('',*,*,#745,.T.);
#990=ORIENTED_EDGE('',*,*,#705,.T.);
#991=ORIENTED_EDGE('',*,*,#644,.T.);
#992=ORIENTED_EDGE('',*,*,#744,.F.);
#993=ORIENTED_EDGE('',*,*,#746,.F.);
#994=ORIENTED_EDGE('',*,*,#747,.T.);
#995=ORIENTED_EDGE('',*,*,#746,.T.);
#996=ORIENTED_EDGE('',*,*,#743,.F.);
#997=ORIENTED_EDGE('',*,*,#748,.F.);
#998=ORIENTED_EDGE('',*,*,#749,.T.);
#999=ORIENTED_EDGE('',*,*,#748,.T.);
#1000=ORIENTED_EDGE('',*,*,#742,.F.);
#1001=ORIENTED_EDGE('',*,*,#750,.F.);
#1002=ORIENTED_EDGE('',*,*,#751,.T.);
#1003=ORIENTED_EDGE('',*,*,#750,.T.);
#1004=ORIENTED_EDGE('',*,*,#741,.F.);
#1005=ORIENTED_EDGE('',*,*,#752,.F.);
#1006=ORIENTED_EDGE('',*,*,#753,.T.);
#1007=ORIENTED_EDGE('',*,*,#752,.T.);
#1008=ORIENTED_EDGE('',*,*,#740,.F.);
#1009=ORIENTED_EDGE('',*,*,#754,.F.);
#1010=ORIENTED_EDGE('',*,*,#755,.T.);
#1011=ORIENTED_EDGE('',*,*,#754,.T.);
#1012=ORIENTED_EDGE('',*,*,#739,.F.);
#1013=ORIENTED_EDGE('',*,*,#756,.F.);
#1014=ORIENTED_EDGE('',*,*,#757,.T.);
#1015=ORIENTED_EDGE('',*,*,#756,.T.);
#1016=ORIENTED_EDGE('',*,*,#738,.F.);
#1017=ORIENTED_EDGE('',*,*,#758,.F.);
#1018=ORIENTED_EDGE('',*,*,#759,.T.);
#1019=ORIENTED_EDGE('',*,*,#758,.T.);
#1020=ORIENTED_EDGE('',*,*,#737,.F.);
#1021=ORIENTED_EDGE('',*,*,#760,.F.);
#1022=ORIENTED_EDGE('',*,*,#761,.T.);
#1023=ORIENTED_EDGE('',*,*,#760,.T.);
#1024=ORIENTED_EDGE('',*,*,#736,.F.);
#1025=ORIENTED_EDGE('',*,*,#762,.F.);
#1026=ORIENTED_EDGE('',*,*,#763,.T.);
#1027=ORIENTED_EDGE('',*,*,#762,.T.);
#1028=ORIENTED_EDGE('',*,*,#735,.F.);
#1029=ORIENTED_EDGE('',*,*,#764,.F.);
#1030=ORIENTED_EDGE('',*,*,#765,.T.);
#1031=ORIENTED_EDGE('',*,*,#764,.T.);
#1032=ORIENTED_EDGE('',*,*,#734,.F.);
#1033=ORIENTED_EDGE('',*,*,#766,.F.);
#1034=ORIENTED_EDGE('',*,*,#767,.T.);
#1035=ORIENTED_EDGE('',*,*,#766,.T.);
#1036=ORIENTED_EDGE('',*,*,#733,.F.);
#1037=ORIENTED_EDGE('',*,*,#768,.F.);
#1038=ORIENTED_EDGE('',*,*,#769,.T.);
#1039=ORIENTED_EDGE('',*,*,#768,.T.);
#1040=ORIENTED_EDGE('',*,*,#732,.F.);
#1041=ORIENTED_EDGE('',*,*,#770,.F.);
#1042=ORIENTED_EDGE('',*,*,#771,.T.);
#1043=ORIENTED_EDGE('',*,*,#770,.T.);
#1044=ORIENTED_EDGE('',*,*,#731,.F.);
#1045=ORIENTED_EDGE('',*,*,#772,.F.);
#1046=ORIENTED_EDGE('',*,*,#773,.T.);
#1047=ORIENTED_EDGE('',*,*,#772,.T.);
#1048=ORIENTED_EDGE('',*,*,#730,.F.);
#1049=ORIENTED_EDGE('',*,*,#774,.F.);
#1050=ORIENTED_EDGE('',*,*,#775,.T.);
#1051=ORIENTED_EDGE('',*,*,#774,.T.);
#1052=ORIENTED_EDGE('',*,*,#729,.F.);
#1053=ORIENTED_EDGE('',*,*,#776,.F.);
#1054=ORIENTED_EDGE('',*,*,#777,.T.);
#1055=ORIENTED_EDGE('',*,*,#776,.T.);
#1056=ORIENTED_EDGE('',*,*,#728,.F.);
#1057=ORIENTED_EDGE('',*,*,#778,.F.);
#1058=ORIENTED_EDGE('',*,*,#779,.T.);
#1059=ORIENTED_EDGE('',*,*,#778,.T.);
#1060=ORIENTED_EDGE('',*,*,#727,.F.);
#1061=ORIENTED_EDGE('',*,*,#780,.F.);
#1062=ORIENTED_EDGE('',*,*,#781,.T.);
#1063=ORIENTED_EDGE('',*,*,#780,.T.);
#1064=ORIENTED_EDGE('',*,*,#726,.F.);
#1065=ORIENTED_EDGE('',*,*,#782,.F.);
#1066=ORIENTED_EDGE('',*,*,#783,.T.);
#1067=ORIENTED_EDGE('',*,*,#782,.T.);
#1068=ORIENTED_EDGE('',*,*,#725,.F.);
#1069=ORIENTED_EDGE('',*,*,#784,.F.);
#1070=ORIENTED_EDGE('',*,*,#785,.T.);
#1071=ORIENTED_EDGE('',*,*,#784,.T.);
#1072=ORIENTED_EDGE('',*,*,#724,.F.);
#1073=ORIENTED_EDGE('',*,*,#786,.F.);
#1074=ORIENTED_EDGE('',*,*,#787,.T.);
#1075=ORIENTED_EDGE('',*,*,#786,.T.);
#1076=ORIENTED_EDGE('',*,*,#723,.F.);
#1077=ORIENTED_EDGE('',*,*,#788,.F.);
#1078=ORIENTED_EDGE('',*,*,#789,.T.);
#1079=ORIENTED_EDGE('',*,*,#788,.T.);
#1080=ORIENTED_EDGE('',*,*,#722,.F.);
#1081=ORIENTED_EDGE('',*,*,#790,.F.);
#1082=ORIENTED_EDGE('',*,*,#791,.T.);
#1083=ORIENTED_EDGE('',*,*,#790,.T.);
#1084=ORIENTED_EDGE('',*,*,#721,.F.);
#1085=ORIENTED_EDGE('',*,*,#792,.F.);
#1086=ORIENTED_EDGE('',*,*,#793,.T.);
#1087=ORIENTED_EDGE('',*,*,#792,.T.);
#1088=ORIENTED_EDGE('',*,*,#720,.F.);
#1089=ORIENTED_EDGE('',*,*,#794,.F.);
#1090=ORIENTED_EDGE('',*,*,#795,.T.);
#1091=ORIENTED_EDGE('',*,*,#794,.T.);
#1092=ORIENTED_EDGE('',*,*,#719,.F.);
#1093=ORIENTED_EDGE('',*,*,#796,.F.);
#1094=ORIENTED_EDGE('',*,*,#797,.T.);
#1095=ORIENTED_EDGE('',*,*,#796,.T.);
#1096=ORIENTED_EDGE('',*,*,#718,.F.);
#1097=ORIENTED_EDGE('',*,*,#798,.F.);
#1098=ORIENTED_EDGE('',*,*,#799,.T.);
#1099=ORIENTED_EDGE('',*,*,#798,.T.);
#1100=ORIENTED_EDGE('',*,*,#717,.F.);
#1101=ORIENTED_EDGE('',*,*,#800,.F.);
#1102=ORIENTED_EDGE('',*,*,#801,.T.);
#1103=ORIENTED_EDGE('',*,*,#800,.T.);
#1104=ORIENTED_EDGE('',*,*,#716,.F.);
#1105=ORIENTED_EDGE('',*,*,#802,.F.);
#1106=ORIENTED_EDGE('',*,*,#803,.T.);
#1107=ORIENTED_EDGE('',*,*,#802,.T.);
#1108=ORIENTED_EDGE('',*,*,#715,.F.);
#1109=ORIENTED_EDGE('',*,*,#804,.F.);
#1110=ORIENTED_EDGE('',*,*,#805,.T.);
#1111=ORIENTED_EDGE('',*,*,#804,.T.);
#1112=ORIENTED_EDGE('',*,*,#714,.F.);
#1113=ORIENTED_EDGE('',*,*,#806,.F.);
#1114=ORIENTED_EDGE('',*,*,#807,.T.);
#1115=ORIENTED_EDGE('',*,*,#806,.T.);
#1116=ORIENTED_EDGE('',*,*,#713,.F.);
#1117=ORIENTED_EDGE('',*,*,#808,.F.);
#1118=ORIENTED_EDGE('',*,*,#809,.T.);
#1119=ORIENTED_EDGE('',*,*,#808,.T.);
#1120=ORIENTED_EDGE('',*,*,#712,.F.);
#1121=ORIENTED_EDGE('',*,*,#810,.F.);
#1122=ORIENTED_EDGE('',*,*,#811,.T.);
#1123=ORIENTED_EDGE('',*,*,#810,.T.);
#1124=ORIENTED_EDGE('',*,*,#711,.F.);
#1125=ORIENTED_EDGE('',*,*,#812,.F.);
#1126=ORIENTED_EDGE('',*,*,#813,.T.);
#1127=ORIENTED_EDGE('',*,*,#812,.T.);
#1128=ORIENTED_EDGE('',*,*,#710,.F.);
#1129=ORIENTED_EDGE('',*,*,#814,.F.);
#1130=ORIENTED_EDGE('',*,*,#815,.T.);
#1131=ORIENTED_EDGE('',*,*,#814,.T.);
#1132=ORIENTED_EDGE('',*,*,#709,.F.);
#1133=ORIENTED_EDGE('',*,*,#816,.F.);
#1134=ORIENTED_EDGE('',*,*,#817,.T.);
#1135=ORIENTED_EDGE('',*,*,#816,.T.);
#1136=ORIENTED_EDGE('',*,*,#708,.F.);
#1137=ORIENTED_EDGE('',*,*,#818,.F.);
#1138=ORIENTED_EDGE('',*,*,#819,.T.);
#1139=ORIENTED_EDGE('',*,*,#818,.T.);
#1140=ORIENTED_EDGE('',*,*,#707,.F.);
#1141=ORIENTED_EDGE('',*,*,#656,.F.);
#1142=ORIENTED_EDGE('',*,*,#692,.F.);
#1143=ORIENTED_EDGE('',*,*,#696,.F.);
#1144=ORIENTED_EDGE('',*,*,#698,.T.);
#1145=ORIENTED_EDGE('',*,*,#658,.F.);
#1146=ORIENTED_EDGE('',*,*,#693,.T.);
#1147=ORIENTED_EDGE('',*,*,#684,.F.);
#1148=ORIENTED_EDGE('',*,*,#706,.F.);
#1149=ORIENTED_EDGE('',*,*,#745,.F.);
#1150=ORIENTED_EDGE('',*,*,#747,.F.);
#1151=ORIENTED_EDGE('',*,*,#749,.F.);
#1152=ORIENTED_EDGE('',*,*,#751,.F.);
#1153=ORIENTED_EDGE('',*,*,#753,.F.);
#1154=ORIENTED_EDGE('',*,*,#755,.F.);
#1155=ORIENTED_EDGE('',*,*,#757,.F.);
#1156=ORIENTED_EDGE('',*,*,#759,.F.);
#1157=ORIENTED_EDGE('',*,*,#761,.F.);
#1158=ORIENTED_EDGE('',*,*,#763,.F.);
#1159=ORIENTED_EDGE('',*,*,#765,.F.);
#1160=ORIENTED_EDGE('',*,*,#767,.F.);
#1161=ORIENTED_EDGE('',*,*,#769,.F.);
#1162=ORIENTED_EDGE('',*,*,#771,.F.);
#1163=ORIENTED_EDGE('',*,*,#773,.F.);
#1164=ORIENTED_EDGE('',*,*,#775,.F.);
#1165=ORIENTED_EDGE('',*,*,#777,.F.);
#1166=ORIENTED_EDGE('',*,*,#779,.F.);
#1167=ORIENTED_EDGE('',*,*,#781,.F.);
#1168=ORIENTED_EDGE('',*,*,#783,.F.);
#1169=ORIENTED_EDGE('',*,*,#785,.F.);
#1170=ORIENTED_EDGE('',*,*,#787,.F.);
#1171=ORIENTED_EDGE('',*,*,#789,.F.);
#1172=ORIENTED_EDGE('',*,*,#791,.F.);
#1173=ORIENTED_EDGE('',*,*,#793,.F.);
#1174=ORIENTED_EDGE('',*,*,#795,.F.);
#1175=ORIENTED_EDGE('',*,*,#797,.F.);
#1176=ORIENTED_EDGE('',*,*,#799,.F.);
#1177=ORIENTED_EDGE('',*,*,#801,.F.);
#1178=ORIENTED_EDGE('',*,*,#803,.F.);
#1179=ORIENTED_EDGE('',*,*,#805,.F.);
#1180=ORIENTED_EDGE('',*,*,#807,.F.);
#1181=ORIENTED_EDGE('',*,*,#809,.F.);
#1182=ORIENTED_EDGE('',*,*,#811,.F.);
#1183=ORIENTED_EDGE('',*,*,#813,.F.);
#1184=ORIENTED_EDGE('',*,*,#815,.F.);
#1185=ORIENTED_EDGE('',*,*,#817,.F.);
#1186=ORIENTED_EDGE('',*,*,#819,.F.);
#1187=ORIENTED_EDGE('',*,*,#657,.T.);
#1188=PLANE('',#1327);
#1189=PLANE('',#1328);
#1190=PLANE('',#1329);
#1191=PLANE('',#1330);
#1192=PLANE('',#1331);
#1193=PLANE('',#1332);
#1194=PLANE('',#1333);
#1195=PLANE('',#1334);
#1196=PLANE('',#1335);
#1197=PLANE('',#1341);
#1198=PLANE('',#1345);
#1199=PLANE('',#1346);
#1200=PLANE('',#1347);
#1201=PLANE('',#1348);
#1202=PLANE('',#1350);
#1203=PLANE('',#1353);
#1204=PLANE('',#1354);
#1205=PLANE('',#1355);
#1206=PLANE('',#1356);
#1207=PLANE('',#1357);
#1208=PLANE('',#1358);
#1209=PLANE('',#1359);
#1210=PLANE('',#1360);
#1211=PLANE('',#1361);
#1212=PLANE('',#1362);
#1213=PLANE('',#1363);
#1214=PLANE('',#1364);
#1215=PLANE('',#1365);
#1216=PLANE('',#1366);
#1217=PLANE('',#1367);
#1218=PLANE('',#1368);
#1219=PLANE('',#1369);
#1220=PLANE('',#1370);
#1221=PLANE('',#1371);
#1222=PLANE('',#1372);
#1223=PLANE('',#1373);
#1224=PLANE('',#1374);
#1225=PLANE('',#1375);
#1226=PLANE('',#1376);
#1227=PLANE('',#1377);
#1228=PLANE('',#1378);
#1229=PLANE('',#1379);
#1230=PLANE('',#1380);
#1231=PLANE('',#1381);
#1232=PLANE('',#1382);
#1233=PLANE('',#1383);
#1234=PLANE('',#1384);
#1235=PLANE('',#1385);
#1236=PLANE('',#1386);
#1237=PLANE('',#1387);
#1238=PLANE('',#1388);
#1239=PLANE('',#1389);
#1240=PLANE('',#1390);
#1241=PLANE('',#1391);
#1242=PLANE('',#1392);
#1243=PLANE('',#1393);
#1244=PLANE('',#1394);
#1245=PLANE('',#1395);
#1246=PLANE('',#1396);
#1247=PLANE('',#1397);
#1248=PLANE('',#1398);
#1249=ADVANCED_FACE('',(#30),#1188,.T.);
#1250=ADVANCED_FACE('',(#31),#1189,.F.);
#1251=ADVANCED_FACE('',(#32),#1190,.F.);
#1252=ADVANCED_FACE('',(#33),#1191,.F.);
#1253=ADVANCED_FACE('',(#34),#1192,.F.);
#1254=ADVANCED_FACE('',(#35),#1193,.F.);
#1255=ADVANCED_FACE('',(#36),#1194,.F.);
#1256=ADVANCED_FACE('',(#37),#1195,.F.);
#1257=ADVANCED_FACE('',(#38),#1196,.F.);
#1258=ADVANCED_FACE('',(#39),#19,.F.);
#1259=ADVANCED_FACE('',(#40),#1197,.F.);
#1260=ADVANCED_FACE('',(#41),#20,.F.);
#1261=ADVANCED_FACE('',(#42),#1198,.F.);
#1262=ADVANCED_FACE('',(#43,#15),#1199,.F.);
#1263=ADVANCED_FACE('',(#44),#1200,.T.);
#1264=ADVANCED_FACE('',(#45),#1201,.F.);
#1265=ADVANCED_FACE('',(#46),#1202,.F.);
#1266=ADVANCED_FACE('',(#47),#21,.F.);
#1267=ADVANCED_FACE('',(#48),#1203,.T.);
#1268=ADVANCED_FACE('',(#49),#1204,.F.);
#1269=ADVANCED_FACE('',(#50),#1205,.T.);
#1270=ADVANCED_FACE('',(#51),#1206,.F.);
#1271=ADVANCED_FACE('',(#52,#16,#17),#1207,.F.);
#1272=ADVANCED_FACE('',(#53),#1208,.T.);
#1273=ADVANCED_FACE('',(#54),#1209,.T.);
#1274=ADVANCED_FACE('',(#55),#1210,.T.);
#1275=ADVANCED_FACE('',(#56),#1211,.T.);
#1276=ADVANCED_FACE('',(#57),#1212,.T.);
#1277=ADVANCED_FACE('',(#58),#1213,.T.);
#1278=ADVANCED_FACE('',(#59),#1214,.T.);
#1279=ADVANCED_FACE('',(#60),#1215,.T.);
#1280=ADVANCED_FACE('',(#61),#1216,.T.);
#1281=ADVANCED_FACE('',(#62),#1217,.T.);
#1282=ADVANCED_FACE('',(#63),#1218,.T.);
#1283=ADVANCED_FACE('',(#64),#1219,.T.);
#1284=ADVANCED_FACE('',(#65),#1220,.T.);
#1285=ADVANCED_FACE('',(#66),#1221,.T.);
#1286=ADVANCED_FACE('',(#67),#1222,.T.);
#1287=ADVANCED_FACE('',(#68),#1223,.T.);
#1288=ADVANCED_FACE('',(#69),#1224,.T.);
#1289=ADVANCED_FACE('',(#70),#1225,.T.);
#1290=ADVANCED_FACE('',(#71),#1226,.T.);
#1291=ADVANCED_FACE('',(#72),#1227,.T.);
#1292=ADVANCED_FACE('',(#73),#1228,.T.);
#1293=ADVANCED_FACE('',(#74),#1229,.T.);
#1294=ADVANCED_FACE('',(#75),#1230,.T.);
#1295=ADVANCED_FACE('',(#76),#1231,.T.);
#1296=ADVANCED_FACE('',(#77),#1232,.T.);
#1297=ADVANCED_FACE('',(#78),#1233,.T.);
#1298=ADVANCED_FACE('',(#79),#1234,.T.);
#1299=ADVANCED_FACE('',(#80),#1235,.T.);
#1300=ADVANCED_FACE('',(#81),#1236,.T.);
#1301=ADVANCED_FACE('',(#82),#1237,.T.);
#1302=ADVANCED_FACE('',(#83),#1238,.T.);
#1303=ADVANCED_FACE('',(#84),#1239,.T.);
#1304=ADVANCED_FACE('',(#85),#1240,.T.);
#1305=ADVANCED_FACE('',(#86),#1241,.T.);
#1306=ADVANCED_FACE('',(#87),#1242,.T.);
#1307=ADVANCED_FACE('',(#88),#1243,.T.);
#1308=ADVANCED_FACE('',(#89),#1244,.T.);
#1309=ADVANCED_FACE('',(#90),#1245,.T.);
#1310=ADVANCED_FACE('',(#91),#1246,.T.);
#1311=ADVANCED_FACE('',(#92,#18),#1247,.T.);
#1312=ADVANCED_FACE('',(#93),#1248,.F.);
#1313=CLOSED_SHELL('',(#1249,#1250,#1251,#1252,#1253,#1254,#1255,#1256,
#1257,#1258,#1259,#1260,#1261,#1262,#1263,#1264,#1265,#1266,#1267,#1268,
#1269,#1270,#1271,#1272,#1273,#1274,#1275,#1276,#1277,#1278,#1279,#1280,
#1281,#1282,#1283,#1284,#1285,#1286,#1287,#1288,#1289,#1290,#1291,#1292,
#1293,#1294,#1295,#1296,#1297,#1298,#1299,#1300,#1301,#1302,#1303,#1304,
#1305,#1306,#1307,#1308,#1309,#1310,#1311,#1312));
#1314=DERIVED_UNIT_ELEMENT(#1316,1.);
#1315=DERIVED_UNIT_ELEMENT(#2097,-3.);
#1316=(
MASS_UNIT()
NAMED_UNIT(*)
SI_UNIT(.KILO.,.GRAM.)
);
#1317=DERIVED_UNIT((#1314,#1315));
#1318=MEASURE_REPRESENTATION_ITEM('density measure',
POSITIVE_RATIO_MEASURE(7850.),#1317);
#1319=PROPERTY_DEFINITION_REPRESENTATION(#1324,#1321);
#1320=PROPERTY_DEFINITION_REPRESENTATION(#1325,#1322);
#1321=REPRESENTATION('material name',(#1323),#2094);
#1322=REPRESENTATION('density',(#1318),#2094);
#1323=DESCRIPTIVE_REPRESENTATION_ITEM('Steel','Steel');
#1324=PROPERTY_DEFINITION('material property','material name',#2104);
#1325=PROPERTY_DEFINITION('material property','density of part',#2104);
#1326=AXIS2_PLACEMENT_3D('',#1721,#1399,#1400);
#1327=AXIS2_PLACEMENT_3D('',#1722,#1401,#1402);
#1328=AXIS2_PLACEMENT_3D('',#1731,#1407,#1408);
#1329=AXIS2_PLACEMENT_3D('',#1740,#1413,#1414);
#1330=AXIS2_PLACEMENT_3D('',#1750,#1420,#1421);
#1331=AXIS2_PLACEMENT_3D('',#1753,#1424,#1425);
#1332=AXIS2_PLACEMENT_3D('',#1755,#1427,#1428);
#1333=AXIS2_PLACEMENT_3D('',#1757,#1430,#1431);
#1334=AXIS2_PLACEMENT_3D('',#1766,#1436,#1437);
#1335=AXIS2_PLACEMENT_3D('',#1775,#1442,#1443);
#1336=AXIS2_PLACEMENT_3D('',#1780,#1445,#1446);
#1337=AXIS2_PLACEMENT_3D('',#1781,#1447,#1448);
#1338=AXIS2_PLACEMENT_3D('',#1782,#1449,#1450);
#1339=AXIS2_PLACEMENT_3D('',#1786,#1452,#1453);
#1340=AXIS2_PLACEMENT_3D('',#1790,#1456,#1457);
#1341=AXIS2_PLACEMENT_3D('',#1791,#1458,#1459);
#1342=AXIS2_PLACEMENT_3D('',#1800,#1465,#1466);
#1343=AXIS2_PLACEMENT_3D('',#1802,#1467,#1468);
#1344=AXIS2_PLACEMENT_3D('',#1805,#1470,#1471);
#1345=AXIS2_PLACEMENT_3D('',#1806,#1472,#1473);
#1346=AXIS2_PLACEMENT_3D('',#1815,#1478,#1479);
#1347=AXIS2_PLACEMENT_3D('',#1818,#1482,#1483);
#1348=AXIS2_PLACEMENT_3D('',#1827,#1488,#1489);
#1349=AXIS2_PLACEMENT_3D('',#1828,#1490,#1491);
#1350=AXIS2_PLACEMENT_3D('',#1829,#1492,#1493);
#1351=AXIS2_PLACEMENT_3D('',#1839,#1499,#1500);
#1352=AXIS2_PLACEMENT_3D('',#1840,#1501,#1502);
#1353=AXIS2_PLACEMENT_3D('',#1841,#1503,#1504);
#1354=AXIS2_PLACEMENT_3D('',#1847,#1508,#1509);
#1355=AXIS2_PLACEMENT_3D('',#1850,#1512,#1513);
#1356=AXIS2_PLACEMENT_3D('',#1856,#1517,#1518);
#1357=AXIS2_PLACEMENT_3D('',#1859,#1521,#1522);
#1358=AXIS2_PLACEMENT_3D('',#1861,#1524,#1525);
#1359=AXIS2_PLACEMENT_3D('',#1865,#1528,#1529);
#1360=AXIS2_PLACEMENT_3D('',#1941,#1568,#1569);
#1361=AXIS2_PLACEMENT_3D('',#1945,#1572,#1573);
#1362=AXIS2_PLACEMENT_3D('',#1949,#1576,#1577);
#1363=AXIS2_PLACEMENT_3D('',#1953,#1580,#1581);
#1364=AXIS2_PLACEMENT_3D('',#1957,#1584,#1585);
#1365=AXIS2_PLACEMENT_3D('',#1961,#1588,#1589);
#1366=AXIS2_PLACEMENT_3D('',#1965,#1592,#1593);
#1367=AXIS2_PLACEMENT_3D('',#1969,#1596,#1597);
#1368=AXIS2_PLACEMENT_3D('',#1973,#1600,#1601);
#1369=AXIS2_PLACEMENT_3D('',#1977,#1604,#1605);
#1370=AXIS2_PLACEMENT_3D('',#1981,#1608,#1609);
#1371=AXIS2_PLACEMENT_3D('',#1985,#1612,#1613);
#1372=AXIS2_PLACEMENT_3D('',#1989,#1616,#1617);
#1373=AXIS2_PLACEMENT_3D('',#1993,#1620,#1621);
#1374=AXIS2_PLACEMENT_3D('',#1997,#1624,#1625);
#1375=AXIS2_PLACEMENT_3D('',#2001,#1628,#1629);
#1376=AXIS2_PLACEMENT_3D('',#2005,#1632,#1633);
#1377=AXIS2_PLACEMENT_3D('',#2009,#1636,#1637);
#1378=AXIS2_PLACEMENT_3D('',#2013,#1640,#1641);
#1379=AXIS2_PLACEMENT_3D('',#2017,#1644,#1645);
#1380=AXIS2_PLACEMENT_3D('',#2021,#1648,#1649);
#1381=AXIS2_PLACEMENT_3D('',#2025,#1652,#1653);
#1382=AXIS2_PLACEMENT_3D('',#2029,#1656,#1657);
#1383=AXIS2_PLACEMENT_3D('',#2033,#1660,#1661);
#1384=AXIS2_PLACEMENT_3D('',#2037,#1664,#1665);
#1385=AXIS2_PLACEMENT_3D('',#2041,#1668,#1669);
#1386=AXIS2_PLACEMENT_3D('',#2045,#1672,#1673);
#1387=AXIS2_PLACEMENT_3D('',#2049,#1676,#1677);
#1388=AXIS2_PLACEMENT_3D('',#2053,#1680,#1681);
#1389=AXIS2_PLACEMENT_3D('',#2057,#1684,#1685);
#1390=AXIS2_PLACEMENT_3D('',#2061,#1688,#1689);
#1391=AXIS2_PLACEMENT_3D('',#2065,#1692,#1693);
#1392=AXIS2_PLACEMENT_3D('',#2069,#1696,#1697);
#1393=AXIS2_PLACEMENT_3D('',#2073,#1700,#1701);
#1394=AXIS2_PLACEMENT_3D('',#2077,#1704,#1705);
#1395=AXIS2_PLACEMENT_3D('',#2081,#1708,#1709);
#1396=AXIS2_PLACEMENT_3D('',#2085,#1712,#1713);
#1397=AXIS2_PLACEMENT_3D('',#2089,#1716,#1717);
#1398=AXIS2_PLACEMENT_3D('',#2091,#1719,#1720);
#1399=DIRECTION('axis',(0.,0.,1.));
#1400=DIRECTION('refdir',(1.,0.,0.));
#1401=DIRECTION('center_axis',(-1.18329135783152E-30,7.17898535246161E-61,
1.));
#1402=DIRECTION('ref_axis',(1.,-1.14105152169467E-30,1.18329135783152E-30));
#1403=DIRECTION('',(1.14105152169467E-30,1.,6.32297869215646E-61));
#1404=DIRECTION('',(-1.,1.14105152169467E-30,-1.18329135783152E-30));
#1405=DIRECTION('',(-1.14105152169467E-30,-1.,-6.32297869215646E-61));
#1406=DIRECTION('',(-1.,1.14105152169467E-30,-1.18329135783152E-30));
#1407=DIRECTION('center_axis',(-1.18329135783152E-30,7.17898535246161E-61,
1.));
#1408=DIRECTION('ref_axis',(1.,-1.14105152169467E-30,1.18329135783152E-30));
#1409=DIRECTION('',(-1.14105152169467E-30,-1.,-6.32297869215646E-61));
#1410=DIRECTION('',(-1.,1.14105152169467E-30,-1.18329135783152E-30));
#1411=DIRECTION('',(1.14105152169467E-30,1.,6.32297869215646E-61));
#1412=DIRECTION('',(1.,-1.14105152169467E-30,1.18329135783152E-30));
#1413=DIRECTION('center_axis',(1.14105152169467E-30,1.,6.32297869215646E-61));
#1414=DIRECTION('ref_axis',(-1.18329135783152E-30,7.17898535246161E-61,
1.));
#1415=DIRECTION('',(1.,-1.14105152169467E-30,1.18329135783152E-30));
#1416=DIRECTION('',(1.18329135783152E-30,-7.17898535246161E-61,-1.));
#1417=DIRECTION('',(1.18329135783152E-30,-7.17898535246161E-61,-1.));
#1418=DIRECTION('',(1.,-1.14105152169467E-30,1.18329135783152E-30));
#1419=DIRECTION('',(-1.18329135783152E-30,7.17898535246161E-61,1.));
#1420=DIRECTION('center_axis',(1.,-1.14105152169467E-30,1.18329135783152E-30));
#1421=DIRECTION('ref_axis',(1.18329135783152E-30,-7.17898535246161E-61,
-1.));
#1422=DIRECTION('',(1.18329135783152E-30,-7.17898535246161E-61,-1.));
#1423=DIRECTION('',(1.18329135783152E-30,-7.17898535246161E-61,-1.));
#1424=DIRECTION('center_axis',(-1.14105152169467E-30,-1.,-6.32297869215646E-61));
#1425=DIRECTION('ref_axis',(1.18329135783152E-30,-7.17898535246161E-61,
-1.));
#1426=DIRECTION('',(1.18329135783152E-30,-7.17898535246161E-61,-1.));
#1427=DIRECTION('center_axis',(-1.,1.14105152169467E-30,-1.18329135783152E-30));
#1428=DIRECTION('ref_axis',(-1.18329135783152E-30,7.17898535246161E-61,
1.));
#1429=DIRECTION('',(-1.18329135783152E-30,7.17898535246161E-61,1.));
#1430=DIRECTION('center_axis',(-1.18329135783152E-30,7.17898535246161E-61,
1.));
#1431=DIRECTION('ref_axis',(1.,-1.14105152169467E-30,1.18329135783152E-30));
#1432=DIRECTION('',(-1.14105152169467E-30,-1.,-6.32297869215646E-61));
#1433=DIRECTION('',(-1.,1.14105152169467E-30,-1.18329135783152E-30));
#1434=DIRECTION('',(-1.14105152169467E-30,-1.,-6.32297869215646E-61));
#1435=DIRECTION('',(-1.,1.14105152169467E-30,-1.18329135783152E-30));
#1436=DIRECTION('center_axis',(-1.18329135783152E-30,7.17898535246161E-61,
1.));
#1437=DIRECTION('ref_axis',(1.,-1.14105152169467E-30,1.18329135783152E-30));
#1438=DIRECTION('',(1.18101317853455E-30,1.,6.79584152398898E-61));
#1439=DIRECTION('',(-1.,1.14105152169467E-30,-1.18329135783152E-30));
#1440=DIRECTION('',(1.14105152169467E-30,1.,6.32297869215646E-61));
#1441=DIRECTION('',(1.,-1.14105152169467E-30,1.18329135783152E-30));
#1442=DIRECTION('center_axis',(-1.,1.14105152169467E-30,-1.18329135783152E-30));
#1443=DIRECTION('ref_axis',(-1.18329135783152E-30,7.17898535246161E-61,
1.));
#1444=DIRECTION('',(-1.14105152169467E-30,-1.,-6.32297869215646E-61));
#1445=DIRECTION('center_axis',(-1.,1.14105152169467E-30,-1.18329135783152E-30));
#1446=DIRECTION('ref_axis',(1.18329135783152E-30,-7.1789853524616E-61,-1.));
#1447=DIRECTION('center_axis',(-1.,1.14105152169467E-30,-1.18329135783152E-30));
#1448=DIRECTION('ref_axis',(1.18329135783152E-30,-7.1789853524616E-61,-1.));
#1449=DIRECTION('center_axis',(1.,-1.14105152169467E-30,1.18329135783152E-30));
#1450=DIRECTION('ref_axis',(1.18329135783152E-30,-7.1789853524616E-61,-1.));
#1451=DIRECTION('',(-1.,1.14105152169467E-30,-1.18329135783152E-30));
#1452=DIRECTION('center_axis',(1.,-1.14105152169467E-30,1.18329135783152E-30));
#1453=DIRECTION('ref_axis',(1.18329135783152E-30,-7.1789853524616E-61,-1.));
#1454=DIRECTION('',(1.,-1.14105152169467E-30,1.18329135783152E-30));
#1455=DIRECTION('',(1.,-1.14105152169467E-30,1.18329135783152E-30));
#1456=DIRECTION('center_axis',(-1.,1.14105152169467E-30,-1.18329135783152E-30));
#1457=DIRECTION('ref_axis',(1.18329135783152E-30,-7.1789853524616E-61,-1.));
#1458=DIRECTION('center_axis',(-1.18329135783152E-30,7.17898535246161E-61,
1.));
#1459=DIRECTION('ref_axis',(1.,-1.14105152169467E-30,1.18329135783152E-30));
#1460=DIRECTION('',(-1.14105152169467E-30,-1.,-6.32297869215646E-61));
#1461=DIRECTION('',(1.,-1.14105152169467E-30,1.18329135783152E-30));
#1462=DIRECTION('',(-1.14105152169467E-30,-1.,-6.32297869215646E-61));
#1463=DIRECTION('',(-1.14105152169467E-30,-1.,-6.32297869215646E-61));
#1464=DIRECTION('',(-1.,1.14105152169467E-30,-1.18329135783152E-30));
#1465=DIRECTION('center_axis',(1.,-1.14105152169467E-30,1.18329135783152E-30));
#1466=DIRECTION('ref_axis',(1.18329135783152E-30,-7.1789853524616E-61,-1.));
#1467=DIRECTION('center_axis',(1.,-1.14105152169467E-30,1.18329135783152E-30));
#1468=DIRECTION('ref_axis',(1.18329135783152E-30,-7.1789853524616E-61,-1.));
#1469=DIRECTION('',(1.,-1.14105152169467E-30,1.18329135783152E-30));
#1470=DIRECTION('center_axis',(-1.,1.14105152169467E-30,-1.18329135783152E-30));
#1471=DIRECTION('ref_axis',(1.18329135783152E-30,-7.1789853524616E-61,-1.));
#1472=DIRECTION('center_axis',(-1.18329135783152E-30,7.17898535246161E-61,
1.));
#1473=DIRECTION('ref_axis',(1.,-1.14105152169467E-30,1.18329135783152E-30));
#1474=DIRECTION('',(-1.14105152169467E-30,-1.,-6.32297869215646E-61));
#1475=DIRECTION('',(-1.,1.14105152169467E-30,-1.18329135783152E-30));
#1476=DIRECTION('',(1.14105152169467E-30,1.,6.32297869215646E-61));
#1477=DIRECTION('',(1.,-1.14105152169467E-30,1.18329135783152E-30));
#1478=DIRECTION('center_axis',(1.,-1.14105152169467E-30,1.18329135783152E-30));
#1479=DIRECTION('ref_axis',(1.18329135783152E-30,-7.17898535246161E-61,
-1.));
#1480=DIRECTION('',(1.18329135783152E-30,-7.17898535246161E-61,-1.));
#1481=DIRECTION('',(1.18329135783152E-30,-7.17898535246161E-61,-1.));
#1482=DIRECTION('center_axis',(-1.18329135783152E-30,7.17898535246161E-61,
1.));
#1483=DIRECTION('ref_axis',(1.,-1.14105152169467E-30,1.18329135783152E-30));
#1484=DIRECTION('',(1.14105152169467E-30,1.,6.32297869215646E-61));
#1485=DIRECTION('',(1.,-1.14105152169467E-30,1.18329135783152E-30));
#1486=DIRECTION('',(-1.14105152169467E-30,-1.,-6.32297869215646E-61));
#1487=DIRECTION('',(1.,-1.14105152169467E-30,1.18329135783152E-30));
#1488=DIRECTION('center_axis',(1.14105152169467E-30,1.,6.32297869215646E-61));
#1489=DIRECTION('ref_axis',(-1.18329135783152E-30,7.17898535246161E-61,
1.));
#1490=DIRECTION('center_axis',(-1.14105152169467E-30,-1.,-6.32297869215646E-61));
#1491=DIRECTION('ref_axis',(1.,-1.14105152169467E-30,1.18329135783152E-30));
#1492=DIRECTION('center_axis',(-1.,1.14105152169467E-30,-1.18329135783152E-30));
#1493=DIRECTION('ref_axis',(-1.18329135783152E-30,7.17898535246161E-61,
1.));
#1494=DIRECTION('',(1.18329135783152E-30,-7.17898535246161E-61,-1.));
#1495=DIRECTION('',(-1.14105152169467E-30,-1.,-6.32297869215646E-61));
#1496=DIRECTION('',(1.18329135783152E-30,-7.17898535246161E-61,-1.));
#1497=DIRECTION('',(1.14105152169467E-30,1.,6.32297869215646E-61));
#1498=DIRECTION('',(1.18329135783152E-30,-7.17898535246161E-61,-1.));
#1499=DIRECTION('center_axis',(1.14105152169467E-30,1.,6.32297869215646E-61));
#1500=DIRECTION('ref_axis',(1.,-1.14105152169467E-30,1.18329135783152E-30));
#1501=DIRECTION('center_axis',(1.14105152169467E-30,1.,6.32297869215646E-61));
#1502=DIRECTION('ref_axis',(1.,-1.14105152169467E-30,1.18329135783152E-30));
#1503=DIRECTION('center_axis',(-1.18329135783152E-30,7.17898535246161E-61,
1.));
#1504=DIRECTION('ref_axis',(1.,-1.14105152169467E-30,1.18329135783152E-30));
#1505=DIRECTION('',(-1.,1.14105152169467E-30,-1.18329135783152E-30));
#1506=DIRECTION('',(-1.14105152169467E-30,-1.,-6.32297869215646E-61));
#1507=DIRECTION('',(1.,-1.14105152169467E-30,1.18329135783152E-30));
#1508=DIRECTION('center_axis',(1.,-1.14105152169467E-30,1.18329135783152E-30));
#1509=DIRECTION('ref_axis',(1.18329135783152E-30,-7.17898535246161E-61,
-1.));
#1510=DIRECTION('',(1.18329135783152E-30,-7.17898535246161E-61,-1.));
#1511=DIRECTION('',(1.18329135783152E-30,-7.17898535246161E-61,-1.));
#1512=DIRECTION('center_axis',(-1.18329135783152E-30,7.17898535246161E-61,
1.));
#1513=DIRECTION('ref_axis',(1.,-1.14105152169467E-30,1.18329135783152E-30));
#1514=DIRECTION('',(1.,-1.14105152169467E-30,1.18329135783152E-30));
#1515=DIRECTION('',(1.14105152169467E-30,1.,6.32297869215646E-61));
#1516=DIRECTION('',(-1.,1.14105152169467E-30,-1.18329135783152E-30));
#1517=DIRECTION('center_axis',(1.14105152169467E-30,1.,6.32297869215646E-61));
#1518=DIRECTION('ref_axis',(-1.18329135783152E-30,7.17898535246161E-61,
1.));
#1519=DIRECTION('',(-1.18329135783152E-30,7.17898535246161E-61,1.));
#1520=DIRECTION('',(1.18329135783152E-30,-7.17898535246161E-61,-1.));
#1521=DIRECTION('center_axis',(-1.,1.14105152169467E-30,-1.18329135783152E-30));
#1522=DIRECTION('ref_axis',(-1.18329135783152E-30,7.17898535246161E-61,
1.));
#1523=DIRECTION('',(1.18329135783152E-30,-7.17898535246161E-61,-1.));
#1524=DIRECTION('center_axis',(1.14105152169467E-30,1.,6.32297869215646E-61));
#1525=DIRECTION('ref_axis',(-1.18329135783152E-30,7.17898535246161E-61,
1.));
#1526=DIRECTION('',(1.,-1.14105152169467E-30,1.18329135783152E-30));
#1527=DIRECTION('',(-1.18329135783152E-30,7.17898535246161E-61,1.));
#1528=DIRECTION('center_axis',(1.,-1.14105152169467E-30,1.18329135783152E-30));
#1529=DIRECTION('ref_axis',(1.18329135783152E-30,-7.17898535246161E-61,
-1.));
#1530=DIRECTION('',(1.18329135783152E-30,-7.17898535246161E-61,-1.));
#1531=DIRECTION('',(1.18101317853455E-30,1.,6.79584152398898E-61));
#1532=DIRECTION('',(1.5158604537859E-30,0.342020143325669,-0.939692620785908));
#1533=DIRECTION('',(1.18101317853455E-30,1.,6.79584152398898E-61));
#1534=DIRECTION('',(-7.07999860602126E-31,0.342020143325669,0.939692620785908));
#1535=DIRECTION('',(1.18101317853455E-30,1.,6.79584152398898E-61));
#1536=DIRECTION('',(1.5158604537859E-30,0.34202014332567,-0.939692620785908));
#1537=DIRECTION('',(1.18101317853455E-30,1.,6.79584152398898E-61));
#1538=DIRECTION('',(-7.07999860602124E-31,0.34202014332567,0.939692620785908));
#1539=DIRECTION('',(1.18101317853455E-30,1.,6.79584152398898E-61));
#1540=DIRECTION('',(1.5158604537859E-30,0.34202014332567,-0.939692620785908));
#1541=DIRECTION('',(1.18101317853455E-30,1.,6.79584152398898E-61));
#1542=DIRECTION('',(-7.07999860602123E-31,0.34202014332567,0.939692620785908));
#1543=DIRECTION('',(1.18101317853455E-30,1.,6.79584152398898E-61));
#1544=DIRECTION('',(1.5158604537859E-30,0.34202014332567,-0.939692620785908));
#1545=DIRECTION('',(1.18101317853455E-30,1.,6.79584152398898E-61));
#1546=DIRECTION('',(-7.07999860602124E-31,0.34202014332567,0.939692620785908));
#1547=DIRECTION('',(1.18101317853455E-30,1.,6.79584152398898E-61));
#1548=DIRECTION('',(1.5158604537859E-30,0.34202014332567,-0.939692620785908));
#1549=DIRECTION('',(1.18101317853455E-30,1.,6.79584152398898E-61));
#1550=DIRECTION('',(-7.07999860602124E-31,0.34202014332567,0.939692620785908));
#1551=DIRECTION('',(1.18101317853455E-30,1.,6.79584152398898E-61));
#1552=DIRECTION('',(1.5158604537859E-30,0.34202014332567,-0.939692620785908));
#1553=DIRECTION('',(1.18101317853455E-30,1.,6.79584152398898E-61));
#1554=DIRECTION('',(-7.07999860602124E-31,0.34202014332567,0.939692620785908));
#1555=DIRECTION('',(1.18101317853455E-30,1.,6.79584152398898E-61));
#1556=DIRECTION('',(1.5158604537859E-30,0.34202014332567,-0.939692620785908));
#1557=DIRECTION('',(1.18101317853455E-30,1.,6.79584152398898E-61));
#1558=DIRECTION('',(-7.07999860602124E-31,0.34202014332567,0.939692620785908));
#1559=DIRECTION('',(1.18101317853455E-30,1.,6.79584152398898E-61));
#1560=DIRECTION('',(1.5158604537859E-30,0.34202014332567,-0.939692620785908));
#1561=DIRECTION('',(1.18101317853455E-30,1.,6.79584152398898E-61));
#1562=DIRECTION('',(-7.07999860602124E-31,0.34202014332567,0.939692620785908));
#1563=DIRECTION('',(1.18101317853455E-30,1.,6.79584152398898E-61));
#1564=DIRECTION('',(1.5158604537859E-30,0.342020143325669,-0.939692620785908));
#1565=DIRECTION('',(1.18101317853455E-30,1.,6.79584152398898E-61));
#1566=DIRECTION('',(-7.07999860602126E-31,0.342020143325669,0.939692620785908));
#1567=DIRECTION('',(1.18101317853455E-30,1.,6.79584152398898E-61));
#1568=DIRECTION('center_axis',(1.18329135783152E-30,-7.17898535246161E-61,
-1.));
#1569=DIRECTION('ref_axis',(1.18101317853455E-30,1.,6.79584152398898E-61));
#1570=DIRECTION('',(1.18101317853455E-30,1.,6.79584152398898E-61));
#1571=DIRECTION('',(1.,-1.14105152169467E-30,1.18329135783152E-30));
#1572=DIRECTION('center_axis',(1.47694717467458E-30,0.939692620785908,-0.342020143325669));
#1573=DIRECTION('ref_axis',(-7.07999860602126E-31,0.342020143325669,0.939692620785908));
#1574=DIRECTION('',(-7.07999860602126E-31,0.342020143325669,0.939692620785908));
#1575=DIRECTION('',(1.,-1.14105152169467E-30,1.18329135783152E-30));
#1576=DIRECTION('center_axis',(1.18329135783152E-30,-7.17898535246161E-61,
-1.));
#1577=DIRECTION('ref_axis',(1.18101317853455E-30,1.,6.79584152398898E-61));
#1578=DIRECTION('',(1.18101317853455E-30,1.,6.79584152398898E-61));
#1579=DIRECTION('',(1.,-1.14105152169467E-30,1.18329135783152E-30));
#1580=DIRECTION('center_axis',(-6.67528215071453E-31,-0.939692620785908,
-0.342020143325669));
#1581=DIRECTION('ref_axis',(1.5158604537859E-30,0.342020143325669,-0.939692620785908));
#1582=DIRECTION('',(1.5158604537859E-30,0.342020143325669,-0.939692620785908));
#1583=DIRECTION('',(1.,-1.14105152169467E-30,1.18329135783152E-30));
#1584=DIRECTION('center_axis',(1.18329135783152E-30,-7.17898535246161E-61,
-1.));
#1585=DIRECTION('ref_axis',(1.18101317853455E-30,1.,6.79584152398898E-61));
#1586=DIRECTION('',(1.18101317853455E-30,1.,6.79584152398898E-61));
#1587=DIRECTION('',(1.,-1.14105152169467E-30,1.18329135783152E-30));
#1588=DIRECTION('center_axis',(1.47694717467458E-30,0.939692620785908,-0.34202014332567));
#1589=DIRECTION('ref_axis',(-7.07999860602124E-31,0.34202014332567,0.939692620785908));
#1590=DIRECTION('',(-7.07999860602124E-31,0.34202014332567,0.939692620785908));
#1591=DIRECTION('',(1.,-1.14105152169467E-30,1.18329135783152E-30));
#1592=DIRECTION('center_axis',(1.18329135783152E-30,-7.17898535246161E-61,
-1.));
#1593=DIRECTION('ref_axis',(1.18101317853455E-30,1.,6.79584152398898E-61));
#1594=DIRECTION('',(1.18101317853455E-30,1.,6.79584152398898E-61));
#1595=DIRECTION('',(1.,-1.14105152169467E-30,1.18329135783152E-30));
#1596=DIRECTION('center_axis',(-6.67528215071452E-31,-0.939692620785908,
-0.34202014332567));
#1597=DIRECTION('ref_axis',(1.5158604537859E-30,0.34202014332567,-0.939692620785908));
#1598=DIRECTION('',(1.5158604537859E-30,0.34202014332567,-0.939692620785908));
#1599=DIRECTION('',(1.,-1.14105152169467E-30,1.18329135783152E-30));
#1600=DIRECTION('center_axis',(1.18329135783152E-30,-7.17898535246161E-61,
-1.));
#1601=DIRECTION('ref_axis',(1.18101317853455E-30,1.,6.79584152398898E-61));
#1602=DIRECTION('',(1.18101317853455E-30,1.,6.79584152398898E-61));
#1603=DIRECTION('',(1.,-1.14105152169467E-30,1.18329135783152E-30));
#1604=DIRECTION('center_axis',(1.47694717467458E-30,0.939692620785908,-0.34202014332567));
#1605=DIRECTION('ref_axis',(-7.07999860602124E-31,0.34202014332567,0.939692620785908));
#1606=DIRECTION('',(-7.07999860602124E-31,0.34202014332567,0.939692620785908));
#1607=DIRECTION('',(1.,-1.14105152169467E-30,1.18329135783152E-30));
#1608=DIRECTION('center_axis',(1.18329135783152E-30,-7.17898535246161E-61,
-1.));
#1609=DIRECTION('ref_axis',(1.18101317853455E-30,1.,6.79584152398898E-61));
#1610=DIRECTION('',(1.18101317853455E-30,1.,6.79584152398898E-61));
#1611=DIRECTION('',(1.,-1.14105152169467E-30,1.18329135783152E-30));
#1612=DIRECTION('center_axis',(-6.67528215071451E-31,-0.939692620785908,
-0.34202014332567));
#1613=DIRECTION('ref_axis',(1.5158604537859E-30,0.34202014332567,-0.939692620785908));
#1614=DIRECTION('',(1.5158604537859E-30,0.34202014332567,-0.939692620785908));
#1615=DIRECTION('',(1.,-1.14105152169467E-30,1.18329135783152E-30));
#1616=DIRECTION('center_axis',(1.18329135783152E-30,-7.17898535246161E-61,
-1.));
#1617=DIRECTION('ref_axis',(1.18101317853455E-30,1.,6.79584152398898E-61));
#1618=DIRECTION('',(1.18101317853455E-30,1.,6.79584152398898E-61));
#1619=DIRECTION('',(1.,-1.14105152169467E-30,1.18329135783152E-30));
#1620=DIRECTION('center_axis',(1.47694717467458E-30,0.939692620785908,-0.34202014332567));
#1621=DIRECTION('ref_axis',(-7.07999860602124E-31,0.34202014332567,0.939692620785908));
#1622=DIRECTION('',(-7.07999860602124E-31,0.34202014332567,0.939692620785908));
#1623=DIRECTION('',(1.,-1.14105152169467E-30,1.18329135783152E-30));
#1624=DIRECTION('center_axis',(1.18329135783152E-30,-7.17898535246161E-61,
-1.));
#1625=DIRECTION('ref_axis',(1.18101317853455E-30,1.,6.79584152398898E-61));
#1626=DIRECTION('',(1.18101317853455E-30,1.,6.79584152398898E-61));
#1627=DIRECTION('',(1.,-1.14105152169467E-30,1.18329135783152E-30));
#1628=DIRECTION('center_axis',(-6.67528215071452E-31,-0.939692620785908,
-0.34202014332567));
#1629=DIRECTION('ref_axis',(1.5158604537859E-30,0.34202014332567,-0.939692620785908));
#1630=DIRECTION('',(1.5158604537859E-30,0.34202014332567,-0.939692620785908));
#1631=DIRECTION('',(1.,-1.14105152169467E-30,1.18329135783152E-30));
#1632=DIRECTION('center_axis',(1.18329135783152E-30,-7.17898535246161E-61,
-1.));
#1633=DIRECTION('ref_axis',(1.18101317853455E-30,1.,6.79584152398898E-61));
#1634=DIRECTION('',(1.18101317853455E-30,1.,6.79584152398898E-61));
#1635=DIRECTION('',(1.,-1.14105152169467E-30,1.18329135783152E-30));
#1636=DIRECTION('center_axis',(1.47694717467458E-30,0.939692620785908,-0.34202014332567));
#1637=DIRECTION('ref_axis',(-7.07999860602124E-31,0.34202014332567,0.939692620785908));
#1638=DIRECTION('',(-7.07999860602124E-31,0.34202014332567,0.939692620785908));
#1639=DIRECTION('',(1.,-1.14105152169467E-30,1.18329135783152E-30));
#1640=DIRECTION('center_axis',(1.18329135783152E-30,-7.17898535246161E-61,
-1.));
#1641=DIRECTION('ref_axis',(1.18101317853455E-30,1.,6.79584152398898E-61));
#1642=DIRECTION('',(1.18101317853455E-30,1.,6.79584152398898E-61));
#1643=DIRECTION('',(1.,-1.14105152169467E-30,1.18329135783152E-30));
#1644=DIRECTION('center_axis',(-6.67528215071452E-31,-0.939692620785908,
-0.34202014332567));
#1645=DIRECTION('ref_axis',(1.5158604537859E-30,0.34202014332567,-0.939692620785908));
#1646=DIRECTION('',(1.5158604537859E-30,0.34202014332567,-0.939692620785908));
#1647=DIRECTION('',(1.,-1.14105152169467E-30,1.18329135783152E-30));
#1648=DIRECTION('center_axis',(1.18329135783152E-30,-7.17898535246161E-61,
-1.));
#1649=DIRECTION('ref_axis',(1.18101317853455E-30,1.,6.79584152398898E-61));
#1650=DIRECTION('',(1.18101317853455E-30,1.,6.79584152398898E-61));
#1651=DIRECTION('',(1.,-1.14105152169467E-30,1.18329135783152E-30));
#1652=DIRECTION('center_axis',(1.47694717467458E-30,0.939692620785908,-0.34202014332567));
#1653=DIRECTION('ref_axis',(-7.07999860602124E-31,0.34202014332567,0.939692620785908));
#1654=DIRECTION('',(-7.07999860602124E-31,0.34202014332567,0.939692620785908));
#1655=DIRECTION('',(1.,-1.14105152169467E-30,1.18329135783152E-30));
#1656=DIRECTION('center_axis',(1.18329135783152E-30,-7.17898535246161E-61,
-1.));
#1657=DIRECTION('ref_axis',(1.18101317853455E-30,1.,6.79584152398898E-61));
#1658=DIRECTION('',(1.18101317853455E-30,1.,6.79584152398898E-61));
#1659=DIRECTION('',(1.,-1.14105152169467E-30,1.18329135783152E-30));
#1660=DIRECTION('center_axis',(-6.67528215071452E-31,-0.939692620785908,
-0.34202014332567));
#1661=DIRECTION('ref_axis',(1.5158604537859E-30,0.34202014332567,-0.939692620785908));
#1662=DIRECTION('',(1.5158604537859E-30,0.34202014332567,-0.939692620785908));
#1663=DIRECTION('',(1.,-1.14105152169467E-30,1.18329135783152E-30));
#1664=DIRECTION('center_axis',(1.18329135783152E-30,-7.17898535246161E-61,
-1.));
#1665=DIRECTION('ref_axis',(1.18101317853455E-30,1.,6.79584152398898E-61));
#1666=DIRECTION('',(1.18101317853455E-30,1.,6.79584152398898E-61));
#1667=DIRECTION('',(1.,-1.14105152169467E-30,1.18329135783152E-30));
#1668=DIRECTION('center_axis',(1.47694717467458E-30,0.939692620785908,-0.34202014332567));
#1669=DIRECTION('ref_axis',(-7.07999860602123E-31,0.34202014332567,0.939692620785908));
#1670=DIRECTION('',(-7.07999860602123E-31,0.34202014332567,0.939692620785908));
#1671=DIRECTION('',(1.,-1.14105152169467E-30,1.18329135783152E-30));
#1672=DIRECTION('center_axis',(1.18329135783152E-30,-7.17898535246161E-61,
-1.));
#1673=DIRECTION('ref_axis',(1.18101317853455E-30,1.,6.79584152398898E-61));
#1674=DIRECTION('',(1.18101317853455E-30,1.,6.79584152398898E-61));
#1675=DIRECTION('',(1.,-1.14105152169467E-30,1.18329135783152E-30));
#1676=DIRECTION('center_axis',(-6.67528215071452E-31,-0.939692620785908,
-0.34202014332567));
#1677=DIRECTION('ref_axis',(1.5158604537859E-30,0.34202014332567,-0.939692620785908));
#1678=DIRECTION('',(1.5158604537859E-30,0.34202014332567,-0.939692620785908));
#1679=DIRECTION('',(1.,-1.14105152169467E-30,1.18329135783152E-30));
#1680=DIRECTION('center_axis',(1.18329135783152E-30,-7.17898535246161E-61,
-1.));
#1681=DIRECTION('ref_axis',(1.18101317853455E-30,1.,6.79584152398898E-61));
#1682=DIRECTION('',(1.18101317853455E-30,1.,6.79584152398898E-61));
#1683=DIRECTION('',(1.,-1.14105152169467E-30,1.18329135783152E-30));
#1684=DIRECTION('center_axis',(1.47694717467458E-30,0.939692620785908,-0.34202014332567));
#1685=DIRECTION('ref_axis',(-7.07999860602124E-31,0.34202014332567,0.939692620785908));
#1686=DIRECTION('',(-7.07999860602124E-31,0.34202014332567,0.939692620785908));
#1687=DIRECTION('',(1.,-1.14105152169467E-30,1.18329135783152E-30));
#1688=DIRECTION('center_axis',(1.18329135783152E-30,-7.17898535246161E-61,
-1.));
#1689=DIRECTION('ref_axis',(1.18101317853455E-30,1.,6.79584152398898E-61));
#1690=DIRECTION('',(1.18101317853455E-30,1.,6.79584152398898E-61));
#1691=DIRECTION('',(1.,-1.14105152169467E-30,1.18329135783152E-30));
#1692=DIRECTION('center_axis',(-6.67528215071452E-31,-0.939692620785908,
-0.34202014332567));
#1693=DIRECTION('ref_axis',(1.5158604537859E-30,0.34202014332567,-0.939692620785908));
#1694=DIRECTION('',(1.5158604537859E-30,0.34202014332567,-0.939692620785908));
#1695=DIRECTION('',(1.,-1.14105152169467E-30,1.18329135783152E-30));
#1696=DIRECTION('center_axis',(1.18329135783152E-30,-7.17898535246161E-61,
-1.));
#1697=DIRECTION('ref_axis',(1.18101317853455E-30,1.,6.79584152398898E-61));
#1698=DIRECTION('',(1.18101317853455E-30,1.,6.79584152398898E-61));
#1699=DIRECTION('',(1.,-1.14105152169467E-30,1.18329135783152E-30));
#1700=DIRECTION('center_axis',(1.47694717467458E-30,0.939692620785908,-0.342020143325669));
#1701=DIRECTION('ref_axis',(-7.07999860602126E-31,0.342020143325669,0.939692620785908));
#1702=DIRECTION('',(-7.07999860602126E-31,0.342020143325669,0.939692620785908));
#1703=DIRECTION('',(1.,-1.14105152169467E-30,1.18329135783152E-30));
#1704=DIRECTION('center_axis',(1.18329135783152E-30,-7.17898535246161E-61,
-1.));
#1705=DIRECTION('ref_axis',(1.18101317853455E-30,1.,6.79584152398898E-61));
#1706=DIRECTION('',(1.18101317853455E-30,1.,6.79584152398898E-61));
#1707=DIRECTION('',(1.,-1.14105152169467E-30,1.18329135783152E-30));
#1708=DIRECTION('center_axis',(-6.67528215071453E-31,-0.939692620785908,
-0.342020143325669));
#1709=DIRECTION('ref_axis',(1.5158604537859E-30,0.342020143325669,-0.939692620785908));
#1710=DIRECTION('',(1.5158604537859E-30,0.342020143325669,-0.939692620785908));
#1711=DIRECTION('',(1.,-1.14105152169467E-30,1.18329135783152E-30));
#1712=DIRECTION('center_axis',(1.18329135783152E-30,-7.17898535246161E-61,
-1.));
#1713=DIRECTION('ref_axis',(1.18101317853455E-30,1.,6.79584152398898E-61));
#1714=DIRECTION('',(1.18101317853455E-30,1.,6.79584152398898E-61));
#1715=DIRECTION('',(1.,-1.14105152169467E-30,1.18329135783152E-30));
#1716=DIRECTION('center_axis',(-1.14105152169467E-30,-1.,-6.32297869215646E-61));
#1717=DIRECTION('ref_axis',(1.18329135783152E-30,-7.17898535246161E-61,
-1.));
#1718=DIRECTION('',(1.18329135783152E-30,-7.17898535246161E-61,-1.));
#1719=DIRECTION('center_axis',(1.,-1.18101317853455E-30,1.18329135783152E-30));
#1720=DIRECTION('ref_axis',(1.18329135783152E-30,-7.17898535246161E-61,
-1.));
#1721=CARTESIAN_POINT('',(0.,0.,0.));
#1722=CARTESIAN_POINT('Origin',(681.,26.,257.5));
#1723=CARTESIAN_POINT('',(684.,22.,257.5));
#1724=CARTESIAN_POINT('',(684.,30.,257.5));
#1725=CARTESIAN_POINT('',(684.,26.,257.5));
#1726=CARTESIAN_POINT('',(678.,30.,257.5));
#1727=CARTESIAN_POINT('',(681.,30.,257.5));
#1728=CARTESIAN_POINT('',(678.,22.,257.5));
#1729=CARTESIAN_POINT('',(678.,26.,257.5));
#1730=CARTESIAN_POINT('',(677.5,22.,257.5));
#1731=CARTESIAN_POINT('Origin',(681.,26.,252.5));
#1732=CARTESIAN_POINT('',(684.,30.,252.5));
#1733=CARTESIAN_POINT('',(684.,22.,252.5));
#1734=CARTESIAN_POINT('',(684.,26.,252.5));
#1735=CARTESIAN_POINT('',(678.,22.,252.5));
#1736=CARTESIAN_POINT('',(681.,22.,252.5));
#1737=CARTESIAN_POINT('',(678.,30.,252.5));
#1738=CARTESIAN_POINT('',(678.,26.,252.5));
#1739=CARTESIAN_POINT('',(681.,30.,252.5));
#1740=CARTESIAN_POINT('Origin',(681.,22.,255.));
#1741=CARTESIAN_POINT('',(678.,22.,253.875));
#1742=CARTESIAN_POINT('',(682.,22.,253.875));
#1743=CARTESIAN_POINT('',(674.,22.,253.875));
#1744=CARTESIAN_POINT('',(678.,22.,255.));
#1745=CARTESIAN_POINT('',(684.,22.,254.));
#1746=CARTESIAN_POINT('',(684.,22.,255.));
#1747=CARTESIAN_POINT('',(682.,22.,254.));
#1748=CARTESIAN_POINT('',(687.,22.,254.));
#1749=CARTESIAN_POINT('',(682.,22.,253.875));
#1750=CARTESIAN_POINT('Origin',(678.,26.,255.));
#1751=CARTESIAN_POINT('',(678.,30.,255.));
#1752=CARTESIAN_POINT('',(678.,22.,254.4375));
#1753=CARTESIAN_POINT('Origin',(681.,30.,255.));
#1754=CARTESIAN_POINT('',(684.,30.,255.));
#1755=CARTESIAN_POINT('Origin',(684.,26.,255.));
#1756=CARTESIAN_POINT('',(684.,22.,254.4375));
#1757=CARTESIAN_POINT('Origin',(678.,0.,258.));
#1758=CARTESIAN_POINT('',(682.,16.,258.));
#1759=CARTESIAN_POINT('',(682.,-22.,258.));
#1760=CARTESIAN_POINT('',(682.,0.,258.));
#1761=CARTESIAN_POINT('',(685.,16.,258.));
#1762=CARTESIAN_POINT('',(682.5,16.,258.));
#1763=CARTESIAN_POINT('',(685.,-22.,258.));
#1764=CARTESIAN_POINT('',(685.,0.,258.));
#1765=CARTESIAN_POINT('',(678.,-22.,258.));
#1766=CARTESIAN_POINT('Origin',(678.,0.,258.));
#1767=CARTESIAN_POINT('',(674.,-22.,258.));
#1768=CARTESIAN_POINT('',(674.,22.,258.));
#1769=CARTESIAN_POINT('',(674.,0.,258.));
#1770=CARTESIAN_POINT('',(671.,-22.,258.));
#1771=CARTESIAN_POINT('',(678.,-22.,258.));
#1772=CARTESIAN_POINT('',(671.,22.,258.));
#1773=CARTESIAN_POINT('',(671.,0.,258.));
#1774=CARTESIAN_POINT('',(678.,22.,258.));
#1775=CARTESIAN_POINT('Origin',(691.,19.,254.));
#1776=CARTESIAN_POINT('',(691.,20.7,254.));
#1777=CARTESIAN_POINT('',(691.,17.3,254.));
#1778=CARTESIAN_POINT('',(691.,19.,254.));
#1779=CARTESIAN_POINT('',(691.,19.,255.7));
#1780=CARTESIAN_POINT('Origin',(691.,19.,254.));
#1781=CARTESIAN_POINT('Origin',(691.,19.,254.));
#1782=CARTESIAN_POINT('Origin',(696.,19.,254.));
#1783=CARTESIAN_POINT('',(692.,20.7,254.));
#1784=CARTESIAN_POINT('',(696.,20.7,254.));
#1785=CARTESIAN_POINT('',(692.,17.3,254.));
#1786=CARTESIAN_POINT('Origin',(692.,19.,254.));
#1787=CARTESIAN_POINT('',(696.,17.3,254.));
#1788=CARTESIAN_POINT('',(700.,19.,255.7));
#1789=CARTESIAN_POINT('',(696.,19.,255.7));
#1790=CARTESIAN_POINT('Origin',(700.,19.,254.));
#1791=CARTESIAN_POINT('Origin',(687.,19.,254.));
#1792=CARTESIAN_POINT('',(682.,16.,254.));
#1793=CARTESIAN_POINT('',(682.,9.5,254.));
#1794=CARTESIAN_POINT('',(692.,22.,254.));
#1795=CARTESIAN_POINT('',(687.,22.,254.));
#1796=CARTESIAN_POINT('',(692.,19.,254.));
#1797=CARTESIAN_POINT('',(692.,16.,254.));
#1798=CARTESIAN_POINT('',(692.,19.,254.));
#1799=CARTESIAN_POINT('',(687.,16.,254.));
#1800=CARTESIAN_POINT('Origin',(696.,19.,226.));
#1801=CARTESIAN_POINT('',(692.,19.,227.7));
#1802=CARTESIAN_POINT('Origin',(692.,19.,226.));
#1803=CARTESIAN_POINT('',(700.,19.,227.7));
#1804=CARTESIAN_POINT('',(696.,19.,227.7));
#1805=CARTESIAN_POINT('Origin',(700.,19.,226.));
#1806=CARTESIAN_POINT('Origin',(696.,19.,216.));
#1807=CARTESIAN_POINT('',(700.,22.,216.));
#1808=CARTESIAN_POINT('',(700.,16.,216.));
#1809=CARTESIAN_POINT('',(700.,19.,216.));
#1810=CARTESIAN_POINT('',(692.,16.,216.));
#1811=CARTESIAN_POINT('',(696.,16.,216.));
#1812=CARTESIAN_POINT('',(692.,22.,216.));
#1813=CARTESIAN_POINT('',(692.,19.,216.));
#1814=CARTESIAN_POINT('',(696.,22.,216.));
#1815=CARTESIAN_POINT('Origin',(692.,19.,240.));
#1816=CARTESIAN_POINT('',(692.,22.,240.));
#1817=CARTESIAN_POINT('',(692.,16.,240.));
#1818=CARTESIAN_POINT('Origin',(678.,0.,265.));
#1819=CARTESIAN_POINT('',(674.95,-22.,265.));
#1820=CARTESIAN_POINT('',(674.95,16.,265.));
#1821=CARTESIAN_POINT('',(674.95,0.,265.));
#1822=CARTESIAN_POINT('',(681.05,-22.,265.));
#1823=CARTESIAN_POINT('',(678.,-22.,265.));
#1824=CARTESIAN_POINT('',(681.05,16.,265.));
#1825=CARTESIAN_POINT('',(681.05,0.,265.));
#1826=CARTESIAN_POINT('',(682.5,16.,265.));
#1827=CARTESIAN_POINT('Origin',(687.,16.,262.5));
#1828=CARTESIAN_POINT('Origin',(678.,16.,265.));
#1829=CARTESIAN_POINT('Origin',(685.,0.,265.));
#1830=CARTESIAN_POINT('',(685.,16.,271.));
#1831=CARTESIAN_POINT('',(685.,16.,263.75));
#1832=CARTESIAN_POINT('',(685.,22.,271.));
#1833=CARTESIAN_POINT('',(685.,9.5,271.));
#1834=CARTESIAN_POINT('',(685.,22.,272.));
#1835=CARTESIAN_POINT('',(685.,22.,265.));
#1836=CARTESIAN_POINT('',(685.,-22.,272.));
#1837=CARTESIAN_POINT('',(685.,0.,272.));
#1838=CARTESIAN_POINT('',(685.,-22.,265.));
#1839=CARTESIAN_POINT('Origin',(678.,0.,265.));
#1840=CARTESIAN_POINT('Origin',(678.,-22.,265.));
#1841=CARTESIAN_POINT('Origin',(678.,0.,272.));
#1842=CARTESIAN_POINT('',(671.,22.,272.));
#1843=CARTESIAN_POINT('',(678.,22.,272.));
#1844=CARTESIAN_POINT('',(671.,-22.,272.));
#1845=CARTESIAN_POINT('',(671.,0.,272.));
#1846=CARTESIAN_POINT('',(678.,-22.,272.));
#1847=CARTESIAN_POINT('Origin',(671.,0.,265.));
#1848=CARTESIAN_POINT('',(671.,22.,265.));
#1849=CARTESIAN_POINT('',(671.,-22.,265.));
#1850=CARTESIAN_POINT('Origin',(687.,19.,271.));
#1851=CARTESIAN_POINT('',(700.,16.,271.));
#1852=CARTESIAN_POINT('',(687.,16.,271.));
#1853=CARTESIAN_POINT('',(700.,22.,271.));
#1854=CARTESIAN_POINT('',(700.,19.,271.));
#1855=CARTESIAN_POINT('',(687.,22.,271.));
#1856=CARTESIAN_POINT('Origin',(687.,16.,262.5));
#1857=CARTESIAN_POINT('',(682.,16.,258.875));
#1858=CARTESIAN_POINT('',(700.,16.,262.5));
#1859=CARTESIAN_POINT('Origin',(700.,19.,262.5));
#1860=CARTESIAN_POINT('',(700.,22.,262.5));
#1861=CARTESIAN_POINT('Origin',(674.,22.,253.875));
#1862=CARTESIAN_POINT('',(674.,22.,253.875));
#1863=CARTESIAN_POINT('',(674.,22.,253.875));
#1864=CARTESIAN_POINT('',(674.,22.,253.875));
#1865=CARTESIAN_POINT('Origin',(682.,0.,255.25));
#1866=CARTESIAN_POINT('',(682.,-22.,253.875));
#1867=CARTESIAN_POINT('',(682.,-22.,260.));
#1868=CARTESIAN_POINT('',(682.,-20.7100973558841,253.875));
#1869=CARTESIAN_POINT('',(682.,-22.,253.875));
#1870=CARTESIAN_POINT('',(682.,-19.4816978152356,250.5));
#1871=CARTESIAN_POINT('',(682.,-20.7100973558841,253.875));
#1872=CARTESIAN_POINT('',(682.,-18.2174140278419,250.5));
#1873=CARTESIAN_POINT('',(682.,-19.4816978152356,250.5));
#1874=CARTESIAN_POINT('',(682.,-16.9890144871935,253.875));
#1875=CARTESIAN_POINT('',(682.,-18.2174140278419,250.5));
#1876=CARTESIAN_POINT('',(682.,-15.9977083754994,253.875));
#1877=CARTESIAN_POINT('',(682.,-16.9890144871935,253.875));
#1878=CARTESIAN_POINT('',(682.,-14.7693088348509,250.5));
#1879=CARTESIAN_POINT('',(682.,-15.9977083754994,253.875));
#1880=CARTESIAN_POINT('',(682.,-13.5050250474572,250.5));
#1881=CARTESIAN_POINT('',(682.,-14.7693088348509,250.5));
#1882=CARTESIAN_POINT('',(682.,-12.2766255068088,253.875));
#1883=CARTESIAN_POINT('',(682.,-13.5050250474572,250.5));
#1884=CARTESIAN_POINT('',(682.,-11.2853193951147,253.875));
#1885=CARTESIAN_POINT('',(682.,-12.2766255068088,253.875));
#1886=CARTESIAN_POINT('',(682.,-10.0569198544662,250.5));
#1887=CARTESIAN_POINT('',(682.,-11.2853193951147,253.875));
#1888=CARTESIAN_POINT('',(682.,-8.79263606707251,250.5));
#1889=CARTESIAN_POINT('',(682.,-10.0569198544662,250.5));
#1890=CARTESIAN_POINT('',(682.,-7.56423652642408,253.875));
#1891=CARTESIAN_POINT('',(682.,-8.79263606707251,250.5));
#1892=CARTESIAN_POINT('',(682.,-6.57293041472999,253.875));
#1893=CARTESIAN_POINT('',(682.,-7.56423652642408,253.875));
#1894=CARTESIAN_POINT('',(682.,-5.34453087408156,250.5));
#1895=CARTESIAN_POINT('',(682.,-6.57293041472999,253.875));
#1896=CARTESIAN_POINT('',(682.,-4.08024708668782,250.5));
#1897=CARTESIAN_POINT('',(682.,-5.34453087408156,250.5));
#1898=CARTESIAN_POINT('',(682.,-2.85184754603939,253.875));
#1899=CARTESIAN_POINT('',(682.,-4.08024708668782,250.5));
#1900=CARTESIAN_POINT('',(682.,-1.8605414343453,253.875));
#1901=CARTESIAN_POINT('',(682.,-2.85184754603939,253.875));
#1902=CARTESIAN_POINT('',(682.,-0.632141893696869,250.5));
#1903=CARTESIAN_POINT('',(682.,-1.8605414343453,253.875));
#1904=CARTESIAN_POINT('',(682.,0.632141893696869,250.5));
#1905=CARTESIAN_POINT('',(682.,-0.632141893696869,250.5));
#1906=CARTESIAN_POINT('',(682.,1.8605414343453,253.875));
#1907=CARTESIAN_POINT('',(682.,0.632141893696869,250.5));
#1908=CARTESIAN_POINT('',(682.,2.85184754603939,253.875));
#1909=CARTESIAN_POINT('',(682.,1.8605414343453,253.875));
#1910=CARTESIAN_POINT('',(682.,4.08024708668782,250.5));
#1911=CARTESIAN_POINT('',(682.,2.85184754603939,253.875));
#1912=CARTESIAN_POINT('',(682.,5.34453087408156,250.5));
#1913=CARTESIAN_POINT('',(682.,4.08024708668782,250.5));
#1914=CARTESIAN_POINT('',(682.,6.57293041472999,253.875));
#1915=CARTESIAN_POINT('',(682.,5.34453087408156,250.5));
#1916=CARTESIAN_POINT('',(682.,7.56423652642408,253.875));
#1917=CARTESIAN_POINT('',(682.,6.57293041472999,253.875));
#1918=CARTESIAN_POINT('',(682.,8.79263606707251,250.5));
#1919=CARTESIAN_POINT('',(682.,7.56423652642408,253.875));
#1920=CARTESIAN_POINT('',(682.,10.0569198544662,250.5));
#1921=CARTESIAN_POINT('',(682.,8.79263606707251,250.5));
#1922=CARTESIAN_POINT('',(682.,11.2853193951147,253.875));
#1923=CARTESIAN_POINT('',(682.,10.0569198544662,250.5));
#1924=CARTESIAN_POINT('',(682.,12.2766255068088,253.875));
#1925=CARTESIAN_POINT('',(682.,11.2853193951147,253.875));
#1926=CARTESIAN_POINT('',(682.,13.5050250474572,250.5));
#1927=CARTESIAN_POINT('',(682.,12.2766255068088,253.875));
#1928=CARTESIAN_POINT('',(682.,14.7693088348509,250.5));
#1929=CARTESIAN_POINT('',(682.,13.5050250474572,250.5));
#1930=CARTESIAN_POINT('',(682.,15.9977083754994,253.875));
#1931=CARTESIAN_POINT('',(682.,14.7693088348509,250.5));
#1932=CARTESIAN_POINT('',(682.,16.9890144871935,253.875));
#1933=CARTESIAN_POINT('',(682.,15.9977083754994,253.875));
#1934=CARTESIAN_POINT('',(682.,18.2174140278419,250.5));
#1935=CARTESIAN_POINT('',(682.,16.9890144871935,253.875));
#1936=CARTESIAN_POINT('',(682.,19.4816978152356,250.5));
#1937=CARTESIAN_POINT('',(682.,18.2174140278419,250.5));
#1938=CARTESIAN_POINT('',(682.,20.7100973558841,253.875));
#1939=CARTESIAN_POINT('',(682.,19.4816978152356,250.5));
#1940=CARTESIAN_POINT('',(682.,20.7100973558841,253.875));
#1941=CARTESIAN_POINT('Origin',(674.,20.7100973558841,253.875));
#1942=CARTESIAN_POINT('',(674.,20.7100973558841,253.875));
#1943=CARTESIAN_POINT('',(674.,20.7100973558841,253.875));
#1944=CARTESIAN_POINT('',(674.,20.7100973558841,253.875));
#1945=CARTESIAN_POINT('Origin',(674.,19.4816978152356,250.5));
#1946=CARTESIAN_POINT('',(674.,19.4816978152356,250.5));
#1947=CARTESIAN_POINT('',(674.,19.4816978152356,250.5));
#1948=CARTESIAN_POINT('',(674.,19.4816978152356,250.5));
#1949=CARTESIAN_POINT('Origin',(674.,18.2174140278419,250.5));
#1950=CARTESIAN_POINT('',(674.,18.2174140278419,250.5));
#1951=CARTESIAN_POINT('',(674.,18.2174140278419,250.5));
#1952=CARTESIAN_POINT('',(674.,18.2174140278419,250.5));
#1953=CARTESIAN_POINT('Origin',(674.,16.9890144871935,253.875));
#1954=CARTESIAN_POINT('',(674.,16.9890144871935,253.875));
#1955=CARTESIAN_POINT('',(674.,16.9890144871935,253.875));
#1956=CARTESIAN_POINT('',(674.,16.9890144871935,253.875));
#1957=CARTESIAN_POINT('Origin',(674.,15.9977083754994,253.875));
#1958=CARTESIAN_POINT('',(674.,15.9977083754994,253.875));
#1959=CARTESIAN_POINT('',(674.,15.9977083754994,253.875));
#1960=CARTESIAN_POINT('',(674.,15.9977083754994,253.875));
#1961=CARTESIAN_POINT('Origin',(674.,14.7693088348509,250.5));
#1962=CARTESIAN_POINT('',(674.,14.7693088348509,250.5));
#1963=CARTESIAN_POINT('',(674.,14.7693088348509,250.5));
#1964=CARTESIAN_POINT('',(674.,14.7693088348509,250.5));
#1965=CARTESIAN_POINT('Origin',(674.,13.5050250474572,250.5));
#1966=CARTESIAN_POINT('',(674.,13.5050250474572,250.5));
#1967=CARTESIAN_POINT('',(674.,13.5050250474572,250.5));
#1968=CARTESIAN_POINT('',(674.,13.5050250474572,250.5));
#1969=CARTESIAN_POINT('Origin',(674.,12.2766255068088,253.875));
#1970=CARTESIAN_POINT('',(674.,12.2766255068088,253.875));
#1971=CARTESIAN_POINT('',(674.,12.2766255068088,253.875));
#1972=CARTESIAN_POINT('',(674.,12.2766255068088,253.875));
#1973=CARTESIAN_POINT('Origin',(674.,11.2853193951147,253.875));
#1974=CARTESIAN_POINT('',(674.,11.2853193951147,253.875));
#1975=CARTESIAN_POINT('',(674.,11.2853193951147,253.875));
#1976=CARTESIAN_POINT('',(674.,11.2853193951147,253.875));
#1977=CARTESIAN_POINT('Origin',(674.,10.0569198544662,250.5));
#1978=CARTESIAN_POINT('',(674.,10.0569198544662,250.5));
#1979=CARTESIAN_POINT('',(674.,10.0569198544662,250.5));
#1980=CARTESIAN_POINT('',(674.,10.0569198544662,250.5));
#1981=CARTESIAN_POINT('Origin',(674.,8.79263606707251,250.5));
#1982=CARTESIAN_POINT('',(674.,8.79263606707251,250.5));
#1983=CARTESIAN_POINT('',(674.,8.79263606707251,250.5));
#1984=CARTESIAN_POINT('',(674.,8.79263606707251,250.5));
#1985=CARTESIAN_POINT('Origin',(674.,7.56423652642408,253.875));
#1986=CARTESIAN_POINT('',(674.,7.56423652642408,253.875));
#1987=CARTESIAN_POINT('',(674.,7.56423652642408,253.875));
#1988=CARTESIAN_POINT('',(674.,7.56423652642408,253.875));
#1989=CARTESIAN_POINT('Origin',(674.,6.57293041472999,253.875));
#1990=CARTESIAN_POINT('',(674.,6.57293041472999,253.875));
#1991=CARTESIAN_POINT('',(674.,6.57293041472999,253.875));
#1992=CARTESIAN_POINT('',(674.,6.57293041472999,253.875));
#1993=CARTESIAN_POINT('Origin',(674.,5.34453087408156,250.5));
#1994=CARTESIAN_POINT('',(674.,5.34453087408156,250.5));
#1995=CARTESIAN_POINT('',(674.,5.34453087408156,250.5));
#1996=CARTESIAN_POINT('',(674.,5.34453087408156,250.5));
#1997=CARTESIAN_POINT('Origin',(674.,4.08024708668782,250.5));
#1998=CARTESIAN_POINT('',(674.,4.08024708668782,250.5));
#1999=CARTESIAN_POINT('',(674.,4.08024708668782,250.5));
#2000=CARTESIAN_POINT('',(674.,4.08024708668782,250.5));
#2001=CARTESIAN_POINT('Origin',(674.,2.85184754603939,253.875));
#2002=CARTESIAN_POINT('',(674.,2.85184754603939,253.875));
#2003=CARTESIAN_POINT('',(674.,2.85184754603939,253.875));
#2004=CARTESIAN_POINT('',(674.,2.85184754603939,253.875));
#2005=CARTESIAN_POINT('Origin',(674.,1.8605414343453,253.875));
#2006=CARTESIAN_POINT('',(674.,1.8605414343453,253.875));
#2007=CARTESIAN_POINT('',(674.,1.8605414343453,253.875));
#2008=CARTESIAN_POINT('',(674.,1.8605414343453,253.875));
#2009=CARTESIAN_POINT('Origin',(674.,0.632141893696869,250.5));
#2010=CARTESIAN_POINT('',(674.,0.632141893696869,250.5));
#2011=CARTESIAN_POINT('',(674.,0.632141893696869,250.5));
#2012=CARTESIAN_POINT('',(674.,0.632141893696869,250.5));
#2013=CARTESIAN_POINT('Origin',(674.,-0.632141893696869,250.5));
#2014=CARTESIAN_POINT('',(674.,-0.632141893696869,250.5));
#2015=CARTESIAN_POINT('',(674.,-0.632141893696869,250.5));
#2016=CARTESIAN_POINT('',(674.,-0.632141893696869,250.5));
#2017=CARTESIAN_POINT('Origin',(674.,-1.8605414343453,253.875));
#2018=CARTESIAN_POINT('',(674.,-1.8605414343453,253.875));
#2019=CARTESIAN_POINT('',(674.,-1.8605414343453,253.875));
#2020=CARTESIAN_POINT('',(674.,-1.8605414343453,253.875));
#2021=CARTESIAN_POINT('Origin',(674.,-2.85184754603939,253.875));
#2022=CARTESIAN_POINT('',(674.,-2.85184754603939,253.875));
#2023=CARTESIAN_POINT('',(674.,-2.85184754603939,253.875));
#2024=CARTESIAN_POINT('',(674.,-2.85184754603939,253.875));
#2025=CARTESIAN_POINT('Origin',(674.,-4.08024708668782,250.5));
#2026=CARTESIAN_POINT('',(674.,-4.08024708668782,250.5));
#2027=CARTESIAN_POINT('',(674.,-4.08024708668782,250.5));
#2028=CARTESIAN_POINT('',(674.,-4.08024708668782,250.5));
#2029=CARTESIAN_POINT('Origin',(674.,-5.34453087408156,250.5));
#2030=CARTESIAN_POINT('',(674.,-5.34453087408156,250.5));
#2031=CARTESIAN_POINT('',(674.,-5.34453087408156,250.5));
#2032=CARTESIAN_POINT('',(674.,-5.34453087408156,250.5));
#2033=CARTESIAN_POINT('Origin',(674.,-6.57293041472999,253.875));
#2034=CARTESIAN_POINT('',(674.,-6.57293041472999,253.875));
#2035=CARTESIAN_POINT('',(674.,-6.57293041472999,253.875));
#2036=CARTESIAN_POINT('',(674.,-6.57293041472999,253.875));
#2037=CARTESIAN_POINT('Origin',(674.,-7.56423652642408,253.875));
#2038=CARTESIAN_POINT('',(674.,-7.56423652642408,253.875));
#2039=CARTESIAN_POINT('',(674.,-7.56423652642408,253.875));
#2040=CARTESIAN_POINT('',(674.,-7.56423652642408,253.875));
#2041=CARTESIAN_POINT('Origin',(674.,-8.79263606707251,250.5));
#2042=CARTESIAN_POINT('',(674.,-8.79263606707251,250.5));
#2043=CARTESIAN_POINT('',(674.,-8.79263606707251,250.5));
#2044=CARTESIAN_POINT('',(674.,-8.79263606707251,250.5));
#2045=CARTESIAN_POINT('Origin',(674.,-10.0569198544662,250.5));
#2046=CARTESIAN_POINT('',(674.,-10.0569198544662,250.5));
#2047=CARTESIAN_POINT('',(674.,-10.0569198544662,250.5));
#2048=CARTESIAN_POINT('',(674.,-10.0569198544662,250.5));
#2049=CARTESIAN_POINT('Origin',(674.,-11.2853193951147,253.875));
#2050=CARTESIAN_POINT('',(674.,-11.2853193951147,253.875));
#2051=CARTESIAN_POINT('',(674.,-11.2853193951147,253.875));
#2052=CARTESIAN_POINT('',(674.,-11.2853193951147,253.875));
#2053=CARTESIAN_POINT('Origin',(674.,-12.2766255068088,253.875));
#2054=CARTESIAN_POINT('',(674.,-12.2766255068088,253.875));
#2055=CARTESIAN_POINT('',(674.,-12.2766255068088,253.875));
#2056=CARTESIAN_POINT('',(674.,-12.2766255068088,253.875));
#2057=CARTESIAN_POINT('Origin',(674.,-13.5050250474572,250.5));
#2058=CARTESIAN_POINT('',(674.,-13.5050250474572,250.5));
#2059=CARTESIAN_POINT('',(674.,-13.5050250474572,250.5));
#2060=CARTESIAN_POINT('',(674.,-13.5050250474572,250.5));
#2061=CARTESIAN_POINT('Origin',(674.,-14.7693088348509,250.5));
#2062=CARTESIAN_POINT('',(674.,-14.7693088348509,250.5));
#2063=CARTESIAN_POINT('',(674.,-14.7693088348509,250.5));
#2064=CARTESIAN_POINT('',(674.,-14.7693088348509,250.5));
#2065=CARTESIAN_POINT('Origin',(674.,-15.9977083754994,253.875));
#2066=CARTESIAN_POINT('',(674.,-15.9977083754994,253.875));
#2067=CARTESIAN_POINT('',(674.,-15.9977083754994,253.875));
#2068=CARTESIAN_POINT('',(674.,-15.9977083754994,253.875));
#2069=CARTESIAN_POINT('Origin',(674.,-16.9890144871935,253.875));
#2070=CARTESIAN_POINT('',(674.,-16.9890144871935,253.875));
#2071=CARTESIAN_POINT('',(674.,-16.9890144871935,253.875));
#2072=CARTESIAN_POINT('',(674.,-16.9890144871935,253.875));
#2073=CARTESIAN_POINT('Origin',(674.,-18.2174140278419,250.5));
#2074=CARTESIAN_POINT('',(674.,-18.2174140278419,250.5));
#2075=CARTESIAN_POINT('',(674.,-18.2174140278419,250.5));
#2076=CARTESIAN_POINT('',(674.,-18.2174140278419,250.5));
#2077=CARTESIAN_POINT('Origin',(674.,-19.4816978152356,250.5));
#2078=CARTESIAN_POINT('',(674.,-19.4816978152356,250.5));
#2079=CARTESIAN_POINT('',(674.,-19.4816978152356,250.5));
#2080=CARTESIAN_POINT('',(674.,-19.4816978152356,250.5));
#2081=CARTESIAN_POINT('Origin',(674.,-20.7100973558841,253.875));
#2082=CARTESIAN_POINT('',(674.,-20.7100973558841,253.875));
#2083=CARTESIAN_POINT('',(674.,-20.7100973558841,253.875));
#2084=CARTESIAN_POINT('',(674.,-20.7100973558841,253.875));
#2085=CARTESIAN_POINT('Origin',(674.,-22.,253.875));
#2086=CARTESIAN_POINT('',(674.,-22.,253.875));
#2087=CARTESIAN_POINT('',(674.,-22.,253.875));
#2088=CARTESIAN_POINT('',(674.,-22.,253.875));
#2089=CARTESIAN_POINT('Origin',(674.,-22.,260.));
#2090=CARTESIAN_POINT('',(674.,-22.,260.));
#2091=CARTESIAN_POINT('Origin',(674.,0.,255.25));
#2092=UNCERTAINTY_MEASURE_WITH_UNIT(LENGTH_MEASURE(0.01),#2096,
'DISTANCE_ACCURACY_VALUE',
'Maximum model space distance between geometric entities at asserted c
onnectivities');
#2093=UNCERTAINTY_MEASURE_WITH_UNIT(LENGTH_MEASURE(0.01),#2096,
'DISTANCE_ACCURACY_VALUE',
'Maximum model space distance between geometric entities at asserted c
onnectivities');
#2094=(
GEOMETRIC_REPRESENTATION_CONTEXT(3)
GLOBAL_UNCERTAINTY_ASSIGNED_CONTEXT((#2092))
GLOBAL_UNIT_ASSIGNED_CONTEXT((#2096,#2098,#2099))
REPRESENTATION_CONTEXT('','3D')
);
#2095=(
GEOMETRIC_REPRESENTATION_CONTEXT(3)
GLOBAL_UNCERTAINTY_ASSIGNED_CONTEXT((#2093))
GLOBAL_UNIT_ASSIGNED_CONTEXT((#2096,#2098,#2099))
REPRESENTATION_CONTEXT('','3D')
);
#2096=(
LENGTH_UNIT()
NAMED_UNIT(*)
SI_UNIT(.MILLI.,.METRE.)
);
#2097=(
LENGTH_UNIT()
NAMED_UNIT(*)
SI_UNIT($,.METRE.)
);
#2098=(
NAMED_UNIT(*)
PLANE_ANGLE_UNIT()
SI_UNIT($,.RADIAN.)
);
#2099=(
NAMED_UNIT(*)
SI_UNIT($,.STERADIAN.)
SOLID_ANGLE_UNIT()
);
#2100=SHAPE_DEFINITION_REPRESENTATION(#2101,#2102);
#2101=PRODUCT_DEFINITION_SHAPE('',$,#2104);
#2102=SHAPE_REPRESENTATION('',(#1326),#2094);
#2103=PRODUCT_DEFINITION_CONTEXT('part definition',#2108,'design');
#2104=PRODUCT_DEFINITION('2026-08-12-23-05-57-123',
'EXPORT_TMP_PRINT_V010Q_P803_JawCarriage_A',#2105,#2103);
#2105=PRODUCT_DEFINITION_FORMATION('',$,#2110);
#2106=PRODUCT_RELATED_PRODUCT_CATEGORY(
'EXPORT_TMP_PRINT_V010Q_P803_JawCarriage_A',
'EXPORT_TMP_PRINT_V010Q_P803_JawCarriage_A',(#2110));
#2107=APPLICATION_PROTOCOL_DEFINITION('international standard',
'automotive_design',2009,#2108);
#2108=APPLICATION_CONTEXT(
'Core Data for Automotive Mechanical Design Process');
#2109=PRODUCT_CONTEXT('part definition',#2108,'mechanical');
#2110=PRODUCT('2026-08-12-23-05-57-123',
'EXPORT_TMP_PRINT_V010Q_P803_JawCarriage_A',$,(#2109));
#2111=PRESENTATION_STYLE_ASSIGNMENT((#2112));
#2112=SURFACE_STYLE_USAGE(.BOTH.,#2113);
#2113=SURFACE_SIDE_STYLE('',(#2114));
#2114=SURFACE_STYLE_FILL_AREA(#2115);
#2115=FILL_AREA_STYLE('Steel - Satin',(#2116));
#2116=FILL_AREA_STYLE_COLOUR('Steel - Satin',#2117);
#2117=COLOUR_RGB('Steel - Satin',0.627450980392157,0.627450980392157,0.627450980392157);
ENDSEC;
END-ISO-10303-21;
