ISO-10303-21;
HEADER;
/* Generated by software containing ST-Developer
 * from STEP Tools, Inc. (www.steptools.com) 
 */

FILE_DESCRIPTION(
/* description */ (''),
/* implementation_level */ '2;1');

FILE_NAME(
/* name */ 'PRINT_V010Q_P804_JawCarriage_B.step',
/* time_stamp */ '2026-08-12T23:06:03+02:00',
/* author */ (''),
/* organization */ (''),
/* preprocessor_version */ 'ST-DEVELOPER v20.1',
/* originating_system */ 'Autodesk Translation Framework v15.8.0.0',
/* authorisation */ '');

FILE_SCHEMA (('AUTOMOTIVE_DESIGN { 1 0 10303 214 3 1 1 }'));
ENDSEC;

DATA;
#10=MECHANICAL_DESIGN_GEOMETRIC_PRESENTATION_REPRESENTATION('',(#13),#1915);
#11=SHAPE_REPRESENTATION_RELATIONSHIP('SRR','None',#1922,#12);
#12=ADVANCED_BREP_SHAPE_REPRESENTATION('',(#14),#1914);
#13=STYLED_ITEM('',(#1931),#14);
#14=MANIFOLD_SOLID_BREP('PRINT_V010Q_P804_JawCarriage_B',#1199);
#15=FACE_BOUND('',#94,.T.);
#16=FACE_BOUND('',#97,.T.);
#17=FACE_BOUND('',#98,.T.);
#18=FACE_BOUND('',#110,.T.);
#19=CIRCLE('',#1215,1.7);
#20=CIRCLE('',#1216,1.7);
#21=CIRCLE('',#1218,1.7);
#22=CIRCLE('',#1220,1.7);
#23=CIRCLE('',#1221,1.7);
#24=CIRCLE('',#1222,1.7);
#25=CIRCLE('',#1230,3.05);
#26=CIRCLE('',#1231,3.05);
#27=CYLINDRICAL_SURFACE('',#1214,1.7);
#28=CYLINDRICAL_SURFACE('',#1219,1.7);
#29=CYLINDRICAL_SURFACE('',#1229,3.05);
#30=FACE_OUTER_BOUND('',#88,.T.);
#31=FACE_OUTER_BOUND('',#89,.T.);
#32=FACE_OUTER_BOUND('',#90,.T.);
#33=FACE_OUTER_BOUND('',#91,.T.);
#34=FACE_OUTER_BOUND('',#92,.T.);
#35=FACE_OUTER_BOUND('',#93,.T.);
#36=FACE_OUTER_BOUND('',#95,.T.);
#37=FACE_OUTER_BOUND('',#96,.T.);
#38=FACE_OUTER_BOUND('',#99,.T.);
#39=FACE_OUTER_BOUND('',#100,.T.);
#40=FACE_OUTER_BOUND('',#101,.T.);
#41=FACE_OUTER_BOUND('',#102,.T.);
#42=FACE_OUTER_BOUND('',#103,.T.);
#43=FACE_OUTER_BOUND('',#104,.T.);
#44=FACE_OUTER_BOUND('',#105,.T.);
#45=FACE_OUTER_BOUND('',#106,.T.);
#46=FACE_OUTER_BOUND('',#107,.T.);
#47=FACE_OUTER_BOUND('',#108,.T.);
#48=FACE_OUTER_BOUND('',#109,.T.);
#49=FACE_OUTER_BOUND('',#111,.T.);
#50=FACE_OUTER_BOUND('',#112,.T.);
#51=FACE_OUTER_BOUND('',#113,.T.);
#52=FACE_OUTER_BOUND('',#114,.T.);
#53=FACE_OUTER_BOUND('',#115,.T.);
#54=FACE_OUTER_BOUND('',#116,.T.);
#55=FACE_OUTER_BOUND('',#117,.T.);
#56=FACE_OUTER_BOUND('',#118,.T.);
#57=FACE_OUTER_BOUND('',#119,.T.);
#58=FACE_OUTER_BOUND('',#120,.T.);
#59=FACE_OUTER_BOUND('',#121,.T.);
#60=FACE_OUTER_BOUND('',#122,.T.);
#61=FACE_OUTER_BOUND('',#123,.T.);
#62=FACE_OUTER_BOUND('',#124,.T.);
#63=FACE_OUTER_BOUND('',#125,.T.);
#64=FACE_OUTER_BOUND('',#126,.T.);
#65=FACE_OUTER_BOUND('',#127,.T.);
#66=FACE_OUTER_BOUND('',#128,.T.);
#67=FACE_OUTER_BOUND('',#129,.T.);
#68=FACE_OUTER_BOUND('',#130,.T.);
#69=FACE_OUTER_BOUND('',#131,.T.);
#70=FACE_OUTER_BOUND('',#132,.T.);
#71=FACE_OUTER_BOUND('',#133,.T.);
#72=FACE_OUTER_BOUND('',#134,.T.);
#73=FACE_OUTER_BOUND('',#135,.T.);
#74=FACE_OUTER_BOUND('',#136,.T.);
#75=FACE_OUTER_BOUND('',#137,.T.);
#76=FACE_OUTER_BOUND('',#138,.T.);
#77=FACE_OUTER_BOUND('',#139,.T.);
#78=FACE_OUTER_BOUND('',#140,.T.);
#79=FACE_OUTER_BOUND('',#141,.T.);
#80=FACE_OUTER_BOUND('',#142,.T.);
#81=FACE_OUTER_BOUND('',#143,.T.);
#82=FACE_OUTER_BOUND('',#144,.T.);
#83=FACE_OUTER_BOUND('',#145,.T.);
#84=FACE_OUTER_BOUND('',#146,.T.);
#85=FACE_OUTER_BOUND('',#147,.T.);
#86=FACE_OUTER_BOUND('',#148,.T.);
#87=FACE_OUTER_BOUND('',#149,.T.);
#88=EDGE_LOOP('',(#750,#751,#752,#753));
#89=EDGE_LOOP('',(#754,#755,#756,#757));
#90=EDGE_LOOP('',(#758,#759));
#91=EDGE_LOOP('',(#760,#761,#762,#763,#764,#765,#766,#767));
#92=EDGE_LOOP('',(#768,#769,#770,#771,#772,#773,#774,#775));
#93=EDGE_LOOP('',(#776,#777,#778,#779,#780,#781,#782));
#94=EDGE_LOOP('',(#783));
#95=EDGE_LOOP('',(#784,#785,#786,#787));
#96=EDGE_LOOP('',(#788,#789,#790,#791));
#97=EDGE_LOOP('',(#792));
#98=EDGE_LOOP('',(#793));
#99=EDGE_LOOP('',(#794,#795,#796,#797));
#100=EDGE_LOOP('',(#798,#799,#800,#801,#802,#803));
#101=EDGE_LOOP('',(#804,#805,#806,#807));
#102=EDGE_LOOP('',(#808,#809,#810,#811));
#103=EDGE_LOOP('',(#812,#813,#814,#815));
#104=EDGE_LOOP('',(#816,#817,#818,#819));
#105=EDGE_LOOP('',(#820,#821));
#106=EDGE_LOOP('',(#822,#823,#824,#825));
#107=EDGE_LOOP('',(#826,#827,#828,#829,#830,#831,#832,#833));
#108=EDGE_LOOP('',(#834,#835,#836,#837,#838,#839,#840,#841,#842,#843,#844,
#845,#846,#847,#848,#849,#850,#851,#852,#853,#854,#855,#856,#857,#858,#859,
#860,#861,#862,#863,#864,#865,#866,#867,#868,#869,#870,#871,#872,#873,#874,
#875));
#109=EDGE_LOOP('',(#876,#877,#878,#879,#880,#881,#882,#883));
#110=EDGE_LOOP('',(#884,#885));
#111=EDGE_LOOP('',(#886,#887,#888,#889,#890,#891,#892,#893,#894,#895,#896,
#897));
#112=EDGE_LOOP('',(#898,#899,#900,#901));
#113=EDGE_LOOP('',(#902,#903,#904,#905));
#114=EDGE_LOOP('',(#906,#907,#908,#909));
#115=EDGE_LOOP('',(#910,#911,#912,#913));
#116=EDGE_LOOP('',(#914,#915,#916,#917));
#117=EDGE_LOOP('',(#918,#919,#920,#921));
#118=EDGE_LOOP('',(#922,#923,#924,#925));
#119=EDGE_LOOP('',(#926,#927,#928,#929));
#120=EDGE_LOOP('',(#930,#931,#932,#933));
#121=EDGE_LOOP('',(#934,#935,#936,#937));
#122=EDGE_LOOP('',(#938,#939,#940,#941));
#123=EDGE_LOOP('',(#942,#943,#944,#945));
#124=EDGE_LOOP('',(#946,#947,#948,#949));
#125=EDGE_LOOP('',(#950,#951,#952,#953));
#126=EDGE_LOOP('',(#954,#955,#956,#957));
#127=EDGE_LOOP('',(#958,#959,#960,#961));
#128=EDGE_LOOP('',(#962,#963,#964,#965));
#129=EDGE_LOOP('',(#966,#967,#968,#969));
#130=EDGE_LOOP('',(#970,#971,#972,#973));
#131=EDGE_LOOP('',(#974,#975,#976,#977));
#132=EDGE_LOOP('',(#978,#979,#980,#981));
#133=EDGE_LOOP('',(#982,#983,#984,#985));
#134=EDGE_LOOP('',(#986,#987,#988,#989));
#135=EDGE_LOOP('',(#990,#991,#992,#993));
#136=EDGE_LOOP('',(#994,#995,#996,#997));
#137=EDGE_LOOP('',(#998,#999,#1000,#1001));
#138=EDGE_LOOP('',(#1002,#1003,#1004,#1005));
#139=EDGE_LOOP('',(#1006,#1007,#1008,#1009));
#140=EDGE_LOOP('',(#1010,#1011,#1012,#1013));
#141=EDGE_LOOP('',(#1014,#1015,#1016,#1017));
#142=EDGE_LOOP('',(#1018,#1019,#1020,#1021));
#143=EDGE_LOOP('',(#1022,#1023,#1024,#1025));
#144=EDGE_LOOP('',(#1026,#1027,#1028,#1029));
#145=EDGE_LOOP('',(#1030,#1031,#1032,#1033));
#146=EDGE_LOOP('',(#1034,#1035,#1036,#1037));
#147=EDGE_LOOP('',(#1038,#1039,#1040,#1041));
#148=EDGE_LOOP('',(#1042,#1043,#1044,#1045));
#149=EDGE_LOOP('',(#1046,#1047,#1048,#1049,#1050,#1051,#1052,#1053,#1054,
#1055,#1056,#1057,#1058,#1059,#1060,#1061,#1062,#1063,#1064,#1065,#1066,
#1067,#1068,#1069,#1070,#1071,#1072,#1073,#1074,#1075,#1076,#1077,#1078,
#1079,#1080,#1081,#1082,#1083,#1084,#1085));
#150=LINE('',#1577,#310);
#151=LINE('',#1579,#311);
#152=LINE('',#1581,#312);
#153=LINE('',#1582,#313);
#154=LINE('',#1587,#314);
#155=LINE('',#1592,#315);
#156=LINE('',#1596,#316);
#157=LINE('',#1600,#317);
#158=LINE('',#1604,#318);
#159=LINE('',#1608,#319);
#160=LINE('',#1610,#320);
#161=LINE('',#1611,#321);
#162=LINE('',#1613,#322);
#163=LINE('',#1614,#323);
#164=LINE('',#1617,#324);
#165=LINE('',#1619,#325);
#166=LINE('',#1620,#326);
#167=LINE('',#1624,#327);
#168=LINE('',#1625,#328);
#169=LINE('',#1626,#329);
#170=LINE('',#1629,#330);
#171=LINE('',#1631,#331);
#172=LINE('',#1632,#332);
#173=LINE('',#1636,#333);
#174=LINE('',#1638,#334);
#175=LINE('',#1640,#335);
#176=LINE('',#1641,#336);
#177=LINE('',#1645,#337);
#178=LINE('',#1647,#338);
#179=LINE('',#1649,#339);
#180=LINE('',#1651,#340);
#181=LINE('',#1653,#341);
#182=LINE('',#1654,#342);
#183=LINE('',#1661,#343);
#184=LINE('',#1662,#344);
#185=LINE('',#1663,#345);
#186=LINE('',#1666,#346);
#187=LINE('',#1668,#347);
#188=LINE('',#1669,#348);
#189=LINE('',#1671,#349);
#190=LINE('',#1672,#350);
#191=LINE('',#1675,#351);
#192=LINE('',#1676,#352);
#193=LINE('',#1678,#353);
#194=LINE('',#1681,#354);
#195=LINE('',#1683,#355);
#196=LINE('',#1685,#356);
#197=LINE('',#1687,#357);
#198=LINE('',#1689,#358);
#199=LINE('',#1691,#359);
#200=LINE('',#1693,#360);
#201=LINE('',#1695,#361);
#202=LINE('',#1697,#362);
#203=LINE('',#1699,#363);
#204=LINE('',#1701,#364);
#205=LINE('',#1703,#365);
#206=LINE('',#1705,#366);
#207=LINE('',#1707,#367);
#208=LINE('',#1709,#368);
#209=LINE('',#1711,#369);
#210=LINE('',#1713,#370);
#211=LINE('',#1715,#371);
#212=LINE('',#1717,#372);
#213=LINE('',#1719,#373);
#214=LINE('',#1721,#374);
#215=LINE('',#1723,#375);
#216=LINE('',#1725,#376);
#217=LINE('',#1727,#377);
#218=LINE('',#1729,#378);
#219=LINE('',#1731,#379);
#220=LINE('',#1733,#380);
#221=LINE('',#1735,#381);
#222=LINE('',#1737,#382);
#223=LINE('',#1739,#383);
#224=LINE('',#1741,#384);
#225=LINE('',#1743,#385);
#226=LINE('',#1745,#386);
#227=LINE('',#1747,#387);
#228=LINE('',#1749,#388);
#229=LINE('',#1751,#389);
#230=LINE('',#1753,#390);
#231=LINE('',#1755,#391);
#232=LINE('',#1756,#392);
#233=LINE('',#1759,#393);
#234=LINE('',#1760,#394);
#235=LINE('',#1763,#395);
#236=LINE('',#1764,#396);
#237=LINE('',#1767,#397);
#238=LINE('',#1768,#398);
#239=LINE('',#1771,#399);
#240=LINE('',#1772,#400);
#241=LINE('',#1775,#401);
#242=LINE('',#1776,#402);
#243=LINE('',#1779,#403);
#244=LINE('',#1780,#404);
#245=LINE('',#1783,#405);
#246=LINE('',#1784,#406);
#247=LINE('',#1787,#407);
#248=LINE('',#1788,#408);
#249=LINE('',#1791,#409);
#250=LINE('',#1792,#410);
#251=LINE('',#1795,#411);
#252=LINE('',#1796,#412);
#253=LINE('',#1799,#413);
#254=LINE('',#1800,#414);
#255=LINE('',#1803,#415);
#256=LINE('',#1804,#416);
#257=LINE('',#1807,#417);
#258=LINE('',#1808,#418);
#259=LINE('',#1811,#419);
#260=LINE('',#1812,#420);
#261=LINE('',#1815,#421);
#262=LINE('',#1816,#422);
#263=LINE('',#1819,#423);
#264=LINE('',#1820,#424);
#265=LINE('',#1823,#425);
#266=LINE('',#1824,#426);
#267=LINE('',#1827,#427);
#268=LINE('',#1828,#428);
#269=LINE('',#1831,#429);
#270=LINE('',#1832,#430);
#271=LINE('',#1835,#431);
#272=LINE('',#1836,#432);
#273=LINE('',#1839,#433);
#274=LINE('',#1840,#434);
#275=LINE('',#1843,#435);
#276=LINE('',#1844,#436);
#277=LINE('',#1847,#437);
#278=LINE('',#1848,#438);
#279=LINE('',#1851,#439);
#280=LINE('',#1852,#440);
#281=LINE('',#1855,#441);
#282=LINE('',#1856,#442);
#283=LINE('',#1859,#443);
#284=LINE('',#1860,#444);
#285=LINE('',#1863,#445);
#286=LINE('',#1864,#446);
#287=LINE('',#1867,#447);
#288=LINE('',#1868,#448);
#289=LINE('',#1871,#449);
#290=LINE('',#1872,#450);
#291=LINE('',#1875,#451);
#292=LINE('',#1876,#452);
#293=LINE('',#1879,#453);
#294=LINE('',#1880,#454);
#295=LINE('',#1883,#455);
#296=LINE('',#1884,#456);
#297=LINE('',#1887,#457);
#298=LINE('',#1888,#458);
#299=LINE('',#1891,#459);
#300=LINE('',#1892,#460);
#301=LINE('',#1895,#461);
#302=LINE('',#1896,#462);
#303=LINE('',#1899,#463);
#304=LINE('',#1900,#464);
#305=LINE('',#1903,#465);
#306=LINE('',#1904,#466);
#307=LINE('',#1907,#467);
#308=LINE('',#1908,#468);
#309=LINE('',#1910,#469);
#310=VECTOR('',#1283,10.);
#311=VECTOR('',#1284,10.);
#312=VECTOR('',#1285,10.);
#313=VECTOR('',#1286,10.);
#314=VECTOR('',#1291,1.7);
#315=VECTOR('',#1296,10.);
#316=VECTOR('',#1301,10.);
#317=VECTOR('',#1304,1.7);
#318=VECTOR('',#1309,10.);
#319=VECTOR('',#1312,10.);
#320=VECTOR('',#1313,10.);
#321=VECTOR('',#1314,10.);
#322=VECTOR('',#1315,10.);
#323=VECTOR('',#1316,10.);
#324=VECTOR('',#1319,10.);
#325=VECTOR('',#1320,10.);
#326=VECTOR('',#1321,10.);
#327=VECTOR('',#1324,10.);
#328=VECTOR('',#1325,10.);
#329=VECTOR('',#1326,10.);
#330=VECTOR('',#1329,10.);
#331=VECTOR('',#1330,10.);
#332=VECTOR('',#1331,10.);
#333=VECTOR('',#1334,10.);
#334=VECTOR('',#1335,10.);
#335=VECTOR('',#1336,10.);
#336=VECTOR('',#1337,10.);
#337=VECTOR('',#1340,10.);
#338=VECTOR('',#1341,10.);
#339=VECTOR('',#1342,10.);
#340=VECTOR('',#1343,10.);
#341=VECTOR('',#1344,10.);
#342=VECTOR('',#1345,10.);
#343=VECTOR('',#1354,10.);
#344=VECTOR('',#1355,10.);
#345=VECTOR('',#1356,10.);
#346=VECTOR('',#1359,10.);
#347=VECTOR('',#1360,10.);
#348=VECTOR('',#1361,10.);
#349=VECTOR('',#1364,10.);
#350=VECTOR('',#1365,10.);
#351=VECTOR('',#1370,10.);
#352=VECTOR('',#1371,10.);
#353=VECTOR('',#1374,10.);
#354=VECTOR('',#1377,10.);
#355=VECTOR('',#1378,10.);
#356=VECTOR('',#1379,10.);
#357=VECTOR('',#1380,10.);
#358=VECTOR('',#1381,10.);
#359=VECTOR('',#1382,10.);
#360=VECTOR('',#1383,10.);
#361=VECTOR('',#1384,10.);
#362=VECTOR('',#1385,10.);
#363=VECTOR('',#1386,10.);
#364=VECTOR('',#1387,10.);
#365=VECTOR('',#1388,10.);
#366=VECTOR('',#1389,10.);
#367=VECTOR('',#1390,10.);
#368=VECTOR('',#1391,10.);
#369=VECTOR('',#1392,10.);
#370=VECTOR('',#1393,10.);
#371=VECTOR('',#1394,10.);
#372=VECTOR('',#1395,10.);
#373=VECTOR('',#1396,10.);
#374=VECTOR('',#1397,10.);
#375=VECTOR('',#1398,10.);
#376=VECTOR('',#1399,10.);
#377=VECTOR('',#1400,10.);
#378=VECTOR('',#1401,10.);
#379=VECTOR('',#1402,10.);
#380=VECTOR('',#1403,10.);
#381=VECTOR('',#1404,10.);
#382=VECTOR('',#1405,10.);
#383=VECTOR('',#1406,10.);
#384=VECTOR('',#1407,10.);
#385=VECTOR('',#1408,10.);
#386=VECTOR('',#1409,10.);
#387=VECTOR('',#1410,10.);
#388=VECTOR('',#1411,10.);
#389=VECTOR('',#1412,10.);
#390=VECTOR('',#1413,10.);
#391=VECTOR('',#1414,10.);
#392=VECTOR('',#1415,10.);
#393=VECTOR('',#1418,10.);
#394=VECTOR('',#1419,10.);
#395=VECTOR('',#1422,10.);
#396=VECTOR('',#1423,10.);
#397=VECTOR('',#1426,10.);
#398=VECTOR('',#1427,10.);
#399=VECTOR('',#1430,10.);
#400=VECTOR('',#1431,10.);
#401=VECTOR('',#1434,10.);
#402=VECTOR('',#1435,10.);
#403=VECTOR('',#1438,10.);
#404=VECTOR('',#1439,10.);
#405=VECTOR('',#1442,10.);
#406=VECTOR('',#1443,10.);
#407=VECTOR('',#1446,10.);
#408=VECTOR('',#1447,10.);
#409=VECTOR('',#1450,10.);
#410=VECTOR('',#1451,10.);
#411=VECTOR('',#1454,10.);
#412=VECTOR('',#1455,10.);
#413=VECTOR('',#1458,10.);
#414=VECTOR('',#1459,10.);
#415=VECTOR('',#1462,10.);
#416=VECTOR('',#1463,10.);
#417=VECTOR('',#1466,10.);
#418=VECTOR('',#1467,10.);
#419=VECTOR('',#1470,10.);
#420=VECTOR('',#1471,10.);
#421=VECTOR('',#1474,10.);
#422=VECTOR('',#1475,10.);
#423=VECTOR('',#1478,10.);
#424=VECTOR('',#1479,10.);
#425=VECTOR('',#1482,10.);
#426=VECTOR('',#1483,10.);
#427=VECTOR('',#1486,10.);
#428=VECTOR('',#1487,10.);
#429=VECTOR('',#1490,10.);
#430=VECTOR('',#1491,10.);
#431=VECTOR('',#1494,10.);
#432=VECTOR('',#1495,10.);
#433=VECTOR('',#1498,10.);
#434=VECTOR('',#1499,10.);
#435=VECTOR('',#1502,10.);
#436=VECTOR('',#1503,10.);
#437=VECTOR('',#1506,10.);
#438=VECTOR('',#1507,10.);
#439=VECTOR('',#1510,10.);
#440=VECTOR('',#1511,10.);
#441=VECTOR('',#1514,10.);
#442=VECTOR('',#1515,10.);
#443=VECTOR('',#1518,10.);
#444=VECTOR('',#1519,10.);
#445=VECTOR('',#1522,10.);
#446=VECTOR('',#1523,10.);
#447=VECTOR('',#1526,10.);
#448=VECTOR('',#1527,10.);
#449=VECTOR('',#1530,10.);
#450=VECTOR('',#1531,10.);
#451=VECTOR('',#1534,10.);
#452=VECTOR('',#1535,10.);
#453=VECTOR('',#1538,10.);
#454=VECTOR('',#1539,10.);
#455=VECTOR('',#1542,10.);
#456=VECTOR('',#1543,10.);
#457=VECTOR('',#1546,10.);
#458=VECTOR('',#1547,10.);
#459=VECTOR('',#1550,10.);
#460=VECTOR('',#1551,10.);
#461=VECTOR('',#1554,10.);
#462=VECTOR('',#1555,10.);
#463=VECTOR('',#1558,10.);
#464=VECTOR('',#1559,10.);
#465=VECTOR('',#1562,10.);
#466=VECTOR('',#1563,10.);
#467=VECTOR('',#1566,10.);
#468=VECTOR('',#1567,10.);
#469=VECTOR('',#1570,10.);
#470=VERTEX_POINT('',#1575);
#471=VERTEX_POINT('',#1576);
#472=VERTEX_POINT('',#1578);
#473=VERTEX_POINT('',#1580);
#474=VERTEX_POINT('',#1584);
#475=VERTEX_POINT('',#1586);
#476=VERTEX_POINT('',#1590);
#477=VERTEX_POINT('',#1591);
#478=VERTEX_POINT('',#1595);
#479=VERTEX_POINT('',#1597);
#480=VERTEX_POINT('',#1599);
#481=VERTEX_POINT('',#1602);
#482=VERTEX_POINT('',#1606);
#483=VERTEX_POINT('',#1607);
#484=VERTEX_POINT('',#1609);
#485=VERTEX_POINT('',#1612);
#486=VERTEX_POINT('',#1616);
#487=VERTEX_POINT('',#1618);
#488=VERTEX_POINT('',#1622);
#489=VERTEX_POINT('',#1623);
#490=VERTEX_POINT('',#1628);
#491=VERTEX_POINT('',#1630);
#492=VERTEX_POINT('',#1634);
#493=VERTEX_POINT('',#1635);
#494=VERTEX_POINT('',#1637);
#495=VERTEX_POINT('',#1639);
#496=VERTEX_POINT('',#1643);
#497=VERTEX_POINT('',#1644);
#498=VERTEX_POINT('',#1646);
#499=VERTEX_POINT('',#1648);
#500=VERTEX_POINT('',#1650);
#501=VERTEX_POINT('',#1652);
#502=VERTEX_POINT('',#1659);
#503=VERTEX_POINT('',#1660);
#504=VERTEX_POINT('',#1665);
#505=VERTEX_POINT('',#1667);
#506=VERTEX_POINT('',#1680);
#507=VERTEX_POINT('',#1682);
#508=VERTEX_POINT('',#1684);
#509=VERTEX_POINT('',#1686);
#510=VERTEX_POINT('',#1688);
#511=VERTEX_POINT('',#1690);
#512=VERTEX_POINT('',#1692);
#513=VERTEX_POINT('',#1694);
#514=VERTEX_POINT('',#1696);
#515=VERTEX_POINT('',#1698);
#516=VERTEX_POINT('',#1700);
#517=VERTEX_POINT('',#1702);
#518=VERTEX_POINT('',#1704);
#519=VERTEX_POINT('',#1706);
#520=VERTEX_POINT('',#1708);
#521=VERTEX_POINT('',#1710);
#522=VERTEX_POINT('',#1712);
#523=VERTEX_POINT('',#1714);
#524=VERTEX_POINT('',#1716);
#525=VERTEX_POINT('',#1718);
#526=VERTEX_POINT('',#1720);
#527=VERTEX_POINT('',#1722);
#528=VERTEX_POINT('',#1724);
#529=VERTEX_POINT('',#1726);
#530=VERTEX_POINT('',#1728);
#531=VERTEX_POINT('',#1730);
#532=VERTEX_POINT('',#1732);
#533=VERTEX_POINT('',#1734);
#534=VERTEX_POINT('',#1736);
#535=VERTEX_POINT('',#1738);
#536=VERTEX_POINT('',#1740);
#537=VERTEX_POINT('',#1742);
#538=VERTEX_POINT('',#1744);
#539=VERTEX_POINT('',#1746);
#540=VERTEX_POINT('',#1748);
#541=VERTEX_POINT('',#1750);
#542=VERTEX_POINT('',#1752);
#543=VERTEX_POINT('',#1754);
#544=VERTEX_POINT('',#1758);
#545=VERTEX_POINT('',#1762);
#546=VERTEX_POINT('',#1766);
#547=VERTEX_POINT('',#1770);
#548=VERTEX_POINT('',#1774);
#549=VERTEX_POINT('',#1778);
#550=VERTEX_POINT('',#1782);
#551=VERTEX_POINT('',#1786);
#552=VERTEX_POINT('',#1790);
#553=VERTEX_POINT('',#1794);
#554=VERTEX_POINT('',#1798);
#555=VERTEX_POINT('',#1802);
#556=VERTEX_POINT('',#1806);
#557=VERTEX_POINT('',#1810);
#558=VERTEX_POINT('',#1814);
#559=VERTEX_POINT('',#1818);
#560=VERTEX_POINT('',#1822);
#561=VERTEX_POINT('',#1826);
#562=VERTEX_POINT('',#1830);
#563=VERTEX_POINT('',#1834);
#564=VERTEX_POINT('',#1838);
#565=VERTEX_POINT('',#1842);
#566=VERTEX_POINT('',#1846);
#567=VERTEX_POINT('',#1850);
#568=VERTEX_POINT('',#1854);
#569=VERTEX_POINT('',#1858);
#570=VERTEX_POINT('',#1862);
#571=VERTEX_POINT('',#1866);
#572=VERTEX_POINT('',#1870);
#573=VERTEX_POINT('',#1874);
#574=VERTEX_POINT('',#1878);
#575=VERTEX_POINT('',#1882);
#576=VERTEX_POINT('',#1886);
#577=VERTEX_POINT('',#1890);
#578=VERTEX_POINT('',#1894);
#579=VERTEX_POINT('',#1898);
#580=VERTEX_POINT('',#1902);
#581=VERTEX_POINT('',#1906);
#582=EDGE_CURVE('',#470,#471,#150,.T.);
#583=EDGE_CURVE('',#470,#472,#151,.T.);
#584=EDGE_CURVE('',#472,#473,#152,.T.);
#585=EDGE_CURVE('',#473,#471,#153,.T.);
#586=EDGE_CURVE('',#474,#474,#19,.T.);
#587=EDGE_CURVE('',#474,#475,#154,.T.);
#588=EDGE_CURVE('',#475,#475,#20,.T.);
#589=EDGE_CURVE('',#476,#477,#155,.T.);
#590=EDGE_CURVE('',#477,#476,#21,.T.);
#591=EDGE_CURVE('',#478,#476,#156,.T.);
#592=EDGE_CURVE('',#479,#478,#22,.T.);
#593=EDGE_CURVE('',#479,#480,#157,.T.);
#594=EDGE_CURVE('',#480,#480,#23,.T.);
#595=EDGE_CURVE('',#481,#479,#24,.T.);
#596=EDGE_CURVE('',#477,#481,#158,.T.);
#597=EDGE_CURVE('',#482,#483,#159,.T.);
#598=EDGE_CURVE('',#482,#484,#160,.T.);
#599=EDGE_CURVE('',#484,#478,#161,.T.);
#600=EDGE_CURVE('',#481,#485,#162,.T.);
#601=EDGE_CURVE('',#485,#483,#163,.T.);
#602=EDGE_CURVE('',#486,#484,#164,.T.);
#603=EDGE_CURVE('',#487,#486,#165,.T.);
#604=EDGE_CURVE('',#487,#485,#166,.T.);
#605=EDGE_CURVE('',#488,#489,#167,.T.);
#606=EDGE_CURVE('',#489,#487,#168,.T.);
#607=EDGE_CURVE('',#486,#488,#169,.T.);
#608=EDGE_CURVE('',#488,#490,#170,.T.);
#609=EDGE_CURVE('',#491,#490,#171,.T.);
#610=EDGE_CURVE('',#489,#491,#172,.T.);
#611=EDGE_CURVE('',#492,#493,#173,.T.);
#612=EDGE_CURVE('',#494,#492,#174,.T.);
#613=EDGE_CURVE('',#495,#494,#175,.T.);
#614=EDGE_CURVE('',#495,#493,#176,.T.);
#615=EDGE_CURVE('',#496,#497,#177,.T.);
#616=EDGE_CURVE('',#498,#496,#178,.T.);
#617=EDGE_CURVE('',#498,#499,#179,.T.);
#618=EDGE_CURVE('',#500,#499,#180,.T.);
#619=EDGE_CURVE('',#501,#500,#181,.T.);
#620=EDGE_CURVE('',#497,#501,#182,.T.);
#621=EDGE_CURVE('',#495,#493,#25,.T.);
#622=EDGE_CURVE('',#492,#494,#26,.T.);
#623=EDGE_CURVE('',#502,#503,#183,.T.);
#624=EDGE_CURVE('',#497,#502,#184,.T.);
#625=EDGE_CURVE('',#501,#503,#185,.T.);
#626=EDGE_CURVE('',#499,#504,#186,.T.);
#627=EDGE_CURVE('',#504,#505,#187,.T.);
#628=EDGE_CURVE('',#505,#500,#188,.T.);
#629=EDGE_CURVE('',#472,#505,#189,.T.);
#630=EDGE_CURVE('',#473,#504,#190,.T.);
#631=EDGE_CURVE('',#496,#491,#191,.T.);
#632=EDGE_CURVE('',#490,#498,#192,.T.);
#633=EDGE_CURVE('',#483,#502,#193,.T.);
#634=EDGE_CURVE('',#503,#506,#194,.T.);
#635=EDGE_CURVE('',#506,#507,#195,.T.);
#636=EDGE_CURVE('',#507,#508,#196,.T.);
#637=EDGE_CURVE('',#508,#509,#197,.T.);
#638=EDGE_CURVE('',#509,#510,#198,.T.);
#639=EDGE_CURVE('',#510,#511,#199,.T.);
#640=EDGE_CURVE('',#511,#512,#200,.T.);
#641=EDGE_CURVE('',#512,#513,#201,.T.);
#642=EDGE_CURVE('',#513,#514,#202,.T.);
#643=EDGE_CURVE('',#514,#515,#203,.T.);
#644=EDGE_CURVE('',#515,#516,#204,.T.);
#645=EDGE_CURVE('',#516,#517,#205,.T.);
#646=EDGE_CURVE('',#517,#518,#206,.T.);
#647=EDGE_CURVE('',#518,#519,#207,.T.);
#648=EDGE_CURVE('',#519,#520,#208,.T.);
#649=EDGE_CURVE('',#520,#521,#209,.T.);
#650=EDGE_CURVE('',#521,#522,#210,.T.);
#651=EDGE_CURVE('',#522,#523,#211,.T.);
#652=EDGE_CURVE('',#523,#524,#212,.T.);
#653=EDGE_CURVE('',#524,#525,#213,.T.);
#654=EDGE_CURVE('',#525,#526,#214,.T.);
#655=EDGE_CURVE('',#526,#527,#215,.T.);
#656=EDGE_CURVE('',#527,#528,#216,.T.);
#657=EDGE_CURVE('',#528,#529,#217,.T.);
#658=EDGE_CURVE('',#529,#530,#218,.T.);
#659=EDGE_CURVE('',#530,#531,#219,.T.);
#660=EDGE_CURVE('',#531,#532,#220,.T.);
#661=EDGE_CURVE('',#532,#533,#221,.T.);
#662=EDGE_CURVE('',#533,#534,#222,.T.);
#663=EDGE_CURVE('',#534,#535,#223,.T.);
#664=EDGE_CURVE('',#535,#536,#224,.T.);
#665=EDGE_CURVE('',#536,#537,#225,.T.);
#666=EDGE_CURVE('',#537,#538,#226,.T.);
#667=EDGE_CURVE('',#538,#539,#227,.T.);
#668=EDGE_CURVE('',#539,#540,#228,.T.);
#669=EDGE_CURVE('',#540,#541,#229,.T.);
#670=EDGE_CURVE('',#541,#542,#230,.T.);
#671=EDGE_CURVE('',#542,#543,#231,.T.);
#672=EDGE_CURVE('',#543,#482,#232,.T.);
#673=EDGE_CURVE('',#544,#470,#233,.T.);
#674=EDGE_CURVE('',#544,#506,#234,.T.);
#675=EDGE_CURVE('',#545,#543,#235,.T.);
#676=EDGE_CURVE('',#471,#545,#236,.T.);
#677=EDGE_CURVE('',#545,#546,#237,.T.);
#678=EDGE_CURVE('',#546,#542,#238,.T.);
#679=EDGE_CURVE('',#546,#547,#239,.T.);
#680=EDGE_CURVE('',#547,#541,#240,.T.);
#681=EDGE_CURVE('',#547,#548,#241,.T.);
#682=EDGE_CURVE('',#548,#540,#242,.T.);
#683=EDGE_CURVE('',#548,#549,#243,.T.);
#684=EDGE_CURVE('',#549,#539,#244,.T.);
#685=EDGE_CURVE('',#549,#550,#245,.T.);
#686=EDGE_CURVE('',#550,#538,#246,.T.);
#687=EDGE_CURVE('',#550,#551,#247,.T.);
#688=EDGE_CURVE('',#551,#537,#248,.T.);
#689=EDGE_CURVE('',#551,#552,#249,.T.);
#690=EDGE_CURVE('',#552,#536,#250,.T.);
#691=EDGE_CURVE('',#552,#553,#251,.T.);
#692=EDGE_CURVE('',#553,#535,#252,.T.);
#693=EDGE_CURVE('',#553,#554,#253,.T.);
#694=EDGE_CURVE('',#554,#534,#254,.T.);
#695=EDGE_CURVE('',#554,#555,#255,.T.);
#696=EDGE_CURVE('',#555,#533,#256,.T.);
#697=EDGE_CURVE('',#555,#556,#257,.T.);
#698=EDGE_CURVE('',#556,#532,#258,.T.);
#699=EDGE_CURVE('',#556,#557,#259,.T.);
#700=EDGE_CURVE('',#557,#531,#260,.T.);
#701=EDGE_CURVE('',#557,#558,#261,.T.);
#702=EDGE_CURVE('',#558,#530,#262,.T.);
#703=EDGE_CURVE('',#558,#559,#263,.T.);
#704=EDGE_CURVE('',#559,#529,#264,.T.);
#705=EDGE_CURVE('',#559,#560,#265,.T.);
#706=EDGE_CURVE('',#560,#528,#266,.T.);
#707=EDGE_CURVE('',#560,#561,#267,.T.);
#708=EDGE_CURVE('',#561,#527,#268,.T.);
#709=EDGE_CURVE('',#561,#562,#269,.T.);
#710=EDGE_CURVE('',#562,#526,#270,.T.);
#711=EDGE_CURVE('',#562,#563,#271,.T.);
#712=EDGE_CURVE('',#563,#525,#272,.T.);
#713=EDGE_CURVE('',#563,#564,#273,.T.);
#714=EDGE_CURVE('',#564,#524,#274,.T.);
#715=EDGE_CURVE('',#564,#565,#275,.T.);
#716=EDGE_CURVE('',#565,#523,#276,.T.);
#717=EDGE_CURVE('',#565,#566,#277,.T.);
#718=EDGE_CURVE('',#566,#522,#278,.T.);
#719=EDGE_CURVE('',#566,#567,#279,.T.);
#720=EDGE_CURVE('',#567,#521,#280,.T.);
#721=EDGE_CURVE('',#567,#568,#281,.T.);
#722=EDGE_CURVE('',#568,#520,#282,.T.);
#723=EDGE_CURVE('',#568,#569,#283,.T.);
#724=EDGE_CURVE('',#569,#519,#284,.T.);
#725=EDGE_CURVE('',#569,#570,#285,.T.);
#726=EDGE_CURVE('',#570,#518,#286,.T.);
#727=EDGE_CURVE('',#570,#571,#287,.T.);
#728=EDGE_CURVE('',#571,#517,#288,.T.);
#729=EDGE_CURVE('',#571,#572,#289,.T.);
#730=EDGE_CURVE('',#572,#516,#290,.T.);
#731=EDGE_CURVE('',#572,#573,#291,.T.);
#732=EDGE_CURVE('',#573,#515,#292,.T.);
#733=EDGE_CURVE('',#573,#574,#293,.T.);
#734=EDGE_CURVE('',#574,#514,#294,.T.);
#735=EDGE_CURVE('',#574,#575,#295,.T.);
#736=EDGE_CURVE('',#575,#513,#296,.T.);
#737=EDGE_CURVE('',#575,#576,#297,.T.);
#738=EDGE_CURVE('',#576,#512,#298,.T.);
#739=EDGE_CURVE('',#576,#577,#299,.T.);
#740=EDGE_CURVE('',#577,#511,#300,.T.);
#741=EDGE_CURVE('',#577,#578,#301,.T.);
#742=EDGE_CURVE('',#578,#510,#302,.T.);
#743=EDGE_CURVE('',#578,#579,#303,.T.);
#744=EDGE_CURVE('',#579,#509,#304,.T.);
#745=EDGE_CURVE('',#579,#580,#305,.T.);
#746=EDGE_CURVE('',#580,#508,#306,.T.);
#747=EDGE_CURVE('',#580,#581,#307,.T.);
#748=EDGE_CURVE('',#581,#507,#308,.T.);
#749=EDGE_CURVE('',#581,#544,#309,.T.);
#750=ORIENTED_EDGE('',*,*,#582,.F.);
#751=ORIENTED_EDGE('',*,*,#583,.T.);
#752=ORIENTED_EDGE('',*,*,#584,.T.);
#753=ORIENTED_EDGE('',*,*,#585,.T.);
#754=ORIENTED_EDGE('',*,*,#586,.F.);
#755=ORIENTED_EDGE('',*,*,#587,.T.);
#756=ORIENTED_EDGE('',*,*,#588,.F.);
#757=ORIENTED_EDGE('',*,*,#587,.F.);
#758=ORIENTED_EDGE('',*,*,#589,.F.);
#759=ORIENTED_EDGE('',*,*,#590,.F.);
#760=ORIENTED_EDGE('',*,*,#591,.F.);
#761=ORIENTED_EDGE('',*,*,#592,.F.);
#762=ORIENTED_EDGE('',*,*,#593,.T.);
#763=ORIENTED_EDGE('',*,*,#594,.F.);
#764=ORIENTED_EDGE('',*,*,#593,.F.);
#765=ORIENTED_EDGE('',*,*,#595,.F.);
#766=ORIENTED_EDGE('',*,*,#596,.F.);
#767=ORIENTED_EDGE('',*,*,#590,.T.);
#768=ORIENTED_EDGE('',*,*,#597,.F.);
#769=ORIENTED_EDGE('',*,*,#598,.T.);
#770=ORIENTED_EDGE('',*,*,#599,.T.);
#771=ORIENTED_EDGE('',*,*,#591,.T.);
#772=ORIENTED_EDGE('',*,*,#589,.T.);
#773=ORIENTED_EDGE('',*,*,#596,.T.);
#774=ORIENTED_EDGE('',*,*,#600,.T.);
#775=ORIENTED_EDGE('',*,*,#601,.T.);
#776=ORIENTED_EDGE('',*,*,#595,.T.);
#777=ORIENTED_EDGE('',*,*,#592,.T.);
#778=ORIENTED_EDGE('',*,*,#599,.F.);
#779=ORIENTED_EDGE('',*,*,#602,.F.);
#780=ORIENTED_EDGE('',*,*,#603,.F.);
#781=ORIENTED_EDGE('',*,*,#604,.T.);
#782=ORIENTED_EDGE('',*,*,#600,.F.);
#783=ORIENTED_EDGE('',*,*,#586,.T.);
#784=ORIENTED_EDGE('',*,*,#605,.T.);
#785=ORIENTED_EDGE('',*,*,#606,.T.);
#786=ORIENTED_EDGE('',*,*,#603,.T.);
#787=ORIENTED_EDGE('',*,*,#607,.T.);
#788=ORIENTED_EDGE('',*,*,#608,.T.);
#789=ORIENTED_EDGE('',*,*,#609,.F.);
#790=ORIENTED_EDGE('',*,*,#610,.F.);
#791=ORIENTED_EDGE('',*,*,#605,.F.);
#792=ORIENTED_EDGE('',*,*,#588,.T.);
#793=ORIENTED_EDGE('',*,*,#594,.T.);
#794=ORIENTED_EDGE('',*,*,#611,.F.);
#795=ORIENTED_EDGE('',*,*,#612,.F.);
#796=ORIENTED_EDGE('',*,*,#613,.F.);
#797=ORIENTED_EDGE('',*,*,#614,.T.);
#798=ORIENTED_EDGE('',*,*,#615,.F.);
#799=ORIENTED_EDGE('',*,*,#616,.F.);
#800=ORIENTED_EDGE('',*,*,#617,.T.);
#801=ORIENTED_EDGE('',*,*,#618,.F.);
#802=ORIENTED_EDGE('',*,*,#619,.F.);
#803=ORIENTED_EDGE('',*,*,#620,.F.);
#804=ORIENTED_EDGE('',*,*,#611,.T.);
#805=ORIENTED_EDGE('',*,*,#621,.F.);
#806=ORIENTED_EDGE('',*,*,#613,.T.);
#807=ORIENTED_EDGE('',*,*,#622,.F.);
#808=ORIENTED_EDGE('',*,*,#623,.F.);
#809=ORIENTED_EDGE('',*,*,#624,.F.);
#810=ORIENTED_EDGE('',*,*,#620,.T.);
#811=ORIENTED_EDGE('',*,*,#625,.T.);
#812=ORIENTED_EDGE('',*,*,#618,.T.);
#813=ORIENTED_EDGE('',*,*,#626,.T.);
#814=ORIENTED_EDGE('',*,*,#627,.T.);
#815=ORIENTED_EDGE('',*,*,#628,.T.);
#816=ORIENTED_EDGE('',*,*,#629,.T.);
#817=ORIENTED_EDGE('',*,*,#627,.F.);
#818=ORIENTED_EDGE('',*,*,#630,.F.);
#819=ORIENTED_EDGE('',*,*,#584,.F.);
#820=ORIENTED_EDGE('',*,*,#612,.T.);
#821=ORIENTED_EDGE('',*,*,#622,.T.);
#822=ORIENTED_EDGE('',*,*,#616,.T.);
#823=ORIENTED_EDGE('',*,*,#631,.T.);
#824=ORIENTED_EDGE('',*,*,#609,.T.);
#825=ORIENTED_EDGE('',*,*,#632,.T.);
#826=ORIENTED_EDGE('',*,*,#633,.F.);
#827=ORIENTED_EDGE('',*,*,#601,.F.);
#828=ORIENTED_EDGE('',*,*,#604,.F.);
#829=ORIENTED_EDGE('',*,*,#606,.F.);
#830=ORIENTED_EDGE('',*,*,#610,.T.);
#831=ORIENTED_EDGE('',*,*,#631,.F.);
#832=ORIENTED_EDGE('',*,*,#615,.T.);
#833=ORIENTED_EDGE('',*,*,#624,.T.);
#834=ORIENTED_EDGE('',*,*,#597,.T.);
#835=ORIENTED_EDGE('',*,*,#633,.T.);
#836=ORIENTED_EDGE('',*,*,#623,.T.);
#837=ORIENTED_EDGE('',*,*,#634,.T.);
#838=ORIENTED_EDGE('',*,*,#635,.T.);
#839=ORIENTED_EDGE('',*,*,#636,.T.);
#840=ORIENTED_EDGE('',*,*,#637,.T.);
#841=ORIENTED_EDGE('',*,*,#638,.T.);
#842=ORIENTED_EDGE('',*,*,#639,.T.);
#843=ORIENTED_EDGE('',*,*,#640,.T.);
#844=ORIENTED_EDGE('',*,*,#641,.T.);
#845=ORIENTED_EDGE('',*,*,#642,.T.);
#846=ORIENTED_EDGE('',*,*,#643,.T.);
#847=ORIENTED_EDGE('',*,*,#644,.T.);
#848=ORIENTED_EDGE('',*,*,#645,.T.);
#849=ORIENTED_EDGE('',*,*,#646,.T.);
#850=ORIENTED_EDGE('',*,*,#647,.T.);
#851=ORIENTED_EDGE('',*,*,#648,.T.);
#852=ORIENTED_EDGE('',*,*,#649,.T.);
#853=ORIENTED_EDGE('',*,*,#650,.T.);
#854=ORIENTED_EDGE('',*,*,#651,.T.);
#855=ORIENTED_EDGE('',*,*,#652,.T.);
#856=ORIENTED_EDGE('',*,*,#653,.T.);
#857=ORIENTED_EDGE('',*,*,#654,.T.);
#858=ORIENTED_EDGE('',*,*,#655,.T.);
#859=ORIENTED_EDGE('',*,*,#656,.T.);
#860=ORIENTED_EDGE('',*,*,#657,.T.);
#861=ORIENTED_EDGE('',*,*,#658,.T.);
#862=ORIENTED_EDGE('',*,*,#659,.T.);
#863=ORIENTED_EDGE('',*,*,#660,.T.);
#864=ORIENTED_EDGE('',*,*,#661,.T.);
#865=ORIENTED_EDGE('',*,*,#662,.T.);
#866=ORIENTED_EDGE('',*,*,#663,.T.);
#867=ORIENTED_EDGE('',*,*,#664,.T.);
#868=ORIENTED_EDGE('',*,*,#665,.T.);
#869=ORIENTED_EDGE('',*,*,#666,.T.);
#870=ORIENTED_EDGE('',*,*,#667,.T.);
#871=ORIENTED_EDGE('',*,*,#668,.T.);
#872=ORIENTED_EDGE('',*,*,#669,.T.);
#873=ORIENTED_EDGE('',*,*,#670,.T.);
#874=ORIENTED_EDGE('',*,*,#671,.T.);
#875=ORIENTED_EDGE('',*,*,#672,.T.);
#876=ORIENTED_EDGE('',*,*,#673,.F.);
#877=ORIENTED_EDGE('',*,*,#674,.T.);
#878=ORIENTED_EDGE('',*,*,#634,.F.);
#879=ORIENTED_EDGE('',*,*,#625,.F.);
#880=ORIENTED_EDGE('',*,*,#619,.T.);
#881=ORIENTED_EDGE('',*,*,#628,.F.);
#882=ORIENTED_EDGE('',*,*,#629,.F.);
#883=ORIENTED_EDGE('',*,*,#583,.F.);
#884=ORIENTED_EDGE('',*,*,#621,.T.);
#885=ORIENTED_EDGE('',*,*,#614,.F.);
#886=ORIENTED_EDGE('',*,*,#672,.F.);
#887=ORIENTED_EDGE('',*,*,#675,.F.);
#888=ORIENTED_EDGE('',*,*,#676,.F.);
#889=ORIENTED_EDGE('',*,*,#585,.F.);
#890=ORIENTED_EDGE('',*,*,#630,.T.);
#891=ORIENTED_EDGE('',*,*,#626,.F.);
#892=ORIENTED_EDGE('',*,*,#617,.F.);
#893=ORIENTED_EDGE('',*,*,#632,.F.);
#894=ORIENTED_EDGE('',*,*,#608,.F.);
#895=ORIENTED_EDGE('',*,*,#607,.F.);
#896=ORIENTED_EDGE('',*,*,#602,.T.);
#897=ORIENTED_EDGE('',*,*,#598,.F.);
#898=ORIENTED_EDGE('',*,*,#677,.F.);
#899=ORIENTED_EDGE('',*,*,#675,.T.);
#900=ORIENTED_EDGE('',*,*,#671,.F.);
#901=ORIENTED_EDGE('',*,*,#678,.F.);
#902=ORIENTED_EDGE('',*,*,#679,.F.);
#903=ORIENTED_EDGE('',*,*,#678,.T.);
#904=ORIENTED_EDGE('',*,*,#670,.F.);
#905=ORIENTED_EDGE('',*,*,#680,.F.);
#906=ORIENTED_EDGE('',*,*,#681,.F.);
#907=ORIENTED_EDGE('',*,*,#680,.T.);
#908=ORIENTED_EDGE('',*,*,#669,.F.);
#909=ORIENTED_EDGE('',*,*,#682,.F.);
#910=ORIENTED_EDGE('',*,*,#683,.F.);
#911=ORIENTED_EDGE('',*,*,#682,.T.);
#912=ORIENTED_EDGE('',*,*,#668,.F.);
#913=ORIENTED_EDGE('',*,*,#684,.F.);
#914=ORIENTED_EDGE('',*,*,#685,.F.);
#915=ORIENTED_EDGE('',*,*,#684,.T.);
#916=ORIENTED_EDGE('',*,*,#667,.F.);
#917=ORIENTED_EDGE('',*,*,#686,.F.);
#918=ORIENTED_EDGE('',*,*,#687,.F.);
#919=ORIENTED_EDGE('',*,*,#686,.T.);
#920=ORIENTED_EDGE('',*,*,#666,.F.);
#921=ORIENTED_EDGE('',*,*,#688,.F.);
#922=ORIENTED_EDGE('',*,*,#689,.F.);
#923=ORIENTED_EDGE('',*,*,#688,.T.);
#924=ORIENTED_EDGE('',*,*,#665,.F.);
#925=ORIENTED_EDGE('',*,*,#690,.F.);
#926=ORIENTED_EDGE('',*,*,#691,.F.);
#927=ORIENTED_EDGE('',*,*,#690,.T.);
#928=ORIENTED_EDGE('',*,*,#664,.F.);
#929=ORIENTED_EDGE('',*,*,#692,.F.);
#930=ORIENTED_EDGE('',*,*,#693,.F.);
#931=ORIENTED_EDGE('',*,*,#692,.T.);
#932=ORIENTED_EDGE('',*,*,#663,.F.);
#933=ORIENTED_EDGE('',*,*,#694,.F.);
#934=ORIENTED_EDGE('',*,*,#695,.F.);
#935=ORIENTED_EDGE('',*,*,#694,.T.);
#936=ORIENTED_EDGE('',*,*,#662,.F.);
#937=ORIENTED_EDGE('',*,*,#696,.F.);
#938=ORIENTED_EDGE('',*,*,#697,.F.);
#939=ORIENTED_EDGE('',*,*,#696,.T.);
#940=ORIENTED_EDGE('',*,*,#661,.F.);
#941=ORIENTED_EDGE('',*,*,#698,.F.);
#942=ORIENTED_EDGE('',*,*,#699,.F.);
#943=ORIENTED_EDGE('',*,*,#698,.T.);
#944=ORIENTED_EDGE('',*,*,#660,.F.);
#945=ORIENTED_EDGE('',*,*,#700,.F.);
#946=ORIENTED_EDGE('',*,*,#701,.F.);
#947=ORIENTED_EDGE('',*,*,#700,.T.);
#948=ORIENTED_EDGE('',*,*,#659,.F.);
#949=ORIENTED_EDGE('',*,*,#702,.F.);
#950=ORIENTED_EDGE('',*,*,#703,.F.);
#951=ORIENTED_EDGE('',*,*,#702,.T.);
#952=ORIENTED_EDGE('',*,*,#658,.F.);
#953=ORIENTED_EDGE('',*,*,#704,.F.);
#954=ORIENTED_EDGE('',*,*,#705,.F.);
#955=ORIENTED_EDGE('',*,*,#704,.T.);
#956=ORIENTED_EDGE('',*,*,#657,.F.);
#957=ORIENTED_EDGE('',*,*,#706,.F.);
#958=ORIENTED_EDGE('',*,*,#707,.F.);
#959=ORIENTED_EDGE('',*,*,#706,.T.);
#960=ORIENTED_EDGE('',*,*,#656,.F.);
#961=ORIENTED_EDGE('',*,*,#708,.F.);
#962=ORIENTED_EDGE('',*,*,#709,.F.);
#963=ORIENTED_EDGE('',*,*,#708,.T.);
#964=ORIENTED_EDGE('',*,*,#655,.F.);
#965=ORIENTED_EDGE('',*,*,#710,.F.);
#966=ORIENTED_EDGE('',*,*,#711,.F.);
#967=ORIENTED_EDGE('',*,*,#710,.T.);
#968=ORIENTED_EDGE('',*,*,#654,.F.);
#969=ORIENTED_EDGE('',*,*,#712,.F.);
#970=ORIENTED_EDGE('',*,*,#713,.F.);
#971=ORIENTED_EDGE('',*,*,#712,.T.);
#972=ORIENTED_EDGE('',*,*,#653,.F.);
#973=ORIENTED_EDGE('',*,*,#714,.F.);
#974=ORIENTED_EDGE('',*,*,#715,.F.);
#975=ORIENTED_EDGE('',*,*,#714,.T.);
#976=ORIENTED_EDGE('',*,*,#652,.F.);
#977=ORIENTED_EDGE('',*,*,#716,.F.);
#978=ORIENTED_EDGE('',*,*,#717,.F.);
#979=ORIENTED_EDGE('',*,*,#716,.T.);
#980=ORIENTED_EDGE('',*,*,#651,.F.);
#981=ORIENTED_EDGE('',*,*,#718,.F.);
#982=ORIENTED_EDGE('',*,*,#719,.F.);
#983=ORIENTED_EDGE('',*,*,#718,.T.);
#984=ORIENTED_EDGE('',*,*,#650,.F.);
#985=ORIENTED_EDGE('',*,*,#720,.F.);
#986=ORIENTED_EDGE('',*,*,#721,.F.);
#987=ORIENTED_EDGE('',*,*,#720,.T.);
#988=ORIENTED_EDGE('',*,*,#649,.F.);
#989=ORIENTED_EDGE('',*,*,#722,.F.);
#990=ORIENTED_EDGE('',*,*,#723,.F.);
#991=ORIENTED_EDGE('',*,*,#722,.T.);
#992=ORIENTED_EDGE('',*,*,#648,.F.);
#993=ORIENTED_EDGE('',*,*,#724,.F.);
#994=ORIENTED_EDGE('',*,*,#725,.F.);
#995=ORIENTED_EDGE('',*,*,#724,.T.);
#996=ORIENTED_EDGE('',*,*,#647,.F.);
#997=ORIENTED_EDGE('',*,*,#726,.F.);
#998=ORIENTED_EDGE('',*,*,#727,.F.);
#999=ORIENTED_EDGE('',*,*,#726,.T.);
#1000=ORIENTED_EDGE('',*,*,#646,.F.);
#1001=ORIENTED_EDGE('',*,*,#728,.F.);
#1002=ORIENTED_EDGE('',*,*,#729,.F.);
#1003=ORIENTED_EDGE('',*,*,#728,.T.);
#1004=ORIENTED_EDGE('',*,*,#645,.F.);
#1005=ORIENTED_EDGE('',*,*,#730,.F.);
#1006=ORIENTED_EDGE('',*,*,#731,.F.);
#1007=ORIENTED_EDGE('',*,*,#730,.T.);
#1008=ORIENTED_EDGE('',*,*,#644,.F.);
#1009=ORIENTED_EDGE('',*,*,#732,.F.);
#1010=ORIENTED_EDGE('',*,*,#733,.F.);
#1011=ORIENTED_EDGE('',*,*,#732,.T.);
#1012=ORIENTED_EDGE('',*,*,#643,.F.);
#1013=ORIENTED_EDGE('',*,*,#734,.F.);
#1014=ORIENTED_EDGE('',*,*,#735,.F.);
#1015=ORIENTED_EDGE('',*,*,#734,.T.);
#1016=ORIENTED_EDGE('',*,*,#642,.F.);
#1017=ORIENTED_EDGE('',*,*,#736,.F.);
#1018=ORIENTED_EDGE('',*,*,#737,.F.);
#1019=ORIENTED_EDGE('',*,*,#736,.T.);
#1020=ORIENTED_EDGE('',*,*,#641,.F.);
#1021=ORIENTED_EDGE('',*,*,#738,.F.);
#1022=ORIENTED_EDGE('',*,*,#739,.F.);
#1023=ORIENTED_EDGE('',*,*,#738,.T.);
#1024=ORIENTED_EDGE('',*,*,#640,.F.);
#1025=ORIENTED_EDGE('',*,*,#740,.F.);
#1026=ORIENTED_EDGE('',*,*,#741,.F.);
#1027=ORIENTED_EDGE('',*,*,#740,.T.);
#1028=ORIENTED_EDGE('',*,*,#639,.F.);
#1029=ORIENTED_EDGE('',*,*,#742,.F.);
#1030=ORIENTED_EDGE('',*,*,#743,.F.);
#1031=ORIENTED_EDGE('',*,*,#742,.T.);
#1032=ORIENTED_EDGE('',*,*,#638,.F.);
#1033=ORIENTED_EDGE('',*,*,#744,.F.);
#1034=ORIENTED_EDGE('',*,*,#745,.F.);
#1035=ORIENTED_EDGE('',*,*,#744,.T.);
#1036=ORIENTED_EDGE('',*,*,#637,.F.);
#1037=ORIENTED_EDGE('',*,*,#746,.F.);
#1038=ORIENTED_EDGE('',*,*,#747,.F.);
#1039=ORIENTED_EDGE('',*,*,#746,.T.);
#1040=ORIENTED_EDGE('',*,*,#636,.F.);
#1041=ORIENTED_EDGE('',*,*,#748,.F.);
#1042=ORIENTED_EDGE('',*,*,#749,.F.);
#1043=ORIENTED_EDGE('',*,*,#748,.T.);
#1044=ORIENTED_EDGE('',*,*,#635,.F.);
#1045=ORIENTED_EDGE('',*,*,#674,.F.);
#1046=ORIENTED_EDGE('',*,*,#676,.T.);
#1047=ORIENTED_EDGE('',*,*,#677,.T.);
#1048=ORIENTED_EDGE('',*,*,#679,.T.);
#1049=ORIENTED_EDGE('',*,*,#681,.T.);
#1050=ORIENTED_EDGE('',*,*,#683,.T.);
#1051=ORIENTED_EDGE('',*,*,#685,.T.);
#1052=ORIENTED_EDGE('',*,*,#687,.T.);
#1053=ORIENTED_EDGE('',*,*,#689,.T.);
#1054=ORIENTED_EDGE('',*,*,#691,.T.);
#1055=ORIENTED_EDGE('',*,*,#693,.T.);
#1056=ORIENTED_EDGE('',*,*,#695,.T.);
#1057=ORIENTED_EDGE('',*,*,#697,.T.);
#1058=ORIENTED_EDGE('',*,*,#699,.T.);
#1059=ORIENTED_EDGE('',*,*,#701,.T.);
#1060=ORIENTED_EDGE('',*,*,#703,.T.);
#1061=ORIENTED_EDGE('',*,*,#705,.T.);
#1062=ORIENTED_EDGE('',*,*,#707,.T.);
#1063=ORIENTED_EDGE('',*,*,#709,.T.);
#1064=ORIENTED_EDGE('',*,*,#711,.T.);
#1065=ORIENTED_EDGE('',*,*,#713,.T.);
#1066=ORIENTED_EDGE('',*,*,#715,.T.);
#1067=ORIENTED_EDGE('',*,*,#717,.T.);
#1068=ORIENTED_EDGE('',*,*,#719,.T.);
#1069=ORIENTED_EDGE('',*,*,#721,.T.);
#1070=ORIENTED_EDGE('',*,*,#723,.T.);
#1071=ORIENTED_EDGE('',*,*,#725,.T.);
#1072=ORIENTED_EDGE('',*,*,#727,.T.);
#1073=ORIENTED_EDGE('',*,*,#729,.T.);
#1074=ORIENTED_EDGE('',*,*,#731,.T.);
#1075=ORIENTED_EDGE('',*,*,#733,.T.);
#1076=ORIENTED_EDGE('',*,*,#735,.T.);
#1077=ORIENTED_EDGE('',*,*,#737,.T.);
#1078=ORIENTED_EDGE('',*,*,#739,.T.);
#1079=ORIENTED_EDGE('',*,*,#741,.T.);
#1080=ORIENTED_EDGE('',*,*,#743,.T.);
#1081=ORIENTED_EDGE('',*,*,#745,.T.);
#1082=ORIENTED_EDGE('',*,*,#747,.T.);
#1083=ORIENTED_EDGE('',*,*,#749,.T.);
#1084=ORIENTED_EDGE('',*,*,#673,.T.);
#1085=ORIENTED_EDGE('',*,*,#582,.T.);
#1086=PLANE('',#1213);
#1087=PLANE('',#1217);
#1088=PLANE('',#1223);
#1089=PLANE('',#1224);
#1090=PLANE('',#1225);
#1091=PLANE('',#1226);
#1092=PLANE('',#1227);
#1093=PLANE('',#1228);
#1094=PLANE('',#1232);
#1095=PLANE('',#1233);
#1096=PLANE('',#1234);
#1097=PLANE('',#1235);
#1098=PLANE('',#1236);
#1099=PLANE('',#1237);
#1100=PLANE('',#1238);
#1101=PLANE('',#1239);
#1102=PLANE('',#1240);
#1103=PLANE('',#1241);
#1104=PLANE('',#1242);
#1105=PLANE('',#1243);
#1106=PLANE('',#1244);
#1107=PLANE('',#1245);
#1108=PLANE('',#1246);
#1109=PLANE('',#1247);
#1110=PLANE('',#1248);
#1111=PLANE('',#1249);
#1112=PLANE('',#1250);
#1113=PLANE('',#1251);
#1114=PLANE('',#1252);
#1115=PLANE('',#1253);
#1116=PLANE('',#1254);
#1117=PLANE('',#1255);
#1118=PLANE('',#1256);
#1119=PLANE('',#1257);
#1120=PLANE('',#1258);
#1121=PLANE('',#1259);
#1122=PLANE('',#1260);
#1123=PLANE('',#1261);
#1124=PLANE('',#1262);
#1125=PLANE('',#1263);
#1126=PLANE('',#1264);
#1127=PLANE('',#1265);
#1128=PLANE('',#1266);
#1129=PLANE('',#1267);
#1130=PLANE('',#1268);
#1131=PLANE('',#1269);
#1132=PLANE('',#1270);
#1133=PLANE('',#1271);
#1134=PLANE('',#1272);
#1135=PLANE('',#1273);
#1136=PLANE('',#1274);
#1137=PLANE('',#1275);
#1138=PLANE('',#1276);
#1139=PLANE('',#1277);
#1140=PLANE('',#1278);
#1141=ADVANCED_FACE('',(#30),#1086,.T.);
#1142=ADVANCED_FACE('',(#31),#27,.F.);
#1143=ADVANCED_FACE('',(#32),#1087,.F.);
#1144=ADVANCED_FACE('',(#33),#28,.F.);
#1145=ADVANCED_FACE('',(#34),#1088,.T.);
#1146=ADVANCED_FACE('',(#35,#15),#1089,.F.);
#1147=ADVANCED_FACE('',(#36),#1090,.T.);
#1148=ADVANCED_FACE('',(#37,#16,#17),#1091,.F.);
#1149=ADVANCED_FACE('',(#38),#1092,.F.);
#1150=ADVANCED_FACE('',(#39),#1093,.F.);
#1151=ADVANCED_FACE('',(#40),#29,.F.);
#1152=ADVANCED_FACE('',(#41),#1094,.T.);
#1153=ADVANCED_FACE('',(#42),#1095,.F.);
#1154=ADVANCED_FACE('',(#43),#1096,.F.);
#1155=ADVANCED_FACE('',(#44),#1097,.F.);
#1156=ADVANCED_FACE('',(#45),#1098,.F.);
#1157=ADVANCED_FACE('',(#46),#1099,.F.);
#1158=ADVANCED_FACE('',(#47),#1100,.T.);
#1159=ADVANCED_FACE('',(#48,#18),#1101,.T.);
#1160=ADVANCED_FACE('',(#49),#1102,.T.);
#1161=ADVANCED_FACE('',(#50),#1103,.T.);
#1162=ADVANCED_FACE('',(#51),#1104,.T.);
#1163=ADVANCED_FACE('',(#52),#1105,.T.);
#1164=ADVANCED_FACE('',(#53),#1106,.T.);
#1165=ADVANCED_FACE('',(#54),#1107,.T.);
#1166=ADVANCED_FACE('',(#55),#1108,.T.);
#1167=ADVANCED_FACE('',(#56),#1109,.T.);
#1168=ADVANCED_FACE('',(#57),#1110,.T.);
#1169=ADVANCED_FACE('',(#58),#1111,.T.);
#1170=ADVANCED_FACE('',(#59),#1112,.T.);
#1171=ADVANCED_FACE('',(#60),#1113,.T.);
#1172=ADVANCED_FACE('',(#61),#1114,.T.);
#1173=ADVANCED_FACE('',(#62),#1115,.T.);
#1174=ADVANCED_FACE('',(#63),#1116,.T.);
#1175=ADVANCED_FACE('',(#64),#1117,.T.);
#1176=ADVANCED_FACE('',(#65),#1118,.T.);
#1177=ADVANCED_FACE('',(#66),#1119,.T.);
#1178=ADVANCED_FACE('',(#67),#1120,.T.);
#1179=ADVANCED_FACE('',(#68),#1121,.T.);
#1180=ADVANCED_FACE('',(#69),#1122,.T.);
#1181=ADVANCED_FACE('',(#70),#1123,.T.);
#1182=ADVANCED_FACE('',(#71),#1124,.T.);
#1183=ADVANCED_FACE('',(#72),#1125,.T.);
#1184=ADVANCED_FACE('',(#73),#1126,.T.);
#1185=ADVANCED_FACE('',(#74),#1127,.T.);
#1186=ADVANCED_FACE('',(#75),#1128,.T.);
#1187=ADVANCED_FACE('',(#76),#1129,.T.);
#1188=ADVANCED_FACE('',(#77),#1130,.T.);
#1189=ADVANCED_FACE('',(#78),#1131,.T.);
#1190=ADVANCED_FACE('',(#79),#1132,.T.);
#1191=ADVANCED_FACE('',(#80),#1133,.T.);
#1192=ADVANCED_FACE('',(#81),#1134,.T.);
#1193=ADVANCED_FACE('',(#82),#1135,.T.);
#1194=ADVANCED_FACE('',(#83),#1136,.T.);
#1195=ADVANCED_FACE('',(#84),#1137,.T.);
#1196=ADVANCED_FACE('',(#85),#1138,.T.);
#1197=ADVANCED_FACE('',(#86),#1139,.T.);
#1198=ADVANCED_FACE('',(#87),#1140,.F.);
#1199=CLOSED_SHELL('',(#1141,#1142,#1143,#1144,#1145,#1146,#1147,#1148,
#1149,#1150,#1151,#1152,#1153,#1154,#1155,#1156,#1157,#1158,#1159,#1160,
#1161,#1162,#1163,#1164,#1165,#1166,#1167,#1168,#1169,#1170,#1171,#1172,
#1173,#1174,#1175,#1176,#1177,#1178,#1179,#1180,#1181,#1182,#1183,#1184,
#1185,#1186,#1187,#1188,#1189,#1190,#1191,#1192,#1193,#1194,#1195,#1196,
#1197,#1198));
#1200=DERIVED_UNIT_ELEMENT(#1202,1.);
#1201=DERIVED_UNIT_ELEMENT(#1917,-3.);
#1202=(
MASS_UNIT()
NAMED_UNIT(*)
SI_UNIT(.KILO.,.GRAM.)
);
#1203=DERIVED_UNIT((#1200,#1201));
#1204=MEASURE_REPRESENTATION_ITEM('density measure',
POSITIVE_RATIO_MEASURE(7850.),#1203);
#1205=PROPERTY_DEFINITION_REPRESENTATION(#1210,#1207);
#1206=PROPERTY_DEFINITION_REPRESENTATION(#1211,#1208);
#1207=REPRESENTATION('material name',(#1209),#1914);
#1208=REPRESENTATION('density',(#1204),#1914);
#1209=DESCRIPTIVE_REPRESENTATION_ITEM('Steel','Steel');
#1210=PROPERTY_DEFINITION('material property','material name',#1924);
#1211=PROPERTY_DEFINITION('material property','density of part',#1924);
#1212=AXIS2_PLACEMENT_3D('',#1573,#1279,#1280);
#1213=AXIS2_PLACEMENT_3D('',#1574,#1281,#1282);
#1214=AXIS2_PLACEMENT_3D('',#1583,#1287,#1288);
#1215=AXIS2_PLACEMENT_3D('',#1585,#1289,#1290);
#1216=AXIS2_PLACEMENT_3D('',#1588,#1292,#1293);
#1217=AXIS2_PLACEMENT_3D('',#1589,#1294,#1295);
#1218=AXIS2_PLACEMENT_3D('',#1593,#1297,#1298);
#1219=AXIS2_PLACEMENT_3D('',#1594,#1299,#1300);
#1220=AXIS2_PLACEMENT_3D('',#1598,#1302,#1303);
#1221=AXIS2_PLACEMENT_3D('',#1601,#1305,#1306);
#1222=AXIS2_PLACEMENT_3D('',#1603,#1307,#1308);
#1223=AXIS2_PLACEMENT_3D('',#1605,#1310,#1311);
#1224=AXIS2_PLACEMENT_3D('',#1615,#1317,#1318);
#1225=AXIS2_PLACEMENT_3D('',#1621,#1322,#1323);
#1226=AXIS2_PLACEMENT_3D('',#1627,#1327,#1328);
#1227=AXIS2_PLACEMENT_3D('',#1633,#1332,#1333);
#1228=AXIS2_PLACEMENT_3D('',#1642,#1338,#1339);
#1229=AXIS2_PLACEMENT_3D('',#1655,#1346,#1347);
#1230=AXIS2_PLACEMENT_3D('',#1656,#1348,#1349);
#1231=AXIS2_PLACEMENT_3D('',#1657,#1350,#1351);
#1232=AXIS2_PLACEMENT_3D('',#1658,#1352,#1353);
#1233=AXIS2_PLACEMENT_3D('',#1664,#1357,#1358);
#1234=AXIS2_PLACEMENT_3D('',#1670,#1362,#1363);
#1235=AXIS2_PLACEMENT_3D('',#1673,#1366,#1367);
#1236=AXIS2_PLACEMENT_3D('',#1674,#1368,#1369);
#1237=AXIS2_PLACEMENT_3D('',#1677,#1372,#1373);
#1238=AXIS2_PLACEMENT_3D('',#1679,#1375,#1376);
#1239=AXIS2_PLACEMENT_3D('',#1757,#1416,#1417);
#1240=AXIS2_PLACEMENT_3D('',#1761,#1420,#1421);
#1241=AXIS2_PLACEMENT_3D('',#1765,#1424,#1425);
#1242=AXIS2_PLACEMENT_3D('',#1769,#1428,#1429);
#1243=AXIS2_PLACEMENT_3D('',#1773,#1432,#1433);
#1244=AXIS2_PLACEMENT_3D('',#1777,#1436,#1437);
#1245=AXIS2_PLACEMENT_3D('',#1781,#1440,#1441);
#1246=AXIS2_PLACEMENT_3D('',#1785,#1444,#1445);
#1247=AXIS2_PLACEMENT_3D('',#1789,#1448,#1449);
#1248=AXIS2_PLACEMENT_3D('',#1793,#1452,#1453);
#1249=AXIS2_PLACEMENT_3D('',#1797,#1456,#1457);
#1250=AXIS2_PLACEMENT_3D('',#1801,#1460,#1461);
#1251=AXIS2_PLACEMENT_3D('',#1805,#1464,#1465);
#1252=AXIS2_PLACEMENT_3D('',#1809,#1468,#1469);
#1253=AXIS2_PLACEMENT_3D('',#1813,#1472,#1473);
#1254=AXIS2_PLACEMENT_3D('',#1817,#1476,#1477);
#1255=AXIS2_PLACEMENT_3D('',#1821,#1480,#1481);
#1256=AXIS2_PLACEMENT_3D('',#1825,#1484,#1485);
#1257=AXIS2_PLACEMENT_3D('',#1829,#1488,#1489);
#1258=AXIS2_PLACEMENT_3D('',#1833,#1492,#1493);
#1259=AXIS2_PLACEMENT_3D('',#1837,#1496,#1497);
#1260=AXIS2_PLACEMENT_3D('',#1841,#1500,#1501);
#1261=AXIS2_PLACEMENT_3D('',#1845,#1504,#1505);
#1262=AXIS2_PLACEMENT_3D('',#1849,#1508,#1509);
#1263=AXIS2_PLACEMENT_3D('',#1853,#1512,#1513);
#1264=AXIS2_PLACEMENT_3D('',#1857,#1516,#1517);
#1265=AXIS2_PLACEMENT_3D('',#1861,#1520,#1521);
#1266=AXIS2_PLACEMENT_3D('',#1865,#1524,#1525);
#1267=AXIS2_PLACEMENT_3D('',#1869,#1528,#1529);
#1268=AXIS2_PLACEMENT_3D('',#1873,#1532,#1533);
#1269=AXIS2_PLACEMENT_3D('',#1877,#1536,#1537);
#1270=AXIS2_PLACEMENT_3D('',#1881,#1540,#1541);
#1271=AXIS2_PLACEMENT_3D('',#1885,#1544,#1545);
#1272=AXIS2_PLACEMENT_3D('',#1889,#1548,#1549);
#1273=AXIS2_PLACEMENT_3D('',#1893,#1552,#1553);
#1274=AXIS2_PLACEMENT_3D('',#1897,#1556,#1557);
#1275=AXIS2_PLACEMENT_3D('',#1901,#1560,#1561);
#1276=AXIS2_PLACEMENT_3D('',#1905,#1564,#1565);
#1277=AXIS2_PLACEMENT_3D('',#1909,#1568,#1569);
#1278=AXIS2_PLACEMENT_3D('',#1911,#1571,#1572);
#1279=DIRECTION('axis',(0.,0.,1.));
#1280=DIRECTION('refdir',(1.,0.,0.));
#1281=DIRECTION('center_axis',(-1.18329135783152E-30,7.17898535246161E-61,
1.));
#1282=DIRECTION('ref_axis',(1.,-1.14105152169467E-30,1.18329135783152E-30));
#1283=DIRECTION('',(-1.18101317853455E-30,-1.,-6.79584152398898E-61));
#1284=DIRECTION('',(-1.,1.14105152169467E-30,-1.18329135783152E-30));
#1285=DIRECTION('',(-1.14105152169467E-30,-1.,-6.32297869215646E-61));
#1286=DIRECTION('',(1.,-1.14105152169467E-30,1.18329135783152E-30));
#1287=DIRECTION('center_axis',(1.,-1.14105152169467E-30,1.18329135783152E-30));
#1288=DIRECTION('ref_axis',(1.18329135783152E-30,-7.1789853524616E-61,-1.));
#1289=DIRECTION('center_axis',(1.,-1.14105152169467E-30,1.18329135783152E-30));
#1290=DIRECTION('ref_axis',(1.18329135783152E-30,-7.1789853524616E-61,-1.));
#1291=DIRECTION('',(1.,-1.14105152169467E-30,1.18329135783152E-30));
#1292=DIRECTION('center_axis',(-1.,1.14105152169467E-30,-1.18329135783152E-30));
#1293=DIRECTION('ref_axis',(1.18329135783152E-30,-7.1789853524616E-61,-1.));
#1294=DIRECTION('center_axis',(-1.,1.14105152169467E-30,-1.18329135783152E-30));
#1295=DIRECTION('ref_axis',(-1.18329135783152E-30,7.17898535246161E-61,
1.));
#1296=DIRECTION('',(1.14105152169467E-30,1.,6.32297869215646E-61));
#1297=DIRECTION('center_axis',(-1.,1.14105152169467E-30,-1.18329135783152E-30));
#1298=DIRECTION('ref_axis',(1.18329135783152E-30,-7.1789853524616E-61,-1.));
#1299=DIRECTION('center_axis',(1.,-1.14105152169467E-30,1.18329135783152E-30));
#1300=DIRECTION('ref_axis',(1.18329135783152E-30,-7.1789853524616E-61,-1.));
#1301=DIRECTION('',(-1.,1.14105152169467E-30,-1.18329135783152E-30));
#1302=DIRECTION('center_axis',(1.,-1.14105152169467E-30,1.18329135783152E-30));
#1303=DIRECTION('ref_axis',(1.18329135783152E-30,-7.1789853524616E-61,-1.));
#1304=DIRECTION('',(1.,-1.14105152169467E-30,1.18329135783152E-30));
#1305=DIRECTION('center_axis',(-1.,1.14105152169467E-30,-1.18329135783152E-30));
#1306=DIRECTION('ref_axis',(1.18329135783152E-30,-7.1789853524616E-61,-1.));
#1307=DIRECTION('center_axis',(1.,-1.14105152169467E-30,1.18329135783152E-30));
#1308=DIRECTION('ref_axis',(1.18329135783152E-30,-7.1789853524616E-61,-1.));
#1309=DIRECTION('',(1.,-1.14105152169467E-30,1.18329135783152E-30));
#1310=DIRECTION('center_axis',(-1.18329135783152E-30,7.17898535246161E-61,
1.));
#1311=DIRECTION('ref_axis',(1.,-1.14105152169467E-30,1.18329135783152E-30));
#1312=DIRECTION('',(1.14105152169467E-30,1.,6.32297869215646E-61));
#1313=DIRECTION('',(1.,-1.14105152169467E-30,1.18329135783152E-30));
#1314=DIRECTION('',(1.14105152169467E-30,1.,6.32297869215646E-61));
#1315=DIRECTION('',(1.14105152169467E-30,1.,6.32297869215646E-61));
#1316=DIRECTION('',(-1.,1.14105152169467E-30,-1.18329135783152E-30));
#1317=DIRECTION('center_axis',(1.,-1.14105152169467E-30,1.18329135783152E-30));
#1318=DIRECTION('ref_axis',(1.18329135783152E-30,-7.17898535246161E-61,
-1.));
#1319=DIRECTION('',(1.18329135783152E-30,-7.17898535246161E-61,-1.));
#1320=DIRECTION('',(-1.14105152169467E-30,-1.,-6.32297869215646E-61));
#1321=DIRECTION('',(1.18329135783152E-30,-7.17898535246161E-61,-1.));
#1322=DIRECTION('center_axis',(-1.18329135783152E-30,7.17898535246161E-61,
1.));
#1323=DIRECTION('ref_axis',(1.,-1.14105152169467E-30,1.18329135783152E-30));
#1324=DIRECTION('',(1.14105152169467E-30,1.,6.32297869215646E-61));
#1325=DIRECTION('',(-1.,1.14105152169467E-30,-1.18329135783152E-30));
#1326=DIRECTION('',(1.,-1.14105152169467E-30,1.18329135783152E-30));
#1327=DIRECTION('center_axis',(-1.,1.14105152169467E-30,-1.18329135783152E-30));
#1328=DIRECTION('ref_axis',(-1.18329135783152E-30,7.17898535246161E-61,
1.));
#1329=DIRECTION('',(1.18329135783152E-30,-7.17898535246161E-61,-1.));
#1330=DIRECTION('',(-1.14105152169467E-30,-1.,-6.32297869215646E-61));
#1331=DIRECTION('',(1.18329135783152E-30,-7.17898535246161E-61,-1.));
#1332=DIRECTION('center_axis',(-1.18329135783152E-30,7.17898535246161E-61,
1.));
#1333=DIRECTION('ref_axis',(1.,-1.14105152169467E-30,1.18329135783152E-30));
#1334=DIRECTION('',(1.14105152169467E-30,1.,6.32297869215646E-61));
#1335=DIRECTION('',(1.,-1.14105152169467E-30,1.18329135783152E-30));
#1336=DIRECTION('',(-1.14105152169467E-30,-1.,-6.32297869215646E-61));
#1337=DIRECTION('',(1.,-1.14105152169467E-30,1.18329135783152E-30));
#1338=DIRECTION('center_axis',(-1.,1.14105152169467E-30,-1.18329135783152E-30));
#1339=DIRECTION('ref_axis',(-1.18329135783152E-30,7.17898535246161E-61,
1.));
#1340=DIRECTION('',(-1.18329135783152E-30,7.17898535246161E-61,1.));
#1341=DIRECTION('',(1.14105152169467E-30,1.,6.32297869215646E-61));
#1342=DIRECTION('',(1.18329135783152E-30,-7.17898535246161E-61,-1.));
#1343=DIRECTION('',(-1.14105152169467E-30,-1.,-6.32297869215646E-61));
#1344=DIRECTION('',(1.18329135783152E-30,-7.17898535246161E-61,-1.));
#1345=DIRECTION('',(1.14105152169467E-30,1.,6.32297869215646E-61));
#1346=DIRECTION('center_axis',(1.14105152169467E-30,1.,6.32297869215646E-61));
#1347=DIRECTION('ref_axis',(1.,-1.14105152169467E-30,1.18329135783152E-30));
#1348=DIRECTION('center_axis',(-1.14105152169467E-30,-1.,-6.32297869215646E-61));
#1349=DIRECTION('ref_axis',(1.,-1.14105152169467E-30,1.18329135783152E-30));
#1350=DIRECTION('center_axis',(1.14105152169467E-30,1.,6.32297869215646E-61));
#1351=DIRECTION('ref_axis',(1.,-1.14105152169467E-30,1.18329135783152E-30));
#1352=DIRECTION('center_axis',(-1.18329135783152E-30,7.17898535246161E-61,
1.));
#1353=DIRECTION('ref_axis',(1.,-1.14105152169467E-30,1.18329135783152E-30));
#1354=DIRECTION('',(1.14105152169467E-30,1.,6.32297869215646E-61));
#1355=DIRECTION('',(-1.,1.14105152169467E-30,-1.18329135783152E-30));
#1356=DIRECTION('',(-1.,1.14105152169467E-30,-1.18329135783152E-30));
#1357=DIRECTION('center_axis',(-1.18329135783152E-30,7.17898535246161E-61,
1.));
#1358=DIRECTION('ref_axis',(1.,-1.14105152169467E-30,1.18329135783152E-30));
#1359=DIRECTION('',(-1.,1.14105152169467E-30,-1.18329135783152E-30));
#1360=DIRECTION('',(1.14105152169467E-30,1.,6.32297869215646E-61));
#1361=DIRECTION('',(1.,-1.14105152169467E-30,1.18329135783152E-30));
#1362=DIRECTION('center_axis',(1.,-1.14105152169467E-30,1.18329135783152E-30));
#1363=DIRECTION('ref_axis',(1.18329135783152E-30,-7.17898535246161E-61,
-1.));
#1364=DIRECTION('',(1.18329135783152E-30,-7.17898535246161E-61,-1.));
#1365=DIRECTION('',(1.18329135783152E-30,-7.17898535246161E-61,-1.));
#1366=DIRECTION('center_axis',(-1.14105152169467E-30,-1.,-6.32297869215646E-61));
#1367=DIRECTION('ref_axis',(1.18329135783152E-30,-7.17898535246161E-61,
-1.));
#1368=DIRECTION('center_axis',(-1.18329135783152E-30,7.17898535246161E-61,
1.));
#1369=DIRECTION('ref_axis',(1.,-1.14105152169467E-30,1.18329135783152E-30));
#1370=DIRECTION('',(1.,-1.14105152169467E-30,1.18329135783152E-30));
#1371=DIRECTION('',(-1.,1.14105152169467E-30,-1.18329135783152E-30));
#1372=DIRECTION('center_axis',(-1.14105152169467E-30,-1.,-6.32297869215646E-61));
#1373=DIRECTION('ref_axis',(1.18329135783152E-30,-7.17898535246161E-61,
-1.));
#1374=DIRECTION('',(1.18329135783152E-30,-7.17898535246161E-61,-1.));
#1375=DIRECTION('center_axis',(1.,-1.14105152169467E-30,1.18329135783152E-30));
#1376=DIRECTION('ref_axis',(1.18329135783152E-30,-7.17898535246161E-61,
-1.));
#1377=DIRECTION('',(-1.18329135783152E-30,7.17898535246161E-61,1.));
#1378=DIRECTION('',(-1.18101317853455E-30,-1.,-6.79584152398898E-61));
#1379=DIRECTION('',(-1.5158604537859E-30,-0.342020143325669,0.939692620785908));
#1380=DIRECTION('',(-1.18101317853455E-30,-1.,-6.79584152398898E-61));
#1381=DIRECTION('',(7.07999860602126E-31,-0.342020143325669,-0.939692620785908));
#1382=DIRECTION('',(-1.18101317853455E-30,-1.,-6.79584152398898E-61));
#1383=DIRECTION('',(-1.5158604537859E-30,-0.34202014332567,0.939692620785908));
#1384=DIRECTION('',(-1.18101317853455E-30,-1.,-6.79584152398898E-61));
#1385=DIRECTION('',(7.07999860602124E-31,-0.34202014332567,-0.939692620785908));
#1386=DIRECTION('',(-1.18101317853455E-30,-1.,-6.79584152398898E-61));
#1387=DIRECTION('',(-1.5158604537859E-30,-0.34202014332567,0.939692620785908));
#1388=DIRECTION('',(-1.18101317853455E-30,-1.,-6.79584152398898E-61));
#1389=DIRECTION('',(7.07999860602123E-31,-0.34202014332567,-0.939692620785908));
#1390=DIRECTION('',(-1.18101317853455E-30,-1.,-6.79584152398898E-61));
#1391=DIRECTION('',(-1.5158604537859E-30,-0.34202014332567,0.939692620785908));
#1392=DIRECTION('',(-1.18101317853455E-30,-1.,-6.79584152398898E-61));
#1393=DIRECTION('',(7.07999860602124E-31,-0.34202014332567,-0.939692620785908));
#1394=DIRECTION('',(-1.18101317853455E-30,-1.,-6.79584152398898E-61));
#1395=DIRECTION('',(-1.5158604537859E-30,-0.34202014332567,0.939692620785908));
#1396=DIRECTION('',(-1.18101317853455E-30,-1.,-6.79584152398898E-61));
#1397=DIRECTION('',(7.07999860602124E-31,-0.34202014332567,-0.939692620785908));
#1398=DIRECTION('',(-1.18101317853455E-30,-1.,-6.79584152398898E-61));
#1399=DIRECTION('',(-1.5158604537859E-30,-0.34202014332567,0.939692620785908));
#1400=DIRECTION('',(-1.18101317853455E-30,-1.,-6.79584152398898E-61));
#1401=DIRECTION('',(7.07999860602124E-31,-0.34202014332567,-0.939692620785908));
#1402=DIRECTION('',(-1.18101317853455E-30,-1.,-6.79584152398898E-61));
#1403=DIRECTION('',(-1.5158604537859E-30,-0.34202014332567,0.939692620785908));
#1404=DIRECTION('',(-1.18101317853455E-30,-1.,-6.79584152398898E-61));
#1405=DIRECTION('',(7.07999860602124E-31,-0.34202014332567,-0.939692620785908));
#1406=DIRECTION('',(-1.18101317853455E-30,-1.,-6.79584152398898E-61));
#1407=DIRECTION('',(-1.5158604537859E-30,-0.34202014332567,0.939692620785908));
#1408=DIRECTION('',(-1.18101317853455E-30,-1.,-6.79584152398898E-61));
#1409=DIRECTION('',(7.07999860602124E-31,-0.34202014332567,-0.939692620785908));
#1410=DIRECTION('',(-1.18101317853455E-30,-1.,-6.79584152398898E-61));
#1411=DIRECTION('',(-1.5158604537859E-30,-0.342020143325669,0.939692620785908));
#1412=DIRECTION('',(-1.18101317853455E-30,-1.,-6.79584152398898E-61));
#1413=DIRECTION('',(7.07999860602126E-31,-0.342020143325669,-0.939692620785908));
#1414=DIRECTION('',(-1.18101317853455E-30,-1.,-6.79584152398898E-61));
#1415=DIRECTION('',(1.18329135783152E-30,-7.17898535246161E-61,-1.));
#1416=DIRECTION('center_axis',(1.14105152169467E-30,1.,6.32297869215646E-61));
#1417=DIRECTION('ref_axis',(-1.18329135783152E-30,7.17898535246161E-61,
1.));
#1418=DIRECTION('',(1.18329135783152E-30,-7.17898535246161E-61,-1.));
#1419=DIRECTION('',(1.,-1.14105152169467E-30,1.18329135783152E-30));
#1420=DIRECTION('center_axis',(-1.14105152169467E-30,-1.,-6.32297869215646E-61));
#1421=DIRECTION('ref_axis',(1.18329135783152E-30,-7.17898535246161E-61,
-1.));
#1422=DIRECTION('',(1.,-1.14105152169467E-30,1.18329135783152E-30));
#1423=DIRECTION('',(-1.18329135783152E-30,7.17898535246161E-61,1.));
#1424=DIRECTION('center_axis',(-1.18329135783152E-30,7.17898535246161E-61,
1.));
#1425=DIRECTION('ref_axis',(-1.18101317853455E-30,-1.,-6.79584152398898E-61));
#1426=DIRECTION('',(1.18101317853455E-30,1.,6.79584152398898E-61));
#1427=DIRECTION('',(1.,-1.14105152169467E-30,1.18329135783152E-30));
#1428=DIRECTION('center_axis',(-1.47694717467458E-30,-0.939692620785908,
0.342020143325669));
#1429=DIRECTION('ref_axis',(7.07999860602126E-31,-0.342020143325669,-0.939692620785908));
#1430=DIRECTION('',(-7.07999860602126E-31,0.342020143325669,0.939692620785908));
#1431=DIRECTION('',(1.,-1.14105152169467E-30,1.18329135783152E-30));
#1432=DIRECTION('center_axis',(-1.18329135783152E-30,7.17898535246161E-61,
1.));
#1433=DIRECTION('ref_axis',(-1.18101317853455E-30,-1.,-6.79584152398898E-61));
#1434=DIRECTION('',(1.18101317853455E-30,1.,6.79584152398898E-61));
#1435=DIRECTION('',(1.,-1.14105152169467E-30,1.18329135783152E-30));
#1436=DIRECTION('center_axis',(6.67528215071453E-31,0.939692620785908,0.342020143325669));
#1437=DIRECTION('ref_axis',(-1.5158604537859E-30,-0.342020143325669,0.939692620785908));
#1438=DIRECTION('',(1.5158604537859E-30,0.342020143325669,-0.939692620785908));
#1439=DIRECTION('',(1.,-1.14105152169467E-30,1.18329135783152E-30));
#1440=DIRECTION('center_axis',(-1.18329135783152E-30,7.17898535246161E-61,
1.));
#1441=DIRECTION('ref_axis',(-1.18101317853455E-30,-1.,-6.79584152398898E-61));
#1442=DIRECTION('',(1.18101317853455E-30,1.,6.79584152398898E-61));
#1443=DIRECTION('',(1.,-1.14105152169467E-30,1.18329135783152E-30));
#1444=DIRECTION('center_axis',(-1.47694717467458E-30,-0.939692620785908,
0.34202014332567));
#1445=DIRECTION('ref_axis',(7.07999860602124E-31,-0.34202014332567,-0.939692620785908));
#1446=DIRECTION('',(-7.07999860602124E-31,0.34202014332567,0.939692620785908));
#1447=DIRECTION('',(1.,-1.14105152169467E-30,1.18329135783152E-30));
#1448=DIRECTION('center_axis',(-1.18329135783152E-30,7.17898535246161E-61,
1.));
#1449=DIRECTION('ref_axis',(-1.18101317853455E-30,-1.,-6.79584152398898E-61));
#1450=DIRECTION('',(1.18101317853455E-30,1.,6.79584152398898E-61));
#1451=DIRECTION('',(1.,-1.14105152169467E-30,1.18329135783152E-30));
#1452=DIRECTION('center_axis',(6.67528215071452E-31,0.939692620785908,0.34202014332567));
#1453=DIRECTION('ref_axis',(-1.5158604537859E-30,-0.34202014332567,0.939692620785908));
#1454=DIRECTION('',(1.5158604537859E-30,0.34202014332567,-0.939692620785908));
#1455=DIRECTION('',(1.,-1.14105152169467E-30,1.18329135783152E-30));
#1456=DIRECTION('center_axis',(-1.18329135783152E-30,7.17898535246161E-61,
1.));
#1457=DIRECTION('ref_axis',(-1.18101317853455E-30,-1.,-6.79584152398898E-61));
#1458=DIRECTION('',(1.18101317853455E-30,1.,6.79584152398898E-61));
#1459=DIRECTION('',(1.,-1.14105152169467E-30,1.18329135783152E-30));
#1460=DIRECTION('center_axis',(-1.47694717467458E-30,-0.939692620785908,
0.34202014332567));
#1461=DIRECTION('ref_axis',(7.07999860602124E-31,-0.34202014332567,-0.939692620785908));
#1462=DIRECTION('',(-7.07999860602124E-31,0.34202014332567,0.939692620785908));
#1463=DIRECTION('',(1.,-1.14105152169467E-30,1.18329135783152E-30));
#1464=DIRECTION('center_axis',(-1.18329135783152E-30,7.17898535246161E-61,
1.));
#1465=DIRECTION('ref_axis',(-1.18101317853455E-30,-1.,-6.79584152398898E-61));
#1466=DIRECTION('',(1.18101317853455E-30,1.,6.79584152398898E-61));
#1467=DIRECTION('',(1.,-1.14105152169467E-30,1.18329135783152E-30));
#1468=DIRECTION('center_axis',(6.67528215071451E-31,0.939692620785908,0.34202014332567));
#1469=DIRECTION('ref_axis',(-1.5158604537859E-30,-0.34202014332567,0.939692620785908));
#1470=DIRECTION('',(1.5158604537859E-30,0.34202014332567,-0.939692620785908));
#1471=DIRECTION('',(1.,-1.14105152169467E-30,1.18329135783152E-30));
#1472=DIRECTION('center_axis',(-1.18329135783152E-30,7.17898535246161E-61,
1.));
#1473=DIRECTION('ref_axis',(-1.18101317853455E-30,-1.,-6.79584152398898E-61));
#1474=DIRECTION('',(1.18101317853455E-30,1.,6.79584152398898E-61));
#1475=DIRECTION('',(1.,-1.14105152169467E-30,1.18329135783152E-30));
#1476=DIRECTION('center_axis',(-1.47694717467458E-30,-0.939692620785908,
0.34202014332567));
#1477=DIRECTION('ref_axis',(7.07999860602124E-31,-0.34202014332567,-0.939692620785908));
#1478=DIRECTION('',(-7.07999860602124E-31,0.34202014332567,0.939692620785908));
#1479=DIRECTION('',(1.,-1.14105152169467E-30,1.18329135783152E-30));
#1480=DIRECTION('center_axis',(-1.18329135783152E-30,7.17898535246161E-61,
1.));
#1481=DIRECTION('ref_axis',(-1.18101317853455E-30,-1.,-6.79584152398898E-61));
#1482=DIRECTION('',(1.18101317853455E-30,1.,6.79584152398898E-61));
#1483=DIRECTION('',(1.,-1.14105152169467E-30,1.18329135783152E-30));
#1484=DIRECTION('center_axis',(6.67528215071452E-31,0.939692620785908,0.34202014332567));
#1485=DIRECTION('ref_axis',(-1.5158604537859E-30,-0.34202014332567,0.939692620785908));
#1486=DIRECTION('',(1.5158604537859E-30,0.34202014332567,-0.939692620785908));
#1487=DIRECTION('',(1.,-1.14105152169467E-30,1.18329135783152E-30));
#1488=DIRECTION('center_axis',(-1.18329135783152E-30,7.17898535246161E-61,
1.));
#1489=DIRECTION('ref_axis',(-1.18101317853455E-30,-1.,-6.79584152398898E-61));
#1490=DIRECTION('',(1.18101317853455E-30,1.,6.79584152398898E-61));
#1491=DIRECTION('',(1.,-1.14105152169467E-30,1.18329135783152E-30));
#1492=DIRECTION('center_axis',(-1.47694717467458E-30,-0.939692620785908,
0.34202014332567));
#1493=DIRECTION('ref_axis',(7.07999860602124E-31,-0.34202014332567,-0.939692620785908));
#1494=DIRECTION('',(-7.07999860602124E-31,0.34202014332567,0.939692620785908));
#1495=DIRECTION('',(1.,-1.14105152169467E-30,1.18329135783152E-30));
#1496=DIRECTION('center_axis',(-1.18329135783152E-30,7.17898535246161E-61,
1.));
#1497=DIRECTION('ref_axis',(-1.18101317853455E-30,-1.,-6.79584152398898E-61));
#1498=DIRECTION('',(1.18101317853455E-30,1.,6.79584152398898E-61));
#1499=DIRECTION('',(1.,-1.14105152169467E-30,1.18329135783152E-30));
#1500=DIRECTION('center_axis',(6.67528215071452E-31,0.939692620785908,0.34202014332567));
#1501=DIRECTION('ref_axis',(-1.5158604537859E-30,-0.34202014332567,0.939692620785908));
#1502=DIRECTION('',(1.5158604537859E-30,0.34202014332567,-0.939692620785908));
#1503=DIRECTION('',(1.,-1.14105152169467E-30,1.18329135783152E-30));
#1504=DIRECTION('center_axis',(-1.18329135783152E-30,7.17898535246161E-61,
1.));
#1505=DIRECTION('ref_axis',(-1.18101317853455E-30,-1.,-6.79584152398898E-61));
#1506=DIRECTION('',(1.18101317853455E-30,1.,6.79584152398898E-61));
#1507=DIRECTION('',(1.,-1.14105152169467E-30,1.18329135783152E-30));
#1508=DIRECTION('center_axis',(-1.47694717467458E-30,-0.939692620785908,
0.34202014332567));
#1509=DIRECTION('ref_axis',(7.07999860602124E-31,-0.34202014332567,-0.939692620785908));
#1510=DIRECTION('',(-7.07999860602124E-31,0.34202014332567,0.939692620785908));
#1511=DIRECTION('',(1.,-1.14105152169467E-30,1.18329135783152E-30));
#1512=DIRECTION('center_axis',(-1.18329135783152E-30,7.17898535246161E-61,
1.));
#1513=DIRECTION('ref_axis',(-1.18101317853455E-30,-1.,-6.79584152398898E-61));
#1514=DIRECTION('',(1.18101317853455E-30,1.,6.79584152398898E-61));
#1515=DIRECTION('',(1.,-1.14105152169467E-30,1.18329135783152E-30));
#1516=DIRECTION('center_axis',(6.67528215071452E-31,0.939692620785908,0.34202014332567));
#1517=DIRECTION('ref_axis',(-1.5158604537859E-30,-0.34202014332567,0.939692620785908));
#1518=DIRECTION('',(1.5158604537859E-30,0.34202014332567,-0.939692620785908));
#1519=DIRECTION('',(1.,-1.14105152169467E-30,1.18329135783152E-30));
#1520=DIRECTION('center_axis',(-1.18329135783152E-30,7.17898535246161E-61,
1.));
#1521=DIRECTION('ref_axis',(-1.18101317853455E-30,-1.,-6.79584152398898E-61));
#1522=DIRECTION('',(1.18101317853455E-30,1.,6.79584152398898E-61));
#1523=DIRECTION('',(1.,-1.14105152169467E-30,1.18329135783152E-30));
#1524=DIRECTION('center_axis',(-1.47694717467458E-30,-0.939692620785908,
0.34202014332567));
#1525=DIRECTION('ref_axis',(7.07999860602123E-31,-0.34202014332567,-0.939692620785908));
#1526=DIRECTION('',(-7.07999860602123E-31,0.34202014332567,0.939692620785908));
#1527=DIRECTION('',(1.,-1.14105152169467E-30,1.18329135783152E-30));
#1528=DIRECTION('center_axis',(-1.18329135783152E-30,7.17898535246161E-61,
1.));
#1529=DIRECTION('ref_axis',(-1.18101317853455E-30,-1.,-6.79584152398898E-61));
#1530=DIRECTION('',(1.18101317853455E-30,1.,6.79584152398898E-61));
#1531=DIRECTION('',(1.,-1.14105152169467E-30,1.18329135783152E-30));
#1532=DIRECTION('center_axis',(6.67528215071452E-31,0.939692620785908,0.34202014332567));
#1533=DIRECTION('ref_axis',(-1.5158604537859E-30,-0.34202014332567,0.939692620785908));
#1534=DIRECTION('',(1.5158604537859E-30,0.34202014332567,-0.939692620785908));
#1535=DIRECTION('',(1.,-1.14105152169467E-30,1.18329135783152E-30));
#1536=DIRECTION('center_axis',(-1.18329135783152E-30,7.17898535246161E-61,
1.));
#1537=DIRECTION('ref_axis',(-1.18101317853455E-30,-1.,-6.79584152398898E-61));
#1538=DIRECTION('',(1.18101317853455E-30,1.,6.79584152398898E-61));
#1539=DIRECTION('',(1.,-1.14105152169467E-30,1.18329135783152E-30));
#1540=DIRECTION('center_axis',(-1.47694717467458E-30,-0.939692620785908,
0.34202014332567));
#1541=DIRECTION('ref_axis',(7.07999860602124E-31,-0.34202014332567,-0.939692620785908));
#1542=DIRECTION('',(-7.07999860602124E-31,0.34202014332567,0.939692620785908));
#1543=DIRECTION('',(1.,-1.14105152169467E-30,1.18329135783152E-30));
#1544=DIRECTION('center_axis',(-1.18329135783152E-30,7.17898535246161E-61,
1.));
#1545=DIRECTION('ref_axis',(-1.18101317853455E-30,-1.,-6.79584152398898E-61));
#1546=DIRECTION('',(1.18101317853455E-30,1.,6.79584152398898E-61));
#1547=DIRECTION('',(1.,-1.14105152169467E-30,1.18329135783152E-30));
#1548=DIRECTION('center_axis',(6.67528215071452E-31,0.939692620785908,0.34202014332567));
#1549=DIRECTION('ref_axis',(-1.5158604537859E-30,-0.34202014332567,0.939692620785908));
#1550=DIRECTION('',(1.5158604537859E-30,0.34202014332567,-0.939692620785908));
#1551=DIRECTION('',(1.,-1.14105152169467E-30,1.18329135783152E-30));
#1552=DIRECTION('center_axis',(-1.18329135783152E-30,7.17898535246161E-61,
1.));
#1553=DIRECTION('ref_axis',(-1.18101317853455E-30,-1.,-6.79584152398898E-61));
#1554=DIRECTION('',(1.18101317853455E-30,1.,6.79584152398898E-61));
#1555=DIRECTION('',(1.,-1.14105152169467E-30,1.18329135783152E-30));
#1556=DIRECTION('center_axis',(-1.47694717467458E-30,-0.939692620785908,
0.342020143325669));
#1557=DIRECTION('ref_axis',(7.07999860602126E-31,-0.342020143325669,-0.939692620785908));
#1558=DIRECTION('',(-7.07999860602126E-31,0.342020143325669,0.939692620785908));
#1559=DIRECTION('',(1.,-1.14105152169467E-30,1.18329135783152E-30));
#1560=DIRECTION('center_axis',(-1.18329135783152E-30,7.17898535246161E-61,
1.));
#1561=DIRECTION('ref_axis',(-1.18101317853455E-30,-1.,-6.79584152398898E-61));
#1562=DIRECTION('',(1.18101317853455E-30,1.,6.79584152398898E-61));
#1563=DIRECTION('',(1.,-1.14105152169467E-30,1.18329135783152E-30));
#1564=DIRECTION('center_axis',(6.67528215071453E-31,0.939692620785908,0.342020143325669));
#1565=DIRECTION('ref_axis',(-1.5158604537859E-30,-0.342020143325669,0.939692620785908));
#1566=DIRECTION('',(1.5158604537859E-30,0.342020143325669,-0.939692620785908));
#1567=DIRECTION('',(1.,-1.14105152169467E-30,1.18329135783152E-30));
#1568=DIRECTION('center_axis',(-1.18329135783152E-30,7.17898535246161E-61,
1.));
#1569=DIRECTION('ref_axis',(-1.18101317853455E-30,-1.,-6.79584152398898E-61));
#1570=DIRECTION('',(1.18101317853455E-30,1.,6.79584152398898E-61));
#1571=DIRECTION('center_axis',(1.,-1.18101317853455E-30,1.18329135783152E-30));
#1572=DIRECTION('ref_axis',(1.18329135783152E-30,-7.17898535246161E-61,
-1.));
#1573=CARTESIAN_POINT('',(0.,0.,0.));
#1574=CARTESIAN_POINT('Origin',(678.,0.,222.));
#1575=CARTESIAN_POINT('',(674.,22.,222.));
#1576=CARTESIAN_POINT('',(674.,-22.,222.));
#1577=CARTESIAN_POINT('',(674.,0.,222.));
#1578=CARTESIAN_POINT('',(671.,22.,222.));
#1579=CARTESIAN_POINT('',(678.,22.,222.));
#1580=CARTESIAN_POINT('',(671.,-22.,222.));
#1581=CARTESIAN_POINT('',(671.,0.,222.));
#1582=CARTESIAN_POINT('',(678.,-22.,222.));
#1583=CARTESIAN_POINT('Origin',(696.,-19.,254.));
#1584=CARTESIAN_POINT('',(692.,-19.,255.7));
#1585=CARTESIAN_POINT('Origin',(692.,-19.,254.));
#1586=CARTESIAN_POINT('',(700.,-19.,255.7));
#1587=CARTESIAN_POINT('',(696.,-19.,255.7));
#1588=CARTESIAN_POINT('Origin',(700.,-19.,254.));
#1589=CARTESIAN_POINT('Origin',(691.,-19.,226.));
#1590=CARTESIAN_POINT('',(691.,-20.7,226.));
#1591=CARTESIAN_POINT('',(691.,-17.3,226.));
#1592=CARTESIAN_POINT('',(691.,-19.,226.));
#1593=CARTESIAN_POINT('Origin',(691.,-19.,226.));
#1594=CARTESIAN_POINT('Origin',(696.,-19.,226.));
#1595=CARTESIAN_POINT('',(692.,-20.7,226.));
#1596=CARTESIAN_POINT('',(696.,-20.7,226.));
#1597=CARTESIAN_POINT('',(692.,-19.,227.7));
#1598=CARTESIAN_POINT('Origin',(692.,-19.,226.));
#1599=CARTESIAN_POINT('',(700.,-19.,227.7));
#1600=CARTESIAN_POINT('',(696.,-19.,227.7));
#1601=CARTESIAN_POINT('Origin',(700.,-19.,226.));
#1602=CARTESIAN_POINT('',(692.,-17.3,226.));
#1603=CARTESIAN_POINT('Origin',(692.,-19.,226.));
#1604=CARTESIAN_POINT('',(696.,-17.3,226.));
#1605=CARTESIAN_POINT('Origin',(687.,-19.,226.));
#1606=CARTESIAN_POINT('',(682.,-22.,226.));
#1607=CARTESIAN_POINT('',(682.,-16.,226.));
#1608=CARTESIAN_POINT('',(682.,-9.5,226.));
#1609=CARTESIAN_POINT('',(692.,-22.,226.));
#1610=CARTESIAN_POINT('',(687.,-22.,226.));
#1611=CARTESIAN_POINT('',(692.,-19.,226.));
#1612=CARTESIAN_POINT('',(692.,-16.,226.));
#1613=CARTESIAN_POINT('',(692.,-19.,226.));
#1614=CARTESIAN_POINT('',(687.,-16.,226.));
#1615=CARTESIAN_POINT('Origin',(692.,-19.,240.));
#1616=CARTESIAN_POINT('',(692.,-22.,264.));
#1617=CARTESIAN_POINT('',(692.,-22.,240.));
#1618=CARTESIAN_POINT('',(692.,-16.,264.));
#1619=CARTESIAN_POINT('',(692.,-19.,264.));
#1620=CARTESIAN_POINT('',(692.,-16.,240.));
#1621=CARTESIAN_POINT('Origin',(696.,-19.,264.));
#1622=CARTESIAN_POINT('',(700.,-22.,264.));
#1623=CARTESIAN_POINT('',(700.,-16.,264.));
#1624=CARTESIAN_POINT('',(700.,-19.,264.));
#1625=CARTESIAN_POINT('',(696.,-16.,264.));
#1626=CARTESIAN_POINT('',(696.,-22.,264.));
#1627=CARTESIAN_POINT('Origin',(700.,-19.,217.5));
#1628=CARTESIAN_POINT('',(700.,-22.,209.));
#1629=CARTESIAN_POINT('',(700.,-22.,217.5));
#1630=CARTESIAN_POINT('',(700.,-16.,209.));
#1631=CARTESIAN_POINT('',(700.,-19.,209.));
#1632=CARTESIAN_POINT('',(700.,-16.,217.5));
#1633=CARTESIAN_POINT('Origin',(678.,0.,215.));
#1634=CARTESIAN_POINT('',(681.05,-16.,215.));
#1635=CARTESIAN_POINT('',(681.05,22.,215.));
#1636=CARTESIAN_POINT('',(681.05,0.,215.));
#1637=CARTESIAN_POINT('',(674.95,-16.,215.));
#1638=CARTESIAN_POINT('',(682.5,-16.,215.));
#1639=CARTESIAN_POINT('',(674.95,22.,215.));
#1640=CARTESIAN_POINT('',(674.95,0.,215.));
#1641=CARTESIAN_POINT('',(678.,22.,215.));
#1642=CARTESIAN_POINT('Origin',(685.,0.,215.));
#1643=CARTESIAN_POINT('',(685.,-16.,209.));
#1644=CARTESIAN_POINT('',(685.,-16.,222.));
#1645=CARTESIAN_POINT('',(685.,-16.,216.25));
#1646=CARTESIAN_POINT('',(685.,-22.,209.));
#1647=CARTESIAN_POINT('',(685.,-9.5,209.));
#1648=CARTESIAN_POINT('',(685.,-22.,208.));
#1649=CARTESIAN_POINT('',(685.,-22.,215.));
#1650=CARTESIAN_POINT('',(685.,22.,208.));
#1651=CARTESIAN_POINT('',(685.,0.,208.));
#1652=CARTESIAN_POINT('',(685.,22.,222.));
#1653=CARTESIAN_POINT('',(685.,22.,215.));
#1654=CARTESIAN_POINT('',(685.,0.,222.));
#1655=CARTESIAN_POINT('Origin',(678.,0.,215.));
#1656=CARTESIAN_POINT('Origin',(678.,22.,215.));
#1657=CARTESIAN_POINT('Origin',(678.,-16.,215.));
#1658=CARTESIAN_POINT('Origin',(678.,0.,222.));
#1659=CARTESIAN_POINT('',(682.,-16.,222.));
#1660=CARTESIAN_POINT('',(682.,22.,222.));
#1661=CARTESIAN_POINT('',(682.,0.,222.));
#1662=CARTESIAN_POINT('',(682.5,-16.,222.));
#1663=CARTESIAN_POINT('',(678.,22.,222.));
#1664=CARTESIAN_POINT('Origin',(678.,0.,208.));
#1665=CARTESIAN_POINT('',(671.,-22.,208.));
#1666=CARTESIAN_POINT('',(678.,-22.,208.));
#1667=CARTESIAN_POINT('',(671.,22.,208.));
#1668=CARTESIAN_POINT('',(671.,0.,208.));
#1669=CARTESIAN_POINT('',(678.,22.,208.));
#1670=CARTESIAN_POINT('Origin',(671.,0.,215.));
#1671=CARTESIAN_POINT('',(671.,22.,215.));
#1672=CARTESIAN_POINT('',(671.,-22.,215.));
#1673=CARTESIAN_POINT('Origin',(687.,-16.,217.5));
#1674=CARTESIAN_POINT('Origin',(687.,-19.,209.));
#1675=CARTESIAN_POINT('',(687.,-16.,209.));
#1676=CARTESIAN_POINT('',(687.,-22.,209.));
#1677=CARTESIAN_POINT('Origin',(687.,-16.,217.5));
#1678=CARTESIAN_POINT('',(682.,-16.,221.125));
#1679=CARTESIAN_POINT('Origin',(682.,0.,224.75));
#1680=CARTESIAN_POINT('',(682.,22.,226.125));
#1681=CARTESIAN_POINT('',(682.,22.,226.125));
#1682=CARTESIAN_POINT('',(682.,20.7100973558841,226.125));
#1683=CARTESIAN_POINT('',(682.,20.7100973558841,226.125));
#1684=CARTESIAN_POINT('',(682.,19.4816978152356,229.5));
#1685=CARTESIAN_POINT('',(682.,19.4816978152356,229.5));
#1686=CARTESIAN_POINT('',(682.,18.2174140278419,229.5));
#1687=CARTESIAN_POINT('',(682.,18.2174140278419,229.5));
#1688=CARTESIAN_POINT('',(682.,16.9890144871935,226.125));
#1689=CARTESIAN_POINT('',(682.,16.9890144871935,226.125));
#1690=CARTESIAN_POINT('',(682.,15.9977083754994,226.125));
#1691=CARTESIAN_POINT('',(682.,15.9977083754994,226.125));
#1692=CARTESIAN_POINT('',(682.,14.7693088348509,229.5));
#1693=CARTESIAN_POINT('',(682.,14.7693088348509,229.5));
#1694=CARTESIAN_POINT('',(682.,13.5050250474572,229.5));
#1695=CARTESIAN_POINT('',(682.,13.5050250474572,229.5));
#1696=CARTESIAN_POINT('',(682.,12.2766255068088,226.125));
#1697=CARTESIAN_POINT('',(682.,12.2766255068088,226.125));
#1698=CARTESIAN_POINT('',(682.,11.2853193951147,226.125));
#1699=CARTESIAN_POINT('',(682.,11.2853193951147,226.125));
#1700=CARTESIAN_POINT('',(682.,10.0569198544662,229.5));
#1701=CARTESIAN_POINT('',(682.,10.0569198544662,229.5));
#1702=CARTESIAN_POINT('',(682.,8.79263606707251,229.5));
#1703=CARTESIAN_POINT('',(682.,8.79263606707251,229.5));
#1704=CARTESIAN_POINT('',(682.,7.56423652642408,226.125));
#1705=CARTESIAN_POINT('',(682.,7.56423652642408,226.125));
#1706=CARTESIAN_POINT('',(682.,6.57293041472999,226.125));
#1707=CARTESIAN_POINT('',(682.,6.57293041472999,226.125));
#1708=CARTESIAN_POINT('',(682.,5.34453087408156,229.5));
#1709=CARTESIAN_POINT('',(682.,5.34453087408156,229.5));
#1710=CARTESIAN_POINT('',(682.,4.08024708668782,229.5));
#1711=CARTESIAN_POINT('',(682.,4.08024708668782,229.5));
#1712=CARTESIAN_POINT('',(682.,2.85184754603939,226.125));
#1713=CARTESIAN_POINT('',(682.,2.85184754603939,226.125));
#1714=CARTESIAN_POINT('',(682.,1.8605414343453,226.125));
#1715=CARTESIAN_POINT('',(682.,1.8605414343453,226.125));
#1716=CARTESIAN_POINT('',(682.,0.632141893696869,229.5));
#1717=CARTESIAN_POINT('',(682.,0.632141893696869,229.5));
#1718=CARTESIAN_POINT('',(682.,-0.632141893696869,229.5));
#1719=CARTESIAN_POINT('',(682.,-0.632141893696869,229.5));
#1720=CARTESIAN_POINT('',(682.,-1.8605414343453,226.125));
#1721=CARTESIAN_POINT('',(682.,-1.8605414343453,226.125));
#1722=CARTESIAN_POINT('',(682.,-2.85184754603939,226.125));
#1723=CARTESIAN_POINT('',(682.,-2.85184754603939,226.125));
#1724=CARTESIAN_POINT('',(682.,-4.08024708668782,229.5));
#1725=CARTESIAN_POINT('',(682.,-4.08024708668782,229.5));
#1726=CARTESIAN_POINT('',(682.,-5.34453087408156,229.5));
#1727=CARTESIAN_POINT('',(682.,-5.34453087408156,229.5));
#1728=CARTESIAN_POINT('',(682.,-6.57293041472999,226.125));
#1729=CARTESIAN_POINT('',(682.,-6.57293041472999,226.125));
#1730=CARTESIAN_POINT('',(682.,-7.56423652642408,226.125));
#1731=CARTESIAN_POINT('',(682.,-7.56423652642408,226.125));
#1732=CARTESIAN_POINT('',(682.,-8.79263606707251,229.5));
#1733=CARTESIAN_POINT('',(682.,-8.79263606707251,229.5));
#1734=CARTESIAN_POINT('',(682.,-10.0569198544662,229.5));
#1735=CARTESIAN_POINT('',(682.,-10.0569198544662,229.5));
#1736=CARTESIAN_POINT('',(682.,-11.2853193951147,226.125));
#1737=CARTESIAN_POINT('',(682.,-11.2853193951147,226.125));
#1738=CARTESIAN_POINT('',(682.,-12.2766255068088,226.125));
#1739=CARTESIAN_POINT('',(682.,-12.2766255068088,226.125));
#1740=CARTESIAN_POINT('',(682.,-13.5050250474572,229.5));
#1741=CARTESIAN_POINT('',(682.,-13.5050250474572,229.5));
#1742=CARTESIAN_POINT('',(682.,-14.7693088348509,229.5));
#1743=CARTESIAN_POINT('',(682.,-14.7693088348509,229.5));
#1744=CARTESIAN_POINT('',(682.,-15.9977083754994,226.125));
#1745=CARTESIAN_POINT('',(682.,-15.9977083754994,226.125));
#1746=CARTESIAN_POINT('',(682.,-16.9890144871935,226.125));
#1747=CARTESIAN_POINT('',(682.,-16.9890144871935,226.125));
#1748=CARTESIAN_POINT('',(682.,-18.2174140278419,229.5));
#1749=CARTESIAN_POINT('',(682.,-18.2174140278419,229.5));
#1750=CARTESIAN_POINT('',(682.,-19.4816978152356,229.5));
#1751=CARTESIAN_POINT('',(682.,-19.4816978152356,229.5));
#1752=CARTESIAN_POINT('',(682.,-20.7100973558841,226.125));
#1753=CARTESIAN_POINT('',(682.,-20.7100973558841,226.125));
#1754=CARTESIAN_POINT('',(682.,-22.,226.125));
#1755=CARTESIAN_POINT('',(682.,-22.,226.125));
#1756=CARTESIAN_POINT('',(682.,-22.,220.));
#1757=CARTESIAN_POINT('Origin',(674.,22.,220.));
#1758=CARTESIAN_POINT('',(674.,22.,226.125));
#1759=CARTESIAN_POINT('',(674.,22.,226.125));
#1760=CARTESIAN_POINT('',(674.,22.,226.125));
#1761=CARTESIAN_POINT('Origin',(674.,-22.,226.125));
#1762=CARTESIAN_POINT('',(674.,-22.,226.125));
#1763=CARTESIAN_POINT('',(674.,-22.,226.125));
#1764=CARTESIAN_POINT('',(674.,-22.,220.));
#1765=CARTESIAN_POINT('Origin',(674.,-20.7100973558841,226.125));
#1766=CARTESIAN_POINT('',(674.,-20.7100973558841,226.125));
#1767=CARTESIAN_POINT('',(674.,-22.,226.125));
#1768=CARTESIAN_POINT('',(674.,-20.7100973558841,226.125));
#1769=CARTESIAN_POINT('Origin',(674.,-19.4816978152356,229.5));
#1770=CARTESIAN_POINT('',(674.,-19.4816978152356,229.5));
#1771=CARTESIAN_POINT('',(674.,-20.7100973558841,226.125));
#1772=CARTESIAN_POINT('',(674.,-19.4816978152356,229.5));
#1773=CARTESIAN_POINT('Origin',(674.,-18.2174140278419,229.5));
#1774=CARTESIAN_POINT('',(674.,-18.2174140278419,229.5));
#1775=CARTESIAN_POINT('',(674.,-19.4816978152356,229.5));
#1776=CARTESIAN_POINT('',(674.,-18.2174140278419,229.5));
#1777=CARTESIAN_POINT('Origin',(674.,-16.9890144871935,226.125));
#1778=CARTESIAN_POINT('',(674.,-16.9890144871935,226.125));
#1779=CARTESIAN_POINT('',(674.,-18.2174140278419,229.5));
#1780=CARTESIAN_POINT('',(674.,-16.9890144871935,226.125));
#1781=CARTESIAN_POINT('Origin',(674.,-15.9977083754994,226.125));
#1782=CARTESIAN_POINT('',(674.,-15.9977083754994,226.125));
#1783=CARTESIAN_POINT('',(674.,-16.9890144871935,226.125));
#1784=CARTESIAN_POINT('',(674.,-15.9977083754994,226.125));
#1785=CARTESIAN_POINT('Origin',(674.,-14.7693088348509,229.5));
#1786=CARTESIAN_POINT('',(674.,-14.7693088348509,229.5));
#1787=CARTESIAN_POINT('',(674.,-15.9977083754994,226.125));
#1788=CARTESIAN_POINT('',(674.,-14.7693088348509,229.5));
#1789=CARTESIAN_POINT('Origin',(674.,-13.5050250474572,229.5));
#1790=CARTESIAN_POINT('',(674.,-13.5050250474572,229.5));
#1791=CARTESIAN_POINT('',(674.,-14.7693088348509,229.5));
#1792=CARTESIAN_POINT('',(674.,-13.5050250474572,229.5));
#1793=CARTESIAN_POINT('Origin',(674.,-12.2766255068088,226.125));
#1794=CARTESIAN_POINT('',(674.,-12.2766255068088,226.125));
#1795=CARTESIAN_POINT('',(674.,-13.5050250474572,229.5));
#1796=CARTESIAN_POINT('',(674.,-12.2766255068088,226.125));
#1797=CARTESIAN_POINT('Origin',(674.,-11.2853193951147,226.125));
#1798=CARTESIAN_POINT('',(674.,-11.2853193951147,226.125));
#1799=CARTESIAN_POINT('',(674.,-12.2766255068088,226.125));
#1800=CARTESIAN_POINT('',(674.,-11.2853193951147,226.125));
#1801=CARTESIAN_POINT('Origin',(674.,-10.0569198544662,229.5));
#1802=CARTESIAN_POINT('',(674.,-10.0569198544662,229.5));
#1803=CARTESIAN_POINT('',(674.,-11.2853193951147,226.125));
#1804=CARTESIAN_POINT('',(674.,-10.0569198544662,229.5));
#1805=CARTESIAN_POINT('Origin',(674.,-8.79263606707251,229.5));
#1806=CARTESIAN_POINT('',(674.,-8.79263606707251,229.5));
#1807=CARTESIAN_POINT('',(674.,-10.0569198544662,229.5));
#1808=CARTESIAN_POINT('',(674.,-8.79263606707251,229.5));
#1809=CARTESIAN_POINT('Origin',(674.,-7.56423652642408,226.125));
#1810=CARTESIAN_POINT('',(674.,-7.56423652642408,226.125));
#1811=CARTESIAN_POINT('',(674.,-8.79263606707251,229.5));
#1812=CARTESIAN_POINT('',(674.,-7.56423652642408,226.125));
#1813=CARTESIAN_POINT('Origin',(674.,-6.57293041472999,226.125));
#1814=CARTESIAN_POINT('',(674.,-6.57293041472999,226.125));
#1815=CARTESIAN_POINT('',(674.,-7.56423652642408,226.125));
#1816=CARTESIAN_POINT('',(674.,-6.57293041472999,226.125));
#1817=CARTESIAN_POINT('Origin',(674.,-5.34453087408156,229.5));
#1818=CARTESIAN_POINT('',(674.,-5.34453087408156,229.5));
#1819=CARTESIAN_POINT('',(674.,-6.57293041472999,226.125));
#1820=CARTESIAN_POINT('',(674.,-5.34453087408156,229.5));
#1821=CARTESIAN_POINT('Origin',(674.,-4.08024708668782,229.5));
#1822=CARTESIAN_POINT('',(674.,-4.08024708668782,229.5));
#1823=CARTESIAN_POINT('',(674.,-5.34453087408156,229.5));
#1824=CARTESIAN_POINT('',(674.,-4.08024708668782,229.5));
#1825=CARTESIAN_POINT('Origin',(674.,-2.85184754603939,226.125));
#1826=CARTESIAN_POINT('',(674.,-2.85184754603939,226.125));
#1827=CARTESIAN_POINT('',(674.,-4.08024708668782,229.5));
#1828=CARTESIAN_POINT('',(674.,-2.85184754603939,226.125));
#1829=CARTESIAN_POINT('Origin',(674.,-1.8605414343453,226.125));
#1830=CARTESIAN_POINT('',(674.,-1.8605414343453,226.125));
#1831=CARTESIAN_POINT('',(674.,-2.85184754603939,226.125));
#1832=CARTESIAN_POINT('',(674.,-1.8605414343453,226.125));
#1833=CARTESIAN_POINT('Origin',(674.,-0.632141893696869,229.5));
#1834=CARTESIAN_POINT('',(674.,-0.632141893696869,229.5));
#1835=CARTESIAN_POINT('',(674.,-1.8605414343453,226.125));
#1836=CARTESIAN_POINT('',(674.,-0.632141893696869,229.5));
#1837=CARTESIAN_POINT('Origin',(674.,0.632141893696869,229.5));
#1838=CARTESIAN_POINT('',(674.,0.632141893696869,229.5));
#1839=CARTESIAN_POINT('',(674.,-0.632141893696869,229.5));
#1840=CARTESIAN_POINT('',(674.,0.632141893696869,229.5));
#1841=CARTESIAN_POINT('Origin',(674.,1.8605414343453,226.125));
#1842=CARTESIAN_POINT('',(674.,1.8605414343453,226.125));
#1843=CARTESIAN_POINT('',(674.,0.632141893696869,229.5));
#1844=CARTESIAN_POINT('',(674.,1.8605414343453,226.125));
#1845=CARTESIAN_POINT('Origin',(674.,2.85184754603939,226.125));
#1846=CARTESIAN_POINT('',(674.,2.85184754603939,226.125));
#1847=CARTESIAN_POINT('',(674.,1.8605414343453,226.125));
#1848=CARTESIAN_POINT('',(674.,2.85184754603939,226.125));
#1849=CARTESIAN_POINT('Origin',(674.,4.08024708668782,229.5));
#1850=CARTESIAN_POINT('',(674.,4.08024708668782,229.5));
#1851=CARTESIAN_POINT('',(674.,2.85184754603939,226.125));
#1852=CARTESIAN_POINT('',(674.,4.08024708668782,229.5));
#1853=CARTESIAN_POINT('Origin',(674.,5.34453087408156,229.5));
#1854=CARTESIAN_POINT('',(674.,5.34453087408156,229.5));
#1855=CARTESIAN_POINT('',(674.,4.08024708668782,229.5));
#1856=CARTESIAN_POINT('',(674.,5.34453087408156,229.5));
#1857=CARTESIAN_POINT('Origin',(674.,6.57293041472999,226.125));
#1858=CARTESIAN_POINT('',(674.,6.57293041472999,226.125));
#1859=CARTESIAN_POINT('',(674.,5.34453087408156,229.5));
#1860=CARTESIAN_POINT('',(674.,6.57293041472999,226.125));
#1861=CARTESIAN_POINT('Origin',(674.,7.56423652642408,226.125));
#1862=CARTESIAN_POINT('',(674.,7.56423652642408,226.125));
#1863=CARTESIAN_POINT('',(674.,6.57293041472999,226.125));
#1864=CARTESIAN_POINT('',(674.,7.56423652642408,226.125));
#1865=CARTESIAN_POINT('Origin',(674.,8.79263606707251,229.5));
#1866=CARTESIAN_POINT('',(674.,8.79263606707251,229.5));
#1867=CARTESIAN_POINT('',(674.,7.56423652642408,226.125));
#1868=CARTESIAN_POINT('',(674.,8.79263606707251,229.5));
#1869=CARTESIAN_POINT('Origin',(674.,10.0569198544662,229.5));
#1870=CARTESIAN_POINT('',(674.,10.0569198544662,229.5));
#1871=CARTESIAN_POINT('',(674.,8.79263606707251,229.5));
#1872=CARTESIAN_POINT('',(674.,10.0569198544662,229.5));
#1873=CARTESIAN_POINT('Origin',(674.,11.2853193951147,226.125));
#1874=CARTESIAN_POINT('',(674.,11.2853193951147,226.125));
#1875=CARTESIAN_POINT('',(674.,10.0569198544662,229.5));
#1876=CARTESIAN_POINT('',(674.,11.2853193951147,226.125));
#1877=CARTESIAN_POINT('Origin',(674.,12.2766255068088,226.125));
#1878=CARTESIAN_POINT('',(674.,12.2766255068088,226.125));
#1879=CARTESIAN_POINT('',(674.,11.2853193951147,226.125));
#1880=CARTESIAN_POINT('',(674.,12.2766255068088,226.125));
#1881=CARTESIAN_POINT('Origin',(674.,13.5050250474572,229.5));
#1882=CARTESIAN_POINT('',(674.,13.5050250474572,229.5));
#1883=CARTESIAN_POINT('',(674.,12.2766255068088,226.125));
#1884=CARTESIAN_POINT('',(674.,13.5050250474572,229.5));
#1885=CARTESIAN_POINT('Origin',(674.,14.7693088348509,229.5));
#1886=CARTESIAN_POINT('',(674.,14.7693088348509,229.5));
#1887=CARTESIAN_POINT('',(674.,13.5050250474572,229.5));
#1888=CARTESIAN_POINT('',(674.,14.7693088348509,229.5));
#1889=CARTESIAN_POINT('Origin',(674.,15.9977083754994,226.125));
#1890=CARTESIAN_POINT('',(674.,15.9977083754994,226.125));
#1891=CARTESIAN_POINT('',(674.,14.7693088348509,229.5));
#1892=CARTESIAN_POINT('',(674.,15.9977083754994,226.125));
#1893=CARTESIAN_POINT('Origin',(674.,16.9890144871935,226.125));
#1894=CARTESIAN_POINT('',(674.,16.9890144871935,226.125));
#1895=CARTESIAN_POINT('',(674.,15.9977083754994,226.125));
#1896=CARTESIAN_POINT('',(674.,16.9890144871935,226.125));
#1897=CARTESIAN_POINT('Origin',(674.,18.2174140278419,229.5));
#1898=CARTESIAN_POINT('',(674.,18.2174140278419,229.5));
#1899=CARTESIAN_POINT('',(674.,16.9890144871935,226.125));
#1900=CARTESIAN_POINT('',(674.,18.2174140278419,229.5));
#1901=CARTESIAN_POINT('Origin',(674.,19.4816978152356,229.5));
#1902=CARTESIAN_POINT('',(674.,19.4816978152356,229.5));
#1903=CARTESIAN_POINT('',(674.,18.2174140278419,229.5));
#1904=CARTESIAN_POINT('',(674.,19.4816978152356,229.5));
#1905=CARTESIAN_POINT('Origin',(674.,20.7100973558841,226.125));
#1906=CARTESIAN_POINT('',(674.,20.7100973558841,226.125));
#1907=CARTESIAN_POINT('',(674.,19.4816978152356,229.5));
#1908=CARTESIAN_POINT('',(674.,20.7100973558841,226.125));
#1909=CARTESIAN_POINT('Origin',(674.,22.,226.125));
#1910=CARTESIAN_POINT('',(674.,20.7100973558841,226.125));
#1911=CARTESIAN_POINT('Origin',(674.,0.,224.75));
#1912=UNCERTAINTY_MEASURE_WITH_UNIT(LENGTH_MEASURE(0.01),#1916,
'DISTANCE_ACCURACY_VALUE',
'Maximum model space distance between geometric entities at asserted c
onnectivities');
#1913=UNCERTAINTY_MEASURE_WITH_UNIT(LENGTH_MEASURE(0.01),#1916,
'DISTANCE_ACCURACY_VALUE',
'Maximum model space distance between geometric entities at asserted c
onnectivities');
#1914=(
GEOMETRIC_REPRESENTATION_CONTEXT(3)
GLOBAL_UNCERTAINTY_ASSIGNED_CONTEXT((#1912))
GLOBAL_UNIT_ASSIGNED_CONTEXT((#1916,#1918,#1919))
REPRESENTATION_CONTEXT('','3D')
);
#1915=(
GEOMETRIC_REPRESENTATION_CONTEXT(3)
GLOBAL_UNCERTAINTY_ASSIGNED_CONTEXT((#1913))
GLOBAL_UNIT_ASSIGNED_CONTEXT((#1916,#1918,#1919))
REPRESENTATION_CONTEXT('','3D')
);
#1916=(
LENGTH_UNIT()
NAMED_UNIT(*)
SI_UNIT(.MILLI.,.METRE.)
);
#1917=(
LENGTH_UNIT()
NAMED_UNIT(*)
SI_UNIT($,.METRE.)
);
#1918=(
NAMED_UNIT(*)
PLANE_ANGLE_UNIT()
SI_UNIT($,.RADIAN.)
);
#1919=(
NAMED_UNIT(*)
SI_UNIT($,.STERADIAN.)
SOLID_ANGLE_UNIT()
);
#1920=SHAPE_DEFINITION_REPRESENTATION(#1921,#1922);
#1921=PRODUCT_DEFINITION_SHAPE('',$,#1924);
#1922=SHAPE_REPRESENTATION('',(#1212),#1914);
#1923=PRODUCT_DEFINITION_CONTEXT('part definition',#1928,'design');
#1924=PRODUCT_DEFINITION('2026-08-12-23-06-02-952',
'EXPORT_TMP_PRINT_V010Q_P804_JawCarriage_B',#1925,#1923);
#1925=PRODUCT_DEFINITION_FORMATION('',$,#1930);
#1926=PRODUCT_RELATED_PRODUCT_CATEGORY(
'EXPORT_TMP_PRINT_V010Q_P804_JawCarriage_B',
'EXPORT_TMP_PRINT_V010Q_P804_JawCarriage_B',(#1930));
#1927=APPLICATION_PROTOCOL_DEFINITION('international standard',
'automotive_design',2009,#1928);
#1928=APPLICATION_CONTEXT(
'Core Data for Automotive Mechanical Design Process');
#1929=PRODUCT_CONTEXT('part definition',#1928,'mechanical');
#1930=PRODUCT('2026-08-12-23-06-02-952',
'EXPORT_TMP_PRINT_V010Q_P804_JawCarriage_B',$,(#1929));
#1931=PRESENTATION_STYLE_ASSIGNMENT((#1932));
#1932=SURFACE_STYLE_USAGE(.BOTH.,#1933);
#1933=SURFACE_SIDE_STYLE('',(#1934));
#1934=SURFACE_STYLE_FILL_AREA(#1935);
#1935=FILL_AREA_STYLE('Steel - Satin',(#1936));
#1936=FILL_AREA_STYLE_COLOUR('Steel - Satin',#1937);
#1937=COLOUR_RGB('Steel - Satin',0.627450980392157,0.627450980392157,0.627450980392157);
ENDSEC;
END-ISO-10303-21;
