ISO-10303-21;
HEADER;
/* Generated by software containing ST-Developer
 * from STEP Tools, Inc. (www.steptools.com) 
 */

FILE_DESCRIPTION(
/* description */ (''),
/* implementation_level */ '2;1');

FILE_NAME(
/* name */ 'PRINT_V010Q_P806_JawTip_B.step',
/* time_stamp */ '2026-08-12T23:06:06+02:00',
/* author */ (''),
/* organization */ (''),
/* preprocessor_version */ 'ST-DEVELOPER v20.1',
/* originating_system */ 'Autodesk Translation Framework v15.8.0.0',
/* authorisation */ '');

FILE_SCHEMA (('AUTOMOTIVE_DESIGN { 1 0 10303 214 3 1 1 }'));
ENDSEC;

DATA;
#10=MECHANICAL_DESIGN_GEOMETRIC_PRESENTATION_REPRESENTATION('',(#13),#273);
#11=SHAPE_REPRESENTATION_RELATIONSHIP('SRR','None',#280,#12);
#12=ADVANCED_BREP_SHAPE_REPRESENTATION('',(#14),#272);
#13=STYLED_ITEM('',(#289),#14);
#14=MANIFOLD_SOLID_BREP('PRINT_V010Q_P806_JawTip_B',#157);
#15=FACE_BOUND('',#43,.T.);
#16=FACE_BOUND('',#44,.T.);
#17=PLANE('',#174);
#18=PLANE('',#178);
#19=PLANE('',#179);
#20=PLANE('',#180);
#21=PLANE('',#181);
#22=PLANE('',#182);
#23=PLANE('',#183);
#24=PLANE('',#184);
#25=FACE_OUTER_BOUND('',#35,.T.);
#26=FACE_OUTER_BOUND('',#36,.T.);
#27=FACE_OUTER_BOUND('',#37,.T.);
#28=FACE_OUTER_BOUND('',#38,.T.);
#29=FACE_OUTER_BOUND('',#39,.T.);
#30=FACE_OUTER_BOUND('',#40,.T.);
#31=FACE_OUTER_BOUND('',#41,.T.);
#32=FACE_OUTER_BOUND('',#42,.T.);
#33=FACE_OUTER_BOUND('',#45,.T.);
#34=FACE_OUTER_BOUND('',#46,.T.);
#35=EDGE_LOOP('',(#109,#110,#111,#112));
#36=EDGE_LOOP('',(#113));
#37=EDGE_LOOP('',(#114,#115,#116,#117));
#38=EDGE_LOOP('',(#118));
#39=EDGE_LOOP('',(#119,#120,#121,#122));
#40=EDGE_LOOP('',(#123,#124,#125,#126));
#41=EDGE_LOOP('',(#127,#128,#129,#130));
#42=EDGE_LOOP('',(#131,#132,#133,#134));
#43=EDGE_LOOP('',(#135));
#44=EDGE_LOOP('',(#136));
#45=EDGE_LOOP('',(#137,#138,#139,#140));
#46=EDGE_LOOP('',(#141,#142,#143,#144));
#47=LINE('',#234,#61);
#48=LINE('',#241,#62);
#49=LINE('',#247,#63);
#50=LINE('',#249,#64);
#51=LINE('',#251,#65);
#52=LINE('',#252,#66);
#53=LINE('',#256,#67);
#54=LINE('',#258,#68);
#55=LINE('',#260,#69);
#56=LINE('',#261,#70);
#57=LINE('',#263,#71);
#58=LINE('',#264,#72);
#59=LINE('',#266,#73);
#60=LINE('',#268,#74);
#61=VECTOR('',#191,1.7);
#62=VECTOR('',#200,1.7);
#63=VECTOR('',#207,10.);
#64=VECTOR('',#208,10.);
#65=VECTOR('',#209,10.);
#66=VECTOR('',#210,10.);
#67=VECTOR('',#213,10.);
#68=VECTOR('',#214,10.);
#69=VECTOR('',#215,10.);
#70=VECTOR('',#216,10.);
#71=VECTOR('',#219,10.);
#72=VECTOR('',#220,10.);
#73=VECTOR('',#223,10.);
#74=VECTOR('',#226,10.);
#75=CIRCLE('',#172,1.7);
#76=CIRCLE('',#173,1.7);
#77=CIRCLE('',#176,1.7);
#78=CIRCLE('',#177,1.7);
#79=VERTEX_POINT('',#231);
#80=VERTEX_POINT('',#233);
#81=VERTEX_POINT('',#238);
#82=VERTEX_POINT('',#240);
#83=VERTEX_POINT('',#245);
#84=VERTEX_POINT('',#246);
#85=VERTEX_POINT('',#248);
#86=VERTEX_POINT('',#250);
#87=VERTEX_POINT('',#254);
#88=VERTEX_POINT('',#255);
#89=VERTEX_POINT('',#257);
#90=VERTEX_POINT('',#259);
#91=EDGE_CURVE('',#79,#79,#75,.T.);
#92=EDGE_CURVE('',#79,#80,#47,.T.);
#93=EDGE_CURVE('',#80,#80,#76,.T.);
#94=EDGE_CURVE('',#81,#81,#77,.T.);
#95=EDGE_CURVE('',#81,#82,#48,.T.);
#96=EDGE_CURVE('',#82,#82,#78,.T.);
#97=EDGE_CURVE('',#83,#84,#49,.T.);
#98=EDGE_CURVE('',#84,#85,#50,.T.);
#99=EDGE_CURVE('',#85,#86,#51,.T.);
#100=EDGE_CURVE('',#86,#83,#52,.T.);
#101=EDGE_CURVE('',#87,#88,#53,.T.);
#102=EDGE_CURVE('',#88,#89,#54,.T.);
#103=EDGE_CURVE('',#89,#90,#55,.T.);
#104=EDGE_CURVE('',#90,#87,#56,.T.);
#105=EDGE_CURVE('',#86,#89,#57,.T.);
#106=EDGE_CURVE('',#83,#88,#58,.T.);
#107=EDGE_CURVE('',#85,#90,#59,.T.);
#108=EDGE_CURVE('',#84,#87,#60,.T.);
#109=ORIENTED_EDGE('',*,*,#91,.F.);
#110=ORIENTED_EDGE('',*,*,#92,.T.);
#111=ORIENTED_EDGE('',*,*,#93,.T.);
#112=ORIENTED_EDGE('',*,*,#92,.F.);
#113=ORIENTED_EDGE('',*,*,#93,.F.);
#114=ORIENTED_EDGE('',*,*,#94,.F.);
#115=ORIENTED_EDGE('',*,*,#95,.T.);
#116=ORIENTED_EDGE('',*,*,#96,.T.);
#117=ORIENTED_EDGE('',*,*,#95,.F.);
#118=ORIENTED_EDGE('',*,*,#96,.F.);
#119=ORIENTED_EDGE('',*,*,#97,.T.);
#120=ORIENTED_EDGE('',*,*,#98,.T.);
#121=ORIENTED_EDGE('',*,*,#99,.T.);
#122=ORIENTED_EDGE('',*,*,#100,.T.);
#123=ORIENTED_EDGE('',*,*,#101,.T.);
#124=ORIENTED_EDGE('',*,*,#102,.T.);
#125=ORIENTED_EDGE('',*,*,#103,.T.);
#126=ORIENTED_EDGE('',*,*,#104,.T.);
#127=ORIENTED_EDGE('',*,*,#105,.T.);
#128=ORIENTED_EDGE('',*,*,#102,.F.);
#129=ORIENTED_EDGE('',*,*,#106,.F.);
#130=ORIENTED_EDGE('',*,*,#100,.F.);
#131=ORIENTED_EDGE('',*,*,#107,.T.);
#132=ORIENTED_EDGE('',*,*,#103,.F.);
#133=ORIENTED_EDGE('',*,*,#105,.F.);
#134=ORIENTED_EDGE('',*,*,#99,.F.);
#135=ORIENTED_EDGE('',*,*,#91,.T.);
#136=ORIENTED_EDGE('',*,*,#94,.T.);
#137=ORIENTED_EDGE('',*,*,#108,.T.);
#138=ORIENTED_EDGE('',*,*,#104,.F.);
#139=ORIENTED_EDGE('',*,*,#107,.F.);
#140=ORIENTED_EDGE('',*,*,#98,.F.);
#141=ORIENTED_EDGE('',*,*,#106,.T.);
#142=ORIENTED_EDGE('',*,*,#101,.F.);
#143=ORIENTED_EDGE('',*,*,#108,.F.);
#144=ORIENTED_EDGE('',*,*,#97,.F.);
#145=CYLINDRICAL_SURFACE('',#171,1.7);
#146=CYLINDRICAL_SURFACE('',#175,1.7);
#147=ADVANCED_FACE('',(#25),#145,.F.);
#148=ADVANCED_FACE('',(#26),#17,.F.);
#149=ADVANCED_FACE('',(#27),#146,.F.);
#150=ADVANCED_FACE('',(#28),#18,.F.);
#151=ADVANCED_FACE('',(#29),#19,.T.);
#152=ADVANCED_FACE('',(#30),#20,.F.);
#153=ADVANCED_FACE('',(#31),#21,.F.);
#154=ADVANCED_FACE('',(#32,#15,#16),#22,.F.);
#155=ADVANCED_FACE('',(#33),#23,.F.);
#156=ADVANCED_FACE('',(#34),#24,.F.);
#157=CLOSED_SHELL('',(#147,#148,#149,#150,#151,#152,#153,#154,#155,#156));
#158=DERIVED_UNIT_ELEMENT(#160,1.);
#159=DERIVED_UNIT_ELEMENT(#275,-3.);
#160=(
MASS_UNIT()
NAMED_UNIT(*)
SI_UNIT(.KILO.,.GRAM.)
);
#161=DERIVED_UNIT((#158,#159));
#162=MEASURE_REPRESENTATION_ITEM('density measure',
POSITIVE_RATIO_MEASURE(7850.),#161);
#163=PROPERTY_DEFINITION_REPRESENTATION(#168,#165);
#164=PROPERTY_DEFINITION_REPRESENTATION(#169,#166);
#165=REPRESENTATION('material name',(#167),#272);
#166=REPRESENTATION('density',(#162),#272);
#167=DESCRIPTIVE_REPRESENTATION_ITEM('Steel','Steel');
#168=PROPERTY_DEFINITION('material property','material name',#282);
#169=PROPERTY_DEFINITION('material property','density of part',#282);
#170=AXIS2_PLACEMENT_3D('',#229,#185,#186);
#171=AXIS2_PLACEMENT_3D('',#230,#187,#188);
#172=AXIS2_PLACEMENT_3D('',#232,#189,#190);
#173=AXIS2_PLACEMENT_3D('',#235,#192,#193);
#174=AXIS2_PLACEMENT_3D('',#236,#194,#195);
#175=AXIS2_PLACEMENT_3D('',#237,#196,#197);
#176=AXIS2_PLACEMENT_3D('',#239,#198,#199);
#177=AXIS2_PLACEMENT_3D('',#242,#201,#202);
#178=AXIS2_PLACEMENT_3D('',#243,#203,#204);
#179=AXIS2_PLACEMENT_3D('',#244,#205,#206);
#180=AXIS2_PLACEMENT_3D('',#253,#211,#212);
#181=AXIS2_PLACEMENT_3D('',#262,#217,#218);
#182=AXIS2_PLACEMENT_3D('',#265,#221,#222);
#183=AXIS2_PLACEMENT_3D('',#267,#224,#225);
#184=AXIS2_PLACEMENT_3D('',#269,#227,#228);
#185=DIRECTION('axis',(0.,0.,1.));
#186=DIRECTION('refdir',(1.,0.,0.));
#187=DIRECTION('center_axis',(1.,-1.14105152169467E-30,1.18329135783152E-30));
#188=DIRECTION('ref_axis',(1.18329135783152E-30,-7.1789853524616E-61,-1.));
#189=DIRECTION('center_axis',(1.,-1.14105152169467E-30,1.18329135783152E-30));
#190=DIRECTION('ref_axis',(1.18329135783152E-30,-7.1789853524616E-61,-1.));
#191=DIRECTION('',(1.,-1.14105152169467E-30,1.18329135783152E-30));
#192=DIRECTION('center_axis',(1.,-1.14105152169467E-30,1.18329135783152E-30));
#193=DIRECTION('ref_axis',(1.18329135783152E-30,-7.1789853524616E-61,-1.));
#194=DIRECTION('center_axis',(1.,-1.14105152169467E-30,1.18329135783152E-30));
#195=DIRECTION('ref_axis',(1.18329135783152E-30,-7.17898535246161E-61,-1.));
#196=DIRECTION('center_axis',(1.,-1.14105152169467E-30,1.18329135783152E-30));
#197=DIRECTION('ref_axis',(1.18329135783152E-30,-7.1789853524616E-61,-1.));
#198=DIRECTION('center_axis',(1.,-1.14105152169467E-30,1.18329135783152E-30));
#199=DIRECTION('ref_axis',(1.18329135783152E-30,-7.1789853524616E-61,-1.));
#200=DIRECTION('',(1.,-1.14105152169467E-30,1.18329135783152E-30));
#201=DIRECTION('center_axis',(1.,-1.14105152169467E-30,1.18329135783152E-30));
#202=DIRECTION('ref_axis',(1.18329135783152E-30,-7.1789853524616E-61,-1.));
#203=DIRECTION('center_axis',(1.,-1.14105152169467E-30,1.18329135783152E-30));
#204=DIRECTION('ref_axis',(1.18329135783152E-30,-7.17898535246161E-61,-1.));
#205=DIRECTION('center_axis',(-1.18329135783152E-30,7.17898535246161E-61,
1.));
#206=DIRECTION('ref_axis',(1.,-1.14105152169467E-30,1.18329135783152E-30));
#207=DIRECTION('',(1.14105152169467E-30,1.,6.32297869215646E-61));
#208=DIRECTION('',(-1.,1.14105152169467E-30,-1.18329135783152E-30));
#209=DIRECTION('',(-1.14105152169467E-30,-1.,-6.32297869215646E-61));
#210=DIRECTION('',(1.,-1.14105152169467E-30,1.18329135783152E-30));
#211=DIRECTION('center_axis',(-1.18329135783152E-30,7.17898535246161E-61,
1.));
#212=DIRECTION('ref_axis',(1.,-1.14105152169467E-30,1.18329135783152E-30));
#213=DIRECTION('',(-1.14105152169467E-30,-1.,-6.32297869215646E-61));
#214=DIRECTION('',(-1.,1.14105152169467E-30,-1.18329135783152E-30));
#215=DIRECTION('',(1.14105152169467E-30,1.,6.32297869215646E-61));
#216=DIRECTION('',(1.,-1.14105152169467E-30,1.18329135783152E-30));
#217=DIRECTION('center_axis',(1.14105152169467E-30,1.,6.32297869215646E-61));
#218=DIRECTION('ref_axis',(-1.18329135783152E-30,7.17898535246161E-61,1.));
#219=DIRECTION('',(1.18329135783152E-30,-7.17898535246161E-61,-1.));
#220=DIRECTION('',(1.18329135783152E-30,-7.17898535246161E-61,-1.));
#221=DIRECTION('center_axis',(1.,-1.14105152169467E-30,1.18329135783152E-30));
#222=DIRECTION('ref_axis',(1.18329135783152E-30,-7.17898535246161E-61,-1.));
#223=DIRECTION('',(1.18329135783152E-30,-7.17898535246161E-61,-1.));
#224=DIRECTION('center_axis',(-1.14105152169467E-30,-1.,-6.32297869215646E-61));
#225=DIRECTION('ref_axis',(1.18329135783152E-30,-7.17898535246161E-61,-1.));
#226=DIRECTION('',(1.18329135783152E-30,-7.17898535246161E-61,-1.));
#227=DIRECTION('center_axis',(-1.,1.14105152169467E-30,-1.18329135783152E-30));
#228=DIRECTION('ref_axis',(-1.18329135783152E-30,7.17898535246161E-61,1.));
#229=CARTESIAN_POINT('',(0.,0.,0.));
#230=CARTESIAN_POINT('Origin',(704.,-19.,254.));
#231=CARTESIAN_POINT('',(700.,-19.,255.7));
#232=CARTESIAN_POINT('Origin',(700.,-19.,254.));
#233=CARTESIAN_POINT('',(709.,-19.,255.7));
#234=CARTESIAN_POINT('',(704.,-19.,255.7));
#235=CARTESIAN_POINT('Origin',(709.,-19.,254.));
#236=CARTESIAN_POINT('Origin',(709.,-19.,254.));
#237=CARTESIAN_POINT('Origin',(704.,-19.,226.));
#238=CARTESIAN_POINT('',(700.,-19.,227.7));
#239=CARTESIAN_POINT('Origin',(700.,-19.,226.));
#240=CARTESIAN_POINT('',(709.,-19.,227.7));
#241=CARTESIAN_POINT('',(704.,-19.,227.7));
#242=CARTESIAN_POINT('Origin',(709.,-19.,226.));
#243=CARTESIAN_POINT('Origin',(709.,-19.,226.));
#244=CARTESIAN_POINT('Origin',(711.,-19.,262.));
#245=CARTESIAN_POINT('',(722.,-22.,262.));
#246=CARTESIAN_POINT('',(722.,-16.,262.));
#247=CARTESIAN_POINT('',(722.,-19.,262.));
#248=CARTESIAN_POINT('',(700.,-16.,262.));
#249=CARTESIAN_POINT('',(711.,-16.,262.));
#250=CARTESIAN_POINT('',(700.,-22.,262.));
#251=CARTESIAN_POINT('',(700.,-19.,262.));
#252=CARTESIAN_POINT('',(711.,-22.,262.));
#253=CARTESIAN_POINT('Origin',(711.,-19.,218.));
#254=CARTESIAN_POINT('',(722.,-16.,218.));
#255=CARTESIAN_POINT('',(722.,-22.,218.));
#256=CARTESIAN_POINT('',(722.,-19.,218.));
#257=CARTESIAN_POINT('',(700.,-22.,218.));
#258=CARTESIAN_POINT('',(711.,-22.,218.));
#259=CARTESIAN_POINT('',(700.,-16.,218.));
#260=CARTESIAN_POINT('',(700.,-19.,218.));
#261=CARTESIAN_POINT('',(711.,-16.,218.));
#262=CARTESIAN_POINT('Origin',(711.,-22.,240.));
#263=CARTESIAN_POINT('',(700.,-22.,240.));
#264=CARTESIAN_POINT('',(722.,-22.,240.));
#265=CARTESIAN_POINT('Origin',(700.,-19.,240.));
#266=CARTESIAN_POINT('',(700.,-16.,240.));
#267=CARTESIAN_POINT('Origin',(711.,-16.,240.));
#268=CARTESIAN_POINT('',(722.,-16.,240.));
#269=CARTESIAN_POINT('Origin',(722.,-19.,240.));
#270=UNCERTAINTY_MEASURE_WITH_UNIT(LENGTH_MEASURE(0.01),#274,
'DISTANCE_ACCURACY_VALUE',
'Maximum model space distance between geometric entities at asserted c
onnectivities');
#271=UNCERTAINTY_MEASURE_WITH_UNIT(LENGTH_MEASURE(0.01),#274,
'DISTANCE_ACCURACY_VALUE',
'Maximum model space distance between geometric entities at asserted c
onnectivities');
#272=(
GEOMETRIC_REPRESENTATION_CONTEXT(3)
GLOBAL_UNCERTAINTY_ASSIGNED_CONTEXT((#270))
GLOBAL_UNIT_ASSIGNED_CONTEXT((#274,#276,#277))
REPRESENTATION_CONTEXT('','3D')
);
#273=(
GEOMETRIC_REPRESENTATION_CONTEXT(3)
GLOBAL_UNCERTAINTY_ASSIGNED_CONTEXT((#271))
GLOBAL_UNIT_ASSIGNED_CONTEXT((#274,#276,#277))
REPRESENTATION_CONTEXT('','3D')
);
#274=(
LENGTH_UNIT()
NAMED_UNIT(*)
SI_UNIT(.MILLI.,.METRE.)
);
#275=(
LENGTH_UNIT()
NAMED_UNIT(*)
SI_UNIT($,.METRE.)
);
#276=(
NAMED_UNIT(*)
PLANE_ANGLE_UNIT()
SI_UNIT($,.RADIAN.)
);
#277=(
NAMED_UNIT(*)
SI_UNIT($,.STERADIAN.)
SOLID_ANGLE_UNIT()
);
#278=SHAPE_DEFINITION_REPRESENTATION(#279,#280);
#279=PRODUCT_DEFINITION_SHAPE('',$,#282);
#280=SHAPE_REPRESENTATION('',(#170),#272);
#281=PRODUCT_DEFINITION_CONTEXT('part definition',#286,'design');
#282=PRODUCT_DEFINITION('2026-08-12-23-06-05-891',
'EXPORT_TMP_PRINT_V010Q_P806_JawTip_B',#283,#281);
#283=PRODUCT_DEFINITION_FORMATION('',$,#288);
#284=PRODUCT_RELATED_PRODUCT_CATEGORY(
'EXPORT_TMP_PRINT_V010Q_P806_JawTip_B',
'EXPORT_TMP_PRINT_V010Q_P806_JawTip_B',(#288));
#285=APPLICATION_PROTOCOL_DEFINITION('international standard',
'automotive_design',2009,#286);
#286=APPLICATION_CONTEXT(
'Core Data for Automotive Mechanical Design Process');
#287=PRODUCT_CONTEXT('part definition',#286,'mechanical');
#288=PRODUCT('2026-08-12-23-06-05-891',
'EXPORT_TMP_PRINT_V010Q_P806_JawTip_B',$,(#287));
#289=PRESENTATION_STYLE_ASSIGNMENT((#290));
#290=SURFACE_STYLE_USAGE(.BOTH.,#291);
#291=SURFACE_SIDE_STYLE('',(#292));
#292=SURFACE_STYLE_FILL_AREA(#293);
#293=FILL_AREA_STYLE('Steel - Satin',(#294));
#294=FILL_AREA_STYLE_COLOUR('Steel - Satin',#295);
#295=COLOUR_RGB('Steel - Satin',0.627450980392157,0.627450980392157,0.627450980392157);
ENDSEC;
END-ISO-10303-21;
