ISO-10303-21;
HEADER;
/* Generated by software containing ST-Developer
 * from STEP Tools, Inc. (www.steptools.com) 
 */

FILE_DESCRIPTION(
/* description */ (''),
/* implementation_level */ '2;1');

FILE_NAME(
/* name */ 'PRINT_V010Q_P807_GripperServiceCover.step',
/* time_stamp */ '2026-08-31T16:23:48+02:00',
/* author */ (''),
/* organization */ (''),
/* preprocessor_version */ 'ST-DEVELOPER v20.1',
/* originating_system */ 'Autodesk Translation Framework v15.8.0.0',
/* authorisation */ '');

FILE_SCHEMA (('AUTOMOTIVE_DESIGN { 1 0 10303 214 3 1 1 }'));
ENDSEC;

DATA;
#10=MECHANICAL_DESIGN_GEOMETRIC_PRESENTATION_REPRESENTATION('',(#13),#638);
#11=SHAPE_REPRESENTATION_RELATIONSHIP('SRR','None',#645,#12);
#12=ADVANCED_BREP_SHAPE_REPRESENTATION('',(#14),#637);
#13=STYLED_ITEM('',(#654),#14);
#14=MANIFOLD_SOLID_BREP('Body1',#386);
#15=FACE_BOUND('',#57,.T.);
#16=FACE_BOUND('',#58,.T.);
#17=FACE_BOUND('',#59,.T.);
#18=FACE_BOUND('',#60,.T.);
#19=FACE_BOUND('',#66,.T.);
#20=FACE_BOUND('',#67,.T.);
#21=FACE_BOUND('',#68,.T.);
#22=FACE_BOUND('',#69,.T.);
#23=CYLINDRICAL_SURFACE('',#404,3.05);
#24=CYLINDRICAL_SURFACE('',#416,1.7);
#25=CYLINDRICAL_SURFACE('',#418,1.7);
#26=CYLINDRICAL_SURFACE('',#420,1.7);
#27=CYLINDRICAL_SURFACE('',#422,1.7);
#28=FACE_OUTER_BOUND('',#47,.T.);
#29=FACE_OUTER_BOUND('',#48,.T.);
#30=FACE_OUTER_BOUND('',#49,.T.);
#31=FACE_OUTER_BOUND('',#50,.T.);
#32=FACE_OUTER_BOUND('',#51,.T.);
#33=FACE_OUTER_BOUND('',#52,.T.);
#34=FACE_OUTER_BOUND('',#53,.T.);
#35=FACE_OUTER_BOUND('',#54,.T.);
#36=FACE_OUTER_BOUND('',#55,.T.);
#37=FACE_OUTER_BOUND('',#56,.T.);
#38=FACE_OUTER_BOUND('',#61,.T.);
#39=FACE_OUTER_BOUND('',#62,.T.);
#40=FACE_OUTER_BOUND('',#63,.T.);
#41=FACE_OUTER_BOUND('',#64,.T.);
#42=FACE_OUTER_BOUND('',#65,.T.);
#43=FACE_OUTER_BOUND('',#70,.T.);
#44=FACE_OUTER_BOUND('',#71,.T.);
#45=FACE_OUTER_BOUND('',#72,.T.);
#46=FACE_OUTER_BOUND('',#73,.T.);
#47=EDGE_LOOP('',(#251,#252));
#48=EDGE_LOOP('',(#253,#254,#255,#256,#257,#258));
#49=EDGE_LOOP('',(#259,#260,#261,#262));
#50=EDGE_LOOP('',(#263,#264,#265,#266));
#51=EDGE_LOOP('',(#267,#268,#269,#270));
#52=EDGE_LOOP('',(#271,#272,#273,#274));
#53=EDGE_LOOP('',(#275,#276,#277,#278));
#54=EDGE_LOOP('',(#279,#280,#281,#282,#283,#284));
#55=EDGE_LOOP('',(#285,#286,#287,#288,#289,#290));
#56=EDGE_LOOP('',(#291,#292,#293,#294,#295,#296,#297,#298,#299,#300,#301,
#302,#303,#304));
#57=EDGE_LOOP('',(#305));
#58=EDGE_LOOP('',(#306));
#59=EDGE_LOOP('',(#307));
#60=EDGE_LOOP('',(#308));
#61=EDGE_LOOP('',(#309,#310,#311,#312));
#62=EDGE_LOOP('',(#313,#314,#315,#316));
#63=EDGE_LOOP('',(#317,#318,#319,#320));
#64=EDGE_LOOP('',(#321,#322,#323,#324));
#65=EDGE_LOOP('',(#325,#326,#327,#328));
#66=EDGE_LOOP('',(#329));
#67=EDGE_LOOP('',(#330));
#68=EDGE_LOOP('',(#331));
#69=EDGE_LOOP('',(#332));
#70=EDGE_LOOP('',(#333,#334,#335,#336));
#71=EDGE_LOOP('',(#337,#338,#339,#340));
#72=EDGE_LOOP('',(#341,#342,#343,#344));
#73=EDGE_LOOP('',(#345,#346,#347,#348,#349,#350,#351,#352));
#74=CIRCLE('',#401,3.05);
#75=CIRCLE('',#405,3.05);
#76=CIRCLE('',#412,1.7);
#77=CIRCLE('',#413,1.7);
#78=CIRCLE('',#414,1.7);
#79=CIRCLE('',#415,1.7);
#80=CIRCLE('',#417,1.7);
#81=CIRCLE('',#419,1.7);
#82=CIRCLE('',#421,1.7);
#83=CIRCLE('',#423,1.7);
#84=LINE('',#534,#125);
#85=LINE('',#539,#126);
#86=LINE('',#541,#127);
#87=LINE('',#543,#128);
#88=LINE('',#545,#129);
#89=LINE('',#547,#130);
#90=LINE('',#548,#131);
#91=LINE('',#551,#132);
#92=LINE('',#553,#133);
#93=LINE('',#554,#134);
#94=LINE('',#557,#135);
#95=LINE('',#560,#136);
#96=LINE('',#563,#137);
#97=LINE('',#565,#138);
#98=LINE('',#566,#139);
#99=LINE('',#570,#140);
#100=LINE('',#571,#141);
#101=LINE('',#572,#142);
#102=LINE('',#575,#143);
#103=LINE('',#576,#144);
#104=LINE('',#579,#145);
#105=LINE('',#580,#146);
#106=LINE('',#582,#147);
#107=LINE('',#583,#148);
#108=LINE('',#586,#149);
#109=LINE('',#588,#150);
#110=LINE('',#590,#151);
#111=LINE('',#592,#152);
#112=LINE('',#593,#153);
#113=LINE('',#604,#154);
#114=LINE('',#608,#155);
#115=LINE('',#612,#156);
#116=LINE('',#616,#157);
#117=LINE('',#621,#158);
#118=LINE('',#623,#159);
#119=LINE('',#625,#160);
#120=LINE('',#626,#161);
#121=LINE('',#628,#162);
#122=LINE('',#629,#163);
#123=LINE('',#631,#164);
#124=LINE('',#633,#165);
#125=VECTOR('',#433,10.);
#126=VECTOR('',#438,10.);
#127=VECTOR('',#439,10.);
#128=VECTOR('',#440,10.);
#129=VECTOR('',#441,10.);
#130=VECTOR('',#442,10.);
#131=VECTOR('',#443,10.);
#132=VECTOR('',#446,10.);
#133=VECTOR('',#447,10.);
#134=VECTOR('',#448,10.);
#135=VECTOR('',#451,10.);
#136=VECTOR('',#454,10.);
#137=VECTOR('',#457,10.);
#138=VECTOR('',#458,10.);
#139=VECTOR('',#459,10.);
#140=VECTOR('',#462,10.);
#141=VECTOR('',#463,10.);
#142=VECTOR('',#464,10.);
#143=VECTOR('',#467,10.);
#144=VECTOR('',#468,10.);
#145=VECTOR('',#471,10.);
#146=VECTOR('',#472,10.);
#147=VECTOR('',#475,10.);
#148=VECTOR('',#476,10.);
#149=VECTOR('',#479,10.);
#150=VECTOR('',#480,10.);
#151=VECTOR('',#481,10.);
#152=VECTOR('',#482,10.);
#153=VECTOR('',#483,10.);
#154=VECTOR('',#494,1.7);
#155=VECTOR('',#499,1.7);
#156=VECTOR('',#504,1.7);
#157=VECTOR('',#509,1.7);
#158=VECTOR('',#514,10.);
#159=VECTOR('',#515,10.);
#160=VECTOR('',#516,10.);
#161=VECTOR('',#517,10.);
#162=VECTOR('',#520,10.);
#163=VECTOR('',#521,10.);
#164=VECTOR('',#524,10.);
#165=VECTOR('',#527,10.);
#166=VERTEX_POINT('',#532);
#167=VERTEX_POINT('',#533);
#168=VERTEX_POINT('',#537);
#169=VERTEX_POINT('',#538);
#170=VERTEX_POINT('',#540);
#171=VERTEX_POINT('',#542);
#172=VERTEX_POINT('',#544);
#173=VERTEX_POINT('',#546);
#174=VERTEX_POINT('',#550);
#175=VERTEX_POINT('',#552);
#176=VERTEX_POINT('',#556);
#177=VERTEX_POINT('',#558);
#178=VERTEX_POINT('',#562);
#179=VERTEX_POINT('',#564);
#180=VERTEX_POINT('',#568);
#181=VERTEX_POINT('',#569);
#182=VERTEX_POINT('',#574);
#183=VERTEX_POINT('',#578);
#184=VERTEX_POINT('',#585);
#185=VERTEX_POINT('',#587);
#186=VERTEX_POINT('',#589);
#187=VERTEX_POINT('',#591);
#188=VERTEX_POINT('',#594);
#189=VERTEX_POINT('',#596);
#190=VERTEX_POINT('',#598);
#191=VERTEX_POINT('',#600);
#192=VERTEX_POINT('',#603);
#193=VERTEX_POINT('',#607);
#194=VERTEX_POINT('',#611);
#195=VERTEX_POINT('',#615);
#196=VERTEX_POINT('',#619);
#197=VERTEX_POINT('',#620);
#198=VERTEX_POINT('',#622);
#199=VERTEX_POINT('',#624);
#200=EDGE_CURVE('',#166,#167,#84,.T.);
#201=EDGE_CURVE('',#167,#166,#74,.T.);
#202=EDGE_CURVE('',#168,#169,#85,.T.);
#203=EDGE_CURVE('',#170,#168,#86,.T.);
#204=EDGE_CURVE('',#170,#171,#87,.T.);
#205=EDGE_CURVE('',#171,#172,#88,.T.);
#206=EDGE_CURVE('',#172,#173,#89,.T.);
#207=EDGE_CURVE('',#173,#169,#90,.T.);
#208=EDGE_CURVE('',#169,#174,#91,.T.);
#209=EDGE_CURVE('',#173,#175,#92,.T.);
#210=EDGE_CURVE('',#174,#175,#93,.T.);
#211=EDGE_CURVE('',#176,#166,#94,.T.);
#212=EDGE_CURVE('',#176,#177,#75,.T.);
#213=EDGE_CURVE('',#167,#177,#95,.T.);
#214=EDGE_CURVE('',#178,#170,#96,.T.);
#215=EDGE_CURVE('',#179,#178,#97,.T.);
#216=EDGE_CURVE('',#171,#179,#98,.T.);
#217=EDGE_CURVE('',#180,#181,#99,.T.);
#218=EDGE_CURVE('',#179,#180,#100,.T.);
#219=EDGE_CURVE('',#178,#181,#101,.T.);
#220=EDGE_CURVE('',#175,#182,#102,.T.);
#221=EDGE_CURVE('',#182,#172,#103,.T.);
#222=EDGE_CURVE('',#183,#180,#104,.T.);
#223=EDGE_CURVE('',#182,#183,#105,.T.);
#224=EDGE_CURVE('',#181,#176,#106,.T.);
#225=EDGE_CURVE('',#177,#168,#107,.T.);
#226=EDGE_CURVE('',#174,#184,#108,.T.);
#227=EDGE_CURVE('',#184,#185,#109,.T.);
#228=EDGE_CURVE('',#185,#186,#110,.T.);
#229=EDGE_CURVE('',#186,#187,#111,.T.);
#230=EDGE_CURVE('',#187,#183,#112,.T.);
#231=EDGE_CURVE('',#188,#188,#76,.T.);
#232=EDGE_CURVE('',#189,#189,#77,.T.);
#233=EDGE_CURVE('',#190,#190,#78,.T.);
#234=EDGE_CURVE('',#191,#191,#79,.T.);
#235=EDGE_CURVE('',#191,#192,#113,.T.);
#236=EDGE_CURVE('',#192,#192,#80,.T.);
#237=EDGE_CURVE('',#190,#193,#114,.T.);
#238=EDGE_CURVE('',#193,#193,#81,.T.);
#239=EDGE_CURVE('',#189,#194,#115,.T.);
#240=EDGE_CURVE('',#194,#194,#82,.T.);
#241=EDGE_CURVE('',#188,#195,#116,.T.);
#242=EDGE_CURVE('',#195,#195,#83,.T.);
#243=EDGE_CURVE('',#196,#197,#117,.T.);
#244=EDGE_CURVE('',#197,#198,#118,.T.);
#245=EDGE_CURVE('',#198,#199,#119,.T.);
#246=EDGE_CURVE('',#199,#196,#120,.T.);
#247=EDGE_CURVE('',#199,#185,#121,.T.);
#248=EDGE_CURVE('',#196,#184,#122,.T.);
#249=EDGE_CURVE('',#198,#186,#123,.T.);
#250=EDGE_CURVE('',#197,#187,#124,.T.);
#251=ORIENTED_EDGE('',*,*,#200,.F.);
#252=ORIENTED_EDGE('',*,*,#201,.F.);
#253=ORIENTED_EDGE('',*,*,#202,.F.);
#254=ORIENTED_EDGE('',*,*,#203,.F.);
#255=ORIENTED_EDGE('',*,*,#204,.T.);
#256=ORIENTED_EDGE('',*,*,#205,.T.);
#257=ORIENTED_EDGE('',*,*,#206,.T.);
#258=ORIENTED_EDGE('',*,*,#207,.T.);
#259=ORIENTED_EDGE('',*,*,#208,.F.);
#260=ORIENTED_EDGE('',*,*,#207,.F.);
#261=ORIENTED_EDGE('',*,*,#209,.T.);
#262=ORIENTED_EDGE('',*,*,#210,.F.);
#263=ORIENTED_EDGE('',*,*,#211,.F.);
#264=ORIENTED_EDGE('',*,*,#212,.T.);
#265=ORIENTED_EDGE('',*,*,#213,.F.);
#266=ORIENTED_EDGE('',*,*,#201,.T.);
#267=ORIENTED_EDGE('',*,*,#204,.F.);
#268=ORIENTED_EDGE('',*,*,#214,.F.);
#269=ORIENTED_EDGE('',*,*,#215,.F.);
#270=ORIENTED_EDGE('',*,*,#216,.F.);
#271=ORIENTED_EDGE('',*,*,#217,.F.);
#272=ORIENTED_EDGE('',*,*,#218,.F.);
#273=ORIENTED_EDGE('',*,*,#215,.T.);
#274=ORIENTED_EDGE('',*,*,#219,.T.);
#275=ORIENTED_EDGE('',*,*,#220,.F.);
#276=ORIENTED_EDGE('',*,*,#209,.F.);
#277=ORIENTED_EDGE('',*,*,#206,.F.);
#278=ORIENTED_EDGE('',*,*,#221,.F.);
#279=ORIENTED_EDGE('',*,*,#222,.F.);
#280=ORIENTED_EDGE('',*,*,#223,.F.);
#281=ORIENTED_EDGE('',*,*,#221,.T.);
#282=ORIENTED_EDGE('',*,*,#205,.F.);
#283=ORIENTED_EDGE('',*,*,#216,.T.);
#284=ORIENTED_EDGE('',*,*,#218,.T.);
#285=ORIENTED_EDGE('',*,*,#224,.F.);
#286=ORIENTED_EDGE('',*,*,#219,.F.);
#287=ORIENTED_EDGE('',*,*,#214,.T.);
#288=ORIENTED_EDGE('',*,*,#203,.T.);
#289=ORIENTED_EDGE('',*,*,#225,.F.);
#290=ORIENTED_EDGE('',*,*,#212,.F.);
#291=ORIENTED_EDGE('',*,*,#222,.T.);
#292=ORIENTED_EDGE('',*,*,#217,.T.);
#293=ORIENTED_EDGE('',*,*,#224,.T.);
#294=ORIENTED_EDGE('',*,*,#211,.T.);
#295=ORIENTED_EDGE('',*,*,#200,.T.);
#296=ORIENTED_EDGE('',*,*,#213,.T.);
#297=ORIENTED_EDGE('',*,*,#225,.T.);
#298=ORIENTED_EDGE('',*,*,#202,.T.);
#299=ORIENTED_EDGE('',*,*,#208,.T.);
#300=ORIENTED_EDGE('',*,*,#226,.T.);
#301=ORIENTED_EDGE('',*,*,#227,.T.);
#302=ORIENTED_EDGE('',*,*,#228,.T.);
#303=ORIENTED_EDGE('',*,*,#229,.T.);
#304=ORIENTED_EDGE('',*,*,#230,.T.);
#305=ORIENTED_EDGE('',*,*,#231,.T.);
#306=ORIENTED_EDGE('',*,*,#232,.T.);
#307=ORIENTED_EDGE('',*,*,#233,.T.);
#308=ORIENTED_EDGE('',*,*,#234,.T.);
#309=ORIENTED_EDGE('',*,*,#234,.F.);
#310=ORIENTED_EDGE('',*,*,#235,.T.);
#311=ORIENTED_EDGE('',*,*,#236,.F.);
#312=ORIENTED_EDGE('',*,*,#235,.F.);
#313=ORIENTED_EDGE('',*,*,#233,.F.);
#314=ORIENTED_EDGE('',*,*,#237,.T.);
#315=ORIENTED_EDGE('',*,*,#238,.F.);
#316=ORIENTED_EDGE('',*,*,#237,.F.);
#317=ORIENTED_EDGE('',*,*,#232,.F.);
#318=ORIENTED_EDGE('',*,*,#239,.T.);
#319=ORIENTED_EDGE('',*,*,#240,.F.);
#320=ORIENTED_EDGE('',*,*,#239,.F.);
#321=ORIENTED_EDGE('',*,*,#231,.F.);
#322=ORIENTED_EDGE('',*,*,#241,.T.);
#323=ORIENTED_EDGE('',*,*,#242,.F.);
#324=ORIENTED_EDGE('',*,*,#241,.F.);
#325=ORIENTED_EDGE('',*,*,#243,.T.);
#326=ORIENTED_EDGE('',*,*,#244,.T.);
#327=ORIENTED_EDGE('',*,*,#245,.T.);
#328=ORIENTED_EDGE('',*,*,#246,.T.);
#329=ORIENTED_EDGE('',*,*,#236,.T.);
#330=ORIENTED_EDGE('',*,*,#238,.T.);
#331=ORIENTED_EDGE('',*,*,#240,.T.);
#332=ORIENTED_EDGE('',*,*,#242,.T.);
#333=ORIENTED_EDGE('',*,*,#247,.T.);
#334=ORIENTED_EDGE('',*,*,#227,.F.);
#335=ORIENTED_EDGE('',*,*,#248,.F.);
#336=ORIENTED_EDGE('',*,*,#246,.F.);
#337=ORIENTED_EDGE('',*,*,#249,.T.);
#338=ORIENTED_EDGE('',*,*,#228,.F.);
#339=ORIENTED_EDGE('',*,*,#247,.F.);
#340=ORIENTED_EDGE('',*,*,#245,.F.);
#341=ORIENTED_EDGE('',*,*,#250,.T.);
#342=ORIENTED_EDGE('',*,*,#229,.F.);
#343=ORIENTED_EDGE('',*,*,#249,.F.);
#344=ORIENTED_EDGE('',*,*,#244,.F.);
#345=ORIENTED_EDGE('',*,*,#223,.T.);
#346=ORIENTED_EDGE('',*,*,#230,.F.);
#347=ORIENTED_EDGE('',*,*,#250,.F.);
#348=ORIENTED_EDGE('',*,*,#243,.F.);
#349=ORIENTED_EDGE('',*,*,#248,.T.);
#350=ORIENTED_EDGE('',*,*,#226,.F.);
#351=ORIENTED_EDGE('',*,*,#210,.T.);
#352=ORIENTED_EDGE('',*,*,#220,.T.);
#353=PLANE('',#400);
#354=PLANE('',#402);
#355=PLANE('',#403);
#356=PLANE('',#406);
#357=PLANE('',#407);
#358=PLANE('',#408);
#359=PLANE('',#409);
#360=PLANE('',#410);
#361=PLANE('',#411);
#362=PLANE('',#424);
#363=PLANE('',#425);
#364=PLANE('',#426);
#365=PLANE('',#427);
#366=PLANE('',#428);
#367=ADVANCED_FACE('',(#28),#353,.T.);
#368=ADVANCED_FACE('',(#29),#354,.T.);
#369=ADVANCED_FACE('',(#30),#355,.T.);
#370=ADVANCED_FACE('',(#31),#23,.T.);
#371=ADVANCED_FACE('',(#32),#356,.F.);
#372=ADVANCED_FACE('',(#33),#357,.T.);
#373=ADVANCED_FACE('',(#34),#358,.F.);
#374=ADVANCED_FACE('',(#35),#359,.F.);
#375=ADVANCED_FACE('',(#36),#360,.F.);
#376=ADVANCED_FACE('',(#37,#15,#16,#17,#18),#361,.F.);
#377=ADVANCED_FACE('',(#38),#24,.F.);
#378=ADVANCED_FACE('',(#39),#25,.F.);
#379=ADVANCED_FACE('',(#40),#26,.F.);
#380=ADVANCED_FACE('',(#41),#27,.F.);
#381=ADVANCED_FACE('',(#42,#19,#20,#21,#22),#362,.T.);
#382=ADVANCED_FACE('',(#43),#363,.F.);
#383=ADVANCED_FACE('',(#44),#364,.F.);
#384=ADVANCED_FACE('',(#45),#365,.F.);
#385=ADVANCED_FACE('',(#46),#366,.F.);
#386=CLOSED_SHELL('',(#367,#368,#369,#370,#371,#372,#373,#374,#375,#376,
#377,#378,#379,#380,#381,#382,#383,#384,#385));
#387=DERIVED_UNIT_ELEMENT(#389,1.);
#388=DERIVED_UNIT_ELEMENT(#640,-3.);
#389=(
MASS_UNIT()
NAMED_UNIT(*)
SI_UNIT(.KILO.,.GRAM.)
);
#390=DERIVED_UNIT((#387,#388));
#391=MEASURE_REPRESENTATION_ITEM('density measure',
POSITIVE_RATIO_MEASURE(7850.),#390);
#392=PROPERTY_DEFINITION_REPRESENTATION(#397,#394);
#393=PROPERTY_DEFINITION_REPRESENTATION(#398,#395);
#394=REPRESENTATION('material name',(#396),#637);
#395=REPRESENTATION('density',(#391),#637);
#396=DESCRIPTIVE_REPRESENTATION_ITEM('Steel','Steel');
#397=PROPERTY_DEFINITION('material property','material name',#647);
#398=PROPERTY_DEFINITION('material property','density of part',#647);
#399=AXIS2_PLACEMENT_3D('',#530,#429,#430);
#400=AXIS2_PLACEMENT_3D('',#531,#431,#432);
#401=AXIS2_PLACEMENT_3D('',#535,#434,#435);
#402=AXIS2_PLACEMENT_3D('',#536,#436,#437);
#403=AXIS2_PLACEMENT_3D('',#549,#444,#445);
#404=AXIS2_PLACEMENT_3D('',#555,#449,#450);
#405=AXIS2_PLACEMENT_3D('',#559,#452,#453);
#406=AXIS2_PLACEMENT_3D('',#561,#455,#456);
#407=AXIS2_PLACEMENT_3D('',#567,#460,#461);
#408=AXIS2_PLACEMENT_3D('',#573,#465,#466);
#409=AXIS2_PLACEMENT_3D('',#577,#469,#470);
#410=AXIS2_PLACEMENT_3D('',#581,#473,#474);
#411=AXIS2_PLACEMENT_3D('',#584,#477,#478);
#412=AXIS2_PLACEMENT_3D('',#595,#484,#485);
#413=AXIS2_PLACEMENT_3D('',#597,#486,#487);
#414=AXIS2_PLACEMENT_3D('',#599,#488,#489);
#415=AXIS2_PLACEMENT_3D('',#601,#490,#491);
#416=AXIS2_PLACEMENT_3D('',#602,#492,#493);
#417=AXIS2_PLACEMENT_3D('',#605,#495,#496);
#418=AXIS2_PLACEMENT_3D('',#606,#497,#498);
#419=AXIS2_PLACEMENT_3D('',#609,#500,#501);
#420=AXIS2_PLACEMENT_3D('',#610,#502,#503);
#421=AXIS2_PLACEMENT_3D('',#613,#505,#506);
#422=AXIS2_PLACEMENT_3D('',#614,#507,#508);
#423=AXIS2_PLACEMENT_3D('',#617,#510,#511);
#424=AXIS2_PLACEMENT_3D('',#618,#512,#513);
#425=AXIS2_PLACEMENT_3D('',#627,#518,#519);
#426=AXIS2_PLACEMENT_3D('',#630,#522,#523);
#427=AXIS2_PLACEMENT_3D('',#632,#525,#526);
#428=AXIS2_PLACEMENT_3D('',#634,#528,#529);
#429=DIRECTION('axis',(0.,0.,1.));
#430=DIRECTION('refdir',(1.,0.,0.));
#431=DIRECTION('center_axis',(1.14105152169467E-30,1.,6.32297869215646E-61));
#432=DIRECTION('ref_axis',(-1.18329135783152E-30,7.17898535246161E-61,1.));
#433=DIRECTION('',(1.,-1.14105152169467E-30,0.));
#434=DIRECTION('center_axis',(-1.14105152169467E-30,-1.,-6.32297869215646E-61));
#435=DIRECTION('ref_axis',(1.,-1.14105152169467E-30,1.18329135783152E-30));
#436=DIRECTION('center_axis',(-1.,1.14105152169467E-30,-1.18329135783152E-30));
#437=DIRECTION('ref_axis',(-1.18329135783152E-30,7.17898535246161E-61,1.));
#438=DIRECTION('',(1.14105152169467E-30,1.,0.));
#439=DIRECTION('',(1.18329135783152E-30,-7.17898535246161E-61,-1.));
#440=DIRECTION('',(1.14105152169467E-30,1.,6.32297869215646E-61));
#441=DIRECTION('',(1.18329135783152E-30,-7.17898535246161E-61,-1.));
#442=DIRECTION('',(-1.14105152169467E-30,-1.,-6.32297869215646E-61));
#443=DIRECTION('',(1.18329135783152E-30,-7.17898535246161E-61,-1.));
#444=DIRECTION('center_axis',(1.14105152169467E-30,1.,6.32297869215646E-61));
#445=DIRECTION('ref_axis',(-1.18329135783152E-30,7.17898535246161E-61,1.));
#446=DIRECTION('',(1.,-1.14105152169467E-30,0.));
#447=DIRECTION('',(1.,-1.14105152169467E-30,1.18329135783152E-30));
#448=DIRECTION('',(0.,-6.32297869215646E-61,1.));
#449=DIRECTION('center_axis',(1.14105152169467E-30,1.,6.32297869215646E-61));
#450=DIRECTION('ref_axis',(1.,-1.14105152169467E-30,1.18329135783152E-30));
#451=DIRECTION('',(1.14105152169467E-30,1.,6.32297869215646E-61));
#452=DIRECTION('center_axis',(1.14105152169467E-30,1.,6.32297869215646E-61));
#453=DIRECTION('ref_axis',(1.,-1.14105152169467E-30,1.18329135783152E-30));
#454=DIRECTION('',(-1.14105152169467E-30,-1.,-6.32297869215646E-61));
#455=DIRECTION('center_axis',(-1.18329135783152E-30,7.17898535246161E-61,
1.));
#456=DIRECTION('ref_axis',(1.,-1.14105152169467E-30,1.18329135783152E-30));
#457=DIRECTION('',(1.,-1.14105152169467E-30,1.18329135783152E-30));
#458=DIRECTION('',(-1.14105152169467E-30,-1.,-6.32297869215646E-61));
#459=DIRECTION('',(-1.,1.14105152169467E-30,-1.18329135783152E-30));
#460=DIRECTION('center_axis',(1.,-1.14105152169467E-30,1.18329135783152E-30));
#461=DIRECTION('ref_axis',(1.18329135783152E-30,-7.17898535246161E-61,-1.));
#462=DIRECTION('',(-1.14105152169467E-30,-1.,0.));
#463=DIRECTION('',(1.18329135783152E-30,-7.17898535246161E-61,-1.));
#464=DIRECTION('',(1.18329135783152E-30,-7.17898535246161E-61,-1.));
#465=DIRECTION('center_axis',(-1.18329135783152E-30,7.17898535246161E-61,
1.));
#466=DIRECTION('ref_axis',(1.,-1.14105152169467E-30,1.18329135783152E-30));
#467=DIRECTION('',(0.,1.,-7.17898535246161E-61));
#468=DIRECTION('',(-1.,1.14105152169467E-30,-1.18329135783152E-30));
#469=DIRECTION('center_axis',(1.14105152169467E-30,1.,6.32297869215646E-61));
#470=DIRECTION('ref_axis',(-1.18329135783152E-30,7.17898535246161E-61,1.));
#471=DIRECTION('',(-1.,1.14105152169467E-30,0.));
#472=DIRECTION('',(0.,6.32297869215646E-61,-1.));
#473=DIRECTION('center_axis',(-1.14105152169467E-30,-1.,-6.32297869215646E-61));
#474=DIRECTION('ref_axis',(1.18329135783152E-30,-7.17898535246161E-61,-1.));
#475=DIRECTION('',(1.,-1.14105152169467E-30,0.));
#476=DIRECTION('',(1.,-1.14105152169467E-30,0.));
#477=DIRECTION('center_axis',(0.,0.,1.));
#478=DIRECTION('ref_axis',(1.,0.,0.));
#479=DIRECTION('',(0.,-1.,0.));
#480=DIRECTION('',(-1.,0.,0.));
#481=DIRECTION('',(0.,1.,0.));
#482=DIRECTION('',(1.,0.,0.));
#483=DIRECTION('',(0.,-1.,0.));
#484=DIRECTION('center_axis',(0.,0.,1.));
#485=DIRECTION('ref_axis',(1.,0.,0.));
#486=DIRECTION('center_axis',(0.,0.,1.));
#487=DIRECTION('ref_axis',(1.,0.,0.));
#488=DIRECTION('center_axis',(0.,0.,1.));
#489=DIRECTION('ref_axis',(1.,0.,0.));
#490=DIRECTION('center_axis',(0.,0.,1.));
#491=DIRECTION('ref_axis',(1.,0.,0.));
#492=DIRECTION('center_axis',(0.,0.,1.));
#493=DIRECTION('ref_axis',(1.,0.,0.));
#494=DIRECTION('',(0.,0.,1.));
#495=DIRECTION('center_axis',(0.,0.,-1.));
#496=DIRECTION('ref_axis',(1.,0.,0.));
#497=DIRECTION('center_axis',(0.,0.,1.));
#498=DIRECTION('ref_axis',(1.,0.,0.));
#499=DIRECTION('',(0.,0.,1.));
#500=DIRECTION('center_axis',(0.,0.,-1.));
#501=DIRECTION('ref_axis',(1.,0.,0.));
#502=DIRECTION('center_axis',(0.,0.,1.));
#503=DIRECTION('ref_axis',(1.,0.,0.));
#504=DIRECTION('',(0.,0.,1.));
#505=DIRECTION('center_axis',(0.,0.,-1.));
#506=DIRECTION('ref_axis',(1.,0.,0.));
#507=DIRECTION('center_axis',(0.,0.,1.));
#508=DIRECTION('ref_axis',(1.,0.,0.));
#509=DIRECTION('',(0.,0.,1.));
#510=DIRECTION('center_axis',(0.,0.,-1.));
#511=DIRECTION('ref_axis',(1.,0.,0.));
#512=DIRECTION('center_axis',(0.,0.,1.));
#513=DIRECTION('ref_axis',(1.,0.,0.));
#514=DIRECTION('',(0.,1.,0.));
#515=DIRECTION('',(-1.,0.,0.));
#516=DIRECTION('',(0.,-1.,0.));
#517=DIRECTION('',(1.,0.,0.));
#518=DIRECTION('center_axis',(0.,1.,0.));
#519=DIRECTION('ref_axis',(0.,0.,1.));
#520=DIRECTION('',(0.,0.,-1.));
#521=DIRECTION('',(0.,0.,-1.));
#522=DIRECTION('center_axis',(1.,0.,0.));
#523=DIRECTION('ref_axis',(0.,0.,-1.));
#524=DIRECTION('',(0.,0.,-1.));
#525=DIRECTION('center_axis',(0.,-1.,0.));
#526=DIRECTION('ref_axis',(0.,0.,-1.));
#527=DIRECTION('',(0.,0.,-1.));
#528=DIRECTION('center_axis',(-1.,0.,0.));
#529=DIRECTION('ref_axis',(0.,0.,1.));
#530=CARTESIAN_POINT('',(0.,0.,0.));
#531=CARTESIAN_POINT('Origin',(687.,16.,262.5));
#532=CARTESIAN_POINT('',(677.449999999999,16.,268.));
#533=CARTESIAN_POINT('',(678.550000000001,16.,268.));
#534=CARTESIAN_POINT('',(677.85,16.,268.));
#535=CARTESIAN_POINT('Origin',(678.,16.,265.));
#536=CARTESIAN_POINT('Origin',(685.,0.,265.));
#537=CARTESIAN_POINT('',(685.,-22.,268.));
#538=CARTESIAN_POINT('',(685.,16.,268.));
#539=CARTESIAN_POINT('',(685.,-9.29956990181155E-30,268.));
#540=CARTESIAN_POINT('',(685.,-22.,272.));
#541=CARTESIAN_POINT('',(685.,-22.,265.));
#542=CARTESIAN_POINT('',(685.,22.,272.));
#543=CARTESIAN_POINT('',(685.,0.,272.));
#544=CARTESIAN_POINT('',(685.,22.,271.));
#545=CARTESIAN_POINT('',(685.,22.,265.));
#546=CARTESIAN_POINT('',(685.,16.,271.));
#547=CARTESIAN_POINT('',(685.,9.5,271.));
#548=CARTESIAN_POINT('',(685.,16.,263.75));
#549=CARTESIAN_POINT('Origin',(687.,16.,262.5));
#550=CARTESIAN_POINT('',(692.,16.,268.));
#551=CARTESIAN_POINT('',(677.85,16.,268.));
#552=CARTESIAN_POINT('',(692.,16.,271.));
#553=CARTESIAN_POINT('',(687.,16.,271.));
#554=CARTESIAN_POINT('',(692.,16.,266.75));
#555=CARTESIAN_POINT('Origin',(678.,0.,265.));
#556=CARTESIAN_POINT('',(677.449999999999,-22.,268.));
#557=CARTESIAN_POINT('',(677.449999999999,6.27578336933432E-31,268.));
#558=CARTESIAN_POINT('',(678.550000000001,-22.,268.));
#559=CARTESIAN_POINT('Origin',(678.,-22.,265.));
#560=CARTESIAN_POINT('',(678.550000000001,-6.27578336933271E-31,268.));
#561=CARTESIAN_POINT('Origin',(678.,0.,272.));
#562=CARTESIAN_POINT('',(671.,-22.,272.));
#563=CARTESIAN_POINT('',(678.,-22.,272.));
#564=CARTESIAN_POINT('',(671.,22.,272.));
#565=CARTESIAN_POINT('',(671.,0.,272.));
#566=CARTESIAN_POINT('',(678.,22.,272.));
#567=CARTESIAN_POINT('Origin',(671.,0.,265.));
#568=CARTESIAN_POINT('',(671.,22.,268.));
#569=CARTESIAN_POINT('',(671.,-22.,268.));
#570=CARTESIAN_POINT('',(671.,-1.31220924994881E-30,268.));
#571=CARTESIAN_POINT('',(671.,22.,265.));
#572=CARTESIAN_POINT('',(671.,-22.,265.));
#573=CARTESIAN_POINT('Origin',(687.,19.,271.));
#574=CARTESIAN_POINT('',(692.,22.,271.));
#575=CARTESIAN_POINT('',(692.,9.5,271.));
#576=CARTESIAN_POINT('',(687.,22.,271.));
#577=CARTESIAN_POINT('Origin',(674.,22.,253.875));
#578=CARTESIAN_POINT('',(692.,22.,268.));
#579=CARTESIAN_POINT('',(671.35,22.,268.));
#580=CARTESIAN_POINT('',(692.,22.,262.4375));
#581=CARTESIAN_POINT('Origin',(674.,-22.,260.));
#582=CARTESIAN_POINT('',(671.35,-22.,268.));
#583=CARTESIAN_POINT('',(671.35,-22.,268.));
#584=CARTESIAN_POINT('Origin',(668.7,0.,268.));
#585=CARTESIAN_POINT('',(692.,-50.,268.));
#586=CARTESIAN_POINT('',(692.,0.,268.));
#587=CARTESIAN_POINT('',(645.4,-50.,268.));
#588=CARTESIAN_POINT('',(668.7,-50.,268.));
#589=CARTESIAN_POINT('',(645.4,50.,268.));
#590=CARTESIAN_POINT('',(645.4,0.,268.));
#591=CARTESIAN_POINT('',(692.,50.,268.));
#592=CARTESIAN_POINT('',(668.7,50.,268.));
#593=CARTESIAN_POINT('',(692.,0.,268.));
#594=CARTESIAN_POINT('',(650.7,-46.,268.));
#595=CARTESIAN_POINT('Origin',(652.4,-46.,268.));
#596=CARTESIAN_POINT('',(650.7,46.,268.));
#597=CARTESIAN_POINT('Origin',(652.4,46.,268.));
#598=CARTESIAN_POINT('',(683.3,-46.,268.));
#599=CARTESIAN_POINT('Origin',(685.,-46.,268.));
#600=CARTESIAN_POINT('',(683.3,46.,268.));
#601=CARTESIAN_POINT('Origin',(685.,46.,268.));
#602=CARTESIAN_POINT('Origin',(685.,46.,271.));
#603=CARTESIAN_POINT('',(683.3,46.,274.));
#604=CARTESIAN_POINT('',(683.3,46.,271.));
#605=CARTESIAN_POINT('Origin',(685.,46.,274.));
#606=CARTESIAN_POINT('Origin',(685.,-46.,271.));
#607=CARTESIAN_POINT('',(683.3,-46.,274.));
#608=CARTESIAN_POINT('',(683.3,-46.,271.));
#609=CARTESIAN_POINT('Origin',(685.,-46.,274.));
#610=CARTESIAN_POINT('Origin',(652.4,46.,271.));
#611=CARTESIAN_POINT('',(650.7,46.,274.));
#612=CARTESIAN_POINT('',(650.7,46.,271.));
#613=CARTESIAN_POINT('Origin',(652.4,46.,274.));
#614=CARTESIAN_POINT('Origin',(652.4,-46.,271.));
#615=CARTESIAN_POINT('',(650.7,-46.,274.));
#616=CARTESIAN_POINT('',(650.7,-46.,271.));
#617=CARTESIAN_POINT('Origin',(652.4,-46.,274.));
#618=CARTESIAN_POINT('Origin',(668.7,0.,274.));
#619=CARTESIAN_POINT('',(692.,-50.,274.));
#620=CARTESIAN_POINT('',(692.,50.,274.));
#621=CARTESIAN_POINT('',(692.,0.,274.));
#622=CARTESIAN_POINT('',(645.4,50.,274.));
#623=CARTESIAN_POINT('',(668.7,50.,274.));
#624=CARTESIAN_POINT('',(645.4,-50.,274.));
#625=CARTESIAN_POINT('',(645.4,0.,274.));
#626=CARTESIAN_POINT('',(668.7,-50.,274.));
#627=CARTESIAN_POINT('Origin',(668.7,-50.,271.));
#628=CARTESIAN_POINT('',(645.4,-50.,271.));
#629=CARTESIAN_POINT('',(692.,-50.,271.));
#630=CARTESIAN_POINT('Origin',(645.4,0.,271.));
#631=CARTESIAN_POINT('',(645.4,50.,271.));
#632=CARTESIAN_POINT('Origin',(668.7,50.,271.));
#633=CARTESIAN_POINT('',(692.,50.,271.));
#634=CARTESIAN_POINT('Origin',(692.,0.,271.));
#635=UNCERTAINTY_MEASURE_WITH_UNIT(LENGTH_MEASURE(0.01),#639,
'DISTANCE_ACCURACY_VALUE',
'Maximum model space distance between geometric entities at asserted c
onnectivities');
#636=UNCERTAINTY_MEASURE_WITH_UNIT(LENGTH_MEASURE(0.01),#639,
'DISTANCE_ACCURACY_VALUE',
'Maximum model space distance between geometric entities at asserted c
onnectivities');
#637=(
GEOMETRIC_REPRESENTATION_CONTEXT(3)
GLOBAL_UNCERTAINTY_ASSIGNED_CONTEXT((#635))
GLOBAL_UNIT_ASSIGNED_CONTEXT((#639,#641,#642))
REPRESENTATION_CONTEXT('','3D')
);
#638=(
GEOMETRIC_REPRESENTATION_CONTEXT(3)
GLOBAL_UNCERTAINTY_ASSIGNED_CONTEXT((#636))
GLOBAL_UNIT_ASSIGNED_CONTEXT((#639,#641,#642))
REPRESENTATION_CONTEXT('','3D')
);
#639=(
LENGTH_UNIT()
NAMED_UNIT(*)
SI_UNIT(.MILLI.,.METRE.)
);
#640=(
LENGTH_UNIT()
NAMED_UNIT(*)
SI_UNIT($,.METRE.)
);
#641=(
NAMED_UNIT(*)
PLANE_ANGLE_UNIT()
SI_UNIT($,.RADIAN.)
);
#642=(
NAMED_UNIT(*)
SI_UNIT($,.STERADIAN.)
SOLID_ANGLE_UNIT()
);
#643=SHAPE_DEFINITION_REPRESENTATION(#644,#645);
#644=PRODUCT_DEFINITION_SHAPE('',$,#647);
#645=SHAPE_REPRESENTATION('',(#399),#637);
#646=PRODUCT_DEFINITION_CONTEXT('part definition',#651,'design');
#647=PRODUCT_DEFINITION('2026-08-31-16-23-48-613','EXPORT_TMP',#648,#646);
#648=PRODUCT_DEFINITION_FORMATION('',$,#653);
#649=PRODUCT_RELATED_PRODUCT_CATEGORY('EXPORT_TMP','EXPORT_TMP',(#653));
#650=APPLICATION_PROTOCOL_DEFINITION('international standard',
'automotive_design',2009,#651);
#651=APPLICATION_CONTEXT(
'Core Data for Automotive Mechanical Design Process');
#652=PRODUCT_CONTEXT('part definition',#651,'mechanical');
#653=PRODUCT('2026-08-31-16-23-48-613','EXPORT_TMP',$,(#652));
#654=PRESENTATION_STYLE_ASSIGNMENT((#655));
#655=SURFACE_STYLE_USAGE(.BOTH.,#656);
#656=SURFACE_SIDE_STYLE('',(#657));
#657=SURFACE_STYLE_FILL_AREA(#658);
#658=FILL_AREA_STYLE('Steel - Satin',(#659));
#659=FILL_AREA_STYLE_COLOUR('Steel - Satin',#660);
#660=COLOUR_RGB('Steel - Satin',0.627450980392157,0.627450980392157,0.627450980392157);
ENDSEC;
END-ISO-10303-21;
