ISO-10303-21;
HEADER;
/* Generated by software containing ST-Developer
 * from STEP Tools, Inc. (www.steptools.com) 
 */

FILE_DESCRIPTION(
/* description */ (''),
/* implementation_level */ '2;1');

FILE_NAME(
/* name */ 'PRINT_V015_P304C_BottomFoot_Front.step',
/* time_stamp */ '2026-08-17T10:01:12+02:00',
/* author */ (''),
/* organization */ (''),
/* preprocessor_version */ 'ST-DEVELOPER v20.1',
/* originating_system */ 'Autodesk Translation Framework v15.8.0.0',
/* authorisation */ '');

FILE_SCHEMA (('AUTOMOTIVE_DESIGN { 1 0 10303 214 3 1 1 }'));
ENDSEC;

DATA;
#10=MECHANICAL_DESIGN_GEOMETRIC_PRESENTATION_REPRESENTATION('',(#13),#329);
#11=SHAPE_REPRESENTATION_RELATIONSHIP('SRR','None',#336,#12);
#12=ADVANCED_BREP_SHAPE_REPRESENTATION('',(#14),#328);
#13=STYLED_ITEM('',(#345),#14);
#14=MANIFOLD_SOLID_BREP('PRINT_V015_P304C_BottomFoot_Front',#193);
#15=FACE_BOUND('',#46,.T.);
#16=FACE_BOUND('',#47,.T.);
#17=FACE_BOUND('',#49,.T.);
#18=FACE_BOUND('',#50,.T.);
#19=CIRCLE('',#212,2.25);
#20=CIRCLE('',#213,2.25);
#21=CIRCLE('',#215,2.25);
#22=CIRCLE('',#216,2.25);
#23=CIRCLE('',#218,3.2);
#24=CIRCLE('',#219,3.2);
#25=CYLINDRICAL_SURFACE('',#211,2.25);
#26=CYLINDRICAL_SURFACE('',#214,2.25);
#27=CYLINDRICAL_SURFACE('',#217,3.2);
#28=FACE_OUTER_BOUND('',#38,.T.);
#29=FACE_OUTER_BOUND('',#39,.T.);
#30=FACE_OUTER_BOUND('',#40,.T.);
#31=FACE_OUTER_BOUND('',#41,.T.);
#32=FACE_OUTER_BOUND('',#42,.T.);
#33=FACE_OUTER_BOUND('',#43,.T.);
#34=FACE_OUTER_BOUND('',#44,.T.);
#35=FACE_OUTER_BOUND('',#45,.T.);
#36=FACE_OUTER_BOUND('',#48,.T.);
#37=FACE_OUTER_BOUND('',#51,.T.);
#38=EDGE_LOOP('',(#128,#129,#130,#131));
#39=EDGE_LOOP('',(#132,#133,#134,#135));
#40=EDGE_LOOP('',(#136,#137,#138,#139));
#41=EDGE_LOOP('',(#140,#141,#142,#143));
#42=EDGE_LOOP('',(#144,#145,#146,#147));
#43=EDGE_LOOP('',(#148,#149,#150,#151));
#44=EDGE_LOOP('',(#152,#153,#154,#155));
#45=EDGE_LOOP('',(#156,#157,#158,#159,#160,#161));
#46=EDGE_LOOP('',(#162));
#47=EDGE_LOOP('',(#163));
#48=EDGE_LOOP('',(#164,#165,#166,#167,#168,#169));
#49=EDGE_LOOP('',(#170));
#50=EDGE_LOOP('',(#171));
#51=EDGE_LOOP('',(#172,#173,#174,#175));
#52=LINE('',#279,#70);
#53=LINE('',#281,#71);
#54=LINE('',#283,#72);
#55=LINE('',#284,#73);
#56=LINE('',#288,#74);
#57=LINE('',#290,#75);
#58=LINE('',#292,#76);
#59=LINE('',#293,#77);
#60=LINE('',#296,#78);
#61=LINE('',#298,#79);
#62=LINE('',#299,#80);
#63=LINE('',#302,#81);
#64=LINE('',#304,#82);
#65=LINE('',#305,#83);
#66=LINE('',#310,#84);
#67=LINE('',#316,#85);
#68=LINE('',#322,#86);
#69=LINE('',#324,#87);
#70=VECTOR('',#227,10.);
#71=VECTOR('',#228,10.);
#72=VECTOR('',#229,10.);
#73=VECTOR('',#230,10.);
#74=VECTOR('',#233,10.);
#75=VECTOR('',#234,10.);
#76=VECTOR('',#235,10.);
#77=VECTOR('',#236,10.);
#78=VECTOR('',#239,10.);
#79=VECTOR('',#240,10.);
#80=VECTOR('',#241,10.);
#81=VECTOR('',#244,10.);
#82=VECTOR('',#245,10.);
#83=VECTOR('',#246,10.);
#84=VECTOR('',#251,2.25);
#85=VECTOR('',#258,2.25);
#86=VECTOR('',#269,10.);
#87=VECTOR('',#272,10.);
#88=VERTEX_POINT('',#277);
#89=VERTEX_POINT('',#278);
#90=VERTEX_POINT('',#280);
#91=VERTEX_POINT('',#282);
#92=VERTEX_POINT('',#286);
#93=VERTEX_POINT('',#287);
#94=VERTEX_POINT('',#289);
#95=VERTEX_POINT('',#291);
#96=VERTEX_POINT('',#295);
#97=VERTEX_POINT('',#297);
#98=VERTEX_POINT('',#301);
#99=VERTEX_POINT('',#303);
#100=VERTEX_POINT('',#307);
#101=VERTEX_POINT('',#309);
#102=VERTEX_POINT('',#313);
#103=VERTEX_POINT('',#315);
#104=EDGE_CURVE('',#88,#89,#52,.T.);
#105=EDGE_CURVE('',#88,#90,#53,.T.);
#106=EDGE_CURVE('',#90,#91,#54,.T.);
#107=EDGE_CURVE('',#91,#89,#55,.T.);
#108=EDGE_CURVE('',#92,#93,#56,.T.);
#109=EDGE_CURVE('',#92,#94,#57,.T.);
#110=EDGE_CURVE('',#94,#95,#58,.T.);
#111=EDGE_CURVE('',#95,#93,#59,.T.);
#112=EDGE_CURVE('',#96,#92,#60,.T.);
#113=EDGE_CURVE('',#97,#96,#61,.T.);
#114=EDGE_CURVE('',#94,#97,#62,.T.);
#115=EDGE_CURVE('',#98,#96,#63,.T.);
#116=EDGE_CURVE('',#98,#99,#64,.T.);
#117=EDGE_CURVE('',#99,#97,#65,.T.);
#118=EDGE_CURVE('',#100,#100,#19,.T.);
#119=EDGE_CURVE('',#100,#101,#66,.T.);
#120=EDGE_CURVE('',#101,#101,#20,.T.);
#121=EDGE_CURVE('',#102,#102,#21,.T.);
#122=EDGE_CURVE('',#102,#103,#67,.T.);
#123=EDGE_CURVE('',#103,#103,#22,.T.);
#124=EDGE_CURVE('',#93,#88,#23,.T.);
#125=EDGE_CURVE('',#90,#95,#24,.T.);
#126=EDGE_CURVE('',#91,#99,#68,.T.);
#127=EDGE_CURVE('',#89,#98,#69,.T.);
#128=ORIENTED_EDGE('',*,*,#104,.F.);
#129=ORIENTED_EDGE('',*,*,#105,.T.);
#130=ORIENTED_EDGE('',*,*,#106,.T.);
#131=ORIENTED_EDGE('',*,*,#107,.T.);
#132=ORIENTED_EDGE('',*,*,#108,.F.);
#133=ORIENTED_EDGE('',*,*,#109,.T.);
#134=ORIENTED_EDGE('',*,*,#110,.T.);
#135=ORIENTED_EDGE('',*,*,#111,.T.);
#136=ORIENTED_EDGE('',*,*,#112,.F.);
#137=ORIENTED_EDGE('',*,*,#113,.F.);
#138=ORIENTED_EDGE('',*,*,#114,.F.);
#139=ORIENTED_EDGE('',*,*,#109,.F.);
#140=ORIENTED_EDGE('',*,*,#115,.F.);
#141=ORIENTED_EDGE('',*,*,#116,.T.);
#142=ORIENTED_EDGE('',*,*,#117,.T.);
#143=ORIENTED_EDGE('',*,*,#113,.T.);
#144=ORIENTED_EDGE('',*,*,#118,.F.);
#145=ORIENTED_EDGE('',*,*,#119,.T.);
#146=ORIENTED_EDGE('',*,*,#120,.F.);
#147=ORIENTED_EDGE('',*,*,#119,.F.);
#148=ORIENTED_EDGE('',*,*,#121,.F.);
#149=ORIENTED_EDGE('',*,*,#122,.T.);
#150=ORIENTED_EDGE('',*,*,#123,.F.);
#151=ORIENTED_EDGE('',*,*,#122,.F.);
#152=ORIENTED_EDGE('',*,*,#105,.F.);
#153=ORIENTED_EDGE('',*,*,#124,.F.);
#154=ORIENTED_EDGE('',*,*,#111,.F.);
#155=ORIENTED_EDGE('',*,*,#125,.F.);
#156=ORIENTED_EDGE('',*,*,#125,.T.);
#157=ORIENTED_EDGE('',*,*,#110,.F.);
#158=ORIENTED_EDGE('',*,*,#114,.T.);
#159=ORIENTED_EDGE('',*,*,#117,.F.);
#160=ORIENTED_EDGE('',*,*,#126,.F.);
#161=ORIENTED_EDGE('',*,*,#106,.F.);
#162=ORIENTED_EDGE('',*,*,#120,.T.);
#163=ORIENTED_EDGE('',*,*,#123,.T.);
#164=ORIENTED_EDGE('',*,*,#124,.T.);
#165=ORIENTED_EDGE('',*,*,#104,.T.);
#166=ORIENTED_EDGE('',*,*,#127,.T.);
#167=ORIENTED_EDGE('',*,*,#115,.T.);
#168=ORIENTED_EDGE('',*,*,#112,.T.);
#169=ORIENTED_EDGE('',*,*,#108,.T.);
#170=ORIENTED_EDGE('',*,*,#121,.T.);
#171=ORIENTED_EDGE('',*,*,#118,.T.);
#172=ORIENTED_EDGE('',*,*,#127,.F.);
#173=ORIENTED_EDGE('',*,*,#107,.F.);
#174=ORIENTED_EDGE('',*,*,#126,.T.);
#175=ORIENTED_EDGE('',*,*,#116,.F.);
#176=PLANE('',#207);
#177=PLANE('',#208);
#178=PLANE('',#209);
#179=PLANE('',#210);
#180=PLANE('',#220);
#181=PLANE('',#221);
#182=PLANE('',#222);
#183=ADVANCED_FACE('',(#28),#176,.T.);
#184=ADVANCED_FACE('',(#29),#177,.T.);
#185=ADVANCED_FACE('',(#30),#178,.F.);
#186=ADVANCED_FACE('',(#31),#179,.F.);
#187=ADVANCED_FACE('',(#32),#25,.F.);
#188=ADVANCED_FACE('',(#33),#26,.F.);
#189=ADVANCED_FACE('',(#34),#27,.F.);
#190=ADVANCED_FACE('',(#35,#15,#16),#180,.F.);
#191=ADVANCED_FACE('',(#36,#17,#18),#181,.F.);
#192=ADVANCED_FACE('',(#37),#182,.F.);
#193=CLOSED_SHELL('',(#183,#184,#185,#186,#187,#188,#189,#190,#191,#192));
#194=DERIVED_UNIT_ELEMENT(#196,1.);
#195=DERIVED_UNIT_ELEMENT(#331,-3.);
#196=(
MASS_UNIT()
NAMED_UNIT(*)
SI_UNIT(.KILO.,.GRAM.)
);
#197=DERIVED_UNIT((#194,#195));
#198=MEASURE_REPRESENTATION_ITEM('density measure',
POSITIVE_RATIO_MEASURE(7850.),#197);
#199=PROPERTY_DEFINITION_REPRESENTATION(#204,#201);
#200=PROPERTY_DEFINITION_REPRESENTATION(#205,#202);
#201=REPRESENTATION('material name',(#203),#328);
#202=REPRESENTATION('density',(#198),#328);
#203=DESCRIPTIVE_REPRESENTATION_ITEM('Steel','Steel');
#204=PROPERTY_DEFINITION('material property','material name',#338);
#205=PROPERTY_DEFINITION('material property','density of part',#338);
#206=AXIS2_PLACEMENT_3D('',#275,#223,#224);
#207=AXIS2_PLACEMENT_3D('',#276,#225,#226);
#208=AXIS2_PLACEMENT_3D('',#285,#231,#232);
#209=AXIS2_PLACEMENT_3D('',#294,#237,#238);
#210=AXIS2_PLACEMENT_3D('',#300,#242,#243);
#211=AXIS2_PLACEMENT_3D('',#306,#247,#248);
#212=AXIS2_PLACEMENT_3D('',#308,#249,#250);
#213=AXIS2_PLACEMENT_3D('',#311,#252,#253);
#214=AXIS2_PLACEMENT_3D('',#312,#254,#255);
#215=AXIS2_PLACEMENT_3D('',#314,#256,#257);
#216=AXIS2_PLACEMENT_3D('',#317,#259,#260);
#217=AXIS2_PLACEMENT_3D('',#318,#261,#262);
#218=AXIS2_PLACEMENT_3D('',#319,#263,#264);
#219=AXIS2_PLACEMENT_3D('',#320,#265,#266);
#220=AXIS2_PLACEMENT_3D('',#321,#267,#268);
#221=AXIS2_PLACEMENT_3D('',#323,#270,#271);
#222=AXIS2_PLACEMENT_3D('',#325,#273,#274);
#223=DIRECTION('axis',(0.,0.,1.));
#224=DIRECTION('refdir',(1.,0.,0.));
#225=DIRECTION('center_axis',(0.,0.,1.));
#226=DIRECTION('ref_axis',(1.,0.,0.));
#227=DIRECTION('',(0.,1.,0.));
#228=DIRECTION('',(1.,0.,0.));
#229=DIRECTION('',(0.,1.,0.));
#230=DIRECTION('',(-1.,0.,0.));
#231=DIRECTION('center_axis',(0.,0.,1.));
#232=DIRECTION('ref_axis',(1.,0.,0.));
#233=DIRECTION('',(0.,1.,0.));
#234=DIRECTION('',(1.,0.,0.));
#235=DIRECTION('',(0.,1.,0.));
#236=DIRECTION('',(-1.,0.,0.));
#237=DIRECTION('center_axis',(0.,1.,0.));
#238=DIRECTION('ref_axis',(0.,0.,1.));
#239=DIRECTION('',(0.,0.,1.));
#240=DIRECTION('',(-1.,0.,0.));
#241=DIRECTION('',(0.,0.,-1.));
#242=DIRECTION('center_axis',(0.,0.,1.));
#243=DIRECTION('ref_axis',(1.,0.,0.));
#244=DIRECTION('',(0.,-1.,0.));
#245=DIRECTION('',(1.,0.,0.));
#246=DIRECTION('',(0.,-1.,0.));
#247=DIRECTION('center_axis',(1.,0.,0.));
#248=DIRECTION('ref_axis',(0.,0.,-1.));
#249=DIRECTION('center_axis',(1.,0.,0.));
#250=DIRECTION('ref_axis',(0.,0.,-1.));
#251=DIRECTION('',(1.,0.,0.));
#252=DIRECTION('center_axis',(-1.,0.,0.));
#253=DIRECTION('ref_axis',(0.,0.,-1.));
#254=DIRECTION('center_axis',(1.,0.,0.));
#255=DIRECTION('ref_axis',(0.,0.,-1.));
#256=DIRECTION('center_axis',(1.,0.,0.));
#257=DIRECTION('ref_axis',(0.,0.,-1.));
#258=DIRECTION('',(1.,0.,0.));
#259=DIRECTION('center_axis',(-1.,0.,0.));
#260=DIRECTION('ref_axis',(0.,0.,-1.));
#261=DIRECTION('center_axis',(1.,0.,0.));
#262=DIRECTION('ref_axis',(0.,0.,-1.));
#263=DIRECTION('center_axis',(1.,0.,0.));
#264=DIRECTION('ref_axis',(0.,0.,-1.));
#265=DIRECTION('center_axis',(-1.,0.,0.));
#266=DIRECTION('ref_axis',(0.,0.,-1.));
#267=DIRECTION('center_axis',(-1.,0.,0.));
#268=DIRECTION('ref_axis',(0.,0.,1.));
#269=DIRECTION('',(0.,0.,-1.));
#270=DIRECTION('center_axis',(1.,0.,0.));
#271=DIRECTION('ref_axis',(0.,0.,-1.));
#272=DIRECTION('',(0.,0.,-1.));
#273=DIRECTION('center_axis',(0.,-1.,0.));
#274=DIRECTION('ref_axis',(0.,0.,-1.));
#275=CARTESIAN_POINT('',(0.,0.,0.));
#276=CARTESIAN_POINT('Origin',(342.,0.,216.));
#277=CARTESIAN_POINT('',(368.5,3.2,216.));
#278=CARTESIAN_POINT('',(368.5,30.,216.));
#279=CARTESIAN_POINT('',(368.5,0.,216.));
#280=CARTESIAN_POINT('',(372.,3.2,216.));
#281=CARTESIAN_POINT('',(369.95,3.2,216.));
#282=CARTESIAN_POINT('',(372.,30.,216.));
#283=CARTESIAN_POINT('',(372.,0.,216.));
#284=CARTESIAN_POINT('',(342.,30.,216.));
#285=CARTESIAN_POINT('Origin',(342.,0.,216.));
#286=CARTESIAN_POINT('',(368.5,-30.,216.));
#287=CARTESIAN_POINT('',(368.5,-3.2,216.));
#288=CARTESIAN_POINT('',(368.5,0.,216.));
#289=CARTESIAN_POINT('',(372.,-30.,216.));
#290=CARTESIAN_POINT('',(342.,-30.,216.));
#291=CARTESIAN_POINT('',(372.,-3.2,216.));
#292=CARTESIAN_POINT('',(372.,0.,216.));
#293=CARTESIAN_POINT('',(369.95,-3.2,216.));
#294=CARTESIAN_POINT('Origin',(342.,-30.,211.));
#295=CARTESIAN_POINT('',(368.5,-30.,206.));
#296=CARTESIAN_POINT('',(368.5,-30.,210.75));
#297=CARTESIAN_POINT('',(372.,-30.,206.));
#298=CARTESIAN_POINT('',(342.,-30.,206.));
#299=CARTESIAN_POINT('',(372.,-30.,211.));
#300=CARTESIAN_POINT('Origin',(342.,0.,206.));
#301=CARTESIAN_POINT('',(368.5,30.,206.));
#302=CARTESIAN_POINT('',(368.5,0.,206.));
#303=CARTESIAN_POINT('',(372.,30.,206.));
#304=CARTESIAN_POINT('',(342.,30.,206.));
#305=CARTESIAN_POINT('',(372.,0.,206.));
#306=CARTESIAN_POINT('Origin',(342.,18.,211.));
#307=CARTESIAN_POINT('',(368.5,18.,213.25));
#308=CARTESIAN_POINT('Origin',(368.5,18.,211.));
#309=CARTESIAN_POINT('',(372.,18.,213.25));
#310=CARTESIAN_POINT('',(342.,18.,213.25));
#311=CARTESIAN_POINT('Origin',(372.,18.,211.));
#312=CARTESIAN_POINT('Origin',(342.,-18.,211.));
#313=CARTESIAN_POINT('',(368.5,-18.,213.25));
#314=CARTESIAN_POINT('Origin',(368.5,-18.,211.));
#315=CARTESIAN_POINT('',(372.,-18.,213.25));
#316=CARTESIAN_POINT('',(342.,-18.,213.25));
#317=CARTESIAN_POINT('Origin',(372.,-18.,211.));
#318=CARTESIAN_POINT('Origin',(369.95,-4.40872847693047E-15,216.));
#319=CARTESIAN_POINT('Origin',(368.5,-4.40872847693047E-15,216.));
#320=CARTESIAN_POINT('Origin',(372.,-4.40872847693047E-15,216.));
#321=CARTESIAN_POINT('Origin',(372.,0.,211.));
#322=CARTESIAN_POINT('',(372.,30.,211.));
#323=CARTESIAN_POINT('Origin',(368.5,0.,240.));
#324=CARTESIAN_POINT('',(368.5,30.,210.75));
#325=CARTESIAN_POINT('Origin',(342.,30.,211.));
#326=UNCERTAINTY_MEASURE_WITH_UNIT(LENGTH_MEASURE(0.01),#330,
'DISTANCE_ACCURACY_VALUE',
'Maximum model space distance between geometric entities at asserted c
onnectivities');
#327=UNCERTAINTY_MEASURE_WITH_UNIT(LENGTH_MEASURE(0.01),#330,
'DISTANCE_ACCURACY_VALUE',
'Maximum model space distance between geometric entities at asserted c
onnectivities');
#328=(
GEOMETRIC_REPRESENTATION_CONTEXT(3)
GLOBAL_UNCERTAINTY_ASSIGNED_CONTEXT((#326))
GLOBAL_UNIT_ASSIGNED_CONTEXT((#330,#332,#333))
REPRESENTATION_CONTEXT('','3D')
);
#329=(
GEOMETRIC_REPRESENTATION_CONTEXT(3)
GLOBAL_UNCERTAINTY_ASSIGNED_CONTEXT((#327))
GLOBAL_UNIT_ASSIGNED_CONTEXT((#330,#332,#333))
REPRESENTATION_CONTEXT('','3D')
);
#330=(
LENGTH_UNIT()
NAMED_UNIT(*)
SI_UNIT(.MILLI.,.METRE.)
);
#331=(
LENGTH_UNIT()
NAMED_UNIT(*)
SI_UNIT($,.METRE.)
);
#332=(
NAMED_UNIT(*)
PLANE_ANGLE_UNIT()
SI_UNIT($,.RADIAN.)
);
#333=(
NAMED_UNIT(*)
SI_UNIT($,.STERADIAN.)
SOLID_ANGLE_UNIT()
);
#334=SHAPE_DEFINITION_REPRESENTATION(#335,#336);
#335=PRODUCT_DEFINITION_SHAPE('',$,#338);
#336=SHAPE_REPRESENTATION('',(#206),#328);
#337=PRODUCT_DEFINITION_CONTEXT('part definition',#342,'design');
#338=PRODUCT_DEFINITION('2026-08-17-10-01-12-133',
'EXPORT_TMP_PRINT_V015_P304C_BottomFoot_Front',#339,#337);
#339=PRODUCT_DEFINITION_FORMATION('',$,#344);
#340=PRODUCT_RELATED_PRODUCT_CATEGORY(
'EXPORT_TMP_PRINT_V015_P304C_BottomFoot_Front',
'EXPORT_TMP_PRINT_V015_P304C_BottomFoot_Front',(#344));
#341=APPLICATION_PROTOCOL_DEFINITION('international standard',
'automotive_design',2009,#342);
#342=APPLICATION_CONTEXT(
'Core Data for Automotive Mechanical Design Process');
#343=PRODUCT_CONTEXT('part definition',#342,'mechanical');
#344=PRODUCT('2026-08-17-10-01-12-133',
'EXPORT_TMP_PRINT_V015_P304C_BottomFoot_Front',$,(#343));
#345=PRESENTATION_STYLE_ASSIGNMENT((#346));
#346=SURFACE_STYLE_USAGE(.BOTH.,#347);
#347=SURFACE_SIDE_STYLE('',(#348));
#348=SURFACE_STYLE_FILL_AREA(#349);
#349=FILL_AREA_STYLE('Steel - Satin',(#350));
#350=FILL_AREA_STYLE_COLOUR('Steel - Satin',#351);
#351=COLOUR_RGB('Steel - Satin',0.627450980392157,0.627450980392157,0.627450980392157);
ENDSEC;
END-ISO-10303-21;
