ISO-10303-21;
HEADER;
/* Generated by software containing ST-Developer
 * from STEP Tools, Inc. (www.steptools.com) 
 */

FILE_DESCRIPTION(
/* description */ (''),
/* implementation_level */ '2;1');

FILE_NAME(
/* name */ 'PRINT_V015_P304D_PG19Carrier_Rear_PosY.step',
/* time_stamp */ '2026-09-30T14:21:09+02:00',
/* author */ (''),
/* organization */ (''),
/* preprocessor_version */ 'ST-DEVELOPER v20.2',
/* originating_system */ 'Autodesk Translation Framework v15.15.0.0',
/* authorisation */ '');

FILE_SCHEMA (('AUTOMOTIVE_DESIGN { 1 0 10303 214 3 1 1 }'));
ENDSEC;

DATA;
#10=MECHANICAL_DESIGN_GEOMETRIC_PRESENTATION_REPRESENTATION('',(#13),#1163);
#11=SHAPE_REPRESENTATION_RELATIONSHIP('SRR','None',#1170,#12);
#12=ADVANCED_BREP_SHAPE_REPRESENTATION('',(#14),#1162);
#13=STYLED_ITEM('',(#1179),#14);
#14=MANIFOLD_SOLID_BREP('PRINT_V015_P304D_PG19Carrier_Rear_PosY',#689);
#15=CYLINDRICAL_SURFACE('',#709,45.);
#16=CYLINDRICAL_SURFACE('',#713,46.);
#17=CYLINDRICAL_SURFACE('',#717,1.7);
#18=CYLINDRICAL_SURFACE('',#721,5.);
#19=CYLINDRICAL_SURFACE('',#725,1.7);
#20=CYLINDRICAL_SURFACE('',#729,5.);
#21=CYLINDRICAL_SURFACE('',#733,2.2);
#22=CYLINDRICAL_SURFACE('',#737,2.2);
#23=CYLINDRICAL_SURFACE('',#748,2.25);
#24=CYLINDRICAL_SURFACE('',#756,2.25);
#25=CYLINDRICAL_SURFACE('',#764,3.2);
#26=FACE_BOUND('',#73,.T.);
#27=FACE_BOUND('',#74,.T.);
#28=FACE_BOUND('',#85,.T.);
#29=FACE_BOUND('',#90,.T.);
#30=FACE_BOUND('',#96,.T.);
#31=FACE_BOUND('',#97,.T.);
#32=FACE_BOUND('',#103,.T.);
#33=FACE_BOUND('',#104,.T.);
#34=FACE_OUTER_BOUND('',#72,.T.);
#35=FACE_OUTER_BOUND('',#75,.T.);
#36=FACE_OUTER_BOUND('',#76,.T.);
#37=FACE_OUTER_BOUND('',#77,.T.);
#38=FACE_OUTER_BOUND('',#78,.T.);
#39=FACE_OUTER_BOUND('',#79,.T.);
#40=FACE_OUTER_BOUND('',#80,.T.);
#41=FACE_OUTER_BOUND('',#81,.T.);
#42=FACE_OUTER_BOUND('',#82,.T.);
#43=FACE_OUTER_BOUND('',#83,.T.);
#44=FACE_OUTER_BOUND('',#84,.T.);
#45=FACE_OUTER_BOUND('',#86,.T.);
#46=FACE_OUTER_BOUND('',#87,.T.);
#47=FACE_OUTER_BOUND('',#88,.T.);
#48=FACE_OUTER_BOUND('',#89,.T.);
#49=FACE_OUTER_BOUND('',#91,.T.);
#50=FACE_OUTER_BOUND('',#92,.T.);
#51=FACE_OUTER_BOUND('',#93,.T.);
#52=FACE_OUTER_BOUND('',#94,.T.);
#53=FACE_OUTER_BOUND('',#95,.T.);
#54=FACE_OUTER_BOUND('',#98,.T.);
#55=FACE_OUTER_BOUND('',#99,.T.);
#56=FACE_OUTER_BOUND('',#100,.T.);
#57=FACE_OUTER_BOUND('',#101,.T.);
#58=FACE_OUTER_BOUND('',#102,.T.);
#59=FACE_OUTER_BOUND('',#105,.T.);
#60=FACE_OUTER_BOUND('',#106,.T.);
#61=FACE_OUTER_BOUND('',#107,.T.);
#62=FACE_OUTER_BOUND('',#108,.T.);
#63=FACE_OUTER_BOUND('',#109,.T.);
#64=FACE_OUTER_BOUND('',#110,.T.);
#65=FACE_OUTER_BOUND('',#111,.T.);
#66=FACE_OUTER_BOUND('',#112,.T.);
#67=FACE_OUTER_BOUND('',#113,.T.);
#68=FACE_OUTER_BOUND('',#114,.T.);
#69=FACE_OUTER_BOUND('',#115,.T.);
#70=FACE_OUTER_BOUND('',#116,.T.);
#71=FACE_OUTER_BOUND('',#117,.T.);
#72=EDGE_LOOP('',(#436,#437,#438,#439,#440,#441,#442));
#73=EDGE_LOOP('',(#443));
#74=EDGE_LOOP('',(#444));
#75=EDGE_LOOP('',(#445,#446,#447));
#76=EDGE_LOOP('',(#448,#449,#450,#451));
#77=EDGE_LOOP('',(#452,#453,#454,#455));
#78=EDGE_LOOP('',(#456,#457,#458,#459));
#79=EDGE_LOOP('',(#460,#461,#462,#463,#464,#465,#466,#467));
#80=EDGE_LOOP('',(#468,#469,#470,#471));
#81=EDGE_LOOP('',(#472,#473,#474,#475));
#82=EDGE_LOOP('',(#476));
#83=EDGE_LOOP('',(#477,#478,#479,#480));
#84=EDGE_LOOP('',(#481));
#85=EDGE_LOOP('',(#482));
#86=EDGE_LOOP('',(#483,#484,#485,#486));
#87=EDGE_LOOP('',(#487));
#88=EDGE_LOOP('',(#488,#489,#490,#491));
#89=EDGE_LOOP('',(#492));
#90=EDGE_LOOP('',(#493));
#91=EDGE_LOOP('',(#494,#495,#496,#497));
#92=EDGE_LOOP('',(#498));
#93=EDGE_LOOP('',(#499,#500,#501,#502));
#94=EDGE_LOOP('',(#503));
#95=EDGE_LOOP('',(#504,#505,#506,#507));
#96=EDGE_LOOP('',(#508));
#97=EDGE_LOOP('',(#509));
#98=EDGE_LOOP('',(#510,#511,#512,#513));
#99=EDGE_LOOP('',(#514,#515,#516,#517));
#100=EDGE_LOOP('',(#518,#519,#520,#521));
#101=EDGE_LOOP('',(#522,#523,#524,#525,#526,#527,#528,#529));
#102=EDGE_LOOP('',(#530,#531,#532,#533,#534,#535,#536,#537));
#103=EDGE_LOOP('',(#538));
#104=EDGE_LOOP('',(#539));
#105=EDGE_LOOP('',(#540,#541,#542,#543,#544,#545));
#106=EDGE_LOOP('',(#546,#547,#548,#549,#550,#551,#552,#553));
#107=EDGE_LOOP('',(#554,#555,#556,#557,#558,#559,#560,#561,#562,#563,#564,
#565,#566,#567));
#108=EDGE_LOOP('',(#568,#569,#570,#571));
#109=EDGE_LOOP('',(#572,#573,#574,#575,#576,#577,#578,#579));
#110=EDGE_LOOP('',(#580,#581,#582,#583));
#111=EDGE_LOOP('',(#584,#585,#586,#587,#588,#589,#590,#591));
#112=EDGE_LOOP('',(#592,#593,#594,#595));
#113=EDGE_LOOP('',(#596,#597,#598,#599,#600,#601));
#114=EDGE_LOOP('',(#602,#603,#604));
#115=EDGE_LOOP('',(#605,#606,#607,#608));
#116=EDGE_LOOP('',(#609,#610,#611,#612,#613,#614,#615));
#117=EDGE_LOOP('',(#616,#617,#618,#619,#620,#621,#622,#623));
#118=CIRCLE('',#704,3.2);
#119=CIRCLE('',#705,2.25);
#120=CIRCLE('',#706,2.25);
#121=CIRCLE('',#708,45.);
#122=CIRCLE('',#710,45.);
#123=CIRCLE('',#712,46.);
#124=CIRCLE('',#714,46.);
#125=CIRCLE('',#718,1.7);
#126=CIRCLE('',#719,1.7);
#127=CIRCLE('',#722,5.);
#128=CIRCLE('',#723,5.);
#129=CIRCLE('',#726,1.7);
#130=CIRCLE('',#727,1.7);
#131=CIRCLE('',#730,5.);
#132=CIRCLE('',#731,5.);
#133=CIRCLE('',#734,2.2);
#134=CIRCLE('',#735,2.2);
#135=CIRCLE('',#738,2.2);
#136=CIRCLE('',#739,2.2);
#137=CIRCLE('',#749,2.25);
#138=CIRCLE('',#750,2.25);
#139=CIRCLE('',#751,2.25);
#140=CIRCLE('',#753,2.25);
#141=CIRCLE('',#754,2.25);
#142=CIRCLE('',#757,2.25);
#143=CIRCLE('',#763,3.2);
#144=LINE('',#969,#212);
#145=LINE('',#971,#213);
#146=LINE('',#973,#214);
#147=LINE('',#975,#215);
#148=LINE('',#977,#216);
#149=LINE('',#980,#217);
#150=LINE('',#988,#218);
#151=LINE('',#991,#219);
#152=LINE('',#994,#220);
#153=LINE('',#997,#221);
#154=LINE('',#1000,#222);
#155=LINE('',#1003,#223);
#156=LINE('',#1006,#224);
#157=LINE('',#1009,#225);
#158=LINE('',#1012,#226);
#159=LINE('',#1014,#227);
#160=LINE('',#1016,#228);
#161=LINE('',#1017,#229);
#162=LINE('',#1020,#230);
#163=LINE('',#1022,#231);
#164=LINE('',#1023,#232);
#165=LINE('',#1028,#233);
#166=LINE('',#1035,#234);
#167=LINE('',#1042,#235);
#168=LINE('',#1049,#236);
#169=LINE('',#1056,#237);
#170=LINE('',#1063,#238);
#171=LINE('',#1069,#239);
#172=LINE('',#1071,#240);
#173=LINE('',#1073,#241);
#174=LINE('',#1074,#242);
#175=LINE('',#1076,#243);
#176=LINE('',#1077,#244);
#177=LINE('',#1080,#245);
#178=LINE('',#1082,#246);
#179=LINE('',#1083,#247);
#180=LINE('',#1086,#248);
#181=LINE('',#1088,#249);
#182=LINE('',#1089,#250);
#183=LINE('',#1092,#251);
#184=LINE('',#1094,#252);
#185=LINE('',#1096,#253);
#186=LINE('',#1098,#254);
#187=LINE('',#1100,#255);
#188=LINE('',#1101,#256);
#189=LINE('',#1103,#257);
#190=LINE('',#1104,#258);
#191=LINE('',#1107,#259);
#192=LINE('',#1109,#260);
#193=LINE('',#1111,#261);
#194=LINE('',#1112,#262);
#195=LINE('',#1118,#263);
#196=LINE('',#1121,#264);
#197=LINE('',#1124,#265);
#198=LINE('',#1126,#266);
#199=LINE('',#1127,#267);
#200=LINE('',#1129,#268);
#201=LINE('',#1134,#269);
#202=LINE('',#1137,#270);
#203=LINE('',#1138,#271);
#204=LINE('',#1142,#272);
#205=LINE('',#1143,#273);
#206=LINE('',#1145,#274);
#207=LINE('',#1147,#275);
#208=LINE('',#1148,#276);
#209=LINE('',#1152,#277);
#210=LINE('',#1153,#278);
#211=LINE('',#1158,#279);
#212=VECTOR('',#771,10.);
#213=VECTOR('',#772,10.);
#214=VECTOR('',#773,10.);
#215=VECTOR('',#774,10.);
#216=VECTOR('',#775,10.);
#217=VECTOR('',#778,10.);
#218=VECTOR('',#785,10.);
#219=VECTOR('',#788,10.);
#220=VECTOR('',#791,10.);
#221=VECTOR('',#794,10.);
#222=VECTOR('',#797,10.);
#223=VECTOR('',#800,10.);
#224=VECTOR('',#803,10.);
#225=VECTOR('',#806,10.);
#226=VECTOR('',#809,10.);
#227=VECTOR('',#810,10.);
#228=VECTOR('',#811,10.);
#229=VECTOR('',#812,10.);
#230=VECTOR('',#815,10.);
#231=VECTOR('',#816,10.);
#232=VECTOR('',#817,10.);
#233=VECTOR('',#822,1.7);
#234=VECTOR('',#831,5.);
#235=VECTOR('',#840,1.7);
#236=VECTOR('',#849,5.);
#237=VECTOR('',#858,2.2);
#238=VECTOR('',#867,2.2);
#239=VECTOR('',#874,10.);
#240=VECTOR('',#875,10.);
#241=VECTOR('',#876,10.);
#242=VECTOR('',#877,10.);
#243=VECTOR('',#880,10.);
#244=VECTOR('',#881,10.);
#245=VECTOR('',#884,10.);
#246=VECTOR('',#885,10.);
#247=VECTOR('',#886,10.);
#248=VECTOR('',#889,10.);
#249=VECTOR('',#890,10.);
#250=VECTOR('',#891,10.);
#251=VECTOR('',#894,10.);
#252=VECTOR('',#895,10.);
#253=VECTOR('',#896,10.);
#254=VECTOR('',#897,10.);
#255=VECTOR('',#898,10.);
#256=VECTOR('',#899,10.);
#257=VECTOR('',#902,10.);
#258=VECTOR('',#903,10.);
#259=VECTOR('',#906,10.);
#260=VECTOR('',#907,10.);
#261=VECTOR('',#908,10.);
#262=VECTOR('',#909,10.);
#263=VECTOR('',#914,10.);
#264=VECTOR('',#917,2.25);
#265=VECTOR('',#920,10.);
#266=VECTOR('',#923,10.);
#267=VECTOR('',#924,10.);
#268=VECTOR('',#925,10.);
#269=VECTOR('',#930,10.);
#270=VECTOR('',#933,10.);
#271=VECTOR('',#934,10.);
#272=VECTOR('',#939,10.);
#273=VECTOR('',#940,2.25);
#274=VECTOR('',#943,10.);
#275=VECTOR('',#946,10.);
#276=VECTOR('',#947,10.);
#277=VECTOR('',#952,10.);
#278=VECTOR('',#953,10.);
#279=VECTOR('',#962,10.);
#280=VERTEX_POINT('',#967);
#281=VERTEX_POINT('',#968);
#282=VERTEX_POINT('',#970);
#283=VERTEX_POINT('',#972);
#284=VERTEX_POINT('',#974);
#285=VERTEX_POINT('',#976);
#286=VERTEX_POINT('',#978);
#287=VERTEX_POINT('',#981);
#288=VERTEX_POINT('',#983);
#289=VERTEX_POINT('',#986);
#290=VERTEX_POINT('',#987);
#291=VERTEX_POINT('',#989);
#292=VERTEX_POINT('',#993);
#293=VERTEX_POINT('',#995);
#294=VERTEX_POINT('',#999);
#295=VERTEX_POINT('',#1001);
#296=VERTEX_POINT('',#1005);
#297=VERTEX_POINT('',#1007);
#298=VERTEX_POINT('',#1011);
#299=VERTEX_POINT('',#1013);
#300=VERTEX_POINT('',#1015);
#301=VERTEX_POINT('',#1019);
#302=VERTEX_POINT('',#1021);
#303=VERTEX_POINT('',#1025);
#304=VERTEX_POINT('',#1027);
#305=VERTEX_POINT('',#1032);
#306=VERTEX_POINT('',#1034);
#307=VERTEX_POINT('',#1039);
#308=VERTEX_POINT('',#1041);
#309=VERTEX_POINT('',#1046);
#310=VERTEX_POINT('',#1048);
#311=VERTEX_POINT('',#1053);
#312=VERTEX_POINT('',#1055);
#313=VERTEX_POINT('',#1060);
#314=VERTEX_POINT('',#1062);
#315=VERTEX_POINT('',#1067);
#316=VERTEX_POINT('',#1068);
#317=VERTEX_POINT('',#1070);
#318=VERTEX_POINT('',#1072);
#319=VERTEX_POINT('',#1079);
#320=VERTEX_POINT('',#1081);
#321=VERTEX_POINT('',#1085);
#322=VERTEX_POINT('',#1087);
#323=VERTEX_POINT('',#1091);
#324=VERTEX_POINT('',#1093);
#325=VERTEX_POINT('',#1095);
#326=VERTEX_POINT('',#1097);
#327=VERTEX_POINT('',#1099);
#328=VERTEX_POINT('',#1106);
#329=VERTEX_POINT('',#1108);
#330=VERTEX_POINT('',#1110);
#331=VERTEX_POINT('',#1114);
#332=VERTEX_POINT('',#1115);
#333=VERTEX_POINT('',#1117);
#334=VERTEX_POINT('',#1119);
#335=VERTEX_POINT('',#1122);
#336=VERTEX_POINT('',#1128);
#337=VERTEX_POINT('',#1130);
#338=VERTEX_POINT('',#1132);
#339=VERTEX_POINT('',#1136);
#340=VERTEX_POINT('',#1140);
#341=VERTEX_POINT('',#1151);
#342=EDGE_CURVE('',#280,#281,#144,.T.);
#343=EDGE_CURVE('',#281,#282,#145,.T.);
#344=EDGE_CURVE('',#282,#283,#146,.T.);
#345=EDGE_CURVE('',#283,#284,#147,.T.);
#346=EDGE_CURVE('',#285,#284,#148,.T.);
#347=EDGE_CURVE('',#285,#286,#118,.T.);
#348=EDGE_CURVE('',#286,#280,#149,.T.);
#349=EDGE_CURVE('',#287,#287,#119,.T.);
#350=EDGE_CURVE('',#288,#288,#120,.T.);
#351=EDGE_CURVE('',#289,#290,#150,.T.);
#352=EDGE_CURVE('',#291,#289,#121,.T.);
#353=EDGE_CURVE('',#290,#291,#151,.T.);
#354=EDGE_CURVE('',#292,#289,#152,.T.);
#355=EDGE_CURVE('',#293,#292,#122,.T.);
#356=EDGE_CURVE('',#291,#293,#153,.T.);
#357=EDGE_CURVE('',#294,#292,#154,.T.);
#358=EDGE_CURVE('',#294,#295,#123,.T.);
#359=EDGE_CURVE('',#293,#295,#155,.T.);
#360=EDGE_CURVE('',#296,#294,#156,.T.);
#361=EDGE_CURVE('',#297,#296,#124,.T.);
#362=EDGE_CURVE('',#295,#297,#157,.T.);
#363=EDGE_CURVE('',#297,#298,#158,.T.);
#364=EDGE_CURVE('',#299,#298,#159,.T.);
#365=EDGE_CURVE('',#299,#300,#160,.T.);
#366=EDGE_CURVE('',#300,#290,#161,.T.);
#367=EDGE_CURVE('',#282,#301,#162,.T.);
#368=EDGE_CURVE('',#301,#302,#163,.T.);
#369=EDGE_CURVE('',#302,#283,#164,.T.);
#370=EDGE_CURVE('',#303,#303,#125,.T.);
#371=EDGE_CURVE('',#303,#304,#165,.T.);
#372=EDGE_CURVE('',#304,#304,#126,.T.);
#373=EDGE_CURVE('',#305,#305,#127,.T.);
#374=EDGE_CURVE('',#305,#306,#166,.T.);
#375=EDGE_CURVE('',#306,#306,#128,.T.);
#376=EDGE_CURVE('',#307,#307,#129,.T.);
#377=EDGE_CURVE('',#307,#308,#167,.T.);
#378=EDGE_CURVE('',#308,#308,#130,.T.);
#379=EDGE_CURVE('',#309,#309,#131,.T.);
#380=EDGE_CURVE('',#309,#310,#168,.T.);
#381=EDGE_CURVE('',#310,#310,#132,.T.);
#382=EDGE_CURVE('',#311,#311,#133,.T.);
#383=EDGE_CURVE('',#311,#312,#169,.T.);
#384=EDGE_CURVE('',#312,#312,#134,.T.);
#385=EDGE_CURVE('',#313,#313,#135,.T.);
#386=EDGE_CURVE('',#313,#314,#170,.T.);
#387=EDGE_CURVE('',#314,#314,#136,.T.);
#388=EDGE_CURVE('',#315,#316,#171,.T.);
#389=EDGE_CURVE('',#316,#317,#172,.T.);
#390=EDGE_CURVE('',#317,#318,#173,.T.);
#391=EDGE_CURVE('',#318,#315,#174,.T.);
#392=EDGE_CURVE('',#316,#301,#175,.T.);
#393=EDGE_CURVE('',#315,#302,#176,.T.);
#394=EDGE_CURVE('',#283,#319,#177,.T.);
#395=EDGE_CURVE('',#319,#320,#178,.T.);
#396=EDGE_CURVE('',#284,#320,#179,.T.);
#397=EDGE_CURVE('',#321,#282,#180,.T.);
#398=EDGE_CURVE('',#281,#322,#181,.T.);
#399=EDGE_CURVE('',#322,#321,#182,.T.);
#400=EDGE_CURVE('',#320,#323,#183,.T.);
#401=EDGE_CURVE('',#323,#324,#184,.T.);
#402=EDGE_CURVE('',#324,#325,#185,.T.);
#403=EDGE_CURVE('',#325,#326,#186,.T.);
#404=EDGE_CURVE('',#326,#327,#187,.T.);
#405=EDGE_CURVE('',#327,#285,#188,.T.);
#406=EDGE_CURVE('',#317,#296,#189,.T.);
#407=EDGE_CURVE('',#298,#321,#190,.T.);
#408=EDGE_CURVE('',#328,#280,#191,.T.);
#409=EDGE_CURVE('',#329,#328,#192,.T.);
#410=EDGE_CURVE('',#330,#329,#193,.T.);
#411=EDGE_CURVE('',#322,#330,#194,.T.);
#412=EDGE_CURVE('',#331,#332,#137,.T.);
#413=EDGE_CURVE('',#333,#331,#195,.T.);
#414=EDGE_CURVE('',#334,#333,#138,.T.);
#415=EDGE_CURVE('',#334,#288,#196,.T.);
#416=EDGE_CURVE('',#335,#334,#139,.T.);
#417=EDGE_CURVE('',#332,#335,#197,.T.);
#418=EDGE_CURVE('',#319,#299,#198,.T.);
#419=EDGE_CURVE('',#335,#330,#199,.T.);
#420=EDGE_CURVE('',#336,#333,#200,.T.);
#421=EDGE_CURVE('',#336,#337,#140,.T.);
#422=EDGE_CURVE('',#337,#338,#141,.T.);
#423=EDGE_CURVE('',#323,#338,#201,.T.);
#424=EDGE_CURVE('',#339,#331,#202,.T.);
#425=EDGE_CURVE('',#339,#336,#203,.T.);
#426=EDGE_CURVE('',#340,#339,#142,.T.);
#427=EDGE_CURVE('',#338,#340,#204,.T.);
#428=EDGE_CURVE('',#337,#287,#205,.T.);
#429=EDGE_CURVE('',#324,#340,#206,.T.);
#430=EDGE_CURVE('',#332,#329,#207,.T.);
#431=EDGE_CURVE('',#325,#328,#208,.T.);
#432=EDGE_CURVE('',#286,#341,#209,.T.);
#433=EDGE_CURVE('',#341,#326,#210,.T.);
#434=EDGE_CURVE('',#327,#341,#143,.T.);
#435=EDGE_CURVE('',#318,#300,#211,.T.);
#436=ORIENTED_EDGE('',*,*,#342,.T.);
#437=ORIENTED_EDGE('',*,*,#343,.T.);
#438=ORIENTED_EDGE('',*,*,#344,.T.);
#439=ORIENTED_EDGE('',*,*,#345,.T.);
#440=ORIENTED_EDGE('',*,*,#346,.F.);
#441=ORIENTED_EDGE('',*,*,#347,.T.);
#442=ORIENTED_EDGE('',*,*,#348,.T.);
#443=ORIENTED_EDGE('',*,*,#349,.T.);
#444=ORIENTED_EDGE('',*,*,#350,.T.);
#445=ORIENTED_EDGE('',*,*,#351,.F.);
#446=ORIENTED_EDGE('',*,*,#352,.F.);
#447=ORIENTED_EDGE('',*,*,#353,.F.);
#448=ORIENTED_EDGE('',*,*,#354,.F.);
#449=ORIENTED_EDGE('',*,*,#355,.F.);
#450=ORIENTED_EDGE('',*,*,#356,.F.);
#451=ORIENTED_EDGE('',*,*,#352,.T.);
#452=ORIENTED_EDGE('',*,*,#357,.F.);
#453=ORIENTED_EDGE('',*,*,#358,.T.);
#454=ORIENTED_EDGE('',*,*,#359,.F.);
#455=ORIENTED_EDGE('',*,*,#355,.T.);
#456=ORIENTED_EDGE('',*,*,#360,.F.);
#457=ORIENTED_EDGE('',*,*,#361,.F.);
#458=ORIENTED_EDGE('',*,*,#362,.F.);
#459=ORIENTED_EDGE('',*,*,#358,.F.);
#460=ORIENTED_EDGE('',*,*,#353,.T.);
#461=ORIENTED_EDGE('',*,*,#356,.T.);
#462=ORIENTED_EDGE('',*,*,#359,.T.);
#463=ORIENTED_EDGE('',*,*,#362,.T.);
#464=ORIENTED_EDGE('',*,*,#363,.T.);
#465=ORIENTED_EDGE('',*,*,#364,.F.);
#466=ORIENTED_EDGE('',*,*,#365,.T.);
#467=ORIENTED_EDGE('',*,*,#366,.T.);
#468=ORIENTED_EDGE('',*,*,#344,.F.);
#469=ORIENTED_EDGE('',*,*,#367,.T.);
#470=ORIENTED_EDGE('',*,*,#368,.T.);
#471=ORIENTED_EDGE('',*,*,#369,.T.);
#472=ORIENTED_EDGE('',*,*,#370,.T.);
#473=ORIENTED_EDGE('',*,*,#371,.T.);
#474=ORIENTED_EDGE('',*,*,#372,.F.);
#475=ORIENTED_EDGE('',*,*,#371,.F.);
#476=ORIENTED_EDGE('',*,*,#370,.F.);
#477=ORIENTED_EDGE('',*,*,#373,.F.);
#478=ORIENTED_EDGE('',*,*,#374,.T.);
#479=ORIENTED_EDGE('',*,*,#375,.F.);
#480=ORIENTED_EDGE('',*,*,#374,.F.);
#481=ORIENTED_EDGE('',*,*,#373,.T.);
#482=ORIENTED_EDGE('',*,*,#372,.T.);
#483=ORIENTED_EDGE('',*,*,#376,.T.);
#484=ORIENTED_EDGE('',*,*,#377,.T.);
#485=ORIENTED_EDGE('',*,*,#378,.F.);
#486=ORIENTED_EDGE('',*,*,#377,.F.);
#487=ORIENTED_EDGE('',*,*,#376,.F.);
#488=ORIENTED_EDGE('',*,*,#379,.F.);
#489=ORIENTED_EDGE('',*,*,#380,.T.);
#490=ORIENTED_EDGE('',*,*,#381,.F.);
#491=ORIENTED_EDGE('',*,*,#380,.F.);
#492=ORIENTED_EDGE('',*,*,#379,.T.);
#493=ORIENTED_EDGE('',*,*,#378,.T.);
#494=ORIENTED_EDGE('',*,*,#382,.T.);
#495=ORIENTED_EDGE('',*,*,#383,.T.);
#496=ORIENTED_EDGE('',*,*,#384,.F.);
#497=ORIENTED_EDGE('',*,*,#383,.F.);
#498=ORIENTED_EDGE('',*,*,#382,.F.);
#499=ORIENTED_EDGE('',*,*,#385,.T.);
#500=ORIENTED_EDGE('',*,*,#386,.T.);
#501=ORIENTED_EDGE('',*,*,#387,.F.);
#502=ORIENTED_EDGE('',*,*,#386,.F.);
#503=ORIENTED_EDGE('',*,*,#385,.F.);
#504=ORIENTED_EDGE('',*,*,#388,.T.);
#505=ORIENTED_EDGE('',*,*,#389,.T.);
#506=ORIENTED_EDGE('',*,*,#390,.T.);
#507=ORIENTED_EDGE('',*,*,#391,.T.);
#508=ORIENTED_EDGE('',*,*,#384,.T.);
#509=ORIENTED_EDGE('',*,*,#387,.T.);
#510=ORIENTED_EDGE('',*,*,#368,.F.);
#511=ORIENTED_EDGE('',*,*,#392,.F.);
#512=ORIENTED_EDGE('',*,*,#388,.F.);
#513=ORIENTED_EDGE('',*,*,#393,.T.);
#514=ORIENTED_EDGE('',*,*,#394,.T.);
#515=ORIENTED_EDGE('',*,*,#395,.T.);
#516=ORIENTED_EDGE('',*,*,#396,.F.);
#517=ORIENTED_EDGE('',*,*,#345,.F.);
#518=ORIENTED_EDGE('',*,*,#397,.T.);
#519=ORIENTED_EDGE('',*,*,#343,.F.);
#520=ORIENTED_EDGE('',*,*,#398,.T.);
#521=ORIENTED_EDGE('',*,*,#399,.T.);
#522=ORIENTED_EDGE('',*,*,#400,.T.);
#523=ORIENTED_EDGE('',*,*,#401,.T.);
#524=ORIENTED_EDGE('',*,*,#402,.T.);
#525=ORIENTED_EDGE('',*,*,#403,.T.);
#526=ORIENTED_EDGE('',*,*,#404,.T.);
#527=ORIENTED_EDGE('',*,*,#405,.T.);
#528=ORIENTED_EDGE('',*,*,#346,.T.);
#529=ORIENTED_EDGE('',*,*,#396,.T.);
#530=ORIENTED_EDGE('',*,*,#361,.T.);
#531=ORIENTED_EDGE('',*,*,#406,.F.);
#532=ORIENTED_EDGE('',*,*,#389,.F.);
#533=ORIENTED_EDGE('',*,*,#392,.T.);
#534=ORIENTED_EDGE('',*,*,#367,.F.);
#535=ORIENTED_EDGE('',*,*,#397,.F.);
#536=ORIENTED_EDGE('',*,*,#407,.F.);
#537=ORIENTED_EDGE('',*,*,#363,.F.);
#538=ORIENTED_EDGE('',*,*,#381,.T.);
#539=ORIENTED_EDGE('',*,*,#375,.T.);
#540=ORIENTED_EDGE('',*,*,#342,.F.);
#541=ORIENTED_EDGE('',*,*,#408,.F.);
#542=ORIENTED_EDGE('',*,*,#409,.F.);
#543=ORIENTED_EDGE('',*,*,#410,.F.);
#544=ORIENTED_EDGE('',*,*,#411,.F.);
#545=ORIENTED_EDGE('',*,*,#398,.F.);
#546=ORIENTED_EDGE('',*,*,#412,.F.);
#547=ORIENTED_EDGE('',*,*,#413,.F.);
#548=ORIENTED_EDGE('',*,*,#414,.F.);
#549=ORIENTED_EDGE('',*,*,#415,.T.);
#550=ORIENTED_EDGE('',*,*,#350,.F.);
#551=ORIENTED_EDGE('',*,*,#415,.F.);
#552=ORIENTED_EDGE('',*,*,#416,.F.);
#553=ORIENTED_EDGE('',*,*,#417,.F.);
#554=ORIENTED_EDGE('',*,*,#400,.F.);
#555=ORIENTED_EDGE('',*,*,#395,.F.);
#556=ORIENTED_EDGE('',*,*,#418,.T.);
#557=ORIENTED_EDGE('',*,*,#364,.T.);
#558=ORIENTED_EDGE('',*,*,#407,.T.);
#559=ORIENTED_EDGE('',*,*,#399,.F.);
#560=ORIENTED_EDGE('',*,*,#411,.T.);
#561=ORIENTED_EDGE('',*,*,#419,.F.);
#562=ORIENTED_EDGE('',*,*,#416,.T.);
#563=ORIENTED_EDGE('',*,*,#414,.T.);
#564=ORIENTED_EDGE('',*,*,#420,.F.);
#565=ORIENTED_EDGE('',*,*,#421,.T.);
#566=ORIENTED_EDGE('',*,*,#422,.T.);
#567=ORIENTED_EDGE('',*,*,#423,.F.);
#568=ORIENTED_EDGE('',*,*,#413,.T.);
#569=ORIENTED_EDGE('',*,*,#424,.F.);
#570=ORIENTED_EDGE('',*,*,#425,.T.);
#571=ORIENTED_EDGE('',*,*,#420,.T.);
#572=ORIENTED_EDGE('',*,*,#426,.F.);
#573=ORIENTED_EDGE('',*,*,#427,.F.);
#574=ORIENTED_EDGE('',*,*,#422,.F.);
#575=ORIENTED_EDGE('',*,*,#428,.T.);
#576=ORIENTED_EDGE('',*,*,#349,.F.);
#577=ORIENTED_EDGE('',*,*,#428,.F.);
#578=ORIENTED_EDGE('',*,*,#421,.F.);
#579=ORIENTED_EDGE('',*,*,#425,.F.);
#580=ORIENTED_EDGE('',*,*,#401,.F.);
#581=ORIENTED_EDGE('',*,*,#423,.T.);
#582=ORIENTED_EDGE('',*,*,#427,.T.);
#583=ORIENTED_EDGE('',*,*,#429,.F.);
#584=ORIENTED_EDGE('',*,*,#402,.F.);
#585=ORIENTED_EDGE('',*,*,#429,.T.);
#586=ORIENTED_EDGE('',*,*,#426,.T.);
#587=ORIENTED_EDGE('',*,*,#424,.T.);
#588=ORIENTED_EDGE('',*,*,#412,.T.);
#589=ORIENTED_EDGE('',*,*,#430,.T.);
#590=ORIENTED_EDGE('',*,*,#409,.T.);
#591=ORIENTED_EDGE('',*,*,#431,.F.);
#592=ORIENTED_EDGE('',*,*,#417,.T.);
#593=ORIENTED_EDGE('',*,*,#419,.T.);
#594=ORIENTED_EDGE('',*,*,#410,.T.);
#595=ORIENTED_EDGE('',*,*,#430,.F.);
#596=ORIENTED_EDGE('',*,*,#403,.F.);
#597=ORIENTED_EDGE('',*,*,#431,.T.);
#598=ORIENTED_EDGE('',*,*,#408,.T.);
#599=ORIENTED_EDGE('',*,*,#348,.F.);
#600=ORIENTED_EDGE('',*,*,#432,.T.);
#601=ORIENTED_EDGE('',*,*,#433,.T.);
#602=ORIENTED_EDGE('',*,*,#404,.F.);
#603=ORIENTED_EDGE('',*,*,#433,.F.);
#604=ORIENTED_EDGE('',*,*,#434,.F.);
#605=ORIENTED_EDGE('',*,*,#405,.F.);
#606=ORIENTED_EDGE('',*,*,#434,.T.);
#607=ORIENTED_EDGE('',*,*,#432,.F.);
#608=ORIENTED_EDGE('',*,*,#347,.F.);
#609=ORIENTED_EDGE('',*,*,#435,.T.);
#610=ORIENTED_EDGE('',*,*,#365,.F.);
#611=ORIENTED_EDGE('',*,*,#418,.F.);
#612=ORIENTED_EDGE('',*,*,#394,.F.);
#613=ORIENTED_EDGE('',*,*,#369,.F.);
#614=ORIENTED_EDGE('',*,*,#393,.F.);
#615=ORIENTED_EDGE('',*,*,#391,.F.);
#616=ORIENTED_EDGE('',*,*,#351,.T.);
#617=ORIENTED_EDGE('',*,*,#366,.F.);
#618=ORIENTED_EDGE('',*,*,#435,.F.);
#619=ORIENTED_EDGE('',*,*,#390,.F.);
#620=ORIENTED_EDGE('',*,*,#406,.T.);
#621=ORIENTED_EDGE('',*,*,#360,.T.);
#622=ORIENTED_EDGE('',*,*,#357,.T.);
#623=ORIENTED_EDGE('',*,*,#354,.T.);
#624=PLANE('',#703);
#625=PLANE('',#707);
#626=PLANE('',#711);
#627=PLANE('',#715);
#628=PLANE('',#716);
#629=PLANE('',#720);
#630=PLANE('',#724);
#631=PLANE('',#728);
#632=PLANE('',#732);
#633=PLANE('',#736);
#634=PLANE('',#740);
#635=PLANE('',#741);
#636=PLANE('',#742);
#637=PLANE('',#743);
#638=PLANE('',#744);
#639=PLANE('',#745);
#640=PLANE('',#746);
#641=PLANE('',#747);
#642=PLANE('',#752);
#643=PLANE('',#755);
#644=PLANE('',#758);
#645=PLANE('',#759);
#646=PLANE('',#760);
#647=PLANE('',#761);
#648=PLANE('',#762);
#649=PLANE('',#765);
#650=PLANE('',#766);
#651=ADVANCED_FACE('',(#34,#26,#27),#624,.F.);
#652=ADVANCED_FACE('',(#35),#625,.F.);
#653=ADVANCED_FACE('',(#36),#15,.F.);
#654=ADVANCED_FACE('',(#37),#626,.T.);
#655=ADVANCED_FACE('',(#38),#16,.F.);
#656=ADVANCED_FACE('',(#39),#627,.F.);
#657=ADVANCED_FACE('',(#40),#628,.F.);
#658=ADVANCED_FACE('',(#41),#17,.F.);
#659=ADVANCED_FACE('',(#42),#629,.F.);
#660=ADVANCED_FACE('',(#43),#18,.T.);
#661=ADVANCED_FACE('',(#44,#28),#630,.T.);
#662=ADVANCED_FACE('',(#45),#19,.F.);
#663=ADVANCED_FACE('',(#46),#631,.F.);
#664=ADVANCED_FACE('',(#47),#20,.T.);
#665=ADVANCED_FACE('',(#48,#29),#632,.T.);
#666=ADVANCED_FACE('',(#49),#21,.F.);
#667=ADVANCED_FACE('',(#50),#633,.F.);
#668=ADVANCED_FACE('',(#51),#22,.F.);
#669=ADVANCED_FACE('',(#52),#634,.F.);
#670=ADVANCED_FACE('',(#53,#30,#31),#635,.T.);
#671=ADVANCED_FACE('',(#54),#636,.F.);
#672=ADVANCED_FACE('',(#55),#637,.T.);
#673=ADVANCED_FACE('',(#56),#638,.T.);
#674=ADVANCED_FACE('',(#57),#639,.F.);
#675=ADVANCED_FACE('',(#58,#32,#33),#640,.F.);
#676=ADVANCED_FACE('',(#59),#641,.F.);
#677=ADVANCED_FACE('',(#60),#23,.F.);
#678=ADVANCED_FACE('',(#61),#642,.F.);
#679=ADVANCED_FACE('',(#62),#643,.F.);
#680=ADVANCED_FACE('',(#63),#24,.F.);
#681=ADVANCED_FACE('',(#64),#644,.F.);
#682=ADVANCED_FACE('',(#65),#645,.F.);
#683=ADVANCED_FACE('',(#66),#646,.F.);
#684=ADVANCED_FACE('',(#67),#647,.F.);
#685=ADVANCED_FACE('',(#68),#648,.F.);
#686=ADVANCED_FACE('',(#69),#25,.F.);
#687=ADVANCED_FACE('',(#70),#649,.F.);
#688=ADVANCED_FACE('',(#71),#650,.F.);
#689=CLOSED_SHELL('',(#651,#652,#653,#654,#655,#656,#657,#658,#659,#660,
#661,#662,#663,#664,#665,#666,#667,#668,#669,#670,#671,#672,#673,#674,#675,
#676,#677,#678,#679,#680,#681,#682,#683,#684,#685,#686,#687,#688));
#690=DERIVED_UNIT_ELEMENT(#692,1.);
#691=DERIVED_UNIT_ELEMENT(#1165,-3.);
#692=(
MASS_UNIT()
NAMED_UNIT(*)
SI_UNIT(.KILO.,.GRAM.)
);
#693=DERIVED_UNIT((#690,#691));
#694=MEASURE_REPRESENTATION_ITEM('density measure',
POSITIVE_RATIO_MEASURE(7850.),#693);
#695=PROPERTY_DEFINITION_REPRESENTATION(#700,#697);
#696=PROPERTY_DEFINITION_REPRESENTATION(#701,#698);
#697=REPRESENTATION('material name',(#699),#1162);
#698=REPRESENTATION('density',(#694),#1162);
#699=DESCRIPTIVE_REPRESENTATION_ITEM('Steel','Steel');
#700=PROPERTY_DEFINITION('material property','material name',#1172);
#701=PROPERTY_DEFINITION('material property','density of part',#1172);
#702=AXIS2_PLACEMENT_3D('',#965,#767,#768);
#703=AXIS2_PLACEMENT_3D('',#966,#769,#770);
#704=AXIS2_PLACEMENT_3D('',#979,#776,#777);
#705=AXIS2_PLACEMENT_3D('',#982,#779,#780);
#706=AXIS2_PLACEMENT_3D('',#984,#781,#782);
#707=AXIS2_PLACEMENT_3D('',#985,#783,#784);
#708=AXIS2_PLACEMENT_3D('',#990,#786,#787);
#709=AXIS2_PLACEMENT_3D('',#992,#789,#790);
#710=AXIS2_PLACEMENT_3D('',#996,#792,#793);
#711=AXIS2_PLACEMENT_3D('',#998,#795,#796);
#712=AXIS2_PLACEMENT_3D('',#1002,#798,#799);
#713=AXIS2_PLACEMENT_3D('',#1004,#801,#802);
#714=AXIS2_PLACEMENT_3D('',#1008,#804,#805);
#715=AXIS2_PLACEMENT_3D('',#1010,#807,#808);
#716=AXIS2_PLACEMENT_3D('',#1018,#813,#814);
#717=AXIS2_PLACEMENT_3D('',#1024,#818,#819);
#718=AXIS2_PLACEMENT_3D('',#1026,#820,#821);
#719=AXIS2_PLACEMENT_3D('',#1029,#823,#824);
#720=AXIS2_PLACEMENT_3D('',#1030,#825,#826);
#721=AXIS2_PLACEMENT_3D('',#1031,#827,#828);
#722=AXIS2_PLACEMENT_3D('',#1033,#829,#830);
#723=AXIS2_PLACEMENT_3D('',#1036,#832,#833);
#724=AXIS2_PLACEMENT_3D('',#1037,#834,#835);
#725=AXIS2_PLACEMENT_3D('',#1038,#836,#837);
#726=AXIS2_PLACEMENT_3D('',#1040,#838,#839);
#727=AXIS2_PLACEMENT_3D('',#1043,#841,#842);
#728=AXIS2_PLACEMENT_3D('',#1044,#843,#844);
#729=AXIS2_PLACEMENT_3D('',#1045,#845,#846);
#730=AXIS2_PLACEMENT_3D('',#1047,#847,#848);
#731=AXIS2_PLACEMENT_3D('',#1050,#850,#851);
#732=AXIS2_PLACEMENT_3D('',#1051,#852,#853);
#733=AXIS2_PLACEMENT_3D('',#1052,#854,#855);
#734=AXIS2_PLACEMENT_3D('',#1054,#856,#857);
#735=AXIS2_PLACEMENT_3D('',#1057,#859,#860);
#736=AXIS2_PLACEMENT_3D('',#1058,#861,#862);
#737=AXIS2_PLACEMENT_3D('',#1059,#863,#864);
#738=AXIS2_PLACEMENT_3D('',#1061,#865,#866);
#739=AXIS2_PLACEMENT_3D('',#1064,#868,#869);
#740=AXIS2_PLACEMENT_3D('',#1065,#870,#871);
#741=AXIS2_PLACEMENT_3D('',#1066,#872,#873);
#742=AXIS2_PLACEMENT_3D('',#1075,#878,#879);
#743=AXIS2_PLACEMENT_3D('',#1078,#882,#883);
#744=AXIS2_PLACEMENT_3D('',#1084,#887,#888);
#745=AXIS2_PLACEMENT_3D('',#1090,#892,#893);
#746=AXIS2_PLACEMENT_3D('',#1102,#900,#901);
#747=AXIS2_PLACEMENT_3D('',#1105,#904,#905);
#748=AXIS2_PLACEMENT_3D('',#1113,#910,#911);
#749=AXIS2_PLACEMENT_3D('',#1116,#912,#913);
#750=AXIS2_PLACEMENT_3D('',#1120,#915,#916);
#751=AXIS2_PLACEMENT_3D('',#1123,#918,#919);
#752=AXIS2_PLACEMENT_3D('',#1125,#921,#922);
#753=AXIS2_PLACEMENT_3D('',#1131,#926,#927);
#754=AXIS2_PLACEMENT_3D('',#1133,#928,#929);
#755=AXIS2_PLACEMENT_3D('',#1135,#931,#932);
#756=AXIS2_PLACEMENT_3D('',#1139,#935,#936);
#757=AXIS2_PLACEMENT_3D('',#1141,#937,#938);
#758=AXIS2_PLACEMENT_3D('',#1144,#941,#942);
#759=AXIS2_PLACEMENT_3D('',#1146,#944,#945);
#760=AXIS2_PLACEMENT_3D('',#1149,#948,#949);
#761=AXIS2_PLACEMENT_3D('',#1150,#950,#951);
#762=AXIS2_PLACEMENT_3D('',#1154,#954,#955);
#763=AXIS2_PLACEMENT_3D('',#1155,#956,#957);
#764=AXIS2_PLACEMENT_3D('',#1156,#958,#959);
#765=AXIS2_PLACEMENT_3D('',#1157,#960,#961);
#766=AXIS2_PLACEMENT_3D('',#1159,#963,#964);
#767=DIRECTION('axis',(0.,0.,1.));
#768=DIRECTION('refdir',(1.,0.,0.));
#769=DIRECTION('center_axis',(-1.,0.,0.));
#770=DIRECTION('ref_axis',(0.,0.,1.));
#771=DIRECTION('',(0.,0.,1.));
#772=DIRECTION('',(0.,-1.,0.));
#773=DIRECTION('',(0.,-1.,0.));
#774=DIRECTION('',(0.,-1.,0.));
#775=DIRECTION('',(0.,0.,1.));
#776=DIRECTION('center_axis',(-1.,0.,0.));
#777=DIRECTION('ref_axis',(0.,0.,-1.));
#778=DIRECTION('',(0.,1.,0.));
#779=DIRECTION('center_axis',(-1.,0.,0.));
#780=DIRECTION('ref_axis',(0.,0.,-1.));
#781=DIRECTION('center_axis',(-1.,0.,0.));
#782=DIRECTION('ref_axis',(0.,0.,-1.));
#783=DIRECTION('center_axis',(0.,-1.,0.));
#784=DIRECTION('ref_axis',(-1.,0.,0.));
#785=DIRECTION('',(0.,0.,-1.));
#786=DIRECTION('center_axis',(0.,-1.,0.));
#787=DIRECTION('ref_axis',(1.,0.,0.));
#788=DIRECTION('',(1.,0.,0.));
#789=DIRECTION('center_axis',(0.,1.,0.));
#790=DIRECTION('ref_axis',(1.,0.,0.));
#791=DIRECTION('',(0.,-1.,0.));
#792=DIRECTION('center_axis',(0.,-1.,0.));
#793=DIRECTION('ref_axis',(1.,0.,0.));
#794=DIRECTION('',(0.,1.,0.));
#795=DIRECTION('center_axis',(0.,1.,0.));
#796=DIRECTION('ref_axis',(1.,0.,0.));
#797=DIRECTION('',(0.,0.,-1.));
#798=DIRECTION('center_axis',(0.,1.,0.));
#799=DIRECTION('ref_axis',(1.,0.,0.));
#800=DIRECTION('',(1.,0.,0.));
#801=DIRECTION('center_axis',(0.,1.,0.));
#802=DIRECTION('ref_axis',(1.,0.,0.));
#803=DIRECTION('',(0.,-1.,0.));
#804=DIRECTION('center_axis',(0.,-1.,0.));
#805=DIRECTION('ref_axis',(1.,0.,0.));
#806=DIRECTION('',(0.,1.,0.));
#807=DIRECTION('center_axis',(0.,0.,1.));
#808=DIRECTION('ref_axis',(1.,0.,0.));
#809=DIRECTION('',(1.,0.,0.));
#810=DIRECTION('',(0.,1.,0.));
#811=DIRECTION('',(-1.,0.,0.));
#812=DIRECTION('',(0.,1.,0.));
#813=DIRECTION('center_axis',(0.,0.,1.));
#814=DIRECTION('ref_axis',(1.,0.,0.));
#815=DIRECTION('',(1.,0.,0.));
#816=DIRECTION('',(0.,-1.,0.));
#817=DIRECTION('',(-1.,0.,0.));
#818=DIRECTION('center_axis',(0.,1.,0.));
#819=DIRECTION('ref_axis',(1.,0.,0.));
#820=DIRECTION('center_axis',(0.,-1.,0.));
#821=DIRECTION('ref_axis',(1.,0.,0.));
#822=DIRECTION('',(0.,1.,0.));
#823=DIRECTION('center_axis',(0.,-1.,0.));
#824=DIRECTION('ref_axis',(1.,0.,0.));
#825=DIRECTION('center_axis',(0.,-1.,0.));
#826=DIRECTION('ref_axis',(-1.,0.,0.));
#827=DIRECTION('center_axis',(0.,1.,0.));
#828=DIRECTION('ref_axis',(1.,0.,0.));
#829=DIRECTION('center_axis',(0.,1.,0.));
#830=DIRECTION('ref_axis',(1.,0.,0.));
#831=DIRECTION('',(0.,-1.,0.));
#832=DIRECTION('center_axis',(0.,-1.,0.));
#833=DIRECTION('ref_axis',(1.,0.,0.));
#834=DIRECTION('center_axis',(0.,1.,0.));
#835=DIRECTION('ref_axis',(1.,0.,0.));
#836=DIRECTION('center_axis',(0.,1.,0.));
#837=DIRECTION('ref_axis',(1.,0.,0.));
#838=DIRECTION('center_axis',(0.,-1.,0.));
#839=DIRECTION('ref_axis',(1.,0.,0.));
#840=DIRECTION('',(0.,1.,0.));
#841=DIRECTION('center_axis',(0.,-1.,0.));
#842=DIRECTION('ref_axis',(1.,0.,0.));
#843=DIRECTION('center_axis',(0.,-1.,0.));
#844=DIRECTION('ref_axis',(-1.,0.,0.));
#845=DIRECTION('center_axis',(0.,1.,0.));
#846=DIRECTION('ref_axis',(1.,0.,0.));
#847=DIRECTION('center_axis',(0.,1.,0.));
#848=DIRECTION('ref_axis',(1.,0.,0.));
#849=DIRECTION('',(0.,-1.,0.));
#850=DIRECTION('center_axis',(0.,-1.,0.));
#851=DIRECTION('ref_axis',(1.,0.,0.));
#852=DIRECTION('center_axis',(0.,1.,0.));
#853=DIRECTION('ref_axis',(1.,0.,0.));
#854=DIRECTION('center_axis',(0.,0.,1.));
#855=DIRECTION('ref_axis',(1.,0.,0.));
#856=DIRECTION('center_axis',(0.,0.,-1.));
#857=DIRECTION('ref_axis',(1.,0.,0.));
#858=DIRECTION('',(0.,0.,1.));
#859=DIRECTION('center_axis',(0.,0.,-1.));
#860=DIRECTION('ref_axis',(1.,0.,0.));
#861=DIRECTION('center_axis',(0.,0.,-1.));
#862=DIRECTION('ref_axis',(-1.,0.,0.));
#863=DIRECTION('center_axis',(0.,0.,1.));
#864=DIRECTION('ref_axis',(1.,0.,0.));
#865=DIRECTION('center_axis',(0.,0.,-1.));
#866=DIRECTION('ref_axis',(1.,0.,0.));
#867=DIRECTION('',(0.,0.,1.));
#868=DIRECTION('center_axis',(0.,0.,-1.));
#869=DIRECTION('ref_axis',(1.,0.,0.));
#870=DIRECTION('center_axis',(0.,0.,-1.));
#871=DIRECTION('ref_axis',(-1.,0.,0.));
#872=DIRECTION('center_axis',(0.,0.,1.));
#873=DIRECTION('ref_axis',(1.,0.,0.));
#874=DIRECTION('',(0.,1.,0.));
#875=DIRECTION('',(-1.,0.,0.));
#876=DIRECTION('',(0.,-1.,0.));
#877=DIRECTION('',(1.,0.,0.));
#878=DIRECTION('center_axis',(-1.,0.,0.));
#879=DIRECTION('ref_axis',(0.,0.,1.));
#880=DIRECTION('',(0.,0.,-1.));
#881=DIRECTION('',(0.,0.,-1.));
#882=DIRECTION('center_axis',(0.,0.,1.));
#883=DIRECTION('ref_axis',(1.,0.,0.));
#884=DIRECTION('',(-1.,0.,0.));
#885=DIRECTION('',(0.,-1.,0.));
#886=DIRECTION('',(-1.,0.,0.));
#887=DIRECTION('center_axis',(0.,0.,1.));
#888=DIRECTION('ref_axis',(1.,0.,0.));
#889=DIRECTION('',(1.,0.,0.));
#890=DIRECTION('',(-1.,0.,0.));
#891=DIRECTION('',(0.,-1.,0.));
#892=DIRECTION('center_axis',(0.,1.,0.));
#893=DIRECTION('ref_axis',(0.,0.,1.));
#894=DIRECTION('',(0.,0.,-1.));
#895=DIRECTION('',(1.,0.,0.));
#896=DIRECTION('',(0.,0.,-1.));
#897=DIRECTION('',(1.,0.,0.));
#898=DIRECTION('',(0.,0.,1.));
#899=DIRECTION('',(1.,0.,0.));
#900=DIRECTION('center_axis',(0.,-1.,0.));
#901=DIRECTION('ref_axis',(0.,0.,-1.));
#902=DIRECTION('',(0.,0.,-1.));
#903=DIRECTION('',(0.,0.,1.));
#904=DIRECTION('center_axis',(0.,-1.,0.));
#905=DIRECTION('ref_axis',(0.,0.,-1.));
#906=DIRECTION('',(1.,0.,0.));
#907=DIRECTION('',(0.,0.,-1.));
#908=DIRECTION('',(1.,0.,0.));
#909=DIRECTION('',(0.,0.,-1.));
#910=DIRECTION('center_axis',(1.,0.,0.));
#911=DIRECTION('ref_axis',(0.,0.,-1.));
#912=DIRECTION('center_axis',(1.,0.,0.));
#913=DIRECTION('ref_axis',(0.,0.,-1.));
#914=DIRECTION('',(1.,0.,0.));
#915=DIRECTION('center_axis',(1.,0.,0.));
#916=DIRECTION('ref_axis',(0.,0.,-1.));
#917=DIRECTION('',(1.,0.,0.));
#918=DIRECTION('center_axis',(1.,0.,0.));
#919=DIRECTION('ref_axis',(0.,0.,-1.));
#920=DIRECTION('',(-1.,0.,0.));
#921=DIRECTION('center_axis',(1.,0.,0.));
#922=DIRECTION('ref_axis',(0.,0.,-1.));
#923=DIRECTION('',(0.,0.,-1.));
#924=DIRECTION('',(0.,1.,0.));
#925=DIRECTION('',(0.,1.,0.));
#926=DIRECTION('center_axis',(1.,0.,0.));
#927=DIRECTION('ref_axis',(0.,0.,-1.));
#928=DIRECTION('center_axis',(1.,0.,0.));
#929=DIRECTION('ref_axis',(0.,0.,-1.));
#930=DIRECTION('',(0.,1.,0.));
#931=DIRECTION('center_axis',(0.,0.,1.));
#932=DIRECTION('ref_axis',(1.,0.,0.));
#933=DIRECTION('',(0.,1.,0.));
#934=DIRECTION('',(-1.,0.,0.));
#935=DIRECTION('center_axis',(1.,0.,0.));
#936=DIRECTION('ref_axis',(0.,0.,-1.));
#937=DIRECTION('center_axis',(1.,0.,0.));
#938=DIRECTION('ref_axis',(0.,0.,-1.));
#939=DIRECTION('',(1.,0.,0.));
#940=DIRECTION('',(1.,0.,0.));
#941=DIRECTION('center_axis',(0.,0.,1.));
#942=DIRECTION('ref_axis',(1.,0.,0.));
#943=DIRECTION('',(0.,1.,0.));
#944=DIRECTION('center_axis',(1.,0.,0.));
#945=DIRECTION('ref_axis',(0.,0.,-1.));
#946=DIRECTION('',(0.,1.,0.));
#947=DIRECTION('',(0.,1.,0.));
#948=DIRECTION('center_axis',(0.,0.,1.));
#949=DIRECTION('ref_axis',(1.,0.,0.));
#950=DIRECTION('center_axis',(0.,0.,1.));
#951=DIRECTION('ref_axis',(1.,0.,0.));
#952=DIRECTION('',(-1.,0.,0.));
#953=DIRECTION('',(0.,-1.,0.));
#954=DIRECTION('center_axis',(-1.,0.,0.));
#955=DIRECTION('ref_axis',(0.,0.,1.));
#956=DIRECTION('center_axis',(-1.,0.,0.));
#957=DIRECTION('ref_axis',(0.,0.,-1.));
#958=DIRECTION('center_axis',(1.,0.,0.));
#959=DIRECTION('ref_axis',(0.,0.,-1.));
#960=DIRECTION('center_axis',(0.,1.,0.));
#961=DIRECTION('ref_axis',(0.,0.,1.));
#962=DIRECTION('',(0.,0.,-1.));
#963=DIRECTION('center_axis',(1.,0.,0.));
#964=DIRECTION('ref_axis',(0.,0.,-1.));
#965=CARTESIAN_POINT('',(0.,0.,0.));
#966=CARTESIAN_POINT('Origin',(326.5,0.,240.));
#967=CARTESIAN_POINT('',(326.5,30.,264.));
#968=CARTESIAN_POINT('',(326.5,30.,279.));
#969=CARTESIAN_POINT('',(326.5,30.,258.25));
#970=CARTESIAN_POINT('',(326.5,29.,279.));
#971=CARTESIAN_POINT('',(326.5,10.,279.));
#972=CARTESIAN_POINT('',(326.5,21.,279.));
#973=CARTESIAN_POINT('',(326.5,10.,279.));
#974=CARTESIAN_POINT('',(326.5,0.,279.));
#975=CARTESIAN_POINT('',(326.5,10.,279.));
#976=CARTESIAN_POINT('',(326.5,0.,267.2));
#977=CARTESIAN_POINT('',(326.5,0.,243.75));
#978=CARTESIAN_POINT('',(326.5,3.2,264.));
#979=CARTESIAN_POINT('Origin',(326.5,1.46957615897682E-15,264.));
#980=CARTESIAN_POINT('',(326.5,10.,264.));
#981=CARTESIAN_POINT('',(326.5,10.,272.25));
#982=CARTESIAN_POINT('Origin',(326.5,10.,270.));
#983=CARTESIAN_POINT('',(326.5,23.,272.25));
#984=CARTESIAN_POINT('Origin',(326.5,23.,270.));
#985=CARTESIAN_POINT('Origin',(270.,22.,240.));
#986=CARTESIAN_POINT('',(294.,22.,278.065732621349));
#987=CARTESIAN_POINT('',(294.,22.,277.8935055785));
#988=CARTESIAN_POINT('',(294.,22.,270.44675278925));
#989=CARTESIAN_POINT('',(294.271016356391,22.,277.8935055785));
#990=CARTESIAN_POINT('Origin',(270.,22.,240.));
#991=CARTESIAN_POINT('',(294.,22.,277.8935055785));
#992=CARTESIAN_POINT('Origin',(270.,24.975,240.));
#993=CARTESIAN_POINT('',(294.,28.95,278.065732621349));
#994=CARTESIAN_POINT('',(294.,24.975,278.065732621349));
#995=CARTESIAN_POINT('',(294.271016356391,28.95,277.8935055785));
#996=CARTESIAN_POINT('Origin',(270.,28.95,240.));
#997=CARTESIAN_POINT('',(294.271016356391,24.975,277.8935055785));
#998=CARTESIAN_POINT('Origin',(270.,28.95,240.));
#999=CARTESIAN_POINT('',(294.,28.95,279.242833740697));
#1000=CARTESIAN_POINT('',(294.,28.95,270.44675278925));
#1001=CARTESIAN_POINT('',(296.078386356755,28.95,277.8935055785));
#1002=CARTESIAN_POINT('Origin',(270.,28.95,240.));
#1003=CARTESIAN_POINT('',(294.,28.95,277.8935055785));
#1004=CARTESIAN_POINT('Origin',(270.,29.5,240.));
#1005=CARTESIAN_POINT('',(294.,29.,279.242833740697));
#1006=CARTESIAN_POINT('',(294.,29.5,279.242833740697));
#1007=CARTESIAN_POINT('',(296.078386356755,29.,277.8935055785));
#1008=CARTESIAN_POINT('Origin',(270.,29.,240.));
#1009=CARTESIAN_POINT('',(296.078386356755,29.5,277.8935055785));
#1010=CARTESIAN_POINT('Origin',(318.,25.,277.8935055785));
#1011=CARTESIAN_POINT('',(308.,29.,277.8935055785));
#1012=CARTESIAN_POINT('',(318.,29.,277.8935055785));
#1013=CARTESIAN_POINT('',(308.,21.,277.8935055785));
#1014=CARTESIAN_POINT('',(308.,12.5,277.8935055785));
#1015=CARTESIAN_POINT('',(294.,21.,277.8935055785));
#1016=CARTESIAN_POINT('',(318.,21.,277.8935055785));
#1017=CARTESIAN_POINT('',(294.,25.,277.8935055785));
#1018=CARTESIAN_POINT('Origin',(329.5,20.,279.));
#1019=CARTESIAN_POINT('',(342.,29.,279.));
#1020=CARTESIAN_POINT('',(323.75,29.,279.));
#1021=CARTESIAN_POINT('',(342.,21.,279.));
#1022=CARTESIAN_POINT('',(342.,12.5,279.));
#1023=CARTESIAN_POINT('',(323.75,21.,279.));
#1024=CARTESIAN_POINT('Origin',(332.,32.75,311.8935055785));
#1025=CARTESIAN_POINT('',(330.3,26.5,311.8935055785));
#1026=CARTESIAN_POINT('Origin',(332.,26.5,311.8935055785));
#1027=CARTESIAN_POINT('',(330.3,37.,311.8935055785));
#1028=CARTESIAN_POINT('',(330.3,32.75,311.8935055785));
#1029=CARTESIAN_POINT('Origin',(332.,37.,311.8935055785));
#1030=CARTESIAN_POINT('Origin',(332.,26.5,311.8935055785));
#1031=CARTESIAN_POINT('Origin',(332.,32.75,311.8935055785));
#1032=CARTESIAN_POINT('',(327.,37.,311.8935055785));
#1033=CARTESIAN_POINT('Origin',(332.,37.,311.8935055785));
#1034=CARTESIAN_POINT('',(327.,29.,311.8935055785));
#1035=CARTESIAN_POINT('',(327.,32.75,311.8935055785));
#1036=CARTESIAN_POINT('Origin',(332.,29.,311.8935055785));
#1037=CARTESIAN_POINT('Origin',(332.,37.,311.8935055785));
#1038=CARTESIAN_POINT('Origin',(304.,32.75,311.8935055785));
#1039=CARTESIAN_POINT('',(302.3,26.5,311.8935055785));
#1040=CARTESIAN_POINT('Origin',(304.,26.5,311.8935055785));
#1041=CARTESIAN_POINT('',(302.3,37.,311.8935055785));
#1042=CARTESIAN_POINT('',(302.3,32.75,311.8935055785));
#1043=CARTESIAN_POINT('Origin',(304.,37.,311.8935055785));
#1044=CARTESIAN_POINT('Origin',(304.,26.5,311.8935055785));
#1045=CARTESIAN_POINT('Origin',(304.,32.75,311.8935055785));
#1046=CARTESIAN_POINT('',(299.,37.,311.8935055785));
#1047=CARTESIAN_POINT('Origin',(304.,37.,311.8935055785));
#1048=CARTESIAN_POINT('',(299.,29.,311.8935055785));
#1049=CARTESIAN_POINT('',(299.,32.75,311.8935055785));
#1050=CARTESIAN_POINT('Origin',(304.,29.,311.8935055785));
#1051=CARTESIAN_POINT('Origin',(304.,37.,311.8935055785));
#1052=CARTESIAN_POINT('Origin',(332.,25.,324.8935055785));
#1053=CARTESIAN_POINT('',(329.8,25.,314.8935055785));
#1054=CARTESIAN_POINT('Origin',(332.,25.,314.8935055785));
#1055=CARTESIAN_POINT('',(329.8,25.,323.8935055785));
#1056=CARTESIAN_POINT('',(329.8,25.,324.8935055785));
#1057=CARTESIAN_POINT('Origin',(332.,25.,323.8935055785));
#1058=CARTESIAN_POINT('Origin',(332.,25.,314.8935055785));
#1059=CARTESIAN_POINT('Origin',(304.,25.,324.8935055785));
#1060=CARTESIAN_POINT('',(301.8,25.,314.8935055785));
#1061=CARTESIAN_POINT('Origin',(304.,25.,314.8935055785));
#1062=CARTESIAN_POINT('',(301.8,25.,323.8935055785));
#1063=CARTESIAN_POINT('',(301.8,25.,324.8935055785));
#1064=CARTESIAN_POINT('Origin',(304.,25.,323.8935055785));
#1065=CARTESIAN_POINT('Origin',(304.,25.,314.8935055785));
#1066=CARTESIAN_POINT('Origin',(318.,25.,323.8935055785));
#1067=CARTESIAN_POINT('',(342.,21.,323.8935055785));
#1068=CARTESIAN_POINT('',(342.,29.,323.8935055785));
#1069=CARTESIAN_POINT('',(342.,25.,323.8935055785));
#1070=CARTESIAN_POINT('',(294.,29.,323.8935055785));
#1071=CARTESIAN_POINT('',(318.,29.,323.8935055785));
#1072=CARTESIAN_POINT('',(294.,21.,323.8935055785));
#1073=CARTESIAN_POINT('',(294.,25.,323.8935055785));
#1074=CARTESIAN_POINT('',(318.,21.,323.8935055785));
#1075=CARTESIAN_POINT('Origin',(342.,25.,300.8935055785));
#1076=CARTESIAN_POINT('',(342.,29.,300.8935055785));
#1077=CARTESIAN_POINT('',(342.,21.,300.8935055785));
#1078=CARTESIAN_POINT('Origin',(339.75,0.,279.));
#1079=CARTESIAN_POINT('',(308.,21.,279.));
#1080=CARTESIAN_POINT('',(328.875,21.,279.));
#1081=CARTESIAN_POINT('',(308.,0.,279.));
#1082=CARTESIAN_POINT('',(308.,0.,279.));
#1083=CARTESIAN_POINT('',(324.75,0.,279.));
#1084=CARTESIAN_POINT('Origin',(339.75,0.,279.));
#1085=CARTESIAN_POINT('',(308.,29.,279.));
#1086=CARTESIAN_POINT('',(328.875,29.,279.));
#1087=CARTESIAN_POINT('',(308.,30.,279.));
#1088=CARTESIAN_POINT('',(339.75,30.,279.));
#1089=CARTESIAN_POINT('',(308.,0.,279.));
#1090=CARTESIAN_POINT('Origin',(309.75,0.,247.5));
#1091=CARTESIAN_POINT('',(308.,0.,270.));
#1092=CARTESIAN_POINT('',(308.,0.,261.));
#1093=CARTESIAN_POINT('',(312.,0.,270.));
#1094=CARTESIAN_POINT('',(324.75,0.,270.));
#1095=CARTESIAN_POINT('',(312.,0.,264.));
#1096=CARTESIAN_POINT('',(312.,0.,258.25));
#1097=CARTESIAN_POINT('',(323.5,0.,264.));
#1098=CARTESIAN_POINT('',(325.875,0.,264.));
#1099=CARTESIAN_POINT('',(323.5,0.,267.2));
#1100=CARTESIAN_POINT('',(323.5,0.,255.75));
#1101=CARTESIAN_POINT('',(325.3,0.,267.2));
#1102=CARTESIAN_POINT('Origin',(318.,29.,300.8935055785));
#1103=CARTESIAN_POINT('',(294.,29.,300.8935055785));
#1104=CARTESIAN_POINT('',(308.,29.,287.69675278925));
#1105=CARTESIAN_POINT('Origin',(342.,30.,269.));
#1106=CARTESIAN_POINT('',(312.,30.,264.));
#1107=CARTESIAN_POINT('',(342.,30.,264.));
#1108=CARTESIAN_POINT('',(312.,30.,270.));
#1109=CARTESIAN_POINT('',(312.,30.,269.));
#1110=CARTESIAN_POINT('',(308.,30.,270.));
#1111=CARTESIAN_POINT('',(339.75,30.,270.));
#1112=CARTESIAN_POINT('',(308.,30.,274.5));
#1113=CARTESIAN_POINT('Origin',(336.,23.,270.));
#1114=CARTESIAN_POINT('',(312.,20.75,270.));
#1115=CARTESIAN_POINT('',(312.,25.25,270.));
#1116=CARTESIAN_POINT('Origin',(312.,23.,270.));
#1117=CARTESIAN_POINT('',(308.,20.75,270.));
#1118=CARTESIAN_POINT('',(336.,20.75,270.));
#1119=CARTESIAN_POINT('',(308.,23.,272.25));
#1120=CARTESIAN_POINT('Origin',(308.,23.,270.));
#1121=CARTESIAN_POINT('',(336.,23.,272.25));
#1122=CARTESIAN_POINT('',(308.,25.25,270.));
#1123=CARTESIAN_POINT('Origin',(308.,23.,270.));
#1124=CARTESIAN_POINT('',(336.,25.25,270.));
#1125=CARTESIAN_POINT('Origin',(308.,0.,274.5));
#1126=CARTESIAN_POINT('',(308.,21.,287.69675278925));
#1127=CARTESIAN_POINT('',(308.,0.,270.));
#1128=CARTESIAN_POINT('',(308.,12.25,270.));
#1129=CARTESIAN_POINT('',(308.,0.,270.));
#1130=CARTESIAN_POINT('',(308.,10.,272.25));
#1131=CARTESIAN_POINT('Origin',(308.,10.,270.));
#1132=CARTESIAN_POINT('',(308.,7.75,270.));
#1133=CARTESIAN_POINT('Origin',(308.,10.,270.));
#1134=CARTESIAN_POINT('',(308.,0.,270.));
#1135=CARTESIAN_POINT('Origin',(339.75,0.,270.));
#1136=CARTESIAN_POINT('',(312.,12.25,270.));
#1137=CARTESIAN_POINT('',(312.,0.,270.));
#1138=CARTESIAN_POINT('',(336.,12.25,270.));
#1139=CARTESIAN_POINT('Origin',(336.,10.,270.));
#1140=CARTESIAN_POINT('',(312.,7.75,270.));
#1141=CARTESIAN_POINT('Origin',(312.,10.,270.));
#1142=CARTESIAN_POINT('',(336.,7.75,270.));
#1143=CARTESIAN_POINT('',(336.,10.,272.25));
#1144=CARTESIAN_POINT('Origin',(339.75,0.,270.));
#1145=CARTESIAN_POINT('',(312.,0.,270.));
#1146=CARTESIAN_POINT('Origin',(312.,0.,269.));
#1147=CARTESIAN_POINT('',(312.,0.,270.));
#1148=CARTESIAN_POINT('',(312.,0.,264.));
#1149=CARTESIAN_POINT('Origin',(339.75,0.,270.));
#1150=CARTESIAN_POINT('Origin',(342.,0.,264.));
#1151=CARTESIAN_POINT('',(323.5,3.2,264.));
#1152=CARTESIAN_POINT('',(325.3,3.2,264.));
#1153=CARTESIAN_POINT('',(323.5,7.34788079488412E-16,264.));
#1154=CARTESIAN_POINT('Origin',(323.5,1.46957615897682E-15,264.));
#1155=CARTESIAN_POINT('Origin',(323.5,1.46957615897682E-15,264.));
#1156=CARTESIAN_POINT('Origin',(325.3,1.46957615897682E-15,264.));
#1157=CARTESIAN_POINT('Origin',(318.,21.,300.8935055785));
#1158=CARTESIAN_POINT('',(294.,21.,300.8935055785));
#1159=CARTESIAN_POINT('Origin',(294.,25.,300.8935055785));
#1160=UNCERTAINTY_MEASURE_WITH_UNIT(LENGTH_MEASURE(0.01),#1164,
'DISTANCE_ACCURACY_VALUE',
'Maximum model space distance between geometric entities at asserted c
onnectivities');
#1161=UNCERTAINTY_MEASURE_WITH_UNIT(LENGTH_MEASURE(0.01),#1164,
'DISTANCE_ACCURACY_VALUE',
'Maximum model space distance between geometric entities at asserted c
onnectivities');
#1162=(
GEOMETRIC_REPRESENTATION_CONTEXT(3)
GLOBAL_UNCERTAINTY_ASSIGNED_CONTEXT((#1160))
GLOBAL_UNIT_ASSIGNED_CONTEXT((#1164,#1166,#1167))
REPRESENTATION_CONTEXT('','3D')
);
#1163=(
GEOMETRIC_REPRESENTATION_CONTEXT(3)
GLOBAL_UNCERTAINTY_ASSIGNED_CONTEXT((#1161))
GLOBAL_UNIT_ASSIGNED_CONTEXT((#1164,#1166,#1167))
REPRESENTATION_CONTEXT('','3D')
);
#1164=(
LENGTH_UNIT()
NAMED_UNIT(*)
SI_UNIT(.MILLI.,.METRE.)
);
#1165=(
LENGTH_UNIT()
NAMED_UNIT(*)
SI_UNIT($,.METRE.)
);
#1166=(
NAMED_UNIT(*)
PLANE_ANGLE_UNIT()
SI_UNIT($,.RADIAN.)
);
#1167=(
NAMED_UNIT(*)
SI_UNIT($,.STERADIAN.)
SOLID_ANGLE_UNIT()
);
#1168=SHAPE_DEFINITION_REPRESENTATION(#1169,#1170);
#1169=PRODUCT_DEFINITION_SHAPE('',$,#1172);
#1170=SHAPE_REPRESENTATION('',(#702),#1162);
#1171=PRODUCT_DEFINITION_CONTEXT('part definition',#1176,'design');
#1172=PRODUCT_DEFINITION('2026-09-30-14-21-09-184',
'EXPORT_TMP_PRINT_V015_P304D_PG19Carrier_Rear_PosY',#1173,#1171);
#1173=PRODUCT_DEFINITION_FORMATION('',$,#1178);
#1174=PRODUCT_RELATED_PRODUCT_CATEGORY(
'EXPORT_TMP_PRINT_V015_P304D_PG19Carrier_Rear_PosY',
'EXPORT_TMP_PRINT_V015_P304D_PG19Carrier_Rear_PosY',(#1178));
#1175=APPLICATION_PROTOCOL_DEFINITION('international standard',
'automotive_design',2009,#1176);
#1176=APPLICATION_CONTEXT(
'Core Data for Automotive Mechanical Design Process');
#1177=PRODUCT_CONTEXT('part definition',#1176,'mechanical');
#1178=PRODUCT('2026-09-30-14-21-09-184',
'EXPORT_TMP_PRINT_V015_P304D_PG19Carrier_Rear_PosY',$,(#1177));
#1179=PRESENTATION_STYLE_ASSIGNMENT((#1180));
#1180=SURFACE_STYLE_USAGE(.BOTH.,#1181);
#1181=SURFACE_SIDE_STYLE('',(#1182));
#1182=SURFACE_STYLE_FILL_AREA(#1183);
#1183=FILL_AREA_STYLE('Steel - Satin',(#1184));
#1184=FILL_AREA_STYLE_COLOUR('Steel - Satin',#1185);
#1185=COLOUR_RGB('Steel - Satin',0.627450980392157,0.627450980392157,0.627450980392157);
ENDSEC;
END-ISO-10303-21;
