ISO-10303-21;
HEADER;
/* Generated by software containing ST-Developer
 * from STEP Tools, Inc. (www.steptools.com) 
 */

FILE_DESCRIPTION(
/* description */ (''),
/* implementation_level */ '2;1');

FILE_NAME(
/* name */ 'PRINT_V015_P304E_PG19Carrier_Rear_NegY.step',
/* time_stamp */ '2026-09-30T14:21:10+02:00',
/* author */ (''),
/* organization */ (''),
/* preprocessor_version */ 'ST-DEVELOPER v20.2',
/* originating_system */ 'Autodesk Translation Framework v15.15.0.0',
/* authorisation */ '');

FILE_SCHEMA (('AUTOMOTIVE_DESIGN { 1 0 10303 214 3 1 1 }'));
ENDSEC;

DATA;
#10=MECHANICAL_DESIGN_GEOMETRIC_PRESENTATION_REPRESENTATION('',(#13),#1163);
#11=SHAPE_REPRESENTATION_RELATIONSHIP('SRR','None',#1170,#12);
#12=ADVANCED_BREP_SHAPE_REPRESENTATION('',(#14),#1162);
#13=STYLED_ITEM('',(#1179),#14);
#14=MANIFOLD_SOLID_BREP('PRINT_V015_P304E_PG19Carrier_Rear_NegY',#689);
#15=FACE_BOUND('',#82,.T.);
#16=FACE_BOUND('',#87,.T.);
#17=FACE_BOUND('',#94,.T.);
#18=FACE_BOUND('',#95,.T.);
#19=FACE_BOUND('',#100,.T.);
#20=FACE_BOUND('',#101,.T.);
#21=FACE_BOUND('',#110,.T.);
#22=FACE_BOUND('',#111,.T.);
#23=CYLINDRICAL_SURFACE('',#705,45.);
#24=CYLINDRICAL_SURFACE('',#709,46.);
#25=CYLINDRICAL_SURFACE('',#713,1.7);
#26=CYLINDRICAL_SURFACE('',#717,5.);
#27=CYLINDRICAL_SURFACE('',#721,1.7);
#28=CYLINDRICAL_SURFACE('',#725,5.);
#29=CYLINDRICAL_SURFACE('',#729,2.2);
#30=CYLINDRICAL_SURFACE('',#733,2.2);
#31=CYLINDRICAL_SURFACE('',#756,3.2);
#32=CYLINDRICAL_SURFACE('',#761,2.25);
#33=CYLINDRICAL_SURFACE('',#762,2.25);
#34=FACE_OUTER_BOUND('',#72,.T.);
#35=FACE_OUTER_BOUND('',#73,.T.);
#36=FACE_OUTER_BOUND('',#74,.T.);
#37=FACE_OUTER_BOUND('',#75,.T.);
#38=FACE_OUTER_BOUND('',#76,.T.);
#39=FACE_OUTER_BOUND('',#77,.T.);
#40=FACE_OUTER_BOUND('',#78,.T.);
#41=FACE_OUTER_BOUND('',#79,.T.);
#42=FACE_OUTER_BOUND('',#80,.T.);
#43=FACE_OUTER_BOUND('',#81,.T.);
#44=FACE_OUTER_BOUND('',#83,.T.);
#45=FACE_OUTER_BOUND('',#84,.T.);
#46=FACE_OUTER_BOUND('',#85,.T.);
#47=FACE_OUTER_BOUND('',#86,.T.);
#48=FACE_OUTER_BOUND('',#88,.T.);
#49=FACE_OUTER_BOUND('',#89,.T.);
#50=FACE_OUTER_BOUND('',#90,.T.);
#51=FACE_OUTER_BOUND('',#91,.T.);
#52=FACE_OUTER_BOUND('',#92,.T.);
#53=FACE_OUTER_BOUND('',#93,.T.);
#54=FACE_OUTER_BOUND('',#96,.T.);
#55=FACE_OUTER_BOUND('',#97,.T.);
#56=FACE_OUTER_BOUND('',#98,.T.);
#57=FACE_OUTER_BOUND('',#99,.T.);
#58=FACE_OUTER_BOUND('',#102,.T.);
#59=FACE_OUTER_BOUND('',#103,.T.);
#60=FACE_OUTER_BOUND('',#104,.T.);
#61=FACE_OUTER_BOUND('',#105,.T.);
#62=FACE_OUTER_BOUND('',#106,.T.);
#63=FACE_OUTER_BOUND('',#107,.T.);
#64=FACE_OUTER_BOUND('',#108,.T.);
#65=FACE_OUTER_BOUND('',#109,.T.);
#66=FACE_OUTER_BOUND('',#112,.T.);
#67=FACE_OUTER_BOUND('',#113,.T.);
#68=FACE_OUTER_BOUND('',#114,.T.);
#69=FACE_OUTER_BOUND('',#115,.T.);
#70=FACE_OUTER_BOUND('',#116,.T.);
#71=FACE_OUTER_BOUND('',#117,.T.);
#72=EDGE_LOOP('',(#436,#437,#438));
#73=EDGE_LOOP('',(#439,#440,#441,#442));
#74=EDGE_LOOP('',(#443,#444,#445,#446));
#75=EDGE_LOOP('',(#447,#448,#449,#450));
#76=EDGE_LOOP('',(#451,#452,#453,#454,#455,#456,#457,#458));
#77=EDGE_LOOP('',(#459,#460,#461,#462));
#78=EDGE_LOOP('',(#463,#464,#465,#466));
#79=EDGE_LOOP('',(#467));
#80=EDGE_LOOP('',(#468,#469,#470,#471));
#81=EDGE_LOOP('',(#472));
#82=EDGE_LOOP('',(#473));
#83=EDGE_LOOP('',(#474,#475,#476,#477));
#84=EDGE_LOOP('',(#478));
#85=EDGE_LOOP('',(#479,#480,#481,#482));
#86=EDGE_LOOP('',(#483));
#87=EDGE_LOOP('',(#484));
#88=EDGE_LOOP('',(#485,#486,#487,#488));
#89=EDGE_LOOP('',(#489));
#90=EDGE_LOOP('',(#490,#491,#492,#493));
#91=EDGE_LOOP('',(#494));
#92=EDGE_LOOP('',(#495,#496,#497,#498));
#93=EDGE_LOOP('',(#499,#500,#501,#502));
#94=EDGE_LOOP('',(#503));
#95=EDGE_LOOP('',(#504));
#96=EDGE_LOOP('',(#505,#506,#507,#508));
#97=EDGE_LOOP('',(#509,#510,#511,#512));
#98=EDGE_LOOP('',(#513,#514,#515,#516,#517,#518,#519,#520));
#99=EDGE_LOOP('',(#521,#522,#523,#524,#525,#526,#527,#528));
#100=EDGE_LOOP('',(#529));
#101=EDGE_LOOP('',(#530));
#102=EDGE_LOOP('',(#531,#532,#533,#534,#535,#536,#537));
#103=EDGE_LOOP('',(#538,#539,#540,#541,#542,#543,#544,#545,#546,#547,#548,
#549,#550,#551));
#104=EDGE_LOOP('',(#552,#553,#554,#555));
#105=EDGE_LOOP('',(#556,#557,#558,#559,#560,#561,#562,#563));
#106=EDGE_LOOP('',(#564,#565,#566,#567,#568,#569));
#107=EDGE_LOOP('',(#570,#571,#572));
#108=EDGE_LOOP('',(#573,#574,#575,#576));
#109=EDGE_LOOP('',(#577,#578,#579,#580,#581,#582,#583));
#110=EDGE_LOOP('',(#584));
#111=EDGE_LOOP('',(#585));
#112=EDGE_LOOP('',(#586,#587,#588,#589,#590,#591,#592,#593));
#113=EDGE_LOOP('',(#594,#595,#596,#597,#598,#599,#600,#601));
#114=EDGE_LOOP('',(#602,#603,#604,#605));
#115=EDGE_LOOP('',(#606,#607,#608,#609,#610,#611));
#116=EDGE_LOOP('',(#612,#613,#614,#615,#616,#617,#618,#619));
#117=EDGE_LOOP('',(#620,#621,#622,#623));
#118=CIRCLE('',#704,45.);
#119=CIRCLE('',#706,45.);
#120=CIRCLE('',#708,46.);
#121=CIRCLE('',#710,46.);
#122=CIRCLE('',#714,1.7);
#123=CIRCLE('',#715,1.7);
#124=CIRCLE('',#718,5.);
#125=CIRCLE('',#719,5.);
#126=CIRCLE('',#722,1.7);
#127=CIRCLE('',#723,1.7);
#128=CIRCLE('',#726,5.);
#129=CIRCLE('',#727,5.);
#130=CIRCLE('',#730,2.2);
#131=CIRCLE('',#731,2.2);
#132=CIRCLE('',#734,2.2);
#133=CIRCLE('',#735,2.2);
#134=CIRCLE('',#745,2.25);
#135=CIRCLE('',#746,2.25);
#136=CIRCLE('',#747,2.25);
#137=CIRCLE('',#748,2.25);
#138=CIRCLE('',#751,2.25);
#139=CIRCLE('',#752,2.25);
#140=CIRCLE('',#755,3.2);
#141=CIRCLE('',#757,3.2);
#142=CIRCLE('',#759,2.25);
#143=CIRCLE('',#760,2.25);
#144=LINE('',#969,#212);
#145=LINE('',#972,#213);
#146=LINE('',#975,#214);
#147=LINE('',#978,#215);
#148=LINE('',#981,#216);
#149=LINE('',#984,#217);
#150=LINE('',#987,#218);
#151=LINE('',#990,#219);
#152=LINE('',#993,#220);
#153=LINE('',#995,#221);
#154=LINE('',#997,#222);
#155=LINE('',#998,#223);
#156=LINE('',#1002,#224);
#157=LINE('',#1004,#225);
#158=LINE('',#1006,#226);
#159=LINE('',#1007,#227);
#160=LINE('',#1012,#228);
#161=LINE('',#1019,#229);
#162=LINE('',#1026,#230);
#163=LINE('',#1033,#231);
#164=LINE('',#1040,#232);
#165=LINE('',#1047,#233);
#166=LINE('',#1052,#234);
#167=LINE('',#1054,#235);
#168=LINE('',#1055,#236);
#169=LINE('',#1057,#237);
#170=LINE('',#1058,#238);
#171=LINE('',#1061,#239);
#172=LINE('',#1063,#240);
#173=LINE('',#1065,#241);
#174=LINE('',#1066,#242);
#175=LINE('',#1069,#243);
#176=LINE('',#1071,#244);
#177=LINE('',#1073,#245);
#178=LINE('',#1074,#246);
#179=LINE('',#1077,#247);
#180=LINE('',#1079,#248);
#181=LINE('',#1081,#249);
#182=LINE('',#1083,#250);
#183=LINE('',#1085,#251);
#184=LINE('',#1087,#252);
#185=LINE('',#1088,#253);
#186=LINE('',#1091,#254);
#187=LINE('',#1092,#255);
#188=LINE('',#1095,#256);
#189=LINE('',#1096,#257);
#190=LINE('',#1099,#258);
#191=LINE('',#1105,#259);
#192=LINE('',#1111,#260);
#193=LINE('',#1112,#261);
#194=LINE('',#1113,#262);
#195=LINE('',#1116,#263);
#196=LINE('',#1117,#264);
#197=LINE('',#1120,#265);
#198=LINE('',#1122,#266);
#199=LINE('',#1124,#267);
#200=LINE('',#1128,#268);
#201=LINE('',#1132,#269);
#202=LINE('',#1134,#270);
#203=LINE('',#1136,#271);
#204=LINE('',#1137,#272);
#205=LINE('',#1143,#273);
#206=LINE('',#1149,#274);
#207=LINE('',#1150,#275);
#208=LINE('',#1151,#276);
#209=LINE('',#1153,#277);
#210=LINE('',#1154,#278);
#211=LINE('',#1157,#279);
#212=VECTOR('',#771,10.);
#213=VECTOR('',#774,10.);
#214=VECTOR('',#777,10.);
#215=VECTOR('',#780,10.);
#216=VECTOR('',#783,10.);
#217=VECTOR('',#786,10.);
#218=VECTOR('',#789,10.);
#219=VECTOR('',#792,10.);
#220=VECTOR('',#795,10.);
#221=VECTOR('',#796,10.);
#222=VECTOR('',#797,10.);
#223=VECTOR('',#798,10.);
#224=VECTOR('',#801,10.);
#225=VECTOR('',#802,10.);
#226=VECTOR('',#803,10.);
#227=VECTOR('',#804,10.);
#228=VECTOR('',#809,1.7);
#229=VECTOR('',#818,5.);
#230=VECTOR('',#827,1.7);
#231=VECTOR('',#836,5.);
#232=VECTOR('',#845,2.2);
#233=VECTOR('',#854,2.2);
#234=VECTOR('',#861,10.);
#235=VECTOR('',#862,10.);
#236=VECTOR('',#863,10.);
#237=VECTOR('',#866,10.);
#238=VECTOR('',#867,10.);
#239=VECTOR('',#870,10.);
#240=VECTOR('',#871,10.);
#241=VECTOR('',#872,10.);
#242=VECTOR('',#873,10.);
#243=VECTOR('',#876,10.);
#244=VECTOR('',#877,10.);
#245=VECTOR('',#878,10.);
#246=VECTOR('',#879,10.);
#247=VECTOR('',#882,10.);
#248=VECTOR('',#883,10.);
#249=VECTOR('',#884,10.);
#250=VECTOR('',#885,10.);
#251=VECTOR('',#886,10.);
#252=VECTOR('',#887,10.);
#253=VECTOR('',#888,10.);
#254=VECTOR('',#891,10.);
#255=VECTOR('',#892,10.);
#256=VECTOR('',#895,10.);
#257=VECTOR('',#896,10.);
#258=VECTOR('',#899,10.);
#259=VECTOR('',#904,10.);
#260=VECTOR('',#909,10.);
#261=VECTOR('',#910,10.);
#262=VECTOR('',#911,10.);
#263=VECTOR('',#914,10.);
#264=VECTOR('',#915,10.);
#265=VECTOR('',#918,10.);
#266=VECTOR('',#919,10.);
#267=VECTOR('',#920,10.);
#268=VECTOR('',#923,10.);
#269=VECTOR('',#928,10.);
#270=VECTOR('',#929,10.);
#271=VECTOR('',#930,10.);
#272=VECTOR('',#931,10.);
#273=VECTOR('',#942,10.);
#274=VECTOR('',#949,10.);
#275=VECTOR('',#950,10.);
#276=VECTOR('',#951,2.25);
#277=VECTOR('',#954,10.);
#278=VECTOR('',#955,2.25);
#279=VECTOR('',#960,10.);
#280=VERTEX_POINT('',#967);
#281=VERTEX_POINT('',#968);
#282=VERTEX_POINT('',#970);
#283=VERTEX_POINT('',#974);
#284=VERTEX_POINT('',#976);
#285=VERTEX_POINT('',#980);
#286=VERTEX_POINT('',#982);
#287=VERTEX_POINT('',#986);
#288=VERTEX_POINT('',#988);
#289=VERTEX_POINT('',#992);
#290=VERTEX_POINT('',#994);
#291=VERTEX_POINT('',#996);
#292=VERTEX_POINT('',#1000);
#293=VERTEX_POINT('',#1001);
#294=VERTEX_POINT('',#1003);
#295=VERTEX_POINT('',#1005);
#296=VERTEX_POINT('',#1009);
#297=VERTEX_POINT('',#1011);
#298=VERTEX_POINT('',#1016);
#299=VERTEX_POINT('',#1018);
#300=VERTEX_POINT('',#1023);
#301=VERTEX_POINT('',#1025);
#302=VERTEX_POINT('',#1030);
#303=VERTEX_POINT('',#1032);
#304=VERTEX_POINT('',#1037);
#305=VERTEX_POINT('',#1039);
#306=VERTEX_POINT('',#1044);
#307=VERTEX_POINT('',#1046);
#308=VERTEX_POINT('',#1051);
#309=VERTEX_POINT('',#1053);
#310=VERTEX_POINT('',#1060);
#311=VERTEX_POINT('',#1062);
#312=VERTEX_POINT('',#1064);
#313=VERTEX_POINT('',#1068);
#314=VERTEX_POINT('',#1070);
#315=VERTEX_POINT('',#1072);
#316=VERTEX_POINT('',#1076);
#317=VERTEX_POINT('',#1078);
#318=VERTEX_POINT('',#1080);
#319=VERTEX_POINT('',#1082);
#320=VERTEX_POINT('',#1084);
#321=VERTEX_POINT('',#1086);
#322=VERTEX_POINT('',#1090);
#323=VERTEX_POINT('',#1094);
#324=VERTEX_POINT('',#1098);
#325=VERTEX_POINT('',#1100);
#326=VERTEX_POINT('',#1102);
#327=VERTEX_POINT('',#1104);
#328=VERTEX_POINT('',#1106);
#329=VERTEX_POINT('',#1108);
#330=VERTEX_POINT('',#1110);
#331=VERTEX_POINT('',#1115);
#332=VERTEX_POINT('',#1119);
#333=VERTEX_POINT('',#1121);
#334=VERTEX_POINT('',#1123);
#335=VERTEX_POINT('',#1125);
#336=VERTEX_POINT('',#1127);
#337=VERTEX_POINT('',#1131);
#338=VERTEX_POINT('',#1133);
#339=VERTEX_POINT('',#1135);
#340=VERTEX_POINT('',#1144);
#341=VERTEX_POINT('',#1146);
#342=EDGE_CURVE('',#280,#281,#144,.T.);
#343=EDGE_CURVE('',#282,#280,#118,.T.);
#344=EDGE_CURVE('',#281,#282,#145,.T.);
#345=EDGE_CURVE('',#283,#280,#146,.T.);
#346=EDGE_CURVE('',#284,#283,#119,.T.);
#347=EDGE_CURVE('',#282,#284,#147,.T.);
#348=EDGE_CURVE('',#285,#283,#148,.T.);
#349=EDGE_CURVE('',#285,#286,#120,.T.);
#350=EDGE_CURVE('',#284,#286,#149,.T.);
#351=EDGE_CURVE('',#287,#285,#150,.T.);
#352=EDGE_CURVE('',#288,#287,#121,.T.);
#353=EDGE_CURVE('',#286,#288,#151,.T.);
#354=EDGE_CURVE('',#289,#288,#152,.T.);
#355=EDGE_CURVE('',#290,#289,#153,.T.);
#356=EDGE_CURVE('',#290,#291,#154,.T.);
#357=EDGE_CURVE('',#281,#291,#155,.T.);
#358=EDGE_CURVE('',#292,#293,#156,.T.);
#359=EDGE_CURVE('',#292,#294,#157,.T.);
#360=EDGE_CURVE('',#294,#295,#158,.T.);
#361=EDGE_CURVE('',#295,#293,#159,.T.);
#362=EDGE_CURVE('',#296,#296,#122,.T.);
#363=EDGE_CURVE('',#296,#297,#160,.T.);
#364=EDGE_CURVE('',#297,#297,#123,.T.);
#365=EDGE_CURVE('',#298,#298,#124,.T.);
#366=EDGE_CURVE('',#298,#299,#161,.T.);
#367=EDGE_CURVE('',#299,#299,#125,.T.);
#368=EDGE_CURVE('',#300,#300,#126,.T.);
#369=EDGE_CURVE('',#300,#301,#162,.T.);
#370=EDGE_CURVE('',#301,#301,#127,.T.);
#371=EDGE_CURVE('',#302,#302,#128,.T.);
#372=EDGE_CURVE('',#302,#303,#163,.T.);
#373=EDGE_CURVE('',#303,#303,#129,.T.);
#374=EDGE_CURVE('',#304,#304,#130,.T.);
#375=EDGE_CURVE('',#304,#305,#164,.T.);
#376=EDGE_CURVE('',#305,#305,#131,.T.);
#377=EDGE_CURVE('',#306,#306,#132,.T.);
#378=EDGE_CURVE('',#306,#307,#165,.T.);
#379=EDGE_CURVE('',#307,#307,#133,.T.);
#380=EDGE_CURVE('',#308,#294,#166,.T.);
#381=EDGE_CURVE('',#309,#308,#167,.T.);
#382=EDGE_CURVE('',#309,#295,#168,.T.);
#383=EDGE_CURVE('',#308,#290,#169,.T.);
#384=EDGE_CURVE('',#289,#309,#170,.T.);
#385=EDGE_CURVE('',#293,#310,#171,.T.);
#386=EDGE_CURVE('',#310,#311,#172,.T.);
#387=EDGE_CURVE('',#311,#312,#173,.T.);
#388=EDGE_CURVE('',#293,#312,#174,.T.);
#389=EDGE_CURVE('',#313,#292,#175,.T.);
#390=EDGE_CURVE('',#314,#292,#176,.T.);
#391=EDGE_CURVE('',#315,#314,#177,.T.);
#392=EDGE_CURVE('',#315,#313,#178,.T.);
#393=EDGE_CURVE('',#316,#315,#179,.T.);
#394=EDGE_CURVE('',#314,#317,#180,.T.);
#395=EDGE_CURVE('',#317,#318,#181,.T.);
#396=EDGE_CURVE('',#318,#319,#182,.T.);
#397=EDGE_CURVE('',#319,#320,#183,.T.);
#398=EDGE_CURVE('',#320,#321,#184,.T.);
#399=EDGE_CURVE('',#321,#316,#185,.T.);
#400=EDGE_CURVE('',#322,#287,#186,.T.);
#401=EDGE_CURVE('',#310,#322,#187,.T.);
#402=EDGE_CURVE('',#323,#313,#188,.T.);
#403=EDGE_CURVE('',#291,#323,#189,.T.);
#404=EDGE_CURVE('',#324,#316,#190,.T.);
#405=EDGE_CURVE('',#324,#325,#134,.T.);
#406=EDGE_CURVE('',#325,#326,#135,.T.);
#407=EDGE_CURVE('',#327,#326,#191,.T.);
#408=EDGE_CURVE('',#327,#328,#136,.T.);
#409=EDGE_CURVE('',#328,#329,#137,.T.);
#410=EDGE_CURVE('',#330,#329,#192,.T.);
#411=EDGE_CURVE('',#311,#330,#193,.T.);
#412=EDGE_CURVE('',#322,#323,#194,.T.);
#413=EDGE_CURVE('',#331,#321,#195,.T.);
#414=EDGE_CURVE('',#331,#324,#196,.T.);
#415=EDGE_CURVE('',#332,#320,#197,.T.);
#416=EDGE_CURVE('',#333,#332,#198,.T.);
#417=EDGE_CURVE('',#333,#334,#199,.T.);
#418=EDGE_CURVE('',#334,#335,#138,.T.);
#419=EDGE_CURVE('',#335,#336,#200,.T.);
#420=EDGE_CURVE('',#336,#331,#139,.T.);
#421=EDGE_CURVE('',#319,#337,#201,.T.);
#422=EDGE_CURVE('',#337,#338,#202,.T.);
#423=EDGE_CURVE('',#339,#338,#203,.T.);
#424=EDGE_CURVE('',#339,#332,#204,.T.);
#425=EDGE_CURVE('',#337,#318,#140,.T.);
#426=EDGE_CURVE('',#338,#317,#141,.T.);
#427=EDGE_CURVE('',#312,#339,#205,.T.);
#428=EDGE_CURVE('',#340,#340,#142,.T.);
#429=EDGE_CURVE('',#341,#341,#143,.T.);
#430=EDGE_CURVE('',#335,#327,#206,.T.);
#431=EDGE_CURVE('',#329,#334,#207,.T.);
#432=EDGE_CURVE('',#328,#340,#208,.T.);
#433=EDGE_CURVE('',#326,#336,#209,.T.);
#434=EDGE_CURVE('',#325,#341,#210,.T.);
#435=EDGE_CURVE('',#333,#330,#211,.T.);
#436=ORIENTED_EDGE('',*,*,#342,.F.);
#437=ORIENTED_EDGE('',*,*,#343,.F.);
#438=ORIENTED_EDGE('',*,*,#344,.F.);
#439=ORIENTED_EDGE('',*,*,#345,.F.);
#440=ORIENTED_EDGE('',*,*,#346,.F.);
#441=ORIENTED_EDGE('',*,*,#347,.F.);
#442=ORIENTED_EDGE('',*,*,#343,.T.);
#443=ORIENTED_EDGE('',*,*,#348,.F.);
#444=ORIENTED_EDGE('',*,*,#349,.T.);
#445=ORIENTED_EDGE('',*,*,#350,.F.);
#446=ORIENTED_EDGE('',*,*,#346,.T.);
#447=ORIENTED_EDGE('',*,*,#351,.F.);
#448=ORIENTED_EDGE('',*,*,#352,.F.);
#449=ORIENTED_EDGE('',*,*,#353,.F.);
#450=ORIENTED_EDGE('',*,*,#349,.F.);
#451=ORIENTED_EDGE('',*,*,#344,.T.);
#452=ORIENTED_EDGE('',*,*,#347,.T.);
#453=ORIENTED_EDGE('',*,*,#350,.T.);
#454=ORIENTED_EDGE('',*,*,#353,.T.);
#455=ORIENTED_EDGE('',*,*,#354,.F.);
#456=ORIENTED_EDGE('',*,*,#355,.F.);
#457=ORIENTED_EDGE('',*,*,#356,.T.);
#458=ORIENTED_EDGE('',*,*,#357,.F.);
#459=ORIENTED_EDGE('',*,*,#358,.F.);
#460=ORIENTED_EDGE('',*,*,#359,.T.);
#461=ORIENTED_EDGE('',*,*,#360,.T.);
#462=ORIENTED_EDGE('',*,*,#361,.T.);
#463=ORIENTED_EDGE('',*,*,#362,.F.);
#464=ORIENTED_EDGE('',*,*,#363,.T.);
#465=ORIENTED_EDGE('',*,*,#364,.T.);
#466=ORIENTED_EDGE('',*,*,#363,.F.);
#467=ORIENTED_EDGE('',*,*,#364,.F.);
#468=ORIENTED_EDGE('',*,*,#365,.F.);
#469=ORIENTED_EDGE('',*,*,#366,.T.);
#470=ORIENTED_EDGE('',*,*,#367,.F.);
#471=ORIENTED_EDGE('',*,*,#366,.F.);
#472=ORIENTED_EDGE('',*,*,#367,.T.);
#473=ORIENTED_EDGE('',*,*,#362,.T.);
#474=ORIENTED_EDGE('',*,*,#368,.F.);
#475=ORIENTED_EDGE('',*,*,#369,.T.);
#476=ORIENTED_EDGE('',*,*,#370,.T.);
#477=ORIENTED_EDGE('',*,*,#369,.F.);
#478=ORIENTED_EDGE('',*,*,#370,.F.);
#479=ORIENTED_EDGE('',*,*,#371,.F.);
#480=ORIENTED_EDGE('',*,*,#372,.T.);
#481=ORIENTED_EDGE('',*,*,#373,.F.);
#482=ORIENTED_EDGE('',*,*,#372,.F.);
#483=ORIENTED_EDGE('',*,*,#373,.T.);
#484=ORIENTED_EDGE('',*,*,#368,.T.);
#485=ORIENTED_EDGE('',*,*,#374,.T.);
#486=ORIENTED_EDGE('',*,*,#375,.T.);
#487=ORIENTED_EDGE('',*,*,#376,.F.);
#488=ORIENTED_EDGE('',*,*,#375,.F.);
#489=ORIENTED_EDGE('',*,*,#374,.F.);
#490=ORIENTED_EDGE('',*,*,#377,.T.);
#491=ORIENTED_EDGE('',*,*,#378,.T.);
#492=ORIENTED_EDGE('',*,*,#379,.F.);
#493=ORIENTED_EDGE('',*,*,#378,.F.);
#494=ORIENTED_EDGE('',*,*,#377,.F.);
#495=ORIENTED_EDGE('',*,*,#360,.F.);
#496=ORIENTED_EDGE('',*,*,#380,.F.);
#497=ORIENTED_EDGE('',*,*,#381,.F.);
#498=ORIENTED_EDGE('',*,*,#382,.T.);
#499=ORIENTED_EDGE('',*,*,#381,.T.);
#500=ORIENTED_EDGE('',*,*,#383,.T.);
#501=ORIENTED_EDGE('',*,*,#355,.T.);
#502=ORIENTED_EDGE('',*,*,#384,.T.);
#503=ORIENTED_EDGE('',*,*,#376,.T.);
#504=ORIENTED_EDGE('',*,*,#379,.T.);
#505=ORIENTED_EDGE('',*,*,#385,.T.);
#506=ORIENTED_EDGE('',*,*,#386,.T.);
#507=ORIENTED_EDGE('',*,*,#387,.T.);
#508=ORIENTED_EDGE('',*,*,#388,.F.);
#509=ORIENTED_EDGE('',*,*,#389,.T.);
#510=ORIENTED_EDGE('',*,*,#390,.F.);
#511=ORIENTED_EDGE('',*,*,#391,.F.);
#512=ORIENTED_EDGE('',*,*,#392,.T.);
#513=ORIENTED_EDGE('',*,*,#393,.T.);
#514=ORIENTED_EDGE('',*,*,#391,.T.);
#515=ORIENTED_EDGE('',*,*,#394,.T.);
#516=ORIENTED_EDGE('',*,*,#395,.T.);
#517=ORIENTED_EDGE('',*,*,#396,.T.);
#518=ORIENTED_EDGE('',*,*,#397,.T.);
#519=ORIENTED_EDGE('',*,*,#398,.T.);
#520=ORIENTED_EDGE('',*,*,#399,.T.);
#521=ORIENTED_EDGE('',*,*,#352,.T.);
#522=ORIENTED_EDGE('',*,*,#400,.F.);
#523=ORIENTED_EDGE('',*,*,#401,.F.);
#524=ORIENTED_EDGE('',*,*,#385,.F.);
#525=ORIENTED_EDGE('',*,*,#361,.F.);
#526=ORIENTED_EDGE('',*,*,#382,.F.);
#527=ORIENTED_EDGE('',*,*,#384,.F.);
#528=ORIENTED_EDGE('',*,*,#354,.T.);
#529=ORIENTED_EDGE('',*,*,#365,.T.);
#530=ORIENTED_EDGE('',*,*,#371,.T.);
#531=ORIENTED_EDGE('',*,*,#402,.F.);
#532=ORIENTED_EDGE('',*,*,#403,.F.);
#533=ORIENTED_EDGE('',*,*,#356,.F.);
#534=ORIENTED_EDGE('',*,*,#383,.F.);
#535=ORIENTED_EDGE('',*,*,#380,.T.);
#536=ORIENTED_EDGE('',*,*,#359,.F.);
#537=ORIENTED_EDGE('',*,*,#389,.F.);
#538=ORIENTED_EDGE('',*,*,#393,.F.);
#539=ORIENTED_EDGE('',*,*,#404,.F.);
#540=ORIENTED_EDGE('',*,*,#405,.T.);
#541=ORIENTED_EDGE('',*,*,#406,.T.);
#542=ORIENTED_EDGE('',*,*,#407,.F.);
#543=ORIENTED_EDGE('',*,*,#408,.T.);
#544=ORIENTED_EDGE('',*,*,#409,.T.);
#545=ORIENTED_EDGE('',*,*,#410,.F.);
#546=ORIENTED_EDGE('',*,*,#411,.F.);
#547=ORIENTED_EDGE('',*,*,#386,.F.);
#548=ORIENTED_EDGE('',*,*,#401,.T.);
#549=ORIENTED_EDGE('',*,*,#412,.T.);
#550=ORIENTED_EDGE('',*,*,#402,.T.);
#551=ORIENTED_EDGE('',*,*,#392,.F.);
#552=ORIENTED_EDGE('',*,*,#399,.F.);
#553=ORIENTED_EDGE('',*,*,#413,.F.);
#554=ORIENTED_EDGE('',*,*,#414,.T.);
#555=ORIENTED_EDGE('',*,*,#404,.T.);
#556=ORIENTED_EDGE('',*,*,#398,.F.);
#557=ORIENTED_EDGE('',*,*,#415,.F.);
#558=ORIENTED_EDGE('',*,*,#416,.F.);
#559=ORIENTED_EDGE('',*,*,#417,.T.);
#560=ORIENTED_EDGE('',*,*,#418,.T.);
#561=ORIENTED_EDGE('',*,*,#419,.T.);
#562=ORIENTED_EDGE('',*,*,#420,.T.);
#563=ORIENTED_EDGE('',*,*,#413,.T.);
#564=ORIENTED_EDGE('',*,*,#397,.F.);
#565=ORIENTED_EDGE('',*,*,#421,.T.);
#566=ORIENTED_EDGE('',*,*,#422,.T.);
#567=ORIENTED_EDGE('',*,*,#423,.F.);
#568=ORIENTED_EDGE('',*,*,#424,.T.);
#569=ORIENTED_EDGE('',*,*,#415,.T.);
#570=ORIENTED_EDGE('',*,*,#396,.F.);
#571=ORIENTED_EDGE('',*,*,#425,.F.);
#572=ORIENTED_EDGE('',*,*,#421,.F.);
#573=ORIENTED_EDGE('',*,*,#395,.F.);
#574=ORIENTED_EDGE('',*,*,#426,.F.);
#575=ORIENTED_EDGE('',*,*,#422,.F.);
#576=ORIENTED_EDGE('',*,*,#425,.T.);
#577=ORIENTED_EDGE('',*,*,#427,.T.);
#578=ORIENTED_EDGE('',*,*,#423,.T.);
#579=ORIENTED_EDGE('',*,*,#426,.T.);
#580=ORIENTED_EDGE('',*,*,#394,.F.);
#581=ORIENTED_EDGE('',*,*,#390,.T.);
#582=ORIENTED_EDGE('',*,*,#358,.T.);
#583=ORIENTED_EDGE('',*,*,#388,.T.);
#584=ORIENTED_EDGE('',*,*,#428,.T.);
#585=ORIENTED_EDGE('',*,*,#429,.T.);
#586=ORIENTED_EDGE('',*,*,#408,.F.);
#587=ORIENTED_EDGE('',*,*,#430,.F.);
#588=ORIENTED_EDGE('',*,*,#418,.F.);
#589=ORIENTED_EDGE('',*,*,#431,.F.);
#590=ORIENTED_EDGE('',*,*,#409,.F.);
#591=ORIENTED_EDGE('',*,*,#432,.T.);
#592=ORIENTED_EDGE('',*,*,#428,.F.);
#593=ORIENTED_EDGE('',*,*,#432,.F.);
#594=ORIENTED_EDGE('',*,*,#420,.F.);
#595=ORIENTED_EDGE('',*,*,#433,.F.);
#596=ORIENTED_EDGE('',*,*,#406,.F.);
#597=ORIENTED_EDGE('',*,*,#434,.T.);
#598=ORIENTED_EDGE('',*,*,#429,.F.);
#599=ORIENTED_EDGE('',*,*,#434,.F.);
#600=ORIENTED_EDGE('',*,*,#405,.F.);
#601=ORIENTED_EDGE('',*,*,#414,.F.);
#602=ORIENTED_EDGE('',*,*,#433,.T.);
#603=ORIENTED_EDGE('',*,*,#419,.F.);
#604=ORIENTED_EDGE('',*,*,#430,.T.);
#605=ORIENTED_EDGE('',*,*,#407,.T.);
#606=ORIENTED_EDGE('',*,*,#427,.F.);
#607=ORIENTED_EDGE('',*,*,#387,.F.);
#608=ORIENTED_EDGE('',*,*,#411,.T.);
#609=ORIENTED_EDGE('',*,*,#435,.F.);
#610=ORIENTED_EDGE('',*,*,#416,.T.);
#611=ORIENTED_EDGE('',*,*,#424,.F.);
#612=ORIENTED_EDGE('',*,*,#342,.T.);
#613=ORIENTED_EDGE('',*,*,#357,.T.);
#614=ORIENTED_EDGE('',*,*,#403,.T.);
#615=ORIENTED_EDGE('',*,*,#412,.F.);
#616=ORIENTED_EDGE('',*,*,#400,.T.);
#617=ORIENTED_EDGE('',*,*,#351,.T.);
#618=ORIENTED_EDGE('',*,*,#348,.T.);
#619=ORIENTED_EDGE('',*,*,#345,.T.);
#620=ORIENTED_EDGE('',*,*,#431,.T.);
#621=ORIENTED_EDGE('',*,*,#417,.F.);
#622=ORIENTED_EDGE('',*,*,#435,.T.);
#623=ORIENTED_EDGE('',*,*,#410,.T.);
#624=PLANE('',#703);
#625=PLANE('',#707);
#626=PLANE('',#711);
#627=PLANE('',#712);
#628=PLANE('',#716);
#629=PLANE('',#720);
#630=PLANE('',#724);
#631=PLANE('',#728);
#632=PLANE('',#732);
#633=PLANE('',#736);
#634=PLANE('',#737);
#635=PLANE('',#738);
#636=PLANE('',#739);
#637=PLANE('',#740);
#638=PLANE('',#741);
#639=PLANE('',#742);
#640=PLANE('',#743);
#641=PLANE('',#744);
#642=PLANE('',#749);
#643=PLANE('',#750);
#644=PLANE('',#753);
#645=PLANE('',#754);
#646=PLANE('',#758);
#647=PLANE('',#763);
#648=PLANE('',#764);
#649=PLANE('',#765);
#650=PLANE('',#766);
#651=ADVANCED_FACE('',(#34),#624,.F.);
#652=ADVANCED_FACE('',(#35),#23,.F.);
#653=ADVANCED_FACE('',(#36),#625,.T.);
#654=ADVANCED_FACE('',(#37),#24,.F.);
#655=ADVANCED_FACE('',(#38),#626,.F.);
#656=ADVANCED_FACE('',(#39),#627,.F.);
#657=ADVANCED_FACE('',(#40),#25,.F.);
#658=ADVANCED_FACE('',(#41),#628,.F.);
#659=ADVANCED_FACE('',(#42),#26,.T.);
#660=ADVANCED_FACE('',(#43,#15),#629,.T.);
#661=ADVANCED_FACE('',(#44),#27,.F.);
#662=ADVANCED_FACE('',(#45),#630,.F.);
#663=ADVANCED_FACE('',(#46),#28,.T.);
#664=ADVANCED_FACE('',(#47,#16),#631,.T.);
#665=ADVANCED_FACE('',(#48),#29,.F.);
#666=ADVANCED_FACE('',(#49),#632,.F.);
#667=ADVANCED_FACE('',(#50),#30,.F.);
#668=ADVANCED_FACE('',(#51),#633,.F.);
#669=ADVANCED_FACE('',(#52),#634,.F.);
#670=ADVANCED_FACE('',(#53,#17,#18),#635,.T.);
#671=ADVANCED_FACE('',(#54),#636,.T.);
#672=ADVANCED_FACE('',(#55),#637,.T.);
#673=ADVANCED_FACE('',(#56),#638,.F.);
#674=ADVANCED_FACE('',(#57,#19,#20),#639,.F.);
#675=ADVANCED_FACE('',(#58),#640,.F.);
#676=ADVANCED_FACE('',(#59),#641,.F.);
#677=ADVANCED_FACE('',(#60),#642,.F.);
#678=ADVANCED_FACE('',(#61),#643,.F.);
#679=ADVANCED_FACE('',(#62),#644,.F.);
#680=ADVANCED_FACE('',(#63),#645,.F.);
#681=ADVANCED_FACE('',(#64),#31,.F.);
#682=ADVANCED_FACE('',(#65,#21,#22),#646,.F.);
#683=ADVANCED_FACE('',(#66),#32,.F.);
#684=ADVANCED_FACE('',(#67),#33,.F.);
#685=ADVANCED_FACE('',(#68),#647,.F.);
#686=ADVANCED_FACE('',(#69),#648,.F.);
#687=ADVANCED_FACE('',(#70),#649,.F.);
#688=ADVANCED_FACE('',(#71),#650,.F.);
#689=CLOSED_SHELL('',(#651,#652,#653,#654,#655,#656,#657,#658,#659,#660,
#661,#662,#663,#664,#665,#666,#667,#668,#669,#670,#671,#672,#673,#674,#675,
#676,#677,#678,#679,#680,#681,#682,#683,#684,#685,#686,#687,#688));
#690=DERIVED_UNIT_ELEMENT(#692,1.);
#691=DERIVED_UNIT_ELEMENT(#1165,-3.);
#692=(
MASS_UNIT()
NAMED_UNIT(*)
SI_UNIT(.KILO.,.GRAM.)
);
#693=DERIVED_UNIT((#690,#691));
#694=MEASURE_REPRESENTATION_ITEM('density measure',
POSITIVE_RATIO_MEASURE(7850.),#693);
#695=PROPERTY_DEFINITION_REPRESENTATION(#700,#697);
#696=PROPERTY_DEFINITION_REPRESENTATION(#701,#698);
#697=REPRESENTATION('material name',(#699),#1162);
#698=REPRESENTATION('density',(#694),#1162);
#699=DESCRIPTIVE_REPRESENTATION_ITEM('Steel','Steel');
#700=PROPERTY_DEFINITION('material property','material name',#1172);
#701=PROPERTY_DEFINITION('material property','density of part',#1172);
#702=AXIS2_PLACEMENT_3D('',#965,#767,#768);
#703=AXIS2_PLACEMENT_3D('',#966,#769,#770);
#704=AXIS2_PLACEMENT_3D('',#971,#772,#773);
#705=AXIS2_PLACEMENT_3D('',#973,#775,#776);
#706=AXIS2_PLACEMENT_3D('',#977,#778,#779);
#707=AXIS2_PLACEMENT_3D('',#979,#781,#782);
#708=AXIS2_PLACEMENT_3D('',#983,#784,#785);
#709=AXIS2_PLACEMENT_3D('',#985,#787,#788);
#710=AXIS2_PLACEMENT_3D('',#989,#790,#791);
#711=AXIS2_PLACEMENT_3D('',#991,#793,#794);
#712=AXIS2_PLACEMENT_3D('',#999,#799,#800);
#713=AXIS2_PLACEMENT_3D('',#1008,#805,#806);
#714=AXIS2_PLACEMENT_3D('',#1010,#807,#808);
#715=AXIS2_PLACEMENT_3D('',#1013,#810,#811);
#716=AXIS2_PLACEMENT_3D('',#1014,#812,#813);
#717=AXIS2_PLACEMENT_3D('',#1015,#814,#815);
#718=AXIS2_PLACEMENT_3D('',#1017,#816,#817);
#719=AXIS2_PLACEMENT_3D('',#1020,#819,#820);
#720=AXIS2_PLACEMENT_3D('',#1021,#821,#822);
#721=AXIS2_PLACEMENT_3D('',#1022,#823,#824);
#722=AXIS2_PLACEMENT_3D('',#1024,#825,#826);
#723=AXIS2_PLACEMENT_3D('',#1027,#828,#829);
#724=AXIS2_PLACEMENT_3D('',#1028,#830,#831);
#725=AXIS2_PLACEMENT_3D('',#1029,#832,#833);
#726=AXIS2_PLACEMENT_3D('',#1031,#834,#835);
#727=AXIS2_PLACEMENT_3D('',#1034,#837,#838);
#728=AXIS2_PLACEMENT_3D('',#1035,#839,#840);
#729=AXIS2_PLACEMENT_3D('',#1036,#841,#842);
#730=AXIS2_PLACEMENT_3D('',#1038,#843,#844);
#731=AXIS2_PLACEMENT_3D('',#1041,#846,#847);
#732=AXIS2_PLACEMENT_3D('',#1042,#848,#849);
#733=AXIS2_PLACEMENT_3D('',#1043,#850,#851);
#734=AXIS2_PLACEMENT_3D('',#1045,#852,#853);
#735=AXIS2_PLACEMENT_3D('',#1048,#855,#856);
#736=AXIS2_PLACEMENT_3D('',#1049,#857,#858);
#737=AXIS2_PLACEMENT_3D('',#1050,#859,#860);
#738=AXIS2_PLACEMENT_3D('',#1056,#864,#865);
#739=AXIS2_PLACEMENT_3D('',#1059,#868,#869);
#740=AXIS2_PLACEMENT_3D('',#1067,#874,#875);
#741=AXIS2_PLACEMENT_3D('',#1075,#880,#881);
#742=AXIS2_PLACEMENT_3D('',#1089,#889,#890);
#743=AXIS2_PLACEMENT_3D('',#1093,#893,#894);
#744=AXIS2_PLACEMENT_3D('',#1097,#897,#898);
#745=AXIS2_PLACEMENT_3D('',#1101,#900,#901);
#746=AXIS2_PLACEMENT_3D('',#1103,#902,#903);
#747=AXIS2_PLACEMENT_3D('',#1107,#905,#906);
#748=AXIS2_PLACEMENT_3D('',#1109,#907,#908);
#749=AXIS2_PLACEMENT_3D('',#1114,#912,#913);
#750=AXIS2_PLACEMENT_3D('',#1118,#916,#917);
#751=AXIS2_PLACEMENT_3D('',#1126,#921,#922);
#752=AXIS2_PLACEMENT_3D('',#1129,#924,#925);
#753=AXIS2_PLACEMENT_3D('',#1130,#926,#927);
#754=AXIS2_PLACEMENT_3D('',#1138,#932,#933);
#755=AXIS2_PLACEMENT_3D('',#1139,#934,#935);
#756=AXIS2_PLACEMENT_3D('',#1140,#936,#937);
#757=AXIS2_PLACEMENT_3D('',#1141,#938,#939);
#758=AXIS2_PLACEMENT_3D('',#1142,#940,#941);
#759=AXIS2_PLACEMENT_3D('',#1145,#943,#944);
#760=AXIS2_PLACEMENT_3D('',#1147,#945,#946);
#761=AXIS2_PLACEMENT_3D('',#1148,#947,#948);
#762=AXIS2_PLACEMENT_3D('',#1152,#952,#953);
#763=AXIS2_PLACEMENT_3D('',#1155,#956,#957);
#764=AXIS2_PLACEMENT_3D('',#1156,#958,#959);
#765=AXIS2_PLACEMENT_3D('',#1158,#961,#962);
#766=AXIS2_PLACEMENT_3D('',#1159,#963,#964);
#767=DIRECTION('axis',(0.,0.,1.));
#768=DIRECTION('refdir',(1.,0.,0.));
#769=DIRECTION('center_axis',(0.,1.,0.));
#770=DIRECTION('ref_axis',(1.,0.,0.));
#771=DIRECTION('',(-1.,0.,0.));
#772=DIRECTION('center_axis',(0.,1.,0.));
#773=DIRECTION('ref_axis',(1.,0.,0.));
#774=DIRECTION('',(0.,0.,1.));
#775=DIRECTION('center_axis',(0.,1.,0.));
#776=DIRECTION('ref_axis',(1.,0.,0.));
#777=DIRECTION('',(0.,1.,0.));
#778=DIRECTION('center_axis',(0.,1.,0.));
#779=DIRECTION('ref_axis',(1.,0.,0.));
#780=DIRECTION('',(0.,-1.,0.));
#781=DIRECTION('center_axis',(0.,-1.,0.));
#782=DIRECTION('ref_axis',(-1.,0.,0.));
#783=DIRECTION('',(-1.,0.,0.));
#784=DIRECTION('center_axis',(0.,-1.,0.));
#785=DIRECTION('ref_axis',(1.,0.,0.));
#786=DIRECTION('',(0.,0.,1.));
#787=DIRECTION('center_axis',(0.,1.,0.));
#788=DIRECTION('ref_axis',(1.,0.,0.));
#789=DIRECTION('',(0.,1.,0.));
#790=DIRECTION('center_axis',(0.,1.,0.));
#791=DIRECTION('ref_axis',(1.,0.,0.));
#792=DIRECTION('',(0.,-1.,0.));
#793=DIRECTION('center_axis',(1.,0.,0.));
#794=DIRECTION('ref_axis',(0.,0.,-1.));
#795=DIRECTION('',(0.,0.,-1.));
#796=DIRECTION('',(0.,-1.,0.));
#797=DIRECTION('',(0.,0.,-1.));
#798=DIRECTION('',(0.,1.,0.));
#799=DIRECTION('center_axis',(0.,0.,1.));
#800=DIRECTION('ref_axis',(1.,0.,0.));
#801=DIRECTION('',(0.,-1.,0.));
#802=DIRECTION('',(1.,0.,0.));
#803=DIRECTION('',(0.,-1.,0.));
#804=DIRECTION('',(-1.,0.,0.));
#805=DIRECTION('center_axis',(0.,1.,0.));
#806=DIRECTION('ref_axis',(1.,0.,0.));
#807=DIRECTION('center_axis',(0.,1.,0.));
#808=DIRECTION('ref_axis',(1.,0.,0.));
#809=DIRECTION('',(0.,1.,0.));
#810=DIRECTION('center_axis',(0.,1.,0.));
#811=DIRECTION('ref_axis',(1.,0.,0.));
#812=DIRECTION('center_axis',(0.,1.,0.));
#813=DIRECTION('ref_axis',(1.,0.,0.));
#814=DIRECTION('center_axis',(0.,1.,0.));
#815=DIRECTION('ref_axis',(1.,0.,0.));
#816=DIRECTION('center_axis',(0.,1.,0.));
#817=DIRECTION('ref_axis',(1.,0.,0.));
#818=DIRECTION('',(0.,-1.,0.));
#819=DIRECTION('center_axis',(0.,-1.,0.));
#820=DIRECTION('ref_axis',(1.,0.,0.));
#821=DIRECTION('center_axis',(0.,-1.,0.));
#822=DIRECTION('ref_axis',(-1.,0.,0.));
#823=DIRECTION('center_axis',(0.,1.,0.));
#824=DIRECTION('ref_axis',(1.,0.,0.));
#825=DIRECTION('center_axis',(0.,1.,0.));
#826=DIRECTION('ref_axis',(1.,0.,0.));
#827=DIRECTION('',(0.,1.,0.));
#828=DIRECTION('center_axis',(0.,1.,0.));
#829=DIRECTION('ref_axis',(1.,0.,0.));
#830=DIRECTION('center_axis',(0.,1.,0.));
#831=DIRECTION('ref_axis',(1.,0.,0.));
#832=DIRECTION('center_axis',(0.,1.,0.));
#833=DIRECTION('ref_axis',(1.,0.,0.));
#834=DIRECTION('center_axis',(0.,1.,0.));
#835=DIRECTION('ref_axis',(1.,0.,0.));
#836=DIRECTION('',(0.,-1.,0.));
#837=DIRECTION('center_axis',(0.,-1.,0.));
#838=DIRECTION('ref_axis',(1.,0.,0.));
#839=DIRECTION('center_axis',(0.,-1.,0.));
#840=DIRECTION('ref_axis',(-1.,0.,0.));
#841=DIRECTION('center_axis',(0.,0.,1.));
#842=DIRECTION('ref_axis',(1.,0.,0.));
#843=DIRECTION('center_axis',(0.,0.,-1.));
#844=DIRECTION('ref_axis',(1.,0.,0.));
#845=DIRECTION('',(0.,0.,1.));
#846=DIRECTION('center_axis',(0.,0.,-1.));
#847=DIRECTION('ref_axis',(1.,0.,0.));
#848=DIRECTION('center_axis',(0.,0.,-1.));
#849=DIRECTION('ref_axis',(-1.,0.,0.));
#850=DIRECTION('center_axis',(0.,0.,1.));
#851=DIRECTION('ref_axis',(1.,0.,0.));
#852=DIRECTION('center_axis',(0.,0.,-1.));
#853=DIRECTION('ref_axis',(1.,0.,0.));
#854=DIRECTION('',(0.,0.,1.));
#855=DIRECTION('center_axis',(0.,0.,-1.));
#856=DIRECTION('ref_axis',(1.,0.,0.));
#857=DIRECTION('center_axis',(0.,0.,-1.));
#858=DIRECTION('ref_axis',(-1.,0.,0.));
#859=DIRECTION('center_axis',(-1.,0.,0.));
#860=DIRECTION('ref_axis',(0.,0.,1.));
#861=DIRECTION('',(0.,0.,-1.));
#862=DIRECTION('',(0.,1.,0.));
#863=DIRECTION('',(0.,0.,-1.));
#864=DIRECTION('center_axis',(0.,0.,1.));
#865=DIRECTION('ref_axis',(1.,0.,0.));
#866=DIRECTION('',(-1.,0.,0.));
#867=DIRECTION('',(1.,0.,0.));
#868=DIRECTION('center_axis',(0.,0.,1.));
#869=DIRECTION('ref_axis',(1.,0.,0.));
#870=DIRECTION('',(-1.,0.,0.));
#871=DIRECTION('',(0.,-1.,0.));
#872=DIRECTION('',(1.,0.,0.));
#873=DIRECTION('',(0.,-1.,0.));
#874=DIRECTION('center_axis',(0.,0.,1.));
#875=DIRECTION('ref_axis',(1.,0.,0.));
#876=DIRECTION('',(1.,0.,0.));
#877=DIRECTION('',(0.,-1.,0.));
#878=DIRECTION('',(1.,0.,0.));
#879=DIRECTION('',(0.,-1.,0.));
#880=DIRECTION('center_axis',(0.,-1.,0.));
#881=DIRECTION('ref_axis',(0.,0.,-1.));
#882=DIRECTION('',(0.,0.,1.));
#883=DIRECTION('',(0.,0.,-1.));
#884=DIRECTION('',(-1.,0.,0.));
#885=DIRECTION('',(0.,0.,-1.));
#886=DIRECTION('',(-1.,0.,0.));
#887=DIRECTION('',(0.,0.,1.));
#888=DIRECTION('',(-1.,0.,0.));
#889=DIRECTION('center_axis',(0.,1.,0.));
#890=DIRECTION('ref_axis',(0.,0.,1.));
#891=DIRECTION('',(-1.,0.,0.));
#892=DIRECTION('',(0.,0.,-1.));
#893=DIRECTION('center_axis',(0.,-1.,0.));
#894=DIRECTION('ref_axis',(0.,0.,-1.));
#895=DIRECTION('',(0.,0.,1.));
#896=DIRECTION('',(1.,0.,0.));
#897=DIRECTION('center_axis',(1.,0.,0.));
#898=DIRECTION('ref_axis',(0.,0.,-1.));
#899=DIRECTION('',(0.,1.,0.));
#900=DIRECTION('center_axis',(1.,0.,0.));
#901=DIRECTION('ref_axis',(0.,0.,-1.));
#902=DIRECTION('center_axis',(1.,0.,0.));
#903=DIRECTION('ref_axis',(0.,0.,-1.));
#904=DIRECTION('',(0.,1.,0.));
#905=DIRECTION('center_axis',(1.,0.,0.));
#906=DIRECTION('ref_axis',(0.,0.,-1.));
#907=DIRECTION('center_axis',(1.,0.,0.));
#908=DIRECTION('ref_axis',(0.,0.,-1.));
#909=DIRECTION('',(0.,1.,0.));
#910=DIRECTION('',(0.,0.,-1.));
#911=DIRECTION('',(0.,1.,0.));
#912=DIRECTION('center_axis',(0.,0.,1.));
#913=DIRECTION('ref_axis',(1.,0.,0.));
#914=DIRECTION('',(0.,1.,0.));
#915=DIRECTION('',(-1.,0.,0.));
#916=DIRECTION('center_axis',(1.,0.,0.));
#917=DIRECTION('ref_axis',(0.,0.,-1.));
#918=DIRECTION('',(0.,1.,0.));
#919=DIRECTION('',(0.,0.,-1.));
#920=DIRECTION('',(0.,1.,0.));
#921=DIRECTION('center_axis',(1.,0.,0.));
#922=DIRECTION('ref_axis',(0.,0.,-1.));
#923=DIRECTION('',(0.,1.,0.));
#924=DIRECTION('center_axis',(1.,0.,0.));
#925=DIRECTION('ref_axis',(0.,0.,-1.));
#926=DIRECTION('center_axis',(0.,0.,1.));
#927=DIRECTION('ref_axis',(1.,0.,0.));
#928=DIRECTION('',(0.,-1.,0.));
#929=DIRECTION('',(1.,0.,0.));
#930=DIRECTION('',(0.,1.,0.));
#931=DIRECTION('',(-1.,0.,0.));
#932=DIRECTION('center_axis',(-1.,0.,0.));
#933=DIRECTION('ref_axis',(0.,0.,1.));
#934=DIRECTION('center_axis',(-1.,0.,0.));
#935=DIRECTION('ref_axis',(0.,0.,-1.));
#936=DIRECTION('center_axis',(1.,0.,0.));
#937=DIRECTION('ref_axis',(0.,0.,-1.));
#938=DIRECTION('center_axis',(-1.,0.,0.));
#939=DIRECTION('ref_axis',(0.,0.,-1.));
#940=DIRECTION('center_axis',(-1.,0.,0.));
#941=DIRECTION('ref_axis',(0.,0.,1.));
#942=DIRECTION('',(0.,0.,-1.));
#943=DIRECTION('center_axis',(-1.,0.,0.));
#944=DIRECTION('ref_axis',(0.,0.,-1.));
#945=DIRECTION('center_axis',(-1.,0.,0.));
#946=DIRECTION('ref_axis',(0.,0.,-1.));
#947=DIRECTION('center_axis',(1.,0.,0.));
#948=DIRECTION('ref_axis',(0.,0.,-1.));
#949=DIRECTION('',(-1.,0.,0.));
#950=DIRECTION('',(1.,0.,0.));
#951=DIRECTION('',(1.,0.,0.));
#952=DIRECTION('center_axis',(1.,0.,0.));
#953=DIRECTION('ref_axis',(0.,0.,-1.));
#954=DIRECTION('',(1.,0.,0.));
#955=DIRECTION('',(1.,0.,0.));
#956=DIRECTION('center_axis',(0.,0.,1.));
#957=DIRECTION('ref_axis',(1.,0.,0.));
#958=DIRECTION('center_axis',(0.,1.,0.));
#959=DIRECTION('ref_axis',(0.,0.,1.));
#960=DIRECTION('',(-1.,0.,0.));
#961=DIRECTION('center_axis',(0.,0.,1.));
#962=DIRECTION('ref_axis',(1.,0.,0.));
#963=DIRECTION('center_axis',(0.,0.,1.));
#964=DIRECTION('ref_axis',(1.,0.,0.));
#965=CARTESIAN_POINT('',(0.,0.,0.));
#966=CARTESIAN_POINT('Origin',(270.,-22.,240.));
#967=CARTESIAN_POINT('',(294.271016356391,-22.,277.8935055785));
#968=CARTESIAN_POINT('',(294.,-22.,277.8935055785));
#969=CARTESIAN_POINT('',(294.,-22.,277.8935055785));
#970=CARTESIAN_POINT('',(294.,-22.,278.065732621349));
#971=CARTESIAN_POINT('Origin',(270.,-22.,240.));
#972=CARTESIAN_POINT('',(294.,-22.,270.44675278925));
#973=CARTESIAN_POINT('Origin',(270.,-24.975,240.));
#974=CARTESIAN_POINT('',(294.271016356391,-28.95,277.8935055785));
#975=CARTESIAN_POINT('',(294.271016356391,-24.975,277.8935055785));
#976=CARTESIAN_POINT('',(294.,-28.95,278.065732621349));
#977=CARTESIAN_POINT('Origin',(270.,-28.95,240.));
#978=CARTESIAN_POINT('',(294.,-24.975,278.065732621349));
#979=CARTESIAN_POINT('Origin',(270.,-28.95,240.));
#980=CARTESIAN_POINT('',(296.078386356755,-28.95,277.8935055785));
#981=CARTESIAN_POINT('',(294.,-28.95,277.8935055785));
#982=CARTESIAN_POINT('',(294.,-28.95,279.242833740697));
#983=CARTESIAN_POINT('Origin',(270.,-28.95,240.));
#984=CARTESIAN_POINT('',(294.,-28.95,270.44675278925));
#985=CARTESIAN_POINT('Origin',(270.,-29.5,240.));
#986=CARTESIAN_POINT('',(296.078386356755,-29.,277.8935055785));
#987=CARTESIAN_POINT('',(296.078386356755,-29.5,277.8935055785));
#988=CARTESIAN_POINT('',(294.,-29.,279.242833740697));
#989=CARTESIAN_POINT('Origin',(270.,-29.,240.));
#990=CARTESIAN_POINT('',(294.,-29.5,279.242833740697));
#991=CARTESIAN_POINT('Origin',(294.,-25.,300.8935055785));
#992=CARTESIAN_POINT('',(294.,-29.,323.8935055785));
#993=CARTESIAN_POINT('',(294.,-29.,300.8935055785));
#994=CARTESIAN_POINT('',(294.,-21.,323.8935055785));
#995=CARTESIAN_POINT('',(294.,-25.,323.8935055785));
#996=CARTESIAN_POINT('',(294.,-21.,277.8935055785));
#997=CARTESIAN_POINT('',(294.,-21.,300.8935055785));
#998=CARTESIAN_POINT('',(294.,-25.,277.8935055785));
#999=CARTESIAN_POINT('Origin',(329.5,-20.,279.));
#1000=CARTESIAN_POINT('',(326.5,-21.,279.));
#1001=CARTESIAN_POINT('',(326.5,-29.,279.));
#1002=CARTESIAN_POINT('',(326.5,-10.,279.));
#1003=CARTESIAN_POINT('',(342.,-21.,279.));
#1004=CARTESIAN_POINT('',(328.875,-21.,279.));
#1005=CARTESIAN_POINT('',(342.,-29.,279.));
#1006=CARTESIAN_POINT('',(342.,-12.5,279.));
#1007=CARTESIAN_POINT('',(323.75,-29.,279.));
#1008=CARTESIAN_POINT('Origin',(332.,-32.75,311.8935055785));
#1009=CARTESIAN_POINT('',(330.3,-37.,311.8935055785));
#1010=CARTESIAN_POINT('Origin',(332.,-37.,311.8935055785));
#1011=CARTESIAN_POINT('',(330.3,-26.5,311.8935055785));
#1012=CARTESIAN_POINT('',(330.3,-32.75,311.8935055785));
#1013=CARTESIAN_POINT('Origin',(332.,-26.5,311.8935055785));
#1014=CARTESIAN_POINT('Origin',(332.,-26.5,311.8935055785));
#1015=CARTESIAN_POINT('Origin',(332.,-32.75,311.8935055785));
#1016=CARTESIAN_POINT('',(327.,-29.,311.8935055785));
#1017=CARTESIAN_POINT('Origin',(332.,-29.,311.8935055785));
#1018=CARTESIAN_POINT('',(327.,-37.,311.8935055785));
#1019=CARTESIAN_POINT('',(327.,-32.75,311.8935055785));
#1020=CARTESIAN_POINT('Origin',(332.,-37.,311.8935055785));
#1021=CARTESIAN_POINT('Origin',(332.,-37.,311.8935055785));
#1022=CARTESIAN_POINT('Origin',(304.,-32.75,311.8935055785));
#1023=CARTESIAN_POINT('',(302.3,-37.,311.8935055785));
#1024=CARTESIAN_POINT('Origin',(304.,-37.,311.8935055785));
#1025=CARTESIAN_POINT('',(302.3,-26.5,311.8935055785));
#1026=CARTESIAN_POINT('',(302.3,-32.75,311.8935055785));
#1027=CARTESIAN_POINT('Origin',(304.,-26.5,311.8935055785));
#1028=CARTESIAN_POINT('Origin',(304.,-26.5,311.8935055785));
#1029=CARTESIAN_POINT('Origin',(304.,-32.75,311.8935055785));
#1030=CARTESIAN_POINT('',(299.,-29.,311.8935055785));
#1031=CARTESIAN_POINT('Origin',(304.,-29.,311.8935055785));
#1032=CARTESIAN_POINT('',(299.,-37.,311.8935055785));
#1033=CARTESIAN_POINT('',(299.,-32.75,311.8935055785));
#1034=CARTESIAN_POINT('Origin',(304.,-37.,311.8935055785));
#1035=CARTESIAN_POINT('Origin',(304.,-37.,311.8935055785));
#1036=CARTESIAN_POINT('Origin',(332.,-25.,324.8935055785));
#1037=CARTESIAN_POINT('',(329.8,-25.,314.8935055785));
#1038=CARTESIAN_POINT('Origin',(332.,-25.,314.8935055785));
#1039=CARTESIAN_POINT('',(329.8,-25.,323.8935055785));
#1040=CARTESIAN_POINT('',(329.8,-25.,324.8935055785));
#1041=CARTESIAN_POINT('Origin',(332.,-25.,323.8935055785));
#1042=CARTESIAN_POINT('Origin',(332.,-25.,314.8935055785));
#1043=CARTESIAN_POINT('Origin',(304.,-25.,324.8935055785));
#1044=CARTESIAN_POINT('',(301.8,-25.,314.8935055785));
#1045=CARTESIAN_POINT('Origin',(304.,-25.,314.8935055785));
#1046=CARTESIAN_POINT('',(301.8,-25.,323.8935055785));
#1047=CARTESIAN_POINT('',(301.8,-25.,324.8935055785));
#1048=CARTESIAN_POINT('Origin',(304.,-25.,323.8935055785));
#1049=CARTESIAN_POINT('Origin',(304.,-25.,314.8935055785));
#1050=CARTESIAN_POINT('Origin',(342.,-25.,300.8935055785));
#1051=CARTESIAN_POINT('',(342.,-21.,323.8935055785));
#1052=CARTESIAN_POINT('',(342.,-21.,300.8935055785));
#1053=CARTESIAN_POINT('',(342.,-29.,323.8935055785));
#1054=CARTESIAN_POINT('',(342.,-25.,323.8935055785));
#1055=CARTESIAN_POINT('',(342.,-29.,300.8935055785));
#1056=CARTESIAN_POINT('Origin',(318.,-25.,323.8935055785));
#1057=CARTESIAN_POINT('',(318.,-21.,323.8935055785));
#1058=CARTESIAN_POINT('',(318.,-29.,323.8935055785));
#1059=CARTESIAN_POINT('Origin',(339.75,0.,279.));
#1060=CARTESIAN_POINT('',(308.,-29.,279.));
#1061=CARTESIAN_POINT('',(328.875,-29.,279.));
#1062=CARTESIAN_POINT('',(308.,-30.,279.));
#1063=CARTESIAN_POINT('',(308.,0.,279.));
#1064=CARTESIAN_POINT('',(326.5,-30.,279.));
#1065=CARTESIAN_POINT('',(339.75,-30.,279.));
#1066=CARTESIAN_POINT('',(326.5,-10.,279.));
#1067=CARTESIAN_POINT('Origin',(339.75,0.,279.));
#1068=CARTESIAN_POINT('',(308.,-21.,279.));
#1069=CARTESIAN_POINT('',(328.875,-21.,279.));
#1070=CARTESIAN_POINT('',(326.5,0.,279.));
#1071=CARTESIAN_POINT('',(326.5,-10.,279.));
#1072=CARTESIAN_POINT('',(308.,0.,279.));
#1073=CARTESIAN_POINT('',(324.75,0.,279.));
#1074=CARTESIAN_POINT('',(308.,0.,279.));
#1075=CARTESIAN_POINT('Origin',(309.75,0.,247.5));
#1076=CARTESIAN_POINT('',(308.,0.,270.));
#1077=CARTESIAN_POINT('',(308.,0.,261.));
#1078=CARTESIAN_POINT('',(326.5,0.,267.2));
#1079=CARTESIAN_POINT('',(326.5,0.,243.75));
#1080=CARTESIAN_POINT('',(323.5,0.,267.2));
#1081=CARTESIAN_POINT('',(325.3,0.,267.2));
#1082=CARTESIAN_POINT('',(323.5,0.,264.));
#1083=CARTESIAN_POINT('',(323.5,0.,255.75));
#1084=CARTESIAN_POINT('',(312.,0.,264.));
#1085=CARTESIAN_POINT('',(325.875,0.,264.));
#1086=CARTESIAN_POINT('',(312.,0.,270.));
#1087=CARTESIAN_POINT('',(312.,0.,258.25));
#1088=CARTESIAN_POINT('',(324.75,0.,270.));
#1089=CARTESIAN_POINT('Origin',(318.,-29.,300.8935055785));
#1090=CARTESIAN_POINT('',(308.,-29.,277.8935055785));
#1091=CARTESIAN_POINT('',(318.,-29.,277.8935055785));
#1092=CARTESIAN_POINT('',(308.,-29.,287.69675278925));
#1093=CARTESIAN_POINT('Origin',(318.,-21.,300.8935055785));
#1094=CARTESIAN_POINT('',(308.,-21.,277.8935055785));
#1095=CARTESIAN_POINT('',(308.,-21.,287.69675278925));
#1096=CARTESIAN_POINT('',(318.,-21.,277.8935055785));
#1097=CARTESIAN_POINT('Origin',(308.,0.,274.5));
#1098=CARTESIAN_POINT('',(308.,-7.75,270.));
#1099=CARTESIAN_POINT('',(308.,0.,270.));
#1100=CARTESIAN_POINT('',(308.,-10.,272.25));
#1101=CARTESIAN_POINT('Origin',(308.,-10.,270.));
#1102=CARTESIAN_POINT('',(308.,-12.25,270.));
#1103=CARTESIAN_POINT('Origin',(308.,-10.,270.));
#1104=CARTESIAN_POINT('',(308.,-20.75,270.));
#1105=CARTESIAN_POINT('',(308.,0.,270.));
#1106=CARTESIAN_POINT('',(308.,-23.,272.25));
#1107=CARTESIAN_POINT('Origin',(308.,-23.,270.));
#1108=CARTESIAN_POINT('',(308.,-25.25,270.));
#1109=CARTESIAN_POINT('Origin',(308.,-23.,270.));
#1110=CARTESIAN_POINT('',(308.,-30.,270.));
#1111=CARTESIAN_POINT('',(308.,0.,270.));
#1112=CARTESIAN_POINT('',(308.,-30.,274.5));
#1113=CARTESIAN_POINT('',(308.,-12.5,277.8935055785));
#1114=CARTESIAN_POINT('Origin',(339.75,0.,270.));
#1115=CARTESIAN_POINT('',(312.,-7.75,270.));
#1116=CARTESIAN_POINT('',(312.,0.,270.));
#1117=CARTESIAN_POINT('',(336.,-7.75,270.));
#1118=CARTESIAN_POINT('Origin',(312.,0.,269.));
#1119=CARTESIAN_POINT('',(312.,-30.,264.));
#1120=CARTESIAN_POINT('',(312.,0.,264.));
#1121=CARTESIAN_POINT('',(312.,-30.,270.));
#1122=CARTESIAN_POINT('',(312.,-30.,269.));
#1123=CARTESIAN_POINT('',(312.,-25.25,270.));
#1124=CARTESIAN_POINT('',(312.,0.,270.));
#1125=CARTESIAN_POINT('',(312.,-20.75,270.));
#1126=CARTESIAN_POINT('Origin',(312.,-23.,270.));
#1127=CARTESIAN_POINT('',(312.,-12.25,270.));
#1128=CARTESIAN_POINT('',(312.,0.,270.));
#1129=CARTESIAN_POINT('Origin',(312.,-10.,270.));
#1130=CARTESIAN_POINT('Origin',(342.,0.,264.));
#1131=CARTESIAN_POINT('',(323.5,-3.2,264.));
#1132=CARTESIAN_POINT('',(323.5,7.34788079488412E-16,264.));
#1133=CARTESIAN_POINT('',(326.5,-3.2,264.));
#1134=CARTESIAN_POINT('',(325.3,-3.2,264.));
#1135=CARTESIAN_POINT('',(326.5,-30.,264.));
#1136=CARTESIAN_POINT('',(326.5,-10.,264.));
#1137=CARTESIAN_POINT('',(342.,-30.,264.));
#1138=CARTESIAN_POINT('Origin',(323.5,1.46957615897682E-15,264.));
#1139=CARTESIAN_POINT('Origin',(323.5,1.46957615897682E-15,264.));
#1140=CARTESIAN_POINT('Origin',(325.3,1.46957615897682E-15,264.));
#1141=CARTESIAN_POINT('Origin',(326.5,1.46957615897682E-15,264.));
#1142=CARTESIAN_POINT('Origin',(326.5,0.,240.));
#1143=CARTESIAN_POINT('',(326.5,-30.,255.));
#1144=CARTESIAN_POINT('',(326.5,-23.,272.25));
#1145=CARTESIAN_POINT('Origin',(326.5,-23.,270.));
#1146=CARTESIAN_POINT('',(326.5,-10.,272.25));
#1147=CARTESIAN_POINT('Origin',(326.5,-10.,270.));
#1148=CARTESIAN_POINT('Origin',(336.,-23.,270.));
#1149=CARTESIAN_POINT('',(336.,-20.75,270.));
#1150=CARTESIAN_POINT('',(336.,-25.25,270.));
#1151=CARTESIAN_POINT('',(336.,-23.,272.25));
#1152=CARTESIAN_POINT('Origin',(336.,-10.,270.));
#1153=CARTESIAN_POINT('',(336.,-12.25,270.));
#1154=CARTESIAN_POINT('',(336.,-10.,272.25));
#1155=CARTESIAN_POINT('Origin',(339.75,0.,270.));
#1156=CARTESIAN_POINT('Origin',(342.,-30.,269.));
#1157=CARTESIAN_POINT('',(339.75,-30.,270.));
#1158=CARTESIAN_POINT('Origin',(318.,-25.,277.8935055785));
#1159=CARTESIAN_POINT('Origin',(339.75,0.,270.));
#1160=UNCERTAINTY_MEASURE_WITH_UNIT(LENGTH_MEASURE(0.01),#1164,
'DISTANCE_ACCURACY_VALUE',
'Maximum model space distance between geometric entities at asserted c
onnectivities');
#1161=UNCERTAINTY_MEASURE_WITH_UNIT(LENGTH_MEASURE(0.01),#1164,
'DISTANCE_ACCURACY_VALUE',
'Maximum model space distance between geometric entities at asserted c
onnectivities');
#1162=(
GEOMETRIC_REPRESENTATION_CONTEXT(3)
GLOBAL_UNCERTAINTY_ASSIGNED_CONTEXT((#1160))
GLOBAL_UNIT_ASSIGNED_CONTEXT((#1164,#1166,#1167))
REPRESENTATION_CONTEXT('','3D')
);
#1163=(
GEOMETRIC_REPRESENTATION_CONTEXT(3)
GLOBAL_UNCERTAINTY_ASSIGNED_CONTEXT((#1161))
GLOBAL_UNIT_ASSIGNED_CONTEXT((#1164,#1166,#1167))
REPRESENTATION_CONTEXT('','3D')
);
#1164=(
LENGTH_UNIT()
NAMED_UNIT(*)
SI_UNIT(.MILLI.,.METRE.)
);
#1165=(
LENGTH_UNIT()
NAMED_UNIT(*)
SI_UNIT($,.METRE.)
);
#1166=(
NAMED_UNIT(*)
PLANE_ANGLE_UNIT()
SI_UNIT($,.RADIAN.)
);
#1167=(
NAMED_UNIT(*)
SI_UNIT($,.STERADIAN.)
SOLID_ANGLE_UNIT()
);
#1168=SHAPE_DEFINITION_REPRESENTATION(#1169,#1170);
#1169=PRODUCT_DEFINITION_SHAPE('',$,#1172);
#1170=SHAPE_REPRESENTATION('',(#702),#1162);
#1171=PRODUCT_DEFINITION_CONTEXT('part definition',#1176,'design');
#1172=PRODUCT_DEFINITION('2026-09-30-14-21-10-564',
'EXPORT_TMP_PRINT_V015_P304E_PG19Carrier_Rear_NegY',#1173,#1171);
#1173=PRODUCT_DEFINITION_FORMATION('',$,#1178);
#1174=PRODUCT_RELATED_PRODUCT_CATEGORY(
'EXPORT_TMP_PRINT_V015_P304E_PG19Carrier_Rear_NegY',
'EXPORT_TMP_PRINT_V015_P304E_PG19Carrier_Rear_NegY',(#1178));
#1175=APPLICATION_PROTOCOL_DEFINITION('international standard',
'automotive_design',2009,#1176);
#1176=APPLICATION_CONTEXT(
'Core Data for Automotive Mechanical Design Process');
#1177=PRODUCT_CONTEXT('part definition',#1176,'mechanical');
#1178=PRODUCT('2026-09-30-14-21-10-564',
'EXPORT_TMP_PRINT_V015_P304E_PG19Carrier_Rear_NegY',$,(#1177));
#1179=PRESENTATION_STYLE_ASSIGNMENT((#1180));
#1180=SURFACE_STYLE_USAGE(.BOTH.,#1181);
#1181=SURFACE_SIDE_STYLE('',(#1182));
#1182=SURFACE_STYLE_FILL_AREA(#1183);
#1183=FILL_AREA_STYLE('Steel - Satin',(#1184));
#1184=FILL_AREA_STYLE_COLOUR('Steel - Satin',#1185);
#1185=COLOUR_RGB('Steel - Satin',0.627450980392157,0.627450980392157,0.627450980392157);
ENDSEC;
END-ISO-10303-21;
