ISO-10303-21;
HEADER;
/* Generated by software containing ST-Developer
 * from STEP Tools, Inc. (www.steptools.com) 
 */

FILE_DESCRIPTION(
/* description */ (''),
/* implementation_level */ '2;1');

FILE_NAME(
/* name */ 'PRINT_V015_P304F_PG19Carrier_Front_PosY.step',
/* time_stamp */ '2026-08-17T10:01:18+02:00',
/* author */ (''),
/* organization */ (''),
/* preprocessor_version */ 'ST-DEVELOPER v20.1',
/* originating_system */ 'Autodesk Translation Framework v15.8.0.0',
/* authorisation */ '');

FILE_SCHEMA (('AUTOMOTIVE_DESIGN { 1 0 10303 214 3 1 1 }'));
ENDSEC;

DATA;
#10=MECHANICAL_DESIGN_GEOMETRIC_PRESENTATION_REPRESENTATION('',(#13),#954);
#11=SHAPE_REPRESENTATION_RELATIONSHIP('SRR','None',#961,#12);
#12=ADVANCED_BREP_SHAPE_REPRESENTATION('',(#14),#953);
#13=STYLED_ITEM('',(#970),#14);
#14=MANIFOLD_SOLID_BREP('PRINT_V015_P304F_PG19Carrier_Front_PosY',#580);
#15=FACE_BOUND('',#90,.T.);
#16=FACE_BOUND('',#91,.T.);
#17=FACE_BOUND('',#98,.T.);
#18=FACE_BOUND('',#99,.T.);
#19=FACE_BOUND('',#102,.T.);
#20=FACE_BOUND('',#103,.T.);
#21=FACE_BOUND('',#107,.T.);
#22=FACE_BOUND('',#108,.T.);
#23=CIRCLE('',#598,2.7);
#24=CIRCLE('',#599,2.7);
#25=CIRCLE('',#601,2.7);
#26=CIRCLE('',#602,2.7);
#27=CIRCLE('',#606,2.7);
#28=CIRCLE('',#607,2.7);
#29=CIRCLE('',#617,3.2);
#30=CIRCLE('',#618,2.25);
#31=CIRCLE('',#619,2.25);
#32=CIRCLE('',#621,3.2);
#33=CIRCLE('',#623,2.25);
#34=CIRCLE('',#628,2.7);
#35=CIRCLE('',#630,2.25);
#36=CIRCLE('',#633,2.7);
#37=CYLINDRICAL_SURFACE('',#597,2.7);
#38=CYLINDRICAL_SURFACE('',#600,2.7);
#39=CYLINDRICAL_SURFACE('',#605,2.7);
#40=CYLINDRICAL_SURFACE('',#620,3.2);
#41=CYLINDRICAL_SURFACE('',#622,2.25);
#42=CYLINDRICAL_SURFACE('',#629,2.25);
#43=CYLINDRICAL_SURFACE('',#632,2.7);
#44=FACE_OUTER_BOUND('',#73,.T.);
#45=FACE_OUTER_BOUND('',#74,.T.);
#46=FACE_OUTER_BOUND('',#75,.T.);
#47=FACE_OUTER_BOUND('',#76,.T.);
#48=FACE_OUTER_BOUND('',#77,.T.);
#49=FACE_OUTER_BOUND('',#78,.T.);
#50=FACE_OUTER_BOUND('',#79,.T.);
#51=FACE_OUTER_BOUND('',#80,.T.);
#52=FACE_OUTER_BOUND('',#81,.T.);
#53=FACE_OUTER_BOUND('',#82,.T.);
#54=FACE_OUTER_BOUND('',#83,.T.);
#55=FACE_OUTER_BOUND('',#84,.T.);
#56=FACE_OUTER_BOUND('',#85,.T.);
#57=FACE_OUTER_BOUND('',#86,.T.);
#58=FACE_OUTER_BOUND('',#87,.T.);
#59=FACE_OUTER_BOUND('',#88,.T.);
#60=FACE_OUTER_BOUND('',#89,.T.);
#61=FACE_OUTER_BOUND('',#92,.T.);
#62=FACE_OUTER_BOUND('',#93,.T.);
#63=FACE_OUTER_BOUND('',#94,.T.);
#64=FACE_OUTER_BOUND('',#95,.T.);
#65=FACE_OUTER_BOUND('',#96,.T.);
#66=FACE_OUTER_BOUND('',#97,.T.);
#67=FACE_OUTER_BOUND('',#100,.T.);
#68=FACE_OUTER_BOUND('',#101,.T.);
#69=FACE_OUTER_BOUND('',#104,.T.);
#70=FACE_OUTER_BOUND('',#105,.T.);
#71=FACE_OUTER_BOUND('',#106,.T.);
#72=FACE_OUTER_BOUND('',#109,.T.);
#73=EDGE_LOOP('',(#371,#372,#373,#374));
#74=EDGE_LOOP('',(#375,#376,#377,#378));
#75=EDGE_LOOP('',(#379,#380,#381,#382));
#76=EDGE_LOOP('',(#383,#384,#385,#386));
#77=EDGE_LOOP('',(#387,#388,#389,#390));
#78=EDGE_LOOP('',(#391,#392,#393,#394));
#79=EDGE_LOOP('',(#395,#396,#397,#398));
#80=EDGE_LOOP('',(#399,#400,#401,#402));
#81=EDGE_LOOP('',(#403,#404,#405,#406,#407));
#82=EDGE_LOOP('',(#408,#409,#410,#411));
#83=EDGE_LOOP('',(#412,#413,#414,#415));
#84=EDGE_LOOP('',(#416,#417,#418,#419,#420,#421));
#85=EDGE_LOOP('',(#422,#423,#424,#425));
#86=EDGE_LOOP('',(#426,#427,#428,#429,#430,#431));
#87=EDGE_LOOP('',(#432,#433,#434,#435));
#88=EDGE_LOOP('',(#436,#437,#438,#439));
#89=EDGE_LOOP('',(#440,#441,#442,#443,#444));
#90=EDGE_LOOP('',(#445));
#91=EDGE_LOOP('',(#446));
#92=EDGE_LOOP('',(#447,#448,#449,#450));
#93=EDGE_LOOP('',(#451,#452,#453,#454));
#94=EDGE_LOOP('',(#455,#456,#457,#458));
#95=EDGE_LOOP('',(#459,#460,#461,#462,#463));
#96=EDGE_LOOP('',(#464,#465,#466,#467));
#97=EDGE_LOOP('',(#468,#469,#470,#471,#472,#473,#474,#475));
#98=EDGE_LOOP('',(#476,#477,#478,#479));
#99=EDGE_LOOP('',(#480,#481,#482,#483));
#100=EDGE_LOOP('',(#484,#485,#486,#487));
#101=EDGE_LOOP('',(#488,#489,#490,#491,#492,#493,#494,#495,#496,#497));
#102=EDGE_LOOP('',(#498));
#103=EDGE_LOOP('',(#499));
#104=EDGE_LOOP('',(#500,#501,#502,#503));
#105=EDGE_LOOP('',(#504,#505,#506,#507));
#106=EDGE_LOOP('',(#508,#509,#510,#511,#512,#513));
#107=EDGE_LOOP('',(#514,#515,#516,#517));
#108=EDGE_LOOP('',(#518,#519,#520,#521));
#109=EDGE_LOOP('',(#522,#523,#524,#525,#526,#527,#528));
#110=LINE('',#794,#175);
#111=LINE('',#796,#176);
#112=LINE('',#798,#177);
#113=LINE('',#799,#178);
#114=LINE('',#803,#179);
#115=LINE('',#805,#180);
#116=LINE('',#807,#181);
#117=LINE('',#808,#182);
#118=LINE('',#812,#183);
#119=LINE('',#814,#184);
#120=LINE('',#816,#185);
#121=LINE('',#817,#186);
#122=LINE('',#827,#187);
#123=LINE('',#829,#188);
#124=LINE('',#831,#189);
#125=LINE('',#832,#190);
#126=LINE('',#836,#191);
#127=LINE('',#838,#192);
#128=LINE('',#840,#193);
#129=LINE('',#841,#194);
#130=LINE('',#847,#195);
#131=LINE('',#849,#196);
#132=LINE('',#851,#197);
#133=LINE('',#852,#198);
#134=LINE('',#856,#199);
#135=LINE('',#857,#200);
#136=LINE('',#858,#201);
#137=LINE('',#862,#202);
#138=LINE('',#864,#203);
#139=LINE('',#866,#204);
#140=LINE('',#867,#205);
#141=LINE('',#869,#206);
#142=LINE('',#870,#207);
#143=LINE('',#873,#208);
#144=LINE('',#875,#209);
#145=LINE('',#876,#210);
#146=LINE('',#879,#211);
#147=LINE('',#881,#212);
#148=LINE('',#883,#213);
#149=LINE('',#885,#214);
#150=LINE('',#886,#215);
#151=LINE('',#889,#216);
#152=LINE('',#891,#217);
#153=LINE('',#892,#218);
#154=LINE('',#895,#219);
#155=LINE('',#897,#220);
#156=LINE('',#898,#221);
#157=LINE('',#903,#222);
#158=LINE('',#904,#223);
#159=LINE('',#912,#224);
#160=LINE('',#916,#225);
#161=LINE('',#919,#226);
#162=LINE('',#920,#227);
#163=LINE('',#923,#228);
#164=LINE('',#924,#229);
#165=LINE('',#927,#230);
#166=LINE('',#929,#231);
#167=LINE('',#930,#232);
#168=LINE('',#932,#233);
#169=LINE('',#934,#234);
#170=LINE('',#935,#235);
#171=LINE('',#940,#236);
#172=LINE('',#943,#237);
#173=LINE('',#944,#238);
#174=LINE('',#948,#239);
#175=VECTOR('',#641,10.);
#176=VECTOR('',#642,10.);
#177=VECTOR('',#643,10.);
#178=VECTOR('',#644,10.);
#179=VECTOR('',#647,10.);
#180=VECTOR('',#648,10.);
#181=VECTOR('',#649,10.);
#182=VECTOR('',#650,10.);
#183=VECTOR('',#653,10.);
#184=VECTOR('',#654,10.);
#185=VECTOR('',#655,10.);
#186=VECTOR('',#656,10.);
#187=VECTOR('',#671,10.);
#188=VECTOR('',#672,10.);
#189=VECTOR('',#673,10.);
#190=VECTOR('',#674,10.);
#191=VECTOR('',#677,10.);
#192=VECTOR('',#678,10.);
#193=VECTOR('',#679,10.);
#194=VECTOR('',#680,10.);
#195=VECTOR('',#689,10.);
#196=VECTOR('',#690,10.);
#197=VECTOR('',#691,10.);
#198=VECTOR('',#692,10.);
#199=VECTOR('',#695,10.);
#200=VECTOR('',#696,10.);
#201=VECTOR('',#697,10.);
#202=VECTOR('',#700,10.);
#203=VECTOR('',#701,10.);
#204=VECTOR('',#702,10.);
#205=VECTOR('',#703,10.);
#206=VECTOR('',#706,10.);
#207=VECTOR('',#707,10.);
#208=VECTOR('',#710,10.);
#209=VECTOR('',#711,10.);
#210=VECTOR('',#712,10.);
#211=VECTOR('',#715,10.);
#212=VECTOR('',#716,10.);
#213=VECTOR('',#717,10.);
#214=VECTOR('',#718,10.);
#215=VECTOR('',#719,10.);
#216=VECTOR('',#722,10.);
#217=VECTOR('',#723,10.);
#218=VECTOR('',#724,10.);
#219=VECTOR('',#727,10.);
#220=VECTOR('',#728,10.);
#221=VECTOR('',#729,10.);
#222=VECTOR('',#734,10.);
#223=VECTOR('',#735,10.);
#224=VECTOR('',#744,10.);
#225=VECTOR('',#749,2.25);
#226=VECTOR('',#752,10.);
#227=VECTOR('',#753,10.);
#228=VECTOR('',#756,10.);
#229=VECTOR('',#757,10.);
#230=VECTOR('',#760,10.);
#231=VECTOR('',#761,10.);
#232=VECTOR('',#762,10.);
#233=VECTOR('',#765,10.);
#234=VECTOR('',#766,10.);
#235=VECTOR('',#767,10.);
#236=VECTOR('',#774,2.25);
#237=VECTOR('',#777,10.);
#238=VECTOR('',#778,10.);
#239=VECTOR('',#785,10.);
#240=VERTEX_POINT('',#792);
#241=VERTEX_POINT('',#793);
#242=VERTEX_POINT('',#795);
#243=VERTEX_POINT('',#797);
#244=VERTEX_POINT('',#801);
#245=VERTEX_POINT('',#802);
#246=VERTEX_POINT('',#804);
#247=VERTEX_POINT('',#806);
#248=VERTEX_POINT('',#810);
#249=VERTEX_POINT('',#811);
#250=VERTEX_POINT('',#813);
#251=VERTEX_POINT('',#815);
#252=VERTEX_POINT('',#825);
#253=VERTEX_POINT('',#826);
#254=VERTEX_POINT('',#828);
#255=VERTEX_POINT('',#830);
#256=VERTEX_POINT('',#834);
#257=VERTEX_POINT('',#835);
#258=VERTEX_POINT('',#837);
#259=VERTEX_POINT('',#839);
#260=VERTEX_POINT('',#846);
#261=VERTEX_POINT('',#848);
#262=VERTEX_POINT('',#850);
#263=VERTEX_POINT('',#854);
#264=VERTEX_POINT('',#855);
#265=VERTEX_POINT('',#860);
#266=VERTEX_POINT('',#861);
#267=VERTEX_POINT('',#863);
#268=VERTEX_POINT('',#865);
#269=VERTEX_POINT('',#872);
#270=VERTEX_POINT('',#874);
#271=VERTEX_POINT('',#878);
#272=VERTEX_POINT('',#880);
#273=VERTEX_POINT('',#882);
#274=VERTEX_POINT('',#884);
#275=VERTEX_POINT('',#888);
#276=VERTEX_POINT('',#890);
#277=VERTEX_POINT('',#894);
#278=VERTEX_POINT('',#896);
#279=VERTEX_POINT('',#900);
#280=VERTEX_POINT('',#902);
#281=VERTEX_POINT('',#905);
#282=VERTEX_POINT('',#907);
#283=VERTEX_POINT('',#910);
#284=VERTEX_POINT('',#914);
#285=VERTEX_POINT('',#918);
#286=VERTEX_POINT('',#922);
#287=VERTEX_POINT('',#926);
#288=VERTEX_POINT('',#928);
#289=VERTEX_POINT('',#933);
#290=VERTEX_POINT('',#938);
#291=VERTEX_POINT('',#942);
#292=EDGE_CURVE('',#240,#241,#110,.T.);
#293=EDGE_CURVE('',#240,#242,#111,.T.);
#294=EDGE_CURVE('',#242,#243,#112,.T.);
#295=EDGE_CURVE('',#243,#241,#113,.T.);
#296=EDGE_CURVE('',#244,#245,#114,.T.);
#297=EDGE_CURVE('',#246,#244,#115,.T.);
#298=EDGE_CURVE('',#247,#246,#116,.T.);
#299=EDGE_CURVE('',#245,#247,#117,.T.);
#300=EDGE_CURVE('',#248,#249,#118,.T.);
#301=EDGE_CURVE('',#250,#248,#119,.T.);
#302=EDGE_CURVE('',#251,#250,#120,.T.);
#303=EDGE_CURVE('',#249,#251,#121,.T.);
#304=EDGE_CURVE('',#245,#251,#23,.T.);
#305=EDGE_CURVE('',#249,#247,#24,.T.);
#306=EDGE_CURVE('',#246,#248,#25,.T.);
#307=EDGE_CURVE('',#250,#244,#26,.T.);
#308=EDGE_CURVE('',#252,#253,#122,.T.);
#309=EDGE_CURVE('',#254,#252,#123,.T.);
#310=EDGE_CURVE('',#255,#254,#124,.T.);
#311=EDGE_CURVE('',#253,#255,#125,.T.);
#312=EDGE_CURVE('',#256,#257,#126,.T.);
#313=EDGE_CURVE('',#258,#256,#127,.T.);
#314=EDGE_CURVE('',#259,#258,#128,.T.);
#315=EDGE_CURVE('',#257,#259,#129,.T.);
#316=EDGE_CURVE('',#253,#259,#27,.T.);
#317=EDGE_CURVE('',#257,#255,#28,.T.);
#318=EDGE_CURVE('',#260,#240,#130,.T.);
#319=EDGE_CURVE('',#261,#260,#131,.T.);
#320=EDGE_CURVE('',#262,#261,#132,.T.);
#321=EDGE_CURVE('',#262,#242,#133,.T.);
#322=EDGE_CURVE('',#263,#264,#134,.T.);
#323=EDGE_CURVE('',#263,#262,#135,.T.);
#324=EDGE_CURVE('',#261,#264,#136,.T.);
#325=EDGE_CURVE('',#265,#266,#137,.T.);
#326=EDGE_CURVE('',#266,#267,#138,.T.);
#327=EDGE_CURVE('',#267,#268,#139,.T.);
#328=EDGE_CURVE('',#268,#265,#140,.T.);
#329=EDGE_CURVE('',#268,#263,#141,.T.);
#330=EDGE_CURVE('',#267,#243,#142,.T.);
#331=EDGE_CURVE('',#269,#240,#143,.T.);
#332=EDGE_CURVE('',#270,#269,#144,.T.);
#333=EDGE_CURVE('',#270,#260,#145,.T.);
#334=EDGE_CURVE('',#271,#270,#146,.T.);
#335=EDGE_CURVE('',#269,#272,#147,.T.);
#336=EDGE_CURVE('',#272,#273,#148,.T.);
#337=EDGE_CURVE('',#273,#274,#149,.T.);
#338=EDGE_CURVE('',#274,#271,#150,.T.);
#339=EDGE_CURVE('',#265,#275,#151,.T.);
#340=EDGE_CURVE('',#276,#275,#152,.T.);
#341=EDGE_CURVE('',#266,#276,#153,.T.);
#342=EDGE_CURVE('',#274,#277,#154,.T.);
#343=EDGE_CURVE('',#277,#278,#155,.T.);
#344=EDGE_CURVE('',#278,#271,#156,.T.);
#345=EDGE_CURVE('',#273,#279,#29,.T.);
#346=EDGE_CURVE('',#280,#279,#157,.T.);
#347=EDGE_CURVE('',#277,#280,#158,.T.);
#348=EDGE_CURVE('',#281,#281,#30,.T.);
#349=EDGE_CURVE('',#282,#282,#31,.T.);
#350=EDGE_CURVE('',#283,#272,#32,.T.);
#351=EDGE_CURVE('',#279,#283,#159,.T.);
#352=EDGE_CURVE('',#284,#284,#33,.T.);
#353=EDGE_CURVE('',#284,#281,#160,.T.);
#354=EDGE_CURVE('',#285,#283,#161,.T.);
#355=EDGE_CURVE('',#285,#280,#162,.T.);
#356=EDGE_CURVE('',#286,#285,#163,.T.);
#357=EDGE_CURVE('',#286,#278,#164,.T.);
#358=EDGE_CURVE('',#287,#286,#165,.T.);
#359=EDGE_CURVE('',#288,#287,#166,.T.);
#360=EDGE_CURVE('',#288,#278,#167,.T.);
#361=EDGE_CURVE('',#264,#288,#168,.T.);
#362=EDGE_CURVE('',#289,#287,#169,.T.);
#363=EDGE_CURVE('',#275,#289,#170,.T.);
#364=EDGE_CURVE('',#258,#252,#34,.T.);
#365=EDGE_CURVE('',#290,#290,#35,.T.);
#366=EDGE_CURVE('',#290,#282,#171,.T.);
#367=EDGE_CURVE('',#241,#291,#172,.T.);
#368=EDGE_CURVE('',#291,#289,#173,.T.);
#369=EDGE_CURVE('',#254,#256,#36,.T.);
#370=EDGE_CURVE('',#291,#276,#174,.T.);
#371=ORIENTED_EDGE('',*,*,#292,.F.);
#372=ORIENTED_EDGE('',*,*,#293,.T.);
#373=ORIENTED_EDGE('',*,*,#294,.T.);
#374=ORIENTED_EDGE('',*,*,#295,.T.);
#375=ORIENTED_EDGE('',*,*,#296,.F.);
#376=ORIENTED_EDGE('',*,*,#297,.F.);
#377=ORIENTED_EDGE('',*,*,#298,.F.);
#378=ORIENTED_EDGE('',*,*,#299,.F.);
#379=ORIENTED_EDGE('',*,*,#300,.F.);
#380=ORIENTED_EDGE('',*,*,#301,.F.);
#381=ORIENTED_EDGE('',*,*,#302,.F.);
#382=ORIENTED_EDGE('',*,*,#303,.F.);
#383=ORIENTED_EDGE('',*,*,#303,.T.);
#384=ORIENTED_EDGE('',*,*,#304,.F.);
#385=ORIENTED_EDGE('',*,*,#299,.T.);
#386=ORIENTED_EDGE('',*,*,#305,.F.);
#387=ORIENTED_EDGE('',*,*,#301,.T.);
#388=ORIENTED_EDGE('',*,*,#306,.F.);
#389=ORIENTED_EDGE('',*,*,#297,.T.);
#390=ORIENTED_EDGE('',*,*,#307,.F.);
#391=ORIENTED_EDGE('',*,*,#308,.F.);
#392=ORIENTED_EDGE('',*,*,#309,.F.);
#393=ORIENTED_EDGE('',*,*,#310,.F.);
#394=ORIENTED_EDGE('',*,*,#311,.F.);
#395=ORIENTED_EDGE('',*,*,#312,.F.);
#396=ORIENTED_EDGE('',*,*,#313,.F.);
#397=ORIENTED_EDGE('',*,*,#314,.F.);
#398=ORIENTED_EDGE('',*,*,#315,.F.);
#399=ORIENTED_EDGE('',*,*,#315,.T.);
#400=ORIENTED_EDGE('',*,*,#316,.F.);
#401=ORIENTED_EDGE('',*,*,#311,.T.);
#402=ORIENTED_EDGE('',*,*,#317,.F.);
#403=ORIENTED_EDGE('',*,*,#318,.F.);
#404=ORIENTED_EDGE('',*,*,#319,.F.);
#405=ORIENTED_EDGE('',*,*,#320,.F.);
#406=ORIENTED_EDGE('',*,*,#321,.T.);
#407=ORIENTED_EDGE('',*,*,#293,.F.);
#408=ORIENTED_EDGE('',*,*,#322,.F.);
#409=ORIENTED_EDGE('',*,*,#323,.T.);
#410=ORIENTED_EDGE('',*,*,#320,.T.);
#411=ORIENTED_EDGE('',*,*,#324,.T.);
#412=ORIENTED_EDGE('',*,*,#325,.T.);
#413=ORIENTED_EDGE('',*,*,#326,.T.);
#414=ORIENTED_EDGE('',*,*,#327,.T.);
#415=ORIENTED_EDGE('',*,*,#328,.T.);
#416=ORIENTED_EDGE('',*,*,#294,.F.);
#417=ORIENTED_EDGE('',*,*,#321,.F.);
#418=ORIENTED_EDGE('',*,*,#323,.F.);
#419=ORIENTED_EDGE('',*,*,#329,.F.);
#420=ORIENTED_EDGE('',*,*,#327,.F.);
#421=ORIENTED_EDGE('',*,*,#330,.T.);
#422=ORIENTED_EDGE('',*,*,#318,.T.);
#423=ORIENTED_EDGE('',*,*,#331,.F.);
#424=ORIENTED_EDGE('',*,*,#332,.F.);
#425=ORIENTED_EDGE('',*,*,#333,.T.);
#426=ORIENTED_EDGE('',*,*,#334,.T.);
#427=ORIENTED_EDGE('',*,*,#332,.T.);
#428=ORIENTED_EDGE('',*,*,#335,.T.);
#429=ORIENTED_EDGE('',*,*,#336,.T.);
#430=ORIENTED_EDGE('',*,*,#337,.T.);
#431=ORIENTED_EDGE('',*,*,#338,.T.);
#432=ORIENTED_EDGE('',*,*,#339,.T.);
#433=ORIENTED_EDGE('',*,*,#340,.F.);
#434=ORIENTED_EDGE('',*,*,#341,.F.);
#435=ORIENTED_EDGE('',*,*,#325,.F.);
#436=ORIENTED_EDGE('',*,*,#338,.F.);
#437=ORIENTED_EDGE('',*,*,#342,.T.);
#438=ORIENTED_EDGE('',*,*,#343,.T.);
#439=ORIENTED_EDGE('',*,*,#344,.T.);
#440=ORIENTED_EDGE('',*,*,#337,.F.);
#441=ORIENTED_EDGE('',*,*,#345,.T.);
#442=ORIENTED_EDGE('',*,*,#346,.F.);
#443=ORIENTED_EDGE('',*,*,#347,.F.);
#444=ORIENTED_EDGE('',*,*,#342,.F.);
#445=ORIENTED_EDGE('',*,*,#348,.T.);
#446=ORIENTED_EDGE('',*,*,#349,.T.);
#447=ORIENTED_EDGE('',*,*,#336,.F.);
#448=ORIENTED_EDGE('',*,*,#350,.F.);
#449=ORIENTED_EDGE('',*,*,#351,.F.);
#450=ORIENTED_EDGE('',*,*,#345,.F.);
#451=ORIENTED_EDGE('',*,*,#352,.F.);
#452=ORIENTED_EDGE('',*,*,#353,.T.);
#453=ORIENTED_EDGE('',*,*,#348,.F.);
#454=ORIENTED_EDGE('',*,*,#353,.F.);
#455=ORIENTED_EDGE('',*,*,#354,.F.);
#456=ORIENTED_EDGE('',*,*,#355,.T.);
#457=ORIENTED_EDGE('',*,*,#346,.T.);
#458=ORIENTED_EDGE('',*,*,#351,.T.);
#459=ORIENTED_EDGE('',*,*,#356,.F.);
#460=ORIENTED_EDGE('',*,*,#357,.T.);
#461=ORIENTED_EDGE('',*,*,#343,.F.);
#462=ORIENTED_EDGE('',*,*,#347,.T.);
#463=ORIENTED_EDGE('',*,*,#355,.F.);
#464=ORIENTED_EDGE('',*,*,#358,.F.);
#465=ORIENTED_EDGE('',*,*,#359,.F.);
#466=ORIENTED_EDGE('',*,*,#360,.T.);
#467=ORIENTED_EDGE('',*,*,#357,.F.);
#468=ORIENTED_EDGE('',*,*,#361,.T.);
#469=ORIENTED_EDGE('',*,*,#359,.T.);
#470=ORIENTED_EDGE('',*,*,#362,.F.);
#471=ORIENTED_EDGE('',*,*,#363,.F.);
#472=ORIENTED_EDGE('',*,*,#339,.F.);
#473=ORIENTED_EDGE('',*,*,#328,.F.);
#474=ORIENTED_EDGE('',*,*,#329,.T.);
#475=ORIENTED_EDGE('',*,*,#322,.T.);
#476=ORIENTED_EDGE('',*,*,#302,.T.);
#477=ORIENTED_EDGE('',*,*,#307,.T.);
#478=ORIENTED_EDGE('',*,*,#296,.T.);
#479=ORIENTED_EDGE('',*,*,#304,.T.);
#480=ORIENTED_EDGE('',*,*,#364,.T.);
#481=ORIENTED_EDGE('',*,*,#308,.T.);
#482=ORIENTED_EDGE('',*,*,#316,.T.);
#483=ORIENTED_EDGE('',*,*,#314,.T.);
#484=ORIENTED_EDGE('',*,*,#365,.F.);
#485=ORIENTED_EDGE('',*,*,#366,.T.);
#486=ORIENTED_EDGE('',*,*,#349,.F.);
#487=ORIENTED_EDGE('',*,*,#366,.F.);
#488=ORIENTED_EDGE('',*,*,#335,.F.);
#489=ORIENTED_EDGE('',*,*,#331,.T.);
#490=ORIENTED_EDGE('',*,*,#292,.T.);
#491=ORIENTED_EDGE('',*,*,#367,.T.);
#492=ORIENTED_EDGE('',*,*,#368,.T.);
#493=ORIENTED_EDGE('',*,*,#362,.T.);
#494=ORIENTED_EDGE('',*,*,#358,.T.);
#495=ORIENTED_EDGE('',*,*,#356,.T.);
#496=ORIENTED_EDGE('',*,*,#354,.T.);
#497=ORIENTED_EDGE('',*,*,#350,.T.);
#498=ORIENTED_EDGE('',*,*,#352,.T.);
#499=ORIENTED_EDGE('',*,*,#365,.T.);
#500=ORIENTED_EDGE('',*,*,#369,.F.);
#501=ORIENTED_EDGE('',*,*,#309,.T.);
#502=ORIENTED_EDGE('',*,*,#364,.F.);
#503=ORIENTED_EDGE('',*,*,#313,.T.);
#504=ORIENTED_EDGE('',*,*,#368,.F.);
#505=ORIENTED_EDGE('',*,*,#370,.T.);
#506=ORIENTED_EDGE('',*,*,#340,.T.);
#507=ORIENTED_EDGE('',*,*,#363,.T.);
#508=ORIENTED_EDGE('',*,*,#295,.F.);
#509=ORIENTED_EDGE('',*,*,#330,.F.);
#510=ORIENTED_EDGE('',*,*,#326,.F.);
#511=ORIENTED_EDGE('',*,*,#341,.T.);
#512=ORIENTED_EDGE('',*,*,#370,.F.);
#513=ORIENTED_EDGE('',*,*,#367,.F.);
#514=ORIENTED_EDGE('',*,*,#369,.T.);
#515=ORIENTED_EDGE('',*,*,#312,.T.);
#516=ORIENTED_EDGE('',*,*,#317,.T.);
#517=ORIENTED_EDGE('',*,*,#310,.T.);
#518=ORIENTED_EDGE('',*,*,#300,.T.);
#519=ORIENTED_EDGE('',*,*,#305,.T.);
#520=ORIENTED_EDGE('',*,*,#298,.T.);
#521=ORIENTED_EDGE('',*,*,#306,.T.);
#522=ORIENTED_EDGE('',*,*,#334,.F.);
#523=ORIENTED_EDGE('',*,*,#344,.F.);
#524=ORIENTED_EDGE('',*,*,#360,.F.);
#525=ORIENTED_EDGE('',*,*,#361,.F.);
#526=ORIENTED_EDGE('',*,*,#324,.F.);
#527=ORIENTED_EDGE('',*,*,#319,.T.);
#528=ORIENTED_EDGE('',*,*,#333,.F.);
#529=PLANE('',#594);
#530=PLANE('',#595);
#531=PLANE('',#596);
#532=PLANE('',#603);
#533=PLANE('',#604);
#534=PLANE('',#608);
#535=PLANE('',#609);
#536=PLANE('',#610);
#537=PLANE('',#611);
#538=PLANE('',#612);
#539=PLANE('',#613);
#540=PLANE('',#614);
#541=PLANE('',#615);
#542=PLANE('',#616);
#543=PLANE('',#624);
#544=PLANE('',#625);
#545=PLANE('',#626);
#546=PLANE('',#627);
#547=PLANE('',#631);
#548=PLANE('',#634);
#549=PLANE('',#635);
#550=PLANE('',#636);
#551=ADVANCED_FACE('',(#44),#529,.F.);
#552=ADVANCED_FACE('',(#45),#530,.T.);
#553=ADVANCED_FACE('',(#46),#531,.T.);
#554=ADVANCED_FACE('',(#47),#37,.F.);
#555=ADVANCED_FACE('',(#48),#38,.F.);
#556=ADVANCED_FACE('',(#49),#532,.T.);
#557=ADVANCED_FACE('',(#50),#533,.T.);
#558=ADVANCED_FACE('',(#51),#39,.F.);
#559=ADVANCED_FACE('',(#52),#534,.F.);
#560=ADVANCED_FACE('',(#53),#535,.T.);
#561=ADVANCED_FACE('',(#54),#536,.T.);
#562=ADVANCED_FACE('',(#55),#537,.F.);
#563=ADVANCED_FACE('',(#56),#538,.T.);
#564=ADVANCED_FACE('',(#57),#539,.F.);
#565=ADVANCED_FACE('',(#58),#540,.F.);
#566=ADVANCED_FACE('',(#59),#541,.T.);
#567=ADVANCED_FACE('',(#60,#15,#16),#542,.F.);
#568=ADVANCED_FACE('',(#61),#40,.F.);
#569=ADVANCED_FACE('',(#62),#41,.F.);
#570=ADVANCED_FACE('',(#63),#543,.F.);
#571=ADVANCED_FACE('',(#64),#544,.F.);
#572=ADVANCED_FACE('',(#65),#545,.F.);
#573=ADVANCED_FACE('',(#66,#17,#18),#546,.F.);
#574=ADVANCED_FACE('',(#67),#42,.F.);
#575=ADVANCED_FACE('',(#68,#19,#20),#547,.F.);
#576=ADVANCED_FACE('',(#69),#43,.F.);
#577=ADVANCED_FACE('',(#70),#548,.F.);
#578=ADVANCED_FACE('',(#71,#21,#22),#549,.F.);
#579=ADVANCED_FACE('',(#72),#550,.F.);
#580=CLOSED_SHELL('',(#551,#552,#553,#554,#555,#556,#557,#558,#559,#560,
#561,#562,#563,#564,#565,#566,#567,#568,#569,#570,#571,#572,#573,#574,#575,
#576,#577,#578,#579));
#581=DERIVED_UNIT_ELEMENT(#583,1.);
#582=DERIVED_UNIT_ELEMENT(#956,-3.);
#583=(
MASS_UNIT()
NAMED_UNIT(*)
SI_UNIT(.KILO.,.GRAM.)
);
#584=DERIVED_UNIT((#581,#582));
#585=MEASURE_REPRESENTATION_ITEM('density measure',
POSITIVE_RATIO_MEASURE(7850.),#584);
#586=PROPERTY_DEFINITION_REPRESENTATION(#591,#588);
#587=PROPERTY_DEFINITION_REPRESENTATION(#592,#589);
#588=REPRESENTATION('material name',(#590),#953);
#589=REPRESENTATION('density',(#585),#953);
#590=DESCRIPTIVE_REPRESENTATION_ITEM('Steel','Steel');
#591=PROPERTY_DEFINITION('material property','material name',#963);
#592=PROPERTY_DEFINITION('material property','density of part',#963);
#593=AXIS2_PLACEMENT_3D('',#790,#637,#638);
#594=AXIS2_PLACEMENT_3D('',#791,#639,#640);
#595=AXIS2_PLACEMENT_3D('',#800,#645,#646);
#596=AXIS2_PLACEMENT_3D('',#809,#651,#652);
#597=AXIS2_PLACEMENT_3D('',#818,#657,#658);
#598=AXIS2_PLACEMENT_3D('',#819,#659,#660);
#599=AXIS2_PLACEMENT_3D('',#820,#661,#662);
#600=AXIS2_PLACEMENT_3D('',#821,#663,#664);
#601=AXIS2_PLACEMENT_3D('',#822,#665,#666);
#602=AXIS2_PLACEMENT_3D('',#823,#667,#668);
#603=AXIS2_PLACEMENT_3D('',#824,#669,#670);
#604=AXIS2_PLACEMENT_3D('',#833,#675,#676);
#605=AXIS2_PLACEMENT_3D('',#842,#681,#682);
#606=AXIS2_PLACEMENT_3D('',#843,#683,#684);
#607=AXIS2_PLACEMENT_3D('',#844,#685,#686);
#608=AXIS2_PLACEMENT_3D('',#845,#687,#688);
#609=AXIS2_PLACEMENT_3D('',#853,#693,#694);
#610=AXIS2_PLACEMENT_3D('',#859,#698,#699);
#611=AXIS2_PLACEMENT_3D('',#868,#704,#705);
#612=AXIS2_PLACEMENT_3D('',#871,#708,#709);
#613=AXIS2_PLACEMENT_3D('',#877,#713,#714);
#614=AXIS2_PLACEMENT_3D('',#887,#720,#721);
#615=AXIS2_PLACEMENT_3D('',#893,#725,#726);
#616=AXIS2_PLACEMENT_3D('',#899,#730,#731);
#617=AXIS2_PLACEMENT_3D('',#901,#732,#733);
#618=AXIS2_PLACEMENT_3D('',#906,#736,#737);
#619=AXIS2_PLACEMENT_3D('',#908,#738,#739);
#620=AXIS2_PLACEMENT_3D('',#909,#740,#741);
#621=AXIS2_PLACEMENT_3D('',#911,#742,#743);
#622=AXIS2_PLACEMENT_3D('',#913,#745,#746);
#623=AXIS2_PLACEMENT_3D('',#915,#747,#748);
#624=AXIS2_PLACEMENT_3D('',#917,#750,#751);
#625=AXIS2_PLACEMENT_3D('',#921,#754,#755);
#626=AXIS2_PLACEMENT_3D('',#925,#758,#759);
#627=AXIS2_PLACEMENT_3D('',#931,#763,#764);
#628=AXIS2_PLACEMENT_3D('',#936,#768,#769);
#629=AXIS2_PLACEMENT_3D('',#937,#770,#771);
#630=AXIS2_PLACEMENT_3D('',#939,#772,#773);
#631=AXIS2_PLACEMENT_3D('',#941,#775,#776);
#632=AXIS2_PLACEMENT_3D('',#945,#779,#780);
#633=AXIS2_PLACEMENT_3D('',#946,#781,#782);
#634=AXIS2_PLACEMENT_3D('',#947,#783,#784);
#635=AXIS2_PLACEMENT_3D('',#949,#786,#787);
#636=AXIS2_PLACEMENT_3D('',#950,#788,#789);
#637=DIRECTION('axis',(0.,0.,1.));
#638=DIRECTION('refdir',(1.,0.,0.));
#639=DIRECTION('center_axis',(0.,0.,1.));
#640=DIRECTION('ref_axis',(1.,0.,0.));
#641=DIRECTION('',(0.,1.,0.));
#642=DIRECTION('',(-1.,0.,0.));
#643=DIRECTION('',(0.,1.,0.));
#644=DIRECTION('',(1.,0.,0.));
#645=DIRECTION('center_axis',(1.,0.,0.));
#646=DIRECTION('ref_axis',(0.,0.,-1.));
#647=DIRECTION('',(0.,0.,1.));
#648=DIRECTION('',(0.,-1.,0.));
#649=DIRECTION('',(0.,0.,-1.));
#650=DIRECTION('',(0.,1.,0.));
#651=DIRECTION('center_axis',(-1.,0.,0.));
#652=DIRECTION('ref_axis',(0.,0.,1.));
#653=DIRECTION('',(0.,0.,1.));
#654=DIRECTION('',(0.,1.,0.));
#655=DIRECTION('',(0.,0.,-1.));
#656=DIRECTION('',(0.,-1.,0.));
#657=DIRECTION('center_axis',(0.,1.,0.));
#658=DIRECTION('ref_axis',(1.,0.,0.));
#659=DIRECTION('center_axis',(0.,1.,0.));
#660=DIRECTION('ref_axis',(1.,0.,0.));
#661=DIRECTION('center_axis',(0.,-1.,0.));
#662=DIRECTION('ref_axis',(1.,0.,0.));
#663=DIRECTION('center_axis',(0.,1.,0.));
#664=DIRECTION('ref_axis',(1.,0.,0.));
#665=DIRECTION('center_axis',(0.,-1.,0.));
#666=DIRECTION('ref_axis',(1.,0.,0.));
#667=DIRECTION('center_axis',(0.,1.,0.));
#668=DIRECTION('ref_axis',(1.,0.,0.));
#669=DIRECTION('center_axis',(1.,0.,0.));
#670=DIRECTION('ref_axis',(0.,0.,-1.));
#671=DIRECTION('',(0.,0.,1.));
#672=DIRECTION('',(0.,-1.,0.));
#673=DIRECTION('',(0.,0.,-1.));
#674=DIRECTION('',(0.,1.,0.));
#675=DIRECTION('center_axis',(-1.,0.,0.));
#676=DIRECTION('ref_axis',(0.,0.,1.));
#677=DIRECTION('',(0.,0.,1.));
#678=DIRECTION('',(0.,1.,0.));
#679=DIRECTION('',(0.,0.,-1.));
#680=DIRECTION('',(0.,-1.,0.));
#681=DIRECTION('center_axis',(0.,1.,0.));
#682=DIRECTION('ref_axis',(1.,0.,0.));
#683=DIRECTION('center_axis',(0.,1.,0.));
#684=DIRECTION('ref_axis',(1.,0.,0.));
#685=DIRECTION('center_axis',(0.,-1.,0.));
#686=DIRECTION('ref_axis',(1.,0.,0.));
#687=DIRECTION('center_axis',(0.,1.,0.));
#688=DIRECTION('ref_axis',(0.,0.,1.));
#689=DIRECTION('',(-1.,0.,0.));
#690=DIRECTION('',(0.,0.,-1.));
#691=DIRECTION('',(1.,0.,0.));
#692=DIRECTION('',(0.,0.,-1.));
#693=DIRECTION('center_axis',(0.,0.,1.));
#694=DIRECTION('ref_axis',(1.,0.,0.));
#695=DIRECTION('',(1.,0.,0.));
#696=DIRECTION('',(0.,-1.,0.));
#697=DIRECTION('',(0.,1.,0.));
#698=DIRECTION('center_axis',(0.,0.,1.));
#699=DIRECTION('ref_axis',(1.,0.,0.));
#700=DIRECTION('',(0.,1.,0.));
#701=DIRECTION('',(-1.,0.,0.));
#702=DIRECTION('',(0.,-1.,0.));
#703=DIRECTION('',(1.,0.,0.));
#704=DIRECTION('center_axis',(1.,0.,0.));
#705=DIRECTION('ref_axis',(0.,0.,-1.));
#706=DIRECTION('',(0.,0.,-1.));
#707=DIRECTION('',(0.,0.,-1.));
#708=DIRECTION('center_axis',(0.,0.,1.));
#709=DIRECTION('ref_axis',(1.,0.,0.));
#710=DIRECTION('',(0.,1.,0.));
#711=DIRECTION('',(-1.,0.,0.));
#712=DIRECTION('',(0.,1.,0.));
#713=DIRECTION('center_axis',(0.,1.,0.));
#714=DIRECTION('ref_axis',(0.,0.,1.));
#715=DIRECTION('',(0.,0.,1.));
#716=DIRECTION('',(0.,0.,-1.));
#717=DIRECTION('',(1.,0.,0.));
#718=DIRECTION('',(0.,0.,1.));
#719=DIRECTION('',(-1.,0.,0.));
#720=DIRECTION('center_axis',(-1.,0.,0.));
#721=DIRECTION('ref_axis',(0.,0.,1.));
#722=DIRECTION('',(0.,0.,-1.));
#723=DIRECTION('',(0.,-1.,0.));
#724=DIRECTION('',(0.,0.,-1.));
#725=DIRECTION('center_axis',(0.,0.,1.));
#726=DIRECTION('ref_axis',(1.,0.,0.));
#727=DIRECTION('',(0.,1.,0.));
#728=DIRECTION('',(-1.,0.,0.));
#729=DIRECTION('',(0.,-1.,0.));
#730=DIRECTION('center_axis',(-1.,0.,0.));
#731=DIRECTION('ref_axis',(0.,0.,1.));
#732=DIRECTION('center_axis',(-1.,0.,0.));
#733=DIRECTION('ref_axis',(0.,0.,-1.));
#734=DIRECTION('',(0.,-1.,0.));
#735=DIRECTION('',(0.,0.,-1.));
#736=DIRECTION('center_axis',(-1.,0.,0.));
#737=DIRECTION('ref_axis',(0.,0.,-1.));
#738=DIRECTION('center_axis',(-1.,0.,0.));
#739=DIRECTION('ref_axis',(0.,0.,-1.));
#740=DIRECTION('center_axis',(1.,0.,0.));
#741=DIRECTION('ref_axis',(0.,0.,-1.));
#742=DIRECTION('center_axis',(1.,0.,0.));
#743=DIRECTION('ref_axis',(0.,0.,-1.));
#744=DIRECTION('',(-1.,0.,0.));
#745=DIRECTION('center_axis',(1.,0.,0.));
#746=DIRECTION('ref_axis',(0.,0.,-1.));
#747=DIRECTION('center_axis',(1.,0.,0.));
#748=DIRECTION('ref_axis',(0.,0.,-1.));
#749=DIRECTION('',(1.,0.,0.));
#750=DIRECTION('center_axis',(0.,0.,1.));
#751=DIRECTION('ref_axis',(1.,0.,0.));
#752=DIRECTION('',(0.,-1.,0.));
#753=DIRECTION('',(1.,0.,0.));
#754=DIRECTION('center_axis',(0.,-1.,0.));
#755=DIRECTION('ref_axis',(0.,0.,-1.));
#756=DIRECTION('',(0.,0.,-1.));
#757=DIRECTION('',(1.,0.,0.));
#758=DIRECTION('center_axis',(0.,0.,1.));
#759=DIRECTION('ref_axis',(1.,0.,0.));
#760=DIRECTION('',(0.,-1.,0.));
#761=DIRECTION('',(-1.,0.,0.));
#762=DIRECTION('',(0.,-1.,0.));
#763=DIRECTION('center_axis',(0.,1.,0.));
#764=DIRECTION('ref_axis',(0.,0.,1.));
#765=DIRECTION('',(0.,0.,-1.));
#766=DIRECTION('',(0.,0.,1.));
#767=DIRECTION('',(-1.,0.,0.));
#768=DIRECTION('center_axis',(0.,1.,0.));
#769=DIRECTION('ref_axis',(1.,0.,0.));
#770=DIRECTION('center_axis',(1.,0.,0.));
#771=DIRECTION('ref_axis',(0.,0.,-1.));
#772=DIRECTION('center_axis',(1.,0.,0.));
#773=DIRECTION('ref_axis',(0.,0.,-1.));
#774=DIRECTION('',(1.,0.,0.));
#775=DIRECTION('center_axis',(1.,0.,0.));
#776=DIRECTION('ref_axis',(0.,0.,-1.));
#777=DIRECTION('',(0.,0.,-1.));
#778=DIRECTION('',(0.,-1.,0.));
#779=DIRECTION('center_axis',(0.,1.,0.));
#780=DIRECTION('ref_axis',(1.,0.,0.));
#781=DIRECTION('center_axis',(0.,-1.,0.));
#782=DIRECTION('ref_axis',(1.,0.,0.));
#783=DIRECTION('center_axis',(0.,0.,1.));
#784=DIRECTION('ref_axis',(1.,0.,0.));
#785=DIRECTION('',(1.,0.,0.));
#786=DIRECTION('center_axis',(0.,-1.,0.));
#787=DIRECTION('ref_axis',(0.,0.,-1.));
#788=DIRECTION('center_axis',(-1.,0.,0.));
#789=DIRECTION('ref_axis',(0.,0.,1.));
#790=CARTESIAN_POINT('',(0.,0.,0.));
#791=CARTESIAN_POINT('Origin',(376.5,20.,279.));
#792=CARTESIAN_POINT('',(368.5,28.,279.));
#793=CARTESIAN_POINT('',(368.5,39.,279.));
#794=CARTESIAN_POINT('',(368.5,10.,279.));
#795=CARTESIAN_POINT('',(366.,28.,279.));
#796=CARTESIAN_POINT('',(354.25,28.,279.));
#797=CARTESIAN_POINT('',(366.,39.,279.));
#798=CARTESIAN_POINT('',(366.,27.75,279.));
#799=CARTESIAN_POINT('',(376.25,39.,279.));
#800=CARTESIAN_POINT('Origin',(373.3,35.5,317.8935055785));
#801=CARTESIAN_POINT('',(373.3,32.,315.3935055785));
#802=CARTESIAN_POINT('',(373.3,32.,320.3935055785));
#803=CARTESIAN_POINT('',(373.3,32.,309.3935055785));
#804=CARTESIAN_POINT('',(373.3,39.,315.3935055785));
#805=CARTESIAN_POINT('',(373.3,35.5,315.3935055785));
#806=CARTESIAN_POINT('',(373.3,39.,320.3935055785));
#807=CARTESIAN_POINT('',(373.3,39.,309.3935055785));
#808=CARTESIAN_POINT('',(373.3,35.5,320.3935055785));
#809=CARTESIAN_POINT('Origin',(378.7,35.5,317.8935055785));
#810=CARTESIAN_POINT('',(378.7,39.,315.3935055785));
#811=CARTESIAN_POINT('',(378.7,39.,320.3935055785));
#812=CARTESIAN_POINT('',(378.7,39.,309.3935055785));
#813=CARTESIAN_POINT('',(378.7,32.,315.3935055785));
#814=CARTESIAN_POINT('',(378.7,35.5,315.3935055785));
#815=CARTESIAN_POINT('',(378.7,32.,320.3935055785));
#816=CARTESIAN_POINT('',(378.7,32.,309.3935055785));
#817=CARTESIAN_POINT('',(378.7,35.5,320.3935055785));
#818=CARTESIAN_POINT('Origin',(376.,35.5,320.3935055785));
#819=CARTESIAN_POINT('Origin',(376.,32.,320.3935055785));
#820=CARTESIAN_POINT('Origin',(376.,39.,320.3935055785));
#821=CARTESIAN_POINT('Origin',(376.,35.5,315.3935055785));
#822=CARTESIAN_POINT('Origin',(376.,39.,315.3935055785));
#823=CARTESIAN_POINT('Origin',(376.,32.,315.3935055785));
#824=CARTESIAN_POINT('Origin',(373.3,35.5,283.8935055785));
#825=CARTESIAN_POINT('',(373.3,32.,281.3935055785));
#826=CARTESIAN_POINT('',(373.3,32.,286.3935055785));
#827=CARTESIAN_POINT('',(373.3,32.,292.3935055785));
#828=CARTESIAN_POINT('',(373.3,39.,281.3935055785));
#829=CARTESIAN_POINT('',(373.3,35.5,281.3935055785));
#830=CARTESIAN_POINT('',(373.3,39.,286.3935055785));
#831=CARTESIAN_POINT('',(373.3,39.,292.3935055785));
#832=CARTESIAN_POINT('',(373.3,35.5,286.3935055785));
#833=CARTESIAN_POINT('Origin',(378.7,35.5,283.8935055785));
#834=CARTESIAN_POINT('',(378.7,39.,281.3935055785));
#835=CARTESIAN_POINT('',(378.7,39.,286.3935055785));
#836=CARTESIAN_POINT('',(378.7,39.,292.3935055785));
#837=CARTESIAN_POINT('',(378.7,32.,281.3935055785));
#838=CARTESIAN_POINT('',(378.7,35.5,281.3935055785));
#839=CARTESIAN_POINT('',(378.7,32.,286.3935055785));
#840=CARTESIAN_POINT('',(378.7,32.,292.3935055785));
#841=CARTESIAN_POINT('',(378.7,35.5,286.3935055785));
#842=CARTESIAN_POINT('Origin',(376.,35.5,286.3935055785));
#843=CARTESIAN_POINT('Origin',(376.,32.,286.3935055785));
#844=CARTESIAN_POINT('Origin',(376.,39.,286.3935055785));
#845=CARTESIAN_POINT('Origin',(368.75,28.,286.));
#846=CARTESIAN_POINT('',(371.5,28.,279.));
#847=CARTESIAN_POINT('',(354.25,28.,279.));
#848=CARTESIAN_POINT('',(371.5,28.,298.));
#849=CARTESIAN_POINT('',(371.5,28.,286.));
#850=CARTESIAN_POINT('',(366.,28.,298.));
#851=CARTESIAN_POINT('',(368.75,28.,298.));
#852=CARTESIAN_POINT('',(366.,28.,286.));
#853=CARTESIAN_POINT('Origin',(368.75,33.,298.));
#854=CARTESIAN_POINT('',(366.,32.,298.));
#855=CARTESIAN_POINT('',(371.5,32.,298.));
#856=CARTESIAN_POINT('',(372.375,32.,298.));
#857=CARTESIAN_POINT('',(366.,33.,298.));
#858=CARTESIAN_POINT('',(371.5,33.,298.));
#859=CARTESIAN_POINT('Origin',(376.,35.5,333.8935055785));
#860=CARTESIAN_POINT('',(386.,32.,333.8935055785));
#861=CARTESIAN_POINT('',(386.,39.,333.8935055785));
#862=CARTESIAN_POINT('',(386.,35.5,333.8935055785));
#863=CARTESIAN_POINT('',(366.,39.,333.8935055785));
#864=CARTESIAN_POINT('',(376.,39.,333.8935055785));
#865=CARTESIAN_POINT('',(366.,32.,333.8935055785));
#866=CARTESIAN_POINT('',(366.,35.5,333.8935055785));
#867=CARTESIAN_POINT('',(376.,32.,333.8935055785));
#868=CARTESIAN_POINT('Origin',(366.,35.5,300.8935055785));
#869=CARTESIAN_POINT('',(366.,32.,300.8935055785));
#870=CARTESIAN_POINT('',(366.,39.,300.8935055785));
#871=CARTESIAN_POINT('Origin',(339.75,0.,279.));
#872=CARTESIAN_POINT('',(368.5,0.,279.));
#873=CARTESIAN_POINT('',(368.5,10.,279.));
#874=CARTESIAN_POINT('',(371.5,0.,279.));
#875=CARTESIAN_POINT('',(358.75,0.,279.));
#876=CARTESIAN_POINT('',(371.5,0.,279.));
#877=CARTESIAN_POINT('Origin',(377.75,0.,247.5));
#878=CARTESIAN_POINT('',(371.5,0.,274.));
#879=CARTESIAN_POINT('',(371.5,0.,261.));
#880=CARTESIAN_POINT('',(368.5,0.,267.2));
#881=CARTESIAN_POINT('',(368.5,0.,243.75));
#882=CARTESIAN_POINT('',(372.,0.,267.2));
#883=CARTESIAN_POINT('',(369.95,0.,267.2));
#884=CARTESIAN_POINT('',(372.,0.,274.));
#885=CARTESIAN_POINT('',(372.,0.,258.25));
#886=CARTESIAN_POINT('',(359.875,0.,274.));
#887=CARTESIAN_POINT('Origin',(386.,35.5,300.8935055785));
#888=CARTESIAN_POINT('',(386.,32.,267.8935055785));
#889=CARTESIAN_POINT('',(386.,32.,300.8935055785));
#890=CARTESIAN_POINT('',(386.,39.,267.8935055785));
#891=CARTESIAN_POINT('',(386.,35.5,267.8935055785));
#892=CARTESIAN_POINT('',(386.,39.,300.8935055785));
#893=CARTESIAN_POINT('Origin',(342.,0.,274.));
#894=CARTESIAN_POINT('',(372.,30.,274.));
#895=CARTESIAN_POINT('',(372.,0.,274.));
#896=CARTESIAN_POINT('',(371.5,30.,274.));
#897=CARTESIAN_POINT('',(342.,30.,274.));
#898=CARTESIAN_POINT('',(371.5,0.,274.));
#899=CARTESIAN_POINT('Origin',(372.,0.,269.));
#900=CARTESIAN_POINT('',(372.,3.2,264.));
#901=CARTESIAN_POINT('Origin',(372.,1.46957615897682E-15,264.));
#902=CARTESIAN_POINT('',(372.,30.,264.));
#903=CARTESIAN_POINT('',(372.,0.,264.));
#904=CARTESIAN_POINT('',(372.,30.,269.));
#905=CARTESIAN_POINT('',(372.,10.,272.25));
#906=CARTESIAN_POINT('Origin',(372.,10.,270.));
#907=CARTESIAN_POINT('',(372.,23.,272.25));
#908=CARTESIAN_POINT('Origin',(372.,23.,270.));
#909=CARTESIAN_POINT('Origin',(369.95,1.46957615897682E-15,264.));
#910=CARTESIAN_POINT('',(368.5,3.2,264.));
#911=CARTESIAN_POINT('Origin',(368.5,1.46957615897682E-15,264.));
#912=CARTESIAN_POINT('',(369.95,3.2,264.));
#913=CARTESIAN_POINT('Origin',(340.,10.,270.));
#914=CARTESIAN_POINT('',(368.5,10.,272.25));
#915=CARTESIAN_POINT('Origin',(368.5,10.,270.));
#916=CARTESIAN_POINT('',(340.,10.,272.25));
#917=CARTESIAN_POINT('Origin',(342.,0.,264.));
#918=CARTESIAN_POINT('',(368.5,30.,264.));
#919=CARTESIAN_POINT('',(368.5,10.,264.));
#920=CARTESIAN_POINT('',(342.,30.,264.));
#921=CARTESIAN_POINT('Origin',(342.,30.,269.));
#922=CARTESIAN_POINT('',(368.5,30.,274.));
#923=CARTESIAN_POINT('',(368.5,30.,258.25));
#924=CARTESIAN_POINT('',(355.375,30.,274.));
#925=CARTESIAN_POINT('Origin',(368.75,33.,274.));
#926=CARTESIAN_POINT('',(368.5,32.,274.));
#927=CARTESIAN_POINT('',(368.5,26.5,274.));
#928=CARTESIAN_POINT('',(371.5,32.,274.));
#929=CARTESIAN_POINT('',(372.375,32.,274.));
#930=CARTESIAN_POINT('',(371.5,33.,274.));
#931=CARTESIAN_POINT('Origin',(376.,32.,300.8935055785));
#932=CARTESIAN_POINT('',(371.5,32.,293.44675278925));
#933=CARTESIAN_POINT('',(368.5,32.,267.8935055785));
#934=CARTESIAN_POINT('',(368.5,32.,274.19675278925));
#935=CARTESIAN_POINT('',(376.,32.,267.8935055785));
#936=CARTESIAN_POINT('Origin',(376.,32.,281.3935055785));
#937=CARTESIAN_POINT('Origin',(340.,23.,270.));
#938=CARTESIAN_POINT('',(368.5,23.,272.25));
#939=CARTESIAN_POINT('Origin',(368.5,23.,270.));
#940=CARTESIAN_POINT('',(340.,23.,272.25));
#941=CARTESIAN_POINT('Origin',(368.5,0.,240.));
#942=CARTESIAN_POINT('',(368.5,39.,267.8935055785));
#943=CARTESIAN_POINT('',(368.5,39.,274.19675278925));
#944=CARTESIAN_POINT('',(368.5,27.75,267.8935055785));
#945=CARTESIAN_POINT('Origin',(376.,35.5,281.3935055785));
#946=CARTESIAN_POINT('Origin',(376.,39.,281.3935055785));
#947=CARTESIAN_POINT('Origin',(376.,35.5,267.8935055785));
#948=CARTESIAN_POINT('',(376.,39.,267.8935055785));
#949=CARTESIAN_POINT('Origin',(376.,39.,300.8935055785));
#950=CARTESIAN_POINT('Origin',(371.5,0.,274.5));
#951=UNCERTAINTY_MEASURE_WITH_UNIT(LENGTH_MEASURE(0.01),#955,
'DISTANCE_ACCURACY_VALUE',
'Maximum model space distance between geometric entities at asserted c
onnectivities');
#952=UNCERTAINTY_MEASURE_WITH_UNIT(LENGTH_MEASURE(0.01),#955,
'DISTANCE_ACCURACY_VALUE',
'Maximum model space distance between geometric entities at asserted c
onnectivities');
#953=(
GEOMETRIC_REPRESENTATION_CONTEXT(3)
GLOBAL_UNCERTAINTY_ASSIGNED_CONTEXT((#951))
GLOBAL_UNIT_ASSIGNED_CONTEXT((#955,#957,#958))
REPRESENTATION_CONTEXT('','3D')
);
#954=(
GEOMETRIC_REPRESENTATION_CONTEXT(3)
GLOBAL_UNCERTAINTY_ASSIGNED_CONTEXT((#952))
GLOBAL_UNIT_ASSIGNED_CONTEXT((#955,#957,#958))
REPRESENTATION_CONTEXT('','3D')
);
#955=(
LENGTH_UNIT()
NAMED_UNIT(*)
SI_UNIT(.MILLI.,.METRE.)
);
#956=(
LENGTH_UNIT()
NAMED_UNIT(*)
SI_UNIT($,.METRE.)
);
#957=(
NAMED_UNIT(*)
PLANE_ANGLE_UNIT()
SI_UNIT($,.RADIAN.)
);
#958=(
NAMED_UNIT(*)
SI_UNIT($,.STERADIAN.)
SOLID_ANGLE_UNIT()
);
#959=SHAPE_DEFINITION_REPRESENTATION(#960,#961);
#960=PRODUCT_DEFINITION_SHAPE('',$,#963);
#961=SHAPE_REPRESENTATION('',(#593),#953);
#962=PRODUCT_DEFINITION_CONTEXT('part definition',#967,'design');
#963=PRODUCT_DEFINITION('2026-08-17-10-01-18-372',
'EXPORT_TMP_PRINT_V015_P304F_PG19Carrier_Front_PosY',#964,#962);
#964=PRODUCT_DEFINITION_FORMATION('',$,#969);
#965=PRODUCT_RELATED_PRODUCT_CATEGORY(
'EXPORT_TMP_PRINT_V015_P304F_PG19Carrier_Front_PosY',
'EXPORT_TMP_PRINT_V015_P304F_PG19Carrier_Front_PosY',(#969));
#966=APPLICATION_PROTOCOL_DEFINITION('international standard',
'automotive_design',2009,#967);
#967=APPLICATION_CONTEXT(
'Core Data for Automotive Mechanical Design Process');
#968=PRODUCT_CONTEXT('part definition',#967,'mechanical');
#969=PRODUCT('2026-08-17-10-01-18-372',
'EXPORT_TMP_PRINT_V015_P304F_PG19Carrier_Front_PosY',$,(#968));
#970=PRESENTATION_STYLE_ASSIGNMENT((#971));
#971=SURFACE_STYLE_USAGE(.BOTH.,#972);
#972=SURFACE_SIDE_STYLE('',(#973));
#973=SURFACE_STYLE_FILL_AREA(#974);
#974=FILL_AREA_STYLE('Steel - Satin',(#975));
#975=FILL_AREA_STYLE_COLOUR('Steel - Satin',#976);
#976=COLOUR_RGB('Steel - Satin',0.627450980392157,0.627450980392157,0.627450980392157);
ENDSEC;
END-ISO-10303-21;
