ISO-10303-21;
HEADER;
/* Generated by software containing ST-Developer
 * from STEP Tools, Inc. (www.steptools.com) 
 */

FILE_DESCRIPTION(
/* description */ (''),
/* implementation_level */ '2;1');

FILE_NAME(
/* name */ 'PRINT_V015_P304G_PG19Carrier_Front_NegY.step',
/* time_stamp */ '2026-08-17T10:01:20+02:00',
/* author */ (''),
/* organization */ (''),
/* preprocessor_version */ 'ST-DEVELOPER v20.1',
/* originating_system */ 'Autodesk Translation Framework v15.8.0.0',
/* authorisation */ '');

FILE_SCHEMA (('AUTOMOTIVE_DESIGN { 1 0 10303 214 3 1 1 }'));
ENDSEC;

DATA;
#10=MECHANICAL_DESIGN_GEOMETRIC_PRESENTATION_REPRESENTATION('',(#13),#954);
#11=SHAPE_REPRESENTATION_RELATIONSHIP('SRR','None',#961,#12);
#12=ADVANCED_BREP_SHAPE_REPRESENTATION('',(#14),#953);
#13=STYLED_ITEM('',(#970),#14);
#14=MANIFOLD_SOLID_BREP('PRINT_V015_P304G_PG19Carrier_Front_NegY',#580);
#15=FACE_BOUND('',#89,.T.);
#16=FACE_BOUND('',#90,.T.);
#17=FACE_BOUND('',#92,.T.);
#18=FACE_BOUND('',#93,.T.);
#19=FACE_BOUND('',#103,.T.);
#20=FACE_BOUND('',#104,.T.);
#21=FACE_BOUND('',#108,.T.);
#22=FACE_BOUND('',#109,.T.);
#23=CIRCLE('',#599,2.7);
#24=CIRCLE('',#600,2.7);
#25=CIRCLE('',#602,2.7);
#26=CIRCLE('',#603,2.7);
#27=CIRCLE('',#607,2.7);
#28=CIRCLE('',#608,2.7);
#29=CIRCLE('',#616,3.2);
#30=CIRCLE('',#617,2.25);
#31=CIRCLE('',#618,2.25);
#32=CIRCLE('',#620,2.7);
#33=CIRCLE('',#624,2.25);
#34=CIRCLE('',#626,2.25);
#35=CIRCLE('',#628,3.2);
#36=CIRCLE('',#632,2.7);
#37=CYLINDRICAL_SURFACE('',#598,2.7);
#38=CYLINDRICAL_SURFACE('',#601,2.7);
#39=CYLINDRICAL_SURFACE('',#606,2.7);
#40=CYLINDRICAL_SURFACE('',#623,2.25);
#41=CYLINDRICAL_SURFACE('',#625,2.25);
#42=CYLINDRICAL_SURFACE('',#627,3.2);
#43=CYLINDRICAL_SURFACE('',#631,2.7);
#44=FACE_OUTER_BOUND('',#73,.T.);
#45=FACE_OUTER_BOUND('',#74,.T.);
#46=FACE_OUTER_BOUND('',#75,.T.);
#47=FACE_OUTER_BOUND('',#76,.T.);
#48=FACE_OUTER_BOUND('',#77,.T.);
#49=FACE_OUTER_BOUND('',#78,.T.);
#50=FACE_OUTER_BOUND('',#79,.T.);
#51=FACE_OUTER_BOUND('',#80,.T.);
#52=FACE_OUTER_BOUND('',#81,.T.);
#53=FACE_OUTER_BOUND('',#82,.T.);
#54=FACE_OUTER_BOUND('',#83,.T.);
#55=FACE_OUTER_BOUND('',#84,.T.);
#56=FACE_OUTER_BOUND('',#85,.T.);
#57=FACE_OUTER_BOUND('',#86,.T.);
#58=FACE_OUTER_BOUND('',#87,.T.);
#59=FACE_OUTER_BOUND('',#88,.T.);
#60=FACE_OUTER_BOUND('',#91,.T.);
#61=FACE_OUTER_BOUND('',#94,.T.);
#62=FACE_OUTER_BOUND('',#95,.T.);
#63=FACE_OUTER_BOUND('',#96,.T.);
#64=FACE_OUTER_BOUND('',#97,.T.);
#65=FACE_OUTER_BOUND('',#98,.T.);
#66=FACE_OUTER_BOUND('',#99,.T.);
#67=FACE_OUTER_BOUND('',#100,.T.);
#68=FACE_OUTER_BOUND('',#101,.T.);
#69=FACE_OUTER_BOUND('',#102,.T.);
#70=FACE_OUTER_BOUND('',#105,.T.);
#71=FACE_OUTER_BOUND('',#106,.T.);
#72=FACE_OUTER_BOUND('',#107,.T.);
#73=EDGE_LOOP('',(#371,#372,#373,#374));
#74=EDGE_LOOP('',(#375,#376,#377,#378,#379,#380));
#75=EDGE_LOOP('',(#381,#382,#383,#384));
#76=EDGE_LOOP('',(#385,#386,#387,#388));
#77=EDGE_LOOP('',(#389,#390,#391,#392));
#78=EDGE_LOOP('',(#393,#394,#395,#396));
#79=EDGE_LOOP('',(#397,#398,#399,#400));
#80=EDGE_LOOP('',(#401,#402,#403,#404));
#81=EDGE_LOOP('',(#405,#406,#407,#408));
#82=EDGE_LOOP('',(#409,#410,#411,#412,#413));
#83=EDGE_LOOP('',(#414,#415,#416,#417));
#84=EDGE_LOOP('',(#418,#419,#420,#421));
#85=EDGE_LOOP('',(#422,#423,#424,#425));
#86=EDGE_LOOP('',(#426,#427,#428,#429,#430,#431));
#87=EDGE_LOOP('',(#432,#433,#434,#435));
#88=EDGE_LOOP('',(#436,#437,#438,#439,#440,#441,#442,#443,#444,#445));
#89=EDGE_LOOP('',(#446));
#90=EDGE_LOOP('',(#447));
#91=EDGE_LOOP('',(#448,#449,#450,#451,#452,#453));
#92=EDGE_LOOP('',(#454,#455,#456,#457));
#93=EDGE_LOOP('',(#458,#459,#460,#461));
#94=EDGE_LOOP('',(#462,#463,#464,#465));
#95=EDGE_LOOP('',(#466,#467,#468,#469));
#96=EDGE_LOOP('',(#470,#471,#472,#473));
#97=EDGE_LOOP('',(#474,#475,#476,#477));
#98=EDGE_LOOP('',(#478,#479,#480,#481));
#99=EDGE_LOOP('',(#482,#483,#484,#485));
#100=EDGE_LOOP('',(#486,#487,#488,#489,#490,#491,#492));
#101=EDGE_LOOP('',(#493,#494,#495,#496));
#102=EDGE_LOOP('',(#497,#498,#499,#500,#501,#502,#503,#504));
#103=EDGE_LOOP('',(#505,#506,#507,#508));
#104=EDGE_LOOP('',(#509,#510,#511,#512));
#105=EDGE_LOOP('',(#513,#514,#515,#516,#517));
#106=EDGE_LOOP('',(#518,#519,#520,#521));
#107=EDGE_LOOP('',(#522,#523,#524,#525,#526));
#108=EDGE_LOOP('',(#527));
#109=EDGE_LOOP('',(#528));
#110=LINE('',#794,#175);
#111=LINE('',#796,#176);
#112=LINE('',#798,#177);
#113=LINE('',#799,#178);
#114=LINE('',#802,#179);
#115=LINE('',#804,#180);
#116=LINE('',#806,#181);
#117=LINE('',#808,#182);
#118=LINE('',#809,#183);
#119=LINE('',#813,#184);
#120=LINE('',#815,#185);
#121=LINE('',#817,#186);
#122=LINE('',#818,#187);
#123=LINE('',#822,#188);
#124=LINE('',#824,#189);
#125=LINE('',#826,#190);
#126=LINE('',#827,#191);
#127=LINE('',#837,#192);
#128=LINE('',#839,#193);
#129=LINE('',#841,#194);
#130=LINE('',#842,#195);
#131=LINE('',#846,#196);
#132=LINE('',#848,#197);
#133=LINE('',#850,#198);
#134=LINE('',#851,#199);
#135=LINE('',#857,#200);
#136=LINE('',#859,#201);
#137=LINE('',#860,#202);
#138=LINE('',#863,#203);
#139=LINE('',#864,#204);
#140=LINE('',#868,#205);
#141=LINE('',#869,#206);
#142=LINE('',#870,#207);
#143=LINE('',#873,#208);
#144=LINE('',#875,#209);
#145=LINE('',#876,#210);
#146=LINE('',#879,#211);
#147=LINE('',#881,#212);
#148=LINE('',#883,#213);
#149=LINE('',#885,#214);
#150=LINE('',#886,#215);
#151=LINE('',#889,#216);
#152=LINE('',#891,#217);
#153=LINE('',#892,#218);
#154=LINE('',#897,#219);
#155=LINE('',#899,#220);
#156=LINE('',#901,#221);
#157=LINE('',#903,#222);
#158=LINE('',#905,#223);
#159=LINE('',#906,#224);
#160=LINE('',#912,#225);
#161=LINE('',#915,#226);
#162=LINE('',#918,#227);
#163=LINE('',#920,#228);
#164=LINE('',#921,#229);
#165=LINE('',#924,#230);
#166=LINE('',#928,#231);
#167=LINE('',#933,#232);
#168=LINE('',#936,#233);
#169=LINE('',#937,#234);
#170=LINE('',#939,#235);
#171=LINE('',#940,#236);
#172=LINE('',#946,#237);
#173=LINE('',#947,#238);
#174=LINE('',#949,#239);
#175=VECTOR('',#641,10.);
#176=VECTOR('',#642,10.);
#177=VECTOR('',#643,10.);
#178=VECTOR('',#644,10.);
#179=VECTOR('',#647,10.);
#180=VECTOR('',#648,10.);
#181=VECTOR('',#649,10.);
#182=VECTOR('',#650,10.);
#183=VECTOR('',#651,10.);
#184=VECTOR('',#654,10.);
#185=VECTOR('',#655,10.);
#186=VECTOR('',#656,10.);
#187=VECTOR('',#657,10.);
#188=VECTOR('',#660,10.);
#189=VECTOR('',#661,10.);
#190=VECTOR('',#662,10.);
#191=VECTOR('',#663,10.);
#192=VECTOR('',#678,10.);
#193=VECTOR('',#679,10.);
#194=VECTOR('',#680,10.);
#195=VECTOR('',#681,10.);
#196=VECTOR('',#684,10.);
#197=VECTOR('',#685,10.);
#198=VECTOR('',#686,10.);
#199=VECTOR('',#687,10.);
#200=VECTOR('',#696,10.);
#201=VECTOR('',#697,10.);
#202=VECTOR('',#698,10.);
#203=VECTOR('',#701,10.);
#204=VECTOR('',#702,10.);
#205=VECTOR('',#705,10.);
#206=VECTOR('',#706,10.);
#207=VECTOR('',#707,10.);
#208=VECTOR('',#710,10.);
#209=VECTOR('',#711,10.);
#210=VECTOR('',#712,10.);
#211=VECTOR('',#715,10.);
#212=VECTOR('',#716,10.);
#213=VECTOR('',#717,10.);
#214=VECTOR('',#718,10.);
#215=VECTOR('',#719,10.);
#216=VECTOR('',#722,10.);
#217=VECTOR('',#723,10.);
#218=VECTOR('',#724,10.);
#219=VECTOR('',#729,10.);
#220=VECTOR('',#730,10.);
#221=VECTOR('',#731,10.);
#222=VECTOR('',#732,10.);
#223=VECTOR('',#733,10.);
#224=VECTOR('',#734,10.);
#225=VECTOR('',#741,10.);
#226=VECTOR('',#746,10.);
#227=VECTOR('',#749,10.);
#228=VECTOR('',#750,10.);
#229=VECTOR('',#751,10.);
#230=VECTOR('',#754,2.25);
#231=VECTOR('',#759,2.25);
#232=VECTOR('',#766,10.);
#233=VECTOR('',#769,10.);
#234=VECTOR('',#770,10.);
#235=VECTOR('',#773,10.);
#236=VECTOR('',#774,10.);
#237=VECTOR('',#783,10.);
#238=VECTOR('',#784,10.);
#239=VECTOR('',#787,10.);
#240=VERTEX_POINT('',#792);
#241=VERTEX_POINT('',#793);
#242=VERTEX_POINT('',#795);
#243=VERTEX_POINT('',#797);
#244=VERTEX_POINT('',#801);
#245=VERTEX_POINT('',#803);
#246=VERTEX_POINT('',#805);
#247=VERTEX_POINT('',#807);
#248=VERTEX_POINT('',#811);
#249=VERTEX_POINT('',#812);
#250=VERTEX_POINT('',#814);
#251=VERTEX_POINT('',#816);
#252=VERTEX_POINT('',#820);
#253=VERTEX_POINT('',#821);
#254=VERTEX_POINT('',#823);
#255=VERTEX_POINT('',#825);
#256=VERTEX_POINT('',#835);
#257=VERTEX_POINT('',#836);
#258=VERTEX_POINT('',#838);
#259=VERTEX_POINT('',#840);
#260=VERTEX_POINT('',#844);
#261=VERTEX_POINT('',#845);
#262=VERTEX_POINT('',#847);
#263=VERTEX_POINT('',#849);
#264=VERTEX_POINT('',#856);
#265=VERTEX_POINT('',#858);
#266=VERTEX_POINT('',#862);
#267=VERTEX_POINT('',#866);
#268=VERTEX_POINT('',#867);
#269=VERTEX_POINT('',#872);
#270=VERTEX_POINT('',#874);
#271=VERTEX_POINT('',#878);
#272=VERTEX_POINT('',#880);
#273=VERTEX_POINT('',#882);
#274=VERTEX_POINT('',#884);
#275=VERTEX_POINT('',#888);
#276=VERTEX_POINT('',#890);
#277=VERTEX_POINT('',#894);
#278=VERTEX_POINT('',#896);
#279=VERTEX_POINT('',#898);
#280=VERTEX_POINT('',#900);
#281=VERTEX_POINT('',#902);
#282=VERTEX_POINT('',#904);
#283=VERTEX_POINT('',#907);
#284=VERTEX_POINT('',#909);
#285=VERTEX_POINT('',#917);
#286=VERTEX_POINT('',#919);
#287=VERTEX_POINT('',#923);
#288=VERTEX_POINT('',#927);
#289=VERTEX_POINT('',#931);
#290=VERTEX_POINT('',#935);
#291=VERTEX_POINT('',#945);
#292=EDGE_CURVE('',#240,#241,#110,.T.);
#293=EDGE_CURVE('',#241,#242,#111,.T.);
#294=EDGE_CURVE('',#242,#243,#112,.T.);
#295=EDGE_CURVE('',#243,#240,#113,.T.);
#296=EDGE_CURVE('',#244,#242,#114,.T.);
#297=EDGE_CURVE('',#245,#244,#115,.T.);
#298=EDGE_CURVE('',#245,#246,#116,.T.);
#299=EDGE_CURVE('',#247,#246,#117,.T.);
#300=EDGE_CURVE('',#247,#243,#118,.T.);
#301=EDGE_CURVE('',#248,#249,#119,.T.);
#302=EDGE_CURVE('',#250,#248,#120,.T.);
#303=EDGE_CURVE('',#251,#250,#121,.T.);
#304=EDGE_CURVE('',#249,#251,#122,.T.);
#305=EDGE_CURVE('',#252,#253,#123,.T.);
#306=EDGE_CURVE('',#254,#252,#124,.T.);
#307=EDGE_CURVE('',#255,#254,#125,.T.);
#308=EDGE_CURVE('',#253,#255,#126,.T.);
#309=EDGE_CURVE('',#249,#255,#23,.T.);
#310=EDGE_CURVE('',#253,#251,#24,.T.);
#311=EDGE_CURVE('',#250,#252,#25,.T.);
#312=EDGE_CURVE('',#254,#248,#26,.T.);
#313=EDGE_CURVE('',#256,#257,#127,.T.);
#314=EDGE_CURVE('',#258,#256,#128,.T.);
#315=EDGE_CURVE('',#259,#258,#129,.T.);
#316=EDGE_CURVE('',#257,#259,#130,.T.);
#317=EDGE_CURVE('',#260,#261,#131,.T.);
#318=EDGE_CURVE('',#262,#260,#132,.T.);
#319=EDGE_CURVE('',#263,#262,#133,.T.);
#320=EDGE_CURVE('',#261,#263,#134,.T.);
#321=EDGE_CURVE('',#257,#263,#27,.T.);
#322=EDGE_CURVE('',#261,#259,#28,.T.);
#323=EDGE_CURVE('',#264,#247,#135,.T.);
#324=EDGE_CURVE('',#264,#265,#136,.T.);
#325=EDGE_CURVE('',#240,#265,#137,.T.);
#326=EDGE_CURVE('',#266,#246,#138,.T.);
#327=EDGE_CURVE('',#266,#264,#139,.T.);
#328=EDGE_CURVE('',#267,#268,#140,.T.);
#329=EDGE_CURVE('',#268,#245,#141,.T.);
#330=EDGE_CURVE('',#244,#267,#142,.T.);
#331=EDGE_CURVE('',#265,#269,#143,.T.);
#332=EDGE_CURVE('',#270,#269,#144,.T.);
#333=EDGE_CURVE('',#270,#240,#145,.T.);
#334=EDGE_CURVE('',#269,#271,#146,.T.);
#335=EDGE_CURVE('',#271,#272,#147,.T.);
#336=EDGE_CURVE('',#272,#273,#148,.T.);
#337=EDGE_CURVE('',#273,#274,#149,.T.);
#338=EDGE_CURVE('',#274,#270,#150,.T.);
#339=EDGE_CURVE('',#267,#275,#151,.T.);
#340=EDGE_CURVE('',#276,#275,#152,.T.);
#341=EDGE_CURVE('',#268,#276,#153,.T.);
#342=EDGE_CURVE('',#274,#277,#29,.T.);
#343=EDGE_CURVE('',#277,#278,#154,.T.);
#344=EDGE_CURVE('',#278,#279,#155,.T.);
#345=EDGE_CURVE('',#279,#280,#156,.T.);
#346=EDGE_CURVE('',#280,#281,#157,.T.);
#347=EDGE_CURVE('',#281,#282,#158,.T.);
#348=EDGE_CURVE('',#282,#241,#159,.T.);
#349=EDGE_CURVE('',#283,#283,#30,.T.);
#350=EDGE_CURVE('',#284,#284,#31,.T.);
#351=EDGE_CURVE('',#275,#282,#160,.T.);
#352=EDGE_CURVE('',#262,#256,#32,.T.);
#353=EDGE_CURVE('',#281,#276,#161,.T.);
#354=EDGE_CURVE('',#285,#279,#162,.T.);
#355=EDGE_CURVE('',#285,#286,#163,.T.);
#356=EDGE_CURVE('',#280,#286,#164,.T.);
#357=EDGE_CURVE('',#283,#287,#165,.T.);
#358=EDGE_CURVE('',#287,#287,#33,.T.);
#359=EDGE_CURVE('',#284,#288,#166,.T.);
#360=EDGE_CURVE('',#288,#288,#34,.T.);
#361=EDGE_CURVE('',#289,#273,#35,.T.);
#362=EDGE_CURVE('',#277,#289,#167,.T.);
#363=EDGE_CURVE('',#289,#290,#168,.T.);
#364=EDGE_CURVE('',#290,#278,#169,.T.);
#365=EDGE_CURVE('',#286,#266,#170,.T.);
#366=EDGE_CURVE('',#271,#285,#171,.T.);
#367=EDGE_CURVE('',#258,#260,#36,.T.);
#368=EDGE_CURVE('',#291,#290,#172,.T.);
#369=EDGE_CURVE('',#285,#291,#173,.T.);
#370=EDGE_CURVE('',#291,#272,#174,.T.);
#371=ORIENTED_EDGE('',*,*,#292,.T.);
#372=ORIENTED_EDGE('',*,*,#293,.T.);
#373=ORIENTED_EDGE('',*,*,#294,.T.);
#374=ORIENTED_EDGE('',*,*,#295,.T.);
#375=ORIENTED_EDGE('',*,*,#294,.F.);
#376=ORIENTED_EDGE('',*,*,#296,.F.);
#377=ORIENTED_EDGE('',*,*,#297,.F.);
#378=ORIENTED_EDGE('',*,*,#298,.T.);
#379=ORIENTED_EDGE('',*,*,#299,.F.);
#380=ORIENTED_EDGE('',*,*,#300,.T.);
#381=ORIENTED_EDGE('',*,*,#301,.F.);
#382=ORIENTED_EDGE('',*,*,#302,.F.);
#383=ORIENTED_EDGE('',*,*,#303,.F.);
#384=ORIENTED_EDGE('',*,*,#304,.F.);
#385=ORIENTED_EDGE('',*,*,#305,.F.);
#386=ORIENTED_EDGE('',*,*,#306,.F.);
#387=ORIENTED_EDGE('',*,*,#307,.F.);
#388=ORIENTED_EDGE('',*,*,#308,.F.);
#389=ORIENTED_EDGE('',*,*,#308,.T.);
#390=ORIENTED_EDGE('',*,*,#309,.F.);
#391=ORIENTED_EDGE('',*,*,#304,.T.);
#392=ORIENTED_EDGE('',*,*,#310,.F.);
#393=ORIENTED_EDGE('',*,*,#306,.T.);
#394=ORIENTED_EDGE('',*,*,#311,.F.);
#395=ORIENTED_EDGE('',*,*,#302,.T.);
#396=ORIENTED_EDGE('',*,*,#312,.F.);
#397=ORIENTED_EDGE('',*,*,#313,.F.);
#398=ORIENTED_EDGE('',*,*,#314,.F.);
#399=ORIENTED_EDGE('',*,*,#315,.F.);
#400=ORIENTED_EDGE('',*,*,#316,.F.);
#401=ORIENTED_EDGE('',*,*,#317,.F.);
#402=ORIENTED_EDGE('',*,*,#318,.F.);
#403=ORIENTED_EDGE('',*,*,#319,.F.);
#404=ORIENTED_EDGE('',*,*,#320,.F.);
#405=ORIENTED_EDGE('',*,*,#320,.T.);
#406=ORIENTED_EDGE('',*,*,#321,.F.);
#407=ORIENTED_EDGE('',*,*,#316,.T.);
#408=ORIENTED_EDGE('',*,*,#322,.F.);
#409=ORIENTED_EDGE('',*,*,#295,.F.);
#410=ORIENTED_EDGE('',*,*,#300,.F.);
#411=ORIENTED_EDGE('',*,*,#323,.F.);
#412=ORIENTED_EDGE('',*,*,#324,.T.);
#413=ORIENTED_EDGE('',*,*,#325,.F.);
#414=ORIENTED_EDGE('',*,*,#326,.F.);
#415=ORIENTED_EDGE('',*,*,#327,.T.);
#416=ORIENTED_EDGE('',*,*,#323,.T.);
#417=ORIENTED_EDGE('',*,*,#299,.T.);
#418=ORIENTED_EDGE('',*,*,#328,.T.);
#419=ORIENTED_EDGE('',*,*,#329,.T.);
#420=ORIENTED_EDGE('',*,*,#297,.T.);
#421=ORIENTED_EDGE('',*,*,#330,.T.);
#422=ORIENTED_EDGE('',*,*,#325,.T.);
#423=ORIENTED_EDGE('',*,*,#331,.T.);
#424=ORIENTED_EDGE('',*,*,#332,.F.);
#425=ORIENTED_EDGE('',*,*,#333,.T.);
#426=ORIENTED_EDGE('',*,*,#334,.T.);
#427=ORIENTED_EDGE('',*,*,#335,.T.);
#428=ORIENTED_EDGE('',*,*,#336,.T.);
#429=ORIENTED_EDGE('',*,*,#337,.T.);
#430=ORIENTED_EDGE('',*,*,#338,.T.);
#431=ORIENTED_EDGE('',*,*,#332,.T.);
#432=ORIENTED_EDGE('',*,*,#339,.T.);
#433=ORIENTED_EDGE('',*,*,#340,.F.);
#434=ORIENTED_EDGE('',*,*,#341,.F.);
#435=ORIENTED_EDGE('',*,*,#328,.F.);
#436=ORIENTED_EDGE('',*,*,#338,.F.);
#437=ORIENTED_EDGE('',*,*,#342,.T.);
#438=ORIENTED_EDGE('',*,*,#343,.T.);
#439=ORIENTED_EDGE('',*,*,#344,.T.);
#440=ORIENTED_EDGE('',*,*,#345,.T.);
#441=ORIENTED_EDGE('',*,*,#346,.T.);
#442=ORIENTED_EDGE('',*,*,#347,.T.);
#443=ORIENTED_EDGE('',*,*,#348,.T.);
#444=ORIENTED_EDGE('',*,*,#292,.F.);
#445=ORIENTED_EDGE('',*,*,#333,.F.);
#446=ORIENTED_EDGE('',*,*,#349,.T.);
#447=ORIENTED_EDGE('',*,*,#350,.T.);
#448=ORIENTED_EDGE('',*,*,#348,.F.);
#449=ORIENTED_EDGE('',*,*,#351,.F.);
#450=ORIENTED_EDGE('',*,*,#339,.F.);
#451=ORIENTED_EDGE('',*,*,#330,.F.);
#452=ORIENTED_EDGE('',*,*,#296,.T.);
#453=ORIENTED_EDGE('',*,*,#293,.F.);
#454=ORIENTED_EDGE('',*,*,#307,.T.);
#455=ORIENTED_EDGE('',*,*,#312,.T.);
#456=ORIENTED_EDGE('',*,*,#301,.T.);
#457=ORIENTED_EDGE('',*,*,#309,.T.);
#458=ORIENTED_EDGE('',*,*,#352,.T.);
#459=ORIENTED_EDGE('',*,*,#313,.T.);
#460=ORIENTED_EDGE('',*,*,#321,.T.);
#461=ORIENTED_EDGE('',*,*,#319,.T.);
#462=ORIENTED_EDGE('',*,*,#347,.F.);
#463=ORIENTED_EDGE('',*,*,#353,.T.);
#464=ORIENTED_EDGE('',*,*,#340,.T.);
#465=ORIENTED_EDGE('',*,*,#351,.T.);
#466=ORIENTED_EDGE('',*,*,#345,.F.);
#467=ORIENTED_EDGE('',*,*,#354,.F.);
#468=ORIENTED_EDGE('',*,*,#355,.T.);
#469=ORIENTED_EDGE('',*,*,#356,.F.);
#470=ORIENTED_EDGE('',*,*,#349,.F.);
#471=ORIENTED_EDGE('',*,*,#357,.T.);
#472=ORIENTED_EDGE('',*,*,#358,.F.);
#473=ORIENTED_EDGE('',*,*,#357,.F.);
#474=ORIENTED_EDGE('',*,*,#350,.F.);
#475=ORIENTED_EDGE('',*,*,#359,.T.);
#476=ORIENTED_EDGE('',*,*,#360,.F.);
#477=ORIENTED_EDGE('',*,*,#359,.F.);
#478=ORIENTED_EDGE('',*,*,#337,.F.);
#479=ORIENTED_EDGE('',*,*,#361,.F.);
#480=ORIENTED_EDGE('',*,*,#362,.F.);
#481=ORIENTED_EDGE('',*,*,#342,.F.);
#482=ORIENTED_EDGE('',*,*,#343,.F.);
#483=ORIENTED_EDGE('',*,*,#362,.T.);
#484=ORIENTED_EDGE('',*,*,#363,.T.);
#485=ORIENTED_EDGE('',*,*,#364,.T.);
#486=ORIENTED_EDGE('',*,*,#334,.F.);
#487=ORIENTED_EDGE('',*,*,#331,.F.);
#488=ORIENTED_EDGE('',*,*,#324,.F.);
#489=ORIENTED_EDGE('',*,*,#327,.F.);
#490=ORIENTED_EDGE('',*,*,#365,.F.);
#491=ORIENTED_EDGE('',*,*,#355,.F.);
#492=ORIENTED_EDGE('',*,*,#366,.F.);
#493=ORIENTED_EDGE('',*,*,#367,.F.);
#494=ORIENTED_EDGE('',*,*,#314,.T.);
#495=ORIENTED_EDGE('',*,*,#352,.F.);
#496=ORIENTED_EDGE('',*,*,#318,.T.);
#497=ORIENTED_EDGE('',*,*,#365,.T.);
#498=ORIENTED_EDGE('',*,*,#326,.T.);
#499=ORIENTED_EDGE('',*,*,#298,.F.);
#500=ORIENTED_EDGE('',*,*,#329,.F.);
#501=ORIENTED_EDGE('',*,*,#341,.T.);
#502=ORIENTED_EDGE('',*,*,#353,.F.);
#503=ORIENTED_EDGE('',*,*,#346,.F.);
#504=ORIENTED_EDGE('',*,*,#356,.T.);
#505=ORIENTED_EDGE('',*,*,#367,.T.);
#506=ORIENTED_EDGE('',*,*,#317,.T.);
#507=ORIENTED_EDGE('',*,*,#322,.T.);
#508=ORIENTED_EDGE('',*,*,#315,.T.);
#509=ORIENTED_EDGE('',*,*,#305,.T.);
#510=ORIENTED_EDGE('',*,*,#310,.T.);
#511=ORIENTED_EDGE('',*,*,#303,.T.);
#512=ORIENTED_EDGE('',*,*,#311,.T.);
#513=ORIENTED_EDGE('',*,*,#344,.F.);
#514=ORIENTED_EDGE('',*,*,#364,.F.);
#515=ORIENTED_EDGE('',*,*,#368,.F.);
#516=ORIENTED_EDGE('',*,*,#369,.F.);
#517=ORIENTED_EDGE('',*,*,#354,.T.);
#518=ORIENTED_EDGE('',*,*,#335,.F.);
#519=ORIENTED_EDGE('',*,*,#366,.T.);
#520=ORIENTED_EDGE('',*,*,#369,.T.);
#521=ORIENTED_EDGE('',*,*,#370,.T.);
#522=ORIENTED_EDGE('',*,*,#336,.F.);
#523=ORIENTED_EDGE('',*,*,#370,.F.);
#524=ORIENTED_EDGE('',*,*,#368,.T.);
#525=ORIENTED_EDGE('',*,*,#363,.F.);
#526=ORIENTED_EDGE('',*,*,#361,.T.);
#527=ORIENTED_EDGE('',*,*,#360,.T.);
#528=ORIENTED_EDGE('',*,*,#358,.T.);
#529=PLANE('',#594);
#530=PLANE('',#595);
#531=PLANE('',#596);
#532=PLANE('',#597);
#533=PLANE('',#604);
#534=PLANE('',#605);
#535=PLANE('',#609);
#536=PLANE('',#610);
#537=PLANE('',#611);
#538=PLANE('',#612);
#539=PLANE('',#613);
#540=PLANE('',#614);
#541=PLANE('',#615);
#542=PLANE('',#619);
#543=PLANE('',#621);
#544=PLANE('',#622);
#545=PLANE('',#629);
#546=PLANE('',#630);
#547=PLANE('',#633);
#548=PLANE('',#634);
#549=PLANE('',#635);
#550=PLANE('',#636);
#551=ADVANCED_FACE('',(#44),#529,.F.);
#552=ADVANCED_FACE('',(#45),#530,.F.);
#553=ADVANCED_FACE('',(#46),#531,.T.);
#554=ADVANCED_FACE('',(#47),#532,.T.);
#555=ADVANCED_FACE('',(#48),#37,.F.);
#556=ADVANCED_FACE('',(#49),#38,.F.);
#557=ADVANCED_FACE('',(#50),#533,.T.);
#558=ADVANCED_FACE('',(#51),#534,.T.);
#559=ADVANCED_FACE('',(#52),#39,.F.);
#560=ADVANCED_FACE('',(#53),#535,.F.);
#561=ADVANCED_FACE('',(#54),#536,.T.);
#562=ADVANCED_FACE('',(#55),#537,.T.);
#563=ADVANCED_FACE('',(#56),#538,.T.);
#564=ADVANCED_FACE('',(#57),#539,.F.);
#565=ADVANCED_FACE('',(#58),#540,.F.);
#566=ADVANCED_FACE('',(#59,#15,#16),#541,.F.);
#567=ADVANCED_FACE('',(#60,#17,#18),#542,.F.);
#568=ADVANCED_FACE('',(#61),#543,.F.);
#569=ADVANCED_FACE('',(#62),#544,.F.);
#570=ADVANCED_FACE('',(#63),#40,.F.);
#571=ADVANCED_FACE('',(#64),#41,.F.);
#572=ADVANCED_FACE('',(#65),#42,.F.);
#573=ADVANCED_FACE('',(#66),#545,.F.);
#574=ADVANCED_FACE('',(#67),#546,.F.);
#575=ADVANCED_FACE('',(#68),#43,.F.);
#576=ADVANCED_FACE('',(#69,#19,#20),#547,.F.);
#577=ADVANCED_FACE('',(#70),#548,.F.);
#578=ADVANCED_FACE('',(#71),#549,.T.);
#579=ADVANCED_FACE('',(#72,#21,#22),#550,.F.);
#580=CLOSED_SHELL('',(#551,#552,#553,#554,#555,#556,#557,#558,#559,#560,
#561,#562,#563,#564,#565,#566,#567,#568,#569,#570,#571,#572,#573,#574,#575,
#576,#577,#578,#579));
#581=DERIVED_UNIT_ELEMENT(#583,1.);
#582=DERIVED_UNIT_ELEMENT(#956,-3.);
#583=(
MASS_UNIT()
NAMED_UNIT(*)
SI_UNIT(.KILO.,.GRAM.)
);
#584=DERIVED_UNIT((#581,#582));
#585=MEASURE_REPRESENTATION_ITEM('density measure',
POSITIVE_RATIO_MEASURE(7850.),#584);
#586=PROPERTY_DEFINITION_REPRESENTATION(#591,#588);
#587=PROPERTY_DEFINITION_REPRESENTATION(#592,#589);
#588=REPRESENTATION('material name',(#590),#953);
#589=REPRESENTATION('density',(#585),#953);
#590=DESCRIPTIVE_REPRESENTATION_ITEM('Steel','Steel');
#591=PROPERTY_DEFINITION('material property','material name',#963);
#592=PROPERTY_DEFINITION('material property','density of part',#963);
#593=AXIS2_PLACEMENT_3D('',#790,#637,#638);
#594=AXIS2_PLACEMENT_3D('',#791,#639,#640);
#595=AXIS2_PLACEMENT_3D('',#800,#645,#646);
#596=AXIS2_PLACEMENT_3D('',#810,#652,#653);
#597=AXIS2_PLACEMENT_3D('',#819,#658,#659);
#598=AXIS2_PLACEMENT_3D('',#828,#664,#665);
#599=AXIS2_PLACEMENT_3D('',#829,#666,#667);
#600=AXIS2_PLACEMENT_3D('',#830,#668,#669);
#601=AXIS2_PLACEMENT_3D('',#831,#670,#671);
#602=AXIS2_PLACEMENT_3D('',#832,#672,#673);
#603=AXIS2_PLACEMENT_3D('',#833,#674,#675);
#604=AXIS2_PLACEMENT_3D('',#834,#676,#677);
#605=AXIS2_PLACEMENT_3D('',#843,#682,#683);
#606=AXIS2_PLACEMENT_3D('',#852,#688,#689);
#607=AXIS2_PLACEMENT_3D('',#853,#690,#691);
#608=AXIS2_PLACEMENT_3D('',#854,#692,#693);
#609=AXIS2_PLACEMENT_3D('',#855,#694,#695);
#610=AXIS2_PLACEMENT_3D('',#861,#699,#700);
#611=AXIS2_PLACEMENT_3D('',#865,#703,#704);
#612=AXIS2_PLACEMENT_3D('',#871,#708,#709);
#613=AXIS2_PLACEMENT_3D('',#877,#713,#714);
#614=AXIS2_PLACEMENT_3D('',#887,#720,#721);
#615=AXIS2_PLACEMENT_3D('',#893,#725,#726);
#616=AXIS2_PLACEMENT_3D('',#895,#727,#728);
#617=AXIS2_PLACEMENT_3D('',#908,#735,#736);
#618=AXIS2_PLACEMENT_3D('',#910,#737,#738);
#619=AXIS2_PLACEMENT_3D('',#911,#739,#740);
#620=AXIS2_PLACEMENT_3D('',#913,#742,#743);
#621=AXIS2_PLACEMENT_3D('',#914,#744,#745);
#622=AXIS2_PLACEMENT_3D('',#916,#747,#748);
#623=AXIS2_PLACEMENT_3D('',#922,#752,#753);
#624=AXIS2_PLACEMENT_3D('',#925,#755,#756);
#625=AXIS2_PLACEMENT_3D('',#926,#757,#758);
#626=AXIS2_PLACEMENT_3D('',#929,#760,#761);
#627=AXIS2_PLACEMENT_3D('',#930,#762,#763);
#628=AXIS2_PLACEMENT_3D('',#932,#764,#765);
#629=AXIS2_PLACEMENT_3D('',#934,#767,#768);
#630=AXIS2_PLACEMENT_3D('',#938,#771,#772);
#631=AXIS2_PLACEMENT_3D('',#941,#775,#776);
#632=AXIS2_PLACEMENT_3D('',#942,#777,#778);
#633=AXIS2_PLACEMENT_3D('',#943,#779,#780);
#634=AXIS2_PLACEMENT_3D('',#944,#781,#782);
#635=AXIS2_PLACEMENT_3D('',#948,#785,#786);
#636=AXIS2_PLACEMENT_3D('',#950,#788,#789);
#637=DIRECTION('axis',(0.,0.,1.));
#638=DIRECTION('refdir',(1.,0.,0.));
#639=DIRECTION('center_axis',(0.,0.,1.));
#640=DIRECTION('ref_axis',(1.,0.,0.));
#641=DIRECTION('',(0.,-1.,0.));
#642=DIRECTION('',(-1.,0.,0.));
#643=DIRECTION('',(0.,1.,0.));
#644=DIRECTION('',(1.,0.,0.));
#645=DIRECTION('center_axis',(1.,0.,0.));
#646=DIRECTION('ref_axis',(0.,0.,-1.));
#647=DIRECTION('',(0.,0.,-1.));
#648=DIRECTION('',(0.,-1.,0.));
#649=DIRECTION('',(0.,0.,-1.));
#650=DIRECTION('',(0.,-1.,0.));
#651=DIRECTION('',(0.,0.,-1.));
#652=DIRECTION('center_axis',(1.,0.,0.));
#653=DIRECTION('ref_axis',(0.,0.,-1.));
#654=DIRECTION('',(0.,0.,1.));
#655=DIRECTION('',(0.,-1.,0.));
#656=DIRECTION('',(0.,0.,-1.));
#657=DIRECTION('',(0.,1.,0.));
#658=DIRECTION('center_axis',(-1.,0.,0.));
#659=DIRECTION('ref_axis',(0.,0.,1.));
#660=DIRECTION('',(0.,0.,1.));
#661=DIRECTION('',(0.,1.,0.));
#662=DIRECTION('',(0.,0.,-1.));
#663=DIRECTION('',(0.,-1.,0.));
#664=DIRECTION('center_axis',(0.,1.,0.));
#665=DIRECTION('ref_axis',(1.,0.,0.));
#666=DIRECTION('center_axis',(0.,1.,0.));
#667=DIRECTION('ref_axis',(1.,0.,0.));
#668=DIRECTION('center_axis',(0.,-1.,0.));
#669=DIRECTION('ref_axis',(1.,0.,0.));
#670=DIRECTION('center_axis',(0.,1.,0.));
#671=DIRECTION('ref_axis',(1.,0.,0.));
#672=DIRECTION('center_axis',(0.,-1.,0.));
#673=DIRECTION('ref_axis',(1.,0.,0.));
#674=DIRECTION('center_axis',(0.,1.,0.));
#675=DIRECTION('ref_axis',(1.,0.,0.));
#676=DIRECTION('center_axis',(1.,0.,0.));
#677=DIRECTION('ref_axis',(0.,0.,-1.));
#678=DIRECTION('',(0.,0.,1.));
#679=DIRECTION('',(0.,-1.,0.));
#680=DIRECTION('',(0.,0.,-1.));
#681=DIRECTION('',(0.,1.,0.));
#682=DIRECTION('center_axis',(-1.,0.,0.));
#683=DIRECTION('ref_axis',(0.,0.,1.));
#684=DIRECTION('',(0.,0.,1.));
#685=DIRECTION('',(0.,1.,0.));
#686=DIRECTION('',(0.,0.,-1.));
#687=DIRECTION('',(0.,-1.,0.));
#688=DIRECTION('center_axis',(0.,1.,0.));
#689=DIRECTION('ref_axis',(1.,0.,0.));
#690=DIRECTION('center_axis',(0.,1.,0.));
#691=DIRECTION('ref_axis',(1.,0.,0.));
#692=DIRECTION('center_axis',(0.,-1.,0.));
#693=DIRECTION('ref_axis',(1.,0.,0.));
#694=DIRECTION('center_axis',(0.,-1.,0.));
#695=DIRECTION('ref_axis',(0.,0.,-1.));
#696=DIRECTION('',(-1.,0.,0.));
#697=DIRECTION('',(0.,0.,-1.));
#698=DIRECTION('',(1.,0.,0.));
#699=DIRECTION('center_axis',(0.,0.,1.));
#700=DIRECTION('ref_axis',(1.,0.,0.));
#701=DIRECTION('',(-1.,0.,0.));
#702=DIRECTION('',(0.,1.,0.));
#703=DIRECTION('center_axis',(0.,0.,1.));
#704=DIRECTION('ref_axis',(1.,0.,0.));
#705=DIRECTION('',(0.,1.,0.));
#706=DIRECTION('',(-1.,0.,0.));
#707=DIRECTION('',(1.,0.,0.));
#708=DIRECTION('center_axis',(0.,0.,1.));
#709=DIRECTION('ref_axis',(1.,0.,0.));
#710=DIRECTION('',(0.,1.,0.));
#711=DIRECTION('',(1.,0.,0.));
#712=DIRECTION('',(0.,-1.,0.));
#713=DIRECTION('center_axis',(0.,-1.,0.));
#714=DIRECTION('ref_axis',(0.,0.,-1.));
#715=DIRECTION('',(0.,0.,-1.));
#716=DIRECTION('',(1.,0.,0.));
#717=DIRECTION('',(0.,0.,-1.));
#718=DIRECTION('',(-1.,0.,0.));
#719=DIRECTION('',(0.,0.,1.));
#720=DIRECTION('center_axis',(-1.,0.,0.));
#721=DIRECTION('ref_axis',(0.,0.,1.));
#722=DIRECTION('',(0.,0.,-1.));
#723=DIRECTION('',(0.,-1.,0.));
#724=DIRECTION('',(0.,0.,-1.));
#725=DIRECTION('center_axis',(1.,0.,0.));
#726=DIRECTION('ref_axis',(0.,0.,-1.));
#727=DIRECTION('center_axis',(1.,0.,0.));
#728=DIRECTION('ref_axis',(0.,0.,-1.));
#729=DIRECTION('',(0.,-1.,0.));
#730=DIRECTION('',(0.,0.,1.));
#731=DIRECTION('',(0.,-1.,0.));
#732=DIRECTION('',(0.,0.,-1.));
#733=DIRECTION('',(0.,-1.,0.));
#734=DIRECTION('',(0.,0.,1.));
#735=DIRECTION('center_axis',(1.,0.,0.));
#736=DIRECTION('ref_axis',(0.,0.,-1.));
#737=DIRECTION('center_axis',(1.,0.,0.));
#738=DIRECTION('ref_axis',(0.,0.,-1.));
#739=DIRECTION('center_axis',(0.,1.,0.));
#740=DIRECTION('ref_axis',(0.,0.,1.));
#741=DIRECTION('',(-1.,0.,0.));
#742=DIRECTION('center_axis',(0.,1.,0.));
#743=DIRECTION('ref_axis',(1.,0.,0.));
#744=DIRECTION('center_axis',(0.,0.,1.));
#745=DIRECTION('ref_axis',(1.,0.,0.));
#746=DIRECTION('',(1.,0.,0.));
#747=DIRECTION('center_axis',(0.,0.,1.));
#748=DIRECTION('ref_axis',(1.,0.,0.));
#749=DIRECTION('',(-1.,0.,0.));
#750=DIRECTION('',(0.,-1.,0.));
#751=DIRECTION('',(1.,0.,0.));
#752=DIRECTION('center_axis',(1.,0.,0.));
#753=DIRECTION('ref_axis',(0.,0.,-1.));
#754=DIRECTION('',(1.,0.,0.));
#755=DIRECTION('center_axis',(-1.,0.,0.));
#756=DIRECTION('ref_axis',(0.,0.,-1.));
#757=DIRECTION('center_axis',(1.,0.,0.));
#758=DIRECTION('ref_axis',(0.,0.,-1.));
#759=DIRECTION('',(1.,0.,0.));
#760=DIRECTION('center_axis',(-1.,0.,0.));
#761=DIRECTION('ref_axis',(0.,0.,-1.));
#762=DIRECTION('center_axis',(1.,0.,0.));
#763=DIRECTION('ref_axis',(0.,0.,-1.));
#764=DIRECTION('center_axis',(-1.,0.,0.));
#765=DIRECTION('ref_axis',(0.,0.,-1.));
#766=DIRECTION('',(1.,0.,0.));
#767=DIRECTION('center_axis',(0.,0.,1.));
#768=DIRECTION('ref_axis',(1.,0.,0.));
#769=DIRECTION('',(0.,-1.,0.));
#770=DIRECTION('',(-1.,0.,0.));
#771=DIRECTION('center_axis',(-1.,0.,0.));
#772=DIRECTION('ref_axis',(0.,0.,1.));
#773=DIRECTION('',(0.,0.,1.));
#774=DIRECTION('',(0.,-1.,0.));
#775=DIRECTION('center_axis',(0.,1.,0.));
#776=DIRECTION('ref_axis',(1.,0.,0.));
#777=DIRECTION('center_axis',(0.,-1.,0.));
#778=DIRECTION('ref_axis',(1.,0.,0.));
#779=DIRECTION('center_axis',(0.,-1.,0.));
#780=DIRECTION('ref_axis',(0.,0.,-1.));
#781=DIRECTION('center_axis',(0.,1.,0.));
#782=DIRECTION('ref_axis',(0.,0.,1.));
#783=DIRECTION('',(0.,0.,-1.));
#784=DIRECTION('',(1.,0.,0.));
#785=DIRECTION('center_axis',(0.,0.,1.));
#786=DIRECTION('ref_axis',(1.,0.,0.));
#787=DIRECTION('',(0.,1.,0.));
#788=DIRECTION('center_axis',(-1.,0.,0.));
#789=DIRECTION('ref_axis',(0.,0.,1.));
#790=CARTESIAN_POINT('',(0.,0.,0.));
#791=CARTESIAN_POINT('Origin',(376.5,-20.,279.));
#792=CARTESIAN_POINT('',(368.5,-28.,279.));
#793=CARTESIAN_POINT('',(368.5,-39.,279.));
#794=CARTESIAN_POINT('',(368.5,-20.,279.));
#795=CARTESIAN_POINT('',(366.,-39.,279.));
#796=CARTESIAN_POINT('',(376.25,-39.,279.));
#797=CARTESIAN_POINT('',(366.,-28.,279.));
#798=CARTESIAN_POINT('',(366.,-16.5,279.));
#799=CARTESIAN_POINT('',(354.25,-28.,279.));
#800=CARTESIAN_POINT('Origin',(366.,-35.5,300.8935055785));
#801=CARTESIAN_POINT('',(366.,-39.,333.8935055785));
#802=CARTESIAN_POINT('',(366.,-39.,300.8935055785));
#803=CARTESIAN_POINT('',(366.,-32.,333.8935055785));
#804=CARTESIAN_POINT('',(366.,-35.5,333.8935055785));
#805=CARTESIAN_POINT('',(366.,-32.,298.));
#806=CARTESIAN_POINT('',(366.,-32.,300.8935055785));
#807=CARTESIAN_POINT('',(366.,-28.,298.));
#808=CARTESIAN_POINT('',(366.,-33.,298.));
#809=CARTESIAN_POINT('',(366.,-28.,286.));
#810=CARTESIAN_POINT('Origin',(373.3,-35.5,317.8935055785));
#811=CARTESIAN_POINT('',(373.3,-39.,315.3935055785));
#812=CARTESIAN_POINT('',(373.3,-39.,320.3935055785));
#813=CARTESIAN_POINT('',(373.3,-39.,309.3935055785));
#814=CARTESIAN_POINT('',(373.3,-32.,315.3935055785));
#815=CARTESIAN_POINT('',(373.3,-35.5,315.3935055785));
#816=CARTESIAN_POINT('',(373.3,-32.,320.3935055785));
#817=CARTESIAN_POINT('',(373.3,-32.,309.3935055785));
#818=CARTESIAN_POINT('',(373.3,-35.5,320.3935055785));
#819=CARTESIAN_POINT('Origin',(378.7,-35.5,317.8935055785));
#820=CARTESIAN_POINT('',(378.7,-32.,315.3935055785));
#821=CARTESIAN_POINT('',(378.7,-32.,320.3935055785));
#822=CARTESIAN_POINT('',(378.7,-32.,309.3935055785));
#823=CARTESIAN_POINT('',(378.7,-39.,315.3935055785));
#824=CARTESIAN_POINT('',(378.7,-35.5,315.3935055785));
#825=CARTESIAN_POINT('',(378.7,-39.,320.3935055785));
#826=CARTESIAN_POINT('',(378.7,-39.,309.3935055785));
#827=CARTESIAN_POINT('',(378.7,-35.5,320.3935055785));
#828=CARTESIAN_POINT('Origin',(376.,-35.5,320.3935055785));
#829=CARTESIAN_POINT('Origin',(376.,-39.,320.3935055785));
#830=CARTESIAN_POINT('Origin',(376.,-32.,320.3935055785));
#831=CARTESIAN_POINT('Origin',(376.,-35.5,315.3935055785));
#832=CARTESIAN_POINT('Origin',(376.,-32.,315.3935055785));
#833=CARTESIAN_POINT('Origin',(376.,-39.,315.3935055785));
#834=CARTESIAN_POINT('Origin',(373.3,-35.5,283.8935055785));
#835=CARTESIAN_POINT('',(373.3,-39.,281.3935055785));
#836=CARTESIAN_POINT('',(373.3,-39.,286.3935055785));
#837=CARTESIAN_POINT('',(373.3,-39.,292.3935055785));
#838=CARTESIAN_POINT('',(373.3,-32.,281.3935055785));
#839=CARTESIAN_POINT('',(373.3,-35.5,281.3935055785));
#840=CARTESIAN_POINT('',(373.3,-32.,286.3935055785));
#841=CARTESIAN_POINT('',(373.3,-32.,292.3935055785));
#842=CARTESIAN_POINT('',(373.3,-35.5,286.3935055785));
#843=CARTESIAN_POINT('Origin',(378.7,-35.5,283.8935055785));
#844=CARTESIAN_POINT('',(378.7,-32.,281.3935055785));
#845=CARTESIAN_POINT('',(378.7,-32.,286.3935055785));
#846=CARTESIAN_POINT('',(378.7,-32.,292.3935055785));
#847=CARTESIAN_POINT('',(378.7,-39.,281.3935055785));
#848=CARTESIAN_POINT('',(378.7,-35.5,281.3935055785));
#849=CARTESIAN_POINT('',(378.7,-39.,286.3935055785));
#850=CARTESIAN_POINT('',(378.7,-39.,292.3935055785));
#851=CARTESIAN_POINT('',(378.7,-35.5,286.3935055785));
#852=CARTESIAN_POINT('Origin',(376.,-35.5,286.3935055785));
#853=CARTESIAN_POINT('Origin',(376.,-39.,286.3935055785));
#854=CARTESIAN_POINT('Origin',(376.,-32.,286.3935055785));
#855=CARTESIAN_POINT('Origin',(368.75,-28.,286.));
#856=CARTESIAN_POINT('',(371.5,-28.,298.));
#857=CARTESIAN_POINT('',(368.75,-28.,298.));
#858=CARTESIAN_POINT('',(371.5,-28.,279.));
#859=CARTESIAN_POINT('',(371.5,-28.,286.));
#860=CARTESIAN_POINT('',(354.25,-28.,279.));
#861=CARTESIAN_POINT('Origin',(368.75,-33.,298.));
#862=CARTESIAN_POINT('',(371.5,-32.,298.));
#863=CARTESIAN_POINT('',(372.375,-32.,298.));
#864=CARTESIAN_POINT('',(371.5,-33.,298.));
#865=CARTESIAN_POINT('Origin',(376.,-35.5,333.8935055785));
#866=CARTESIAN_POINT('',(386.,-39.,333.8935055785));
#867=CARTESIAN_POINT('',(386.,-32.,333.8935055785));
#868=CARTESIAN_POINT('',(386.,-35.5,333.8935055785));
#869=CARTESIAN_POINT('',(376.,-32.,333.8935055785));
#870=CARTESIAN_POINT('',(376.,-39.,333.8935055785));
#871=CARTESIAN_POINT('Origin',(339.75,0.,279.));
#872=CARTESIAN_POINT('',(371.5,0.,279.));
#873=CARTESIAN_POINT('',(371.5,0.,279.));
#874=CARTESIAN_POINT('',(368.5,0.,279.));
#875=CARTESIAN_POINT('',(358.75,0.,279.));
#876=CARTESIAN_POINT('',(368.5,-20.,279.));
#877=CARTESIAN_POINT('Origin',(377.75,0.,247.5));
#878=CARTESIAN_POINT('',(371.5,0.,274.));
#879=CARTESIAN_POINT('',(371.5,0.,261.));
#880=CARTESIAN_POINT('',(372.,0.,274.));
#881=CARTESIAN_POINT('',(359.875,0.,274.));
#882=CARTESIAN_POINT('',(372.,0.,267.2));
#883=CARTESIAN_POINT('',(372.,0.,258.25));
#884=CARTESIAN_POINT('',(368.5,0.,267.2));
#885=CARTESIAN_POINT('',(369.95,0.,267.2));
#886=CARTESIAN_POINT('',(368.5,0.,243.75));
#887=CARTESIAN_POINT('Origin',(386.,-35.5,300.8935055785));
#888=CARTESIAN_POINT('',(386.,-39.,267.8935055785));
#889=CARTESIAN_POINT('',(386.,-39.,300.8935055785));
#890=CARTESIAN_POINT('',(386.,-32.,267.8935055785));
#891=CARTESIAN_POINT('',(386.,-35.5,267.8935055785));
#892=CARTESIAN_POINT('',(386.,-32.,300.8935055785));
#893=CARTESIAN_POINT('Origin',(368.5,0.,240.));
#894=CARTESIAN_POINT('',(368.5,-3.2,264.));
#895=CARTESIAN_POINT('Origin',(368.5,1.46957615897682E-15,264.));
#896=CARTESIAN_POINT('',(368.5,-30.,264.));
#897=CARTESIAN_POINT('',(368.5,-10.,264.));
#898=CARTESIAN_POINT('',(368.5,-30.,274.));
#899=CARTESIAN_POINT('',(368.5,-30.,258.25));
#900=CARTESIAN_POINT('',(368.5,-32.,274.));
#901=CARTESIAN_POINT('',(368.5,-26.5,274.));
#902=CARTESIAN_POINT('',(368.5,-32.,267.8935055785));
#903=CARTESIAN_POINT('',(368.5,-32.,274.19675278925));
#904=CARTESIAN_POINT('',(368.5,-39.,267.8935055785));
#905=CARTESIAN_POINT('',(368.5,-27.75,267.8935055785));
#906=CARTESIAN_POINT('',(368.5,-39.,274.19675278925));
#907=CARTESIAN_POINT('',(368.5,-23.,272.25));
#908=CARTESIAN_POINT('Origin',(368.5,-23.,270.));
#909=CARTESIAN_POINT('',(368.5,-10.,272.25));
#910=CARTESIAN_POINT('Origin',(368.5,-10.,270.));
#911=CARTESIAN_POINT('Origin',(376.,-39.,300.8935055785));
#912=CARTESIAN_POINT('',(376.,-39.,267.8935055785));
#913=CARTESIAN_POINT('Origin',(376.,-39.,281.3935055785));
#914=CARTESIAN_POINT('Origin',(376.,-35.5,267.8935055785));
#915=CARTESIAN_POINT('',(376.,-32.,267.8935055785));
#916=CARTESIAN_POINT('Origin',(368.75,-33.,274.));
#917=CARTESIAN_POINT('',(371.5,-30.,274.));
#918=CARTESIAN_POINT('',(355.375,-30.,274.));
#919=CARTESIAN_POINT('',(371.5,-32.,274.));
#920=CARTESIAN_POINT('',(371.5,-33.,274.));
#921=CARTESIAN_POINT('',(372.375,-32.,274.));
#922=CARTESIAN_POINT('Origin',(340.,-23.,270.));
#923=CARTESIAN_POINT('',(372.,-23.,272.25));
#924=CARTESIAN_POINT('',(340.,-23.,272.25));
#925=CARTESIAN_POINT('Origin',(372.,-23.,270.));
#926=CARTESIAN_POINT('Origin',(340.,-10.,270.));
#927=CARTESIAN_POINT('',(372.,-10.,272.25));
#928=CARTESIAN_POINT('',(340.,-10.,272.25));
#929=CARTESIAN_POINT('Origin',(372.,-10.,270.));
#930=CARTESIAN_POINT('Origin',(369.95,1.46957615897682E-15,264.));
#931=CARTESIAN_POINT('',(372.,-3.2,264.));
#932=CARTESIAN_POINT('Origin',(372.,1.46957615897682E-15,264.));
#933=CARTESIAN_POINT('',(369.95,-3.2,264.));
#934=CARTESIAN_POINT('Origin',(342.,0.,264.));
#935=CARTESIAN_POINT('',(372.,-30.,264.));
#936=CARTESIAN_POINT('',(372.,0.,264.));
#937=CARTESIAN_POINT('',(342.,-30.,264.));
#938=CARTESIAN_POINT('Origin',(371.5,0.,274.5));
#939=CARTESIAN_POINT('',(371.5,-32.,293.44675278925));
#940=CARTESIAN_POINT('',(371.5,0.,274.));
#941=CARTESIAN_POINT('Origin',(376.,-35.5,281.3935055785));
#942=CARTESIAN_POINT('Origin',(376.,-32.,281.3935055785));
#943=CARTESIAN_POINT('Origin',(376.,-32.,300.8935055785));
#944=CARTESIAN_POINT('Origin',(342.,-30.,269.));
#945=CARTESIAN_POINT('',(372.,-30.,274.));
#946=CARTESIAN_POINT('',(372.,-30.,269.));
#947=CARTESIAN_POINT('',(342.,-30.,274.));
#948=CARTESIAN_POINT('Origin',(342.,0.,274.));
#949=CARTESIAN_POINT('',(372.,0.,274.));
#950=CARTESIAN_POINT('Origin',(372.,0.,269.));
#951=UNCERTAINTY_MEASURE_WITH_UNIT(LENGTH_MEASURE(0.01),#955,
'DISTANCE_ACCURACY_VALUE',
'Maximum model space distance between geometric entities at asserted c
onnectivities');
#952=UNCERTAINTY_MEASURE_WITH_UNIT(LENGTH_MEASURE(0.01),#955,
'DISTANCE_ACCURACY_VALUE',
'Maximum model space distance between geometric entities at asserted c
onnectivities');
#953=(
GEOMETRIC_REPRESENTATION_CONTEXT(3)
GLOBAL_UNCERTAINTY_ASSIGNED_CONTEXT((#951))
GLOBAL_UNIT_ASSIGNED_CONTEXT((#955,#957,#958))
REPRESENTATION_CONTEXT('','3D')
);
#954=(
GEOMETRIC_REPRESENTATION_CONTEXT(3)
GLOBAL_UNCERTAINTY_ASSIGNED_CONTEXT((#952))
GLOBAL_UNIT_ASSIGNED_CONTEXT((#955,#957,#958))
REPRESENTATION_CONTEXT('','3D')
);
#955=(
LENGTH_UNIT()
NAMED_UNIT(*)
SI_UNIT(.MILLI.,.METRE.)
);
#956=(
LENGTH_UNIT()
NAMED_UNIT(*)
SI_UNIT($,.METRE.)
);
#957=(
NAMED_UNIT(*)
PLANE_ANGLE_UNIT()
SI_UNIT($,.RADIAN.)
);
#958=(
NAMED_UNIT(*)
SI_UNIT($,.STERADIAN.)
SOLID_ANGLE_UNIT()
);
#959=SHAPE_DEFINITION_REPRESENTATION(#960,#961);
#960=PRODUCT_DEFINITION_SHAPE('',$,#963);
#961=SHAPE_REPRESENTATION('',(#593),#953);
#962=PRODUCT_DEFINITION_CONTEXT('part definition',#967,'design');
#963=PRODUCT_DEFINITION('2026-08-17-10-01-20-505',
'EXPORT_TMP_PRINT_V015_P304G_PG19Carrier_Front_NegY',#964,#962);
#964=PRODUCT_DEFINITION_FORMATION('',$,#969);
#965=PRODUCT_RELATED_PRODUCT_CATEGORY(
'EXPORT_TMP_PRINT_V015_P304G_PG19Carrier_Front_NegY',
'EXPORT_TMP_PRINT_V015_P304G_PG19Carrier_Front_NegY',(#969));
#966=APPLICATION_PROTOCOL_DEFINITION('international standard',
'automotive_design',2009,#967);
#967=APPLICATION_CONTEXT(
'Core Data for Automotive Mechanical Design Process');
#968=PRODUCT_CONTEXT('part definition',#967,'mechanical');
#969=PRODUCT('2026-08-17-10-01-20-505',
'EXPORT_TMP_PRINT_V015_P304G_PG19Carrier_Front_NegY',$,(#968));
#970=PRESENTATION_STYLE_ASSIGNMENT((#971));
#971=SURFACE_STYLE_USAGE(.BOTH.,#972);
#972=SURFACE_SIDE_STYLE('',(#973));
#973=SURFACE_STYLE_FILL_AREA(#974);
#974=FILL_AREA_STYLE('Steel - Satin',(#975));
#975=FILL_AREA_STYLE_COLOUR('Steel - Satin',#976);
#976=COLOUR_RGB('Steel - Satin',0.627450980392157,0.627450980392157,0.627450980392157);
ENDSEC;
END-ISO-10303-21;
