ISO-10303-21;
HEADER;
/* Generated by software containing ST-Developer
 * from STEP Tools, Inc. (www.steptools.com) 
 */

FILE_DESCRIPTION(
/* description */ (''),
/* implementation_level */ '2;1');

FILE_NAME(
/* name */ 'PRINT_V010X_P04_HomeSwitchBracket_J4.step',
/* time_stamp */ '2026-08-31T16:24:17+02:00',
/* author */ (''),
/* organization */ (''),
/* preprocessor_version */ 'ST-DEVELOPER v20.1',
/* originating_system */ 'Autodesk Translation Framework v15.8.0.0',
/* authorisation */ '');

FILE_SCHEMA (('AUTOMOTIVE_DESIGN { 1 0 10303 214 3 1 1 }'));
ENDSEC;

DATA;
#10=MECHANICAL_DESIGN_GEOMETRIC_PRESENTATION_REPRESENTATION('',(#13),#457);
#11=SHAPE_REPRESENTATION_RELATIONSHIP('SRR','None',#464,#12);
#12=ADVANCED_BREP_SHAPE_REPRESENTATION('',(#14),#456);
#13=STYLED_ITEM('',(#473),#14);
#14=MANIFOLD_SOLID_BREP('Body1',#265);
#15=CYLINDRICAL_SURFACE('',#285,4.);
#16=CYLINDRICAL_SURFACE('',#294,4.);
#17=CIRCLE('',#281,4.);
#18=CIRCLE('',#283,4.);
#19=CIRCLE('',#284,4.);
#20=CIRCLE('',#286,4.);
#21=CIRCLE('',#287,4.);
#22=CIRCLE('',#288,4.);
#23=CIRCLE('',#292,4.);
#24=CIRCLE('',#293,4.);
#25=CIRCLE('',#295,4.);
#26=CIRCLE('',#296,4.);
#27=FACE_OUTER_BOUND('',#41,.T.);
#28=FACE_OUTER_BOUND('',#42,.T.);
#29=FACE_OUTER_BOUND('',#43,.T.);
#30=FACE_OUTER_BOUND('',#44,.T.);
#31=FACE_OUTER_BOUND('',#45,.T.);
#32=FACE_OUTER_BOUND('',#46,.T.);
#33=FACE_OUTER_BOUND('',#47,.T.);
#34=FACE_OUTER_BOUND('',#48,.T.);
#35=FACE_OUTER_BOUND('',#49,.T.);
#36=FACE_OUTER_BOUND('',#50,.T.);
#37=FACE_OUTER_BOUND('',#51,.T.);
#38=FACE_OUTER_BOUND('',#52,.T.);
#39=FACE_OUTER_BOUND('',#53,.T.);
#40=FACE_OUTER_BOUND('',#54,.T.);
#41=EDGE_LOOP('',(#167,#168,#169,#170));
#42=EDGE_LOOP('',(#171,#172));
#43=EDGE_LOOP('',(#173,#174,#175));
#44=EDGE_LOOP('',(#176,#177,#178,#179,#180,#181,#182,#183,#184,#185,#186,
#187));
#45=EDGE_LOOP('',(#188,#189));
#46=EDGE_LOOP('',(#190,#191,#192,#193,#194,#195,#196,#197));
#47=EDGE_LOOP('',(#198,#199,#200));
#48=EDGE_LOOP('',(#201,#202,#203,#204,#205,#206,#207,#208));
#49=EDGE_LOOP('',(#209));
#50=EDGE_LOOP('',(#210,#211,#212,#213,#214,#215,#216,#217,#218));
#51=EDGE_LOOP('',(#219,#220,#221,#222));
#52=EDGE_LOOP('',(#223,#224,#225,#226));
#53=EDGE_LOOP('',(#227,#228,#229,#230,#231,#232,#233,#234));
#54=EDGE_LOOP('',(#235,#236,#237,#238));
#55=LINE('',#383,#81);
#56=LINE('',#385,#82);
#57=LINE('',#387,#83);
#58=LINE('',#388,#84);
#59=LINE('',#397,#85);
#60=LINE('',#401,#86);
#61=LINE('',#405,#87);
#62=LINE('',#408,#88);
#63=LINE('',#411,#89);
#64=LINE('',#413,#90);
#65=LINE('',#415,#91);
#66=LINE('',#417,#92);
#67=LINE('',#418,#93);
#68=LINE('',#422,#94);
#69=LINE('',#429,#95);
#70=LINE('',#431,#96);
#71=LINE('',#434,#97);
#72=LINE('',#438,#98);
#73=LINE('',#439,#99);
#74=LINE('',#441,#100);
#75=LINE('',#442,#101);
#76=LINE('',#445,#102);
#77=LINE('',#446,#103);
#78=LINE('',#449,#104);
#79=LINE('',#450,#105);
#80=LINE('',#452,#106);
#81=VECTOR('',#307,10.);
#82=VECTOR('',#308,10.);
#83=VECTOR('',#309,10.);
#84=VECTOR('',#310,10.);
#85=VECTOR('',#323,4.);
#86=VECTOR('',#326,10.);
#87=VECTOR('',#329,10.);
#88=VECTOR('',#334,10.);
#89=VECTOR('',#337,10.);
#90=VECTOR('',#338,10.);
#91=VECTOR('',#339,10.);
#92=VECTOR('',#340,10.);
#93=VECTOR('',#341,10.);
#94=VECTOR('',#344,10.);
#95=VECTOR('',#353,4.);
#96=VECTOR('',#354,10.);
#97=VECTOR('',#357,10.);
#98=VECTOR('',#362,10.);
#99=VECTOR('',#363,10.);
#100=VECTOR('',#364,10.);
#101=VECTOR('',#365,10.);
#102=VECTOR('',#368,10.);
#103=VECTOR('',#369,10.);
#104=VECTOR('',#372,10.);
#105=VECTOR('',#373,10.);
#106=VECTOR('',#376,10.);
#107=VERTEX_POINT('',#381);
#108=VERTEX_POINT('',#382);
#109=VERTEX_POINT('',#384);
#110=VERTEX_POINT('',#386);
#111=VERTEX_POINT('',#392);
#112=VERTEX_POINT('',#396);
#113=VERTEX_POINT('',#398);
#114=VERTEX_POINT('',#400);
#115=VERTEX_POINT('',#402);
#116=VERTEX_POINT('',#404);
#117=VERTEX_POINT('',#410);
#118=VERTEX_POINT('',#412);
#119=VERTEX_POINT('',#414);
#120=VERTEX_POINT('',#416);
#121=VERTEX_POINT('',#420);
#122=VERTEX_POINT('',#421);
#123=VERTEX_POINT('',#423);
#124=VERTEX_POINT('',#427);
#125=VERTEX_POINT('',#430);
#126=VERTEX_POINT('',#432);
#127=VERTEX_POINT('',#437);
#128=VERTEX_POINT('',#440);
#129=VERTEX_POINT('',#444);
#130=VERTEX_POINT('',#448);
#131=EDGE_CURVE('',#107,#108,#55,.T.);
#132=EDGE_CURVE('',#107,#109,#56,.T.);
#133=EDGE_CURVE('',#110,#109,#57,.T.);
#134=EDGE_CURVE('',#108,#110,#58,.T.);
#135=EDGE_CURVE('',#109,#107,#17,.T.);
#136=EDGE_CURVE('',#110,#111,#18,.T.);
#137=EDGE_CURVE('',#111,#108,#19,.T.);
#138=EDGE_CURVE('',#111,#112,#59,.T.);
#139=EDGE_CURVE('',#113,#112,#20,.T.);
#140=EDGE_CURVE('',#114,#113,#60,.T.);
#141=EDGE_CURVE('',#115,#114,#21,.T.);
#142=EDGE_CURVE('',#116,#115,#61,.T.);
#143=EDGE_CURVE('',#112,#116,#22,.T.);
#144=EDGE_CURVE('',#115,#114,#62,.T.);
#145=EDGE_CURVE('',#117,#113,#63,.T.);
#146=EDGE_CURVE('',#118,#117,#64,.T.);
#147=EDGE_CURVE('',#118,#119,#65,.T.);
#148=EDGE_CURVE('',#120,#119,#66,.T.);
#149=EDGE_CURVE('',#116,#120,#67,.T.);
#150=EDGE_CURVE('',#121,#122,#68,.T.);
#151=EDGE_CURVE('',#121,#123,#23,.T.);
#152=EDGE_CURVE('',#123,#122,#24,.T.);
#153=EDGE_CURVE('',#124,#124,#25,.T.);
#154=EDGE_CURVE('',#124,#123,#69,.T.);
#155=EDGE_CURVE('',#125,#121,#70,.T.);
#156=EDGE_CURVE('',#126,#125,#26,.T.);
#157=EDGE_CURVE('',#122,#126,#71,.T.);
#158=EDGE_CURVE('',#127,#120,#72,.T.);
#159=EDGE_CURVE('',#126,#127,#73,.T.);
#160=EDGE_CURVE('',#128,#125,#74,.T.);
#161=EDGE_CURVE('',#117,#128,#75,.T.);
#162=EDGE_CURVE('',#129,#118,#76,.T.);
#163=EDGE_CURVE('',#128,#129,#77,.T.);
#164=EDGE_CURVE('',#119,#130,#78,.T.);
#165=EDGE_CURVE('',#130,#127,#79,.T.);
#166=EDGE_CURVE('',#129,#130,#80,.T.);
#167=ORIENTED_EDGE('',*,*,#131,.F.);
#168=ORIENTED_EDGE('',*,*,#132,.T.);
#169=ORIENTED_EDGE('',*,*,#133,.F.);
#170=ORIENTED_EDGE('',*,*,#134,.F.);
#171=ORIENTED_EDGE('',*,*,#135,.F.);
#172=ORIENTED_EDGE('',*,*,#132,.F.);
#173=ORIENTED_EDGE('',*,*,#134,.T.);
#174=ORIENTED_EDGE('',*,*,#136,.T.);
#175=ORIENTED_EDGE('',*,*,#137,.T.);
#176=ORIENTED_EDGE('',*,*,#131,.T.);
#177=ORIENTED_EDGE('',*,*,#137,.F.);
#178=ORIENTED_EDGE('',*,*,#138,.T.);
#179=ORIENTED_EDGE('',*,*,#139,.F.);
#180=ORIENTED_EDGE('',*,*,#140,.F.);
#181=ORIENTED_EDGE('',*,*,#141,.F.);
#182=ORIENTED_EDGE('',*,*,#142,.F.);
#183=ORIENTED_EDGE('',*,*,#143,.F.);
#184=ORIENTED_EDGE('',*,*,#138,.F.);
#185=ORIENTED_EDGE('',*,*,#136,.F.);
#186=ORIENTED_EDGE('',*,*,#133,.T.);
#187=ORIENTED_EDGE('',*,*,#135,.T.);
#188=ORIENTED_EDGE('',*,*,#144,.F.);
#189=ORIENTED_EDGE('',*,*,#141,.T.);
#190=ORIENTED_EDGE('',*,*,#142,.T.);
#191=ORIENTED_EDGE('',*,*,#144,.T.);
#192=ORIENTED_EDGE('',*,*,#140,.T.);
#193=ORIENTED_EDGE('',*,*,#145,.F.);
#194=ORIENTED_EDGE('',*,*,#146,.F.);
#195=ORIENTED_EDGE('',*,*,#147,.T.);
#196=ORIENTED_EDGE('',*,*,#148,.F.);
#197=ORIENTED_EDGE('',*,*,#149,.F.);
#198=ORIENTED_EDGE('',*,*,#150,.F.);
#199=ORIENTED_EDGE('',*,*,#151,.T.);
#200=ORIENTED_EDGE('',*,*,#152,.T.);
#201=ORIENTED_EDGE('',*,*,#153,.F.);
#202=ORIENTED_EDGE('',*,*,#154,.T.);
#203=ORIENTED_EDGE('',*,*,#151,.F.);
#204=ORIENTED_EDGE('',*,*,#155,.F.);
#205=ORIENTED_EDGE('',*,*,#156,.F.);
#206=ORIENTED_EDGE('',*,*,#157,.F.);
#207=ORIENTED_EDGE('',*,*,#152,.F.);
#208=ORIENTED_EDGE('',*,*,#154,.F.);
#209=ORIENTED_EDGE('',*,*,#153,.T.);
#210=ORIENTED_EDGE('',*,*,#139,.T.);
#211=ORIENTED_EDGE('',*,*,#143,.T.);
#212=ORIENTED_EDGE('',*,*,#149,.T.);
#213=ORIENTED_EDGE('',*,*,#158,.F.);
#214=ORIENTED_EDGE('',*,*,#159,.F.);
#215=ORIENTED_EDGE('',*,*,#156,.T.);
#216=ORIENTED_EDGE('',*,*,#160,.F.);
#217=ORIENTED_EDGE('',*,*,#161,.F.);
#218=ORIENTED_EDGE('',*,*,#145,.T.);
#219=ORIENTED_EDGE('',*,*,#162,.T.);
#220=ORIENTED_EDGE('',*,*,#146,.T.);
#221=ORIENTED_EDGE('',*,*,#161,.T.);
#222=ORIENTED_EDGE('',*,*,#163,.T.);
#223=ORIENTED_EDGE('',*,*,#164,.T.);
#224=ORIENTED_EDGE('',*,*,#165,.T.);
#225=ORIENTED_EDGE('',*,*,#158,.T.);
#226=ORIENTED_EDGE('',*,*,#148,.T.);
#227=ORIENTED_EDGE('',*,*,#157,.T.);
#228=ORIENTED_EDGE('',*,*,#159,.T.);
#229=ORIENTED_EDGE('',*,*,#165,.F.);
#230=ORIENTED_EDGE('',*,*,#166,.F.);
#231=ORIENTED_EDGE('',*,*,#163,.F.);
#232=ORIENTED_EDGE('',*,*,#160,.T.);
#233=ORIENTED_EDGE('',*,*,#155,.T.);
#234=ORIENTED_EDGE('',*,*,#150,.T.);
#235=ORIENTED_EDGE('',*,*,#166,.T.);
#236=ORIENTED_EDGE('',*,*,#164,.F.);
#237=ORIENTED_EDGE('',*,*,#147,.F.);
#238=ORIENTED_EDGE('',*,*,#162,.F.);
#239=PLANE('',#279);
#240=PLANE('',#280);
#241=PLANE('',#282);
#242=PLANE('',#289);
#243=PLANE('',#290);
#244=PLANE('',#291);
#245=PLANE('',#297);
#246=PLANE('',#298);
#247=PLANE('',#299);
#248=PLANE('',#300);
#249=PLANE('',#301);
#250=PLANE('',#302);
#251=ADVANCED_FACE('',(#27),#239,.T.);
#252=ADVANCED_FACE('',(#28),#240,.T.);
#253=ADVANCED_FACE('',(#29),#241,.T.);
#254=ADVANCED_FACE('',(#30),#15,.T.);
#255=ADVANCED_FACE('',(#31),#242,.T.);
#256=ADVANCED_FACE('',(#32),#243,.F.);
#257=ADVANCED_FACE('',(#33),#244,.T.);
#258=ADVANCED_FACE('',(#34),#16,.T.);
#259=ADVANCED_FACE('',(#35),#245,.T.);
#260=ADVANCED_FACE('',(#36),#246,.F.);
#261=ADVANCED_FACE('',(#37),#247,.T.);
#262=ADVANCED_FACE('',(#38),#248,.F.);
#263=ADVANCED_FACE('',(#39),#249,.F.);
#264=ADVANCED_FACE('',(#40),#250,.F.);
#265=CLOSED_SHELL('',(#251,#252,#253,#254,#255,#256,#257,#258,#259,#260,
#261,#262,#263,#264));
#266=DERIVED_UNIT_ELEMENT(#268,1.);
#267=DERIVED_UNIT_ELEMENT(#459,-3.);
#268=(
MASS_UNIT()
NAMED_UNIT(*)
SI_UNIT(.KILO.,.GRAM.)
);
#269=DERIVED_UNIT((#266,#267));
#270=MEASURE_REPRESENTATION_ITEM('density measure',
POSITIVE_RATIO_MEASURE(7850.),#269);
#271=PROPERTY_DEFINITION_REPRESENTATION(#276,#273);
#272=PROPERTY_DEFINITION_REPRESENTATION(#277,#274);
#273=REPRESENTATION('material name',(#275),#456);
#274=REPRESENTATION('density',(#270),#456);
#275=DESCRIPTIVE_REPRESENTATION_ITEM('Steel','Steel');
#276=PROPERTY_DEFINITION('material property','material name',#466);
#277=PROPERTY_DEFINITION('material property','density of part',#466);
#278=AXIS2_PLACEMENT_3D('',#379,#303,#304);
#279=AXIS2_PLACEMENT_3D('',#380,#305,#306);
#280=AXIS2_PLACEMENT_3D('',#389,#311,#312);
#281=AXIS2_PLACEMENT_3D('',#390,#313,#314);
#282=AXIS2_PLACEMENT_3D('',#391,#315,#316);
#283=AXIS2_PLACEMENT_3D('',#393,#317,#318);
#284=AXIS2_PLACEMENT_3D('',#394,#319,#320);
#285=AXIS2_PLACEMENT_3D('',#395,#321,#322);
#286=AXIS2_PLACEMENT_3D('',#399,#324,#325);
#287=AXIS2_PLACEMENT_3D('',#403,#327,#328);
#288=AXIS2_PLACEMENT_3D('',#406,#330,#331);
#289=AXIS2_PLACEMENT_3D('',#407,#332,#333);
#290=AXIS2_PLACEMENT_3D('',#409,#335,#336);
#291=AXIS2_PLACEMENT_3D('',#419,#342,#343);
#292=AXIS2_PLACEMENT_3D('',#424,#345,#346);
#293=AXIS2_PLACEMENT_3D('',#425,#347,#348);
#294=AXIS2_PLACEMENT_3D('',#426,#349,#350);
#295=AXIS2_PLACEMENT_3D('',#428,#351,#352);
#296=AXIS2_PLACEMENT_3D('',#433,#355,#356);
#297=AXIS2_PLACEMENT_3D('',#435,#358,#359);
#298=AXIS2_PLACEMENT_3D('',#436,#360,#361);
#299=AXIS2_PLACEMENT_3D('',#443,#366,#367);
#300=AXIS2_PLACEMENT_3D('',#447,#370,#371);
#301=AXIS2_PLACEMENT_3D('',#451,#374,#375);
#302=AXIS2_PLACEMENT_3D('',#453,#377,#378);
#303=DIRECTION('axis',(0.,0.,1.));
#304=DIRECTION('refdir',(1.,0.,0.));
#305=DIRECTION('center_axis',(0.,1.,0.));
#306=DIRECTION('ref_axis',(0.,0.,1.));
#307=DIRECTION('',(-1.,0.,0.));
#308=DIRECTION('',(0.,0.,-1.));
#309=DIRECTION('',(1.,0.,0.));
#310=DIRECTION('',(0.,0.,-1.));
#311=DIRECTION('center_axis',(-1.,0.,0.));
#312=DIRECTION('ref_axis',(0.,0.,1.));
#313=DIRECTION('center_axis',(1.,0.,0.));
#314=DIRECTION('ref_axis',(0.,0.,1.));
#315=DIRECTION('center_axis',(-1.,0.,0.));
#316=DIRECTION('ref_axis',(0.,0.,1.));
#317=DIRECTION('center_axis',(-1.,0.,0.));
#318=DIRECTION('ref_axis',(0.,0.,1.));
#319=DIRECTION('center_axis',(-1.,0.,0.));
#320=DIRECTION('ref_axis',(0.,0.,1.));
#321=DIRECTION('center_axis',(-1.,0.,0.));
#322=DIRECTION('ref_axis',(0.,0.,1.));
#323=DIRECTION('',(1.,0.,0.));
#324=DIRECTION('center_axis',(1.,0.,0.));
#325=DIRECTION('ref_axis',(0.,0.,1.));
#326=DIRECTION('',(-1.,0.,0.));
#327=DIRECTION('center_axis',(1.,0.,0.));
#328=DIRECTION('ref_axis',(0.,0.,1.));
#329=DIRECTION('',(1.,0.,0.));
#330=DIRECTION('center_axis',(1.,0.,0.));
#331=DIRECTION('ref_axis',(0.,0.,1.));
#332=DIRECTION('center_axis',(1.,0.,0.));
#333=DIRECTION('ref_axis',(0.,0.,-1.));
#334=DIRECTION('',(0.,-0.707106781186548,-0.707106781186548));
#335=DIRECTION('center_axis',(0.,0.707106781186548,-0.707106781186548));
#336=DIRECTION('ref_axis',(0.,0.707106781186548,0.707106781186548));
#337=DIRECTION('',(0.,0.707106781186548,0.707106781186548));
#338=DIRECTION('',(-1.,0.,0.));
#339=DIRECTION('',(0.,0.707106781186548,0.707106781186548));
#340=DIRECTION('',(1.,0.,0.));
#341=DIRECTION('',(0.,0.707106781186548,0.707106781186548));
#342=DIRECTION('center_axis',(1.,0.,0.));
#343=DIRECTION('ref_axis',(0.,0.,-1.));
#344=DIRECTION('',(0.,0.707106781186548,0.707106781186548));
#345=DIRECTION('center_axis',(1.,0.,0.));
#346=DIRECTION('ref_axis',(0.,0.,1.));
#347=DIRECTION('center_axis',(1.,0.,0.));
#348=DIRECTION('ref_axis',(0.,0.,1.));
#349=DIRECTION('center_axis',(-1.,0.,0.));
#350=DIRECTION('ref_axis',(0.,0.,1.));
#351=DIRECTION('center_axis',(-1.,0.,0.));
#352=DIRECTION('ref_axis',(0.,0.,1.));
#353=DIRECTION('',(1.,0.,0.));
#354=DIRECTION('',(1.,0.,0.));
#355=DIRECTION('center_axis',(1.,0.,0.));
#356=DIRECTION('ref_axis',(0.,0.,1.));
#357=DIRECTION('',(-1.,0.,0.));
#358=DIRECTION('center_axis',(-1.,0.,0.));
#359=DIRECTION('ref_axis',(0.,0.,1.));
#360=DIRECTION('center_axis',(1.,0.,0.));
#361=DIRECTION('ref_axis',(0.,0.707106781186548,0.707106781186548));
#362=DIRECTION('',(0.,-0.707106781186548,0.707106781186548));
#363=DIRECTION('',(0.,0.707106781186548,0.707106781186548));
#364=DIRECTION('',(0.,0.707106781186548,0.707106781186548));
#365=DIRECTION('',(0.,0.707106781186548,-0.707106781186548));
#366=DIRECTION('center_axis',(0.,-0.707106781186548,-0.707106781186548));
#367=DIRECTION('ref_axis',(1.,0.,0.));
#368=DIRECTION('',(0.,-0.707106781186548,0.707106781186548));
#369=DIRECTION('',(1.,0.,0.));
#370=DIRECTION('center_axis',(0.,-0.707106781186548,-0.707106781186548));
#371=DIRECTION('ref_axis',(1.,0.,0.));
#372=DIRECTION('',(0.,0.707106781186548,-0.707106781186548));
#373=DIRECTION('',(-1.,0.,0.));
#374=DIRECTION('center_axis',(0.,-0.707106781186548,0.707106781186548));
#375=DIRECTION('ref_axis',(0.,-0.707106781186548,-0.707106781186548));
#376=DIRECTION('',(0.,0.707106781186548,0.707106781186548));
#377=DIRECTION('center_axis',(-1.,0.,0.));
#378=DIRECTION('ref_axis',(0.,-0.707106781186548,-0.707106781186548));
#379=CARTESIAN_POINT('',(0.,0.,0.));
#380=CARTESIAN_POINT('Origin',(376.,32.,300.8935055785));
#381=CARTESIAN_POINT('',(386.,32.,281.45531441533));
#382=CARTESIAN_POINT('',(380.5,32.,281.45531441533));
#383=CARTESIAN_POINT('',(384.75,32.,281.45531441533));
#384=CARTESIAN_POINT('',(386.,32.,274.912217952817));
#385=CARTESIAN_POINT('',(386.,32.,300.8935055785));
#386=CARTESIAN_POINT('',(380.5,32.,274.912217952817));
#387=CARTESIAN_POINT('',(384.75,32.,274.912217952817));
#388=CARTESIAN_POINT('',(380.5,32.,289.538635881287));
#389=CARTESIAN_POINT('Origin',(386.,35.5,300.8935055785));
#390=CARTESIAN_POINT('Origin',(386.,29.698484809835,278.183766184074));
#391=CARTESIAN_POINT('Origin',(380.5,29.698484809835,278.183766184074));
#392=CARTESIAN_POINT('',(380.5,29.698484809835,274.183766184074));
#393=CARTESIAN_POINT('Origin',(380.5,29.698484809835,278.183766184074));
#394=CARTESIAN_POINT('Origin',(380.5,29.698484809835,278.183766184074));
#395=CARTESIAN_POINT('Origin',(384.75,29.698484809835,278.183766184074));
#396=CARTESIAN_POINT('',(388.5,29.698484809835,274.183766184074));
#397=CARTESIAN_POINT('',(384.75,29.698484809835,274.183766184074));
#398=CARTESIAN_POINT('',(388.5,26.0158025176298,276.622404235428));
#399=CARTESIAN_POINT('Origin',(388.5,29.698484809835,278.183766184074));
#400=CARTESIAN_POINT('',(389.,26.0158025176298,276.622404235428));
#401=CARTESIAN_POINT('',(384.75,26.0158025176298,276.622404235428));
#402=CARTESIAN_POINT('',(389.,31.2598467584805,281.866448476279));
#403=CARTESIAN_POINT('Origin',(389.,29.698484809835,278.183766184074));
#404=CARTESIAN_POINT('',(388.5,31.2598467584805,281.866448476279));
#405=CARTESIAN_POINT('',(384.75,31.2598467584805,281.866448476279));
#406=CARTESIAN_POINT('Origin',(388.5,29.698484809835,278.183766184074));
#407=CARTESIAN_POINT('Origin',(389.,29.698484809835,278.183766184074));
#408=CARTESIAN_POINT('',(389.,28.6378246380552,279.244426355853));
#409=CARTESIAN_POINT('Origin',(391.25,28.6378246380552,279.244426355853));
#410=CARTESIAN_POINT('',(388.5,25.4558441227157,276.062445840514));
#411=CARTESIAN_POINT('',(388.5,28.6378246380552,279.244426355853));
#412=CARTESIAN_POINT('',(394.,25.4558441227157,276.062445840514));
#413=CARTESIAN_POINT('',(391.25,25.4558441227157,276.062445840514));
#414=CARTESIAN_POINT('',(394.,31.8198051533946,282.426406871193));
#415=CARTESIAN_POINT('',(394.,28.6378246380552,279.244426355853));
#416=CARTESIAN_POINT('',(388.5,31.8198051533946,282.426406871193));
#417=CARTESIAN_POINT('',(391.25,31.8198051533946,282.426406871193));
#418=CARTESIAN_POINT('',(388.5,28.6378246380552,279.244426355853));
#419=CARTESIAN_POINT('Origin',(389.,38.1837661840736,269.698484809835));
#420=CARTESIAN_POINT('',(389.,36.622404235428,266.01580251763));
#421=CARTESIAN_POINT('',(389.,41.8664484762788,271.259846758481));
#422=CARTESIAN_POINT('',(389.,39.2444263558534,268.637824638055));
#423=CARTESIAN_POINT('',(389.,38.1837661840736,265.698484809835));
#424=CARTESIAN_POINT('Origin',(389.,38.1837661840736,269.698484809835));
#425=CARTESIAN_POINT('Origin',(389.,38.1837661840736,269.698484809835));
#426=CARTESIAN_POINT('Origin',(387.75,38.1837661840736,269.698484809835));
#427=CARTESIAN_POINT('',(386.5,38.1837661840736,265.698484809835));
#428=CARTESIAN_POINT('Origin',(386.5,38.1837661840736,269.698484809835));
#429=CARTESIAN_POINT('',(387.75,38.1837661840736,265.698484809835));
#430=CARTESIAN_POINT('',(388.5,36.622404235428,266.01580251763));
#431=CARTESIAN_POINT('',(387.75,36.622404235428,266.01580251763));
#432=CARTESIAN_POINT('',(388.5,41.8664484762788,271.259846758481));
#433=CARTESIAN_POINT('Origin',(388.5,38.1837661840736,269.698484809835));
#434=CARTESIAN_POINT('',(387.75,41.8664484762788,271.259846758481));
#435=CARTESIAN_POINT('Origin',(386.5,38.1837661840736,269.698484809835));
#436=CARTESIAN_POINT('Origin',(388.5,33.9411254969543,273.941125496954));
#437=CARTESIAN_POINT('',(388.5,42.4264068711929,271.819805153395));
#438=CARTESIAN_POINT('',(388.5,37.1231060122938,277.123106012294));
#439=CARTESIAN_POINT('',(388.5,39.2444263558534,268.637824638055));
#440=CARTESIAN_POINT('',(388.5,36.0624458405139,265.455844122716));
#441=CARTESIAN_POINT('',(388.5,39.2444263558534,268.637824638055));
#442=CARTESIAN_POINT('',(388.5,30.7591449816148,270.759144981615));
#443=CARTESIAN_POINT('Origin',(391.25,30.7591449816148,270.759144981615));
#444=CARTESIAN_POINT('',(394.,36.0624458405139,265.455844122716));
#445=CARTESIAN_POINT('',(394.,30.7591449816148,270.759144981615));
#446=CARTESIAN_POINT('',(391.25,36.0624458405139,265.455844122716));
#447=CARTESIAN_POINT('Origin',(391.25,37.1231060122938,277.123106012294));
#448=CARTESIAN_POINT('',(394.,42.4264068711929,271.819805153395));
#449=CARTESIAN_POINT('',(394.,37.1231060122938,277.123106012294));
#450=CARTESIAN_POINT('',(391.25,42.4264068711929,271.819805153395));
#451=CARTESIAN_POINT('Origin',(391.25,39.2444263558534,268.637824638055));
#452=CARTESIAN_POINT('',(394.,39.2444263558534,268.637824638055));
#453=CARTESIAN_POINT('Origin',(394.,33.9411254969543,273.941125496954));
#454=UNCERTAINTY_MEASURE_WITH_UNIT(LENGTH_MEASURE(0.01),#458,
'DISTANCE_ACCURACY_VALUE',
'Maximum model space distance between geometric entities at asserted c
onnectivities');
#455=UNCERTAINTY_MEASURE_WITH_UNIT(LENGTH_MEASURE(0.01),#458,
'DISTANCE_ACCURACY_VALUE',
'Maximum model space distance between geometric entities at asserted c
onnectivities');
#456=(
GEOMETRIC_REPRESENTATION_CONTEXT(3)
GLOBAL_UNCERTAINTY_ASSIGNED_CONTEXT((#454))
GLOBAL_UNIT_ASSIGNED_CONTEXT((#458,#460,#461))
REPRESENTATION_CONTEXT('','3D')
);
#457=(
GEOMETRIC_REPRESENTATION_CONTEXT(3)
GLOBAL_UNCERTAINTY_ASSIGNED_CONTEXT((#455))
GLOBAL_UNIT_ASSIGNED_CONTEXT((#458,#460,#461))
REPRESENTATION_CONTEXT('','3D')
);
#458=(
LENGTH_UNIT()
NAMED_UNIT(*)
SI_UNIT(.MILLI.,.METRE.)
);
#459=(
LENGTH_UNIT()
NAMED_UNIT(*)
SI_UNIT($,.METRE.)
);
#460=(
NAMED_UNIT(*)
PLANE_ANGLE_UNIT()
SI_UNIT($,.RADIAN.)
);
#461=(
NAMED_UNIT(*)
SI_UNIT($,.STERADIAN.)
SOLID_ANGLE_UNIT()
);
#462=SHAPE_DEFINITION_REPRESENTATION(#463,#464);
#463=PRODUCT_DEFINITION_SHAPE('',$,#466);
#464=SHAPE_REPRESENTATION('',(#278),#456);
#465=PRODUCT_DEFINITION_CONTEXT('part definition',#470,'design');
#466=PRODUCT_DEFINITION('2026-08-31-16-24-16-893','EXPORT_TMP',#467,#465);
#467=PRODUCT_DEFINITION_FORMATION('',$,#472);
#468=PRODUCT_RELATED_PRODUCT_CATEGORY('EXPORT_TMP','EXPORT_TMP',(#472));
#469=APPLICATION_PROTOCOL_DEFINITION('international standard',
'automotive_design',2009,#470);
#470=APPLICATION_CONTEXT(
'Core Data for Automotive Mechanical Design Process');
#471=PRODUCT_CONTEXT('part definition',#470,'mechanical');
#472=PRODUCT('2026-08-31-16-24-16-893','EXPORT_TMP',$,(#471));
#473=PRESENTATION_STYLE_ASSIGNMENT((#474));
#474=SURFACE_STYLE_USAGE(.BOTH.,#475);
#475=SURFACE_SIDE_STYLE('',(#476));
#476=SURFACE_STYLE_FILL_AREA(#477);
#477=FILL_AREA_STYLE('Steel - Satin',(#478));
#478=FILL_AREA_STYLE_COLOUR('Steel - Satin',#479);
#479=COLOUR_RGB('Steel - Satin',0.627450980392157,0.627450980392157,0.627450980392157);
ENDSEC;
END-ISO-10303-21;
