ISO-10303-21;
HEADER;
/* Generated by software containing ST-Developer
 * from STEP Tools, Inc. (www.steptools.com) 
 */

FILE_DESCRIPTION(
/* description */ (''),
/* implementation_level */ '2;1');

FILE_NAME(
/* name */ 'PRINT_V007G_P307_J4_BearingRetainer_Rear_FlushCSK.step',
/* time_stamp */ '2026-08-31T16:24:04+02:00',
/* author */ (''),
/* organization */ (''),
/* preprocessor_version */ 'ST-DEVELOPER v20.1',
/* originating_system */ 'Autodesk Translation Framework v15.8.0.0',
/* authorisation */ '');

FILE_SCHEMA (('AUTOMOTIVE_DESIGN { 1 0 10303 214 3 1 1 }'));
ENDSEC;

DATA;
#10=MECHANICAL_DESIGN_GEOMETRIC_PRESENTATION_REPRESENTATION('',(#13),#473);
#11=SHAPE_REPRESENTATION_RELATIONSHIP('SRR','None',#480,#12);
#12=ADVANCED_BREP_SHAPE_REPRESENTATION('',(#14),#472);
#13=STYLED_ITEM('',(#489),#14);
#14=MANIFOLD_SOLID_BREP('Body1',#263);
#15=CONICAL_SURFACE('',#298,2.45,0.523278322131979);
#16=CONICAL_SURFACE('',#302,2.45,0.523278322131979);
#17=FACE_BOUND('',#59,.T.);
#18=FACE_BOUND('',#60,.T.);
#19=FACE_BOUND('',#61,.T.);
#20=FACE_BOUND('',#62,.T.);
#21=FACE_BOUND('',#63,.T.);
#22=FACE_BOUND('',#70,.T.);
#23=FACE_BOUND('',#71,.T.);
#24=FACE_BOUND('',#72,.T.);
#25=FACE_BOUND('',#73,.T.);
#26=FACE_BOUND('',#74,.T.);
#27=B_SPLINE_CURVE_WITH_KNOTS('',3,(#399,#400,#401,#402,#403,#404),
 .UNSPECIFIED.,.F.,.F.,(4,2,4),(1.14818586945542,1.16358424930948,1.32714078374056),
 .UNSPECIFIED.);
#28=B_SPLINE_CURVE_WITH_KNOTS('',3,(#427,#428,#429,#430,#431,#432),
 .UNSPECIFIED.,.F.,.F.,(4,2,4),(1.32714078374056,1.49069731817164,1.5060956980257),
 .UNSPECIFIED.);
#29=CYLINDRICAL_SURFACE('',#279,5.5);
#30=CYLINDRICAL_SURFACE('',#280,4.7);
#31=CYLINDRICAL_SURFACE('',#283,4.7);
#32=CYLINDRICAL_SURFACE('',#288,5.5);
#33=CYLINDRICAL_SURFACE('',#289,29.5);
#34=CYLINDRICAL_SURFACE('',#301,1.7);
#35=CYLINDRICAL_SURFACE('',#305,1.7);
#36=CYLINDRICAL_SURFACE('',#306,11.2);
#37=FACE_OUTER_BOUND('',#51,.T.);
#38=FACE_OUTER_BOUND('',#52,.T.);
#39=FACE_OUTER_BOUND('',#53,.T.);
#40=FACE_OUTER_BOUND('',#54,.T.);
#41=FACE_OUTER_BOUND('',#55,.T.);
#42=FACE_OUTER_BOUND('',#56,.T.);
#43=FACE_OUTER_BOUND('',#57,.T.);
#44=FACE_OUTER_BOUND('',#58,.T.);
#45=FACE_OUTER_BOUND('',#64,.T.);
#46=FACE_OUTER_BOUND('',#65,.T.);
#47=FACE_OUTER_BOUND('',#66,.T.);
#48=FACE_OUTER_BOUND('',#67,.T.);
#49=FACE_OUTER_BOUND('',#68,.T.);
#50=FACE_OUTER_BOUND('',#69,.T.);
#51=EDGE_LOOP('',(#177,#178,#179));
#52=EDGE_LOOP('',(#180,#181,#182));
#53=EDGE_LOOP('',(#183,#184,#185,#186));
#54=EDGE_LOOP('',(#187,#188,#189,#190));
#55=EDGE_LOOP('',(#191,#192,#193));
#56=EDGE_LOOP('',(#194,#195,#196));
#57=EDGE_LOOP('',(#197,#198,#199,#200,#201,#202,#203,#204,#205,#206));
#58=EDGE_LOOP('',(#207,#208,#209,#210,#211,#212,#213));
#59=EDGE_LOOP('',(#214));
#60=EDGE_LOOP('',(#215));
#61=EDGE_LOOP('',(#216));
#62=EDGE_LOOP('',(#217));
#63=EDGE_LOOP('',(#218));
#64=EDGE_LOOP('',(#219,#220,#221,#222));
#65=EDGE_LOOP('',(#223,#224,#225,#226));
#66=EDGE_LOOP('',(#227,#228,#229,#230));
#67=EDGE_LOOP('',(#231,#232,#233,#234));
#68=EDGE_LOOP('',(#235,#236,#237,#238));
#69=EDGE_LOOP('',(#239));
#70=EDGE_LOOP('',(#240));
#71=EDGE_LOOP('',(#241));
#72=EDGE_LOOP('',(#242));
#73=EDGE_LOOP('',(#243));
#74=EDGE_LOOP('',(#244));
#75=CIRCLE('',#278,5.5);
#76=CIRCLE('',#281,4.7);
#77=CIRCLE('',#282,4.7);
#78=CIRCLE('',#284,4.7);
#79=CIRCLE('',#285,4.7);
#80=CIRCLE('',#287,5.5);
#81=CIRCLE('',#290,29.5);
#82=CIRCLE('',#291,29.5);
#83=CIRCLE('',#292,29.5);
#84=CIRCLE('',#293,29.5);
#85=CIRCLE('',#295,1.7);
#86=CIRCLE('',#296,1.7);
#87=CIRCLE('',#297,11.2);
#88=CIRCLE('',#299,3.08461538461539);
#89=CIRCLE('',#300,1.7);
#90=CIRCLE('',#303,3.08461538461539);
#91=CIRCLE('',#304,1.7);
#92=CIRCLE('',#307,11.2);
#93=LINE('',#393,#107);
#94=LINE('',#395,#108);
#95=LINE('',#405,#109);
#96=LINE('',#410,#110);
#97=LINE('',#416,#111);
#98=LINE('',#421,#112);
#99=LINE('',#424,#113);
#100=LINE('',#433,#114);
#101=LINE('',#439,#115);
#102=LINE('',#453,#116);
#103=LINE('',#456,#117);
#104=LINE('',#461,#118);
#105=LINE('',#464,#119);
#106=LINE('',#468,#120);
#107=VECTOR('',#313,10.);
#108=VECTOR('',#314,10.);
#109=VECTOR('',#319,10.);
#110=VECTOR('',#324,4.7);
#111=VECTOR('',#331,4.7);
#112=VECTOR('',#336,10.);
#113=VECTOR('',#339,10.);
#114=VECTOR('',#342,10.);
#115=VECTOR('',#349,29.5);
#116=VECTOR('',#366,2.45);
#117=VECTOR('',#371,1.7);
#118=VECTOR('',#376,2.45);
#119=VECTOR('',#381,1.7);
#120=VECTOR('',#386,11.2);
#121=VERTEX_POINT('',#391);
#122=VERTEX_POINT('',#392);
#123=VERTEX_POINT('',#394);
#124=VERTEX_POINT('',#398);
#125=VERTEX_POINT('',#407);
#126=VERTEX_POINT('',#409);
#127=VERTEX_POINT('',#413);
#128=VERTEX_POINT('',#415);
#129=VERTEX_POINT('',#419);
#130=VERTEX_POINT('',#420);
#131=VERTEX_POINT('',#422);
#132=VERTEX_POINT('',#426);
#133=VERTEX_POINT('',#436);
#134=VERTEX_POINT('',#438);
#135=VERTEX_POINT('',#443);
#136=VERTEX_POINT('',#445);
#137=VERTEX_POINT('',#447);
#138=VERTEX_POINT('',#450);
#139=VERTEX_POINT('',#452);
#140=VERTEX_POINT('',#458);
#141=VERTEX_POINT('',#460);
#142=VERTEX_POINT('',#466);
#143=EDGE_CURVE('',#121,#122,#93,.T.);
#144=EDGE_CURVE('',#123,#121,#94,.T.);
#145=EDGE_CURVE('',#122,#123,#75,.T.);
#146=EDGE_CURVE('',#122,#124,#27,.T.);
#147=EDGE_CURVE('',#124,#123,#95,.T.);
#148=EDGE_CURVE('',#125,#125,#76,.T.);
#149=EDGE_CURVE('',#125,#126,#96,.T.);
#150=EDGE_CURVE('',#126,#126,#77,.T.);
#151=EDGE_CURVE('',#127,#127,#78,.T.);
#152=EDGE_CURVE('',#127,#128,#97,.T.);
#153=EDGE_CURVE('',#128,#128,#79,.T.);
#154=EDGE_CURVE('',#129,#130,#98,.T.);
#155=EDGE_CURVE('',#131,#129,#80,.T.);
#156=EDGE_CURVE('',#130,#131,#99,.T.);
#157=EDGE_CURVE('',#132,#129,#28,.T.);
#158=EDGE_CURVE('',#131,#132,#100,.T.);
#159=EDGE_CURVE('',#132,#124,#81,.T.);
#160=EDGE_CURVE('',#133,#130,#82,.T.);
#161=EDGE_CURVE('',#133,#134,#101,.T.);
#162=EDGE_CURVE('',#134,#134,#83,.T.);
#163=EDGE_CURVE('',#121,#133,#84,.T.);
#164=EDGE_CURVE('',#135,#135,#85,.T.);
#165=EDGE_CURVE('',#136,#136,#86,.T.);
#166=EDGE_CURVE('',#137,#137,#87,.T.);
#167=EDGE_CURVE('',#138,#138,#88,.T.);
#168=EDGE_CURVE('',#138,#139,#102,.T.);
#169=EDGE_CURVE('',#139,#139,#89,.T.);
#170=EDGE_CURVE('',#139,#135,#103,.T.);
#171=EDGE_CURVE('',#140,#140,#90,.T.);
#172=EDGE_CURVE('',#140,#141,#104,.T.);
#173=EDGE_CURVE('',#141,#141,#91,.T.);
#174=EDGE_CURVE('',#141,#136,#105,.T.);
#175=EDGE_CURVE('',#142,#142,#92,.T.);
#176=EDGE_CURVE('',#142,#137,#106,.T.);
#177=ORIENTED_EDGE('',*,*,#143,.F.);
#178=ORIENTED_EDGE('',*,*,#144,.F.);
#179=ORIENTED_EDGE('',*,*,#145,.F.);
#180=ORIENTED_EDGE('',*,*,#146,.F.);
#181=ORIENTED_EDGE('',*,*,#145,.T.);
#182=ORIENTED_EDGE('',*,*,#147,.F.);
#183=ORIENTED_EDGE('',*,*,#148,.F.);
#184=ORIENTED_EDGE('',*,*,#149,.T.);
#185=ORIENTED_EDGE('',*,*,#150,.F.);
#186=ORIENTED_EDGE('',*,*,#149,.F.);
#187=ORIENTED_EDGE('',*,*,#151,.F.);
#188=ORIENTED_EDGE('',*,*,#152,.T.);
#189=ORIENTED_EDGE('',*,*,#153,.F.);
#190=ORIENTED_EDGE('',*,*,#152,.F.);
#191=ORIENTED_EDGE('',*,*,#154,.F.);
#192=ORIENTED_EDGE('',*,*,#155,.F.);
#193=ORIENTED_EDGE('',*,*,#156,.F.);
#194=ORIENTED_EDGE('',*,*,#157,.F.);
#195=ORIENTED_EDGE('',*,*,#158,.F.);
#196=ORIENTED_EDGE('',*,*,#155,.T.);
#197=ORIENTED_EDGE('',*,*,#143,.T.);
#198=ORIENTED_EDGE('',*,*,#146,.T.);
#199=ORIENTED_EDGE('',*,*,#159,.F.);
#200=ORIENTED_EDGE('',*,*,#157,.T.);
#201=ORIENTED_EDGE('',*,*,#154,.T.);
#202=ORIENTED_EDGE('',*,*,#160,.F.);
#203=ORIENTED_EDGE('',*,*,#161,.T.);
#204=ORIENTED_EDGE('',*,*,#162,.F.);
#205=ORIENTED_EDGE('',*,*,#161,.F.);
#206=ORIENTED_EDGE('',*,*,#163,.F.);
#207=ORIENTED_EDGE('',*,*,#163,.T.);
#208=ORIENTED_EDGE('',*,*,#160,.T.);
#209=ORIENTED_EDGE('',*,*,#156,.T.);
#210=ORIENTED_EDGE('',*,*,#158,.T.);
#211=ORIENTED_EDGE('',*,*,#159,.T.);
#212=ORIENTED_EDGE('',*,*,#147,.T.);
#213=ORIENTED_EDGE('',*,*,#144,.T.);
#214=ORIENTED_EDGE('',*,*,#150,.T.);
#215=ORIENTED_EDGE('',*,*,#153,.T.);
#216=ORIENTED_EDGE('',*,*,#164,.T.);
#217=ORIENTED_EDGE('',*,*,#165,.T.);
#218=ORIENTED_EDGE('',*,*,#166,.T.);
#219=ORIENTED_EDGE('',*,*,#167,.F.);
#220=ORIENTED_EDGE('',*,*,#168,.T.);
#221=ORIENTED_EDGE('',*,*,#169,.F.);
#222=ORIENTED_EDGE('',*,*,#168,.F.);
#223=ORIENTED_EDGE('',*,*,#169,.T.);
#224=ORIENTED_EDGE('',*,*,#170,.T.);
#225=ORIENTED_EDGE('',*,*,#164,.F.);
#226=ORIENTED_EDGE('',*,*,#170,.F.);
#227=ORIENTED_EDGE('',*,*,#171,.F.);
#228=ORIENTED_EDGE('',*,*,#172,.T.);
#229=ORIENTED_EDGE('',*,*,#173,.F.);
#230=ORIENTED_EDGE('',*,*,#172,.F.);
#231=ORIENTED_EDGE('',*,*,#173,.T.);
#232=ORIENTED_EDGE('',*,*,#174,.T.);
#233=ORIENTED_EDGE('',*,*,#165,.F.);
#234=ORIENTED_EDGE('',*,*,#174,.F.);
#235=ORIENTED_EDGE('',*,*,#175,.F.);
#236=ORIENTED_EDGE('',*,*,#176,.T.);
#237=ORIENTED_EDGE('',*,*,#166,.F.);
#238=ORIENTED_EDGE('',*,*,#176,.F.);
#239=ORIENTED_EDGE('',*,*,#162,.T.);
#240=ORIENTED_EDGE('',*,*,#175,.T.);
#241=ORIENTED_EDGE('',*,*,#171,.T.);
#242=ORIENTED_EDGE('',*,*,#167,.T.);
#243=ORIENTED_EDGE('',*,*,#151,.T.);
#244=ORIENTED_EDGE('',*,*,#148,.T.);
#245=PLANE('',#277);
#246=PLANE('',#286);
#247=PLANE('',#294);
#248=PLANE('',#308);
#249=ADVANCED_FACE('',(#37),#245,.F.);
#250=ADVANCED_FACE('',(#38),#29,.F.);
#251=ADVANCED_FACE('',(#39),#30,.F.);
#252=ADVANCED_FACE('',(#40),#31,.F.);
#253=ADVANCED_FACE('',(#41),#246,.F.);
#254=ADVANCED_FACE('',(#42),#32,.F.);
#255=ADVANCED_FACE('',(#43),#33,.T.);
#256=ADVANCED_FACE('',(#44,#17,#18,#19,#20,#21),#247,.T.);
#257=ADVANCED_FACE('',(#45),#15,.F.);
#258=ADVANCED_FACE('',(#46),#34,.F.);
#259=ADVANCED_FACE('',(#47),#16,.F.);
#260=ADVANCED_FACE('',(#48),#35,.F.);
#261=ADVANCED_FACE('',(#49),#36,.F.);
#262=ADVANCED_FACE('',(#50,#22,#23,#24,#25,#26),#248,.T.);
#263=CLOSED_SHELL('',(#249,#250,#251,#252,#253,#254,#255,#256,#257,#258,
#259,#260,#261,#262));
#264=DERIVED_UNIT_ELEMENT(#266,1.);
#265=DERIVED_UNIT_ELEMENT(#475,-3.);
#266=(
MASS_UNIT()
NAMED_UNIT(*)
SI_UNIT(.KILO.,.GRAM.)
);
#267=DERIVED_UNIT((#264,#265));
#268=MEASURE_REPRESENTATION_ITEM('density measure',
POSITIVE_RATIO_MEASURE(7850.),#267);
#269=PROPERTY_DEFINITION_REPRESENTATION(#274,#271);
#270=PROPERTY_DEFINITION_REPRESENTATION(#275,#272);
#271=REPRESENTATION('material name',(#273),#472);
#272=REPRESENTATION('density',(#268),#472);
#273=DESCRIPTIVE_REPRESENTATION_ITEM('Steel','Steel');
#274=PROPERTY_DEFINITION('material property','material name',#482);
#275=PROPERTY_DEFINITION('material property','density of part',#482);
#276=AXIS2_PLACEMENT_3D('',#389,#309,#310);
#277=AXIS2_PLACEMENT_3D('',#390,#311,#312);
#278=AXIS2_PLACEMENT_3D('',#396,#315,#316);
#279=AXIS2_PLACEMENT_3D('',#397,#317,#318);
#280=AXIS2_PLACEMENT_3D('',#406,#320,#321);
#281=AXIS2_PLACEMENT_3D('',#408,#322,#323);
#282=AXIS2_PLACEMENT_3D('',#411,#325,#326);
#283=AXIS2_PLACEMENT_3D('',#412,#327,#328);
#284=AXIS2_PLACEMENT_3D('',#414,#329,#330);
#285=AXIS2_PLACEMENT_3D('',#417,#332,#333);
#286=AXIS2_PLACEMENT_3D('',#418,#334,#335);
#287=AXIS2_PLACEMENT_3D('',#423,#337,#338);
#288=AXIS2_PLACEMENT_3D('',#425,#340,#341);
#289=AXIS2_PLACEMENT_3D('',#434,#343,#344);
#290=AXIS2_PLACEMENT_3D('',#435,#345,#346);
#291=AXIS2_PLACEMENT_3D('',#437,#347,#348);
#292=AXIS2_PLACEMENT_3D('',#440,#350,#351);
#293=AXIS2_PLACEMENT_3D('',#441,#352,#353);
#294=AXIS2_PLACEMENT_3D('',#442,#354,#355);
#295=AXIS2_PLACEMENT_3D('',#444,#356,#357);
#296=AXIS2_PLACEMENT_3D('',#446,#358,#359);
#297=AXIS2_PLACEMENT_3D('',#448,#360,#361);
#298=AXIS2_PLACEMENT_3D('',#449,#362,#363);
#299=AXIS2_PLACEMENT_3D('',#451,#364,#365);
#300=AXIS2_PLACEMENT_3D('',#454,#367,#368);
#301=AXIS2_PLACEMENT_3D('',#455,#369,#370);
#302=AXIS2_PLACEMENT_3D('',#457,#372,#373);
#303=AXIS2_PLACEMENT_3D('',#459,#374,#375);
#304=AXIS2_PLACEMENT_3D('',#462,#377,#378);
#305=AXIS2_PLACEMENT_3D('',#463,#379,#380);
#306=AXIS2_PLACEMENT_3D('',#465,#382,#383);
#307=AXIS2_PLACEMENT_3D('',#467,#384,#385);
#308=AXIS2_PLACEMENT_3D('',#469,#387,#388);
#309=DIRECTION('axis',(0.,0.,1.));
#310=DIRECTION('refdir',(1.,0.,0.));
#311=DIRECTION('center_axis',(0.,-1.,0.));
#312=DIRECTION('ref_axis',(-1.,0.,0.));
#313=DIRECTION('',(-1.,0.,0.));
#314=DIRECTION('',(0.,0.,1.));
#315=DIRECTION('center_axis',(0.,-1.,0.));
#316=DIRECTION('ref_axis',(1.,0.,0.));
#317=DIRECTION('center_axis',(0.,1.,0.));
#318=DIRECTION('ref_axis',(1.,0.,0.));
#319=DIRECTION('',(0.,-1.,0.));
#320=DIRECTION('center_axis',(1.,0.,0.));
#321=DIRECTION('ref_axis',(0.,0.,-1.));
#322=DIRECTION('center_axis',(1.,0.,0.));
#323=DIRECTION('ref_axis',(0.,0.,-1.));
#324=DIRECTION('',(1.,0.,0.));
#325=DIRECTION('center_axis',(-1.,0.,0.));
#326=DIRECTION('ref_axis',(0.,0.,-1.));
#327=DIRECTION('center_axis',(1.,0.,0.));
#328=DIRECTION('ref_axis',(0.,0.,-1.));
#329=DIRECTION('center_axis',(1.,0.,0.));
#330=DIRECTION('ref_axis',(0.,0.,-1.));
#331=DIRECTION('',(1.,0.,0.));
#332=DIRECTION('center_axis',(-1.,0.,0.));
#333=DIRECTION('ref_axis',(0.,0.,-1.));
#334=DIRECTION('center_axis',(0.,1.,0.));
#335=DIRECTION('ref_axis',(1.,0.,0.));
#336=DIRECTION('',(1.,0.,0.));
#337=DIRECTION('center_axis',(0.,1.,0.));
#338=DIRECTION('ref_axis',(1.,0.,0.));
#339=DIRECTION('',(0.,0.,-1.));
#340=DIRECTION('center_axis',(0.,1.,0.));
#341=DIRECTION('ref_axis',(1.,0.,0.));
#342=DIRECTION('',(0.,-1.,0.));
#343=DIRECTION('center_axis',(1.,0.,0.));
#344=DIRECTION('ref_axis',(0.,0.,-1.));
#345=DIRECTION('center_axis',(1.,0.,0.));
#346=DIRECTION('ref_axis',(0.,0.,-1.));
#347=DIRECTION('center_axis',(1.,0.,0.));
#348=DIRECTION('ref_axis',(0.,0.,-1.));
#349=DIRECTION('',(-1.,0.,0.));
#350=DIRECTION('center_axis',(-1.,0.,0.));
#351=DIRECTION('ref_axis',(0.,0.,-1.));
#352=DIRECTION('center_axis',(1.,0.,0.));
#353=DIRECTION('ref_axis',(0.,0.,-1.));
#354=DIRECTION('center_axis',(1.,0.,0.));
#355=DIRECTION('ref_axis',(0.,0.,-1.));
#356=DIRECTION('center_axis',(-1.,0.,0.));
#357=DIRECTION('ref_axis',(0.,0.,-1.));
#358=DIRECTION('center_axis',(-1.,0.,0.));
#359=DIRECTION('ref_axis',(0.,0.,-1.));
#360=DIRECTION('center_axis',(-1.,0.,0.));
#361=DIRECTION('ref_axis',(0.,0.,-1.));
#362=DIRECTION('center_axis',(-1.,0.,0.));
#363=DIRECTION('ref_axis',(0.,0.,-1.));
#364=DIRECTION('center_axis',(1.,0.,0.));
#365=DIRECTION('ref_axis',(0.,0.,-1.));
#366=DIRECTION('',(0.866185586048599,6.11983503128076E-17,-0.49972245348958));
#367=DIRECTION('center_axis',(-1.,0.,0.));
#368=DIRECTION('ref_axis',(0.,0.,-1.));
#369=DIRECTION('center_axis',(1.,0.,0.));
#370=DIRECTION('ref_axis',(0.,0.,-1.));
#371=DIRECTION('',(1.,0.,0.));
#372=DIRECTION('center_axis',(-1.,0.,0.));
#373=DIRECTION('ref_axis',(0.,0.,-1.));
#374=DIRECTION('center_axis',(1.,0.,0.));
#375=DIRECTION('ref_axis',(0.,0.,-1.));
#376=DIRECTION('',(0.866185586048599,6.11983503128076E-17,-0.49972245348958));
#377=DIRECTION('center_axis',(-1.,0.,0.));
#378=DIRECTION('ref_axis',(0.,0.,-1.));
#379=DIRECTION('center_axis',(1.,0.,0.));
#380=DIRECTION('ref_axis',(0.,0.,-1.));
#381=DIRECTION('',(1.,0.,0.));
#382=DIRECTION('center_axis',(1.,0.,0.));
#383=DIRECTION('ref_axis',(0.,0.,-1.));
#384=DIRECTION('center_axis',(1.,0.,0.));
#385=DIRECTION('ref_axis',(0.,0.,-1.));
#386=DIRECTION('',(1.,0.,0.));
#387=DIRECTION('center_axis',(-1.,0.,0.));
#388=DIRECTION('ref_axis',(0.,0.,1.));
#389=CARTESIAN_POINT('',(0.,0.,0.));
#390=CARTESIAN_POINT('Origin',(330.,16.,270.));
#391=CARTESIAN_POINT('',(330.,16.,264.784067462787));
#392=CARTESIAN_POINT('',(328.255280031854,16.,264.784067462787));
#393=CARTESIAN_POINT('',(328.5,16.,264.784067462787));
#394=CARTESIAN_POINT('',(330.,16.,264.5));
#395=CARTESIAN_POINT('',(330.,16.,255.));
#396=CARTESIAN_POINT('Origin',(330.,16.,270.));
#397=CARTESIAN_POINT('Origin',(330.,28.,270.));
#398=CARTESIAN_POINT('',(330.,16.431676725155,264.5));
#399=CARTESIAN_POINT('Ctrl Pts',(328.255280031854,16.,264.784067462787));
#400=CARTESIAN_POINT('Ctrl Pts',(328.30128417901,16.023836547374,264.768679159049));
#401=CARTESIAN_POINT('Ctrl Pts',(328.347828506863,16.0468286280479,264.753787308316));
#402=CARTESIAN_POINT('Ctrl Pts',(328.894529370133,16.3036504000491,264.58697448768));
#403=CARTESIAN_POINT('Ctrl Pts',(329.454811551896,16.431676725155,264.5));
#404=CARTESIAN_POINT('Ctrl Pts',(330.,16.431676725155,264.5));
#405=CARTESIAN_POINT('',(330.,28.,264.5));
#406=CARTESIAN_POINT('Origin',(333.5,-24.,240.));
#407=CARTESIAN_POINT('',(327.,-24.,244.7));
#408=CARTESIAN_POINT('Origin',(327.,-24.,240.));
#409=CARTESIAN_POINT('',(330.,-24.,244.7));
#410=CARTESIAN_POINT('',(333.5,-24.,244.7));
#411=CARTESIAN_POINT('Origin',(330.,-24.,240.));
#412=CARTESIAN_POINT('Origin',(333.5,24.,240.));
#413=CARTESIAN_POINT('',(327.,24.,244.7));
#414=CARTESIAN_POINT('Origin',(327.,24.,240.));
#415=CARTESIAN_POINT('',(330.,24.,244.7));
#416=CARTESIAN_POINT('',(333.5,24.,244.7));
#417=CARTESIAN_POINT('Origin',(330.,24.,240.));
#418=CARTESIAN_POINT('Origin',(330.,-16.,270.));
#419=CARTESIAN_POINT('',(328.255280031854,-16.,264.784067462787));
#420=CARTESIAN_POINT('',(330.,-16.,264.784067462787));
#421=CARTESIAN_POINT('',(328.5,-16.,264.784067462787));
#422=CARTESIAN_POINT('',(330.,-16.,264.5));
#423=CARTESIAN_POINT('Origin',(330.,-16.,270.));
#424=CARTESIAN_POINT('',(330.,-16.,255.));
#425=CARTESIAN_POINT('Origin',(330.,-28.,270.));
#426=CARTESIAN_POINT('',(330.,-16.431676725155,264.5));
#427=CARTESIAN_POINT('Ctrl Pts',(330.,-16.431676725155,264.5));
#428=CARTESIAN_POINT('Ctrl Pts',(329.454811551896,-16.431676725155,264.5));
#429=CARTESIAN_POINT('Ctrl Pts',(328.894529370133,-16.3036504000491,264.58697448768));
#430=CARTESIAN_POINT('Ctrl Pts',(328.347828506863,-16.0468286280479,264.753787308316));
#431=CARTESIAN_POINT('Ctrl Pts',(328.30128417901,-16.023836547374,264.768679159049));
#432=CARTESIAN_POINT('Ctrl Pts',(328.255280031854,-16.,264.784067462787));
#433=CARTESIAN_POINT('',(330.,-28.,264.5));
#434=CARTESIAN_POINT('Origin',(328.5,0.,240.));
#435=CARTESIAN_POINT('Origin',(330.,0.,240.));
#436=CARTESIAN_POINT('',(330.,-3.61270805748469E-15,269.5));
#437=CARTESIAN_POINT('Origin',(330.,0.,240.));
#438=CARTESIAN_POINT('',(327.,-3.61270805748469E-15,269.5));
#439=CARTESIAN_POINT('',(328.5,-3.61270805748469E-15,269.5));
#440=CARTESIAN_POINT('Origin',(327.,0.,240.));
#441=CARTESIAN_POINT('Origin',(330.,0.,240.));
#442=CARTESIAN_POINT('Origin',(330.,0.,240.));
#443=CARTESIAN_POINT('',(330.,-4.20053852107542E-15,217.7));
#444=CARTESIAN_POINT('Origin',(330.,-4.40872847693047E-15,216.));
#445=CARTESIAN_POINT('',(330.,1.67776611483187E-15,265.7));
#446=CARTESIAN_POINT('Origin',(330.,1.46957615897682E-15,264.));
#447=CARTESIAN_POINT('',(330.,1.37160441504504E-15,251.2));
#448=CARTESIAN_POINT('Origin',(330.,0.,240.));
#449=CARTESIAN_POINT('Origin',(328.1,-4.40872847693047E-15,216.));
#450=CARTESIAN_POINT('',(327.,-4.78648491266746E-15,219.084615384615));
#451=CARTESIAN_POINT('Origin',(327.,-4.40872847693047E-15,216.));
#452=CARTESIAN_POINT('',(329.4,-4.61691843278552E-15,217.7));
#453=CARTESIAN_POINT('',(328.1,-4.70876694272157E-15,218.45));
#454=CARTESIAN_POINT('Origin',(329.4,-4.40872847693047E-15,216.));
#455=CARTESIAN_POINT('Origin',(333.25,-4.40872847693047E-15,216.));
#456=CARTESIAN_POINT('',(333.25,-4.61691843278552E-15,217.7));
#457=CARTESIAN_POINT('Origin',(328.1,1.46957615897682E-15,264.));
#458=CARTESIAN_POINT('',(327.,1.09181972323983E-15,267.084615384615));
#459=CARTESIAN_POINT('Origin',(327.,1.46957615897682E-15,264.));
#460=CARTESIAN_POINT('',(329.4,1.26138620312177E-15,265.7));
#461=CARTESIAN_POINT('',(328.1,1.16953769318572E-15,266.45));
#462=CARTESIAN_POINT('Origin',(329.4,1.46957615897682E-15,264.));
#463=CARTESIAN_POINT('Origin',(333.25,1.46957615897682E-15,264.));
#464=CARTESIAN_POINT('',(333.25,1.26138620312177E-15,265.7));
#465=CARTESIAN_POINT('Origin',(328.5,0.,240.));
#466=CARTESIAN_POINT('',(327.,-1.37160441504504E-15,251.2));
#467=CARTESIAN_POINT('Origin',(327.,0.,240.));
#468=CARTESIAN_POINT('',(328.5,-1.37160441504504E-15,251.2));
#469=CARTESIAN_POINT('Origin',(327.,0.,240.));
#470=UNCERTAINTY_MEASURE_WITH_UNIT(LENGTH_MEASURE(0.01),#474,
'DISTANCE_ACCURACY_VALUE',
'Maximum model space distance between geometric entities at asserted c
onnectivities');
#471=UNCERTAINTY_MEASURE_WITH_UNIT(LENGTH_MEASURE(0.01),#474,
'DISTANCE_ACCURACY_VALUE',
'Maximum model space distance between geometric entities at asserted c
onnectivities');
#472=(
GEOMETRIC_REPRESENTATION_CONTEXT(3)
GLOBAL_UNCERTAINTY_ASSIGNED_CONTEXT((#470))
GLOBAL_UNIT_ASSIGNED_CONTEXT((#474,#476,#477))
REPRESENTATION_CONTEXT('','3D')
);
#473=(
GEOMETRIC_REPRESENTATION_CONTEXT(3)
GLOBAL_UNCERTAINTY_ASSIGNED_CONTEXT((#471))
GLOBAL_UNIT_ASSIGNED_CONTEXT((#474,#476,#477))
REPRESENTATION_CONTEXT('','3D')
);
#474=(
LENGTH_UNIT()
NAMED_UNIT(*)
SI_UNIT(.MILLI.,.METRE.)
);
#475=(
LENGTH_UNIT()
NAMED_UNIT(*)
SI_UNIT($,.METRE.)
);
#476=(
NAMED_UNIT(*)
PLANE_ANGLE_UNIT()
SI_UNIT($,.RADIAN.)
);
#477=(
NAMED_UNIT(*)
SI_UNIT($,.STERADIAN.)
SOLID_ANGLE_UNIT()
);
#478=SHAPE_DEFINITION_REPRESENTATION(#479,#480);
#479=PRODUCT_DEFINITION_SHAPE('',$,#482);
#480=SHAPE_REPRESENTATION('',(#276),#472);
#481=PRODUCT_DEFINITION_CONTEXT('part definition',#486,'design');
#482=PRODUCT_DEFINITION('2026-08-31-16-24-04-294','EXPORT_TMP',#483,#481);
#483=PRODUCT_DEFINITION_FORMATION('',$,#488);
#484=PRODUCT_RELATED_PRODUCT_CATEGORY('EXPORT_TMP','EXPORT_TMP',(#488));
#485=APPLICATION_PROTOCOL_DEFINITION('international standard',
'automotive_design',2009,#486);
#486=APPLICATION_CONTEXT(
'Core Data for Automotive Mechanical Design Process');
#487=PRODUCT_CONTEXT('part definition',#486,'mechanical');
#488=PRODUCT('2026-08-31-16-24-04-294','EXPORT_TMP',$,(#487));
#489=PRESENTATION_STYLE_ASSIGNMENT((#490));
#490=SURFACE_STYLE_USAGE(.BOTH.,#491);
#491=SURFACE_SIDE_STYLE('',(#492));
#492=SURFACE_STYLE_FILL_AREA(#493);
#493=FILL_AREA_STYLE('Steel - Satin',(#494));
#494=FILL_AREA_STYLE_COLOUR('Steel - Satin',#495);
#495=COLOUR_RGB('Steel - Satin',0.627450980392157,0.627450980392157,0.627450980392157);
ENDSEC;
END-ISO-10303-21;
