ISO-10303-21;
HEADER;
/* Generated by software containing ST-Developer
 * from STEP Tools, Inc. (www.steptools.com) 
 */

FILE_DESCRIPTION(
/* description */ (''),
/* implementation_level */ '2;1');

FILE_NAME(
/* name */ 'PRINT_V007E_P306_J4_GearmotorServiceCover_Clearanced.step',

/* time_stamp */ '2026-08-12T23:08:37+02:00',
/* author */ (''),
/* organization */ (''),
/* preprocessor_version */ 'ST-DEVELOPER v20.1',
/* originating_system */ 'Autodesk Translation Framework v15.8.0.0',
/* authorisation */ '');

FILE_SCHEMA (('AUTOMOTIVE_DESIGN { 1 0 10303 214 3 1 1 }'));
ENDSEC;

DATA;
#10=MECHANICAL_DESIGN_GEOMETRIC_PRESENTATION_REPRESENTATION('',(#13),#753);
#11=SHAPE_REPRESENTATION_RELATIONSHIP('SRR','None',#760,#12);
#12=ADVANCED_BREP_SHAPE_REPRESENTATION('',(#14),#752);
#13=STYLED_ITEM('',(#769),#14);
#14=MANIFOLD_SOLID_BREP(
'PRINT_V007E_P306_J4_GearmotorServiceCover_Clearanced',#449);
#15=FACE_BOUND('',#74,.T.);
#16=FACE_BOUND('',#75,.T.);
#17=FACE_BOUND('',#77,.T.);
#18=FACE_BOUND('',#78,.T.);
#19=FACE_BOUND('',#82,.T.);
#20=FACE_BOUND('',#83,.T.);
#21=FACE_BOUND('',#89,.T.);
#22=FACE_BOUND('',#91,.T.);
#23=FACE_BOUND('',#92,.T.);
#24=PLANE('',#475);
#25=PLANE('',#476);
#26=PLANE('',#477);
#27=PLANE('',#478);
#28=PLANE('',#479);
#29=PLANE('',#480);
#30=PLANE('',#481);
#31=PLANE('',#484);
#32=PLANE('',#485);
#33=PLANE('',#490);
#34=PLANE('',#491);
#35=PLANE('',#495);
#36=PLANE('',#499);
#37=PLANE('',#500);
#38=PLANE('',#501);
#39=FACE_OUTER_BOUND('',#62,.T.);
#40=FACE_OUTER_BOUND('',#63,.T.);
#41=FACE_OUTER_BOUND('',#64,.T.);
#42=FACE_OUTER_BOUND('',#65,.T.);
#43=FACE_OUTER_BOUND('',#66,.T.);
#44=FACE_OUTER_BOUND('',#67,.T.);
#45=FACE_OUTER_BOUND('',#68,.T.);
#46=FACE_OUTER_BOUND('',#69,.T.);
#47=FACE_OUTER_BOUND('',#70,.T.);
#48=FACE_OUTER_BOUND('',#71,.T.);
#49=FACE_OUTER_BOUND('',#72,.T.);
#50=FACE_OUTER_BOUND('',#73,.T.);
#51=FACE_OUTER_BOUND('',#76,.T.);
#52=FACE_OUTER_BOUND('',#79,.T.);
#53=FACE_OUTER_BOUND('',#80,.T.);
#54=FACE_OUTER_BOUND('',#81,.T.);
#55=FACE_OUTER_BOUND('',#84,.T.);
#56=FACE_OUTER_BOUND('',#85,.T.);
#57=FACE_OUTER_BOUND('',#86,.T.);
#58=FACE_OUTER_BOUND('',#87,.T.);
#59=FACE_OUTER_BOUND('',#88,.T.);
#60=FACE_OUTER_BOUND('',#90,.T.);
#61=FACE_OUTER_BOUND('',#93,.T.);
#62=EDGE_LOOP('',(#298,#299,#300,#301));
#63=EDGE_LOOP('',(#302,#303,#304,#305));
#64=EDGE_LOOP('',(#306,#307,#308,#309));
#65=EDGE_LOOP('',(#310,#311,#312,#313));
#66=EDGE_LOOP('',(#314,#315,#316,#317));
#67=EDGE_LOOP('',(#318,#319,#320,#321));
#68=EDGE_LOOP('',(#322,#323,#324,#325));
#69=EDGE_LOOP('',(#326,#327,#328,#329));
#70=EDGE_LOOP('',(#330,#331,#332,#333));
#71=EDGE_LOOP('',(#334,#335,#336,#337,#338,#339,#340,#341));
#72=EDGE_LOOP('',(#342,#343,#344,#345,#346,#347));
#73=EDGE_LOOP('',(#348,#349,#350,#351));
#74=EDGE_LOOP('',(#352));
#75=EDGE_LOOP('',(#353));
#76=EDGE_LOOP('',(#354,#355,#356,#357));
#77=EDGE_LOOP('',(#358));
#78=EDGE_LOOP('',(#359));
#79=EDGE_LOOP('',(#360,#361,#362,#363));
#80=EDGE_LOOP('',(#364,#365,#366,#367));
#81=EDGE_LOOP('',(#368,#369,#370,#371));
#82=EDGE_LOOP('',(#372));
#83=EDGE_LOOP('',(#373));
#84=EDGE_LOOP('',(#374,#375,#376,#377));
#85=EDGE_LOOP('',(#378,#379,#380,#381));
#86=EDGE_LOOP('',(#382,#383,#384,#385,#386,#387,#388,#389,#390,#391,#392,
#393));
#87=EDGE_LOOP('',(#394,#395,#396,#397));
#88=EDGE_LOOP('',(#398,#399,#400,#401,#402,#403));
#89=EDGE_LOOP('',(#404,#405,#406,#407));
#90=EDGE_LOOP('',(#408,#409,#410,#411));
#91=EDGE_LOOP('',(#412));
#92=EDGE_LOOP('',(#413));
#93=EDGE_LOOP('',(#414,#415,#416,#417));
#94=LINE('',#631,#138);
#95=LINE('',#637,#139);
#96=LINE('',#643,#140);
#97=LINE('',#649,#141);
#98=LINE('',#654,#142);
#99=LINE('',#656,#143);
#100=LINE('',#658,#144);
#101=LINE('',#659,#145);
#102=LINE('',#662,#146);
#103=LINE('',#664,#147);
#104=LINE('',#665,#148);
#105=LINE('',#668,#149);
#106=LINE('',#670,#150);
#107=LINE('',#671,#151);
#108=LINE('',#673,#152);
#109=LINE('',#674,#153);
#110=LINE('',#679,#154);
#111=LINE('',#681,#155);
#112=LINE('',#683,#156);
#113=LINE('',#685,#157);
#114=LINE('',#687,#158);
#115=LINE('',#689,#159);
#116=LINE('',#691,#160);
#117=LINE('',#692,#161);
#118=LINE('',#695,#162);
#119=LINE('',#699,#163);
#120=LINE('',#702,#164);
#121=LINE('',#705,#165);
#122=LINE('',#706,#166);
#123=LINE('',#709,#167);
#124=LINE('',#711,#168);
#125=LINE('',#712,#169);
#126=LINE('',#716,#170);
#127=LINE('',#721,#171);
#128=LINE('',#722,#172);
#129=LINE('',#724,#173);
#130=LINE('',#726,#174);
#131=LINE('',#731,#175);
#132=LINE('',#735,#176);
#133=LINE('',#738,#177);
#134=LINE('',#741,#178);
#135=LINE('',#744,#179);
#136=LINE('',#746,#180);
#137=LINE('',#747,#181);
#138=VECTOR('',#508,1.7);
#139=VECTOR('',#515,1.7);
#140=VECTOR('',#522,1.7);
#141=VECTOR('',#529,1.7);
#142=VECTOR('',#534,10.);
#143=VECTOR('',#535,10.);
#144=VECTOR('',#536,10.);
#145=VECTOR('',#537,10.);
#146=VECTOR('',#540,10.);
#147=VECTOR('',#541,10.);
#148=VECTOR('',#542,10.);
#149=VECTOR('',#545,10.);
#150=VECTOR('',#546,10.);
#151=VECTOR('',#547,10.);
#152=VECTOR('',#550,10.);
#153=VECTOR('',#551,10.);
#154=VECTOR('',#556,10.);
#155=VECTOR('',#557,10.);
#156=VECTOR('',#558,10.);
#157=VECTOR('',#559,10.);
#158=VECTOR('',#560,10.);
#159=VECTOR('',#561,10.);
#160=VECTOR('',#562,10.);
#161=VECTOR('',#563,10.);
#162=VECTOR('',#566,10.);
#163=VECTOR('',#569,10.);
#164=VECTOR('',#572,10.);
#165=VECTOR('',#575,10.);
#166=VECTOR('',#576,10.);
#167=VECTOR('',#579,10.);
#168=VECTOR('',#580,10.);
#169=VECTOR('',#581,10.);
#170=VECTOR('',#586,10.);
#171=VECTOR('',#591,10.);
#172=VECTOR('',#592,10.);
#173=VECTOR('',#595,10.);
#174=VECTOR('',#598,10.);
#175=VECTOR('',#603,10.);
#176=VECTOR('',#608,10.);
#177=VECTOR('',#611,10.);
#178=VECTOR('',#614,10.);
#179=VECTOR('',#617,10.);
#180=VECTOR('',#620,10.);
#181=VECTOR('',#621,10.);
#182=CIRCLE('',#464,1.7);
#183=CIRCLE('',#465,1.7);
#184=CIRCLE('',#467,1.7);
#185=CIRCLE('',#468,1.7);
#186=CIRCLE('',#470,1.7);
#187=CIRCLE('',#471,1.7);
#188=CIRCLE('',#473,1.7);
#189=CIRCLE('',#474,1.7);
#190=CIRCLE('',#482,5.);
#191=CIRCLE('',#483,5.);
#192=CIRCLE('',#487,5.);
#193=CIRCLE('',#489,5.);
#194=CIRCLE('',#493,8.);
#195=CIRCLE('',#494,8.);
#196=CIRCLE('',#496,8.);
#197=CIRCLE('',#498,8.);
#198=VERTEX_POINT('',#628);
#199=VERTEX_POINT('',#630);
#200=VERTEX_POINT('',#634);
#201=VERTEX_POINT('',#636);
#202=VERTEX_POINT('',#640);
#203=VERTEX_POINT('',#642);
#204=VERTEX_POINT('',#646);
#205=VERTEX_POINT('',#648);
#206=VERTEX_POINT('',#652);
#207=VERTEX_POINT('',#653);
#208=VERTEX_POINT('',#655);
#209=VERTEX_POINT('',#657);
#210=VERTEX_POINT('',#661);
#211=VERTEX_POINT('',#663);
#212=VERTEX_POINT('',#667);
#213=VERTEX_POINT('',#669);
#214=VERTEX_POINT('',#677);
#215=VERTEX_POINT('',#678);
#216=VERTEX_POINT('',#680);
#217=VERTEX_POINT('',#682);
#218=VERTEX_POINT('',#684);
#219=VERTEX_POINT('',#686);
#220=VERTEX_POINT('',#688);
#221=VERTEX_POINT('',#690);
#222=VERTEX_POINT('',#694);
#223=VERTEX_POINT('',#696);
#224=VERTEX_POINT('',#698);
#225=VERTEX_POINT('',#700);
#226=VERTEX_POINT('',#704);
#227=VERTEX_POINT('',#708);
#228=VERTEX_POINT('',#710);
#229=VERTEX_POINT('',#714);
#230=VERTEX_POINT('',#718);
#231=VERTEX_POINT('',#719);
#232=VERTEX_POINT('',#728);
#233=VERTEX_POINT('',#730);
#234=VERTEX_POINT('',#734);
#235=VERTEX_POINT('',#736);
#236=VERTEX_POINT('',#740);
#237=VERTEX_POINT('',#742);
#238=EDGE_CURVE('',#198,#198,#182,.T.);
#239=EDGE_CURVE('',#198,#199,#94,.T.);
#240=EDGE_CURVE('',#199,#199,#183,.T.);
#241=EDGE_CURVE('',#200,#200,#184,.T.);
#242=EDGE_CURVE('',#200,#201,#95,.T.);
#243=EDGE_CURVE('',#201,#201,#185,.T.);
#244=EDGE_CURVE('',#202,#202,#186,.T.);
#245=EDGE_CURVE('',#202,#203,#96,.T.);
#246=EDGE_CURVE('',#203,#203,#187,.T.);
#247=EDGE_CURVE('',#204,#204,#188,.T.);
#248=EDGE_CURVE('',#204,#205,#97,.T.);
#249=EDGE_CURVE('',#205,#205,#189,.T.);
#250=EDGE_CURVE('',#206,#207,#98,.T.);
#251=EDGE_CURVE('',#208,#206,#99,.T.);
#252=EDGE_CURVE('',#209,#208,#100,.T.);
#253=EDGE_CURVE('',#207,#209,#101,.T.);
#254=EDGE_CURVE('',#207,#210,#102,.T.);
#255=EDGE_CURVE('',#209,#211,#103,.T.);
#256=EDGE_CURVE('',#211,#210,#104,.T.);
#257=EDGE_CURVE('',#210,#212,#105,.T.);
#258=EDGE_CURVE('',#213,#211,#106,.T.);
#259=EDGE_CURVE('',#212,#213,#107,.T.);
#260=EDGE_CURVE('',#212,#206,#108,.T.);
#261=EDGE_CURVE('',#208,#213,#109,.T.);
#262=EDGE_CURVE('',#214,#215,#110,.T.);
#263=EDGE_CURVE('',#216,#214,#111,.T.);
#264=EDGE_CURVE('',#217,#216,#112,.T.);
#265=EDGE_CURVE('',#218,#217,#113,.T.);
#266=EDGE_CURVE('',#219,#218,#114,.T.);
#267=EDGE_CURVE('',#220,#219,#115,.T.);
#268=EDGE_CURVE('',#221,#220,#116,.T.);
#269=EDGE_CURVE('',#215,#221,#117,.T.);
#270=EDGE_CURVE('',#222,#218,#118,.T.);
#271=EDGE_CURVE('',#223,#222,#190,.T.);
#272=EDGE_CURVE('',#223,#224,#119,.T.);
#273=EDGE_CURVE('',#225,#224,#191,.T.);
#274=EDGE_CURVE('',#225,#219,#120,.T.);
#275=EDGE_CURVE('',#226,#217,#121,.T.);
#276=EDGE_CURVE('',#226,#222,#122,.T.);
#277=EDGE_CURVE('',#227,#214,#123,.T.);
#278=EDGE_CURVE('',#228,#227,#124,.T.);
#279=EDGE_CURVE('',#228,#216,#125,.T.);
#280=EDGE_CURVE('',#229,#226,#192,.T.);
#281=EDGE_CURVE('',#229,#223,#126,.T.);
#282=EDGE_CURVE('',#230,#231,#193,.T.);
#283=EDGE_CURVE('',#225,#230,#127,.T.);
#284=EDGE_CURVE('',#224,#231,#128,.T.);
#285=EDGE_CURVE('',#220,#230,#129,.T.);
#286=EDGE_CURVE('',#231,#229,#130,.T.);
#287=EDGE_CURVE('',#232,#227,#194,.T.);
#288=EDGE_CURVE('',#233,#232,#131,.T.);
#289=EDGE_CURVE('',#228,#233,#195,.T.);
#290=EDGE_CURVE('',#234,#233,#132,.T.);
#291=EDGE_CURVE('',#234,#235,#196,.T.);
#292=EDGE_CURVE('',#235,#221,#133,.T.);
#293=EDGE_CURVE('',#236,#234,#134,.T.);
#294=EDGE_CURVE('',#237,#236,#197,.T.);
#295=EDGE_CURVE('',#237,#235,#135,.T.);
#296=EDGE_CURVE('',#237,#215,#136,.T.);
#297=EDGE_CURVE('',#232,#236,#137,.T.);
#298=ORIENTED_EDGE('',*,*,#238,.F.);
#299=ORIENTED_EDGE('',*,*,#239,.T.);
#300=ORIENTED_EDGE('',*,*,#240,.F.);
#301=ORIENTED_EDGE('',*,*,#239,.F.);
#302=ORIENTED_EDGE('',*,*,#241,.F.);
#303=ORIENTED_EDGE('',*,*,#242,.T.);
#304=ORIENTED_EDGE('',*,*,#243,.F.);
#305=ORIENTED_EDGE('',*,*,#242,.F.);
#306=ORIENTED_EDGE('',*,*,#244,.F.);
#307=ORIENTED_EDGE('',*,*,#245,.T.);
#308=ORIENTED_EDGE('',*,*,#246,.F.);
#309=ORIENTED_EDGE('',*,*,#245,.F.);
#310=ORIENTED_EDGE('',*,*,#247,.F.);
#311=ORIENTED_EDGE('',*,*,#248,.T.);
#312=ORIENTED_EDGE('',*,*,#249,.F.);
#313=ORIENTED_EDGE('',*,*,#248,.F.);
#314=ORIENTED_EDGE('',*,*,#250,.F.);
#315=ORIENTED_EDGE('',*,*,#251,.F.);
#316=ORIENTED_EDGE('',*,*,#252,.F.);
#317=ORIENTED_EDGE('',*,*,#253,.F.);
#318=ORIENTED_EDGE('',*,*,#254,.F.);
#319=ORIENTED_EDGE('',*,*,#253,.T.);
#320=ORIENTED_EDGE('',*,*,#255,.T.);
#321=ORIENTED_EDGE('',*,*,#256,.T.);
#322=ORIENTED_EDGE('',*,*,#257,.F.);
#323=ORIENTED_EDGE('',*,*,#256,.F.);
#324=ORIENTED_EDGE('',*,*,#258,.F.);
#325=ORIENTED_EDGE('',*,*,#259,.F.);
#326=ORIENTED_EDGE('',*,*,#260,.F.);
#327=ORIENTED_EDGE('',*,*,#259,.T.);
#328=ORIENTED_EDGE('',*,*,#261,.F.);
#329=ORIENTED_EDGE('',*,*,#251,.T.);
#330=ORIENTED_EDGE('',*,*,#255,.F.);
#331=ORIENTED_EDGE('',*,*,#252,.T.);
#332=ORIENTED_EDGE('',*,*,#261,.T.);
#333=ORIENTED_EDGE('',*,*,#258,.T.);
#334=ORIENTED_EDGE('',*,*,#262,.F.);
#335=ORIENTED_EDGE('',*,*,#263,.F.);
#336=ORIENTED_EDGE('',*,*,#264,.F.);
#337=ORIENTED_EDGE('',*,*,#265,.F.);
#338=ORIENTED_EDGE('',*,*,#266,.F.);
#339=ORIENTED_EDGE('',*,*,#267,.F.);
#340=ORIENTED_EDGE('',*,*,#268,.F.);
#341=ORIENTED_EDGE('',*,*,#269,.F.);
#342=ORIENTED_EDGE('',*,*,#266,.T.);
#343=ORIENTED_EDGE('',*,*,#270,.F.);
#344=ORIENTED_EDGE('',*,*,#271,.F.);
#345=ORIENTED_EDGE('',*,*,#272,.T.);
#346=ORIENTED_EDGE('',*,*,#273,.F.);
#347=ORIENTED_EDGE('',*,*,#274,.T.);
#348=ORIENTED_EDGE('',*,*,#265,.T.);
#349=ORIENTED_EDGE('',*,*,#275,.F.);
#350=ORIENTED_EDGE('',*,*,#276,.T.);
#351=ORIENTED_EDGE('',*,*,#270,.T.);
#352=ORIENTED_EDGE('',*,*,#241,.T.);
#353=ORIENTED_EDGE('',*,*,#247,.T.);
#354=ORIENTED_EDGE('',*,*,#263,.T.);
#355=ORIENTED_EDGE('',*,*,#277,.F.);
#356=ORIENTED_EDGE('',*,*,#278,.F.);
#357=ORIENTED_EDGE('',*,*,#279,.T.);
#358=ORIENTED_EDGE('',*,*,#243,.T.);
#359=ORIENTED_EDGE('',*,*,#249,.T.);
#360=ORIENTED_EDGE('',*,*,#280,.F.);
#361=ORIENTED_EDGE('',*,*,#281,.T.);
#362=ORIENTED_EDGE('',*,*,#271,.T.);
#363=ORIENTED_EDGE('',*,*,#276,.F.);
#364=ORIENTED_EDGE('',*,*,#282,.F.);
#365=ORIENTED_EDGE('',*,*,#283,.F.);
#366=ORIENTED_EDGE('',*,*,#273,.T.);
#367=ORIENTED_EDGE('',*,*,#284,.T.);
#368=ORIENTED_EDGE('',*,*,#267,.T.);
#369=ORIENTED_EDGE('',*,*,#274,.F.);
#370=ORIENTED_EDGE('',*,*,#283,.T.);
#371=ORIENTED_EDGE('',*,*,#285,.F.);
#372=ORIENTED_EDGE('',*,*,#240,.T.);
#373=ORIENTED_EDGE('',*,*,#246,.T.);
#374=ORIENTED_EDGE('',*,*,#286,.F.);
#375=ORIENTED_EDGE('',*,*,#284,.F.);
#376=ORIENTED_EDGE('',*,*,#272,.F.);
#377=ORIENTED_EDGE('',*,*,#281,.F.);
#378=ORIENTED_EDGE('',*,*,#278,.T.);
#379=ORIENTED_EDGE('',*,*,#287,.F.);
#380=ORIENTED_EDGE('',*,*,#288,.F.);
#381=ORIENTED_EDGE('',*,*,#289,.F.);
#382=ORIENTED_EDGE('',*,*,#268,.T.);
#383=ORIENTED_EDGE('',*,*,#285,.T.);
#384=ORIENTED_EDGE('',*,*,#282,.T.);
#385=ORIENTED_EDGE('',*,*,#286,.T.);
#386=ORIENTED_EDGE('',*,*,#280,.T.);
#387=ORIENTED_EDGE('',*,*,#275,.T.);
#388=ORIENTED_EDGE('',*,*,#264,.T.);
#389=ORIENTED_EDGE('',*,*,#279,.F.);
#390=ORIENTED_EDGE('',*,*,#289,.T.);
#391=ORIENTED_EDGE('',*,*,#290,.F.);
#392=ORIENTED_EDGE('',*,*,#291,.T.);
#393=ORIENTED_EDGE('',*,*,#292,.T.);
#394=ORIENTED_EDGE('',*,*,#293,.F.);
#395=ORIENTED_EDGE('',*,*,#294,.F.);
#396=ORIENTED_EDGE('',*,*,#295,.T.);
#397=ORIENTED_EDGE('',*,*,#291,.F.);
#398=ORIENTED_EDGE('',*,*,#262,.T.);
#399=ORIENTED_EDGE('',*,*,#296,.F.);
#400=ORIENTED_EDGE('',*,*,#294,.T.);
#401=ORIENTED_EDGE('',*,*,#297,.F.);
#402=ORIENTED_EDGE('',*,*,#287,.T.);
#403=ORIENTED_EDGE('',*,*,#277,.T.);
#404=ORIENTED_EDGE('',*,*,#257,.T.);
#405=ORIENTED_EDGE('',*,*,#260,.T.);
#406=ORIENTED_EDGE('',*,*,#250,.T.);
#407=ORIENTED_EDGE('',*,*,#254,.T.);
#408=ORIENTED_EDGE('',*,*,#269,.T.);
#409=ORIENTED_EDGE('',*,*,#292,.F.);
#410=ORIENTED_EDGE('',*,*,#295,.F.);
#411=ORIENTED_EDGE('',*,*,#296,.T.);
#412=ORIENTED_EDGE('',*,*,#238,.T.);
#413=ORIENTED_EDGE('',*,*,#244,.T.);
#414=ORIENTED_EDGE('',*,*,#290,.T.);
#415=ORIENTED_EDGE('',*,*,#288,.T.);
#416=ORIENTED_EDGE('',*,*,#297,.T.);
#417=ORIENTED_EDGE('',*,*,#293,.T.);
#418=CYLINDRICAL_SURFACE('',#463,1.7);
#419=CYLINDRICAL_SURFACE('',#466,1.7);
#420=CYLINDRICAL_SURFACE('',#469,1.7);
#421=CYLINDRICAL_SURFACE('',#472,1.7);
#422=CYLINDRICAL_SURFACE('',#486,5.);
#423=CYLINDRICAL_SURFACE('',#488,5.);
#424=CYLINDRICAL_SURFACE('',#492,8.);
#425=CYLINDRICAL_SURFACE('',#497,8.);
#426=ADVANCED_FACE('',(#39),#418,.F.);
#427=ADVANCED_FACE('',(#40),#419,.F.);
#428=ADVANCED_FACE('',(#41),#420,.F.);
#429=ADVANCED_FACE('',(#42),#421,.F.);
#430=ADVANCED_FACE('',(#43),#24,.F.);
#431=ADVANCED_FACE('',(#44),#25,.T.);
#432=ADVANCED_FACE('',(#45),#26,.T.);
#433=ADVANCED_FACE('',(#46),#27,.T.);
#434=ADVANCED_FACE('',(#47),#28,.T.);
#435=ADVANCED_FACE('',(#48),#29,.F.);
#436=ADVANCED_FACE('',(#49),#30,.T.);
#437=ADVANCED_FACE('',(#50,#15,#16),#31,.T.);
#438=ADVANCED_FACE('',(#51,#17,#18),#32,.F.);
#439=ADVANCED_FACE('',(#52),#422,.F.);
#440=ADVANCED_FACE('',(#53),#423,.F.);
#441=ADVANCED_FACE('',(#54,#19,#20),#33,.T.);
#442=ADVANCED_FACE('',(#55),#34,.F.);
#443=ADVANCED_FACE('',(#56),#424,.T.);
#444=ADVANCED_FACE('',(#57),#35,.F.);
#445=ADVANCED_FACE('',(#58),#425,.T.);
#446=ADVANCED_FACE('',(#59,#21),#36,.F.);
#447=ADVANCED_FACE('',(#60,#22,#23),#37,.F.);
#448=ADVANCED_FACE('',(#61),#38,.T.);
#449=CLOSED_SHELL('',(#426,#427,#428,#429,#430,#431,#432,#433,#434,#435,
#436,#437,#438,#439,#440,#441,#442,#443,#444,#445,#446,#447,#448));
#450=DERIVED_UNIT_ELEMENT(#452,1.);
#451=DERIVED_UNIT_ELEMENT(#755,-3.);
#452=(
MASS_UNIT()
NAMED_UNIT(*)
SI_UNIT(.KILO.,.GRAM.)
);
#453=DERIVED_UNIT((#450,#451));
#454=MEASURE_REPRESENTATION_ITEM('density measure',
POSITIVE_RATIO_MEASURE(7850.),#453);
#455=PROPERTY_DEFINITION_REPRESENTATION(#460,#457);
#456=PROPERTY_DEFINITION_REPRESENTATION(#461,#458);
#457=REPRESENTATION('material name',(#459),#752);
#458=REPRESENTATION('density',(#454),#752);
#459=DESCRIPTIVE_REPRESENTATION_ITEM('Steel','Steel');
#460=PROPERTY_DEFINITION('material property','material name',#762);
#461=PROPERTY_DEFINITION('material property','density of part',#762);
#462=AXIS2_PLACEMENT_3D('',#626,#502,#503);
#463=AXIS2_PLACEMENT_3D('',#627,#504,#505);
#464=AXIS2_PLACEMENT_3D('',#629,#506,#507);
#465=AXIS2_PLACEMENT_3D('',#632,#509,#510);
#466=AXIS2_PLACEMENT_3D('',#633,#511,#512);
#467=AXIS2_PLACEMENT_3D('',#635,#513,#514);
#468=AXIS2_PLACEMENT_3D('',#638,#516,#517);
#469=AXIS2_PLACEMENT_3D('',#639,#518,#519);
#470=AXIS2_PLACEMENT_3D('',#641,#520,#521);
#471=AXIS2_PLACEMENT_3D('',#644,#523,#524);
#472=AXIS2_PLACEMENT_3D('',#645,#525,#526);
#473=AXIS2_PLACEMENT_3D('',#647,#527,#528);
#474=AXIS2_PLACEMENT_3D('',#650,#530,#531);
#475=AXIS2_PLACEMENT_3D('',#651,#532,#533);
#476=AXIS2_PLACEMENT_3D('',#660,#538,#539);
#477=AXIS2_PLACEMENT_3D('',#666,#543,#544);
#478=AXIS2_PLACEMENT_3D('',#672,#548,#549);
#479=AXIS2_PLACEMENT_3D('',#675,#552,#553);
#480=AXIS2_PLACEMENT_3D('',#676,#554,#555);
#481=AXIS2_PLACEMENT_3D('',#693,#564,#565);
#482=AXIS2_PLACEMENT_3D('',#697,#567,#568);
#483=AXIS2_PLACEMENT_3D('',#701,#570,#571);
#484=AXIS2_PLACEMENT_3D('',#703,#573,#574);
#485=AXIS2_PLACEMENT_3D('',#707,#577,#578);
#486=AXIS2_PLACEMENT_3D('',#713,#582,#583);
#487=AXIS2_PLACEMENT_3D('',#715,#584,#585);
#488=AXIS2_PLACEMENT_3D('',#717,#587,#588);
#489=AXIS2_PLACEMENT_3D('',#720,#589,#590);
#490=AXIS2_PLACEMENT_3D('',#723,#593,#594);
#491=AXIS2_PLACEMENT_3D('',#725,#596,#597);
#492=AXIS2_PLACEMENT_3D('',#727,#599,#600);
#493=AXIS2_PLACEMENT_3D('',#729,#601,#602);
#494=AXIS2_PLACEMENT_3D('',#732,#604,#605);
#495=AXIS2_PLACEMENT_3D('',#733,#606,#607);
#496=AXIS2_PLACEMENT_3D('',#737,#609,#610);
#497=AXIS2_PLACEMENT_3D('',#739,#612,#613);
#498=AXIS2_PLACEMENT_3D('',#743,#615,#616);
#499=AXIS2_PLACEMENT_3D('',#745,#618,#619);
#500=AXIS2_PLACEMENT_3D('',#748,#622,#623);
#501=AXIS2_PLACEMENT_3D('',#749,#624,#625);
#502=DIRECTION('axis',(0.,0.,1.));
#503=DIRECTION('refdir',(1.,0.,0.));
#504=DIRECTION('center_axis',(0.,1.,0.));
#505=DIRECTION('ref_axis',(1.,0.,0.));
#506=DIRECTION('center_axis',(0.,1.,0.));
#507=DIRECTION('ref_axis',(1.,0.,0.));
#508=DIRECTION('',(0.,1.,0.));
#509=DIRECTION('center_axis',(0.,-1.,0.));
#510=DIRECTION('ref_axis',(1.,0.,0.));
#511=DIRECTION('center_axis',(0.,1.,0.));
#512=DIRECTION('ref_axis',(1.,0.,0.));
#513=DIRECTION('center_axis',(0.,1.,0.));
#514=DIRECTION('ref_axis',(1.,0.,0.));
#515=DIRECTION('',(0.,1.,0.));
#516=DIRECTION('center_axis',(0.,-1.,0.));
#517=DIRECTION('ref_axis',(1.,0.,0.));
#518=DIRECTION('center_axis',(0.,1.,0.));
#519=DIRECTION('ref_axis',(1.,0.,0.));
#520=DIRECTION('center_axis',(0.,1.,0.));
#521=DIRECTION('ref_axis',(1.,0.,0.));
#522=DIRECTION('',(0.,1.,0.));
#523=DIRECTION('center_axis',(0.,-1.,0.));
#524=DIRECTION('ref_axis',(1.,0.,0.));
#525=DIRECTION('center_axis',(0.,1.,0.));
#526=DIRECTION('ref_axis',(1.,0.,0.));
#527=DIRECTION('center_axis',(0.,1.,0.));
#528=DIRECTION('ref_axis',(1.,0.,0.));
#529=DIRECTION('',(0.,1.,0.));
#530=DIRECTION('center_axis',(0.,-1.,0.));
#531=DIRECTION('ref_axis',(1.,0.,0.));
#532=DIRECTION('center_axis',(0.,0.,1.));
#533=DIRECTION('ref_axis',(1.,0.,0.));
#534=DIRECTION('',(0.,-1.,0.));
#535=DIRECTION('',(-1.,0.,0.));
#536=DIRECTION('',(0.,1.,0.));
#537=DIRECTION('',(1.,0.,0.));
#538=DIRECTION('center_axis',(0.,1.,0.));
#539=DIRECTION('ref_axis',(0.,0.,1.));
#540=DIRECTION('',(0.,0.,-1.));
#541=DIRECTION('',(0.,0.,-1.));
#542=DIRECTION('',(-1.,0.,0.));
#543=DIRECTION('center_axis',(0.,0.,1.));
#544=DIRECTION('ref_axis',(1.,0.,0.));
#545=DIRECTION('',(0.,1.,0.));
#546=DIRECTION('',(0.,-1.,0.));
#547=DIRECTION('',(1.,0.,0.));
#548=DIRECTION('center_axis',(0.,-1.,0.));
#549=DIRECTION('ref_axis',(0.,0.,-1.));
#550=DIRECTION('',(0.,0.,1.));
#551=DIRECTION('',(0.,0.,-1.));
#552=DIRECTION('center_axis',(-1.,0.,0.));
#553=DIRECTION('ref_axis',(0.,0.,1.));
#554=DIRECTION('center_axis',(0.,0.,1.));
#555=DIRECTION('ref_axis',(1.,0.,0.));
#556=DIRECTION('',(0.,-1.,0.));
#557=DIRECTION('',(-1.,0.,0.));
#558=DIRECTION('',(0.,1.,0.));
#559=DIRECTION('',(1.,0.,0.));
#560=DIRECTION('',(0.,1.,0.));
#561=DIRECTION('',(-1.,0.,0.));
#562=DIRECTION('',(0.,1.,0.));
#563=DIRECTION('',(1.,0.,0.));
#564=DIRECTION('center_axis',(1.,0.,0.));
#565=DIRECTION('ref_axis',(0.,0.,-1.));
#566=DIRECTION('',(0.,0.,-1.));
#567=DIRECTION('center_axis',(-1.,0.,0.));
#568=DIRECTION('ref_axis',(0.,0.,-1.));
#569=DIRECTION('',(0.,-1.,0.));
#570=DIRECTION('center_axis',(-1.,0.,0.));
#571=DIRECTION('ref_axis',(0.,0.,-1.));
#572=DIRECTION('',(0.,0.,-1.));
#573=DIRECTION('center_axis',(0.,-1.,0.));
#574=DIRECTION('ref_axis',(0.,0.,-1.));
#575=DIRECTION('',(0.,0.,-1.));
#576=DIRECTION('',(-1.,0.,0.));
#577=DIRECTION('center_axis',(0.,-1.,0.));
#578=DIRECTION('ref_axis',(0.,0.,-1.));
#579=DIRECTION('',(0.,0.,-1.));
#580=DIRECTION('',(-1.,0.,0.));
#581=DIRECTION('',(0.,0.,-1.));
#582=DIRECTION('center_axis',(1.,0.,0.));
#583=DIRECTION('ref_axis',(0.,0.,-1.));
#584=DIRECTION('center_axis',(-1.,0.,0.));
#585=DIRECTION('ref_axis',(0.,0.,-1.));
#586=DIRECTION('',(-1.,0.,0.));
#587=DIRECTION('center_axis',(1.,0.,0.));
#588=DIRECTION('ref_axis',(0.,0.,-1.));
#589=DIRECTION('center_axis',(-1.,0.,0.));
#590=DIRECTION('ref_axis',(0.,0.,-1.));
#591=DIRECTION('',(1.,0.,0.));
#592=DIRECTION('',(1.,0.,0.));
#593=DIRECTION('center_axis',(0.,1.,0.));
#594=DIRECTION('ref_axis',(0.,0.,1.));
#595=DIRECTION('',(0.,0.,1.));
#596=DIRECTION('center_axis',(0.,0.,1.));
#597=DIRECTION('ref_axis',(1.,0.,0.));
#598=DIRECTION('',(0.,1.,0.));
#599=DIRECTION('center_axis',(1.,0.,0.));
#600=DIRECTION('ref_axis',(0.,0.,-1.));
#601=DIRECTION('center_axis',(-1.,0.,0.));
#602=DIRECTION('ref_axis',(0.,0.,-1.));
#603=DIRECTION('',(-1.,0.,0.));
#604=DIRECTION('center_axis',(1.,0.,0.));
#605=DIRECTION('ref_axis',(0.,0.,-1.));
#606=DIRECTION('center_axis',(-1.,0.,0.));
#607=DIRECTION('ref_axis',(0.,0.,1.));
#608=DIRECTION('',(0.,1.,0.));
#609=DIRECTION('center_axis',(1.,0.,0.));
#610=DIRECTION('ref_axis',(0.,0.,-1.));
#611=DIRECTION('',(0.,0.,-1.));
#612=DIRECTION('center_axis',(1.,0.,0.));
#613=DIRECTION('ref_axis',(0.,0.,-1.));
#614=DIRECTION('',(1.,0.,0.));
#615=DIRECTION('center_axis',(-1.,0.,0.));
#616=DIRECTION('ref_axis',(0.,0.,-1.));
#617=DIRECTION('',(1.,0.,0.));
#618=DIRECTION('center_axis',(1.,0.,0.));
#619=DIRECTION('ref_axis',(0.,0.,-1.));
#620=DIRECTION('',(0.,0.,-1.));
#621=DIRECTION('',(0.,-1.,0.));
#622=DIRECTION('center_axis',(0.,1.,0.));
#623=DIRECTION('ref_axis',(0.,0.,1.));
#624=DIRECTION('center_axis',(0.,0.,1.));
#625=DIRECTION('ref_axis',(1.,0.,0.));
#626=CARTESIAN_POINT('',(0.,0.,0.));
#627=CARTESIAN_POINT('Origin',(332.,0.,311.8935055785));
#628=CARTESIAN_POINT('',(330.3,-40.,311.8935055785));
#629=CARTESIAN_POINT('Origin',(332.,-40.,311.8935055785));
#630=CARTESIAN_POINT('',(330.3,-37.,311.8935055785));
#631=CARTESIAN_POINT('',(330.3,0.,311.8935055785));
#632=CARTESIAN_POINT('Origin',(332.,-37.,311.8935055785));
#633=CARTESIAN_POINT('Origin',(332.,0.,311.8935055785));
#634=CARTESIAN_POINT('',(330.3,37.,311.8935055785));
#635=CARTESIAN_POINT('Origin',(332.,37.,311.8935055785));
#636=CARTESIAN_POINT('',(330.3,40.,311.8935055785));
#637=CARTESIAN_POINT('',(330.3,0.,311.8935055785));
#638=CARTESIAN_POINT('Origin',(332.,40.,311.8935055785));
#639=CARTESIAN_POINT('Origin',(304.,0.,311.8935055785));
#640=CARTESIAN_POINT('',(302.3,-40.,311.8935055785));
#641=CARTESIAN_POINT('Origin',(304.,-40.,311.8935055785));
#642=CARTESIAN_POINT('',(302.3,-37.,311.8935055785));
#643=CARTESIAN_POINT('',(302.3,0.,311.8935055785));
#644=CARTESIAN_POINT('Origin',(304.,-37.,311.8935055785));
#645=CARTESIAN_POINT('Origin',(304.,0.,311.8935055785));
#646=CARTESIAN_POINT('',(302.3,37.,311.8935055785));
#647=CARTESIAN_POINT('Origin',(304.,37.,311.8935055785));
#648=CARTESIAN_POINT('',(302.3,40.,311.8935055785));
#649=CARTESIAN_POINT('',(302.3,0.,311.8935055785));
#650=CARTESIAN_POINT('Origin',(304.,40.,311.8935055785));
#651=CARTESIAN_POINT('Origin',(289.,0.,312.8935055785));
#652=CARTESIAN_POINT('',(291.,12.,312.8935055785));
#653=CARTESIAN_POINT('',(291.,-12.,312.8935055785));
#654=CARTESIAN_POINT('',(291.,0.,312.8935055785));
#655=CARTESIAN_POINT('',(293.,12.,312.8935055785));
#656=CARTESIAN_POINT('',(289.,12.,312.8935055785));
#657=CARTESIAN_POINT('',(293.,-12.,312.8935055785));
#658=CARTESIAN_POINT('',(293.,0.,312.8935055785));
#659=CARTESIAN_POINT('',(289.,-12.,312.8935055785));
#660=CARTESIAN_POINT('Origin',(289.,-12.,300.8935055785));
#661=CARTESIAN_POINT('',(291.,-12.,288.8935055785));
#662=CARTESIAN_POINT('',(291.,-12.,300.8935055785));
#663=CARTESIAN_POINT('',(293.,-12.,288.8935055785));
#664=CARTESIAN_POINT('',(293.,-12.,300.8935055785));
#665=CARTESIAN_POINT('',(289.,-12.,288.8935055785));
#666=CARTESIAN_POINT('Origin',(289.,0.,288.8935055785));
#667=CARTESIAN_POINT('',(291.,12.,288.8935055785));
#668=CARTESIAN_POINT('',(291.,0.,288.8935055785));
#669=CARTESIAN_POINT('',(293.,12.,288.8935055785));
#670=CARTESIAN_POINT('',(293.,0.,288.8935055785));
#671=CARTESIAN_POINT('',(289.,12.,288.8935055785));
#672=CARTESIAN_POINT('Origin',(289.,12.,300.8935055785));
#673=CARTESIAN_POINT('',(291.,12.,300.8935055785));
#674=CARTESIAN_POINT('',(293.,12.,300.8935055785));
#675=CARTESIAN_POINT('Origin',(293.,0.,300.8935055785));
#676=CARTESIAN_POINT('Origin',(328.25,0.,287.));
#677=CARTESIAN_POINT('',(291.,40.,287.));
#678=CARTESIAN_POINT('',(291.,-40.,287.));
#679=CARTESIAN_POINT('',(291.,0.,287.));
#680=CARTESIAN_POINT('',(365.5,40.,287.));
#681=CARTESIAN_POINT('',(328.25,40.,287.));
#682=CARTESIAN_POINT('',(365.5,37.,287.));
#683=CARTESIAN_POINT('',(365.5,0.,287.));
#684=CARTESIAN_POINT('',(294.,37.,287.));
#685=CARTESIAN_POINT('',(329.75,37.,287.));
#686=CARTESIAN_POINT('',(294.,-37.,287.));
#687=CARTESIAN_POINT('',(294.,0.,287.));
#688=CARTESIAN_POINT('',(365.5,-37.,287.));
#689=CARTESIAN_POINT('',(329.75,-37.,287.));
#690=CARTESIAN_POINT('',(365.5,-40.,287.));
#691=CARTESIAN_POINT('',(365.5,0.,287.));
#692=CARTESIAN_POINT('',(328.25,-40.,287.));
#693=CARTESIAN_POINT('Origin',(294.,0.,300.8935055785));
#694=CARTESIAN_POINT('',(294.,37.,332.8935055785));
#695=CARTESIAN_POINT('',(294.,37.,300.8935055785));
#696=CARTESIAN_POINT('',(294.,32.,337.8935055785));
#697=CARTESIAN_POINT('Origin',(294.,32.,332.8935055785));
#698=CARTESIAN_POINT('',(294.,-32.,337.8935055785));
#699=CARTESIAN_POINT('',(294.,0.,337.8935055785));
#700=CARTESIAN_POINT('',(294.,-37.,332.8935055785));
#701=CARTESIAN_POINT('Origin',(294.,-32.,332.8935055785));
#702=CARTESIAN_POINT('',(294.,-37.,300.8935055785));
#703=CARTESIAN_POINT('Origin',(331.25,37.,300.8935055785));
#704=CARTESIAN_POINT('',(365.5,37.,332.8935055785));
#705=CARTESIAN_POINT('',(365.5,37.,300.8935055785));
#706=CARTESIAN_POINT('',(331.25,37.,332.8935055785));
#707=CARTESIAN_POINT('Origin',(328.25,40.,300.8935055785));
#708=CARTESIAN_POINT('',(291.,40.,332.8935055785));
#709=CARTESIAN_POINT('',(291.,40.,300.8935055785));
#710=CARTESIAN_POINT('',(365.5,40.,332.8935055785));
#711=CARTESIAN_POINT('',(328.25,40.,332.8935055785));
#712=CARTESIAN_POINT('',(365.5,40.,300.8935055785));
#713=CARTESIAN_POINT('Origin',(331.25,32.,332.8935055785));
#714=CARTESIAN_POINT('',(365.5,32.,337.8935055785));
#715=CARTESIAN_POINT('Origin',(365.5,32.,332.8935055785));
#716=CARTESIAN_POINT('',(331.25,32.,337.8935055785));
#717=CARTESIAN_POINT('Origin',(331.25,-32.,332.8935055785));
#718=CARTESIAN_POINT('',(365.5,-37.,332.8935055785));
#719=CARTESIAN_POINT('',(365.5,-32.,337.8935055785));
#720=CARTESIAN_POINT('Origin',(365.5,-32.,332.8935055785));
#721=CARTESIAN_POINT('',(331.25,-37.,332.8935055785));
#722=CARTESIAN_POINT('',(331.25,-32.,337.8935055785));
#723=CARTESIAN_POINT('Origin',(331.25,-37.,300.8935055785));
#724=CARTESIAN_POINT('',(365.5,-37.,300.8935055785));
#725=CARTESIAN_POINT('Origin',(331.25,0.,337.8935055785));
#726=CARTESIAN_POINT('',(365.5,0.,337.8935055785));
#727=CARTESIAN_POINT('Origin',(328.25,32.,332.8935055785));
#728=CARTESIAN_POINT('',(291.,32.,340.8935055785));
#729=CARTESIAN_POINT('Origin',(291.,32.,332.8935055785));
#730=CARTESIAN_POINT('',(365.5,32.,340.8935055785));
#731=CARTESIAN_POINT('',(328.25,32.,340.8935055785));
#732=CARTESIAN_POINT('Origin',(365.5,32.,332.8935055785));
#733=CARTESIAN_POINT('Origin',(365.5,0.,300.8935055785));
#734=CARTESIAN_POINT('',(365.5,-32.,340.8935055785));
#735=CARTESIAN_POINT('',(365.5,0.,340.8935055785));
#736=CARTESIAN_POINT('',(365.5,-40.,332.8935055785));
#737=CARTESIAN_POINT('Origin',(365.5,-32.,332.8935055785));
#738=CARTESIAN_POINT('',(365.5,-40.,300.8935055785));
#739=CARTESIAN_POINT('Origin',(328.25,-32.,332.8935055785));
#740=CARTESIAN_POINT('',(291.,-32.,340.8935055785));
#741=CARTESIAN_POINT('',(328.25,-32.,340.8935055785));
#742=CARTESIAN_POINT('',(291.,-40.,332.8935055785));
#743=CARTESIAN_POINT('Origin',(291.,-32.,332.8935055785));
#744=CARTESIAN_POINT('',(328.25,-40.,332.8935055785));
#745=CARTESIAN_POINT('Origin',(291.,0.,300.8935055785));
#746=CARTESIAN_POINT('',(291.,-40.,300.8935055785));
#747=CARTESIAN_POINT('',(291.,0.,340.8935055785));
#748=CARTESIAN_POINT('Origin',(328.25,-40.,300.8935055785));
#749=CARTESIAN_POINT('Origin',(328.25,0.,340.8935055785));
#750=UNCERTAINTY_MEASURE_WITH_UNIT(LENGTH_MEASURE(0.01),#754,
'DISTANCE_ACCURACY_VALUE',
'Maximum model space distance between geometric entities at asserted c
onnectivities');
#751=UNCERTAINTY_MEASURE_WITH_UNIT(LENGTH_MEASURE(0.01),#754,
'DISTANCE_ACCURACY_VALUE',
'Maximum model space distance between geometric entities at asserted c
onnectivities');
#752=(
GEOMETRIC_REPRESENTATION_CONTEXT(3)
GLOBAL_UNCERTAINTY_ASSIGNED_CONTEXT((#750))
GLOBAL_UNIT_ASSIGNED_CONTEXT((#754,#756,#757))
REPRESENTATION_CONTEXT('','3D')
);
#753=(
GEOMETRIC_REPRESENTATION_CONTEXT(3)
GLOBAL_UNCERTAINTY_ASSIGNED_CONTEXT((#751))
GLOBAL_UNIT_ASSIGNED_CONTEXT((#754,#756,#757))
REPRESENTATION_CONTEXT('','3D')
);
#754=(
LENGTH_UNIT()
NAMED_UNIT(*)
SI_UNIT(.MILLI.,.METRE.)
);
#755=(
LENGTH_UNIT()
NAMED_UNIT(*)
SI_UNIT($,.METRE.)
);
#756=(
NAMED_UNIT(*)
PLANE_ANGLE_UNIT()
SI_UNIT($,.RADIAN.)
);
#757=(
NAMED_UNIT(*)
SI_UNIT($,.STERADIAN.)
SOLID_ANGLE_UNIT()
);
#758=SHAPE_DEFINITION_REPRESENTATION(#759,#760);
#759=PRODUCT_DEFINITION_SHAPE('',$,#762);
#760=SHAPE_REPRESENTATION('',(#462),#752);
#761=PRODUCT_DEFINITION_CONTEXT('part definition',#766,'design');
#762=PRODUCT_DEFINITION('2026-08-12-23-08-36-908',
'EXPORT_TMP_PRINT_V007E_P306_J4_GearmotorServiceCove',#763,#761);
#763=PRODUCT_DEFINITION_FORMATION('',$,#768);
#764=PRODUCT_RELATED_PRODUCT_CATEGORY(
'EXPORT_TMP_PRINT_V007E_P306_J4_GearmotorServiceCove',
'EXPORT_TMP_PRINT_V007E_P306_J4_GearmotorServiceCove',(#768));
#765=APPLICATION_PROTOCOL_DEFINITION('international standard',
'automotive_design',2009,#766);
#766=APPLICATION_CONTEXT(
'Core Data for Automotive Mechanical Design Process');
#767=PRODUCT_CONTEXT('part definition',#766,'mechanical');
#768=PRODUCT('2026-08-12-23-08-36-908',
'EXPORT_TMP_PRINT_V007E_P306_J4_GearmotorServiceCove',$,(#767));
#769=PRESENTATION_STYLE_ASSIGNMENT((#770));
#770=SURFACE_STYLE_USAGE(.BOTH.,#771);
#771=SURFACE_SIDE_STYLE('',(#772));
#772=SURFACE_STYLE_FILL_AREA(#773);
#773=FILL_AREA_STYLE('Steel - Satin',(#774));
#774=FILL_AREA_STYLE_COLOUR('Steel - Satin',#775);
#775=COLOUR_RGB('Steel - Satin',0.627450980392157,0.627450980392157,0.627450980392157);
ENDSEC;
END-ISO-10303-21;
