ISO-10303-21;
HEADER;
/* Generated by software containing ST-Developer
 * from STEP Tools, Inc. (www.steptools.com) 
 */

FILE_DESCRIPTION(
/* description */ (''),
/* implementation_level */ '2;1');

FILE_NAME(
/* name */ 'PRINT_V009A_P410_NEMA17_LoadMount_A_CoverBosses.step',
/* time_stamp */ '2026-08-12T23:09:29+02:00',
/* author */ (''),
/* organization */ (''),
/* preprocessor_version */ 'ST-DEVELOPER v20.1',
/* originating_system */ 'Autodesk Translation Framework v15.8.0.0',
/* authorisation */ '');

FILE_SCHEMA (('AUTOMOTIVE_DESIGN { 1 0 10303 214 3 1 1 }'));
ENDSEC;

DATA;
#10=MECHANICAL_DESIGN_GEOMETRIC_PRESENTATION_REPRESENTATION('',(#13),#854);
#11=SHAPE_REPRESENTATION_RELATIONSHIP('SRR','None',#861,#12);
#12=ADVANCED_BREP_SHAPE_REPRESENTATION('',(#14),#853);
#13=STYLED_ITEM('',(#870),#14);
#14=MANIFOLD_SOLID_BREP(
'PRINT_V009A_P410_NEMA17_LoadMount_A_CoverBosses',#492);
#15=FACE_BOUND('',#85,.T.);
#16=FACE_BOUND('',#88,.T.);
#17=FACE_BOUND('',#89,.T.);
#18=FACE_BOUND('',#90,.T.);
#19=FACE_BOUND('',#91,.T.);
#20=FACE_BOUND('',#92,.T.);
#21=FACE_BOUND('',#95,.T.);
#22=FACE_BOUND('',#99,.T.);
#23=FACE_BOUND('',#103,.T.);
#24=FACE_BOUND('',#108,.T.);
#25=FACE_BOUND('',#109,.T.);
#26=FACE_BOUND('',#110,.T.);
#27=FACE_BOUND('',#111,.T.);
#28=FACE_BOUND('',#112,.T.);
#29=FACE_BOUND('',#113,.T.);
#30=FACE_BOUND('',#114,.T.);
#31=FACE_BOUND('',#115,.T.);
#32=FACE_BOUND('',#116,.T.);
#33=PLANE('',#538);
#34=PLANE('',#539);
#35=PLANE('',#540);
#36=PLANE('',#548);
#37=PLANE('',#549);
#38=PLANE('',#553);
#39=PLANE('',#554);
#40=PLANE('',#558);
#41=PLANE('',#559);
#42=PLANE('',#560);
#43=PLANE('',#561);
#44=PLANE('',#562);
#45=PLANE('',#563);
#46=PLANE('',#564);
#47=FACE_OUTER_BOUND('',#74,.T.);
#48=FACE_OUTER_BOUND('',#75,.T.);
#49=FACE_OUTER_BOUND('',#76,.T.);
#50=FACE_OUTER_BOUND('',#77,.T.);
#51=FACE_OUTER_BOUND('',#78,.T.);
#52=FACE_OUTER_BOUND('',#79,.T.);
#53=FACE_OUTER_BOUND('',#80,.T.);
#54=FACE_OUTER_BOUND('',#81,.T.);
#55=FACE_OUTER_BOUND('',#82,.T.);
#56=FACE_OUTER_BOUND('',#83,.T.);
#57=FACE_OUTER_BOUND('',#84,.T.);
#58=FACE_OUTER_BOUND('',#86,.T.);
#59=FACE_OUTER_BOUND('',#87,.T.);
#60=FACE_OUTER_BOUND('',#93,.T.);
#61=FACE_OUTER_BOUND('',#94,.T.);
#62=FACE_OUTER_BOUND('',#96,.T.);
#63=FACE_OUTER_BOUND('',#97,.T.);
#64=FACE_OUTER_BOUND('',#98,.T.);
#65=FACE_OUTER_BOUND('',#100,.T.);
#66=FACE_OUTER_BOUND('',#101,.T.);
#67=FACE_OUTER_BOUND('',#102,.T.);
#68=FACE_OUTER_BOUND('',#104,.T.);
#69=FACE_OUTER_BOUND('',#105,.T.);
#70=FACE_OUTER_BOUND('',#106,.T.);
#71=FACE_OUTER_BOUND('',#107,.T.);
#72=FACE_OUTER_BOUND('',#117,.T.);
#73=FACE_OUTER_BOUND('',#118,.T.);
#74=EDGE_LOOP('',(#322,#323,#324,#325));
#75=EDGE_LOOP('',(#326,#327,#328,#329));
#76=EDGE_LOOP('',(#330,#331,#332,#333));
#77=EDGE_LOOP('',(#334,#335,#336,#337));
#78=EDGE_LOOP('',(#338,#339,#340,#341));
#79=EDGE_LOOP('',(#342,#343,#344,#345));
#80=EDGE_LOOP('',(#346,#347,#348,#349));
#81=EDGE_LOOP('',(#350,#351,#352,#353));
#82=EDGE_LOOP('',(#354,#355,#356,#357));
#83=EDGE_LOOP('',(#358,#359,#360,#361,#362,#363));
#84=EDGE_LOOP('',(#364));
#85=EDGE_LOOP('',(#365));
#86=EDGE_LOOP('',(#366,#367,#368));
#87=EDGE_LOOP('',(#369,#370,#371,#372,#373,#374,#375,#376,#377,#378));
#88=EDGE_LOOP('',(#379));
#89=EDGE_LOOP('',(#380));
#90=EDGE_LOOP('',(#381));
#91=EDGE_LOOP('',(#382));
#92=EDGE_LOOP('',(#383));
#93=EDGE_LOOP('',(#384,#385,#386,#387,#388,#389));
#94=EDGE_LOOP('',(#390));
#95=EDGE_LOOP('',(#391));
#96=EDGE_LOOP('',(#392,#393,#394));
#97=EDGE_LOOP('',(#395,#396,#397,#398,#399));
#98=EDGE_LOOP('',(#400));
#99=EDGE_LOOP('',(#401));
#100=EDGE_LOOP('',(#402,#403,#404));
#101=EDGE_LOOP('',(#405,#406,#407,#408,#409));
#102=EDGE_LOOP('',(#410));
#103=EDGE_LOOP('',(#411));
#104=EDGE_LOOP('',(#412,#413,#414));
#105=EDGE_LOOP('',(#415,#416,#417,#418,#419,#420));
#106=EDGE_LOOP('',(#421,#422,#423,#424,#425,#426));
#107=EDGE_LOOP('',(#427,#428,#429,#430));
#108=EDGE_LOOP('',(#431));
#109=EDGE_LOOP('',(#432));
#110=EDGE_LOOP('',(#433));
#111=EDGE_LOOP('',(#434));
#112=EDGE_LOOP('',(#435));
#113=EDGE_LOOP('',(#436));
#114=EDGE_LOOP('',(#437));
#115=EDGE_LOOP('',(#438));
#116=EDGE_LOOP('',(#439));
#117=EDGE_LOOP('',(#440,#441,#442,#443,#444,#445));
#118=EDGE_LOOP('',(#446,#447,#448,#449,#450,#451));
#119=LINE('',#723,#152);
#120=LINE('',#729,#153);
#121=LINE('',#735,#154);
#122=LINE('',#741,#155);
#123=LINE('',#747,#156);
#124=LINE('',#753,#157);
#125=LINE('',#759,#158);
#126=LINE('',#765,#159);
#127=LINE('',#771,#160);
#128=LINE('',#777,#161);
#129=LINE('',#786,#162);
#130=LINE('',#787,#163);
#131=LINE('',#790,#164);
#132=LINE('',#796,#165);
#133=LINE('',#800,#166);
#134=LINE('',#803,#167);
#135=LINE('',#807,#168);
#136=LINE('',#812,#169);
#137=LINE('',#813,#170);
#138=LINE('',#817,#171);
#139=LINE('',#822,#172);
#140=LINE('',#823,#173);
#141=LINE('',#827,#174);
#142=LINE('',#832,#175);
#143=LINE('',#833,#176);
#144=LINE('',#836,#177);
#145=LINE('',#838,#178);
#146=LINE('',#839,#179);
#147=LINE('',#842,#180);
#148=LINE('',#844,#181);
#149=LINE('',#845,#182);
#150=LINE('',#847,#183);
#151=LINE('',#848,#184);
#152=VECTOR('',#571,1.7);
#153=VECTOR('',#578,1.7);
#154=VECTOR('',#585,1.7);
#155=VECTOR('',#592,1.7);
#156=VECTOR('',#599,1.7);
#157=VECTOR('',#606,1.7);
#158=VECTOR('',#613,1.7);
#159=VECTOR('',#620,1.7);
#160=VECTOR('',#627,11.2);
#161=VECTOR('',#634,5.);
#162=VECTOR('',#645,10.);
#163=VECTOR('',#646,10.);
#164=VECTOR('',#649,10.);
#165=VECTOR('',#654,10.);
#166=VECTOR('',#657,10.);
#167=VECTOR('',#660,10.);
#168=VECTOR('',#665,5.);
#169=VECTOR('',#672,10.);
#170=VECTOR('',#673,10.);
#171=VECTOR('',#678,5.);
#172=VECTOR('',#685,10.);
#173=VECTOR('',#686,10.);
#174=VECTOR('',#691,5.);
#175=VECTOR('',#698,10.);
#176=VECTOR('',#699,10.);
#177=VECTOR('',#702,10.);
#178=VECTOR('',#703,10.);
#179=VECTOR('',#704,10.);
#180=VECTOR('',#707,10.);
#181=VECTOR('',#708,10.);
#182=VECTOR('',#709,10.);
#183=VECTOR('',#712,10.);
#184=VECTOR('',#713,10.);
#185=CIRCLE('',#507,1.7);
#186=CIRCLE('',#508,1.7);
#187=CIRCLE('',#510,1.7);
#188=CIRCLE('',#511,1.7);
#189=CIRCLE('',#513,1.7);
#190=CIRCLE('',#514,1.7);
#191=CIRCLE('',#516,1.7);
#192=CIRCLE('',#517,1.7);
#193=CIRCLE('',#519,1.7);
#194=CIRCLE('',#520,1.7);
#195=CIRCLE('',#522,1.7);
#196=CIRCLE('',#523,1.7);
#197=CIRCLE('',#525,1.7);
#198=CIRCLE('',#526,1.7);
#199=CIRCLE('',#528,1.7);
#200=CIRCLE('',#529,1.7);
#201=CIRCLE('',#531,11.2);
#202=CIRCLE('',#532,11.2);
#203=CIRCLE('',#534,5.);
#204=CIRCLE('',#535,5.);
#205=CIRCLE('',#536,5.);
#206=CIRCLE('',#537,5.);
#207=CIRCLE('',#541,5.);
#208=CIRCLE('',#542,5.);
#209=CIRCLE('',#543,5.);
#210=CIRCLE('',#544,5.);
#211=CIRCLE('',#546,5.);
#212=CIRCLE('',#547,5.);
#213=CIRCLE('',#551,5.);
#214=CIRCLE('',#552,5.);
#215=CIRCLE('',#556,5.);
#216=CIRCLE('',#557,5.);
#217=VERTEX_POINT('',#720);
#218=VERTEX_POINT('',#722);
#219=VERTEX_POINT('',#726);
#220=VERTEX_POINT('',#728);
#221=VERTEX_POINT('',#732);
#222=VERTEX_POINT('',#734);
#223=VERTEX_POINT('',#738);
#224=VERTEX_POINT('',#740);
#225=VERTEX_POINT('',#744);
#226=VERTEX_POINT('',#746);
#227=VERTEX_POINT('',#750);
#228=VERTEX_POINT('',#752);
#229=VERTEX_POINT('',#756);
#230=VERTEX_POINT('',#758);
#231=VERTEX_POINT('',#762);
#232=VERTEX_POINT('',#764);
#233=VERTEX_POINT('',#768);
#234=VERTEX_POINT('',#770);
#235=VERTEX_POINT('',#774);
#236=VERTEX_POINT('',#776);
#237=VERTEX_POINT('',#778);
#238=VERTEX_POINT('',#780);
#239=VERTEX_POINT('',#785);
#240=VERTEX_POINT('',#789);
#241=VERTEX_POINT('',#791);
#242=VERTEX_POINT('',#793);
#243=VERTEX_POINT('',#795);
#244=VERTEX_POINT('',#797);
#245=VERTEX_POINT('',#799);
#246=VERTEX_POINT('',#801);
#247=VERTEX_POINT('',#805);
#248=VERTEX_POINT('',#811);
#249=VERTEX_POINT('',#815);
#250=VERTEX_POINT('',#821);
#251=VERTEX_POINT('',#825);
#252=VERTEX_POINT('',#831);
#253=VERTEX_POINT('',#835);
#254=VERTEX_POINT('',#837);
#255=VERTEX_POINT('',#841);
#256=VERTEX_POINT('',#843);
#257=EDGE_CURVE('',#217,#217,#185,.T.);
#258=EDGE_CURVE('',#217,#218,#119,.T.);
#259=EDGE_CURVE('',#218,#218,#186,.T.);
#260=EDGE_CURVE('',#219,#219,#187,.T.);
#261=EDGE_CURVE('',#219,#220,#120,.T.);
#262=EDGE_CURVE('',#220,#220,#188,.T.);
#263=EDGE_CURVE('',#221,#221,#189,.T.);
#264=EDGE_CURVE('',#221,#222,#121,.T.);
#265=EDGE_CURVE('',#222,#222,#190,.T.);
#266=EDGE_CURVE('',#223,#223,#191,.T.);
#267=EDGE_CURVE('',#223,#224,#122,.T.);
#268=EDGE_CURVE('',#224,#224,#192,.T.);
#269=EDGE_CURVE('',#225,#225,#193,.T.);
#270=EDGE_CURVE('',#225,#226,#123,.T.);
#271=EDGE_CURVE('',#226,#226,#194,.T.);
#272=EDGE_CURVE('',#227,#227,#195,.T.);
#273=EDGE_CURVE('',#227,#228,#124,.T.);
#274=EDGE_CURVE('',#228,#228,#196,.T.);
#275=EDGE_CURVE('',#229,#229,#197,.T.);
#276=EDGE_CURVE('',#229,#230,#125,.T.);
#277=EDGE_CURVE('',#230,#230,#198,.T.);
#278=EDGE_CURVE('',#231,#231,#199,.T.);
#279=EDGE_CURVE('',#231,#232,#126,.T.);
#280=EDGE_CURVE('',#232,#232,#200,.T.);
#281=EDGE_CURVE('',#233,#233,#201,.T.);
#282=EDGE_CURVE('',#233,#234,#127,.T.);
#283=EDGE_CURVE('',#234,#234,#202,.T.);
#284=EDGE_CURVE('',#235,#235,#203,.T.);
#285=EDGE_CURVE('',#235,#236,#128,.T.);
#286=EDGE_CURVE('',#237,#236,#204,.T.);
#287=EDGE_CURVE('',#238,#237,#205,.T.);
#288=EDGE_CURVE('',#236,#238,#206,.T.);
#289=EDGE_CURVE('',#239,#237,#129,.T.);
#290=EDGE_CURVE('',#239,#238,#130,.T.);
#291=EDGE_CURVE('',#238,#240,#131,.T.);
#292=EDGE_CURVE('',#240,#241,#207,.T.);
#293=EDGE_CURVE('',#241,#242,#208,.T.);
#294=EDGE_CURVE('',#243,#242,#132,.T.);
#295=EDGE_CURVE('',#243,#244,#209,.T.);
#296=EDGE_CURVE('',#245,#244,#133,.T.);
#297=EDGE_CURVE('',#245,#246,#210,.T.);
#298=EDGE_CURVE('',#237,#246,#134,.T.);
#299=EDGE_CURVE('',#247,#247,#211,.T.);
#300=EDGE_CURVE('',#247,#241,#135,.T.);
#301=EDGE_CURVE('',#242,#240,#212,.T.);
#302=EDGE_CURVE('',#240,#248,#136,.T.);
#303=EDGE_CURVE('',#242,#248,#137,.T.);
#304=EDGE_CURVE('',#249,#249,#213,.T.);
#305=EDGE_CURVE('',#249,#245,#138,.T.);
#306=EDGE_CURVE('',#246,#245,#214,.T.);
#307=EDGE_CURVE('',#250,#245,#139,.T.);
#308=EDGE_CURVE('',#246,#250,#140,.T.);
#309=EDGE_CURVE('',#251,#251,#215,.T.);
#310=EDGE_CURVE('',#251,#244,#141,.T.);
#311=EDGE_CURVE('',#244,#243,#216,.T.);
#312=EDGE_CURVE('',#252,#243,#142,.T.);
#313=EDGE_CURVE('',#244,#252,#143,.T.);
#314=EDGE_CURVE('',#253,#239,#144,.T.);
#315=EDGE_CURVE('',#250,#254,#145,.T.);
#316=EDGE_CURVE('',#254,#253,#146,.T.);
#317=EDGE_CURVE('',#248,#255,#147,.T.);
#318=EDGE_CURVE('',#255,#256,#148,.T.);
#319=EDGE_CURVE('',#256,#252,#149,.T.);
#320=EDGE_CURVE('',#254,#256,#150,.T.);
#321=EDGE_CURVE('',#253,#255,#151,.T.);
#322=ORIENTED_EDGE('',*,*,#257,.F.);
#323=ORIENTED_EDGE('',*,*,#258,.T.);
#324=ORIENTED_EDGE('',*,*,#259,.F.);
#325=ORIENTED_EDGE('',*,*,#258,.F.);
#326=ORIENTED_EDGE('',*,*,#260,.F.);
#327=ORIENTED_EDGE('',*,*,#261,.T.);
#328=ORIENTED_EDGE('',*,*,#262,.F.);
#329=ORIENTED_EDGE('',*,*,#261,.F.);
#330=ORIENTED_EDGE('',*,*,#263,.F.);
#331=ORIENTED_EDGE('',*,*,#264,.T.);
#332=ORIENTED_EDGE('',*,*,#265,.F.);
#333=ORIENTED_EDGE('',*,*,#264,.F.);
#334=ORIENTED_EDGE('',*,*,#266,.F.);
#335=ORIENTED_EDGE('',*,*,#267,.T.);
#336=ORIENTED_EDGE('',*,*,#268,.F.);
#337=ORIENTED_EDGE('',*,*,#267,.F.);
#338=ORIENTED_EDGE('',*,*,#269,.F.);
#339=ORIENTED_EDGE('',*,*,#270,.T.);
#340=ORIENTED_EDGE('',*,*,#271,.F.);
#341=ORIENTED_EDGE('',*,*,#270,.F.);
#342=ORIENTED_EDGE('',*,*,#272,.F.);
#343=ORIENTED_EDGE('',*,*,#273,.T.);
#344=ORIENTED_EDGE('',*,*,#274,.F.);
#345=ORIENTED_EDGE('',*,*,#273,.F.);
#346=ORIENTED_EDGE('',*,*,#275,.F.);
#347=ORIENTED_EDGE('',*,*,#276,.T.);
#348=ORIENTED_EDGE('',*,*,#277,.F.);
#349=ORIENTED_EDGE('',*,*,#276,.F.);
#350=ORIENTED_EDGE('',*,*,#278,.F.);
#351=ORIENTED_EDGE('',*,*,#279,.T.);
#352=ORIENTED_EDGE('',*,*,#280,.F.);
#353=ORIENTED_EDGE('',*,*,#279,.F.);
#354=ORIENTED_EDGE('',*,*,#281,.F.);
#355=ORIENTED_EDGE('',*,*,#282,.T.);
#356=ORIENTED_EDGE('',*,*,#283,.F.);
#357=ORIENTED_EDGE('',*,*,#282,.F.);
#358=ORIENTED_EDGE('',*,*,#284,.F.);
#359=ORIENTED_EDGE('',*,*,#285,.T.);
#360=ORIENTED_EDGE('',*,*,#286,.F.);
#361=ORIENTED_EDGE('',*,*,#287,.F.);
#362=ORIENTED_EDGE('',*,*,#288,.F.);
#363=ORIENTED_EDGE('',*,*,#285,.F.);
#364=ORIENTED_EDGE('',*,*,#284,.T.);
#365=ORIENTED_EDGE('',*,*,#257,.T.);
#366=ORIENTED_EDGE('',*,*,#287,.T.);
#367=ORIENTED_EDGE('',*,*,#289,.F.);
#368=ORIENTED_EDGE('',*,*,#290,.T.);
#369=ORIENTED_EDGE('',*,*,#286,.T.);
#370=ORIENTED_EDGE('',*,*,#288,.T.);
#371=ORIENTED_EDGE('',*,*,#291,.T.);
#372=ORIENTED_EDGE('',*,*,#292,.T.);
#373=ORIENTED_EDGE('',*,*,#293,.T.);
#374=ORIENTED_EDGE('',*,*,#294,.F.);
#375=ORIENTED_EDGE('',*,*,#295,.T.);
#376=ORIENTED_EDGE('',*,*,#296,.F.);
#377=ORIENTED_EDGE('',*,*,#297,.T.);
#378=ORIENTED_EDGE('',*,*,#298,.F.);
#379=ORIENTED_EDGE('',*,*,#269,.T.);
#380=ORIENTED_EDGE('',*,*,#272,.T.);
#381=ORIENTED_EDGE('',*,*,#275,.T.);
#382=ORIENTED_EDGE('',*,*,#278,.T.);
#383=ORIENTED_EDGE('',*,*,#281,.T.);
#384=ORIENTED_EDGE('',*,*,#299,.F.);
#385=ORIENTED_EDGE('',*,*,#300,.T.);
#386=ORIENTED_EDGE('',*,*,#292,.F.);
#387=ORIENTED_EDGE('',*,*,#301,.F.);
#388=ORIENTED_EDGE('',*,*,#293,.F.);
#389=ORIENTED_EDGE('',*,*,#300,.F.);
#390=ORIENTED_EDGE('',*,*,#299,.T.);
#391=ORIENTED_EDGE('',*,*,#260,.T.);
#392=ORIENTED_EDGE('',*,*,#301,.T.);
#393=ORIENTED_EDGE('',*,*,#302,.T.);
#394=ORIENTED_EDGE('',*,*,#303,.F.);
#395=ORIENTED_EDGE('',*,*,#304,.F.);
#396=ORIENTED_EDGE('',*,*,#305,.T.);
#397=ORIENTED_EDGE('',*,*,#306,.F.);
#398=ORIENTED_EDGE('',*,*,#297,.F.);
#399=ORIENTED_EDGE('',*,*,#305,.F.);
#400=ORIENTED_EDGE('',*,*,#304,.T.);
#401=ORIENTED_EDGE('',*,*,#263,.T.);
#402=ORIENTED_EDGE('',*,*,#306,.T.);
#403=ORIENTED_EDGE('',*,*,#307,.F.);
#404=ORIENTED_EDGE('',*,*,#308,.F.);
#405=ORIENTED_EDGE('',*,*,#309,.F.);
#406=ORIENTED_EDGE('',*,*,#310,.T.);
#407=ORIENTED_EDGE('',*,*,#295,.F.);
#408=ORIENTED_EDGE('',*,*,#311,.F.);
#409=ORIENTED_EDGE('',*,*,#310,.F.);
#410=ORIENTED_EDGE('',*,*,#309,.T.);
#411=ORIENTED_EDGE('',*,*,#266,.T.);
#412=ORIENTED_EDGE('',*,*,#311,.T.);
#413=ORIENTED_EDGE('',*,*,#312,.F.);
#414=ORIENTED_EDGE('',*,*,#313,.F.);
#415=ORIENTED_EDGE('',*,*,#314,.T.);
#416=ORIENTED_EDGE('',*,*,#289,.T.);
#417=ORIENTED_EDGE('',*,*,#298,.T.);
#418=ORIENTED_EDGE('',*,*,#308,.T.);
#419=ORIENTED_EDGE('',*,*,#315,.T.);
#420=ORIENTED_EDGE('',*,*,#316,.T.);
#421=ORIENTED_EDGE('',*,*,#317,.T.);
#422=ORIENTED_EDGE('',*,*,#318,.T.);
#423=ORIENTED_EDGE('',*,*,#319,.T.);
#424=ORIENTED_EDGE('',*,*,#312,.T.);
#425=ORIENTED_EDGE('',*,*,#294,.T.);
#426=ORIENTED_EDGE('',*,*,#303,.T.);
#427=ORIENTED_EDGE('',*,*,#320,.T.);
#428=ORIENTED_EDGE('',*,*,#318,.F.);
#429=ORIENTED_EDGE('',*,*,#321,.F.);
#430=ORIENTED_EDGE('',*,*,#316,.F.);
#431=ORIENTED_EDGE('',*,*,#262,.T.);
#432=ORIENTED_EDGE('',*,*,#265,.T.);
#433=ORIENTED_EDGE('',*,*,#268,.T.);
#434=ORIENTED_EDGE('',*,*,#271,.T.);
#435=ORIENTED_EDGE('',*,*,#274,.T.);
#436=ORIENTED_EDGE('',*,*,#277,.T.);
#437=ORIENTED_EDGE('',*,*,#280,.T.);
#438=ORIENTED_EDGE('',*,*,#283,.T.);
#439=ORIENTED_EDGE('',*,*,#259,.T.);
#440=ORIENTED_EDGE('',*,*,#307,.T.);
#441=ORIENTED_EDGE('',*,*,#296,.T.);
#442=ORIENTED_EDGE('',*,*,#313,.T.);
#443=ORIENTED_EDGE('',*,*,#319,.F.);
#444=ORIENTED_EDGE('',*,*,#320,.F.);
#445=ORIENTED_EDGE('',*,*,#315,.F.);
#446=ORIENTED_EDGE('',*,*,#321,.T.);
#447=ORIENTED_EDGE('',*,*,#317,.F.);
#448=ORIENTED_EDGE('',*,*,#302,.F.);
#449=ORIENTED_EDGE('',*,*,#291,.F.);
#450=ORIENTED_EDGE('',*,*,#290,.F.);
#451=ORIENTED_EDGE('',*,*,#314,.F.);
#452=CYLINDRICAL_SURFACE('',#506,1.7);
#453=CYLINDRICAL_SURFACE('',#509,1.7);
#454=CYLINDRICAL_SURFACE('',#512,1.7);
#455=CYLINDRICAL_SURFACE('',#515,1.7);
#456=CYLINDRICAL_SURFACE('',#518,1.7);
#457=CYLINDRICAL_SURFACE('',#521,1.7);
#458=CYLINDRICAL_SURFACE('',#524,1.7);
#459=CYLINDRICAL_SURFACE('',#527,1.7);
#460=CYLINDRICAL_SURFACE('',#530,11.2);
#461=CYLINDRICAL_SURFACE('',#533,5.);
#462=CYLINDRICAL_SURFACE('',#545,5.);
#463=CYLINDRICAL_SURFACE('',#550,5.);
#464=CYLINDRICAL_SURFACE('',#555,5.);
#465=ADVANCED_FACE('',(#47),#452,.F.);
#466=ADVANCED_FACE('',(#48),#453,.F.);
#467=ADVANCED_FACE('',(#49),#454,.F.);
#468=ADVANCED_FACE('',(#50),#455,.F.);
#469=ADVANCED_FACE('',(#51),#456,.F.);
#470=ADVANCED_FACE('',(#52),#457,.F.);
#471=ADVANCED_FACE('',(#53),#458,.F.);
#472=ADVANCED_FACE('',(#54),#459,.F.);
#473=ADVANCED_FACE('',(#55),#460,.F.);
#474=ADVANCED_FACE('',(#56),#461,.T.);
#475=ADVANCED_FACE('',(#57,#15),#33,.T.);
#476=ADVANCED_FACE('',(#58),#34,.F.);
#477=ADVANCED_FACE('',(#59,#16,#17,#18,#19,#20),#35,.F.);
#478=ADVANCED_FACE('',(#60),#462,.T.);
#479=ADVANCED_FACE('',(#61,#21),#36,.T.);
#480=ADVANCED_FACE('',(#62),#37,.F.);
#481=ADVANCED_FACE('',(#63),#463,.T.);
#482=ADVANCED_FACE('',(#64,#22),#38,.T.);
#483=ADVANCED_FACE('',(#65),#39,.F.);
#484=ADVANCED_FACE('',(#66),#464,.T.);
#485=ADVANCED_FACE('',(#67,#23),#40,.T.);
#486=ADVANCED_FACE('',(#68),#41,.F.);
#487=ADVANCED_FACE('',(#69),#42,.T.);
#488=ADVANCED_FACE('',(#70),#43,.F.);
#489=ADVANCED_FACE('',(#71,#24,#25,#26,#27,#28,#29,#30,#31,#32),#44,.F.);
#490=ADVANCED_FACE('',(#72),#45,.F.);
#491=ADVANCED_FACE('',(#73),#46,.F.);
#492=CLOSED_SHELL('',(#465,#466,#467,#468,#469,#470,#471,#472,#473,#474,
#475,#476,#477,#478,#479,#480,#481,#482,#483,#484,#485,#486,#487,#488,#489,
#490,#491));
#493=DERIVED_UNIT_ELEMENT(#495,1.);
#494=DERIVED_UNIT_ELEMENT(#856,-3.);
#495=(
MASS_UNIT()
NAMED_UNIT(*)
SI_UNIT(.KILO.,.GRAM.)
);
#496=DERIVED_UNIT((#493,#494));
#497=MEASURE_REPRESENTATION_ITEM('density measure',
POSITIVE_RATIO_MEASURE(7850.),#496);
#498=PROPERTY_DEFINITION_REPRESENTATION(#503,#500);
#499=PROPERTY_DEFINITION_REPRESENTATION(#504,#501);
#500=REPRESENTATION('material name',(#502),#853);
#501=REPRESENTATION('density',(#497),#853);
#502=DESCRIPTIVE_REPRESENTATION_ITEM('Steel','Steel');
#503=PROPERTY_DEFINITION('material property','material name',#863);
#504=PROPERTY_DEFINITION('material property','density of part',#863);
#505=AXIS2_PLACEMENT_3D('',#718,#565,#566);
#506=AXIS2_PLACEMENT_3D('',#719,#567,#568);
#507=AXIS2_PLACEMENT_3D('',#721,#569,#570);
#508=AXIS2_PLACEMENT_3D('',#724,#572,#573);
#509=AXIS2_PLACEMENT_3D('',#725,#574,#575);
#510=AXIS2_PLACEMENT_3D('',#727,#576,#577);
#511=AXIS2_PLACEMENT_3D('',#730,#579,#580);
#512=AXIS2_PLACEMENT_3D('',#731,#581,#582);
#513=AXIS2_PLACEMENT_3D('',#733,#583,#584);
#514=AXIS2_PLACEMENT_3D('',#736,#586,#587);
#515=AXIS2_PLACEMENT_3D('',#737,#588,#589);
#516=AXIS2_PLACEMENT_3D('',#739,#590,#591);
#517=AXIS2_PLACEMENT_3D('',#742,#593,#594);
#518=AXIS2_PLACEMENT_3D('',#743,#595,#596);
#519=AXIS2_PLACEMENT_3D('',#745,#597,#598);
#520=AXIS2_PLACEMENT_3D('',#748,#600,#601);
#521=AXIS2_PLACEMENT_3D('',#749,#602,#603);
#522=AXIS2_PLACEMENT_3D('',#751,#604,#605);
#523=AXIS2_PLACEMENT_3D('',#754,#607,#608);
#524=AXIS2_PLACEMENT_3D('',#755,#609,#610);
#525=AXIS2_PLACEMENT_3D('',#757,#611,#612);
#526=AXIS2_PLACEMENT_3D('',#760,#614,#615);
#527=AXIS2_PLACEMENT_3D('',#761,#616,#617);
#528=AXIS2_PLACEMENT_3D('',#763,#618,#619);
#529=AXIS2_PLACEMENT_3D('',#766,#621,#622);
#530=AXIS2_PLACEMENT_3D('',#767,#623,#624);
#531=AXIS2_PLACEMENT_3D('',#769,#625,#626);
#532=AXIS2_PLACEMENT_3D('',#772,#628,#629);
#533=AXIS2_PLACEMENT_3D('',#773,#630,#631);
#534=AXIS2_PLACEMENT_3D('',#775,#632,#633);
#535=AXIS2_PLACEMENT_3D('',#779,#635,#636);
#536=AXIS2_PLACEMENT_3D('',#781,#637,#638);
#537=AXIS2_PLACEMENT_3D('',#782,#639,#640);
#538=AXIS2_PLACEMENT_3D('',#783,#641,#642);
#539=AXIS2_PLACEMENT_3D('',#784,#643,#644);
#540=AXIS2_PLACEMENT_3D('',#788,#647,#648);
#541=AXIS2_PLACEMENT_3D('',#792,#650,#651);
#542=AXIS2_PLACEMENT_3D('',#794,#652,#653);
#543=AXIS2_PLACEMENT_3D('',#798,#655,#656);
#544=AXIS2_PLACEMENT_3D('',#802,#658,#659);
#545=AXIS2_PLACEMENT_3D('',#804,#661,#662);
#546=AXIS2_PLACEMENT_3D('',#806,#663,#664);
#547=AXIS2_PLACEMENT_3D('',#808,#666,#667);
#548=AXIS2_PLACEMENT_3D('',#809,#668,#669);
#549=AXIS2_PLACEMENT_3D('',#810,#670,#671);
#550=AXIS2_PLACEMENT_3D('',#814,#674,#675);
#551=AXIS2_PLACEMENT_3D('',#816,#676,#677);
#552=AXIS2_PLACEMENT_3D('',#818,#679,#680);
#553=AXIS2_PLACEMENT_3D('',#819,#681,#682);
#554=AXIS2_PLACEMENT_3D('',#820,#683,#684);
#555=AXIS2_PLACEMENT_3D('',#824,#687,#688);
#556=AXIS2_PLACEMENT_3D('',#826,#689,#690);
#557=AXIS2_PLACEMENT_3D('',#828,#692,#693);
#558=AXIS2_PLACEMENT_3D('',#829,#694,#695);
#559=AXIS2_PLACEMENT_3D('',#830,#696,#697);
#560=AXIS2_PLACEMENT_3D('',#834,#700,#701);
#561=AXIS2_PLACEMENT_3D('',#840,#705,#706);
#562=AXIS2_PLACEMENT_3D('',#846,#710,#711);
#563=AXIS2_PLACEMENT_3D('',#849,#714,#715);
#564=AXIS2_PLACEMENT_3D('',#850,#716,#717);
#565=DIRECTION('axis',(0.,0.,1.));
#566=DIRECTION('refdir',(1.,0.,0.));
#567=DIRECTION('center_axis',(0.,-1.,0.));
#568=DIRECTION('ref_axis',(1.,0.,0.));
#569=DIRECTION('center_axis',(0.,-1.,0.));
#570=DIRECTION('ref_axis',(1.,0.,0.));
#571=DIRECTION('',(0.,-1.,0.));
#572=DIRECTION('center_axis',(0.,1.,0.));
#573=DIRECTION('ref_axis',(1.,0.,0.));
#574=DIRECTION('center_axis',(0.,-1.,0.));
#575=DIRECTION('ref_axis',(1.,0.,0.));
#576=DIRECTION('center_axis',(0.,-1.,0.));
#577=DIRECTION('ref_axis',(1.,0.,0.));
#578=DIRECTION('',(0.,-1.,0.));
#579=DIRECTION('center_axis',(0.,1.,0.));
#580=DIRECTION('ref_axis',(1.,0.,0.));
#581=DIRECTION('center_axis',(0.,-1.,0.));
#582=DIRECTION('ref_axis',(1.,0.,0.));
#583=DIRECTION('center_axis',(0.,-1.,0.));
#584=DIRECTION('ref_axis',(1.,0.,0.));
#585=DIRECTION('',(0.,-1.,0.));
#586=DIRECTION('center_axis',(0.,1.,0.));
#587=DIRECTION('ref_axis',(1.,0.,0.));
#588=DIRECTION('center_axis',(0.,-1.,0.));
#589=DIRECTION('ref_axis',(1.,0.,0.));
#590=DIRECTION('center_axis',(0.,-1.,0.));
#591=DIRECTION('ref_axis',(1.,0.,0.));
#592=DIRECTION('',(0.,-1.,0.));
#593=DIRECTION('center_axis',(0.,1.,0.));
#594=DIRECTION('ref_axis',(1.,0.,0.));
#595=DIRECTION('center_axis',(0.,-1.,0.));
#596=DIRECTION('ref_axis',(1.,0.,0.));
#597=DIRECTION('center_axis',(0.,-1.,0.));
#598=DIRECTION('ref_axis',(1.,0.,0.));
#599=DIRECTION('',(0.,-1.,0.));
#600=DIRECTION('center_axis',(0.,1.,0.));
#601=DIRECTION('ref_axis',(1.,0.,0.));
#602=DIRECTION('center_axis',(0.,-1.,0.));
#603=DIRECTION('ref_axis',(1.,0.,0.));
#604=DIRECTION('center_axis',(0.,-1.,0.));
#605=DIRECTION('ref_axis',(1.,0.,0.));
#606=DIRECTION('',(0.,-1.,0.));
#607=DIRECTION('center_axis',(0.,1.,0.));
#608=DIRECTION('ref_axis',(1.,0.,0.));
#609=DIRECTION('center_axis',(0.,-1.,0.));
#610=DIRECTION('ref_axis',(1.,0.,0.));
#611=DIRECTION('center_axis',(0.,-1.,0.));
#612=DIRECTION('ref_axis',(1.,0.,0.));
#613=DIRECTION('',(0.,-1.,0.));
#614=DIRECTION('center_axis',(0.,1.,0.));
#615=DIRECTION('ref_axis',(1.,0.,0.));
#616=DIRECTION('center_axis',(0.,-1.,0.));
#617=DIRECTION('ref_axis',(1.,0.,0.));
#618=DIRECTION('center_axis',(0.,-1.,0.));
#619=DIRECTION('ref_axis',(1.,0.,0.));
#620=DIRECTION('',(0.,-1.,0.));
#621=DIRECTION('center_axis',(0.,1.,0.));
#622=DIRECTION('ref_axis',(1.,0.,0.));
#623=DIRECTION('center_axis',(0.,-1.,0.));
#624=DIRECTION('ref_axis',(1.,0.,0.));
#625=DIRECTION('center_axis',(0.,-1.,0.));
#626=DIRECTION('ref_axis',(1.,0.,0.));
#627=DIRECTION('',(0.,-1.,0.));
#628=DIRECTION('center_axis',(0.,1.,0.));
#629=DIRECTION('ref_axis',(1.,0.,0.));
#630=DIRECTION('center_axis',(0.,1.,0.));
#631=DIRECTION('ref_axis',(1.,0.,0.));
#632=DIRECTION('center_axis',(0.,1.,0.));
#633=DIRECTION('ref_axis',(1.,0.,0.));
#634=DIRECTION('',(0.,-1.,0.));
#635=DIRECTION('center_axis',(0.,-1.,0.));
#636=DIRECTION('ref_axis',(1.,0.,0.));
#637=DIRECTION('center_axis',(0.,-1.,0.));
#638=DIRECTION('ref_axis',(1.,0.,0.));
#639=DIRECTION('center_axis',(0.,-1.,0.));
#640=DIRECTION('ref_axis',(1.,0.,0.));
#641=DIRECTION('center_axis',(0.,1.,0.));
#642=DIRECTION('ref_axis',(1.,0.,0.));
#643=DIRECTION('center_axis',(0.,-1.,0.));
#644=DIRECTION('ref_axis',(0.,0.,-1.));
#645=DIRECTION('',(-1.,0.,0.));
#646=DIRECTION('',(0.,0.,-1.));
#647=DIRECTION('center_axis',(0.,-1.,0.));
#648=DIRECTION('ref_axis',(0.,0.,-1.));
#649=DIRECTION('',(0.,0.,-1.));
#650=DIRECTION('center_axis',(0.,-1.,0.));
#651=DIRECTION('ref_axis',(1.,0.,0.));
#652=DIRECTION('center_axis',(0.,-1.,0.));
#653=DIRECTION('ref_axis',(1.,0.,0.));
#654=DIRECTION('',(1.,0.,0.));
#655=DIRECTION('center_axis',(0.,-1.,0.));
#656=DIRECTION('ref_axis',(1.,0.,0.));
#657=DIRECTION('',(0.,0.,-1.));
#658=DIRECTION('center_axis',(0.,-1.,0.));
#659=DIRECTION('ref_axis',(1.,0.,0.));
#660=DIRECTION('',(-1.,0.,0.));
#661=DIRECTION('center_axis',(0.,1.,0.));
#662=DIRECTION('ref_axis',(1.,0.,0.));
#663=DIRECTION('center_axis',(0.,1.,0.));
#664=DIRECTION('ref_axis',(1.,0.,0.));
#665=DIRECTION('',(0.,-1.,0.));
#666=DIRECTION('center_axis',(0.,-1.,0.));
#667=DIRECTION('ref_axis',(1.,0.,0.));
#668=DIRECTION('center_axis',(0.,1.,0.));
#669=DIRECTION('ref_axis',(1.,0.,0.));
#670=DIRECTION('center_axis',(0.,-1.,0.));
#671=DIRECTION('ref_axis',(0.,0.,-1.));
#672=DIRECTION('',(0.,0.,-1.));
#673=DIRECTION('',(1.,0.,0.));
#674=DIRECTION('center_axis',(0.,1.,0.));
#675=DIRECTION('ref_axis',(1.,0.,0.));
#676=DIRECTION('center_axis',(0.,1.,0.));
#677=DIRECTION('ref_axis',(1.,0.,0.));
#678=DIRECTION('',(0.,-1.,0.));
#679=DIRECTION('center_axis',(0.,-1.,0.));
#680=DIRECTION('ref_axis',(1.,0.,0.));
#681=DIRECTION('center_axis',(0.,1.,0.));
#682=DIRECTION('ref_axis',(1.,0.,0.));
#683=DIRECTION('center_axis',(0.,-1.,0.));
#684=DIRECTION('ref_axis',(0.,0.,-1.));
#685=DIRECTION('',(0.,0.,-1.));
#686=DIRECTION('',(-1.,0.,0.));
#687=DIRECTION('center_axis',(0.,1.,0.));
#688=DIRECTION('ref_axis',(1.,0.,0.));
#689=DIRECTION('center_axis',(0.,1.,0.));
#690=DIRECTION('ref_axis',(1.,0.,0.));
#691=DIRECTION('',(0.,-1.,0.));
#692=DIRECTION('center_axis',(0.,-1.,0.));
#693=DIRECTION('ref_axis',(1.,0.,0.));
#694=DIRECTION('center_axis',(0.,1.,0.));
#695=DIRECTION('ref_axis',(1.,0.,0.));
#696=DIRECTION('center_axis',(0.,-1.,0.));
#697=DIRECTION('ref_axis',(0.,0.,-1.));
#698=DIRECTION('',(1.,0.,0.));
#699=DIRECTION('',(0.,0.,-1.));
#700=DIRECTION('center_axis',(0.,0.,1.));
#701=DIRECTION('ref_axis',(1.,0.,0.));
#702=DIRECTION('',(0.,1.,0.));
#703=DIRECTION('',(0.,-1.,0.));
#704=DIRECTION('',(1.,0.,0.));
#705=DIRECTION('center_axis',(0.,0.,1.));
#706=DIRECTION('ref_axis',(1.,0.,0.));
#707=DIRECTION('',(0.,-1.,0.));
#708=DIRECTION('',(-1.,0.,0.));
#709=DIRECTION('',(0.,1.,0.));
#710=DIRECTION('center_axis',(0.,1.,0.));
#711=DIRECTION('ref_axis',(0.,0.,1.));
#712=DIRECTION('',(0.,0.,-1.));
#713=DIRECTION('',(0.,0.,-1.));
#714=DIRECTION('center_axis',(1.,0.,0.));
#715=DIRECTION('ref_axis',(0.,0.,-1.));
#716=DIRECTION('center_axis',(-1.,0.,0.));
#717=DIRECTION('ref_axis',(0.,0.,1.));
#718=CARTESIAN_POINT('',(0.,0.,0.));
#719=CARTESIAN_POINT('Origin',(465.3,-74.,265.));
#720=CARTESIAN_POINT('',(463.6,-68.,265.));
#721=CARTESIAN_POINT('Origin',(465.3,-68.,265.));
#722=CARTESIAN_POINT('',(463.6,-76.,265.));
#723=CARTESIAN_POINT('',(463.6,-74.,265.));
#724=CARTESIAN_POINT('Origin',(465.3,-76.,265.));
#725=CARTESIAN_POINT('Origin',(465.3,-74.,215.));
#726=CARTESIAN_POINT('',(463.6,-68.,215.));
#727=CARTESIAN_POINT('Origin',(465.3,-68.,215.));
#728=CARTESIAN_POINT('',(463.6,-76.,215.));
#729=CARTESIAN_POINT('',(463.6,-74.,215.));
#730=CARTESIAN_POINT('Origin',(465.3,-76.,215.));
#731=CARTESIAN_POINT('Origin',(415.3,-74.,265.));
#732=CARTESIAN_POINT('',(413.6,-68.,265.));
#733=CARTESIAN_POINT('Origin',(415.3,-68.,265.));
#734=CARTESIAN_POINT('',(413.6,-76.,265.));
#735=CARTESIAN_POINT('',(413.6,-74.,265.));
#736=CARTESIAN_POINT('Origin',(415.3,-76.,265.));
#737=CARTESIAN_POINT('Origin',(415.3,-74.,215.));
#738=CARTESIAN_POINT('',(413.6,-68.,215.));
#739=CARTESIAN_POINT('Origin',(415.3,-68.,215.));
#740=CARTESIAN_POINT('',(413.6,-76.,215.));
#741=CARTESIAN_POINT('',(413.6,-74.,215.));
#742=CARTESIAN_POINT('Origin',(415.3,-76.,215.));
#743=CARTESIAN_POINT('Origin',(455.8,-73.,255.5));
#744=CARTESIAN_POINT('',(454.1,-72.,255.5));
#745=CARTESIAN_POINT('Origin',(455.8,-72.,255.5));
#746=CARTESIAN_POINT('',(454.1,-76.,255.5));
#747=CARTESIAN_POINT('',(454.1,-73.,255.5));
#748=CARTESIAN_POINT('Origin',(455.8,-76.,255.5));
#749=CARTESIAN_POINT('Origin',(455.8,-73.,224.5));
#750=CARTESIAN_POINT('',(454.1,-72.,224.5));
#751=CARTESIAN_POINT('Origin',(455.8,-72.,224.5));
#752=CARTESIAN_POINT('',(454.1,-76.,224.5));
#753=CARTESIAN_POINT('',(454.1,-73.,224.5));
#754=CARTESIAN_POINT('Origin',(455.8,-76.,224.5));
#755=CARTESIAN_POINT('Origin',(424.8,-73.,255.5));
#756=CARTESIAN_POINT('',(423.1,-72.,255.5));
#757=CARTESIAN_POINT('Origin',(424.8,-72.,255.5));
#758=CARTESIAN_POINT('',(423.1,-76.,255.5));
#759=CARTESIAN_POINT('',(423.1,-73.,255.5));
#760=CARTESIAN_POINT('Origin',(424.8,-76.,255.5));
#761=CARTESIAN_POINT('Origin',(424.8,-73.,224.5));
#762=CARTESIAN_POINT('',(423.1,-72.,224.5));
#763=CARTESIAN_POINT('Origin',(424.8,-72.,224.5));
#764=CARTESIAN_POINT('',(423.1,-76.,224.5));
#765=CARTESIAN_POINT('',(423.1,-73.,224.5));
#766=CARTESIAN_POINT('Origin',(424.8,-76.,224.5));
#767=CARTESIAN_POINT('Origin',(440.3,-73.,240.));
#768=CARTESIAN_POINT('',(429.1,-72.,240.));
#769=CARTESIAN_POINT('Origin',(440.3,-72.,240.));
#770=CARTESIAN_POINT('',(429.1,-76.,240.));
#771=CARTESIAN_POINT('',(429.1,-73.,240.));
#772=CARTESIAN_POINT('Origin',(440.3,-76.,240.));
#773=CARTESIAN_POINT('Origin',(465.3,-70.,265.));
#774=CARTESIAN_POINT('',(460.3,-68.,265.));
#775=CARTESIAN_POINT('Origin',(465.3,-68.,265.));
#776=CARTESIAN_POINT('',(460.3,-72.,265.));
#777=CARTESIAN_POINT('',(460.3,-70.,265.));
#778=CARTESIAN_POINT('',(465.3,-72.,270.));
#779=CARTESIAN_POINT('Origin',(465.3,-72.,265.));
#780=CARTESIAN_POINT('',(470.3,-72.,265.));
#781=CARTESIAN_POINT('Origin',(465.3,-72.,265.));
#782=CARTESIAN_POINT('Origin',(465.3,-72.,265.));
#783=CARTESIAN_POINT('Origin',(465.3,-68.,265.));
#784=CARTESIAN_POINT('Origin',(440.3,-72.,240.));
#785=CARTESIAN_POINT('',(470.3,-72.,270.));
#786=CARTESIAN_POINT('',(440.3,-72.,270.));
#787=CARTESIAN_POINT('',(470.3,-72.,240.));
#788=CARTESIAN_POINT('Origin',(440.3,-72.,240.));
#789=CARTESIAN_POINT('',(470.3,-72.,215.));
#790=CARTESIAN_POINT('',(470.3,-72.,240.));
#791=CARTESIAN_POINT('',(460.3,-72.,215.));
#792=CARTESIAN_POINT('Origin',(465.3,-72.,215.));
#793=CARTESIAN_POINT('',(465.3,-72.,210.));
#794=CARTESIAN_POINT('Origin',(465.3,-72.,215.));
#795=CARTESIAN_POINT('',(415.3,-72.,210.));
#796=CARTESIAN_POINT('',(440.3,-72.,210.));
#797=CARTESIAN_POINT('',(410.3,-72.,215.));
#798=CARTESIAN_POINT('Origin',(415.3,-72.,215.));
#799=CARTESIAN_POINT('',(410.3,-72.,265.));
#800=CARTESIAN_POINT('',(410.3,-72.,240.));
#801=CARTESIAN_POINT('',(415.3,-72.,270.));
#802=CARTESIAN_POINT('Origin',(415.3,-72.,265.));
#803=CARTESIAN_POINT('',(440.3,-72.,270.));
#804=CARTESIAN_POINT('Origin',(465.3,-70.,215.));
#805=CARTESIAN_POINT('',(460.3,-68.,215.));
#806=CARTESIAN_POINT('Origin',(465.3,-68.,215.));
#807=CARTESIAN_POINT('',(460.3,-70.,215.));
#808=CARTESIAN_POINT('Origin',(465.3,-72.,215.));
#809=CARTESIAN_POINT('Origin',(465.3,-68.,215.));
#810=CARTESIAN_POINT('Origin',(440.3,-72.,240.));
#811=CARTESIAN_POINT('',(470.3,-72.,210.));
#812=CARTESIAN_POINT('',(470.3,-72.,240.));
#813=CARTESIAN_POINT('',(440.3,-72.,210.));
#814=CARTESIAN_POINT('Origin',(415.3,-70.,265.));
#815=CARTESIAN_POINT('',(410.3,-68.,265.));
#816=CARTESIAN_POINT('Origin',(415.3,-68.,265.));
#817=CARTESIAN_POINT('',(410.3,-70.,265.));
#818=CARTESIAN_POINT('Origin',(415.3,-72.,265.));
#819=CARTESIAN_POINT('Origin',(415.3,-68.,265.));
#820=CARTESIAN_POINT('Origin',(440.3,-72.,240.));
#821=CARTESIAN_POINT('',(410.3,-72.,270.));
#822=CARTESIAN_POINT('',(410.3,-72.,240.));
#823=CARTESIAN_POINT('',(440.3,-72.,270.));
#824=CARTESIAN_POINT('Origin',(415.3,-70.,215.));
#825=CARTESIAN_POINT('',(410.3,-68.,215.));
#826=CARTESIAN_POINT('Origin',(415.3,-68.,215.));
#827=CARTESIAN_POINT('',(410.3,-70.,215.));
#828=CARTESIAN_POINT('Origin',(415.3,-72.,215.));
#829=CARTESIAN_POINT('Origin',(415.3,-68.,215.));
#830=CARTESIAN_POINT('Origin',(440.3,-72.,240.));
#831=CARTESIAN_POINT('',(410.3,-72.,210.));
#832=CARTESIAN_POINT('',(440.3,-72.,210.));
#833=CARTESIAN_POINT('',(410.3,-72.,240.));
#834=CARTESIAN_POINT('Origin',(440.3,-74.,270.));
#835=CARTESIAN_POINT('',(470.3,-76.,270.));
#836=CARTESIAN_POINT('',(470.3,-74.,270.));
#837=CARTESIAN_POINT('',(410.3,-76.,270.));
#838=CARTESIAN_POINT('',(410.3,-74.,270.));
#839=CARTESIAN_POINT('',(440.3,-76.,270.));
#840=CARTESIAN_POINT('Origin',(440.3,-74.,210.));
#841=CARTESIAN_POINT('',(470.3,-76.,210.));
#842=CARTESIAN_POINT('',(470.3,-74.,210.));
#843=CARTESIAN_POINT('',(410.3,-76.,210.));
#844=CARTESIAN_POINT('',(440.3,-76.,210.));
#845=CARTESIAN_POINT('',(410.3,-74.,210.));
#846=CARTESIAN_POINT('Origin',(440.3,-76.,240.));
#847=CARTESIAN_POINT('',(410.3,-76.,240.));
#848=CARTESIAN_POINT('',(470.3,-76.,240.));
#849=CARTESIAN_POINT('Origin',(410.3,-74.,240.));
#850=CARTESIAN_POINT('Origin',(470.3,-74.,240.));
#851=UNCERTAINTY_MEASURE_WITH_UNIT(LENGTH_MEASURE(0.01),#855,
'DISTANCE_ACCURACY_VALUE',
'Maximum model space distance between geometric entities at asserted c
onnectivities');
#852=UNCERTAINTY_MEASURE_WITH_UNIT(LENGTH_MEASURE(0.01),#855,
'DISTANCE_ACCURACY_VALUE',
'Maximum model space distance between geometric entities at asserted c
onnectivities');
#853=(
GEOMETRIC_REPRESENTATION_CONTEXT(3)
GLOBAL_UNCERTAINTY_ASSIGNED_CONTEXT((#851))
GLOBAL_UNIT_ASSIGNED_CONTEXT((#855,#857,#858))
REPRESENTATION_CONTEXT('','3D')
);
#854=(
GEOMETRIC_REPRESENTATION_CONTEXT(3)
GLOBAL_UNCERTAINTY_ASSIGNED_CONTEXT((#852))
GLOBAL_UNIT_ASSIGNED_CONTEXT((#855,#857,#858))
REPRESENTATION_CONTEXT('','3D')
);
#855=(
LENGTH_UNIT()
NAMED_UNIT(*)
SI_UNIT(.MILLI.,.METRE.)
);
#856=(
LENGTH_UNIT()
NAMED_UNIT(*)
SI_UNIT($,.METRE.)
);
#857=(
NAMED_UNIT(*)
PLANE_ANGLE_UNIT()
SI_UNIT($,.RADIAN.)
);
#858=(
NAMED_UNIT(*)
SI_UNIT($,.STERADIAN.)
SOLID_ANGLE_UNIT()
);
#859=SHAPE_DEFINITION_REPRESENTATION(#860,#861);
#860=PRODUCT_DEFINITION_SHAPE('',$,#863);
#861=SHAPE_REPRESENTATION('',(#505),#853);
#862=PRODUCT_DEFINITION_CONTEXT('part definition',#867,'design');
#863=PRODUCT_DEFINITION('2026-08-12-23-09-29-415',
'EXPORT_TMP_PRINT_V009A_P410_NEMA17_LoadMount_A_Cove',#864,#862);
#864=PRODUCT_DEFINITION_FORMATION('',$,#869);
#865=PRODUCT_RELATED_PRODUCT_CATEGORY(
'EXPORT_TMP_PRINT_V009A_P410_NEMA17_LoadMount_A_Cove',
'EXPORT_TMP_PRINT_V009A_P410_NEMA17_LoadMount_A_Cove',(#869));
#866=APPLICATION_PROTOCOL_DEFINITION('international standard',
'automotive_design',2009,#867);
#867=APPLICATION_CONTEXT(
'Core Data for Automotive Mechanical Design Process');
#868=PRODUCT_CONTEXT('part definition',#867,'mechanical');
#869=PRODUCT('2026-08-12-23-09-29-415',
'EXPORT_TMP_PRINT_V009A_P410_NEMA17_LoadMount_A_Cove',$,(#868));
#870=PRESENTATION_STYLE_ASSIGNMENT((#871));
#871=SURFACE_STYLE_USAGE(.BOTH.,#872);
#872=SURFACE_SIDE_STYLE('',(#873));
#873=SURFACE_STYLE_FILL_AREA(#874);
#874=FILL_AREA_STYLE('Steel - Satin',(#875));
#875=FILL_AREA_STYLE_COLOUR('Steel - Satin',#876);
#876=COLOUR_RGB('Steel - Satin',0.627450980392157,0.627450980392157,0.627450980392157);
ENDSEC;
END-ISO-10303-21;
