ISO-10303-21;
HEADER;
/* Generated by software containing ST-Developer
 * from STEP Tools, Inc. (www.steptools.com) 
 */

FILE_DESCRIPTION(
/* description */ (''),
/* implementation_level */ '2;1');

FILE_NAME(
/* name */ 'PRINT_V015_P401A_J4_OutputFlangeWithTabs.step',
/* time_stamp */ '2026-09-30T14:03:41+02:00',
/* author */ (''),
/* organization */ (''),
/* preprocessor_version */ 'ST-DEVELOPER v20.2',
/* originating_system */ 'Autodesk Translation Framework v15.15.0.0',
/* authorisation */ '');

FILE_SCHEMA (('AUTOMOTIVE_DESIGN { 1 0 10303 214 3 1 1 }'));
ENDSEC;

DATA;
#10=MECHANICAL_DESIGN_GEOMETRIC_PRESENTATION_REPRESENTATION('',(#13),#1641);
#11=SHAPE_REPRESENTATION_RELATIONSHIP('SRR','None',#1648,#12);
#12=ADVANCED_BREP_SHAPE_REPRESENTATION('',(#14),#1640);
#13=STYLED_ITEM('',(#1657),#14);
#14=MANIFOLD_SOLID_BREP('PRINT_V015_P401A_J4_OutputFlangeWithTabs',#949);
#15=ELLIPSE('',#1002,50.273051077927,50.);
#16=ELLIPSE('',#1003,480.386932520267,50.);
#17=ELLIPSE('',#1005,480.386932520267,50.);
#18=ELLIPSE('',#1006,50.273051077927,50.);
#19=ELLIPSE('',#1008,50.273051077927,50.);
#20=ELLIPSE('',#1009,480.386932520267,50.);
#21=ELLIPSE('',#1011,480.386932520267,50.);
#22=ELLIPSE('',#1012,50.273051077927,50.);
#23=FACE_BOUND('',#147,.T.);
#24=FACE_BOUND('',#148,.T.);
#25=FACE_BOUND('',#159,.T.);
#26=FACE_BOUND('',#160,.T.);
#27=FACE_BOUND('',#167,.T.);
#28=FACE_BOUND('',#169,.T.);
#29=FACE_BOUND('',#171,.T.);
#30=FACE_BOUND('',#173,.T.);
#31=FACE_BOUND('',#175,.T.);
#32=FACE_BOUND('',#176,.T.);
#33=FACE_BOUND('',#177,.T.);
#34=FACE_BOUND('',#178,.T.);
#35=FACE_BOUND('',#179,.T.);
#36=FACE_BOUND('',#191,.T.);
#37=FACE_BOUND('',#192,.T.);
#38=FACE_BOUND('',#193,.T.);
#39=FACE_BOUND('',#194,.T.);
#40=FACE_BOUND('',#195,.T.);
#41=FACE_BOUND('',#202,.T.);
#42=FACE_BOUND('',#203,.T.);
#43=FACE_BOUND('',#204,.T.);
#44=FACE_BOUND('',#205,.T.);
#45=FACE_BOUND('',#206,.T.);
#46=FACE_BOUND('',#207,.T.);
#47=FACE_BOUND('',#208,.T.);
#48=FACE_BOUND('',#220,.T.);
#49=FACE_BOUND('',#221,.T.);
#50=FACE_BOUND('',#222,.T.);
#51=FACE_BOUND('',#223,.T.);
#52=FACE_BOUND('',#224,.T.);
#53=FACE_BOUND('',#225,.T.);
#54=FACE_BOUND('',#226,.T.);
#55=PLANE('',#966);
#56=PLANE('',#970);
#57=PLANE('',#971);
#58=PLANE('',#972);
#59=PLANE('',#980);
#60=PLANE('',#981);
#61=PLANE('',#982);
#62=PLANE('',#983);
#63=PLANE('',#990);
#64=PLANE('',#991);
#65=PLANE('',#996);
#66=PLANE('',#1000);
#67=PLANE('',#1018);
#68=PLANE('',#1019);
#69=PLANE('',#1020);
#70=PLANE('',#1021);
#71=PLANE('',#1022);
#72=PLANE('',#1028);
#73=PLANE('',#1029);
#74=PLANE('',#1030);
#75=PLANE('',#1031);
#76=PLANE('',#1032);
#77=PLANE('',#1041);
#78=PLANE('',#1042);
#79=PLANE('',#1044);
#80=PLANE('',#1047);
#81=PLANE('',#1048);
#82=PLANE('',#1049);
#83=PLANE('',#1050);
#84=PLANE('',#1058);
#85=PLANE('',#1061);
#86=PLANE('',#1076);
#87=FACE_OUTER_BOUND('',#141,.T.);
#88=FACE_OUTER_BOUND('',#142,.T.);
#89=FACE_OUTER_BOUND('',#143,.T.);
#90=FACE_OUTER_BOUND('',#144,.T.);
#91=FACE_OUTER_BOUND('',#145,.T.);
#92=FACE_OUTER_BOUND('',#146,.T.);
#93=FACE_OUTER_BOUND('',#149,.T.);
#94=FACE_OUTER_BOUND('',#150,.T.);
#95=FACE_OUTER_BOUND('',#151,.T.);
#96=FACE_OUTER_BOUND('',#152,.T.);
#97=FACE_OUTER_BOUND('',#153,.T.);
#98=FACE_OUTER_BOUND('',#154,.T.);
#99=FACE_OUTER_BOUND('',#155,.T.);
#100=FACE_OUTER_BOUND('',#156,.T.);
#101=FACE_OUTER_BOUND('',#157,.T.);
#102=FACE_OUTER_BOUND('',#158,.T.);
#103=FACE_OUTER_BOUND('',#161,.T.);
#104=FACE_OUTER_BOUND('',#162,.T.);
#105=FACE_OUTER_BOUND('',#163,.T.);
#106=FACE_OUTER_BOUND('',#164,.T.);
#107=FACE_OUTER_BOUND('',#165,.T.);
#108=FACE_OUTER_BOUND('',#166,.T.);
#109=FACE_OUTER_BOUND('',#168,.T.);
#110=FACE_OUTER_BOUND('',#170,.T.);
#111=FACE_OUTER_BOUND('',#172,.T.);
#112=FACE_OUTER_BOUND('',#174,.T.);
#113=FACE_OUTER_BOUND('',#180,.T.);
#114=FACE_OUTER_BOUND('',#181,.T.);
#115=FACE_OUTER_BOUND('',#182,.T.);
#116=FACE_OUTER_BOUND('',#183,.T.);
#117=FACE_OUTER_BOUND('',#184,.T.);
#118=FACE_OUTER_BOUND('',#185,.T.);
#119=FACE_OUTER_BOUND('',#186,.T.);
#120=FACE_OUTER_BOUND('',#187,.T.);
#121=FACE_OUTER_BOUND('',#188,.T.);
#122=FACE_OUTER_BOUND('',#189,.T.);
#123=FACE_OUTER_BOUND('',#190,.T.);
#124=FACE_OUTER_BOUND('',#196,.T.);
#125=FACE_OUTER_BOUND('',#197,.T.);
#126=FACE_OUTER_BOUND('',#198,.T.);
#127=FACE_OUTER_BOUND('',#199,.T.);
#128=FACE_OUTER_BOUND('',#200,.T.);
#129=FACE_OUTER_BOUND('',#201,.T.);
#130=FACE_OUTER_BOUND('',#209,.T.);
#131=FACE_OUTER_BOUND('',#210,.T.);
#132=FACE_OUTER_BOUND('',#211,.T.);
#133=FACE_OUTER_BOUND('',#212,.T.);
#134=FACE_OUTER_BOUND('',#213,.T.);
#135=FACE_OUTER_BOUND('',#214,.T.);
#136=FACE_OUTER_BOUND('',#215,.T.);
#137=FACE_OUTER_BOUND('',#216,.T.);
#138=FACE_OUTER_BOUND('',#217,.T.);
#139=FACE_OUTER_BOUND('',#218,.T.);
#140=FACE_OUTER_BOUND('',#219,.T.);
#141=EDGE_LOOP('',(#621,#622,#623,#624));
#142=EDGE_LOOP('',(#625));
#143=EDGE_LOOP('',(#626,#627,#628,#629));
#144=EDGE_LOOP('',(#630));
#145=EDGE_LOOP('',(#631,#632,#633,#634));
#146=EDGE_LOOP('',(#635,#636,#637,#638));
#147=EDGE_LOOP('',(#639));
#148=EDGE_LOOP('',(#640));
#149=EDGE_LOOP('',(#641,#642,#643,#644));
#150=EDGE_LOOP('',(#645,#646,#647,#648));
#151=EDGE_LOOP('',(#649,#650,#651,#652));
#152=EDGE_LOOP('',(#653,#654,#655,#656));
#153=EDGE_LOOP('',(#657,#658,#659,#660));
#154=EDGE_LOOP('',(#661,#662,#663,#664));
#155=EDGE_LOOP('',(#665,#666,#667,#668));
#156=EDGE_LOOP('',(#669,#670,#671,#672));
#157=EDGE_LOOP('',(#673,#674,#675,#676));
#158=EDGE_LOOP('',(#677,#678,#679,#680));
#159=EDGE_LOOP('',(#681));
#160=EDGE_LOOP('',(#682));
#161=EDGE_LOOP('',(#683,#684,#685,#686));
#162=EDGE_LOOP('',(#687));
#163=EDGE_LOOP('',(#688,#689,#690,#691));
#164=EDGE_LOOP('',(#692));
#165=EDGE_LOOP('',(#693,#694,#695,#696,#697,#698,#699,#700,#701,#702,#703,
#704,#705,#706,#707,#708,#709,#710,#711,#712,#713,#714,#715,#716,#717,#718,
#719,#720));
#166=EDGE_LOOP('',(#721));
#167=EDGE_LOOP('',(#722));
#168=EDGE_LOOP('',(#723));
#169=EDGE_LOOP('',(#724));
#170=EDGE_LOOP('',(#725));
#171=EDGE_LOOP('',(#726));
#172=EDGE_LOOP('',(#727));
#173=EDGE_LOOP('',(#728));
#174=EDGE_LOOP('',(#729,#730,#731,#732,#733,#734,#735,#736,#737));
#175=EDGE_LOOP('',(#738));
#176=EDGE_LOOP('',(#739));
#177=EDGE_LOOP('',(#740));
#178=EDGE_LOOP('',(#741));
#179=EDGE_LOOP('',(#742));
#180=EDGE_LOOP('',(#743,#744,#745,#746));
#181=EDGE_LOOP('',(#747,#748,#749,#750));
#182=EDGE_LOOP('',(#751,#752,#753,#754));
#183=EDGE_LOOP('',(#755,#756,#757,#758));
#184=EDGE_LOOP('',(#759,#760,#761,#762));
#185=EDGE_LOOP('',(#763,#764,#765,#766));
#186=EDGE_LOOP('',(#767,#768,#769,#770));
#187=EDGE_LOOP('',(#771,#772,#773,#774));
#188=EDGE_LOOP('',(#775,#776,#777,#778));
#189=EDGE_LOOP('',(#779,#780,#781,#782));
#190=EDGE_LOOP('',(#783,#784,#785,#786,#787,#788,#789,#790,#791,#792,#793,
#794,#795));
#191=EDGE_LOOP('',(#796));
#192=EDGE_LOOP('',(#797));
#193=EDGE_LOOP('',(#798));
#194=EDGE_LOOP('',(#799));
#195=EDGE_LOOP('',(#800));
#196=EDGE_LOOP('',(#801,#802,#803,#804));
#197=EDGE_LOOP('',(#805,#806,#807,#808));
#198=EDGE_LOOP('',(#809,#810,#811));
#199=EDGE_LOOP('',(#812,#813,#814));
#200=EDGE_LOOP('',(#815,#816,#817,#818));
#201=EDGE_LOOP('',(#819));
#202=EDGE_LOOP('',(#820));
#203=EDGE_LOOP('',(#821));
#204=EDGE_LOOP('',(#822));
#205=EDGE_LOOP('',(#823));
#206=EDGE_LOOP('',(#824));
#207=EDGE_LOOP('',(#825));
#208=EDGE_LOOP('',(#826));
#209=EDGE_LOOP('',(#827,#828,#829));
#210=EDGE_LOOP('',(#830,#831,#832,#833));
#211=EDGE_LOOP('',(#834,#835,#836));
#212=EDGE_LOOP('',(#837,#838,#839,#840));
#213=EDGE_LOOP('',(#841,#842,#843,#844));
#214=EDGE_LOOP('',(#845,#846,#847,#848));
#215=EDGE_LOOP('',(#849,#850,#851,#852));
#216=EDGE_LOOP('',(#853,#854,#855,#856));
#217=EDGE_LOOP('',(#857,#858,#859,#860));
#218=EDGE_LOOP('',(#861,#862,#863,#864));
#219=EDGE_LOOP('',(#865));
#220=EDGE_LOOP('',(#866));
#221=EDGE_LOOP('',(#867));
#222=EDGE_LOOP('',(#868));
#223=EDGE_LOOP('',(#869));
#224=EDGE_LOOP('',(#870));
#225=EDGE_LOOP('',(#871));
#226=EDGE_LOOP('',(#872));
#227=LINE('',#1378,#293);
#228=LINE('',#1385,#294);
#229=LINE('',#1391,#295);
#230=LINE('',#1393,#296);
#231=LINE('',#1395,#297);
#232=LINE('',#1396,#298);
#233=LINE('',#1401,#299);
#234=LINE('',#1402,#300);
#235=LINE('',#1409,#301);
#236=LINE('',#1413,#302);
#237=LINE('',#1417,#303);
#238=LINE('',#1418,#304);
#239=LINE('',#1421,#305);
#240=LINE('',#1422,#306);
#241=LINE('',#1426,#307);
#242=LINE('',#1428,#308);
#243=LINE('',#1430,#309);
#244=LINE('',#1431,#310);
#245=LINE('',#1434,#311);
#246=LINE('',#1436,#312);
#247=LINE('',#1437,#313);
#248=LINE('',#1442,#314);
#249=LINE('',#1448,#315);
#250=LINE('',#1452,#316);
#251=LINE('',#1454,#317);
#252=LINE('',#1455,#318);
#253=LINE('',#1462,#319);
#254=LINE('',#1469,#320);
#255=LINE('',#1475,#321);
#256=LINE('',#1487,#322);
#257=LINE('',#1491,#323);
#258=LINE('',#1503,#324);
#259=LINE('',#1507,#325);
#260=LINE('',#1529,#326);
#261=LINE('',#1531,#327);
#262=LINE('',#1532,#328);
#263=LINE('',#1535,#329);
#264=LINE('',#1537,#330);
#265=LINE('',#1538,#331);
#266=LINE('',#1541,#332);
#267=LINE('',#1543,#333);
#268=LINE('',#1544,#334);
#269=LINE('',#1546,#335);
#270=LINE('',#1547,#336);
#271=LINE('',#1549,#337);
#272=LINE('',#1550,#338);
#273=LINE('',#1553,#339);
#274=LINE('',#1557,#340);
#275=LINE('',#1561,#341);
#276=LINE('',#1565,#342);
#277=LINE('',#1568,#343);
#278=LINE('',#1569,#344);
#279=LINE('',#1572,#345);
#280=LINE('',#1573,#346);
#281=LINE('',#1578,#347);
#282=LINE('',#1579,#348);
#283=LINE('',#1583,#349);
#284=LINE('',#1587,#350);
#285=LINE('',#1606,#351);
#286=LINE('',#1612,#352);
#287=LINE('',#1616,#353);
#288=LINE('',#1620,#354);
#289=LINE('',#1624,#355);
#290=LINE('',#1628,#356);
#291=LINE('',#1632,#357);
#292=LINE('',#1636,#358);
#293=VECTOR('',#1083,1.8);
#294=VECTOR('',#1092,1.8);
#295=VECTOR('',#1099,10.);
#296=VECTOR('',#1100,10.);
#297=VECTOR('',#1101,10.);
#298=VECTOR('',#1102,10.);
#299=VECTOR('',#1107,10.);
#300=VECTOR('',#1108,10.);
#301=VECTOR('',#1115,2.15);
#302=VECTOR('',#1120,2.15);
#303=VECTOR('',#1125,10.);
#304=VECTOR('',#1126,10.);
#305=VECTOR('',#1129,10.);
#306=VECTOR('',#1130,10.);
#307=VECTOR('',#1133,10.);
#308=VECTOR('',#1134,10.);
#309=VECTOR('',#1135,10.);
#310=VECTOR('',#1136,10.);
#311=VECTOR('',#1139,10.);
#312=VECTOR('',#1140,10.);
#313=VECTOR('',#1141,10.);
#314=VECTOR('',#1146,2.15);
#315=VECTOR('',#1153,2.15);
#316=VECTOR('',#1158,10.);
#317=VECTOR('',#1159,10.);
#318=VECTOR('',#1160,10.);
#319=VECTOR('',#1169,1.8);
#320=VECTOR('',#1178,1.8);
#321=VECTOR('',#1185,10.);
#322=VECTOR('',#1196,10.);
#323=VECTOR('',#1199,10.);
#324=VECTOR('',#1210,10.);
#325=VECTOR('',#1213,50.);
#326=VECTOR('',#1244,10.);
#327=VECTOR('',#1245,1.00000000000023);
#328=VECTOR('',#1246,1.);
#329=VECTOR('',#1249,10.);
#330=VECTOR('',#1250,1.00000000000023);
#331=VECTOR('',#1251,1.);
#332=VECTOR('',#1254,10.);
#333=VECTOR('',#1255,1.00000000000023);
#334=VECTOR('',#1256,1.00000000000023);
#335=VECTOR('',#1259,10.);
#336=VECTOR('',#1260,1.00000000000023);
#337=VECTOR('',#1263,10.);
#338=VECTOR('',#1264,1.00000000000023);
#339=VECTOR('',#1267,2.25);
#340=VECTOR('',#1272,2.25);
#341=VECTOR('',#1277,2.25);
#342=VECTOR('',#1282,2.25);
#343=VECTOR('',#1287,10.);
#344=VECTOR('',#1288,1.);
#345=VECTOR('',#1291,10.);
#346=VECTOR('',#1292,10.);
#347=VECTOR('',#1297,1.);
#348=VECTOR('',#1298,1.00000000000023);
#349=VECTOR('',#1303,36.);
#350=VECTOR('',#1310,1.00000000000023);
#351=VECTOR('',#1331,39.);
#352=VECTOR('',#1340,2.7);
#353=VECTOR('',#1345,2.7);
#354=VECTOR('',#1350,2.7);
#355=VECTOR('',#1355,2.7);
#356=VECTOR('',#1360,9.2);
#357=VECTOR('',#1365,2.7);
#358=VECTOR('',#1370,2.7);
#359=CIRCLE('',#964,1.8);
#360=CIRCLE('',#965,1.8);
#361=CIRCLE('',#968,1.8);
#362=CIRCLE('',#969,1.8);
#363=CIRCLE('',#973,50.);
#364=CIRCLE('',#974,2.15);
#365=CIRCLE('',#975,2.15);
#366=CIRCLE('',#977,2.15);
#367=CIRCLE('',#979,2.15);
#368=CIRCLE('',#985,2.15);
#369=CIRCLE('',#986,2.15);
#370=CIRCLE('',#988,2.15);
#371=CIRCLE('',#989,2.15);
#372=CIRCLE('',#992,50.);
#373=CIRCLE('',#994,1.8);
#374=CIRCLE('',#995,1.8);
#375=CIRCLE('',#998,1.8);
#376=CIRCLE('',#999,1.8);
#377=CIRCLE('',#1004,50.);
#378=CIRCLE('',#1007,50.);
#379=CIRCLE('',#1010,50.);
#380=CIRCLE('',#1013,50.);
#381=CIRCLE('',#1014,50.);
#382=CIRCLE('',#1015,50.);
#383=CIRCLE('',#1016,50.);
#384=CIRCLE('',#1017,50.);
#385=CIRCLE('',#1023,39.);
#386=CIRCLE('',#1024,2.25);
#387=CIRCLE('',#1025,2.25);
#388=CIRCLE('',#1026,2.25);
#389=CIRCLE('',#1027,2.25);
#390=CIRCLE('',#1034,2.25);
#391=CIRCLE('',#1036,2.25);
#392=CIRCLE('',#1038,2.25);
#393=CIRCLE('',#1040,2.25);
#394=CIRCLE('',#1043,36.);
#395=CIRCLE('',#1046,36.);
#396=CIRCLE('',#1051,2.7);
#397=CIRCLE('',#1052,2.7);
#398=CIRCLE('',#1053,9.2);
#399=CIRCLE('',#1054,2.7);
#400=CIRCLE('',#1055,2.7);
#401=CIRCLE('',#1056,2.7);
#402=CIRCLE('',#1057,2.7);
#403=CIRCLE('',#1060,39.);
#404=CIRCLE('',#1063,2.7);
#405=CIRCLE('',#1065,2.7);
#406=CIRCLE('',#1067,2.7);
#407=CIRCLE('',#1069,2.7);
#408=CIRCLE('',#1071,9.2);
#409=CIRCLE('',#1073,2.7);
#410=CIRCLE('',#1075,2.7);
#411=VERTEX_POINT('',#1375);
#412=VERTEX_POINT('',#1377);
#413=VERTEX_POINT('',#1382);
#414=VERTEX_POINT('',#1384);
#415=VERTEX_POINT('',#1389);
#416=VERTEX_POINT('',#1390);
#417=VERTEX_POINT('',#1392);
#418=VERTEX_POINT('',#1394);
#419=VERTEX_POINT('',#1398);
#420=VERTEX_POINT('',#1400);
#421=VERTEX_POINT('',#1403);
#422=VERTEX_POINT('',#1405);
#423=VERTEX_POINT('',#1408);
#424=VERTEX_POINT('',#1412);
#425=VERTEX_POINT('',#1416);
#426=VERTEX_POINT('',#1420);
#427=VERTEX_POINT('',#1424);
#428=VERTEX_POINT('',#1425);
#429=VERTEX_POINT('',#1427);
#430=VERTEX_POINT('',#1429);
#431=VERTEX_POINT('',#1433);
#432=VERTEX_POINT('',#1435);
#433=VERTEX_POINT('',#1439);
#434=VERTEX_POINT('',#1441);
#435=VERTEX_POINT('',#1445);
#436=VERTEX_POINT('',#1447);
#437=VERTEX_POINT('',#1451);
#438=VERTEX_POINT('',#1453);
#439=VERTEX_POINT('',#1459);
#440=VERTEX_POINT('',#1461);
#441=VERTEX_POINT('',#1466);
#442=VERTEX_POINT('',#1468);
#443=VERTEX_POINT('',#1473);
#444=VERTEX_POINT('',#1474);
#445=VERTEX_POINT('',#1476);
#446=VERTEX_POINT('',#1478);
#447=VERTEX_POINT('',#1480);
#448=VERTEX_POINT('',#1482);
#449=VERTEX_POINT('',#1484);
#450=VERTEX_POINT('',#1486);
#451=VERTEX_POINT('',#1488);
#452=VERTEX_POINT('',#1490);
#453=VERTEX_POINT('',#1492);
#454=VERTEX_POINT('',#1494);
#455=VERTEX_POINT('',#1496);
#456=VERTEX_POINT('',#1498);
#457=VERTEX_POINT('',#1500);
#458=VERTEX_POINT('',#1502);
#459=VERTEX_POINT('',#1504);
#460=VERTEX_POINT('',#1506);
#461=VERTEX_POINT('',#1517);
#462=VERTEX_POINT('',#1519);
#463=VERTEX_POINT('',#1521);
#464=VERTEX_POINT('',#1523);
#465=VERTEX_POINT('',#1525);
#466=VERTEX_POINT('',#1528);
#467=VERTEX_POINT('',#1530);
#468=VERTEX_POINT('',#1534);
#469=VERTEX_POINT('',#1536);
#470=VERTEX_POINT('',#1540);
#471=VERTEX_POINT('',#1542);
#472=VERTEX_POINT('',#1552);
#473=VERTEX_POINT('',#1556);
#474=VERTEX_POINT('',#1560);
#475=VERTEX_POINT('',#1564);
#476=VERTEX_POINT('',#1571);
#477=VERTEX_POINT('',#1574);
#478=VERTEX_POINT('',#1577);
#479=VERTEX_POINT('',#1581);
#480=VERTEX_POINT('',#1589);
#481=VERTEX_POINT('',#1591);
#482=VERTEX_POINT('',#1593);
#483=VERTEX_POINT('',#1595);
#484=VERTEX_POINT('',#1597);
#485=VERTEX_POINT('',#1599);
#486=VERTEX_POINT('',#1601);
#487=VERTEX_POINT('',#1605);
#488=VERTEX_POINT('',#1610);
#489=VERTEX_POINT('',#1614);
#490=VERTEX_POINT('',#1618);
#491=VERTEX_POINT('',#1622);
#492=VERTEX_POINT('',#1626);
#493=VERTEX_POINT('',#1630);
#494=VERTEX_POINT('',#1634);
#495=EDGE_CURVE('',#411,#411,#359,.T.);
#496=EDGE_CURVE('',#411,#412,#227,.T.);
#497=EDGE_CURVE('',#412,#412,#360,.T.);
#498=EDGE_CURVE('',#413,#413,#361,.T.);
#499=EDGE_CURVE('',#413,#414,#228,.T.);
#500=EDGE_CURVE('',#414,#414,#362,.T.);
#501=EDGE_CURVE('',#415,#416,#229,.T.);
#502=EDGE_CURVE('',#415,#417,#230,.T.);
#503=EDGE_CURVE('',#417,#418,#231,.T.);
#504=EDGE_CURVE('',#416,#418,#232,.T.);
#505=EDGE_CURVE('',#418,#419,#363,.T.);
#506=EDGE_CURVE('',#420,#417,#233,.T.);
#507=EDGE_CURVE('',#419,#420,#234,.T.);
#508=EDGE_CURVE('',#421,#421,#364,.T.);
#509=EDGE_CURVE('',#422,#422,#365,.T.);
#510=EDGE_CURVE('',#422,#423,#235,.T.);
#511=EDGE_CURVE('',#423,#423,#366,.T.);
#512=EDGE_CURVE('',#421,#424,#236,.T.);
#513=EDGE_CURVE('',#424,#424,#367,.T.);
#514=EDGE_CURVE('',#425,#415,#237,.T.);
#515=EDGE_CURVE('',#425,#420,#238,.T.);
#516=EDGE_CURVE('',#426,#425,#239,.T.);
#517=EDGE_CURVE('',#419,#426,#240,.T.);
#518=EDGE_CURVE('',#427,#428,#241,.T.);
#519=EDGE_CURVE('',#427,#429,#242,.T.);
#520=EDGE_CURVE('',#429,#430,#243,.T.);
#521=EDGE_CURVE('',#428,#430,#244,.T.);
#522=EDGE_CURVE('',#428,#431,#245,.T.);
#523=EDGE_CURVE('',#430,#432,#246,.T.);
#524=EDGE_CURVE('',#431,#432,#247,.T.);
#525=EDGE_CURVE('',#433,#433,#368,.T.);
#526=EDGE_CURVE('',#433,#434,#248,.T.);
#527=EDGE_CURVE('',#434,#434,#369,.T.);
#528=EDGE_CURVE('',#435,#435,#370,.T.);
#529=EDGE_CURVE('',#435,#436,#249,.T.);
#530=EDGE_CURVE('',#436,#436,#371,.T.);
#531=EDGE_CURVE('',#437,#427,#250,.T.);
#532=EDGE_CURVE('',#438,#437,#251,.T.);
#533=EDGE_CURVE('',#438,#429,#252,.T.);
#534=EDGE_CURVE('',#432,#438,#372,.T.);
#535=EDGE_CURVE('',#439,#439,#373,.T.);
#536=EDGE_CURVE('',#439,#440,#253,.T.);
#537=EDGE_CURVE('',#440,#440,#374,.T.);
#538=EDGE_CURVE('',#441,#441,#375,.T.);
#539=EDGE_CURVE('',#441,#442,#254,.T.);
#540=EDGE_CURVE('',#442,#442,#376,.T.);
#541=EDGE_CURVE('',#443,#444,#255,.T.);
#542=EDGE_CURVE('',#445,#443,#15,.T.);
#543=EDGE_CURVE('',#446,#445,#16,.T.);
#544=EDGE_CURVE('',#447,#446,#377,.T.);
#545=EDGE_CURVE('',#448,#447,#17,.T.);
#546=EDGE_CURVE('',#449,#448,#18,.T.);
#547=EDGE_CURVE('',#450,#449,#256,.T.);
#548=EDGE_CURVE('',#451,#450,#378,.T.);
#549=EDGE_CURVE('',#452,#451,#257,.T.);
#550=EDGE_CURVE('',#453,#452,#19,.T.);
#551=EDGE_CURVE('',#454,#453,#20,.T.);
#552=EDGE_CURVE('',#455,#454,#379,.T.);
#553=EDGE_CURVE('',#456,#455,#21,.T.);
#554=EDGE_CURVE('',#457,#456,#22,.T.);
#555=EDGE_CURVE('',#458,#457,#258,.T.);
#556=EDGE_CURVE('',#459,#458,#380,.T.);
#557=EDGE_CURVE('',#459,#460,#259,.T.);
#558=EDGE_CURVE('',#416,#460,#381,.T.);
#559=EDGE_CURVE('',#431,#426,#382,.T.);
#560=EDGE_CURVE('',#460,#437,#383,.T.);
#561=EDGE_CURVE('',#444,#459,#384,.T.);
#562=EDGE_CURVE('',#461,#461,#385,.T.);
#563=EDGE_CURVE('',#462,#462,#386,.T.);
#564=EDGE_CURVE('',#463,#463,#387,.T.);
#565=EDGE_CURVE('',#464,#464,#388,.T.);
#566=EDGE_CURVE('',#465,#465,#389,.T.);
#567=EDGE_CURVE('',#466,#455,#260,.T.);
#568=EDGE_CURVE('',#467,#466,#261,.T.);
#569=EDGE_CURVE('',#467,#456,#262,.T.);
#570=EDGE_CURVE('',#468,#447,#263,.T.);
#571=EDGE_CURVE('',#469,#468,#264,.T.);
#572=EDGE_CURVE('',#448,#469,#265,.T.);
#573=EDGE_CURVE('',#470,#444,#266,.T.);
#574=EDGE_CURVE('',#470,#471,#267,.T.);
#575=EDGE_CURVE('',#471,#443,#268,.T.);
#576=EDGE_CURVE('',#458,#466,#269,.T.);
#577=EDGE_CURVE('',#457,#467,#270,.T.);
#578=EDGE_CURVE('',#450,#468,#271,.T.);
#579=EDGE_CURVE('',#449,#469,#272,.T.);
#580=EDGE_CURVE('',#465,#472,#273,.T.);
#581=EDGE_CURVE('',#472,#472,#390,.T.);
#582=EDGE_CURVE('',#464,#473,#274,.T.);
#583=EDGE_CURVE('',#473,#473,#391,.T.);
#584=EDGE_CURVE('',#463,#474,#275,.T.);
#585=EDGE_CURVE('',#474,#474,#392,.T.);
#586=EDGE_CURVE('',#462,#475,#276,.T.);
#587=EDGE_CURVE('',#475,#475,#393,.T.);
#588=EDGE_CURVE('',#446,#470,#277,.T.);
#589=EDGE_CURVE('',#471,#445,#278,.T.);
#590=EDGE_CURVE('',#454,#476,#279,.T.);
#591=EDGE_CURVE('',#476,#451,#280,.T.);
#592=EDGE_CURVE('',#477,#477,#394,.T.);
#593=EDGE_CURVE('',#453,#478,#281,.T.);
#594=EDGE_CURVE('',#476,#478,#282,.T.);
#595=EDGE_CURVE('',#479,#479,#395,.T.);
#596=EDGE_CURVE('',#479,#477,#283,.T.);
#597=EDGE_CURVE('',#478,#452,#284,.T.);
#598=EDGE_CURVE('',#480,#480,#396,.T.);
#599=EDGE_CURVE('',#481,#481,#397,.T.);
#600=EDGE_CURVE('',#482,#482,#398,.T.);
#601=EDGE_CURVE('',#483,#483,#399,.T.);
#602=EDGE_CURVE('',#484,#484,#400,.T.);
#603=EDGE_CURVE('',#485,#485,#401,.T.);
#604=EDGE_CURVE('',#486,#486,#402,.T.);
#605=EDGE_CURVE('',#461,#487,#285,.T.);
#606=EDGE_CURVE('',#487,#487,#403,.T.);
#607=EDGE_CURVE('',#488,#488,#404,.T.);
#608=EDGE_CURVE('',#488,#486,#286,.T.);
#609=EDGE_CURVE('',#489,#489,#405,.T.);
#610=EDGE_CURVE('',#489,#485,#287,.T.);
#611=EDGE_CURVE('',#490,#490,#406,.T.);
#612=EDGE_CURVE('',#490,#484,#288,.T.);
#613=EDGE_CURVE('',#491,#491,#407,.T.);
#614=EDGE_CURVE('',#491,#483,#289,.T.);
#615=EDGE_CURVE('',#492,#492,#408,.T.);
#616=EDGE_CURVE('',#492,#482,#290,.T.);
#617=EDGE_CURVE('',#493,#493,#409,.T.);
#618=EDGE_CURVE('',#493,#481,#291,.T.);
#619=EDGE_CURVE('',#494,#494,#410,.T.);
#620=EDGE_CURVE('',#494,#480,#292,.T.);
#621=ORIENTED_EDGE('',*,*,#495,.F.);
#622=ORIENTED_EDGE('',*,*,#496,.T.);
#623=ORIENTED_EDGE('',*,*,#497,.T.);
#624=ORIENTED_EDGE('',*,*,#496,.F.);
#625=ORIENTED_EDGE('',*,*,#497,.F.);
#626=ORIENTED_EDGE('',*,*,#498,.F.);
#627=ORIENTED_EDGE('',*,*,#499,.T.);
#628=ORIENTED_EDGE('',*,*,#500,.T.);
#629=ORIENTED_EDGE('',*,*,#499,.F.);
#630=ORIENTED_EDGE('',*,*,#500,.F.);
#631=ORIENTED_EDGE('',*,*,#501,.F.);
#632=ORIENTED_EDGE('',*,*,#502,.T.);
#633=ORIENTED_EDGE('',*,*,#503,.T.);
#634=ORIENTED_EDGE('',*,*,#504,.F.);
#635=ORIENTED_EDGE('',*,*,#505,.F.);
#636=ORIENTED_EDGE('',*,*,#503,.F.);
#637=ORIENTED_EDGE('',*,*,#506,.F.);
#638=ORIENTED_EDGE('',*,*,#507,.F.);
#639=ORIENTED_EDGE('',*,*,#508,.F.);
#640=ORIENTED_EDGE('',*,*,#509,.F.);
#641=ORIENTED_EDGE('',*,*,#509,.T.);
#642=ORIENTED_EDGE('',*,*,#510,.T.);
#643=ORIENTED_EDGE('',*,*,#511,.F.);
#644=ORIENTED_EDGE('',*,*,#510,.F.);
#645=ORIENTED_EDGE('',*,*,#508,.T.);
#646=ORIENTED_EDGE('',*,*,#512,.T.);
#647=ORIENTED_EDGE('',*,*,#513,.F.);
#648=ORIENTED_EDGE('',*,*,#512,.F.);
#649=ORIENTED_EDGE('',*,*,#514,.F.);
#650=ORIENTED_EDGE('',*,*,#515,.T.);
#651=ORIENTED_EDGE('',*,*,#506,.T.);
#652=ORIENTED_EDGE('',*,*,#502,.F.);
#653=ORIENTED_EDGE('',*,*,#516,.F.);
#654=ORIENTED_EDGE('',*,*,#517,.F.);
#655=ORIENTED_EDGE('',*,*,#507,.T.);
#656=ORIENTED_EDGE('',*,*,#515,.F.);
#657=ORIENTED_EDGE('',*,*,#518,.F.);
#658=ORIENTED_EDGE('',*,*,#519,.T.);
#659=ORIENTED_EDGE('',*,*,#520,.T.);
#660=ORIENTED_EDGE('',*,*,#521,.F.);
#661=ORIENTED_EDGE('',*,*,#522,.F.);
#662=ORIENTED_EDGE('',*,*,#521,.T.);
#663=ORIENTED_EDGE('',*,*,#523,.T.);
#664=ORIENTED_EDGE('',*,*,#524,.F.);
#665=ORIENTED_EDGE('',*,*,#525,.T.);
#666=ORIENTED_EDGE('',*,*,#526,.T.);
#667=ORIENTED_EDGE('',*,*,#527,.F.);
#668=ORIENTED_EDGE('',*,*,#526,.F.);
#669=ORIENTED_EDGE('',*,*,#528,.T.);
#670=ORIENTED_EDGE('',*,*,#529,.T.);
#671=ORIENTED_EDGE('',*,*,#530,.F.);
#672=ORIENTED_EDGE('',*,*,#529,.F.);
#673=ORIENTED_EDGE('',*,*,#531,.F.);
#674=ORIENTED_EDGE('',*,*,#532,.F.);
#675=ORIENTED_EDGE('',*,*,#533,.T.);
#676=ORIENTED_EDGE('',*,*,#519,.F.);
#677=ORIENTED_EDGE('',*,*,#534,.F.);
#678=ORIENTED_EDGE('',*,*,#523,.F.);
#679=ORIENTED_EDGE('',*,*,#520,.F.);
#680=ORIENTED_EDGE('',*,*,#533,.F.);
#681=ORIENTED_EDGE('',*,*,#525,.F.);
#682=ORIENTED_EDGE('',*,*,#528,.F.);
#683=ORIENTED_EDGE('',*,*,#535,.F.);
#684=ORIENTED_EDGE('',*,*,#536,.T.);
#685=ORIENTED_EDGE('',*,*,#537,.T.);
#686=ORIENTED_EDGE('',*,*,#536,.F.);
#687=ORIENTED_EDGE('',*,*,#537,.F.);
#688=ORIENTED_EDGE('',*,*,#538,.F.);
#689=ORIENTED_EDGE('',*,*,#539,.T.);
#690=ORIENTED_EDGE('',*,*,#540,.T.);
#691=ORIENTED_EDGE('',*,*,#539,.F.);
#692=ORIENTED_EDGE('',*,*,#540,.F.);
#693=ORIENTED_EDGE('',*,*,#541,.F.);
#694=ORIENTED_EDGE('',*,*,#542,.F.);
#695=ORIENTED_EDGE('',*,*,#543,.F.);
#696=ORIENTED_EDGE('',*,*,#544,.F.);
#697=ORIENTED_EDGE('',*,*,#545,.F.);
#698=ORIENTED_EDGE('',*,*,#546,.F.);
#699=ORIENTED_EDGE('',*,*,#547,.F.);
#700=ORIENTED_EDGE('',*,*,#548,.F.);
#701=ORIENTED_EDGE('',*,*,#549,.F.);
#702=ORIENTED_EDGE('',*,*,#550,.F.);
#703=ORIENTED_EDGE('',*,*,#551,.F.);
#704=ORIENTED_EDGE('',*,*,#552,.F.);
#705=ORIENTED_EDGE('',*,*,#553,.F.);
#706=ORIENTED_EDGE('',*,*,#554,.F.);
#707=ORIENTED_EDGE('',*,*,#555,.F.);
#708=ORIENTED_EDGE('',*,*,#556,.F.);
#709=ORIENTED_EDGE('',*,*,#557,.T.);
#710=ORIENTED_EDGE('',*,*,#558,.F.);
#711=ORIENTED_EDGE('',*,*,#504,.T.);
#712=ORIENTED_EDGE('',*,*,#505,.T.);
#713=ORIENTED_EDGE('',*,*,#517,.T.);
#714=ORIENTED_EDGE('',*,*,#559,.F.);
#715=ORIENTED_EDGE('',*,*,#524,.T.);
#716=ORIENTED_EDGE('',*,*,#534,.T.);
#717=ORIENTED_EDGE('',*,*,#532,.T.);
#718=ORIENTED_EDGE('',*,*,#560,.F.);
#719=ORIENTED_EDGE('',*,*,#557,.F.);
#720=ORIENTED_EDGE('',*,*,#561,.F.);
#721=ORIENTED_EDGE('',*,*,#530,.T.);
#722=ORIENTED_EDGE('',*,*,#538,.T.);
#723=ORIENTED_EDGE('',*,*,#527,.T.);
#724=ORIENTED_EDGE('',*,*,#498,.T.);
#725=ORIENTED_EDGE('',*,*,#513,.T.);
#726=ORIENTED_EDGE('',*,*,#495,.T.);
#727=ORIENTED_EDGE('',*,*,#511,.T.);
#728=ORIENTED_EDGE('',*,*,#535,.T.);
#729=ORIENTED_EDGE('',*,*,#501,.T.);
#730=ORIENTED_EDGE('',*,*,#558,.T.);
#731=ORIENTED_EDGE('',*,*,#560,.T.);
#732=ORIENTED_EDGE('',*,*,#531,.T.);
#733=ORIENTED_EDGE('',*,*,#518,.T.);
#734=ORIENTED_EDGE('',*,*,#522,.T.);
#735=ORIENTED_EDGE('',*,*,#559,.T.);
#736=ORIENTED_EDGE('',*,*,#516,.T.);
#737=ORIENTED_EDGE('',*,*,#514,.T.);
#738=ORIENTED_EDGE('',*,*,#562,.T.);
#739=ORIENTED_EDGE('',*,*,#563,.T.);
#740=ORIENTED_EDGE('',*,*,#564,.T.);
#741=ORIENTED_EDGE('',*,*,#565,.T.);
#742=ORIENTED_EDGE('',*,*,#566,.T.);
#743=ORIENTED_EDGE('',*,*,#567,.F.);
#744=ORIENTED_EDGE('',*,*,#568,.F.);
#745=ORIENTED_EDGE('',*,*,#569,.T.);
#746=ORIENTED_EDGE('',*,*,#553,.T.);
#747=ORIENTED_EDGE('',*,*,#570,.F.);
#748=ORIENTED_EDGE('',*,*,#571,.F.);
#749=ORIENTED_EDGE('',*,*,#572,.F.);
#750=ORIENTED_EDGE('',*,*,#545,.T.);
#751=ORIENTED_EDGE('',*,*,#573,.F.);
#752=ORIENTED_EDGE('',*,*,#574,.T.);
#753=ORIENTED_EDGE('',*,*,#575,.T.);
#754=ORIENTED_EDGE('',*,*,#541,.T.);
#755=ORIENTED_EDGE('',*,*,#576,.F.);
#756=ORIENTED_EDGE('',*,*,#555,.T.);
#757=ORIENTED_EDGE('',*,*,#577,.T.);
#758=ORIENTED_EDGE('',*,*,#568,.T.);
#759=ORIENTED_EDGE('',*,*,#578,.F.);
#760=ORIENTED_EDGE('',*,*,#547,.T.);
#761=ORIENTED_EDGE('',*,*,#579,.T.);
#762=ORIENTED_EDGE('',*,*,#571,.T.);
#763=ORIENTED_EDGE('',*,*,#566,.F.);
#764=ORIENTED_EDGE('',*,*,#580,.T.);
#765=ORIENTED_EDGE('',*,*,#581,.F.);
#766=ORIENTED_EDGE('',*,*,#580,.F.);
#767=ORIENTED_EDGE('',*,*,#565,.F.);
#768=ORIENTED_EDGE('',*,*,#582,.T.);
#769=ORIENTED_EDGE('',*,*,#583,.F.);
#770=ORIENTED_EDGE('',*,*,#582,.F.);
#771=ORIENTED_EDGE('',*,*,#564,.F.);
#772=ORIENTED_EDGE('',*,*,#584,.T.);
#773=ORIENTED_EDGE('',*,*,#585,.F.);
#774=ORIENTED_EDGE('',*,*,#584,.F.);
#775=ORIENTED_EDGE('',*,*,#563,.F.);
#776=ORIENTED_EDGE('',*,*,#586,.T.);
#777=ORIENTED_EDGE('',*,*,#587,.F.);
#778=ORIENTED_EDGE('',*,*,#586,.F.);
#779=ORIENTED_EDGE('',*,*,#588,.F.);
#780=ORIENTED_EDGE('',*,*,#543,.T.);
#781=ORIENTED_EDGE('',*,*,#589,.F.);
#782=ORIENTED_EDGE('',*,*,#574,.F.);
#783=ORIENTED_EDGE('',*,*,#552,.T.);
#784=ORIENTED_EDGE('',*,*,#590,.T.);
#785=ORIENTED_EDGE('',*,*,#591,.T.);
#786=ORIENTED_EDGE('',*,*,#548,.T.);
#787=ORIENTED_EDGE('',*,*,#578,.T.);
#788=ORIENTED_EDGE('',*,*,#570,.T.);
#789=ORIENTED_EDGE('',*,*,#544,.T.);
#790=ORIENTED_EDGE('',*,*,#588,.T.);
#791=ORIENTED_EDGE('',*,*,#573,.T.);
#792=ORIENTED_EDGE('',*,*,#561,.T.);
#793=ORIENTED_EDGE('',*,*,#556,.T.);
#794=ORIENTED_EDGE('',*,*,#576,.T.);
#795=ORIENTED_EDGE('',*,*,#567,.T.);
#796=ORIENTED_EDGE('',*,*,#585,.T.);
#797=ORIENTED_EDGE('',*,*,#587,.T.);
#798=ORIENTED_EDGE('',*,*,#583,.T.);
#799=ORIENTED_EDGE('',*,*,#581,.T.);
#800=ORIENTED_EDGE('',*,*,#592,.T.);
#801=ORIENTED_EDGE('',*,*,#590,.F.);
#802=ORIENTED_EDGE('',*,*,#551,.T.);
#803=ORIENTED_EDGE('',*,*,#593,.T.);
#804=ORIENTED_EDGE('',*,*,#594,.F.);
#805=ORIENTED_EDGE('',*,*,#595,.F.);
#806=ORIENTED_EDGE('',*,*,#596,.T.);
#807=ORIENTED_EDGE('',*,*,#592,.F.);
#808=ORIENTED_EDGE('',*,*,#596,.F.);
#809=ORIENTED_EDGE('',*,*,#546,.T.);
#810=ORIENTED_EDGE('',*,*,#572,.T.);
#811=ORIENTED_EDGE('',*,*,#579,.F.);
#812=ORIENTED_EDGE('',*,*,#554,.T.);
#813=ORIENTED_EDGE('',*,*,#569,.F.);
#814=ORIENTED_EDGE('',*,*,#577,.F.);
#815=ORIENTED_EDGE('',*,*,#591,.F.);
#816=ORIENTED_EDGE('',*,*,#594,.T.);
#817=ORIENTED_EDGE('',*,*,#597,.T.);
#818=ORIENTED_EDGE('',*,*,#549,.T.);
#819=ORIENTED_EDGE('',*,*,#595,.T.);
#820=ORIENTED_EDGE('',*,*,#598,.T.);
#821=ORIENTED_EDGE('',*,*,#599,.T.);
#822=ORIENTED_EDGE('',*,*,#600,.T.);
#823=ORIENTED_EDGE('',*,*,#601,.T.);
#824=ORIENTED_EDGE('',*,*,#602,.T.);
#825=ORIENTED_EDGE('',*,*,#603,.T.);
#826=ORIENTED_EDGE('',*,*,#604,.T.);
#827=ORIENTED_EDGE('',*,*,#542,.T.);
#828=ORIENTED_EDGE('',*,*,#575,.F.);
#829=ORIENTED_EDGE('',*,*,#589,.T.);
#830=ORIENTED_EDGE('',*,*,#562,.F.);
#831=ORIENTED_EDGE('',*,*,#605,.T.);
#832=ORIENTED_EDGE('',*,*,#606,.F.);
#833=ORIENTED_EDGE('',*,*,#605,.F.);
#834=ORIENTED_EDGE('',*,*,#550,.T.);
#835=ORIENTED_EDGE('',*,*,#597,.F.);
#836=ORIENTED_EDGE('',*,*,#593,.F.);
#837=ORIENTED_EDGE('',*,*,#607,.F.);
#838=ORIENTED_EDGE('',*,*,#608,.T.);
#839=ORIENTED_EDGE('',*,*,#604,.F.);
#840=ORIENTED_EDGE('',*,*,#608,.F.);
#841=ORIENTED_EDGE('',*,*,#609,.F.);
#842=ORIENTED_EDGE('',*,*,#610,.T.);
#843=ORIENTED_EDGE('',*,*,#603,.F.);
#844=ORIENTED_EDGE('',*,*,#610,.F.);
#845=ORIENTED_EDGE('',*,*,#611,.F.);
#846=ORIENTED_EDGE('',*,*,#612,.T.);
#847=ORIENTED_EDGE('',*,*,#602,.F.);
#848=ORIENTED_EDGE('',*,*,#612,.F.);
#849=ORIENTED_EDGE('',*,*,#613,.F.);
#850=ORIENTED_EDGE('',*,*,#614,.T.);
#851=ORIENTED_EDGE('',*,*,#601,.F.);
#852=ORIENTED_EDGE('',*,*,#614,.F.);
#853=ORIENTED_EDGE('',*,*,#615,.F.);
#854=ORIENTED_EDGE('',*,*,#616,.T.);
#855=ORIENTED_EDGE('',*,*,#600,.F.);
#856=ORIENTED_EDGE('',*,*,#616,.F.);
#857=ORIENTED_EDGE('',*,*,#617,.F.);
#858=ORIENTED_EDGE('',*,*,#618,.T.);
#859=ORIENTED_EDGE('',*,*,#599,.F.);
#860=ORIENTED_EDGE('',*,*,#618,.F.);
#861=ORIENTED_EDGE('',*,*,#619,.F.);
#862=ORIENTED_EDGE('',*,*,#620,.T.);
#863=ORIENTED_EDGE('',*,*,#598,.F.);
#864=ORIENTED_EDGE('',*,*,#620,.F.);
#865=ORIENTED_EDGE('',*,*,#606,.T.);
#866=ORIENTED_EDGE('',*,*,#619,.T.);
#867=ORIENTED_EDGE('',*,*,#611,.T.);
#868=ORIENTED_EDGE('',*,*,#607,.T.);
#869=ORIENTED_EDGE('',*,*,#609,.T.);
#870=ORIENTED_EDGE('',*,*,#613,.T.);
#871=ORIENTED_EDGE('',*,*,#617,.T.);
#872=ORIENTED_EDGE('',*,*,#615,.T.);
#873=CYLINDRICAL_SURFACE('',#963,1.8);
#874=CYLINDRICAL_SURFACE('',#967,1.8);
#875=CYLINDRICAL_SURFACE('',#976,2.15);
#876=CYLINDRICAL_SURFACE('',#978,2.15);
#877=CYLINDRICAL_SURFACE('',#984,2.15);
#878=CYLINDRICAL_SURFACE('',#987,2.15);
#879=CYLINDRICAL_SURFACE('',#993,1.8);
#880=CYLINDRICAL_SURFACE('',#997,1.8);
#881=CYLINDRICAL_SURFACE('',#1001,50.);
#882=CYLINDRICAL_SURFACE('',#1033,2.25);
#883=CYLINDRICAL_SURFACE('',#1035,2.25);
#884=CYLINDRICAL_SURFACE('',#1037,2.25);
#885=CYLINDRICAL_SURFACE('',#1039,2.25);
#886=CYLINDRICAL_SURFACE('',#1045,36.);
#887=CYLINDRICAL_SURFACE('',#1059,39.);
#888=CYLINDRICAL_SURFACE('',#1062,2.7);
#889=CYLINDRICAL_SURFACE('',#1064,2.7);
#890=CYLINDRICAL_SURFACE('',#1066,2.7);
#891=CYLINDRICAL_SURFACE('',#1068,2.7);
#892=CYLINDRICAL_SURFACE('',#1070,9.2);
#893=CYLINDRICAL_SURFACE('',#1072,2.7);
#894=CYLINDRICAL_SURFACE('',#1074,2.7);
#895=ADVANCED_FACE('',(#87),#873,.F.);
#896=ADVANCED_FACE('',(#88),#55,.F.);
#897=ADVANCED_FACE('',(#89),#874,.F.);
#898=ADVANCED_FACE('',(#90),#56,.F.);
#899=ADVANCED_FACE('',(#91),#57,.F.);
#900=ADVANCED_FACE('',(#92,#23,#24),#58,.F.);
#901=ADVANCED_FACE('',(#93),#875,.T.);
#902=ADVANCED_FACE('',(#94),#876,.T.);
#903=ADVANCED_FACE('',(#95),#59,.F.);
#904=ADVANCED_FACE('',(#96),#60,.F.);
#905=ADVANCED_FACE('',(#97),#61,.F.);
#906=ADVANCED_FACE('',(#98),#62,.F.);
#907=ADVANCED_FACE('',(#99),#877,.T.);
#908=ADVANCED_FACE('',(#100),#878,.T.);
#909=ADVANCED_FACE('',(#101),#63,.F.);
#910=ADVANCED_FACE('',(#102,#25,#26),#64,.F.);
#911=ADVANCED_FACE('',(#103),#879,.F.);
#912=ADVANCED_FACE('',(#104),#65,.F.);
#913=ADVANCED_FACE('',(#105),#880,.F.);
#914=ADVANCED_FACE('',(#106),#66,.F.);
#915=ADVANCED_FACE('',(#107),#881,.T.);
#916=ADVANCED_FACE('',(#108,#27),#67,.F.);
#917=ADVANCED_FACE('',(#109,#28),#68,.F.);
#918=ADVANCED_FACE('',(#110,#29),#69,.F.);
#919=ADVANCED_FACE('',(#111,#30),#70,.F.);
#920=ADVANCED_FACE('',(#112,#31,#32,#33,#34,#35),#71,.F.);
#921=ADVANCED_FACE('',(#113),#72,.F.);
#922=ADVANCED_FACE('',(#114),#73,.F.);
#923=ADVANCED_FACE('',(#115),#74,.T.);
#924=ADVANCED_FACE('',(#116),#75,.T.);
#925=ADVANCED_FACE('',(#117),#76,.F.);
#926=ADVANCED_FACE('',(#118),#882,.F.);
#927=ADVANCED_FACE('',(#119),#883,.F.);
#928=ADVANCED_FACE('',(#120),#884,.F.);
#929=ADVANCED_FACE('',(#121),#885,.F.);
#930=ADVANCED_FACE('',(#122),#77,.F.);
#931=ADVANCED_FACE('',(#123,#36,#37,#38,#39,#40),#78,.T.);
#932=ADVANCED_FACE('',(#124),#79,.F.);
#933=ADVANCED_FACE('',(#125),#886,.F.);
#934=ADVANCED_FACE('',(#126),#80,.F.);
#935=ADVANCED_FACE('',(#127),#81,.F.);
#936=ADVANCED_FACE('',(#128),#82,.F.);
#937=ADVANCED_FACE('',(#129,#41,#42,#43,#44,#45,#46,#47),#83,.T.);
#938=ADVANCED_FACE('',(#130),#84,.F.);
#939=ADVANCED_FACE('',(#131),#887,.T.);
#940=ADVANCED_FACE('',(#132),#85,.F.);
#941=ADVANCED_FACE('',(#133),#888,.F.);
#942=ADVANCED_FACE('',(#134),#889,.F.);
#943=ADVANCED_FACE('',(#135),#890,.F.);
#944=ADVANCED_FACE('',(#136),#891,.F.);
#945=ADVANCED_FACE('',(#137),#892,.F.);
#946=ADVANCED_FACE('',(#138),#893,.F.);
#947=ADVANCED_FACE('',(#139),#894,.F.);
#948=ADVANCED_FACE('',(#140,#48,#49,#50,#51,#52,#53,#54),#86,.T.);
#949=CLOSED_SHELL('',(#895,#896,#897,#898,#899,#900,#901,#902,#903,#904,
#905,#906,#907,#908,#909,#910,#911,#912,#913,#914,#915,#916,#917,#918,#919,
#920,#921,#922,#923,#924,#925,#926,#927,#928,#929,#930,#931,#932,#933,#934,
#935,#936,#937,#938,#939,#940,#941,#942,#943,#944,#945,#946,#947,#948));
#950=DERIVED_UNIT_ELEMENT(#952,1.);
#951=DERIVED_UNIT_ELEMENT(#1643,-3.);
#952=(
MASS_UNIT()
NAMED_UNIT(*)
SI_UNIT(.KILO.,.GRAM.)
);
#953=DERIVED_UNIT((#950,#951));
#954=MEASURE_REPRESENTATION_ITEM('density measure',
POSITIVE_RATIO_MEASURE(7850.),#953);
#955=PROPERTY_DEFINITION_REPRESENTATION(#960,#957);
#956=PROPERTY_DEFINITION_REPRESENTATION(#961,#958);
#957=REPRESENTATION('material name',(#959),#1640);
#958=REPRESENTATION('density',(#954),#1640);
#959=DESCRIPTIVE_REPRESENTATION_ITEM('Steel','Steel');
#960=PROPERTY_DEFINITION('material property','material name',#1650);
#961=PROPERTY_DEFINITION('material property','density of part',#1650);
#962=AXIS2_PLACEMENT_3D('',#1373,#1077,#1078);
#963=AXIS2_PLACEMENT_3D('',#1374,#1079,#1080);
#964=AXIS2_PLACEMENT_3D('',#1376,#1081,#1082);
#965=AXIS2_PLACEMENT_3D('',#1379,#1084,#1085);
#966=AXIS2_PLACEMENT_3D('',#1380,#1086,#1087);
#967=AXIS2_PLACEMENT_3D('',#1381,#1088,#1089);
#968=AXIS2_PLACEMENT_3D('',#1383,#1090,#1091);
#969=AXIS2_PLACEMENT_3D('',#1386,#1093,#1094);
#970=AXIS2_PLACEMENT_3D('',#1387,#1095,#1096);
#971=AXIS2_PLACEMENT_3D('',#1388,#1097,#1098);
#972=AXIS2_PLACEMENT_3D('',#1397,#1103,#1104);
#973=AXIS2_PLACEMENT_3D('',#1399,#1105,#1106);
#974=AXIS2_PLACEMENT_3D('',#1404,#1109,#1110);
#975=AXIS2_PLACEMENT_3D('',#1406,#1111,#1112);
#976=AXIS2_PLACEMENT_3D('',#1407,#1113,#1114);
#977=AXIS2_PLACEMENT_3D('',#1410,#1116,#1117);
#978=AXIS2_PLACEMENT_3D('',#1411,#1118,#1119);
#979=AXIS2_PLACEMENT_3D('',#1414,#1121,#1122);
#980=AXIS2_PLACEMENT_3D('',#1415,#1123,#1124);
#981=AXIS2_PLACEMENT_3D('',#1419,#1127,#1128);
#982=AXIS2_PLACEMENT_3D('',#1423,#1131,#1132);
#983=AXIS2_PLACEMENT_3D('',#1432,#1137,#1138);
#984=AXIS2_PLACEMENT_3D('',#1438,#1142,#1143);
#985=AXIS2_PLACEMENT_3D('',#1440,#1144,#1145);
#986=AXIS2_PLACEMENT_3D('',#1443,#1147,#1148);
#987=AXIS2_PLACEMENT_3D('',#1444,#1149,#1150);
#988=AXIS2_PLACEMENT_3D('',#1446,#1151,#1152);
#989=AXIS2_PLACEMENT_3D('',#1449,#1154,#1155);
#990=AXIS2_PLACEMENT_3D('',#1450,#1156,#1157);
#991=AXIS2_PLACEMENT_3D('',#1456,#1161,#1162);
#992=AXIS2_PLACEMENT_3D('',#1457,#1163,#1164);
#993=AXIS2_PLACEMENT_3D('',#1458,#1165,#1166);
#994=AXIS2_PLACEMENT_3D('',#1460,#1167,#1168);
#995=AXIS2_PLACEMENT_3D('',#1463,#1170,#1171);
#996=AXIS2_PLACEMENT_3D('',#1464,#1172,#1173);
#997=AXIS2_PLACEMENT_3D('',#1465,#1174,#1175);
#998=AXIS2_PLACEMENT_3D('',#1467,#1176,#1177);
#999=AXIS2_PLACEMENT_3D('',#1470,#1179,#1180);
#1000=AXIS2_PLACEMENT_3D('',#1471,#1181,#1182);
#1001=AXIS2_PLACEMENT_3D('',#1472,#1183,#1184);
#1002=AXIS2_PLACEMENT_3D('',#1477,#1186,#1187);
#1003=AXIS2_PLACEMENT_3D('',#1479,#1188,#1189);
#1004=AXIS2_PLACEMENT_3D('',#1481,#1190,#1191);
#1005=AXIS2_PLACEMENT_3D('',#1483,#1192,#1193);
#1006=AXIS2_PLACEMENT_3D('',#1485,#1194,#1195);
#1007=AXIS2_PLACEMENT_3D('',#1489,#1197,#1198);
#1008=AXIS2_PLACEMENT_3D('',#1493,#1200,#1201);
#1009=AXIS2_PLACEMENT_3D('',#1495,#1202,#1203);
#1010=AXIS2_PLACEMENT_3D('',#1497,#1204,#1205);
#1011=AXIS2_PLACEMENT_3D('',#1499,#1206,#1207);
#1012=AXIS2_PLACEMENT_3D('',#1501,#1208,#1209);
#1013=AXIS2_PLACEMENT_3D('',#1505,#1211,#1212);
#1014=AXIS2_PLACEMENT_3D('',#1508,#1214,#1215);
#1015=AXIS2_PLACEMENT_3D('',#1509,#1216,#1217);
#1016=AXIS2_PLACEMENT_3D('',#1510,#1218,#1219);
#1017=AXIS2_PLACEMENT_3D('',#1511,#1220,#1221);
#1018=AXIS2_PLACEMENT_3D('',#1512,#1222,#1223);
#1019=AXIS2_PLACEMENT_3D('',#1513,#1224,#1225);
#1020=AXIS2_PLACEMENT_3D('',#1514,#1226,#1227);
#1021=AXIS2_PLACEMENT_3D('',#1515,#1228,#1229);
#1022=AXIS2_PLACEMENT_3D('',#1516,#1230,#1231);
#1023=AXIS2_PLACEMENT_3D('',#1518,#1232,#1233);
#1024=AXIS2_PLACEMENT_3D('',#1520,#1234,#1235);
#1025=AXIS2_PLACEMENT_3D('',#1522,#1236,#1237);
#1026=AXIS2_PLACEMENT_3D('',#1524,#1238,#1239);
#1027=AXIS2_PLACEMENT_3D('',#1526,#1240,#1241);
#1028=AXIS2_PLACEMENT_3D('',#1527,#1242,#1243);
#1029=AXIS2_PLACEMENT_3D('',#1533,#1247,#1248);
#1030=AXIS2_PLACEMENT_3D('',#1539,#1252,#1253);
#1031=AXIS2_PLACEMENT_3D('',#1545,#1257,#1258);
#1032=AXIS2_PLACEMENT_3D('',#1548,#1261,#1262);
#1033=AXIS2_PLACEMENT_3D('',#1551,#1265,#1266);
#1034=AXIS2_PLACEMENT_3D('',#1554,#1268,#1269);
#1035=AXIS2_PLACEMENT_3D('',#1555,#1270,#1271);
#1036=AXIS2_PLACEMENT_3D('',#1558,#1273,#1274);
#1037=AXIS2_PLACEMENT_3D('',#1559,#1275,#1276);
#1038=AXIS2_PLACEMENT_3D('',#1562,#1278,#1279);
#1039=AXIS2_PLACEMENT_3D('',#1563,#1280,#1281);
#1040=AXIS2_PLACEMENT_3D('',#1566,#1283,#1284);
#1041=AXIS2_PLACEMENT_3D('',#1567,#1285,#1286);
#1042=AXIS2_PLACEMENT_3D('',#1570,#1289,#1290);
#1043=AXIS2_PLACEMENT_3D('',#1575,#1293,#1294);
#1044=AXIS2_PLACEMENT_3D('',#1576,#1295,#1296);
#1045=AXIS2_PLACEMENT_3D('',#1580,#1299,#1300);
#1046=AXIS2_PLACEMENT_3D('',#1582,#1301,#1302);
#1047=AXIS2_PLACEMENT_3D('',#1584,#1304,#1305);
#1048=AXIS2_PLACEMENT_3D('',#1585,#1306,#1307);
#1049=AXIS2_PLACEMENT_3D('',#1586,#1308,#1309);
#1050=AXIS2_PLACEMENT_3D('',#1588,#1311,#1312);
#1051=AXIS2_PLACEMENT_3D('',#1590,#1313,#1314);
#1052=AXIS2_PLACEMENT_3D('',#1592,#1315,#1316);
#1053=AXIS2_PLACEMENT_3D('',#1594,#1317,#1318);
#1054=AXIS2_PLACEMENT_3D('',#1596,#1319,#1320);
#1055=AXIS2_PLACEMENT_3D('',#1598,#1321,#1322);
#1056=AXIS2_PLACEMENT_3D('',#1600,#1323,#1324);
#1057=AXIS2_PLACEMENT_3D('',#1602,#1325,#1326);
#1058=AXIS2_PLACEMENT_3D('',#1603,#1327,#1328);
#1059=AXIS2_PLACEMENT_3D('',#1604,#1329,#1330);
#1060=AXIS2_PLACEMENT_3D('',#1607,#1332,#1333);
#1061=AXIS2_PLACEMENT_3D('',#1608,#1334,#1335);
#1062=AXIS2_PLACEMENT_3D('',#1609,#1336,#1337);
#1063=AXIS2_PLACEMENT_3D('',#1611,#1338,#1339);
#1064=AXIS2_PLACEMENT_3D('',#1613,#1341,#1342);
#1065=AXIS2_PLACEMENT_3D('',#1615,#1343,#1344);
#1066=AXIS2_PLACEMENT_3D('',#1617,#1346,#1347);
#1067=AXIS2_PLACEMENT_3D('',#1619,#1348,#1349);
#1068=AXIS2_PLACEMENT_3D('',#1621,#1351,#1352);
#1069=AXIS2_PLACEMENT_3D('',#1623,#1353,#1354);
#1070=AXIS2_PLACEMENT_3D('',#1625,#1356,#1357);
#1071=AXIS2_PLACEMENT_3D('',#1627,#1358,#1359);
#1072=AXIS2_PLACEMENT_3D('',#1629,#1361,#1362);
#1073=AXIS2_PLACEMENT_3D('',#1631,#1363,#1364);
#1074=AXIS2_PLACEMENT_3D('',#1633,#1366,#1367);
#1075=AXIS2_PLACEMENT_3D('',#1635,#1368,#1369);
#1076=AXIS2_PLACEMENT_3D('',#1637,#1371,#1372);
#1077=DIRECTION('axis',(0.,0.,1.));
#1078=DIRECTION('refdir',(1.,0.,0.));
#1079=DIRECTION('center_axis',(1.,0.,0.));
#1080=DIRECTION('ref_axis',(0.,0.,-1.));
#1081=DIRECTION('center_axis',(1.,0.,0.));
#1082=DIRECTION('ref_axis',(0.,0.,1.));
#1083=DIRECTION('',(1.,0.,0.));
#1084=DIRECTION('center_axis',(1.,0.,0.));
#1085=DIRECTION('ref_axis',(0.,0.,-1.));
#1086=DIRECTION('center_axis',(1.,0.,0.));
#1087=DIRECTION('ref_axis',(0.,0.,-1.));
#1088=DIRECTION('center_axis',(1.,0.,0.));
#1089=DIRECTION('ref_axis',(0.,0.,-1.));
#1090=DIRECTION('center_axis',(1.,0.,0.));
#1091=DIRECTION('ref_axis',(0.,0.,1.));
#1092=DIRECTION('',(1.,0.,0.));
#1093=DIRECTION('center_axis',(1.,0.,0.));
#1094=DIRECTION('ref_axis',(0.,0.,-1.));
#1095=DIRECTION('center_axis',(1.,0.,0.));
#1096=DIRECTION('ref_axis',(0.,0.,-1.));
#1097=DIRECTION('center_axis',(0.,0.,1.));
#1098=DIRECTION('ref_axis',(0.,-1.,0.));
#1099=DIRECTION('',(0.,-1.,0.));
#1100=DIRECTION('',(1.,0.,0.));
#1101=DIRECTION('',(0.,-1.,0.));
#1102=DIRECTION('',(1.,0.,0.));
#1103=DIRECTION('center_axis',(1.,0.,0.));
#1104=DIRECTION('ref_axis',(0.,0.,-1.));
#1105=DIRECTION('center_axis',(1.,0.,0.));
#1106=DIRECTION('ref_axis',(0.,0.,-1.));
#1107=DIRECTION('',(0.,0.,1.));
#1108=DIRECTION('',(0.,1.,0.));
#1109=DIRECTION('center_axis',(-1.,0.,0.));
#1110=DIRECTION('ref_axis',(0.,0.,-1.));
#1111=DIRECTION('center_axis',(-1.,0.,0.));
#1112=DIRECTION('ref_axis',(0.,0.,-1.));
#1113=DIRECTION('center_axis',(1.,0.,0.));
#1114=DIRECTION('ref_axis',(0.,0.,-1.));
#1115=DIRECTION('',(-1.,0.,0.));
#1116=DIRECTION('center_axis',(-1.,0.,0.));
#1117=DIRECTION('ref_axis',(0.,0.,-1.));
#1118=DIRECTION('center_axis',(1.,0.,0.));
#1119=DIRECTION('ref_axis',(0.,0.,-1.));
#1120=DIRECTION('',(-1.,0.,0.));
#1121=DIRECTION('center_axis',(-1.,0.,0.));
#1122=DIRECTION('ref_axis',(0.,0.,-1.));
#1123=DIRECTION('center_axis',(0.,1.,0.));
#1124=DIRECTION('ref_axis',(0.,0.,1.));
#1125=DIRECTION('',(0.,0.,1.));
#1126=DIRECTION('',(1.,0.,0.));
#1127=DIRECTION('center_axis',(0.,0.,-1.));
#1128=DIRECTION('ref_axis',(0.,1.,0.));
#1129=DIRECTION('',(0.,1.,0.));
#1130=DIRECTION('',(-1.,0.,0.));
#1131=DIRECTION('center_axis',(0.,-1.,0.));
#1132=DIRECTION('ref_axis',(0.,0.,-1.));
#1133=DIRECTION('',(0.,0.,-1.));
#1134=DIRECTION('',(1.,0.,0.));
#1135=DIRECTION('',(0.,0.,-1.));
#1136=DIRECTION('',(1.,0.,0.));
#1137=DIRECTION('center_axis',(0.,0.,-1.));
#1138=DIRECTION('ref_axis',(0.,1.,0.));
#1139=DIRECTION('',(0.,1.,0.));
#1140=DIRECTION('',(0.,1.,0.));
#1141=DIRECTION('',(1.,0.,0.));
#1142=DIRECTION('center_axis',(1.,0.,0.));
#1143=DIRECTION('ref_axis',(0.,0.,-1.));
#1144=DIRECTION('center_axis',(-1.,0.,0.));
#1145=DIRECTION('ref_axis',(0.,0.,-1.));
#1146=DIRECTION('',(-1.,0.,0.));
#1147=DIRECTION('center_axis',(-1.,0.,0.));
#1148=DIRECTION('ref_axis',(0.,0.,-1.));
#1149=DIRECTION('center_axis',(1.,0.,0.));
#1150=DIRECTION('ref_axis',(0.,0.,-1.));
#1151=DIRECTION('center_axis',(-1.,0.,0.));
#1152=DIRECTION('ref_axis',(0.,0.,-1.));
#1153=DIRECTION('',(-1.,0.,0.));
#1154=DIRECTION('center_axis',(-1.,0.,0.));
#1155=DIRECTION('ref_axis',(0.,0.,-1.));
#1156=DIRECTION('center_axis',(0.,0.,1.));
#1157=DIRECTION('ref_axis',(0.,-1.,0.));
#1158=DIRECTION('',(0.,-1.,0.));
#1159=DIRECTION('',(-1.,0.,0.));
#1160=DIRECTION('',(0.,-1.,0.));
#1161=DIRECTION('center_axis',(1.,0.,0.));
#1162=DIRECTION('ref_axis',(0.,0.,-1.));
#1163=DIRECTION('center_axis',(1.,0.,0.));
#1164=DIRECTION('ref_axis',(0.,0.,-1.));
#1165=DIRECTION('center_axis',(1.,0.,0.));
#1166=DIRECTION('ref_axis',(0.,0.,-1.));
#1167=DIRECTION('center_axis',(1.,0.,0.));
#1168=DIRECTION('ref_axis',(0.,0.,1.));
#1169=DIRECTION('',(1.,0.,0.));
#1170=DIRECTION('center_axis',(1.,0.,0.));
#1171=DIRECTION('ref_axis',(0.,0.,-1.));
#1172=DIRECTION('center_axis',(1.,0.,0.));
#1173=DIRECTION('ref_axis',(0.,0.,-1.));
#1174=DIRECTION('center_axis',(1.,0.,0.));
#1175=DIRECTION('ref_axis',(0.,0.,-1.));
#1176=DIRECTION('center_axis',(1.,0.,0.));
#1177=DIRECTION('ref_axis',(0.,0.,1.));
#1178=DIRECTION('',(1.,0.,0.));
#1179=DIRECTION('center_axis',(1.,0.,0.));
#1180=DIRECTION('ref_axis',(0.,0.,-1.));
#1181=DIRECTION('center_axis',(1.,0.,0.));
#1182=DIRECTION('ref_axis',(0.,0.,-1.));
#1183=DIRECTION('center_axis',(1.,0.,0.));
#1184=DIRECTION('ref_axis',(0.,0.,-1.));
#1185=DIRECTION('',(1.,0.,0.));
#1186=DIRECTION('center_axis',(0.994568639219773,0.104082764569976,0.));
#1187=DIRECTION('ref_axis',(-0.104082764569976,0.994568639219773,0.));
#1188=DIRECTION('center_axis',(0.104082764569976,-0.994568639219773,0.));
#1189=DIRECTION('ref_axis',(0.994568639219773,0.104082764569976,0.));
#1190=DIRECTION('center_axis',(1.,0.,0.));
#1191=DIRECTION('ref_axis',(0.,0.,-1.));
#1192=DIRECTION('center_axis',(0.104082764569976,-0.994568639219773,0.));
#1193=DIRECTION('ref_axis',(0.994568639219773,0.104082764569976,0.));
#1194=DIRECTION('center_axis',(0.994568639219773,0.104082764569976,0.));
#1195=DIRECTION('ref_axis',(-0.104082764569976,0.994568639219773,0.));
#1196=DIRECTION('',(-1.,0.,0.));
#1197=DIRECTION('center_axis',(1.,0.,0.));
#1198=DIRECTION('ref_axis',(0.,0.,-1.));
#1199=DIRECTION('',(1.,0.,0.));
#1200=DIRECTION('center_axis',(0.994568639219773,-0.104082764569976,0.));
#1201=DIRECTION('ref_axis',(0.104082764569976,0.994568639219773,0.));
#1202=DIRECTION('center_axis',(0.104082764569976,0.994568639219773,0.));
#1203=DIRECTION('ref_axis',(-0.994568639219773,0.104082764569976,0.));
#1204=DIRECTION('center_axis',(1.,0.,0.));
#1205=DIRECTION('ref_axis',(0.,0.,-1.));
#1206=DIRECTION('center_axis',(0.104082764569976,0.994568639219773,0.));
#1207=DIRECTION('ref_axis',(-0.994568639219773,0.104082764569976,0.));
#1208=DIRECTION('center_axis',(0.994568639219773,-0.104082764569976,0.));
#1209=DIRECTION('ref_axis',(0.104082764569976,0.994568639219773,0.));
#1210=DIRECTION('',(-1.,0.,0.));
#1211=DIRECTION('center_axis',(1.,0.,0.));
#1212=DIRECTION('ref_axis',(0.,0.,-1.));
#1213=DIRECTION('',(-1.,0.,0.));
#1214=DIRECTION('center_axis',(-1.,0.,0.));
#1215=DIRECTION('ref_axis',(0.,0.,-1.));
#1216=DIRECTION('center_axis',(-1.,0.,0.));
#1217=DIRECTION('ref_axis',(0.,0.,-1.));
#1218=DIRECTION('center_axis',(-1.,0.,0.));
#1219=DIRECTION('ref_axis',(0.,0.,-1.));
#1220=DIRECTION('center_axis',(1.,0.,0.));
#1221=DIRECTION('ref_axis',(0.,0.,-1.));
#1222=DIRECTION('center_axis',(1.,0.,0.));
#1223=DIRECTION('ref_axis',(0.,0.,1.));
#1224=DIRECTION('center_axis',(1.,0.,0.));
#1225=DIRECTION('ref_axis',(0.,0.,1.));
#1226=DIRECTION('center_axis',(1.,0.,0.));
#1227=DIRECTION('ref_axis',(0.,0.,1.));
#1228=DIRECTION('center_axis',(1.,0.,0.));
#1229=DIRECTION('ref_axis',(0.,0.,1.));
#1230=DIRECTION('center_axis',(1.,0.,0.));
#1231=DIRECTION('ref_axis',(0.,0.,1.));
#1232=DIRECTION('center_axis',(1.,0.,0.));
#1233=DIRECTION('ref_axis',(0.,0.,-1.));
#1234=DIRECTION('center_axis',(1.,0.,0.));
#1235=DIRECTION('ref_axis',(0.,0.,-1.));
#1236=DIRECTION('center_axis',(1.,0.,0.));
#1237=DIRECTION('ref_axis',(0.,0.,-1.));
#1238=DIRECTION('center_axis',(1.,0.,0.));
#1239=DIRECTION('ref_axis',(0.,0.,-1.));
#1240=DIRECTION('center_axis',(1.,0.,0.));
#1241=DIRECTION('ref_axis',(0.,0.,-1.));
#1242=DIRECTION('center_axis',(0.104082764569976,0.994568639219773,0.));
#1243=DIRECTION('ref_axis',(0.,0.,1.));
#1244=DIRECTION('',(0.,0.,-1.));
#1245=DIRECTION('',(0.994568639219773,-0.104082764569976,0.));
#1246=DIRECTION('',(0.,0.,-1.));
#1247=DIRECTION('center_axis',(0.104082764569976,-0.994568639219773,0.));
#1248=DIRECTION('ref_axis',(0.,0.,-1.));
#1249=DIRECTION('',(0.,0.,1.));
#1250=DIRECTION('',(0.994568639219773,0.104082764569976,0.));
#1251=DIRECTION('',(0.,0.,-1.));
#1252=DIRECTION('center_axis',(0.,0.,1.));
#1253=DIRECTION('ref_axis',(0.994568639219773,-0.104082764569976,0.));
#1254=DIRECTION('',(0.,-1.,0.));
#1255=DIRECTION('',(-0.994568639219773,-0.104082764569976,0.));
#1256=DIRECTION('',(0.104082764569976,-0.994568639219773,0.));
#1257=DIRECTION('center_axis',(0.,0.,1.));
#1258=DIRECTION('ref_axis',(0.994568639219773,-0.104082764569976,0.));
#1259=DIRECTION('',(0.,-1.,0.));
#1260=DIRECTION('',(-0.104082764569976,-0.994568639219773,0.));
#1261=DIRECTION('center_axis',(0.,0.,1.));
#1262=DIRECTION('ref_axis',(0.994568639219773,-0.104082764569976,0.));
#1263=DIRECTION('',(0.,1.,0.));
#1264=DIRECTION('',(-0.104082764569976,0.994568639219773,0.));
#1265=DIRECTION('center_axis',(1.,0.,0.));
#1266=DIRECTION('ref_axis',(0.,0.,-1.));
#1267=DIRECTION('',(1.,0.,0.));
#1268=DIRECTION('center_axis',(-1.,0.,0.));
#1269=DIRECTION('ref_axis',(0.,0.,-1.));
#1270=DIRECTION('center_axis',(1.,0.,0.));
#1271=DIRECTION('ref_axis',(0.,0.,-1.));
#1272=DIRECTION('',(1.,0.,0.));
#1273=DIRECTION('center_axis',(-1.,0.,0.));
#1274=DIRECTION('ref_axis',(0.,0.,-1.));
#1275=DIRECTION('center_axis',(1.,0.,0.));
#1276=DIRECTION('ref_axis',(0.,0.,-1.));
#1277=DIRECTION('',(1.,0.,0.));
#1278=DIRECTION('center_axis',(-1.,0.,0.));
#1279=DIRECTION('ref_axis',(0.,0.,-1.));
#1280=DIRECTION('center_axis',(1.,0.,0.));
#1281=DIRECTION('ref_axis',(0.,0.,-1.));
#1282=DIRECTION('',(1.,0.,0.));
#1283=DIRECTION('center_axis',(-1.,0.,0.));
#1284=DIRECTION('ref_axis',(0.,0.,-1.));
#1285=DIRECTION('center_axis',(0.104082764569976,-0.994568639219773,0.));
#1286=DIRECTION('ref_axis',(0.,0.,-1.));
#1287=DIRECTION('',(0.,0.,1.));
#1288=DIRECTION('',(0.,0.,-1.));
#1289=DIRECTION('center_axis',(1.,0.,0.));
#1290=DIRECTION('ref_axis',(0.,0.,-1.));
#1291=DIRECTION('',(0.,0.,-1.));
#1292=DIRECTION('',(0.,1.,0.));
#1293=DIRECTION('center_axis',(-1.,0.,0.));
#1294=DIRECTION('ref_axis',(0.,0.,-1.));
#1295=DIRECTION('center_axis',(0.104082764569976,0.994568639219773,0.));
#1296=DIRECTION('ref_axis',(0.,0.,1.));
#1297=DIRECTION('',(0.,0.,-1.));
#1298=DIRECTION('',(-0.994568639219773,0.104082764569976,0.));
#1299=DIRECTION('center_axis',(1.,0.,0.));
#1300=DIRECTION('ref_axis',(0.,0.,-1.));
#1301=DIRECTION('center_axis',(1.,0.,0.));
#1302=DIRECTION('ref_axis',(0.,0.,-1.));
#1303=DIRECTION('',(1.,0.,0.));
#1304=DIRECTION('center_axis',(0.994568639219773,0.104082764569976,0.));
#1305=DIRECTION('ref_axis',(0.,0.,-1.));
#1306=DIRECTION('center_axis',(0.994568639219773,-0.104082764569976,0.));
#1307=DIRECTION('ref_axis',(0.,0.,-1.));
#1308=DIRECTION('center_axis',(0.,0.,1.));
#1309=DIRECTION('ref_axis',(0.994568639219773,-0.104082764569976,0.));
#1310=DIRECTION('',(0.104082764569976,0.994568639219773,0.));
#1311=DIRECTION('center_axis',(1.,0.,0.));
#1312=DIRECTION('ref_axis',(0.,0.,-1.));
#1313=DIRECTION('center_axis',(-1.,0.,0.));
#1314=DIRECTION('ref_axis',(0.,0.,-1.));
#1315=DIRECTION('center_axis',(-1.,0.,0.));
#1316=DIRECTION('ref_axis',(0.,0.,-1.));
#1317=DIRECTION('center_axis',(-1.,0.,0.));
#1318=DIRECTION('ref_axis',(0.,0.,-1.));
#1319=DIRECTION('center_axis',(-1.,0.,0.));
#1320=DIRECTION('ref_axis',(0.,0.,-1.));
#1321=DIRECTION('center_axis',(-1.,0.,0.));
#1322=DIRECTION('ref_axis',(0.,0.,-1.));
#1323=DIRECTION('center_axis',(-1.,0.,0.));
#1324=DIRECTION('ref_axis',(0.,0.,-1.));
#1325=DIRECTION('center_axis',(-1.,0.,0.));
#1326=DIRECTION('ref_axis',(0.,0.,-1.));
#1327=DIRECTION('center_axis',(0.994568639219773,0.104082764569976,0.));
#1328=DIRECTION('ref_axis',(0.,0.,-1.));
#1329=DIRECTION('center_axis',(1.,0.,0.));
#1330=DIRECTION('ref_axis',(0.,0.,-1.));
#1331=DIRECTION('',(-1.,0.,0.));
#1332=DIRECTION('center_axis',(-1.,0.,0.));
#1333=DIRECTION('ref_axis',(0.,0.,-1.));
#1334=DIRECTION('center_axis',(0.994568639219773,-0.104082764569976,0.));
#1335=DIRECTION('ref_axis',(0.,0.,-1.));
#1336=DIRECTION('center_axis',(1.,0.,0.));
#1337=DIRECTION('ref_axis',(0.,0.,-1.));
#1338=DIRECTION('center_axis',(1.,0.,0.));
#1339=DIRECTION('ref_axis',(0.,0.,-1.));
#1340=DIRECTION('',(1.,0.,0.));
#1341=DIRECTION('center_axis',(1.,0.,0.));
#1342=DIRECTION('ref_axis',(0.,0.,-1.));
#1343=DIRECTION('center_axis',(1.,0.,0.));
#1344=DIRECTION('ref_axis',(0.,0.,-1.));
#1345=DIRECTION('',(1.,0.,0.));
#1346=DIRECTION('center_axis',(1.,0.,0.));
#1347=DIRECTION('ref_axis',(0.,0.,-1.));
#1348=DIRECTION('center_axis',(1.,0.,0.));
#1349=DIRECTION('ref_axis',(0.,0.,-1.));
#1350=DIRECTION('',(1.,0.,0.));
#1351=DIRECTION('center_axis',(1.,0.,0.));
#1352=DIRECTION('ref_axis',(0.,0.,-1.));
#1353=DIRECTION('center_axis',(1.,0.,0.));
#1354=DIRECTION('ref_axis',(0.,0.,-1.));
#1355=DIRECTION('',(1.,0.,0.));
#1356=DIRECTION('center_axis',(1.,0.,0.));
#1357=DIRECTION('ref_axis',(0.,0.,-1.));
#1358=DIRECTION('center_axis',(1.,0.,0.));
#1359=DIRECTION('ref_axis',(0.,0.,-1.));
#1360=DIRECTION('',(1.,0.,0.));
#1361=DIRECTION('center_axis',(1.,0.,0.));
#1362=DIRECTION('ref_axis',(0.,0.,-1.));
#1363=DIRECTION('center_axis',(1.,0.,0.));
#1364=DIRECTION('ref_axis',(0.,0.,-1.));
#1365=DIRECTION('',(1.,0.,0.));
#1366=DIRECTION('center_axis',(1.,0.,0.));
#1367=DIRECTION('ref_axis',(0.,0.,-1.));
#1368=DIRECTION('center_axis',(1.,0.,0.));
#1369=DIRECTION('ref_axis',(0.,0.,-1.));
#1370=DIRECTION('',(1.,0.,0.));
#1371=DIRECTION('center_axis',(-1.,0.,0.));
#1372=DIRECTION('ref_axis',(0.,0.,1.));
#1373=CARTESIAN_POINT('',(0.,0.,0.));
#1374=CARTESIAN_POINT('Origin',(412.75,-45.,248.));
#1375=CARTESIAN_POINT('',(412.5,-45.,249.8));
#1376=CARTESIAN_POINT('Origin',(412.5,-45.,248.));
#1377=CARTESIAN_POINT('',(422.75,-45.,249.8));
#1378=CARTESIAN_POINT('',(412.75,-45.,249.8));
#1379=CARTESIAN_POINT('Origin',(422.75,-45.,248.));
#1380=CARTESIAN_POINT('Origin',(422.75,-45.,248.));
#1381=CARTESIAN_POINT('Origin',(412.75,45.,232.));
#1382=CARTESIAN_POINT('',(412.5,45.,233.8));
#1383=CARTESIAN_POINT('Origin',(412.5,45.,232.));
#1384=CARTESIAN_POINT('',(422.75,45.,233.8));
#1385=CARTESIAN_POINT('',(412.75,45.,233.8));
#1386=CARTESIAN_POINT('Origin',(422.75,45.,232.));
#1387=CARTESIAN_POINT('Origin',(422.75,45.,232.));
#1388=CARTESIAN_POINT('Origin',(407.,-40.,258.));
#1389=CARTESIAN_POINT('',(412.5,-40.,258.));
#1390=CARTESIAN_POINT('',(412.5,-46.6476151587624,258.));
#1391=CARTESIAN_POINT('',(412.5,-36.743,258.));
#1392=CARTESIAN_POINT('',(412.75,-40.,258.));
#1393=CARTESIAN_POINT('',(407.,-40.,258.));
#1394=CARTESIAN_POINT('',(412.75,-46.6476151587624,258.));
#1395=CARTESIAN_POINT('',(412.75,-40.,258.));
#1396=CARTESIAN_POINT('',(418.75,-46.6476151587624,258.));
#1397=CARTESIAN_POINT('Origin',(412.75,-56.,240.));
#1398=CARTESIAN_POINT('',(412.75,-46.6476151587624,222.));
#1399=CARTESIAN_POINT('Origin',(412.75,0.,240.));
#1400=CARTESIAN_POINT('',(412.75,-40.,222.));
#1401=CARTESIAN_POINT('',(412.75,-40.,222.));
#1402=CARTESIAN_POINT('',(412.75,-72.,222.));
#1403=CARTESIAN_POINT('',(412.75,-45.,250.15));
#1404=CARTESIAN_POINT('Origin',(412.75,-45.,248.));
#1405=CARTESIAN_POINT('',(412.75,-45.,234.15));
#1406=CARTESIAN_POINT('Origin',(412.75,-45.,232.));
#1407=CARTESIAN_POINT('Origin',(407.,-45.,232.));
#1408=CARTESIAN_POINT('',(412.5,-45.,234.15));
#1409=CARTESIAN_POINT('',(407.,-45.,234.15));
#1410=CARTESIAN_POINT('Origin',(412.5,-45.,232.));
#1411=CARTESIAN_POINT('Origin',(407.,-45.,248.));
#1412=CARTESIAN_POINT('',(412.5,-45.,250.15));
#1413=CARTESIAN_POINT('',(407.,-45.,250.15));
#1414=CARTESIAN_POINT('Origin',(412.5,-45.,248.));
#1415=CARTESIAN_POINT('Origin',(407.,-40.,222.));
#1416=CARTESIAN_POINT('',(412.5,-40.,222.));
#1417=CARTESIAN_POINT('',(412.5,-40.,221.));
#1418=CARTESIAN_POINT('',(407.,-40.,222.));
#1419=CARTESIAN_POINT('Origin',(407.,-72.,222.));
#1420=CARTESIAN_POINT('',(412.5,-46.6476151587624,222.));
#1421=CARTESIAN_POINT('',(412.5,-52.743,222.));
#1422=CARTESIAN_POINT('',(418.75,-46.6476151587624,222.));
#1423=CARTESIAN_POINT('Origin',(407.,40.,258.));
#1424=CARTESIAN_POINT('',(412.5,40.,258.));
#1425=CARTESIAN_POINT('',(412.5,40.,222.));
#1426=CARTESIAN_POINT('',(412.5,40.,239.));
#1427=CARTESIAN_POINT('',(412.75,40.,258.));
#1428=CARTESIAN_POINT('',(407.,40.,258.));
#1429=CARTESIAN_POINT('',(412.75,40.,222.));
#1430=CARTESIAN_POINT('',(412.75,40.,258.));
#1431=CARTESIAN_POINT('',(407.,40.,222.));
#1432=CARTESIAN_POINT('Origin',(407.,40.,222.));
#1433=CARTESIAN_POINT('',(412.5,46.6476151587624,222.));
#1434=CARTESIAN_POINT('',(412.5,3.257,222.));
#1435=CARTESIAN_POINT('',(412.75,46.6476151587624,222.));
#1436=CARTESIAN_POINT('',(412.75,40.,222.));
#1437=CARTESIAN_POINT('',(418.75,46.6476151587624,222.));
#1438=CARTESIAN_POINT('Origin',(407.,45.,232.));
#1439=CARTESIAN_POINT('',(412.75,45.,234.15));
#1440=CARTESIAN_POINT('Origin',(412.75,45.,232.));
#1441=CARTESIAN_POINT('',(412.5,45.,234.15));
#1442=CARTESIAN_POINT('',(407.,45.,234.15));
#1443=CARTESIAN_POINT('Origin',(412.5,45.,232.));
#1444=CARTESIAN_POINT('Origin',(407.,45.,248.));
#1445=CARTESIAN_POINT('',(412.75,45.,250.15));
#1446=CARTESIAN_POINT('Origin',(412.75,45.,248.));
#1447=CARTESIAN_POINT('',(412.5,45.,250.15));
#1448=CARTESIAN_POINT('',(407.,45.,250.15));
#1449=CARTESIAN_POINT('Origin',(412.5,45.,248.));
#1450=CARTESIAN_POINT('Origin',(407.,72.,258.));
#1451=CARTESIAN_POINT('',(412.5,46.6476151587624,258.));
#1452=CARTESIAN_POINT('',(412.5,19.257,258.));
#1453=CARTESIAN_POINT('',(412.75,46.6476151587624,258.));
#1454=CARTESIAN_POINT('',(418.75,46.6476151587624,258.));
#1455=CARTESIAN_POINT('',(412.75,72.,258.));
#1456=CARTESIAN_POINT('Origin',(412.75,56.,240.));
#1457=CARTESIAN_POINT('Origin',(412.75,0.,240.));
#1458=CARTESIAN_POINT('Origin',(412.75,-45.,232.));
#1459=CARTESIAN_POINT('',(412.5,-45.,233.8));
#1460=CARTESIAN_POINT('Origin',(412.5,-45.,232.));
#1461=CARTESIAN_POINT('',(422.75,-45.,233.8));
#1462=CARTESIAN_POINT('',(412.75,-45.,233.8));
#1463=CARTESIAN_POINT('Origin',(422.75,-45.,232.));
#1464=CARTESIAN_POINT('Origin',(422.75,-45.,232.));
#1465=CARTESIAN_POINT('Origin',(412.75,45.,248.));
#1466=CARTESIAN_POINT('',(412.5,45.,249.8));
#1467=CARTESIAN_POINT('Origin',(412.5,45.,248.));
#1468=CARTESIAN_POINT('',(422.75,45.,249.8));
#1469=CARTESIAN_POINT('',(412.75,45.,249.8));
#1470=CARTESIAN_POINT('Origin',(422.75,45.,248.));
#1471=CARTESIAN_POINT('Origin',(422.75,45.,248.));
#1472=CARTESIAN_POINT('Origin',(418.75,0.,240.));
#1473=CARTESIAN_POINT('',(413.721564534454,36.6606055596467,274.));
#1474=CARTESIAN_POINT('',(425.,36.6606055596467,274.));
#1475=CARTESIAN_POINT('',(418.75,36.6606055596467,274.));
#1476=CARTESIAN_POINT('',(413.58366894172,37.978274556879,272.521541502246));
#1477=CARTESIAN_POINT('Origin',(417.5581395349,0.,240.));
#1478=CARTESIAN_POINT('',(425.,39.1730068769168,271.072102153234));
#1479=CARTESIAN_POINT('Origin',(50.6801565111346,0.,240.));
#1480=CARTESIAN_POINT('',(425.,39.1730068769168,208.927897846766));
#1481=CARTESIAN_POINT('Origin',(425.,0.,240.));
#1482=CARTESIAN_POINT('',(413.58366894172,37.978274556879,207.478458497754));
#1483=CARTESIAN_POINT('Origin',(50.6801565111346,0.,240.));
#1484=CARTESIAN_POINT('',(413.721564534454,36.6606055596467,206.));
#1485=CARTESIAN_POINT('Origin',(417.5581395349,0.,240.));
#1486=CARTESIAN_POINT('',(425.,36.6606055596467,206.));
#1487=CARTESIAN_POINT('',(418.75,36.6606055596467,206.));
#1488=CARTESIAN_POINT('',(425.,-36.6606055596467,206.));
#1489=CARTESIAN_POINT('Origin',(425.,0.,240.));
#1490=CARTESIAN_POINT('',(413.721564534454,-36.6606055596467,206.));
#1491=CARTESIAN_POINT('',(418.75,-36.6606055596467,206.));
#1492=CARTESIAN_POINT('',(413.58366894172,-37.97827455687,207.478458497743));
#1493=CARTESIAN_POINT('Origin',(417.5581395349,0.,240.));
#1494=CARTESIAN_POINT('',(425.,-39.1730068769078,208.927897846754));
#1495=CARTESIAN_POINT('Origin',(50.6801565112205,0.,240.));
#1496=CARTESIAN_POINT('',(425.,-39.1730068769078,271.072102153246));
#1497=CARTESIAN_POINT('Origin',(425.,0.,240.));
#1498=CARTESIAN_POINT('',(413.58366894172,-37.97827455687,272.521541502257));
#1499=CARTESIAN_POINT('Origin',(50.6801565112205,0.,240.));
#1500=CARTESIAN_POINT('',(413.721564534454,-36.6606055596467,274.));
#1501=CARTESIAN_POINT('Origin',(417.5581395349,0.,240.));
#1502=CARTESIAN_POINT('',(425.,-36.6606055596467,274.));
#1503=CARTESIAN_POINT('',(418.75,-36.6606055596467,274.));
#1504=CARTESIAN_POINT('',(425.,-6.12323399573677E-15,290.));
#1505=CARTESIAN_POINT('Origin',(425.,0.,240.));
#1506=CARTESIAN_POINT('',(412.5,-6.12323399573677E-15,290.));
#1507=CARTESIAN_POINT('',(418.75,-6.12323399573677E-15,290.));
#1508=CARTESIAN_POINT('Origin',(412.5,0.,240.));
#1509=CARTESIAN_POINT('Origin',(412.5,0.,240.));
#1510=CARTESIAN_POINT('Origin',(412.5,0.,240.));
#1511=CARTESIAN_POINT('Origin',(425.,0.,240.));
#1512=CARTESIAN_POINT('Origin',(412.5,-33.486,220.));
#1513=CARTESIAN_POINT('Origin',(412.5,-33.486,220.));
#1514=CARTESIAN_POINT('Origin',(412.5,-33.486,220.));
#1515=CARTESIAN_POINT('Origin',(412.5,-33.486,220.));
#1516=CARTESIAN_POINT('Origin',(412.5,-33.486,220.));
#1517=CARTESIAN_POINT('',(412.5,-4.77612251667468E-15,279.));
#1518=CARTESIAN_POINT('Origin',(412.5,0.,240.));
#1519=CARTESIAN_POINT('',(412.5,-34.,215.25));
#1520=CARTESIAN_POINT('Origin',(412.5,-34.,213.));
#1521=CARTESIAN_POINT('',(412.5,-34.,269.25));
#1522=CARTESIAN_POINT('Origin',(412.5,-34.,267.));
#1523=CARTESIAN_POINT('',(412.5,34.,215.25));
#1524=CARTESIAN_POINT('Origin',(412.5,34.,213.));
#1525=CARTESIAN_POINT('',(412.5,34.,269.25));
#1526=CARTESIAN_POINT('Origin',(412.5,34.,267.));
#1527=CARTESIAN_POINT('Origin',(456.58366894172,-42.47827455687,240.));
#1528=CARTESIAN_POINT('',(425.,-39.1730068769078,274.));
#1529=CARTESIAN_POINT('',(425.,-39.1730068769078,240.));
#1530=CARTESIAN_POINT('',(413.58366894172,-37.97827455687,274.));
#1531=CARTESIAN_POINT('',(456.58366894172,-42.47827455687,274.));
#1532=CARTESIAN_POINT('',(413.58366894172,-37.97827455687,240.));
#1533=CARTESIAN_POINT('Origin',(456.58366894172,42.478274556879,240.));
#1534=CARTESIAN_POINT('',(425.,39.1730068769168,206.));
#1535=CARTESIAN_POINT('',(425.,39.1730068769168,240.));
#1536=CARTESIAN_POINT('',(413.58366894172,37.978274556879,206.));
#1537=CARTESIAN_POINT('',(456.58366894172,42.478274556879,206.));
#1538=CARTESIAN_POINT('',(413.58366894172,37.978274556879,240.));
#1539=CARTESIAN_POINT('Origin',(457.,-38.5,274.));
#1540=CARTESIAN_POINT('',(425.,39.1730068769168,274.));
#1541=CARTESIAN_POINT('',(425.,-19.25,274.));
#1542=CARTESIAN_POINT('',(413.58366894172,37.978274556879,274.));
#1543=CARTESIAN_POINT('',(456.58366894172,42.478274556879,274.));
#1544=CARTESIAN_POINT('',(414.,34.,274.));
#1545=CARTESIAN_POINT('Origin',(457.,-38.5,274.));
#1546=CARTESIAN_POINT('',(425.,-19.25,274.));
#1547=CARTESIAN_POINT('',(414.,-34.,274.));
#1548=CARTESIAN_POINT('Origin',(457.,-38.5,206.));
#1549=CARTESIAN_POINT('',(425.,-19.25,206.));
#1550=CARTESIAN_POINT('',(414.,34.,206.));
#1551=CARTESIAN_POINT('Origin',(425.5,34.,267.));
#1552=CARTESIAN_POINT('',(425.,34.,269.25));
#1553=CARTESIAN_POINT('',(425.5,34.,269.25));
#1554=CARTESIAN_POINT('Origin',(425.,34.,267.));
#1555=CARTESIAN_POINT('Origin',(425.5,34.,213.));
#1556=CARTESIAN_POINT('',(425.,34.,215.25));
#1557=CARTESIAN_POINT('',(425.5,34.,215.25));
#1558=CARTESIAN_POINT('Origin',(425.,34.,213.));
#1559=CARTESIAN_POINT('Origin',(425.5,-34.,267.));
#1560=CARTESIAN_POINT('',(425.,-34.,269.25));
#1561=CARTESIAN_POINT('',(425.5,-34.,269.25));
#1562=CARTESIAN_POINT('Origin',(425.,-34.,267.));
#1563=CARTESIAN_POINT('Origin',(425.5,-34.,213.));
#1564=CARTESIAN_POINT('',(425.,-34.,215.25));
#1565=CARTESIAN_POINT('',(425.5,-34.,215.25));
#1566=CARTESIAN_POINT('Origin',(425.,-34.,213.));
#1567=CARTESIAN_POINT('Origin',(456.58366894172,42.478274556879,240.));
#1568=CARTESIAN_POINT('',(425.,39.1730068769168,240.));
#1569=CARTESIAN_POINT('',(413.58366894172,37.978274556879,240.));
#1570=CARTESIAN_POINT('Origin',(425.,0.,240.));
#1571=CARTESIAN_POINT('',(425.,-39.1730068769078,206.));
#1572=CARTESIAN_POINT('',(425.,-39.1730068769078,240.));
#1573=CARTESIAN_POINT('',(425.,-19.25,206.));
#1574=CARTESIAN_POINT('',(425.,-4.40872847693047E-15,276.));
#1575=CARTESIAN_POINT('Origin',(425.,0.,240.));
#1576=CARTESIAN_POINT('Origin',(456.58366894172,-42.47827455687,240.));
#1577=CARTESIAN_POINT('',(413.58366894172,-37.97827455687,206.));
#1578=CARTESIAN_POINT('',(413.58366894172,-37.97827455687,240.));
#1579=CARTESIAN_POINT('',(456.58366894172,-42.47827455687,206.));
#1580=CARTESIAN_POINT('Origin',(418.75,0.,240.));
#1581=CARTESIAN_POINT('',(414.,-4.40872847693047E-15,276.));
#1582=CARTESIAN_POINT('Origin',(414.,0.,240.));
#1583=CARTESIAN_POINT('',(418.75,-4.40872847693047E-15,276.));
#1584=CARTESIAN_POINT('Origin',(414.,34.,240.));
#1585=CARTESIAN_POINT('Origin',(414.,-34.,240.));
#1586=CARTESIAN_POINT('Origin',(457.,-38.5,206.));
#1587=CARTESIAN_POINT('',(414.,-34.,206.));
#1588=CARTESIAN_POINT('Origin',(414.,0.,240.));
#1589=CARTESIAN_POINT('',(414.,15.5,215.85321248268));
#1590=CARTESIAN_POINT('Origin',(414.,15.5,213.15321248268));
#1591=CARTESIAN_POINT('',(414.,31.,242.7));
#1592=CARTESIAN_POINT('Origin',(414.,31.,240.));
#1593=CARTESIAN_POINT('',(414.,1.126675055216E-15,249.2));
#1594=CARTESIAN_POINT('Origin',(414.,0.,240.));
#1595=CARTESIAN_POINT('',(414.,15.5,269.54678751731));
#1596=CARTESIAN_POINT('Origin',(414.,15.5,266.84678751731));
#1597=CARTESIAN_POINT('',(414.,-15.5,215.85321248268));
#1598=CARTESIAN_POINT('Origin',(414.,-15.5,213.15321248268));
#1599=CARTESIAN_POINT('',(414.,-15.5,269.54678751731));
#1600=CARTESIAN_POINT('Origin',(414.,-15.5,266.84678751731));
#1601=CARTESIAN_POINT('',(414.,-31.,242.7));
#1602=CARTESIAN_POINT('Origin',(414.,-31.,240.));
#1603=CARTESIAN_POINT('Origin',(414.,34.,240.));
#1604=CARTESIAN_POINT('Origin',(409.,0.,240.));
#1605=CARTESIAN_POINT('',(404.,-4.776122516675E-15,279.));
#1606=CARTESIAN_POINT('',(409.,-4.77612251667468E-15,279.));
#1607=CARTESIAN_POINT('Origin',(404.,0.,240.));
#1608=CARTESIAN_POINT('Origin',(414.,-34.,240.));
#1609=CARTESIAN_POINT('Origin',(409.,-31.,240.));
#1610=CARTESIAN_POINT('',(404.,-31.,242.7));
#1611=CARTESIAN_POINT('Origin',(404.,-31.,240.));
#1612=CARTESIAN_POINT('',(409.,-31.,242.7));
#1613=CARTESIAN_POINT('Origin',(409.,-15.5,266.84678751731));
#1614=CARTESIAN_POINT('',(404.,-15.5,269.54678751731));
#1615=CARTESIAN_POINT('Origin',(404.,-15.5,266.84678751731));
#1616=CARTESIAN_POINT('',(409.,-15.5,269.54678751731));
#1617=CARTESIAN_POINT('Origin',(409.,-15.5,213.15321248268));
#1618=CARTESIAN_POINT('',(404.,-15.5,215.85321248268));
#1619=CARTESIAN_POINT('Origin',(404.,-15.5,213.15321248268));
#1620=CARTESIAN_POINT('',(409.,-15.5,215.85321248268));
#1621=CARTESIAN_POINT('Origin',(409.,15.5,266.84678751731));
#1622=CARTESIAN_POINT('',(404.,15.5,269.54678751731));
#1623=CARTESIAN_POINT('Origin',(404.,15.5,266.84678751731));
#1624=CARTESIAN_POINT('',(409.,15.5,269.54678751731));
#1625=CARTESIAN_POINT('Origin',(409.,0.,240.));
#1626=CARTESIAN_POINT('',(404.,-1.126675055216E-15,249.2));
#1627=CARTESIAN_POINT('Origin',(404.,0.,240.));
#1628=CARTESIAN_POINT('',(409.,-1.12667505521557E-15,249.2));
#1629=CARTESIAN_POINT('Origin',(409.,31.,240.));
#1630=CARTESIAN_POINT('',(404.,31.,242.7));
#1631=CARTESIAN_POINT('Origin',(404.,31.,240.));
#1632=CARTESIAN_POINT('',(409.,31.,242.7));
#1633=CARTESIAN_POINT('Origin',(409.,15.5,213.15321248268));
#1634=CARTESIAN_POINT('',(404.,15.5,215.85321248268));
#1635=CARTESIAN_POINT('Origin',(404.,15.5,213.15321248268));
#1636=CARTESIAN_POINT('',(409.,15.5,215.85321248268));
#1637=CARTESIAN_POINT('Origin',(404.,0.,240.));
#1638=UNCERTAINTY_MEASURE_WITH_UNIT(LENGTH_MEASURE(0.01),#1642,
'DISTANCE_ACCURACY_VALUE',
'Maximum model space distance between geometric entities at asserted c
onnectivities');
#1639=UNCERTAINTY_MEASURE_WITH_UNIT(LENGTH_MEASURE(0.01),#1642,
'DISTANCE_ACCURACY_VALUE',
'Maximum model space distance between geometric entities at asserted c
onnectivities');
#1640=(
GEOMETRIC_REPRESENTATION_CONTEXT(3)
GLOBAL_UNCERTAINTY_ASSIGNED_CONTEXT((#1638))
GLOBAL_UNIT_ASSIGNED_CONTEXT((#1642,#1644,#1645))
REPRESENTATION_CONTEXT('','3D')
);
#1641=(
GEOMETRIC_REPRESENTATION_CONTEXT(3)
GLOBAL_UNCERTAINTY_ASSIGNED_CONTEXT((#1639))
GLOBAL_UNIT_ASSIGNED_CONTEXT((#1642,#1644,#1645))
REPRESENTATION_CONTEXT('','3D')
);
#1642=(
LENGTH_UNIT()
NAMED_UNIT(*)
SI_UNIT(.MILLI.,.METRE.)
);
#1643=(
LENGTH_UNIT()
NAMED_UNIT(*)
SI_UNIT($,.METRE.)
);
#1644=(
NAMED_UNIT(*)
PLANE_ANGLE_UNIT()
SI_UNIT($,.RADIAN.)
);
#1645=(
NAMED_UNIT(*)
SI_UNIT($,.STERADIAN.)
SOLID_ANGLE_UNIT()
);
#1646=SHAPE_DEFINITION_REPRESENTATION(#1647,#1648);
#1647=PRODUCT_DEFINITION_SHAPE('',$,#1650);
#1648=SHAPE_REPRESENTATION('',(#962),#1640);
#1649=PRODUCT_DEFINITION_CONTEXT('part definition',#1654,'design');
#1650=PRODUCT_DEFINITION('2026-09-30-14-03-41-818',
'EXPORT_TMP_PRINT_V015_P401A_J4_OutputFlangeWithTabs',#1651,#1649);
#1651=PRODUCT_DEFINITION_FORMATION('',$,#1656);
#1652=PRODUCT_RELATED_PRODUCT_CATEGORY(
'EXPORT_TMP_PRINT_V015_P401A_J4_OutputFlangeWithTabs',
'EXPORT_TMP_PRINT_V015_P401A_J4_OutputFlangeWithTabs',(#1656));
#1653=APPLICATION_PROTOCOL_DEFINITION('international standard',
'automotive_design',2009,#1654);
#1654=APPLICATION_CONTEXT(
'Core Data for Automotive Mechanical Design Process');
#1655=PRODUCT_CONTEXT('part definition',#1654,'mechanical');
#1656=PRODUCT('2026-09-30-14-03-41-818',
'EXPORT_TMP_PRINT_V015_P401A_J4_OutputFlangeWithTabs',$,(#1655));
#1657=PRESENTATION_STYLE_ASSIGNMENT((#1658));
#1658=SURFACE_STYLE_USAGE(.BOTH.,#1659);
#1659=SURFACE_SIDE_STYLE('',(#1660));
#1660=SURFACE_STYLE_FILL_AREA(#1661);
#1661=FILL_AREA_STYLE('Steel - Satin',(#1662));
#1662=FILL_AREA_STYLE_COLOUR('Steel - Satin',#1663);
#1663=COLOUR_RGB('Steel - Satin',0.627450980392157,0.627450980392157,0.627450980392157);
ENDSEC;
END-ISO-10303-21;
