ISO-10303-21;
HEADER;
/* Generated by software containing ST-Developer
 * from STEP Tools, Inc. (www.steptools.com) 
 */

FILE_DESCRIPTION(
/* description */ (''),
/* implementation_level */ '2;1');

FILE_NAME(
/* name */ 'PRINT_V007_P305_J4_PG19_FrontFlangeCarriage.step',
/* time_stamp */ '2026-08-12T23:08:49+02:00',
/* author */ (''),
/* organization */ (''),
/* preprocessor_version */ 'ST-DEVELOPER v20.1',
/* originating_system */ 'Autodesk Translation Framework v15.8.0.0',
/* authorisation */ '');

FILE_SCHEMA (('AUTOMOTIVE_DESIGN { 1 0 10303 214 3 1 1 }'));
ENDSEC;

DATA;
#10=MECHANICAL_DESIGN_GEOMETRIC_PRESENTATION_REPRESENTATION('',(#13),#994);
#11=SHAPE_REPRESENTATION_RELATIONSHIP('SRR','None',#1001,#12);
#12=ADVANCED_BREP_SHAPE_REPRESENTATION('',(#14),#993);
#13=STYLED_ITEM('',(#1010),#14);
#14=MANIFOLD_SOLID_BREP('PRINT_V007_P305_J4_PG19_FrontFlangeCarriage',#448);
#15=PLANE('',#486);
#16=PLANE('',#496);
#17=PLANE('',#497);
#18=PLANE('',#498);
#19=PLANE('',#499);
#20=PLANE('',#500);
#21=FACE_BOUND('',#58,.T.);
#22=FACE_BOUND('',#61,.T.);
#23=FACE_BOUND('',#65,.T.);
#24=FACE_BOUND('',#66,.T.);
#25=FACE_BOUND('',#67,.T.);
#26=FACE_BOUND('',#68,.T.);
#27=FACE_BOUND('',#69,.T.);
#28=FACE_BOUND('',#74,.T.);
#29=FACE_BOUND('',#75,.T.);
#30=FACE_BOUND('',#76,.T.);
#31=FACE_BOUND('',#77,.T.);
#32=FACE_BOUND('',#78,.T.);
#33=FACE_BOUND('',#80,.T.);
#34=FACE_BOUND('',#81,.T.);
#35=FACE_BOUND('',#83,.T.);
#36=FACE_BOUND('',#84,.T.);
#37=FACE_OUTER_BOUND('',#54,.T.);
#38=FACE_OUTER_BOUND('',#55,.T.);
#39=FACE_OUTER_BOUND('',#56,.T.);
#40=FACE_OUTER_BOUND('',#57,.T.);
#41=FACE_OUTER_BOUND('',#59,.T.);
#42=FACE_OUTER_BOUND('',#60,.T.);
#43=FACE_OUTER_BOUND('',#62,.T.);
#44=FACE_OUTER_BOUND('',#63,.T.);
#45=FACE_OUTER_BOUND('',#64,.T.);
#46=FACE_OUTER_BOUND('',#70,.T.);
#47=FACE_OUTER_BOUND('',#71,.T.);
#48=FACE_OUTER_BOUND('',#72,.T.);
#49=FACE_OUTER_BOUND('',#73,.T.);
#50=FACE_OUTER_BOUND('',#79,.T.);
#51=FACE_OUTER_BOUND('',#82,.T.);
#52=FACE_OUTER_BOUND('',#85,.T.);
#53=FACE_OUTER_BOUND('',#86,.T.);
#54=EDGE_LOOP('',(#290,#291,#292,#293,#294,#295,#296,#297,#298,#299,#300,
#301,#302,#303,#304,#305));
#55=EDGE_LOOP('',(#306,#307,#308,#309,#310,#311,#312,#313,#314,#315,#316,
#317,#318,#319));
#56=EDGE_LOOP('',(#320,#321,#322,#323,#324,#325,#326,#327,#328,#329));
#57=EDGE_LOOP('',(#330,#331,#332,#333));
#58=EDGE_LOOP('',(#334,#335,#336));
#59=EDGE_LOOP('',(#337,#338,#339,#340,#341,#342,#343,#344,#345,#346));
#60=EDGE_LOOP('',(#347,#348,#349,#350));
#61=EDGE_LOOP('',(#351,#352,#353));
#62=EDGE_LOOP('',(#354,#355,#356,#357));
#63=EDGE_LOOP('',(#358,#359,#360,#361));
#64=EDGE_LOOP('',(#362,#363,#364,#365,#366,#367,#368,#369));
#65=EDGE_LOOP('',(#370));
#66=EDGE_LOOP('',(#371));
#67=EDGE_LOOP('',(#372));
#68=EDGE_LOOP('',(#373));
#69=EDGE_LOOP('',(#374));
#70=EDGE_LOOP('',(#375,#376,#377,#378));
#71=EDGE_LOOP('',(#379,#380,#381,#382));
#72=EDGE_LOOP('',(#383,#384,#385,#386));
#73=EDGE_LOOP('',(#387,#388,#389,#390,#391,#392,#393,#394));
#74=EDGE_LOOP('',(#395));
#75=EDGE_LOOP('',(#396));
#76=EDGE_LOOP('',(#397));
#77=EDGE_LOOP('',(#398));
#78=EDGE_LOOP('',(#399));
#79=EDGE_LOOP('',(#400,#401,#402,#403));
#80=EDGE_LOOP('',(#404));
#81=EDGE_LOOP('',(#405));
#82=EDGE_LOOP('',(#406,#407,#408,#409));
#83=EDGE_LOOP('',(#410));
#84=EDGE_LOOP('',(#411));
#85=EDGE_LOOP('',(#412,#413,#414,#415));
#86=EDGE_LOOP('',(#416,#417,#418,#419));
#87=B_SPLINE_CURVE_WITH_KNOTS('',3,(#617,#618,#619,#620,#621,#622),
 .UNSPECIFIED.,.F.,.F.,(4,2,4),(0.,0.0683009450672492,0.0800230680658417),
 .UNSPECIFIED.);
#88=B_SPLINE_CURVE_WITH_KNOTS('',3,(#624,#625,#626,#627,#628,#629),
 .UNSPECIFIED.,.F.,.F.,(4,2,4),(2.02495779338785,2.03667991638646,2.1049808614537),
 .UNSPECIFIED.);
#89=B_SPLINE_CURVE_WITH_KNOTS('',3,(#633,#634,#635,#636,#637,#638),
 .UNSPECIFIED.,.F.,.F.,(4,2,4),(0.,0.0683009450672492,0.0800230680658419),
 .UNSPECIFIED.);
#90=B_SPLINE_CURVE_WITH_KNOTS('',3,(#640,#641,#642,#643,#644,#645),
 .UNSPECIFIED.,.F.,.F.,(4,2,4),(2.02495779338785,2.03667991638646,2.1049808614537),
 .UNSPECIFIED.);
#91=B_SPLINE_CURVE_WITH_KNOTS('',3,(#650,#651,#652,#653,#654,#655,#656,
#657,#658,#659,#660,#661,#662,#663,#664,#665,#666,#667,#668,#669,#670,#671,
#672,#673,#674,#675,#676,#677),.UNSPECIFIED.,.F.,.F.,(4,2,2,2,2,2,2,2,2,
2,2,2,2,4),(1.05249043072685,1.1207913757941,1.18909232086135,1.24957679778552,
1.30340264339506,1.3572284890046,1.46798206754744,1.57873564609028,1.68948922463312,
1.80024280317595,1.85406864878549,1.90789449439503,1.96837897131921,2.02495779338785),
 .UNSPECIFIED.);
#92=B_SPLINE_CURVE_WITH_KNOTS('',3,(#678,#679,#680,#681,#682,#683,#684,
#685,#686,#687,#688,#689,#690,#691,#692,#693,#694,#695,#696,#697,#698,#699,
#700,#701,#702,#703,#704,#705),.UNSPECIFIED.,.F.,.F.,(4,2,2,2,2,2,2,2,2,
2,2,2,2,4),(0.0800230680658419,0.136601890134498,0.197086367058671,0.25091221266821,
0.30473805827775,0.415491636820588,0.526245215363426,0.636998793906264,
0.747752372449102,0.801578218058642,0.855404063668181,0.915888540592354,
0.984189485659603,1.05249043072685),.UNSPECIFIED.);
#93=B_SPLINE_CURVE_WITH_KNOTS('',3,(#707,#708,#709,#710,#711,#712,#713,
#714,#715,#716,#717,#718,#719,#720,#721,#722,#723,#724,#725,#726,#727,#728,
#729,#730,#731,#732,#733,#734),.UNSPECIFIED.,.F.,.F.,(4,2,2,2,2,2,2,2,2,
2,2,2,2,4),(1.05249043072685,1.1207913757941,1.18909232086135,1.24957679778552,
1.30340264339506,1.3572284890046,1.46798206754744,1.57873564609028,1.68948922463312,
1.80024280317595,1.85406864878549,1.90789449439503,1.96837897131921,2.02495779338785),
 .UNSPECIFIED.);
#94=B_SPLINE_CURVE_WITH_KNOTS('',3,(#735,#736,#737,#738,#739,#740,#741,
#742,#743,#744,#745,#746,#747,#748,#749,#750,#751,#752,#753,#754,#755,#756,
#757,#758,#759,#760,#761,#762),.UNSPECIFIED.,.F.,.F.,(4,2,2,2,2,2,2,2,2,
2,2,2,2,4),(0.0800230680658417,0.136601890134498,0.197086367058671,0.25091221266821,
0.30473805827775,0.415491636820588,0.526245215363426,0.636998793906264,
0.747752372449102,0.801578218058642,0.855404063668181,0.915888540592354,
0.984189485659603,1.05249043072685),.UNSPECIFIED.);
#95=B_SPLINE_CURVE_WITH_KNOTS('',3,(#769,#770,#771,#772,#773,#774,#775,
#776,#777,#778,#779,#780,#781,#782,#783,#784,#785,#786,#787,#788,#789,#790,
#791,#792,#793,#794,#795,#796),.UNSPECIFIED.,.F.,.F.,(4,2,2,2,2,2,2,2,2,
2,2,2,2,4),(0.,0.0683009450672492,0.136601890134498,0.197086367058671,0.250912212668209,
0.304738058277747,0.415491636820586,0.526245215363425,0.636998793906263,
0.747752372449101,0.801578218058639,0.855404063668177,0.915888540592353,
0.972467362661003),.UNSPECIFIED.);
#96=B_SPLINE_CURVE_WITH_KNOTS('',3,(#798,#799,#800,#801,#802,#803,#804,
#805,#806,#807,#808,#809,#810,#811,#812,#813,#814,#815,#816,#817,#818,#819,
#820,#821,#822,#823,#824,#825),.UNSPECIFIED.,.F.,.F.,(4,2,2,2,2,2,2,2,2,
2,2,2,2,4),(1.1325134987927,1.18909232086135,1.24957679778553,1.30340264339506,
1.3572284890046,1.46798206754744,1.57873564609028,1.68948922463312,1.80024280317596,
1.85406864878549,1.90789449439503,1.9683789713192,2.03667991638645,2.1049808614537),
 .UNSPECIFIED.);
#97=B_SPLINE_CURVE_WITH_KNOTS('',3,(#829,#830,#831,#832,#833,#834,#835,
#836,#837,#838,#839,#840,#841,#842,#843,#844,#845,#846,#847,#848,#849,#850,
#851,#852,#853,#854,#855,#856),.UNSPECIFIED.,.F.,.F.,(4,2,2,2,2,2,2,2,2,
2,2,2,2,4),(0.,0.0683009450672492,0.136601890134498,0.197086367058671,0.250912212668209,
0.304738058277747,0.415491636820586,0.526245215363425,0.636998793906263,
0.747752372449101,0.801578218058639,0.855404063668177,0.915888540592353,
0.972467362661001),.UNSPECIFIED.);
#98=B_SPLINE_CURVE_WITH_KNOTS('',3,(#858,#859,#860,#861,#862,#863,#864,
#865,#866,#867,#868,#869,#870,#871,#872,#873,#874,#875,#876,#877,#878,#879,
#880,#881,#882,#883,#884,#885),.UNSPECIFIED.,.F.,.F.,(4,2,2,2,2,2,2,2,2,
2,2,2,2,4),(1.1325134987927,1.18909232086135,1.24957679778553,1.30340264339506,
1.3572284890046,1.46798206754744,1.57873564609028,1.68948922463312,1.80024280317596,
1.85406864878549,1.90789449439503,1.9683789713192,2.03667991638645,2.1049808614537),
 .UNSPECIFIED.);
#99=B_SPLINE_CURVE_WITH_KNOTS('',3,(#889,#890,#891,#892,#893,#894,#895,
#896,#897,#898),.UNSPECIFIED.,.F.,.F.,(4,2,2,2,4),(0.972467362661001,0.984189485659602,
1.05249043072685,1.1207913757941,1.1325134987927),.UNSPECIFIED.);
#100=B_SPLINE_CURVE_WITH_KNOTS('',3,(#899,#900,#901,#902,#903,#904,#905,
#906,#907,#908),.UNSPECIFIED.,.F.,.F.,(4,2,2,2,4),(0.972467362661003,0.984189485659602,
1.05249043072685,1.1207913757941,1.1325134987927),.UNSPECIFIED.);
#101=LINE('',#615,#130);
#102=LINE('',#631,#131);
#103=LINE('',#647,#132);
#104=LINE('',#767,#133);
#105=LINE('',#827,#134);
#106=LINE('',#887,#135);
#107=LINE('',#912,#136);
#108=LINE('',#914,#137);
#109=LINE('',#920,#138);
#110=LINE('',#925,#139);
#111=LINE('',#927,#140);
#112=LINE('',#933,#141);
#113=LINE('',#939,#142);
#114=LINE('',#944,#143);
#115=LINE('',#948,#144);
#116=LINE('',#952,#145);
#117=LINE('',#956,#146);
#118=LINE('',#960,#147);
#119=LINE('',#963,#148);
#120=LINE('',#966,#149);
#121=LINE('',#969,#150);
#122=LINE('',#972,#151);
#123=LINE('',#975,#152);
#124=LINE('',#978,#153);
#125=LINE('',#980,#154);
#126=LINE('',#983,#155);
#127=LINE('',#984,#156);
#128=LINE('',#985,#157);
#129=LINE('',#986,#158);
#130=VECTOR('',#507,2.7);
#131=VECTOR('',#508,2.7);
#132=VECTOR('',#509,2.7);
#133=VECTOR('',#516,2.7);
#134=VECTOR('',#517,2.7);
#135=VECTOR('',#518,2.7);
#136=VECTOR('',#525,1.7);
#137=VECTOR('',#526,1.7);
#138=VECTOR('',#533,1.7);
#139=VECTOR('',#540,1.7);
#140=VECTOR('',#541,1.7);
#141=VECTOR('',#548,1.7);
#142=VECTOR('',#555,11.25);
#143=VECTOR('',#560,10.);
#144=VECTOR('',#563,10.);
#145=VECTOR('',#568,10.);
#146=VECTOR('',#571,10.);
#147=VECTOR('',#574,10.);
#148=VECTOR('',#577,10.);
#149=VECTOR('',#580,10.);
#150=VECTOR('',#583,10.);
#151=VECTOR('',#586,10.);
#152=VECTOR('',#589,10.);
#153=VECTOR('',#592,10.);
#154=VECTOR('',#593,10.);
#155=VECTOR('',#598,10.);
#156=VECTOR('',#599,10.);
#157=VECTOR('',#600,10.);
#158=VECTOR('',#601,10.);
#159=CIRCLE('',#463,2.7);
#160=CIRCLE('',#464,2.7);
#161=CIRCLE('',#466,2.7);
#162=CIRCLE('',#467,2.7);
#163=CIRCLE('',#469,1.7);
#164=CIRCLE('',#470,1.7);
#165=CIRCLE('',#472,1.7);
#166=CIRCLE('',#473,1.7);
#167=CIRCLE('',#475,1.7);
#168=CIRCLE('',#476,1.7);
#169=CIRCLE('',#478,1.7);
#170=CIRCLE('',#479,1.7);
#171=CIRCLE('',#481,11.25);
#172=CIRCLE('',#482,11.25);
#173=CIRCLE('',#484,7.);
#174=CIRCLE('',#485,7.);
#175=CIRCLE('',#487,7.);
#176=CIRCLE('',#488,7.);
#177=CIRCLE('',#489,7.);
#178=CIRCLE('',#491,7.);
#179=CIRCLE('',#493,7.);
#180=CIRCLE('',#495,7.);
#181=VERTEX_POINT('',#612);
#182=VERTEX_POINT('',#614);
#183=VERTEX_POINT('',#616);
#184=VERTEX_POINT('',#623);
#185=VERTEX_POINT('',#630);
#186=VERTEX_POINT('',#632);
#187=VERTEX_POINT('',#639);
#188=VERTEX_POINT('',#646);
#189=VERTEX_POINT('',#649);
#190=VERTEX_POINT('',#706);
#191=VERTEX_POINT('',#764);
#192=VERTEX_POINT('',#766);
#193=VERTEX_POINT('',#768);
#194=VERTEX_POINT('',#797);
#195=VERTEX_POINT('',#826);
#196=VERTEX_POINT('',#828);
#197=VERTEX_POINT('',#857);
#198=VERTEX_POINT('',#886);
#199=VERTEX_POINT('',#910);
#200=VERTEX_POINT('',#913);
#201=VERTEX_POINT('',#917);
#202=VERTEX_POINT('',#919);
#203=VERTEX_POINT('',#923);
#204=VERTEX_POINT('',#926);
#205=VERTEX_POINT('',#930);
#206=VERTEX_POINT('',#932);
#207=VERTEX_POINT('',#936);
#208=VERTEX_POINT('',#938);
#209=VERTEX_POINT('',#942);
#210=VERTEX_POINT('',#943);
#211=VERTEX_POINT('',#945);
#212=VERTEX_POINT('',#947);
#213=VERTEX_POINT('',#951);
#214=VERTEX_POINT('',#953);
#215=VERTEX_POINT('',#955);
#216=VERTEX_POINT('',#957);
#217=VERTEX_POINT('',#959);
#218=VERTEX_POINT('',#961);
#219=VERTEX_POINT('',#965);
#220=VERTEX_POINT('',#967);
#221=VERTEX_POINT('',#971);
#222=VERTEX_POINT('',#973);
#223=VERTEX_POINT('',#977);
#224=VERTEX_POINT('',#979);
#225=EDGE_CURVE('',#181,#181,#159,.T.);
#226=EDGE_CURVE('',#181,#182,#101,.T.);
#227=EDGE_CURVE('',#183,#182,#87,.T.);
#228=EDGE_CURVE('',#184,#183,#88,.T.);
#229=EDGE_CURVE('',#184,#185,#102,.T.);
#230=EDGE_CURVE('',#186,#185,#89,.T.);
#231=EDGE_CURVE('',#187,#186,#90,.T.);
#232=EDGE_CURVE('',#187,#188,#103,.T.);
#233=EDGE_CURVE('',#188,#188,#160,.T.);
#234=EDGE_CURVE('',#189,#187,#91,.T.);
#235=EDGE_CURVE('',#185,#189,#92,.T.);
#236=EDGE_CURVE('',#190,#184,#93,.T.);
#237=EDGE_CURVE('',#182,#190,#94,.T.);
#238=EDGE_CURVE('',#191,#191,#161,.T.);
#239=EDGE_CURVE('',#191,#192,#104,.T.);
#240=EDGE_CURVE('',#193,#192,#95,.T.);
#241=EDGE_CURVE('',#194,#193,#96,.T.);
#242=EDGE_CURVE('',#194,#195,#105,.T.);
#243=EDGE_CURVE('',#196,#195,#97,.T.);
#244=EDGE_CURVE('',#197,#196,#98,.T.);
#245=EDGE_CURVE('',#197,#198,#106,.T.);
#246=EDGE_CURVE('',#198,#198,#162,.T.);
#247=EDGE_CURVE('',#195,#197,#99,.T.);
#248=EDGE_CURVE('',#192,#194,#100,.T.);
#249=EDGE_CURVE('',#199,#199,#163,.T.);
#250=EDGE_CURVE('',#199,#186,#107,.T.);
#251=EDGE_CURVE('',#189,#200,#108,.T.);
#252=EDGE_CURVE('',#200,#200,#164,.T.);
#253=EDGE_CURVE('',#201,#201,#165,.T.);
#254=EDGE_CURVE('',#201,#202,#109,.T.);
#255=EDGE_CURVE('',#202,#202,#166,.T.);
#256=EDGE_CURVE('',#203,#203,#167,.T.);
#257=EDGE_CURVE('',#203,#183,#110,.T.);
#258=EDGE_CURVE('',#190,#204,#111,.T.);
#259=EDGE_CURVE('',#204,#204,#168,.T.);
#260=EDGE_CURVE('',#205,#205,#169,.T.);
#261=EDGE_CURVE('',#205,#206,#112,.T.);
#262=EDGE_CURVE('',#206,#206,#170,.T.);
#263=EDGE_CURVE('',#207,#207,#171,.T.);
#264=EDGE_CURVE('',#207,#208,#113,.T.);
#265=EDGE_CURVE('',#208,#208,#172,.T.);
#266=EDGE_CURVE('',#209,#210,#114,.T.);
#267=EDGE_CURVE('',#211,#210,#173,.T.);
#268=EDGE_CURVE('',#212,#211,#115,.T.);
#269=EDGE_CURVE('',#209,#212,#174,.T.);
#270=EDGE_CURVE('',#213,#212,#116,.T.);
#271=EDGE_CURVE('',#213,#214,#175,.T.);
#272=EDGE_CURVE('',#214,#215,#117,.T.);
#273=EDGE_CURVE('',#215,#216,#176,.T.);
#274=EDGE_CURVE('',#217,#216,#118,.T.);
#275=EDGE_CURVE('',#217,#218,#177,.T.);
#276=EDGE_CURVE('',#209,#218,#119,.T.);
#277=EDGE_CURVE('',#219,#217,#120,.T.);
#278=EDGE_CURVE('',#220,#219,#178,.T.);
#279=EDGE_CURVE('',#220,#218,#121,.T.);
#280=EDGE_CURVE('',#221,#213,#122,.T.);
#281=EDGE_CURVE('',#222,#221,#179,.T.);
#282=EDGE_CURVE('',#222,#214,#123,.T.);
#283=EDGE_CURVE('',#216,#223,#124,.T.);
#284=EDGE_CURVE('',#215,#224,#125,.T.);
#285=EDGE_CURVE('',#223,#224,#180,.T.);
#286=EDGE_CURVE('',#210,#220,#126,.T.);
#287=EDGE_CURVE('',#223,#219,#127,.T.);
#288=EDGE_CURVE('',#222,#224,#128,.T.);
#289=EDGE_CURVE('',#211,#221,#129,.T.);
#290=ORIENTED_EDGE('',*,*,#225,.F.);
#291=ORIENTED_EDGE('',*,*,#226,.T.);
#292=ORIENTED_EDGE('',*,*,#227,.F.);
#293=ORIENTED_EDGE('',*,*,#228,.F.);
#294=ORIENTED_EDGE('',*,*,#229,.T.);
#295=ORIENTED_EDGE('',*,*,#230,.F.);
#296=ORIENTED_EDGE('',*,*,#231,.F.);
#297=ORIENTED_EDGE('',*,*,#232,.T.);
#298=ORIENTED_EDGE('',*,*,#233,.F.);
#299=ORIENTED_EDGE('',*,*,#232,.F.);
#300=ORIENTED_EDGE('',*,*,#234,.F.);
#301=ORIENTED_EDGE('',*,*,#235,.F.);
#302=ORIENTED_EDGE('',*,*,#229,.F.);
#303=ORIENTED_EDGE('',*,*,#236,.F.);
#304=ORIENTED_EDGE('',*,*,#237,.F.);
#305=ORIENTED_EDGE('',*,*,#226,.F.);
#306=ORIENTED_EDGE('',*,*,#238,.F.);
#307=ORIENTED_EDGE('',*,*,#239,.T.);
#308=ORIENTED_EDGE('',*,*,#240,.F.);
#309=ORIENTED_EDGE('',*,*,#241,.F.);
#310=ORIENTED_EDGE('',*,*,#242,.T.);
#311=ORIENTED_EDGE('',*,*,#243,.F.);
#312=ORIENTED_EDGE('',*,*,#244,.F.);
#313=ORIENTED_EDGE('',*,*,#245,.T.);
#314=ORIENTED_EDGE('',*,*,#246,.F.);
#315=ORIENTED_EDGE('',*,*,#245,.F.);
#316=ORIENTED_EDGE('',*,*,#247,.F.);
#317=ORIENTED_EDGE('',*,*,#242,.F.);
#318=ORIENTED_EDGE('',*,*,#248,.F.);
#319=ORIENTED_EDGE('',*,*,#239,.F.);
#320=ORIENTED_EDGE('',*,*,#249,.F.);
#321=ORIENTED_EDGE('',*,*,#250,.T.);
#322=ORIENTED_EDGE('',*,*,#230,.T.);
#323=ORIENTED_EDGE('',*,*,#235,.T.);
#324=ORIENTED_EDGE('',*,*,#251,.T.);
#325=ORIENTED_EDGE('',*,*,#252,.F.);
#326=ORIENTED_EDGE('',*,*,#251,.F.);
#327=ORIENTED_EDGE('',*,*,#234,.T.);
#328=ORIENTED_EDGE('',*,*,#231,.T.);
#329=ORIENTED_EDGE('',*,*,#250,.F.);
#330=ORIENTED_EDGE('',*,*,#253,.F.);
#331=ORIENTED_EDGE('',*,*,#254,.T.);
#332=ORIENTED_EDGE('',*,*,#255,.F.);
#333=ORIENTED_EDGE('',*,*,#254,.F.);
#334=ORIENTED_EDGE('',*,*,#243,.T.);
#335=ORIENTED_EDGE('',*,*,#247,.T.);
#336=ORIENTED_EDGE('',*,*,#244,.T.);
#337=ORIENTED_EDGE('',*,*,#256,.F.);
#338=ORIENTED_EDGE('',*,*,#257,.T.);
#339=ORIENTED_EDGE('',*,*,#227,.T.);
#340=ORIENTED_EDGE('',*,*,#237,.T.);
#341=ORIENTED_EDGE('',*,*,#258,.T.);
#342=ORIENTED_EDGE('',*,*,#259,.F.);
#343=ORIENTED_EDGE('',*,*,#258,.F.);
#344=ORIENTED_EDGE('',*,*,#236,.T.);
#345=ORIENTED_EDGE('',*,*,#228,.T.);
#346=ORIENTED_EDGE('',*,*,#257,.F.);
#347=ORIENTED_EDGE('',*,*,#260,.F.);
#348=ORIENTED_EDGE('',*,*,#261,.T.);
#349=ORIENTED_EDGE('',*,*,#262,.F.);
#350=ORIENTED_EDGE('',*,*,#261,.F.);
#351=ORIENTED_EDGE('',*,*,#240,.T.);
#352=ORIENTED_EDGE('',*,*,#248,.T.);
#353=ORIENTED_EDGE('',*,*,#241,.T.);
#354=ORIENTED_EDGE('',*,*,#263,.F.);
#355=ORIENTED_EDGE('',*,*,#264,.T.);
#356=ORIENTED_EDGE('',*,*,#265,.F.);
#357=ORIENTED_EDGE('',*,*,#264,.F.);
#358=ORIENTED_EDGE('',*,*,#266,.T.);
#359=ORIENTED_EDGE('',*,*,#267,.F.);
#360=ORIENTED_EDGE('',*,*,#268,.F.);
#361=ORIENTED_EDGE('',*,*,#269,.F.);
#362=ORIENTED_EDGE('',*,*,#269,.T.);
#363=ORIENTED_EDGE('',*,*,#270,.F.);
#364=ORIENTED_EDGE('',*,*,#271,.T.);
#365=ORIENTED_EDGE('',*,*,#272,.T.);
#366=ORIENTED_EDGE('',*,*,#273,.T.);
#367=ORIENTED_EDGE('',*,*,#274,.F.);
#368=ORIENTED_EDGE('',*,*,#275,.T.);
#369=ORIENTED_EDGE('',*,*,#276,.F.);
#370=ORIENTED_EDGE('',*,*,#252,.T.);
#371=ORIENTED_EDGE('',*,*,#255,.T.);
#372=ORIENTED_EDGE('',*,*,#259,.T.);
#373=ORIENTED_EDGE('',*,*,#262,.T.);
#374=ORIENTED_EDGE('',*,*,#265,.T.);
#375=ORIENTED_EDGE('',*,*,#277,.F.);
#376=ORIENTED_EDGE('',*,*,#278,.F.);
#377=ORIENTED_EDGE('',*,*,#279,.T.);
#378=ORIENTED_EDGE('',*,*,#275,.F.);
#379=ORIENTED_EDGE('',*,*,#280,.F.);
#380=ORIENTED_EDGE('',*,*,#281,.F.);
#381=ORIENTED_EDGE('',*,*,#282,.T.);
#382=ORIENTED_EDGE('',*,*,#271,.F.);
#383=ORIENTED_EDGE('',*,*,#283,.F.);
#384=ORIENTED_EDGE('',*,*,#273,.F.);
#385=ORIENTED_EDGE('',*,*,#284,.T.);
#386=ORIENTED_EDGE('',*,*,#285,.F.);
#387=ORIENTED_EDGE('',*,*,#286,.T.);
#388=ORIENTED_EDGE('',*,*,#278,.T.);
#389=ORIENTED_EDGE('',*,*,#287,.F.);
#390=ORIENTED_EDGE('',*,*,#285,.T.);
#391=ORIENTED_EDGE('',*,*,#288,.F.);
#392=ORIENTED_EDGE('',*,*,#281,.T.);
#393=ORIENTED_EDGE('',*,*,#289,.F.);
#394=ORIENTED_EDGE('',*,*,#267,.T.);
#395=ORIENTED_EDGE('',*,*,#249,.T.);
#396=ORIENTED_EDGE('',*,*,#253,.T.);
#397=ORIENTED_EDGE('',*,*,#256,.T.);
#398=ORIENTED_EDGE('',*,*,#260,.T.);
#399=ORIENTED_EDGE('',*,*,#263,.T.);
#400=ORIENTED_EDGE('',*,*,#288,.T.);
#401=ORIENTED_EDGE('',*,*,#284,.F.);
#402=ORIENTED_EDGE('',*,*,#272,.F.);
#403=ORIENTED_EDGE('',*,*,#282,.F.);
#404=ORIENTED_EDGE('',*,*,#225,.T.);
#405=ORIENTED_EDGE('',*,*,#238,.T.);
#406=ORIENTED_EDGE('',*,*,#276,.T.);
#407=ORIENTED_EDGE('',*,*,#279,.F.);
#408=ORIENTED_EDGE('',*,*,#286,.F.);
#409=ORIENTED_EDGE('',*,*,#266,.F.);
#410=ORIENTED_EDGE('',*,*,#233,.T.);
#411=ORIENTED_EDGE('',*,*,#246,.T.);
#412=ORIENTED_EDGE('',*,*,#270,.T.);
#413=ORIENTED_EDGE('',*,*,#268,.T.);
#414=ORIENTED_EDGE('',*,*,#289,.T.);
#415=ORIENTED_EDGE('',*,*,#280,.T.);
#416=ORIENTED_EDGE('',*,*,#274,.T.);
#417=ORIENTED_EDGE('',*,*,#283,.T.);
#418=ORIENTED_EDGE('',*,*,#287,.T.);
#419=ORIENTED_EDGE('',*,*,#277,.T.);
#420=CYLINDRICAL_SURFACE('',#462,2.7);
#421=CYLINDRICAL_SURFACE('',#465,2.7);
#422=CYLINDRICAL_SURFACE('',#468,1.7);
#423=CYLINDRICAL_SURFACE('',#471,1.7);
#424=CYLINDRICAL_SURFACE('',#474,1.7);
#425=CYLINDRICAL_SURFACE('',#477,1.7);
#426=CYLINDRICAL_SURFACE('',#480,11.25);
#427=CYLINDRICAL_SURFACE('',#483,7.);
#428=CYLINDRICAL_SURFACE('',#490,7.);
#429=CYLINDRICAL_SURFACE('',#492,7.);
#430=CYLINDRICAL_SURFACE('',#494,7.);
#431=ADVANCED_FACE('',(#37),#420,.F.);
#432=ADVANCED_FACE('',(#38),#421,.F.);
#433=ADVANCED_FACE('',(#39),#422,.F.);
#434=ADVANCED_FACE('',(#40,#21),#423,.F.);
#435=ADVANCED_FACE('',(#41),#424,.F.);
#436=ADVANCED_FACE('',(#42,#22),#425,.F.);
#437=ADVANCED_FACE('',(#43),#426,.F.);
#438=ADVANCED_FACE('',(#44),#427,.T.);
#439=ADVANCED_FACE('',(#45,#23,#24,#25,#26,#27),#15,.F.);
#440=ADVANCED_FACE('',(#46),#428,.T.);
#441=ADVANCED_FACE('',(#47),#429,.T.);
#442=ADVANCED_FACE('',(#48),#430,.T.);
#443=ADVANCED_FACE('',(#49,#28,#29,#30,#31,#32),#16,.F.);
#444=ADVANCED_FACE('',(#50,#33,#34),#17,.F.);
#445=ADVANCED_FACE('',(#51,#35,#36),#18,.F.);
#446=ADVANCED_FACE('',(#52),#19,.T.);
#447=ADVANCED_FACE('',(#53),#20,.F.);
#448=CLOSED_SHELL('',(#431,#432,#433,#434,#435,#436,#437,#438,#439,#440,
#441,#442,#443,#444,#445,#446,#447));
#449=DERIVED_UNIT_ELEMENT(#451,1.);
#450=DERIVED_UNIT_ELEMENT(#996,-3.);
#451=(
MASS_UNIT()
NAMED_UNIT(*)
SI_UNIT(.KILO.,.GRAM.)
);
#452=DERIVED_UNIT((#449,#450));
#453=MEASURE_REPRESENTATION_ITEM('density measure',
POSITIVE_RATIO_MEASURE(7850.),#452);
#454=PROPERTY_DEFINITION_REPRESENTATION(#459,#456);
#455=PROPERTY_DEFINITION_REPRESENTATION(#460,#457);
#456=REPRESENTATION('material name',(#458),#993);
#457=REPRESENTATION('density',(#453),#993);
#458=DESCRIPTIVE_REPRESENTATION_ITEM('Steel','Steel');
#459=PROPERTY_DEFINITION('material property','material name',#1003);
#460=PROPERTY_DEFINITION('material property','density of part',#1003);
#461=AXIS2_PLACEMENT_3D('',#610,#501,#502);
#462=AXIS2_PLACEMENT_3D('',#611,#503,#504);
#463=AXIS2_PLACEMENT_3D('',#613,#505,#506);
#464=AXIS2_PLACEMENT_3D('',#648,#510,#511);
#465=AXIS2_PLACEMENT_3D('',#763,#512,#513);
#466=AXIS2_PLACEMENT_3D('',#765,#514,#515);
#467=AXIS2_PLACEMENT_3D('',#888,#519,#520);
#468=AXIS2_PLACEMENT_3D('',#909,#521,#522);
#469=AXIS2_PLACEMENT_3D('',#911,#523,#524);
#470=AXIS2_PLACEMENT_3D('',#915,#527,#528);
#471=AXIS2_PLACEMENT_3D('',#916,#529,#530);
#472=AXIS2_PLACEMENT_3D('',#918,#531,#532);
#473=AXIS2_PLACEMENT_3D('',#921,#534,#535);
#474=AXIS2_PLACEMENT_3D('',#922,#536,#537);
#475=AXIS2_PLACEMENT_3D('',#924,#538,#539);
#476=AXIS2_PLACEMENT_3D('',#928,#542,#543);
#477=AXIS2_PLACEMENT_3D('',#929,#544,#545);
#478=AXIS2_PLACEMENT_3D('',#931,#546,#547);
#479=AXIS2_PLACEMENT_3D('',#934,#549,#550);
#480=AXIS2_PLACEMENT_3D('',#935,#551,#552);
#481=AXIS2_PLACEMENT_3D('',#937,#553,#554);
#482=AXIS2_PLACEMENT_3D('',#940,#556,#557);
#483=AXIS2_PLACEMENT_3D('',#941,#558,#559);
#484=AXIS2_PLACEMENT_3D('',#946,#561,#562);
#485=AXIS2_PLACEMENT_3D('',#949,#564,#565);
#486=AXIS2_PLACEMENT_3D('',#950,#566,#567);
#487=AXIS2_PLACEMENT_3D('',#954,#569,#570);
#488=AXIS2_PLACEMENT_3D('',#958,#572,#573);
#489=AXIS2_PLACEMENT_3D('',#962,#575,#576);
#490=AXIS2_PLACEMENT_3D('',#964,#578,#579);
#491=AXIS2_PLACEMENT_3D('',#968,#581,#582);
#492=AXIS2_PLACEMENT_3D('',#970,#584,#585);
#493=AXIS2_PLACEMENT_3D('',#974,#587,#588);
#494=AXIS2_PLACEMENT_3D('',#976,#590,#591);
#495=AXIS2_PLACEMENT_3D('',#981,#594,#595);
#496=AXIS2_PLACEMENT_3D('',#982,#596,#597);
#497=AXIS2_PLACEMENT_3D('',#987,#602,#603);
#498=AXIS2_PLACEMENT_3D('',#988,#604,#605);
#499=AXIS2_PLACEMENT_3D('',#989,#606,#607);
#500=AXIS2_PLACEMENT_3D('',#990,#608,#609);
#501=DIRECTION('axis',(0.,0.,1.));
#502=DIRECTION('refdir',(1.,0.,0.));
#503=DIRECTION('center_axis',(0.,1.,0.));
#504=DIRECTION('ref_axis',(1.,0.,0.));
#505=DIRECTION('center_axis',(0.,1.,0.));
#506=DIRECTION('ref_axis',(1.,0.,0.));
#507=DIRECTION('',(0.,1.,0.));
#508=DIRECTION('',(0.,1.,0.));
#509=DIRECTION('',(0.,1.,0.));
#510=DIRECTION('center_axis',(0.,-1.,0.));
#511=DIRECTION('ref_axis',(1.,0.,0.));
#512=DIRECTION('center_axis',(0.,1.,0.));
#513=DIRECTION('ref_axis',(1.,0.,0.));
#514=DIRECTION('center_axis',(0.,1.,0.));
#515=DIRECTION('ref_axis',(1.,0.,0.));
#516=DIRECTION('',(0.,1.,0.));
#517=DIRECTION('',(0.,1.,0.));
#518=DIRECTION('',(0.,1.,0.));
#519=DIRECTION('center_axis',(0.,-1.,0.));
#520=DIRECTION('ref_axis',(1.,0.,0.));
#521=DIRECTION('center_axis',(1.,0.,0.));
#522=DIRECTION('ref_axis',(0.,0.,-1.));
#523=DIRECTION('center_axis',(1.,0.,0.));
#524=DIRECTION('ref_axis',(0.,0.,-1.));
#525=DIRECTION('',(1.,0.,0.));
#526=DIRECTION('',(1.,0.,0.));
#527=DIRECTION('center_axis',(-1.,0.,0.));
#528=DIRECTION('ref_axis',(0.,0.,-1.));
#529=DIRECTION('center_axis',(1.,0.,0.));
#530=DIRECTION('ref_axis',(0.,0.,-1.));
#531=DIRECTION('center_axis',(1.,0.,0.));
#532=DIRECTION('ref_axis',(0.,0.,-1.));
#533=DIRECTION('',(1.,0.,0.));
#534=DIRECTION('center_axis',(-1.,0.,0.));
#535=DIRECTION('ref_axis',(0.,0.,-1.));
#536=DIRECTION('center_axis',(1.,0.,0.));
#537=DIRECTION('ref_axis',(0.,0.,-1.));
#538=DIRECTION('center_axis',(1.,0.,0.));
#539=DIRECTION('ref_axis',(0.,0.,-1.));
#540=DIRECTION('',(1.,0.,0.));
#541=DIRECTION('',(1.,0.,0.));
#542=DIRECTION('center_axis',(-1.,0.,0.));
#543=DIRECTION('ref_axis',(0.,0.,-1.));
#544=DIRECTION('center_axis',(1.,0.,0.));
#545=DIRECTION('ref_axis',(0.,0.,-1.));
#546=DIRECTION('center_axis',(1.,0.,0.));
#547=DIRECTION('ref_axis',(0.,0.,-1.));
#548=DIRECTION('',(1.,0.,0.));
#549=DIRECTION('center_axis',(-1.,0.,0.));
#550=DIRECTION('ref_axis',(0.,0.,-1.));
#551=DIRECTION('center_axis',(1.,0.,0.));
#552=DIRECTION('ref_axis',(0.,0.,-1.));
#553=DIRECTION('center_axis',(1.,0.,0.));
#554=DIRECTION('ref_axis',(0.,0.,-1.));
#555=DIRECTION('',(1.,0.,0.));
#556=DIRECTION('center_axis',(-1.,0.,0.));
#557=DIRECTION('ref_axis',(0.,0.,-1.));
#558=DIRECTION('center_axis',(1.,0.,0.));
#559=DIRECTION('ref_axis',(0.,0.,-1.));
#560=DIRECTION('',(-1.,0.,0.));
#561=DIRECTION('center_axis',(-1.,0.,0.));
#562=DIRECTION('ref_axis',(0.,0.,-1.));
#563=DIRECTION('',(-1.,0.,0.));
#564=DIRECTION('center_axis',(1.,0.,0.));
#565=DIRECTION('ref_axis',(0.,0.,-1.));
#566=DIRECTION('center_axis',(-1.,0.,0.));
#567=DIRECTION('ref_axis',(0.,0.,1.));
#568=DIRECTION('',(0.,1.,0.));
#569=DIRECTION('center_axis',(1.,0.,0.));
#570=DIRECTION('ref_axis',(0.,0.,-1.));
#571=DIRECTION('',(0.,0.,-1.));
#572=DIRECTION('center_axis',(1.,0.,0.));
#573=DIRECTION('ref_axis',(0.,0.,-1.));
#574=DIRECTION('',(0.,-1.,0.));
#575=DIRECTION('center_axis',(1.,0.,0.));
#576=DIRECTION('ref_axis',(0.,0.,-1.));
#577=DIRECTION('',(0.,0.,-1.));
#578=DIRECTION('center_axis',(1.,0.,0.));
#579=DIRECTION('ref_axis',(0.,0.,-1.));
#580=DIRECTION('',(1.,0.,0.));
#581=DIRECTION('center_axis',(-1.,0.,0.));
#582=DIRECTION('ref_axis',(0.,0.,-1.));
#583=DIRECTION('',(1.,0.,0.));
#584=DIRECTION('center_axis',(1.,0.,0.));
#585=DIRECTION('ref_axis',(0.,0.,-1.));
#586=DIRECTION('',(1.,0.,0.));
#587=DIRECTION('center_axis',(-1.,0.,0.));
#588=DIRECTION('ref_axis',(0.,0.,-1.));
#589=DIRECTION('',(1.,0.,0.));
#590=DIRECTION('center_axis',(1.,0.,0.));
#591=DIRECTION('ref_axis',(0.,0.,-1.));
#592=DIRECTION('',(-1.,0.,0.));
#593=DIRECTION('',(-1.,0.,0.));
#594=DIRECTION('center_axis',(-1.,0.,0.));
#595=DIRECTION('ref_axis',(0.,0.,-1.));
#596=DIRECTION('center_axis',(1.,0.,0.));
#597=DIRECTION('ref_axis',(0.,0.,-1.));
#598=DIRECTION('',(0.,0.,-1.));
#599=DIRECTION('',(0.,1.,0.));
#600=DIRECTION('',(0.,0.,-1.));
#601=DIRECTION('',(0.,-1.,0.));
#602=DIRECTION('center_axis',(0.,1.,0.));
#603=DIRECTION('ref_axis',(0.,0.,1.));
#604=DIRECTION('center_axis',(0.,-1.,0.));
#605=DIRECTION('ref_axis',(0.,0.,-1.));
#606=DIRECTION('center_axis',(0.,0.,1.));
#607=DIRECTION('ref_axis',(1.,0.,0.));
#608=DIRECTION('center_axis',(0.,0.,1.));
#609=DIRECTION('ref_axis',(1.,0.,0.));
#610=CARTESIAN_POINT('',(0.,0.,0.));
#611=CARTESIAN_POINT('Origin',(376.,0.,317.8935055785));
#612=CARTESIAN_POINT('',(373.3,-31.,317.8935055785));
#613=CARTESIAN_POINT('Origin',(376.,-31.,317.8935055785));
#614=CARTESIAN_POINT('',(373.3,-16.3000000443758,317.893505566666));
#615=CARTESIAN_POINT('',(373.3,0.,317.8935055785));
#616=CARTESIAN_POINT('',(373.307417596433,-15.5,318.0935055785));
#617=CARTESIAN_POINT('Ctrl Pts',(373.307417596433,-15.5,318.0935055785));
#618=CARTESIAN_POINT('Ctrl Pts',(373.307417596433,-15.7276698168908,318.0935055785));
#619=CARTESIAN_POINT('Ctrl Pts',(373.302496823612,-15.9692505941104,318.045027484616));
#620=CARTESIAN_POINT('Ctrl Pts',(373.300208089757,-16.2265878315453,317.930961364698));
#621=CARTESIAN_POINT('Ctrl Pts',(373.29999999983,-16.2636738365705,317.912879533709));
#622=CARTESIAN_POINT('Ctrl Pts',(373.3,-16.3000000443758,317.893505554833));
#623=CARTESIAN_POINT('',(373.3,-14.6999999556241,317.893505566666));
#624=CARTESIAN_POINT('Ctrl Pts',(373.3,-14.6999999556241,317.893505554833));
#625=CARTESIAN_POINT('Ctrl Pts',(373.29999999983,-14.7363261634294,317.912879533709));
#626=CARTESIAN_POINT('Ctrl Pts',(373.300208089757,-14.7734121684547,317.930961364698));
#627=CARTESIAN_POINT('Ctrl Pts',(373.302496823612,-15.0307494058896,318.045027484616));
#628=CARTESIAN_POINT('Ctrl Pts',(373.307417596433,-15.2723301831092,318.0935055785));
#629=CARTESIAN_POINT('Ctrl Pts',(373.307417596433,-15.5,318.0935055785));
#630=CARTESIAN_POINT('',(373.3,14.6999999556242,317.893505566666));
#631=CARTESIAN_POINT('',(373.3,0.,317.8935055785));
#632=CARTESIAN_POINT('',(373.307417596433,15.5,318.0935055785));
#633=CARTESIAN_POINT('Ctrl Pts',(373.307417596433,15.5,318.0935055785));
#634=CARTESIAN_POINT('Ctrl Pts',(373.307417596433,15.2723301831092,318.0935055785));
#635=CARTESIAN_POINT('Ctrl Pts',(373.302496823612,15.0307494058896,318.045027484616));
#636=CARTESIAN_POINT('Ctrl Pts',(373.300208089757,14.7734121684547,317.930961364698));
#637=CARTESIAN_POINT('Ctrl Pts',(373.29999999983,14.7363261634295,317.912879533709));
#638=CARTESIAN_POINT('Ctrl Pts',(373.3,14.6999999556242,317.893505554833));
#639=CARTESIAN_POINT('',(373.3,16.3000000443759,317.893505566666));
#640=CARTESIAN_POINT('Ctrl Pts',(373.3,16.3000000443758,317.893505554833));
#641=CARTESIAN_POINT('Ctrl Pts',(373.29999999983,16.2636738365706,317.912879533709));
#642=CARTESIAN_POINT('Ctrl Pts',(373.300208089757,16.2265878315453,317.930961364698));
#643=CARTESIAN_POINT('Ctrl Pts',(373.302496823612,15.9692505941104,318.045027484616));
#644=CARTESIAN_POINT('Ctrl Pts',(373.307417596433,15.7276698168908,318.0935055785));
#645=CARTESIAN_POINT('Ctrl Pts',(373.307417596433,15.5,318.0935055785));
#646=CARTESIAN_POINT('',(373.3,31.,317.8935055785));
#647=CARTESIAN_POINT('',(373.3,0.,317.8935055785));
#648=CARTESIAN_POINT('Origin',(376.,31.,317.8935055785));
#649=CARTESIAN_POINT('',(378.692582403567,15.5,318.0935055785));
#650=CARTESIAN_POINT('Ctrl Pts',(378.692582403567,15.5,318.0935055785));
#651=CARTESIAN_POINT('Ctrl Pts',(378.692582403567,15.7276698168908,318.0935055785));
#652=CARTESIAN_POINT('Ctrl Pts',(378.697503176388,15.9692505941104,318.045027484616));
#653=CARTESIAN_POINT('Ctrl Pts',(378.701410116951,16.4085333395142,317.850313035924));
#654=CARTESIAN_POINT('Ctrl Pts',(378.698656469739,16.6062427617001,317.704062475));
#655=CARTESIAN_POINT('Ctrl Pts',(378.656446959167,16.8934307921544,317.387792368361));
#656=CARTESIAN_POINT('Ctrl Pts',(378.61212995967,17.0169252936913,317.184521458425));
#657=CARTESIAN_POINT('Ctrl Pts',(378.494406384351,17.1474136532858,316.846436900594));
#658=CARTESIAN_POINT('Ctrl Pts',(378.415681862013,17.185127723074,316.672251278099));
#659=CARTESIAN_POINT('Ctrl Pts',(378.218210098519,17.2072560207211,316.342207751687));
#660=CARTESIAN_POINT('Ctrl Pts',(378.099395264937,17.192553264326,316.186450094592));
#661=CARTESIAN_POINT('Ctrl Pts',(377.730158004521,17.1120935833527,315.788769394537));
#662=CARTESIAN_POINT('Ctrl Pts',(377.421853232969,16.9973854209077,315.568454193731));
#663=CARTESIAN_POINT('Ctrl Pts',(376.742325520858,16.7896928037152,315.271201071331));
#664=CARTESIAN_POINT('Ctrl Pts',(376.369178595143,16.7041594578793,315.1935055785));
#665=CARTESIAN_POINT('Ctrl Pts',(375.630821404857,16.7041594578793,315.1935055785));
#666=CARTESIAN_POINT('Ctrl Pts',(375.257674479142,16.7896928037152,315.271201071331));
#667=CARTESIAN_POINT('Ctrl Pts',(374.578146767031,16.9973854209077,315.568454193731));
#668=CARTESIAN_POINT('Ctrl Pts',(374.269841995479,17.1120935833527,315.788769394537));
#669=CARTESIAN_POINT('Ctrl Pts',(373.900604735063,17.192553264326,316.186450094592));
#670=CARTESIAN_POINT('Ctrl Pts',(373.781789901481,17.2072560207211,316.342207751687));
#671=CARTESIAN_POINT('Ctrl Pts',(373.584318137987,17.185127723074,316.672251278099));
#672=CARTESIAN_POINT('Ctrl Pts',(373.505593615649,17.1474136532858,316.846436900594));
#673=CARTESIAN_POINT('Ctrl Pts',(373.38787004033,17.0169252936913,317.184521458425));
#674=CARTESIAN_POINT('Ctrl Pts',(373.343553040833,16.8934307921544,317.387792368361));
#675=CARTESIAN_POINT('Ctrl Pts',(373.30518546413,16.6323827810024,317.675275388438));
#676=CARTESIAN_POINT('Ctrl Pts',(373.30000000082,16.475334670031,317.799993747821));
#677=CARTESIAN_POINT('Ctrl Pts',(373.3,16.3000000443759,317.893505554833));
#678=CARTESIAN_POINT('Ctrl Pts',(373.3,14.6999999556242,317.893505554833));
#679=CARTESIAN_POINT('Ctrl Pts',(373.30000000082,14.524665329969,317.799993747821));
#680=CARTESIAN_POINT('Ctrl Pts',(373.30518546413,14.3676172189976,317.675275388438));
#681=CARTESIAN_POINT('Ctrl Pts',(373.343553040833,14.1065692078456,317.387792368361));
#682=CARTESIAN_POINT('Ctrl Pts',(373.38787004033,13.9830747063087,317.184521458425));
#683=CARTESIAN_POINT('Ctrl Pts',(373.505593615649,13.8525863467142,316.846436900594));
#684=CARTESIAN_POINT('Ctrl Pts',(373.584318137987,13.814872276926,316.672251278099));
#685=CARTESIAN_POINT('Ctrl Pts',(373.781789901481,13.7927439792789,316.342207751687));
#686=CARTESIAN_POINT('Ctrl Pts',(373.900604735063,13.807446735674,316.186450094592));
#687=CARTESIAN_POINT('Ctrl Pts',(374.269841995479,13.8879064166473,315.788769394537));
#688=CARTESIAN_POINT('Ctrl Pts',(374.578146767031,14.0026145790923,315.568454193731));
#689=CARTESIAN_POINT('Ctrl Pts',(375.257674479142,14.2103071962848,315.271201071331));
#690=CARTESIAN_POINT('Ctrl Pts',(375.630821404857,14.2958405421207,315.1935055785));
#691=CARTESIAN_POINT('Ctrl Pts',(376.369178595143,14.2958405421207,315.1935055785));
#692=CARTESIAN_POINT('Ctrl Pts',(376.742325520858,14.2103071962848,315.271201071331));
#693=CARTESIAN_POINT('Ctrl Pts',(377.421853232969,14.0026145790923,315.568454193731));
#694=CARTESIAN_POINT('Ctrl Pts',(377.730158004521,13.8879064166473,315.788769394537));
#695=CARTESIAN_POINT('Ctrl Pts',(378.099395264937,13.807446735674,316.186450094592));
#696=CARTESIAN_POINT('Ctrl Pts',(378.218210098519,13.7927439792789,316.342207751687));
#697=CARTESIAN_POINT('Ctrl Pts',(378.415681862013,13.814872276926,316.672251278099));
#698=CARTESIAN_POINT('Ctrl Pts',(378.494406384351,13.8525863467142,316.846436900594));
#699=CARTESIAN_POINT('Ctrl Pts',(378.61212995967,13.9830747063087,317.184521458425));
#700=CARTESIAN_POINT('Ctrl Pts',(378.656446959167,14.1065692078456,317.387792368361));
#701=CARTESIAN_POINT('Ctrl Pts',(378.698656469739,14.3937572382999,317.704062475));
#702=CARTESIAN_POINT('Ctrl Pts',(378.701410116951,14.5914666604858,317.850313035924));
#703=CARTESIAN_POINT('Ctrl Pts',(378.697503176388,15.0307494058896,318.045027484616));
#704=CARTESIAN_POINT('Ctrl Pts',(378.692582403567,15.2723301831092,318.0935055785));
#705=CARTESIAN_POINT('Ctrl Pts',(378.692582403567,15.5,318.0935055785));
#706=CARTESIAN_POINT('',(378.692582403567,-15.5,318.0935055785));
#707=CARTESIAN_POINT('Ctrl Pts',(378.692582403567,-15.5,318.0935055785));
#708=CARTESIAN_POINT('Ctrl Pts',(378.692582403567,-15.2723301831092,318.0935055785));
#709=CARTESIAN_POINT('Ctrl Pts',(378.697503176388,-15.0307494058896,318.045027484616));
#710=CARTESIAN_POINT('Ctrl Pts',(378.701410116951,-14.5914666604858,317.850313035924));
#711=CARTESIAN_POINT('Ctrl Pts',(378.698656469739,-14.3937572382999,317.704062475));
#712=CARTESIAN_POINT('Ctrl Pts',(378.656446959167,-14.1065692078456,317.387792368361));
#713=CARTESIAN_POINT('Ctrl Pts',(378.61212995967,-13.9830747063087,317.184521458425));
#714=CARTESIAN_POINT('Ctrl Pts',(378.494406384351,-13.8525863467142,316.846436900594));
#715=CARTESIAN_POINT('Ctrl Pts',(378.415681862013,-13.814872276926,316.672251278099));
#716=CARTESIAN_POINT('Ctrl Pts',(378.218210098519,-13.7927439792789,316.342207751687));
#717=CARTESIAN_POINT('Ctrl Pts',(378.099395264937,-13.807446735674,316.186450094592));
#718=CARTESIAN_POINT('Ctrl Pts',(377.730158004521,-13.8879064166473,315.788769394537));
#719=CARTESIAN_POINT('Ctrl Pts',(377.421853232969,-14.0026145790923,315.568454193731));
#720=CARTESIAN_POINT('Ctrl Pts',(376.742325520858,-14.2103071962848,315.271201071331));
#721=CARTESIAN_POINT('Ctrl Pts',(376.369178595143,-14.2958405421207,315.1935055785));
#722=CARTESIAN_POINT('Ctrl Pts',(375.630821404857,-14.2958405421207,315.1935055785));
#723=CARTESIAN_POINT('Ctrl Pts',(375.257674479142,-14.2103071962848,315.271201071331));
#724=CARTESIAN_POINT('Ctrl Pts',(374.578146767031,-14.0026145790923,315.568454193731));
#725=CARTESIAN_POINT('Ctrl Pts',(374.269841995479,-13.8879064166473,315.788769394537));
#726=CARTESIAN_POINT('Ctrl Pts',(373.900604735063,-13.807446735674,316.186450094592));
#727=CARTESIAN_POINT('Ctrl Pts',(373.781789901481,-13.7927439792789,316.342207751687));
#728=CARTESIAN_POINT('Ctrl Pts',(373.584318137987,-13.814872276926,316.672251278099));
#729=CARTESIAN_POINT('Ctrl Pts',(373.505593615649,-13.8525863467142,316.846436900594));
#730=CARTESIAN_POINT('Ctrl Pts',(373.38787004033,-13.9830747063087,317.184521458425));
#731=CARTESIAN_POINT('Ctrl Pts',(373.343553040833,-14.1065692078456,317.387792368361));
#732=CARTESIAN_POINT('Ctrl Pts',(373.30518546413,-14.3676172189976,317.675275388438));
#733=CARTESIAN_POINT('Ctrl Pts',(373.30000000082,-14.524665329969,317.799993747821));
#734=CARTESIAN_POINT('Ctrl Pts',(373.3,-14.6999999556241,317.893505554833));
#735=CARTESIAN_POINT('Ctrl Pts',(373.3,-16.3000000443758,317.893505554833));
#736=CARTESIAN_POINT('Ctrl Pts',(373.30000000082,-16.4753346700309,317.799993747821));
#737=CARTESIAN_POINT('Ctrl Pts',(373.30518546413,-16.6323827810024,317.675275388438));
#738=CARTESIAN_POINT('Ctrl Pts',(373.343553040833,-16.8934307921544,317.387792368361));
#739=CARTESIAN_POINT('Ctrl Pts',(373.38787004033,-17.0169252936913,317.184521458425));
#740=CARTESIAN_POINT('Ctrl Pts',(373.505593615649,-17.1474136532858,316.846436900594));
#741=CARTESIAN_POINT('Ctrl Pts',(373.584318137987,-17.185127723074,316.672251278099));
#742=CARTESIAN_POINT('Ctrl Pts',(373.781789901481,-17.2072560207211,316.342207751687));
#743=CARTESIAN_POINT('Ctrl Pts',(373.900604735063,-17.192553264326,316.186450094592));
#744=CARTESIAN_POINT('Ctrl Pts',(374.269841995479,-17.1120935833527,315.788769394537));
#745=CARTESIAN_POINT('Ctrl Pts',(374.578146767031,-16.9973854209077,315.568454193731));
#746=CARTESIAN_POINT('Ctrl Pts',(375.257674479142,-16.7896928037152,315.271201071331));
#747=CARTESIAN_POINT('Ctrl Pts',(375.630821404857,-16.7041594578793,315.1935055785));
#748=CARTESIAN_POINT('Ctrl Pts',(376.369178595143,-16.7041594578793,315.1935055785));
#749=CARTESIAN_POINT('Ctrl Pts',(376.742325520858,-16.7896928037152,315.271201071331));
#750=CARTESIAN_POINT('Ctrl Pts',(377.421853232969,-16.9973854209077,315.568454193731));
#751=CARTESIAN_POINT('Ctrl Pts',(377.730158004521,-17.1120935833527,315.788769394537));
#752=CARTESIAN_POINT('Ctrl Pts',(378.099395264937,-17.192553264326,316.186450094592));
#753=CARTESIAN_POINT('Ctrl Pts',(378.218210098519,-17.2072560207211,316.342207751687));
#754=CARTESIAN_POINT('Ctrl Pts',(378.415681862013,-17.185127723074,316.672251278099));
#755=CARTESIAN_POINT('Ctrl Pts',(378.494406384351,-17.1474136532858,316.846436900594));
#756=CARTESIAN_POINT('Ctrl Pts',(378.61212995967,-17.0169252936913,317.184521458425));
#757=CARTESIAN_POINT('Ctrl Pts',(378.656446959167,-16.8934307921544,317.387792368361));
#758=CARTESIAN_POINT('Ctrl Pts',(378.698656469739,-16.6062427617001,317.704062475));
#759=CARTESIAN_POINT('Ctrl Pts',(378.701410116951,-16.4085333395142,317.850313035924));
#760=CARTESIAN_POINT('Ctrl Pts',(378.697503176388,-15.9692505941104,318.045027484616));
#761=CARTESIAN_POINT('Ctrl Pts',(378.692582403567,-15.7276698168908,318.0935055785));
#762=CARTESIAN_POINT('Ctrl Pts',(378.692582403567,-15.5,318.0935055785));
#763=CARTESIAN_POINT('Origin',(376.,0.,283.8935055785));
#764=CARTESIAN_POINT('',(373.3,-31.,283.8935055785));
#765=CARTESIAN_POINT('Origin',(376.,-31.,283.8935055785));
#766=CARTESIAN_POINT('',(373.3,-16.3000000443758,283.893505590334));
#767=CARTESIAN_POINT('',(373.3,0.,283.8935055785));
#768=CARTESIAN_POINT('',(378.692582403567,-15.5,283.6935055785));
#769=CARTESIAN_POINT('Ctrl Pts',(378.692582403567,-15.5,283.6935055785));
#770=CARTESIAN_POINT('Ctrl Pts',(378.692582403567,-15.7276698168908,283.6935055785));
#771=CARTESIAN_POINT('Ctrl Pts',(378.697503176388,-15.9692505941104,283.741983672384));
#772=CARTESIAN_POINT('Ctrl Pts',(378.701410116951,-16.4085333395142,283.936698121076));
#773=CARTESIAN_POINT('Ctrl Pts',(378.698656469739,-16.6062427617001,284.082948682));
#774=CARTESIAN_POINT('Ctrl Pts',(378.656446959167,-16.8934307921544,284.399218788639));
#775=CARTESIAN_POINT('Ctrl Pts',(378.61212995967,-17.0169252936913,284.602489698575));
#776=CARTESIAN_POINT('Ctrl Pts',(378.494406384351,-17.1474136532858,284.940574256406));
#777=CARTESIAN_POINT('Ctrl Pts',(378.415681862013,-17.185127723074,285.114759878901));
#778=CARTESIAN_POINT('Ctrl Pts',(378.218210098519,-17.2072560207211,285.444803405313));
#779=CARTESIAN_POINT('Ctrl Pts',(378.099395264937,-17.192553264326,285.600561062408));
#780=CARTESIAN_POINT('Ctrl Pts',(377.730158004521,-17.1120935833527,285.998241762463));
#781=CARTESIAN_POINT('Ctrl Pts',(377.421853232969,-16.9973854209077,286.218556963269));
#782=CARTESIAN_POINT('Ctrl Pts',(376.742325520858,-16.7896928037152,286.515810085669));
#783=CARTESIAN_POINT('Ctrl Pts',(376.369178595143,-16.7041594578793,286.5935055785));
#784=CARTESIAN_POINT('Ctrl Pts',(375.630821404857,-16.7041594578793,286.5935055785));
#785=CARTESIAN_POINT('Ctrl Pts',(375.257674479142,-16.7896928037152,286.515810085669));
#786=CARTESIAN_POINT('Ctrl Pts',(374.578146767031,-16.9973854209077,286.218556963269));
#787=CARTESIAN_POINT('Ctrl Pts',(374.269841995479,-17.1120935833527,285.998241762463));
#788=CARTESIAN_POINT('Ctrl Pts',(373.900604735063,-17.192553264326,285.600561062408));
#789=CARTESIAN_POINT('Ctrl Pts',(373.781789901481,-17.2072560207211,285.444803405313));
#790=CARTESIAN_POINT('Ctrl Pts',(373.584318137987,-17.185127723074,285.114759878901));
#791=CARTESIAN_POINT('Ctrl Pts',(373.505593615649,-17.1474136532858,284.940574256406));
#792=CARTESIAN_POINT('Ctrl Pts',(373.38787004033,-17.0169252936914,284.602489698575));
#793=CARTESIAN_POINT('Ctrl Pts',(373.343553040833,-16.8934307921544,284.399218788639));
#794=CARTESIAN_POINT('Ctrl Pts',(373.30518546413,-16.6323827810024,284.111735768562));
#795=CARTESIAN_POINT('Ctrl Pts',(373.30000000082,-16.475334670031,283.987017409179));
#796=CARTESIAN_POINT('Ctrl Pts',(373.3,-16.3000000443758,283.893505602167));
#797=CARTESIAN_POINT('',(373.3,-14.6999999556241,283.893505590334));
#798=CARTESIAN_POINT('Ctrl Pts',(373.3,-14.6999999556241,283.893505602167));
#799=CARTESIAN_POINT('Ctrl Pts',(373.30000000082,-14.524665329969,283.987017409179));
#800=CARTESIAN_POINT('Ctrl Pts',(373.30518546413,-14.3676172189976,284.111735768562));
#801=CARTESIAN_POINT('Ctrl Pts',(373.343553040833,-14.1065692078456,284.399218788639));
#802=CARTESIAN_POINT('Ctrl Pts',(373.38787004033,-13.9830747063087,284.602489698575));
#803=CARTESIAN_POINT('Ctrl Pts',(373.505593615649,-13.8525863467142,284.940574256406));
#804=CARTESIAN_POINT('Ctrl Pts',(373.584318137987,-13.814872276926,285.114759878901));
#805=CARTESIAN_POINT('Ctrl Pts',(373.781789901481,-13.7927439792789,285.444803405313));
#806=CARTESIAN_POINT('Ctrl Pts',(373.900604735063,-13.807446735674,285.600561062408));
#807=CARTESIAN_POINT('Ctrl Pts',(374.269841995479,-13.8879064166473,285.998241762463));
#808=CARTESIAN_POINT('Ctrl Pts',(374.578146767031,-14.0026145790923,286.218556963269));
#809=CARTESIAN_POINT('Ctrl Pts',(375.257674479142,-14.2103071962848,286.515810085669));
#810=CARTESIAN_POINT('Ctrl Pts',(375.630821404857,-14.2958405421207,286.5935055785));
#811=CARTESIAN_POINT('Ctrl Pts',(376.369178595143,-14.2958405421207,286.5935055785));
#812=CARTESIAN_POINT('Ctrl Pts',(376.742325520858,-14.2103071962848,286.515810085669));
#813=CARTESIAN_POINT('Ctrl Pts',(377.421853232969,-14.0026145790923,286.218556963269));
#814=CARTESIAN_POINT('Ctrl Pts',(377.730158004521,-13.8879064166473,285.998241762463));
#815=CARTESIAN_POINT('Ctrl Pts',(378.099395264937,-13.807446735674,285.600561062408));
#816=CARTESIAN_POINT('Ctrl Pts',(378.218210098519,-13.7927439792789,285.444803405313));
#817=CARTESIAN_POINT('Ctrl Pts',(378.415681862013,-13.814872276926,285.114759878901));
#818=CARTESIAN_POINT('Ctrl Pts',(378.494406384351,-13.8525863467142,284.940574256406));
#819=CARTESIAN_POINT('Ctrl Pts',(378.61212995967,-13.9830747063087,284.602489698575));
#820=CARTESIAN_POINT('Ctrl Pts',(378.656446959167,-14.1065692078456,284.399218788639));
#821=CARTESIAN_POINT('Ctrl Pts',(378.698656469739,-14.3937572382999,284.082948682));
#822=CARTESIAN_POINT('Ctrl Pts',(378.701410116951,-14.5914666604858,283.936698121076));
#823=CARTESIAN_POINT('Ctrl Pts',(378.697503176388,-15.0307494058896,283.741983672384));
#824=CARTESIAN_POINT('Ctrl Pts',(378.692582403567,-15.2723301831092,283.6935055785));
#825=CARTESIAN_POINT('Ctrl Pts',(378.692582403567,-15.5,283.6935055785));
#826=CARTESIAN_POINT('',(373.3,14.6999999556241,283.893505590334));
#827=CARTESIAN_POINT('',(373.3,0.,283.8935055785));
#828=CARTESIAN_POINT('',(378.692582403567,15.5,283.6935055785));
#829=CARTESIAN_POINT('Ctrl Pts',(378.692582403567,15.5,283.6935055785));
#830=CARTESIAN_POINT('Ctrl Pts',(378.692582403567,15.2723301831092,283.6935055785));
#831=CARTESIAN_POINT('Ctrl Pts',(378.697503176388,15.0307494058896,283.741983672384));
#832=CARTESIAN_POINT('Ctrl Pts',(378.701410116951,14.5914666604858,283.936698121076));
#833=CARTESIAN_POINT('Ctrl Pts',(378.698656469739,14.3937572382999,284.082948682));
#834=CARTESIAN_POINT('Ctrl Pts',(378.656446959167,14.1065692078456,284.399218788639));
#835=CARTESIAN_POINT('Ctrl Pts',(378.61212995967,13.9830747063087,284.602489698575));
#836=CARTESIAN_POINT('Ctrl Pts',(378.494406384351,13.8525863467142,284.940574256406));
#837=CARTESIAN_POINT('Ctrl Pts',(378.415681862013,13.814872276926,285.114759878901));
#838=CARTESIAN_POINT('Ctrl Pts',(378.218210098519,13.7927439792789,285.444803405313));
#839=CARTESIAN_POINT('Ctrl Pts',(378.099395264937,13.807446735674,285.600561062408));
#840=CARTESIAN_POINT('Ctrl Pts',(377.730158004521,13.8879064166473,285.998241762463));
#841=CARTESIAN_POINT('Ctrl Pts',(377.421853232969,14.0026145790923,286.218556963269));
#842=CARTESIAN_POINT('Ctrl Pts',(376.742325520858,14.2103071962848,286.515810085669));
#843=CARTESIAN_POINT('Ctrl Pts',(376.369178595143,14.2958405421207,286.5935055785));
#844=CARTESIAN_POINT('Ctrl Pts',(375.630821404857,14.2958405421207,286.5935055785));
#845=CARTESIAN_POINT('Ctrl Pts',(375.257674479142,14.2103071962848,286.515810085669));
#846=CARTESIAN_POINT('Ctrl Pts',(374.578146767031,14.0026145790923,286.218556963269));
#847=CARTESIAN_POINT('Ctrl Pts',(374.269841995479,13.8879064166473,285.998241762463));
#848=CARTESIAN_POINT('Ctrl Pts',(373.900604735063,13.807446735674,285.600561062408));
#849=CARTESIAN_POINT('Ctrl Pts',(373.781789901481,13.7927439792789,285.444803405313));
#850=CARTESIAN_POINT('Ctrl Pts',(373.584318137987,13.814872276926,285.114759878901));
#851=CARTESIAN_POINT('Ctrl Pts',(373.505593615649,13.8525863467142,284.940574256406));
#852=CARTESIAN_POINT('Ctrl Pts',(373.38787004033,13.9830747063087,284.602489698575));
#853=CARTESIAN_POINT('Ctrl Pts',(373.343553040833,14.1065692078456,284.399218788639));
#854=CARTESIAN_POINT('Ctrl Pts',(373.30518546413,14.3676172189976,284.111735768562));
#855=CARTESIAN_POINT('Ctrl Pts',(373.30000000082,14.524665329969,283.987017409179));
#856=CARTESIAN_POINT('Ctrl Pts',(373.3,14.6999999556241,283.893505602167));
#857=CARTESIAN_POINT('',(373.3,16.3000000443758,283.893505590334));
#858=CARTESIAN_POINT('Ctrl Pts',(373.3,16.3000000443758,283.893505602167));
#859=CARTESIAN_POINT('Ctrl Pts',(373.30000000082,16.475334670031,283.987017409179));
#860=CARTESIAN_POINT('Ctrl Pts',(373.30518546413,16.6323827810024,284.111735768562));
#861=CARTESIAN_POINT('Ctrl Pts',(373.343553040833,16.8934307921544,284.399218788639));
#862=CARTESIAN_POINT('Ctrl Pts',(373.38787004033,17.0169252936914,284.602489698575));
#863=CARTESIAN_POINT('Ctrl Pts',(373.505593615649,17.1474136532858,284.940574256406));
#864=CARTESIAN_POINT('Ctrl Pts',(373.584318137987,17.185127723074,285.114759878901));
#865=CARTESIAN_POINT('Ctrl Pts',(373.781789901481,17.2072560207211,285.444803405313));
#866=CARTESIAN_POINT('Ctrl Pts',(373.900604735063,17.192553264326,285.600561062408));
#867=CARTESIAN_POINT('Ctrl Pts',(374.269841995479,17.1120935833527,285.998241762463));
#868=CARTESIAN_POINT('Ctrl Pts',(374.578146767031,16.9973854209077,286.218556963269));
#869=CARTESIAN_POINT('Ctrl Pts',(375.257674479142,16.7896928037152,286.515810085669));
#870=CARTESIAN_POINT('Ctrl Pts',(375.630821404857,16.7041594578793,286.5935055785));
#871=CARTESIAN_POINT('Ctrl Pts',(376.369178595143,16.7041594578793,286.5935055785));
#872=CARTESIAN_POINT('Ctrl Pts',(376.742325520858,16.7896928037152,286.515810085669));
#873=CARTESIAN_POINT('Ctrl Pts',(377.421853232969,16.9973854209077,286.218556963269));
#874=CARTESIAN_POINT('Ctrl Pts',(377.730158004521,17.1120935833527,285.998241762463));
#875=CARTESIAN_POINT('Ctrl Pts',(378.099395264937,17.192553264326,285.600561062408));
#876=CARTESIAN_POINT('Ctrl Pts',(378.218210098519,17.2072560207211,285.444803405313));
#877=CARTESIAN_POINT('Ctrl Pts',(378.415681862013,17.185127723074,285.114759878901));
#878=CARTESIAN_POINT('Ctrl Pts',(378.494406384351,17.1474136532858,284.940574256406));
#879=CARTESIAN_POINT('Ctrl Pts',(378.61212995967,17.0169252936913,284.602489698575));
#880=CARTESIAN_POINT('Ctrl Pts',(378.656446959167,16.8934307921544,284.399218788639));
#881=CARTESIAN_POINT('Ctrl Pts',(378.698656469739,16.6062427617001,284.082948682));
#882=CARTESIAN_POINT('Ctrl Pts',(378.701410116951,16.4085333395142,283.936698121076));
#883=CARTESIAN_POINT('Ctrl Pts',(378.697503176388,15.9692505941104,283.741983672384));
#884=CARTESIAN_POINT('Ctrl Pts',(378.692582403567,15.7276698168908,283.6935055785));
#885=CARTESIAN_POINT('Ctrl Pts',(378.692582403567,15.5,283.6935055785));
#886=CARTESIAN_POINT('',(373.3,31.,283.8935055785));
#887=CARTESIAN_POINT('',(373.3,0.,283.8935055785));
#888=CARTESIAN_POINT('Origin',(376.,31.,283.8935055785));
#889=CARTESIAN_POINT('Ctrl Pts',(373.3,14.6999999556241,283.893505602167));
#890=CARTESIAN_POINT('Ctrl Pts',(373.29999999983,14.7363261634294,283.874131623291));
#891=CARTESIAN_POINT('Ctrl Pts',(373.300208089757,14.7734121684547,283.856049792302));
#892=CARTESIAN_POINT('Ctrl Pts',(373.302496823612,15.0307494058896,283.741983672384));
#893=CARTESIAN_POINT('Ctrl Pts',(373.307417596433,15.2723301831092,283.6935055785));
#894=CARTESIAN_POINT('Ctrl Pts',(373.307417596433,15.7276698168908,283.6935055785));
#895=CARTESIAN_POINT('Ctrl Pts',(373.302496823612,15.9692505941104,283.741983672384));
#896=CARTESIAN_POINT('Ctrl Pts',(373.300208089757,16.2265878315453,283.856049792302));
#897=CARTESIAN_POINT('Ctrl Pts',(373.29999999983,16.2636738365706,283.874131623291));
#898=CARTESIAN_POINT('Ctrl Pts',(373.3,16.3000000443758,283.893505602167));
#899=CARTESIAN_POINT('Ctrl Pts',(373.3,-16.3000000443758,283.893505602167));
#900=CARTESIAN_POINT('Ctrl Pts',(373.29999999983,-16.2636738365706,283.874131623291));
#901=CARTESIAN_POINT('Ctrl Pts',(373.300208089757,-16.2265878315453,283.856049792302));
#902=CARTESIAN_POINT('Ctrl Pts',(373.302496823612,-15.9692505941104,283.741983672384));
#903=CARTESIAN_POINT('Ctrl Pts',(373.307417596433,-15.7276698168908,283.6935055785));
#904=CARTESIAN_POINT('Ctrl Pts',(373.307417596433,-15.2723301831092,283.6935055785));
#905=CARTESIAN_POINT('Ctrl Pts',(373.302496823612,-15.0307494058896,283.741983672384));
#906=CARTESIAN_POINT('Ctrl Pts',(373.300208089757,-14.7734121684547,283.856049792302));
#907=CARTESIAN_POINT('Ctrl Pts',(373.29999999983,-14.7363261634294,283.874131623291));
#908=CARTESIAN_POINT('Ctrl Pts',(373.3,-14.6999999556241,283.893505602167));
#909=CARTESIAN_POINT('Origin',(376.,15.5,316.3935055785));
#910=CARTESIAN_POINT('',(372.,15.5,318.0935055785));
#911=CARTESIAN_POINT('Origin',(372.,15.5,316.3935055785));
#912=CARTESIAN_POINT('',(376.,15.5,318.0935055785));
#913=CARTESIAN_POINT('',(380.,15.5,318.0935055785));
#914=CARTESIAN_POINT('',(376.,15.5,318.0935055785));
#915=CARTESIAN_POINT('Origin',(380.,15.5,316.3935055785));
#916=CARTESIAN_POINT('Origin',(376.,15.5,285.3935055785));
#917=CARTESIAN_POINT('',(372.,15.5,287.0935055785));
#918=CARTESIAN_POINT('Origin',(372.,15.5,285.3935055785));
#919=CARTESIAN_POINT('',(380.,15.5,287.0935055785));
#920=CARTESIAN_POINT('',(376.,15.5,287.0935055785));
#921=CARTESIAN_POINT('Origin',(380.,15.5,285.3935055785));
#922=CARTESIAN_POINT('Origin',(376.,-15.5,316.3935055785));
#923=CARTESIAN_POINT('',(372.,-15.5,318.0935055785));
#924=CARTESIAN_POINT('Origin',(372.,-15.5,316.3935055785));
#925=CARTESIAN_POINT('',(376.,-15.5,318.0935055785));
#926=CARTESIAN_POINT('',(380.,-15.5,318.0935055785));
#927=CARTESIAN_POINT('',(376.,-15.5,318.0935055785));
#928=CARTESIAN_POINT('Origin',(380.,-15.5,316.3935055785));
#929=CARTESIAN_POINT('Origin',(376.,-15.5,285.3935055785));
#930=CARTESIAN_POINT('',(372.,-15.5,287.0935055785));
#931=CARTESIAN_POINT('Origin',(372.,-15.5,285.3935055785));
#932=CARTESIAN_POINT('',(380.,-15.5,287.0935055785));
#933=CARTESIAN_POINT('',(376.,-15.5,287.0935055785));
#934=CARTESIAN_POINT('Origin',(380.,-15.5,285.3935055785));
#935=CARTESIAN_POINT('Origin',(376.,0.,300.8935055785));
#936=CARTESIAN_POINT('',(372.,-1.37772764904077E-15,312.1435055785));
#937=CARTESIAN_POINT('Origin',(372.,0.,300.8935055785));
#938=CARTESIAN_POINT('',(380.,1.37772764904077E-15,312.1435055785));
#939=CARTESIAN_POINT('',(376.,-1.37772764904077E-15,312.1435055785));
#940=CARTESIAN_POINT('Origin',(380.,0.,300.8935055785));
#941=CARTESIAN_POINT('Origin',(376.,24.,324.8935055785));
#942=CARTESIAN_POINT('',(380.,31.,324.8935055785));
#943=CARTESIAN_POINT('',(372.,31.,324.8935055785));
#944=CARTESIAN_POINT('',(376.,31.,324.8935055785));
#945=CARTESIAN_POINT('',(372.,24.,331.8935055785));
#946=CARTESIAN_POINT('Origin',(372.,24.,324.8935055785));
#947=CARTESIAN_POINT('',(380.,24.,331.8935055785));
#948=CARTESIAN_POINT('',(376.,24.,331.8935055785));
#949=CARTESIAN_POINT('Origin',(380.,24.,324.8935055785));
#950=CARTESIAN_POINT('Origin',(380.,0.,300.8935055785));
#951=CARTESIAN_POINT('',(380.,-24.,331.8935055785));
#952=CARTESIAN_POINT('',(380.,0.,331.8935055785));
#953=CARTESIAN_POINT('',(380.,-31.,324.8935055785));
#954=CARTESIAN_POINT('Origin',(380.,-24.,324.8935055785));
#955=CARTESIAN_POINT('',(380.,-31.,276.8935055785));
#956=CARTESIAN_POINT('',(380.,-31.,300.8935055785));
#957=CARTESIAN_POINT('',(380.,-24.,269.8935055785));
#958=CARTESIAN_POINT('Origin',(380.,-24.,276.8935055785));
#959=CARTESIAN_POINT('',(380.,24.,269.8935055785));
#960=CARTESIAN_POINT('',(380.,0.,269.8935055785));
#961=CARTESIAN_POINT('',(380.,31.,276.8935055785));
#962=CARTESIAN_POINT('Origin',(380.,24.,276.8935055785));
#963=CARTESIAN_POINT('',(380.,31.,300.8935055785));
#964=CARTESIAN_POINT('Origin',(376.,24.,276.8935055785));
#965=CARTESIAN_POINT('',(372.,24.,269.8935055785));
#966=CARTESIAN_POINT('',(376.,24.,269.8935055785));
#967=CARTESIAN_POINT('',(372.,31.,276.8935055785));
#968=CARTESIAN_POINT('Origin',(372.,24.,276.8935055785));
#969=CARTESIAN_POINT('',(376.,31.,276.8935055785));
#970=CARTESIAN_POINT('Origin',(376.,-24.,324.8935055785));
#971=CARTESIAN_POINT('',(372.,-24.,331.8935055785));
#972=CARTESIAN_POINT('',(376.,-24.,331.8935055785));
#973=CARTESIAN_POINT('',(372.,-31.,324.8935055785));
#974=CARTESIAN_POINT('Origin',(372.,-24.,324.8935055785));
#975=CARTESIAN_POINT('',(376.,-31.,324.8935055785));
#976=CARTESIAN_POINT('Origin',(376.,-24.,276.8935055785));
#977=CARTESIAN_POINT('',(372.,-24.,269.8935055785));
#978=CARTESIAN_POINT('',(376.,-24.,269.8935055785));
#979=CARTESIAN_POINT('',(372.,-31.,276.8935055785));
#980=CARTESIAN_POINT('',(376.,-31.,276.8935055785));
#981=CARTESIAN_POINT('Origin',(372.,-24.,276.8935055785));
#982=CARTESIAN_POINT('Origin',(372.,0.,300.8935055785));
#983=CARTESIAN_POINT('',(372.,31.,300.8935055785));
#984=CARTESIAN_POINT('',(372.,0.,269.8935055785));
#985=CARTESIAN_POINT('',(372.,-31.,300.8935055785));
#986=CARTESIAN_POINT('',(372.,0.,331.8935055785));
#987=CARTESIAN_POINT('Origin',(376.,-31.,300.8935055785));
#988=CARTESIAN_POINT('Origin',(376.,31.,300.8935055785));
#989=CARTESIAN_POINT('Origin',(376.,0.,331.8935055785));
#990=CARTESIAN_POINT('Origin',(376.,0.,269.8935055785));
#991=UNCERTAINTY_MEASURE_WITH_UNIT(LENGTH_MEASURE(0.01),#995,
'DISTANCE_ACCURACY_VALUE',
'Maximum model space distance between geometric entities at asserted c
onnectivities');
#992=UNCERTAINTY_MEASURE_WITH_UNIT(LENGTH_MEASURE(0.01),#995,
'DISTANCE_ACCURACY_VALUE',
'Maximum model space distance between geometric entities at asserted c
onnectivities');
#993=(
GEOMETRIC_REPRESENTATION_CONTEXT(3)
GLOBAL_UNCERTAINTY_ASSIGNED_CONTEXT((#991))
GLOBAL_UNIT_ASSIGNED_CONTEXT((#995,#997,#998))
REPRESENTATION_CONTEXT('','3D')
);
#994=(
GEOMETRIC_REPRESENTATION_CONTEXT(3)
GLOBAL_UNCERTAINTY_ASSIGNED_CONTEXT((#992))
GLOBAL_UNIT_ASSIGNED_CONTEXT((#995,#997,#998))
REPRESENTATION_CONTEXT('','3D')
);
#995=(
LENGTH_UNIT()
NAMED_UNIT(*)
SI_UNIT(.MILLI.,.METRE.)
);
#996=(
LENGTH_UNIT()
NAMED_UNIT(*)
SI_UNIT($,.METRE.)
);
#997=(
NAMED_UNIT(*)
PLANE_ANGLE_UNIT()
SI_UNIT($,.RADIAN.)
);
#998=(
NAMED_UNIT(*)
SI_UNIT($,.STERADIAN.)
SOLID_ANGLE_UNIT()
);
#999=SHAPE_DEFINITION_REPRESENTATION(#1000,#1001);
#1000=PRODUCT_DEFINITION_SHAPE('',$,#1003);
#1001=SHAPE_REPRESENTATION('',(#461),#993);
#1002=PRODUCT_DEFINITION_CONTEXT('part definition',#1007,'design');
#1003=PRODUCT_DEFINITION('2026-08-12-23-08-48-982',
'EXPORT_TMP_PRINT_V007_P305_J4_PG19_FrontFlangeCarri',#1004,#1002);
#1004=PRODUCT_DEFINITION_FORMATION('',$,#1009);
#1005=PRODUCT_RELATED_PRODUCT_CATEGORY(
'EXPORT_TMP_PRINT_V007_P305_J4_PG19_FrontFlangeCarri',
'EXPORT_TMP_PRINT_V007_P305_J4_PG19_FrontFlangeCarri',(#1009));
#1006=APPLICATION_PROTOCOL_DEFINITION('international standard',
'automotive_design',2009,#1007);
#1007=APPLICATION_CONTEXT(
'Core Data for Automotive Mechanical Design Process');
#1008=PRODUCT_CONTEXT('part definition',#1007,'mechanical');
#1009=PRODUCT('2026-08-12-23-08-48-982',
'EXPORT_TMP_PRINT_V007_P305_J4_PG19_FrontFlangeCarri',$,(#1008));
#1010=PRESENTATION_STYLE_ASSIGNMENT((#1011));
#1011=SURFACE_STYLE_USAGE(.BOTH.,#1012);
#1012=SURFACE_SIDE_STYLE('',(#1013));
#1013=SURFACE_STYLE_FILL_AREA(#1014);
#1014=FILL_AREA_STYLE('Steel - Satin',(#1015));
#1015=FILL_AREA_STYLE_COLOUR('Steel - Satin',#1016);
#1016=COLOUR_RGB('Steel - Satin',0.627450980392157,0.627450980392157,0.627450980392157);
ENDSEC;
END-ISO-10303-21;
