ISO-10303-21;
HEADER;
/* Generated by software containing ST-Developer
 * from STEP Tools, Inc. (www.steptools.com) 
 */

FILE_DESCRIPTION(
/* description */ (''),
/* implementation_level */ '2;1');

FILE_NAME(
/* name */ 'PRINT_V007_P309_J4_MotorRearSupportClamp.step',
/* time_stamp */ '2026-08-12T23:08:52+02:00',
/* author */ (''),
/* organization */ (''),
/* preprocessor_version */ 'ST-DEVELOPER v20.1',
/* originating_system */ 'Autodesk Translation Framework v15.8.0.0',
/* authorisation */ '');

FILE_SCHEMA (('AUTOMOTIVE_DESIGN { 1 0 10303 214 3 1 1 }'));
ENDSEC;

DATA;
#10=MECHANICAL_DESIGN_GEOMETRIC_PRESENTATION_REPRESENTATION('',(#13),#455);
#11=SHAPE_REPRESENTATION_RELATIONSHIP('SRR','None',#462,#12);
#12=ADVANCED_BREP_SHAPE_REPRESENTATION('',(#14),#454);
#13=STYLED_ITEM('',(#471),#14);
#14=MANIFOLD_SOLID_BREP('PRINT_V007_P309_J4_MotorRearSupportClamp',#267);
#15=PLANE('',#284);
#16=PLANE('',#288);
#17=PLANE('',#291);
#18=PLANE('',#294);
#19=PLANE('',#296);
#20=PLANE('',#298);
#21=PLANE('',#299);
#22=PLANE('',#300);
#23=PLANE('',#301);
#24=PLANE('',#302);
#25=FACE_OUTER_BOUND('',#39,.T.);
#26=FACE_OUTER_BOUND('',#40,.T.);
#27=FACE_OUTER_BOUND('',#41,.T.);
#28=FACE_OUTER_BOUND('',#42,.T.);
#29=FACE_OUTER_BOUND('',#43,.T.);
#30=FACE_OUTER_BOUND('',#44,.T.);
#31=FACE_OUTER_BOUND('',#45,.T.);
#32=FACE_OUTER_BOUND('',#46,.T.);
#33=FACE_OUTER_BOUND('',#47,.T.);
#34=FACE_OUTER_BOUND('',#48,.T.);
#35=FACE_OUTER_BOUND('',#49,.T.);
#36=FACE_OUTER_BOUND('',#50,.T.);
#37=FACE_OUTER_BOUND('',#51,.T.);
#38=FACE_OUTER_BOUND('',#52,.T.);
#39=EDGE_LOOP('',(#177,#178,#179,#180));
#40=EDGE_LOOP('',(#181,#182,#183,#184,#185,#186,#187,#188,#189,#190,#191,
#192));
#41=EDGE_LOOP('',(#193,#194,#195,#196));
#42=EDGE_LOOP('',(#197,#198,#199,#200));
#43=EDGE_LOOP('',(#201,#202,#203,#204));
#44=EDGE_LOOP('',(#205,#206,#207,#208));
#45=EDGE_LOOP('',(#209,#210,#211,#212,#213,#214,#215,#216,#217,#218,#219,
#220));
#46=EDGE_LOOP('',(#221,#222,#223,#224));
#47=EDGE_LOOP('',(#225,#226,#227,#228));
#48=EDGE_LOOP('',(#229,#230,#231,#232));
#49=EDGE_LOOP('',(#233,#234,#235,#236));
#50=EDGE_LOOP('',(#237,#238,#239,#240));
#51=EDGE_LOOP('',(#241,#242,#243,#244));
#52=EDGE_LOOP('',(#245,#246,#247,#248));
#53=LINE('',#383,#81);
#54=LINE('',#386,#82);
#55=LINE('',#389,#83);
#56=LINE('',#391,#84);
#57=LINE('',#393,#85);
#58=LINE('',#397,#86);
#59=LINE('',#401,#87);
#60=LINE('',#403,#88);
#61=LINE('',#405,#89);
#62=LINE('',#408,#90);
#63=LINE('',#411,#91);
#64=LINE('',#412,#92);
#65=LINE('',#417,#93);
#66=LINE('',#418,#94);
#67=LINE('',#421,#95);
#68=LINE('',#422,#96);
#69=LINE('',#425,#97);
#70=LINE('',#428,#98);
#71=LINE('',#430,#99);
#72=LINE('',#432,#100);
#73=LINE('',#434,#101);
#74=LINE('',#436,#102);
#75=LINE('',#439,#103);
#76=LINE('',#440,#104);
#77=LINE('',#442,#105);
#78=LINE('',#444,#106);
#79=LINE('',#446,#107);
#80=LINE('',#448,#108);
#81=VECTOR('',#309,10.);
#82=VECTOR('',#312,10.);
#83=VECTOR('',#315,10.);
#84=VECTOR('',#316,10.);
#85=VECTOR('',#317,10.);
#86=VECTOR('',#320,10.);
#87=VECTOR('',#323,10.);
#88=VECTOR('',#324,10.);
#89=VECTOR('',#325,10.);
#90=VECTOR('',#328,10.);
#91=VECTOR('',#331,10.);
#92=VECTOR('',#332,10.);
#93=VECTOR('',#337,10.);
#94=VECTOR('',#338,10.);
#95=VECTOR('',#341,10.);
#96=VECTOR('',#342,10.);
#97=VECTOR('',#345,10.);
#98=VECTOR('',#348,10.);
#99=VECTOR('',#351,10.);
#100=VECTOR('',#352,10.);
#101=VECTOR('',#353,10.);
#102=VECTOR('',#354,10.);
#103=VECTOR('',#357,10.);
#104=VECTOR('',#358,10.);
#105=VECTOR('',#361,10.);
#106=VECTOR('',#364,10.);
#107=VECTOR('',#367,10.);
#108=VECTOR('',#370,10.);
#109=CIRCLE('',#282,2.2);
#110=CIRCLE('',#283,2.2);
#111=CIRCLE('',#285,2.2);
#112=CIRCLE('',#286,2.2);
#113=CIRCLE('',#287,2.2);
#114=CIRCLE('',#290,2.2);
#115=CIRCLE('',#293,2.2);
#116=CIRCLE('',#295,2.2);
#117=VERTEX_POINT('',#379);
#118=VERTEX_POINT('',#380);
#119=VERTEX_POINT('',#382);
#120=VERTEX_POINT('',#384);
#121=VERTEX_POINT('',#388);
#122=VERTEX_POINT('',#390);
#123=VERTEX_POINT('',#392);
#124=VERTEX_POINT('',#394);
#125=VERTEX_POINT('',#396);
#126=VERTEX_POINT('',#398);
#127=VERTEX_POINT('',#400);
#128=VERTEX_POINT('',#402);
#129=VERTEX_POINT('',#404);
#130=VERTEX_POINT('',#406);
#131=VERTEX_POINT('',#410);
#132=VERTEX_POINT('',#414);
#133=VERTEX_POINT('',#415);
#134=VERTEX_POINT('',#420);
#135=VERTEX_POINT('',#424);
#136=VERTEX_POINT('',#426);
#137=VERTEX_POINT('',#431);
#138=VERTEX_POINT('',#433);
#139=VERTEX_POINT('',#435);
#140=VERTEX_POINT('',#438);
#141=EDGE_CURVE('',#117,#118,#109,.T.);
#142=EDGE_CURVE('',#119,#117,#53,.T.);
#143=EDGE_CURVE('',#120,#119,#110,.T.);
#144=EDGE_CURVE('',#118,#120,#54,.T.);
#145=EDGE_CURVE('',#119,#121,#55,.T.);
#146=EDGE_CURVE('',#121,#122,#56,.T.);
#147=EDGE_CURVE('',#122,#123,#57,.T.);
#148=EDGE_CURVE('',#123,#124,#111,.T.);
#149=EDGE_CURVE('',#124,#125,#58,.T.);
#150=EDGE_CURVE('',#125,#126,#112,.T.);
#151=EDGE_CURVE('',#126,#127,#59,.T.);
#152=EDGE_CURVE('',#127,#128,#60,.T.);
#153=EDGE_CURVE('',#128,#129,#61,.T.);
#154=EDGE_CURVE('',#129,#130,#113,.T.);
#155=EDGE_CURVE('',#130,#120,#62,.T.);
#156=EDGE_CURVE('',#131,#117,#63,.T.);
#157=EDGE_CURVE('',#131,#121,#64,.T.);
#158=EDGE_CURVE('',#132,#133,#114,.T.);
#159=EDGE_CURVE('',#124,#132,#65,.T.);
#160=EDGE_CURVE('',#133,#123,#66,.T.);
#161=EDGE_CURVE('',#134,#132,#67,.T.);
#162=EDGE_CURVE('',#134,#125,#68,.T.);
#163=EDGE_CURVE('',#135,#129,#69,.T.);
#164=EDGE_CURVE('',#136,#135,#115,.T.);
#165=EDGE_CURVE('',#130,#136,#70,.T.);
#166=EDGE_CURVE('',#118,#136,#71,.T.);
#167=EDGE_CURVE('',#135,#137,#72,.T.);
#168=EDGE_CURVE('',#137,#138,#73,.T.);
#169=EDGE_CURVE('',#138,#139,#74,.T.);
#170=EDGE_CURVE('',#139,#134,#116,.T.);
#171=EDGE_CURVE('',#133,#140,#75,.T.);
#172=EDGE_CURVE('',#140,#131,#76,.T.);
#173=EDGE_CURVE('',#137,#128,#77,.T.);
#174=EDGE_CURVE('',#126,#139,#78,.T.);
#175=EDGE_CURVE('',#140,#122,#79,.T.);
#176=EDGE_CURVE('',#138,#127,#80,.T.);
#177=ORIENTED_EDGE('',*,*,#141,.F.);
#178=ORIENTED_EDGE('',*,*,#142,.F.);
#179=ORIENTED_EDGE('',*,*,#143,.F.);
#180=ORIENTED_EDGE('',*,*,#144,.F.);
#181=ORIENTED_EDGE('',*,*,#143,.T.);
#182=ORIENTED_EDGE('',*,*,#145,.T.);
#183=ORIENTED_EDGE('',*,*,#146,.T.);
#184=ORIENTED_EDGE('',*,*,#147,.T.);
#185=ORIENTED_EDGE('',*,*,#148,.T.);
#186=ORIENTED_EDGE('',*,*,#149,.T.);
#187=ORIENTED_EDGE('',*,*,#150,.T.);
#188=ORIENTED_EDGE('',*,*,#151,.T.);
#189=ORIENTED_EDGE('',*,*,#152,.T.);
#190=ORIENTED_EDGE('',*,*,#153,.T.);
#191=ORIENTED_EDGE('',*,*,#154,.T.);
#192=ORIENTED_EDGE('',*,*,#155,.T.);
#193=ORIENTED_EDGE('',*,*,#142,.T.);
#194=ORIENTED_EDGE('',*,*,#156,.F.);
#195=ORIENTED_EDGE('',*,*,#157,.T.);
#196=ORIENTED_EDGE('',*,*,#145,.F.);
#197=ORIENTED_EDGE('',*,*,#158,.F.);
#198=ORIENTED_EDGE('',*,*,#159,.F.);
#199=ORIENTED_EDGE('',*,*,#148,.F.);
#200=ORIENTED_EDGE('',*,*,#160,.F.);
#201=ORIENTED_EDGE('',*,*,#159,.T.);
#202=ORIENTED_EDGE('',*,*,#161,.F.);
#203=ORIENTED_EDGE('',*,*,#162,.T.);
#204=ORIENTED_EDGE('',*,*,#149,.F.);
#205=ORIENTED_EDGE('',*,*,#154,.F.);
#206=ORIENTED_EDGE('',*,*,#163,.F.);
#207=ORIENTED_EDGE('',*,*,#164,.F.);
#208=ORIENTED_EDGE('',*,*,#165,.F.);
#209=ORIENTED_EDGE('',*,*,#141,.T.);
#210=ORIENTED_EDGE('',*,*,#166,.T.);
#211=ORIENTED_EDGE('',*,*,#164,.T.);
#212=ORIENTED_EDGE('',*,*,#167,.T.);
#213=ORIENTED_EDGE('',*,*,#168,.T.);
#214=ORIENTED_EDGE('',*,*,#169,.T.);
#215=ORIENTED_EDGE('',*,*,#170,.T.);
#216=ORIENTED_EDGE('',*,*,#161,.T.);
#217=ORIENTED_EDGE('',*,*,#158,.T.);
#218=ORIENTED_EDGE('',*,*,#171,.T.);
#219=ORIENTED_EDGE('',*,*,#172,.T.);
#220=ORIENTED_EDGE('',*,*,#156,.T.);
#221=ORIENTED_EDGE('',*,*,#163,.T.);
#222=ORIENTED_EDGE('',*,*,#153,.F.);
#223=ORIENTED_EDGE('',*,*,#173,.F.);
#224=ORIENTED_EDGE('',*,*,#167,.F.);
#225=ORIENTED_EDGE('',*,*,#150,.F.);
#226=ORIENTED_EDGE('',*,*,#162,.F.);
#227=ORIENTED_EDGE('',*,*,#170,.F.);
#228=ORIENTED_EDGE('',*,*,#174,.F.);
#229=ORIENTED_EDGE('',*,*,#160,.T.);
#230=ORIENTED_EDGE('',*,*,#147,.F.);
#231=ORIENTED_EDGE('',*,*,#175,.F.);
#232=ORIENTED_EDGE('',*,*,#171,.F.);
#233=ORIENTED_EDGE('',*,*,#174,.T.);
#234=ORIENTED_EDGE('',*,*,#169,.F.);
#235=ORIENTED_EDGE('',*,*,#176,.T.);
#236=ORIENTED_EDGE('',*,*,#151,.F.);
#237=ORIENTED_EDGE('',*,*,#173,.T.);
#238=ORIENTED_EDGE('',*,*,#152,.F.);
#239=ORIENTED_EDGE('',*,*,#176,.F.);
#240=ORIENTED_EDGE('',*,*,#168,.F.);
#241=ORIENTED_EDGE('',*,*,#144,.T.);
#242=ORIENTED_EDGE('',*,*,#155,.F.);
#243=ORIENTED_EDGE('',*,*,#165,.T.);
#244=ORIENTED_EDGE('',*,*,#166,.F.);
#245=ORIENTED_EDGE('',*,*,#175,.T.);
#246=ORIENTED_EDGE('',*,*,#146,.F.);
#247=ORIENTED_EDGE('',*,*,#157,.F.);
#248=ORIENTED_EDGE('',*,*,#172,.F.);
#249=CYLINDRICAL_SURFACE('',#281,2.2);
#250=CYLINDRICAL_SURFACE('',#289,2.2);
#251=CYLINDRICAL_SURFACE('',#292,2.2);
#252=CYLINDRICAL_SURFACE('',#297,2.2);
#253=ADVANCED_FACE('',(#25),#249,.F.);
#254=ADVANCED_FACE('',(#26),#15,.F.);
#255=ADVANCED_FACE('',(#27),#16,.F.);
#256=ADVANCED_FACE('',(#28),#250,.F.);
#257=ADVANCED_FACE('',(#29),#17,.F.);
#258=ADVANCED_FACE('',(#30),#251,.F.);
#259=ADVANCED_FACE('',(#31),#18,.T.);
#260=ADVANCED_FACE('',(#32),#19,.F.);
#261=ADVANCED_FACE('',(#33),#252,.F.);
#262=ADVANCED_FACE('',(#34),#20,.F.);
#263=ADVANCED_FACE('',(#35),#21,.F.);
#264=ADVANCED_FACE('',(#36),#22,.F.);
#265=ADVANCED_FACE('',(#37),#23,.F.);
#266=ADVANCED_FACE('',(#38),#24,.F.);
#267=CLOSED_SHELL('',(#253,#254,#255,#256,#257,#258,#259,#260,#261,#262,
#263,#264,#265,#266));
#268=DERIVED_UNIT_ELEMENT(#270,1.);
#269=DERIVED_UNIT_ELEMENT(#457,-3.);
#270=(
MASS_UNIT()
NAMED_UNIT(*)
SI_UNIT(.KILO.,.GRAM.)
);
#271=DERIVED_UNIT((#268,#269));
#272=MEASURE_REPRESENTATION_ITEM('density measure',
POSITIVE_RATIO_MEASURE(7850.),#271);
#273=PROPERTY_DEFINITION_REPRESENTATION(#278,#275);
#274=PROPERTY_DEFINITION_REPRESENTATION(#279,#276);
#275=REPRESENTATION('material name',(#277),#454);
#276=REPRESENTATION('density',(#272),#454);
#277=DESCRIPTIVE_REPRESENTATION_ITEM('Steel','Steel');
#278=PROPERTY_DEFINITION('material property','material name',#464);
#279=PROPERTY_DEFINITION('material property','density of part',#464);
#280=AXIS2_PLACEMENT_3D('',#377,#303,#304);
#281=AXIS2_PLACEMENT_3D('',#378,#305,#306);
#282=AXIS2_PLACEMENT_3D('',#381,#307,#308);
#283=AXIS2_PLACEMENT_3D('',#385,#310,#311);
#284=AXIS2_PLACEMENT_3D('',#387,#313,#314);
#285=AXIS2_PLACEMENT_3D('',#395,#318,#319);
#286=AXIS2_PLACEMENT_3D('',#399,#321,#322);
#287=AXIS2_PLACEMENT_3D('',#407,#326,#327);
#288=AXIS2_PLACEMENT_3D('',#409,#329,#330);
#289=AXIS2_PLACEMENT_3D('',#413,#333,#334);
#290=AXIS2_PLACEMENT_3D('',#416,#335,#336);
#291=AXIS2_PLACEMENT_3D('',#419,#339,#340);
#292=AXIS2_PLACEMENT_3D('',#423,#343,#344);
#293=AXIS2_PLACEMENT_3D('',#427,#346,#347);
#294=AXIS2_PLACEMENT_3D('',#429,#349,#350);
#295=AXIS2_PLACEMENT_3D('',#437,#355,#356);
#296=AXIS2_PLACEMENT_3D('',#441,#359,#360);
#297=AXIS2_PLACEMENT_3D('',#443,#362,#363);
#298=AXIS2_PLACEMENT_3D('',#445,#365,#366);
#299=AXIS2_PLACEMENT_3D('',#447,#368,#369);
#300=AXIS2_PLACEMENT_3D('',#449,#371,#372);
#301=AXIS2_PLACEMENT_3D('',#450,#373,#374);
#302=AXIS2_PLACEMENT_3D('',#451,#375,#376);
#303=DIRECTION('axis',(0.,0.,1.));
#304=DIRECTION('refdir',(1.,0.,0.));
#305=DIRECTION('center_axis',(0.,0.,1.));
#306=DIRECTION('ref_axis',(-1.83697019872103E-16,-1.,0.));
#307=DIRECTION('center_axis',(0.,0.,-1.));
#308=DIRECTION('ref_axis',(1.,0.,0.));
#309=DIRECTION('',(0.,0.,1.));
#310=DIRECTION('center_axis',(0.,0.,1.));
#311=DIRECTION('ref_axis',(1.,0.,0.));
#312=DIRECTION('',(0.,0.,-1.));
#313=DIRECTION('center_axis',(0.,0.,1.));
#314=DIRECTION('ref_axis',(1.,0.,0.));
#315=DIRECTION('',(1.,0.,0.));
#316=DIRECTION('',(0.,-1.,0.));
#317=DIRECTION('',(-1.,0.,0.));
#318=DIRECTION('center_axis',(0.,0.,1.));
#319=DIRECTION('ref_axis',(1.,0.,0.));
#320=DIRECTION('',(-1.,0.,0.));
#321=DIRECTION('center_axis',(0.,0.,1.));
#322=DIRECTION('ref_axis',(1.,0.,0.));
#323=DIRECTION('',(-1.,0.,0.));
#324=DIRECTION('',(0.,1.,0.));
#325=DIRECTION('',(1.,0.,0.));
#326=DIRECTION('center_axis',(0.,0.,1.));
#327=DIRECTION('ref_axis',(1.,0.,0.));
#328=DIRECTION('',(1.,0.,0.));
#329=DIRECTION('center_axis',(0.,-1.,0.));
#330=DIRECTION('ref_axis',(0.,0.,-1.));
#331=DIRECTION('',(-1.,0.,0.));
#332=DIRECTION('',(0.,0.,-1.));
#333=DIRECTION('center_axis',(0.,0.,1.));
#334=DIRECTION('ref_axis',(2.83276944882399E-16,1.,0.));
#335=DIRECTION('center_axis',(0.,0.,-1.));
#336=DIRECTION('ref_axis',(1.,0.,0.));
#337=DIRECTION('',(0.,0.,1.));
#338=DIRECTION('',(0.,0.,-1.));
#339=DIRECTION('center_axis',(0.,1.,0.));
#340=DIRECTION('ref_axis',(0.,0.,1.));
#341=DIRECTION('',(1.,0.,0.));
#342=DIRECTION('',(0.,0.,-1.));
#343=DIRECTION('center_axis',(0.,0.,1.));
#344=DIRECTION('ref_axis',(-1.83697019872103E-16,-1.,0.));
#345=DIRECTION('',(0.,0.,-1.));
#346=DIRECTION('center_axis',(0.,0.,-1.));
#347=DIRECTION('ref_axis',(1.,0.,0.));
#348=DIRECTION('',(0.,0.,1.));
#349=DIRECTION('center_axis',(0.,0.,1.));
#350=DIRECTION('ref_axis',(1.,0.,0.));
#351=DIRECTION('',(-1.,0.,0.));
#352=DIRECTION('',(-1.,0.,0.));
#353=DIRECTION('',(0.,-1.,0.));
#354=DIRECTION('',(1.,0.,0.));
#355=DIRECTION('center_axis',(0.,0.,-1.));
#356=DIRECTION('ref_axis',(1.,0.,0.));
#357=DIRECTION('',(1.,0.,0.));
#358=DIRECTION('',(0.,1.,0.));
#359=DIRECTION('center_axis',(0.,-1.,0.));
#360=DIRECTION('ref_axis',(0.,0.,-1.));
#361=DIRECTION('',(0.,0.,-1.));
#362=DIRECTION('center_axis',(0.,0.,1.));
#363=DIRECTION('ref_axis',(6.12323399573677E-17,1.,0.));
#364=DIRECTION('',(0.,0.,1.));
#365=DIRECTION('center_axis',(0.,1.,0.));
#366=DIRECTION('ref_axis',(0.,0.,1.));
#367=DIRECTION('',(0.,0.,-1.));
#368=DIRECTION('center_axis',(0.,1.,0.));
#369=DIRECTION('ref_axis',(0.,0.,1.));
#370=DIRECTION('',(0.,0.,-1.));
#371=DIRECTION('center_axis',(1.,0.,0.));
#372=DIRECTION('ref_axis',(0.,0.,-1.));
#373=DIRECTION('center_axis',(0.,-1.,0.));
#374=DIRECTION('ref_axis',(0.,0.,-1.));
#375=DIRECTION('center_axis',(-1.,0.,0.));
#376=DIRECTION('ref_axis',(0.,0.,1.));
#377=CARTESIAN_POINT('',(0.,0.,0.));
#378=CARTESIAN_POINT('Origin',(332.,25.,326.3935055785));
#379=CARTESIAN_POINT('',(333.959591794227,26.,328.8935055785));
#380=CARTESIAN_POINT('',(330.040408205774,26.,328.8935055785));
#381=CARTESIAN_POINT('Origin',(332.,25.,328.8935055785));
#382=CARTESIAN_POINT('',(333.959591794227,26.,323.8935055785));
#383=CARTESIAN_POINT('',(333.959591794227,26.,326.3935055785));
#384=CARTESIAN_POINT('',(330.040408205774,26.,323.8935055785));
#385=CARTESIAN_POINT('Origin',(332.,25.,323.8935055785));
#386=CARTESIAN_POINT('',(330.040408205774,26.,326.3935055785));
#387=CARTESIAN_POINT('Origin',(318.,0.,323.8935055785));
#388=CARTESIAN_POINT('',(339.,26.,323.8935055785));
#389=CARTESIAN_POINT('',(318.,26.,323.8935055785));
#390=CARTESIAN_POINT('',(339.,-26.,323.8935055785));
#391=CARTESIAN_POINT('',(339.,0.,323.8935055785));
#392=CARTESIAN_POINT('',(333.959591794227,-26.,323.8935055785));
#393=CARTESIAN_POINT('',(318.,-26.,323.8935055785));
#394=CARTESIAN_POINT('',(330.040408205774,-26.,323.8935055785));
#395=CARTESIAN_POINT('Origin',(332.,-25.,323.8935055785));
#396=CARTESIAN_POINT('',(305.959591794227,-26.,323.8935055785));
#397=CARTESIAN_POINT('',(318.,-26.,323.8935055785));
#398=CARTESIAN_POINT('',(302.040408205773,-26.,323.8935055785));
#399=CARTESIAN_POINT('Origin',(304.,-25.,323.8935055785));
#400=CARTESIAN_POINT('',(297.,-26.,323.8935055785));
#401=CARTESIAN_POINT('',(318.,-26.,323.8935055785));
#402=CARTESIAN_POINT('',(297.,26.,323.8935055785));
#403=CARTESIAN_POINT('',(297.,0.,323.8935055785));
#404=CARTESIAN_POINT('',(302.040408205773,26.,323.8935055785));
#405=CARTESIAN_POINT('',(318.,26.,323.8935055785));
#406=CARTESIAN_POINT('',(305.959591794227,26.,323.8935055785));
#407=CARTESIAN_POINT('Origin',(304.,25.,323.8935055785));
#408=CARTESIAN_POINT('',(318.,26.,323.8935055785));
#409=CARTESIAN_POINT('Origin',(318.,26.,326.3935055785));
#410=CARTESIAN_POINT('',(339.,26.,328.8935055785));
#411=CARTESIAN_POINT('',(318.,26.,328.8935055785));
#412=CARTESIAN_POINT('',(339.,26.,326.3935055785));
#413=CARTESIAN_POINT('Origin',(332.,-25.,326.3935055785));
#414=CARTESIAN_POINT('',(330.040408205774,-26.,328.8935055785));
#415=CARTESIAN_POINT('',(333.959591794227,-26.,328.8935055785));
#416=CARTESIAN_POINT('Origin',(332.,-25.,328.8935055785));
#417=CARTESIAN_POINT('',(330.040408205774,-26.,326.3935055785));
#418=CARTESIAN_POINT('',(333.959591794227,-26.,326.3935055785));
#419=CARTESIAN_POINT('Origin',(318.,-26.,326.3935055785));
#420=CARTESIAN_POINT('',(305.959591794227,-26.,328.8935055785));
#421=CARTESIAN_POINT('',(318.,-26.,328.8935055785));
#422=CARTESIAN_POINT('',(305.959591794227,-26.,326.3935055785));
#423=CARTESIAN_POINT('Origin',(304.,25.,326.3935055785));
#424=CARTESIAN_POINT('',(302.040408205773,26.,328.8935055785));
#425=CARTESIAN_POINT('',(302.040408205773,26.,326.3935055785));
#426=CARTESIAN_POINT('',(305.959591794227,26.,328.8935055785));
#427=CARTESIAN_POINT('Origin',(304.,25.,328.8935055785));
#428=CARTESIAN_POINT('',(305.959591794227,26.,326.3935055785));
#429=CARTESIAN_POINT('Origin',(318.,0.,328.8935055785));
#430=CARTESIAN_POINT('',(318.,26.,328.8935055785));
#431=CARTESIAN_POINT('',(297.,26.,328.8935055785));
#432=CARTESIAN_POINT('',(318.,26.,328.8935055785));
#433=CARTESIAN_POINT('',(297.,-26.,328.8935055785));
#434=CARTESIAN_POINT('',(297.,0.,328.8935055785));
#435=CARTESIAN_POINT('',(302.040408205773,-26.,328.8935055785));
#436=CARTESIAN_POINT('',(318.,-26.,328.8935055785));
#437=CARTESIAN_POINT('Origin',(304.,-25.,328.8935055785));
#438=CARTESIAN_POINT('',(339.,-26.,328.8935055785));
#439=CARTESIAN_POINT('',(318.,-26.,328.8935055785));
#440=CARTESIAN_POINT('',(339.,0.,328.8935055785));
#441=CARTESIAN_POINT('Origin',(318.,26.,326.3935055785));
#442=CARTESIAN_POINT('',(297.,26.,326.3935055785));
#443=CARTESIAN_POINT('Origin',(304.,-25.,326.3935055785));
#444=CARTESIAN_POINT('',(302.040408205773,-26.,326.3935055785));
#445=CARTESIAN_POINT('Origin',(318.,-26.,326.3935055785));
#446=CARTESIAN_POINT('',(339.,-26.,326.3935055785));
#447=CARTESIAN_POINT('Origin',(318.,-26.,326.3935055785));
#448=CARTESIAN_POINT('',(297.,-26.,326.3935055785));
#449=CARTESIAN_POINT('Origin',(297.,0.,326.3935055785));
#450=CARTESIAN_POINT('Origin',(318.,26.,326.3935055785));
#451=CARTESIAN_POINT('Origin',(339.,0.,326.3935055785));
#452=UNCERTAINTY_MEASURE_WITH_UNIT(LENGTH_MEASURE(0.01),#456,
'DISTANCE_ACCURACY_VALUE',
'Maximum model space distance between geometric entities at asserted c
onnectivities');
#453=UNCERTAINTY_MEASURE_WITH_UNIT(LENGTH_MEASURE(0.01),#456,
'DISTANCE_ACCURACY_VALUE',
'Maximum model space distance between geometric entities at asserted c
onnectivities');
#454=(
GEOMETRIC_REPRESENTATION_CONTEXT(3)
GLOBAL_UNCERTAINTY_ASSIGNED_CONTEXT((#452))
GLOBAL_UNIT_ASSIGNED_CONTEXT((#456,#458,#459))
REPRESENTATION_CONTEXT('','3D')
);
#455=(
GEOMETRIC_REPRESENTATION_CONTEXT(3)
GLOBAL_UNCERTAINTY_ASSIGNED_CONTEXT((#453))
GLOBAL_UNIT_ASSIGNED_CONTEXT((#456,#458,#459))
REPRESENTATION_CONTEXT('','3D')
);
#456=(
LENGTH_UNIT()
NAMED_UNIT(*)
SI_UNIT(.MILLI.,.METRE.)
);
#457=(
LENGTH_UNIT()
NAMED_UNIT(*)
SI_UNIT($,.METRE.)
);
#458=(
NAMED_UNIT(*)
PLANE_ANGLE_UNIT()
SI_UNIT($,.RADIAN.)
);
#459=(
NAMED_UNIT(*)
SI_UNIT($,.STERADIAN.)
SOLID_ANGLE_UNIT()
);
#460=SHAPE_DEFINITION_REPRESENTATION(#461,#462);
#461=PRODUCT_DEFINITION_SHAPE('',$,#464);
#462=SHAPE_REPRESENTATION('',(#280),#454);
#463=PRODUCT_DEFINITION_CONTEXT('part definition',#468,'design');
#464=PRODUCT_DEFINITION('2026-08-12-23-08-52-098',
'EXPORT_TMP_PRINT_V007_P309_J4_MotorRearSupportClamp',#465,#463);
#465=PRODUCT_DEFINITION_FORMATION('',$,#470);
#466=PRODUCT_RELATED_PRODUCT_CATEGORY(
'EXPORT_TMP_PRINT_V007_P309_J4_MotorRearSupportClamp',
'EXPORT_TMP_PRINT_V007_P309_J4_MotorRearSupportClamp',(#470));
#467=APPLICATION_PROTOCOL_DEFINITION('international standard',
'automotive_design',2009,#468);
#468=APPLICATION_CONTEXT(
'Core Data for Automotive Mechanical Design Process');
#469=PRODUCT_CONTEXT('part definition',#468,'mechanical');
#470=PRODUCT('2026-08-12-23-08-52-098',
'EXPORT_TMP_PRINT_V007_P309_J4_MotorRearSupportClamp',$,(#469));
#471=PRESENTATION_STYLE_ASSIGNMENT((#472));
#472=SURFACE_STYLE_USAGE(.BOTH.,#473);
#473=SURFACE_SIDE_STYLE('',(#474));
#474=SURFACE_STYLE_FILL_AREA(#475);
#475=FILL_AREA_STYLE('Steel - Satin',(#476));
#476=FILL_AREA_STYLE_COLOUR('Steel - Satin',#477);
#477=COLOUR_RGB('Steel - Satin',0.627450980392157,0.627450980392157,0.627450980392157);
ENDSEC;
END-ISO-10303-21;
