ISO-10303-21;
HEADER;
/* Generated by software containing ST-Developer
 * from STEP Tools, Inc. (www.steptools.com) 
 */

FILE_DESCRIPTION(
/* description */ (''),
/* implementation_level */ '2;1');

FILE_NAME(
/* name */ 'PRINT_V007E_P306_J4_GearmotorServiceCover_Clearanced.step',

/* time_stamp */ '2026-08-29T21:38:52+02:00',
/* author */ (''),
/* organization */ (''),
/* preprocessor_version */ 'ST-DEVELOPER v20.1',
/* originating_system */ 'Autodesk Translation Framework v15.8.0.0',
/* authorisation */ '');

FILE_SCHEMA (('AUTOMOTIVE_DESIGN { 1 0 10303 214 3 1 1 }'));
ENDSEC;

DATA;
#10=MECHANICAL_DESIGN_GEOMETRIC_PRESENTATION_REPRESENTATION('',(#13),#857);
#11=SHAPE_REPRESENTATION_RELATIONSHIP('SRR','None',#864,#12);
#12=ADVANCED_BREP_SHAPE_REPRESENTATION('',(#14),#856);
#13=STYLED_ITEM('',(#873),#14);
#14=MANIFOLD_SOLID_BREP(
'PRINT_V007E_P306_J4_GearmotorServiceCover_Clearanced',#515);
#15=FACE_BOUND('',#88,.T.);
#16=FACE_BOUND('',#89,.T.);
#17=FACE_BOUND('',#91,.T.);
#18=FACE_BOUND('',#92,.T.);
#19=FACE_BOUND('',#96,.T.);
#20=FACE_BOUND('',#97,.T.);
#21=FACE_BOUND('',#104,.T.);
#22=FACE_BOUND('',#105,.T.);
#23=CIRCLE('',#539,1.7);
#24=CIRCLE('',#540,1.7);
#25=CIRCLE('',#542,1.7);
#26=CIRCLE('',#543,1.7);
#27=CIRCLE('',#545,1.7);
#28=CIRCLE('',#546,1.7);
#29=CIRCLE('',#548,1.7);
#30=CIRCLE('',#549,1.7);
#31=CIRCLE('',#551,5.);
#32=CIRCLE('',#552,5.);
#33=CIRCLE('',#556,5.);
#34=CIRCLE('',#558,5.);
#35=CIRCLE('',#562,8.);
#36=CIRCLE('',#563,8.);
#37=CIRCLE('',#565,8.);
#38=CIRCLE('',#567,8.);
#39=CYLINDRICAL_SURFACE('',#538,1.7);
#40=CYLINDRICAL_SURFACE('',#541,1.7);
#41=CYLINDRICAL_SURFACE('',#544,1.7);
#42=CYLINDRICAL_SURFACE('',#547,1.7);
#43=CYLINDRICAL_SURFACE('',#555,5.);
#44=CYLINDRICAL_SURFACE('',#557,5.);
#45=CYLINDRICAL_SURFACE('',#561,8.);
#46=CYLINDRICAL_SURFACE('',#566,8.);
#47=FACE_OUTER_BOUND('',#73,.T.);
#48=FACE_OUTER_BOUND('',#74,.T.);
#49=FACE_OUTER_BOUND('',#75,.T.);
#50=FACE_OUTER_BOUND('',#76,.T.);
#51=FACE_OUTER_BOUND('',#77,.T.);
#52=FACE_OUTER_BOUND('',#78,.T.);
#53=FACE_OUTER_BOUND('',#79,.T.);
#54=FACE_OUTER_BOUND('',#80,.T.);
#55=FACE_OUTER_BOUND('',#81,.T.);
#56=FACE_OUTER_BOUND('',#82,.T.);
#57=FACE_OUTER_BOUND('',#83,.T.);
#58=FACE_OUTER_BOUND('',#84,.T.);
#59=FACE_OUTER_BOUND('',#85,.T.);
#60=FACE_OUTER_BOUND('',#86,.T.);
#61=FACE_OUTER_BOUND('',#87,.T.);
#62=FACE_OUTER_BOUND('',#90,.T.);
#63=FACE_OUTER_BOUND('',#93,.T.);
#64=FACE_OUTER_BOUND('',#94,.T.);
#65=FACE_OUTER_BOUND('',#95,.T.);
#66=FACE_OUTER_BOUND('',#98,.T.);
#67=FACE_OUTER_BOUND('',#99,.T.);
#68=FACE_OUTER_BOUND('',#100,.T.);
#69=FACE_OUTER_BOUND('',#101,.T.);
#70=FACE_OUTER_BOUND('',#102,.T.);
#71=FACE_OUTER_BOUND('',#103,.T.);
#72=FACE_OUTER_BOUND('',#106,.T.);
#73=EDGE_LOOP('',(#331,#332,#333,#334));
#74=EDGE_LOOP('',(#335,#336,#337,#338));
#75=EDGE_LOOP('',(#339,#340,#341,#342));
#76=EDGE_LOOP('',(#343,#344,#345,#346,#347,#348,#349));
#77=EDGE_LOOP('',(#350,#351,#352,#353));
#78=EDGE_LOOP('',(#354,#355,#356,#357,#358,#359));
#79=EDGE_LOOP('',(#360,#361,#362,#363));
#80=EDGE_LOOP('',(#364,#365,#366,#367));
#81=EDGE_LOOP('',(#368,#369,#370,#371,#372,#373,#374));
#82=EDGE_LOOP('',(#375,#376,#377,#378));
#83=EDGE_LOOP('',(#379,#380,#381,#382));
#84=EDGE_LOOP('',(#383,#384,#385,#386));
#85=EDGE_LOOP('',(#387,#388,#389,#390));
#86=EDGE_LOOP('',(#391,#392,#393,#394,#395,#396,#397,#398,#399,#400));
#87=EDGE_LOOP('',(#401,#402,#403,#404));
#88=EDGE_LOOP('',(#405));
#89=EDGE_LOOP('',(#406));
#90=EDGE_LOOP('',(#407,#408,#409,#410));
#91=EDGE_LOOP('',(#411));
#92=EDGE_LOOP('',(#412));
#93=EDGE_LOOP('',(#413,#414,#415,#416));
#94=EDGE_LOOP('',(#417,#418,#419,#420));
#95=EDGE_LOOP('',(#421,#422,#423,#424));
#96=EDGE_LOOP('',(#425));
#97=EDGE_LOOP('',(#426));
#98=EDGE_LOOP('',(#427,#428,#429,#430));
#99=EDGE_LOOP('',(#431,#432,#433,#434));
#100=EDGE_LOOP('',(#435,#436,#437,#438,#439,#440,#441,#442,#443,#444,#445,
#446));
#101=EDGE_LOOP('',(#447,#448,#449,#450));
#102=EDGE_LOOP('',(#451,#452,#453,#454,#455,#456,#457,#458,#459,#460));
#103=EDGE_LOOP('',(#461,#462,#463,#464));
#104=EDGE_LOOP('',(#465));
#105=EDGE_LOOP('',(#466));
#106=EDGE_LOOP('',(#467,#468,#469,#470));
#107=LINE('',#715,#161);
#108=LINE('',#717,#162);
#109=LINE('',#719,#163);
#110=LINE('',#720,#164);
#111=LINE('',#723,#165);
#112=LINE('',#725,#166);
#113=LINE('',#726,#167);
#114=LINE('',#730,#168);
#115=LINE('',#731,#169);
#116=LINE('',#732,#170);
#117=LINE('',#735,#171);
#118=LINE('',#737,#172);
#119=LINE('',#739,#173);
#120=LINE('',#741,#174);
#121=LINE('',#743,#175);
#122=LINE('',#744,#176);
#123=LINE('',#747,#177);
#124=LINE('',#749,#178);
#125=LINE('',#750,#179);
#126=LINE('',#753,#180);
#127=LINE('',#754,#181);
#128=LINE('',#757,#182);
#129=LINE('',#758,#183);
#130=LINE('',#761,#184);
#131=LINE('',#762,#185);
#132=LINE('',#765,#186);
#133=LINE('',#767,#187);
#134=LINE('',#769,#188);
#135=LINE('',#771,#189);
#136=LINE('',#772,#190);
#137=LINE('',#777,#191);
#138=LINE('',#783,#192);
#139=LINE('',#789,#193);
#140=LINE('',#795,#194);
#141=LINE('',#799,#195);
#142=LINE('',#803,#196);
#143=LINE('',#806,#197);
#144=LINE('',#809,#198);
#145=LINE('',#810,#199);
#146=LINE('',#813,#200);
#147=LINE('',#815,#201);
#148=LINE('',#816,#202);
#149=LINE('',#820,#203);
#150=LINE('',#825,#204);
#151=LINE('',#826,#205);
#152=LINE('',#828,#206);
#153=LINE('',#830,#207);
#154=LINE('',#835,#208);
#155=LINE('',#839,#209);
#156=LINE('',#842,#210);
#157=LINE('',#845,#211);
#158=LINE('',#848,#212);
#159=LINE('',#850,#213);
#160=LINE('',#851,#214);
#161=VECTOR('',#575,10.);
#162=VECTOR('',#576,10.);
#163=VECTOR('',#577,10.);
#164=VECTOR('',#578,10.);
#165=VECTOR('',#581,10.);
#166=VECTOR('',#582,10.);
#167=VECTOR('',#583,10.);
#168=VECTOR('',#586,10.);
#169=VECTOR('',#587,10.);
#170=VECTOR('',#588,10.);
#171=VECTOR('',#591,10.);
#172=VECTOR('',#592,10.);
#173=VECTOR('',#593,10.);
#174=VECTOR('',#594,10.);
#175=VECTOR('',#595,10.);
#176=VECTOR('',#596,10.);
#177=VECTOR('',#599,10.);
#178=VECTOR('',#600,10.);
#179=VECTOR('',#601,10.);
#180=VECTOR('',#604,10.);
#181=VECTOR('',#605,10.);
#182=VECTOR('',#608,10.);
#183=VECTOR('',#609,10.);
#184=VECTOR('',#612,10.);
#185=VECTOR('',#613,10.);
#186=VECTOR('',#616,10.);
#187=VECTOR('',#617,10.);
#188=VECTOR('',#618,10.);
#189=VECTOR('',#619,10.);
#190=VECTOR('',#620,10.);
#191=VECTOR('',#625,1.7);
#192=VECTOR('',#632,1.7);
#193=VECTOR('',#639,1.7);
#194=VECTOR('',#646,1.7);
#195=VECTOR('',#651,10.);
#196=VECTOR('',#654,10.);
#197=VECTOR('',#657,10.);
#198=VECTOR('',#660,10.);
#199=VECTOR('',#661,10.);
#200=VECTOR('',#664,10.);
#201=VECTOR('',#665,10.);
#202=VECTOR('',#666,10.);
#203=VECTOR('',#671,10.);
#204=VECTOR('',#676,10.);
#205=VECTOR('',#677,10.);
#206=VECTOR('',#680,10.);
#207=VECTOR('',#683,10.);
#208=VECTOR('',#688,10.);
#209=VECTOR('',#693,10.);
#210=VECTOR('',#696,10.);
#211=VECTOR('',#699,10.);
#212=VECTOR('',#702,10.);
#213=VECTOR('',#705,10.);
#214=VECTOR('',#706,10.);
#215=VERTEX_POINT('',#713);
#216=VERTEX_POINT('',#714);
#217=VERTEX_POINT('',#716);
#218=VERTEX_POINT('',#718);
#219=VERTEX_POINT('',#722);
#220=VERTEX_POINT('',#724);
#221=VERTEX_POINT('',#728);
#222=VERTEX_POINT('',#729);
#223=VERTEX_POINT('',#734);
#224=VERTEX_POINT('',#736);
#225=VERTEX_POINT('',#738);
#226=VERTEX_POINT('',#740);
#227=VERTEX_POINT('',#742);
#228=VERTEX_POINT('',#746);
#229=VERTEX_POINT('',#748);
#230=VERTEX_POINT('',#752);
#231=VERTEX_POINT('',#756);
#232=VERTEX_POINT('',#760);
#233=VERTEX_POINT('',#764);
#234=VERTEX_POINT('',#766);
#235=VERTEX_POINT('',#768);
#236=VERTEX_POINT('',#770);
#237=VERTEX_POINT('',#774);
#238=VERTEX_POINT('',#776);
#239=VERTEX_POINT('',#780);
#240=VERTEX_POINT('',#782);
#241=VERTEX_POINT('',#786);
#242=VERTEX_POINT('',#788);
#243=VERTEX_POINT('',#792);
#244=VERTEX_POINT('',#794);
#245=VERTEX_POINT('',#798);
#246=VERTEX_POINT('',#800);
#247=VERTEX_POINT('',#802);
#248=VERTEX_POINT('',#804);
#249=VERTEX_POINT('',#808);
#250=VERTEX_POINT('',#812);
#251=VERTEX_POINT('',#814);
#252=VERTEX_POINT('',#818);
#253=VERTEX_POINT('',#822);
#254=VERTEX_POINT('',#823);
#255=VERTEX_POINT('',#832);
#256=VERTEX_POINT('',#834);
#257=VERTEX_POINT('',#838);
#258=VERTEX_POINT('',#840);
#259=VERTEX_POINT('',#844);
#260=VERTEX_POINT('',#846);
#261=EDGE_CURVE('',#215,#216,#107,.T.);
#262=EDGE_CURVE('',#215,#217,#108,.T.);
#263=EDGE_CURVE('',#218,#217,#109,.T.);
#264=EDGE_CURVE('',#216,#218,#110,.T.);
#265=EDGE_CURVE('',#219,#218,#111,.T.);
#266=EDGE_CURVE('',#217,#220,#112,.T.);
#267=EDGE_CURVE('',#220,#219,#113,.T.);
#268=EDGE_CURVE('',#221,#222,#114,.T.);
#269=EDGE_CURVE('',#221,#219,#115,.T.);
#270=EDGE_CURVE('',#222,#220,#116,.T.);
#271=EDGE_CURVE('',#223,#222,#117,.T.);
#272=EDGE_CURVE('',#224,#223,#118,.T.);
#273=EDGE_CURVE('',#225,#224,#119,.T.);
#274=EDGE_CURVE('',#226,#225,#120,.T.);
#275=EDGE_CURVE('',#227,#226,#121,.T.);
#276=EDGE_CURVE('',#227,#221,#122,.T.);
#277=EDGE_CURVE('',#228,#227,#123,.T.);
#278=EDGE_CURVE('',#228,#229,#124,.T.);
#279=EDGE_CURVE('',#229,#221,#125,.T.);
#280=EDGE_CURVE('',#229,#230,#126,.T.);
#281=EDGE_CURVE('',#230,#216,#127,.T.);
#282=EDGE_CURVE('',#231,#228,#128,.T.);
#283=EDGE_CURVE('',#230,#231,#129,.T.);
#284=EDGE_CURVE('',#232,#231,#130,.T.);
#285=EDGE_CURVE('',#216,#232,#131,.T.);
#286=EDGE_CURVE('',#233,#232,#132,.T.);
#287=EDGE_CURVE('',#234,#233,#133,.T.);
#288=EDGE_CURVE('',#235,#234,#134,.T.);
#289=EDGE_CURVE('',#236,#235,#135,.T.);
#290=EDGE_CURVE('',#215,#236,#136,.T.);
#291=EDGE_CURVE('',#237,#237,#23,.T.);
#292=EDGE_CURVE('',#237,#238,#137,.T.);
#293=EDGE_CURVE('',#238,#238,#24,.T.);
#294=EDGE_CURVE('',#239,#239,#25,.T.);
#295=EDGE_CURVE('',#239,#240,#138,.T.);
#296=EDGE_CURVE('',#240,#240,#26,.T.);
#297=EDGE_CURVE('',#241,#241,#27,.T.);
#298=EDGE_CURVE('',#241,#242,#139,.T.);
#299=EDGE_CURVE('',#242,#242,#28,.T.);
#300=EDGE_CURVE('',#243,#243,#29,.T.);
#301=EDGE_CURVE('',#243,#244,#140,.T.);
#302=EDGE_CURVE('',#244,#244,#30,.T.);
#303=EDGE_CURVE('',#245,#226,#141,.T.);
#304=EDGE_CURVE('',#246,#245,#31,.T.);
#305=EDGE_CURVE('',#246,#247,#142,.T.);
#306=EDGE_CURVE('',#248,#247,#32,.T.);
#307=EDGE_CURVE('',#248,#233,#143,.T.);
#308=EDGE_CURVE('',#249,#225,#144,.T.);
#309=EDGE_CURVE('',#249,#245,#145,.T.);
#310=EDGE_CURVE('',#250,#223,#146,.T.);
#311=EDGE_CURVE('',#251,#250,#147,.T.);
#312=EDGE_CURVE('',#251,#224,#148,.T.);
#313=EDGE_CURVE('',#252,#249,#33,.T.);
#314=EDGE_CURVE('',#252,#246,#149,.T.);
#315=EDGE_CURVE('',#253,#254,#34,.T.);
#316=EDGE_CURVE('',#248,#253,#150,.T.);
#317=EDGE_CURVE('',#247,#254,#151,.T.);
#318=EDGE_CURVE('',#234,#253,#152,.T.);
#319=EDGE_CURVE('',#254,#252,#153,.T.);
#320=EDGE_CURVE('',#255,#250,#35,.T.);
#321=EDGE_CURVE('',#256,#255,#154,.T.);
#322=EDGE_CURVE('',#251,#256,#36,.T.);
#323=EDGE_CURVE('',#257,#256,#155,.T.);
#324=EDGE_CURVE('',#257,#258,#37,.T.);
#325=EDGE_CURVE('',#258,#235,#156,.T.);
#326=EDGE_CURVE('',#259,#257,#157,.T.);
#327=EDGE_CURVE('',#260,#259,#38,.T.);
#328=EDGE_CURVE('',#260,#258,#158,.T.);
#329=EDGE_CURVE('',#260,#236,#159,.T.);
#330=EDGE_CURVE('',#255,#259,#160,.T.);
#331=ORIENTED_EDGE('',*,*,#261,.F.);
#332=ORIENTED_EDGE('',*,*,#262,.T.);
#333=ORIENTED_EDGE('',*,*,#263,.F.);
#334=ORIENTED_EDGE('',*,*,#264,.F.);
#335=ORIENTED_EDGE('',*,*,#265,.T.);
#336=ORIENTED_EDGE('',*,*,#263,.T.);
#337=ORIENTED_EDGE('',*,*,#266,.T.);
#338=ORIENTED_EDGE('',*,*,#267,.T.);
#339=ORIENTED_EDGE('',*,*,#268,.F.);
#340=ORIENTED_EDGE('',*,*,#269,.T.);
#341=ORIENTED_EDGE('',*,*,#267,.F.);
#342=ORIENTED_EDGE('',*,*,#270,.F.);
#343=ORIENTED_EDGE('',*,*,#268,.T.);
#344=ORIENTED_EDGE('',*,*,#271,.F.);
#345=ORIENTED_EDGE('',*,*,#272,.F.);
#346=ORIENTED_EDGE('',*,*,#273,.F.);
#347=ORIENTED_EDGE('',*,*,#274,.F.);
#348=ORIENTED_EDGE('',*,*,#275,.F.);
#349=ORIENTED_EDGE('',*,*,#276,.T.);
#350=ORIENTED_EDGE('',*,*,#277,.F.);
#351=ORIENTED_EDGE('',*,*,#278,.T.);
#352=ORIENTED_EDGE('',*,*,#279,.T.);
#353=ORIENTED_EDGE('',*,*,#276,.F.);
#354=ORIENTED_EDGE('',*,*,#279,.F.);
#355=ORIENTED_EDGE('',*,*,#280,.T.);
#356=ORIENTED_EDGE('',*,*,#281,.T.);
#357=ORIENTED_EDGE('',*,*,#264,.T.);
#358=ORIENTED_EDGE('',*,*,#265,.F.);
#359=ORIENTED_EDGE('',*,*,#269,.F.);
#360=ORIENTED_EDGE('',*,*,#282,.F.);
#361=ORIENTED_EDGE('',*,*,#283,.F.);
#362=ORIENTED_EDGE('',*,*,#280,.F.);
#363=ORIENTED_EDGE('',*,*,#278,.F.);
#364=ORIENTED_EDGE('',*,*,#284,.F.);
#365=ORIENTED_EDGE('',*,*,#285,.F.);
#366=ORIENTED_EDGE('',*,*,#281,.F.);
#367=ORIENTED_EDGE('',*,*,#283,.T.);
#368=ORIENTED_EDGE('',*,*,#261,.T.);
#369=ORIENTED_EDGE('',*,*,#285,.T.);
#370=ORIENTED_EDGE('',*,*,#286,.F.);
#371=ORIENTED_EDGE('',*,*,#287,.F.);
#372=ORIENTED_EDGE('',*,*,#288,.F.);
#373=ORIENTED_EDGE('',*,*,#289,.F.);
#374=ORIENTED_EDGE('',*,*,#290,.F.);
#375=ORIENTED_EDGE('',*,*,#291,.F.);
#376=ORIENTED_EDGE('',*,*,#292,.T.);
#377=ORIENTED_EDGE('',*,*,#293,.F.);
#378=ORIENTED_EDGE('',*,*,#292,.F.);
#379=ORIENTED_EDGE('',*,*,#294,.F.);
#380=ORIENTED_EDGE('',*,*,#295,.T.);
#381=ORIENTED_EDGE('',*,*,#296,.F.);
#382=ORIENTED_EDGE('',*,*,#295,.F.);
#383=ORIENTED_EDGE('',*,*,#297,.F.);
#384=ORIENTED_EDGE('',*,*,#298,.T.);
#385=ORIENTED_EDGE('',*,*,#299,.F.);
#386=ORIENTED_EDGE('',*,*,#298,.F.);
#387=ORIENTED_EDGE('',*,*,#300,.F.);
#388=ORIENTED_EDGE('',*,*,#301,.T.);
#389=ORIENTED_EDGE('',*,*,#302,.F.);
#390=ORIENTED_EDGE('',*,*,#301,.F.);
#391=ORIENTED_EDGE('',*,*,#277,.T.);
#392=ORIENTED_EDGE('',*,*,#275,.T.);
#393=ORIENTED_EDGE('',*,*,#303,.F.);
#394=ORIENTED_EDGE('',*,*,#304,.F.);
#395=ORIENTED_EDGE('',*,*,#305,.T.);
#396=ORIENTED_EDGE('',*,*,#306,.F.);
#397=ORIENTED_EDGE('',*,*,#307,.T.);
#398=ORIENTED_EDGE('',*,*,#286,.T.);
#399=ORIENTED_EDGE('',*,*,#284,.T.);
#400=ORIENTED_EDGE('',*,*,#282,.T.);
#401=ORIENTED_EDGE('',*,*,#274,.T.);
#402=ORIENTED_EDGE('',*,*,#308,.F.);
#403=ORIENTED_EDGE('',*,*,#309,.T.);
#404=ORIENTED_EDGE('',*,*,#303,.T.);
#405=ORIENTED_EDGE('',*,*,#294,.T.);
#406=ORIENTED_EDGE('',*,*,#300,.T.);
#407=ORIENTED_EDGE('',*,*,#272,.T.);
#408=ORIENTED_EDGE('',*,*,#310,.F.);
#409=ORIENTED_EDGE('',*,*,#311,.F.);
#410=ORIENTED_EDGE('',*,*,#312,.T.);
#411=ORIENTED_EDGE('',*,*,#296,.T.);
#412=ORIENTED_EDGE('',*,*,#302,.T.);
#413=ORIENTED_EDGE('',*,*,#313,.F.);
#414=ORIENTED_EDGE('',*,*,#314,.T.);
#415=ORIENTED_EDGE('',*,*,#304,.T.);
#416=ORIENTED_EDGE('',*,*,#309,.F.);
#417=ORIENTED_EDGE('',*,*,#315,.F.);
#418=ORIENTED_EDGE('',*,*,#316,.F.);
#419=ORIENTED_EDGE('',*,*,#306,.T.);
#420=ORIENTED_EDGE('',*,*,#317,.T.);
#421=ORIENTED_EDGE('',*,*,#287,.T.);
#422=ORIENTED_EDGE('',*,*,#307,.F.);
#423=ORIENTED_EDGE('',*,*,#316,.T.);
#424=ORIENTED_EDGE('',*,*,#318,.F.);
#425=ORIENTED_EDGE('',*,*,#293,.T.);
#426=ORIENTED_EDGE('',*,*,#299,.T.);
#427=ORIENTED_EDGE('',*,*,#319,.F.);
#428=ORIENTED_EDGE('',*,*,#317,.F.);
#429=ORIENTED_EDGE('',*,*,#305,.F.);
#430=ORIENTED_EDGE('',*,*,#314,.F.);
#431=ORIENTED_EDGE('',*,*,#311,.T.);
#432=ORIENTED_EDGE('',*,*,#320,.F.);
#433=ORIENTED_EDGE('',*,*,#321,.F.);
#434=ORIENTED_EDGE('',*,*,#322,.F.);
#435=ORIENTED_EDGE('',*,*,#288,.T.);
#436=ORIENTED_EDGE('',*,*,#318,.T.);
#437=ORIENTED_EDGE('',*,*,#315,.T.);
#438=ORIENTED_EDGE('',*,*,#319,.T.);
#439=ORIENTED_EDGE('',*,*,#313,.T.);
#440=ORIENTED_EDGE('',*,*,#308,.T.);
#441=ORIENTED_EDGE('',*,*,#273,.T.);
#442=ORIENTED_EDGE('',*,*,#312,.F.);
#443=ORIENTED_EDGE('',*,*,#322,.T.);
#444=ORIENTED_EDGE('',*,*,#323,.F.);
#445=ORIENTED_EDGE('',*,*,#324,.T.);
#446=ORIENTED_EDGE('',*,*,#325,.T.);
#447=ORIENTED_EDGE('',*,*,#326,.F.);
#448=ORIENTED_EDGE('',*,*,#327,.F.);
#449=ORIENTED_EDGE('',*,*,#328,.T.);
#450=ORIENTED_EDGE('',*,*,#324,.F.);
#451=ORIENTED_EDGE('',*,*,#290,.T.);
#452=ORIENTED_EDGE('',*,*,#329,.F.);
#453=ORIENTED_EDGE('',*,*,#327,.T.);
#454=ORIENTED_EDGE('',*,*,#330,.F.);
#455=ORIENTED_EDGE('',*,*,#320,.T.);
#456=ORIENTED_EDGE('',*,*,#310,.T.);
#457=ORIENTED_EDGE('',*,*,#271,.T.);
#458=ORIENTED_EDGE('',*,*,#270,.T.);
#459=ORIENTED_EDGE('',*,*,#266,.F.);
#460=ORIENTED_EDGE('',*,*,#262,.F.);
#461=ORIENTED_EDGE('',*,*,#289,.T.);
#462=ORIENTED_EDGE('',*,*,#325,.F.);
#463=ORIENTED_EDGE('',*,*,#328,.F.);
#464=ORIENTED_EDGE('',*,*,#329,.T.);
#465=ORIENTED_EDGE('',*,*,#291,.T.);
#466=ORIENTED_EDGE('',*,*,#297,.T.);
#467=ORIENTED_EDGE('',*,*,#323,.T.);
#468=ORIENTED_EDGE('',*,*,#321,.T.);
#469=ORIENTED_EDGE('',*,*,#330,.T.);
#470=ORIENTED_EDGE('',*,*,#326,.T.);
#471=PLANE('',#529);
#472=PLANE('',#530);
#473=PLANE('',#531);
#474=PLANE('',#532);
#475=PLANE('',#533);
#476=PLANE('',#534);
#477=PLANE('',#535);
#478=PLANE('',#536);
#479=PLANE('',#537);
#480=PLANE('',#550);
#481=PLANE('',#553);
#482=PLANE('',#554);
#483=PLANE('',#559);
#484=PLANE('',#560);
#485=PLANE('',#564);
#486=PLANE('',#568);
#487=PLANE('',#569);
#488=PLANE('',#570);
#489=ADVANCED_FACE('',(#47),#471,.F.);
#490=ADVANCED_FACE('',(#48),#472,.F.);
#491=ADVANCED_FACE('',(#49),#473,.F.);
#492=ADVANCED_FACE('',(#50),#474,.F.);
#493=ADVANCED_FACE('',(#51),#475,.T.);
#494=ADVANCED_FACE('',(#52),#476,.T.);
#495=ADVANCED_FACE('',(#53),#477,.F.);
#496=ADVANCED_FACE('',(#54),#478,.T.);
#497=ADVANCED_FACE('',(#55),#479,.F.);
#498=ADVANCED_FACE('',(#56),#39,.F.);
#499=ADVANCED_FACE('',(#57),#40,.F.);
#500=ADVANCED_FACE('',(#58),#41,.F.);
#501=ADVANCED_FACE('',(#59),#42,.F.);
#502=ADVANCED_FACE('',(#60),#480,.T.);
#503=ADVANCED_FACE('',(#61,#15,#16),#481,.T.);
#504=ADVANCED_FACE('',(#62,#17,#18),#482,.F.);
#505=ADVANCED_FACE('',(#63),#43,.F.);
#506=ADVANCED_FACE('',(#64),#44,.F.);
#507=ADVANCED_FACE('',(#65,#19,#20),#483,.T.);
#508=ADVANCED_FACE('',(#66),#484,.F.);
#509=ADVANCED_FACE('',(#67),#45,.T.);
#510=ADVANCED_FACE('',(#68),#485,.F.);
#511=ADVANCED_FACE('',(#69),#46,.T.);
#512=ADVANCED_FACE('',(#70),#486,.F.);
#513=ADVANCED_FACE('',(#71,#21,#22),#487,.F.);
#514=ADVANCED_FACE('',(#72),#488,.T.);
#515=CLOSED_SHELL('',(#489,#490,#491,#492,#493,#494,#495,#496,#497,#498,
#499,#500,#501,#502,#503,#504,#505,#506,#507,#508,#509,#510,#511,#512,#513,
#514));
#516=DERIVED_UNIT_ELEMENT(#518,1.);
#517=DERIVED_UNIT_ELEMENT(#859,-3.);
#518=(
MASS_UNIT()
NAMED_UNIT(*)
SI_UNIT(.KILO.,.GRAM.)
);
#519=DERIVED_UNIT((#516,#517));
#520=MEASURE_REPRESENTATION_ITEM('density measure',
POSITIVE_RATIO_MEASURE(7850.),#519);
#521=PROPERTY_DEFINITION_REPRESENTATION(#526,#523);
#522=PROPERTY_DEFINITION_REPRESENTATION(#527,#524);
#523=REPRESENTATION('material name',(#525),#856);
#524=REPRESENTATION('density',(#520),#856);
#525=DESCRIPTIVE_REPRESENTATION_ITEM('Steel','Steel');
#526=PROPERTY_DEFINITION('material property','material name',#866);
#527=PROPERTY_DEFINITION('material property','density of part',#866);
#528=AXIS2_PLACEMENT_3D('',#711,#571,#572);
#529=AXIS2_PLACEMENT_3D('',#712,#573,#574);
#530=AXIS2_PLACEMENT_3D('',#721,#579,#580);
#531=AXIS2_PLACEMENT_3D('',#727,#584,#585);
#532=AXIS2_PLACEMENT_3D('',#733,#589,#590);
#533=AXIS2_PLACEMENT_3D('',#745,#597,#598);
#534=AXIS2_PLACEMENT_3D('',#751,#602,#603);
#535=AXIS2_PLACEMENT_3D('',#755,#606,#607);
#536=AXIS2_PLACEMENT_3D('',#759,#610,#611);
#537=AXIS2_PLACEMENT_3D('',#763,#614,#615);
#538=AXIS2_PLACEMENT_3D('',#773,#621,#622);
#539=AXIS2_PLACEMENT_3D('',#775,#623,#624);
#540=AXIS2_PLACEMENT_3D('',#778,#626,#627);
#541=AXIS2_PLACEMENT_3D('',#779,#628,#629);
#542=AXIS2_PLACEMENT_3D('',#781,#630,#631);
#543=AXIS2_PLACEMENT_3D('',#784,#633,#634);
#544=AXIS2_PLACEMENT_3D('',#785,#635,#636);
#545=AXIS2_PLACEMENT_3D('',#787,#637,#638);
#546=AXIS2_PLACEMENT_3D('',#790,#640,#641);
#547=AXIS2_PLACEMENT_3D('',#791,#642,#643);
#548=AXIS2_PLACEMENT_3D('',#793,#644,#645);
#549=AXIS2_PLACEMENT_3D('',#796,#647,#648);
#550=AXIS2_PLACEMENT_3D('',#797,#649,#650);
#551=AXIS2_PLACEMENT_3D('',#801,#652,#653);
#552=AXIS2_PLACEMENT_3D('',#805,#655,#656);
#553=AXIS2_PLACEMENT_3D('',#807,#658,#659);
#554=AXIS2_PLACEMENT_3D('',#811,#662,#663);
#555=AXIS2_PLACEMENT_3D('',#817,#667,#668);
#556=AXIS2_PLACEMENT_3D('',#819,#669,#670);
#557=AXIS2_PLACEMENT_3D('',#821,#672,#673);
#558=AXIS2_PLACEMENT_3D('',#824,#674,#675);
#559=AXIS2_PLACEMENT_3D('',#827,#678,#679);
#560=AXIS2_PLACEMENT_3D('',#829,#681,#682);
#561=AXIS2_PLACEMENT_3D('',#831,#684,#685);
#562=AXIS2_PLACEMENT_3D('',#833,#686,#687);
#563=AXIS2_PLACEMENT_3D('',#836,#689,#690);
#564=AXIS2_PLACEMENT_3D('',#837,#691,#692);
#565=AXIS2_PLACEMENT_3D('',#841,#694,#695);
#566=AXIS2_PLACEMENT_3D('',#843,#697,#698);
#567=AXIS2_PLACEMENT_3D('',#847,#700,#701);
#568=AXIS2_PLACEMENT_3D('',#849,#703,#704);
#569=AXIS2_PLACEMENT_3D('',#852,#707,#708);
#570=AXIS2_PLACEMENT_3D('',#853,#709,#710);
#571=DIRECTION('axis',(0.,0.,1.));
#572=DIRECTION('refdir',(1.,0.,0.));
#573=DIRECTION('center_axis',(0.,1.,0.));
#574=DIRECTION('ref_axis',(0.,0.,1.));
#575=DIRECTION('',(1.,0.,0.));
#576=DIRECTION('',(0.,0.,-1.));
#577=DIRECTION('',(-1.,0.,0.));
#578=DIRECTION('',(0.,0.,-1.));
#579=DIRECTION('center_axis',(0.,0.,1.));
#580=DIRECTION('ref_axis',(1.,0.,0.));
#581=DIRECTION('',(0.,-1.,0.));
#582=DIRECTION('',(0.,1.,0.));
#583=DIRECTION('',(1.,0.,0.));
#584=DIRECTION('center_axis',(0.,-1.,0.));
#585=DIRECTION('ref_axis',(0.,0.,-1.));
#586=DIRECTION('',(-1.,0.,0.));
#587=DIRECTION('',(0.,0.,-1.));
#588=DIRECTION('',(0.,0.,-1.));
#589=DIRECTION('center_axis',(0.,0.,1.));
#590=DIRECTION('ref_axis',(1.,0.,0.));
#591=DIRECTION('',(0.,-1.,0.));
#592=DIRECTION('',(-1.,0.,0.));
#593=DIRECTION('',(0.,1.,0.));
#594=DIRECTION('',(1.,0.,0.));
#595=DIRECTION('',(0.,1.,0.));
#596=DIRECTION('',(-1.,0.,0.));
#597=DIRECTION('center_axis',(0.,-1.,0.));
#598=DIRECTION('ref_axis',(0.,0.,-1.));
#599=DIRECTION('',(0.,0.,-1.));
#600=DIRECTION('',(-1.,0.,0.));
#601=DIRECTION('',(0.,0.,-1.));
#602=DIRECTION('center_axis',(1.,0.,0.));
#603=DIRECTION('ref_axis',(0.,0.,-1.));
#604=DIRECTION('',(0.,-1.,0.));
#605=DIRECTION('',(0.,0.,-1.));
#606=DIRECTION('center_axis',(0.,0.,1.));
#607=DIRECTION('ref_axis',(1.,0.,0.));
#608=DIRECTION('',(0.,1.,0.));
#609=DIRECTION('',(1.,0.,0.));
#610=DIRECTION('center_axis',(0.,1.,0.));
#611=DIRECTION('ref_axis',(0.,0.,1.));
#612=DIRECTION('',(0.,0.,1.));
#613=DIRECTION('',(1.,0.,0.));
#614=DIRECTION('center_axis',(0.,0.,1.));
#615=DIRECTION('ref_axis',(1.,0.,0.));
#616=DIRECTION('',(0.,1.,0.));
#617=DIRECTION('',(-1.,0.,0.));
#618=DIRECTION('',(0.,1.,0.));
#619=DIRECTION('',(1.,0.,0.));
#620=DIRECTION('',(0.,-1.,0.));
#621=DIRECTION('center_axis',(0.,1.,0.));
#622=DIRECTION('ref_axis',(1.,0.,0.));
#623=DIRECTION('center_axis',(0.,1.,0.));
#624=DIRECTION('ref_axis',(1.,0.,0.));
#625=DIRECTION('',(0.,1.,0.));
#626=DIRECTION('center_axis',(0.,-1.,0.));
#627=DIRECTION('ref_axis',(1.,0.,0.));
#628=DIRECTION('center_axis',(0.,1.,0.));
#629=DIRECTION('ref_axis',(1.,0.,0.));
#630=DIRECTION('center_axis',(0.,1.,0.));
#631=DIRECTION('ref_axis',(1.,0.,0.));
#632=DIRECTION('',(0.,1.,0.));
#633=DIRECTION('center_axis',(0.,-1.,0.));
#634=DIRECTION('ref_axis',(1.,0.,0.));
#635=DIRECTION('center_axis',(0.,1.,0.));
#636=DIRECTION('ref_axis',(1.,0.,0.));
#637=DIRECTION('center_axis',(0.,1.,0.));
#638=DIRECTION('ref_axis',(1.,0.,0.));
#639=DIRECTION('',(0.,1.,0.));
#640=DIRECTION('center_axis',(0.,-1.,0.));
#641=DIRECTION('ref_axis',(1.,0.,0.));
#642=DIRECTION('center_axis',(0.,1.,0.));
#643=DIRECTION('ref_axis',(1.,0.,0.));
#644=DIRECTION('center_axis',(0.,1.,0.));
#645=DIRECTION('ref_axis',(1.,0.,0.));
#646=DIRECTION('',(0.,1.,0.));
#647=DIRECTION('center_axis',(0.,-1.,0.));
#648=DIRECTION('ref_axis',(1.,0.,0.));
#649=DIRECTION('center_axis',(1.,0.,0.));
#650=DIRECTION('ref_axis',(0.,0.,-1.));
#651=DIRECTION('',(0.,0.,-1.));
#652=DIRECTION('center_axis',(-1.,0.,0.));
#653=DIRECTION('ref_axis',(0.,0.,-1.));
#654=DIRECTION('',(0.,-1.,0.));
#655=DIRECTION('center_axis',(-1.,0.,0.));
#656=DIRECTION('ref_axis',(0.,0.,-1.));
#657=DIRECTION('',(0.,0.,-1.));
#658=DIRECTION('center_axis',(0.,-1.,0.));
#659=DIRECTION('ref_axis',(0.,0.,-1.));
#660=DIRECTION('',(0.,0.,-1.));
#661=DIRECTION('',(-1.,0.,0.));
#662=DIRECTION('center_axis',(0.,-1.,0.));
#663=DIRECTION('ref_axis',(0.,0.,-1.));
#664=DIRECTION('',(0.,0.,-1.));
#665=DIRECTION('',(-1.,0.,0.));
#666=DIRECTION('',(0.,0.,-1.));
#667=DIRECTION('center_axis',(1.,0.,0.));
#668=DIRECTION('ref_axis',(0.,0.,-1.));
#669=DIRECTION('center_axis',(-1.,0.,0.));
#670=DIRECTION('ref_axis',(0.,0.,-1.));
#671=DIRECTION('',(-1.,0.,0.));
#672=DIRECTION('center_axis',(1.,0.,0.));
#673=DIRECTION('ref_axis',(0.,0.,-1.));
#674=DIRECTION('center_axis',(-1.,0.,0.));
#675=DIRECTION('ref_axis',(0.,0.,-1.));
#676=DIRECTION('',(1.,0.,0.));
#677=DIRECTION('',(1.,0.,0.));
#678=DIRECTION('center_axis',(0.,1.,0.));
#679=DIRECTION('ref_axis',(0.,0.,1.));
#680=DIRECTION('',(0.,0.,1.));
#681=DIRECTION('center_axis',(0.,0.,1.));
#682=DIRECTION('ref_axis',(1.,0.,0.));
#683=DIRECTION('',(0.,1.,0.));
#684=DIRECTION('center_axis',(1.,0.,0.));
#685=DIRECTION('ref_axis',(0.,0.,-1.));
#686=DIRECTION('center_axis',(-1.,0.,0.));
#687=DIRECTION('ref_axis',(0.,0.,-1.));
#688=DIRECTION('',(-1.,0.,0.));
#689=DIRECTION('center_axis',(1.,0.,0.));
#690=DIRECTION('ref_axis',(0.,0.,-1.));
#691=DIRECTION('center_axis',(-1.,0.,0.));
#692=DIRECTION('ref_axis',(0.,0.,1.));
#693=DIRECTION('',(0.,1.,0.));
#694=DIRECTION('center_axis',(1.,0.,0.));
#695=DIRECTION('ref_axis',(0.,0.,-1.));
#696=DIRECTION('',(0.,0.,-1.));
#697=DIRECTION('center_axis',(1.,0.,0.));
#698=DIRECTION('ref_axis',(0.,0.,-1.));
#699=DIRECTION('',(1.,0.,0.));
#700=DIRECTION('center_axis',(-1.,0.,0.));
#701=DIRECTION('ref_axis',(0.,0.,-1.));
#702=DIRECTION('',(1.,0.,0.));
#703=DIRECTION('center_axis',(1.,0.,0.));
#704=DIRECTION('ref_axis',(0.,0.,-1.));
#705=DIRECTION('',(0.,0.,-1.));
#706=DIRECTION('',(0.,-1.,0.));
#707=DIRECTION('center_axis',(0.,1.,0.));
#708=DIRECTION('ref_axis',(0.,0.,1.));
#709=DIRECTION('center_axis',(0.,0.,1.));
#710=DIRECTION('ref_axis',(1.,0.,0.));
#711=CARTESIAN_POINT('',(0.,0.,0.));
#712=CARTESIAN_POINT('Origin',(291.5,-22.,300.9));
#713=CARTESIAN_POINT('',(291.,-22.,287.));
#714=CARTESIAN_POINT('',(292.,-22.,287.));
#715=CARTESIAN_POINT('',(309.875,-22.,287.));
#716=CARTESIAN_POINT('',(291.,-22.,278.9));
#717=CARTESIAN_POINT('',(291.,-22.,300.9));
#718=CARTESIAN_POINT('',(292.,-22.,278.9));
#719=CARTESIAN_POINT('',(291.5,-22.,278.9));
#720=CARTESIAN_POINT('',(292.,-22.,300.9));
#721=CARTESIAN_POINT('Origin',(291.5,0.,278.9));
#722=CARTESIAN_POINT('',(292.,22.,278.9));
#723=CARTESIAN_POINT('',(292.,0.,278.9));
#724=CARTESIAN_POINT('',(291.,22.,278.9));
#725=CARTESIAN_POINT('',(291.,0.,278.9));
#726=CARTESIAN_POINT('',(291.5,22.,278.9));
#727=CARTESIAN_POINT('Origin',(291.5,22.,300.9));
#728=CARTESIAN_POINT('',(292.,22.,287.));
#729=CARTESIAN_POINT('',(291.,22.,287.));
#730=CARTESIAN_POINT('',(309.875,22.,287.));
#731=CARTESIAN_POINT('',(292.,22.,300.9));
#732=CARTESIAN_POINT('',(291.,22.,300.9));
#733=CARTESIAN_POINT('Origin',(328.25,0.,287.));
#734=CARTESIAN_POINT('',(291.,40.,287.));
#735=CARTESIAN_POINT('',(291.,0.,287.));
#736=CARTESIAN_POINT('',(365.5,40.,287.));
#737=CARTESIAN_POINT('',(328.25,40.,287.));
#738=CARTESIAN_POINT('',(365.5,37.,287.));
#739=CARTESIAN_POINT('',(365.5,0.,287.));
#740=CARTESIAN_POINT('',(294.,37.,287.));
#741=CARTESIAN_POINT('',(329.75,37.,287.));
#742=CARTESIAN_POINT('',(294.,22.,287.));
#743=CARTESIAN_POINT('',(294.,0.,287.));
#744=CARTESIAN_POINT('',(310.65,22.,287.));
#745=CARTESIAN_POINT('Origin',(293.05,22.,300.9));
#746=CARTESIAN_POINT('',(294.,22.,322.9));
#747=CARTESIAN_POINT('',(294.,22.,300.89675278925));
#748=CARTESIAN_POINT('',(292.,22.,322.9));
#749=CARTESIAN_POINT('',(293.05,22.,322.9));
#750=CARTESIAN_POINT('',(292.,22.,300.9));
#751=CARTESIAN_POINT('Origin',(292.,0.,300.9));
#752=CARTESIAN_POINT('',(292.,-22.,322.9));
#753=CARTESIAN_POINT('',(292.,0.,322.9));
#754=CARTESIAN_POINT('',(292.,-22.,300.9));
#755=CARTESIAN_POINT('Origin',(293.05,0.,322.9));
#756=CARTESIAN_POINT('',(294.,-22.,322.9));
#757=CARTESIAN_POINT('',(294.,0.,322.9));
#758=CARTESIAN_POINT('',(293.05,-22.,322.9));
#759=CARTESIAN_POINT('Origin',(293.05,-22.,300.9));
#760=CARTESIAN_POINT('',(294.,-22.,287.));
#761=CARTESIAN_POINT('',(294.,-22.,300.89675278925));
#762=CARTESIAN_POINT('',(310.65,-22.,287.));
#763=CARTESIAN_POINT('Origin',(328.25,0.,287.));
#764=CARTESIAN_POINT('',(294.,-37.,287.));
#765=CARTESIAN_POINT('',(294.,0.,287.));
#766=CARTESIAN_POINT('',(365.5,-37.,287.));
#767=CARTESIAN_POINT('',(329.75,-37.,287.));
#768=CARTESIAN_POINT('',(365.5,-40.,287.));
#769=CARTESIAN_POINT('',(365.5,0.,287.));
#770=CARTESIAN_POINT('',(291.,-40.,287.));
#771=CARTESIAN_POINT('',(328.25,-40.,287.));
#772=CARTESIAN_POINT('',(291.,0.,287.));
#773=CARTESIAN_POINT('Origin',(332.,0.,311.8935055785));
#774=CARTESIAN_POINT('',(330.3,-40.,311.8935055785));
#775=CARTESIAN_POINT('Origin',(332.,-40.,311.8935055785));
#776=CARTESIAN_POINT('',(330.3,-37.,311.8935055785));
#777=CARTESIAN_POINT('',(330.3,0.,311.8935055785));
#778=CARTESIAN_POINT('Origin',(332.,-37.,311.8935055785));
#779=CARTESIAN_POINT('Origin',(332.,0.,311.8935055785));
#780=CARTESIAN_POINT('',(330.3,37.,311.8935055785));
#781=CARTESIAN_POINT('Origin',(332.,37.,311.8935055785));
#782=CARTESIAN_POINT('',(330.3,40.,311.8935055785));
#783=CARTESIAN_POINT('',(330.3,0.,311.8935055785));
#784=CARTESIAN_POINT('Origin',(332.,40.,311.8935055785));
#785=CARTESIAN_POINT('Origin',(304.,0.,311.8935055785));
#786=CARTESIAN_POINT('',(302.3,-40.,311.8935055785));
#787=CARTESIAN_POINT('Origin',(304.,-40.,311.8935055785));
#788=CARTESIAN_POINT('',(302.3,-37.,311.8935055785));
#789=CARTESIAN_POINT('',(302.3,0.,311.8935055785));
#790=CARTESIAN_POINT('Origin',(304.,-37.,311.8935055785));
#791=CARTESIAN_POINT('Origin',(304.,0.,311.8935055785));
#792=CARTESIAN_POINT('',(302.3,37.,311.8935055785));
#793=CARTESIAN_POINT('Origin',(304.,37.,311.8935055785));
#794=CARTESIAN_POINT('',(302.3,40.,311.8935055785));
#795=CARTESIAN_POINT('',(302.3,0.,311.8935055785));
#796=CARTESIAN_POINT('Origin',(304.,40.,311.8935055785));
#797=CARTESIAN_POINT('Origin',(294.,0.,300.8935055785));
#798=CARTESIAN_POINT('',(294.,37.,332.8935055785));
#799=CARTESIAN_POINT('',(294.,37.,300.8935055785));
#800=CARTESIAN_POINT('',(294.,32.,337.8935055785));
#801=CARTESIAN_POINT('Origin',(294.,32.,332.8935055785));
#802=CARTESIAN_POINT('',(294.,-32.,337.8935055785));
#803=CARTESIAN_POINT('',(294.,0.,337.8935055785));
#804=CARTESIAN_POINT('',(294.,-37.,332.8935055785));
#805=CARTESIAN_POINT('Origin',(294.,-32.,332.8935055785));
#806=CARTESIAN_POINT('',(294.,-37.,300.8935055785));
#807=CARTESIAN_POINT('Origin',(331.25,37.,300.8935055785));
#808=CARTESIAN_POINT('',(365.5,37.,332.8935055785));
#809=CARTESIAN_POINT('',(365.5,37.,300.8935055785));
#810=CARTESIAN_POINT('',(331.25,37.,332.8935055785));
#811=CARTESIAN_POINT('Origin',(328.25,40.,300.8935055785));
#812=CARTESIAN_POINT('',(291.,40.,332.8935055785));
#813=CARTESIAN_POINT('',(291.,40.,300.8935055785));
#814=CARTESIAN_POINT('',(365.5,40.,332.8935055785));
#815=CARTESIAN_POINT('',(328.25,40.,332.8935055785));
#816=CARTESIAN_POINT('',(365.5,40.,300.8935055785));
#817=CARTESIAN_POINT('Origin',(331.25,32.,332.8935055785));
#818=CARTESIAN_POINT('',(365.5,32.,337.8935055785));
#819=CARTESIAN_POINT('Origin',(365.5,32.,332.8935055785));
#820=CARTESIAN_POINT('',(331.25,32.,337.8935055785));
#821=CARTESIAN_POINT('Origin',(331.25,-32.,332.8935055785));
#822=CARTESIAN_POINT('',(365.5,-37.,332.8935055785));
#823=CARTESIAN_POINT('',(365.5,-32.,337.8935055785));
#824=CARTESIAN_POINT('Origin',(365.5,-32.,332.8935055785));
#825=CARTESIAN_POINT('',(331.25,-37.,332.8935055785));
#826=CARTESIAN_POINT('',(331.25,-32.,337.8935055785));
#827=CARTESIAN_POINT('Origin',(331.25,-37.,300.8935055785));
#828=CARTESIAN_POINT('',(365.5,-37.,300.8935055785));
#829=CARTESIAN_POINT('Origin',(331.25,0.,337.8935055785));
#830=CARTESIAN_POINT('',(365.5,0.,337.8935055785));
#831=CARTESIAN_POINT('Origin',(328.25,32.,332.8935055785));
#832=CARTESIAN_POINT('',(291.,32.,340.8935055785));
#833=CARTESIAN_POINT('Origin',(291.,32.,332.8935055785));
#834=CARTESIAN_POINT('',(365.5,32.,340.8935055785));
#835=CARTESIAN_POINT('',(328.25,32.,340.8935055785));
#836=CARTESIAN_POINT('Origin',(365.5,32.,332.8935055785));
#837=CARTESIAN_POINT('Origin',(365.5,0.,300.8935055785));
#838=CARTESIAN_POINT('',(365.5,-32.,340.8935055785));
#839=CARTESIAN_POINT('',(365.5,0.,340.8935055785));
#840=CARTESIAN_POINT('',(365.5,-40.,332.8935055785));
#841=CARTESIAN_POINT('Origin',(365.5,-32.,332.8935055785));
#842=CARTESIAN_POINT('',(365.5,-40.,300.8935055785));
#843=CARTESIAN_POINT('Origin',(328.25,-32.,332.8935055785));
#844=CARTESIAN_POINT('',(291.,-32.,340.8935055785));
#845=CARTESIAN_POINT('',(328.25,-32.,340.8935055785));
#846=CARTESIAN_POINT('',(291.,-40.,332.8935055785));
#847=CARTESIAN_POINT('Origin',(291.,-32.,332.8935055785));
#848=CARTESIAN_POINT('',(328.25,-40.,332.8935055785));
#849=CARTESIAN_POINT('Origin',(291.,0.,300.8935055785));
#850=CARTESIAN_POINT('',(291.,-40.,300.8935055785));
#851=CARTESIAN_POINT('',(291.,0.,340.8935055785));
#852=CARTESIAN_POINT('Origin',(328.25,-40.,300.8935055785));
#853=CARTESIAN_POINT('Origin',(328.25,0.,340.8935055785));
#854=UNCERTAINTY_MEASURE_WITH_UNIT(LENGTH_MEASURE(0.01),#858,
'DISTANCE_ACCURACY_VALUE',
'Maximum model space distance between geometric entities at asserted c
onnectivities');
#855=UNCERTAINTY_MEASURE_WITH_UNIT(LENGTH_MEASURE(0.01),#858,
'DISTANCE_ACCURACY_VALUE',
'Maximum model space distance between geometric entities at asserted c
onnectivities');
#856=(
GEOMETRIC_REPRESENTATION_CONTEXT(3)
GLOBAL_UNCERTAINTY_ASSIGNED_CONTEXT((#854))
GLOBAL_UNIT_ASSIGNED_CONTEXT((#858,#860,#861))
REPRESENTATION_CONTEXT('','3D')
);
#857=(
GEOMETRIC_REPRESENTATION_CONTEXT(3)
GLOBAL_UNCERTAINTY_ASSIGNED_CONTEXT((#855))
GLOBAL_UNIT_ASSIGNED_CONTEXT((#858,#860,#861))
REPRESENTATION_CONTEXT('','3D')
);
#858=(
LENGTH_UNIT()
NAMED_UNIT(*)
SI_UNIT(.MILLI.,.METRE.)
);
#859=(
LENGTH_UNIT()
NAMED_UNIT(*)
SI_UNIT($,.METRE.)
);
#860=(
NAMED_UNIT(*)
PLANE_ANGLE_UNIT()
SI_UNIT($,.RADIAN.)
);
#861=(
NAMED_UNIT(*)
SI_UNIT($,.STERADIAN.)
SOLID_ANGLE_UNIT()
);
#862=SHAPE_DEFINITION_REPRESENTATION(#863,#864);
#863=PRODUCT_DEFINITION_SHAPE('',$,#866);
#864=SHAPE_REPRESENTATION('',(#528),#856);
#865=PRODUCT_DEFINITION_CONTEXT('part definition',#870,'design');
#866=PRODUCT_DEFINITION('2026-08-29-21-38-52-000',
'EXPORT_TMP_PRINT_V007E_P306_J4_GearmotorServiceCove',#867,#865);
#867=PRODUCT_DEFINITION_FORMATION('',$,#872);
#868=PRODUCT_RELATED_PRODUCT_CATEGORY(
'EXPORT_TMP_PRINT_V007E_P306_J4_GearmotorServiceCove',
'EXPORT_TMP_PRINT_V007E_P306_J4_GearmotorServiceCove',(#872));
#869=APPLICATION_PROTOCOL_DEFINITION('international standard',
'automotive_design',2009,#870);
#870=APPLICATION_CONTEXT(
'Core Data for Automotive Mechanical Design Process');
#871=PRODUCT_CONTEXT('part definition',#870,'mechanical');
#872=PRODUCT('2026-08-29-21-38-52-000',
'EXPORT_TMP_PRINT_V007E_P306_J4_GearmotorServiceCove',$,(#871));
#873=PRESENTATION_STYLE_ASSIGNMENT((#874));
#874=SURFACE_STYLE_USAGE(.BOTH.,#875);
#875=SURFACE_SIDE_STYLE('',(#876));
#876=SURFACE_STYLE_FILL_AREA(#877);
#877=FILL_AREA_STYLE('Steel - Satin',(#878));
#878=FILL_AREA_STYLE_COLOUR('Steel - Satin',#879);
#879=COLOUR_RGB('Steel - Satin',0.627450980392157,0.627450980392157,0.627450980392157);
ENDSEC;
END-ISO-10303-21;
