ISO-10303-21;
HEADER;
/* Generated by software containing ST-Developer
 * from STEP Tools, Inc. (www.steptools.com) 
 */

FILE_DESCRIPTION(
/* description */ (''),
/* implementation_level */ '2;1');

FILE_NAME(
/* name */ 'PRINT_V009A_P412_NEMA17_OpenBackCover_A_M3Flange.step',
/* time_stamp */ '2026-08-12T23:09:42+02:00',
/* author */ (''),
/* organization */ (''),
/* preprocessor_version */ 'ST-DEVELOPER v20.1',
/* originating_system */ 'Autodesk Translation Framework v15.8.0.0',
/* authorisation */ '');

FILE_SCHEMA (('AUTOMOTIVE_DESIGN { 1 0 10303 214 3 1 1 }'));
ENDSEC;

DATA;
#10=MECHANICAL_DESIGN_GEOMETRIC_PRESENTATION_REPRESENTATION('',(#13),#1283);
#11=SHAPE_REPRESENTATION_RELATIONSHIP('SRR','None',#1290,#12);
#12=ADVANCED_BREP_SHAPE_REPRESENTATION('',(#14),#1282);
#13=STYLED_ITEM('',(#1299),#14);
#14=MANIFOLD_SOLID_BREP(
'PRINT_V009A_P412_NEMA17_OpenBackCover_A_M3Flange',#735);
#15=FACE_BOUND('',#206,.T.);
#16=FACE_BOUND('',#227,.T.);
#17=FACE_BOUND('',#228,.T.);
#18=FACE_BOUND('',#229,.T.);
#19=FACE_BOUND('',#230,.T.);
#20=FACE_BOUND('',#231,.T.);
#21=LINE('',#1073,#81);
#22=LINE('',#1076,#82);
#23=LINE('',#1078,#83);
#24=LINE('',#1084,#84);
#25=LINE('',#1088,#85);
#26=LINE('',#1099,#86);
#27=LINE('',#1102,#87);
#28=LINE('',#1104,#88);
#29=LINE('',#1110,#89);
#30=LINE('',#1114,#90);
#31=LINE('',#1125,#91);
#32=LINE('',#1128,#92);
#33=LINE('',#1130,#93);
#34=LINE('',#1136,#94);
#35=LINE('',#1140,#95);
#36=LINE('',#1151,#96);
#37=LINE('',#1154,#97);
#38=LINE('',#1156,#98);
#39=LINE('',#1162,#99);
#40=LINE('',#1166,#100);
#41=LINE('',#1171,#101);
#42=LINE('',#1175,#102);
#43=LINE('',#1179,#103);
#44=LINE('',#1183,#104);
#45=LINE('',#1185,#105);
#46=LINE('',#1186,#106);
#47=LINE('',#1187,#107);
#48=LINE('',#1188,#108);
#49=LINE('',#1191,#109);
#50=LINE('',#1193,#110);
#51=LINE('',#1197,#111);
#52=LINE('',#1199,#112);
#53=LINE('',#1203,#113);
#54=LINE('',#1205,#114);
#55=LINE('',#1209,#115);
#56=LINE('',#1212,#116);
#57=LINE('',#1214,#117);
#58=LINE('',#1216,#118);
#59=LINE('',#1218,#119);
#60=LINE('',#1220,#120);
#61=LINE('',#1222,#121);
#62=LINE('',#1224,#122);
#63=LINE('',#1230,#123);
#64=LINE('',#1233,#124);
#65=LINE('',#1236,#125);
#66=LINE('',#1238,#126);
#67=LINE('',#1239,#127);
#68=LINE('',#1245,#128);
#69=LINE('',#1248,#129);
#70=LINE('',#1250,#130);
#71=LINE('',#1251,#131);
#72=LINE('',#1257,#132);
#73=LINE('',#1260,#133);
#74=LINE('',#1266,#134);
#75=LINE('',#1268,#135);
#76=LINE('',#1269,#136);
#77=LINE('',#1271,#137);
#78=LINE('',#1273,#138);
#79=LINE('',#1276,#139);
#80=LINE('',#1277,#140);
#81=VECTOR('',#845,1.7);
#82=VECTOR('',#848,10.);
#83=VECTOR('',#849,10.);
#84=VECTOR('',#856,10.);
#85=VECTOR('',#859,10.);
#86=VECTOR('',#872,1.7);
#87=VECTOR('',#875,10.);
#88=VECTOR('',#876,10.);
#89=VECTOR('',#883,10.);
#90=VECTOR('',#886,10.);
#91=VECTOR('',#899,1.7);
#92=VECTOR('',#902,10.);
#93=VECTOR('',#903,10.);
#94=VECTOR('',#910,10.);
#95=VECTOR('',#913,10.);
#96=VECTOR('',#926,1.7);
#97=VECTOR('',#929,10.);
#98=VECTOR('',#930,10.);
#99=VECTOR('',#937,10.);
#100=VECTOR('',#940,10.);
#101=VECTOR('',#945,10.);
#102=VECTOR('',#948,10.);
#103=VECTOR('',#951,10.);
#104=VECTOR('',#954,10.);
#105=VECTOR('',#957,10.);
#106=VECTOR('',#958,10.);
#107=VECTOR('',#959,10.);
#108=VECTOR('',#960,10.);
#109=VECTOR('',#963,10.);
#110=VECTOR('',#964,10.);
#111=VECTOR('',#969,10.);
#112=VECTOR('',#970,10.);
#113=VECTOR('',#975,10.);
#114=VECTOR('',#976,10.);
#115=VECTOR('',#981,10.);
#116=VECTOR('',#984,10.);
#117=VECTOR('',#987,10.);
#118=VECTOR('',#990,10.);
#119=VECTOR('',#993,10.);
#120=VECTOR('',#996,10.);
#121=VECTOR('',#999,10.);
#122=VECTOR('',#1002,10.);
#123=VECTOR('',#1007,10.);
#124=VECTOR('',#1010,10.);
#125=VECTOR('',#1013,10.);
#126=VECTOR('',#1014,10.);
#127=VECTOR('',#1015,10.);
#128=VECTOR('',#1022,10.);
#129=VECTOR('',#1025,10.);
#130=VECTOR('',#1026,10.);
#131=VECTOR('',#1027,10.);
#132=VECTOR('',#1032,10.);
#133=VECTOR('',#1035,10.);
#134=VECTOR('',#1042,10.);
#135=VECTOR('',#1045,10.);
#136=VECTOR('',#1046,10.);
#137=VECTOR('',#1049,10.);
#138=VECTOR('',#1052,10.);
#139=VECTOR('',#1057,10.);
#140=VECTOR('',#1058,10.);
#141=CYLINDRICAL_SURFACE('',#752,1.7);
#142=CYLINDRICAL_SURFACE('',#756,7.);
#143=CYLINDRICAL_SURFACE('',#763,1.7);
#144=CYLINDRICAL_SURFACE('',#767,7.);
#145=CYLINDRICAL_SURFACE('',#774,1.7);
#146=CYLINDRICAL_SURFACE('',#778,7.);
#147=CYLINDRICAL_SURFACE('',#785,1.7);
#148=CYLINDRICAL_SURFACE('',#789,7.);
#149=CYLINDRICAL_SURFACE('',#798,7.5);
#150=CYLINDRICAL_SURFACE('',#800,7.5);
#151=CYLINDRICAL_SURFACE('',#802,7.5);
#152=CYLINDRICAL_SURFACE('',#804,7.5);
#153=CYLINDRICAL_SURFACE('',#812,4.);
#154=CYLINDRICAL_SURFACE('',#816,4.);
#155=CYLINDRICAL_SURFACE('',#820,4.);
#156=CYLINDRICAL_SURFACE('',#823,4.);
#157=FACE_OUTER_BOUND('',#193,.T.);
#158=FACE_OUTER_BOUND('',#194,.T.);
#159=FACE_OUTER_BOUND('',#195,.T.);
#160=FACE_OUTER_BOUND('',#196,.T.);
#161=FACE_OUTER_BOUND('',#197,.T.);
#162=FACE_OUTER_BOUND('',#198,.T.);
#163=FACE_OUTER_BOUND('',#199,.T.);
#164=FACE_OUTER_BOUND('',#200,.T.);
#165=FACE_OUTER_BOUND('',#201,.T.);
#166=FACE_OUTER_BOUND('',#202,.T.);
#167=FACE_OUTER_BOUND('',#203,.T.);
#168=FACE_OUTER_BOUND('',#204,.T.);
#169=FACE_OUTER_BOUND('',#205,.T.);
#170=FACE_OUTER_BOUND('',#207,.T.);
#171=FACE_OUTER_BOUND('',#208,.T.);
#172=FACE_OUTER_BOUND('',#209,.T.);
#173=FACE_OUTER_BOUND('',#210,.T.);
#174=FACE_OUTER_BOUND('',#211,.T.);
#175=FACE_OUTER_BOUND('',#212,.T.);
#176=FACE_OUTER_BOUND('',#213,.T.);
#177=FACE_OUTER_BOUND('',#214,.T.);
#178=FACE_OUTER_BOUND('',#215,.T.);
#179=FACE_OUTER_BOUND('',#216,.T.);
#180=FACE_OUTER_BOUND('',#217,.T.);
#181=FACE_OUTER_BOUND('',#218,.T.);
#182=FACE_OUTER_BOUND('',#219,.T.);
#183=FACE_OUTER_BOUND('',#220,.T.);
#184=FACE_OUTER_BOUND('',#221,.T.);
#185=FACE_OUTER_BOUND('',#222,.T.);
#186=FACE_OUTER_BOUND('',#223,.T.);
#187=FACE_OUTER_BOUND('',#224,.T.);
#188=FACE_OUTER_BOUND('',#225,.T.);
#189=FACE_OUTER_BOUND('',#226,.T.);
#190=FACE_OUTER_BOUND('',#232,.T.);
#191=FACE_OUTER_BOUND('',#233,.T.);
#192=FACE_OUTER_BOUND('',#234,.T.);
#193=EDGE_LOOP('',(#463,#464));
#194=EDGE_LOOP('',(#465,#466,#467,#468,#469,#470,#471,#472));
#195=EDGE_LOOP('',(#473,#474,#475,#476,#477,#478,#479,#480));
#196=EDGE_LOOP('',(#481,#482));
#197=EDGE_LOOP('',(#483,#484,#485,#486,#487,#488,#489,#490));
#198=EDGE_LOOP('',(#491,#492,#493,#494,#495,#496,#497,#498));
#199=EDGE_LOOP('',(#499,#500));
#200=EDGE_LOOP('',(#501,#502,#503,#504,#505,#506,#507,#508));
#201=EDGE_LOOP('',(#509,#510,#511,#512,#513,#514,#515,#516));
#202=EDGE_LOOP('',(#517,#518));
#203=EDGE_LOOP('',(#519,#520,#521,#522,#523,#524,#525,#526));
#204=EDGE_LOOP('',(#527,#528,#529,#530,#531,#532,#533,#534));
#205=EDGE_LOOP('',(#535,#536,#537,#538,#539,#540,#541,#542));
#206=EDGE_LOOP('',(#543,#544,#545,#546,#547,#548,#549,#550,#551,#552,#553,
#554,#555,#556,#557,#558,#559,#560,#561,#562));
#207=EDGE_LOOP('',(#563,#564,#565,#566));
#208=EDGE_LOOP('',(#567,#568,#569,#570));
#209=EDGE_LOOP('',(#571,#572,#573,#574));
#210=EDGE_LOOP('',(#575,#576,#577,#578));
#211=EDGE_LOOP('',(#579,#580,#581,#582));
#212=EDGE_LOOP('',(#583,#584,#585,#586));
#213=EDGE_LOOP('',(#587,#588,#589,#590));
#214=EDGE_LOOP('',(#591,#592,#593,#594));
#215=EDGE_LOOP('',(#595,#596,#597,#598));
#216=EDGE_LOOP('',(#599,#600,#601,#602));
#217=EDGE_LOOP('',(#603,#604,#605,#606));
#218=EDGE_LOOP('',(#607,#608,#609,#610));
#219=EDGE_LOOP('',(#611,#612,#613,#614));
#220=EDGE_LOOP('',(#615,#616,#617,#618));
#221=EDGE_LOOP('',(#619,#620,#621,#622));
#222=EDGE_LOOP('',(#623,#624,#625,#626));
#223=EDGE_LOOP('',(#627,#628,#629,#630,#631,#632,#633,#634));
#224=EDGE_LOOP('',(#635,#636,#637,#638));
#225=EDGE_LOOP('',(#639,#640,#641,#642));
#226=EDGE_LOOP('',(#643,#644,#645,#646,#647,#648,#649,#650));
#227=EDGE_LOOP('',(#651));
#228=EDGE_LOOP('',(#652));
#229=EDGE_LOOP('',(#653));
#230=EDGE_LOOP('',(#654));
#231=EDGE_LOOP('',(#655,#656,#657,#658,#659,#660,#661,#662));
#232=EDGE_LOOP('',(#663,#664,#665,#666,#667,#668,#669,#670));
#233=EDGE_LOOP('',(#671,#672,#673,#674));
#234=EDGE_LOOP('',(#675,#676,#677,#678));
#235=CIRCLE('',#750,7.);
#236=CIRCLE('',#751,1.7);
#237=CIRCLE('',#753,1.7);
#238=CIRCLE('',#754,1.7);
#239=CIRCLE('',#755,1.7);
#240=CIRCLE('',#757,7.);
#241=CIRCLE('',#758,7.);
#242=CIRCLE('',#759,7.);
#243=CIRCLE('',#761,7.);
#244=CIRCLE('',#762,1.7);
#245=CIRCLE('',#764,1.7);
#246=CIRCLE('',#765,1.7);
#247=CIRCLE('',#766,1.7);
#248=CIRCLE('',#768,7.);
#249=CIRCLE('',#769,7.);
#250=CIRCLE('',#770,7.);
#251=CIRCLE('',#772,7.);
#252=CIRCLE('',#773,1.7);
#253=CIRCLE('',#775,1.7);
#254=CIRCLE('',#776,1.7);
#255=CIRCLE('',#777,1.7);
#256=CIRCLE('',#779,7.);
#257=CIRCLE('',#780,7.);
#258=CIRCLE('',#781,7.);
#259=CIRCLE('',#783,7.);
#260=CIRCLE('',#784,1.7);
#261=CIRCLE('',#786,1.7);
#262=CIRCLE('',#787,1.7);
#263=CIRCLE('',#788,1.7);
#264=CIRCLE('',#790,7.);
#265=CIRCLE('',#791,7.);
#266=CIRCLE('',#792,7.);
#267=CIRCLE('',#794,7.5);
#268=CIRCLE('',#795,7.5);
#269=CIRCLE('',#796,7.5);
#270=CIRCLE('',#797,7.5);
#271=CIRCLE('',#799,7.5);
#272=CIRCLE('',#801,7.5);
#273=CIRCLE('',#803,7.5);
#274=CIRCLE('',#805,7.5);
#275=CIRCLE('',#813,4.);
#276=CIRCLE('',#814,4.);
#277=CIRCLE('',#817,4.);
#278=CIRCLE('',#818,4.);
#279=CIRCLE('',#821,4.);
#280=CIRCLE('',#822,4.);
#281=CIRCLE('',#824,4.);
#282=CIRCLE('',#825,4.);
#283=VERTEX_POINT('',#1065);
#284=VERTEX_POINT('',#1066);
#285=VERTEX_POINT('',#1070);
#286=VERTEX_POINT('',#1072);
#287=VERTEX_POINT('',#1074);
#288=VERTEX_POINT('',#1077);
#289=VERTEX_POINT('',#1081);
#290=VERTEX_POINT('',#1083);
#291=VERTEX_POINT('',#1085);
#292=VERTEX_POINT('',#1087);
#293=VERTEX_POINT('',#1091);
#294=VERTEX_POINT('',#1092);
#295=VERTEX_POINT('',#1096);
#296=VERTEX_POINT('',#1098);
#297=VERTEX_POINT('',#1100);
#298=VERTEX_POINT('',#1103);
#299=VERTEX_POINT('',#1107);
#300=VERTEX_POINT('',#1109);
#301=VERTEX_POINT('',#1111);
#302=VERTEX_POINT('',#1113);
#303=VERTEX_POINT('',#1117);
#304=VERTEX_POINT('',#1118);
#305=VERTEX_POINT('',#1122);
#306=VERTEX_POINT('',#1124);
#307=VERTEX_POINT('',#1126);
#308=VERTEX_POINT('',#1129);
#309=VERTEX_POINT('',#1133);
#310=VERTEX_POINT('',#1135);
#311=VERTEX_POINT('',#1137);
#312=VERTEX_POINT('',#1139);
#313=VERTEX_POINT('',#1143);
#314=VERTEX_POINT('',#1144);
#315=VERTEX_POINT('',#1148);
#316=VERTEX_POINT('',#1150);
#317=VERTEX_POINT('',#1152);
#318=VERTEX_POINT('',#1155);
#319=VERTEX_POINT('',#1159);
#320=VERTEX_POINT('',#1161);
#321=VERTEX_POINT('',#1163);
#322=VERTEX_POINT('',#1165);
#323=VERTEX_POINT('',#1169);
#324=VERTEX_POINT('',#1170);
#325=VERTEX_POINT('',#1172);
#326=VERTEX_POINT('',#1174);
#327=VERTEX_POINT('',#1176);
#328=VERTEX_POINT('',#1178);
#329=VERTEX_POINT('',#1180);
#330=VERTEX_POINT('',#1182);
#331=VERTEX_POINT('',#1190);
#332=VERTEX_POINT('',#1192);
#333=VERTEX_POINT('',#1196);
#334=VERTEX_POINT('',#1198);
#335=VERTEX_POINT('',#1202);
#336=VERTEX_POINT('',#1204);
#337=VERTEX_POINT('',#1208);
#338=VERTEX_POINT('',#1210);
#339=VERTEX_POINT('',#1226);
#340=VERTEX_POINT('',#1227);
#341=VERTEX_POINT('',#1229);
#342=VERTEX_POINT('',#1231);
#343=VERTEX_POINT('',#1235);
#344=VERTEX_POINT('',#1237);
#345=VERTEX_POINT('',#1241);
#346=VERTEX_POINT('',#1243);
#347=VERTEX_POINT('',#1247);
#348=VERTEX_POINT('',#1249);
#349=VERTEX_POINT('',#1253);
#350=VERTEX_POINT('',#1254);
#351=VERTEX_POINT('',#1256);
#352=VERTEX_POINT('',#1258);
#353=VERTEX_POINT('',#1262);
#354=VERTEX_POINT('',#1264);
#355=EDGE_CURVE('',#283,#284,#235,.T.);
#356=EDGE_CURVE('',#284,#283,#236,.T.);
#357=EDGE_CURVE('',#285,#285,#237,.T.);
#358=EDGE_CURVE('',#285,#286,#21,.T.);
#359=EDGE_CURVE('',#287,#286,#238,.T.);
#360=EDGE_CURVE('',#284,#287,#22,.T.);
#361=EDGE_CURVE('',#288,#283,#23,.T.);
#362=EDGE_CURVE('',#286,#288,#239,.T.);
#363=EDGE_CURVE('',#287,#289,#240,.T.);
#364=EDGE_CURVE('',#290,#289,#24,.T.);
#365=EDGE_CURVE('',#291,#290,#241,.T.);
#366=EDGE_CURVE('',#291,#292,#25,.T.);
#367=EDGE_CURVE('',#292,#288,#242,.T.);
#368=EDGE_CURVE('',#293,#294,#243,.T.);
#369=EDGE_CURVE('',#294,#293,#244,.T.);
#370=EDGE_CURVE('',#295,#295,#245,.T.);
#371=EDGE_CURVE('',#295,#296,#26,.T.);
#372=EDGE_CURVE('',#297,#296,#246,.T.);
#373=EDGE_CURVE('',#294,#297,#27,.T.);
#374=EDGE_CURVE('',#298,#293,#28,.T.);
#375=EDGE_CURVE('',#296,#298,#247,.T.);
#376=EDGE_CURVE('',#297,#299,#248,.T.);
#377=EDGE_CURVE('',#299,#300,#29,.T.);
#378=EDGE_CURVE('',#301,#300,#249,.T.);
#379=EDGE_CURVE('',#302,#301,#30,.T.);
#380=EDGE_CURVE('',#302,#298,#250,.T.);
#381=EDGE_CURVE('',#303,#304,#251,.T.);
#382=EDGE_CURVE('',#304,#303,#252,.T.);
#383=EDGE_CURVE('',#305,#305,#253,.T.);
#384=EDGE_CURVE('',#305,#306,#31,.T.);
#385=EDGE_CURVE('',#307,#306,#254,.T.);
#386=EDGE_CURVE('',#304,#307,#32,.T.);
#387=EDGE_CURVE('',#308,#303,#33,.T.);
#388=EDGE_CURVE('',#306,#308,#255,.T.);
#389=EDGE_CURVE('',#307,#309,#256,.T.);
#390=EDGE_CURVE('',#309,#310,#34,.T.);
#391=EDGE_CURVE('',#311,#310,#257,.T.);
#392=EDGE_CURVE('',#312,#311,#35,.T.);
#393=EDGE_CURVE('',#312,#308,#258,.T.);
#394=EDGE_CURVE('',#313,#314,#259,.T.);
#395=EDGE_CURVE('',#314,#313,#260,.T.);
#396=EDGE_CURVE('',#315,#315,#261,.T.);
#397=EDGE_CURVE('',#315,#316,#36,.T.);
#398=EDGE_CURVE('',#317,#316,#262,.T.);
#399=EDGE_CURVE('',#314,#317,#37,.T.);
#400=EDGE_CURVE('',#318,#313,#38,.T.);
#401=EDGE_CURVE('',#316,#318,#263,.T.);
#402=EDGE_CURVE('',#317,#319,#264,.T.);
#403=EDGE_CURVE('',#320,#319,#39,.T.);
#404=EDGE_CURVE('',#321,#320,#265,.T.);
#405=EDGE_CURVE('',#321,#322,#40,.T.);
#406=EDGE_CURVE('',#322,#318,#266,.T.);
#407=EDGE_CURVE('',#323,#324,#41,.T.);
#408=EDGE_CURVE('',#323,#325,#267,.T.);
#409=EDGE_CURVE('',#325,#326,#42,.T.);
#410=EDGE_CURVE('',#326,#327,#268,.T.);
#411=EDGE_CURVE('',#328,#327,#43,.T.);
#412=EDGE_CURVE('',#328,#329,#269,.T.);
#413=EDGE_CURVE('',#330,#329,#44,.T.);
#414=EDGE_CURVE('',#330,#324,#270,.T.);
#415=EDGE_CURVE('',#299,#292,#45,.T.);
#416=EDGE_CURVE('',#319,#302,#46,.T.);
#417=EDGE_CURVE('',#309,#322,#47,.T.);
#418=EDGE_CURVE('',#289,#312,#48,.T.);
#419=EDGE_CURVE('',#324,#331,#49,.T.);
#420=EDGE_CURVE('',#330,#332,#50,.T.);
#421=EDGE_CURVE('',#331,#332,#271,.T.);
#422=EDGE_CURVE('',#333,#329,#51,.T.);
#423=EDGE_CURVE('',#334,#328,#52,.T.);
#424=EDGE_CURVE('',#333,#334,#272,.T.);
#425=EDGE_CURVE('',#335,#325,#53,.T.);
#426=EDGE_CURVE('',#336,#323,#54,.T.);
#427=EDGE_CURVE('',#335,#336,#273,.T.);
#428=EDGE_CURVE('',#326,#337,#55,.T.);
#429=EDGE_CURVE('',#338,#337,#274,.T.);
#430=EDGE_CURVE('',#327,#338,#56,.T.);
#431=EDGE_CURVE('',#335,#337,#57,.T.);
#432=EDGE_CURVE('',#332,#333,#58,.T.);
#433=EDGE_CURVE('',#331,#336,#59,.T.);
#434=EDGE_CURVE('',#338,#334,#60,.T.);
#435=EDGE_CURVE('',#311,#290,#61,.T.);
#436=EDGE_CURVE('',#310,#321,#62,.T.);
#437=EDGE_CURVE('',#339,#340,#275,.T.);
#438=EDGE_CURVE('',#341,#339,#63,.T.);
#439=EDGE_CURVE('',#341,#342,#276,.T.);
#440=EDGE_CURVE('',#342,#340,#64,.T.);
#441=EDGE_CURVE('',#340,#343,#65,.T.);
#442=EDGE_CURVE('',#344,#342,#66,.T.);
#443=EDGE_CURVE('',#343,#344,#67,.T.);
#444=EDGE_CURVE('',#343,#345,#277,.T.);
#445=EDGE_CURVE('',#344,#346,#278,.T.);
#446=EDGE_CURVE('',#345,#346,#68,.T.);
#447=EDGE_CURVE('',#345,#347,#69,.T.);
#448=EDGE_CURVE('',#346,#348,#70,.T.);
#449=EDGE_CURVE('',#348,#347,#71,.T.);
#450=EDGE_CURVE('',#349,#350,#279,.T.);
#451=EDGE_CURVE('',#349,#351,#72,.T.);
#452=EDGE_CURVE('',#351,#352,#280,.T.);
#453=EDGE_CURVE('',#350,#352,#73,.T.);
#454=EDGE_CURVE('',#347,#353,#281,.T.);
#455=EDGE_CURVE('',#348,#354,#282,.T.);
#456=EDGE_CURVE('',#354,#353,#74,.T.);
#457=EDGE_CURVE('',#341,#352,#75,.T.);
#458=EDGE_CURVE('',#351,#354,#76,.T.);
#459=EDGE_CURVE('',#350,#339,#77,.T.);
#460=EDGE_CURVE('',#353,#349,#78,.T.);
#461=EDGE_CURVE('',#301,#320,#79,.T.);
#462=EDGE_CURVE('',#291,#300,#80,.T.);
#463=ORIENTED_EDGE('',*,*,#355,.F.);
#464=ORIENTED_EDGE('',*,*,#356,.F.);
#465=ORIENTED_EDGE('',*,*,#357,.F.);
#466=ORIENTED_EDGE('',*,*,#358,.T.);
#467=ORIENTED_EDGE('',*,*,#359,.F.);
#468=ORIENTED_EDGE('',*,*,#360,.F.);
#469=ORIENTED_EDGE('',*,*,#356,.T.);
#470=ORIENTED_EDGE('',*,*,#361,.F.);
#471=ORIENTED_EDGE('',*,*,#362,.F.);
#472=ORIENTED_EDGE('',*,*,#358,.F.);
#473=ORIENTED_EDGE('',*,*,#361,.T.);
#474=ORIENTED_EDGE('',*,*,#355,.T.);
#475=ORIENTED_EDGE('',*,*,#360,.T.);
#476=ORIENTED_EDGE('',*,*,#363,.T.);
#477=ORIENTED_EDGE('',*,*,#364,.F.);
#478=ORIENTED_EDGE('',*,*,#365,.F.);
#479=ORIENTED_EDGE('',*,*,#366,.T.);
#480=ORIENTED_EDGE('',*,*,#367,.T.);
#481=ORIENTED_EDGE('',*,*,#368,.F.);
#482=ORIENTED_EDGE('',*,*,#369,.F.);
#483=ORIENTED_EDGE('',*,*,#370,.F.);
#484=ORIENTED_EDGE('',*,*,#371,.T.);
#485=ORIENTED_EDGE('',*,*,#372,.F.);
#486=ORIENTED_EDGE('',*,*,#373,.F.);
#487=ORIENTED_EDGE('',*,*,#369,.T.);
#488=ORIENTED_EDGE('',*,*,#374,.F.);
#489=ORIENTED_EDGE('',*,*,#375,.F.);
#490=ORIENTED_EDGE('',*,*,#371,.F.);
#491=ORIENTED_EDGE('',*,*,#374,.T.);
#492=ORIENTED_EDGE('',*,*,#368,.T.);
#493=ORIENTED_EDGE('',*,*,#373,.T.);
#494=ORIENTED_EDGE('',*,*,#376,.T.);
#495=ORIENTED_EDGE('',*,*,#377,.T.);
#496=ORIENTED_EDGE('',*,*,#378,.F.);
#497=ORIENTED_EDGE('',*,*,#379,.F.);
#498=ORIENTED_EDGE('',*,*,#380,.T.);
#499=ORIENTED_EDGE('',*,*,#381,.F.);
#500=ORIENTED_EDGE('',*,*,#382,.F.);
#501=ORIENTED_EDGE('',*,*,#383,.F.);
#502=ORIENTED_EDGE('',*,*,#384,.T.);
#503=ORIENTED_EDGE('',*,*,#385,.F.);
#504=ORIENTED_EDGE('',*,*,#386,.F.);
#505=ORIENTED_EDGE('',*,*,#382,.T.);
#506=ORIENTED_EDGE('',*,*,#387,.F.);
#507=ORIENTED_EDGE('',*,*,#388,.F.);
#508=ORIENTED_EDGE('',*,*,#384,.F.);
#509=ORIENTED_EDGE('',*,*,#387,.T.);
#510=ORIENTED_EDGE('',*,*,#381,.T.);
#511=ORIENTED_EDGE('',*,*,#386,.T.);
#512=ORIENTED_EDGE('',*,*,#389,.T.);
#513=ORIENTED_EDGE('',*,*,#390,.T.);
#514=ORIENTED_EDGE('',*,*,#391,.F.);
#515=ORIENTED_EDGE('',*,*,#392,.F.);
#516=ORIENTED_EDGE('',*,*,#393,.T.);
#517=ORIENTED_EDGE('',*,*,#394,.F.);
#518=ORIENTED_EDGE('',*,*,#395,.F.);
#519=ORIENTED_EDGE('',*,*,#396,.F.);
#520=ORIENTED_EDGE('',*,*,#397,.T.);
#521=ORIENTED_EDGE('',*,*,#398,.F.);
#522=ORIENTED_EDGE('',*,*,#399,.F.);
#523=ORIENTED_EDGE('',*,*,#395,.T.);
#524=ORIENTED_EDGE('',*,*,#400,.F.);
#525=ORIENTED_EDGE('',*,*,#401,.F.);
#526=ORIENTED_EDGE('',*,*,#397,.F.);
#527=ORIENTED_EDGE('',*,*,#400,.T.);
#528=ORIENTED_EDGE('',*,*,#394,.T.);
#529=ORIENTED_EDGE('',*,*,#399,.T.);
#530=ORIENTED_EDGE('',*,*,#402,.T.);
#531=ORIENTED_EDGE('',*,*,#403,.F.);
#532=ORIENTED_EDGE('',*,*,#404,.F.);
#533=ORIENTED_EDGE('',*,*,#405,.T.);
#534=ORIENTED_EDGE('',*,*,#406,.T.);
#535=ORIENTED_EDGE('',*,*,#407,.F.);
#536=ORIENTED_EDGE('',*,*,#408,.T.);
#537=ORIENTED_EDGE('',*,*,#409,.T.);
#538=ORIENTED_EDGE('',*,*,#410,.T.);
#539=ORIENTED_EDGE('',*,*,#411,.F.);
#540=ORIENTED_EDGE('',*,*,#412,.T.);
#541=ORIENTED_EDGE('',*,*,#413,.F.);
#542=ORIENTED_EDGE('',*,*,#414,.T.);
#543=ORIENTED_EDGE('',*,*,#359,.T.);
#544=ORIENTED_EDGE('',*,*,#362,.T.);
#545=ORIENTED_EDGE('',*,*,#367,.F.);
#546=ORIENTED_EDGE('',*,*,#415,.F.);
#547=ORIENTED_EDGE('',*,*,#376,.F.);
#548=ORIENTED_EDGE('',*,*,#372,.T.);
#549=ORIENTED_EDGE('',*,*,#375,.T.);
#550=ORIENTED_EDGE('',*,*,#380,.F.);
#551=ORIENTED_EDGE('',*,*,#416,.F.);
#552=ORIENTED_EDGE('',*,*,#402,.F.);
#553=ORIENTED_EDGE('',*,*,#398,.T.);
#554=ORIENTED_EDGE('',*,*,#401,.T.);
#555=ORIENTED_EDGE('',*,*,#406,.F.);
#556=ORIENTED_EDGE('',*,*,#417,.F.);
#557=ORIENTED_EDGE('',*,*,#389,.F.);
#558=ORIENTED_EDGE('',*,*,#385,.T.);
#559=ORIENTED_EDGE('',*,*,#388,.T.);
#560=ORIENTED_EDGE('',*,*,#393,.F.);
#561=ORIENTED_EDGE('',*,*,#418,.F.);
#562=ORIENTED_EDGE('',*,*,#363,.F.);
#563=ORIENTED_EDGE('',*,*,#419,.F.);
#564=ORIENTED_EDGE('',*,*,#414,.F.);
#565=ORIENTED_EDGE('',*,*,#420,.T.);
#566=ORIENTED_EDGE('',*,*,#421,.F.);
#567=ORIENTED_EDGE('',*,*,#422,.T.);
#568=ORIENTED_EDGE('',*,*,#412,.F.);
#569=ORIENTED_EDGE('',*,*,#423,.F.);
#570=ORIENTED_EDGE('',*,*,#424,.F.);
#571=ORIENTED_EDGE('',*,*,#425,.T.);
#572=ORIENTED_EDGE('',*,*,#408,.F.);
#573=ORIENTED_EDGE('',*,*,#426,.F.);
#574=ORIENTED_EDGE('',*,*,#427,.F.);
#575=ORIENTED_EDGE('',*,*,#428,.T.);
#576=ORIENTED_EDGE('',*,*,#429,.F.);
#577=ORIENTED_EDGE('',*,*,#430,.F.);
#578=ORIENTED_EDGE('',*,*,#410,.F.);
#579=ORIENTED_EDGE('',*,*,#431,.T.);
#580=ORIENTED_EDGE('',*,*,#428,.F.);
#581=ORIENTED_EDGE('',*,*,#409,.F.);
#582=ORIENTED_EDGE('',*,*,#425,.F.);
#583=ORIENTED_EDGE('',*,*,#413,.T.);
#584=ORIENTED_EDGE('',*,*,#422,.F.);
#585=ORIENTED_EDGE('',*,*,#432,.F.);
#586=ORIENTED_EDGE('',*,*,#420,.F.);
#587=ORIENTED_EDGE('',*,*,#419,.T.);
#588=ORIENTED_EDGE('',*,*,#433,.T.);
#589=ORIENTED_EDGE('',*,*,#426,.T.);
#590=ORIENTED_EDGE('',*,*,#407,.T.);
#591=ORIENTED_EDGE('',*,*,#423,.T.);
#592=ORIENTED_EDGE('',*,*,#411,.T.);
#593=ORIENTED_EDGE('',*,*,#430,.T.);
#594=ORIENTED_EDGE('',*,*,#434,.T.);
#595=ORIENTED_EDGE('',*,*,#418,.T.);
#596=ORIENTED_EDGE('',*,*,#392,.T.);
#597=ORIENTED_EDGE('',*,*,#435,.T.);
#598=ORIENTED_EDGE('',*,*,#364,.T.);
#599=ORIENTED_EDGE('',*,*,#417,.T.);
#600=ORIENTED_EDGE('',*,*,#405,.F.);
#601=ORIENTED_EDGE('',*,*,#436,.F.);
#602=ORIENTED_EDGE('',*,*,#390,.F.);
#603=ORIENTED_EDGE('',*,*,#437,.F.);
#604=ORIENTED_EDGE('',*,*,#438,.F.);
#605=ORIENTED_EDGE('',*,*,#439,.T.);
#606=ORIENTED_EDGE('',*,*,#440,.T.);
#607=ORIENTED_EDGE('',*,*,#441,.F.);
#608=ORIENTED_EDGE('',*,*,#440,.F.);
#609=ORIENTED_EDGE('',*,*,#442,.F.);
#610=ORIENTED_EDGE('',*,*,#443,.F.);
#611=ORIENTED_EDGE('',*,*,#444,.F.);
#612=ORIENTED_EDGE('',*,*,#443,.T.);
#613=ORIENTED_EDGE('',*,*,#445,.T.);
#614=ORIENTED_EDGE('',*,*,#446,.F.);
#615=ORIENTED_EDGE('',*,*,#447,.F.);
#616=ORIENTED_EDGE('',*,*,#446,.T.);
#617=ORIENTED_EDGE('',*,*,#448,.T.);
#618=ORIENTED_EDGE('',*,*,#449,.T.);
#619=ORIENTED_EDGE('',*,*,#450,.F.);
#620=ORIENTED_EDGE('',*,*,#451,.T.);
#621=ORIENTED_EDGE('',*,*,#452,.T.);
#622=ORIENTED_EDGE('',*,*,#453,.F.);
#623=ORIENTED_EDGE('',*,*,#454,.F.);
#624=ORIENTED_EDGE('',*,*,#449,.F.);
#625=ORIENTED_EDGE('',*,*,#455,.T.);
#626=ORIENTED_EDGE('',*,*,#456,.T.);
#627=ORIENTED_EDGE('',*,*,#442,.T.);
#628=ORIENTED_EDGE('',*,*,#439,.F.);
#629=ORIENTED_EDGE('',*,*,#457,.T.);
#630=ORIENTED_EDGE('',*,*,#452,.F.);
#631=ORIENTED_EDGE('',*,*,#458,.T.);
#632=ORIENTED_EDGE('',*,*,#455,.F.);
#633=ORIENTED_EDGE('',*,*,#448,.F.);
#634=ORIENTED_EDGE('',*,*,#445,.F.);
#635=ORIENTED_EDGE('',*,*,#459,.F.);
#636=ORIENTED_EDGE('',*,*,#453,.T.);
#637=ORIENTED_EDGE('',*,*,#457,.F.);
#638=ORIENTED_EDGE('',*,*,#438,.T.);
#639=ORIENTED_EDGE('',*,*,#460,.F.);
#640=ORIENTED_EDGE('',*,*,#456,.F.);
#641=ORIENTED_EDGE('',*,*,#458,.F.);
#642=ORIENTED_EDGE('',*,*,#451,.F.);
#643=ORIENTED_EDGE('',*,*,#432,.T.);
#644=ORIENTED_EDGE('',*,*,#424,.T.);
#645=ORIENTED_EDGE('',*,*,#434,.F.);
#646=ORIENTED_EDGE('',*,*,#429,.T.);
#647=ORIENTED_EDGE('',*,*,#431,.F.);
#648=ORIENTED_EDGE('',*,*,#427,.T.);
#649=ORIENTED_EDGE('',*,*,#433,.F.);
#650=ORIENTED_EDGE('',*,*,#421,.T.);
#651=ORIENTED_EDGE('',*,*,#357,.T.);
#652=ORIENTED_EDGE('',*,*,#370,.T.);
#653=ORIENTED_EDGE('',*,*,#383,.T.);
#654=ORIENTED_EDGE('',*,*,#396,.T.);
#655=ORIENTED_EDGE('',*,*,#454,.T.);
#656=ORIENTED_EDGE('',*,*,#460,.T.);
#657=ORIENTED_EDGE('',*,*,#450,.T.);
#658=ORIENTED_EDGE('',*,*,#459,.T.);
#659=ORIENTED_EDGE('',*,*,#437,.T.);
#660=ORIENTED_EDGE('',*,*,#441,.T.);
#661=ORIENTED_EDGE('',*,*,#444,.T.);
#662=ORIENTED_EDGE('',*,*,#447,.T.);
#663=ORIENTED_EDGE('',*,*,#435,.F.);
#664=ORIENTED_EDGE('',*,*,#391,.T.);
#665=ORIENTED_EDGE('',*,*,#436,.T.);
#666=ORIENTED_EDGE('',*,*,#404,.T.);
#667=ORIENTED_EDGE('',*,*,#461,.F.);
#668=ORIENTED_EDGE('',*,*,#378,.T.);
#669=ORIENTED_EDGE('',*,*,#462,.F.);
#670=ORIENTED_EDGE('',*,*,#365,.T.);
#671=ORIENTED_EDGE('',*,*,#415,.T.);
#672=ORIENTED_EDGE('',*,*,#366,.F.);
#673=ORIENTED_EDGE('',*,*,#462,.T.);
#674=ORIENTED_EDGE('',*,*,#377,.F.);
#675=ORIENTED_EDGE('',*,*,#416,.T.);
#676=ORIENTED_EDGE('',*,*,#379,.T.);
#677=ORIENTED_EDGE('',*,*,#461,.T.);
#678=ORIENTED_EDGE('',*,*,#403,.T.);
#679=PLANE('',#749);
#680=PLANE('',#760);
#681=PLANE('',#771);
#682=PLANE('',#782);
#683=PLANE('',#793);
#684=PLANE('',#806);
#685=PLANE('',#807);
#686=PLANE('',#808);
#687=PLANE('',#809);
#688=PLANE('',#810);
#689=PLANE('',#811);
#690=PLANE('',#815);
#691=PLANE('',#819);
#692=PLANE('',#826);
#693=PLANE('',#827);
#694=PLANE('',#828);
#695=PLANE('',#829);
#696=PLANE('',#830);
#697=PLANE('',#831);
#698=PLANE('',#832);
#699=ADVANCED_FACE('',(#157),#679,.F.);
#700=ADVANCED_FACE('',(#158),#141,.F.);
#701=ADVANCED_FACE('',(#159),#142,.T.);
#702=ADVANCED_FACE('',(#160),#680,.F.);
#703=ADVANCED_FACE('',(#161),#143,.F.);
#704=ADVANCED_FACE('',(#162),#144,.T.);
#705=ADVANCED_FACE('',(#163),#681,.F.);
#706=ADVANCED_FACE('',(#164),#145,.F.);
#707=ADVANCED_FACE('',(#165),#146,.T.);
#708=ADVANCED_FACE('',(#166),#682,.F.);
#709=ADVANCED_FACE('',(#167),#147,.F.);
#710=ADVANCED_FACE('',(#168),#148,.T.);
#711=ADVANCED_FACE('',(#169,#15),#683,.F.);
#712=ADVANCED_FACE('',(#170),#149,.T.);
#713=ADVANCED_FACE('',(#171),#150,.T.);
#714=ADVANCED_FACE('',(#172),#151,.T.);
#715=ADVANCED_FACE('',(#173),#152,.T.);
#716=ADVANCED_FACE('',(#174),#684,.F.);
#717=ADVANCED_FACE('',(#175),#685,.F.);
#718=ADVANCED_FACE('',(#176),#686,.T.);
#719=ADVANCED_FACE('',(#177),#687,.F.);
#720=ADVANCED_FACE('',(#178),#688,.T.);
#721=ADVANCED_FACE('',(#179),#689,.F.);
#722=ADVANCED_FACE('',(#180),#153,.F.);
#723=ADVANCED_FACE('',(#181),#690,.F.);
#724=ADVANCED_FACE('',(#182),#154,.F.);
#725=ADVANCED_FACE('',(#183),#691,.T.);
#726=ADVANCED_FACE('',(#184),#155,.F.);
#727=ADVANCED_FACE('',(#185),#156,.F.);
#728=ADVANCED_FACE('',(#186),#692,.T.);
#729=ADVANCED_FACE('',(#187),#693,.T.);
#730=ADVANCED_FACE('',(#188),#694,.T.);
#731=ADVANCED_FACE('',(#189,#16,#17,#18,#19,#20),#695,.F.);
#732=ADVANCED_FACE('',(#190),#696,.F.);
#733=ADVANCED_FACE('',(#191),#697,.F.);
#734=ADVANCED_FACE('',(#192),#698,.F.);
#735=CLOSED_SHELL('',(#699,#700,#701,#702,#703,#704,#705,#706,#707,#708,
#709,#710,#711,#712,#713,#714,#715,#716,#717,#718,#719,#720,#721,#722,#723,
#724,#725,#726,#727,#728,#729,#730,#731,#732,#733,#734));
#736=DERIVED_UNIT_ELEMENT(#738,1.);
#737=DERIVED_UNIT_ELEMENT(#1285,-3.);
#738=(
MASS_UNIT()
NAMED_UNIT(*)
SI_UNIT(.KILO.,.GRAM.)
);
#739=DERIVED_UNIT((#736,#737));
#740=MEASURE_REPRESENTATION_ITEM('density measure',
POSITIVE_RATIO_MEASURE(7850.),#739);
#741=PROPERTY_DEFINITION_REPRESENTATION(#746,#743);
#742=PROPERTY_DEFINITION_REPRESENTATION(#747,#744);
#743=REPRESENTATION('material name',(#745),#1282);
#744=REPRESENTATION('density',(#740),#1282);
#745=DESCRIPTIVE_REPRESENTATION_ITEM('Steel','Steel');
#746=PROPERTY_DEFINITION('material property','material name',#1292);
#747=PROPERTY_DEFINITION('material property','density of part',#1292);
#748=AXIS2_PLACEMENT_3D('',#1063,#833,#834);
#749=AXIS2_PLACEMENT_3D('',#1064,#835,#836);
#750=AXIS2_PLACEMENT_3D('',#1067,#837,#838);
#751=AXIS2_PLACEMENT_3D('',#1068,#839,#840);
#752=AXIS2_PLACEMENT_3D('',#1069,#841,#842);
#753=AXIS2_PLACEMENT_3D('',#1071,#843,#844);
#754=AXIS2_PLACEMENT_3D('',#1075,#846,#847);
#755=AXIS2_PLACEMENT_3D('',#1079,#850,#851);
#756=AXIS2_PLACEMENT_3D('',#1080,#852,#853);
#757=AXIS2_PLACEMENT_3D('',#1082,#854,#855);
#758=AXIS2_PLACEMENT_3D('',#1086,#857,#858);
#759=AXIS2_PLACEMENT_3D('',#1089,#860,#861);
#760=AXIS2_PLACEMENT_3D('',#1090,#862,#863);
#761=AXIS2_PLACEMENT_3D('',#1093,#864,#865);
#762=AXIS2_PLACEMENT_3D('',#1094,#866,#867);
#763=AXIS2_PLACEMENT_3D('',#1095,#868,#869);
#764=AXIS2_PLACEMENT_3D('',#1097,#870,#871);
#765=AXIS2_PLACEMENT_3D('',#1101,#873,#874);
#766=AXIS2_PLACEMENT_3D('',#1105,#877,#878);
#767=AXIS2_PLACEMENT_3D('',#1106,#879,#880);
#768=AXIS2_PLACEMENT_3D('',#1108,#881,#882);
#769=AXIS2_PLACEMENT_3D('',#1112,#884,#885);
#770=AXIS2_PLACEMENT_3D('',#1115,#887,#888);
#771=AXIS2_PLACEMENT_3D('',#1116,#889,#890);
#772=AXIS2_PLACEMENT_3D('',#1119,#891,#892);
#773=AXIS2_PLACEMENT_3D('',#1120,#893,#894);
#774=AXIS2_PLACEMENT_3D('',#1121,#895,#896);
#775=AXIS2_PLACEMENT_3D('',#1123,#897,#898);
#776=AXIS2_PLACEMENT_3D('',#1127,#900,#901);
#777=AXIS2_PLACEMENT_3D('',#1131,#904,#905);
#778=AXIS2_PLACEMENT_3D('',#1132,#906,#907);
#779=AXIS2_PLACEMENT_3D('',#1134,#908,#909);
#780=AXIS2_PLACEMENT_3D('',#1138,#911,#912);
#781=AXIS2_PLACEMENT_3D('',#1141,#914,#915);
#782=AXIS2_PLACEMENT_3D('',#1142,#916,#917);
#783=AXIS2_PLACEMENT_3D('',#1145,#918,#919);
#784=AXIS2_PLACEMENT_3D('',#1146,#920,#921);
#785=AXIS2_PLACEMENT_3D('',#1147,#922,#923);
#786=AXIS2_PLACEMENT_3D('',#1149,#924,#925);
#787=AXIS2_PLACEMENT_3D('',#1153,#927,#928);
#788=AXIS2_PLACEMENT_3D('',#1157,#931,#932);
#789=AXIS2_PLACEMENT_3D('',#1158,#933,#934);
#790=AXIS2_PLACEMENT_3D('',#1160,#935,#936);
#791=AXIS2_PLACEMENT_3D('',#1164,#938,#939);
#792=AXIS2_PLACEMENT_3D('',#1167,#941,#942);
#793=AXIS2_PLACEMENT_3D('',#1168,#943,#944);
#794=AXIS2_PLACEMENT_3D('',#1173,#946,#947);
#795=AXIS2_PLACEMENT_3D('',#1177,#949,#950);
#796=AXIS2_PLACEMENT_3D('',#1181,#952,#953);
#797=AXIS2_PLACEMENT_3D('',#1184,#955,#956);
#798=AXIS2_PLACEMENT_3D('',#1189,#961,#962);
#799=AXIS2_PLACEMENT_3D('',#1194,#965,#966);
#800=AXIS2_PLACEMENT_3D('',#1195,#967,#968);
#801=AXIS2_PLACEMENT_3D('',#1200,#971,#972);
#802=AXIS2_PLACEMENT_3D('',#1201,#973,#974);
#803=AXIS2_PLACEMENT_3D('',#1206,#977,#978);
#804=AXIS2_PLACEMENT_3D('',#1207,#979,#980);
#805=AXIS2_PLACEMENT_3D('',#1211,#982,#983);
#806=AXIS2_PLACEMENT_3D('',#1213,#985,#986);
#807=AXIS2_PLACEMENT_3D('',#1215,#988,#989);
#808=AXIS2_PLACEMENT_3D('',#1217,#991,#992);
#809=AXIS2_PLACEMENT_3D('',#1219,#994,#995);
#810=AXIS2_PLACEMENT_3D('',#1221,#997,#998);
#811=AXIS2_PLACEMENT_3D('',#1223,#1000,#1001);
#812=AXIS2_PLACEMENT_3D('',#1225,#1003,#1004);
#813=AXIS2_PLACEMENT_3D('',#1228,#1005,#1006);
#814=AXIS2_PLACEMENT_3D('',#1232,#1008,#1009);
#815=AXIS2_PLACEMENT_3D('',#1234,#1011,#1012);
#816=AXIS2_PLACEMENT_3D('',#1240,#1016,#1017);
#817=AXIS2_PLACEMENT_3D('',#1242,#1018,#1019);
#818=AXIS2_PLACEMENT_3D('',#1244,#1020,#1021);
#819=AXIS2_PLACEMENT_3D('',#1246,#1023,#1024);
#820=AXIS2_PLACEMENT_3D('',#1252,#1028,#1029);
#821=AXIS2_PLACEMENT_3D('',#1255,#1030,#1031);
#822=AXIS2_PLACEMENT_3D('',#1259,#1033,#1034);
#823=AXIS2_PLACEMENT_3D('',#1261,#1036,#1037);
#824=AXIS2_PLACEMENT_3D('',#1263,#1038,#1039);
#825=AXIS2_PLACEMENT_3D('',#1265,#1040,#1041);
#826=AXIS2_PLACEMENT_3D('',#1267,#1043,#1044);
#827=AXIS2_PLACEMENT_3D('',#1270,#1047,#1048);
#828=AXIS2_PLACEMENT_3D('',#1272,#1050,#1051);
#829=AXIS2_PLACEMENT_3D('',#1274,#1053,#1054);
#830=AXIS2_PLACEMENT_3D('',#1275,#1055,#1056);
#831=AXIS2_PLACEMENT_3D('',#1278,#1059,#1060);
#832=AXIS2_PLACEMENT_3D('',#1279,#1061,#1062);
#833=DIRECTION('axis',(0.,0.,1.));
#834=DIRECTION('refdir',(1.,0.,0.));
#835=DIRECTION('center_axis',(0.,-1.,0.));
#836=DIRECTION('ref_axis',(1.,0.,0.));
#837=DIRECTION('center_axis',(0.,-1.,0.));
#838=DIRECTION('ref_axis',(1.,0.,0.));
#839=DIRECTION('center_axis',(0.,-1.,0.));
#840=DIRECTION('ref_axis',(1.,0.,0.));
#841=DIRECTION('center_axis',(0.,-1.,0.));
#842=DIRECTION('ref_axis',(1.,0.,0.));
#843=DIRECTION('center_axis',(0.,-1.,0.));
#844=DIRECTION('ref_axis',(1.,0.,0.));
#845=DIRECTION('',(0.,-1.,0.));
#846=DIRECTION('center_axis',(0.,1.,0.));
#847=DIRECTION('ref_axis',(1.,0.,0.));
#848=DIRECTION('',(0.,1.,0.));
#849=DIRECTION('',(0.,-1.,0.));
#850=DIRECTION('center_axis',(0.,1.,0.));
#851=DIRECTION('ref_axis',(1.,0.,0.));
#852=DIRECTION('center_axis',(0.,1.,0.));
#853=DIRECTION('ref_axis',(1.,0.,0.));
#854=DIRECTION('center_axis',(0.,-1.,0.));
#855=DIRECTION('ref_axis',(1.,0.,0.));
#856=DIRECTION('',(0.,1.,0.));
#857=DIRECTION('center_axis',(0.,-1.,0.));
#858=DIRECTION('ref_axis',(1.,0.,0.));
#859=DIRECTION('',(0.,1.,0.));
#860=DIRECTION('center_axis',(0.,-1.,0.));
#861=DIRECTION('ref_axis',(1.,0.,0.));
#862=DIRECTION('center_axis',(0.,-1.,0.));
#863=DIRECTION('ref_axis',(1.,0.,0.));
#864=DIRECTION('center_axis',(0.,-1.,0.));
#865=DIRECTION('ref_axis',(1.,0.,0.));
#866=DIRECTION('center_axis',(0.,-1.,0.));
#867=DIRECTION('ref_axis',(1.,0.,0.));
#868=DIRECTION('center_axis',(0.,-1.,0.));
#869=DIRECTION('ref_axis',(1.,0.,0.));
#870=DIRECTION('center_axis',(0.,-1.,0.));
#871=DIRECTION('ref_axis',(1.,0.,0.));
#872=DIRECTION('',(0.,-1.,0.));
#873=DIRECTION('center_axis',(0.,1.,0.));
#874=DIRECTION('ref_axis',(1.,0.,0.));
#875=DIRECTION('',(0.,1.,0.));
#876=DIRECTION('',(0.,-1.,0.));
#877=DIRECTION('center_axis',(0.,1.,0.));
#878=DIRECTION('ref_axis',(1.,0.,0.));
#879=DIRECTION('center_axis',(0.,1.,0.));
#880=DIRECTION('ref_axis',(1.,0.,0.));
#881=DIRECTION('center_axis',(0.,-1.,0.));
#882=DIRECTION('ref_axis',(1.,0.,0.));
#883=DIRECTION('',(0.,-1.,0.));
#884=DIRECTION('center_axis',(0.,-1.,0.));
#885=DIRECTION('ref_axis',(1.,0.,0.));
#886=DIRECTION('',(0.,-1.,0.));
#887=DIRECTION('center_axis',(0.,-1.,0.));
#888=DIRECTION('ref_axis',(1.,0.,0.));
#889=DIRECTION('center_axis',(0.,-1.,0.));
#890=DIRECTION('ref_axis',(1.,0.,0.));
#891=DIRECTION('center_axis',(0.,-1.,0.));
#892=DIRECTION('ref_axis',(1.,0.,0.));
#893=DIRECTION('center_axis',(0.,-1.,0.));
#894=DIRECTION('ref_axis',(1.,0.,0.));
#895=DIRECTION('center_axis',(0.,-1.,0.));
#896=DIRECTION('ref_axis',(1.,0.,0.));
#897=DIRECTION('center_axis',(0.,-1.,0.));
#898=DIRECTION('ref_axis',(1.,0.,0.));
#899=DIRECTION('',(0.,-1.,0.));
#900=DIRECTION('center_axis',(0.,1.,0.));
#901=DIRECTION('ref_axis',(1.,0.,0.));
#902=DIRECTION('',(0.,1.,0.));
#903=DIRECTION('',(0.,-1.,0.));
#904=DIRECTION('center_axis',(0.,1.,0.));
#905=DIRECTION('ref_axis',(1.,0.,0.));
#906=DIRECTION('center_axis',(0.,1.,0.));
#907=DIRECTION('ref_axis',(1.,0.,0.));
#908=DIRECTION('center_axis',(0.,-1.,0.));
#909=DIRECTION('ref_axis',(1.,0.,0.));
#910=DIRECTION('',(0.,-1.,0.));
#911=DIRECTION('center_axis',(0.,-1.,0.));
#912=DIRECTION('ref_axis',(1.,0.,0.));
#913=DIRECTION('',(0.,-1.,0.));
#914=DIRECTION('center_axis',(0.,-1.,0.));
#915=DIRECTION('ref_axis',(1.,0.,0.));
#916=DIRECTION('center_axis',(0.,-1.,0.));
#917=DIRECTION('ref_axis',(1.,0.,0.));
#918=DIRECTION('center_axis',(0.,-1.,0.));
#919=DIRECTION('ref_axis',(1.,0.,0.));
#920=DIRECTION('center_axis',(0.,-1.,0.));
#921=DIRECTION('ref_axis',(1.,0.,0.));
#922=DIRECTION('center_axis',(0.,-1.,0.));
#923=DIRECTION('ref_axis',(1.,0.,0.));
#924=DIRECTION('center_axis',(0.,-1.,0.));
#925=DIRECTION('ref_axis',(1.,0.,0.));
#926=DIRECTION('',(0.,-1.,0.));
#927=DIRECTION('center_axis',(0.,1.,0.));
#928=DIRECTION('ref_axis',(1.,0.,0.));
#929=DIRECTION('',(0.,1.,0.));
#930=DIRECTION('',(0.,-1.,0.));
#931=DIRECTION('center_axis',(0.,1.,0.));
#932=DIRECTION('ref_axis',(1.,0.,0.));
#933=DIRECTION('center_axis',(0.,1.,0.));
#934=DIRECTION('ref_axis',(1.,0.,0.));
#935=DIRECTION('center_axis',(0.,-1.,0.));
#936=DIRECTION('ref_axis',(1.,0.,0.));
#937=DIRECTION('',(0.,1.,0.));
#938=DIRECTION('center_axis',(0.,-1.,0.));
#939=DIRECTION('ref_axis',(1.,0.,0.));
#940=DIRECTION('',(0.,1.,0.));
#941=DIRECTION('center_axis',(0.,-1.,0.));
#942=DIRECTION('ref_axis',(1.,0.,0.));
#943=DIRECTION('center_axis',(0.,1.,0.));
#944=DIRECTION('ref_axis',(0.,0.,1.));
#945=DIRECTION('',(1.,0.,0.));
#946=DIRECTION('center_axis',(0.,-1.,0.));
#947=DIRECTION('ref_axis',(1.,0.,0.));
#948=DIRECTION('',(0.,0.,-1.));
#949=DIRECTION('center_axis',(0.,-1.,0.));
#950=DIRECTION('ref_axis',(1.,0.,0.));
#951=DIRECTION('',(-1.,0.,0.));
#952=DIRECTION('center_axis',(0.,-1.,0.));
#953=DIRECTION('ref_axis',(1.,0.,0.));
#954=DIRECTION('',(0.,0.,-1.));
#955=DIRECTION('center_axis',(0.,-1.,0.));
#956=DIRECTION('ref_axis',(1.,0.,0.));
#957=DIRECTION('',(0.,0.,1.));
#958=DIRECTION('',(1.,0.,0.));
#959=DIRECTION('',(0.,0.,-1.));
#960=DIRECTION('',(-1.,0.,0.));
#961=DIRECTION('center_axis',(0.,1.,0.));
#962=DIRECTION('ref_axis',(1.,0.,0.));
#963=DIRECTION('',(0.,1.,0.));
#964=DIRECTION('',(0.,1.,0.));
#965=DIRECTION('center_axis',(0.,1.,0.));
#966=DIRECTION('ref_axis',(1.,0.,0.));
#967=DIRECTION('center_axis',(0.,1.,0.));
#968=DIRECTION('ref_axis',(1.,0.,0.));
#969=DIRECTION('',(0.,-1.,0.));
#970=DIRECTION('',(0.,-1.,0.));
#971=DIRECTION('center_axis',(0.,1.,0.));
#972=DIRECTION('ref_axis',(1.,0.,0.));
#973=DIRECTION('center_axis',(0.,1.,0.));
#974=DIRECTION('ref_axis',(1.,0.,0.));
#975=DIRECTION('',(0.,-1.,0.));
#976=DIRECTION('',(0.,-1.,0.));
#977=DIRECTION('center_axis',(0.,1.,0.));
#978=DIRECTION('ref_axis',(1.,0.,0.));
#979=DIRECTION('center_axis',(0.,1.,0.));
#980=DIRECTION('ref_axis',(1.,0.,0.));
#981=DIRECTION('',(0.,1.,0.));
#982=DIRECTION('center_axis',(0.,1.,0.));
#983=DIRECTION('ref_axis',(1.,0.,0.));
#984=DIRECTION('',(0.,1.,0.));
#985=DIRECTION('center_axis',(1.,0.,0.));
#986=DIRECTION('ref_axis',(0.,0.,-1.));
#987=DIRECTION('',(0.,0.,-1.));
#988=DIRECTION('center_axis',(-1.,0.,0.));
#989=DIRECTION('ref_axis',(0.,0.,1.));
#990=DIRECTION('',(0.,0.,-1.));
#991=DIRECTION('center_axis',(0.,0.,1.));
#992=DIRECTION('ref_axis',(1.,0.,0.));
#993=DIRECTION('',(-1.,0.,0.));
#994=DIRECTION('center_axis',(0.,0.,1.));
#995=DIRECTION('ref_axis',(1.,0.,0.));
#996=DIRECTION('',(1.,0.,0.));
#997=DIRECTION('center_axis',(0.,0.,1.));
#998=DIRECTION('ref_axis',(1.,0.,0.));
#999=DIRECTION('',(1.,0.,0.));
#1000=DIRECTION('center_axis',(1.,0.,0.));
#1001=DIRECTION('ref_axis',(0.,0.,-1.));
#1002=DIRECTION('',(0.,0.,-1.));
#1003=DIRECTION('center_axis',(0.,1.,0.));
#1004=DIRECTION('ref_axis',(1.,0.,0.));
#1005=DIRECTION('center_axis',(0.,-1.,0.));
#1006=DIRECTION('ref_axis',(1.,0.,0.));
#1007=DIRECTION('',(0.,1.,0.));
#1008=DIRECTION('center_axis',(0.,-1.,0.));
#1009=DIRECTION('ref_axis',(1.,0.,0.));
#1010=DIRECTION('',(0.,1.,0.));
#1011=DIRECTION('center_axis',(0.,0.,1.));
#1012=DIRECTION('ref_axis',(1.,0.,0.));
#1013=DIRECTION('',(-1.,0.,0.));
#1014=DIRECTION('',(1.,0.,0.));
#1015=DIRECTION('',(0.,-1.,0.));
#1016=DIRECTION('center_axis',(0.,1.,0.));
#1017=DIRECTION('ref_axis',(1.,0.,0.));
#1018=DIRECTION('center_axis',(0.,-1.,0.));
#1019=DIRECTION('ref_axis',(1.,0.,0.));
#1020=DIRECTION('center_axis',(0.,-1.,0.));
#1021=DIRECTION('ref_axis',(1.,0.,0.));
#1022=DIRECTION('',(0.,-1.,0.));
#1023=DIRECTION('center_axis',(1.,0.,0.));
#1024=DIRECTION('ref_axis',(0.,0.,-1.));
#1025=DIRECTION('',(0.,0.,-1.));
#1026=DIRECTION('',(0.,0.,-1.));
#1027=DIRECTION('',(0.,1.,0.));
#1028=DIRECTION('center_axis',(0.,1.,0.));
#1029=DIRECTION('ref_axis',(1.,0.,0.));
#1030=DIRECTION('center_axis',(0.,-1.,0.));
#1031=DIRECTION('ref_axis',(1.,0.,0.));
#1032=DIRECTION('',(0.,-1.,0.));
#1033=DIRECTION('center_axis',(0.,-1.,0.));
#1034=DIRECTION('ref_axis',(1.,0.,0.));
#1035=DIRECTION('',(0.,-1.,0.));
#1036=DIRECTION('center_axis',(0.,1.,0.));
#1037=DIRECTION('ref_axis',(1.,0.,0.));
#1038=DIRECTION('center_axis',(0.,-1.,0.));
#1039=DIRECTION('ref_axis',(1.,0.,0.));
#1040=DIRECTION('center_axis',(0.,-1.,0.));
#1041=DIRECTION('ref_axis',(1.,0.,0.));
#1042=DIRECTION('',(0.,1.,0.));
#1043=DIRECTION('center_axis',(0.,1.,0.));
#1044=DIRECTION('ref_axis',(0.,0.,1.));
#1045=DIRECTION('',(0.,0.,-1.));
#1046=DIRECTION('',(-1.,0.,0.));
#1047=DIRECTION('center_axis',(-1.,0.,0.));
#1048=DIRECTION('ref_axis',(0.,0.,1.));
#1049=DIRECTION('',(0.,0.,1.));
#1050=DIRECTION('center_axis',(0.,0.,1.));
#1051=DIRECTION('ref_axis',(1.,0.,0.));
#1052=DIRECTION('',(1.,0.,0.));
#1053=DIRECTION('center_axis',(0.,-1.,0.));
#1054=DIRECTION('ref_axis',(0.,0.,-1.));
#1055=DIRECTION('center_axis',(0.,1.,0.));
#1056=DIRECTION('ref_axis',(0.,0.,1.));
#1057=DIRECTION('',(-1.,0.,0.));
#1058=DIRECTION('',(0.,0.,-1.));
#1059=DIRECTION('center_axis',(-1.,0.,0.));
#1060=DIRECTION('ref_axis',(0.,0.,1.));
#1061=DIRECTION('center_axis',(0.,0.,1.));
#1062=DIRECTION('ref_axis',(1.,0.,0.));
#1063=CARTESIAN_POINT('',(0.,0.,0.));
#1064=CARTESIAN_POINT('Origin',(465.3,-82.,265.));
#1065=CARTESIAN_POINT('',(464.751625751237,-82.,263.390874248763));
#1066=CARTESIAN_POINT('',(463.690874248763,-82.,264.451625751237));
#1067=CARTESIAN_POINT('Origin',(459.3,-82.,259.));
#1068=CARTESIAN_POINT('Origin',(465.3,-82.,265.));
#1069=CARTESIAN_POINT('Origin',(465.3,-77.5,265.));
#1070=CARTESIAN_POINT('',(463.6,-76.,265.));
#1071=CARTESIAN_POINT('Origin',(465.3,-76.,265.));
#1072=CARTESIAN_POINT('',(463.6,-78.,265.));
#1073=CARTESIAN_POINT('',(463.6,-77.5,265.));
#1074=CARTESIAN_POINT('',(463.690874248763,-78.,264.451625751237));
#1075=CARTESIAN_POINT('Origin',(465.3,-78.,265.));
#1076=CARTESIAN_POINT('',(463.690874248763,-77.5,264.451625751237));
#1077=CARTESIAN_POINT('',(464.751625751237,-78.,263.390874248763));
#1078=CARTESIAN_POINT('',(464.751625751237,-77.5,263.390874248763));
#1079=CARTESIAN_POINT('Origin',(465.3,-78.,265.));
#1080=CARTESIAN_POINT('Origin',(459.3,-98.5,259.));
#1081=CARTESIAN_POINT('',(459.3,-78.,266.));
#1082=CARTESIAN_POINT('Origin',(459.3,-78.,259.));
#1083=CARTESIAN_POINT('',(459.3,-121.,266.));
#1084=CARTESIAN_POINT('',(459.3,-98.5,266.));
#1085=CARTESIAN_POINT('',(466.3,-121.,259.));
#1086=CARTESIAN_POINT('Origin',(459.3,-121.,259.));
#1087=CARTESIAN_POINT('',(466.3,-78.,259.));
#1088=CARTESIAN_POINT('',(466.3,-98.5,259.));
#1089=CARTESIAN_POINT('Origin',(459.3,-78.,259.));
#1090=CARTESIAN_POINT('Origin',(465.3,-82.,215.));
#1091=CARTESIAN_POINT('',(463.690874248763,-82.,215.548374248763));
#1092=CARTESIAN_POINT('',(464.751625751237,-82.,216.609125751237));
#1093=CARTESIAN_POINT('Origin',(459.3,-82.,221.));
#1094=CARTESIAN_POINT('Origin',(465.3,-82.,215.));
#1095=CARTESIAN_POINT('Origin',(465.3,-77.5,215.));
#1096=CARTESIAN_POINT('',(463.6,-76.,215.));
#1097=CARTESIAN_POINT('Origin',(465.3,-76.,215.));
#1098=CARTESIAN_POINT('',(463.6,-78.,215.));
#1099=CARTESIAN_POINT('',(463.6,-77.5,215.));
#1100=CARTESIAN_POINT('',(464.751625751237,-78.,216.609125751237));
#1101=CARTESIAN_POINT('Origin',(465.3,-78.,215.));
#1102=CARTESIAN_POINT('',(464.751625751237,-77.5,216.609125751237));
#1103=CARTESIAN_POINT('',(463.690874248763,-78.,215.548374248763));
#1104=CARTESIAN_POINT('',(463.690874248763,-77.5,215.548374248763));
#1105=CARTESIAN_POINT('Origin',(465.3,-78.,215.));
#1106=CARTESIAN_POINT('Origin',(459.3,-98.5,221.));
#1107=CARTESIAN_POINT('',(466.3,-78.,221.));
#1108=CARTESIAN_POINT('Origin',(459.3,-78.,221.));
#1109=CARTESIAN_POINT('',(466.3,-121.,221.));
#1110=CARTESIAN_POINT('',(466.3,-98.5,221.));
#1111=CARTESIAN_POINT('',(459.3,-121.,214.));
#1112=CARTESIAN_POINT('Origin',(459.3,-121.,221.));
#1113=CARTESIAN_POINT('',(459.3,-78.,214.));
#1114=CARTESIAN_POINT('',(459.3,-98.5,214.));
#1115=CARTESIAN_POINT('Origin',(459.3,-78.,221.));
#1116=CARTESIAN_POINT('Origin',(415.3,-82.,265.));
#1117=CARTESIAN_POINT('',(416.909125751237,-82.,264.451625751237));
#1118=CARTESIAN_POINT('',(415.848374248763,-82.,263.390874248763));
#1119=CARTESIAN_POINT('Origin',(421.3,-82.,259.));
#1120=CARTESIAN_POINT('Origin',(415.3,-82.,265.));
#1121=CARTESIAN_POINT('Origin',(415.3,-77.5,265.));
#1122=CARTESIAN_POINT('',(413.6,-76.,265.));
#1123=CARTESIAN_POINT('Origin',(415.3,-76.,265.));
#1124=CARTESIAN_POINT('',(413.6,-78.,265.));
#1125=CARTESIAN_POINT('',(413.6,-77.5,265.));
#1126=CARTESIAN_POINT('',(415.848374248763,-78.,263.390874248763));
#1127=CARTESIAN_POINT('Origin',(415.3,-78.,265.));
#1128=CARTESIAN_POINT('',(415.848374248763,-77.5,263.390874248763));
#1129=CARTESIAN_POINT('',(416.909125751237,-78.,264.451625751237));
#1130=CARTESIAN_POINT('',(416.909125751237,-77.5,264.451625751237));
#1131=CARTESIAN_POINT('Origin',(415.3,-78.,265.));
#1132=CARTESIAN_POINT('Origin',(421.3,-98.5,259.));
#1133=CARTESIAN_POINT('',(414.3,-78.,259.));
#1134=CARTESIAN_POINT('Origin',(421.3,-78.,259.));
#1135=CARTESIAN_POINT('',(414.3,-121.,259.));
#1136=CARTESIAN_POINT('',(414.3,-98.5,259.));
#1137=CARTESIAN_POINT('',(421.3,-121.,266.));
#1138=CARTESIAN_POINT('Origin',(421.3,-121.,259.));
#1139=CARTESIAN_POINT('',(421.3,-78.,266.));
#1140=CARTESIAN_POINT('',(421.3,-98.5,266.));
#1141=CARTESIAN_POINT('Origin',(421.3,-78.,259.));
#1142=CARTESIAN_POINT('Origin',(415.3,-82.,215.));
#1143=CARTESIAN_POINT('',(415.848374248763,-82.,216.609125751237));
#1144=CARTESIAN_POINT('',(416.909125751237,-82.,215.548374248763));
#1145=CARTESIAN_POINT('Origin',(421.3,-82.,221.));
#1146=CARTESIAN_POINT('Origin',(415.3,-82.,215.));
#1147=CARTESIAN_POINT('Origin',(415.3,-77.5,215.));
#1148=CARTESIAN_POINT('',(413.6,-76.,215.));
#1149=CARTESIAN_POINT('Origin',(415.3,-76.,215.));
#1150=CARTESIAN_POINT('',(413.6,-78.,215.));
#1151=CARTESIAN_POINT('',(413.6,-77.5,215.));
#1152=CARTESIAN_POINT('',(416.909125751237,-78.,215.548374248763));
#1153=CARTESIAN_POINT('Origin',(415.3,-78.,215.));
#1154=CARTESIAN_POINT('',(416.909125751237,-77.5,215.548374248763));
#1155=CARTESIAN_POINT('',(415.848374248763,-78.,216.609125751237));
#1156=CARTESIAN_POINT('',(415.848374248763,-77.5,216.609125751237));
#1157=CARTESIAN_POINT('Origin',(415.3,-78.,215.));
#1158=CARTESIAN_POINT('Origin',(421.3,-98.5,221.));
#1159=CARTESIAN_POINT('',(421.3,-78.,214.));
#1160=CARTESIAN_POINT('Origin',(421.3,-78.,221.));
#1161=CARTESIAN_POINT('',(421.3,-121.,214.));
#1162=CARTESIAN_POINT('',(421.3,-98.5,214.));
#1163=CARTESIAN_POINT('',(414.3,-121.,221.));
#1164=CARTESIAN_POINT('Origin',(421.3,-121.,221.));
#1165=CARTESIAN_POINT('',(414.3,-78.,221.));
#1166=CARTESIAN_POINT('',(414.3,-98.5,221.));
#1167=CARTESIAN_POINT('Origin',(421.3,-78.,221.));
#1168=CARTESIAN_POINT('Origin',(440.3,-78.,240.));
#1169=CARTESIAN_POINT('',(417.8,-78.,270.));
#1170=CARTESIAN_POINT('',(462.8,-78.,270.));
#1171=CARTESIAN_POINT('',(440.3,-78.,270.));
#1172=CARTESIAN_POINT('',(410.3,-78.,262.5));
#1173=CARTESIAN_POINT('Origin',(417.8,-78.,262.5));
#1174=CARTESIAN_POINT('',(410.3,-78.,217.5));
#1175=CARTESIAN_POINT('',(410.3,-78.,240.));
#1176=CARTESIAN_POINT('',(417.8,-78.,210.));
#1177=CARTESIAN_POINT('Origin',(417.8,-78.,217.5));
#1178=CARTESIAN_POINT('',(462.8,-78.,210.));
#1179=CARTESIAN_POINT('',(440.3,-78.,210.));
#1180=CARTESIAN_POINT('',(470.3,-78.,217.5));
#1181=CARTESIAN_POINT('Origin',(462.8,-78.,217.5));
#1182=CARTESIAN_POINT('',(470.3,-78.,262.5));
#1183=CARTESIAN_POINT('',(470.3,-78.,240.));
#1184=CARTESIAN_POINT('Origin',(462.8,-78.,262.5));
#1185=CARTESIAN_POINT('',(466.3,-78.,240.));
#1186=CARTESIAN_POINT('',(440.3,-78.,214.));
#1187=CARTESIAN_POINT('',(414.3,-78.,240.));
#1188=CARTESIAN_POINT('',(440.3,-78.,266.));
#1189=CARTESIAN_POINT('Origin',(462.8,-77.,262.5));
#1190=CARTESIAN_POINT('',(462.8,-76.,270.));
#1191=CARTESIAN_POINT('',(462.8,-77.,270.));
#1192=CARTESIAN_POINT('',(470.3,-76.,262.5));
#1193=CARTESIAN_POINT('',(470.3,-77.,262.5));
#1194=CARTESIAN_POINT('Origin',(462.8,-76.,262.5));
#1195=CARTESIAN_POINT('Origin',(462.8,-77.,217.5));
#1196=CARTESIAN_POINT('',(470.3,-76.,217.5));
#1197=CARTESIAN_POINT('',(470.3,-77.,217.5));
#1198=CARTESIAN_POINT('',(462.8,-76.,210.));
#1199=CARTESIAN_POINT('',(462.8,-77.,210.));
#1200=CARTESIAN_POINT('Origin',(462.8,-76.,217.5));
#1201=CARTESIAN_POINT('Origin',(417.8,-77.,262.5));
#1202=CARTESIAN_POINT('',(410.3,-76.,262.5));
#1203=CARTESIAN_POINT('',(410.3,-77.,262.5));
#1204=CARTESIAN_POINT('',(417.8,-76.,270.));
#1205=CARTESIAN_POINT('',(417.8,-77.,270.));
#1206=CARTESIAN_POINT('Origin',(417.8,-76.,262.5));
#1207=CARTESIAN_POINT('Origin',(417.8,-77.,217.5));
#1208=CARTESIAN_POINT('',(410.3,-76.,217.5));
#1209=CARTESIAN_POINT('',(410.3,-77.,217.5));
#1210=CARTESIAN_POINT('',(417.8,-76.,210.));
#1211=CARTESIAN_POINT('Origin',(417.8,-76.,217.5));
#1212=CARTESIAN_POINT('',(417.8,-77.,210.));
#1213=CARTESIAN_POINT('Origin',(410.3,-77.,240.));
#1214=CARTESIAN_POINT('',(410.3,-76.,240.));
#1215=CARTESIAN_POINT('Origin',(470.3,-77.,240.));
#1216=CARTESIAN_POINT('',(470.3,-76.,240.));
#1217=CARTESIAN_POINT('Origin',(440.3,-77.,270.));
#1218=CARTESIAN_POINT('',(440.3,-76.,270.));
#1219=CARTESIAN_POINT('Origin',(440.3,-77.,210.));
#1220=CARTESIAN_POINT('',(440.3,-76.,210.));
#1221=CARTESIAN_POINT('Origin',(440.3,-98.5,266.));
#1222=CARTESIAN_POINT('',(440.3,-121.,266.));
#1223=CARTESIAN_POINT('Origin',(414.3,-98.5,240.));
#1224=CARTESIAN_POINT('',(414.3,-121.,240.));
#1225=CARTESIAN_POINT('Origin',(459.3,-96.5,259.));
#1226=CARTESIAN_POINT('',(463.3,-76.,259.));
#1227=CARTESIAN_POINT('',(459.3,-76.,263.));
#1228=CARTESIAN_POINT('Origin',(459.3,-76.,259.));
#1229=CARTESIAN_POINT('',(463.3,-118.,259.));
#1230=CARTESIAN_POINT('',(463.3,-96.5,259.));
#1231=CARTESIAN_POINT('',(459.3,-118.,263.));
#1232=CARTESIAN_POINT('Origin',(459.3,-118.,259.));
#1233=CARTESIAN_POINT('',(459.3,-96.5,263.));
#1234=CARTESIAN_POINT('Origin',(440.3,-96.5,263.));
#1235=CARTESIAN_POINT('',(421.3,-76.,263.));
#1236=CARTESIAN_POINT('',(440.3,-76.,263.));
#1237=CARTESIAN_POINT('',(421.3,-118.,263.));
#1238=CARTESIAN_POINT('',(440.3,-118.,263.));
#1239=CARTESIAN_POINT('',(421.3,-96.5,263.));
#1240=CARTESIAN_POINT('Origin',(421.3,-96.5,259.));
#1241=CARTESIAN_POINT('',(417.3,-76.,259.));
#1242=CARTESIAN_POINT('Origin',(421.3,-76.,259.));
#1243=CARTESIAN_POINT('',(417.3,-118.,259.));
#1244=CARTESIAN_POINT('Origin',(421.3,-118.,259.));
#1245=CARTESIAN_POINT('',(417.3,-96.5,259.));
#1246=CARTESIAN_POINT('Origin',(417.3,-96.5,240.));
#1247=CARTESIAN_POINT('',(417.3,-76.,221.));
#1248=CARTESIAN_POINT('',(417.3,-76.,240.));
#1249=CARTESIAN_POINT('',(417.3,-118.,221.));
#1250=CARTESIAN_POINT('',(417.3,-118.,240.));
#1251=CARTESIAN_POINT('',(417.3,-96.5,221.));
#1252=CARTESIAN_POINT('Origin',(459.3,-96.5,221.));
#1253=CARTESIAN_POINT('',(459.3,-76.,217.));
#1254=CARTESIAN_POINT('',(463.3,-76.,221.));
#1255=CARTESIAN_POINT('Origin',(459.3,-76.,221.));
#1256=CARTESIAN_POINT('',(459.3,-118.,217.));
#1257=CARTESIAN_POINT('',(459.3,-96.5,217.));
#1258=CARTESIAN_POINT('',(463.3,-118.,221.));
#1259=CARTESIAN_POINT('Origin',(459.3,-118.,221.));
#1260=CARTESIAN_POINT('',(463.3,-96.5,221.));
#1261=CARTESIAN_POINT('Origin',(421.3,-96.5,221.));
#1262=CARTESIAN_POINT('',(421.3,-76.,217.));
#1263=CARTESIAN_POINT('Origin',(421.3,-76.,221.));
#1264=CARTESIAN_POINT('',(421.3,-118.,217.));
#1265=CARTESIAN_POINT('Origin',(421.3,-118.,221.));
#1266=CARTESIAN_POINT('',(421.3,-96.5,217.));
#1267=CARTESIAN_POINT('Origin',(440.3,-118.,240.));
#1268=CARTESIAN_POINT('',(463.3,-118.,240.));
#1269=CARTESIAN_POINT('',(440.3,-118.,217.));
#1270=CARTESIAN_POINT('Origin',(463.3,-96.5,240.));
#1271=CARTESIAN_POINT('',(463.3,-76.,240.));
#1272=CARTESIAN_POINT('Origin',(440.3,-96.5,217.));
#1273=CARTESIAN_POINT('',(440.3,-76.,217.));
#1274=CARTESIAN_POINT('Origin',(440.3,-76.,240.));
#1275=CARTESIAN_POINT('Origin',(440.3,-121.,240.));
#1276=CARTESIAN_POINT('',(440.3,-121.,214.));
#1277=CARTESIAN_POINT('',(466.3,-121.,240.));
#1278=CARTESIAN_POINT('Origin',(466.3,-98.5,240.));
#1279=CARTESIAN_POINT('Origin',(440.3,-98.5,214.));
#1280=UNCERTAINTY_MEASURE_WITH_UNIT(LENGTH_MEASURE(0.01),#1284,
'DISTANCE_ACCURACY_VALUE',
'Maximum model space distance between geometric entities at asserted c
onnectivities');
#1281=UNCERTAINTY_MEASURE_WITH_UNIT(LENGTH_MEASURE(0.01),#1284,
'DISTANCE_ACCURACY_VALUE',
'Maximum model space distance between geometric entities at asserted c
onnectivities');
#1282=(
GEOMETRIC_REPRESENTATION_CONTEXT(3)
GLOBAL_UNCERTAINTY_ASSIGNED_CONTEXT((#1280))
GLOBAL_UNIT_ASSIGNED_CONTEXT((#1284,#1286,#1287))
REPRESENTATION_CONTEXT('','3D')
);
#1283=(
GEOMETRIC_REPRESENTATION_CONTEXT(3)
GLOBAL_UNCERTAINTY_ASSIGNED_CONTEXT((#1281))
GLOBAL_UNIT_ASSIGNED_CONTEXT((#1284,#1286,#1287))
REPRESENTATION_CONTEXT('','3D')
);
#1284=(
LENGTH_UNIT()
NAMED_UNIT(*)
SI_UNIT(.MILLI.,.METRE.)
);
#1285=(
LENGTH_UNIT()
NAMED_UNIT(*)
SI_UNIT($,.METRE.)
);
#1286=(
NAMED_UNIT(*)
PLANE_ANGLE_UNIT()
SI_UNIT($,.RADIAN.)
);
#1287=(
NAMED_UNIT(*)
SI_UNIT($,.STERADIAN.)
SOLID_ANGLE_UNIT()
);
#1288=SHAPE_DEFINITION_REPRESENTATION(#1289,#1290);
#1289=PRODUCT_DEFINITION_SHAPE('',$,#1292);
#1290=SHAPE_REPRESENTATION('',(#748),#1282);
#1291=PRODUCT_DEFINITION_CONTEXT('part definition',#1296,'design');
#1292=PRODUCT_DEFINITION('2026-08-12-23-09-42-044',
'EXPORT_TMP_PRINT_V009A_P412_NEMA17_OpenBackCover_A_',#1293,#1291);
#1293=PRODUCT_DEFINITION_FORMATION('',$,#1298);
#1294=PRODUCT_RELATED_PRODUCT_CATEGORY(
'EXPORT_TMP_PRINT_V009A_P412_NEMA17_OpenBackCover_A_',
'EXPORT_TMP_PRINT_V009A_P412_NEMA17_OpenBackCover_A_',(#1298));
#1295=APPLICATION_PROTOCOL_DEFINITION('international standard',
'automotive_design',2009,#1296);
#1296=APPLICATION_CONTEXT(
'Core Data for Automotive Mechanical Design Process');
#1297=PRODUCT_CONTEXT('part definition',#1296,'mechanical');
#1298=PRODUCT('2026-08-12-23-09-42-044',
'EXPORT_TMP_PRINT_V009A_P412_NEMA17_OpenBackCover_A_',$,(#1297));
#1299=PRESENTATION_STYLE_ASSIGNMENT((#1300));
#1300=SURFACE_STYLE_USAGE(.BOTH.,#1301);
#1301=SURFACE_SIDE_STYLE('',(#1302));
#1302=SURFACE_STYLE_FILL_AREA(#1303);
#1303=FILL_AREA_STYLE('Steel - Satin',(#1304));
#1304=FILL_AREA_STYLE_COLOUR('Steel - Satin',#1305);
#1305=COLOUR_RGB('Steel - Satin',0.627450980392157,0.627450980392157,0.627450980392157);
ENDSEC;
END-ISO-10303-21;
