ISO-10303-21;
HEADER;
/* Generated by software containing ST-Developer
 * from STEP Tools, Inc. (www.steptools.com) 
 */

FILE_DESCRIPTION(
/* description */ (''),
/* implementation_level */ '2;1');

FILE_NAME(
/* name */ 'PRINT_V010X_P02_HomeSwitchBracket_J2.step',
/* time_stamp */ '2026-08-12T23:07:32+02:00',
/* author */ (''),
/* organization */ (''),
/* preprocessor_version */ 'ST-DEVELOPER v20.1',
/* originating_system */ 'Autodesk Translation Framework v15.8.0.0',
/* authorisation */ '');

FILE_SCHEMA (('AUTOMOTIVE_DESIGN { 1 0 10303 214 3 1 1 }'));
ENDSEC;

DATA;
#10=MECHANICAL_DESIGN_GEOMETRIC_PRESENTATION_REPRESENTATION('',(#13),#354);
#11=SHAPE_REPRESENTATION_RELATIONSHIP('SRR','None',#361,#12);
#12=ADVANCED_BREP_SHAPE_REPRESENTATION('',(#14),#353);
#13=STYLED_ITEM('',(#370),#14);
#14=MANIFOLD_SOLID_BREP('PRINT_V010X_P02_HomeSwitchBracket_J2',#206);
#15=CYLINDRICAL_SURFACE('',#222,4.);
#16=CYLINDRICAL_SURFACE('',#227,4.);
#17=FACE_OUTER_BOUND('',#28,.T.);
#18=FACE_OUTER_BOUND('',#29,.T.);
#19=FACE_OUTER_BOUND('',#30,.T.);
#20=FACE_OUTER_BOUND('',#31,.T.);
#21=FACE_OUTER_BOUND('',#32,.T.);
#22=FACE_OUTER_BOUND('',#33,.T.);
#23=FACE_OUTER_BOUND('',#34,.T.);
#24=FACE_OUTER_BOUND('',#35,.T.);
#25=FACE_OUTER_BOUND('',#36,.T.);
#26=FACE_OUTER_BOUND('',#37,.T.);
#27=FACE_OUTER_BOUND('',#38,.T.);
#28=EDGE_LOOP('',(#132,#133));
#29=EDGE_LOOP('',(#134,#135,#136,#137));
#30=EDGE_LOOP('',(#138,#139,#140,#141,#142,#143,#144,#145,#146));
#31=EDGE_LOOP('',(#147,#148,#149,#150,#151,#152,#153,#154));
#32=EDGE_LOOP('',(#155,#156));
#33=EDGE_LOOP('',(#157));
#34=EDGE_LOOP('',(#158,#159,#160,#161,#162,#163,#164,#165));
#35=EDGE_LOOP('',(#166,#167,#168,#169));
#36=EDGE_LOOP('',(#170,#171,#172,#173));
#37=EDGE_LOOP('',(#174,#175,#176,#177));
#38=EDGE_LOOP('',(#178,#179,#180,#181,#182,#183,#184,#185));
#39=CIRCLE('',#221,4.);
#40=CIRCLE('',#223,4.);
#41=CIRCLE('',#225,4.);
#42=CIRCLE('',#226,4.);
#43=CIRCLE('',#228,4.);
#44=CIRCLE('',#229,4.);
#45=LINE('',#298,#66);
#46=LINE('',#302,#67);
#47=LINE('',#304,#68);
#48=LINE('',#308,#69);
#49=LINE('',#310,#70);
#50=LINE('',#312,#71);
#51=LINE('',#318,#72);
#52=LINE('',#320,#73);
#53=LINE('',#321,#74);
#54=LINE('',#325,#75);
#55=LINE('',#327,#76);
#56=LINE('',#330,#77);
#57=LINE('',#332,#78);
#58=LINE('',#336,#79);
#59=LINE('',#338,#80);
#60=LINE('',#339,#81);
#61=LINE('',#342,#82);
#62=LINE('',#343,#83);
#63=LINE('',#346,#84);
#64=LINE('',#347,#85);
#65=LINE('',#349,#86);
#66=VECTOR('',#241,10.);
#67=VECTOR('',#246,10.);
#68=VECTOR('',#247,10.);
#69=VECTOR('',#252,10.);
#70=VECTOR('',#253,10.);
#71=VECTOR('',#254,10.);
#72=VECTOR('',#259,10.);
#73=VECTOR('',#260,10.);
#74=VECTOR('',#261,10.);
#75=VECTOR('',#266,4.);
#76=VECTOR('',#267,10.);
#77=VECTOR('',#270,10.);
#78=VECTOR('',#273,10.);
#79=VECTOR('',#278,10.);
#80=VECTOR('',#279,10.);
#81=VECTOR('',#280,10.);
#82=VECTOR('',#283,10.);
#83=VECTOR('',#284,10.);
#84=VECTOR('',#287,10.);
#85=VECTOR('',#288,10.);
#86=VECTOR('',#291,10.);
#87=VERTEX_POINT('',#296);
#88=VERTEX_POINT('',#297);
#89=VERTEX_POINT('',#301);
#90=VERTEX_POINT('',#303);
#91=VERTEX_POINT('',#307);
#92=VERTEX_POINT('',#309);
#93=VERTEX_POINT('',#311);
#94=VERTEX_POINT('',#313);
#95=VERTEX_POINT('',#315);
#96=VERTEX_POINT('',#317);
#97=VERTEX_POINT('',#319);
#98=VERTEX_POINT('',#323);
#99=VERTEX_POINT('',#326);
#100=VERTEX_POINT('',#328);
#101=VERTEX_POINT('',#335);
#102=VERTEX_POINT('',#337);
#103=VERTEX_POINT('',#341);
#104=VERTEX_POINT('',#345);
#105=EDGE_CURVE('',#87,#88,#45,.T.);
#106=EDGE_CURVE('',#87,#88,#39,.T.);
#107=EDGE_CURVE('',#88,#89,#46,.T.);
#108=EDGE_CURVE('',#90,#87,#47,.T.);
#109=EDGE_CURVE('',#89,#90,#40,.T.);
#110=EDGE_CURVE('',#91,#90,#48,.T.);
#111=EDGE_CURVE('',#92,#91,#49,.T.);
#112=EDGE_CURVE('',#92,#93,#50,.T.);
#113=EDGE_CURVE('',#93,#94,#41,.T.);
#114=EDGE_CURVE('',#94,#95,#42,.T.);
#115=EDGE_CURVE('',#95,#96,#51,.T.);
#116=EDGE_CURVE('',#97,#96,#52,.T.);
#117=EDGE_CURVE('',#89,#97,#53,.T.);
#118=EDGE_CURVE('',#98,#98,#43,.T.);
#119=EDGE_CURVE('',#98,#94,#54,.T.);
#120=EDGE_CURVE('',#99,#93,#55,.T.);
#121=EDGE_CURVE('',#100,#99,#44,.T.);
#122=EDGE_CURVE('',#95,#100,#56,.T.);
#123=EDGE_CURVE('',#100,#99,#57,.T.);
#124=EDGE_CURVE('',#101,#92,#58,.T.);
#125=EDGE_CURVE('',#101,#102,#59,.T.);
#126=EDGE_CURVE('',#96,#102,#60,.T.);
#127=EDGE_CURVE('',#91,#103,#61,.T.);
#128=EDGE_CURVE('',#103,#101,#62,.T.);
#129=EDGE_CURVE('',#102,#104,#63,.T.);
#130=EDGE_CURVE('',#104,#97,#64,.T.);
#131=EDGE_CURVE('',#103,#104,#65,.T.);
#132=ORIENTED_EDGE('',*,*,#105,.F.);
#133=ORIENTED_EDGE('',*,*,#106,.T.);
#134=ORIENTED_EDGE('',*,*,#107,.F.);
#135=ORIENTED_EDGE('',*,*,#106,.F.);
#136=ORIENTED_EDGE('',*,*,#108,.F.);
#137=ORIENTED_EDGE('',*,*,#109,.F.);
#138=ORIENTED_EDGE('',*,*,#110,.F.);
#139=ORIENTED_EDGE('',*,*,#111,.F.);
#140=ORIENTED_EDGE('',*,*,#112,.T.);
#141=ORIENTED_EDGE('',*,*,#113,.T.);
#142=ORIENTED_EDGE('',*,*,#114,.T.);
#143=ORIENTED_EDGE('',*,*,#115,.T.);
#144=ORIENTED_EDGE('',*,*,#116,.F.);
#145=ORIENTED_EDGE('',*,*,#117,.F.);
#146=ORIENTED_EDGE('',*,*,#109,.T.);
#147=ORIENTED_EDGE('',*,*,#118,.F.);
#148=ORIENTED_EDGE('',*,*,#119,.T.);
#149=ORIENTED_EDGE('',*,*,#113,.F.);
#150=ORIENTED_EDGE('',*,*,#120,.F.);
#151=ORIENTED_EDGE('',*,*,#121,.F.);
#152=ORIENTED_EDGE('',*,*,#122,.F.);
#153=ORIENTED_EDGE('',*,*,#114,.F.);
#154=ORIENTED_EDGE('',*,*,#119,.F.);
#155=ORIENTED_EDGE('',*,*,#123,.F.);
#156=ORIENTED_EDGE('',*,*,#121,.T.);
#157=ORIENTED_EDGE('',*,*,#118,.T.);
#158=ORIENTED_EDGE('',*,*,#122,.T.);
#159=ORIENTED_EDGE('',*,*,#123,.T.);
#160=ORIENTED_EDGE('',*,*,#120,.T.);
#161=ORIENTED_EDGE('',*,*,#112,.F.);
#162=ORIENTED_EDGE('',*,*,#124,.F.);
#163=ORIENTED_EDGE('',*,*,#125,.T.);
#164=ORIENTED_EDGE('',*,*,#126,.F.);
#165=ORIENTED_EDGE('',*,*,#115,.F.);
#166=ORIENTED_EDGE('',*,*,#111,.T.);
#167=ORIENTED_EDGE('',*,*,#127,.T.);
#168=ORIENTED_EDGE('',*,*,#128,.T.);
#169=ORIENTED_EDGE('',*,*,#124,.T.);
#170=ORIENTED_EDGE('',*,*,#116,.T.);
#171=ORIENTED_EDGE('',*,*,#126,.T.);
#172=ORIENTED_EDGE('',*,*,#129,.T.);
#173=ORIENTED_EDGE('',*,*,#130,.T.);
#174=ORIENTED_EDGE('',*,*,#131,.T.);
#175=ORIENTED_EDGE('',*,*,#129,.F.);
#176=ORIENTED_EDGE('',*,*,#125,.F.);
#177=ORIENTED_EDGE('',*,*,#128,.F.);
#178=ORIENTED_EDGE('',*,*,#107,.T.);
#179=ORIENTED_EDGE('',*,*,#117,.T.);
#180=ORIENTED_EDGE('',*,*,#130,.F.);
#181=ORIENTED_EDGE('',*,*,#131,.F.);
#182=ORIENTED_EDGE('',*,*,#127,.F.);
#183=ORIENTED_EDGE('',*,*,#110,.T.);
#184=ORIENTED_EDGE('',*,*,#108,.T.);
#185=ORIENTED_EDGE('',*,*,#105,.T.);
#186=PLANE('',#220);
#187=PLANE('',#224);
#188=PLANE('',#230);
#189=PLANE('',#231);
#190=PLANE('',#232);
#191=PLANE('',#233);
#192=PLANE('',#234);
#193=PLANE('',#235);
#194=PLANE('',#236);
#195=ADVANCED_FACE('',(#17),#186,.T.);
#196=ADVANCED_FACE('',(#18),#15,.T.);
#197=ADVANCED_FACE('',(#19),#187,.F.);
#198=ADVANCED_FACE('',(#20),#16,.T.);
#199=ADVANCED_FACE('',(#21),#188,.T.);
#200=ADVANCED_FACE('',(#22),#189,.T.);
#201=ADVANCED_FACE('',(#23),#190,.F.);
#202=ADVANCED_FACE('',(#24),#191,.T.);
#203=ADVANCED_FACE('',(#25),#192,.F.);
#204=ADVANCED_FACE('',(#26),#193,.F.);
#205=ADVANCED_FACE('',(#27),#194,.F.);
#206=CLOSED_SHELL('',(#195,#196,#197,#198,#199,#200,#201,#202,#203,#204,
#205));
#207=DERIVED_UNIT_ELEMENT(#209,1.);
#208=DERIVED_UNIT_ELEMENT(#356,-3.);
#209=(
MASS_UNIT()
NAMED_UNIT(*)
SI_UNIT(.KILO.,.GRAM.)
);
#210=DERIVED_UNIT((#207,#208));
#211=MEASURE_REPRESENTATION_ITEM('density measure',
POSITIVE_RATIO_MEASURE(7850.),#210);
#212=PROPERTY_DEFINITION_REPRESENTATION(#217,#214);
#213=PROPERTY_DEFINITION_REPRESENTATION(#218,#215);
#214=REPRESENTATION('material name',(#216),#353);
#215=REPRESENTATION('density',(#211),#353);
#216=DESCRIPTIVE_REPRESENTATION_ITEM('Steel','Steel');
#217=PROPERTY_DEFINITION('material property','material name',#363);
#218=PROPERTY_DEFINITION('material property','density of part',#363);
#219=AXIS2_PLACEMENT_3D('',#294,#237,#238);
#220=AXIS2_PLACEMENT_3D('',#295,#239,#240);
#221=AXIS2_PLACEMENT_3D('',#299,#242,#243);
#222=AXIS2_PLACEMENT_3D('',#300,#244,#245);
#223=AXIS2_PLACEMENT_3D('',#305,#248,#249);
#224=AXIS2_PLACEMENT_3D('',#306,#250,#251);
#225=AXIS2_PLACEMENT_3D('',#314,#255,#256);
#226=AXIS2_PLACEMENT_3D('',#316,#257,#258);
#227=AXIS2_PLACEMENT_3D('',#322,#262,#263);
#228=AXIS2_PLACEMENT_3D('',#324,#264,#265);
#229=AXIS2_PLACEMENT_3D('',#329,#268,#269);
#230=AXIS2_PLACEMENT_3D('',#331,#271,#272);
#231=AXIS2_PLACEMENT_3D('',#333,#274,#275);
#232=AXIS2_PLACEMENT_3D('',#334,#276,#277);
#233=AXIS2_PLACEMENT_3D('',#340,#281,#282);
#234=AXIS2_PLACEMENT_3D('',#344,#285,#286);
#235=AXIS2_PLACEMENT_3D('',#348,#289,#290);
#236=AXIS2_PLACEMENT_3D('',#350,#292,#293);
#237=DIRECTION('axis',(0.,0.,1.));
#238=DIRECTION('refdir',(1.,0.,0.));
#239=DIRECTION('center_axis',(0.93969262078587,0.,-0.342020143325774));
#240=DIRECTION('ref_axis',(-0.342020143325774,0.,-0.93969262078587));
#241=DIRECTION('',(0.,1.,0.));
#242=DIRECTION('center_axis',(0.93969262078587,0.,-0.342020143325774));
#243=DIRECTION('ref_axis',(0.342020143325774,0.,0.93969262078587));
#244=DIRECTION('center_axis',(-0.93969262078587,0.,0.342020143325774));
#245=DIRECTION('ref_axis',(-0.342020143325774,1.22464679914735E-16,-0.93969262078587));
#246=DIRECTION('',(-0.93969262078587,0.,0.342020143325774));
#247=DIRECTION('',(0.93969262078587,0.,-0.342020143325774));
#248=DIRECTION('center_axis',(-0.93969262078587,0.,0.342020143325774));
#249=DIRECTION('ref_axis',(0.342020143325774,0.,0.93969262078587));
#250=DIRECTION('center_axis',(0.939692620785908,0.,-0.342020143325669));
#251=DIRECTION('ref_axis',(0.,-1.,0.));
#252=DIRECTION('',(0.,1.,0.));
#253=DIRECTION('',(-0.342020143325669,0.,-0.939692620785908));
#254=DIRECTION('',(0.,1.,0.));
#255=DIRECTION('center_axis',(0.939692620785908,0.,-0.342020143325669));
#256=DIRECTION('ref_axis',(0.342020143325673,0.,0.939692620785907));
#257=DIRECTION('center_axis',(0.939692620785908,0.,-0.342020143325669));
#258=DIRECTION('ref_axis',(0.342020143325673,0.,0.939692620785907));
#259=DIRECTION('',(0.,1.,0.));
#260=DIRECTION('',(0.342020143325669,0.,0.939692620785908));
#261=DIRECTION('',(0.,1.,0.));
#262=DIRECTION('center_axis',(-0.939692620785907,0.,0.342020143325673));
#263=DIRECTION('ref_axis',(0.342020143325673,0.,0.939692620785907));
#264=DIRECTION('center_axis',(-0.939692620785907,0.,0.342020143325673));
#265=DIRECTION('ref_axis',(0.342020143325673,0.,0.939692620785907));
#266=DIRECTION('',(0.939692620785907,0.,-0.342020143325673));
#267=DIRECTION('',(-0.939692620785907,0.,0.342020143325673));
#268=DIRECTION('center_axis',(0.939692620785907,0.,-0.342020143325673));
#269=DIRECTION('ref_axis',(0.342020143325673,0.,0.939692620785907));
#270=DIRECTION('',(0.939692620785907,0.,-0.342020143325673));
#271=DIRECTION('center_axis',(0.939692620785907,0.,-0.342020143325673));
#272=DIRECTION('ref_axis',(-0.342020143325673,0.,-0.939692620785907));
#273=DIRECTION('',(0.,-1.,0.));
#274=DIRECTION('center_axis',(-0.939692620785907,0.,0.342020143325673));
#275=DIRECTION('ref_axis',(0.342020143325673,0.,0.939692620785907));
#276=DIRECTION('center_axis',(-0.342020143325669,0.,-0.939692620785908));
#277=DIRECTION('ref_axis',(0.,-1.,0.));
#278=DIRECTION('',(-0.939692620785908,0.,0.342020143325669));
#279=DIRECTION('',(0.,1.,0.));
#280=DIRECTION('',(0.939692620785908,0.,-0.342020143325669));
#281=DIRECTION('center_axis',(0.,-1.,0.));
#282=DIRECTION('ref_axis',(-0.939692620785908,0.,0.342020143325669));
#283=DIRECTION('',(0.939692620785908,0.,-0.342020143325669));
#284=DIRECTION('',(0.342020143325669,0.,0.939692620785908));
#285=DIRECTION('center_axis',(0.,-1.,0.));
#286=DIRECTION('ref_axis',(-0.939692620785908,0.,0.342020143325669));
#287=DIRECTION('',(-0.342020143325669,0.,-0.939692620785908));
#288=DIRECTION('',(-0.939692620785908,0.,0.342020143325669));
#289=DIRECTION('center_axis',(-0.939692620785908,0.,0.342020143325669));
#290=DIRECTION('ref_axis',(0.,1.,0.));
#291=DIRECTION('',(0.,1.,0.));
#292=DIRECTION('center_axis',(0.342020143325669,0.,0.939692620785908));
#293=DIRECTION('ref_axis',(0.,1.,0.));
#294=CARTESIAN_POINT('',(0.,0.,0.));
#295=CARTESIAN_POINT('Origin',(-56.3418244359977,-32.,250.397058200434));
#296=CARTESIAN_POINT('',(-56.5128345076606,-35.9686269665969,249.927211890041));
#297=CARTESIAN_POINT('',(-56.5128345076606,-28.0313730334031,249.927211890041));
#298=CARTESIAN_POINT('',(-56.5128345076606,-32.,249.927211890041));
#299=CARTESIAN_POINT('Origin',(-56.3418244359977,-32.,250.397058200434));
#300=CARTESIAN_POINT('Origin',(-56.5767475911941,-32.,250.482563236266));
#301=CARTESIAN_POINT('',(-56.9826808180535,-28.0313730334031,250.098221961704));
#302=CARTESIAN_POINT('',(-56.747757662857,-28.0313730334031,250.012716925873));
#303=CARTESIAN_POINT('',(-56.9826808180535,-35.9686269665969,250.098221961704));
#304=CARTESIAN_POINT('',(-56.747757662857,-35.9686269665969,250.012716925873));
#305=CARTESIAN_POINT('Origin',(-56.8116707463906,-32.,250.568068272097));
#306=CARTESIAN_POINT('Origin',(-53.5624793847968,-32.,259.495148169563));
#307=CARTESIAN_POINT('',(-56.9826808180535,-39.,250.098221961704));
#308=CARTESIAN_POINT('',(-56.9826808180535,-32.,250.098221961704));
#309=CARTESIAN_POINT('',(-50.1422779515401,-39.,268.892074377422));
#310=CARTESIAN_POINT('',(-53.5624793847968,-39.,259.495148169563));
#311=CARTESIAN_POINT('',(-50.1422779515401,-35.9686269665969,268.892074377422));
#312=CARTESIAN_POINT('',(-50.1422779515401,-32.,268.892074377422));
#313=CARTESIAN_POINT('',(-51.6813685965056,-32.,264.663457583886));
#314=CARTESIAN_POINT('Origin',(-50.3132880232029,-32.,268.422228067029));
#315=CARTESIAN_POINT('',(-50.1422779515401,-28.0313730334031,268.892074377422));
#316=CARTESIAN_POINT('Origin',(-50.3132880232029,-32.,268.422228067029));
#317=CARTESIAN_POINT('',(-50.1422779515401,-25.,268.892074377422));
#318=CARTESIAN_POINT('',(-50.1422779515401,-32.,268.892074377422));
#319=CARTESIAN_POINT('',(-56.9826808180535,-25.,250.098221961704));
#320=CARTESIAN_POINT('',(-53.5624793847968,-25.,259.495148169563));
#321=CARTESIAN_POINT('',(-56.9826808180535,-32.,250.098221961704));
#322=CARTESIAN_POINT('Origin',(-53.3672890407571,-32.,269.533793532838));
#323=CARTESIAN_POINT('',(-58.259216942007,-32.,267.057598587165));
#324=CARTESIAN_POINT('Origin',(-56.8911363687043,-32.,270.816369070309));
#325=CARTESIAN_POINT('',(-54.7353696140598,-32.,265.775023049694));
#326=CARTESIAN_POINT('',(-49.6724316411471,-35.9686269665969,268.721064305759));
#327=CARTESIAN_POINT('',(-53.1962789690943,-35.9686269665969,270.003639843231));
#328=CARTESIAN_POINT('',(-49.6724316411471,-28.0313730334031,268.721064305759));
#329=CARTESIAN_POINT('Origin',(-49.84344171281,-32.,268.251217995366));
#330=CARTESIAN_POINT('',(-53.1962789690943,-28.0313730334031,270.003639843231));
#331=CARTESIAN_POINT('Origin',(-49.84344171281,-32.,268.251217995366));
#332=CARTESIAN_POINT('',(-49.6724316411471,-32.,268.721064305759));
#333=CARTESIAN_POINT('Origin',(-56.8911363687043,-32.,270.816369070309));
#334=CARTESIAN_POINT('Origin',(-47.5581232443788,-32.,267.951518983277));
#335=CARTESIAN_POINT('',(-44.9739685372176,-39.,267.010963589131));
#336=CARTESIAN_POINT('',(-47.5581232443788,-39.,267.951518983277));
#337=CARTESIAN_POINT('',(-44.9739685372176,-25.,267.010963589131));
#338=CARTESIAN_POINT('',(-44.9739685372176,-32.,267.010963589131));
#339=CARTESIAN_POINT('',(-47.5581232443788,-25.,267.951518983277));
#340=CARTESIAN_POINT('Origin',(-50.9783246776355,-39.,258.554592775418));
#341=CARTESIAN_POINT('',(-51.814371403731,-39.,248.217111173413));
#342=CARTESIAN_POINT('',(-54.3985261108922,-39.,249.157666567558));
#343=CARTESIAN_POINT('',(-48.3941699704743,-39.,257.614037381272));
#344=CARTESIAN_POINT('Origin',(-50.9783246776355,-25.,258.554592775418));
#345=CARTESIAN_POINT('',(-51.814371403731,-25.,248.217111173413));
#346=CARTESIAN_POINT('',(-48.3941699704743,-25.,257.614037381272));
#347=CARTESIAN_POINT('',(-54.3985261108922,-25.,249.157666567558));
#348=CARTESIAN_POINT('Origin',(-48.3941699704743,-32.,257.614037381272));
#349=CARTESIAN_POINT('',(-51.814371403731,-32.,248.217111173413));
#350=CARTESIAN_POINT('Origin',(-54.3985261108922,-32.,249.157666567558));
#351=UNCERTAINTY_MEASURE_WITH_UNIT(LENGTH_MEASURE(0.01),#355,
'DISTANCE_ACCURACY_VALUE',
'Maximum model space distance between geometric entities at asserted c
onnectivities');
#352=UNCERTAINTY_MEASURE_WITH_UNIT(LENGTH_MEASURE(0.01),#355,
'DISTANCE_ACCURACY_VALUE',
'Maximum model space distance between geometric entities at asserted c
onnectivities');
#353=(
GEOMETRIC_REPRESENTATION_CONTEXT(3)
GLOBAL_UNCERTAINTY_ASSIGNED_CONTEXT((#351))
GLOBAL_UNIT_ASSIGNED_CONTEXT((#355,#357,#358))
REPRESENTATION_CONTEXT('','3D')
);
#354=(
GEOMETRIC_REPRESENTATION_CONTEXT(3)
GLOBAL_UNCERTAINTY_ASSIGNED_CONTEXT((#352))
GLOBAL_UNIT_ASSIGNED_CONTEXT((#355,#357,#358))
REPRESENTATION_CONTEXT('','3D')
);
#355=(
LENGTH_UNIT()
NAMED_UNIT(*)
SI_UNIT(.MILLI.,.METRE.)
);
#356=(
LENGTH_UNIT()
NAMED_UNIT(*)
SI_UNIT($,.METRE.)
);
#357=(
NAMED_UNIT(*)
PLANE_ANGLE_UNIT()
SI_UNIT($,.RADIAN.)
);
#358=(
NAMED_UNIT(*)
SI_UNIT($,.STERADIAN.)
SOLID_ANGLE_UNIT()
);
#359=SHAPE_DEFINITION_REPRESENTATION(#360,#361);
#360=PRODUCT_DEFINITION_SHAPE('',$,#363);
#361=SHAPE_REPRESENTATION('',(#219),#353);
#362=PRODUCT_DEFINITION_CONTEXT('part definition',#367,'design');
#363=PRODUCT_DEFINITION('2026-08-12-23-07-32-594',
'EXPORT_TMP_PRINT_V010X_P02_HomeSwitchBracket_J2',#364,#362);
#364=PRODUCT_DEFINITION_FORMATION('',$,#369);
#365=PRODUCT_RELATED_PRODUCT_CATEGORY(
'EXPORT_TMP_PRINT_V010X_P02_HomeSwitchBracket_J2',
'EXPORT_TMP_PRINT_V010X_P02_HomeSwitchBracket_J2',(#369));
#366=APPLICATION_PROTOCOL_DEFINITION('international standard',
'automotive_design',2009,#367);
#367=APPLICATION_CONTEXT(
'Core Data for Automotive Mechanical Design Process');
#368=PRODUCT_CONTEXT('part definition',#367,'mechanical');
#369=PRODUCT('2026-08-12-23-07-32-594',
'EXPORT_TMP_PRINT_V010X_P02_HomeSwitchBracket_J2',$,(#368));
#370=PRESENTATION_STYLE_ASSIGNMENT((#371));
#371=SURFACE_STYLE_USAGE(.BOTH.,#372);
#372=SURFACE_SIDE_STYLE('',(#373));
#373=SURFACE_STYLE_FILL_AREA(#374);
#374=FILL_AREA_STYLE('Steel - Satin',(#375));
#375=FILL_AREA_STYLE_COLOUR('Steel - Satin',#376);
#376=COLOUR_RGB('Steel - Satin',0.627450980392157,0.627450980392157,0.627450980392157);
ENDSEC;
END-ISO-10303-21;
