ISO-10303-21;
HEADER;
/* Generated by software containing ST-Developer
 * from STEP Tools, Inc. (www.steptools.com) 
 */

FILE_DESCRIPTION(
/* description */ (''),
/* implementation_level */ '2;1');

FILE_NAME(
/* name */ 'PRINT_V004_P203_J2_FlangedBearingHub.step',
/* time_stamp */ '2026-08-31T20:23:43+02:00',
/* author */ (''),
/* organization */ (''),
/* preprocessor_version */ 'ST-DEVELOPER v20.1',
/* originating_system */ 'Autodesk Translation Framework v15.8.0.0',
/* authorisation */ '');

FILE_SCHEMA (('AUTOMOTIVE_DESIGN { 1 0 10303 214 3 1 1 }'));
ENDSEC;

DATA;
#10=MECHANICAL_DESIGN_GEOMETRIC_PRESENTATION_REPRESENTATION('',(#13),#1384);
#11=SHAPE_REPRESENTATION_RELATIONSHIP('SRR','None',#1391,#12);
#12=ADVANCED_BREP_SHAPE_REPRESENTATION('',(#776),#1383);
#13=STYLED_ITEM('',(#1400),#776);
#14=ORIENTED_CLOSED_SHELL('',*,#775,.F.);
#15=FACE_BOUND('',#211,.T.);
#16=FACE_BOUND('',#212,.T.);
#17=FACE_BOUND('',#213,.T.);
#18=FACE_BOUND('',#214,.T.);
#19=FACE_BOUND('',#215,.T.);
#20=FACE_BOUND('',#216,.T.);
#21=FACE_BOUND('',#217,.T.);
#22=FACE_BOUND('',#218,.T.);
#23=FACE_BOUND('',#221,.T.);
#24=FACE_BOUND('',#224,.T.);
#25=FACE_BOUND('',#236,.T.);
#26=FACE_BOUND('',#237,.T.);
#27=FACE_BOUND('',#238,.T.);
#28=FACE_BOUND('',#239,.T.);
#29=FACE_BOUND('',#240,.T.);
#30=FACE_BOUND('',#241,.T.);
#31=FACE_BOUND('',#243,.T.);
#32=FACE_BOUND('',#244,.T.);
#33=FACE_BOUND('',#245,.T.);
#34=FACE_BOUND('',#246,.T.);
#35=FACE_BOUND('',#247,.T.);
#36=FACE_BOUND('',#248,.T.);
#37=FACE_BOUND('',#252,.T.);
#38=FACE_BOUND('',#254,.T.);
#39=FACE_BOUND('',#257,.T.);
#40=FACE_BOUND('',#261,.T.);
#41=FACE_BOUND('',#262,.T.);
#42=FACE_BOUND('',#263,.T.);
#43=FACE_BOUND('',#264,.T.);
#44=FACE_BOUND('',#265,.T.);
#45=FACE_BOUND('',#266,.T.);
#46=FACE_BOUND('',#269,.T.);
#47=FACE_BOUND('',#270,.T.);
#48=FACE_BOUND('',#271,.T.);
#49=FACE_BOUND('',#272,.T.);
#50=FACE_BOUND('',#273,.T.);
#51=FACE_BOUND('',#274,.T.);
#52=FACE_BOUND('',#278,.T.);
#53=FACE_BOUND('',#292,.T.);
#54=LINE('',#1200,#85);
#55=LINE('',#1223,#86);
#56=LINE('',#1232,#87);
#57=LINE('',#1241,#88);
#58=LINE('',#1247,#89);
#59=LINE('',#1253,#90);
#60=LINE('',#1259,#91);
#61=LINE('',#1265,#92);
#62=LINE('',#1271,#93);
#63=LINE('',#1277,#94);
#64=LINE('',#1283,#95);
#65=LINE('',#1289,#96);
#66=LINE('',#1295,#97);
#67=LINE('',#1312,#98);
#68=LINE('',#1319,#99);
#69=LINE('',#1324,#100);
#70=LINE('',#1327,#101);
#71=LINE('',#1334,#102);
#72=LINE('',#1340,#103);
#73=LINE('',#1343,#104);
#74=LINE('',#1349,#105);
#75=LINE('',#1351,#106);
#76=LINE('',#1353,#107);
#77=LINE('',#1355,#108);
#78=LINE('',#1357,#109);
#79=LINE('',#1359,#110);
#80=LINE('',#1361,#111);
#81=LINE('',#1363,#112);
#82=LINE('',#1365,#113);
#83=LINE('',#1371,#114);
#84=LINE('',#1377,#115);
#85=VECTOR('',#944,18.2);
#86=VECTOR('',#969,17.35);
#87=VECTOR('',#980,23.2);
#88=VECTOR('',#991,2.7);
#89=VECTOR('',#998,2.7);
#90=VECTOR('',#1005,2.7);
#91=VECTOR('',#1012,2.7);
#92=VECTOR('',#1019,2.7);
#93=VECTOR('',#1026,2.7);
#94=VECTOR('',#1033,2.7);
#95=VECTOR('',#1040,2.7);
#96=VECTOR('',#1047,2.7);
#97=VECTOR('',#1054,2.7);
#98=VECTOR('',#1075,7.2);
#99=VECTOR('',#1086,24.);
#100=VECTOR('',#1093,17.4);
#101=VECTOR('',#1096,48.);
#102=VECTOR('',#1105,38.);
#103=VECTOR('',#1114,48.);
#104=VECTOR('',#1117,17.4);
#105=VECTOR('',#1126,7.2);
#106=VECTOR('',#1129,2.15);
#107=VECTOR('',#1132,2.15);
#108=VECTOR('',#1135,2.15);
#109=VECTOR('',#1138,2.15);
#110=VECTOR('',#1141,2.15);
#111=VECTOR('',#1144,2.15);
#112=VECTOR('',#1147,2.15);
#113=VECTOR('',#1150,2.15);
#114=VECTOR('',#1157,7.);
#115=VECTOR('',#1164,7.2);
#116=CYLINDRICAL_SURFACE('',#806,18.2);
#117=CYLINDRICAL_SURFACE('',#818,17.35);
#118=CYLINDRICAL_SURFACE('',#823,23.2);
#119=CYLINDRICAL_SURFACE('',#828,2.7);
#120=CYLINDRICAL_SURFACE('',#831,2.7);
#121=CYLINDRICAL_SURFACE('',#834,2.7);
#122=CYLINDRICAL_SURFACE('',#837,2.7);
#123=CYLINDRICAL_SURFACE('',#840,2.7);
#124=CYLINDRICAL_SURFACE('',#843,2.7);
#125=CYLINDRICAL_SURFACE('',#846,2.7);
#126=CYLINDRICAL_SURFACE('',#849,2.7);
#127=CYLINDRICAL_SURFACE('',#852,2.7);
#128=CYLINDRICAL_SURFACE('',#855,2.7);
#129=CYLINDRICAL_SURFACE('',#866,7.2);
#130=CYLINDRICAL_SURFACE('',#871,24.);
#131=CYLINDRICAL_SURFACE('',#874,17.4);
#132=CYLINDRICAL_SURFACE('',#875,48.);
#133=CYLINDRICAL_SURFACE('',#879,38.);
#134=CYLINDRICAL_SURFACE('',#883,48.);
#135=CYLINDRICAL_SURFACE('',#884,17.4);
#136=CYLINDRICAL_SURFACE('',#888,7.2);
#137=CYLINDRICAL_SURFACE('',#889,2.15);
#138=CYLINDRICAL_SURFACE('',#890,2.15);
#139=CYLINDRICAL_SURFACE('',#891,2.15);
#140=CYLINDRICAL_SURFACE('',#892,2.15);
#141=CYLINDRICAL_SURFACE('',#893,2.15);
#142=CYLINDRICAL_SURFACE('',#894,2.15);
#143=CYLINDRICAL_SURFACE('',#895,2.15);
#144=CYLINDRICAL_SURFACE('',#896,2.15);
#145=CYLINDRICAL_SURFACE('',#899,7.);
#146=CYLINDRICAL_SURFACE('',#901,7.2);
#147=FACE_OUTER_BOUND('',#201,.T.);
#148=FACE_OUTER_BOUND('',#202,.T.);
#149=FACE_OUTER_BOUND('',#203,.T.);
#150=FACE_OUTER_BOUND('',#204,.T.);
#151=FACE_OUTER_BOUND('',#205,.T.);
#152=FACE_OUTER_BOUND('',#206,.T.);
#153=FACE_OUTER_BOUND('',#207,.T.);
#154=FACE_OUTER_BOUND('',#208,.T.);
#155=FACE_OUTER_BOUND('',#209,.T.);
#156=FACE_OUTER_BOUND('',#210,.T.);
#157=FACE_OUTER_BOUND('',#219,.T.);
#158=FACE_OUTER_BOUND('',#220,.T.);
#159=FACE_OUTER_BOUND('',#222,.T.);
#160=FACE_OUTER_BOUND('',#223,.T.);
#161=FACE_OUTER_BOUND('',#225,.T.);
#162=FACE_OUTER_BOUND('',#226,.T.);
#163=FACE_OUTER_BOUND('',#227,.T.);
#164=FACE_OUTER_BOUND('',#228,.T.);
#165=FACE_OUTER_BOUND('',#229,.T.);
#166=FACE_OUTER_BOUND('',#230,.T.);
#167=FACE_OUTER_BOUND('',#231,.T.);
#168=FACE_OUTER_BOUND('',#232,.T.);
#169=FACE_OUTER_BOUND('',#233,.T.);
#170=FACE_OUTER_BOUND('',#234,.T.);
#171=FACE_OUTER_BOUND('',#235,.T.);
#172=FACE_OUTER_BOUND('',#242,.T.);
#173=FACE_OUTER_BOUND('',#249,.T.);
#174=FACE_OUTER_BOUND('',#250,.T.);
#175=FACE_OUTER_BOUND('',#251,.T.);
#176=FACE_OUTER_BOUND('',#253,.T.);
#177=FACE_OUTER_BOUND('',#255,.T.);
#178=FACE_OUTER_BOUND('',#256,.T.);
#179=FACE_OUTER_BOUND('',#258,.T.);
#180=FACE_OUTER_BOUND('',#259,.T.);
#181=FACE_OUTER_BOUND('',#260,.T.);
#182=FACE_OUTER_BOUND('',#267,.T.);
#183=FACE_OUTER_BOUND('',#268,.T.);
#184=FACE_OUTER_BOUND('',#275,.T.);
#185=FACE_OUTER_BOUND('',#276,.T.);
#186=FACE_OUTER_BOUND('',#277,.T.);
#187=FACE_OUTER_BOUND('',#279,.T.);
#188=FACE_OUTER_BOUND('',#280,.T.);
#189=FACE_OUTER_BOUND('',#281,.T.);
#190=FACE_OUTER_BOUND('',#282,.T.);
#191=FACE_OUTER_BOUND('',#283,.T.);
#192=FACE_OUTER_BOUND('',#284,.T.);
#193=FACE_OUTER_BOUND('',#285,.T.);
#194=FACE_OUTER_BOUND('',#286,.T.);
#195=FACE_OUTER_BOUND('',#287,.T.);
#196=FACE_OUTER_BOUND('',#288,.T.);
#197=FACE_OUTER_BOUND('',#289,.T.);
#198=FACE_OUTER_BOUND('',#290,.T.);
#199=FACE_OUTER_BOUND('',#291,.T.);
#200=FACE_OUTER_BOUND('',#293,.T.);
#201=EDGE_LOOP('',(#511));
#202=EDGE_LOOP('',(#512));
#203=EDGE_LOOP('',(#513));
#204=EDGE_LOOP('',(#514));
#205=EDGE_LOOP('',(#515));
#206=EDGE_LOOP('',(#516));
#207=EDGE_LOOP('',(#517));
#208=EDGE_LOOP('',(#518));
#209=EDGE_LOOP('',(#519,#520,#521,#522));
#210=EDGE_LOOP('',(#523));
#211=EDGE_LOOP('',(#524));
#212=EDGE_LOOP('',(#525));
#213=EDGE_LOOP('',(#526));
#214=EDGE_LOOP('',(#527));
#215=EDGE_LOOP('',(#528));
#216=EDGE_LOOP('',(#529));
#217=EDGE_LOOP('',(#530));
#218=EDGE_LOOP('',(#531));
#219=EDGE_LOOP('',(#532,#533,#534,#535));
#220=EDGE_LOOP('',(#536));
#221=EDGE_LOOP('',(#537));
#222=EDGE_LOOP('',(#538,#539,#540,#541));
#223=EDGE_LOOP('',(#542));
#224=EDGE_LOOP('',(#543));
#225=EDGE_LOOP('',(#544,#545,#546,#547));
#226=EDGE_LOOP('',(#548,#549,#550,#551));
#227=EDGE_LOOP('',(#552,#553,#554,#555));
#228=EDGE_LOOP('',(#556,#557,#558,#559));
#229=EDGE_LOOP('',(#560,#561,#562,#563));
#230=EDGE_LOOP('',(#564,#565,#566,#567));
#231=EDGE_LOOP('',(#568,#569,#570,#571));
#232=EDGE_LOOP('',(#572,#573,#574,#575));
#233=EDGE_LOOP('',(#576,#577,#578,#579));
#234=EDGE_LOOP('',(#580,#581,#582,#583));
#235=EDGE_LOOP('',(#584));
#236=EDGE_LOOP('',(#585));
#237=EDGE_LOOP('',(#586));
#238=EDGE_LOOP('',(#587));
#239=EDGE_LOOP('',(#588));
#240=EDGE_LOOP('',(#589));
#241=EDGE_LOOP('',(#590));
#242=EDGE_LOOP('',(#591));
#243=EDGE_LOOP('',(#592));
#244=EDGE_LOOP('',(#593));
#245=EDGE_LOOP('',(#594));
#246=EDGE_LOOP('',(#595));
#247=EDGE_LOOP('',(#596));
#248=EDGE_LOOP('',(#597));
#249=EDGE_LOOP('',(#598));
#250=EDGE_LOOP('',(#599,#600,#601,#602));
#251=EDGE_LOOP('',(#603));
#252=EDGE_LOOP('',(#604));
#253=EDGE_LOOP('',(#605));
#254=EDGE_LOOP('',(#606));
#255=EDGE_LOOP('',(#607,#608,#609,#610));
#256=EDGE_LOOP('',(#611));
#257=EDGE_LOOP('',(#612));
#258=EDGE_LOOP('',(#613,#614,#615,#616));
#259=EDGE_LOOP('',(#617,#618,#619,#620));
#260=EDGE_LOOP('',(#621));
#261=EDGE_LOOP('',(#622));
#262=EDGE_LOOP('',(#623));
#263=EDGE_LOOP('',(#624));
#264=EDGE_LOOP('',(#625));
#265=EDGE_LOOP('',(#626));
#266=EDGE_LOOP('',(#627));
#267=EDGE_LOOP('',(#628,#629,#630,#631));
#268=EDGE_LOOP('',(#632));
#269=EDGE_LOOP('',(#633));
#270=EDGE_LOOP('',(#634));
#271=EDGE_LOOP('',(#635));
#272=EDGE_LOOP('',(#636));
#273=EDGE_LOOP('',(#637));
#274=EDGE_LOOP('',(#638));
#275=EDGE_LOOP('',(#639,#640,#641,#642));
#276=EDGE_LOOP('',(#643,#644,#645,#646));
#277=EDGE_LOOP('',(#647));
#278=EDGE_LOOP('',(#648));
#279=EDGE_LOOP('',(#649,#650,#651,#652));
#280=EDGE_LOOP('',(#653,#654,#655,#656));
#281=EDGE_LOOP('',(#657,#658,#659,#660));
#282=EDGE_LOOP('',(#661,#662,#663,#664));
#283=EDGE_LOOP('',(#665,#666,#667,#668));
#284=EDGE_LOOP('',(#669,#670,#671,#672));
#285=EDGE_LOOP('',(#673,#674,#675,#676));
#286=EDGE_LOOP('',(#677,#678,#679,#680));
#287=EDGE_LOOP('',(#681,#682,#683,#684));
#288=EDGE_LOOP('',(#685));
#289=EDGE_LOOP('',(#686,#687,#688,#689));
#290=EDGE_LOOP('',(#690,#691,#692,#693));
#291=EDGE_LOOP('',(#694));
#292=EDGE_LOOP('',(#695));
#293=EDGE_LOOP('',(#696));
#294=CIRCLE('',#791,2.15);
#295=CIRCLE('',#793,2.15);
#296=CIRCLE('',#795,2.15);
#297=CIRCLE('',#797,2.15);
#298=CIRCLE('',#799,2.15);
#299=CIRCLE('',#801,2.15);
#300=CIRCLE('',#803,2.15);
#301=CIRCLE('',#805,2.15);
#302=CIRCLE('',#807,18.2);
#303=CIRCLE('',#808,18.2);
#304=CIRCLE('',#810,2.15);
#305=CIRCLE('',#811,2.15);
#306=CIRCLE('',#812,2.15);
#307=CIRCLE('',#813,2.15);
#308=CIRCLE('',#814,2.15);
#309=CIRCLE('',#815,2.15);
#310=CIRCLE('',#816,2.15);
#311=CIRCLE('',#817,2.15);
#312=CIRCLE('',#819,17.35);
#313=CIRCLE('',#820,17.35);
#314=CIRCLE('',#822,7.2);
#315=CIRCLE('',#824,23.2);
#316=CIRCLE('',#825,23.2);
#317=CIRCLE('',#827,24.);
#318=CIRCLE('',#829,2.7);
#319=CIRCLE('',#830,2.7);
#320=CIRCLE('',#832,2.7);
#321=CIRCLE('',#833,2.7);
#322=CIRCLE('',#835,2.7);
#323=CIRCLE('',#836,2.7);
#324=CIRCLE('',#838,2.7);
#325=CIRCLE('',#839,2.7);
#326=CIRCLE('',#841,2.7);
#327=CIRCLE('',#842,2.7);
#328=CIRCLE('',#844,2.7);
#329=CIRCLE('',#845,2.7);
#330=CIRCLE('',#847,2.7);
#331=CIRCLE('',#848,2.7);
#332=CIRCLE('',#850,2.7);
#333=CIRCLE('',#851,2.7);
#334=CIRCLE('',#853,2.7);
#335=CIRCLE('',#854,2.7);
#336=CIRCLE('',#856,2.7);
#337=CIRCLE('',#857,2.7);
#338=CIRCLE('',#859,48.);
#339=CIRCLE('',#860,24.);
#340=CIRCLE('',#862,48.);
#341=CIRCLE('',#863,17.4);
#342=CIRCLE('',#865,7.2);
#343=CIRCLE('',#867,7.2);
#344=CIRCLE('',#870,17.4);
#345=CIRCLE('',#873,17.4);
#346=CIRCLE('',#876,48.);
#347=CIRCLE('',#878,38.);
#348=CIRCLE('',#880,38.);
#349=CIRCLE('',#882,48.);
#350=CIRCLE('',#885,17.4);
#351=CIRCLE('',#887,7.2);
#352=CIRCLE('',#898,7.);
#353=CIRCLE('',#900,7.);
#354=CIRCLE('',#902,7.2);
#355=CIRCLE('',#903,7.2);
#356=VERTEX_POINT('',#1173);
#357=VERTEX_POINT('',#1176);
#358=VERTEX_POINT('',#1179);
#359=VERTEX_POINT('',#1182);
#360=VERTEX_POINT('',#1185);
#361=VERTEX_POINT('',#1188);
#362=VERTEX_POINT('',#1191);
#363=VERTEX_POINT('',#1194);
#364=VERTEX_POINT('',#1197);
#365=VERTEX_POINT('',#1199);
#366=VERTEX_POINT('',#1203);
#367=VERTEX_POINT('',#1205);
#368=VERTEX_POINT('',#1207);
#369=VERTEX_POINT('',#1209);
#370=VERTEX_POINT('',#1211);
#371=VERTEX_POINT('',#1213);
#372=VERTEX_POINT('',#1215);
#373=VERTEX_POINT('',#1217);
#374=VERTEX_POINT('',#1220);
#375=VERTEX_POINT('',#1222);
#376=VERTEX_POINT('',#1226);
#377=VERTEX_POINT('',#1229);
#378=VERTEX_POINT('',#1231);
#379=VERTEX_POINT('',#1235);
#380=VERTEX_POINT('',#1238);
#381=VERTEX_POINT('',#1240);
#382=VERTEX_POINT('',#1244);
#383=VERTEX_POINT('',#1246);
#384=VERTEX_POINT('',#1250);
#385=VERTEX_POINT('',#1252);
#386=VERTEX_POINT('',#1256);
#387=VERTEX_POINT('',#1258);
#388=VERTEX_POINT('',#1262);
#389=VERTEX_POINT('',#1264);
#390=VERTEX_POINT('',#1268);
#391=VERTEX_POINT('',#1270);
#392=VERTEX_POINT('',#1274);
#393=VERTEX_POINT('',#1276);
#394=VERTEX_POINT('',#1280);
#395=VERTEX_POINT('',#1282);
#396=VERTEX_POINT('',#1286);
#397=VERTEX_POINT('',#1288);
#398=VERTEX_POINT('',#1292);
#399=VERTEX_POINT('',#1294);
#400=VERTEX_POINT('',#1298);
#401=VERTEX_POINT('',#1300);
#402=VERTEX_POINT('',#1303);
#403=VERTEX_POINT('',#1305);
#404=VERTEX_POINT('',#1308);
#405=VERTEX_POINT('',#1311);
#406=VERTEX_POINT('',#1316);
#407=VERTEX_POINT('',#1321);
#408=VERTEX_POINT('',#1326);
#409=VERTEX_POINT('',#1330);
#410=VERTEX_POINT('',#1333);
#411=VERTEX_POINT('',#1337);
#412=VERTEX_POINT('',#1342);
#413=VERTEX_POINT('',#1346);
#414=VERTEX_POINT('',#1367);
#415=VERTEX_POINT('',#1370);
#416=VERTEX_POINT('',#1374);
#417=VERTEX_POINT('',#1376);
#418=EDGE_CURVE('',#356,#356,#294,.T.);
#419=EDGE_CURVE('',#357,#357,#295,.T.);
#420=EDGE_CURVE('',#358,#358,#296,.T.);
#421=EDGE_CURVE('',#359,#359,#297,.T.);
#422=EDGE_CURVE('',#360,#360,#298,.T.);
#423=EDGE_CURVE('',#361,#361,#299,.T.);
#424=EDGE_CURVE('',#362,#362,#300,.T.);
#425=EDGE_CURVE('',#363,#363,#301,.T.);
#426=EDGE_CURVE('',#364,#364,#302,.T.);
#427=EDGE_CURVE('',#364,#365,#54,.T.);
#428=EDGE_CURVE('',#365,#365,#303,.T.);
#429=EDGE_CURVE('',#366,#366,#304,.T.);
#430=EDGE_CURVE('',#367,#367,#305,.T.);
#431=EDGE_CURVE('',#368,#368,#306,.T.);
#432=EDGE_CURVE('',#369,#369,#307,.T.);
#433=EDGE_CURVE('',#370,#370,#308,.T.);
#434=EDGE_CURVE('',#371,#371,#309,.T.);
#435=EDGE_CURVE('',#372,#372,#310,.T.);
#436=EDGE_CURVE('',#373,#373,#311,.T.);
#437=EDGE_CURVE('',#374,#374,#312,.T.);
#438=EDGE_CURVE('',#374,#375,#55,.T.);
#439=EDGE_CURVE('',#375,#375,#313,.T.);
#440=EDGE_CURVE('',#376,#376,#314,.T.);
#441=EDGE_CURVE('',#377,#377,#315,.T.);
#442=EDGE_CURVE('',#377,#378,#56,.T.);
#443=EDGE_CURVE('',#378,#378,#316,.T.);
#444=EDGE_CURVE('',#379,#379,#317,.T.);
#445=EDGE_CURVE('',#380,#380,#318,.T.);
#446=EDGE_CURVE('',#380,#381,#57,.T.);
#447=EDGE_CURVE('',#381,#381,#319,.T.);
#448=EDGE_CURVE('',#382,#382,#320,.T.);
#449=EDGE_CURVE('',#382,#383,#58,.T.);
#450=EDGE_CURVE('',#383,#383,#321,.T.);
#451=EDGE_CURVE('',#384,#384,#322,.T.);
#452=EDGE_CURVE('',#384,#385,#59,.T.);
#453=EDGE_CURVE('',#385,#385,#323,.T.);
#454=EDGE_CURVE('',#386,#386,#324,.T.);
#455=EDGE_CURVE('',#386,#387,#60,.T.);
#456=EDGE_CURVE('',#387,#387,#325,.T.);
#457=EDGE_CURVE('',#388,#388,#326,.T.);
#458=EDGE_CURVE('',#388,#389,#61,.T.);
#459=EDGE_CURVE('',#389,#389,#327,.T.);
#460=EDGE_CURVE('',#390,#390,#328,.T.);
#461=EDGE_CURVE('',#390,#391,#62,.T.);
#462=EDGE_CURVE('',#391,#391,#329,.T.);
#463=EDGE_CURVE('',#392,#392,#330,.T.);
#464=EDGE_CURVE('',#392,#393,#63,.T.);
#465=EDGE_CURVE('',#393,#393,#331,.T.);
#466=EDGE_CURVE('',#394,#394,#332,.T.);
#467=EDGE_CURVE('',#394,#395,#64,.T.);
#468=EDGE_CURVE('',#395,#395,#333,.T.);
#469=EDGE_CURVE('',#396,#396,#334,.T.);
#470=EDGE_CURVE('',#396,#397,#65,.T.);
#471=EDGE_CURVE('',#397,#397,#335,.T.);
#472=EDGE_CURVE('',#398,#398,#336,.T.);
#473=EDGE_CURVE('',#398,#399,#66,.T.);
#474=EDGE_CURVE('',#399,#399,#337,.T.);
#475=EDGE_CURVE('',#400,#400,#338,.T.);
#476=EDGE_CURVE('',#401,#401,#339,.T.);
#477=EDGE_CURVE('',#402,#402,#340,.T.);
#478=EDGE_CURVE('',#403,#403,#341,.T.);
#479=EDGE_CURVE('',#404,#404,#342,.T.);
#480=EDGE_CURVE('',#404,#405,#67,.T.);
#481=EDGE_CURVE('',#405,#405,#343,.T.);
#482=EDGE_CURVE('',#406,#406,#344,.T.);
#483=EDGE_CURVE('',#401,#379,#68,.T.);
#484=EDGE_CURVE('',#407,#407,#345,.T.);
#485=EDGE_CURVE('',#407,#403,#69,.T.);
#486=EDGE_CURVE('',#402,#408,#70,.T.);
#487=EDGE_CURVE('',#408,#408,#346,.T.);
#488=EDGE_CURVE('',#409,#409,#347,.T.);
#489=EDGE_CURVE('',#409,#410,#71,.T.);
#490=EDGE_CURVE('',#410,#410,#348,.T.);
#491=EDGE_CURVE('',#411,#411,#349,.T.);
#492=EDGE_CURVE('',#411,#400,#72,.T.);
#493=EDGE_CURVE('',#406,#412,#73,.T.);
#494=EDGE_CURVE('',#412,#412,#350,.T.);
#495=EDGE_CURVE('',#413,#413,#351,.T.);
#496=EDGE_CURVE('',#413,#376,#74,.T.);
#497=EDGE_CURVE('',#370,#359,#75,.T.);
#498=EDGE_CURVE('',#369,#360,#76,.T.);
#499=EDGE_CURVE('',#371,#358,#77,.T.);
#500=EDGE_CURVE('',#368,#361,#78,.T.);
#501=EDGE_CURVE('',#372,#357,#79,.T.);
#502=EDGE_CURVE('',#367,#362,#80,.T.);
#503=EDGE_CURVE('',#373,#356,#81,.T.);
#504=EDGE_CURVE('',#366,#363,#82,.T.);
#505=EDGE_CURVE('',#414,#414,#352,.T.);
#506=EDGE_CURVE('',#414,#415,#83,.T.);
#507=EDGE_CURVE('',#415,#415,#353,.T.);
#508=EDGE_CURVE('',#416,#416,#354,.T.);
#509=EDGE_CURVE('',#416,#417,#84,.T.);
#510=EDGE_CURVE('',#417,#417,#355,.T.);
#511=ORIENTED_EDGE('',*,*,#418,.F.);
#512=ORIENTED_EDGE('',*,*,#419,.F.);
#513=ORIENTED_EDGE('',*,*,#420,.F.);
#514=ORIENTED_EDGE('',*,*,#421,.F.);
#515=ORIENTED_EDGE('',*,*,#422,.F.);
#516=ORIENTED_EDGE('',*,*,#423,.F.);
#517=ORIENTED_EDGE('',*,*,#424,.F.);
#518=ORIENTED_EDGE('',*,*,#425,.F.);
#519=ORIENTED_EDGE('',*,*,#426,.T.);
#520=ORIENTED_EDGE('',*,*,#427,.T.);
#521=ORIENTED_EDGE('',*,*,#428,.T.);
#522=ORIENTED_EDGE('',*,*,#427,.F.);
#523=ORIENTED_EDGE('',*,*,#428,.F.);
#524=ORIENTED_EDGE('',*,*,#429,.T.);
#525=ORIENTED_EDGE('',*,*,#430,.T.);
#526=ORIENTED_EDGE('',*,*,#431,.T.);
#527=ORIENTED_EDGE('',*,*,#432,.T.);
#528=ORIENTED_EDGE('',*,*,#433,.T.);
#529=ORIENTED_EDGE('',*,*,#434,.T.);
#530=ORIENTED_EDGE('',*,*,#435,.T.);
#531=ORIENTED_EDGE('',*,*,#436,.T.);
#532=ORIENTED_EDGE('',*,*,#437,.T.);
#533=ORIENTED_EDGE('',*,*,#438,.T.);
#534=ORIENTED_EDGE('',*,*,#439,.F.);
#535=ORIENTED_EDGE('',*,*,#438,.F.);
#536=ORIENTED_EDGE('',*,*,#437,.F.);
#537=ORIENTED_EDGE('',*,*,#440,.F.);
#538=ORIENTED_EDGE('',*,*,#441,.T.);
#539=ORIENTED_EDGE('',*,*,#442,.T.);
#540=ORIENTED_EDGE('',*,*,#443,.F.);
#541=ORIENTED_EDGE('',*,*,#442,.F.);
#542=ORIENTED_EDGE('',*,*,#444,.F.);
#543=ORIENTED_EDGE('',*,*,#441,.F.);
#544=ORIENTED_EDGE('',*,*,#445,.F.);
#545=ORIENTED_EDGE('',*,*,#446,.T.);
#546=ORIENTED_EDGE('',*,*,#447,.F.);
#547=ORIENTED_EDGE('',*,*,#446,.F.);
#548=ORIENTED_EDGE('',*,*,#448,.F.);
#549=ORIENTED_EDGE('',*,*,#449,.T.);
#550=ORIENTED_EDGE('',*,*,#450,.F.);
#551=ORIENTED_EDGE('',*,*,#449,.F.);
#552=ORIENTED_EDGE('',*,*,#451,.F.);
#553=ORIENTED_EDGE('',*,*,#452,.T.);
#554=ORIENTED_EDGE('',*,*,#453,.F.);
#555=ORIENTED_EDGE('',*,*,#452,.F.);
#556=ORIENTED_EDGE('',*,*,#454,.F.);
#557=ORIENTED_EDGE('',*,*,#455,.T.);
#558=ORIENTED_EDGE('',*,*,#456,.F.);
#559=ORIENTED_EDGE('',*,*,#455,.F.);
#560=ORIENTED_EDGE('',*,*,#457,.F.);
#561=ORIENTED_EDGE('',*,*,#458,.T.);
#562=ORIENTED_EDGE('',*,*,#459,.F.);
#563=ORIENTED_EDGE('',*,*,#458,.F.);
#564=ORIENTED_EDGE('',*,*,#460,.F.);
#565=ORIENTED_EDGE('',*,*,#461,.T.);
#566=ORIENTED_EDGE('',*,*,#462,.F.);
#567=ORIENTED_EDGE('',*,*,#461,.F.);
#568=ORIENTED_EDGE('',*,*,#463,.F.);
#569=ORIENTED_EDGE('',*,*,#464,.T.);
#570=ORIENTED_EDGE('',*,*,#465,.F.);
#571=ORIENTED_EDGE('',*,*,#464,.F.);
#572=ORIENTED_EDGE('',*,*,#466,.F.);
#573=ORIENTED_EDGE('',*,*,#467,.T.);
#574=ORIENTED_EDGE('',*,*,#468,.F.);
#575=ORIENTED_EDGE('',*,*,#467,.F.);
#576=ORIENTED_EDGE('',*,*,#469,.F.);
#577=ORIENTED_EDGE('',*,*,#470,.T.);
#578=ORIENTED_EDGE('',*,*,#471,.F.);
#579=ORIENTED_EDGE('',*,*,#470,.F.);
#580=ORIENTED_EDGE('',*,*,#472,.F.);
#581=ORIENTED_EDGE('',*,*,#473,.T.);
#582=ORIENTED_EDGE('',*,*,#474,.F.);
#583=ORIENTED_EDGE('',*,*,#473,.F.);
#584=ORIENTED_EDGE('',*,*,#475,.T.);
#585=ORIENTED_EDGE('',*,*,#451,.T.);
#586=ORIENTED_EDGE('',*,*,#454,.T.);
#587=ORIENTED_EDGE('',*,*,#457,.T.);
#588=ORIENTED_EDGE('',*,*,#460,.T.);
#589=ORIENTED_EDGE('',*,*,#463,.T.);
#590=ORIENTED_EDGE('',*,*,#476,.F.);
#591=ORIENTED_EDGE('',*,*,#477,.T.);
#592=ORIENTED_EDGE('',*,*,#447,.T.);
#593=ORIENTED_EDGE('',*,*,#450,.T.);
#594=ORIENTED_EDGE('',*,*,#468,.T.);
#595=ORIENTED_EDGE('',*,*,#471,.T.);
#596=ORIENTED_EDGE('',*,*,#474,.T.);
#597=ORIENTED_EDGE('',*,*,#478,.F.);
#598=ORIENTED_EDGE('',*,*,#479,.F.);
#599=ORIENTED_EDGE('',*,*,#479,.T.);
#600=ORIENTED_EDGE('',*,*,#480,.T.);
#601=ORIENTED_EDGE('',*,*,#481,.F.);
#602=ORIENTED_EDGE('',*,*,#480,.F.);
#603=ORIENTED_EDGE('',*,*,#426,.F.);
#604=ORIENTED_EDGE('',*,*,#439,.T.);
#605=ORIENTED_EDGE('',*,*,#443,.T.);
#606=ORIENTED_EDGE('',*,*,#482,.F.);
#607=ORIENTED_EDGE('',*,*,#476,.T.);
#608=ORIENTED_EDGE('',*,*,#483,.T.);
#609=ORIENTED_EDGE('',*,*,#444,.T.);
#610=ORIENTED_EDGE('',*,*,#483,.F.);
#611=ORIENTED_EDGE('',*,*,#484,.T.);
#612=ORIENTED_EDGE('',*,*,#481,.T.);
#613=ORIENTED_EDGE('',*,*,#484,.F.);
#614=ORIENTED_EDGE('',*,*,#485,.T.);
#615=ORIENTED_EDGE('',*,*,#478,.T.);
#616=ORIENTED_EDGE('',*,*,#485,.F.);
#617=ORIENTED_EDGE('',*,*,#477,.F.);
#618=ORIENTED_EDGE('',*,*,#486,.T.);
#619=ORIENTED_EDGE('',*,*,#487,.F.);
#620=ORIENTED_EDGE('',*,*,#486,.F.);
#621=ORIENTED_EDGE('',*,*,#487,.T.);
#622=ORIENTED_EDGE('',*,*,#445,.T.);
#623=ORIENTED_EDGE('',*,*,#448,.T.);
#624=ORIENTED_EDGE('',*,*,#466,.T.);
#625=ORIENTED_EDGE('',*,*,#469,.T.);
#626=ORIENTED_EDGE('',*,*,#472,.T.);
#627=ORIENTED_EDGE('',*,*,#488,.T.);
#628=ORIENTED_EDGE('',*,*,#488,.F.);
#629=ORIENTED_EDGE('',*,*,#489,.T.);
#630=ORIENTED_EDGE('',*,*,#490,.F.);
#631=ORIENTED_EDGE('',*,*,#489,.F.);
#632=ORIENTED_EDGE('',*,*,#491,.T.);
#633=ORIENTED_EDGE('',*,*,#453,.T.);
#634=ORIENTED_EDGE('',*,*,#456,.T.);
#635=ORIENTED_EDGE('',*,*,#459,.T.);
#636=ORIENTED_EDGE('',*,*,#462,.T.);
#637=ORIENTED_EDGE('',*,*,#465,.T.);
#638=ORIENTED_EDGE('',*,*,#490,.T.);
#639=ORIENTED_EDGE('',*,*,#491,.F.);
#640=ORIENTED_EDGE('',*,*,#492,.T.);
#641=ORIENTED_EDGE('',*,*,#475,.F.);
#642=ORIENTED_EDGE('',*,*,#492,.F.);
#643=ORIENTED_EDGE('',*,*,#482,.T.);
#644=ORIENTED_EDGE('',*,*,#493,.T.);
#645=ORIENTED_EDGE('',*,*,#494,.F.);
#646=ORIENTED_EDGE('',*,*,#493,.F.);
#647=ORIENTED_EDGE('',*,*,#494,.T.);
#648=ORIENTED_EDGE('',*,*,#495,.T.);
#649=ORIENTED_EDGE('',*,*,#495,.F.);
#650=ORIENTED_EDGE('',*,*,#496,.T.);
#651=ORIENTED_EDGE('',*,*,#440,.T.);
#652=ORIENTED_EDGE('',*,*,#496,.F.);
#653=ORIENTED_EDGE('',*,*,#433,.F.);
#654=ORIENTED_EDGE('',*,*,#497,.T.);
#655=ORIENTED_EDGE('',*,*,#421,.T.);
#656=ORIENTED_EDGE('',*,*,#497,.F.);
#657=ORIENTED_EDGE('',*,*,#432,.F.);
#658=ORIENTED_EDGE('',*,*,#498,.T.);
#659=ORIENTED_EDGE('',*,*,#422,.T.);
#660=ORIENTED_EDGE('',*,*,#498,.F.);
#661=ORIENTED_EDGE('',*,*,#434,.F.);
#662=ORIENTED_EDGE('',*,*,#499,.T.);
#663=ORIENTED_EDGE('',*,*,#420,.T.);
#664=ORIENTED_EDGE('',*,*,#499,.F.);
#665=ORIENTED_EDGE('',*,*,#431,.F.);
#666=ORIENTED_EDGE('',*,*,#500,.T.);
#667=ORIENTED_EDGE('',*,*,#423,.T.);
#668=ORIENTED_EDGE('',*,*,#500,.F.);
#669=ORIENTED_EDGE('',*,*,#435,.F.);
#670=ORIENTED_EDGE('',*,*,#501,.T.);
#671=ORIENTED_EDGE('',*,*,#419,.T.);
#672=ORIENTED_EDGE('',*,*,#501,.F.);
#673=ORIENTED_EDGE('',*,*,#430,.F.);
#674=ORIENTED_EDGE('',*,*,#502,.T.);
#675=ORIENTED_EDGE('',*,*,#424,.T.);
#676=ORIENTED_EDGE('',*,*,#502,.F.);
#677=ORIENTED_EDGE('',*,*,#436,.F.);
#678=ORIENTED_EDGE('',*,*,#503,.T.);
#679=ORIENTED_EDGE('',*,*,#418,.T.);
#680=ORIENTED_EDGE('',*,*,#503,.F.);
#681=ORIENTED_EDGE('',*,*,#429,.F.);
#682=ORIENTED_EDGE('',*,*,#504,.T.);
#683=ORIENTED_EDGE('',*,*,#425,.T.);
#684=ORIENTED_EDGE('',*,*,#504,.F.);
#685=ORIENTED_EDGE('',*,*,#505,.T.);
#686=ORIENTED_EDGE('',*,*,#505,.F.);
#687=ORIENTED_EDGE('',*,*,#506,.T.);
#688=ORIENTED_EDGE('',*,*,#507,.T.);
#689=ORIENTED_EDGE('',*,*,#506,.F.);
#690=ORIENTED_EDGE('',*,*,#508,.F.);
#691=ORIENTED_EDGE('',*,*,#509,.T.);
#692=ORIENTED_EDGE('',*,*,#510,.T.);
#693=ORIENTED_EDGE('',*,*,#509,.F.);
#694=ORIENTED_EDGE('',*,*,#508,.T.);
#695=ORIENTED_EDGE('',*,*,#507,.F.);
#696=ORIENTED_EDGE('',*,*,#510,.F.);
#697=PLANE('',#790);
#698=PLANE('',#792);
#699=PLANE('',#794);
#700=PLANE('',#796);
#701=PLANE('',#798);
#702=PLANE('',#800);
#703=PLANE('',#802);
#704=PLANE('',#804);
#705=PLANE('',#809);
#706=PLANE('',#821);
#707=PLANE('',#826);
#708=PLANE('',#858);
#709=PLANE('',#861);
#710=PLANE('',#864);
#711=PLANE('',#868);
#712=PLANE('',#869);
#713=PLANE('',#872);
#714=PLANE('',#877);
#715=PLANE('',#881);
#716=PLANE('',#886);
#717=PLANE('',#897);
#718=PLANE('',#904);
#719=PLANE('',#905);
#720=ADVANCED_FACE('',(#147),#697,.F.);
#721=ADVANCED_FACE('',(#148),#698,.F.);
#722=ADVANCED_FACE('',(#149),#699,.F.);
#723=ADVANCED_FACE('',(#150),#700,.F.);
#724=ADVANCED_FACE('',(#151),#701,.F.);
#725=ADVANCED_FACE('',(#152),#702,.F.);
#726=ADVANCED_FACE('',(#153),#703,.F.);
#727=ADVANCED_FACE('',(#154),#704,.F.);
#728=ADVANCED_FACE('',(#155),#116,.F.);
#729=ADVANCED_FACE('',(#156,#15,#16,#17,#18,#19,#20,#21,#22),#705,.F.);
#730=ADVANCED_FACE('',(#157),#117,.F.);
#731=ADVANCED_FACE('',(#158,#23),#706,.F.);
#732=ADVANCED_FACE('',(#159),#118,.T.);
#733=ADVANCED_FACE('',(#160,#24),#707,.F.);
#734=ADVANCED_FACE('',(#161),#119,.F.);
#735=ADVANCED_FACE('',(#162),#120,.F.);
#736=ADVANCED_FACE('',(#163),#121,.F.);
#737=ADVANCED_FACE('',(#164),#122,.F.);
#738=ADVANCED_FACE('',(#165),#123,.F.);
#739=ADVANCED_FACE('',(#166),#124,.F.);
#740=ADVANCED_FACE('',(#167),#125,.F.);
#741=ADVANCED_FACE('',(#168),#126,.F.);
#742=ADVANCED_FACE('',(#169),#127,.F.);
#743=ADVANCED_FACE('',(#170),#128,.F.);
#744=ADVANCED_FACE('',(#171,#25,#26,#27,#28,#29,#30),#708,.T.);
#745=ADVANCED_FACE('',(#172,#31,#32,#33,#34,#35,#36),#709,.T.);
#746=ADVANCED_FACE('',(#173),#710,.T.);
#747=ADVANCED_FACE('',(#174),#129,.F.);
#748=ADVANCED_FACE('',(#175,#37),#711,.F.);
#749=ADVANCED_FACE('',(#176,#38),#712,.T.);
#750=ADVANCED_FACE('',(#177),#130,.T.);
#751=ADVANCED_FACE('',(#178,#39),#713,.T.);
#752=ADVANCED_FACE('',(#179),#131,.T.);
#753=ADVANCED_FACE('',(#180),#132,.T.);
#754=ADVANCED_FACE('',(#181,#40,#41,#42,#43,#44,#45),#714,.T.);
#755=ADVANCED_FACE('',(#182),#133,.T.);
#756=ADVANCED_FACE('',(#183,#46,#47,#48,#49,#50,#51),#715,.T.);
#757=ADVANCED_FACE('',(#184),#134,.T.);
#758=ADVANCED_FACE('',(#185),#135,.T.);
#759=ADVANCED_FACE('',(#186,#52),#716,.T.);
#760=ADVANCED_FACE('',(#187),#136,.F.);
#761=ADVANCED_FACE('',(#188),#137,.F.);
#762=ADVANCED_FACE('',(#189),#138,.F.);
#763=ADVANCED_FACE('',(#190),#139,.F.);
#764=ADVANCED_FACE('',(#191),#140,.F.);
#765=ADVANCED_FACE('',(#192),#141,.F.);
#766=ADVANCED_FACE('',(#193),#142,.F.);
#767=ADVANCED_FACE('',(#194),#143,.F.);
#768=ADVANCED_FACE('',(#195),#144,.F.);
#769=ADVANCED_FACE('',(#196),#717,.T.);
#770=ADVANCED_FACE('',(#197),#145,.T.);
#771=ADVANCED_FACE('',(#198),#146,.F.);
#772=ADVANCED_FACE('',(#199,#53),#718,.T.);
#773=ADVANCED_FACE('',(#200),#719,.T.);
#774=CLOSED_SHELL('',(#720,#721,#722,#723,#724,#725,#726,#727,#728,#729,
#730,#731,#732,#733,#734,#735,#736,#737,#738,#739,#740,#741,#742,#743,#744,
#745,#746,#747,#748,#749,#750,#751,#752,#753,#754,#755,#756,#757,#758,#759,
#760,#761,#762,#763,#764,#765,#766,#767,#768));
#775=CLOSED_SHELL('',(#769,#770,#771,#772,#773));
#776=BREP_WITH_VOIDS('Body1',#774,(#14));
#777=DERIVED_UNIT_ELEMENT(#779,1.);
#778=DERIVED_UNIT_ELEMENT(#1386,-3.);
#779=(
MASS_UNIT()
NAMED_UNIT(*)
SI_UNIT(.KILO.,.GRAM.)
);
#780=DERIVED_UNIT((#777,#778));
#781=MEASURE_REPRESENTATION_ITEM('density measure',
POSITIVE_RATIO_MEASURE(7850.),#780);
#782=PROPERTY_DEFINITION_REPRESENTATION(#787,#784);
#783=PROPERTY_DEFINITION_REPRESENTATION(#788,#785);
#784=REPRESENTATION('material name',(#786),#1383);
#785=REPRESENTATION('density',(#781),#1383);
#786=DESCRIPTIVE_REPRESENTATION_ITEM('Steel','Steel');
#787=PROPERTY_DEFINITION('material property','material name',#1393);
#788=PROPERTY_DEFINITION('material property','density of part',#1393);
#789=AXIS2_PLACEMENT_3D('',#1171,#906,#907);
#790=AXIS2_PLACEMENT_3D('',#1172,#908,#909);
#791=AXIS2_PLACEMENT_3D('',#1174,#910,#911);
#792=AXIS2_PLACEMENT_3D('',#1175,#912,#913);
#793=AXIS2_PLACEMENT_3D('',#1177,#914,#915);
#794=AXIS2_PLACEMENT_3D('',#1178,#916,#917);
#795=AXIS2_PLACEMENT_3D('',#1180,#918,#919);
#796=AXIS2_PLACEMENT_3D('',#1181,#920,#921);
#797=AXIS2_PLACEMENT_3D('',#1183,#922,#923);
#798=AXIS2_PLACEMENT_3D('',#1184,#924,#925);
#799=AXIS2_PLACEMENT_3D('',#1186,#926,#927);
#800=AXIS2_PLACEMENT_3D('',#1187,#928,#929);
#801=AXIS2_PLACEMENT_3D('',#1189,#930,#931);
#802=AXIS2_PLACEMENT_3D('',#1190,#932,#933);
#803=AXIS2_PLACEMENT_3D('',#1192,#934,#935);
#804=AXIS2_PLACEMENT_3D('',#1193,#936,#937);
#805=AXIS2_PLACEMENT_3D('',#1195,#938,#939);
#806=AXIS2_PLACEMENT_3D('',#1196,#940,#941);
#807=AXIS2_PLACEMENT_3D('',#1198,#942,#943);
#808=AXIS2_PLACEMENT_3D('',#1201,#945,#946);
#809=AXIS2_PLACEMENT_3D('',#1202,#947,#948);
#810=AXIS2_PLACEMENT_3D('',#1204,#949,#950);
#811=AXIS2_PLACEMENT_3D('',#1206,#951,#952);
#812=AXIS2_PLACEMENT_3D('',#1208,#953,#954);
#813=AXIS2_PLACEMENT_3D('',#1210,#955,#956);
#814=AXIS2_PLACEMENT_3D('',#1212,#957,#958);
#815=AXIS2_PLACEMENT_3D('',#1214,#959,#960);
#816=AXIS2_PLACEMENT_3D('',#1216,#961,#962);
#817=AXIS2_PLACEMENT_3D('',#1218,#963,#964);
#818=AXIS2_PLACEMENT_3D('',#1219,#965,#966);
#819=AXIS2_PLACEMENT_3D('',#1221,#967,#968);
#820=AXIS2_PLACEMENT_3D('',#1224,#970,#971);
#821=AXIS2_PLACEMENT_3D('',#1225,#972,#973);
#822=AXIS2_PLACEMENT_3D('',#1227,#974,#975);
#823=AXIS2_PLACEMENT_3D('',#1228,#976,#977);
#824=AXIS2_PLACEMENT_3D('',#1230,#978,#979);
#825=AXIS2_PLACEMENT_3D('',#1233,#981,#982);
#826=AXIS2_PLACEMENT_3D('',#1234,#983,#984);
#827=AXIS2_PLACEMENT_3D('',#1236,#985,#986);
#828=AXIS2_PLACEMENT_3D('',#1237,#987,#988);
#829=AXIS2_PLACEMENT_3D('',#1239,#989,#990);
#830=AXIS2_PLACEMENT_3D('',#1242,#992,#993);
#831=AXIS2_PLACEMENT_3D('',#1243,#994,#995);
#832=AXIS2_PLACEMENT_3D('',#1245,#996,#997);
#833=AXIS2_PLACEMENT_3D('',#1248,#999,#1000);
#834=AXIS2_PLACEMENT_3D('',#1249,#1001,#1002);
#835=AXIS2_PLACEMENT_3D('',#1251,#1003,#1004);
#836=AXIS2_PLACEMENT_3D('',#1254,#1006,#1007);
#837=AXIS2_PLACEMENT_3D('',#1255,#1008,#1009);
#838=AXIS2_PLACEMENT_3D('',#1257,#1010,#1011);
#839=AXIS2_PLACEMENT_3D('',#1260,#1013,#1014);
#840=AXIS2_PLACEMENT_3D('',#1261,#1015,#1016);
#841=AXIS2_PLACEMENT_3D('',#1263,#1017,#1018);
#842=AXIS2_PLACEMENT_3D('',#1266,#1020,#1021);
#843=AXIS2_PLACEMENT_3D('',#1267,#1022,#1023);
#844=AXIS2_PLACEMENT_3D('',#1269,#1024,#1025);
#845=AXIS2_PLACEMENT_3D('',#1272,#1027,#1028);
#846=AXIS2_PLACEMENT_3D('',#1273,#1029,#1030);
#847=AXIS2_PLACEMENT_3D('',#1275,#1031,#1032);
#848=AXIS2_PLACEMENT_3D('',#1278,#1034,#1035);
#849=AXIS2_PLACEMENT_3D('',#1279,#1036,#1037);
#850=AXIS2_PLACEMENT_3D('',#1281,#1038,#1039);
#851=AXIS2_PLACEMENT_3D('',#1284,#1041,#1042);
#852=AXIS2_PLACEMENT_3D('',#1285,#1043,#1044);
#853=AXIS2_PLACEMENT_3D('',#1287,#1045,#1046);
#854=AXIS2_PLACEMENT_3D('',#1290,#1048,#1049);
#855=AXIS2_PLACEMENT_3D('',#1291,#1050,#1051);
#856=AXIS2_PLACEMENT_3D('',#1293,#1052,#1053);
#857=AXIS2_PLACEMENT_3D('',#1296,#1055,#1056);
#858=AXIS2_PLACEMENT_3D('',#1297,#1057,#1058);
#859=AXIS2_PLACEMENT_3D('',#1299,#1059,#1060);
#860=AXIS2_PLACEMENT_3D('',#1301,#1061,#1062);
#861=AXIS2_PLACEMENT_3D('',#1302,#1063,#1064);
#862=AXIS2_PLACEMENT_3D('',#1304,#1065,#1066);
#863=AXIS2_PLACEMENT_3D('',#1306,#1067,#1068);
#864=AXIS2_PLACEMENT_3D('',#1307,#1069,#1070);
#865=AXIS2_PLACEMENT_3D('',#1309,#1071,#1072);
#866=AXIS2_PLACEMENT_3D('',#1310,#1073,#1074);
#867=AXIS2_PLACEMENT_3D('',#1313,#1076,#1077);
#868=AXIS2_PLACEMENT_3D('',#1314,#1078,#1079);
#869=AXIS2_PLACEMENT_3D('',#1315,#1080,#1081);
#870=AXIS2_PLACEMENT_3D('',#1317,#1082,#1083);
#871=AXIS2_PLACEMENT_3D('',#1318,#1084,#1085);
#872=AXIS2_PLACEMENT_3D('',#1320,#1087,#1088);
#873=AXIS2_PLACEMENT_3D('',#1322,#1089,#1090);
#874=AXIS2_PLACEMENT_3D('',#1323,#1091,#1092);
#875=AXIS2_PLACEMENT_3D('',#1325,#1094,#1095);
#876=AXIS2_PLACEMENT_3D('',#1328,#1097,#1098);
#877=AXIS2_PLACEMENT_3D('',#1329,#1099,#1100);
#878=AXIS2_PLACEMENT_3D('',#1331,#1101,#1102);
#879=AXIS2_PLACEMENT_3D('',#1332,#1103,#1104);
#880=AXIS2_PLACEMENT_3D('',#1335,#1106,#1107);
#881=AXIS2_PLACEMENT_3D('',#1336,#1108,#1109);
#882=AXIS2_PLACEMENT_3D('',#1338,#1110,#1111);
#883=AXIS2_PLACEMENT_3D('',#1339,#1112,#1113);
#884=AXIS2_PLACEMENT_3D('',#1341,#1115,#1116);
#885=AXIS2_PLACEMENT_3D('',#1344,#1118,#1119);
#886=AXIS2_PLACEMENT_3D('',#1345,#1120,#1121);
#887=AXIS2_PLACEMENT_3D('',#1347,#1122,#1123);
#888=AXIS2_PLACEMENT_3D('',#1348,#1124,#1125);
#889=AXIS2_PLACEMENT_3D('',#1350,#1127,#1128);
#890=AXIS2_PLACEMENT_3D('',#1352,#1130,#1131);
#891=AXIS2_PLACEMENT_3D('',#1354,#1133,#1134);
#892=AXIS2_PLACEMENT_3D('',#1356,#1136,#1137);
#893=AXIS2_PLACEMENT_3D('',#1358,#1139,#1140);
#894=AXIS2_PLACEMENT_3D('',#1360,#1142,#1143);
#895=AXIS2_PLACEMENT_3D('',#1362,#1145,#1146);
#896=AXIS2_PLACEMENT_3D('',#1364,#1148,#1149);
#897=AXIS2_PLACEMENT_3D('',#1366,#1151,#1152);
#898=AXIS2_PLACEMENT_3D('',#1368,#1153,#1154);
#899=AXIS2_PLACEMENT_3D('',#1369,#1155,#1156);
#900=AXIS2_PLACEMENT_3D('',#1372,#1158,#1159);
#901=AXIS2_PLACEMENT_3D('',#1373,#1160,#1161);
#902=AXIS2_PLACEMENT_3D('',#1375,#1162,#1163);
#903=AXIS2_PLACEMENT_3D('',#1378,#1165,#1166);
#904=AXIS2_PLACEMENT_3D('',#1379,#1167,#1168);
#905=AXIS2_PLACEMENT_3D('',#1380,#1169,#1170);
#906=DIRECTION('axis',(0.,0.,1.));
#907=DIRECTION('refdir',(1.,0.,0.));
#908=DIRECTION('center_axis',(0.,1.,0.));
#909=DIRECTION('ref_axis',(1.,0.,0.));
#910=DIRECTION('center_axis',(0.,1.,0.));
#911=DIRECTION('ref_axis',(1.,0.,0.));
#912=DIRECTION('center_axis',(0.,1.,0.));
#913=DIRECTION('ref_axis',(1.,0.,0.));
#914=DIRECTION('center_axis',(0.,1.,0.));
#915=DIRECTION('ref_axis',(1.,0.,0.));
#916=DIRECTION('center_axis',(0.,1.,0.));
#917=DIRECTION('ref_axis',(1.,0.,0.));
#918=DIRECTION('center_axis',(0.,1.,0.));
#919=DIRECTION('ref_axis',(1.,0.,0.));
#920=DIRECTION('center_axis',(0.,1.,0.));
#921=DIRECTION('ref_axis',(1.,0.,0.));
#922=DIRECTION('center_axis',(0.,1.,0.));
#923=DIRECTION('ref_axis',(1.,0.,0.));
#924=DIRECTION('center_axis',(0.,1.,0.));
#925=DIRECTION('ref_axis',(1.,0.,0.));
#926=DIRECTION('center_axis',(0.,1.,0.));
#927=DIRECTION('ref_axis',(1.,0.,0.));
#928=DIRECTION('center_axis',(0.,1.,0.));
#929=DIRECTION('ref_axis',(1.,0.,0.));
#930=DIRECTION('center_axis',(0.,1.,0.));
#931=DIRECTION('ref_axis',(1.,0.,0.));
#932=DIRECTION('center_axis',(0.,1.,0.));
#933=DIRECTION('ref_axis',(1.,0.,0.));
#934=DIRECTION('center_axis',(0.,1.,0.));
#935=DIRECTION('ref_axis',(1.,0.,0.));
#936=DIRECTION('center_axis',(0.,1.,0.));
#937=DIRECTION('ref_axis',(1.,0.,0.));
#938=DIRECTION('center_axis',(0.,1.,0.));
#939=DIRECTION('ref_axis',(1.,0.,0.));
#940=DIRECTION('center_axis',(0.,1.,0.));
#941=DIRECTION('ref_axis',(1.,0.,0.));
#942=DIRECTION('center_axis',(0.,-1.,0.));
#943=DIRECTION('ref_axis',(1.,0.,0.));
#944=DIRECTION('',(0.,1.,0.));
#945=DIRECTION('center_axis',(0.,1.,0.));
#946=DIRECTION('ref_axis',(1.,0.,0.));
#947=DIRECTION('center_axis',(0.,1.,0.));
#948=DIRECTION('ref_axis',(1.,0.,0.));
#949=DIRECTION('center_axis',(0.,1.,0.));
#950=DIRECTION('ref_axis',(1.,0.,0.));
#951=DIRECTION('center_axis',(0.,1.,0.));
#952=DIRECTION('ref_axis',(1.,0.,0.));
#953=DIRECTION('center_axis',(0.,1.,0.));
#954=DIRECTION('ref_axis',(1.,0.,0.));
#955=DIRECTION('center_axis',(0.,1.,0.));
#956=DIRECTION('ref_axis',(1.,0.,0.));
#957=DIRECTION('center_axis',(0.,1.,0.));
#958=DIRECTION('ref_axis',(1.,0.,0.));
#959=DIRECTION('center_axis',(0.,1.,0.));
#960=DIRECTION('ref_axis',(1.,0.,0.));
#961=DIRECTION('center_axis',(0.,1.,0.));
#962=DIRECTION('ref_axis',(1.,0.,0.));
#963=DIRECTION('center_axis',(0.,1.,0.));
#964=DIRECTION('ref_axis',(1.,0.,0.));
#965=DIRECTION('center_axis',(0.,1.,0.));
#966=DIRECTION('ref_axis',(1.,0.,0.));
#967=DIRECTION('center_axis',(0.,-1.,0.));
#968=DIRECTION('ref_axis',(1.,0.,0.));
#969=DIRECTION('',(0.,1.,0.));
#970=DIRECTION('center_axis',(0.,-1.,0.));
#971=DIRECTION('ref_axis',(1.,0.,0.));
#972=DIRECTION('center_axis',(0.,-1.,0.));
#973=DIRECTION('ref_axis',(-1.,0.,0.));
#974=DIRECTION('center_axis',(0.,1.,0.));
#975=DIRECTION('ref_axis',(1.,0.,0.));
#976=DIRECTION('center_axis',(0.,1.,0.));
#977=DIRECTION('ref_axis',(1.,0.,0.));
#978=DIRECTION('center_axis',(0.,-1.,0.));
#979=DIRECTION('ref_axis',(1.,0.,0.));
#980=DIRECTION('',(0.,-1.,0.));
#981=DIRECTION('center_axis',(0.,-1.,0.));
#982=DIRECTION('ref_axis',(1.,0.,0.));
#983=DIRECTION('center_axis',(0.,1.,0.));
#984=DIRECTION('ref_axis',(1.,0.,0.));
#985=DIRECTION('center_axis',(0.,1.,0.));
#986=DIRECTION('ref_axis',(1.,0.,0.));
#987=DIRECTION('center_axis',(0.,1.,0.));
#988=DIRECTION('ref_axis',(1.,0.,0.));
#989=DIRECTION('center_axis',(0.,1.,0.));
#990=DIRECTION('ref_axis',(1.,0.,0.));
#991=DIRECTION('',(0.,1.,0.));
#992=DIRECTION('center_axis',(0.,-1.,0.));
#993=DIRECTION('ref_axis',(1.,0.,0.));
#994=DIRECTION('center_axis',(0.,1.,0.));
#995=DIRECTION('ref_axis',(1.,0.,0.));
#996=DIRECTION('center_axis',(0.,1.,0.));
#997=DIRECTION('ref_axis',(1.,0.,0.));
#998=DIRECTION('',(0.,1.,0.));
#999=DIRECTION('center_axis',(0.,-1.,0.));
#1000=DIRECTION('ref_axis',(1.,0.,0.));
#1001=DIRECTION('center_axis',(0.,1.,0.));
#1002=DIRECTION('ref_axis',(1.,0.,0.));
#1003=DIRECTION('center_axis',(0.,1.,0.));
#1004=DIRECTION('ref_axis',(1.,0.,0.));
#1005=DIRECTION('',(0.,1.,0.));
#1006=DIRECTION('center_axis',(0.,-1.,0.));
#1007=DIRECTION('ref_axis',(1.,0.,0.));
#1008=DIRECTION('center_axis',(0.,1.,0.));
#1009=DIRECTION('ref_axis',(1.,0.,0.));
#1010=DIRECTION('center_axis',(0.,1.,0.));
#1011=DIRECTION('ref_axis',(1.,0.,0.));
#1012=DIRECTION('',(0.,1.,0.));
#1013=DIRECTION('center_axis',(0.,-1.,0.));
#1014=DIRECTION('ref_axis',(1.,0.,0.));
#1015=DIRECTION('center_axis',(0.,1.,0.));
#1016=DIRECTION('ref_axis',(1.,0.,0.));
#1017=DIRECTION('center_axis',(0.,1.,0.));
#1018=DIRECTION('ref_axis',(1.,0.,0.));
#1019=DIRECTION('',(0.,1.,0.));
#1020=DIRECTION('center_axis',(0.,-1.,0.));
#1021=DIRECTION('ref_axis',(1.,0.,0.));
#1022=DIRECTION('center_axis',(0.,1.,0.));
#1023=DIRECTION('ref_axis',(1.,0.,0.));
#1024=DIRECTION('center_axis',(0.,1.,0.));
#1025=DIRECTION('ref_axis',(1.,0.,0.));
#1026=DIRECTION('',(0.,1.,0.));
#1027=DIRECTION('center_axis',(0.,-1.,0.));
#1028=DIRECTION('ref_axis',(1.,0.,0.));
#1029=DIRECTION('center_axis',(0.,1.,0.));
#1030=DIRECTION('ref_axis',(1.,0.,0.));
#1031=DIRECTION('center_axis',(0.,1.,0.));
#1032=DIRECTION('ref_axis',(1.,0.,0.));
#1033=DIRECTION('',(0.,1.,0.));
#1034=DIRECTION('center_axis',(0.,-1.,0.));
#1035=DIRECTION('ref_axis',(1.,0.,0.));
#1036=DIRECTION('center_axis',(0.,1.,0.));
#1037=DIRECTION('ref_axis',(1.,0.,0.));
#1038=DIRECTION('center_axis',(0.,1.,0.));
#1039=DIRECTION('ref_axis',(1.,0.,0.));
#1040=DIRECTION('',(0.,1.,0.));
#1041=DIRECTION('center_axis',(0.,-1.,0.));
#1042=DIRECTION('ref_axis',(1.,0.,0.));
#1043=DIRECTION('center_axis',(0.,1.,0.));
#1044=DIRECTION('ref_axis',(1.,0.,0.));
#1045=DIRECTION('center_axis',(0.,1.,0.));
#1046=DIRECTION('ref_axis',(1.,0.,0.));
#1047=DIRECTION('',(0.,1.,0.));
#1048=DIRECTION('center_axis',(0.,-1.,0.));
#1049=DIRECTION('ref_axis',(1.,0.,0.));
#1050=DIRECTION('center_axis',(0.,1.,0.));
#1051=DIRECTION('ref_axis',(1.,0.,0.));
#1052=DIRECTION('center_axis',(0.,1.,0.));
#1053=DIRECTION('ref_axis',(1.,0.,0.));
#1054=DIRECTION('',(0.,1.,0.));
#1055=DIRECTION('center_axis',(0.,-1.,0.));
#1056=DIRECTION('ref_axis',(1.,0.,0.));
#1057=DIRECTION('center_axis',(0.,-1.,0.));
#1058=DIRECTION('ref_axis',(-1.,0.,0.));
#1059=DIRECTION('center_axis',(0.,-1.,0.));
#1060=DIRECTION('ref_axis',(1.,0.,0.));
#1061=DIRECTION('center_axis',(0.,-1.,0.));
#1062=DIRECTION('ref_axis',(1.,0.,0.));
#1063=DIRECTION('center_axis',(0.,1.,0.));
#1064=DIRECTION('ref_axis',(1.,0.,0.));
#1065=DIRECTION('center_axis',(0.,1.,0.));
#1066=DIRECTION('ref_axis',(1.,0.,0.));
#1067=DIRECTION('center_axis',(0.,1.,0.));
#1068=DIRECTION('ref_axis',(1.,0.,0.));
#1069=DIRECTION('center_axis',(0.,1.,0.));
#1070=DIRECTION('ref_axis',(1.,0.,0.));
#1071=DIRECTION('center_axis',(0.,-1.,0.));
#1072=DIRECTION('ref_axis',(1.,0.,0.));
#1073=DIRECTION('center_axis',(0.,1.,0.));
#1074=DIRECTION('ref_axis',(1.,0.,0.));
#1075=DIRECTION('',(0.,1.,0.));
#1076=DIRECTION('center_axis',(0.,-1.,0.));
#1077=DIRECTION('ref_axis',(1.,0.,0.));
#1078=DIRECTION('center_axis',(0.,-1.,0.));
#1079=DIRECTION('ref_axis',(-1.,0.,0.));
#1080=DIRECTION('center_axis',(0.,-1.,0.));
#1081=DIRECTION('ref_axis',(-1.,0.,0.));
#1082=DIRECTION('center_axis',(0.,-1.,0.));
#1083=DIRECTION('ref_axis',(1.,0.,0.));
#1084=DIRECTION('center_axis',(0.,1.,0.));
#1085=DIRECTION('ref_axis',(1.,0.,0.));
#1086=DIRECTION('',(0.,-1.,0.));
#1087=DIRECTION('center_axis',(0.,1.,0.));
#1088=DIRECTION('ref_axis',(1.,0.,0.));
#1089=DIRECTION('center_axis',(0.,1.,0.));
#1090=DIRECTION('ref_axis',(1.,0.,0.));
#1091=DIRECTION('center_axis',(0.,1.,0.));
#1092=DIRECTION('ref_axis',(1.,0.,0.));
#1093=DIRECTION('',(0.,-1.,0.));
#1094=DIRECTION('center_axis',(0.,1.,0.));
#1095=DIRECTION('ref_axis',(1.,0.,0.));
#1096=DIRECTION('',(0.,-1.,0.));
#1097=DIRECTION('center_axis',(0.,-1.,0.));
#1098=DIRECTION('ref_axis',(1.,0.,0.));
#1099=DIRECTION('center_axis',(0.,-1.,0.));
#1100=DIRECTION('ref_axis',(-1.,0.,0.));
#1101=DIRECTION('center_axis',(0.,1.,0.));
#1102=DIRECTION('ref_axis',(1.,0.,0.));
#1103=DIRECTION('center_axis',(0.,1.,0.));
#1104=DIRECTION('ref_axis',(1.,0.,0.));
#1105=DIRECTION('',(0.,-1.,0.));
#1106=DIRECTION('center_axis',(0.,-1.,0.));
#1107=DIRECTION('ref_axis',(1.,0.,0.));
#1108=DIRECTION('center_axis',(0.,1.,0.));
#1109=DIRECTION('ref_axis',(1.,0.,0.));
#1110=DIRECTION('center_axis',(0.,1.,0.));
#1111=DIRECTION('ref_axis',(1.,0.,0.));
#1112=DIRECTION('center_axis',(0.,1.,0.));
#1113=DIRECTION('ref_axis',(1.,0.,0.));
#1114=DIRECTION('',(0.,-1.,0.));
#1115=DIRECTION('center_axis',(0.,1.,0.));
#1116=DIRECTION('ref_axis',(1.,0.,0.));
#1117=DIRECTION('',(0.,-1.,0.));
#1118=DIRECTION('center_axis',(0.,-1.,0.));
#1119=DIRECTION('ref_axis',(1.,0.,0.));
#1120=DIRECTION('center_axis',(0.,-1.,0.));
#1121=DIRECTION('ref_axis',(-1.,0.,0.));
#1122=DIRECTION('center_axis',(0.,1.,0.));
#1123=DIRECTION('ref_axis',(1.,0.,0.));
#1124=DIRECTION('center_axis',(0.,1.,0.));
#1125=DIRECTION('ref_axis',(1.,0.,0.));
#1126=DIRECTION('',(0.,1.,0.));
#1127=DIRECTION('center_axis',(0.,1.,0.));
#1128=DIRECTION('ref_axis',(1.,0.,0.));
#1129=DIRECTION('',(0.,1.,0.));
#1130=DIRECTION('center_axis',(0.,1.,0.));
#1131=DIRECTION('ref_axis',(1.,0.,0.));
#1132=DIRECTION('',(0.,1.,0.));
#1133=DIRECTION('center_axis',(0.,1.,0.));
#1134=DIRECTION('ref_axis',(1.,0.,0.));
#1135=DIRECTION('',(0.,1.,0.));
#1136=DIRECTION('center_axis',(0.,1.,0.));
#1137=DIRECTION('ref_axis',(1.,0.,0.));
#1138=DIRECTION('',(0.,1.,0.));
#1139=DIRECTION('center_axis',(0.,1.,0.));
#1140=DIRECTION('ref_axis',(1.,0.,0.));
#1141=DIRECTION('',(0.,1.,0.));
#1142=DIRECTION('center_axis',(0.,1.,0.));
#1143=DIRECTION('ref_axis',(1.,0.,0.));
#1144=DIRECTION('',(0.,1.,0.));
#1145=DIRECTION('center_axis',(0.,1.,0.));
#1146=DIRECTION('ref_axis',(1.,0.,0.));
#1147=DIRECTION('',(0.,1.,0.));
#1148=DIRECTION('center_axis',(0.,1.,0.));
#1149=DIRECTION('ref_axis',(1.,0.,0.));
#1150=DIRECTION('',(0.,1.,0.));
#1151=DIRECTION('center_axis',(0.,1.,0.));
#1152=DIRECTION('ref_axis',(1.,0.,0.));
#1153=DIRECTION('center_axis',(0.,1.,0.));
#1154=DIRECTION('ref_axis',(1.,0.,0.));
#1155=DIRECTION('center_axis',(0.,1.,0.));
#1156=DIRECTION('ref_axis',(1.,0.,0.));
#1157=DIRECTION('',(0.,-1.,0.));
#1158=DIRECTION('center_axis',(0.,1.,0.));
#1159=DIRECTION('ref_axis',(1.,0.,0.));
#1160=DIRECTION('center_axis',(0.,1.,0.));
#1161=DIRECTION('ref_axis',(1.,0.,0.));
#1162=DIRECTION('center_axis',(0.,1.,0.));
#1163=DIRECTION('ref_axis',(1.,0.,0.));
#1164=DIRECTION('',(0.,1.,0.));
#1165=DIRECTION('center_axis',(0.,1.,0.));
#1166=DIRECTION('ref_axis',(1.,0.,0.));
#1167=DIRECTION('center_axis',(0.,1.,0.));
#1168=DIRECTION('ref_axis',(0.,0.,1.));
#1169=DIRECTION('center_axis',(0.,-1.,0.));
#1170=DIRECTION('ref_axis',(-1.,0.,0.));
#1171=CARTESIAN_POINT('',(0.,0.,0.));
#1172=CARTESIAN_POINT('Origin',(4.78354290456362,-22.,228.451505843609));
#1173=CARTESIAN_POINT('',(2.63354290456363,-22.,228.451505843609));
#1174=CARTESIAN_POINT('Origin',(4.78354290456362,-22.,228.451505843609));
#1175=CARTESIAN_POINT('Origin',(-11.5484941563911,-22.,235.216457095436));
#1176=CARTESIAN_POINT('',(-13.6984941563911,-22.,235.216457095436));
#1177=CARTESIAN_POINT('Origin',(-11.5484941563911,-22.,235.216457095436));
#1178=CARTESIAN_POINT('Origin',(-4.78354290456362,-22.,251.548494156391));
#1179=CARTESIAN_POINT('',(-6.93354290456362,-22.,251.548494156391));
#1180=CARTESIAN_POINT('Origin',(-4.78354290456362,-22.,251.548494156391));
#1181=CARTESIAN_POINT('Origin',(11.5484941563911,-22.,244.783542904564));
#1182=CARTESIAN_POINT('',(9.39849415639108,-22.,244.783542904564));
#1183=CARTESIAN_POINT('Origin',(11.5484941563911,-22.,244.783542904564));
#1184=CARTESIAN_POINT('Origin',(4.78354290456362,-22.,251.548494156391));
#1185=CARTESIAN_POINT('',(2.63354290456362,-22.,251.548494156391));
#1186=CARTESIAN_POINT('Origin',(4.78354290456362,-22.,251.548494156391));
#1187=CARTESIAN_POINT('Origin',(-11.5484941563911,-22.,244.783542904564));
#1188=CARTESIAN_POINT('',(-13.6984941563911,-22.,244.783542904564));
#1189=CARTESIAN_POINT('Origin',(-11.5484941563911,-22.,244.783542904564));
#1190=CARTESIAN_POINT('Origin',(-4.78354290456363,-22.,228.451505843609));
#1191=CARTESIAN_POINT('',(-6.93354290456363,-22.,228.451505843609));
#1192=CARTESIAN_POINT('Origin',(-4.78354290456363,-22.,228.451505843609));
#1193=CARTESIAN_POINT('Origin',(11.5484941563911,-22.,235.216457095436));
#1194=CARTESIAN_POINT('',(9.39849415639108,-22.,235.216457095436));
#1195=CARTESIAN_POINT('Origin',(11.5484941563911,-22.,235.216457095436));
#1196=CARTESIAN_POINT('Origin',(0.,-51.,240.));
#1197=CARTESIAN_POINT('',(-18.2,-55.,240.));
#1198=CARTESIAN_POINT('Origin',(0.,-55.,240.));
#1199=CARTESIAN_POINT('',(-18.2,-47.,240.));
#1200=CARTESIAN_POINT('',(-18.2,-51.,240.));
#1201=CARTESIAN_POINT('Origin',(0.,-47.,240.));
#1202=CARTESIAN_POINT('Origin',(0.,-47.,240.));
#1203=CARTESIAN_POINT('',(9.39849415639108,-47.,235.216457095436));
#1204=CARTESIAN_POINT('Origin',(11.5484941563911,-47.,235.216457095436));
#1205=CARTESIAN_POINT('',(-6.93354290456363,-47.,228.451505843609));
#1206=CARTESIAN_POINT('Origin',(-4.78354290456363,-47.,228.451505843609));
#1207=CARTESIAN_POINT('',(-13.6984941563911,-47.,244.783542904564));
#1208=CARTESIAN_POINT('Origin',(-11.5484941563911,-47.,244.783542904564));
#1209=CARTESIAN_POINT('',(2.63354290456362,-47.,251.548494156391));
#1210=CARTESIAN_POINT('Origin',(4.78354290456362,-47.,251.548494156391));
#1211=CARTESIAN_POINT('',(9.39849415639108,-47.,244.783542904564));
#1212=CARTESIAN_POINT('Origin',(11.5484941563911,-47.,244.783542904564));
#1213=CARTESIAN_POINT('',(-6.93354290456362,-47.,251.548494156391));
#1214=CARTESIAN_POINT('Origin',(-4.78354290456362,-47.,251.548494156391));
#1215=CARTESIAN_POINT('',(-13.6984941563911,-47.,235.216457095436));
#1216=CARTESIAN_POINT('Origin',(-11.5484941563911,-47.,235.216457095436));
#1217=CARTESIAN_POINT('',(2.63354290456363,-47.,228.451505843609));
#1218=CARTESIAN_POINT('Origin',(4.78354290456362,-47.,228.451505843609));
#1219=CARTESIAN_POINT('Origin',(0.,-57.25,240.));
#1220=CARTESIAN_POINT('',(-17.35,-59.5,240.));
#1221=CARTESIAN_POINT('Origin',(0.,-59.5,240.));
#1222=CARTESIAN_POINT('',(-17.35,-55.,240.));
#1223=CARTESIAN_POINT('',(-17.35,-57.25,240.));
#1224=CARTESIAN_POINT('Origin',(0.,-55.,240.));
#1225=CARTESIAN_POINT('Origin',(0.,-59.5,240.));
#1226=CARTESIAN_POINT('',(-7.2,-59.5,240.));
#1227=CARTESIAN_POINT('Origin',(0.,-59.5,240.));
#1228=CARTESIAN_POINT('Origin',(0.,-54.,240.));
#1229=CARTESIAN_POINT('',(-23.2,-49.4,240.));
#1230=CARTESIAN_POINT('Origin',(0.,-49.4,240.));
#1231=CARTESIAN_POINT('',(-23.2,-58.,240.));
#1232=CARTESIAN_POINT('',(-23.2,-54.,240.));
#1233=CARTESIAN_POINT('Origin',(0.,-58.,240.));
#1234=CARTESIAN_POINT('Origin',(0.,-49.4,240.));
#1235=CARTESIAN_POINT('',(-24.,-49.4,240.));
#1236=CARTESIAN_POINT('Origin',(0.,-49.4,240.));
#1237=CARTESIAN_POINT('Origin',(-21.,46.,203.626933041054));
#1238=CARTESIAN_POINT('',(-23.7,43.,203.626933041054));
#1239=CARTESIAN_POINT('Origin',(-21.,43.,203.626933041054));
#1240=CARTESIAN_POINT('',(-23.7,49.,203.626933041054));
#1241=CARTESIAN_POINT('',(-23.7,46.,203.626933041054));
#1242=CARTESIAN_POINT('Origin',(-21.,49.,203.626933041054));
#1243=CARTESIAN_POINT('Origin',(-21.,46.,276.373066958946));
#1244=CARTESIAN_POINT('',(-23.7,43.,276.373066958946));
#1245=CARTESIAN_POINT('Origin',(-21.,43.,276.373066958946));
#1246=CARTESIAN_POINT('',(-23.7,49.,276.373066958946));
#1247=CARTESIAN_POINT('',(-23.7,46.,276.373066958946));
#1248=CARTESIAN_POINT('Origin',(-21.,49.,276.373066958946));
#1249=CARTESIAN_POINT('Origin',(-21.,-46.,203.626933041054));
#1250=CARTESIAN_POINT('',(-23.7,-49.,203.626933041054));
#1251=CARTESIAN_POINT('Origin',(-21.,-49.,203.626933041054));
#1252=CARTESIAN_POINT('',(-23.7,-43.,203.626933041054));
#1253=CARTESIAN_POINT('',(-23.7,-46.,203.626933041054));
#1254=CARTESIAN_POINT('Origin',(-21.,-43.,203.626933041054));
#1255=CARTESIAN_POINT('Origin',(-21.,-46.,276.373066958946));
#1256=CARTESIAN_POINT('',(-23.7,-49.,276.373066958946));
#1257=CARTESIAN_POINT('Origin',(-21.,-49.,276.373066958946));
#1258=CARTESIAN_POINT('',(-23.7,-43.,276.373066958946));
#1259=CARTESIAN_POINT('',(-23.7,-46.,276.373066958946));
#1260=CARTESIAN_POINT('Origin',(-21.,-43.,276.373066958946));
#1261=CARTESIAN_POINT('Origin',(21.,-46.,276.373066958946));
#1262=CARTESIAN_POINT('',(18.3,-49.,276.373066958946));
#1263=CARTESIAN_POINT('Origin',(21.,-49.,276.373066958946));
#1264=CARTESIAN_POINT('',(18.3,-43.,276.373066958946));
#1265=CARTESIAN_POINT('',(18.3,-46.,276.373066958946));
#1266=CARTESIAN_POINT('Origin',(21.,-43.,276.373066958946));
#1267=CARTESIAN_POINT('Origin',(-42.,-46.,240.));
#1268=CARTESIAN_POINT('',(-44.7,-49.,240.));
#1269=CARTESIAN_POINT('Origin',(-42.,-49.,240.));
#1270=CARTESIAN_POINT('',(-44.7,-43.,240.));
#1271=CARTESIAN_POINT('',(-44.7,-46.,240.));
#1272=CARTESIAN_POINT('Origin',(-42.,-43.,240.));
#1273=CARTESIAN_POINT('Origin',(21.,-46.,203.626933041054));
#1274=CARTESIAN_POINT('',(18.3,-49.,203.626933041054));
#1275=CARTESIAN_POINT('Origin',(21.,-49.,203.626933041054));
#1276=CARTESIAN_POINT('',(18.3,-43.,203.626933041054));
#1277=CARTESIAN_POINT('',(18.3,-46.,203.626933041054));
#1278=CARTESIAN_POINT('Origin',(21.,-43.,203.626933041054));
#1279=CARTESIAN_POINT('Origin',(21.,46.,276.373066958946));
#1280=CARTESIAN_POINT('',(18.3,43.,276.373066958946));
#1281=CARTESIAN_POINT('Origin',(21.,43.,276.373066958946));
#1282=CARTESIAN_POINT('',(18.3,49.,276.373066958946));
#1283=CARTESIAN_POINT('',(18.3,46.,276.373066958946));
#1284=CARTESIAN_POINT('Origin',(21.,49.,276.373066958946));
#1285=CARTESIAN_POINT('Origin',(-42.,46.,240.));
#1286=CARTESIAN_POINT('',(-44.7,43.,240.));
#1287=CARTESIAN_POINT('Origin',(-42.,43.,240.));
#1288=CARTESIAN_POINT('',(-44.7,49.,240.));
#1289=CARTESIAN_POINT('',(-44.7,46.,240.));
#1290=CARTESIAN_POINT('Origin',(-42.,49.,240.));
#1291=CARTESIAN_POINT('Origin',(21.,46.,203.626933041054));
#1292=CARTESIAN_POINT('',(18.3,43.,203.626933041054));
#1293=CARTESIAN_POINT('Origin',(21.,43.,203.626933041054));
#1294=CARTESIAN_POINT('',(18.3,49.,203.626933041054));
#1295=CARTESIAN_POINT('',(18.3,46.,203.626933041054));
#1296=CARTESIAN_POINT('Origin',(21.,49.,203.626933041054));
#1297=CARTESIAN_POINT('Origin',(0.,-49.,240.));
#1298=CARTESIAN_POINT('',(-48.,-49.,240.));
#1299=CARTESIAN_POINT('Origin',(0.,-49.,240.));
#1300=CARTESIAN_POINT('',(-24.,-49.,240.));
#1301=CARTESIAN_POINT('Origin',(0.,-49.,240.));
#1302=CARTESIAN_POINT('Origin',(0.,49.,240.));
#1303=CARTESIAN_POINT('',(-48.,49.,240.));
#1304=CARTESIAN_POINT('Origin',(0.,49.,240.));
#1305=CARTESIAN_POINT('',(-17.4,49.,240.));
#1306=CARTESIAN_POINT('Origin',(0.,49.,240.));
#1307=CARTESIAN_POINT('Origin',(0.,49.,240.));
#1308=CARTESIAN_POINT('',(-7.2,49.,240.));
#1309=CARTESIAN_POINT('Origin',(0.,49.,240.));
#1310=CARTESIAN_POINT('Origin',(0.,0.,240.));
#1311=CARTESIAN_POINT('',(-7.2,67.,240.));
#1312=CARTESIAN_POINT('',(-7.2,0.,240.));
#1313=CARTESIAN_POINT('Origin',(0.,67.,240.));
#1314=CARTESIAN_POINT('Origin',(0.,-55.,240.));
#1315=CARTESIAN_POINT('Origin',(0.,-58.,240.));
#1316=CARTESIAN_POINT('',(-17.4,-58.,240.));
#1317=CARTESIAN_POINT('Origin',(0.,-58.,240.));
#1318=CARTESIAN_POINT('Origin',(0.,-51.,240.));
#1319=CARTESIAN_POINT('',(-24.,-51.,240.));
#1320=CARTESIAN_POINT('Origin',(0.,67.,240.));
#1321=CARTESIAN_POINT('',(-17.4,67.,240.));
#1322=CARTESIAN_POINT('Origin',(0.,67.,240.));
#1323=CARTESIAN_POINT('Origin',(0.,0.,240.));
#1324=CARTESIAN_POINT('',(-17.4,0.,240.));
#1325=CARTESIAN_POINT('Origin',(0.,43.5,240.));
#1326=CARTESIAN_POINT('',(-48.,43.,240.));
#1327=CARTESIAN_POINT('',(-48.,43.5,240.));
#1328=CARTESIAN_POINT('Origin',(0.,43.,240.));
#1329=CARTESIAN_POINT('Origin',(0.,43.,240.));
#1330=CARTESIAN_POINT('',(-38.,43.,240.));
#1331=CARTESIAN_POINT('Origin',(0.,43.,240.));
#1332=CARTESIAN_POINT('Origin',(0.,0.,240.));
#1333=CARTESIAN_POINT('',(-38.,-43.,240.));
#1334=CARTESIAN_POINT('',(-38.,0.,240.));
#1335=CARTESIAN_POINT('Origin',(0.,-43.,240.));
#1336=CARTESIAN_POINT('Origin',(0.,-43.,240.));
#1337=CARTESIAN_POINT('',(-48.,-43.,240.));
#1338=CARTESIAN_POINT('Origin',(0.,-43.,240.));
#1339=CARTESIAN_POINT('Origin',(0.,-43.5,240.));
#1340=CARTESIAN_POINT('',(-48.,-43.5,240.));
#1341=CARTESIAN_POINT('Origin',(0.,0.,240.));
#1342=CARTESIAN_POINT('',(-17.4,-67.,240.));
#1343=CARTESIAN_POINT('',(-17.4,0.,240.));
#1344=CARTESIAN_POINT('Origin',(0.,-67.,240.));
#1345=CARTESIAN_POINT('Origin',(0.,-67.,240.));
#1346=CARTESIAN_POINT('',(-7.2,-67.,240.));
#1347=CARTESIAN_POINT('Origin',(0.,-67.,240.));
#1348=CARTESIAN_POINT('Origin',(0.,0.,240.));
#1349=CARTESIAN_POINT('',(-7.2,0.,240.));
#1350=CARTESIAN_POINT('Origin',(11.5484941563911,-39.75,244.783542904564));
#1351=CARTESIAN_POINT('',(9.39849415639108,-39.75,244.783542904564));
#1352=CARTESIAN_POINT('Origin',(4.78354290456362,-39.75,251.548494156391));
#1353=CARTESIAN_POINT('',(2.63354290456362,-39.75,251.548494156391));
#1354=CARTESIAN_POINT('Origin',(-4.78354290456362,-39.75,251.548494156391));
#1355=CARTESIAN_POINT('',(-6.93354290456362,-39.75,251.548494156391));
#1356=CARTESIAN_POINT('Origin',(-11.5484941563911,-39.75,244.783542904564));
#1357=CARTESIAN_POINT('',(-13.6984941563911,-39.75,244.783542904564));
#1358=CARTESIAN_POINT('Origin',(-11.5484941563911,-39.75,235.216457095436));
#1359=CARTESIAN_POINT('',(-13.6984941563911,-39.75,235.216457095436));
#1360=CARTESIAN_POINT('Origin',(-4.78354290456363,-39.75,228.451505843609));
#1361=CARTESIAN_POINT('',(-6.93354290456363,-39.75,228.451505843609));
#1362=CARTESIAN_POINT('Origin',(4.78354290456362,-39.75,228.451505843609));
#1363=CARTESIAN_POINT('',(2.63354290456363,-39.75,228.451505843609));
#1364=CARTESIAN_POINT('Origin',(11.5484941563911,-39.75,235.216457095436));
#1365=CARTESIAN_POINT('',(9.39849415639108,-39.75,235.216457095436));
#1366=CARTESIAN_POINT('Origin',(0.,-36.,240.));
#1367=CARTESIAN_POINT('',(-7.,-36.,240.));
#1368=CARTESIAN_POINT('Origin',(0.,-36.,240.));
#1369=CARTESIAN_POINT('Origin',(0.,-60.,240.));
#1370=CARTESIAN_POINT('',(-7.,-40.,240.));
#1371=CARTESIAN_POINT('',(-7.,-60.,240.));
#1372=CARTESIAN_POINT('Origin',(0.,-40.,240.));
#1373=CARTESIAN_POINT('Origin',(0.,0.,240.));
#1374=CARTESIAN_POINT('',(-7.2,-40.,240.));
#1375=CARTESIAN_POINT('Origin',(0.,-40.,240.));
#1376=CARTESIAN_POINT('',(-7.2,43.,240.));
#1377=CARTESIAN_POINT('',(-7.2,0.,240.));
#1378=CARTESIAN_POINT('Origin',(0.,43.,240.));
#1379=CARTESIAN_POINT('Origin',(0.,-40.,240.));
#1380=CARTESIAN_POINT('Origin',(0.,43.,240.));
#1381=UNCERTAINTY_MEASURE_WITH_UNIT(LENGTH_MEASURE(0.01),#1385,
'DISTANCE_ACCURACY_VALUE',
'Maximum model space distance between geometric entities at asserted c
onnectivities');
#1382=UNCERTAINTY_MEASURE_WITH_UNIT(LENGTH_MEASURE(0.01),#1385,
'DISTANCE_ACCURACY_VALUE',
'Maximum model space distance between geometric entities at asserted c
onnectivities');
#1383=(
GEOMETRIC_REPRESENTATION_CONTEXT(3)
GLOBAL_UNCERTAINTY_ASSIGNED_CONTEXT((#1381))
GLOBAL_UNIT_ASSIGNED_CONTEXT((#1385,#1387,#1388))
REPRESENTATION_CONTEXT('','3D')
);
#1384=(
GEOMETRIC_REPRESENTATION_CONTEXT(3)
GLOBAL_UNCERTAINTY_ASSIGNED_CONTEXT((#1382))
GLOBAL_UNIT_ASSIGNED_CONTEXT((#1385,#1387,#1388))
REPRESENTATION_CONTEXT('','3D')
);
#1385=(
LENGTH_UNIT()
NAMED_UNIT(*)
SI_UNIT(.MILLI.,.METRE.)
);
#1386=(
LENGTH_UNIT()
NAMED_UNIT(*)
SI_UNIT($,.METRE.)
);
#1387=(
NAMED_UNIT(*)
PLANE_ANGLE_UNIT()
SI_UNIT($,.RADIAN.)
);
#1388=(
NAMED_UNIT(*)
SI_UNIT($,.STERADIAN.)
SOLID_ANGLE_UNIT()
);
#1389=SHAPE_DEFINITION_REPRESENTATION(#1390,#1391);
#1390=PRODUCT_DEFINITION_SHAPE('',$,#1393);
#1391=SHAPE_REPRESENTATION('',(#789),#1383);
#1392=PRODUCT_DEFINITION_CONTEXT('part definition',#1397,'design');
#1393=PRODUCT_DEFINITION('2026-08-31-20-23-42-798','EXPORT_TMP',#1394,#1392);
#1394=PRODUCT_DEFINITION_FORMATION('',$,#1399);
#1395=PRODUCT_RELATED_PRODUCT_CATEGORY('EXPORT_TMP','EXPORT_TMP',(#1399));
#1396=APPLICATION_PROTOCOL_DEFINITION('international standard',
'automotive_design',2009,#1397);
#1397=APPLICATION_CONTEXT(
'Core Data for Automotive Mechanical Design Process');
#1398=PRODUCT_CONTEXT('part definition',#1397,'mechanical');
#1399=PRODUCT('2026-08-31-20-23-42-798','EXPORT_TMP',$,(#1398));
#1400=PRESENTATION_STYLE_ASSIGNMENT((#1401));
#1401=SURFACE_STYLE_USAGE(.BOTH.,#1402);
#1402=SURFACE_SIDE_STYLE('',(#1403));
#1403=SURFACE_STYLE_FILL_AREA(#1404);
#1404=FILL_AREA_STYLE('Steel - Satin',(#1405));
#1405=FILL_AREA_STYLE_COLOUR('Steel - Satin',#1406);
#1406=COLOUR_RGB('Steel - Satin',0.627450980392157,0.627450980392157,0.627450980392157);
ENDSEC;
END-ISO-10303-21;
