ISO-10303-21;
HEADER;
/* Generated by software containing ST-Developer
 * from STEP Tools, Inc. (www.steptools.com) 
 */

FILE_DESCRIPTION(
/* description */ (''),
/* implementation_level */ '2;1');

FILE_NAME(
/* name */ 'PRINT_V010F_P106_J2_SteppedBearingRetainerAdapter.step',
/* time_stamp */ '2026-08-30T16:33:54+02:00',
/* author */ (''),
/* organization */ (''),
/* preprocessor_version */ 'ST-DEVELOPER v20.1',
/* originating_system */ 'Autodesk Translation Framework v15.8.0.0',
/* authorisation */ '');

FILE_SCHEMA (('AUTOMOTIVE_DESIGN { 1 0 10303 214 3 1 1 }'));
ENDSEC;

DATA;
#10=MECHANICAL_DESIGN_GEOMETRIC_PRESENTATION_REPRESENTATION('',(#13),#719);
#11=SHAPE_REPRESENTATION_RELATIONSHIP('SRR','None',#726,#12);
#12=ADVANCED_BREP_SHAPE_REPRESENTATION('',(#14),#718);
#13=STYLED_ITEM('',(#735),#14);
#14=MANIFOLD_SOLID_BREP(
'PRINT_V010F_P106_J2_SteppedBearingRetainerAdapter',#415);
#15=FACE_BOUND('',#73,.T.);
#16=FACE_BOUND('',#76,.T.);
#17=FACE_BOUND('',#77,.T.);
#18=FACE_BOUND('',#78,.T.);
#19=FACE_BOUND('',#79,.T.);
#20=FACE_BOUND('',#80,.T.);
#21=FACE_BOUND('',#81,.T.);
#22=FACE_BOUND('',#82,.T.);
#23=FACE_BOUND('',#83,.T.);
#24=FACE_BOUND('',#84,.T.);
#25=FACE_BOUND('',#89,.T.);
#26=FACE_BOUND('',#90,.T.);
#27=FACE_BOUND('',#91,.T.);
#28=FACE_BOUND('',#92,.T.);
#29=FACE_BOUND('',#93,.T.);
#30=FACE_BOUND('',#94,.T.);
#31=FACE_BOUND('',#95,.T.);
#32=FACE_BOUND('',#96,.T.);
#33=FACE_BOUND('',#97,.T.);
#34=PLANE('',#459);
#35=PLANE('',#463);
#36=PLANE('',#473);
#37=PLANE('',#474);
#38=PLANE('',#475);
#39=PLANE('',#476);
#40=PLANE('',#477);
#41=FACE_OUTER_BOUND('',#62,.T.);
#42=FACE_OUTER_BOUND('',#63,.T.);
#43=FACE_OUTER_BOUND('',#64,.T.);
#44=FACE_OUTER_BOUND('',#65,.T.);
#45=FACE_OUTER_BOUND('',#66,.T.);
#46=FACE_OUTER_BOUND('',#67,.T.);
#47=FACE_OUTER_BOUND('',#68,.T.);
#48=FACE_OUTER_BOUND('',#69,.T.);
#49=FACE_OUTER_BOUND('',#70,.T.);
#50=FACE_OUTER_BOUND('',#71,.T.);
#51=FACE_OUTER_BOUND('',#72,.T.);
#52=FACE_OUTER_BOUND('',#74,.T.);
#53=FACE_OUTER_BOUND('',#75,.T.);
#54=FACE_OUTER_BOUND('',#85,.T.);
#55=FACE_OUTER_BOUND('',#86,.T.);
#56=FACE_OUTER_BOUND('',#87,.T.);
#57=FACE_OUTER_BOUND('',#88,.T.);
#58=FACE_OUTER_BOUND('',#98,.T.);
#59=FACE_OUTER_BOUND('',#99,.T.);
#60=FACE_OUTER_BOUND('',#100,.T.);
#61=FACE_OUTER_BOUND('',#101,.T.);
#62=EDGE_LOOP('',(#272,#273,#274,#275));
#63=EDGE_LOOP('',(#276,#277,#278,#279));
#64=EDGE_LOOP('',(#280,#281,#282,#283));
#65=EDGE_LOOP('',(#284,#285,#286,#287));
#66=EDGE_LOOP('',(#288,#289,#290,#291));
#67=EDGE_LOOP('',(#292,#293,#294,#295));
#68=EDGE_LOOP('',(#296,#297,#298,#299));
#69=EDGE_LOOP('',(#300,#301,#302,#303));
#70=EDGE_LOOP('',(#304,#305,#306,#307));
#71=EDGE_LOOP('',(#308,#309,#310,#311));
#72=EDGE_LOOP('',(#312));
#73=EDGE_LOOP('',(#313));
#74=EDGE_LOOP('',(#314,#315,#316,#317));
#75=EDGE_LOOP('',(#318,#319,#320,#321,#322,#323,#324,#325));
#76=EDGE_LOOP('',(#326));
#77=EDGE_LOOP('',(#327));
#78=EDGE_LOOP('',(#328));
#79=EDGE_LOOP('',(#329));
#80=EDGE_LOOP('',(#330));
#81=EDGE_LOOP('',(#331));
#82=EDGE_LOOP('',(#332));
#83=EDGE_LOOP('',(#333));
#84=EDGE_LOOP('',(#334));
#85=EDGE_LOOP('',(#335,#336,#337,#338));
#86=EDGE_LOOP('',(#339,#340,#341,#342));
#87=EDGE_LOOP('',(#343,#344,#345,#346));
#88=EDGE_LOOP('',(#347,#348,#349,#350,#351,#352,#353,#354));
#89=EDGE_LOOP('',(#355));
#90=EDGE_LOOP('',(#356));
#91=EDGE_LOOP('',(#357));
#92=EDGE_LOOP('',(#358));
#93=EDGE_LOOP('',(#359));
#94=EDGE_LOOP('',(#360));
#95=EDGE_LOOP('',(#361));
#96=EDGE_LOOP('',(#362));
#97=EDGE_LOOP('',(#363));
#98=EDGE_LOOP('',(#364,#365,#366,#367));
#99=EDGE_LOOP('',(#368,#369,#370,#371));
#100=EDGE_LOOP('',(#372,#373,#374,#375));
#101=EDGE_LOOP('',(#376,#377,#378,#379));
#102=LINE('',#609,#128);
#103=LINE('',#615,#129);
#104=LINE('',#621,#130);
#105=LINE('',#627,#131);
#106=LINE('',#633,#132);
#107=LINE('',#639,#133);
#108=LINE('',#645,#134);
#109=LINE('',#651,#135);
#110=LINE('',#657,#136);
#111=LINE('',#663,#137);
#112=LINE('',#669,#138);
#113=LINE('',#673,#139);
#114=LINE('',#677,#140);
#115=LINE('',#681,#141);
#116=LINE('',#685,#142);
#117=LINE('',#688,#143);
#118=LINE('',#691,#144);
#119=LINE('',#694,#145);
#120=LINE('',#697,#146);
#121=LINE('',#700,#147);
#122=LINE('',#703,#148);
#123=LINE('',#705,#149);
#124=LINE('',#708,#150);
#125=LINE('',#709,#151);
#126=LINE('',#710,#152);
#127=LINE('',#711,#153);
#128=VECTOR('',#484,20.6);
#129=VECTOR('',#491,1.7);
#130=VECTOR('',#498,1.7);
#131=VECTOR('',#505,1.7);
#132=VECTOR('',#512,1.7);
#133=VECTOR('',#519,2.2);
#134=VECTOR('',#526,2.2);
#135=VECTOR('',#533,2.2);
#136=VECTOR('',#540,2.2);
#137=VECTOR('',#547,26.);
#138=VECTOR('',#554,10.);
#139=VECTOR('',#557,10.);
#140=VECTOR('',#562,10.);
#141=VECTOR('',#565,10.);
#142=VECTOR('',#568,10.);
#143=VECTOR('',#571,10.);
#144=VECTOR('',#574,10.);
#145=VECTOR('',#577,10.);
#146=VECTOR('',#580,10.);
#147=VECTOR('',#583,10.);
#148=VECTOR('',#586,10.);
#149=VECTOR('',#587,10.);
#150=VECTOR('',#592,10.);
#151=VECTOR('',#593,10.);
#152=VECTOR('',#594,10.);
#153=VECTOR('',#595,10.);
#154=CIRCLE('',#430,20.6);
#155=CIRCLE('',#431,20.6);
#156=CIRCLE('',#433,1.7);
#157=CIRCLE('',#434,1.7);
#158=CIRCLE('',#436,1.7);
#159=CIRCLE('',#437,1.7);
#160=CIRCLE('',#439,1.7);
#161=CIRCLE('',#440,1.7);
#162=CIRCLE('',#442,1.7);
#163=CIRCLE('',#443,1.7);
#164=CIRCLE('',#445,2.2);
#165=CIRCLE('',#446,2.2);
#166=CIRCLE('',#448,2.2);
#167=CIRCLE('',#449,2.2);
#168=CIRCLE('',#451,2.2);
#169=CIRCLE('',#452,2.2);
#170=CIRCLE('',#454,2.2);
#171=CIRCLE('',#455,2.2);
#172=CIRCLE('',#457,26.);
#173=CIRCLE('',#458,26.);
#174=CIRCLE('',#461,10.);
#175=CIRCLE('',#462,10.);
#176=CIRCLE('',#464,10.);
#177=CIRCLE('',#465,10.);
#178=CIRCLE('',#466,10.);
#179=CIRCLE('',#468,10.);
#180=CIRCLE('',#470,10.);
#181=CIRCLE('',#472,10.);
#182=VERTEX_POINT('',#606);
#183=VERTEX_POINT('',#608);
#184=VERTEX_POINT('',#612);
#185=VERTEX_POINT('',#614);
#186=VERTEX_POINT('',#618);
#187=VERTEX_POINT('',#620);
#188=VERTEX_POINT('',#624);
#189=VERTEX_POINT('',#626);
#190=VERTEX_POINT('',#630);
#191=VERTEX_POINT('',#632);
#192=VERTEX_POINT('',#636);
#193=VERTEX_POINT('',#638);
#194=VERTEX_POINT('',#642);
#195=VERTEX_POINT('',#644);
#196=VERTEX_POINT('',#648);
#197=VERTEX_POINT('',#650);
#198=VERTEX_POINT('',#654);
#199=VERTEX_POINT('',#656);
#200=VERTEX_POINT('',#660);
#201=VERTEX_POINT('',#662);
#202=VERTEX_POINT('',#667);
#203=VERTEX_POINT('',#668);
#204=VERTEX_POINT('',#670);
#205=VERTEX_POINT('',#672);
#206=VERTEX_POINT('',#676);
#207=VERTEX_POINT('',#678);
#208=VERTEX_POINT('',#680);
#209=VERTEX_POINT('',#682);
#210=VERTEX_POINT('',#684);
#211=VERTEX_POINT('',#686);
#212=VERTEX_POINT('',#690);
#213=VERTEX_POINT('',#692);
#214=VERTEX_POINT('',#696);
#215=VERTEX_POINT('',#698);
#216=VERTEX_POINT('',#702);
#217=VERTEX_POINT('',#704);
#218=EDGE_CURVE('',#182,#182,#154,.T.);
#219=EDGE_CURVE('',#182,#183,#102,.T.);
#220=EDGE_CURVE('',#183,#183,#155,.T.);
#221=EDGE_CURVE('',#184,#184,#156,.T.);
#222=EDGE_CURVE('',#184,#185,#103,.T.);
#223=EDGE_CURVE('',#185,#185,#157,.T.);
#224=EDGE_CURVE('',#186,#186,#158,.T.);
#225=EDGE_CURVE('',#186,#187,#104,.T.);
#226=EDGE_CURVE('',#187,#187,#159,.T.);
#227=EDGE_CURVE('',#188,#188,#160,.T.);
#228=EDGE_CURVE('',#188,#189,#105,.T.);
#229=EDGE_CURVE('',#189,#189,#161,.T.);
#230=EDGE_CURVE('',#190,#190,#162,.T.);
#231=EDGE_CURVE('',#190,#191,#106,.T.);
#232=EDGE_CURVE('',#191,#191,#163,.T.);
#233=EDGE_CURVE('',#192,#192,#164,.T.);
#234=EDGE_CURVE('',#192,#193,#107,.T.);
#235=EDGE_CURVE('',#193,#193,#165,.T.);
#236=EDGE_CURVE('',#194,#194,#166,.T.);
#237=EDGE_CURVE('',#194,#195,#108,.T.);
#238=EDGE_CURVE('',#195,#195,#167,.T.);
#239=EDGE_CURVE('',#196,#196,#168,.T.);
#240=EDGE_CURVE('',#196,#197,#109,.T.);
#241=EDGE_CURVE('',#197,#197,#169,.T.);
#242=EDGE_CURVE('',#198,#198,#170,.T.);
#243=EDGE_CURVE('',#198,#199,#110,.T.);
#244=EDGE_CURVE('',#199,#199,#171,.T.);
#245=EDGE_CURVE('',#200,#200,#172,.T.);
#246=EDGE_CURVE('',#200,#201,#111,.T.);
#247=EDGE_CURVE('',#201,#201,#173,.T.);
#248=EDGE_CURVE('',#202,#203,#112,.T.);
#249=EDGE_CURVE('',#204,#202,#174,.T.);
#250=EDGE_CURVE('',#204,#205,#113,.T.);
#251=EDGE_CURVE('',#203,#205,#175,.T.);
#252=EDGE_CURVE('',#205,#206,#114,.T.);
#253=EDGE_CURVE('',#206,#207,#176,.T.);
#254=EDGE_CURVE('',#208,#207,#115,.T.);
#255=EDGE_CURVE('',#208,#209,#177,.T.);
#256=EDGE_CURVE('',#210,#209,#116,.T.);
#257=EDGE_CURVE('',#210,#211,#178,.T.);
#258=EDGE_CURVE('',#203,#211,#117,.T.);
#259=EDGE_CURVE('',#206,#212,#118,.T.);
#260=EDGE_CURVE('',#213,#212,#179,.T.);
#261=EDGE_CURVE('',#207,#213,#119,.T.);
#262=EDGE_CURVE('',#210,#214,#120,.T.);
#263=EDGE_CURVE('',#215,#214,#180,.T.);
#264=EDGE_CURVE('',#211,#215,#121,.T.);
#265=EDGE_CURVE('',#216,#209,#122,.T.);
#266=EDGE_CURVE('',#217,#208,#123,.T.);
#267=EDGE_CURVE('',#216,#217,#181,.T.);
#268=EDGE_CURVE('',#215,#202,#124,.T.);
#269=EDGE_CURVE('',#214,#216,#125,.T.);
#270=EDGE_CURVE('',#213,#217,#126,.T.);
#271=EDGE_CURVE('',#204,#212,#127,.T.);
#272=ORIENTED_EDGE('',*,*,#218,.F.);
#273=ORIENTED_EDGE('',*,*,#219,.T.);
#274=ORIENTED_EDGE('',*,*,#220,.F.);
#275=ORIENTED_EDGE('',*,*,#219,.F.);
#276=ORIENTED_EDGE('',*,*,#221,.F.);
#277=ORIENTED_EDGE('',*,*,#222,.T.);
#278=ORIENTED_EDGE('',*,*,#223,.F.);
#279=ORIENTED_EDGE('',*,*,#222,.F.);
#280=ORIENTED_EDGE('',*,*,#224,.F.);
#281=ORIENTED_EDGE('',*,*,#225,.T.);
#282=ORIENTED_EDGE('',*,*,#226,.F.);
#283=ORIENTED_EDGE('',*,*,#225,.F.);
#284=ORIENTED_EDGE('',*,*,#227,.F.);
#285=ORIENTED_EDGE('',*,*,#228,.T.);
#286=ORIENTED_EDGE('',*,*,#229,.F.);
#287=ORIENTED_EDGE('',*,*,#228,.F.);
#288=ORIENTED_EDGE('',*,*,#230,.F.);
#289=ORIENTED_EDGE('',*,*,#231,.T.);
#290=ORIENTED_EDGE('',*,*,#232,.F.);
#291=ORIENTED_EDGE('',*,*,#231,.F.);
#292=ORIENTED_EDGE('',*,*,#233,.F.);
#293=ORIENTED_EDGE('',*,*,#234,.T.);
#294=ORIENTED_EDGE('',*,*,#235,.F.);
#295=ORIENTED_EDGE('',*,*,#234,.F.);
#296=ORIENTED_EDGE('',*,*,#236,.F.);
#297=ORIENTED_EDGE('',*,*,#237,.T.);
#298=ORIENTED_EDGE('',*,*,#238,.F.);
#299=ORIENTED_EDGE('',*,*,#237,.F.);
#300=ORIENTED_EDGE('',*,*,#239,.F.);
#301=ORIENTED_EDGE('',*,*,#240,.T.);
#302=ORIENTED_EDGE('',*,*,#241,.F.);
#303=ORIENTED_EDGE('',*,*,#240,.F.);
#304=ORIENTED_EDGE('',*,*,#242,.F.);
#305=ORIENTED_EDGE('',*,*,#243,.T.);
#306=ORIENTED_EDGE('',*,*,#244,.F.);
#307=ORIENTED_EDGE('',*,*,#243,.F.);
#308=ORIENTED_EDGE('',*,*,#245,.F.);
#309=ORIENTED_EDGE('',*,*,#246,.T.);
#310=ORIENTED_EDGE('',*,*,#247,.T.);
#311=ORIENTED_EDGE('',*,*,#246,.F.);
#312=ORIENTED_EDGE('',*,*,#247,.F.);
#313=ORIENTED_EDGE('',*,*,#218,.T.);
#314=ORIENTED_EDGE('',*,*,#248,.F.);
#315=ORIENTED_EDGE('',*,*,#249,.F.);
#316=ORIENTED_EDGE('',*,*,#250,.T.);
#317=ORIENTED_EDGE('',*,*,#251,.F.);
#318=ORIENTED_EDGE('',*,*,#252,.T.);
#319=ORIENTED_EDGE('',*,*,#253,.T.);
#320=ORIENTED_EDGE('',*,*,#254,.F.);
#321=ORIENTED_EDGE('',*,*,#255,.T.);
#322=ORIENTED_EDGE('',*,*,#256,.F.);
#323=ORIENTED_EDGE('',*,*,#257,.T.);
#324=ORIENTED_EDGE('',*,*,#258,.F.);
#325=ORIENTED_EDGE('',*,*,#251,.T.);
#326=ORIENTED_EDGE('',*,*,#223,.T.);
#327=ORIENTED_EDGE('',*,*,#244,.T.);
#328=ORIENTED_EDGE('',*,*,#241,.T.);
#329=ORIENTED_EDGE('',*,*,#238,.T.);
#330=ORIENTED_EDGE('',*,*,#235,.T.);
#331=ORIENTED_EDGE('',*,*,#232,.T.);
#332=ORIENTED_EDGE('',*,*,#229,.T.);
#333=ORIENTED_EDGE('',*,*,#226,.T.);
#334=ORIENTED_EDGE('',*,*,#220,.T.);
#335=ORIENTED_EDGE('',*,*,#259,.T.);
#336=ORIENTED_EDGE('',*,*,#260,.F.);
#337=ORIENTED_EDGE('',*,*,#261,.F.);
#338=ORIENTED_EDGE('',*,*,#253,.F.);
#339=ORIENTED_EDGE('',*,*,#262,.T.);
#340=ORIENTED_EDGE('',*,*,#263,.F.);
#341=ORIENTED_EDGE('',*,*,#264,.F.);
#342=ORIENTED_EDGE('',*,*,#257,.F.);
#343=ORIENTED_EDGE('',*,*,#265,.T.);
#344=ORIENTED_EDGE('',*,*,#255,.F.);
#345=ORIENTED_EDGE('',*,*,#266,.F.);
#346=ORIENTED_EDGE('',*,*,#267,.F.);
#347=ORIENTED_EDGE('',*,*,#268,.F.);
#348=ORIENTED_EDGE('',*,*,#263,.T.);
#349=ORIENTED_EDGE('',*,*,#269,.T.);
#350=ORIENTED_EDGE('',*,*,#267,.T.);
#351=ORIENTED_EDGE('',*,*,#270,.F.);
#352=ORIENTED_EDGE('',*,*,#260,.T.);
#353=ORIENTED_EDGE('',*,*,#271,.F.);
#354=ORIENTED_EDGE('',*,*,#249,.T.);
#355=ORIENTED_EDGE('',*,*,#224,.T.);
#356=ORIENTED_EDGE('',*,*,#227,.T.);
#357=ORIENTED_EDGE('',*,*,#230,.T.);
#358=ORIENTED_EDGE('',*,*,#233,.T.);
#359=ORIENTED_EDGE('',*,*,#236,.T.);
#360=ORIENTED_EDGE('',*,*,#239,.T.);
#361=ORIENTED_EDGE('',*,*,#242,.T.);
#362=ORIENTED_EDGE('',*,*,#245,.T.);
#363=ORIENTED_EDGE('',*,*,#221,.T.);
#364=ORIENTED_EDGE('',*,*,#256,.T.);
#365=ORIENTED_EDGE('',*,*,#265,.F.);
#366=ORIENTED_EDGE('',*,*,#269,.F.);
#367=ORIENTED_EDGE('',*,*,#262,.F.);
#368=ORIENTED_EDGE('',*,*,#271,.T.);
#369=ORIENTED_EDGE('',*,*,#259,.F.);
#370=ORIENTED_EDGE('',*,*,#252,.F.);
#371=ORIENTED_EDGE('',*,*,#250,.F.);
#372=ORIENTED_EDGE('',*,*,#248,.T.);
#373=ORIENTED_EDGE('',*,*,#258,.T.);
#374=ORIENTED_EDGE('',*,*,#264,.T.);
#375=ORIENTED_EDGE('',*,*,#268,.T.);
#376=ORIENTED_EDGE('',*,*,#261,.T.);
#377=ORIENTED_EDGE('',*,*,#270,.T.);
#378=ORIENTED_EDGE('',*,*,#266,.T.);
#379=ORIENTED_EDGE('',*,*,#254,.T.);
#380=CYLINDRICAL_SURFACE('',#429,20.6);
#381=CYLINDRICAL_SURFACE('',#432,1.7);
#382=CYLINDRICAL_SURFACE('',#435,1.7);
#383=CYLINDRICAL_SURFACE('',#438,1.7);
#384=CYLINDRICAL_SURFACE('',#441,1.7);
#385=CYLINDRICAL_SURFACE('',#444,2.2);
#386=CYLINDRICAL_SURFACE('',#447,2.2);
#387=CYLINDRICAL_SURFACE('',#450,2.2);
#388=CYLINDRICAL_SURFACE('',#453,2.2);
#389=CYLINDRICAL_SURFACE('',#456,26.);
#390=CYLINDRICAL_SURFACE('',#460,10.);
#391=CYLINDRICAL_SURFACE('',#467,10.);
#392=CYLINDRICAL_SURFACE('',#469,10.);
#393=CYLINDRICAL_SURFACE('',#471,10.);
#394=ADVANCED_FACE('',(#41),#380,.F.);
#395=ADVANCED_FACE('',(#42),#381,.F.);
#396=ADVANCED_FACE('',(#43),#382,.F.);
#397=ADVANCED_FACE('',(#44),#383,.F.);
#398=ADVANCED_FACE('',(#45),#384,.F.);
#399=ADVANCED_FACE('',(#46),#385,.F.);
#400=ADVANCED_FACE('',(#47),#386,.F.);
#401=ADVANCED_FACE('',(#48),#387,.F.);
#402=ADVANCED_FACE('',(#49),#388,.F.);
#403=ADVANCED_FACE('',(#50),#389,.F.);
#404=ADVANCED_FACE('',(#51,#15),#34,.F.);
#405=ADVANCED_FACE('',(#52),#390,.T.);
#406=ADVANCED_FACE('',(#53,#16,#17,#18,#19,#20,#21,#22,#23,#24),#35,.F.);
#407=ADVANCED_FACE('',(#54),#391,.T.);
#408=ADVANCED_FACE('',(#55),#392,.T.);
#409=ADVANCED_FACE('',(#56),#393,.T.);
#410=ADVANCED_FACE('',(#57,#25,#26,#27,#28,#29,#30,#31,#32,#33),#36,.F.);
#411=ADVANCED_FACE('',(#58),#37,.F.);
#412=ADVANCED_FACE('',(#59),#38,.F.);
#413=ADVANCED_FACE('',(#60),#39,.T.);
#414=ADVANCED_FACE('',(#61),#40,.F.);
#415=CLOSED_SHELL('',(#394,#395,#396,#397,#398,#399,#400,#401,#402,#403,
#404,#405,#406,#407,#408,#409,#410,#411,#412,#413,#414));
#416=DERIVED_UNIT_ELEMENT(#418,1.);
#417=DERIVED_UNIT_ELEMENT(#721,-3.);
#418=(
MASS_UNIT()
NAMED_UNIT(*)
SI_UNIT(.KILO.,.GRAM.)
);
#419=DERIVED_UNIT((#416,#417));
#420=MEASURE_REPRESENTATION_ITEM('density measure',
POSITIVE_RATIO_MEASURE(7850.),#419);
#421=PROPERTY_DEFINITION_REPRESENTATION(#426,#423);
#422=PROPERTY_DEFINITION_REPRESENTATION(#427,#424);
#423=REPRESENTATION('material name',(#425),#718);
#424=REPRESENTATION('density',(#420),#718);
#425=DESCRIPTIVE_REPRESENTATION_ITEM('Steel','Steel');
#426=PROPERTY_DEFINITION('material property','material name',#728);
#427=PROPERTY_DEFINITION('material property','density of part',#728);
#428=AXIS2_PLACEMENT_3D('',#604,#478,#479);
#429=AXIS2_PLACEMENT_3D('',#605,#480,#481);
#430=AXIS2_PLACEMENT_3D('',#607,#482,#483);
#431=AXIS2_PLACEMENT_3D('',#610,#485,#486);
#432=AXIS2_PLACEMENT_3D('',#611,#487,#488);
#433=AXIS2_PLACEMENT_3D('',#613,#489,#490);
#434=AXIS2_PLACEMENT_3D('',#616,#492,#493);
#435=AXIS2_PLACEMENT_3D('',#617,#494,#495);
#436=AXIS2_PLACEMENT_3D('',#619,#496,#497);
#437=AXIS2_PLACEMENT_3D('',#622,#499,#500);
#438=AXIS2_PLACEMENT_3D('',#623,#501,#502);
#439=AXIS2_PLACEMENT_3D('',#625,#503,#504);
#440=AXIS2_PLACEMENT_3D('',#628,#506,#507);
#441=AXIS2_PLACEMENT_3D('',#629,#508,#509);
#442=AXIS2_PLACEMENT_3D('',#631,#510,#511);
#443=AXIS2_PLACEMENT_3D('',#634,#513,#514);
#444=AXIS2_PLACEMENT_3D('',#635,#515,#516);
#445=AXIS2_PLACEMENT_3D('',#637,#517,#518);
#446=AXIS2_PLACEMENT_3D('',#640,#520,#521);
#447=AXIS2_PLACEMENT_3D('',#641,#522,#523);
#448=AXIS2_PLACEMENT_3D('',#643,#524,#525);
#449=AXIS2_PLACEMENT_3D('',#646,#527,#528);
#450=AXIS2_PLACEMENT_3D('',#647,#529,#530);
#451=AXIS2_PLACEMENT_3D('',#649,#531,#532);
#452=AXIS2_PLACEMENT_3D('',#652,#534,#535);
#453=AXIS2_PLACEMENT_3D('',#653,#536,#537);
#454=AXIS2_PLACEMENT_3D('',#655,#538,#539);
#455=AXIS2_PLACEMENT_3D('',#658,#541,#542);
#456=AXIS2_PLACEMENT_3D('',#659,#543,#544);
#457=AXIS2_PLACEMENT_3D('',#661,#545,#546);
#458=AXIS2_PLACEMENT_3D('',#664,#548,#549);
#459=AXIS2_PLACEMENT_3D('',#665,#550,#551);
#460=AXIS2_PLACEMENT_3D('',#666,#552,#553);
#461=AXIS2_PLACEMENT_3D('',#671,#555,#556);
#462=AXIS2_PLACEMENT_3D('',#674,#558,#559);
#463=AXIS2_PLACEMENT_3D('',#675,#560,#561);
#464=AXIS2_PLACEMENT_3D('',#679,#563,#564);
#465=AXIS2_PLACEMENT_3D('',#683,#566,#567);
#466=AXIS2_PLACEMENT_3D('',#687,#569,#570);
#467=AXIS2_PLACEMENT_3D('',#689,#572,#573);
#468=AXIS2_PLACEMENT_3D('',#693,#575,#576);
#469=AXIS2_PLACEMENT_3D('',#695,#578,#579);
#470=AXIS2_PLACEMENT_3D('',#699,#581,#582);
#471=AXIS2_PLACEMENT_3D('',#701,#584,#585);
#472=AXIS2_PLACEMENT_3D('',#706,#588,#589);
#473=AXIS2_PLACEMENT_3D('',#707,#590,#591);
#474=AXIS2_PLACEMENT_3D('',#712,#596,#597);
#475=AXIS2_PLACEMENT_3D('',#713,#598,#599);
#476=AXIS2_PLACEMENT_3D('',#714,#600,#601);
#477=AXIS2_PLACEMENT_3D('',#715,#602,#603);
#478=DIRECTION('axis',(0.,0.,1.));
#479=DIRECTION('refdir',(1.,0.,0.));
#480=DIRECTION('center_axis',(0.,1.,0.));
#481=DIRECTION('ref_axis',(1.,0.,0.));
#482=DIRECTION('center_axis',(0.,1.,0.));
#483=DIRECTION('ref_axis',(1.,0.,0.));
#484=DIRECTION('',(0.,1.,0.));
#485=DIRECTION('center_axis',(0.,-1.,0.));
#486=DIRECTION('ref_axis',(1.,0.,0.));
#487=DIRECTION('center_axis',(0.,1.,0.));
#488=DIRECTION('ref_axis',(1.,0.,0.));
#489=DIRECTION('center_axis',(0.,1.,0.));
#490=DIRECTION('ref_axis',(1.,0.,0.));
#491=DIRECTION('',(0.,1.,0.));
#492=DIRECTION('center_axis',(0.,-1.,0.));
#493=DIRECTION('ref_axis',(1.,0.,0.));
#494=DIRECTION('center_axis',(0.,1.,0.));
#495=DIRECTION('ref_axis',(1.,0.,0.));
#496=DIRECTION('center_axis',(0.,1.,0.));
#497=DIRECTION('ref_axis',(1.,0.,0.));
#498=DIRECTION('',(0.,1.,0.));
#499=DIRECTION('center_axis',(0.,-1.,0.));
#500=DIRECTION('ref_axis',(1.,0.,0.));
#501=DIRECTION('center_axis',(0.,1.,0.));
#502=DIRECTION('ref_axis',(1.,0.,0.));
#503=DIRECTION('center_axis',(0.,1.,0.));
#504=DIRECTION('ref_axis',(1.,0.,0.));
#505=DIRECTION('',(0.,1.,0.));
#506=DIRECTION('center_axis',(0.,-1.,0.));
#507=DIRECTION('ref_axis',(1.,0.,0.));
#508=DIRECTION('center_axis',(0.,1.,0.));
#509=DIRECTION('ref_axis',(1.,0.,0.));
#510=DIRECTION('center_axis',(0.,1.,0.));
#511=DIRECTION('ref_axis',(1.,0.,0.));
#512=DIRECTION('',(0.,1.,0.));
#513=DIRECTION('center_axis',(0.,-1.,0.));
#514=DIRECTION('ref_axis',(1.,0.,0.));
#515=DIRECTION('center_axis',(0.,1.,0.));
#516=DIRECTION('ref_axis',(1.,0.,0.));
#517=DIRECTION('center_axis',(0.,1.,0.));
#518=DIRECTION('ref_axis',(1.,0.,0.));
#519=DIRECTION('',(0.,1.,0.));
#520=DIRECTION('center_axis',(0.,-1.,0.));
#521=DIRECTION('ref_axis',(1.,0.,0.));
#522=DIRECTION('center_axis',(0.,1.,0.));
#523=DIRECTION('ref_axis',(1.,0.,0.));
#524=DIRECTION('center_axis',(0.,1.,0.));
#525=DIRECTION('ref_axis',(1.,0.,0.));
#526=DIRECTION('',(0.,1.,0.));
#527=DIRECTION('center_axis',(0.,-1.,0.));
#528=DIRECTION('ref_axis',(1.,0.,0.));
#529=DIRECTION('center_axis',(0.,1.,0.));
#530=DIRECTION('ref_axis',(1.,0.,0.));
#531=DIRECTION('center_axis',(0.,1.,0.));
#532=DIRECTION('ref_axis',(1.,0.,0.));
#533=DIRECTION('',(0.,1.,0.));
#534=DIRECTION('center_axis',(0.,-1.,0.));
#535=DIRECTION('ref_axis',(1.,0.,0.));
#536=DIRECTION('center_axis',(0.,1.,0.));
#537=DIRECTION('ref_axis',(1.,0.,0.));
#538=DIRECTION('center_axis',(0.,1.,0.));
#539=DIRECTION('ref_axis',(1.,0.,0.));
#540=DIRECTION('',(0.,1.,0.));
#541=DIRECTION('center_axis',(0.,-1.,0.));
#542=DIRECTION('ref_axis',(1.,0.,0.));
#543=DIRECTION('center_axis',(0.,1.,0.));
#544=DIRECTION('ref_axis',(1.,0.,0.));
#545=DIRECTION('center_axis',(0.,1.,0.));
#546=DIRECTION('ref_axis',(1.,0.,0.));
#547=DIRECTION('',(0.,1.,0.));
#548=DIRECTION('center_axis',(0.,1.,0.));
#549=DIRECTION('ref_axis',(1.,0.,0.));
#550=DIRECTION('center_axis',(0.,1.,0.));
#551=DIRECTION('ref_axis',(1.,0.,0.));
#552=DIRECTION('center_axis',(0.,1.,0.));
#553=DIRECTION('ref_axis',(1.,0.,0.));
#554=DIRECTION('',(0.,1.,0.));
#555=DIRECTION('center_axis',(0.,-1.,0.));
#556=DIRECTION('ref_axis',(1.,0.,0.));
#557=DIRECTION('',(0.,1.,0.));
#558=DIRECTION('center_axis',(0.,1.,0.));
#559=DIRECTION('ref_axis',(1.,0.,0.));
#560=DIRECTION('center_axis',(0.,-1.,0.));
#561=DIRECTION('ref_axis',(0.,0.,-1.));
#562=DIRECTION('',(0.,0.,-1.));
#563=DIRECTION('center_axis',(0.,1.,0.));
#564=DIRECTION('ref_axis',(1.,0.,0.));
#565=DIRECTION('',(1.,0.,0.));
#566=DIRECTION('center_axis',(0.,1.,0.));
#567=DIRECTION('ref_axis',(1.,0.,0.));
#568=DIRECTION('',(0.,0.,-1.));
#569=DIRECTION('center_axis',(0.,1.,0.));
#570=DIRECTION('ref_axis',(1.,0.,0.));
#571=DIRECTION('',(-1.,0.,0.));
#572=DIRECTION('center_axis',(0.,1.,0.));
#573=DIRECTION('ref_axis',(1.,0.,0.));
#574=DIRECTION('',(0.,-1.,0.));
#575=DIRECTION('center_axis',(0.,-1.,0.));
#576=DIRECTION('ref_axis',(1.,0.,0.));
#577=DIRECTION('',(0.,-1.,0.));
#578=DIRECTION('center_axis',(0.,1.,0.));
#579=DIRECTION('ref_axis',(1.,0.,0.));
#580=DIRECTION('',(0.,-1.,0.));
#581=DIRECTION('center_axis',(0.,-1.,0.));
#582=DIRECTION('ref_axis',(1.,0.,0.));
#583=DIRECTION('',(0.,-1.,0.));
#584=DIRECTION('center_axis',(0.,1.,0.));
#585=DIRECTION('ref_axis',(1.,0.,0.));
#586=DIRECTION('',(0.,1.,0.));
#587=DIRECTION('',(0.,1.,0.));
#588=DIRECTION('center_axis',(0.,-1.,0.));
#589=DIRECTION('ref_axis',(1.,0.,0.));
#590=DIRECTION('center_axis',(0.,1.,0.));
#591=DIRECTION('ref_axis',(0.,0.,1.));
#592=DIRECTION('',(1.,0.,0.));
#593=DIRECTION('',(0.,0.,-1.));
#594=DIRECTION('',(-1.,0.,0.));
#595=DIRECTION('',(0.,0.,-1.));
#596=DIRECTION('center_axis',(1.,0.,0.));
#597=DIRECTION('ref_axis',(0.,0.,-1.));
#598=DIRECTION('center_axis',(-1.,0.,0.));
#599=DIRECTION('ref_axis',(0.,0.,1.));
#600=DIRECTION('center_axis',(0.,0.,1.));
#601=DIRECTION('ref_axis',(1.,0.,0.));
#602=DIRECTION('center_axis',(0.,0.,1.));
#603=DIRECTION('ref_axis',(1.,0.,0.));
#604=CARTESIAN_POINT('',(0.,0.,0.));
#605=CARTESIAN_POINT('Origin',(0.,-79.7,240.));
#606=CARTESIAN_POINT('',(-20.6,-81.,240.));
#607=CARTESIAN_POINT('Origin',(0.,-81.,240.));
#608=CARTESIAN_POINT('',(-20.6,-78.,240.));
#609=CARTESIAN_POINT('',(-20.6,-79.7,240.));
#610=CARTESIAN_POINT('Origin',(0.,-78.,240.));
#611=CARTESIAN_POINT('Origin',(33.,-81.,273.));
#612=CARTESIAN_POINT('',(31.3,-84.,273.));
#613=CARTESIAN_POINT('Origin',(33.,-84.,273.));
#614=CARTESIAN_POINT('',(31.3,-78.,273.));
#615=CARTESIAN_POINT('',(31.3,-81.,273.));
#616=CARTESIAN_POINT('Origin',(33.,-78.,273.));
#617=CARTESIAN_POINT('Origin',(33.,-81.,207.));
#618=CARTESIAN_POINT('',(31.3,-84.,207.));
#619=CARTESIAN_POINT('Origin',(33.,-84.,207.));
#620=CARTESIAN_POINT('',(31.3,-78.,207.));
#621=CARTESIAN_POINT('',(31.3,-81.,207.));
#622=CARTESIAN_POINT('Origin',(33.,-78.,207.));
#623=CARTESIAN_POINT('Origin',(-33.,-81.,273.));
#624=CARTESIAN_POINT('',(-34.7,-84.,273.));
#625=CARTESIAN_POINT('Origin',(-33.,-84.,273.));
#626=CARTESIAN_POINT('',(-34.7,-78.,273.));
#627=CARTESIAN_POINT('',(-34.7,-81.,273.));
#628=CARTESIAN_POINT('Origin',(-33.,-78.,273.));
#629=CARTESIAN_POINT('Origin',(-33.,-81.,207.));
#630=CARTESIAN_POINT('',(-34.7,-84.,207.));
#631=CARTESIAN_POINT('Origin',(-33.,-84.,207.));
#632=CARTESIAN_POINT('',(-34.7,-78.,207.));
#633=CARTESIAN_POINT('',(-34.7,-81.,207.));
#634=CARTESIAN_POINT('Origin',(-33.,-78.,207.));
#635=CARTESIAN_POINT('Origin',(23.57,-81.,263.57));
#636=CARTESIAN_POINT('',(21.37,-84.,263.57));
#637=CARTESIAN_POINT('Origin',(23.57,-84.,263.57));
#638=CARTESIAN_POINT('',(21.37,-78.,263.57));
#639=CARTESIAN_POINT('',(21.37,-81.,263.57));
#640=CARTESIAN_POINT('Origin',(23.57,-78.,263.57));
#641=CARTESIAN_POINT('Origin',(23.57,-81.,216.43));
#642=CARTESIAN_POINT('',(21.37,-84.,216.43));
#643=CARTESIAN_POINT('Origin',(23.57,-84.,216.43));
#644=CARTESIAN_POINT('',(21.37,-78.,216.43));
#645=CARTESIAN_POINT('',(21.37,-81.,216.43));
#646=CARTESIAN_POINT('Origin',(23.57,-78.,216.43));
#647=CARTESIAN_POINT('Origin',(-23.57,-81.,263.57));
#648=CARTESIAN_POINT('',(-25.77,-84.,263.57));
#649=CARTESIAN_POINT('Origin',(-23.57,-84.,263.57));
#650=CARTESIAN_POINT('',(-25.77,-78.,263.57));
#651=CARTESIAN_POINT('',(-25.77,-81.,263.57));
#652=CARTESIAN_POINT('Origin',(-23.57,-78.,263.57));
#653=CARTESIAN_POINT('Origin',(-23.57,-81.,216.43));
#654=CARTESIAN_POINT('',(-25.77,-84.,216.43));
#655=CARTESIAN_POINT('Origin',(-23.57,-84.,216.43));
#656=CARTESIAN_POINT('',(-25.77,-78.,216.43));
#657=CARTESIAN_POINT('',(-25.77,-81.,216.43));
#658=CARTESIAN_POINT('Origin',(-23.57,-78.,216.43));
#659=CARTESIAN_POINT('Origin',(0.,-83.,240.));
#660=CARTESIAN_POINT('',(-26.,-84.,240.));
#661=CARTESIAN_POINT('Origin',(0.,-84.,240.));
#662=CARTESIAN_POINT('',(-26.,-81.,240.));
#663=CARTESIAN_POINT('',(-26.,-83.,240.));
#664=CARTESIAN_POINT('Origin',(0.,-81.,240.));
#665=CARTESIAN_POINT('Origin',(0.,-81.,240.));
#666=CARTESIAN_POINT('Origin',(30.,-81.,270.));
#667=CARTESIAN_POINT('',(30.,-84.,280.));
#668=CARTESIAN_POINT('',(30.,-78.,280.));
#669=CARTESIAN_POINT('',(30.,-81.,280.));
#670=CARTESIAN_POINT('',(40.,-84.,270.));
#671=CARTESIAN_POINT('Origin',(30.,-84.,270.));
#672=CARTESIAN_POINT('',(40.,-78.,270.));
#673=CARTESIAN_POINT('',(40.,-81.,270.));
#674=CARTESIAN_POINT('Origin',(30.,-78.,270.));
#675=CARTESIAN_POINT('Origin',(0.,-78.,240.));
#676=CARTESIAN_POINT('',(40.,-78.,210.));
#677=CARTESIAN_POINT('',(40.,-78.,240.));
#678=CARTESIAN_POINT('',(30.,-78.,200.));
#679=CARTESIAN_POINT('Origin',(30.,-78.,210.));
#680=CARTESIAN_POINT('',(-30.,-78.,200.));
#681=CARTESIAN_POINT('',(0.,-78.,200.));
#682=CARTESIAN_POINT('',(-40.,-78.,210.));
#683=CARTESIAN_POINT('Origin',(-30.,-78.,210.));
#684=CARTESIAN_POINT('',(-40.,-78.,270.));
#685=CARTESIAN_POINT('',(-40.,-78.,240.));
#686=CARTESIAN_POINT('',(-30.,-78.,280.));
#687=CARTESIAN_POINT('Origin',(-30.,-78.,270.));
#688=CARTESIAN_POINT('',(0.,-78.,280.));
#689=CARTESIAN_POINT('Origin',(30.,-81.,210.));
#690=CARTESIAN_POINT('',(40.,-84.,210.));
#691=CARTESIAN_POINT('',(40.,-81.,210.));
#692=CARTESIAN_POINT('',(30.,-84.,200.));
#693=CARTESIAN_POINT('Origin',(30.,-84.,210.));
#694=CARTESIAN_POINT('',(30.,-81.,200.));
#695=CARTESIAN_POINT('Origin',(-30.,-81.,270.));
#696=CARTESIAN_POINT('',(-40.,-84.,270.));
#697=CARTESIAN_POINT('',(-40.,-81.,270.));
#698=CARTESIAN_POINT('',(-30.,-84.,280.));
#699=CARTESIAN_POINT('Origin',(-30.,-84.,270.));
#700=CARTESIAN_POINT('',(-30.,-81.,280.));
#701=CARTESIAN_POINT('Origin',(-30.,-81.,210.));
#702=CARTESIAN_POINT('',(-40.,-84.,210.));
#703=CARTESIAN_POINT('',(-40.,-81.,210.));
#704=CARTESIAN_POINT('',(-30.,-84.,200.));
#705=CARTESIAN_POINT('',(-30.,-81.,200.));
#706=CARTESIAN_POINT('Origin',(-30.,-84.,210.));
#707=CARTESIAN_POINT('Origin',(0.,-84.,240.));
#708=CARTESIAN_POINT('',(0.,-84.,280.));
#709=CARTESIAN_POINT('',(-40.,-84.,240.));
#710=CARTESIAN_POINT('',(0.,-84.,200.));
#711=CARTESIAN_POINT('',(40.,-84.,240.));
#712=CARTESIAN_POINT('Origin',(-40.,-81.,240.));
#713=CARTESIAN_POINT('Origin',(40.,-81.,240.));
#714=CARTESIAN_POINT('Origin',(0.,-81.,280.));
#715=CARTESIAN_POINT('Origin',(0.,-81.,200.));
#716=UNCERTAINTY_MEASURE_WITH_UNIT(LENGTH_MEASURE(0.01),#720,
'DISTANCE_ACCURACY_VALUE',
'Maximum model space distance between geometric entities at asserted c
onnectivities');
#717=UNCERTAINTY_MEASURE_WITH_UNIT(LENGTH_MEASURE(0.01),#720,
'DISTANCE_ACCURACY_VALUE',
'Maximum model space distance between geometric entities at asserted c
onnectivities');
#718=(
GEOMETRIC_REPRESENTATION_CONTEXT(3)
GLOBAL_UNCERTAINTY_ASSIGNED_CONTEXT((#716))
GLOBAL_UNIT_ASSIGNED_CONTEXT((#720,#722,#723))
REPRESENTATION_CONTEXT('','3D')
);
#719=(
GEOMETRIC_REPRESENTATION_CONTEXT(3)
GLOBAL_UNCERTAINTY_ASSIGNED_CONTEXT((#717))
GLOBAL_UNIT_ASSIGNED_CONTEXT((#720,#722,#723))
REPRESENTATION_CONTEXT('','3D')
);
#720=(
LENGTH_UNIT()
NAMED_UNIT(*)
SI_UNIT(.MILLI.,.METRE.)
);
#721=(
LENGTH_UNIT()
NAMED_UNIT(*)
SI_UNIT($,.METRE.)
);
#722=(
NAMED_UNIT(*)
PLANE_ANGLE_UNIT()
SI_UNIT($,.RADIAN.)
);
#723=(
NAMED_UNIT(*)
SI_UNIT($,.STERADIAN.)
SOLID_ANGLE_UNIT()
);
#724=SHAPE_DEFINITION_REPRESENTATION(#725,#726);
#725=PRODUCT_DEFINITION_SHAPE('',$,#728);
#726=SHAPE_REPRESENTATION('',(#428),#718);
#727=PRODUCT_DEFINITION_CONTEXT('part definition',#732,'design');
#728=PRODUCT_DEFINITION('2026-08-30-16-33-54-566',
'EXPORT_TMP_PRINT_V010F_P106_J2_SteppedBearingRetain',#729,#727);
#729=PRODUCT_DEFINITION_FORMATION('',$,#734);
#730=PRODUCT_RELATED_PRODUCT_CATEGORY(
'EXPORT_TMP_PRINT_V010F_P106_J2_SteppedBearingRetain',
'EXPORT_TMP_PRINT_V010F_P106_J2_SteppedBearingRetain',(#734));
#731=APPLICATION_PROTOCOL_DEFINITION('international standard',
'automotive_design',2009,#732);
#732=APPLICATION_CONTEXT(
'Core Data for Automotive Mechanical Design Process');
#733=PRODUCT_CONTEXT('part definition',#732,'mechanical');
#734=PRODUCT('2026-08-30-16-33-54-566',
'EXPORT_TMP_PRINT_V010F_P106_J2_SteppedBearingRetain',$,(#733));
#735=PRESENTATION_STYLE_ASSIGNMENT((#736));
#736=SURFACE_STYLE_USAGE(.BOTH.,#737);
#737=SURFACE_SIDE_STYLE('',(#738));
#738=SURFACE_STYLE_FILL_AREA(#739);
#739=FILL_AREA_STYLE('Steel - Satin',(#740));
#740=FILL_AREA_STYLE_COLOUR('Steel - Satin',#741);
#741=COLOUR_RGB('Steel - Satin',0.627450980392157,0.627450980392157,0.627450980392157);
ENDSEC;
END-ISO-10303-21;
