ISO-10303-21;
HEADER;
/* Generated by software containing ST-Developer
 * from STEP Tools, Inc. (www.steptools.com) 
 */

FILE_DESCRIPTION(
/* description */ (''),
/* implementation_level */ '2;1');

FILE_NAME(
/* name */ 'PRINT_V010D_P107_J2_ActuatorServiceCover_M3x4.step',
/* time_stamp */ '2026-08-13T18:56:09+02:00',
/* author */ (''),
/* organization */ (''),
/* preprocessor_version */ 'ST-DEVELOPER v20.1',
/* originating_system */ 'Autodesk Translation Framework v15.8.0.0',
/* authorisation */ '');

FILE_SCHEMA (('AUTOMOTIVE_DESIGN { 1 0 10303 214 3 1 1 }'));
ENDSEC;

DATA;
#10=MECHANICAL_DESIGN_GEOMETRIC_PRESENTATION_REPRESENTATION('',(#13),#1755);
#11=SHAPE_REPRESENTATION_RELATIONSHIP('SRR','None',#1762,#12);
#12=ADVANCED_BREP_SHAPE_REPRESENTATION('',(#14),#1754);
#13=STYLED_ITEM('',(#1771),#14);
#14=MANIFOLD_SOLID_BREP('PRINT_V010D_P107_J2_ActuatorServiceCover_M3x4',
#1015);
#15=CYLINDRICAL_SURFACE('',#1046,1.45);
#16=CYLINDRICAL_SURFACE('',#1056,4.5);
#17=CYLINDRICAL_SURFACE('',#1058,4.5);
#18=CYLINDRICAL_SURFACE('',#1060,9.);
#19=CYLINDRICAL_SURFACE('',#1063,1.45);
#20=CYLINDRICAL_SURFACE('',#1073,4.5);
#21=CYLINDRICAL_SURFACE('',#1075,4.5);
#22=CYLINDRICAL_SURFACE('',#1077,5.);
#23=CYLINDRICAL_SURFACE('',#1081,1.45);
#24=CYLINDRICAL_SURFACE('',#1091,4.5);
#25=CYLINDRICAL_SURFACE('',#1093,4.5);
#26=CYLINDRICAL_SURFACE('',#1095,5.);
#27=CYLINDRICAL_SURFACE('',#1113,1.45);
#28=CYLINDRICAL_SURFACE('',#1122,4.5);
#29=CYLINDRICAL_SURFACE('',#1123,4.5);
#30=CYLINDRICAL_SURFACE('',#1124,9.);
#31=CYLINDRICAL_SURFACE('',#1125,5.);
#32=CYLINDRICAL_SURFACE('',#1129,5.);
#33=CYLINDRICAL_SURFACE('',#1134,9.);
#34=CYLINDRICAL_SURFACE('',#1135,9.);
#35=FACE_BOUND('',#168,.T.);
#36=FACE_BOUND('',#191,.T.);
#37=FACE_BOUND('',#192,.T.);
#38=FACE_BOUND('',#193,.T.);
#39=FACE_BOUND('',#194,.T.);
#40=FACE_BOUND('',#195,.T.);
#41=FACE_BOUND('',#208,.T.);
#42=FACE_BOUND('',#214,.T.);
#43=CIRCLE('',#1034,9.);
#44=CIRCLE('',#1036,9.);
#45=CIRCLE('',#1038,9.);
#46=CIRCLE('',#1040,9.);
#47=CIRCLE('',#1047,1.45);
#48=CIRCLE('',#1048,1.45);
#49=CIRCLE('',#1051,9.);
#50=CIRCLE('',#1052,4.5);
#51=CIRCLE('',#1054,5.);
#52=CIRCLE('',#1055,4.5);
#53=CIRCLE('',#1057,4.5);
#54=CIRCLE('',#1059,4.5);
#55=CIRCLE('',#1061,9.);
#56=CIRCLE('',#1062,9.);
#57=CIRCLE('',#1064,1.45);
#58=CIRCLE('',#1065,1.45);
#59=CIRCLE('',#1068,5.);
#60=CIRCLE('',#1069,4.5);
#61=CIRCLE('',#1071,9.);
#62=CIRCLE('',#1072,4.5);
#63=CIRCLE('',#1074,4.5);
#64=CIRCLE('',#1076,4.5);
#65=CIRCLE('',#1078,5.);
#66=CIRCLE('',#1079,5.);
#67=CIRCLE('',#1080,5.);
#68=CIRCLE('',#1082,1.45);
#69=CIRCLE('',#1083,1.45);
#70=CIRCLE('',#1086,5.);
#71=CIRCLE('',#1087,4.5);
#72=CIRCLE('',#1089,9.);
#73=CIRCLE('',#1090,4.5);
#74=CIRCLE('',#1092,4.5);
#75=CIRCLE('',#1094,4.5);
#76=CIRCLE('',#1096,5.);
#77=CIRCLE('',#1097,5.);
#78=CIRCLE('',#1098,5.);
#79=CIRCLE('',#1100,9.);
#80=CIRCLE('',#1101,9.);
#81=CIRCLE('',#1102,9.);
#82=CIRCLE('',#1103,4.5);
#83=CIRCLE('',#1104,9.);
#84=CIRCLE('',#1105,9.);
#85=CIRCLE('',#1106,9.);
#86=CIRCLE('',#1107,5.);
#87=CIRCLE('',#1108,5.);
#88=CIRCLE('',#1109,4.5);
#89=CIRCLE('',#1110,5.);
#90=CIRCLE('',#1111,5.);
#91=CIRCLE('',#1112,1.45);
#92=CIRCLE('',#1114,1.45);
#93=CIRCLE('',#1117,9.);
#94=CIRCLE('',#1118,4.5);
#95=CIRCLE('',#1120,5.);
#96=CIRCLE('',#1121,4.5);
#97=CIRCLE('',#1126,5.);
#98=CIRCLE('',#1130,5.);
#99=FACE_OUTER_BOUND('',#155,.T.);
#100=FACE_OUTER_BOUND('',#156,.T.);
#101=FACE_OUTER_BOUND('',#157,.T.);
#102=FACE_OUTER_BOUND('',#158,.T.);
#103=FACE_OUTER_BOUND('',#159,.T.);
#104=FACE_OUTER_BOUND('',#160,.T.);
#105=FACE_OUTER_BOUND('',#161,.T.);
#106=FACE_OUTER_BOUND('',#162,.T.);
#107=FACE_OUTER_BOUND('',#163,.T.);
#108=FACE_OUTER_BOUND('',#164,.T.);
#109=FACE_OUTER_BOUND('',#165,.T.);
#110=FACE_OUTER_BOUND('',#166,.T.);
#111=FACE_OUTER_BOUND('',#167,.T.);
#112=FACE_OUTER_BOUND('',#169,.T.);
#113=FACE_OUTER_BOUND('',#170,.T.);
#114=FACE_OUTER_BOUND('',#171,.T.);
#115=FACE_OUTER_BOUND('',#172,.T.);
#116=FACE_OUTER_BOUND('',#173,.T.);
#117=FACE_OUTER_BOUND('',#174,.T.);
#118=FACE_OUTER_BOUND('',#175,.T.);
#119=FACE_OUTER_BOUND('',#176,.T.);
#120=FACE_OUTER_BOUND('',#177,.T.);
#121=FACE_OUTER_BOUND('',#178,.T.);
#122=FACE_OUTER_BOUND('',#179,.T.);
#123=FACE_OUTER_BOUND('',#180,.T.);
#124=FACE_OUTER_BOUND('',#181,.T.);
#125=FACE_OUTER_BOUND('',#182,.T.);
#126=FACE_OUTER_BOUND('',#183,.T.);
#127=FACE_OUTER_BOUND('',#184,.T.);
#128=FACE_OUTER_BOUND('',#185,.T.);
#129=FACE_OUTER_BOUND('',#186,.T.);
#130=FACE_OUTER_BOUND('',#187,.T.);
#131=FACE_OUTER_BOUND('',#188,.T.);
#132=FACE_OUTER_BOUND('',#189,.T.);
#133=FACE_OUTER_BOUND('',#190,.T.);
#134=FACE_OUTER_BOUND('',#196,.T.);
#135=FACE_OUTER_BOUND('',#197,.T.);
#136=FACE_OUTER_BOUND('',#198,.T.);
#137=FACE_OUTER_BOUND('',#199,.T.);
#138=FACE_OUTER_BOUND('',#200,.T.);
#139=FACE_OUTER_BOUND('',#201,.T.);
#140=FACE_OUTER_BOUND('',#202,.T.);
#141=FACE_OUTER_BOUND('',#203,.T.);
#142=FACE_OUTER_BOUND('',#204,.T.);
#143=FACE_OUTER_BOUND('',#205,.T.);
#144=FACE_OUTER_BOUND('',#206,.T.);
#145=FACE_OUTER_BOUND('',#207,.T.);
#146=FACE_OUTER_BOUND('',#209,.T.);
#147=FACE_OUTER_BOUND('',#210,.T.);
#148=FACE_OUTER_BOUND('',#211,.T.);
#149=FACE_OUTER_BOUND('',#212,.T.);
#150=FACE_OUTER_BOUND('',#213,.T.);
#151=FACE_OUTER_BOUND('',#215,.T.);
#152=FACE_OUTER_BOUND('',#216,.T.);
#153=FACE_OUTER_BOUND('',#217,.T.);
#154=FACE_OUTER_BOUND('',#218,.T.);
#155=EDGE_LOOP('',(#635,#636,#637,#638));
#156=EDGE_LOOP('',(#639,#640,#641,#642));
#157=EDGE_LOOP('',(#643,#644,#645,#646));
#158=EDGE_LOOP('',(#647,#648,#649,#650));
#159=EDGE_LOOP('',(#651,#652,#653));
#160=EDGE_LOOP('',(#654,#655,#656));
#161=EDGE_LOOP('',(#657,#658,#659));
#162=EDGE_LOOP('',(#660,#661,#662));
#163=EDGE_LOOP('',(#663,#664,#665,#666));
#164=EDGE_LOOP('',(#667,#668,#669,#670));
#165=EDGE_LOOP('',(#671,#672,#673,#674));
#166=EDGE_LOOP('',(#675,#676,#677,#678));
#167=EDGE_LOOP('',(#679,#680,#681,#682));
#168=EDGE_LOOP('',(#683,#684,#685,#686));
#169=EDGE_LOOP('',(#687,#688,#689,#690));
#170=EDGE_LOOP('',(#691));
#171=EDGE_LOOP('',(#692,#693));
#172=EDGE_LOOP('',(#694,#695));
#173=EDGE_LOOP('',(#696,#697,#698,#699));
#174=EDGE_LOOP('',(#700,#701,#702,#703));
#175=EDGE_LOOP('',(#704,#705,#706,#707,#708,#709,#710,#711));
#176=EDGE_LOOP('',(#712,#713,#714,#715));
#177=EDGE_LOOP('',(#716));
#178=EDGE_LOOP('',(#717,#718));
#179=EDGE_LOOP('',(#719,#720));
#180=EDGE_LOOP('',(#721,#722,#723,#724));
#181=EDGE_LOOP('',(#725,#726,#727,#728));
#182=EDGE_LOOP('',(#729,#730,#731,#732,#733,#734,#735,#736));
#183=EDGE_LOOP('',(#737,#738,#739,#740));
#184=EDGE_LOOP('',(#741));
#185=EDGE_LOOP('',(#742,#743));
#186=EDGE_LOOP('',(#744,#745));
#187=EDGE_LOOP('',(#746,#747,#748,#749));
#188=EDGE_LOOP('',(#750,#751,#752,#753));
#189=EDGE_LOOP('',(#754,#755,#756,#757,#758,#759,#760,#761));
#190=EDGE_LOOP('',(#762,#763,#764,#765,#766,#767,#768,#769,#770,#771,#772,
#773,#774,#775,#776,#777));
#191=EDGE_LOOP('',(#778));
#192=EDGE_LOOP('',(#779,#780,#781,#782,#783,#784,#785,#786,#787,#788,#789,
#790,#791,#792,#793,#794));
#193=EDGE_LOOP('',(#795));
#194=EDGE_LOOP('',(#796));
#195=EDGE_LOOP('',(#797));
#196=EDGE_LOOP('',(#798,#799,#800,#801));
#197=EDGE_LOOP('',(#802));
#198=EDGE_LOOP('',(#803,#804));
#199=EDGE_LOOP('',(#805,#806));
#200=EDGE_LOOP('',(#807,#808,#809,#810));
#201=EDGE_LOOP('',(#811,#812,#813,#814));
#202=EDGE_LOOP('',(#815,#816,#817,#818,#819,#820,#821,#822));
#203=EDGE_LOOP('',(#823,#824,#825,#826,#827,#828,#829,#830));
#204=EDGE_LOOP('',(#831,#832,#833,#834));
#205=EDGE_LOOP('',(#835,#836,#837,#838));
#206=EDGE_LOOP('',(#839,#840,#841,#842,#843,#844,#845,#846));
#207=EDGE_LOOP('',(#847,#848,#849,#850,#851,#852,#853,#854));
#208=EDGE_LOOP('',(#855,#856,#857,#858));
#209=EDGE_LOOP('',(#859,#860,#861,#862));
#210=EDGE_LOOP('',(#863,#864,#865,#866));
#211=EDGE_LOOP('',(#867,#868,#869,#870,#871,#872,#873,#874));
#212=EDGE_LOOP('',(#875,#876,#877,#878,#879,#880,#881,#882));
#213=EDGE_LOOP('',(#883,#884,#885,#886));
#214=EDGE_LOOP('',(#887,#888,#889,#890));
#215=EDGE_LOOP('',(#891,#892,#893,#894,#895,#896,#897,#898));
#216=EDGE_LOOP('',(#899,#900,#901,#902,#903,#904,#905,#906));
#217=EDGE_LOOP('',(#907,#908,#909,#910,#911,#912,#913,#914));
#218=EDGE_LOOP('',(#915,#916,#917,#918,#919,#920,#921,#922));
#219=LINE('',#1459,#307);
#220=LINE('',#1461,#308);
#221=LINE('',#1463,#309);
#222=LINE('',#1464,#310);
#223=LINE('',#1467,#311);
#224=LINE('',#1469,#312);
#225=LINE('',#1470,#313);
#226=LINE('',#1473,#314);
#227=LINE('',#1475,#315);
#228=LINE('',#1476,#316);
#229=LINE('',#1478,#317);
#230=LINE('',#1479,#318);
#231=LINE('',#1485,#319);
#232=LINE('',#1486,#320);
#233=LINE('',#1492,#321);
#234=LINE('',#1493,#322);
#235=LINE('',#1499,#323);
#236=LINE('',#1500,#324);
#237=LINE('',#1506,#325);
#238=LINE('',#1507,#326);
#239=LINE('',#1511,#327);
#240=LINE('',#1513,#328);
#241=LINE('',#1515,#329);
#242=LINE('',#1516,#330);
#243=LINE('',#1519,#331);
#244=LINE('',#1521,#332);
#245=LINE('',#1522,#333);
#246=LINE('',#1525,#334);
#247=LINE('',#1527,#335);
#248=LINE('',#1528,#336);
#249=LINE('',#1530,#337);
#250=LINE('',#1531,#338);
#251=LINE('',#1535,#339);
#252=LINE('',#1537,#340);
#253=LINE('',#1539,#341);
#254=LINE('',#1540,#342);
#255=LINE('',#1545,#343);
#256=LINE('',#1560,#344);
#257=LINE('',#1563,#345);
#258=LINE('',#1566,#346);
#259=LINE('',#1568,#347);
#260=LINE('',#1573,#348);
#261=LINE('',#1575,#349);
#262=LINE('',#1581,#350);
#263=LINE('',#1596,#351);
#264=LINE('',#1599,#352);
#265=LINE('',#1602,#353);
#266=LINE('',#1604,#354);
#267=LINE('',#1610,#355);
#268=LINE('',#1614,#356);
#269=LINE('',#1620,#357);
#270=LINE('',#1635,#358);
#271=LINE('',#1638,#359);
#272=LINE('',#1641,#360);
#273=LINE('',#1643,#361);
#274=LINE('',#1649,#362);
#275=LINE('',#1653,#363);
#276=LINE('',#1657,#364);
#277=LINE('',#1662,#365);
#278=LINE('',#1670,#366);
#279=LINE('',#1674,#367);
#280=LINE('',#1677,#368);
#281=LINE('',#1679,#369);
#282=LINE('',#1686,#370);
#283=LINE('',#1688,#371);
#284=LINE('',#1694,#372);
#285=LINE('',#1708,#373);
#286=LINE('',#1709,#374);
#287=LINE('',#1711,#375);
#288=LINE('',#1712,#376);
#289=LINE('',#1714,#377);
#290=LINE('',#1715,#378);
#291=LINE('',#1718,#379);
#292=LINE('',#1721,#380);
#293=LINE('',#1723,#381);
#294=LINE('',#1726,#382);
#295=LINE('',#1727,#383);
#296=LINE('',#1731,#384);
#297=LINE('',#1733,#385);
#298=LINE('',#1734,#386);
#299=LINE('',#1738,#387);
#300=LINE('',#1739,#388);
#301=LINE('',#1741,#389);
#302=LINE('',#1742,#390);
#303=LINE('',#1745,#391);
#304=LINE('',#1746,#392);
#305=LINE('',#1748,#393);
#306=LINE('',#1749,#394);
#307=VECTOR('',#1145,10.);
#308=VECTOR('',#1146,10.);
#309=VECTOR('',#1147,10.);
#310=VECTOR('',#1148,10.);
#311=VECTOR('',#1151,10.);
#312=VECTOR('',#1152,10.);
#313=VECTOR('',#1153,10.);
#314=VECTOR('',#1156,10.);
#315=VECTOR('',#1157,10.);
#316=VECTOR('',#1158,10.);
#317=VECTOR('',#1161,10.);
#318=VECTOR('',#1162,10.);
#319=VECTOR('',#1167,10.);
#320=VECTOR('',#1168,10.);
#321=VECTOR('',#1173,10.);
#322=VECTOR('',#1174,10.);
#323=VECTOR('',#1179,10.);
#324=VECTOR('',#1180,10.);
#325=VECTOR('',#1185,10.);
#326=VECTOR('',#1186,10.);
#327=VECTOR('',#1189,10.);
#328=VECTOR('',#1190,10.);
#329=VECTOR('',#1191,10.);
#330=VECTOR('',#1192,10.);
#331=VECTOR('',#1195,10.);
#332=VECTOR('',#1196,10.);
#333=VECTOR('',#1197,10.);
#334=VECTOR('',#1200,10.);
#335=VECTOR('',#1201,10.);
#336=VECTOR('',#1202,10.);
#337=VECTOR('',#1205,10.);
#338=VECTOR('',#1206,10.);
#339=VECTOR('',#1209,10.);
#340=VECTOR('',#1210,10.);
#341=VECTOR('',#1211,10.);
#342=VECTOR('',#1212,10.);
#343=VECTOR('',#1217,1.45);
#344=VECTOR('',#1236,10.);
#345=VECTOR('',#1239,10.);
#346=VECTOR('',#1242,10.);
#347=VECTOR('',#1243,10.);
#348=VECTOR('',#1250,10.);
#349=VECTOR('',#1251,10.);
#350=VECTOR('',#1258,1.45);
#351=VECTOR('',#1277,10.);
#352=VECTOR('',#1280,10.);
#353=VECTOR('',#1283,10.);
#354=VECTOR('',#1284,10.);
#355=VECTOR('',#1291,10.);
#356=VECTOR('',#1294,10.);
#357=VECTOR('',#1301,1.45);
#358=VECTOR('',#1320,10.);
#359=VECTOR('',#1323,10.);
#360=VECTOR('',#1326,10.);
#361=VECTOR('',#1327,10.);
#362=VECTOR('',#1334,10.);
#363=VECTOR('',#1337,10.);
#364=VECTOR('',#1342,10.);
#365=VECTOR('',#1347,10.);
#366=VECTOR('',#1354,10.);
#367=VECTOR('',#1359,10.);
#368=VECTOR('',#1362,10.);
#369=VECTOR('',#1363,10.);
#370=VECTOR('',#1370,10.);
#371=VECTOR('',#1371,10.);
#372=VECTOR('',#1378,1.45);
#373=VECTOR('',#1397,10.);
#374=VECTOR('',#1398,10.);
#375=VECTOR('',#1401,10.);
#376=VECTOR('',#1402,10.);
#377=VECTOR('',#1405,10.);
#378=VECTOR('',#1406,10.);
#379=VECTOR('',#1409,10.);
#380=VECTOR('',#1412,10.);
#381=VECTOR('',#1415,10.);
#382=VECTOR('',#1418,10.);
#383=VECTOR('',#1419,10.);
#384=VECTOR('',#1424,10.);
#385=VECTOR('',#1427,10.);
#386=VECTOR('',#1428,10.);
#387=VECTOR('',#1435,10.);
#388=VECTOR('',#1436,10.);
#389=VECTOR('',#1439,10.);
#390=VECTOR('',#1440,10.);
#391=VECTOR('',#1445,10.);
#392=VECTOR('',#1446,10.);
#393=VECTOR('',#1449,10.);
#394=VECTOR('',#1450,10.);
#395=VERTEX_POINT('',#1457);
#396=VERTEX_POINT('',#1458);
#397=VERTEX_POINT('',#1460);
#398=VERTEX_POINT('',#1462);
#399=VERTEX_POINT('',#1466);
#400=VERTEX_POINT('',#1468);
#401=VERTEX_POINT('',#1472);
#402=VERTEX_POINT('',#1474);
#403=VERTEX_POINT('',#1481);
#404=VERTEX_POINT('',#1482);
#405=VERTEX_POINT('',#1484);
#406=VERTEX_POINT('',#1488);
#407=VERTEX_POINT('',#1489);
#408=VERTEX_POINT('',#1491);
#409=VERTEX_POINT('',#1495);
#410=VERTEX_POINT('',#1496);
#411=VERTEX_POINT('',#1498);
#412=VERTEX_POINT('',#1502);
#413=VERTEX_POINT('',#1503);
#414=VERTEX_POINT('',#1505);
#415=VERTEX_POINT('',#1509);
#416=VERTEX_POINT('',#1510);
#417=VERTEX_POINT('',#1512);
#418=VERTEX_POINT('',#1514);
#419=VERTEX_POINT('',#1518);
#420=VERTEX_POINT('',#1520);
#421=VERTEX_POINT('',#1524);
#422=VERTEX_POINT('',#1526);
#423=VERTEX_POINT('',#1533);
#424=VERTEX_POINT('',#1534);
#425=VERTEX_POINT('',#1536);
#426=VERTEX_POINT('',#1538);
#427=VERTEX_POINT('',#1542);
#428=VERTEX_POINT('',#1544);
#429=VERTEX_POINT('',#1549);
#430=VERTEX_POINT('',#1550);
#431=VERTEX_POINT('',#1554);
#432=VERTEX_POINT('',#1555);
#433=VERTEX_POINT('',#1559);
#434=VERTEX_POINT('',#1561);
#435=VERTEX_POINT('',#1565);
#436=VERTEX_POINT('',#1567);
#437=VERTEX_POINT('',#1571);
#438=VERTEX_POINT('',#1574);
#439=VERTEX_POINT('',#1578);
#440=VERTEX_POINT('',#1580);
#441=VERTEX_POINT('',#1585);
#442=VERTEX_POINT('',#1586);
#443=VERTEX_POINT('',#1590);
#444=VERTEX_POINT('',#1591);
#445=VERTEX_POINT('',#1595);
#446=VERTEX_POINT('',#1597);
#447=VERTEX_POINT('',#1601);
#448=VERTEX_POINT('',#1603);
#449=VERTEX_POINT('',#1607);
#450=VERTEX_POINT('',#1609);
#451=VERTEX_POINT('',#1611);
#452=VERTEX_POINT('',#1613);
#453=VERTEX_POINT('',#1617);
#454=VERTEX_POINT('',#1619);
#455=VERTEX_POINT('',#1624);
#456=VERTEX_POINT('',#1625);
#457=VERTEX_POINT('',#1629);
#458=VERTEX_POINT('',#1630);
#459=VERTEX_POINT('',#1634);
#460=VERTEX_POINT('',#1636);
#461=VERTEX_POINT('',#1640);
#462=VERTEX_POINT('',#1642);
#463=VERTEX_POINT('',#1646);
#464=VERTEX_POINT('',#1648);
#465=VERTEX_POINT('',#1650);
#466=VERTEX_POINT('',#1652);
#467=VERTEX_POINT('',#1656);
#468=VERTEX_POINT('',#1659);
#469=VERTEX_POINT('',#1661);
#470=VERTEX_POINT('',#1663);
#471=VERTEX_POINT('',#1665);
#472=VERTEX_POINT('',#1667);
#473=VERTEX_POINT('',#1669);
#474=VERTEX_POINT('',#1672);
#475=VERTEX_POINT('',#1675);
#476=VERTEX_POINT('',#1678);
#477=VERTEX_POINT('',#1680);
#478=VERTEX_POINT('',#1682);
#479=VERTEX_POINT('',#1684);
#480=VERTEX_POINT('',#1687);
#481=VERTEX_POINT('',#1690);
#482=VERTEX_POINT('',#1693);
#483=VERTEX_POINT('',#1698);
#484=VERTEX_POINT('',#1699);
#485=VERTEX_POINT('',#1703);
#486=VERTEX_POINT('',#1704);
#487=VERTEX_POINT('',#1717);
#488=VERTEX_POINT('',#1719);
#489=VERTEX_POINT('',#1725);
#490=VERTEX_POINT('',#1729);
#491=EDGE_CURVE('',#395,#396,#219,.T.);
#492=EDGE_CURVE('',#397,#395,#220,.T.);
#493=EDGE_CURVE('',#398,#397,#221,.T.);
#494=EDGE_CURVE('',#396,#398,#222,.T.);
#495=EDGE_CURVE('',#396,#399,#223,.T.);
#496=EDGE_CURVE('',#400,#398,#224,.T.);
#497=EDGE_CURVE('',#400,#399,#225,.T.);
#498=EDGE_CURVE('',#399,#401,#226,.T.);
#499=EDGE_CURVE('',#402,#400,#227,.T.);
#500=EDGE_CURVE('',#401,#402,#228,.T.);
#501=EDGE_CURVE('',#401,#395,#229,.T.);
#502=EDGE_CURVE('',#397,#402,#230,.T.);
#503=EDGE_CURVE('',#403,#404,#43,.T.);
#504=EDGE_CURVE('',#405,#404,#231,.T.);
#505=EDGE_CURVE('',#403,#405,#232,.T.);
#506=EDGE_CURVE('',#406,#407,#44,.T.);
#507=EDGE_CURVE('',#408,#407,#233,.T.);
#508=EDGE_CURVE('',#406,#408,#234,.T.);
#509=EDGE_CURVE('',#409,#410,#45,.T.);
#510=EDGE_CURVE('',#410,#411,#235,.T.);
#511=EDGE_CURVE('',#409,#411,#236,.T.);
#512=EDGE_CURVE('',#412,#413,#46,.T.);
#513=EDGE_CURVE('',#414,#413,#237,.T.);
#514=EDGE_CURVE('',#414,#412,#238,.T.);
#515=EDGE_CURVE('',#415,#416,#239,.T.);
#516=EDGE_CURVE('',#417,#415,#240,.T.);
#517=EDGE_CURVE('',#418,#417,#241,.T.);
#518=EDGE_CURVE('',#416,#418,#242,.T.);
#519=EDGE_CURVE('',#416,#419,#243,.T.);
#520=EDGE_CURVE('',#420,#418,#244,.T.);
#521=EDGE_CURVE('',#420,#419,#245,.T.);
#522=EDGE_CURVE('',#419,#421,#246,.T.);
#523=EDGE_CURVE('',#422,#420,#247,.T.);
#524=EDGE_CURVE('',#421,#422,#248,.T.);
#525=EDGE_CURVE('',#421,#415,#249,.T.);
#526=EDGE_CURVE('',#417,#422,#250,.T.);
#527=EDGE_CURVE('',#423,#424,#251,.T.);
#528=EDGE_CURVE('',#425,#424,#252,.T.);
#529=EDGE_CURVE('',#426,#425,#253,.T.);
#530=EDGE_CURVE('',#423,#426,#254,.T.);
#531=EDGE_CURVE('',#427,#427,#47,.T.);
#532=EDGE_CURVE('',#427,#428,#255,.T.);
#533=EDGE_CURVE('',#428,#428,#48,.T.);
#534=EDGE_CURVE('',#429,#430,#49,.T.);
#535=EDGE_CURVE('',#429,#430,#50,.T.);
#536=EDGE_CURVE('',#431,#432,#51,.T.);
#537=EDGE_CURVE('',#431,#432,#52,.T.);
#538=EDGE_CURVE('',#433,#429,#256,.T.);
#539=EDGE_CURVE('',#434,#433,#53,.T.);
#540=EDGE_CURVE('',#430,#434,#257,.T.);
#541=EDGE_CURVE('',#432,#435,#258,.T.);
#542=EDGE_CURVE('',#436,#431,#259,.T.);
#543=EDGE_CURVE('',#435,#436,#54,.T.);
#544=EDGE_CURVE('',#437,#434,#55,.T.);
#545=EDGE_CURVE('',#413,#437,#260,.T.);
#546=EDGE_CURVE('',#412,#438,#261,.T.);
#547=EDGE_CURVE('',#433,#438,#56,.T.);
#548=EDGE_CURVE('',#439,#439,#57,.T.);
#549=EDGE_CURVE('',#439,#440,#262,.T.);
#550=EDGE_CURVE('',#440,#440,#58,.T.);
#551=EDGE_CURVE('',#441,#442,#59,.T.);
#552=EDGE_CURVE('',#441,#442,#60,.T.);
#553=EDGE_CURVE('',#443,#444,#61,.T.);
#554=EDGE_CURVE('',#443,#444,#62,.T.);
#555=EDGE_CURVE('',#445,#441,#263,.T.);
#556=EDGE_CURVE('',#446,#445,#63,.T.);
#557=EDGE_CURVE('',#442,#446,#264,.T.);
#558=EDGE_CURVE('',#444,#447,#265,.T.);
#559=EDGE_CURVE('',#448,#443,#266,.T.);
#560=EDGE_CURVE('',#447,#448,#64,.T.);
#561=EDGE_CURVE('',#449,#446,#65,.T.);
#562=EDGE_CURVE('',#449,#450,#267,.T.);
#563=EDGE_CURVE('',#450,#451,#66,.T.);
#564=EDGE_CURVE('',#452,#451,#268,.T.);
#565=EDGE_CURVE('',#445,#452,#67,.T.);
#566=EDGE_CURVE('',#453,#453,#68,.T.);
#567=EDGE_CURVE('',#453,#454,#269,.T.);
#568=EDGE_CURVE('',#454,#454,#69,.T.);
#569=EDGE_CURVE('',#455,#456,#70,.T.);
#570=EDGE_CURVE('',#455,#456,#71,.T.);
#571=EDGE_CURVE('',#457,#458,#72,.T.);
#572=EDGE_CURVE('',#457,#458,#73,.T.);
#573=EDGE_CURVE('',#459,#455,#270,.T.);
#574=EDGE_CURVE('',#460,#459,#74,.T.);
#575=EDGE_CURVE('',#456,#460,#271,.T.);
#576=EDGE_CURVE('',#458,#461,#272,.T.);
#577=EDGE_CURVE('',#462,#457,#273,.T.);
#578=EDGE_CURVE('',#461,#462,#75,.T.);
#579=EDGE_CURVE('',#463,#460,#76,.T.);
#580=EDGE_CURVE('',#463,#464,#274,.T.);
#581=EDGE_CURVE('',#464,#465,#77,.T.);
#582=EDGE_CURVE('',#466,#465,#275,.T.);
#583=EDGE_CURVE('',#459,#466,#78,.T.);
#584=EDGE_CURVE('',#438,#467,#276,.T.);
#585=EDGE_CURVE('',#467,#447,#79,.T.);
#586=EDGE_CURVE('',#448,#468,#80,.T.);
#587=EDGE_CURVE('',#469,#468,#277,.T.);
#588=EDGE_CURVE('',#469,#470,#81,.T.);
#589=EDGE_CURVE('',#470,#471,#82,.T.);
#590=EDGE_CURVE('',#471,#472,#83,.T.);
#591=EDGE_CURVE('',#473,#472,#278,.T.);
#592=EDGE_CURVE('',#473,#461,#84,.T.);
#593=EDGE_CURVE('',#462,#474,#85,.T.);
#594=EDGE_CURVE('',#437,#474,#279,.T.);
#595=EDGE_CURVE('',#436,#475,#86,.T.);
#596=EDGE_CURVE('',#475,#463,#280,.T.);
#597=EDGE_CURVE('',#466,#476,#281,.T.);
#598=EDGE_CURVE('',#476,#477,#87,.T.);
#599=EDGE_CURVE('',#477,#478,#88,.T.);
#600=EDGE_CURVE('',#478,#479,#89,.T.);
#601=EDGE_CURVE('',#479,#449,#282,.T.);
#602=EDGE_CURVE('',#452,#480,#283,.T.);
#603=EDGE_CURVE('',#480,#435,#90,.T.);
#604=EDGE_CURVE('',#481,#481,#91,.T.);
#605=EDGE_CURVE('',#481,#482,#284,.T.);
#606=EDGE_CURVE('',#482,#482,#92,.T.);
#607=EDGE_CURVE('',#483,#484,#93,.T.);
#608=EDGE_CURVE('',#483,#484,#94,.T.);
#609=EDGE_CURVE('',#485,#486,#95,.T.);
#610=EDGE_CURVE('',#485,#486,#96,.T.);
#611=EDGE_CURVE('',#471,#483,#285,.T.);
#612=EDGE_CURVE('',#484,#470,#286,.T.);
#613=EDGE_CURVE('',#486,#477,#287,.T.);
#614=EDGE_CURVE('',#478,#485,#288,.T.);
#615=EDGE_CURVE('',#407,#469,#289,.T.);
#616=EDGE_CURVE('',#406,#472,#290,.T.);
#617=EDGE_CURVE('',#487,#480,#291,.T.);
#618=EDGE_CURVE('',#487,#488,#97,.T.);
#619=EDGE_CURVE('',#488,#475,#292,.T.);
#620=EDGE_CURVE('',#464,#488,#293,.T.);
#621=EDGE_CURVE('',#465,#489,#294,.T.);
#622=EDGE_CURVE('',#489,#476,#295,.T.);
#623=EDGE_CURVE('',#489,#490,#98,.T.);
#624=EDGE_CURVE('',#490,#479,#296,.T.);
#625=EDGE_CURVE('',#487,#451,#297,.T.);
#626=EDGE_CURVE('',#450,#490,#298,.T.);
#627=EDGE_CURVE('',#467,#410,#299,.T.);
#628=EDGE_CURVE('',#468,#409,#300,.T.);
#629=EDGE_CURVE('',#473,#404,#301,.T.);
#630=EDGE_CURVE('',#474,#403,#302,.T.);
#631=EDGE_CURVE('',#424,#408,#303,.T.);
#632=EDGE_CURVE('',#405,#423,#304,.T.);
#633=EDGE_CURVE('',#426,#414,#305,.T.);
#634=EDGE_CURVE('',#411,#425,#306,.T.);
#635=ORIENTED_EDGE('',*,*,#491,.F.);
#636=ORIENTED_EDGE('',*,*,#492,.F.);
#637=ORIENTED_EDGE('',*,*,#493,.F.);
#638=ORIENTED_EDGE('',*,*,#494,.F.);
#639=ORIENTED_EDGE('',*,*,#495,.F.);
#640=ORIENTED_EDGE('',*,*,#494,.T.);
#641=ORIENTED_EDGE('',*,*,#496,.F.);
#642=ORIENTED_EDGE('',*,*,#497,.T.);
#643=ORIENTED_EDGE('',*,*,#498,.F.);
#644=ORIENTED_EDGE('',*,*,#497,.F.);
#645=ORIENTED_EDGE('',*,*,#499,.F.);
#646=ORIENTED_EDGE('',*,*,#500,.F.);
#647=ORIENTED_EDGE('',*,*,#501,.F.);
#648=ORIENTED_EDGE('',*,*,#500,.T.);
#649=ORIENTED_EDGE('',*,*,#502,.F.);
#650=ORIENTED_EDGE('',*,*,#492,.T.);
#651=ORIENTED_EDGE('',*,*,#503,.T.);
#652=ORIENTED_EDGE('',*,*,#504,.F.);
#653=ORIENTED_EDGE('',*,*,#505,.F.);
#654=ORIENTED_EDGE('',*,*,#506,.T.);
#655=ORIENTED_EDGE('',*,*,#507,.F.);
#656=ORIENTED_EDGE('',*,*,#508,.F.);
#657=ORIENTED_EDGE('',*,*,#509,.T.);
#658=ORIENTED_EDGE('',*,*,#510,.T.);
#659=ORIENTED_EDGE('',*,*,#511,.F.);
#660=ORIENTED_EDGE('',*,*,#512,.T.);
#661=ORIENTED_EDGE('',*,*,#513,.F.);
#662=ORIENTED_EDGE('',*,*,#514,.T.);
#663=ORIENTED_EDGE('',*,*,#515,.F.);
#664=ORIENTED_EDGE('',*,*,#516,.F.);
#665=ORIENTED_EDGE('',*,*,#517,.F.);
#666=ORIENTED_EDGE('',*,*,#518,.F.);
#667=ORIENTED_EDGE('',*,*,#519,.F.);
#668=ORIENTED_EDGE('',*,*,#518,.T.);
#669=ORIENTED_EDGE('',*,*,#520,.F.);
#670=ORIENTED_EDGE('',*,*,#521,.T.);
#671=ORIENTED_EDGE('',*,*,#522,.F.);
#672=ORIENTED_EDGE('',*,*,#521,.F.);
#673=ORIENTED_EDGE('',*,*,#523,.F.);
#674=ORIENTED_EDGE('',*,*,#524,.F.);
#675=ORIENTED_EDGE('',*,*,#525,.F.);
#676=ORIENTED_EDGE('',*,*,#524,.T.);
#677=ORIENTED_EDGE('',*,*,#526,.F.);
#678=ORIENTED_EDGE('',*,*,#516,.T.);
#679=ORIENTED_EDGE('',*,*,#527,.T.);
#680=ORIENTED_EDGE('',*,*,#528,.F.);
#681=ORIENTED_EDGE('',*,*,#529,.F.);
#682=ORIENTED_EDGE('',*,*,#530,.F.);
#683=ORIENTED_EDGE('',*,*,#523,.T.);
#684=ORIENTED_EDGE('',*,*,#520,.T.);
#685=ORIENTED_EDGE('',*,*,#517,.T.);
#686=ORIENTED_EDGE('',*,*,#526,.T.);
#687=ORIENTED_EDGE('',*,*,#531,.F.);
#688=ORIENTED_EDGE('',*,*,#532,.T.);
#689=ORIENTED_EDGE('',*,*,#533,.T.);
#690=ORIENTED_EDGE('',*,*,#532,.F.);
#691=ORIENTED_EDGE('',*,*,#533,.F.);
#692=ORIENTED_EDGE('',*,*,#534,.F.);
#693=ORIENTED_EDGE('',*,*,#535,.T.);
#694=ORIENTED_EDGE('',*,*,#536,.F.);
#695=ORIENTED_EDGE('',*,*,#537,.T.);
#696=ORIENTED_EDGE('',*,*,#538,.F.);
#697=ORIENTED_EDGE('',*,*,#539,.F.);
#698=ORIENTED_EDGE('',*,*,#540,.F.);
#699=ORIENTED_EDGE('',*,*,#535,.F.);
#700=ORIENTED_EDGE('',*,*,#541,.F.);
#701=ORIENTED_EDGE('',*,*,#537,.F.);
#702=ORIENTED_EDGE('',*,*,#542,.F.);
#703=ORIENTED_EDGE('',*,*,#543,.F.);
#704=ORIENTED_EDGE('',*,*,#538,.T.);
#705=ORIENTED_EDGE('',*,*,#534,.T.);
#706=ORIENTED_EDGE('',*,*,#540,.T.);
#707=ORIENTED_EDGE('',*,*,#544,.F.);
#708=ORIENTED_EDGE('',*,*,#545,.F.);
#709=ORIENTED_EDGE('',*,*,#512,.F.);
#710=ORIENTED_EDGE('',*,*,#546,.T.);
#711=ORIENTED_EDGE('',*,*,#547,.F.);
#712=ORIENTED_EDGE('',*,*,#548,.F.);
#713=ORIENTED_EDGE('',*,*,#549,.T.);
#714=ORIENTED_EDGE('',*,*,#550,.T.);
#715=ORIENTED_EDGE('',*,*,#549,.F.);
#716=ORIENTED_EDGE('',*,*,#550,.F.);
#717=ORIENTED_EDGE('',*,*,#551,.F.);
#718=ORIENTED_EDGE('',*,*,#552,.T.);
#719=ORIENTED_EDGE('',*,*,#553,.F.);
#720=ORIENTED_EDGE('',*,*,#554,.T.);
#721=ORIENTED_EDGE('',*,*,#555,.F.);
#722=ORIENTED_EDGE('',*,*,#556,.F.);
#723=ORIENTED_EDGE('',*,*,#557,.F.);
#724=ORIENTED_EDGE('',*,*,#552,.F.);
#725=ORIENTED_EDGE('',*,*,#558,.F.);
#726=ORIENTED_EDGE('',*,*,#554,.F.);
#727=ORIENTED_EDGE('',*,*,#559,.F.);
#728=ORIENTED_EDGE('',*,*,#560,.F.);
#729=ORIENTED_EDGE('',*,*,#555,.T.);
#730=ORIENTED_EDGE('',*,*,#551,.T.);
#731=ORIENTED_EDGE('',*,*,#557,.T.);
#732=ORIENTED_EDGE('',*,*,#561,.F.);
#733=ORIENTED_EDGE('',*,*,#562,.T.);
#734=ORIENTED_EDGE('',*,*,#563,.T.);
#735=ORIENTED_EDGE('',*,*,#564,.F.);
#736=ORIENTED_EDGE('',*,*,#565,.F.);
#737=ORIENTED_EDGE('',*,*,#566,.F.);
#738=ORIENTED_EDGE('',*,*,#567,.T.);
#739=ORIENTED_EDGE('',*,*,#568,.T.);
#740=ORIENTED_EDGE('',*,*,#567,.F.);
#741=ORIENTED_EDGE('',*,*,#568,.F.);
#742=ORIENTED_EDGE('',*,*,#569,.F.);
#743=ORIENTED_EDGE('',*,*,#570,.T.);
#744=ORIENTED_EDGE('',*,*,#571,.F.);
#745=ORIENTED_EDGE('',*,*,#572,.T.);
#746=ORIENTED_EDGE('',*,*,#573,.F.);
#747=ORIENTED_EDGE('',*,*,#574,.F.);
#748=ORIENTED_EDGE('',*,*,#575,.F.);
#749=ORIENTED_EDGE('',*,*,#570,.F.);
#750=ORIENTED_EDGE('',*,*,#576,.F.);
#751=ORIENTED_EDGE('',*,*,#572,.F.);
#752=ORIENTED_EDGE('',*,*,#577,.F.);
#753=ORIENTED_EDGE('',*,*,#578,.F.);
#754=ORIENTED_EDGE('',*,*,#573,.T.);
#755=ORIENTED_EDGE('',*,*,#569,.T.);
#756=ORIENTED_EDGE('',*,*,#575,.T.);
#757=ORIENTED_EDGE('',*,*,#579,.F.);
#758=ORIENTED_EDGE('',*,*,#580,.T.);
#759=ORIENTED_EDGE('',*,*,#581,.T.);
#760=ORIENTED_EDGE('',*,*,#582,.F.);
#761=ORIENTED_EDGE('',*,*,#583,.F.);
#762=ORIENTED_EDGE('',*,*,#547,.T.);
#763=ORIENTED_EDGE('',*,*,#584,.T.);
#764=ORIENTED_EDGE('',*,*,#585,.T.);
#765=ORIENTED_EDGE('',*,*,#560,.T.);
#766=ORIENTED_EDGE('',*,*,#586,.T.);
#767=ORIENTED_EDGE('',*,*,#587,.F.);
#768=ORIENTED_EDGE('',*,*,#588,.T.);
#769=ORIENTED_EDGE('',*,*,#589,.T.);
#770=ORIENTED_EDGE('',*,*,#590,.T.);
#771=ORIENTED_EDGE('',*,*,#591,.F.);
#772=ORIENTED_EDGE('',*,*,#592,.T.);
#773=ORIENTED_EDGE('',*,*,#578,.T.);
#774=ORIENTED_EDGE('',*,*,#593,.T.);
#775=ORIENTED_EDGE('',*,*,#594,.F.);
#776=ORIENTED_EDGE('',*,*,#544,.T.);
#777=ORIENTED_EDGE('',*,*,#539,.T.);
#778=ORIENTED_EDGE('',*,*,#531,.T.);
#779=ORIENTED_EDGE('',*,*,#595,.T.);
#780=ORIENTED_EDGE('',*,*,#596,.T.);
#781=ORIENTED_EDGE('',*,*,#579,.T.);
#782=ORIENTED_EDGE('',*,*,#574,.T.);
#783=ORIENTED_EDGE('',*,*,#583,.T.);
#784=ORIENTED_EDGE('',*,*,#597,.T.);
#785=ORIENTED_EDGE('',*,*,#598,.T.);
#786=ORIENTED_EDGE('',*,*,#599,.T.);
#787=ORIENTED_EDGE('',*,*,#600,.T.);
#788=ORIENTED_EDGE('',*,*,#601,.T.);
#789=ORIENTED_EDGE('',*,*,#561,.T.);
#790=ORIENTED_EDGE('',*,*,#556,.T.);
#791=ORIENTED_EDGE('',*,*,#565,.T.);
#792=ORIENTED_EDGE('',*,*,#602,.T.);
#793=ORIENTED_EDGE('',*,*,#603,.T.);
#794=ORIENTED_EDGE('',*,*,#543,.T.);
#795=ORIENTED_EDGE('',*,*,#548,.T.);
#796=ORIENTED_EDGE('',*,*,#566,.T.);
#797=ORIENTED_EDGE('',*,*,#604,.T.);
#798=ORIENTED_EDGE('',*,*,#604,.F.);
#799=ORIENTED_EDGE('',*,*,#605,.T.);
#800=ORIENTED_EDGE('',*,*,#606,.T.);
#801=ORIENTED_EDGE('',*,*,#605,.F.);
#802=ORIENTED_EDGE('',*,*,#606,.F.);
#803=ORIENTED_EDGE('',*,*,#607,.F.);
#804=ORIENTED_EDGE('',*,*,#608,.T.);
#805=ORIENTED_EDGE('',*,*,#609,.F.);
#806=ORIENTED_EDGE('',*,*,#610,.T.);
#807=ORIENTED_EDGE('',*,*,#611,.F.);
#808=ORIENTED_EDGE('',*,*,#589,.F.);
#809=ORIENTED_EDGE('',*,*,#612,.F.);
#810=ORIENTED_EDGE('',*,*,#608,.F.);
#811=ORIENTED_EDGE('',*,*,#613,.F.);
#812=ORIENTED_EDGE('',*,*,#610,.F.);
#813=ORIENTED_EDGE('',*,*,#614,.F.);
#814=ORIENTED_EDGE('',*,*,#599,.F.);
#815=ORIENTED_EDGE('',*,*,#611,.T.);
#816=ORIENTED_EDGE('',*,*,#607,.T.);
#817=ORIENTED_EDGE('',*,*,#612,.T.);
#818=ORIENTED_EDGE('',*,*,#588,.F.);
#819=ORIENTED_EDGE('',*,*,#615,.F.);
#820=ORIENTED_EDGE('',*,*,#506,.F.);
#821=ORIENTED_EDGE('',*,*,#616,.T.);
#822=ORIENTED_EDGE('',*,*,#590,.F.);
#823=ORIENTED_EDGE('',*,*,#541,.T.);
#824=ORIENTED_EDGE('',*,*,#603,.F.);
#825=ORIENTED_EDGE('',*,*,#617,.F.);
#826=ORIENTED_EDGE('',*,*,#618,.T.);
#827=ORIENTED_EDGE('',*,*,#619,.T.);
#828=ORIENTED_EDGE('',*,*,#595,.F.);
#829=ORIENTED_EDGE('',*,*,#542,.T.);
#830=ORIENTED_EDGE('',*,*,#536,.T.);
#831=ORIENTED_EDGE('',*,*,#596,.F.);
#832=ORIENTED_EDGE('',*,*,#619,.F.);
#833=ORIENTED_EDGE('',*,*,#620,.F.);
#834=ORIENTED_EDGE('',*,*,#580,.F.);
#835=ORIENTED_EDGE('',*,*,#597,.F.);
#836=ORIENTED_EDGE('',*,*,#582,.T.);
#837=ORIENTED_EDGE('',*,*,#621,.T.);
#838=ORIENTED_EDGE('',*,*,#622,.T.);
#839=ORIENTED_EDGE('',*,*,#613,.T.);
#840=ORIENTED_EDGE('',*,*,#598,.F.);
#841=ORIENTED_EDGE('',*,*,#622,.F.);
#842=ORIENTED_EDGE('',*,*,#623,.T.);
#843=ORIENTED_EDGE('',*,*,#624,.T.);
#844=ORIENTED_EDGE('',*,*,#600,.F.);
#845=ORIENTED_EDGE('',*,*,#614,.T.);
#846=ORIENTED_EDGE('',*,*,#609,.T.);
#847=ORIENTED_EDGE('',*,*,#620,.T.);
#848=ORIENTED_EDGE('',*,*,#618,.F.);
#849=ORIENTED_EDGE('',*,*,#625,.T.);
#850=ORIENTED_EDGE('',*,*,#563,.F.);
#851=ORIENTED_EDGE('',*,*,#626,.T.);
#852=ORIENTED_EDGE('',*,*,#623,.F.);
#853=ORIENTED_EDGE('',*,*,#621,.F.);
#854=ORIENTED_EDGE('',*,*,#581,.F.);
#855=ORIENTED_EDGE('',*,*,#498,.T.);
#856=ORIENTED_EDGE('',*,*,#501,.T.);
#857=ORIENTED_EDGE('',*,*,#491,.T.);
#858=ORIENTED_EDGE('',*,*,#495,.T.);
#859=ORIENTED_EDGE('',*,*,#602,.F.);
#860=ORIENTED_EDGE('',*,*,#564,.T.);
#861=ORIENTED_EDGE('',*,*,#625,.F.);
#862=ORIENTED_EDGE('',*,*,#617,.T.);
#863=ORIENTED_EDGE('',*,*,#601,.F.);
#864=ORIENTED_EDGE('',*,*,#624,.F.);
#865=ORIENTED_EDGE('',*,*,#626,.F.);
#866=ORIENTED_EDGE('',*,*,#562,.F.);
#867=ORIENTED_EDGE('',*,*,#558,.T.);
#868=ORIENTED_EDGE('',*,*,#585,.F.);
#869=ORIENTED_EDGE('',*,*,#627,.T.);
#870=ORIENTED_EDGE('',*,*,#509,.F.);
#871=ORIENTED_EDGE('',*,*,#628,.F.);
#872=ORIENTED_EDGE('',*,*,#586,.F.);
#873=ORIENTED_EDGE('',*,*,#559,.T.);
#874=ORIENTED_EDGE('',*,*,#553,.T.);
#875=ORIENTED_EDGE('',*,*,#576,.T.);
#876=ORIENTED_EDGE('',*,*,#592,.F.);
#877=ORIENTED_EDGE('',*,*,#629,.T.);
#878=ORIENTED_EDGE('',*,*,#503,.F.);
#879=ORIENTED_EDGE('',*,*,#630,.F.);
#880=ORIENTED_EDGE('',*,*,#593,.F.);
#881=ORIENTED_EDGE('',*,*,#577,.T.);
#882=ORIENTED_EDGE('',*,*,#571,.T.);
#883=ORIENTED_EDGE('',*,*,#515,.T.);
#884=ORIENTED_EDGE('',*,*,#519,.T.);
#885=ORIENTED_EDGE('',*,*,#522,.T.);
#886=ORIENTED_EDGE('',*,*,#525,.T.);
#887=ORIENTED_EDGE('',*,*,#499,.T.);
#888=ORIENTED_EDGE('',*,*,#496,.T.);
#889=ORIENTED_EDGE('',*,*,#493,.T.);
#890=ORIENTED_EDGE('',*,*,#502,.T.);
#891=ORIENTED_EDGE('',*,*,#591,.T.);
#892=ORIENTED_EDGE('',*,*,#616,.F.);
#893=ORIENTED_EDGE('',*,*,#508,.T.);
#894=ORIENTED_EDGE('',*,*,#631,.F.);
#895=ORIENTED_EDGE('',*,*,#527,.F.);
#896=ORIENTED_EDGE('',*,*,#632,.F.);
#897=ORIENTED_EDGE('',*,*,#504,.T.);
#898=ORIENTED_EDGE('',*,*,#629,.F.);
#899=ORIENTED_EDGE('',*,*,#627,.F.);
#900=ORIENTED_EDGE('',*,*,#584,.F.);
#901=ORIENTED_EDGE('',*,*,#546,.F.);
#902=ORIENTED_EDGE('',*,*,#514,.F.);
#903=ORIENTED_EDGE('',*,*,#633,.F.);
#904=ORIENTED_EDGE('',*,*,#529,.T.);
#905=ORIENTED_EDGE('',*,*,#634,.F.);
#906=ORIENTED_EDGE('',*,*,#510,.F.);
#907=ORIENTED_EDGE('',*,*,#545,.T.);
#908=ORIENTED_EDGE('',*,*,#594,.T.);
#909=ORIENTED_EDGE('',*,*,#630,.T.);
#910=ORIENTED_EDGE('',*,*,#505,.T.);
#911=ORIENTED_EDGE('',*,*,#632,.T.);
#912=ORIENTED_EDGE('',*,*,#530,.T.);
#913=ORIENTED_EDGE('',*,*,#633,.T.);
#914=ORIENTED_EDGE('',*,*,#513,.T.);
#915=ORIENTED_EDGE('',*,*,#628,.T.);
#916=ORIENTED_EDGE('',*,*,#511,.T.);
#917=ORIENTED_EDGE('',*,*,#634,.T.);
#918=ORIENTED_EDGE('',*,*,#528,.T.);
#919=ORIENTED_EDGE('',*,*,#631,.T.);
#920=ORIENTED_EDGE('',*,*,#507,.T.);
#921=ORIENTED_EDGE('',*,*,#615,.T.);
#922=ORIENTED_EDGE('',*,*,#587,.T.);
#923=PLANE('',#1029);
#924=PLANE('',#1030);
#925=PLANE('',#1031);
#926=PLANE('',#1032);
#927=PLANE('',#1033);
#928=PLANE('',#1035);
#929=PLANE('',#1037);
#930=PLANE('',#1039);
#931=PLANE('',#1041);
#932=PLANE('',#1042);
#933=PLANE('',#1043);
#934=PLANE('',#1044);
#935=PLANE('',#1045);
#936=PLANE('',#1049);
#937=PLANE('',#1050);
#938=PLANE('',#1053);
#939=PLANE('',#1066);
#940=PLANE('',#1067);
#941=PLANE('',#1070);
#942=PLANE('',#1084);
#943=PLANE('',#1085);
#944=PLANE('',#1088);
#945=PLANE('',#1099);
#946=PLANE('',#1115);
#947=PLANE('',#1116);
#948=PLANE('',#1119);
#949=PLANE('',#1127);
#950=PLANE('',#1128);
#951=PLANE('',#1131);
#952=PLANE('',#1132);
#953=PLANE('',#1133);
#954=PLANE('',#1136);
#955=PLANE('',#1137);
#956=PLANE('',#1138);
#957=PLANE('',#1139);
#958=PLANE('',#1140);
#959=ADVANCED_FACE('',(#99),#923,.F.);
#960=ADVANCED_FACE('',(#100),#924,.T.);
#961=ADVANCED_FACE('',(#101),#925,.T.);
#962=ADVANCED_FACE('',(#102),#926,.T.);
#963=ADVANCED_FACE('',(#103),#927,.F.);
#964=ADVANCED_FACE('',(#104),#928,.F.);
#965=ADVANCED_FACE('',(#105),#929,.F.);
#966=ADVANCED_FACE('',(#106),#930,.F.);
#967=ADVANCED_FACE('',(#107),#931,.F.);
#968=ADVANCED_FACE('',(#108),#932,.T.);
#969=ADVANCED_FACE('',(#109),#933,.T.);
#970=ADVANCED_FACE('',(#110),#934,.T.);
#971=ADVANCED_FACE('',(#111,#35),#935,.F.);
#972=ADVANCED_FACE('',(#112),#15,.F.);
#973=ADVANCED_FACE('',(#113),#936,.F.);
#974=ADVANCED_FACE('',(#114),#937,.T.);
#975=ADVANCED_FACE('',(#115),#938,.T.);
#976=ADVANCED_FACE('',(#116),#16,.T.);
#977=ADVANCED_FACE('',(#117),#17,.T.);
#978=ADVANCED_FACE('',(#118),#18,.T.);
#979=ADVANCED_FACE('',(#119),#19,.F.);
#980=ADVANCED_FACE('',(#120),#939,.F.);
#981=ADVANCED_FACE('',(#121),#940,.T.);
#982=ADVANCED_FACE('',(#122),#941,.T.);
#983=ADVANCED_FACE('',(#123),#20,.T.);
#984=ADVANCED_FACE('',(#124),#21,.T.);
#985=ADVANCED_FACE('',(#125),#22,.F.);
#986=ADVANCED_FACE('',(#126),#23,.F.);
#987=ADVANCED_FACE('',(#127),#942,.F.);
#988=ADVANCED_FACE('',(#128),#943,.T.);
#989=ADVANCED_FACE('',(#129),#944,.T.);
#990=ADVANCED_FACE('',(#130),#24,.T.);
#991=ADVANCED_FACE('',(#131),#25,.T.);
#992=ADVANCED_FACE('',(#132),#26,.F.);
#993=ADVANCED_FACE('',(#133,#36,#37,#38,#39,#40),#945,.F.);
#994=ADVANCED_FACE('',(#134),#27,.F.);
#995=ADVANCED_FACE('',(#135),#946,.F.);
#996=ADVANCED_FACE('',(#136),#947,.T.);
#997=ADVANCED_FACE('',(#137),#948,.T.);
#998=ADVANCED_FACE('',(#138),#28,.T.);
#999=ADVANCED_FACE('',(#139),#29,.T.);
#1000=ADVANCED_FACE('',(#140),#30,.T.);
#1001=ADVANCED_FACE('',(#141),#31,.F.);
#1002=ADVANCED_FACE('',(#142),#949,.F.);
#1003=ADVANCED_FACE('',(#143),#950,.T.);
#1004=ADVANCED_FACE('',(#144),#32,.F.);
#1005=ADVANCED_FACE('',(#145,#41),#951,.T.);
#1006=ADVANCED_FACE('',(#146),#952,.T.);
#1007=ADVANCED_FACE('',(#147),#953,.T.);
#1008=ADVANCED_FACE('',(#148),#33,.T.);
#1009=ADVANCED_FACE('',(#149),#34,.T.);
#1010=ADVANCED_FACE('',(#150,#42),#954,.F.);
#1011=ADVANCED_FACE('',(#151),#955,.F.);
#1012=ADVANCED_FACE('',(#152),#956,.F.);
#1013=ADVANCED_FACE('',(#153),#957,.T.);
#1014=ADVANCED_FACE('',(#154),#958,.F.);
#1015=CLOSED_SHELL('',(#959,#960,#961,#962,#963,#964,#965,#966,#967,#968,
#969,#970,#971,#972,#973,#974,#975,#976,#977,#978,#979,#980,#981,#982,#983,
#984,#985,#986,#987,#988,#989,#990,#991,#992,#993,#994,#995,#996,#997,#998,
#999,#1000,#1001,#1002,#1003,#1004,#1005,#1006,#1007,#1008,#1009,#1010,
#1011,#1012,#1013,#1014));
#1016=DERIVED_UNIT_ELEMENT(#1018,1.);
#1017=DERIVED_UNIT_ELEMENT(#1757,-3.);
#1018=(
MASS_UNIT()
NAMED_UNIT(*)
SI_UNIT(.KILO.,.GRAM.)
);
#1019=DERIVED_UNIT((#1016,#1017));
#1020=MEASURE_REPRESENTATION_ITEM('density measure',
POSITIVE_RATIO_MEASURE(7850.),#1019);
#1021=PROPERTY_DEFINITION_REPRESENTATION(#1026,#1023);
#1022=PROPERTY_DEFINITION_REPRESENTATION(#1027,#1024);
#1023=REPRESENTATION('material name',(#1025),#1754);
#1024=REPRESENTATION('density',(#1020),#1754);
#1025=DESCRIPTIVE_REPRESENTATION_ITEM('Steel','Steel');
#1026=PROPERTY_DEFINITION('material property','material name',#1764);
#1027=PROPERTY_DEFINITION('material property','density of part',#1764);
#1028=AXIS2_PLACEMENT_3D('',#1455,#1141,#1142);
#1029=AXIS2_PLACEMENT_3D('',#1456,#1143,#1144);
#1030=AXIS2_PLACEMENT_3D('',#1465,#1149,#1150);
#1031=AXIS2_PLACEMENT_3D('',#1471,#1154,#1155);
#1032=AXIS2_PLACEMENT_3D('',#1477,#1159,#1160);
#1033=AXIS2_PLACEMENT_3D('',#1480,#1163,#1164);
#1034=AXIS2_PLACEMENT_3D('',#1483,#1165,#1166);
#1035=AXIS2_PLACEMENT_3D('',#1487,#1169,#1170);
#1036=AXIS2_PLACEMENT_3D('',#1490,#1171,#1172);
#1037=AXIS2_PLACEMENT_3D('',#1494,#1175,#1176);
#1038=AXIS2_PLACEMENT_3D('',#1497,#1177,#1178);
#1039=AXIS2_PLACEMENT_3D('',#1501,#1181,#1182);
#1040=AXIS2_PLACEMENT_3D('',#1504,#1183,#1184);
#1041=AXIS2_PLACEMENT_3D('',#1508,#1187,#1188);
#1042=AXIS2_PLACEMENT_3D('',#1517,#1193,#1194);
#1043=AXIS2_PLACEMENT_3D('',#1523,#1198,#1199);
#1044=AXIS2_PLACEMENT_3D('',#1529,#1203,#1204);
#1045=AXIS2_PLACEMENT_3D('',#1532,#1207,#1208);
#1046=AXIS2_PLACEMENT_3D('',#1541,#1213,#1214);
#1047=AXIS2_PLACEMENT_3D('',#1543,#1215,#1216);
#1048=AXIS2_PLACEMENT_3D('',#1546,#1218,#1219);
#1049=AXIS2_PLACEMENT_3D('',#1547,#1220,#1221);
#1050=AXIS2_PLACEMENT_3D('',#1548,#1222,#1223);
#1051=AXIS2_PLACEMENT_3D('',#1551,#1224,#1225);
#1052=AXIS2_PLACEMENT_3D('',#1552,#1226,#1227);
#1053=AXIS2_PLACEMENT_3D('',#1553,#1228,#1229);
#1054=AXIS2_PLACEMENT_3D('',#1556,#1230,#1231);
#1055=AXIS2_PLACEMENT_3D('',#1557,#1232,#1233);
#1056=AXIS2_PLACEMENT_3D('',#1558,#1234,#1235);
#1057=AXIS2_PLACEMENT_3D('',#1562,#1237,#1238);
#1058=AXIS2_PLACEMENT_3D('',#1564,#1240,#1241);
#1059=AXIS2_PLACEMENT_3D('',#1569,#1244,#1245);
#1060=AXIS2_PLACEMENT_3D('',#1570,#1246,#1247);
#1061=AXIS2_PLACEMENT_3D('',#1572,#1248,#1249);
#1062=AXIS2_PLACEMENT_3D('',#1576,#1252,#1253);
#1063=AXIS2_PLACEMENT_3D('',#1577,#1254,#1255);
#1064=AXIS2_PLACEMENT_3D('',#1579,#1256,#1257);
#1065=AXIS2_PLACEMENT_3D('',#1582,#1259,#1260);
#1066=AXIS2_PLACEMENT_3D('',#1583,#1261,#1262);
#1067=AXIS2_PLACEMENT_3D('',#1584,#1263,#1264);
#1068=AXIS2_PLACEMENT_3D('',#1587,#1265,#1266);
#1069=AXIS2_PLACEMENT_3D('',#1588,#1267,#1268);
#1070=AXIS2_PLACEMENT_3D('',#1589,#1269,#1270);
#1071=AXIS2_PLACEMENT_3D('',#1592,#1271,#1272);
#1072=AXIS2_PLACEMENT_3D('',#1593,#1273,#1274);
#1073=AXIS2_PLACEMENT_3D('',#1594,#1275,#1276);
#1074=AXIS2_PLACEMENT_3D('',#1598,#1278,#1279);
#1075=AXIS2_PLACEMENT_3D('',#1600,#1281,#1282);
#1076=AXIS2_PLACEMENT_3D('',#1605,#1285,#1286);
#1077=AXIS2_PLACEMENT_3D('',#1606,#1287,#1288);
#1078=AXIS2_PLACEMENT_3D('',#1608,#1289,#1290);
#1079=AXIS2_PLACEMENT_3D('',#1612,#1292,#1293);
#1080=AXIS2_PLACEMENT_3D('',#1615,#1295,#1296);
#1081=AXIS2_PLACEMENT_3D('',#1616,#1297,#1298);
#1082=AXIS2_PLACEMENT_3D('',#1618,#1299,#1300);
#1083=AXIS2_PLACEMENT_3D('',#1621,#1302,#1303);
#1084=AXIS2_PLACEMENT_3D('',#1622,#1304,#1305);
#1085=AXIS2_PLACEMENT_3D('',#1623,#1306,#1307);
#1086=AXIS2_PLACEMENT_3D('',#1626,#1308,#1309);
#1087=AXIS2_PLACEMENT_3D('',#1627,#1310,#1311);
#1088=AXIS2_PLACEMENT_3D('',#1628,#1312,#1313);
#1089=AXIS2_PLACEMENT_3D('',#1631,#1314,#1315);
#1090=AXIS2_PLACEMENT_3D('',#1632,#1316,#1317);
#1091=AXIS2_PLACEMENT_3D('',#1633,#1318,#1319);
#1092=AXIS2_PLACEMENT_3D('',#1637,#1321,#1322);
#1093=AXIS2_PLACEMENT_3D('',#1639,#1324,#1325);
#1094=AXIS2_PLACEMENT_3D('',#1644,#1328,#1329);
#1095=AXIS2_PLACEMENT_3D('',#1645,#1330,#1331);
#1096=AXIS2_PLACEMENT_3D('',#1647,#1332,#1333);
#1097=AXIS2_PLACEMENT_3D('',#1651,#1335,#1336);
#1098=AXIS2_PLACEMENT_3D('',#1654,#1338,#1339);
#1099=AXIS2_PLACEMENT_3D('',#1655,#1340,#1341);
#1100=AXIS2_PLACEMENT_3D('',#1658,#1343,#1344);
#1101=AXIS2_PLACEMENT_3D('',#1660,#1345,#1346);
#1102=AXIS2_PLACEMENT_3D('',#1664,#1348,#1349);
#1103=AXIS2_PLACEMENT_3D('',#1666,#1350,#1351);
#1104=AXIS2_PLACEMENT_3D('',#1668,#1352,#1353);
#1105=AXIS2_PLACEMENT_3D('',#1671,#1355,#1356);
#1106=AXIS2_PLACEMENT_3D('',#1673,#1357,#1358);
#1107=AXIS2_PLACEMENT_3D('',#1676,#1360,#1361);
#1108=AXIS2_PLACEMENT_3D('',#1681,#1364,#1365);
#1109=AXIS2_PLACEMENT_3D('',#1683,#1366,#1367);
#1110=AXIS2_PLACEMENT_3D('',#1685,#1368,#1369);
#1111=AXIS2_PLACEMENT_3D('',#1689,#1372,#1373);
#1112=AXIS2_PLACEMENT_3D('',#1691,#1374,#1375);
#1113=AXIS2_PLACEMENT_3D('',#1692,#1376,#1377);
#1114=AXIS2_PLACEMENT_3D('',#1695,#1379,#1380);
#1115=AXIS2_PLACEMENT_3D('',#1696,#1381,#1382);
#1116=AXIS2_PLACEMENT_3D('',#1697,#1383,#1384);
#1117=AXIS2_PLACEMENT_3D('',#1700,#1385,#1386);
#1118=AXIS2_PLACEMENT_3D('',#1701,#1387,#1388);
#1119=AXIS2_PLACEMENT_3D('',#1702,#1389,#1390);
#1120=AXIS2_PLACEMENT_3D('',#1705,#1391,#1392);
#1121=AXIS2_PLACEMENT_3D('',#1706,#1393,#1394);
#1122=AXIS2_PLACEMENT_3D('',#1707,#1395,#1396);
#1123=AXIS2_PLACEMENT_3D('',#1710,#1399,#1400);
#1124=AXIS2_PLACEMENT_3D('',#1713,#1403,#1404);
#1125=AXIS2_PLACEMENT_3D('',#1716,#1407,#1408);
#1126=AXIS2_PLACEMENT_3D('',#1720,#1410,#1411);
#1127=AXIS2_PLACEMENT_3D('',#1722,#1413,#1414);
#1128=AXIS2_PLACEMENT_3D('',#1724,#1416,#1417);
#1129=AXIS2_PLACEMENT_3D('',#1728,#1420,#1421);
#1130=AXIS2_PLACEMENT_3D('',#1730,#1422,#1423);
#1131=AXIS2_PLACEMENT_3D('',#1732,#1425,#1426);
#1132=AXIS2_PLACEMENT_3D('',#1735,#1429,#1430);
#1133=AXIS2_PLACEMENT_3D('',#1736,#1431,#1432);
#1134=AXIS2_PLACEMENT_3D('',#1737,#1433,#1434);
#1135=AXIS2_PLACEMENT_3D('',#1740,#1437,#1438);
#1136=AXIS2_PLACEMENT_3D('',#1743,#1441,#1442);
#1137=AXIS2_PLACEMENT_3D('',#1744,#1443,#1444);
#1138=AXIS2_PLACEMENT_3D('',#1747,#1447,#1448);
#1139=AXIS2_PLACEMENT_3D('',#1750,#1451,#1452);
#1140=AXIS2_PLACEMENT_3D('',#1751,#1453,#1454);
#1141=DIRECTION('axis',(0.,0.,1.));
#1142=DIRECTION('refdir',(1.,0.,0.));
#1143=DIRECTION('center_axis',(0.,0.,1.));
#1144=DIRECTION('ref_axis',(1.,0.,0.));
#1145=DIRECTION('',(-1.,0.,0.));
#1146=DIRECTION('',(0.,1.,0.));
#1147=DIRECTION('',(1.,0.,0.));
#1148=DIRECTION('',(0.,-1.,0.));
#1149=DIRECTION('center_axis',(1.,0.,0.));
#1150=DIRECTION('ref_axis',(0.,0.,-1.));
#1151=DIRECTION('',(0.,0.,-1.));
#1152=DIRECTION('',(0.,0.,1.));
#1153=DIRECTION('',(0.,1.,0.));
#1154=DIRECTION('center_axis',(0.,0.,1.));
#1155=DIRECTION('ref_axis',(1.,0.,0.));
#1156=DIRECTION('',(1.,0.,0.));
#1157=DIRECTION('',(-1.,0.,0.));
#1158=DIRECTION('',(0.,-1.,0.));
#1159=DIRECTION('center_axis',(-1.,0.,0.));
#1160=DIRECTION('ref_axis',(0.,0.,1.));
#1161=DIRECTION('',(0.,0.,1.));
#1162=DIRECTION('',(0.,0.,-1.));
#1163=DIRECTION('center_axis',(0.,-1.,0.));
#1164=DIRECTION('ref_axis',(0.,0.,-1.));
#1165=DIRECTION('center_axis',(0.,-1.,0.));
#1166=DIRECTION('ref_axis',(1.,0.,0.));
#1167=DIRECTION('',(0.,0.,-1.));
#1168=DIRECTION('',(-1.,0.,0.));
#1169=DIRECTION('center_axis',(0.,-1.,0.));
#1170=DIRECTION('ref_axis',(0.,0.,-1.));
#1171=DIRECTION('center_axis',(0.,-1.,0.));
#1172=DIRECTION('ref_axis',(1.,0.,0.));
#1173=DIRECTION('',(1.,0.,0.));
#1174=DIRECTION('',(0.,0.,-1.));
#1175=DIRECTION('center_axis',(0.,-1.,0.));
#1176=DIRECTION('ref_axis',(0.,0.,-1.));
#1177=DIRECTION('center_axis',(0.,-1.,0.));
#1178=DIRECTION('ref_axis',(1.,0.,0.));
#1179=DIRECTION('',(0.,0.,-1.));
#1180=DIRECTION('',(1.,0.,0.));
#1181=DIRECTION('center_axis',(0.,-1.,0.));
#1182=DIRECTION('ref_axis',(0.,0.,-1.));
#1183=DIRECTION('center_axis',(0.,-1.,0.));
#1184=DIRECTION('ref_axis',(1.,0.,0.));
#1185=DIRECTION('',(-1.,0.,0.));
#1186=DIRECTION('',(0.,0.,-1.));
#1187=DIRECTION('center_axis',(0.,0.,1.));
#1188=DIRECTION('ref_axis',(1.,0.,0.));
#1189=DIRECTION('',(-1.,0.,0.));
#1190=DIRECTION('',(0.,1.,0.));
#1191=DIRECTION('',(1.,0.,0.));
#1192=DIRECTION('',(0.,-1.,0.));
#1193=DIRECTION('center_axis',(1.,0.,0.));
#1194=DIRECTION('ref_axis',(0.,0.,-1.));
#1195=DIRECTION('',(0.,0.,-1.));
#1196=DIRECTION('',(0.,0.,1.));
#1197=DIRECTION('',(0.,1.,0.));
#1198=DIRECTION('center_axis',(0.,0.,1.));
#1199=DIRECTION('ref_axis',(1.,0.,0.));
#1200=DIRECTION('',(1.,0.,0.));
#1201=DIRECTION('',(-1.,0.,0.));
#1202=DIRECTION('',(0.,-1.,0.));
#1203=DIRECTION('center_axis',(-1.,0.,0.));
#1204=DIRECTION('ref_axis',(0.,0.,1.));
#1205=DIRECTION('',(0.,0.,1.));
#1206=DIRECTION('',(0.,0.,-1.));
#1207=DIRECTION('center_axis',(0.,1.,0.));
#1208=DIRECTION('ref_axis',(0.,0.,1.));
#1209=DIRECTION('',(0.,0.,-1.));
#1210=DIRECTION('',(-1.,0.,0.));
#1211=DIRECTION('',(0.,0.,-1.));
#1212=DIRECTION('',(1.,0.,0.));
#1213=DIRECTION('center_axis',(0.,-1.,0.));
#1214=DIRECTION('ref_axis',(1.,0.,0.));
#1215=DIRECTION('center_axis',(0.,-1.,0.));
#1216=DIRECTION('ref_axis',(1.,0.,0.));
#1217=DIRECTION('',(0.,-1.,0.));
#1218=DIRECTION('center_axis',(0.,-1.,0.));
#1219=DIRECTION('ref_axis',(1.,0.,0.));
#1220=DIRECTION('center_axis',(0.,-1.,0.));
#1221=DIRECTION('ref_axis',(1.,0.,0.));
#1222=DIRECTION('center_axis',(0.,-1.,0.));
#1223=DIRECTION('ref_axis',(1.,0.,0.));
#1224=DIRECTION('center_axis',(0.,-1.,0.));
#1225=DIRECTION('ref_axis',(1.,0.,0.));
#1226=DIRECTION('center_axis',(0.,-1.,0.));
#1227=DIRECTION('ref_axis',(1.,0.,0.));
#1228=DIRECTION('center_axis',(0.,-1.,0.));
#1229=DIRECTION('ref_axis',(1.,0.,0.));
#1230=DIRECTION('center_axis',(0.,1.,0.));
#1231=DIRECTION('ref_axis',(1.,0.,0.));
#1232=DIRECTION('center_axis',(0.,-1.,0.));
#1233=DIRECTION('ref_axis',(1.,0.,0.));
#1234=DIRECTION('center_axis',(0.,-1.,0.));
#1235=DIRECTION('ref_axis',(1.,0.,0.));
#1236=DIRECTION('',(0.,-1.,0.));
#1237=DIRECTION('center_axis',(0.,1.,0.));
#1238=DIRECTION('ref_axis',(1.,0.,0.));
#1239=DIRECTION('',(0.,1.,0.));
#1240=DIRECTION('center_axis',(0.,-1.,0.));
#1241=DIRECTION('ref_axis',(1.,0.,0.));
#1242=DIRECTION('',(0.,1.,0.));
#1243=DIRECTION('',(0.,-1.,0.));
#1244=DIRECTION('center_axis',(0.,1.,0.));
#1245=DIRECTION('ref_axis',(1.,0.,0.));
#1246=DIRECTION('center_axis',(0.,1.,0.));
#1247=DIRECTION('ref_axis',(1.,0.,0.));
#1248=DIRECTION('center_axis',(0.,1.,0.));
#1249=DIRECTION('ref_axis',(1.,0.,0.));
#1250=DIRECTION('',(0.,1.,0.));
#1251=DIRECTION('',(0.,1.,0.));
#1252=DIRECTION('center_axis',(0.,1.,0.));
#1253=DIRECTION('ref_axis',(1.,0.,0.));
#1254=DIRECTION('center_axis',(0.,-1.,0.));
#1255=DIRECTION('ref_axis',(1.,0.,0.));
#1256=DIRECTION('center_axis',(0.,-1.,0.));
#1257=DIRECTION('ref_axis',(1.,0.,0.));
#1258=DIRECTION('',(0.,-1.,0.));
#1259=DIRECTION('center_axis',(0.,-1.,0.));
#1260=DIRECTION('ref_axis',(1.,0.,0.));
#1261=DIRECTION('center_axis',(0.,-1.,0.));
#1262=DIRECTION('ref_axis',(1.,0.,0.));
#1263=DIRECTION('center_axis',(0.,-1.,0.));
#1264=DIRECTION('ref_axis',(1.,0.,0.));
#1265=DIRECTION('center_axis',(0.,1.,0.));
#1266=DIRECTION('ref_axis',(1.,0.,0.));
#1267=DIRECTION('center_axis',(0.,-1.,0.));
#1268=DIRECTION('ref_axis',(1.,0.,0.));
#1269=DIRECTION('center_axis',(0.,-1.,0.));
#1270=DIRECTION('ref_axis',(1.,0.,0.));
#1271=DIRECTION('center_axis',(0.,-1.,0.));
#1272=DIRECTION('ref_axis',(1.,0.,0.));
#1273=DIRECTION('center_axis',(0.,-1.,0.));
#1274=DIRECTION('ref_axis',(1.,0.,0.));
#1275=DIRECTION('center_axis',(0.,-1.,0.));
#1276=DIRECTION('ref_axis',(1.,0.,0.));
#1277=DIRECTION('',(0.,-1.,0.));
#1278=DIRECTION('center_axis',(0.,1.,0.));
#1279=DIRECTION('ref_axis',(1.,0.,0.));
#1280=DIRECTION('',(0.,1.,0.));
#1281=DIRECTION('center_axis',(0.,-1.,0.));
#1282=DIRECTION('ref_axis',(1.,0.,0.));
#1283=DIRECTION('',(0.,1.,0.));
#1284=DIRECTION('',(0.,-1.,0.));
#1285=DIRECTION('center_axis',(0.,1.,0.));
#1286=DIRECTION('ref_axis',(1.,0.,0.));
#1287=DIRECTION('center_axis',(0.,1.,0.));
#1288=DIRECTION('ref_axis',(1.,0.,0.));
#1289=DIRECTION('center_axis',(0.,-1.,0.));
#1290=DIRECTION('ref_axis',(1.,0.,0.));
#1291=DIRECTION('',(0.,-1.,0.));
#1292=DIRECTION('center_axis',(0.,-1.,0.));
#1293=DIRECTION('ref_axis',(1.,0.,0.));
#1294=DIRECTION('',(0.,-1.,0.));
#1295=DIRECTION('center_axis',(0.,-1.,0.));
#1296=DIRECTION('ref_axis',(1.,0.,0.));
#1297=DIRECTION('center_axis',(0.,-1.,0.));
#1298=DIRECTION('ref_axis',(1.,0.,0.));
#1299=DIRECTION('center_axis',(0.,-1.,0.));
#1300=DIRECTION('ref_axis',(1.,0.,0.));
#1301=DIRECTION('',(0.,-1.,0.));
#1302=DIRECTION('center_axis',(0.,-1.,0.));
#1303=DIRECTION('ref_axis',(1.,0.,0.));
#1304=DIRECTION('center_axis',(0.,-1.,0.));
#1305=DIRECTION('ref_axis',(1.,0.,0.));
#1306=DIRECTION('center_axis',(0.,-1.,0.));
#1307=DIRECTION('ref_axis',(1.,0.,0.));
#1308=DIRECTION('center_axis',(0.,1.,0.));
#1309=DIRECTION('ref_axis',(1.,0.,0.));
#1310=DIRECTION('center_axis',(0.,-1.,0.));
#1311=DIRECTION('ref_axis',(1.,0.,0.));
#1312=DIRECTION('center_axis',(0.,-1.,0.));
#1313=DIRECTION('ref_axis',(1.,0.,0.));
#1314=DIRECTION('center_axis',(0.,-1.,0.));
#1315=DIRECTION('ref_axis',(1.,0.,0.));
#1316=DIRECTION('center_axis',(0.,-1.,0.));
#1317=DIRECTION('ref_axis',(1.,0.,0.));
#1318=DIRECTION('center_axis',(0.,-1.,0.));
#1319=DIRECTION('ref_axis',(1.,0.,0.));
#1320=DIRECTION('',(0.,-1.,0.));
#1321=DIRECTION('center_axis',(0.,1.,0.));
#1322=DIRECTION('ref_axis',(1.,0.,0.));
#1323=DIRECTION('',(0.,1.,0.));
#1324=DIRECTION('center_axis',(0.,-1.,0.));
#1325=DIRECTION('ref_axis',(-0.707106781186548,0.,0.707106781186547));
#1326=DIRECTION('',(0.,1.,0.));
#1327=DIRECTION('',(0.,-1.,0.));
#1328=DIRECTION('center_axis',(0.,1.,0.));
#1329=DIRECTION('ref_axis',(1.,0.,0.));
#1330=DIRECTION('center_axis',(0.,1.,0.));
#1331=DIRECTION('ref_axis',(1.,0.,0.));
#1332=DIRECTION('center_axis',(0.,-1.,0.));
#1333=DIRECTION('ref_axis',(1.,0.,0.));
#1334=DIRECTION('',(0.,-1.,0.));
#1335=DIRECTION('center_axis',(0.,-1.,0.));
#1336=DIRECTION('ref_axis',(1.,0.,0.));
#1337=DIRECTION('',(0.,-1.,0.));
#1338=DIRECTION('center_axis',(0.,-1.,0.));
#1339=DIRECTION('ref_axis',(1.,0.,0.));
#1340=DIRECTION('center_axis',(0.,-1.,0.));
#1341=DIRECTION('ref_axis',(0.,0.,-1.));
#1342=DIRECTION('',(0.,0.,-1.));
#1343=DIRECTION('center_axis',(0.,1.,0.));
#1344=DIRECTION('ref_axis',(1.,0.,0.));
#1345=DIRECTION('center_axis',(0.,1.,0.));
#1346=DIRECTION('ref_axis',(1.,0.,0.));
#1347=DIRECTION('',(1.,0.,0.));
#1348=DIRECTION('center_axis',(0.,1.,0.));
#1349=DIRECTION('ref_axis',(1.,0.,0.));
#1350=DIRECTION('center_axis',(0.,1.,0.));
#1351=DIRECTION('ref_axis',(1.,0.,0.));
#1352=DIRECTION('center_axis',(0.,1.,0.));
#1353=DIRECTION('ref_axis',(1.,0.,0.));
#1354=DIRECTION('',(0.,0.,-1.));
#1355=DIRECTION('center_axis',(0.,1.,0.));
#1356=DIRECTION('ref_axis',(1.,0.,0.));
#1357=DIRECTION('center_axis',(0.,1.,0.));
#1358=DIRECTION('ref_axis',(1.,0.,0.));
#1359=DIRECTION('',(-1.,0.,0.));
#1360=DIRECTION('center_axis',(0.,-1.,0.));
#1361=DIRECTION('ref_axis',(1.,0.,0.));
#1362=DIRECTION('',(-1.,0.,0.));
#1363=DIRECTION('',(0.,0.,-1.));
#1364=DIRECTION('center_axis',(0.,-1.,0.));
#1365=DIRECTION('ref_axis',(1.,0.,0.));
#1366=DIRECTION('center_axis',(0.,1.,0.));
#1367=DIRECTION('ref_axis',(1.,0.,0.));
#1368=DIRECTION('center_axis',(0.,-1.,0.));
#1369=DIRECTION('ref_axis',(1.,0.,0.));
#1370=DIRECTION('',(1.,0.,0.));
#1371=DIRECTION('',(0.,0.,1.));
#1372=DIRECTION('center_axis',(0.,-1.,0.));
#1373=DIRECTION('ref_axis',(1.,0.,0.));
#1374=DIRECTION('center_axis',(0.,-1.,0.));
#1375=DIRECTION('ref_axis',(1.,0.,0.));
#1376=DIRECTION('center_axis',(0.,-1.,0.));
#1377=DIRECTION('ref_axis',(1.,0.,0.));
#1378=DIRECTION('',(0.,-1.,0.));
#1379=DIRECTION('center_axis',(0.,-1.,0.));
#1380=DIRECTION('ref_axis',(1.,0.,0.));
#1381=DIRECTION('center_axis',(0.,-1.,0.));
#1382=DIRECTION('ref_axis',(1.,0.,0.));
#1383=DIRECTION('center_axis',(0.,-1.,0.));
#1384=DIRECTION('ref_axis',(1.,0.,0.));
#1385=DIRECTION('center_axis',(0.,-1.,0.));
#1386=DIRECTION('ref_axis',(1.,0.,0.));
#1387=DIRECTION('center_axis',(0.,-1.,0.));
#1388=DIRECTION('ref_axis',(1.,0.,0.));
#1389=DIRECTION('center_axis',(0.,-1.,0.));
#1390=DIRECTION('ref_axis',(1.,0.,0.));
#1391=DIRECTION('center_axis',(0.,1.,0.));
#1392=DIRECTION('ref_axis',(1.,0.,0.));
#1393=DIRECTION('center_axis',(0.,-1.,0.));
#1394=DIRECTION('ref_axis',(1.,0.,0.));
#1395=DIRECTION('center_axis',(0.,-1.,0.));
#1396=DIRECTION('ref_axis',(-0.707106781186546,0.,-0.707106781186549));
#1397=DIRECTION('',(0.,-1.,0.));
#1398=DIRECTION('',(0.,1.,0.));
#1399=DIRECTION('center_axis',(0.,-1.,0.));
#1400=DIRECTION('ref_axis',(1.,0.,0.));
#1401=DIRECTION('',(0.,1.,0.));
#1402=DIRECTION('',(0.,-1.,0.));
#1403=DIRECTION('center_axis',(0.,1.,0.));
#1404=DIRECTION('ref_axis',(1.,0.,0.));
#1405=DIRECTION('',(0.,1.,0.));
#1406=DIRECTION('',(0.,1.,0.));
#1407=DIRECTION('center_axis',(0.,1.,0.));
#1408=DIRECTION('ref_axis',(1.,0.,0.));
#1409=DIRECTION('',(0.,1.,0.));
#1410=DIRECTION('center_axis',(0.,-1.,0.));
#1411=DIRECTION('ref_axis',(1.,0.,0.));
#1412=DIRECTION('',(0.,1.,0.));
#1413=DIRECTION('center_axis',(0.,0.,1.));
#1414=DIRECTION('ref_axis',(1.,0.,0.));
#1415=DIRECTION('',(1.,0.,0.));
#1416=DIRECTION('center_axis',(1.,0.,0.));
#1417=DIRECTION('ref_axis',(0.,0.,-1.));
#1418=DIRECTION('',(0.,0.,-1.));
#1419=DIRECTION('',(0.,1.,0.));
#1420=DIRECTION('center_axis',(0.,1.,0.));
#1421=DIRECTION('ref_axis',(1.,0.,0.));
#1422=DIRECTION('center_axis',(0.,-1.,0.));
#1423=DIRECTION('ref_axis',(1.,0.,0.));
#1424=DIRECTION('',(0.,1.,0.));
#1425=DIRECTION('center_axis',(0.,1.,0.));
#1426=DIRECTION('ref_axis',(0.,0.,1.));
#1427=DIRECTION('',(0.,0.,-1.));
#1428=DIRECTION('',(-1.,0.,0.));
#1429=DIRECTION('center_axis',(-1.,0.,0.));
#1430=DIRECTION('ref_axis',(0.,0.,1.));
#1431=DIRECTION('center_axis',(0.,0.,1.));
#1432=DIRECTION('ref_axis',(1.,0.,0.));
#1433=DIRECTION('center_axis',(0.,1.,0.));
#1434=DIRECTION('ref_axis',(1.,0.,0.));
#1435=DIRECTION('',(0.,-1.,0.));
#1436=DIRECTION('',(0.,-1.,0.));
#1437=DIRECTION('center_axis',(0.,1.,0.));
#1438=DIRECTION('ref_axis',(1.,0.,0.));
#1439=DIRECTION('',(0.,-1.,0.));
#1440=DIRECTION('',(0.,-1.,0.));
#1441=DIRECTION('center_axis',(0.,1.,0.));
#1442=DIRECTION('ref_axis',(0.,0.,1.));
#1443=DIRECTION('center_axis',(1.,0.,0.));
#1444=DIRECTION('ref_axis',(0.,0.,-1.));
#1445=DIRECTION('',(0.,1.,0.));
#1446=DIRECTION('',(0.,-1.,0.));
#1447=DIRECTION('center_axis',(-1.,0.,0.));
#1448=DIRECTION('ref_axis',(0.,0.,1.));
#1449=DIRECTION('',(0.,1.,0.));
#1450=DIRECTION('',(0.,-1.,0.));
#1451=DIRECTION('center_axis',(0.,0.,1.));
#1452=DIRECTION('ref_axis',(1.,0.,0.));
#1453=DIRECTION('center_axis',(0.,0.,1.));
#1454=DIRECTION('ref_axis',(1.,0.,0.));
#1455=CARTESIAN_POINT('',(0.,0.,0.));
#1456=CARTESIAN_POINT('Origin',(0.,-178.7,268.9));
#1457=CARTESIAN_POINT('',(28.9,-198.,268.9));
#1458=CARTESIAN_POINT('',(-28.9,-198.,268.9));
#1459=CARTESIAN_POINT('',(0.,-198.,268.9));
#1460=CARTESIAN_POINT('',(28.9,-202.,268.9));
#1461=CARTESIAN_POINT('',(28.9,-178.7,268.9));
#1462=CARTESIAN_POINT('',(-28.9,-202.,268.9));
#1463=CARTESIAN_POINT('',(0.,-202.,268.9));
#1464=CARTESIAN_POINT('',(-28.9,-178.7,268.9));
#1465=CARTESIAN_POINT('Origin',(-28.9,-178.7,240.));
#1466=CARTESIAN_POINT('',(-28.9,-198.,211.1));
#1467=CARTESIAN_POINT('',(-28.9,-198.,240.));
#1468=CARTESIAN_POINT('',(-28.9,-202.,211.1));
#1469=CARTESIAN_POINT('',(-28.9,-202.,240.));
#1470=CARTESIAN_POINT('',(-28.9,-178.7,211.1));
#1471=CARTESIAN_POINT('Origin',(0.,-178.7,211.1));
#1472=CARTESIAN_POINT('',(28.9,-198.,211.1));
#1473=CARTESIAN_POINT('',(0.,-198.,211.1));
#1474=CARTESIAN_POINT('',(28.9,-202.,211.1));
#1475=CARTESIAN_POINT('',(0.,-202.,211.1));
#1476=CARTESIAN_POINT('',(28.9,-178.7,211.1));
#1477=CARTESIAN_POINT('Origin',(28.9,-178.7,240.));
#1478=CARTESIAN_POINT('',(28.9,-198.,240.));
#1479=CARTESIAN_POINT('',(28.9,-202.,240.));
#1480=CARTESIAN_POINT('Origin',(0.,-202.,240.));
#1481=CARTESIAN_POINT('',(-29.,-202.,278.));
#1482=CARTESIAN_POINT('',(-38.,-202.,269.));
#1483=CARTESIAN_POINT('Origin',(-29.,-202.,269.));
#1484=CARTESIAN_POINT('',(-38.,-202.,278.));
#1485=CARTESIAN_POINT('',(-38.,-202.,240.));
#1486=CARTESIAN_POINT('',(0.,-202.,278.));
#1487=CARTESIAN_POINT('Origin',(0.,-202.,240.));
#1488=CARTESIAN_POINT('',(-38.,-202.,211.));
#1489=CARTESIAN_POINT('',(-29.,-202.,202.));
#1490=CARTESIAN_POINT('Origin',(-29.,-202.,211.));
#1491=CARTESIAN_POINT('',(-38.,-202.,202.));
#1492=CARTESIAN_POINT('',(0.,-202.,202.));
#1493=CARTESIAN_POINT('',(-38.,-202.,240.));
#1494=CARTESIAN_POINT('Origin',(0.,-202.,240.));
#1495=CARTESIAN_POINT('',(29.,-202.,202.));
#1496=CARTESIAN_POINT('',(38.,-202.,211.));
#1497=CARTESIAN_POINT('Origin',(29.,-202.,211.));
#1498=CARTESIAN_POINT('',(38.,-202.,202.));
#1499=CARTESIAN_POINT('',(38.,-202.,240.));
#1500=CARTESIAN_POINT('',(0.,-202.,202.));
#1501=CARTESIAN_POINT('Origin',(0.,-202.,240.));
#1502=CARTESIAN_POINT('',(38.,-202.,269.));
#1503=CARTESIAN_POINT('',(29.,-202.,278.));
#1504=CARTESIAN_POINT('Origin',(29.,-202.,269.));
#1505=CARTESIAN_POINT('',(38.,-202.,278.));
#1506=CARTESIAN_POINT('',(0.,-202.,278.));
#1507=CARTESIAN_POINT('',(38.,-202.,240.));
#1508=CARTESIAN_POINT('Origin',(0.,-212.25,275.));
#1509=CARTESIAN_POINT('',(35.,-202.,275.));
#1510=CARTESIAN_POINT('',(-35.,-202.,275.));
#1511=CARTESIAN_POINT('',(0.,-202.,275.));
#1512=CARTESIAN_POINT('',(35.,-223.5,275.));
#1513=CARTESIAN_POINT('',(35.,-212.25,275.));
#1514=CARTESIAN_POINT('',(-35.,-223.5,275.));
#1515=CARTESIAN_POINT('',(0.,-223.5,275.));
#1516=CARTESIAN_POINT('',(-35.,-212.25,275.));
#1517=CARTESIAN_POINT('Origin',(-35.,-212.25,240.));
#1518=CARTESIAN_POINT('',(-35.,-202.,205.));
#1519=CARTESIAN_POINT('',(-35.,-202.,240.));
#1520=CARTESIAN_POINT('',(-35.,-223.5,205.));
#1521=CARTESIAN_POINT('',(-35.,-223.5,240.));
#1522=CARTESIAN_POINT('',(-35.,-212.25,205.));
#1523=CARTESIAN_POINT('Origin',(0.,-212.25,205.));
#1524=CARTESIAN_POINT('',(35.,-202.,205.));
#1525=CARTESIAN_POINT('',(0.,-202.,205.));
#1526=CARTESIAN_POINT('',(35.,-223.5,205.));
#1527=CARTESIAN_POINT('',(0.,-223.5,205.));
#1528=CARTESIAN_POINT('',(35.,-212.25,205.));
#1529=CARTESIAN_POINT('Origin',(35.,-212.25,240.));
#1530=CARTESIAN_POINT('',(35.,-202.,240.));
#1531=CARTESIAN_POINT('',(35.,-223.5,240.));
#1532=CARTESIAN_POINT('Origin',(0.,-223.5,240.));
#1533=CARTESIAN_POINT('',(-38.,-223.5,278.));
#1534=CARTESIAN_POINT('',(-38.,-223.5,202.));
#1535=CARTESIAN_POINT('',(-38.,-223.5,240.));
#1536=CARTESIAN_POINT('',(38.,-223.5,202.));
#1537=CARTESIAN_POINT('',(0.,-223.5,202.));
#1538=CARTESIAN_POINT('',(38.,-223.5,278.));
#1539=CARTESIAN_POINT('',(38.,-223.5,240.));
#1540=CARTESIAN_POINT('',(0.,-223.5,278.));
#1541=CARTESIAN_POINT('Origin',(33.,-89.5,273.));
#1542=CARTESIAN_POINT('',(31.55,-84.,273.));
#1543=CARTESIAN_POINT('Origin',(33.,-84.,273.));
#1544=CARTESIAN_POINT('',(31.55,-97.,273.));
#1545=CARTESIAN_POINT('',(31.55,-89.5,273.));
#1546=CARTESIAN_POINT('Origin',(33.,-97.,273.));
#1547=CARTESIAN_POINT('Origin',(33.,-97.,273.));
#1548=CARTESIAN_POINT('Origin',(33.,-96.,273.));
#1549=CARTESIAN_POINT('',(37.4229443506408,-96.,272.170805649359));
#1550=CARTESIAN_POINT('',(32.1708056493592,-96.,277.422944350641));
#1551=CARTESIAN_POINT('Origin',(29.,-96.,269.));
#1552=CARTESIAN_POINT('Origin',(33.,-96.,273.));
#1553=CARTESIAN_POINT('Origin',(33.,-96.,273.));
#1554=CARTESIAN_POINT('',(28.6901603889296,-96.,271.705672944404));
#1555=CARTESIAN_POINT('',(31.7056729444037,-96.,268.69016038893));
#1556=CARTESIAN_POINT('Origin',(27.,-96.,267.));
#1557=CARTESIAN_POINT('Origin',(33.,-96.,273.));
#1558=CARTESIAN_POINT('Origin',(33.,-90.,273.));
#1559=CARTESIAN_POINT('',(37.4229443506408,-84.,272.170805649359));
#1560=CARTESIAN_POINT('',(37.4229443506408,-90.,272.170805649359));
#1561=CARTESIAN_POINT('',(32.1708056493592,-84.,277.422944350641));
#1562=CARTESIAN_POINT('Origin',(33.,-84.,273.));
#1563=CARTESIAN_POINT('',(32.1708056493592,-90.,277.422944350641));
#1564=CARTESIAN_POINT('Origin',(33.,-90.,273.));
#1565=CARTESIAN_POINT('',(31.7056729444037,-84.,268.69016038893));
#1566=CARTESIAN_POINT('',(31.7056729444037,-90.,268.69016038893));
#1567=CARTESIAN_POINT('',(28.6901603889296,-84.,271.705672944404));
#1568=CARTESIAN_POINT('',(28.6901603889296,-90.,271.705672944404));
#1569=CARTESIAN_POINT('Origin',(33.,-84.,273.));
#1570=CARTESIAN_POINT('Origin',(29.,-143.,269.));
#1571=CARTESIAN_POINT('',(29.,-84.,278.));
#1572=CARTESIAN_POINT('Origin',(29.,-84.,269.));
#1573=CARTESIAN_POINT('',(29.,-143.,278.));
#1574=CARTESIAN_POINT('',(38.,-84.,269.));
#1575=CARTESIAN_POINT('',(38.,-143.,269.));
#1576=CARTESIAN_POINT('Origin',(29.,-84.,269.));
#1577=CARTESIAN_POINT('Origin',(33.,-89.5,207.));
#1578=CARTESIAN_POINT('',(31.55,-84.,207.));
#1579=CARTESIAN_POINT('Origin',(33.,-84.,207.));
#1580=CARTESIAN_POINT('',(31.55,-97.,207.));
#1581=CARTESIAN_POINT('',(31.55,-89.5,207.));
#1582=CARTESIAN_POINT('Origin',(33.,-97.,207.));
#1583=CARTESIAN_POINT('Origin',(33.,-97.,207.));
#1584=CARTESIAN_POINT('Origin',(33.,-96.,207.));
#1585=CARTESIAN_POINT('',(31.7056729444037,-96.,211.30983961107));
#1586=CARTESIAN_POINT('',(28.6901603889296,-96.,208.294327055596));
#1587=CARTESIAN_POINT('Origin',(27.,-96.,213.));
#1588=CARTESIAN_POINT('Origin',(33.,-96.,207.));
#1589=CARTESIAN_POINT('Origin',(33.,-96.,207.));
#1590=CARTESIAN_POINT('',(32.1708056493592,-96.,202.577055649359));
#1591=CARTESIAN_POINT('',(37.4229443506408,-96.,207.829194350641));
#1592=CARTESIAN_POINT('Origin',(29.,-96.,211.));
#1593=CARTESIAN_POINT('Origin',(33.,-96.,207.));
#1594=CARTESIAN_POINT('Origin',(33.,-90.,207.));
#1595=CARTESIAN_POINT('',(31.7056729444037,-84.,211.30983961107));
#1596=CARTESIAN_POINT('',(31.7056729444037,-90.,211.30983961107));
#1597=CARTESIAN_POINT('',(28.6901603889296,-84.,208.294327055596));
#1598=CARTESIAN_POINT('Origin',(33.,-84.,207.));
#1599=CARTESIAN_POINT('',(28.6901603889296,-90.,208.294327055596));
#1600=CARTESIAN_POINT('Origin',(33.,-90.,207.));
#1601=CARTESIAN_POINT('',(37.4229443506408,-84.,207.829194350641));
#1602=CARTESIAN_POINT('',(37.4229443506408,-90.,207.829194350641));
#1603=CARTESIAN_POINT('',(32.1708056493592,-84.,202.577055649359));
#1604=CARTESIAN_POINT('',(32.1708056493592,-90.,202.577055649359));
#1605=CARTESIAN_POINT('Origin',(33.,-84.,207.));
#1606=CARTESIAN_POINT('Origin',(27.,-139.,213.));
#1607=CARTESIAN_POINT('',(27.,-84.,208.));
#1608=CARTESIAN_POINT('Origin',(27.,-84.,213.));
#1609=CARTESIAN_POINT('',(27.,-198.,208.));
#1610=CARTESIAN_POINT('',(27.,-139.,208.));
#1611=CARTESIAN_POINT('',(32.,-198.,213.));
#1612=CARTESIAN_POINT('Origin',(27.,-198.,213.));
#1613=CARTESIAN_POINT('',(32.,-84.,213.));
#1614=CARTESIAN_POINT('',(32.,-139.,213.));
#1615=CARTESIAN_POINT('Origin',(27.,-84.,213.));
#1616=CARTESIAN_POINT('Origin',(-33.,-89.5,273.));
#1617=CARTESIAN_POINT('',(-34.45,-84.,273.));
#1618=CARTESIAN_POINT('Origin',(-33.,-84.,273.));
#1619=CARTESIAN_POINT('',(-34.45,-97.,273.));
#1620=CARTESIAN_POINT('',(-34.45,-89.5,273.));
#1621=CARTESIAN_POINT('Origin',(-33.,-97.,273.));
#1622=CARTESIAN_POINT('Origin',(-33.,-97.,273.));
#1623=CARTESIAN_POINT('Origin',(-33.,-96.,273.));
#1624=CARTESIAN_POINT('',(-31.7056729444037,-96.,268.69016038893));
#1625=CARTESIAN_POINT('',(-28.6901603889296,-96.,271.705672944404));
#1626=CARTESIAN_POINT('Origin',(-27.,-96.,267.));
#1627=CARTESIAN_POINT('Origin',(-33.,-96.,273.));
#1628=CARTESIAN_POINT('Origin',(-33.,-96.,273.));
#1629=CARTESIAN_POINT('',(-32.1708056493592,-96.,277.422944350641));
#1630=CARTESIAN_POINT('',(-37.4229443506408,-96.,272.170805649359));
#1631=CARTESIAN_POINT('Origin',(-29.,-96.,269.));
#1632=CARTESIAN_POINT('Origin',(-33.,-96.,273.));
#1633=CARTESIAN_POINT('Origin',(-33.,-90.,273.));
#1634=CARTESIAN_POINT('',(-31.7056729444037,-84.,268.69016038893));
#1635=CARTESIAN_POINT('',(-31.7056729444037,-90.,268.69016038893));
#1636=CARTESIAN_POINT('',(-28.6901603889296,-84.,271.705672944404));
#1637=CARTESIAN_POINT('Origin',(-33.,-84.,273.));
#1638=CARTESIAN_POINT('',(-28.6901603889296,-90.,271.705672944404));
#1639=CARTESIAN_POINT('Origin',(-33.,-90.,273.));
#1640=CARTESIAN_POINT('',(-37.4229443506408,-84.,272.170805649359));
#1641=CARTESIAN_POINT('',(-37.4229443506408,-90.,272.170805649359));
#1642=CARTESIAN_POINT('',(-32.1708056493592,-84.,277.422944350641));
#1643=CARTESIAN_POINT('',(-32.1708056493592,-90.,277.422944350641));
#1644=CARTESIAN_POINT('Origin',(-33.,-84.,273.));
#1645=CARTESIAN_POINT('Origin',(-27.,-139.,267.));
#1646=CARTESIAN_POINT('',(-27.,-84.,272.));
#1647=CARTESIAN_POINT('Origin',(-27.,-84.,267.));
#1648=CARTESIAN_POINT('',(-27.,-198.,272.));
#1649=CARTESIAN_POINT('',(-27.,-139.,272.));
#1650=CARTESIAN_POINT('',(-32.,-198.,267.));
#1651=CARTESIAN_POINT('Origin',(-27.,-198.,267.));
#1652=CARTESIAN_POINT('',(-32.,-84.,267.));
#1653=CARTESIAN_POINT('',(-32.,-139.,267.));
#1654=CARTESIAN_POINT('Origin',(-27.,-84.,267.));
#1655=CARTESIAN_POINT('Origin',(0.,-84.,240.));
#1656=CARTESIAN_POINT('',(38.,-84.,211.));
#1657=CARTESIAN_POINT('',(38.,-84.,240.));
#1658=CARTESIAN_POINT('Origin',(29.,-84.,211.));
#1659=CARTESIAN_POINT('',(29.,-84.,202.));
#1660=CARTESIAN_POINT('Origin',(29.,-84.,211.));
#1661=CARTESIAN_POINT('',(-29.,-84.,202.));
#1662=CARTESIAN_POINT('',(0.,-84.,202.));
#1663=CARTESIAN_POINT('',(-32.1708056493592,-84.,202.577055649359));
#1664=CARTESIAN_POINT('Origin',(-29.,-84.,211.));
#1665=CARTESIAN_POINT('',(-37.4229443506408,-84.,207.829194350641));
#1666=CARTESIAN_POINT('Origin',(-33.,-84.,207.));
#1667=CARTESIAN_POINT('',(-38.,-84.,211.));
#1668=CARTESIAN_POINT('Origin',(-29.,-84.,211.));
#1669=CARTESIAN_POINT('',(-38.,-84.,269.));
#1670=CARTESIAN_POINT('',(-38.,-84.,240.));
#1671=CARTESIAN_POINT('Origin',(-29.,-84.,269.));
#1672=CARTESIAN_POINT('',(-29.,-84.,278.));
#1673=CARTESIAN_POINT('Origin',(-29.,-84.,269.));
#1674=CARTESIAN_POINT('',(0.,-84.,278.));
#1675=CARTESIAN_POINT('',(27.,-84.,272.));
#1676=CARTESIAN_POINT('Origin',(27.,-84.,267.));
#1677=CARTESIAN_POINT('',(0.,-84.,272.));
#1678=CARTESIAN_POINT('',(-32.,-84.,213.));
#1679=CARTESIAN_POINT('',(-32.,-84.,240.));
#1680=CARTESIAN_POINT('',(-31.7056729444037,-84.,211.30983961107));
#1681=CARTESIAN_POINT('Origin',(-27.,-84.,213.));
#1682=CARTESIAN_POINT('',(-28.6901603889296,-84.,208.294327055596));
#1683=CARTESIAN_POINT('Origin',(-33.,-84.,207.));
#1684=CARTESIAN_POINT('',(-27.,-84.,208.));
#1685=CARTESIAN_POINT('Origin',(-27.,-84.,213.));
#1686=CARTESIAN_POINT('',(0.,-84.,208.));
#1687=CARTESIAN_POINT('',(32.,-84.,267.));
#1688=CARTESIAN_POINT('',(32.,-84.,240.));
#1689=CARTESIAN_POINT('Origin',(27.,-84.,267.));
#1690=CARTESIAN_POINT('',(-34.45,-84.,207.));
#1691=CARTESIAN_POINT('Origin',(-33.,-84.,207.));
#1692=CARTESIAN_POINT('Origin',(-33.,-89.5,207.));
#1693=CARTESIAN_POINT('',(-34.45,-97.,207.));
#1694=CARTESIAN_POINT('',(-34.45,-89.5,207.));
#1695=CARTESIAN_POINT('Origin',(-33.,-97.,207.));
#1696=CARTESIAN_POINT('Origin',(-33.,-97.,207.));
#1697=CARTESIAN_POINT('Origin',(-33.,-96.,207.));
#1698=CARTESIAN_POINT('',(-37.4229443506408,-96.,207.829194350641));
#1699=CARTESIAN_POINT('',(-32.1708056493592,-96.,202.577055649359));
#1700=CARTESIAN_POINT('Origin',(-29.,-96.,211.));
#1701=CARTESIAN_POINT('Origin',(-33.,-96.,207.));
#1702=CARTESIAN_POINT('Origin',(-33.,-96.,207.));
#1703=CARTESIAN_POINT('',(-28.6901603889296,-96.,208.294327055596));
#1704=CARTESIAN_POINT('',(-31.7056729444037,-96.,211.30983961107));
#1705=CARTESIAN_POINT('Origin',(-27.,-96.,213.));
#1706=CARTESIAN_POINT('Origin',(-33.,-96.,207.));
#1707=CARTESIAN_POINT('Origin',(-33.,-90.,207.));
#1708=CARTESIAN_POINT('',(-37.4229443506408,-90.,207.829194350641));
#1709=CARTESIAN_POINT('',(-32.1708056493592,-90.,202.577055649359));
#1710=CARTESIAN_POINT('Origin',(-33.,-90.,207.));
#1711=CARTESIAN_POINT('',(-31.7056729444037,-90.,211.30983961107));
#1712=CARTESIAN_POINT('',(-28.6901603889296,-90.,208.294327055596));
#1713=CARTESIAN_POINT('Origin',(-29.,-143.,211.));
#1714=CARTESIAN_POINT('',(-29.,-143.,202.));
#1715=CARTESIAN_POINT('',(-38.,-143.,211.));
#1716=CARTESIAN_POINT('Origin',(27.,-139.,267.));
#1717=CARTESIAN_POINT('',(32.,-198.,267.));
#1718=CARTESIAN_POINT('',(32.,-139.,267.));
#1719=CARTESIAN_POINT('',(27.,-198.,272.));
#1720=CARTESIAN_POINT('Origin',(27.,-198.,267.));
#1721=CARTESIAN_POINT('',(27.,-139.,272.));
#1722=CARTESIAN_POINT('Origin',(0.,-139.,272.));
#1723=CARTESIAN_POINT('',(0.,-198.,272.));
#1724=CARTESIAN_POINT('Origin',(-32.,-139.,240.));
#1725=CARTESIAN_POINT('',(-32.,-198.,213.));
#1726=CARTESIAN_POINT('',(-32.,-198.,240.));
#1727=CARTESIAN_POINT('',(-32.,-139.,213.));
#1728=CARTESIAN_POINT('Origin',(-27.,-139.,213.));
#1729=CARTESIAN_POINT('',(-27.,-198.,208.));
#1730=CARTESIAN_POINT('Origin',(-27.,-198.,213.));
#1731=CARTESIAN_POINT('',(-27.,-139.,208.));
#1732=CARTESIAN_POINT('Origin',(0.,-198.,240.));
#1733=CARTESIAN_POINT('',(32.,-198.,240.));
#1734=CARTESIAN_POINT('',(0.,-198.,208.));
#1735=CARTESIAN_POINT('Origin',(32.,-139.,240.));
#1736=CARTESIAN_POINT('Origin',(0.,-139.,208.));
#1737=CARTESIAN_POINT('Origin',(29.,-143.,211.));
#1738=CARTESIAN_POINT('',(38.,-143.,211.));
#1739=CARTESIAN_POINT('',(29.,-143.,202.));
#1740=CARTESIAN_POINT('Origin',(-29.,-143.,269.));
#1741=CARTESIAN_POINT('',(-38.,-143.,269.));
#1742=CARTESIAN_POINT('',(-29.,-143.,278.));
#1743=CARTESIAN_POINT('Origin',(0.,-202.,240.));
#1744=CARTESIAN_POINT('Origin',(-38.,-143.,240.));
#1745=CARTESIAN_POINT('',(-38.,-212.75,202.));
#1746=CARTESIAN_POINT('',(-38.,-212.75,278.));
#1747=CARTESIAN_POINT('Origin',(38.,-143.,240.));
#1748=CARTESIAN_POINT('',(38.,-212.75,278.));
#1749=CARTESIAN_POINT('',(38.,-212.75,202.));
#1750=CARTESIAN_POINT('Origin',(0.,-143.,278.));
#1751=CARTESIAN_POINT('Origin',(0.,-143.,202.));
#1752=UNCERTAINTY_MEASURE_WITH_UNIT(LENGTH_MEASURE(0.01),#1756,
'DISTANCE_ACCURACY_VALUE',
'Maximum model space distance between geometric entities at asserted c
onnectivities');
#1753=UNCERTAINTY_MEASURE_WITH_UNIT(LENGTH_MEASURE(0.01),#1756,
'DISTANCE_ACCURACY_VALUE',
'Maximum model space distance between geometric entities at asserted c
onnectivities');
#1754=(
GEOMETRIC_REPRESENTATION_CONTEXT(3)
GLOBAL_UNCERTAINTY_ASSIGNED_CONTEXT((#1752))
GLOBAL_UNIT_ASSIGNED_CONTEXT((#1756,#1758,#1759))
REPRESENTATION_CONTEXT('','3D')
);
#1755=(
GEOMETRIC_REPRESENTATION_CONTEXT(3)
GLOBAL_UNCERTAINTY_ASSIGNED_CONTEXT((#1753))
GLOBAL_UNIT_ASSIGNED_CONTEXT((#1756,#1758,#1759))
REPRESENTATION_CONTEXT('','3D')
);
#1756=(
LENGTH_UNIT()
NAMED_UNIT(*)
SI_UNIT(.MILLI.,.METRE.)
);
#1757=(
LENGTH_UNIT()
NAMED_UNIT(*)
SI_UNIT($,.METRE.)
);
#1758=(
NAMED_UNIT(*)
PLANE_ANGLE_UNIT()
SI_UNIT($,.RADIAN.)
);
#1759=(
NAMED_UNIT(*)
SI_UNIT($,.STERADIAN.)
SOLID_ANGLE_UNIT()
);
#1760=SHAPE_DEFINITION_REPRESENTATION(#1761,#1762);
#1761=PRODUCT_DEFINITION_SHAPE('',$,#1764);
#1762=SHAPE_REPRESENTATION('',(#1028),#1754);
#1763=PRODUCT_DEFINITION_CONTEXT('part definition',#1768,'design');
#1764=PRODUCT_DEFINITION('2026-08-13-18-56-09-111',
'EXPORT_TMP_PRINT_V010D_P107_J2_ActuatorServiceCover',#1765,#1763);
#1765=PRODUCT_DEFINITION_FORMATION('',$,#1770);
#1766=PRODUCT_RELATED_PRODUCT_CATEGORY(
'EXPORT_TMP_PRINT_V010D_P107_J2_ActuatorServiceCover',
'EXPORT_TMP_PRINT_V010D_P107_J2_ActuatorServiceCover',(#1770));
#1767=APPLICATION_PROTOCOL_DEFINITION('international standard',
'automotive_design',2009,#1768);
#1768=APPLICATION_CONTEXT(
'Core Data for Automotive Mechanical Design Process');
#1769=PRODUCT_CONTEXT('part definition',#1768,'mechanical');
#1770=PRODUCT('2026-08-13-18-56-09-111',
'EXPORT_TMP_PRINT_V010D_P107_J2_ActuatorServiceCover',$,(#1769));
#1771=PRESENTATION_STYLE_ASSIGNMENT((#1772));
#1772=SURFACE_STYLE_USAGE(.BOTH.,#1773);
#1773=SURFACE_SIDE_STYLE('',(#1774));
#1774=SURFACE_STYLE_FILL_AREA(#1775);
#1775=FILL_AREA_STYLE('Steel - Satin',(#1776));
#1776=FILL_AREA_STYLE_COLOUR('Steel - Satin',#1777);
#1777=COLOUR_RGB('Steel - Satin',0.627450980392157,0.627450980392157,0.627450980392157);
ENDSEC;
END-ISO-10303-21;
