ISO-10303-21;
HEADER;
/* Generated by software containing ST-Developer
 * from STEP Tools, Inc. (www.steptools.com) 
 */

FILE_DESCRIPTION(
/* description */ (''),
/* implementation_level */ '2;1');

FILE_NAME(
/* name */ 'PRINT_V028_P217_J2HubDrillJig.step',
/* time_stamp */ '2026-08-31T16:18:36+02:00',
/* author */ (''),
/* organization */ (''),
/* preprocessor_version */ 'ST-DEVELOPER v20.1',
/* originating_system */ 'Autodesk Translation Framework v15.8.0.0',
/* authorisation */ '');

FILE_SCHEMA (('AUTOMOTIVE_DESIGN { 1 0 10303 214 3 1 1 }'));
ENDSEC;

DATA;
#10=MECHANICAL_DESIGN_GEOMETRIC_PRESENTATION_REPRESENTATION('',(#13),#517);
#11=SHAPE_REPRESENTATION_RELATIONSHIP('SRR','None',#524,#12);
#12=ADVANCED_BREP_SHAPE_REPRESENTATION('',(#14),#516);
#13=STYLED_ITEM('',(#533),#14);
#14=MANIFOLD_SOLID_BREP('Body1',#293);
#15=FACE_BOUND('',#54,.T.);
#16=FACE_BOUND('',#55,.T.);
#17=FACE_BOUND('',#56,.T.);
#18=FACE_BOUND('',#57,.T.);
#19=FACE_BOUND('',#58,.T.);
#20=FACE_BOUND('',#59,.T.);
#21=FACE_BOUND('',#60,.T.);
#22=FACE_BOUND('',#61,.T.);
#23=FACE_BOUND('',#62,.T.);
#24=FACE_BOUND('',#75,.T.);
#25=FACE_BOUND('',#77,.T.);
#26=FACE_BOUND('',#78,.T.);
#27=FACE_BOUND('',#79,.T.);
#28=FACE_BOUND('',#80,.T.);
#29=FACE_BOUND('',#81,.T.);
#30=FACE_BOUND('',#82,.T.);
#31=FACE_BOUND('',#83,.T.);
#32=FACE_BOUND('',#84,.T.);
#33=FACE_BOUND('',#85,.T.);
#34=PLANE('',#310);
#35=PLANE('',#344);
#36=PLANE('',#345);
#37=FACE_OUTER_BOUND('',#52,.T.);
#38=FACE_OUTER_BOUND('',#53,.T.);
#39=FACE_OUTER_BOUND('',#63,.T.);
#40=FACE_OUTER_BOUND('',#64,.T.);
#41=FACE_OUTER_BOUND('',#65,.T.);
#42=FACE_OUTER_BOUND('',#66,.T.);
#43=FACE_OUTER_BOUND('',#67,.T.);
#44=FACE_OUTER_BOUND('',#68,.T.);
#45=FACE_OUTER_BOUND('',#69,.T.);
#46=FACE_OUTER_BOUND('',#70,.T.);
#47=FACE_OUTER_BOUND('',#71,.T.);
#48=FACE_OUTER_BOUND('',#72,.T.);
#49=FACE_OUTER_BOUND('',#73,.T.);
#50=FACE_OUTER_BOUND('',#74,.T.);
#51=FACE_OUTER_BOUND('',#76,.T.);
#52=EDGE_LOOP('',(#194,#195,#196,#197));
#53=EDGE_LOOP('',(#198,#199));
#54=EDGE_LOOP('',(#200));
#55=EDGE_LOOP('',(#201));
#56=EDGE_LOOP('',(#202));
#57=EDGE_LOOP('',(#203));
#58=EDGE_LOOP('',(#204));
#59=EDGE_LOOP('',(#205));
#60=EDGE_LOOP('',(#206));
#61=EDGE_LOOP('',(#207));
#62=EDGE_LOOP('',(#208));
#63=EDGE_LOOP('',(#209,#210,#211,#212));
#64=EDGE_LOOP('',(#213,#214,#215,#216));
#65=EDGE_LOOP('',(#217,#218,#219,#220));
#66=EDGE_LOOP('',(#221,#222,#223,#224));
#67=EDGE_LOOP('',(#225,#226,#227,#228));
#68=EDGE_LOOP('',(#229,#230,#231,#232));
#69=EDGE_LOOP('',(#233,#234,#235,#236));
#70=EDGE_LOOP('',(#237,#238,#239,#240));
#71=EDGE_LOOP('',(#241,#242,#243,#244));
#72=EDGE_LOOP('',(#245,#246,#247,#248));
#73=EDGE_LOOP('',(#249,#250,#251,#252));
#74=EDGE_LOOP('',(#253));
#75=EDGE_LOOP('',(#254,#255));
#76=EDGE_LOOP('',(#256));
#77=EDGE_LOOP('',(#257));
#78=EDGE_LOOP('',(#258));
#79=EDGE_LOOP('',(#259));
#80=EDGE_LOOP('',(#260));
#81=EDGE_LOOP('',(#261));
#82=EDGE_LOOP('',(#262));
#83=EDGE_LOOP('',(#263));
#84=EDGE_LOOP('',(#264));
#85=EDGE_LOOP('',(#265));
#86=CIRCLE('',#308,2.8);
#87=CIRCLE('',#309,2.8);
#88=CIRCLE('',#311,17.65);
#89=CIRCLE('',#312,2.8);
#90=CIRCLE('',#313,5.);
#91=CIRCLE('',#314,2.8);
#92=CIRCLE('',#315,2.8);
#93=CIRCLE('',#316,2.8);
#94=CIRCLE('',#317,2.8);
#95=CIRCLE('',#318,2.8);
#96=CIRCLE('',#319,2.8);
#97=CIRCLE('',#320,2.8);
#98=CIRCLE('',#322,2.8);
#99=CIRCLE('',#324,2.8);
#100=CIRCLE('',#326,2.8);
#101=CIRCLE('',#328,2.8);
#102=CIRCLE('',#330,2.8);
#103=CIRCLE('',#332,2.8);
#104=CIRCLE('',#334,2.8);
#105=CIRCLE('',#336,2.8);
#106=CIRCLE('',#338,5.);
#107=CIRCLE('',#340,17.65);
#108=CIRCLE('',#342,23.);
#109=CIRCLE('',#343,23.);
#110=LINE('',#442,#122);
#111=LINE('',#446,#123);
#112=LINE('',#470,#124);
#113=LINE('',#474,#125);
#114=LINE('',#478,#126);
#115=LINE('',#482,#127);
#116=LINE('',#486,#128);
#117=LINE('',#490,#129);
#118=LINE('',#494,#130);
#119=LINE('',#498,#131);
#120=LINE('',#502,#132);
#121=LINE('',#510,#133);
#122=VECTOR('',#350,10.);
#123=VECTOR('',#353,10.);
#124=VECTOR('',#380,2.8);
#125=VECTOR('',#385,2.8);
#126=VECTOR('',#390,2.8);
#127=VECTOR('',#395,2.8);
#128=VECTOR('',#400,2.8);
#129=VECTOR('',#405,2.8);
#130=VECTOR('',#410,2.8);
#131=VECTOR('',#415,2.8);
#132=VECTOR('',#420,5.);
#133=VECTOR('',#431,23.);
#134=VERTEX_POINT('',#440);
#135=VERTEX_POINT('',#441);
#136=VERTEX_POINT('',#443);
#137=VERTEX_POINT('',#445);
#138=VERTEX_POINT('',#450);
#139=VERTEX_POINT('',#452);
#140=VERTEX_POINT('',#454);
#141=VERTEX_POINT('',#456);
#142=VERTEX_POINT('',#458);
#143=VERTEX_POINT('',#460);
#144=VERTEX_POINT('',#462);
#145=VERTEX_POINT('',#464);
#146=VERTEX_POINT('',#466);
#147=VERTEX_POINT('',#469);
#148=VERTEX_POINT('',#473);
#149=VERTEX_POINT('',#477);
#150=VERTEX_POINT('',#481);
#151=VERTEX_POINT('',#485);
#152=VERTEX_POINT('',#489);
#153=VERTEX_POINT('',#493);
#154=VERTEX_POINT('',#497);
#155=VERTEX_POINT('',#501);
#156=VERTEX_POINT('',#507);
#157=VERTEX_POINT('',#509);
#158=EDGE_CURVE('',#134,#135,#110,.T.);
#159=EDGE_CURVE('',#136,#134,#86,.T.);
#160=EDGE_CURVE('',#137,#136,#111,.T.);
#161=EDGE_CURVE('',#137,#135,#87,.T.);
#162=EDGE_CURVE('',#135,#137,#88,.T.);
#163=EDGE_CURVE('',#138,#138,#89,.T.);
#164=EDGE_CURVE('',#139,#139,#90,.T.);
#165=EDGE_CURVE('',#140,#140,#91,.T.);
#166=EDGE_CURVE('',#141,#141,#92,.T.);
#167=EDGE_CURVE('',#142,#142,#93,.T.);
#168=EDGE_CURVE('',#143,#143,#94,.T.);
#169=EDGE_CURVE('',#144,#144,#95,.T.);
#170=EDGE_CURVE('',#145,#145,#96,.T.);
#171=EDGE_CURVE('',#146,#146,#97,.T.);
#172=EDGE_CURVE('',#138,#147,#112,.T.);
#173=EDGE_CURVE('',#147,#147,#98,.T.);
#174=EDGE_CURVE('',#146,#148,#113,.T.);
#175=EDGE_CURVE('',#148,#148,#99,.T.);
#176=EDGE_CURVE('',#145,#149,#114,.T.);
#177=EDGE_CURVE('',#149,#149,#100,.T.);
#178=EDGE_CURVE('',#144,#150,#115,.T.);
#179=EDGE_CURVE('',#150,#150,#101,.T.);
#180=EDGE_CURVE('',#143,#151,#116,.T.);
#181=EDGE_CURVE('',#151,#151,#102,.T.);
#182=EDGE_CURVE('',#142,#152,#117,.T.);
#183=EDGE_CURVE('',#152,#152,#103,.T.);
#184=EDGE_CURVE('',#141,#153,#118,.T.);
#185=EDGE_CURVE('',#153,#153,#104,.T.);
#186=EDGE_CURVE('',#140,#154,#119,.T.);
#187=EDGE_CURVE('',#154,#154,#105,.T.);
#188=EDGE_CURVE('',#139,#155,#120,.T.);
#189=EDGE_CURVE('',#155,#155,#106,.T.);
#190=EDGE_CURVE('',#134,#136,#107,.T.);
#191=EDGE_CURVE('',#156,#156,#108,.T.);
#192=EDGE_CURVE('',#156,#157,#121,.T.);
#193=EDGE_CURVE('',#157,#157,#109,.T.);
#194=ORIENTED_EDGE('',*,*,#158,.F.);
#195=ORIENTED_EDGE('',*,*,#159,.F.);
#196=ORIENTED_EDGE('',*,*,#160,.F.);
#197=ORIENTED_EDGE('',*,*,#161,.T.);
#198=ORIENTED_EDGE('',*,*,#162,.F.);
#199=ORIENTED_EDGE('',*,*,#161,.F.);
#200=ORIENTED_EDGE('',*,*,#163,.T.);
#201=ORIENTED_EDGE('',*,*,#164,.T.);
#202=ORIENTED_EDGE('',*,*,#165,.T.);
#203=ORIENTED_EDGE('',*,*,#166,.T.);
#204=ORIENTED_EDGE('',*,*,#167,.T.);
#205=ORIENTED_EDGE('',*,*,#168,.T.);
#206=ORIENTED_EDGE('',*,*,#169,.T.);
#207=ORIENTED_EDGE('',*,*,#170,.T.);
#208=ORIENTED_EDGE('',*,*,#171,.T.);
#209=ORIENTED_EDGE('',*,*,#163,.F.);
#210=ORIENTED_EDGE('',*,*,#172,.T.);
#211=ORIENTED_EDGE('',*,*,#173,.F.);
#212=ORIENTED_EDGE('',*,*,#172,.F.);
#213=ORIENTED_EDGE('',*,*,#171,.F.);
#214=ORIENTED_EDGE('',*,*,#174,.T.);
#215=ORIENTED_EDGE('',*,*,#175,.F.);
#216=ORIENTED_EDGE('',*,*,#174,.F.);
#217=ORIENTED_EDGE('',*,*,#170,.F.);
#218=ORIENTED_EDGE('',*,*,#176,.T.);
#219=ORIENTED_EDGE('',*,*,#177,.F.);
#220=ORIENTED_EDGE('',*,*,#176,.F.);
#221=ORIENTED_EDGE('',*,*,#169,.F.);
#222=ORIENTED_EDGE('',*,*,#178,.T.);
#223=ORIENTED_EDGE('',*,*,#179,.F.);
#224=ORIENTED_EDGE('',*,*,#178,.F.);
#225=ORIENTED_EDGE('',*,*,#168,.F.);
#226=ORIENTED_EDGE('',*,*,#180,.T.);
#227=ORIENTED_EDGE('',*,*,#181,.F.);
#228=ORIENTED_EDGE('',*,*,#180,.F.);
#229=ORIENTED_EDGE('',*,*,#167,.F.);
#230=ORIENTED_EDGE('',*,*,#182,.T.);
#231=ORIENTED_EDGE('',*,*,#183,.F.);
#232=ORIENTED_EDGE('',*,*,#182,.F.);
#233=ORIENTED_EDGE('',*,*,#166,.F.);
#234=ORIENTED_EDGE('',*,*,#184,.T.);
#235=ORIENTED_EDGE('',*,*,#185,.F.);
#236=ORIENTED_EDGE('',*,*,#184,.F.);
#237=ORIENTED_EDGE('',*,*,#165,.F.);
#238=ORIENTED_EDGE('',*,*,#186,.T.);
#239=ORIENTED_EDGE('',*,*,#187,.F.);
#240=ORIENTED_EDGE('',*,*,#186,.F.);
#241=ORIENTED_EDGE('',*,*,#164,.F.);
#242=ORIENTED_EDGE('',*,*,#188,.T.);
#243=ORIENTED_EDGE('',*,*,#189,.F.);
#244=ORIENTED_EDGE('',*,*,#188,.F.);
#245=ORIENTED_EDGE('',*,*,#158,.T.);
#246=ORIENTED_EDGE('',*,*,#162,.T.);
#247=ORIENTED_EDGE('',*,*,#160,.T.);
#248=ORIENTED_EDGE('',*,*,#190,.F.);
#249=ORIENTED_EDGE('',*,*,#191,.F.);
#250=ORIENTED_EDGE('',*,*,#192,.T.);
#251=ORIENTED_EDGE('',*,*,#193,.F.);
#252=ORIENTED_EDGE('',*,*,#192,.F.);
#253=ORIENTED_EDGE('',*,*,#193,.T.);
#254=ORIENTED_EDGE('',*,*,#159,.T.);
#255=ORIENTED_EDGE('',*,*,#190,.T.);
#256=ORIENTED_EDGE('',*,*,#191,.T.);
#257=ORIENTED_EDGE('',*,*,#175,.T.);
#258=ORIENTED_EDGE('',*,*,#177,.T.);
#259=ORIENTED_EDGE('',*,*,#179,.T.);
#260=ORIENTED_EDGE('',*,*,#181,.T.);
#261=ORIENTED_EDGE('',*,*,#183,.T.);
#262=ORIENTED_EDGE('',*,*,#185,.T.);
#263=ORIENTED_EDGE('',*,*,#187,.T.);
#264=ORIENTED_EDGE('',*,*,#189,.T.);
#265=ORIENTED_EDGE('',*,*,#173,.T.);
#266=CYLINDRICAL_SURFACE('',#307,2.8);
#267=CYLINDRICAL_SURFACE('',#321,2.8);
#268=CYLINDRICAL_SURFACE('',#323,2.8);
#269=CYLINDRICAL_SURFACE('',#325,2.8);
#270=CYLINDRICAL_SURFACE('',#327,2.8);
#271=CYLINDRICAL_SURFACE('',#329,2.8);
#272=CYLINDRICAL_SURFACE('',#331,2.8);
#273=CYLINDRICAL_SURFACE('',#333,2.8);
#274=CYLINDRICAL_SURFACE('',#335,2.8);
#275=CYLINDRICAL_SURFACE('',#337,5.);
#276=CYLINDRICAL_SURFACE('',#339,17.65);
#277=CYLINDRICAL_SURFACE('',#341,23.);
#278=ADVANCED_FACE('',(#37),#266,.F.);
#279=ADVANCED_FACE('',(#38,#15,#16,#17,#18,#19,#20,#21,#22,#23),#34,.F.);
#280=ADVANCED_FACE('',(#39),#267,.F.);
#281=ADVANCED_FACE('',(#40),#268,.F.);
#282=ADVANCED_FACE('',(#41),#269,.F.);
#283=ADVANCED_FACE('',(#42),#270,.F.);
#284=ADVANCED_FACE('',(#43),#271,.F.);
#285=ADVANCED_FACE('',(#44),#272,.F.);
#286=ADVANCED_FACE('',(#45),#273,.F.);
#287=ADVANCED_FACE('',(#46),#274,.F.);
#288=ADVANCED_FACE('',(#47),#275,.F.);
#289=ADVANCED_FACE('',(#48),#276,.F.);
#290=ADVANCED_FACE('',(#49),#277,.T.);
#291=ADVANCED_FACE('',(#50,#24),#35,.T.);
#292=ADVANCED_FACE('',(#51,#25,#26,#27,#28,#29,#30,#31,#32,#33),#36,.T.);
#293=CLOSED_SHELL('',(#278,#279,#280,#281,#282,#283,#284,#285,#286,#287,
#288,#289,#290,#291,#292));
#294=DERIVED_UNIT_ELEMENT(#296,1.);
#295=DERIVED_UNIT_ELEMENT(#519,-3.);
#296=(
MASS_UNIT()
NAMED_UNIT(*)
SI_UNIT(.KILO.,.GRAM.)
);
#297=DERIVED_UNIT((#294,#295));
#298=MEASURE_REPRESENTATION_ITEM('density measure',
POSITIVE_RATIO_MEASURE(7850.),#297);
#299=PROPERTY_DEFINITION_REPRESENTATION(#304,#301);
#300=PROPERTY_DEFINITION_REPRESENTATION(#305,#302);
#301=REPRESENTATION('material name',(#303),#516);
#302=REPRESENTATION('density',(#298),#516);
#303=DESCRIPTIVE_REPRESENTATION_ITEM('Steel','Steel');
#304=PROPERTY_DEFINITION('material property','material name',#526);
#305=PROPERTY_DEFINITION('material property','density of part',#526);
#306=AXIS2_PLACEMENT_3D('',#438,#346,#347);
#307=AXIS2_PLACEMENT_3D('',#439,#348,#349);
#308=AXIS2_PLACEMENT_3D('',#444,#351,#352);
#309=AXIS2_PLACEMENT_3D('',#447,#354,#355);
#310=AXIS2_PLACEMENT_3D('',#448,#356,#357);
#311=AXIS2_PLACEMENT_3D('',#449,#358,#359);
#312=AXIS2_PLACEMENT_3D('',#451,#360,#361);
#313=AXIS2_PLACEMENT_3D('',#453,#362,#363);
#314=AXIS2_PLACEMENT_3D('',#455,#364,#365);
#315=AXIS2_PLACEMENT_3D('',#457,#366,#367);
#316=AXIS2_PLACEMENT_3D('',#459,#368,#369);
#317=AXIS2_PLACEMENT_3D('',#461,#370,#371);
#318=AXIS2_PLACEMENT_3D('',#463,#372,#373);
#319=AXIS2_PLACEMENT_3D('',#465,#374,#375);
#320=AXIS2_PLACEMENT_3D('',#467,#376,#377);
#321=AXIS2_PLACEMENT_3D('',#468,#378,#379);
#322=AXIS2_PLACEMENT_3D('',#471,#381,#382);
#323=AXIS2_PLACEMENT_3D('',#472,#383,#384);
#324=AXIS2_PLACEMENT_3D('',#475,#386,#387);
#325=AXIS2_PLACEMENT_3D('',#476,#388,#389);
#326=AXIS2_PLACEMENT_3D('',#479,#391,#392);
#327=AXIS2_PLACEMENT_3D('',#480,#393,#394);
#328=AXIS2_PLACEMENT_3D('',#483,#396,#397);
#329=AXIS2_PLACEMENT_3D('',#484,#398,#399);
#330=AXIS2_PLACEMENT_3D('',#487,#401,#402);
#331=AXIS2_PLACEMENT_3D('',#488,#403,#404);
#332=AXIS2_PLACEMENT_3D('',#491,#406,#407);
#333=AXIS2_PLACEMENT_3D('',#492,#408,#409);
#334=AXIS2_PLACEMENT_3D('',#495,#411,#412);
#335=AXIS2_PLACEMENT_3D('',#496,#413,#414);
#336=AXIS2_PLACEMENT_3D('',#499,#416,#417);
#337=AXIS2_PLACEMENT_3D('',#500,#418,#419);
#338=AXIS2_PLACEMENT_3D('',#503,#421,#422);
#339=AXIS2_PLACEMENT_3D('',#504,#423,#424);
#340=AXIS2_PLACEMENT_3D('',#505,#425,#426);
#341=AXIS2_PLACEMENT_3D('',#506,#427,#428);
#342=AXIS2_PLACEMENT_3D('',#508,#429,#430);
#343=AXIS2_PLACEMENT_3D('',#511,#432,#433);
#344=AXIS2_PLACEMENT_3D('',#512,#434,#435);
#345=AXIS2_PLACEMENT_3D('',#513,#436,#437);
#346=DIRECTION('axis',(0.,0.,1.));
#347=DIRECTION('refdir',(1.,0.,0.));
#348=DIRECTION('center_axis',(0.,1.,0.));
#349=DIRECTION('ref_axis',(1.,0.,0.));
#350=DIRECTION('',(0.,1.,0.));
#351=DIRECTION('center_axis',(0.,1.,0.));
#352=DIRECTION('ref_axis',(1.,0.,0.));
#353=DIRECTION('',(0.,-1.,0.));
#354=DIRECTION('center_axis',(0.,1.,0.));
#355=DIRECTION('ref_axis',(1.,0.,0.));
#356=DIRECTION('center_axis',(0.,1.,0.));
#357=DIRECTION('ref_axis',(1.,0.,0.));
#358=DIRECTION('center_axis',(0.,1.,0.));
#359=DIRECTION('ref_axis',(1.,0.,0.));
#360=DIRECTION('center_axis',(0.,1.,0.));
#361=DIRECTION('ref_axis',(1.,0.,0.));
#362=DIRECTION('center_axis',(0.,1.,0.));
#363=DIRECTION('ref_axis',(1.,0.,0.));
#364=DIRECTION('center_axis',(0.,1.,0.));
#365=DIRECTION('ref_axis',(1.,0.,0.));
#366=DIRECTION('center_axis',(0.,1.,0.));
#367=DIRECTION('ref_axis',(1.,0.,0.));
#368=DIRECTION('center_axis',(0.,1.,0.));
#369=DIRECTION('ref_axis',(1.,0.,0.));
#370=DIRECTION('center_axis',(0.,1.,0.));
#371=DIRECTION('ref_axis',(1.,0.,0.));
#372=DIRECTION('center_axis',(0.,1.,0.));
#373=DIRECTION('ref_axis',(1.,0.,0.));
#374=DIRECTION('center_axis',(0.,1.,0.));
#375=DIRECTION('ref_axis',(1.,0.,0.));
#376=DIRECTION('center_axis',(0.,1.,0.));
#377=DIRECTION('ref_axis',(1.,0.,0.));
#378=DIRECTION('center_axis',(0.,1.,0.));
#379=DIRECTION('ref_axis',(1.,0.,0.));
#380=DIRECTION('',(0.,1.,0.));
#381=DIRECTION('center_axis',(0.,-1.,0.));
#382=DIRECTION('ref_axis',(1.,0.,0.));
#383=DIRECTION('center_axis',(0.,1.,0.));
#384=DIRECTION('ref_axis',(1.,0.,0.));
#385=DIRECTION('',(0.,1.,0.));
#386=DIRECTION('center_axis',(0.,-1.,0.));
#387=DIRECTION('ref_axis',(1.,0.,0.));
#388=DIRECTION('center_axis',(0.,1.,0.));
#389=DIRECTION('ref_axis',(1.,0.,0.));
#390=DIRECTION('',(0.,1.,0.));
#391=DIRECTION('center_axis',(0.,-1.,0.));
#392=DIRECTION('ref_axis',(1.,0.,0.));
#393=DIRECTION('center_axis',(0.,1.,0.));
#394=DIRECTION('ref_axis',(1.,0.,0.));
#395=DIRECTION('',(0.,1.,0.));
#396=DIRECTION('center_axis',(0.,-1.,0.));
#397=DIRECTION('ref_axis',(1.,0.,0.));
#398=DIRECTION('center_axis',(0.,1.,0.));
#399=DIRECTION('ref_axis',(1.,0.,0.));
#400=DIRECTION('',(0.,1.,0.));
#401=DIRECTION('center_axis',(0.,-1.,0.));
#402=DIRECTION('ref_axis',(1.,0.,0.));
#403=DIRECTION('center_axis',(0.,1.,0.));
#404=DIRECTION('ref_axis',(1.,0.,0.));
#405=DIRECTION('',(0.,1.,0.));
#406=DIRECTION('center_axis',(0.,-1.,0.));
#407=DIRECTION('ref_axis',(1.,0.,0.));
#408=DIRECTION('center_axis',(0.,1.,0.));
#409=DIRECTION('ref_axis',(1.,0.,0.));
#410=DIRECTION('',(0.,1.,0.));
#411=DIRECTION('center_axis',(0.,-1.,0.));
#412=DIRECTION('ref_axis',(1.,0.,0.));
#413=DIRECTION('center_axis',(0.,1.,0.));
#414=DIRECTION('ref_axis',(1.,0.,0.));
#415=DIRECTION('',(0.,1.,0.));
#416=DIRECTION('center_axis',(0.,-1.,0.));
#417=DIRECTION('ref_axis',(1.,0.,0.));
#418=DIRECTION('center_axis',(0.,1.,0.));
#419=DIRECTION('ref_axis',(1.,0.,0.));
#420=DIRECTION('',(0.,1.,0.));
#421=DIRECTION('center_axis',(0.,-1.,0.));
#422=DIRECTION('ref_axis',(1.,0.,0.));
#423=DIRECTION('center_axis',(0.,1.,0.));
#424=DIRECTION('ref_axis',(5.0532154980743E-16,0.,-1.));
#425=DIRECTION('center_axis',(0.,1.,0.));
#426=DIRECTION('ref_axis',(1.,0.,0.));
#427=DIRECTION('center_axis',(0.,1.,0.));
#428=DIRECTION('ref_axis',(1.,0.,0.));
#429=DIRECTION('center_axis',(0.,1.,0.));
#430=DIRECTION('ref_axis',(1.,0.,0.));
#431=DIRECTION('',(0.,-1.,0.));
#432=DIRECTION('center_axis',(0.,-1.,0.));
#433=DIRECTION('ref_axis',(1.,0.,0.));
#434=DIRECTION('center_axis',(0.,-1.,0.));
#435=DIRECTION('ref_axis',(-1.,0.,0.));
#436=DIRECTION('center_axis',(0.,1.,0.));
#437=DIRECTION('ref_axis',(1.,0.,0.));
#438=CARTESIAN_POINT('',(0.,0.,0.));
#439=CARTESIAN_POINT('Origin',(-200.,1.95,437.));
#440=CARTESIAN_POINT('',(-197.233501176841,0.,437.431838235294));
#441=CARTESIAN_POINT('',(-197.233501176841,4.,437.431838235294));
#442=CARTESIAN_POINT('',(-197.233501176841,1.95,437.431838235294));
#443=CARTESIAN_POINT('',(-202.766498823159,0.,437.431838235294));
#444=CARTESIAN_POINT('Origin',(-200.,0.,437.));
#445=CARTESIAN_POINT('',(-202.766498823159,4.,437.431838235294));
#446=CARTESIAN_POINT('',(-202.766498823159,1.95,437.431838235294));
#447=CARTESIAN_POINT('Origin',(-200.,4.,437.));
#448=CARTESIAN_POINT('Origin',(-200.,4.,420.));
#449=CARTESIAN_POINT('Origin',(-200.,4.,420.));
#450=CARTESIAN_POINT('',(-191.251505843609,4.,415.216457095436));
#451=CARTESIAN_POINT('Origin',(-188.451505843609,4.,415.216457095436));
#452=CARTESIAN_POINT('',(-205.,4.,420.));
#453=CARTESIAN_POINT('Origin',(-200.,4.,420.));
#454=CARTESIAN_POINT('',(-191.251505843609,4.,424.783542904564));
#455=CARTESIAN_POINT('Origin',(-188.451505843609,4.,424.783542904564));
#456=CARTESIAN_POINT('',(-198.016457095436,4.,431.548494156391));
#457=CARTESIAN_POINT('Origin',(-195.216457095436,4.,431.548494156391));
#458=CARTESIAN_POINT('',(-207.583542904564,4.,431.548494156391));
#459=CARTESIAN_POINT('Origin',(-204.783542904564,4.,431.548494156391));
#460=CARTESIAN_POINT('',(-214.348494156391,4.,424.783542904564));
#461=CARTESIAN_POINT('Origin',(-211.548494156391,4.,424.783542904564));
#462=CARTESIAN_POINT('',(-214.348494156391,4.,415.216457095436));
#463=CARTESIAN_POINT('Origin',(-211.548494156391,4.,415.216457095436));
#464=CARTESIAN_POINT('',(-207.583542904564,4.,408.451505843609));
#465=CARTESIAN_POINT('Origin',(-204.783542904564,4.,408.451505843609));
#466=CARTESIAN_POINT('',(-198.016457095436,4.,408.451505843609));
#467=CARTESIAN_POINT('Origin',(-195.216457095436,4.,408.451505843609));
#468=CARTESIAN_POINT('Origin',(-188.451505843609,5.,415.216457095436));
#469=CARTESIAN_POINT('',(-191.251505843609,10.,415.216457095436));
#470=CARTESIAN_POINT('',(-191.251505843609,5.,415.216457095436));
#471=CARTESIAN_POINT('Origin',(-188.451505843609,10.,415.216457095436));
#472=CARTESIAN_POINT('Origin',(-195.216457095436,5.,408.451505843609));
#473=CARTESIAN_POINT('',(-198.016457095436,10.,408.451505843609));
#474=CARTESIAN_POINT('',(-198.016457095436,5.,408.451505843609));
#475=CARTESIAN_POINT('Origin',(-195.216457095436,10.,408.451505843609));
#476=CARTESIAN_POINT('Origin',(-204.783542904564,5.,408.451505843609));
#477=CARTESIAN_POINT('',(-207.583542904564,10.,408.451505843609));
#478=CARTESIAN_POINT('',(-207.583542904564,5.,408.451505843609));
#479=CARTESIAN_POINT('Origin',(-204.783542904564,10.,408.451505843609));
#480=CARTESIAN_POINT('Origin',(-211.548494156391,5.,415.216457095436));
#481=CARTESIAN_POINT('',(-214.348494156391,10.,415.216457095436));
#482=CARTESIAN_POINT('',(-214.348494156391,5.,415.216457095436));
#483=CARTESIAN_POINT('Origin',(-211.548494156391,10.,415.216457095436));
#484=CARTESIAN_POINT('Origin',(-211.548494156391,5.,424.783542904564));
#485=CARTESIAN_POINT('',(-214.348494156391,10.,424.783542904564));
#486=CARTESIAN_POINT('',(-214.348494156391,5.,424.783542904564));
#487=CARTESIAN_POINT('Origin',(-211.548494156391,10.,424.783542904564));
#488=CARTESIAN_POINT('Origin',(-204.783542904564,5.,431.548494156391));
#489=CARTESIAN_POINT('',(-207.583542904564,10.,431.548494156391));
#490=CARTESIAN_POINT('',(-207.583542904564,5.,431.548494156391));
#491=CARTESIAN_POINT('Origin',(-204.783542904564,10.,431.548494156391));
#492=CARTESIAN_POINT('Origin',(-195.216457095436,5.,431.548494156391));
#493=CARTESIAN_POINT('',(-198.016457095436,10.,431.548494156391));
#494=CARTESIAN_POINT('',(-198.016457095436,5.,431.548494156391));
#495=CARTESIAN_POINT('Origin',(-195.216457095436,10.,431.548494156391));
#496=CARTESIAN_POINT('Origin',(-188.451505843609,5.,424.783542904564));
#497=CARTESIAN_POINT('',(-191.251505843609,10.,424.783542904564));
#498=CARTESIAN_POINT('',(-191.251505843609,5.,424.783542904564));
#499=CARTESIAN_POINT('Origin',(-188.451505843609,10.,424.783542904564));
#500=CARTESIAN_POINT('Origin',(-200.,5.,420.));
#501=CARTESIAN_POINT('',(-205.,10.,420.));
#502=CARTESIAN_POINT('',(-205.,5.,420.));
#503=CARTESIAN_POINT('Origin',(-200.,10.,420.));
#504=CARTESIAN_POINT('Origin',(-200.,1.95,420.));
#505=CARTESIAN_POINT('Origin',(-200.,0.,420.));
#506=CARTESIAN_POINT('Origin',(-200.,5.,420.));
#507=CARTESIAN_POINT('',(-223.,10.,420.));
#508=CARTESIAN_POINT('Origin',(-200.,10.,420.));
#509=CARTESIAN_POINT('',(-223.,0.,420.));
#510=CARTESIAN_POINT('',(-223.,5.,420.));
#511=CARTESIAN_POINT('Origin',(-200.,0.,420.));
#512=CARTESIAN_POINT('Origin',(-200.,0.,420.));
#513=CARTESIAN_POINT('Origin',(-200.,10.,420.));
#514=UNCERTAINTY_MEASURE_WITH_UNIT(LENGTH_MEASURE(0.01),#518,
'DISTANCE_ACCURACY_VALUE',
'Maximum model space distance between geometric entities at asserted c
onnectivities');
#515=UNCERTAINTY_MEASURE_WITH_UNIT(LENGTH_MEASURE(0.01),#518,
'DISTANCE_ACCURACY_VALUE',
'Maximum model space distance between geometric entities at asserted c
onnectivities');
#516=(
GEOMETRIC_REPRESENTATION_CONTEXT(3)
GLOBAL_UNCERTAINTY_ASSIGNED_CONTEXT((#514))
GLOBAL_UNIT_ASSIGNED_CONTEXT((#518,#520,#521))
REPRESENTATION_CONTEXT('','3D')
);
#517=(
GEOMETRIC_REPRESENTATION_CONTEXT(3)
GLOBAL_UNCERTAINTY_ASSIGNED_CONTEXT((#515))
GLOBAL_UNIT_ASSIGNED_CONTEXT((#518,#520,#521))
REPRESENTATION_CONTEXT('','3D')
);
#518=(
LENGTH_UNIT()
NAMED_UNIT(*)
SI_UNIT(.MILLI.,.METRE.)
);
#519=(
LENGTH_UNIT()
NAMED_UNIT(*)
SI_UNIT($,.METRE.)
);
#520=(
NAMED_UNIT(*)
PLANE_ANGLE_UNIT()
SI_UNIT($,.RADIAN.)
);
#521=(
NAMED_UNIT(*)
SI_UNIT($,.STERADIAN.)
SOLID_ANGLE_UNIT()
);
#522=SHAPE_DEFINITION_REPRESENTATION(#523,#524);
#523=PRODUCT_DEFINITION_SHAPE('',$,#526);
#524=SHAPE_REPRESENTATION('',(#306),#516);
#525=PRODUCT_DEFINITION_CONTEXT('part definition',#530,'design');
#526=PRODUCT_DEFINITION('2026-08-31-16-18-36-800',
'EXPORT_PRINT_V028_P217_J2HubDrillJig',#527,#525);
#527=PRODUCT_DEFINITION_FORMATION('',$,#532);
#528=PRODUCT_RELATED_PRODUCT_CATEGORY(
'EXPORT_PRINT_V028_P217_J2HubDrillJig',
'EXPORT_PRINT_V028_P217_J2HubDrillJig',(#532));
#529=APPLICATION_PROTOCOL_DEFINITION('international standard',
'automotive_design',2009,#530);
#530=APPLICATION_CONTEXT(
'Core Data for Automotive Mechanical Design Process');
#531=PRODUCT_CONTEXT('part definition',#530,'mechanical');
#532=PRODUCT('2026-08-31-16-18-36-800',
'EXPORT_PRINT_V028_P217_J2HubDrillJig',$,(#531));
#533=PRESENTATION_STYLE_ASSIGNMENT((#534));
#534=SURFACE_STYLE_USAGE(.BOTH.,#535);
#535=SURFACE_SIDE_STYLE('',(#536));
#536=SURFACE_STYLE_FILL_AREA(#537);
#537=FILL_AREA_STYLE('Steel - Satin',(#538));
#538=FILL_AREA_STYLE_COLOUR('Steel - Satin',#539);
#539=COLOUR_RGB('Steel - Satin',0.627450980392157,0.627450980392157,0.627450980392157);
ENDSEC;
END-ISO-10303-21;
